%TF.GenerationSoftware,KiCad,Pcbnew,(5.0.0)*%
%TF.CreationDate,2018-10-05T06:04:53-03:00*%
%TF.ProjectId,LAVIGNA_GONZALO,4C415649474E415F474F4E5A414C4F2E,1*%
%TF.SameCoordinates,Original*%
%TF.FileFunction,Copper,L2,Bot,Signal*%
%TF.FilePolarity,Positive*%
%FSLAX46Y46*%
G04 Gerber Fmt 4.6, Leading zero omitted, Abs format (unit mm)*
G04 Created by KiCad (PCBNEW (5.0.0)) date 10/05/18 06:04:53*
%MOMM*%
%LPD*%
G01*
G04 APERTURE LIST*
%TA.AperFunction,NonConductor*%
%ADD10C,0.300000*%
%TD*%
%TA.AperFunction,NonConductor*%
%ADD11C,0.150000*%
%TD*%
%TA.AperFunction,ComponentPad*%
%ADD12C,1.600000*%
%TD*%
%TA.AperFunction,ComponentPad*%
%ADD13O,1.600000X1.600000*%
%TD*%
%TA.AperFunction,ComponentPad*%
%ADD14R,1.800000X1.800000*%
%TD*%
%TA.AperFunction,ComponentPad*%
%ADD15C,1.800000*%
%TD*%
%TA.AperFunction,ComponentPad*%
%ADD16R,1.500000X1.500000*%
%TD*%
%TA.AperFunction,ComponentPad*%
%ADD17O,1.500000X1.500000*%
%TD*%
%TA.AperFunction,ComponentPad*%
%ADD18R,1.700000X1.700000*%
%TD*%
%TA.AperFunction,ComponentPad*%
%ADD19O,1.700000X1.700000*%
%TD*%
%TA.AperFunction,ViaPad*%
%ADD20C,1.600000*%
%TD*%
%TA.AperFunction,Conductor*%
%ADD21C,0.800000*%
%TD*%
G04 APERTURE END LIST*
D10*
X132671428Y-68548571D02*
X132600000Y-68620000D01*
X132528571Y-68762857D01*
X132528571Y-69120000D01*
X132600000Y-69262857D01*
X132671428Y-69334285D01*
X132814285Y-69405714D01*
X132957142Y-69405714D01*
X133171428Y-69334285D01*
X134028571Y-68477142D01*
X134028571Y-69405714D01*
X132528571Y-70334285D02*
X132528571Y-70477142D01*
X132600000Y-70620000D01*
X132671428Y-70691428D01*
X132814285Y-70762857D01*
X133100000Y-70834285D01*
X133457142Y-70834285D01*
X133742857Y-70762857D01*
X133885714Y-70691428D01*
X133957142Y-70620000D01*
X134028571Y-70477142D01*
X134028571Y-70334285D01*
X133957142Y-70191428D01*
X133885714Y-70120000D01*
X133742857Y-70048571D01*
X133457142Y-69977142D01*
X133100000Y-69977142D01*
X132814285Y-70048571D01*
X132671428Y-70120000D01*
X132600000Y-70191428D01*
X132528571Y-70334285D01*
X134028571Y-72262857D02*
X134028571Y-71405714D01*
X134028571Y-71834285D02*
X132528571Y-71834285D01*
X132742857Y-71691428D01*
X132885714Y-71548571D01*
X132957142Y-71405714D01*
X133171428Y-73120000D02*
X133100000Y-72977142D01*
X133028571Y-72905714D01*
X132885714Y-72834285D01*
X132814285Y-72834285D01*
X132671428Y-72905714D01*
X132600000Y-72977142D01*
X132528571Y-73120000D01*
X132528571Y-73405714D01*
X132600000Y-73548571D01*
X132671428Y-73620000D01*
X132814285Y-73691428D01*
X132885714Y-73691428D01*
X133028571Y-73620000D01*
X133100000Y-73548571D01*
X133171428Y-73405714D01*
X133171428Y-73120000D01*
X133242857Y-72977142D01*
X133314285Y-72905714D01*
X133457142Y-72834285D01*
X133742857Y-72834285D01*
X133885714Y-72905714D01*
X133957142Y-72977142D01*
X134028571Y-73120000D01*
X134028571Y-73405714D01*
X133957142Y-73548571D01*
X133885714Y-73620000D01*
X133742857Y-73691428D01*
X133457142Y-73691428D01*
X133314285Y-73620000D01*
X133242857Y-73548571D01*
X133171428Y-73405714D01*
D11*
X114300000Y-82550000D02*
X114300000Y-62230000D01*
X141605000Y-82550000D02*
X114300000Y-82550000D01*
X141605000Y-62230000D02*
X141605000Y-82550000D01*
X114300000Y-62230000D02*
X141605000Y-62230000D01*
D12*
%TO.P,R2,1*%
%TO.N,Net-(C1-Pad1)*%
X138430000Y-66040000D03*
D13*
%TO.P,R2,2*%
%TO.N,Net-(D2-Pad1)*%
X138430000Y-76200000D03*
%TD*%
D12*
%TO.P,C1,1*%
%TO.N,Net-(C1-Pad1)*%
X127000000Y-66040000D03*
%TO.P,C1,2*%
%TO.N,Net-(C1-Pad2)*%
X122000000Y-66040000D03*
%TD*%
D14*
%TO.P,D1,1*%
%TO.N,Net-(C1-Pad1)*%
X125730000Y-71120000D03*
D15*
%TO.P,D1,2*%
%TO.N,Net-(C1-Pad2)*%
X123190000Y-71120000D03*
%TD*%
D16*
%TO.P,D2,1*%
%TO.N,Net-(D2-Pad1)*%
X128270000Y-77470000D03*
D17*
%TO.P,D2,2*%
%TO.N,Net-(D2-Pad2)*%
X120650000Y-77470000D03*
%TD*%
D18*
%TO.P,J1,1*%
%TO.N,Net-(C1-Pad2)*%
X118110000Y-68580000D03*
D19*
%TO.P,J1,2*%
%TO.N,Net-(J1-Pad2)*%
X118110000Y-71120000D03*
%TO.P,J1,3*%
%TO.N,Net-(D2-Pad2)*%
X118110000Y-73660000D03*
%TD*%
D12*
%TO.P,R1,1*%
%TO.N,Net-(C1-Pad1)*%
X133604000Y-66040000D03*
D13*
%TO.P,R1,2*%
%TO.N,Net-(D2-Pad1)*%
X133604000Y-76200000D03*
%TD*%
D20*
%TO.N,Net-(C1-Pad1)*%
X129032000Y-66040000D03*
X131064000Y-66040000D03*
%TD*%
D21*
%TO.N,Net-(C1-Pad1)*%
X127000000Y-66040000D02*
X129032000Y-66040000D01*
X131064000Y-66040000D02*
X133350000Y-66040000D01*
X127000000Y-67564000D02*
X127000000Y-66040000D01*
X125730000Y-71120000D02*
X125730000Y-68834000D01*
X125730000Y-68834000D02*
X127000000Y-67564000D01*
X133604000Y-66040000D02*
X138430000Y-66040000D01*
%TO.N,Net-(C1-Pad2)*%
X120904000Y-66040000D02*
X122000000Y-66040000D01*
X119380000Y-66040000D02*
X120904000Y-66040000D01*
X118110000Y-68580000D02*
X118110000Y-67310000D01*
X118110000Y-67310000D02*
X119380000Y-66040000D01*
X123190000Y-68834000D02*
X123190000Y-71120000D01*
X121920000Y-67564000D02*
X123190000Y-68834000D01*
X122000000Y-66040000D02*
X121920000Y-66120000D01*
X121920000Y-66120000D02*
X121920000Y-67564000D01*
%TO.N,Net-(D2-Pad1)*%
X130810000Y-77470000D02*
X128270000Y-77470000D01*
X133350000Y-76200000D02*
X132080000Y-76200000D01*
X132080000Y-76200000D02*
X130810000Y-77470000D01*
X133604000Y-76200000D02*
X138430000Y-76200000D01*
%TO.N,Net-(D2-Pad2)*%
X118110000Y-76200000D02*
X118110000Y-73660000D01*
X120650000Y-77470000D02*
X119380000Y-77470000D01*
X119380000Y-77470000D02*
X118110000Y-76200000D01*
%TD*%
M02*
