%TF.GenerationSoftware,KiCad,Pcbnew,(5.0.0)*%
%TF.CreationDate,2018-10-05T06:04:53-03:00*%
%TF.ProjectId,LAVIGNA_GONZALO,4C415649474E415F474F4E5A414C4F2E,1*%
%TF.SameCoordinates,Original*%
%TF.FileFunction,Legend,Top*%
%TF.FilePolarity,Positive*%
%FSLAX46Y46*%
G04 Gerber Fmt 4.6, Leading zero omitted, Abs format (unit mm)*
G04 Created by KiCad (PCBNEW (5.0.0)) date 10/05/18 06:04:53*
%MOMM*%
%LPD*%
G01*
G04 APERTURE LIST*
%ADD10C,0.200000*%
%ADD11C,0.150000*%
%ADD12C,0.120000*%
G04 APERTURE END LIST*
D10*
X115165476Y-79612380D02*
X115165476Y-78612380D01*
X115736904Y-79612380D02*
X115308333Y-79040952D01*
X115736904Y-78612380D02*
X115165476Y-79183809D01*
X116165476Y-79612380D02*
X116165476Y-78612380D01*
X117213095Y-79517142D02*
X117165476Y-79564761D01*
X117022619Y-79612380D01*
X116927380Y-79612380D01*
X116784523Y-79564761D01*
X116689285Y-79469523D01*
X116641666Y-79374285D01*
X116594047Y-79183809D01*
X116594047Y-79040952D01*
X116641666Y-78850476D01*
X116689285Y-78755238D01*
X116784523Y-78660000D01*
X116927380Y-78612380D01*
X117022619Y-78612380D01*
X117165476Y-78660000D01*
X117213095Y-78707619D01*
X117594047Y-79326666D02*
X118070238Y-79326666D01*
X117498809Y-79612380D02*
X117832142Y-78612380D01*
X118165476Y-79612380D01*
X118498809Y-79612380D02*
X118498809Y-78612380D01*
X118736904Y-78612380D01*
X118879761Y-78660000D01*
X118975000Y-78755238D01*
X119022619Y-78850476D01*
X119070238Y-79040952D01*
X119070238Y-79183809D01*
X119022619Y-79374285D01*
X118975000Y-79469523D01*
X118879761Y-79564761D01*
X118736904Y-79612380D01*
X118498809Y-79612380D01*
X115641666Y-80312380D02*
X116213095Y-80312380D01*
X115927380Y-81312380D02*
X115927380Y-80312380D01*
X116736904Y-80312380D02*
X116927380Y-80312380D01*
X117022619Y-80360000D01*
X117117857Y-80455238D01*
X117165476Y-80645714D01*
X117165476Y-80979047D01*
X117117857Y-81169523D01*
X117022619Y-81264761D01*
X116927380Y-81312380D01*
X116736904Y-81312380D01*
X116641666Y-81264761D01*
X116546428Y-81169523D01*
X116498809Y-80979047D01*
X116498809Y-80645714D01*
X116546428Y-80455238D01*
X116641666Y-80360000D01*
X116736904Y-80312380D01*
X117594047Y-80312380D02*
X117594047Y-81121904D01*
X117641666Y-81217142D01*
X117689285Y-81264761D01*
X117784523Y-81312380D01*
X117975000Y-81312380D01*
X118070238Y-81264761D01*
X118117857Y-81217142D01*
X118165476Y-81121904D01*
X118165476Y-80312380D01*
X119213095Y-81312380D02*
X118879761Y-80836190D01*
X118641666Y-81312380D02*
X118641666Y-80312380D01*
X119022619Y-80312380D01*
X119117857Y-80360000D01*
X119165476Y-80407619D01*
X119213095Y-80502857D01*
X119213095Y-80645714D01*
X119165476Y-80740952D01*
X119117857Y-80788571D01*
X119022619Y-80836190D01*
X118641666Y-80836190D01*
D11*
X114300000Y-82550000D02*
X114300000Y-62230000D01*
X141605000Y-82550000D02*
X114300000Y-82550000D01*
X141605000Y-62230000D02*
X141605000Y-82550000D01*
X114300000Y-62230000D02*
X141605000Y-62230000D01*
D12*
%TO.C,R2*%
X139800000Y-67850000D02*
X137060000Y-67850000D01*
X137060000Y-67850000D02*
X137060000Y-74390000D01*
X137060000Y-74390000D02*
X139800000Y-74390000D01*
X139800000Y-74390000D02*
X139800000Y-67850000D01*
X138430000Y-67080000D02*
X138430000Y-67850000D01*
X138430000Y-75160000D02*
X138430000Y-74390000D01*
%TO.C,C1*%
X126770000Y-67110000D02*
X122230000Y-67110000D01*
X126770000Y-64970000D02*
X122230000Y-64970000D01*
X126770000Y-67110000D02*
X126770000Y-67095000D01*
X126770000Y-64985000D02*
X126770000Y-64970000D01*
X122230000Y-67110000D02*
X122230000Y-67095000D01*
X122230000Y-64985000D02*
X122230000Y-64970000D01*
%TO.C,D1*%
X122787665Y-72198608D02*
G75*
G03X126020000Y-72355516I1672335J1078608D01*
G01*
X122787665Y-70041392D02*
G75*
G02X126020000Y-69884484I1672335J-1078608D01*
G01*
X123418870Y-72199837D02*
G75*
G03X125500961Y-72200000I1041130J1079837D01*
G01*
X123418870Y-70040163D02*
G75*
G02X125500961Y-70040000I1041130J-1079837D01*
G01*
X126020000Y-72356000D02*
X126020000Y-72200000D01*
X126020000Y-70040000D02*
X126020000Y-69884000D01*
%TO.C,D2*%
X126100000Y-78390000D02*
X126100000Y-76550000D01*
X126100000Y-76550000D02*
X122820000Y-76550000D01*
X122820000Y-76550000D02*
X122820000Y-78390000D01*
X122820000Y-78390000D02*
X126100000Y-78390000D01*
X127280000Y-77470000D02*
X126100000Y-77470000D01*
X121640000Y-77470000D02*
X122820000Y-77470000D01*
X125524000Y-78390000D02*
X125524000Y-76550000D01*
X125404000Y-78390000D02*
X125404000Y-76550000D01*
X125644000Y-78390000D02*
X125644000Y-76550000D01*
%TO.C,J1*%
X116780000Y-74990000D02*
X119440000Y-74990000D01*
X116780000Y-69850000D02*
X116780000Y-74990000D01*
X119440000Y-69850000D02*
X119440000Y-74990000D01*
X116780000Y-69850000D02*
X119440000Y-69850000D01*
X116780000Y-68580000D02*
X116780000Y-67250000D01*
X116780000Y-67250000D02*
X118110000Y-67250000D01*
%TO.C,R1*%
X134974000Y-67850000D02*
X132234000Y-67850000D01*
X132234000Y-67850000D02*
X132234000Y-74390000D01*
X132234000Y-74390000D02*
X134974000Y-74390000D01*
X134974000Y-74390000D02*
X134974000Y-67850000D01*
X133604000Y-67080000D02*
X133604000Y-67850000D01*
X133604000Y-75160000D02*
X133604000Y-74390000D01*
%TD*%
%TO.C,R2*%
D11*
X141252380Y-71286666D02*
X140776190Y-71620000D01*
X141252380Y-71858095D02*
X140252380Y-71858095D01*
X140252380Y-71477142D01*
X140300000Y-71381904D01*
X140347619Y-71334285D01*
X140442857Y-71286666D01*
X140585714Y-71286666D01*
X140680952Y-71334285D01*
X140728571Y-71381904D01*
X140776190Y-71477142D01*
X140776190Y-71858095D01*
X140347619Y-70905714D02*
X140300000Y-70858095D01*
X140252380Y-70762857D01*
X140252380Y-70524761D01*
X140300000Y-70429523D01*
X140347619Y-70381904D01*
X140442857Y-70334285D01*
X140538095Y-70334285D01*
X140680952Y-70381904D01*
X141252380Y-70953333D01*
X141252380Y-70334285D01*
%TO.C,C1*%
X119848333Y-66397142D02*
X119800714Y-66444761D01*
X119657857Y-66492380D01*
X119562619Y-66492380D01*
X119419761Y-66444761D01*
X119324523Y-66349523D01*
X119276904Y-66254285D01*
X119229285Y-66063809D01*
X119229285Y-65920952D01*
X119276904Y-65730476D01*
X119324523Y-65635238D01*
X119419761Y-65540000D01*
X119562619Y-65492380D01*
X119657857Y-65492380D01*
X119800714Y-65540000D01*
X119848333Y-65587619D01*
X120800714Y-66492380D02*
X120229285Y-66492380D01*
X120515000Y-66492380D02*
X120515000Y-65492380D01*
X120419761Y-65635238D01*
X120324523Y-65730476D01*
X120229285Y-65778095D01*
%TO.C,D1*%
X127531904Y-71572380D02*
X127531904Y-70572380D01*
X127770000Y-70572380D01*
X127912857Y-70620000D01*
X128008095Y-70715238D01*
X128055714Y-70810476D01*
X128103333Y-71000952D01*
X128103333Y-71143809D01*
X128055714Y-71334285D01*
X128008095Y-71429523D01*
X127912857Y-71524761D01*
X127770000Y-71572380D01*
X127531904Y-71572380D01*
X129055714Y-71572380D02*
X128484285Y-71572380D01*
X128770000Y-71572380D02*
X128770000Y-70572380D01*
X128674761Y-70715238D01*
X128579523Y-70810476D01*
X128484285Y-70858095D01*
%TO.C,D2*%
X123721904Y-76017380D02*
X123721904Y-75017380D01*
X123960000Y-75017380D01*
X124102857Y-75065000D01*
X124198095Y-75160238D01*
X124245714Y-75255476D01*
X124293333Y-75445952D01*
X124293333Y-75588809D01*
X124245714Y-75779285D01*
X124198095Y-75874523D01*
X124102857Y-75969761D01*
X123960000Y-76017380D01*
X123721904Y-76017380D01*
X124674285Y-75112619D02*
X124721904Y-75065000D01*
X124817142Y-75017380D01*
X125055238Y-75017380D01*
X125150476Y-75065000D01*
X125198095Y-75112619D01*
X125245714Y-75207857D01*
X125245714Y-75303095D01*
X125198095Y-75445952D01*
X124626666Y-76017380D01*
X125245714Y-76017380D01*
X128008095Y-79672380D02*
X128008095Y-78672380D01*
X128579523Y-79672380D02*
X128150952Y-79100952D01*
X128579523Y-78672380D02*
X128008095Y-79243809D01*
%TO.C,J1*%
X117776666Y-75652380D02*
X117776666Y-76366666D01*
X117729047Y-76509523D01*
X117633809Y-76604761D01*
X117490952Y-76652380D01*
X117395714Y-76652380D01*
X118776666Y-76652380D02*
X118205238Y-76652380D01*
X118490952Y-76652380D02*
X118490952Y-75652380D01*
X118395714Y-75795238D01*
X118300476Y-75890476D01*
X118205238Y-75938095D01*
%TO.C,R1*%
X136342380Y-71286666D02*
X135866190Y-71620000D01*
X136342380Y-71858095D02*
X135342380Y-71858095D01*
X135342380Y-71477142D01*
X135390000Y-71381904D01*
X135437619Y-71334285D01*
X135532857Y-71286666D01*
X135675714Y-71286666D01*
X135770952Y-71334285D01*
X135818571Y-71381904D01*
X135866190Y-71477142D01*
X135866190Y-71858095D01*
X136342380Y-70334285D02*
X136342380Y-70905714D01*
X136342380Y-70620000D02*
X135342380Y-70620000D01*
X135485238Y-70715238D01*
X135580476Y-70810476D01*
X135628095Y-70905714D01*
%TD*%
M02*
