G04 #@! TF.GenerationSoftware,KiCad,Pcbnew,5.0.0-fee4fd1~66~ubuntu16.04.1*
G04 #@! TF.CreationDate,2018-10-25T21:56:12-03:00*
G04 #@! TF.ProjectId,pap,7061702E6B696361645F706362000000,1.0*
G04 #@! TF.SameCoordinates,Original*
G04 #@! TF.FileFunction,Soldermask,Bot*
G04 #@! TF.FilePolarity,Negative*
%FSLAX46Y46*%
G04 Gerber Fmt 4.6, Leading zero omitted, Abs format (unit mm)*
G04 Created by KiCad (PCBNEW 5.0.0-fee4fd1~66~ubuntu16.04.1) date Thu Oct 25 21:56:12 2018*
%MOMM*%
%LPD*%
G01*
G04 APERTURE LIST*
%ADD10C,0.150000*%
%ADD11C,0.200000*%
%ADD12C,2.250000*%
%ADD13C,0.100000*%
%ADD14C,1.225000*%
%ADD15C,1.400000*%
%ADD16O,5.250000X4.250000*%
%ADD17C,2.000000*%
%ADD18C,0.500000*%
%ADD19R,2.050000X2.050000*%
%ADD20C,1.675000*%
%ADD21C,4.250000*%
%ADD22C,3.450000*%
%ADD23R,2.450000X2.750000*%
%ADD24O,2.250000X1.750000*%
%ADD25C,3.750000*%
%ADD26C,1.500000*%
%ADD27R,2.550000X3.260000*%
%ADD28R,0.450000X1.050000*%
%ADD29R,1.050000X0.450000*%
%ADD30R,5.830000X4.930000*%
%ADD31R,1.410000X1.450000*%
%ADD32C,1.250000*%
%ADD33C,1.650000*%
G04 APERTURE END LIST*
D10*
G36*
X125130310Y-105349079D02*
X125130310Y-106649079D01*
X140430310Y-106649079D01*
X140430310Y-118349079D01*
X125330310Y-118349079D01*
X125230310Y-119649079D01*
X140330310Y-119649079D01*
X140330310Y-121349079D01*
X141530310Y-121349079D01*
X141530310Y-119049079D01*
X149430310Y-119049079D01*
X149430310Y-116049079D01*
X141630310Y-116049079D01*
X141630310Y-103349079D01*
X140330310Y-103349079D01*
X140430310Y-105349079D01*
X125130310Y-105349079D01*
G37*
X125130310Y-105349079D02*
X125130310Y-106649079D01*
X140430310Y-106649079D01*
X140430310Y-118349079D01*
X125330310Y-118349079D01*
X125230310Y-119649079D01*
X140330310Y-119649079D01*
X140330310Y-121349079D01*
X141530310Y-121349079D01*
X141530310Y-119049079D01*
X149430310Y-119049079D01*
X149430310Y-116049079D01*
X141630310Y-116049079D01*
X141630310Y-103349079D01*
X140330310Y-103349079D01*
X140430310Y-105349079D01*
X125130310Y-105349079D01*
D11*
X150813167Y-85453840D02*
X150813167Y-83453840D01*
X150813167Y-85358602D02*
X150938881Y-85453840D01*
X151190310Y-85453840D01*
X151316024Y-85358602D01*
X151378881Y-85263364D01*
X151441738Y-85072888D01*
X151441738Y-84501459D01*
X151378881Y-84310983D01*
X151316024Y-84215745D01*
X151190310Y-84120507D01*
X150938881Y-84120507D01*
X150813167Y-84215745D01*
X150184595Y-85453840D02*
X150184595Y-84120507D01*
X150184595Y-83453840D02*
X150247452Y-83549079D01*
X150184595Y-83644317D01*
X150121738Y-83549079D01*
X150184595Y-83453840D01*
X150184595Y-83644317D01*
X149618881Y-85358602D02*
X149493167Y-85453840D01*
X149241738Y-85453840D01*
X149116024Y-85358602D01*
X149053167Y-85168126D01*
X149053167Y-85072888D01*
X149116024Y-84882412D01*
X149241738Y-84787174D01*
X149430310Y-84787174D01*
X149556024Y-84691936D01*
X149618881Y-84501459D01*
X149618881Y-84406221D01*
X149556024Y-84215745D01*
X149430310Y-84120507D01*
X149241738Y-84120507D01*
X149116024Y-84215745D01*
X147984595Y-85358602D02*
X148110310Y-85453840D01*
X148361738Y-85453840D01*
X148487452Y-85358602D01*
X148550310Y-85168126D01*
X148550310Y-84406221D01*
X148487452Y-84215745D01*
X148361738Y-84120507D01*
X148110310Y-84120507D01*
X147984595Y-84215745D01*
X147921738Y-84406221D01*
X147921738Y-84596698D01*
X148550310Y-84787174D01*
X147356024Y-84120507D02*
X147356024Y-85453840D01*
X147356024Y-84310983D02*
X147293167Y-84215745D01*
X147167452Y-84120507D01*
X146978881Y-84120507D01*
X146853167Y-84215745D01*
X146790310Y-84406221D01*
X146790310Y-85453840D01*
X146161738Y-85453840D02*
X146161738Y-84120507D01*
X146161738Y-83453840D02*
X146224595Y-83549079D01*
X146161738Y-83644317D01*
X146098881Y-83549079D01*
X146161738Y-83453840D01*
X146161738Y-83644317D01*
X145344595Y-85453840D02*
X145470310Y-85358602D01*
X145533167Y-85263364D01*
X145596024Y-85072888D01*
X145596024Y-84501459D01*
X145533167Y-84310983D01*
X145470310Y-84215745D01*
X145344595Y-84120507D01*
X145156024Y-84120507D01*
X145030310Y-84215745D01*
X144967452Y-84310983D01*
X144904595Y-84501459D01*
X144904595Y-85072888D01*
X144967452Y-85263364D01*
X145030310Y-85358602D01*
X145156024Y-85453840D01*
X145344595Y-85453840D01*
X143773167Y-85358602D02*
X143898881Y-85453840D01*
X144150310Y-85453840D01*
X144276024Y-85358602D01*
X144338881Y-85263364D01*
X144401738Y-85072888D01*
X144401738Y-84501459D01*
X144338881Y-84310983D01*
X144276024Y-84215745D01*
X144150310Y-84120507D01*
X143898881Y-84120507D01*
X143773167Y-84215745D01*
X143018881Y-85453840D02*
X143144595Y-85358602D01*
X143207452Y-85263364D01*
X143270310Y-85072888D01*
X143270310Y-84501459D01*
X143207452Y-84310983D01*
X143144595Y-84215745D01*
X143018881Y-84120507D01*
X142830310Y-84120507D01*
X142704595Y-84215745D01*
X142641738Y-84310983D01*
X142578881Y-84501459D01*
X142578881Y-85072888D01*
X142641738Y-85263364D01*
X142704595Y-85358602D01*
X142830310Y-85453840D01*
X143018881Y-85453840D01*
X142013167Y-84120507D02*
X142013167Y-85453840D01*
X142013167Y-84310983D02*
X141950310Y-84215745D01*
X141824595Y-84120507D01*
X141636024Y-84120507D01*
X141510310Y-84215745D01*
X141447452Y-84406221D01*
X141447452Y-85453840D01*
X140818881Y-85453840D02*
X140818881Y-84120507D01*
X140818881Y-83453840D02*
X140881738Y-83549079D01*
X140818881Y-83644317D01*
X140756024Y-83549079D01*
X140818881Y-83453840D01*
X140818881Y-83644317D01*
X140190310Y-84120507D02*
X140190310Y-85453840D01*
X140190310Y-84310983D02*
X140127452Y-84215745D01*
X140001738Y-84120507D01*
X139813167Y-84120507D01*
X139687452Y-84215745D01*
X139624595Y-84406221D01*
X139624595Y-85453840D01*
X138430310Y-84120507D02*
X138430310Y-85739555D01*
X138493167Y-85930031D01*
X138556024Y-86025269D01*
X138681738Y-86120507D01*
X138870310Y-86120507D01*
X138996024Y-86025269D01*
X138430310Y-85358602D02*
X138556024Y-85453840D01*
X138807452Y-85453840D01*
X138933167Y-85358602D01*
X138996024Y-85263364D01*
X139058881Y-85072888D01*
X139058881Y-84501459D01*
X138996024Y-84310983D01*
X138933167Y-84215745D01*
X138807452Y-84120507D01*
X138556024Y-84120507D01*
X138430310Y-84215745D01*
X137298881Y-85358602D02*
X137424595Y-85453840D01*
X137676024Y-85453840D01*
X137801738Y-85358602D01*
X137864595Y-85168126D01*
X137864595Y-84406221D01*
X137801738Y-84215745D01*
X137676024Y-84120507D01*
X137424595Y-84120507D01*
X137298881Y-84215745D01*
X137236024Y-84406221D01*
X137236024Y-84596698D01*
X137864595Y-84787174D01*
X136670310Y-84120507D02*
X136670310Y-85453840D01*
X136670310Y-84310983D02*
X136607452Y-84215745D01*
X136481738Y-84120507D01*
X136293167Y-84120507D01*
X136167452Y-84215745D01*
X136104595Y-84406221D01*
X136104595Y-85453840D01*
X135476024Y-85453840D02*
X135476024Y-84120507D01*
X135476024Y-83453840D02*
X135538881Y-83549079D01*
X135476024Y-83644317D01*
X135413167Y-83549079D01*
X135476024Y-83453840D01*
X135476024Y-83644317D01*
X134658881Y-85453840D02*
X134784595Y-85358602D01*
X134847452Y-85263364D01*
X134910310Y-85072888D01*
X134910310Y-84501459D01*
X134847452Y-84310983D01*
X134784595Y-84215745D01*
X134658881Y-84120507D01*
X134470310Y-84120507D01*
X134344595Y-84215745D01*
X134281738Y-84310983D01*
X134218881Y-84501459D01*
X134218881Y-85072888D01*
X134281738Y-85263364D01*
X134344595Y-85358602D01*
X134470310Y-85453840D01*
X134658881Y-85453840D01*
D10*
G36*
X124830310Y-99749079D02*
X124830310Y-100749079D01*
X126730310Y-102649079D01*
X134530310Y-102649079D01*
X134530310Y-101249079D01*
X127430310Y-101249079D01*
X125930310Y-99749079D01*
X124830310Y-99749079D01*
G37*
X124830310Y-99749079D02*
X124830310Y-100749079D01*
X126730310Y-102649079D01*
X134530310Y-102649079D01*
X134530310Y-101249079D01*
X127430310Y-101249079D01*
X125930310Y-99749079D01*
X124830310Y-99749079D01*
G36*
X124730310Y-124249079D02*
X124730310Y-122649079D01*
X134430310Y-122649079D01*
X135430310Y-123549079D01*
X135430310Y-124249079D01*
X125830310Y-124249079D01*
X124730310Y-124249079D01*
G37*
X124730310Y-124249079D02*
X124730310Y-122649079D01*
X134430310Y-122649079D01*
X135430310Y-123549079D01*
X135430310Y-124249079D01*
X125830310Y-124249079D01*
X124730310Y-124249079D01*
G36*
X110830310Y-103749079D02*
X112130310Y-103749079D01*
X112130310Y-99549079D01*
X115130310Y-96549079D01*
X125730310Y-96549079D01*
X128030310Y-98849079D01*
X138030310Y-98849079D01*
X139930310Y-100749079D01*
X140030310Y-100849079D01*
X140230310Y-101049079D01*
X141030310Y-100249079D01*
X141130310Y-100149079D01*
X138630310Y-97649079D01*
X128630310Y-97649079D01*
X126330310Y-95349079D01*
X114730310Y-95349079D01*
X110830310Y-99249079D01*
X110830310Y-103749079D01*
G37*
X110830310Y-103749079D02*
X112130310Y-103749079D01*
X112130310Y-99549079D01*
X115130310Y-96549079D01*
X125730310Y-96549079D01*
X128030310Y-98849079D01*
X138030310Y-98849079D01*
X139930310Y-100749079D01*
X140030310Y-100849079D01*
X140230310Y-101049079D01*
X141030310Y-100249079D01*
X141130310Y-100149079D01*
X138630310Y-97649079D01*
X128630310Y-97649079D01*
X126330310Y-95349079D01*
X114730310Y-95349079D01*
X110830310Y-99249079D01*
X110830310Y-103749079D01*
G36*
X110930310Y-121049079D02*
X112230310Y-121049079D01*
X112230310Y-125449079D01*
X115330310Y-128549079D01*
X126730310Y-128549079D01*
X129030310Y-126249079D01*
X136830310Y-126249079D01*
X139630310Y-123449079D01*
X140430310Y-124249079D01*
X137330310Y-127349079D01*
X129530310Y-127349079D01*
X127030310Y-129849079D01*
X114830310Y-129849079D01*
X110930310Y-125949079D01*
X110930310Y-121049079D01*
G37*
X110930310Y-121049079D02*
X112230310Y-121049079D01*
X112230310Y-125449079D01*
X115330310Y-128549079D01*
X126730310Y-128549079D01*
X129030310Y-126249079D01*
X136830310Y-126249079D01*
X139630310Y-123449079D01*
X140430310Y-124249079D01*
X137330310Y-127349079D01*
X129530310Y-127349079D01*
X127030310Y-129849079D01*
X114830310Y-129849079D01*
X110930310Y-125949079D01*
X110930310Y-121049079D01*
D12*
G04 #@! TO.C,D9*
X101500000Y-110810000D03*
X101500000Y-114110000D03*
G04 #@! TD*
G04 #@! TO.C,D6*
X101500000Y-123000000D03*
X101500000Y-120460000D03*
G04 #@! TD*
G04 #@! TO.C,D5*
X101500000Y-104500000D03*
X101500000Y-101960000D03*
G04 #@! TD*
G04 #@! TO.C,D13*
X101500000Y-94500000D03*
X101500000Y-91960000D03*
G04 #@! TD*
G04 #@! TO.C,D4*
X101500000Y-133040000D03*
X101500000Y-130500000D03*
G04 #@! TD*
G04 #@! TO.C,D7*
X144500000Y-137640000D03*
X144500000Y-135100000D03*
G04 #@! TD*
G04 #@! TO.C,D10*
X144600000Y-89840000D03*
X144600000Y-87300000D03*
G04 #@! TD*
G04 #@! TO.C,D8*
X144500000Y-130500000D03*
X144500000Y-127960000D03*
G04 #@! TD*
G04 #@! TO.C,D11*
X144600000Y-97000000D03*
X144600000Y-94460000D03*
G04 #@! TD*
G04 #@! TO.C,D14*
X144500000Y-113749079D03*
X144500000Y-111209079D03*
G04 #@! TD*
D13*
G04 #@! TO.C,R17*
G36*
X98166578Y-88625554D02*
X98196306Y-88629964D01*
X98225460Y-88637266D01*
X98253757Y-88647391D01*
X98280925Y-88660241D01*
X98306703Y-88675691D01*
X98330843Y-88693595D01*
X98353111Y-88713778D01*
X98373294Y-88736046D01*
X98391198Y-88760186D01*
X98406648Y-88785964D01*
X98419498Y-88813132D01*
X98429623Y-88841429D01*
X98436925Y-88870583D01*
X98441335Y-88900311D01*
X98442810Y-88930329D01*
X98442810Y-89967829D01*
X98441335Y-89997847D01*
X98436925Y-90027575D01*
X98429623Y-90056729D01*
X98419498Y-90085026D01*
X98406648Y-90112194D01*
X98391198Y-90137972D01*
X98373294Y-90162112D01*
X98353111Y-90184380D01*
X98330843Y-90204563D01*
X98306703Y-90222467D01*
X98280925Y-90237917D01*
X98253757Y-90250767D01*
X98225460Y-90260892D01*
X98196306Y-90268194D01*
X98166578Y-90272604D01*
X98136560Y-90274079D01*
X97524060Y-90274079D01*
X97494042Y-90272604D01*
X97464314Y-90268194D01*
X97435160Y-90260892D01*
X97406863Y-90250767D01*
X97379695Y-90237917D01*
X97353917Y-90222467D01*
X97329777Y-90204563D01*
X97307509Y-90184380D01*
X97287326Y-90162112D01*
X97269422Y-90137972D01*
X97253972Y-90112194D01*
X97241122Y-90085026D01*
X97230997Y-90056729D01*
X97223695Y-90027575D01*
X97219285Y-89997847D01*
X97217810Y-89967829D01*
X97217810Y-88930329D01*
X97219285Y-88900311D01*
X97223695Y-88870583D01*
X97230997Y-88841429D01*
X97241122Y-88813132D01*
X97253972Y-88785964D01*
X97269422Y-88760186D01*
X97287326Y-88736046D01*
X97307509Y-88713778D01*
X97329777Y-88693595D01*
X97353917Y-88675691D01*
X97379695Y-88660241D01*
X97406863Y-88647391D01*
X97435160Y-88637266D01*
X97464314Y-88629964D01*
X97494042Y-88625554D01*
X97524060Y-88624079D01*
X98136560Y-88624079D01*
X98166578Y-88625554D01*
X98166578Y-88625554D01*
G37*
D14*
X97830310Y-89449079D03*
D13*
G36*
X96291578Y-88625554D02*
X96321306Y-88629964D01*
X96350460Y-88637266D01*
X96378757Y-88647391D01*
X96405925Y-88660241D01*
X96431703Y-88675691D01*
X96455843Y-88693595D01*
X96478111Y-88713778D01*
X96498294Y-88736046D01*
X96516198Y-88760186D01*
X96531648Y-88785964D01*
X96544498Y-88813132D01*
X96554623Y-88841429D01*
X96561925Y-88870583D01*
X96566335Y-88900311D01*
X96567810Y-88930329D01*
X96567810Y-89967829D01*
X96566335Y-89997847D01*
X96561925Y-90027575D01*
X96554623Y-90056729D01*
X96544498Y-90085026D01*
X96531648Y-90112194D01*
X96516198Y-90137972D01*
X96498294Y-90162112D01*
X96478111Y-90184380D01*
X96455843Y-90204563D01*
X96431703Y-90222467D01*
X96405925Y-90237917D01*
X96378757Y-90250767D01*
X96350460Y-90260892D01*
X96321306Y-90268194D01*
X96291578Y-90272604D01*
X96261560Y-90274079D01*
X95649060Y-90274079D01*
X95619042Y-90272604D01*
X95589314Y-90268194D01*
X95560160Y-90260892D01*
X95531863Y-90250767D01*
X95504695Y-90237917D01*
X95478917Y-90222467D01*
X95454777Y-90204563D01*
X95432509Y-90184380D01*
X95412326Y-90162112D01*
X95394422Y-90137972D01*
X95378972Y-90112194D01*
X95366122Y-90085026D01*
X95355997Y-90056729D01*
X95348695Y-90027575D01*
X95344285Y-89997847D01*
X95342810Y-89967829D01*
X95342810Y-88930329D01*
X95344285Y-88900311D01*
X95348695Y-88870583D01*
X95355997Y-88841429D01*
X95366122Y-88813132D01*
X95378972Y-88785964D01*
X95394422Y-88760186D01*
X95412326Y-88736046D01*
X95432509Y-88713778D01*
X95454777Y-88693595D01*
X95478917Y-88675691D01*
X95504695Y-88660241D01*
X95531863Y-88647391D01*
X95560160Y-88637266D01*
X95589314Y-88629964D01*
X95619042Y-88625554D01*
X95649060Y-88624079D01*
X96261560Y-88624079D01*
X96291578Y-88625554D01*
X96291578Y-88625554D01*
G37*
D14*
X95955310Y-89449079D03*
G04 #@! TD*
D13*
G04 #@! TO.C,C7*
G36*
X130329078Y-94025554D02*
X130358806Y-94029964D01*
X130387960Y-94037266D01*
X130416257Y-94047391D01*
X130443425Y-94060241D01*
X130469203Y-94075691D01*
X130493343Y-94093595D01*
X130515611Y-94113778D01*
X130535794Y-94136046D01*
X130553698Y-94160186D01*
X130569148Y-94185964D01*
X130581998Y-94213132D01*
X130592123Y-94241429D01*
X130599425Y-94270583D01*
X130603835Y-94300311D01*
X130605310Y-94330329D01*
X130605310Y-95367829D01*
X130603835Y-95397847D01*
X130599425Y-95427575D01*
X130592123Y-95456729D01*
X130581998Y-95485026D01*
X130569148Y-95512194D01*
X130553698Y-95537972D01*
X130535794Y-95562112D01*
X130515611Y-95584380D01*
X130493343Y-95604563D01*
X130469203Y-95622467D01*
X130443425Y-95637917D01*
X130416257Y-95650767D01*
X130387960Y-95660892D01*
X130358806Y-95668194D01*
X130329078Y-95672604D01*
X130299060Y-95674079D01*
X129686560Y-95674079D01*
X129656542Y-95672604D01*
X129626814Y-95668194D01*
X129597660Y-95660892D01*
X129569363Y-95650767D01*
X129542195Y-95637917D01*
X129516417Y-95622467D01*
X129492277Y-95604563D01*
X129470009Y-95584380D01*
X129449826Y-95562112D01*
X129431922Y-95537972D01*
X129416472Y-95512194D01*
X129403622Y-95485026D01*
X129393497Y-95456729D01*
X129386195Y-95427575D01*
X129381785Y-95397847D01*
X129380310Y-95367829D01*
X129380310Y-94330329D01*
X129381785Y-94300311D01*
X129386195Y-94270583D01*
X129393497Y-94241429D01*
X129403622Y-94213132D01*
X129416472Y-94185964D01*
X129431922Y-94160186D01*
X129449826Y-94136046D01*
X129470009Y-94113778D01*
X129492277Y-94093595D01*
X129516417Y-94075691D01*
X129542195Y-94060241D01*
X129569363Y-94047391D01*
X129597660Y-94037266D01*
X129626814Y-94029964D01*
X129656542Y-94025554D01*
X129686560Y-94024079D01*
X130299060Y-94024079D01*
X130329078Y-94025554D01*
X130329078Y-94025554D01*
G37*
D14*
X129992810Y-94849079D03*
D13*
G36*
X132204078Y-94025554D02*
X132233806Y-94029964D01*
X132262960Y-94037266D01*
X132291257Y-94047391D01*
X132318425Y-94060241D01*
X132344203Y-94075691D01*
X132368343Y-94093595D01*
X132390611Y-94113778D01*
X132410794Y-94136046D01*
X132428698Y-94160186D01*
X132444148Y-94185964D01*
X132456998Y-94213132D01*
X132467123Y-94241429D01*
X132474425Y-94270583D01*
X132478835Y-94300311D01*
X132480310Y-94330329D01*
X132480310Y-95367829D01*
X132478835Y-95397847D01*
X132474425Y-95427575D01*
X132467123Y-95456729D01*
X132456998Y-95485026D01*
X132444148Y-95512194D01*
X132428698Y-95537972D01*
X132410794Y-95562112D01*
X132390611Y-95584380D01*
X132368343Y-95604563D01*
X132344203Y-95622467D01*
X132318425Y-95637917D01*
X132291257Y-95650767D01*
X132262960Y-95660892D01*
X132233806Y-95668194D01*
X132204078Y-95672604D01*
X132174060Y-95674079D01*
X131561560Y-95674079D01*
X131531542Y-95672604D01*
X131501814Y-95668194D01*
X131472660Y-95660892D01*
X131444363Y-95650767D01*
X131417195Y-95637917D01*
X131391417Y-95622467D01*
X131367277Y-95604563D01*
X131345009Y-95584380D01*
X131324826Y-95562112D01*
X131306922Y-95537972D01*
X131291472Y-95512194D01*
X131278622Y-95485026D01*
X131268497Y-95456729D01*
X131261195Y-95427575D01*
X131256785Y-95397847D01*
X131255310Y-95367829D01*
X131255310Y-94330329D01*
X131256785Y-94300311D01*
X131261195Y-94270583D01*
X131268497Y-94241429D01*
X131278622Y-94213132D01*
X131291472Y-94185964D01*
X131306922Y-94160186D01*
X131324826Y-94136046D01*
X131345009Y-94113778D01*
X131367277Y-94093595D01*
X131391417Y-94075691D01*
X131417195Y-94060241D01*
X131444363Y-94047391D01*
X131472660Y-94037266D01*
X131501814Y-94029964D01*
X131531542Y-94025554D01*
X131561560Y-94024079D01*
X132174060Y-94024079D01*
X132204078Y-94025554D01*
X132204078Y-94025554D01*
G37*
D14*
X131867810Y-94849079D03*
G04 #@! TD*
D13*
G04 #@! TO.C,R15*
G36*
X96366578Y-116125554D02*
X96396306Y-116129964D01*
X96425460Y-116137266D01*
X96453757Y-116147391D01*
X96480925Y-116160241D01*
X96506703Y-116175691D01*
X96530843Y-116193595D01*
X96553111Y-116213778D01*
X96573294Y-116236046D01*
X96591198Y-116260186D01*
X96606648Y-116285964D01*
X96619498Y-116313132D01*
X96629623Y-116341429D01*
X96636925Y-116370583D01*
X96641335Y-116400311D01*
X96642810Y-116430329D01*
X96642810Y-117467829D01*
X96641335Y-117497847D01*
X96636925Y-117527575D01*
X96629623Y-117556729D01*
X96619498Y-117585026D01*
X96606648Y-117612194D01*
X96591198Y-117637972D01*
X96573294Y-117662112D01*
X96553111Y-117684380D01*
X96530843Y-117704563D01*
X96506703Y-117722467D01*
X96480925Y-117737917D01*
X96453757Y-117750767D01*
X96425460Y-117760892D01*
X96396306Y-117768194D01*
X96366578Y-117772604D01*
X96336560Y-117774079D01*
X95724060Y-117774079D01*
X95694042Y-117772604D01*
X95664314Y-117768194D01*
X95635160Y-117760892D01*
X95606863Y-117750767D01*
X95579695Y-117737917D01*
X95553917Y-117722467D01*
X95529777Y-117704563D01*
X95507509Y-117684380D01*
X95487326Y-117662112D01*
X95469422Y-117637972D01*
X95453972Y-117612194D01*
X95441122Y-117585026D01*
X95430997Y-117556729D01*
X95423695Y-117527575D01*
X95419285Y-117497847D01*
X95417810Y-117467829D01*
X95417810Y-116430329D01*
X95419285Y-116400311D01*
X95423695Y-116370583D01*
X95430997Y-116341429D01*
X95441122Y-116313132D01*
X95453972Y-116285964D01*
X95469422Y-116260186D01*
X95487326Y-116236046D01*
X95507509Y-116213778D01*
X95529777Y-116193595D01*
X95553917Y-116175691D01*
X95579695Y-116160241D01*
X95606863Y-116147391D01*
X95635160Y-116137266D01*
X95664314Y-116129964D01*
X95694042Y-116125554D01*
X95724060Y-116124079D01*
X96336560Y-116124079D01*
X96366578Y-116125554D01*
X96366578Y-116125554D01*
G37*
D14*
X96030310Y-116949079D03*
D13*
G36*
X94491578Y-116125554D02*
X94521306Y-116129964D01*
X94550460Y-116137266D01*
X94578757Y-116147391D01*
X94605925Y-116160241D01*
X94631703Y-116175691D01*
X94655843Y-116193595D01*
X94678111Y-116213778D01*
X94698294Y-116236046D01*
X94716198Y-116260186D01*
X94731648Y-116285964D01*
X94744498Y-116313132D01*
X94754623Y-116341429D01*
X94761925Y-116370583D01*
X94766335Y-116400311D01*
X94767810Y-116430329D01*
X94767810Y-117467829D01*
X94766335Y-117497847D01*
X94761925Y-117527575D01*
X94754623Y-117556729D01*
X94744498Y-117585026D01*
X94731648Y-117612194D01*
X94716198Y-117637972D01*
X94698294Y-117662112D01*
X94678111Y-117684380D01*
X94655843Y-117704563D01*
X94631703Y-117722467D01*
X94605925Y-117737917D01*
X94578757Y-117750767D01*
X94550460Y-117760892D01*
X94521306Y-117768194D01*
X94491578Y-117772604D01*
X94461560Y-117774079D01*
X93849060Y-117774079D01*
X93819042Y-117772604D01*
X93789314Y-117768194D01*
X93760160Y-117760892D01*
X93731863Y-117750767D01*
X93704695Y-117737917D01*
X93678917Y-117722467D01*
X93654777Y-117704563D01*
X93632509Y-117684380D01*
X93612326Y-117662112D01*
X93594422Y-117637972D01*
X93578972Y-117612194D01*
X93566122Y-117585026D01*
X93555997Y-117556729D01*
X93548695Y-117527575D01*
X93544285Y-117497847D01*
X93542810Y-117467829D01*
X93542810Y-116430329D01*
X93544285Y-116400311D01*
X93548695Y-116370583D01*
X93555997Y-116341429D01*
X93566122Y-116313132D01*
X93578972Y-116285964D01*
X93594422Y-116260186D01*
X93612326Y-116236046D01*
X93632509Y-116213778D01*
X93654777Y-116193595D01*
X93678917Y-116175691D01*
X93704695Y-116160241D01*
X93731863Y-116147391D01*
X93760160Y-116137266D01*
X93789314Y-116129964D01*
X93819042Y-116125554D01*
X93849060Y-116124079D01*
X94461560Y-116124079D01*
X94491578Y-116125554D01*
X94491578Y-116125554D01*
G37*
D14*
X94155310Y-116949079D03*
G04 #@! TD*
D13*
G04 #@! TO.C,R16*
G36*
X100704078Y-107825554D02*
X100733806Y-107829964D01*
X100762960Y-107837266D01*
X100791257Y-107847391D01*
X100818425Y-107860241D01*
X100844203Y-107875691D01*
X100868343Y-107893595D01*
X100890611Y-107913778D01*
X100910794Y-107936046D01*
X100928698Y-107960186D01*
X100944148Y-107985964D01*
X100956998Y-108013132D01*
X100967123Y-108041429D01*
X100974425Y-108070583D01*
X100978835Y-108100311D01*
X100980310Y-108130329D01*
X100980310Y-109167829D01*
X100978835Y-109197847D01*
X100974425Y-109227575D01*
X100967123Y-109256729D01*
X100956998Y-109285026D01*
X100944148Y-109312194D01*
X100928698Y-109337972D01*
X100910794Y-109362112D01*
X100890611Y-109384380D01*
X100868343Y-109404563D01*
X100844203Y-109422467D01*
X100818425Y-109437917D01*
X100791257Y-109450767D01*
X100762960Y-109460892D01*
X100733806Y-109468194D01*
X100704078Y-109472604D01*
X100674060Y-109474079D01*
X100061560Y-109474079D01*
X100031542Y-109472604D01*
X100001814Y-109468194D01*
X99972660Y-109460892D01*
X99944363Y-109450767D01*
X99917195Y-109437917D01*
X99891417Y-109422467D01*
X99867277Y-109404563D01*
X99845009Y-109384380D01*
X99824826Y-109362112D01*
X99806922Y-109337972D01*
X99791472Y-109312194D01*
X99778622Y-109285026D01*
X99768497Y-109256729D01*
X99761195Y-109227575D01*
X99756785Y-109197847D01*
X99755310Y-109167829D01*
X99755310Y-108130329D01*
X99756785Y-108100311D01*
X99761195Y-108070583D01*
X99768497Y-108041429D01*
X99778622Y-108013132D01*
X99791472Y-107985964D01*
X99806922Y-107960186D01*
X99824826Y-107936046D01*
X99845009Y-107913778D01*
X99867277Y-107893595D01*
X99891417Y-107875691D01*
X99917195Y-107860241D01*
X99944363Y-107847391D01*
X99972660Y-107837266D01*
X100001814Y-107829964D01*
X100031542Y-107825554D01*
X100061560Y-107824079D01*
X100674060Y-107824079D01*
X100704078Y-107825554D01*
X100704078Y-107825554D01*
G37*
D14*
X100367810Y-108649079D03*
D13*
G36*
X98829078Y-107825554D02*
X98858806Y-107829964D01*
X98887960Y-107837266D01*
X98916257Y-107847391D01*
X98943425Y-107860241D01*
X98969203Y-107875691D01*
X98993343Y-107893595D01*
X99015611Y-107913778D01*
X99035794Y-107936046D01*
X99053698Y-107960186D01*
X99069148Y-107985964D01*
X99081998Y-108013132D01*
X99092123Y-108041429D01*
X99099425Y-108070583D01*
X99103835Y-108100311D01*
X99105310Y-108130329D01*
X99105310Y-109167829D01*
X99103835Y-109197847D01*
X99099425Y-109227575D01*
X99092123Y-109256729D01*
X99081998Y-109285026D01*
X99069148Y-109312194D01*
X99053698Y-109337972D01*
X99035794Y-109362112D01*
X99015611Y-109384380D01*
X98993343Y-109404563D01*
X98969203Y-109422467D01*
X98943425Y-109437917D01*
X98916257Y-109450767D01*
X98887960Y-109460892D01*
X98858806Y-109468194D01*
X98829078Y-109472604D01*
X98799060Y-109474079D01*
X98186560Y-109474079D01*
X98156542Y-109472604D01*
X98126814Y-109468194D01*
X98097660Y-109460892D01*
X98069363Y-109450767D01*
X98042195Y-109437917D01*
X98016417Y-109422467D01*
X97992277Y-109404563D01*
X97970009Y-109384380D01*
X97949826Y-109362112D01*
X97931922Y-109337972D01*
X97916472Y-109312194D01*
X97903622Y-109285026D01*
X97893497Y-109256729D01*
X97886195Y-109227575D01*
X97881785Y-109197847D01*
X97880310Y-109167829D01*
X97880310Y-108130329D01*
X97881785Y-108100311D01*
X97886195Y-108070583D01*
X97893497Y-108041429D01*
X97903622Y-108013132D01*
X97916472Y-107985964D01*
X97931922Y-107960186D01*
X97949826Y-107936046D01*
X97970009Y-107913778D01*
X97992277Y-107893595D01*
X98016417Y-107875691D01*
X98042195Y-107860241D01*
X98069363Y-107847391D01*
X98097660Y-107837266D01*
X98126814Y-107829964D01*
X98156542Y-107825554D01*
X98186560Y-107824079D01*
X98799060Y-107824079D01*
X98829078Y-107825554D01*
X98829078Y-107825554D01*
G37*
D14*
X98492810Y-108649079D03*
G04 #@! TD*
D13*
G04 #@! TO.C,C9*
G36*
X106766578Y-106725554D02*
X106796306Y-106729964D01*
X106825460Y-106737266D01*
X106853757Y-106747391D01*
X106880925Y-106760241D01*
X106906703Y-106775691D01*
X106930843Y-106793595D01*
X106953111Y-106813778D01*
X106973294Y-106836046D01*
X106991198Y-106860186D01*
X107006648Y-106885964D01*
X107019498Y-106913132D01*
X107029623Y-106941429D01*
X107036925Y-106970583D01*
X107041335Y-107000311D01*
X107042810Y-107030329D01*
X107042810Y-108067829D01*
X107041335Y-108097847D01*
X107036925Y-108127575D01*
X107029623Y-108156729D01*
X107019498Y-108185026D01*
X107006648Y-108212194D01*
X106991198Y-108237972D01*
X106973294Y-108262112D01*
X106953111Y-108284380D01*
X106930843Y-108304563D01*
X106906703Y-108322467D01*
X106880925Y-108337917D01*
X106853757Y-108350767D01*
X106825460Y-108360892D01*
X106796306Y-108368194D01*
X106766578Y-108372604D01*
X106736560Y-108374079D01*
X106124060Y-108374079D01*
X106094042Y-108372604D01*
X106064314Y-108368194D01*
X106035160Y-108360892D01*
X106006863Y-108350767D01*
X105979695Y-108337917D01*
X105953917Y-108322467D01*
X105929777Y-108304563D01*
X105907509Y-108284380D01*
X105887326Y-108262112D01*
X105869422Y-108237972D01*
X105853972Y-108212194D01*
X105841122Y-108185026D01*
X105830997Y-108156729D01*
X105823695Y-108127575D01*
X105819285Y-108097847D01*
X105817810Y-108067829D01*
X105817810Y-107030329D01*
X105819285Y-107000311D01*
X105823695Y-106970583D01*
X105830997Y-106941429D01*
X105841122Y-106913132D01*
X105853972Y-106885964D01*
X105869422Y-106860186D01*
X105887326Y-106836046D01*
X105907509Y-106813778D01*
X105929777Y-106793595D01*
X105953917Y-106775691D01*
X105979695Y-106760241D01*
X106006863Y-106747391D01*
X106035160Y-106737266D01*
X106064314Y-106729964D01*
X106094042Y-106725554D01*
X106124060Y-106724079D01*
X106736560Y-106724079D01*
X106766578Y-106725554D01*
X106766578Y-106725554D01*
G37*
D14*
X106430310Y-107549079D03*
D13*
G36*
X104891578Y-106725554D02*
X104921306Y-106729964D01*
X104950460Y-106737266D01*
X104978757Y-106747391D01*
X105005925Y-106760241D01*
X105031703Y-106775691D01*
X105055843Y-106793595D01*
X105078111Y-106813778D01*
X105098294Y-106836046D01*
X105116198Y-106860186D01*
X105131648Y-106885964D01*
X105144498Y-106913132D01*
X105154623Y-106941429D01*
X105161925Y-106970583D01*
X105166335Y-107000311D01*
X105167810Y-107030329D01*
X105167810Y-108067829D01*
X105166335Y-108097847D01*
X105161925Y-108127575D01*
X105154623Y-108156729D01*
X105144498Y-108185026D01*
X105131648Y-108212194D01*
X105116198Y-108237972D01*
X105098294Y-108262112D01*
X105078111Y-108284380D01*
X105055843Y-108304563D01*
X105031703Y-108322467D01*
X105005925Y-108337917D01*
X104978757Y-108350767D01*
X104950460Y-108360892D01*
X104921306Y-108368194D01*
X104891578Y-108372604D01*
X104861560Y-108374079D01*
X104249060Y-108374079D01*
X104219042Y-108372604D01*
X104189314Y-108368194D01*
X104160160Y-108360892D01*
X104131863Y-108350767D01*
X104104695Y-108337917D01*
X104078917Y-108322467D01*
X104054777Y-108304563D01*
X104032509Y-108284380D01*
X104012326Y-108262112D01*
X103994422Y-108237972D01*
X103978972Y-108212194D01*
X103966122Y-108185026D01*
X103955997Y-108156729D01*
X103948695Y-108127575D01*
X103944285Y-108097847D01*
X103942810Y-108067829D01*
X103942810Y-107030329D01*
X103944285Y-107000311D01*
X103948695Y-106970583D01*
X103955997Y-106941429D01*
X103966122Y-106913132D01*
X103978972Y-106885964D01*
X103994422Y-106860186D01*
X104012326Y-106836046D01*
X104032509Y-106813778D01*
X104054777Y-106793595D01*
X104078917Y-106775691D01*
X104104695Y-106760241D01*
X104131863Y-106747391D01*
X104160160Y-106737266D01*
X104189314Y-106729964D01*
X104219042Y-106725554D01*
X104249060Y-106724079D01*
X104861560Y-106724079D01*
X104891578Y-106725554D01*
X104891578Y-106725554D01*
G37*
D14*
X104555310Y-107549079D03*
G04 #@! TD*
D13*
G04 #@! TO.C,R1*
G36*
X104861268Y-104325554D02*
X104890996Y-104329964D01*
X104920150Y-104337266D01*
X104948447Y-104347391D01*
X104975615Y-104360241D01*
X105001393Y-104375691D01*
X105025533Y-104393595D01*
X105047801Y-104413778D01*
X105067984Y-104436046D01*
X105085888Y-104460186D01*
X105101338Y-104485964D01*
X105114188Y-104513132D01*
X105124313Y-104541429D01*
X105131615Y-104570583D01*
X105136025Y-104600311D01*
X105137500Y-104630329D01*
X105137500Y-105667829D01*
X105136025Y-105697847D01*
X105131615Y-105727575D01*
X105124313Y-105756729D01*
X105114188Y-105785026D01*
X105101338Y-105812194D01*
X105085888Y-105837972D01*
X105067984Y-105862112D01*
X105047801Y-105884380D01*
X105025533Y-105904563D01*
X105001393Y-105922467D01*
X104975615Y-105937917D01*
X104948447Y-105950767D01*
X104920150Y-105960892D01*
X104890996Y-105968194D01*
X104861268Y-105972604D01*
X104831250Y-105974079D01*
X104218750Y-105974079D01*
X104188732Y-105972604D01*
X104159004Y-105968194D01*
X104129850Y-105960892D01*
X104101553Y-105950767D01*
X104074385Y-105937917D01*
X104048607Y-105922467D01*
X104024467Y-105904563D01*
X104002199Y-105884380D01*
X103982016Y-105862112D01*
X103964112Y-105837972D01*
X103948662Y-105812194D01*
X103935812Y-105785026D01*
X103925687Y-105756729D01*
X103918385Y-105727575D01*
X103913975Y-105697847D01*
X103912500Y-105667829D01*
X103912500Y-104630329D01*
X103913975Y-104600311D01*
X103918385Y-104570583D01*
X103925687Y-104541429D01*
X103935812Y-104513132D01*
X103948662Y-104485964D01*
X103964112Y-104460186D01*
X103982016Y-104436046D01*
X104002199Y-104413778D01*
X104024467Y-104393595D01*
X104048607Y-104375691D01*
X104074385Y-104360241D01*
X104101553Y-104347391D01*
X104129850Y-104337266D01*
X104159004Y-104329964D01*
X104188732Y-104325554D01*
X104218750Y-104324079D01*
X104831250Y-104324079D01*
X104861268Y-104325554D01*
X104861268Y-104325554D01*
G37*
D14*
X104525000Y-105149079D03*
D13*
G36*
X106736268Y-104325554D02*
X106765996Y-104329964D01*
X106795150Y-104337266D01*
X106823447Y-104347391D01*
X106850615Y-104360241D01*
X106876393Y-104375691D01*
X106900533Y-104393595D01*
X106922801Y-104413778D01*
X106942984Y-104436046D01*
X106960888Y-104460186D01*
X106976338Y-104485964D01*
X106989188Y-104513132D01*
X106999313Y-104541429D01*
X107006615Y-104570583D01*
X107011025Y-104600311D01*
X107012500Y-104630329D01*
X107012500Y-105667829D01*
X107011025Y-105697847D01*
X107006615Y-105727575D01*
X106999313Y-105756729D01*
X106989188Y-105785026D01*
X106976338Y-105812194D01*
X106960888Y-105837972D01*
X106942984Y-105862112D01*
X106922801Y-105884380D01*
X106900533Y-105904563D01*
X106876393Y-105922467D01*
X106850615Y-105937917D01*
X106823447Y-105950767D01*
X106795150Y-105960892D01*
X106765996Y-105968194D01*
X106736268Y-105972604D01*
X106706250Y-105974079D01*
X106093750Y-105974079D01*
X106063732Y-105972604D01*
X106034004Y-105968194D01*
X106004850Y-105960892D01*
X105976553Y-105950767D01*
X105949385Y-105937917D01*
X105923607Y-105922467D01*
X105899467Y-105904563D01*
X105877199Y-105884380D01*
X105857016Y-105862112D01*
X105839112Y-105837972D01*
X105823662Y-105812194D01*
X105810812Y-105785026D01*
X105800687Y-105756729D01*
X105793385Y-105727575D01*
X105788975Y-105697847D01*
X105787500Y-105667829D01*
X105787500Y-104630329D01*
X105788975Y-104600311D01*
X105793385Y-104570583D01*
X105800687Y-104541429D01*
X105810812Y-104513132D01*
X105823662Y-104485964D01*
X105839112Y-104460186D01*
X105857016Y-104436046D01*
X105877199Y-104413778D01*
X105899467Y-104393595D01*
X105923607Y-104375691D01*
X105949385Y-104360241D01*
X105976553Y-104347391D01*
X106004850Y-104337266D01*
X106034004Y-104329964D01*
X106063732Y-104325554D01*
X106093750Y-104324079D01*
X106706250Y-104324079D01*
X106736268Y-104325554D01*
X106736268Y-104325554D01*
G37*
D14*
X106400000Y-105149079D03*
G04 #@! TD*
D13*
G04 #@! TO.C,C8*
G36*
X106741578Y-102125554D02*
X106771306Y-102129964D01*
X106800460Y-102137266D01*
X106828757Y-102147391D01*
X106855925Y-102160241D01*
X106881703Y-102175691D01*
X106905843Y-102193595D01*
X106928111Y-102213778D01*
X106948294Y-102236046D01*
X106966198Y-102260186D01*
X106981648Y-102285964D01*
X106994498Y-102313132D01*
X107004623Y-102341429D01*
X107011925Y-102370583D01*
X107016335Y-102400311D01*
X107017810Y-102430329D01*
X107017810Y-103467829D01*
X107016335Y-103497847D01*
X107011925Y-103527575D01*
X107004623Y-103556729D01*
X106994498Y-103585026D01*
X106981648Y-103612194D01*
X106966198Y-103637972D01*
X106948294Y-103662112D01*
X106928111Y-103684380D01*
X106905843Y-103704563D01*
X106881703Y-103722467D01*
X106855925Y-103737917D01*
X106828757Y-103750767D01*
X106800460Y-103760892D01*
X106771306Y-103768194D01*
X106741578Y-103772604D01*
X106711560Y-103774079D01*
X106099060Y-103774079D01*
X106069042Y-103772604D01*
X106039314Y-103768194D01*
X106010160Y-103760892D01*
X105981863Y-103750767D01*
X105954695Y-103737917D01*
X105928917Y-103722467D01*
X105904777Y-103704563D01*
X105882509Y-103684380D01*
X105862326Y-103662112D01*
X105844422Y-103637972D01*
X105828972Y-103612194D01*
X105816122Y-103585026D01*
X105805997Y-103556729D01*
X105798695Y-103527575D01*
X105794285Y-103497847D01*
X105792810Y-103467829D01*
X105792810Y-102430329D01*
X105794285Y-102400311D01*
X105798695Y-102370583D01*
X105805997Y-102341429D01*
X105816122Y-102313132D01*
X105828972Y-102285964D01*
X105844422Y-102260186D01*
X105862326Y-102236046D01*
X105882509Y-102213778D01*
X105904777Y-102193595D01*
X105928917Y-102175691D01*
X105954695Y-102160241D01*
X105981863Y-102147391D01*
X106010160Y-102137266D01*
X106039314Y-102129964D01*
X106069042Y-102125554D01*
X106099060Y-102124079D01*
X106711560Y-102124079D01*
X106741578Y-102125554D01*
X106741578Y-102125554D01*
G37*
D14*
X106405310Y-102949079D03*
D13*
G36*
X104866578Y-102125554D02*
X104896306Y-102129964D01*
X104925460Y-102137266D01*
X104953757Y-102147391D01*
X104980925Y-102160241D01*
X105006703Y-102175691D01*
X105030843Y-102193595D01*
X105053111Y-102213778D01*
X105073294Y-102236046D01*
X105091198Y-102260186D01*
X105106648Y-102285964D01*
X105119498Y-102313132D01*
X105129623Y-102341429D01*
X105136925Y-102370583D01*
X105141335Y-102400311D01*
X105142810Y-102430329D01*
X105142810Y-103467829D01*
X105141335Y-103497847D01*
X105136925Y-103527575D01*
X105129623Y-103556729D01*
X105119498Y-103585026D01*
X105106648Y-103612194D01*
X105091198Y-103637972D01*
X105073294Y-103662112D01*
X105053111Y-103684380D01*
X105030843Y-103704563D01*
X105006703Y-103722467D01*
X104980925Y-103737917D01*
X104953757Y-103750767D01*
X104925460Y-103760892D01*
X104896306Y-103768194D01*
X104866578Y-103772604D01*
X104836560Y-103774079D01*
X104224060Y-103774079D01*
X104194042Y-103772604D01*
X104164314Y-103768194D01*
X104135160Y-103760892D01*
X104106863Y-103750767D01*
X104079695Y-103737917D01*
X104053917Y-103722467D01*
X104029777Y-103704563D01*
X104007509Y-103684380D01*
X103987326Y-103662112D01*
X103969422Y-103637972D01*
X103953972Y-103612194D01*
X103941122Y-103585026D01*
X103930997Y-103556729D01*
X103923695Y-103527575D01*
X103919285Y-103497847D01*
X103917810Y-103467829D01*
X103917810Y-102430329D01*
X103919285Y-102400311D01*
X103923695Y-102370583D01*
X103930997Y-102341429D01*
X103941122Y-102313132D01*
X103953972Y-102285964D01*
X103969422Y-102260186D01*
X103987326Y-102236046D01*
X104007509Y-102213778D01*
X104029777Y-102193595D01*
X104053917Y-102175691D01*
X104079695Y-102160241D01*
X104106863Y-102147391D01*
X104135160Y-102137266D01*
X104164314Y-102129964D01*
X104194042Y-102125554D01*
X104224060Y-102124079D01*
X104836560Y-102124079D01*
X104866578Y-102125554D01*
X104866578Y-102125554D01*
G37*
D14*
X104530310Y-102949079D03*
G04 #@! TD*
D13*
G04 #@! TO.C,C11*
G36*
X133179078Y-102400554D02*
X133208806Y-102404964D01*
X133237960Y-102412266D01*
X133266257Y-102422391D01*
X133293425Y-102435241D01*
X133319203Y-102450691D01*
X133343343Y-102468595D01*
X133365611Y-102488778D01*
X133385794Y-102511046D01*
X133403698Y-102535186D01*
X133419148Y-102560964D01*
X133431998Y-102588132D01*
X133442123Y-102616429D01*
X133449425Y-102645583D01*
X133453835Y-102675311D01*
X133455310Y-102705329D01*
X133455310Y-103317829D01*
X133453835Y-103347847D01*
X133449425Y-103377575D01*
X133442123Y-103406729D01*
X133431998Y-103435026D01*
X133419148Y-103462194D01*
X133403698Y-103487972D01*
X133385794Y-103512112D01*
X133365611Y-103534380D01*
X133343343Y-103554563D01*
X133319203Y-103572467D01*
X133293425Y-103587917D01*
X133266257Y-103600767D01*
X133237960Y-103610892D01*
X133208806Y-103618194D01*
X133179078Y-103622604D01*
X133149060Y-103624079D01*
X132111560Y-103624079D01*
X132081542Y-103622604D01*
X132051814Y-103618194D01*
X132022660Y-103610892D01*
X131994363Y-103600767D01*
X131967195Y-103587917D01*
X131941417Y-103572467D01*
X131917277Y-103554563D01*
X131895009Y-103534380D01*
X131874826Y-103512112D01*
X131856922Y-103487972D01*
X131841472Y-103462194D01*
X131828622Y-103435026D01*
X131818497Y-103406729D01*
X131811195Y-103377575D01*
X131806785Y-103347847D01*
X131805310Y-103317829D01*
X131805310Y-102705329D01*
X131806785Y-102675311D01*
X131811195Y-102645583D01*
X131818497Y-102616429D01*
X131828622Y-102588132D01*
X131841472Y-102560964D01*
X131856922Y-102535186D01*
X131874826Y-102511046D01*
X131895009Y-102488778D01*
X131917277Y-102468595D01*
X131941417Y-102450691D01*
X131967195Y-102435241D01*
X131994363Y-102422391D01*
X132022660Y-102412266D01*
X132051814Y-102404964D01*
X132081542Y-102400554D01*
X132111560Y-102399079D01*
X133149060Y-102399079D01*
X133179078Y-102400554D01*
X133179078Y-102400554D01*
G37*
D14*
X132630310Y-103011579D03*
D13*
G36*
X133179078Y-104275554D02*
X133208806Y-104279964D01*
X133237960Y-104287266D01*
X133266257Y-104297391D01*
X133293425Y-104310241D01*
X133319203Y-104325691D01*
X133343343Y-104343595D01*
X133365611Y-104363778D01*
X133385794Y-104386046D01*
X133403698Y-104410186D01*
X133419148Y-104435964D01*
X133431998Y-104463132D01*
X133442123Y-104491429D01*
X133449425Y-104520583D01*
X133453835Y-104550311D01*
X133455310Y-104580329D01*
X133455310Y-105192829D01*
X133453835Y-105222847D01*
X133449425Y-105252575D01*
X133442123Y-105281729D01*
X133431998Y-105310026D01*
X133419148Y-105337194D01*
X133403698Y-105362972D01*
X133385794Y-105387112D01*
X133365611Y-105409380D01*
X133343343Y-105429563D01*
X133319203Y-105447467D01*
X133293425Y-105462917D01*
X133266257Y-105475767D01*
X133237960Y-105485892D01*
X133208806Y-105493194D01*
X133179078Y-105497604D01*
X133149060Y-105499079D01*
X132111560Y-105499079D01*
X132081542Y-105497604D01*
X132051814Y-105493194D01*
X132022660Y-105485892D01*
X131994363Y-105475767D01*
X131967195Y-105462917D01*
X131941417Y-105447467D01*
X131917277Y-105429563D01*
X131895009Y-105409380D01*
X131874826Y-105387112D01*
X131856922Y-105362972D01*
X131841472Y-105337194D01*
X131828622Y-105310026D01*
X131818497Y-105281729D01*
X131811195Y-105252575D01*
X131806785Y-105222847D01*
X131805310Y-105192829D01*
X131805310Y-104580329D01*
X131806785Y-104550311D01*
X131811195Y-104520583D01*
X131818497Y-104491429D01*
X131828622Y-104463132D01*
X131841472Y-104435964D01*
X131856922Y-104410186D01*
X131874826Y-104386046D01*
X131895009Y-104363778D01*
X131917277Y-104343595D01*
X131941417Y-104325691D01*
X131967195Y-104310241D01*
X131994363Y-104297391D01*
X132022660Y-104287266D01*
X132051814Y-104279964D01*
X132081542Y-104275554D01*
X132111560Y-104274079D01*
X133149060Y-104274079D01*
X133179078Y-104275554D01*
X133179078Y-104275554D01*
G37*
D14*
X132630310Y-104886579D03*
G04 #@! TD*
D12*
G04 #@! TO.C,C3*
X132779542Y-86704129D03*
X130430310Y-85849079D03*
G04 #@! TD*
D13*
G04 #@! TO.C,C10*
G36*
X131479078Y-121513054D02*
X131508806Y-121517464D01*
X131537960Y-121524766D01*
X131566257Y-121534891D01*
X131593425Y-121547741D01*
X131619203Y-121563191D01*
X131643343Y-121581095D01*
X131665611Y-121601278D01*
X131685794Y-121623546D01*
X131703698Y-121647686D01*
X131719148Y-121673464D01*
X131731998Y-121700632D01*
X131742123Y-121728929D01*
X131749425Y-121758083D01*
X131753835Y-121787811D01*
X131755310Y-121817829D01*
X131755310Y-122430329D01*
X131753835Y-122460347D01*
X131749425Y-122490075D01*
X131742123Y-122519229D01*
X131731998Y-122547526D01*
X131719148Y-122574694D01*
X131703698Y-122600472D01*
X131685794Y-122624612D01*
X131665611Y-122646880D01*
X131643343Y-122667063D01*
X131619203Y-122684967D01*
X131593425Y-122700417D01*
X131566257Y-122713267D01*
X131537960Y-122723392D01*
X131508806Y-122730694D01*
X131479078Y-122735104D01*
X131449060Y-122736579D01*
X130411560Y-122736579D01*
X130381542Y-122735104D01*
X130351814Y-122730694D01*
X130322660Y-122723392D01*
X130294363Y-122713267D01*
X130267195Y-122700417D01*
X130241417Y-122684967D01*
X130217277Y-122667063D01*
X130195009Y-122646880D01*
X130174826Y-122624612D01*
X130156922Y-122600472D01*
X130141472Y-122574694D01*
X130128622Y-122547526D01*
X130118497Y-122519229D01*
X130111195Y-122490075D01*
X130106785Y-122460347D01*
X130105310Y-122430329D01*
X130105310Y-121817829D01*
X130106785Y-121787811D01*
X130111195Y-121758083D01*
X130118497Y-121728929D01*
X130128622Y-121700632D01*
X130141472Y-121673464D01*
X130156922Y-121647686D01*
X130174826Y-121623546D01*
X130195009Y-121601278D01*
X130217277Y-121581095D01*
X130241417Y-121563191D01*
X130267195Y-121547741D01*
X130294363Y-121534891D01*
X130322660Y-121524766D01*
X130351814Y-121517464D01*
X130381542Y-121513054D01*
X130411560Y-121511579D01*
X131449060Y-121511579D01*
X131479078Y-121513054D01*
X131479078Y-121513054D01*
G37*
D14*
X130930310Y-122124079D03*
D13*
G36*
X131479078Y-119638054D02*
X131508806Y-119642464D01*
X131537960Y-119649766D01*
X131566257Y-119659891D01*
X131593425Y-119672741D01*
X131619203Y-119688191D01*
X131643343Y-119706095D01*
X131665611Y-119726278D01*
X131685794Y-119748546D01*
X131703698Y-119772686D01*
X131719148Y-119798464D01*
X131731998Y-119825632D01*
X131742123Y-119853929D01*
X131749425Y-119883083D01*
X131753835Y-119912811D01*
X131755310Y-119942829D01*
X131755310Y-120555329D01*
X131753835Y-120585347D01*
X131749425Y-120615075D01*
X131742123Y-120644229D01*
X131731998Y-120672526D01*
X131719148Y-120699694D01*
X131703698Y-120725472D01*
X131685794Y-120749612D01*
X131665611Y-120771880D01*
X131643343Y-120792063D01*
X131619203Y-120809967D01*
X131593425Y-120825417D01*
X131566257Y-120838267D01*
X131537960Y-120848392D01*
X131508806Y-120855694D01*
X131479078Y-120860104D01*
X131449060Y-120861579D01*
X130411560Y-120861579D01*
X130381542Y-120860104D01*
X130351814Y-120855694D01*
X130322660Y-120848392D01*
X130294363Y-120838267D01*
X130267195Y-120825417D01*
X130241417Y-120809967D01*
X130217277Y-120792063D01*
X130195009Y-120771880D01*
X130174826Y-120749612D01*
X130156922Y-120725472D01*
X130141472Y-120699694D01*
X130128622Y-120672526D01*
X130118497Y-120644229D01*
X130111195Y-120615075D01*
X130106785Y-120585347D01*
X130105310Y-120555329D01*
X130105310Y-119942829D01*
X130106785Y-119912811D01*
X130111195Y-119883083D01*
X130118497Y-119853929D01*
X130128622Y-119825632D01*
X130141472Y-119798464D01*
X130156922Y-119772686D01*
X130174826Y-119748546D01*
X130195009Y-119726278D01*
X130217277Y-119706095D01*
X130241417Y-119688191D01*
X130267195Y-119672741D01*
X130294363Y-119659891D01*
X130322660Y-119649766D01*
X130351814Y-119642464D01*
X130381542Y-119638054D01*
X130411560Y-119636579D01*
X131449060Y-119636579D01*
X131479078Y-119638054D01*
X131479078Y-119638054D01*
G37*
D14*
X130930310Y-120249079D03*
G04 #@! TD*
D13*
G04 #@! TO.C,C2*
G36*
X103191578Y-135125554D02*
X103221306Y-135129964D01*
X103250460Y-135137266D01*
X103278757Y-135147391D01*
X103305925Y-135160241D01*
X103331703Y-135175691D01*
X103355843Y-135193595D01*
X103378111Y-135213778D01*
X103398294Y-135236046D01*
X103416198Y-135260186D01*
X103431648Y-135285964D01*
X103444498Y-135313132D01*
X103454623Y-135341429D01*
X103461925Y-135370583D01*
X103466335Y-135400311D01*
X103467810Y-135430329D01*
X103467810Y-136467829D01*
X103466335Y-136497847D01*
X103461925Y-136527575D01*
X103454623Y-136556729D01*
X103444498Y-136585026D01*
X103431648Y-136612194D01*
X103416198Y-136637972D01*
X103398294Y-136662112D01*
X103378111Y-136684380D01*
X103355843Y-136704563D01*
X103331703Y-136722467D01*
X103305925Y-136737917D01*
X103278757Y-136750767D01*
X103250460Y-136760892D01*
X103221306Y-136768194D01*
X103191578Y-136772604D01*
X103161560Y-136774079D01*
X102549060Y-136774079D01*
X102519042Y-136772604D01*
X102489314Y-136768194D01*
X102460160Y-136760892D01*
X102431863Y-136750767D01*
X102404695Y-136737917D01*
X102378917Y-136722467D01*
X102354777Y-136704563D01*
X102332509Y-136684380D01*
X102312326Y-136662112D01*
X102294422Y-136637972D01*
X102278972Y-136612194D01*
X102266122Y-136585026D01*
X102255997Y-136556729D01*
X102248695Y-136527575D01*
X102244285Y-136497847D01*
X102242810Y-136467829D01*
X102242810Y-135430329D01*
X102244285Y-135400311D01*
X102248695Y-135370583D01*
X102255997Y-135341429D01*
X102266122Y-135313132D01*
X102278972Y-135285964D01*
X102294422Y-135260186D01*
X102312326Y-135236046D01*
X102332509Y-135213778D01*
X102354777Y-135193595D01*
X102378917Y-135175691D01*
X102404695Y-135160241D01*
X102431863Y-135147391D01*
X102460160Y-135137266D01*
X102489314Y-135129964D01*
X102519042Y-135125554D01*
X102549060Y-135124079D01*
X103161560Y-135124079D01*
X103191578Y-135125554D01*
X103191578Y-135125554D01*
G37*
D14*
X102855310Y-135949079D03*
D13*
G36*
X105066578Y-135125554D02*
X105096306Y-135129964D01*
X105125460Y-135137266D01*
X105153757Y-135147391D01*
X105180925Y-135160241D01*
X105206703Y-135175691D01*
X105230843Y-135193595D01*
X105253111Y-135213778D01*
X105273294Y-135236046D01*
X105291198Y-135260186D01*
X105306648Y-135285964D01*
X105319498Y-135313132D01*
X105329623Y-135341429D01*
X105336925Y-135370583D01*
X105341335Y-135400311D01*
X105342810Y-135430329D01*
X105342810Y-136467829D01*
X105341335Y-136497847D01*
X105336925Y-136527575D01*
X105329623Y-136556729D01*
X105319498Y-136585026D01*
X105306648Y-136612194D01*
X105291198Y-136637972D01*
X105273294Y-136662112D01*
X105253111Y-136684380D01*
X105230843Y-136704563D01*
X105206703Y-136722467D01*
X105180925Y-136737917D01*
X105153757Y-136750767D01*
X105125460Y-136760892D01*
X105096306Y-136768194D01*
X105066578Y-136772604D01*
X105036560Y-136774079D01*
X104424060Y-136774079D01*
X104394042Y-136772604D01*
X104364314Y-136768194D01*
X104335160Y-136760892D01*
X104306863Y-136750767D01*
X104279695Y-136737917D01*
X104253917Y-136722467D01*
X104229777Y-136704563D01*
X104207509Y-136684380D01*
X104187326Y-136662112D01*
X104169422Y-136637972D01*
X104153972Y-136612194D01*
X104141122Y-136585026D01*
X104130997Y-136556729D01*
X104123695Y-136527575D01*
X104119285Y-136497847D01*
X104117810Y-136467829D01*
X104117810Y-135430329D01*
X104119285Y-135400311D01*
X104123695Y-135370583D01*
X104130997Y-135341429D01*
X104141122Y-135313132D01*
X104153972Y-135285964D01*
X104169422Y-135260186D01*
X104187326Y-135236046D01*
X104207509Y-135213778D01*
X104229777Y-135193595D01*
X104253917Y-135175691D01*
X104279695Y-135160241D01*
X104306863Y-135147391D01*
X104335160Y-135137266D01*
X104364314Y-135129964D01*
X104394042Y-135125554D01*
X104424060Y-135124079D01*
X105036560Y-135124079D01*
X105066578Y-135125554D01*
X105066578Y-135125554D01*
G37*
D14*
X104730310Y-135949079D03*
G04 #@! TD*
D13*
G04 #@! TO.C,D18*
G36*
X102893462Y-139686650D02*
X102922952Y-139691024D01*
X102951872Y-139698269D01*
X102979943Y-139708312D01*
X103006894Y-139721059D01*
X103032466Y-139736387D01*
X103056413Y-139754146D01*
X103078503Y-139774168D01*
X103098525Y-139796258D01*
X103116284Y-139820205D01*
X103131612Y-139845777D01*
X103144359Y-139872728D01*
X103154402Y-139900799D01*
X103161647Y-139929719D01*
X103166021Y-139959209D01*
X103167484Y-139988987D01*
X103167484Y-141031387D01*
X103166021Y-141061165D01*
X103161647Y-141090655D01*
X103154402Y-141119575D01*
X103144359Y-141147646D01*
X103131612Y-141174597D01*
X103116284Y-141200169D01*
X103098525Y-141224116D01*
X103078503Y-141246206D01*
X103056413Y-141266228D01*
X103032466Y-141283987D01*
X103006894Y-141299315D01*
X102979943Y-141312062D01*
X102951872Y-141322105D01*
X102922952Y-141329350D01*
X102893462Y-141333724D01*
X102863684Y-141335187D01*
X102071284Y-141335187D01*
X102041506Y-141333724D01*
X102012016Y-141329350D01*
X101983096Y-141322105D01*
X101955025Y-141312062D01*
X101928074Y-141299315D01*
X101902502Y-141283987D01*
X101878555Y-141266228D01*
X101856465Y-141246206D01*
X101836443Y-141224116D01*
X101818684Y-141200169D01*
X101803356Y-141174597D01*
X101790609Y-141147646D01*
X101780566Y-141119575D01*
X101773321Y-141090655D01*
X101768947Y-141061165D01*
X101767484Y-141031387D01*
X101767484Y-139988987D01*
X101768947Y-139959209D01*
X101773321Y-139929719D01*
X101780566Y-139900799D01*
X101790609Y-139872728D01*
X101803356Y-139845777D01*
X101818684Y-139820205D01*
X101836443Y-139796258D01*
X101856465Y-139774168D01*
X101878555Y-139754146D01*
X101902502Y-139736387D01*
X101928074Y-139721059D01*
X101955025Y-139708312D01*
X101983096Y-139698269D01*
X102012016Y-139691024D01*
X102041506Y-139686650D01*
X102071284Y-139685187D01*
X102863684Y-139685187D01*
X102893462Y-139686650D01*
X102893462Y-139686650D01*
G37*
D15*
X102467484Y-140510187D03*
D13*
G36*
X104943462Y-139686650D02*
X104972952Y-139691024D01*
X105001872Y-139698269D01*
X105029943Y-139708312D01*
X105056894Y-139721059D01*
X105082466Y-139736387D01*
X105106413Y-139754146D01*
X105128503Y-139774168D01*
X105148525Y-139796258D01*
X105166284Y-139820205D01*
X105181612Y-139845777D01*
X105194359Y-139872728D01*
X105204402Y-139900799D01*
X105211647Y-139929719D01*
X105216021Y-139959209D01*
X105217484Y-139988987D01*
X105217484Y-141031387D01*
X105216021Y-141061165D01*
X105211647Y-141090655D01*
X105204402Y-141119575D01*
X105194359Y-141147646D01*
X105181612Y-141174597D01*
X105166284Y-141200169D01*
X105148525Y-141224116D01*
X105128503Y-141246206D01*
X105106413Y-141266228D01*
X105082466Y-141283987D01*
X105056894Y-141299315D01*
X105029943Y-141312062D01*
X105001872Y-141322105D01*
X104972952Y-141329350D01*
X104943462Y-141333724D01*
X104913684Y-141335187D01*
X104121284Y-141335187D01*
X104091506Y-141333724D01*
X104062016Y-141329350D01*
X104033096Y-141322105D01*
X104005025Y-141312062D01*
X103978074Y-141299315D01*
X103952502Y-141283987D01*
X103928555Y-141266228D01*
X103906465Y-141246206D01*
X103886443Y-141224116D01*
X103868684Y-141200169D01*
X103853356Y-141174597D01*
X103840609Y-141147646D01*
X103830566Y-141119575D01*
X103823321Y-141090655D01*
X103818947Y-141061165D01*
X103817484Y-141031387D01*
X103817484Y-139988987D01*
X103818947Y-139959209D01*
X103823321Y-139929719D01*
X103830566Y-139900799D01*
X103840609Y-139872728D01*
X103853356Y-139845777D01*
X103868684Y-139820205D01*
X103886443Y-139796258D01*
X103906465Y-139774168D01*
X103928555Y-139754146D01*
X103952502Y-139736387D01*
X103978074Y-139721059D01*
X104005025Y-139708312D01*
X104033096Y-139698269D01*
X104062016Y-139691024D01*
X104091506Y-139686650D01*
X104121284Y-139685187D01*
X104913684Y-139685187D01*
X104943462Y-139686650D01*
X104943462Y-139686650D01*
G37*
D15*
X104517484Y-140510187D03*
G04 #@! TD*
D13*
G04 #@! TO.C,D1*
G36*
X113456288Y-83725542D02*
X113485778Y-83729916D01*
X113514698Y-83737161D01*
X113542769Y-83747204D01*
X113569720Y-83759951D01*
X113595292Y-83775279D01*
X113619239Y-83793038D01*
X113641329Y-83813060D01*
X113661351Y-83835150D01*
X113679110Y-83859097D01*
X113694438Y-83884669D01*
X113707185Y-83911620D01*
X113717228Y-83939691D01*
X113724473Y-83968611D01*
X113728847Y-83998101D01*
X113730310Y-84027879D01*
X113730310Y-85070279D01*
X113728847Y-85100057D01*
X113724473Y-85129547D01*
X113717228Y-85158467D01*
X113707185Y-85186538D01*
X113694438Y-85213489D01*
X113679110Y-85239061D01*
X113661351Y-85263008D01*
X113641329Y-85285098D01*
X113619239Y-85305120D01*
X113595292Y-85322879D01*
X113569720Y-85338207D01*
X113542769Y-85350954D01*
X113514698Y-85360997D01*
X113485778Y-85368242D01*
X113456288Y-85372616D01*
X113426510Y-85374079D01*
X112634110Y-85374079D01*
X112604332Y-85372616D01*
X112574842Y-85368242D01*
X112545922Y-85360997D01*
X112517851Y-85350954D01*
X112490900Y-85338207D01*
X112465328Y-85322879D01*
X112441381Y-85305120D01*
X112419291Y-85285098D01*
X112399269Y-85263008D01*
X112381510Y-85239061D01*
X112366182Y-85213489D01*
X112353435Y-85186538D01*
X112343392Y-85158467D01*
X112336147Y-85129547D01*
X112331773Y-85100057D01*
X112330310Y-85070279D01*
X112330310Y-84027879D01*
X112331773Y-83998101D01*
X112336147Y-83968611D01*
X112343392Y-83939691D01*
X112353435Y-83911620D01*
X112366182Y-83884669D01*
X112381510Y-83859097D01*
X112399269Y-83835150D01*
X112419291Y-83813060D01*
X112441381Y-83793038D01*
X112465328Y-83775279D01*
X112490900Y-83759951D01*
X112517851Y-83747204D01*
X112545922Y-83737161D01*
X112574842Y-83729916D01*
X112604332Y-83725542D01*
X112634110Y-83724079D01*
X113426510Y-83724079D01*
X113456288Y-83725542D01*
X113456288Y-83725542D01*
G37*
D15*
X113030310Y-84549079D03*
D13*
G36*
X115506288Y-83725542D02*
X115535778Y-83729916D01*
X115564698Y-83737161D01*
X115592769Y-83747204D01*
X115619720Y-83759951D01*
X115645292Y-83775279D01*
X115669239Y-83793038D01*
X115691329Y-83813060D01*
X115711351Y-83835150D01*
X115729110Y-83859097D01*
X115744438Y-83884669D01*
X115757185Y-83911620D01*
X115767228Y-83939691D01*
X115774473Y-83968611D01*
X115778847Y-83998101D01*
X115780310Y-84027879D01*
X115780310Y-85070279D01*
X115778847Y-85100057D01*
X115774473Y-85129547D01*
X115767228Y-85158467D01*
X115757185Y-85186538D01*
X115744438Y-85213489D01*
X115729110Y-85239061D01*
X115711351Y-85263008D01*
X115691329Y-85285098D01*
X115669239Y-85305120D01*
X115645292Y-85322879D01*
X115619720Y-85338207D01*
X115592769Y-85350954D01*
X115564698Y-85360997D01*
X115535778Y-85368242D01*
X115506288Y-85372616D01*
X115476510Y-85374079D01*
X114684110Y-85374079D01*
X114654332Y-85372616D01*
X114624842Y-85368242D01*
X114595922Y-85360997D01*
X114567851Y-85350954D01*
X114540900Y-85338207D01*
X114515328Y-85322879D01*
X114491381Y-85305120D01*
X114469291Y-85285098D01*
X114449269Y-85263008D01*
X114431510Y-85239061D01*
X114416182Y-85213489D01*
X114403435Y-85186538D01*
X114393392Y-85158467D01*
X114386147Y-85129547D01*
X114381773Y-85100057D01*
X114380310Y-85070279D01*
X114380310Y-84027879D01*
X114381773Y-83998101D01*
X114386147Y-83968611D01*
X114393392Y-83939691D01*
X114403435Y-83911620D01*
X114416182Y-83884669D01*
X114431510Y-83859097D01*
X114449269Y-83835150D01*
X114469291Y-83813060D01*
X114491381Y-83793038D01*
X114515328Y-83775279D01*
X114540900Y-83759951D01*
X114567851Y-83747204D01*
X114595922Y-83737161D01*
X114624842Y-83729916D01*
X114654332Y-83725542D01*
X114684110Y-83724079D01*
X115476510Y-83724079D01*
X115506288Y-83725542D01*
X115506288Y-83725542D01*
G37*
D15*
X115080310Y-84549079D03*
G04 #@! TD*
D13*
G04 #@! TO.C,R2*
G36*
X111281288Y-83725542D02*
X111310778Y-83729916D01*
X111339698Y-83737161D01*
X111367769Y-83747204D01*
X111394720Y-83759951D01*
X111420292Y-83775279D01*
X111444239Y-83793038D01*
X111466329Y-83813060D01*
X111486351Y-83835150D01*
X111504110Y-83859097D01*
X111519438Y-83884669D01*
X111532185Y-83911620D01*
X111542228Y-83939691D01*
X111549473Y-83968611D01*
X111553847Y-83998101D01*
X111555310Y-84027879D01*
X111555310Y-85070279D01*
X111553847Y-85100057D01*
X111549473Y-85129547D01*
X111542228Y-85158467D01*
X111532185Y-85186538D01*
X111519438Y-85213489D01*
X111504110Y-85239061D01*
X111486351Y-85263008D01*
X111466329Y-85285098D01*
X111444239Y-85305120D01*
X111420292Y-85322879D01*
X111394720Y-85338207D01*
X111367769Y-85350954D01*
X111339698Y-85360997D01*
X111310778Y-85368242D01*
X111281288Y-85372616D01*
X111251510Y-85374079D01*
X110459110Y-85374079D01*
X110429332Y-85372616D01*
X110399842Y-85368242D01*
X110370922Y-85360997D01*
X110342851Y-85350954D01*
X110315900Y-85338207D01*
X110290328Y-85322879D01*
X110266381Y-85305120D01*
X110244291Y-85285098D01*
X110224269Y-85263008D01*
X110206510Y-85239061D01*
X110191182Y-85213489D01*
X110178435Y-85186538D01*
X110168392Y-85158467D01*
X110161147Y-85129547D01*
X110156773Y-85100057D01*
X110155310Y-85070279D01*
X110155310Y-84027879D01*
X110156773Y-83998101D01*
X110161147Y-83968611D01*
X110168392Y-83939691D01*
X110178435Y-83911620D01*
X110191182Y-83884669D01*
X110206510Y-83859097D01*
X110224269Y-83835150D01*
X110244291Y-83813060D01*
X110266381Y-83793038D01*
X110290328Y-83775279D01*
X110315900Y-83759951D01*
X110342851Y-83747204D01*
X110370922Y-83737161D01*
X110399842Y-83729916D01*
X110429332Y-83725542D01*
X110459110Y-83724079D01*
X111251510Y-83724079D01*
X111281288Y-83725542D01*
X111281288Y-83725542D01*
G37*
D15*
X110855310Y-84549079D03*
D13*
G36*
X109231288Y-83725542D02*
X109260778Y-83729916D01*
X109289698Y-83737161D01*
X109317769Y-83747204D01*
X109344720Y-83759951D01*
X109370292Y-83775279D01*
X109394239Y-83793038D01*
X109416329Y-83813060D01*
X109436351Y-83835150D01*
X109454110Y-83859097D01*
X109469438Y-83884669D01*
X109482185Y-83911620D01*
X109492228Y-83939691D01*
X109499473Y-83968611D01*
X109503847Y-83998101D01*
X109505310Y-84027879D01*
X109505310Y-85070279D01*
X109503847Y-85100057D01*
X109499473Y-85129547D01*
X109492228Y-85158467D01*
X109482185Y-85186538D01*
X109469438Y-85213489D01*
X109454110Y-85239061D01*
X109436351Y-85263008D01*
X109416329Y-85285098D01*
X109394239Y-85305120D01*
X109370292Y-85322879D01*
X109344720Y-85338207D01*
X109317769Y-85350954D01*
X109289698Y-85360997D01*
X109260778Y-85368242D01*
X109231288Y-85372616D01*
X109201510Y-85374079D01*
X108409110Y-85374079D01*
X108379332Y-85372616D01*
X108349842Y-85368242D01*
X108320922Y-85360997D01*
X108292851Y-85350954D01*
X108265900Y-85338207D01*
X108240328Y-85322879D01*
X108216381Y-85305120D01*
X108194291Y-85285098D01*
X108174269Y-85263008D01*
X108156510Y-85239061D01*
X108141182Y-85213489D01*
X108128435Y-85186538D01*
X108118392Y-85158467D01*
X108111147Y-85129547D01*
X108106773Y-85100057D01*
X108105310Y-85070279D01*
X108105310Y-84027879D01*
X108106773Y-83998101D01*
X108111147Y-83968611D01*
X108118392Y-83939691D01*
X108128435Y-83911620D01*
X108141182Y-83884669D01*
X108156510Y-83859097D01*
X108174269Y-83835150D01*
X108194291Y-83813060D01*
X108216381Y-83793038D01*
X108240328Y-83775279D01*
X108265900Y-83759951D01*
X108292851Y-83747204D01*
X108320922Y-83737161D01*
X108349842Y-83729916D01*
X108379332Y-83725542D01*
X108409110Y-83724079D01*
X109201510Y-83724079D01*
X109231288Y-83725542D01*
X109231288Y-83725542D01*
G37*
D15*
X108805310Y-84549079D03*
G04 #@! TD*
D13*
G04 #@! TO.C,R5*
G36*
X100780962Y-139686650D02*
X100810452Y-139691024D01*
X100839372Y-139698269D01*
X100867443Y-139708312D01*
X100894394Y-139721059D01*
X100919966Y-139736387D01*
X100943913Y-139754146D01*
X100966003Y-139774168D01*
X100986025Y-139796258D01*
X101003784Y-139820205D01*
X101019112Y-139845777D01*
X101031859Y-139872728D01*
X101041902Y-139900799D01*
X101049147Y-139929719D01*
X101053521Y-139959209D01*
X101054984Y-139988987D01*
X101054984Y-141031387D01*
X101053521Y-141061165D01*
X101049147Y-141090655D01*
X101041902Y-141119575D01*
X101031859Y-141147646D01*
X101019112Y-141174597D01*
X101003784Y-141200169D01*
X100986025Y-141224116D01*
X100966003Y-141246206D01*
X100943913Y-141266228D01*
X100919966Y-141283987D01*
X100894394Y-141299315D01*
X100867443Y-141312062D01*
X100839372Y-141322105D01*
X100810452Y-141329350D01*
X100780962Y-141333724D01*
X100751184Y-141335187D01*
X99958784Y-141335187D01*
X99929006Y-141333724D01*
X99899516Y-141329350D01*
X99870596Y-141322105D01*
X99842525Y-141312062D01*
X99815574Y-141299315D01*
X99790002Y-141283987D01*
X99766055Y-141266228D01*
X99743965Y-141246206D01*
X99723943Y-141224116D01*
X99706184Y-141200169D01*
X99690856Y-141174597D01*
X99678109Y-141147646D01*
X99668066Y-141119575D01*
X99660821Y-141090655D01*
X99656447Y-141061165D01*
X99654984Y-141031387D01*
X99654984Y-139988987D01*
X99656447Y-139959209D01*
X99660821Y-139929719D01*
X99668066Y-139900799D01*
X99678109Y-139872728D01*
X99690856Y-139845777D01*
X99706184Y-139820205D01*
X99723943Y-139796258D01*
X99743965Y-139774168D01*
X99766055Y-139754146D01*
X99790002Y-139736387D01*
X99815574Y-139721059D01*
X99842525Y-139708312D01*
X99870596Y-139698269D01*
X99899516Y-139691024D01*
X99929006Y-139686650D01*
X99958784Y-139685187D01*
X100751184Y-139685187D01*
X100780962Y-139686650D01*
X100780962Y-139686650D01*
G37*
D15*
X100354984Y-140510187D03*
D13*
G36*
X98730962Y-139686650D02*
X98760452Y-139691024D01*
X98789372Y-139698269D01*
X98817443Y-139708312D01*
X98844394Y-139721059D01*
X98869966Y-139736387D01*
X98893913Y-139754146D01*
X98916003Y-139774168D01*
X98936025Y-139796258D01*
X98953784Y-139820205D01*
X98969112Y-139845777D01*
X98981859Y-139872728D01*
X98991902Y-139900799D01*
X98999147Y-139929719D01*
X99003521Y-139959209D01*
X99004984Y-139988987D01*
X99004984Y-141031387D01*
X99003521Y-141061165D01*
X98999147Y-141090655D01*
X98991902Y-141119575D01*
X98981859Y-141147646D01*
X98969112Y-141174597D01*
X98953784Y-141200169D01*
X98936025Y-141224116D01*
X98916003Y-141246206D01*
X98893913Y-141266228D01*
X98869966Y-141283987D01*
X98844394Y-141299315D01*
X98817443Y-141312062D01*
X98789372Y-141322105D01*
X98760452Y-141329350D01*
X98730962Y-141333724D01*
X98701184Y-141335187D01*
X97908784Y-141335187D01*
X97879006Y-141333724D01*
X97849516Y-141329350D01*
X97820596Y-141322105D01*
X97792525Y-141312062D01*
X97765574Y-141299315D01*
X97740002Y-141283987D01*
X97716055Y-141266228D01*
X97693965Y-141246206D01*
X97673943Y-141224116D01*
X97656184Y-141200169D01*
X97640856Y-141174597D01*
X97628109Y-141147646D01*
X97618066Y-141119575D01*
X97610821Y-141090655D01*
X97606447Y-141061165D01*
X97604984Y-141031387D01*
X97604984Y-139988987D01*
X97606447Y-139959209D01*
X97610821Y-139929719D01*
X97618066Y-139900799D01*
X97628109Y-139872728D01*
X97640856Y-139845777D01*
X97656184Y-139820205D01*
X97673943Y-139796258D01*
X97693965Y-139774168D01*
X97716055Y-139754146D01*
X97740002Y-139736387D01*
X97765574Y-139721059D01*
X97792525Y-139708312D01*
X97820596Y-139698269D01*
X97849516Y-139691024D01*
X97879006Y-139686650D01*
X97908784Y-139685187D01*
X98701184Y-139685187D01*
X98730962Y-139686650D01*
X98730962Y-139686650D01*
G37*
D15*
X98304984Y-140510187D03*
G04 #@! TD*
D16*
G04 #@! TO.C,J53*
X148500000Y-89640000D03*
X148500000Y-94720000D03*
G04 #@! TD*
D17*
G04 #@! TO.C,F2*
X97030310Y-133649079D03*
G04 #@! TD*
G04 #@! TO.C,F3*
X114430310Y-100849079D03*
G04 #@! TD*
G04 #@! TO.C,F1*
X148830310Y-125349079D03*
G04 #@! TD*
D18*
G04 #@! TO.C,JP2*
X104680310Y-133249079D03*
D13*
G36*
X105204696Y-132376481D02*
X105228145Y-132383594D01*
X105249756Y-132395145D01*
X105268698Y-132410691D01*
X105284244Y-132429633D01*
X105295795Y-132451244D01*
X105302908Y-132474693D01*
X105305310Y-132499079D01*
X105305310Y-133999079D01*
X105302908Y-134023465D01*
X105295795Y-134046914D01*
X105284244Y-134068525D01*
X105268698Y-134087467D01*
X105249756Y-134103013D01*
X105228145Y-134114564D01*
X105204696Y-134121677D01*
X105180310Y-134124079D01*
X104680310Y-134124079D01*
X104674198Y-134123477D01*
X104655776Y-134123477D01*
X104643522Y-134122875D01*
X104594691Y-134118065D01*
X104582560Y-134116265D01*
X104534435Y-134106693D01*
X104522534Y-134103712D01*
X104475579Y-134089468D01*
X104464031Y-134085336D01*
X104418698Y-134066559D01*
X104407605Y-134061313D01*
X104364332Y-134038182D01*
X104353815Y-134031878D01*
X104313016Y-134004618D01*
X104303160Y-133997309D01*
X104265231Y-133966181D01*
X104256143Y-133957943D01*
X104221446Y-133923246D01*
X104213208Y-133914158D01*
X104182080Y-133876229D01*
X104174771Y-133866373D01*
X104147511Y-133825574D01*
X104141207Y-133815057D01*
X104118076Y-133771784D01*
X104112830Y-133760691D01*
X104094053Y-133715358D01*
X104089921Y-133703810D01*
X104075677Y-133656855D01*
X104072696Y-133644954D01*
X104063124Y-133596829D01*
X104061324Y-133584698D01*
X104056514Y-133535867D01*
X104055912Y-133523613D01*
X104055912Y-133505191D01*
X104055310Y-133499079D01*
X104055310Y-132999079D01*
X104055912Y-132992967D01*
X104055912Y-132974545D01*
X104056514Y-132962291D01*
X104061324Y-132913460D01*
X104063124Y-132901329D01*
X104072696Y-132853204D01*
X104075677Y-132841303D01*
X104089921Y-132794348D01*
X104094053Y-132782800D01*
X104112830Y-132737467D01*
X104118076Y-132726374D01*
X104141207Y-132683101D01*
X104147511Y-132672584D01*
X104174771Y-132631785D01*
X104182080Y-132621929D01*
X104213208Y-132584000D01*
X104221446Y-132574912D01*
X104256143Y-132540215D01*
X104265231Y-132531977D01*
X104303160Y-132500849D01*
X104313016Y-132493540D01*
X104353815Y-132466280D01*
X104364332Y-132459976D01*
X104407605Y-132436845D01*
X104418698Y-132431599D01*
X104464031Y-132412822D01*
X104475579Y-132408690D01*
X104522534Y-132394446D01*
X104534435Y-132391465D01*
X104582560Y-132381893D01*
X104594691Y-132380093D01*
X104643522Y-132375283D01*
X104655776Y-132374681D01*
X104674198Y-132374681D01*
X104680310Y-132374079D01*
X105180310Y-132374079D01*
X105204696Y-132376481D01*
X105204696Y-132376481D01*
G37*
D18*
X105980310Y-133249079D03*
D13*
G36*
X105986422Y-132374681D02*
X106004844Y-132374681D01*
X106017098Y-132375283D01*
X106065929Y-132380093D01*
X106078060Y-132381893D01*
X106126185Y-132391465D01*
X106138086Y-132394446D01*
X106185041Y-132408690D01*
X106196589Y-132412822D01*
X106241922Y-132431599D01*
X106253015Y-132436845D01*
X106296288Y-132459976D01*
X106306805Y-132466280D01*
X106347604Y-132493540D01*
X106357460Y-132500849D01*
X106395389Y-132531977D01*
X106404477Y-132540215D01*
X106439174Y-132574912D01*
X106447412Y-132584000D01*
X106478540Y-132621929D01*
X106485849Y-132631785D01*
X106513109Y-132672584D01*
X106519413Y-132683101D01*
X106542544Y-132726374D01*
X106547790Y-132737467D01*
X106566567Y-132782800D01*
X106570699Y-132794348D01*
X106584943Y-132841303D01*
X106587924Y-132853204D01*
X106597496Y-132901329D01*
X106599296Y-132913460D01*
X106604106Y-132962291D01*
X106604708Y-132974545D01*
X106604708Y-132992967D01*
X106605310Y-132999079D01*
X106605310Y-133499079D01*
X106604708Y-133505191D01*
X106604708Y-133523613D01*
X106604106Y-133535867D01*
X106599296Y-133584698D01*
X106597496Y-133596829D01*
X106587924Y-133644954D01*
X106584943Y-133656855D01*
X106570699Y-133703810D01*
X106566567Y-133715358D01*
X106547790Y-133760691D01*
X106542544Y-133771784D01*
X106519413Y-133815057D01*
X106513109Y-133825574D01*
X106485849Y-133866373D01*
X106478540Y-133876229D01*
X106447412Y-133914158D01*
X106439174Y-133923246D01*
X106404477Y-133957943D01*
X106395389Y-133966181D01*
X106357460Y-133997309D01*
X106347604Y-134004618D01*
X106306805Y-134031878D01*
X106296288Y-134038182D01*
X106253015Y-134061313D01*
X106241922Y-134066559D01*
X106196589Y-134085336D01*
X106185041Y-134089468D01*
X106138086Y-134103712D01*
X106126185Y-134106693D01*
X106078060Y-134116265D01*
X106065929Y-134118065D01*
X106017098Y-134122875D01*
X106004844Y-134123477D01*
X105986422Y-134123477D01*
X105980310Y-134124079D01*
X105480310Y-134124079D01*
X105455924Y-134121677D01*
X105432475Y-134114564D01*
X105410864Y-134103013D01*
X105391922Y-134087467D01*
X105376376Y-134068525D01*
X105364825Y-134046914D01*
X105357712Y-134023465D01*
X105355310Y-133999079D01*
X105355310Y-132499079D01*
X105357712Y-132474693D01*
X105364825Y-132451244D01*
X105376376Y-132429633D01*
X105391922Y-132410691D01*
X105410864Y-132395145D01*
X105432475Y-132383594D01*
X105455924Y-132376481D01*
X105480310Y-132374079D01*
X105980310Y-132374079D01*
X105986422Y-132374681D01*
X105986422Y-132374681D01*
G37*
G04 #@! TD*
D19*
G04 #@! TO.C,D15*
X115330310Y-89549079D03*
X112330310Y-89549079D03*
G04 #@! TD*
G04 #@! TO.C,D16*
X112430310Y-92949079D03*
X115430310Y-92949079D03*
G04 #@! TD*
D13*
G04 #@! TO.C,C4*
G36*
X135302753Y-108001415D02*
X135331279Y-108005646D01*
X135359253Y-108012654D01*
X135386405Y-108022369D01*
X135412475Y-108034699D01*
X135437210Y-108049524D01*
X135460373Y-108066703D01*
X135481740Y-108086070D01*
X135501107Y-108107437D01*
X135518286Y-108130600D01*
X135533111Y-108155335D01*
X135545441Y-108181405D01*
X135555156Y-108208557D01*
X135562164Y-108236531D01*
X135566395Y-108265057D01*
X135567810Y-108293860D01*
X135567810Y-109706140D01*
X135566395Y-109734943D01*
X135562164Y-109763469D01*
X135555156Y-109791443D01*
X135545441Y-109818595D01*
X135533111Y-109844665D01*
X135518286Y-109869400D01*
X135501107Y-109892563D01*
X135481740Y-109913930D01*
X135460373Y-109933297D01*
X135437210Y-109950476D01*
X135412475Y-109965301D01*
X135386405Y-109977631D01*
X135359253Y-109987346D01*
X135331279Y-109994354D01*
X135302753Y-109998585D01*
X135273950Y-110000000D01*
X134186670Y-110000000D01*
X134157867Y-109998585D01*
X134129341Y-109994354D01*
X134101367Y-109987346D01*
X134074215Y-109977631D01*
X134048145Y-109965301D01*
X134023410Y-109950476D01*
X134000247Y-109933297D01*
X133978880Y-109913930D01*
X133959513Y-109892563D01*
X133942334Y-109869400D01*
X133927509Y-109844665D01*
X133915179Y-109818595D01*
X133905464Y-109791443D01*
X133898456Y-109763469D01*
X133894225Y-109734943D01*
X133892810Y-109706140D01*
X133892810Y-108293860D01*
X133894225Y-108265057D01*
X133898456Y-108236531D01*
X133905464Y-108208557D01*
X133915179Y-108181405D01*
X133927509Y-108155335D01*
X133942334Y-108130600D01*
X133959513Y-108107437D01*
X133978880Y-108086070D01*
X134000247Y-108066703D01*
X134023410Y-108049524D01*
X134048145Y-108034699D01*
X134074215Y-108022369D01*
X134101367Y-108012654D01*
X134129341Y-108005646D01*
X134157867Y-108001415D01*
X134186670Y-108000000D01*
X135273950Y-108000000D01*
X135302753Y-108001415D01*
X135302753Y-108001415D01*
G37*
D20*
X134730310Y-109000000D03*
D13*
G36*
X138277753Y-108001415D02*
X138306279Y-108005646D01*
X138334253Y-108012654D01*
X138361405Y-108022369D01*
X138387475Y-108034699D01*
X138412210Y-108049524D01*
X138435373Y-108066703D01*
X138456740Y-108086070D01*
X138476107Y-108107437D01*
X138493286Y-108130600D01*
X138508111Y-108155335D01*
X138520441Y-108181405D01*
X138530156Y-108208557D01*
X138537164Y-108236531D01*
X138541395Y-108265057D01*
X138542810Y-108293860D01*
X138542810Y-109706140D01*
X138541395Y-109734943D01*
X138537164Y-109763469D01*
X138530156Y-109791443D01*
X138520441Y-109818595D01*
X138508111Y-109844665D01*
X138493286Y-109869400D01*
X138476107Y-109892563D01*
X138456740Y-109913930D01*
X138435373Y-109933297D01*
X138412210Y-109950476D01*
X138387475Y-109965301D01*
X138361405Y-109977631D01*
X138334253Y-109987346D01*
X138306279Y-109994354D01*
X138277753Y-109998585D01*
X138248950Y-110000000D01*
X137161670Y-110000000D01*
X137132867Y-109998585D01*
X137104341Y-109994354D01*
X137076367Y-109987346D01*
X137049215Y-109977631D01*
X137023145Y-109965301D01*
X136998410Y-109950476D01*
X136975247Y-109933297D01*
X136953880Y-109913930D01*
X136934513Y-109892563D01*
X136917334Y-109869400D01*
X136902509Y-109844665D01*
X136890179Y-109818595D01*
X136880464Y-109791443D01*
X136873456Y-109763469D01*
X136869225Y-109734943D01*
X136867810Y-109706140D01*
X136867810Y-108293860D01*
X136869225Y-108265057D01*
X136873456Y-108236531D01*
X136880464Y-108208557D01*
X136890179Y-108181405D01*
X136902509Y-108155335D01*
X136917334Y-108130600D01*
X136934513Y-108107437D01*
X136953880Y-108086070D01*
X136975247Y-108066703D01*
X136998410Y-108049524D01*
X137023145Y-108034699D01*
X137049215Y-108022369D01*
X137076367Y-108012654D01*
X137104341Y-108005646D01*
X137132867Y-108001415D01*
X137161670Y-108000000D01*
X138248950Y-108000000D01*
X138277753Y-108001415D01*
X138277753Y-108001415D01*
G37*
D20*
X137705310Y-109000000D03*
G04 #@! TD*
D18*
G04 #@! TO.C,JP52*
X97480310Y-86749079D03*
D13*
G36*
X96955924Y-87621677D02*
X96932475Y-87614564D01*
X96910864Y-87603013D01*
X96891922Y-87587467D01*
X96876376Y-87568525D01*
X96864825Y-87546914D01*
X96857712Y-87523465D01*
X96855310Y-87499079D01*
X96855310Y-85999079D01*
X96857712Y-85974693D01*
X96864825Y-85951244D01*
X96876376Y-85929633D01*
X96891922Y-85910691D01*
X96910864Y-85895145D01*
X96932475Y-85883594D01*
X96955924Y-85876481D01*
X96980310Y-85874079D01*
X97480310Y-85874079D01*
X97486422Y-85874681D01*
X97504844Y-85874681D01*
X97517098Y-85875283D01*
X97565929Y-85880093D01*
X97578060Y-85881893D01*
X97626185Y-85891465D01*
X97638086Y-85894446D01*
X97685041Y-85908690D01*
X97696589Y-85912822D01*
X97741922Y-85931599D01*
X97753015Y-85936845D01*
X97796288Y-85959976D01*
X97806805Y-85966280D01*
X97847604Y-85993540D01*
X97857460Y-86000849D01*
X97895389Y-86031977D01*
X97904477Y-86040215D01*
X97939174Y-86074912D01*
X97947412Y-86084000D01*
X97978540Y-86121929D01*
X97985849Y-86131785D01*
X98013109Y-86172584D01*
X98019413Y-86183101D01*
X98042544Y-86226374D01*
X98047790Y-86237467D01*
X98066567Y-86282800D01*
X98070699Y-86294348D01*
X98084943Y-86341303D01*
X98087924Y-86353204D01*
X98097496Y-86401329D01*
X98099296Y-86413460D01*
X98104106Y-86462291D01*
X98104708Y-86474545D01*
X98104708Y-86492967D01*
X98105310Y-86499079D01*
X98105310Y-86999079D01*
X98104708Y-87005191D01*
X98104708Y-87023613D01*
X98104106Y-87035867D01*
X98099296Y-87084698D01*
X98097496Y-87096829D01*
X98087924Y-87144954D01*
X98084943Y-87156855D01*
X98070699Y-87203810D01*
X98066567Y-87215358D01*
X98047790Y-87260691D01*
X98042544Y-87271784D01*
X98019413Y-87315057D01*
X98013109Y-87325574D01*
X97985849Y-87366373D01*
X97978540Y-87376229D01*
X97947412Y-87414158D01*
X97939174Y-87423246D01*
X97904477Y-87457943D01*
X97895389Y-87466181D01*
X97857460Y-87497309D01*
X97847604Y-87504618D01*
X97806805Y-87531878D01*
X97796288Y-87538182D01*
X97753015Y-87561313D01*
X97741922Y-87566559D01*
X97696589Y-87585336D01*
X97685041Y-87589468D01*
X97638086Y-87603712D01*
X97626185Y-87606693D01*
X97578060Y-87616265D01*
X97565929Y-87618065D01*
X97517098Y-87622875D01*
X97504844Y-87623477D01*
X97486422Y-87623477D01*
X97480310Y-87624079D01*
X96980310Y-87624079D01*
X96955924Y-87621677D01*
X96955924Y-87621677D01*
G37*
D18*
X96180310Y-86749079D03*
D13*
G36*
X96174198Y-87623477D02*
X96155776Y-87623477D01*
X96143522Y-87622875D01*
X96094691Y-87618065D01*
X96082560Y-87616265D01*
X96034435Y-87606693D01*
X96022534Y-87603712D01*
X95975579Y-87589468D01*
X95964031Y-87585336D01*
X95918698Y-87566559D01*
X95907605Y-87561313D01*
X95864332Y-87538182D01*
X95853815Y-87531878D01*
X95813016Y-87504618D01*
X95803160Y-87497309D01*
X95765231Y-87466181D01*
X95756143Y-87457943D01*
X95721446Y-87423246D01*
X95713208Y-87414158D01*
X95682080Y-87376229D01*
X95674771Y-87366373D01*
X95647511Y-87325574D01*
X95641207Y-87315057D01*
X95618076Y-87271784D01*
X95612830Y-87260691D01*
X95594053Y-87215358D01*
X95589921Y-87203810D01*
X95575677Y-87156855D01*
X95572696Y-87144954D01*
X95563124Y-87096829D01*
X95561324Y-87084698D01*
X95556514Y-87035867D01*
X95555912Y-87023613D01*
X95555912Y-87005191D01*
X95555310Y-86999079D01*
X95555310Y-86499079D01*
X95555912Y-86492967D01*
X95555912Y-86474545D01*
X95556514Y-86462291D01*
X95561324Y-86413460D01*
X95563124Y-86401329D01*
X95572696Y-86353204D01*
X95575677Y-86341303D01*
X95589921Y-86294348D01*
X95594053Y-86282800D01*
X95612830Y-86237467D01*
X95618076Y-86226374D01*
X95641207Y-86183101D01*
X95647511Y-86172584D01*
X95674771Y-86131785D01*
X95682080Y-86121929D01*
X95713208Y-86084000D01*
X95721446Y-86074912D01*
X95756143Y-86040215D01*
X95765231Y-86031977D01*
X95803160Y-86000849D01*
X95813016Y-85993540D01*
X95853815Y-85966280D01*
X95864332Y-85959976D01*
X95907605Y-85936845D01*
X95918698Y-85931599D01*
X95964031Y-85912822D01*
X95975579Y-85908690D01*
X96022534Y-85894446D01*
X96034435Y-85891465D01*
X96082560Y-85881893D01*
X96094691Y-85880093D01*
X96143522Y-85875283D01*
X96155776Y-85874681D01*
X96174198Y-85874681D01*
X96180310Y-85874079D01*
X96680310Y-85874079D01*
X96704696Y-85876481D01*
X96728145Y-85883594D01*
X96749756Y-85895145D01*
X96768698Y-85910691D01*
X96784244Y-85929633D01*
X96795795Y-85951244D01*
X96802908Y-85974693D01*
X96805310Y-85999079D01*
X96805310Y-87499079D01*
X96802908Y-87523465D01*
X96795795Y-87546914D01*
X96784244Y-87568525D01*
X96768698Y-87587467D01*
X96749756Y-87603013D01*
X96728145Y-87614564D01*
X96704696Y-87621677D01*
X96680310Y-87624079D01*
X96180310Y-87624079D01*
X96174198Y-87623477D01*
X96174198Y-87623477D01*
G37*
G04 #@! TD*
G04 #@! TO.C,R8*
G36*
X104829078Y-129725554D02*
X104858806Y-129729964D01*
X104887960Y-129737266D01*
X104916257Y-129747391D01*
X104943425Y-129760241D01*
X104969203Y-129775691D01*
X104993343Y-129793595D01*
X105015611Y-129813778D01*
X105035794Y-129836046D01*
X105053698Y-129860186D01*
X105069148Y-129885964D01*
X105081998Y-129913132D01*
X105092123Y-129941429D01*
X105099425Y-129970583D01*
X105103835Y-130000311D01*
X105105310Y-130030329D01*
X105105310Y-131067829D01*
X105103835Y-131097847D01*
X105099425Y-131127575D01*
X105092123Y-131156729D01*
X105081998Y-131185026D01*
X105069148Y-131212194D01*
X105053698Y-131237972D01*
X105035794Y-131262112D01*
X105015611Y-131284380D01*
X104993343Y-131304563D01*
X104969203Y-131322467D01*
X104943425Y-131337917D01*
X104916257Y-131350767D01*
X104887960Y-131360892D01*
X104858806Y-131368194D01*
X104829078Y-131372604D01*
X104799060Y-131374079D01*
X104186560Y-131374079D01*
X104156542Y-131372604D01*
X104126814Y-131368194D01*
X104097660Y-131360892D01*
X104069363Y-131350767D01*
X104042195Y-131337917D01*
X104016417Y-131322467D01*
X103992277Y-131304563D01*
X103970009Y-131284380D01*
X103949826Y-131262112D01*
X103931922Y-131237972D01*
X103916472Y-131212194D01*
X103903622Y-131185026D01*
X103893497Y-131156729D01*
X103886195Y-131127575D01*
X103881785Y-131097847D01*
X103880310Y-131067829D01*
X103880310Y-130030329D01*
X103881785Y-130000311D01*
X103886195Y-129970583D01*
X103893497Y-129941429D01*
X103903622Y-129913132D01*
X103916472Y-129885964D01*
X103931922Y-129860186D01*
X103949826Y-129836046D01*
X103970009Y-129813778D01*
X103992277Y-129793595D01*
X104016417Y-129775691D01*
X104042195Y-129760241D01*
X104069363Y-129747391D01*
X104097660Y-129737266D01*
X104126814Y-129729964D01*
X104156542Y-129725554D01*
X104186560Y-129724079D01*
X104799060Y-129724079D01*
X104829078Y-129725554D01*
X104829078Y-129725554D01*
G37*
D14*
X104492810Y-130549079D03*
D13*
G36*
X106704078Y-129725554D02*
X106733806Y-129729964D01*
X106762960Y-129737266D01*
X106791257Y-129747391D01*
X106818425Y-129760241D01*
X106844203Y-129775691D01*
X106868343Y-129793595D01*
X106890611Y-129813778D01*
X106910794Y-129836046D01*
X106928698Y-129860186D01*
X106944148Y-129885964D01*
X106956998Y-129913132D01*
X106967123Y-129941429D01*
X106974425Y-129970583D01*
X106978835Y-130000311D01*
X106980310Y-130030329D01*
X106980310Y-131067829D01*
X106978835Y-131097847D01*
X106974425Y-131127575D01*
X106967123Y-131156729D01*
X106956998Y-131185026D01*
X106944148Y-131212194D01*
X106928698Y-131237972D01*
X106910794Y-131262112D01*
X106890611Y-131284380D01*
X106868343Y-131304563D01*
X106844203Y-131322467D01*
X106818425Y-131337917D01*
X106791257Y-131350767D01*
X106762960Y-131360892D01*
X106733806Y-131368194D01*
X106704078Y-131372604D01*
X106674060Y-131374079D01*
X106061560Y-131374079D01*
X106031542Y-131372604D01*
X106001814Y-131368194D01*
X105972660Y-131360892D01*
X105944363Y-131350767D01*
X105917195Y-131337917D01*
X105891417Y-131322467D01*
X105867277Y-131304563D01*
X105845009Y-131284380D01*
X105824826Y-131262112D01*
X105806922Y-131237972D01*
X105791472Y-131212194D01*
X105778622Y-131185026D01*
X105768497Y-131156729D01*
X105761195Y-131127575D01*
X105756785Y-131097847D01*
X105755310Y-131067829D01*
X105755310Y-130030329D01*
X105756785Y-130000311D01*
X105761195Y-129970583D01*
X105768497Y-129941429D01*
X105778622Y-129913132D01*
X105791472Y-129885964D01*
X105806922Y-129860186D01*
X105824826Y-129836046D01*
X105845009Y-129813778D01*
X105867277Y-129793595D01*
X105891417Y-129775691D01*
X105917195Y-129760241D01*
X105944363Y-129747391D01*
X105972660Y-129737266D01*
X106001814Y-129729964D01*
X106031542Y-129725554D01*
X106061560Y-129724079D01*
X106674060Y-129724079D01*
X106704078Y-129725554D01*
X106704078Y-129725554D01*
G37*
D14*
X106367810Y-130549079D03*
G04 #@! TD*
D13*
G04 #@! TO.C,R9*
G36*
X106736268Y-99525554D02*
X106765996Y-99529964D01*
X106795150Y-99537266D01*
X106823447Y-99547391D01*
X106850615Y-99560241D01*
X106876393Y-99575691D01*
X106900533Y-99593595D01*
X106922801Y-99613778D01*
X106942984Y-99636046D01*
X106960888Y-99660186D01*
X106976338Y-99685964D01*
X106989188Y-99713132D01*
X106999313Y-99741429D01*
X107006615Y-99770583D01*
X107011025Y-99800311D01*
X107012500Y-99830329D01*
X107012500Y-100867829D01*
X107011025Y-100897847D01*
X107006615Y-100927575D01*
X106999313Y-100956729D01*
X106989188Y-100985026D01*
X106976338Y-101012194D01*
X106960888Y-101037972D01*
X106942984Y-101062112D01*
X106922801Y-101084380D01*
X106900533Y-101104563D01*
X106876393Y-101122467D01*
X106850615Y-101137917D01*
X106823447Y-101150767D01*
X106795150Y-101160892D01*
X106765996Y-101168194D01*
X106736268Y-101172604D01*
X106706250Y-101174079D01*
X106093750Y-101174079D01*
X106063732Y-101172604D01*
X106034004Y-101168194D01*
X106004850Y-101160892D01*
X105976553Y-101150767D01*
X105949385Y-101137917D01*
X105923607Y-101122467D01*
X105899467Y-101104563D01*
X105877199Y-101084380D01*
X105857016Y-101062112D01*
X105839112Y-101037972D01*
X105823662Y-101012194D01*
X105810812Y-100985026D01*
X105800687Y-100956729D01*
X105793385Y-100927575D01*
X105788975Y-100897847D01*
X105787500Y-100867829D01*
X105787500Y-99830329D01*
X105788975Y-99800311D01*
X105793385Y-99770583D01*
X105800687Y-99741429D01*
X105810812Y-99713132D01*
X105823662Y-99685964D01*
X105839112Y-99660186D01*
X105857016Y-99636046D01*
X105877199Y-99613778D01*
X105899467Y-99593595D01*
X105923607Y-99575691D01*
X105949385Y-99560241D01*
X105976553Y-99547391D01*
X106004850Y-99537266D01*
X106034004Y-99529964D01*
X106063732Y-99525554D01*
X106093750Y-99524079D01*
X106706250Y-99524079D01*
X106736268Y-99525554D01*
X106736268Y-99525554D01*
G37*
D14*
X106400000Y-100349079D03*
D13*
G36*
X104861268Y-99525554D02*
X104890996Y-99529964D01*
X104920150Y-99537266D01*
X104948447Y-99547391D01*
X104975615Y-99560241D01*
X105001393Y-99575691D01*
X105025533Y-99593595D01*
X105047801Y-99613778D01*
X105067984Y-99636046D01*
X105085888Y-99660186D01*
X105101338Y-99685964D01*
X105114188Y-99713132D01*
X105124313Y-99741429D01*
X105131615Y-99770583D01*
X105136025Y-99800311D01*
X105137500Y-99830329D01*
X105137500Y-100867829D01*
X105136025Y-100897847D01*
X105131615Y-100927575D01*
X105124313Y-100956729D01*
X105114188Y-100985026D01*
X105101338Y-101012194D01*
X105085888Y-101037972D01*
X105067984Y-101062112D01*
X105047801Y-101084380D01*
X105025533Y-101104563D01*
X105001393Y-101122467D01*
X104975615Y-101137917D01*
X104948447Y-101150767D01*
X104920150Y-101160892D01*
X104890996Y-101168194D01*
X104861268Y-101172604D01*
X104831250Y-101174079D01*
X104218750Y-101174079D01*
X104188732Y-101172604D01*
X104159004Y-101168194D01*
X104129850Y-101160892D01*
X104101553Y-101150767D01*
X104074385Y-101137917D01*
X104048607Y-101122467D01*
X104024467Y-101104563D01*
X104002199Y-101084380D01*
X103982016Y-101062112D01*
X103964112Y-101037972D01*
X103948662Y-101012194D01*
X103935812Y-100985026D01*
X103925687Y-100956729D01*
X103918385Y-100927575D01*
X103913975Y-100897847D01*
X103912500Y-100867829D01*
X103912500Y-99830329D01*
X103913975Y-99800311D01*
X103918385Y-99770583D01*
X103925687Y-99741429D01*
X103935812Y-99713132D01*
X103948662Y-99685964D01*
X103964112Y-99660186D01*
X103982016Y-99636046D01*
X104002199Y-99613778D01*
X104024467Y-99593595D01*
X104048607Y-99575691D01*
X104074385Y-99560241D01*
X104101553Y-99547391D01*
X104129850Y-99537266D01*
X104159004Y-99529964D01*
X104188732Y-99525554D01*
X104218750Y-99524079D01*
X104831250Y-99524079D01*
X104861268Y-99525554D01*
X104861268Y-99525554D01*
G37*
D14*
X104525000Y-100349079D03*
G04 #@! TD*
D18*
G04 #@! TO.C,JP51*
X106112500Y-125600000D03*
D13*
G36*
X105588114Y-126472598D02*
X105564665Y-126465485D01*
X105543054Y-126453934D01*
X105524112Y-126438388D01*
X105508566Y-126419446D01*
X105497015Y-126397835D01*
X105489902Y-126374386D01*
X105487500Y-126350000D01*
X105487500Y-124850000D01*
X105489902Y-124825614D01*
X105497015Y-124802165D01*
X105508566Y-124780554D01*
X105524112Y-124761612D01*
X105543054Y-124746066D01*
X105564665Y-124734515D01*
X105588114Y-124727402D01*
X105612500Y-124725000D01*
X106112500Y-124725000D01*
X106118612Y-124725602D01*
X106137034Y-124725602D01*
X106149288Y-124726204D01*
X106198119Y-124731014D01*
X106210250Y-124732814D01*
X106258375Y-124742386D01*
X106270276Y-124745367D01*
X106317231Y-124759611D01*
X106328779Y-124763743D01*
X106374112Y-124782520D01*
X106385205Y-124787766D01*
X106428478Y-124810897D01*
X106438995Y-124817201D01*
X106479794Y-124844461D01*
X106489650Y-124851770D01*
X106527579Y-124882898D01*
X106536667Y-124891136D01*
X106571364Y-124925833D01*
X106579602Y-124934921D01*
X106610730Y-124972850D01*
X106618039Y-124982706D01*
X106645299Y-125023505D01*
X106651603Y-125034022D01*
X106674734Y-125077295D01*
X106679980Y-125088388D01*
X106698757Y-125133721D01*
X106702889Y-125145269D01*
X106717133Y-125192224D01*
X106720114Y-125204125D01*
X106729686Y-125252250D01*
X106731486Y-125264381D01*
X106736296Y-125313212D01*
X106736898Y-125325466D01*
X106736898Y-125343888D01*
X106737500Y-125350000D01*
X106737500Y-125850000D01*
X106736898Y-125856112D01*
X106736898Y-125874534D01*
X106736296Y-125886788D01*
X106731486Y-125935619D01*
X106729686Y-125947750D01*
X106720114Y-125995875D01*
X106717133Y-126007776D01*
X106702889Y-126054731D01*
X106698757Y-126066279D01*
X106679980Y-126111612D01*
X106674734Y-126122705D01*
X106651603Y-126165978D01*
X106645299Y-126176495D01*
X106618039Y-126217294D01*
X106610730Y-126227150D01*
X106579602Y-126265079D01*
X106571364Y-126274167D01*
X106536667Y-126308864D01*
X106527579Y-126317102D01*
X106489650Y-126348230D01*
X106479794Y-126355539D01*
X106438995Y-126382799D01*
X106428478Y-126389103D01*
X106385205Y-126412234D01*
X106374112Y-126417480D01*
X106328779Y-126436257D01*
X106317231Y-126440389D01*
X106270276Y-126454633D01*
X106258375Y-126457614D01*
X106210250Y-126467186D01*
X106198119Y-126468986D01*
X106149288Y-126473796D01*
X106137034Y-126474398D01*
X106118612Y-126474398D01*
X106112500Y-126475000D01*
X105612500Y-126475000D01*
X105588114Y-126472598D01*
X105588114Y-126472598D01*
G37*
D18*
X104812500Y-125600000D03*
D13*
G36*
X104806388Y-126474398D02*
X104787966Y-126474398D01*
X104775712Y-126473796D01*
X104726881Y-126468986D01*
X104714750Y-126467186D01*
X104666625Y-126457614D01*
X104654724Y-126454633D01*
X104607769Y-126440389D01*
X104596221Y-126436257D01*
X104550888Y-126417480D01*
X104539795Y-126412234D01*
X104496522Y-126389103D01*
X104486005Y-126382799D01*
X104445206Y-126355539D01*
X104435350Y-126348230D01*
X104397421Y-126317102D01*
X104388333Y-126308864D01*
X104353636Y-126274167D01*
X104345398Y-126265079D01*
X104314270Y-126227150D01*
X104306961Y-126217294D01*
X104279701Y-126176495D01*
X104273397Y-126165978D01*
X104250266Y-126122705D01*
X104245020Y-126111612D01*
X104226243Y-126066279D01*
X104222111Y-126054731D01*
X104207867Y-126007776D01*
X104204886Y-125995875D01*
X104195314Y-125947750D01*
X104193514Y-125935619D01*
X104188704Y-125886788D01*
X104188102Y-125874534D01*
X104188102Y-125856112D01*
X104187500Y-125850000D01*
X104187500Y-125350000D01*
X104188102Y-125343888D01*
X104188102Y-125325466D01*
X104188704Y-125313212D01*
X104193514Y-125264381D01*
X104195314Y-125252250D01*
X104204886Y-125204125D01*
X104207867Y-125192224D01*
X104222111Y-125145269D01*
X104226243Y-125133721D01*
X104245020Y-125088388D01*
X104250266Y-125077295D01*
X104273397Y-125034022D01*
X104279701Y-125023505D01*
X104306961Y-124982706D01*
X104314270Y-124972850D01*
X104345398Y-124934921D01*
X104353636Y-124925833D01*
X104388333Y-124891136D01*
X104397421Y-124882898D01*
X104435350Y-124851770D01*
X104445206Y-124844461D01*
X104486005Y-124817201D01*
X104496522Y-124810897D01*
X104539795Y-124787766D01*
X104550888Y-124782520D01*
X104596221Y-124763743D01*
X104607769Y-124759611D01*
X104654724Y-124745367D01*
X104666625Y-124742386D01*
X104714750Y-124732814D01*
X104726881Y-124731014D01*
X104775712Y-124726204D01*
X104787966Y-124725602D01*
X104806388Y-124725602D01*
X104812500Y-124725000D01*
X105312500Y-124725000D01*
X105336886Y-124727402D01*
X105360335Y-124734515D01*
X105381946Y-124746066D01*
X105400888Y-124761612D01*
X105416434Y-124780554D01*
X105427985Y-124802165D01*
X105435098Y-124825614D01*
X105437500Y-124850000D01*
X105437500Y-126350000D01*
X105435098Y-126374386D01*
X105427985Y-126397835D01*
X105416434Y-126419446D01*
X105400888Y-126438388D01*
X105381946Y-126453934D01*
X105360335Y-126465485D01*
X105336886Y-126472598D01*
X105312500Y-126475000D01*
X104812500Y-126475000D01*
X104806388Y-126474398D01*
X104806388Y-126474398D01*
G37*
G04 #@! TD*
D19*
G04 #@! TO.C,D2*
X134500000Y-112562500D03*
X134500000Y-115562500D03*
G04 #@! TD*
D13*
G04 #@! TO.C,R14*
G36*
X141773768Y-91301476D02*
X141803496Y-91305886D01*
X141832650Y-91313188D01*
X141860947Y-91323313D01*
X141888115Y-91336163D01*
X141913893Y-91351613D01*
X141938033Y-91369517D01*
X141960301Y-91389700D01*
X141980484Y-91411968D01*
X141998388Y-91436108D01*
X142013838Y-91461886D01*
X142026688Y-91489054D01*
X142036813Y-91517351D01*
X142044115Y-91546505D01*
X142048525Y-91576233D01*
X142050000Y-91606251D01*
X142050000Y-92643751D01*
X142048525Y-92673769D01*
X142044115Y-92703497D01*
X142036813Y-92732651D01*
X142026688Y-92760948D01*
X142013838Y-92788116D01*
X141998388Y-92813894D01*
X141980484Y-92838034D01*
X141960301Y-92860302D01*
X141938033Y-92880485D01*
X141913893Y-92898389D01*
X141888115Y-92913839D01*
X141860947Y-92926689D01*
X141832650Y-92936814D01*
X141803496Y-92944116D01*
X141773768Y-92948526D01*
X141743750Y-92950001D01*
X141131250Y-92950001D01*
X141101232Y-92948526D01*
X141071504Y-92944116D01*
X141042350Y-92936814D01*
X141014053Y-92926689D01*
X140986885Y-92913839D01*
X140961107Y-92898389D01*
X140936967Y-92880485D01*
X140914699Y-92860302D01*
X140894516Y-92838034D01*
X140876612Y-92813894D01*
X140861162Y-92788116D01*
X140848312Y-92760948D01*
X140838187Y-92732651D01*
X140830885Y-92703497D01*
X140826475Y-92673769D01*
X140825000Y-92643751D01*
X140825000Y-91606251D01*
X140826475Y-91576233D01*
X140830885Y-91546505D01*
X140838187Y-91517351D01*
X140848312Y-91489054D01*
X140861162Y-91461886D01*
X140876612Y-91436108D01*
X140894516Y-91411968D01*
X140914699Y-91389700D01*
X140936967Y-91369517D01*
X140961107Y-91351613D01*
X140986885Y-91336163D01*
X141014053Y-91323313D01*
X141042350Y-91313188D01*
X141071504Y-91305886D01*
X141101232Y-91301476D01*
X141131250Y-91300001D01*
X141743750Y-91300001D01*
X141773768Y-91301476D01*
X141773768Y-91301476D01*
G37*
D14*
X141437500Y-92125001D03*
D13*
G36*
X139898768Y-91301476D02*
X139928496Y-91305886D01*
X139957650Y-91313188D01*
X139985947Y-91323313D01*
X140013115Y-91336163D01*
X140038893Y-91351613D01*
X140063033Y-91369517D01*
X140085301Y-91389700D01*
X140105484Y-91411968D01*
X140123388Y-91436108D01*
X140138838Y-91461886D01*
X140151688Y-91489054D01*
X140161813Y-91517351D01*
X140169115Y-91546505D01*
X140173525Y-91576233D01*
X140175000Y-91606251D01*
X140175000Y-92643751D01*
X140173525Y-92673769D01*
X140169115Y-92703497D01*
X140161813Y-92732651D01*
X140151688Y-92760948D01*
X140138838Y-92788116D01*
X140123388Y-92813894D01*
X140105484Y-92838034D01*
X140085301Y-92860302D01*
X140063033Y-92880485D01*
X140038893Y-92898389D01*
X140013115Y-92913839D01*
X139985947Y-92926689D01*
X139957650Y-92936814D01*
X139928496Y-92944116D01*
X139898768Y-92948526D01*
X139868750Y-92950001D01*
X139256250Y-92950001D01*
X139226232Y-92948526D01*
X139196504Y-92944116D01*
X139167350Y-92936814D01*
X139139053Y-92926689D01*
X139111885Y-92913839D01*
X139086107Y-92898389D01*
X139061967Y-92880485D01*
X139039699Y-92860302D01*
X139019516Y-92838034D01*
X139001612Y-92813894D01*
X138986162Y-92788116D01*
X138973312Y-92760948D01*
X138963187Y-92732651D01*
X138955885Y-92703497D01*
X138951475Y-92673769D01*
X138950000Y-92643751D01*
X138950000Y-91606251D01*
X138951475Y-91576233D01*
X138955885Y-91546505D01*
X138963187Y-91517351D01*
X138973312Y-91489054D01*
X138986162Y-91461886D01*
X139001612Y-91436108D01*
X139019516Y-91411968D01*
X139039699Y-91389700D01*
X139061967Y-91369517D01*
X139086107Y-91351613D01*
X139111885Y-91336163D01*
X139139053Y-91323313D01*
X139167350Y-91313188D01*
X139196504Y-91305886D01*
X139226232Y-91301476D01*
X139256250Y-91300001D01*
X139868750Y-91300001D01*
X139898768Y-91301476D01*
X139898768Y-91301476D01*
G37*
D14*
X139562500Y-92125001D03*
G04 #@! TD*
D21*
G04 #@! TO.C,MH101*
X122500000Y-137500000D03*
G04 #@! TD*
G04 #@! TO.C,MH102*
X122500000Y-87500000D03*
G04 #@! TD*
D13*
G04 #@! TO.C,R3*
G36*
X124681888Y-122151298D02*
X124708052Y-122155179D01*
X124733710Y-122161606D01*
X124758614Y-122170517D01*
X124782525Y-122181826D01*
X124805212Y-122195424D01*
X124826458Y-122211181D01*
X124846056Y-122228944D01*
X124863819Y-122248542D01*
X124879576Y-122269788D01*
X124893174Y-122292475D01*
X124904483Y-122316386D01*
X124913394Y-122341290D01*
X124919821Y-122366948D01*
X124923702Y-122393112D01*
X124925000Y-122419531D01*
X124925000Y-126580469D01*
X124923702Y-126606888D01*
X124919821Y-126633052D01*
X124913394Y-126658710D01*
X124904483Y-126683614D01*
X124893174Y-126707525D01*
X124879576Y-126730212D01*
X124863819Y-126751458D01*
X124846056Y-126771056D01*
X124826458Y-126788819D01*
X124805212Y-126804576D01*
X124782525Y-126818174D01*
X124758614Y-126829483D01*
X124733710Y-126838394D01*
X124708052Y-126844821D01*
X124681888Y-126848702D01*
X124655469Y-126850000D01*
X121744531Y-126850000D01*
X121718112Y-126848702D01*
X121691948Y-126844821D01*
X121666290Y-126838394D01*
X121641386Y-126829483D01*
X121617475Y-126818174D01*
X121594788Y-126804576D01*
X121573542Y-126788819D01*
X121553944Y-126771056D01*
X121536181Y-126751458D01*
X121520424Y-126730212D01*
X121506826Y-126707525D01*
X121495517Y-126683614D01*
X121486606Y-126658710D01*
X121480179Y-126633052D01*
X121476298Y-126606888D01*
X121475000Y-126580469D01*
X121475000Y-122419531D01*
X121476298Y-122393112D01*
X121480179Y-122366948D01*
X121486606Y-122341290D01*
X121495517Y-122316386D01*
X121506826Y-122292475D01*
X121520424Y-122269788D01*
X121536181Y-122248542D01*
X121553944Y-122228944D01*
X121573542Y-122211181D01*
X121594788Y-122195424D01*
X121617475Y-122181826D01*
X121641386Y-122170517D01*
X121666290Y-122161606D01*
X121691948Y-122155179D01*
X121718112Y-122151298D01*
X121744531Y-122150000D01*
X124655469Y-122150000D01*
X124681888Y-122151298D01*
X124681888Y-122151298D01*
G37*
D22*
X123200000Y-124500000D03*
D13*
G36*
X119481888Y-122151298D02*
X119508052Y-122155179D01*
X119533710Y-122161606D01*
X119558614Y-122170517D01*
X119582525Y-122181826D01*
X119605212Y-122195424D01*
X119626458Y-122211181D01*
X119646056Y-122228944D01*
X119663819Y-122248542D01*
X119679576Y-122269788D01*
X119693174Y-122292475D01*
X119704483Y-122316386D01*
X119713394Y-122341290D01*
X119719821Y-122366948D01*
X119723702Y-122393112D01*
X119725000Y-122419531D01*
X119725000Y-126580469D01*
X119723702Y-126606888D01*
X119719821Y-126633052D01*
X119713394Y-126658710D01*
X119704483Y-126683614D01*
X119693174Y-126707525D01*
X119679576Y-126730212D01*
X119663819Y-126751458D01*
X119646056Y-126771056D01*
X119626458Y-126788819D01*
X119605212Y-126804576D01*
X119582525Y-126818174D01*
X119558614Y-126829483D01*
X119533710Y-126838394D01*
X119508052Y-126844821D01*
X119481888Y-126848702D01*
X119455469Y-126850000D01*
X116544531Y-126850000D01*
X116518112Y-126848702D01*
X116491948Y-126844821D01*
X116466290Y-126838394D01*
X116441386Y-126829483D01*
X116417475Y-126818174D01*
X116394788Y-126804576D01*
X116373542Y-126788819D01*
X116353944Y-126771056D01*
X116336181Y-126751458D01*
X116320424Y-126730212D01*
X116306826Y-126707525D01*
X116295517Y-126683614D01*
X116286606Y-126658710D01*
X116280179Y-126633052D01*
X116276298Y-126606888D01*
X116275000Y-126580469D01*
X116275000Y-122419531D01*
X116276298Y-122393112D01*
X116280179Y-122366948D01*
X116286606Y-122341290D01*
X116295517Y-122316386D01*
X116306826Y-122292475D01*
X116320424Y-122269788D01*
X116336181Y-122248542D01*
X116353944Y-122228944D01*
X116373542Y-122211181D01*
X116394788Y-122195424D01*
X116417475Y-122181826D01*
X116441386Y-122170517D01*
X116466290Y-122161606D01*
X116491948Y-122155179D01*
X116518112Y-122151298D01*
X116544531Y-122150000D01*
X119455469Y-122150000D01*
X119481888Y-122151298D01*
X119481888Y-122151298D01*
G37*
D22*
X118000000Y-124500000D03*
G04 #@! TD*
D13*
G04 #@! TO.C,R4*
G36*
X124681888Y-98151298D02*
X124708052Y-98155179D01*
X124733710Y-98161606D01*
X124758614Y-98170517D01*
X124782525Y-98181826D01*
X124805212Y-98195424D01*
X124826458Y-98211181D01*
X124846056Y-98228944D01*
X124863819Y-98248542D01*
X124879576Y-98269788D01*
X124893174Y-98292475D01*
X124904483Y-98316386D01*
X124913394Y-98341290D01*
X124919821Y-98366948D01*
X124923702Y-98393112D01*
X124925000Y-98419531D01*
X124925000Y-102580469D01*
X124923702Y-102606888D01*
X124919821Y-102633052D01*
X124913394Y-102658710D01*
X124904483Y-102683614D01*
X124893174Y-102707525D01*
X124879576Y-102730212D01*
X124863819Y-102751458D01*
X124846056Y-102771056D01*
X124826458Y-102788819D01*
X124805212Y-102804576D01*
X124782525Y-102818174D01*
X124758614Y-102829483D01*
X124733710Y-102838394D01*
X124708052Y-102844821D01*
X124681888Y-102848702D01*
X124655469Y-102850000D01*
X121744531Y-102850000D01*
X121718112Y-102848702D01*
X121691948Y-102844821D01*
X121666290Y-102838394D01*
X121641386Y-102829483D01*
X121617475Y-102818174D01*
X121594788Y-102804576D01*
X121573542Y-102788819D01*
X121553944Y-102771056D01*
X121536181Y-102751458D01*
X121520424Y-102730212D01*
X121506826Y-102707525D01*
X121495517Y-102683614D01*
X121486606Y-102658710D01*
X121480179Y-102633052D01*
X121476298Y-102606888D01*
X121475000Y-102580469D01*
X121475000Y-98419531D01*
X121476298Y-98393112D01*
X121480179Y-98366948D01*
X121486606Y-98341290D01*
X121495517Y-98316386D01*
X121506826Y-98292475D01*
X121520424Y-98269788D01*
X121536181Y-98248542D01*
X121553944Y-98228944D01*
X121573542Y-98211181D01*
X121594788Y-98195424D01*
X121617475Y-98181826D01*
X121641386Y-98170517D01*
X121666290Y-98161606D01*
X121691948Y-98155179D01*
X121718112Y-98151298D01*
X121744531Y-98150000D01*
X124655469Y-98150000D01*
X124681888Y-98151298D01*
X124681888Y-98151298D01*
G37*
D22*
X123200000Y-100500000D03*
D13*
G36*
X119481888Y-98151298D02*
X119508052Y-98155179D01*
X119533710Y-98161606D01*
X119558614Y-98170517D01*
X119582525Y-98181826D01*
X119605212Y-98195424D01*
X119626458Y-98211181D01*
X119646056Y-98228944D01*
X119663819Y-98248542D01*
X119679576Y-98269788D01*
X119693174Y-98292475D01*
X119704483Y-98316386D01*
X119713394Y-98341290D01*
X119719821Y-98366948D01*
X119723702Y-98393112D01*
X119725000Y-98419531D01*
X119725000Y-102580469D01*
X119723702Y-102606888D01*
X119719821Y-102633052D01*
X119713394Y-102658710D01*
X119704483Y-102683614D01*
X119693174Y-102707525D01*
X119679576Y-102730212D01*
X119663819Y-102751458D01*
X119646056Y-102771056D01*
X119626458Y-102788819D01*
X119605212Y-102804576D01*
X119582525Y-102818174D01*
X119558614Y-102829483D01*
X119533710Y-102838394D01*
X119508052Y-102844821D01*
X119481888Y-102848702D01*
X119455469Y-102850000D01*
X116544531Y-102850000D01*
X116518112Y-102848702D01*
X116491948Y-102844821D01*
X116466290Y-102838394D01*
X116441386Y-102829483D01*
X116417475Y-102818174D01*
X116394788Y-102804576D01*
X116373542Y-102788819D01*
X116353944Y-102771056D01*
X116336181Y-102751458D01*
X116320424Y-102730212D01*
X116306826Y-102707525D01*
X116295517Y-102683614D01*
X116286606Y-102658710D01*
X116280179Y-102633052D01*
X116276298Y-102606888D01*
X116275000Y-102580469D01*
X116275000Y-98419531D01*
X116276298Y-98393112D01*
X116280179Y-98366948D01*
X116286606Y-98341290D01*
X116295517Y-98316386D01*
X116306826Y-98292475D01*
X116320424Y-98269788D01*
X116336181Y-98248542D01*
X116353944Y-98228944D01*
X116373542Y-98211181D01*
X116394788Y-98195424D01*
X116417475Y-98181826D01*
X116441386Y-98170517D01*
X116466290Y-98161606D01*
X116491948Y-98155179D01*
X116518112Y-98151298D01*
X116544531Y-98150000D01*
X119455469Y-98150000D01*
X119481888Y-98151298D01*
X119481888Y-98151298D01*
G37*
D22*
X118000000Y-100500000D03*
G04 #@! TD*
D13*
G04 #@! TO.C,R10*
G36*
X104861268Y-121176475D02*
X104890996Y-121180885D01*
X104920150Y-121188187D01*
X104948447Y-121198312D01*
X104975615Y-121211162D01*
X105001393Y-121226612D01*
X105025533Y-121244516D01*
X105047801Y-121264699D01*
X105067984Y-121286967D01*
X105085888Y-121311107D01*
X105101338Y-121336885D01*
X105114188Y-121364053D01*
X105124313Y-121392350D01*
X105131615Y-121421504D01*
X105136025Y-121451232D01*
X105137500Y-121481250D01*
X105137500Y-122518750D01*
X105136025Y-122548768D01*
X105131615Y-122578496D01*
X105124313Y-122607650D01*
X105114188Y-122635947D01*
X105101338Y-122663115D01*
X105085888Y-122688893D01*
X105067984Y-122713033D01*
X105047801Y-122735301D01*
X105025533Y-122755484D01*
X105001393Y-122773388D01*
X104975615Y-122788838D01*
X104948447Y-122801688D01*
X104920150Y-122811813D01*
X104890996Y-122819115D01*
X104861268Y-122823525D01*
X104831250Y-122825000D01*
X104218750Y-122825000D01*
X104188732Y-122823525D01*
X104159004Y-122819115D01*
X104129850Y-122811813D01*
X104101553Y-122801688D01*
X104074385Y-122788838D01*
X104048607Y-122773388D01*
X104024467Y-122755484D01*
X104002199Y-122735301D01*
X103982016Y-122713033D01*
X103964112Y-122688893D01*
X103948662Y-122663115D01*
X103935812Y-122635947D01*
X103925687Y-122607650D01*
X103918385Y-122578496D01*
X103913975Y-122548768D01*
X103912500Y-122518750D01*
X103912500Y-121481250D01*
X103913975Y-121451232D01*
X103918385Y-121421504D01*
X103925687Y-121392350D01*
X103935812Y-121364053D01*
X103948662Y-121336885D01*
X103964112Y-121311107D01*
X103982016Y-121286967D01*
X104002199Y-121264699D01*
X104024467Y-121244516D01*
X104048607Y-121226612D01*
X104074385Y-121211162D01*
X104101553Y-121198312D01*
X104129850Y-121188187D01*
X104159004Y-121180885D01*
X104188732Y-121176475D01*
X104218750Y-121175000D01*
X104831250Y-121175000D01*
X104861268Y-121176475D01*
X104861268Y-121176475D01*
G37*
D14*
X104525000Y-122000000D03*
D13*
G36*
X106736268Y-121176475D02*
X106765996Y-121180885D01*
X106795150Y-121188187D01*
X106823447Y-121198312D01*
X106850615Y-121211162D01*
X106876393Y-121226612D01*
X106900533Y-121244516D01*
X106922801Y-121264699D01*
X106942984Y-121286967D01*
X106960888Y-121311107D01*
X106976338Y-121336885D01*
X106989188Y-121364053D01*
X106999313Y-121392350D01*
X107006615Y-121421504D01*
X107011025Y-121451232D01*
X107012500Y-121481250D01*
X107012500Y-122518750D01*
X107011025Y-122548768D01*
X107006615Y-122578496D01*
X106999313Y-122607650D01*
X106989188Y-122635947D01*
X106976338Y-122663115D01*
X106960888Y-122688893D01*
X106942984Y-122713033D01*
X106922801Y-122735301D01*
X106900533Y-122755484D01*
X106876393Y-122773388D01*
X106850615Y-122788838D01*
X106823447Y-122801688D01*
X106795150Y-122811813D01*
X106765996Y-122819115D01*
X106736268Y-122823525D01*
X106706250Y-122825000D01*
X106093750Y-122825000D01*
X106063732Y-122823525D01*
X106034004Y-122819115D01*
X106004850Y-122811813D01*
X105976553Y-122801688D01*
X105949385Y-122788838D01*
X105923607Y-122773388D01*
X105899467Y-122755484D01*
X105877199Y-122735301D01*
X105857016Y-122713033D01*
X105839112Y-122688893D01*
X105823662Y-122663115D01*
X105810812Y-122635947D01*
X105800687Y-122607650D01*
X105793385Y-122578496D01*
X105788975Y-122548768D01*
X105787500Y-122518750D01*
X105787500Y-121481250D01*
X105788975Y-121451232D01*
X105793385Y-121421504D01*
X105800687Y-121392350D01*
X105810812Y-121364053D01*
X105823662Y-121336885D01*
X105839112Y-121311107D01*
X105857016Y-121286967D01*
X105877199Y-121264699D01*
X105899467Y-121244516D01*
X105923607Y-121226612D01*
X105949385Y-121211162D01*
X105976553Y-121198312D01*
X106004850Y-121188187D01*
X106034004Y-121180885D01*
X106063732Y-121176475D01*
X106093750Y-121175000D01*
X106706250Y-121175000D01*
X106736268Y-121176475D01*
X106736268Y-121176475D01*
G37*
D14*
X106400000Y-122000000D03*
G04 #@! TD*
D13*
G04 #@! TO.C,R6*
G36*
X135461268Y-91301476D02*
X135490996Y-91305886D01*
X135520150Y-91313188D01*
X135548447Y-91323313D01*
X135575615Y-91336163D01*
X135601393Y-91351613D01*
X135625533Y-91369517D01*
X135647801Y-91389700D01*
X135667984Y-91411968D01*
X135685888Y-91436108D01*
X135701338Y-91461886D01*
X135714188Y-91489054D01*
X135724313Y-91517351D01*
X135731615Y-91546505D01*
X135736025Y-91576233D01*
X135737500Y-91606251D01*
X135737500Y-92643751D01*
X135736025Y-92673769D01*
X135731615Y-92703497D01*
X135724313Y-92732651D01*
X135714188Y-92760948D01*
X135701338Y-92788116D01*
X135685888Y-92813894D01*
X135667984Y-92838034D01*
X135647801Y-92860302D01*
X135625533Y-92880485D01*
X135601393Y-92898389D01*
X135575615Y-92913839D01*
X135548447Y-92926689D01*
X135520150Y-92936814D01*
X135490996Y-92944116D01*
X135461268Y-92948526D01*
X135431250Y-92950001D01*
X134818750Y-92950001D01*
X134788732Y-92948526D01*
X134759004Y-92944116D01*
X134729850Y-92936814D01*
X134701553Y-92926689D01*
X134674385Y-92913839D01*
X134648607Y-92898389D01*
X134624467Y-92880485D01*
X134602199Y-92860302D01*
X134582016Y-92838034D01*
X134564112Y-92813894D01*
X134548662Y-92788116D01*
X134535812Y-92760948D01*
X134525687Y-92732651D01*
X134518385Y-92703497D01*
X134513975Y-92673769D01*
X134512500Y-92643751D01*
X134512500Y-91606251D01*
X134513975Y-91576233D01*
X134518385Y-91546505D01*
X134525687Y-91517351D01*
X134535812Y-91489054D01*
X134548662Y-91461886D01*
X134564112Y-91436108D01*
X134582016Y-91411968D01*
X134602199Y-91389700D01*
X134624467Y-91369517D01*
X134648607Y-91351613D01*
X134674385Y-91336163D01*
X134701553Y-91323313D01*
X134729850Y-91313188D01*
X134759004Y-91305886D01*
X134788732Y-91301476D01*
X134818750Y-91300001D01*
X135431250Y-91300001D01*
X135461268Y-91301476D01*
X135461268Y-91301476D01*
G37*
D14*
X135125000Y-92125001D03*
D13*
G36*
X137336268Y-91301476D02*
X137365996Y-91305886D01*
X137395150Y-91313188D01*
X137423447Y-91323313D01*
X137450615Y-91336163D01*
X137476393Y-91351613D01*
X137500533Y-91369517D01*
X137522801Y-91389700D01*
X137542984Y-91411968D01*
X137560888Y-91436108D01*
X137576338Y-91461886D01*
X137589188Y-91489054D01*
X137599313Y-91517351D01*
X137606615Y-91546505D01*
X137611025Y-91576233D01*
X137612500Y-91606251D01*
X137612500Y-92643751D01*
X137611025Y-92673769D01*
X137606615Y-92703497D01*
X137599313Y-92732651D01*
X137589188Y-92760948D01*
X137576338Y-92788116D01*
X137560888Y-92813894D01*
X137542984Y-92838034D01*
X137522801Y-92860302D01*
X137500533Y-92880485D01*
X137476393Y-92898389D01*
X137450615Y-92913839D01*
X137423447Y-92926689D01*
X137395150Y-92936814D01*
X137365996Y-92944116D01*
X137336268Y-92948526D01*
X137306250Y-92950001D01*
X136693750Y-92950001D01*
X136663732Y-92948526D01*
X136634004Y-92944116D01*
X136604850Y-92936814D01*
X136576553Y-92926689D01*
X136549385Y-92913839D01*
X136523607Y-92898389D01*
X136499467Y-92880485D01*
X136477199Y-92860302D01*
X136457016Y-92838034D01*
X136439112Y-92813894D01*
X136423662Y-92788116D01*
X136410812Y-92760948D01*
X136400687Y-92732651D01*
X136393385Y-92703497D01*
X136388975Y-92673769D01*
X136387500Y-92643751D01*
X136387500Y-91606251D01*
X136388975Y-91576233D01*
X136393385Y-91546505D01*
X136400687Y-91517351D01*
X136410812Y-91489054D01*
X136423662Y-91461886D01*
X136439112Y-91436108D01*
X136457016Y-91411968D01*
X136477199Y-91389700D01*
X136499467Y-91369517D01*
X136523607Y-91351613D01*
X136549385Y-91336163D01*
X136576553Y-91323313D01*
X136604850Y-91313188D01*
X136634004Y-91305886D01*
X136663732Y-91301476D01*
X136693750Y-91300001D01*
X137306250Y-91300001D01*
X137336268Y-91301476D01*
X137336268Y-91301476D01*
G37*
D14*
X137000000Y-92125001D03*
G04 #@! TD*
D13*
G04 #@! TO.C,R7*
G36*
X137336268Y-88576475D02*
X137365996Y-88580885D01*
X137395150Y-88588187D01*
X137423447Y-88598312D01*
X137450615Y-88611162D01*
X137476393Y-88626612D01*
X137500533Y-88644516D01*
X137522801Y-88664699D01*
X137542984Y-88686967D01*
X137560888Y-88711107D01*
X137576338Y-88736885D01*
X137589188Y-88764053D01*
X137599313Y-88792350D01*
X137606615Y-88821504D01*
X137611025Y-88851232D01*
X137612500Y-88881250D01*
X137612500Y-89918750D01*
X137611025Y-89948768D01*
X137606615Y-89978496D01*
X137599313Y-90007650D01*
X137589188Y-90035947D01*
X137576338Y-90063115D01*
X137560888Y-90088893D01*
X137542984Y-90113033D01*
X137522801Y-90135301D01*
X137500533Y-90155484D01*
X137476393Y-90173388D01*
X137450615Y-90188838D01*
X137423447Y-90201688D01*
X137395150Y-90211813D01*
X137365996Y-90219115D01*
X137336268Y-90223525D01*
X137306250Y-90225000D01*
X136693750Y-90225000D01*
X136663732Y-90223525D01*
X136634004Y-90219115D01*
X136604850Y-90211813D01*
X136576553Y-90201688D01*
X136549385Y-90188838D01*
X136523607Y-90173388D01*
X136499467Y-90155484D01*
X136477199Y-90135301D01*
X136457016Y-90113033D01*
X136439112Y-90088893D01*
X136423662Y-90063115D01*
X136410812Y-90035947D01*
X136400687Y-90007650D01*
X136393385Y-89978496D01*
X136388975Y-89948768D01*
X136387500Y-89918750D01*
X136387500Y-88881250D01*
X136388975Y-88851232D01*
X136393385Y-88821504D01*
X136400687Y-88792350D01*
X136410812Y-88764053D01*
X136423662Y-88736885D01*
X136439112Y-88711107D01*
X136457016Y-88686967D01*
X136477199Y-88664699D01*
X136499467Y-88644516D01*
X136523607Y-88626612D01*
X136549385Y-88611162D01*
X136576553Y-88598312D01*
X136604850Y-88588187D01*
X136634004Y-88580885D01*
X136663732Y-88576475D01*
X136693750Y-88575000D01*
X137306250Y-88575000D01*
X137336268Y-88576475D01*
X137336268Y-88576475D01*
G37*
D14*
X137000000Y-89400000D03*
D13*
G36*
X135461268Y-88576475D02*
X135490996Y-88580885D01*
X135520150Y-88588187D01*
X135548447Y-88598312D01*
X135575615Y-88611162D01*
X135601393Y-88626612D01*
X135625533Y-88644516D01*
X135647801Y-88664699D01*
X135667984Y-88686967D01*
X135685888Y-88711107D01*
X135701338Y-88736885D01*
X135714188Y-88764053D01*
X135724313Y-88792350D01*
X135731615Y-88821504D01*
X135736025Y-88851232D01*
X135737500Y-88881250D01*
X135737500Y-89918750D01*
X135736025Y-89948768D01*
X135731615Y-89978496D01*
X135724313Y-90007650D01*
X135714188Y-90035947D01*
X135701338Y-90063115D01*
X135685888Y-90088893D01*
X135667984Y-90113033D01*
X135647801Y-90135301D01*
X135625533Y-90155484D01*
X135601393Y-90173388D01*
X135575615Y-90188838D01*
X135548447Y-90201688D01*
X135520150Y-90211813D01*
X135490996Y-90219115D01*
X135461268Y-90223525D01*
X135431250Y-90225000D01*
X134818750Y-90225000D01*
X134788732Y-90223525D01*
X134759004Y-90219115D01*
X134729850Y-90211813D01*
X134701553Y-90201688D01*
X134674385Y-90188838D01*
X134648607Y-90173388D01*
X134624467Y-90155484D01*
X134602199Y-90135301D01*
X134582016Y-90113033D01*
X134564112Y-90088893D01*
X134548662Y-90063115D01*
X134535812Y-90035947D01*
X134525687Y-90007650D01*
X134518385Y-89978496D01*
X134513975Y-89948768D01*
X134512500Y-89918750D01*
X134512500Y-88881250D01*
X134513975Y-88851232D01*
X134518385Y-88821504D01*
X134525687Y-88792350D01*
X134535812Y-88764053D01*
X134548662Y-88736885D01*
X134564112Y-88711107D01*
X134582016Y-88686967D01*
X134602199Y-88664699D01*
X134624467Y-88644516D01*
X134648607Y-88626612D01*
X134674385Y-88611162D01*
X134701553Y-88598312D01*
X134729850Y-88588187D01*
X134759004Y-88580885D01*
X134788732Y-88576475D01*
X134818750Y-88575000D01*
X135431250Y-88575000D01*
X135461268Y-88576475D01*
X135461268Y-88576475D01*
G37*
D14*
X135125000Y-89400000D03*
G04 #@! TD*
D13*
G04 #@! TO.C,R11*
G36*
X133598768Y-134376475D02*
X133628496Y-134380885D01*
X133657650Y-134388187D01*
X133685947Y-134398312D01*
X133713115Y-134411162D01*
X133738893Y-134426612D01*
X133763033Y-134444516D01*
X133785301Y-134464699D01*
X133805484Y-134486967D01*
X133823388Y-134511107D01*
X133838838Y-134536885D01*
X133851688Y-134564053D01*
X133861813Y-134592350D01*
X133869115Y-134621504D01*
X133873525Y-134651232D01*
X133875000Y-134681250D01*
X133875000Y-135718750D01*
X133873525Y-135748768D01*
X133869115Y-135778496D01*
X133861813Y-135807650D01*
X133851688Y-135835947D01*
X133838838Y-135863115D01*
X133823388Y-135888893D01*
X133805484Y-135913033D01*
X133785301Y-135935301D01*
X133763033Y-135955484D01*
X133738893Y-135973388D01*
X133713115Y-135988838D01*
X133685947Y-136001688D01*
X133657650Y-136011813D01*
X133628496Y-136019115D01*
X133598768Y-136023525D01*
X133568750Y-136025000D01*
X132956250Y-136025000D01*
X132926232Y-136023525D01*
X132896504Y-136019115D01*
X132867350Y-136011813D01*
X132839053Y-136001688D01*
X132811885Y-135988838D01*
X132786107Y-135973388D01*
X132761967Y-135955484D01*
X132739699Y-135935301D01*
X132719516Y-135913033D01*
X132701612Y-135888893D01*
X132686162Y-135863115D01*
X132673312Y-135835947D01*
X132663187Y-135807650D01*
X132655885Y-135778496D01*
X132651475Y-135748768D01*
X132650000Y-135718750D01*
X132650000Y-134681250D01*
X132651475Y-134651232D01*
X132655885Y-134621504D01*
X132663187Y-134592350D01*
X132673312Y-134564053D01*
X132686162Y-134536885D01*
X132701612Y-134511107D01*
X132719516Y-134486967D01*
X132739699Y-134464699D01*
X132761967Y-134444516D01*
X132786107Y-134426612D01*
X132811885Y-134411162D01*
X132839053Y-134398312D01*
X132867350Y-134388187D01*
X132896504Y-134380885D01*
X132926232Y-134376475D01*
X132956250Y-134375000D01*
X133568750Y-134375000D01*
X133598768Y-134376475D01*
X133598768Y-134376475D01*
G37*
D14*
X133262500Y-135200000D03*
D13*
G36*
X135473768Y-134376475D02*
X135503496Y-134380885D01*
X135532650Y-134388187D01*
X135560947Y-134398312D01*
X135588115Y-134411162D01*
X135613893Y-134426612D01*
X135638033Y-134444516D01*
X135660301Y-134464699D01*
X135680484Y-134486967D01*
X135698388Y-134511107D01*
X135713838Y-134536885D01*
X135726688Y-134564053D01*
X135736813Y-134592350D01*
X135744115Y-134621504D01*
X135748525Y-134651232D01*
X135750000Y-134681250D01*
X135750000Y-135718750D01*
X135748525Y-135748768D01*
X135744115Y-135778496D01*
X135736813Y-135807650D01*
X135726688Y-135835947D01*
X135713838Y-135863115D01*
X135698388Y-135888893D01*
X135680484Y-135913033D01*
X135660301Y-135935301D01*
X135638033Y-135955484D01*
X135613893Y-135973388D01*
X135588115Y-135988838D01*
X135560947Y-136001688D01*
X135532650Y-136011813D01*
X135503496Y-136019115D01*
X135473768Y-136023525D01*
X135443750Y-136025000D01*
X134831250Y-136025000D01*
X134801232Y-136023525D01*
X134771504Y-136019115D01*
X134742350Y-136011813D01*
X134714053Y-136001688D01*
X134686885Y-135988838D01*
X134661107Y-135973388D01*
X134636967Y-135955484D01*
X134614699Y-135935301D01*
X134594516Y-135913033D01*
X134576612Y-135888893D01*
X134561162Y-135863115D01*
X134548312Y-135835947D01*
X134538187Y-135807650D01*
X134530885Y-135778496D01*
X134526475Y-135748768D01*
X134525000Y-135718750D01*
X134525000Y-134681250D01*
X134526475Y-134651232D01*
X134530885Y-134621504D01*
X134538187Y-134592350D01*
X134548312Y-134564053D01*
X134561162Y-134536885D01*
X134576612Y-134511107D01*
X134594516Y-134486967D01*
X134614699Y-134464699D01*
X134636967Y-134444516D01*
X134661107Y-134426612D01*
X134686885Y-134411162D01*
X134714053Y-134398312D01*
X134742350Y-134388187D01*
X134771504Y-134380885D01*
X134801232Y-134376475D01*
X134831250Y-134375000D01*
X135443750Y-134375000D01*
X135473768Y-134376475D01*
X135473768Y-134376475D01*
G37*
D14*
X135137500Y-135200000D03*
G04 #@! TD*
D13*
G04 #@! TO.C,R18*
G36*
X145048768Y-107826475D02*
X145078496Y-107830885D01*
X145107650Y-107838187D01*
X145135947Y-107848312D01*
X145163115Y-107861162D01*
X145188893Y-107876612D01*
X145213033Y-107894516D01*
X145235301Y-107914699D01*
X145255484Y-107936967D01*
X145273388Y-107961107D01*
X145288838Y-107986885D01*
X145301688Y-108014053D01*
X145311813Y-108042350D01*
X145319115Y-108071504D01*
X145323525Y-108101232D01*
X145325000Y-108131250D01*
X145325000Y-108743750D01*
X145323525Y-108773768D01*
X145319115Y-108803496D01*
X145311813Y-108832650D01*
X145301688Y-108860947D01*
X145288838Y-108888115D01*
X145273388Y-108913893D01*
X145255484Y-108938033D01*
X145235301Y-108960301D01*
X145213033Y-108980484D01*
X145188893Y-108998388D01*
X145163115Y-109013838D01*
X145135947Y-109026688D01*
X145107650Y-109036813D01*
X145078496Y-109044115D01*
X145048768Y-109048525D01*
X145018750Y-109050000D01*
X143981250Y-109050000D01*
X143951232Y-109048525D01*
X143921504Y-109044115D01*
X143892350Y-109036813D01*
X143864053Y-109026688D01*
X143836885Y-109013838D01*
X143811107Y-108998388D01*
X143786967Y-108980484D01*
X143764699Y-108960301D01*
X143744516Y-108938033D01*
X143726612Y-108913893D01*
X143711162Y-108888115D01*
X143698312Y-108860947D01*
X143688187Y-108832650D01*
X143680885Y-108803496D01*
X143676475Y-108773768D01*
X143675000Y-108743750D01*
X143675000Y-108131250D01*
X143676475Y-108101232D01*
X143680885Y-108071504D01*
X143688187Y-108042350D01*
X143698312Y-108014053D01*
X143711162Y-107986885D01*
X143726612Y-107961107D01*
X143744516Y-107936967D01*
X143764699Y-107914699D01*
X143786967Y-107894516D01*
X143811107Y-107876612D01*
X143836885Y-107861162D01*
X143864053Y-107848312D01*
X143892350Y-107838187D01*
X143921504Y-107830885D01*
X143951232Y-107826475D01*
X143981250Y-107825000D01*
X145018750Y-107825000D01*
X145048768Y-107826475D01*
X145048768Y-107826475D01*
G37*
D14*
X144500000Y-108437500D03*
D13*
G36*
X145048768Y-105951475D02*
X145078496Y-105955885D01*
X145107650Y-105963187D01*
X145135947Y-105973312D01*
X145163115Y-105986162D01*
X145188893Y-106001612D01*
X145213033Y-106019516D01*
X145235301Y-106039699D01*
X145255484Y-106061967D01*
X145273388Y-106086107D01*
X145288838Y-106111885D01*
X145301688Y-106139053D01*
X145311813Y-106167350D01*
X145319115Y-106196504D01*
X145323525Y-106226232D01*
X145325000Y-106256250D01*
X145325000Y-106868750D01*
X145323525Y-106898768D01*
X145319115Y-106928496D01*
X145311813Y-106957650D01*
X145301688Y-106985947D01*
X145288838Y-107013115D01*
X145273388Y-107038893D01*
X145255484Y-107063033D01*
X145235301Y-107085301D01*
X145213033Y-107105484D01*
X145188893Y-107123388D01*
X145163115Y-107138838D01*
X145135947Y-107151688D01*
X145107650Y-107161813D01*
X145078496Y-107169115D01*
X145048768Y-107173525D01*
X145018750Y-107175000D01*
X143981250Y-107175000D01*
X143951232Y-107173525D01*
X143921504Y-107169115D01*
X143892350Y-107161813D01*
X143864053Y-107151688D01*
X143836885Y-107138838D01*
X143811107Y-107123388D01*
X143786967Y-107105484D01*
X143764699Y-107085301D01*
X143744516Y-107063033D01*
X143726612Y-107038893D01*
X143711162Y-107013115D01*
X143698312Y-106985947D01*
X143688187Y-106957650D01*
X143680885Y-106928496D01*
X143676475Y-106898768D01*
X143675000Y-106868750D01*
X143675000Y-106256250D01*
X143676475Y-106226232D01*
X143680885Y-106196504D01*
X143688187Y-106167350D01*
X143698312Y-106139053D01*
X143711162Y-106111885D01*
X143726612Y-106086107D01*
X143744516Y-106061967D01*
X143764699Y-106039699D01*
X143786967Y-106019516D01*
X143811107Y-106001612D01*
X143836885Y-105986162D01*
X143864053Y-105973312D01*
X143892350Y-105963187D01*
X143921504Y-105955885D01*
X143951232Y-105951475D01*
X143981250Y-105950000D01*
X145018750Y-105950000D01*
X145048768Y-105951475D01*
X145048768Y-105951475D01*
G37*
D14*
X144500000Y-106562500D03*
G04 #@! TD*
D13*
G04 #@! TO.C,R12*
G36*
X140811268Y-134376475D02*
X140840996Y-134380885D01*
X140870150Y-134388187D01*
X140898447Y-134398312D01*
X140925615Y-134411162D01*
X140951393Y-134426612D01*
X140975533Y-134444516D01*
X140997801Y-134464699D01*
X141017984Y-134486967D01*
X141035888Y-134511107D01*
X141051338Y-134536885D01*
X141064188Y-134564053D01*
X141074313Y-134592350D01*
X141081615Y-134621504D01*
X141086025Y-134651232D01*
X141087500Y-134681250D01*
X141087500Y-135718750D01*
X141086025Y-135748768D01*
X141081615Y-135778496D01*
X141074313Y-135807650D01*
X141064188Y-135835947D01*
X141051338Y-135863115D01*
X141035888Y-135888893D01*
X141017984Y-135913033D01*
X140997801Y-135935301D01*
X140975533Y-135955484D01*
X140951393Y-135973388D01*
X140925615Y-135988838D01*
X140898447Y-136001688D01*
X140870150Y-136011813D01*
X140840996Y-136019115D01*
X140811268Y-136023525D01*
X140781250Y-136025000D01*
X140168750Y-136025000D01*
X140138732Y-136023525D01*
X140109004Y-136019115D01*
X140079850Y-136011813D01*
X140051553Y-136001688D01*
X140024385Y-135988838D01*
X139998607Y-135973388D01*
X139974467Y-135955484D01*
X139952199Y-135935301D01*
X139932016Y-135913033D01*
X139914112Y-135888893D01*
X139898662Y-135863115D01*
X139885812Y-135835947D01*
X139875687Y-135807650D01*
X139868385Y-135778496D01*
X139863975Y-135748768D01*
X139862500Y-135718750D01*
X139862500Y-134681250D01*
X139863975Y-134651232D01*
X139868385Y-134621504D01*
X139875687Y-134592350D01*
X139885812Y-134564053D01*
X139898662Y-134536885D01*
X139914112Y-134511107D01*
X139932016Y-134486967D01*
X139952199Y-134464699D01*
X139974467Y-134444516D01*
X139998607Y-134426612D01*
X140024385Y-134411162D01*
X140051553Y-134398312D01*
X140079850Y-134388187D01*
X140109004Y-134380885D01*
X140138732Y-134376475D01*
X140168750Y-134375000D01*
X140781250Y-134375000D01*
X140811268Y-134376475D01*
X140811268Y-134376475D01*
G37*
D14*
X140475000Y-135200000D03*
D13*
G36*
X138936268Y-134376475D02*
X138965996Y-134380885D01*
X138995150Y-134388187D01*
X139023447Y-134398312D01*
X139050615Y-134411162D01*
X139076393Y-134426612D01*
X139100533Y-134444516D01*
X139122801Y-134464699D01*
X139142984Y-134486967D01*
X139160888Y-134511107D01*
X139176338Y-134536885D01*
X139189188Y-134564053D01*
X139199313Y-134592350D01*
X139206615Y-134621504D01*
X139211025Y-134651232D01*
X139212500Y-134681250D01*
X139212500Y-135718750D01*
X139211025Y-135748768D01*
X139206615Y-135778496D01*
X139199313Y-135807650D01*
X139189188Y-135835947D01*
X139176338Y-135863115D01*
X139160888Y-135888893D01*
X139142984Y-135913033D01*
X139122801Y-135935301D01*
X139100533Y-135955484D01*
X139076393Y-135973388D01*
X139050615Y-135988838D01*
X139023447Y-136001688D01*
X138995150Y-136011813D01*
X138965996Y-136019115D01*
X138936268Y-136023525D01*
X138906250Y-136025000D01*
X138293750Y-136025000D01*
X138263732Y-136023525D01*
X138234004Y-136019115D01*
X138204850Y-136011813D01*
X138176553Y-136001688D01*
X138149385Y-135988838D01*
X138123607Y-135973388D01*
X138099467Y-135955484D01*
X138077199Y-135935301D01*
X138057016Y-135913033D01*
X138039112Y-135888893D01*
X138023662Y-135863115D01*
X138010812Y-135835947D01*
X138000687Y-135807650D01*
X137993385Y-135778496D01*
X137988975Y-135748768D01*
X137987500Y-135718750D01*
X137987500Y-134681250D01*
X137988975Y-134651232D01*
X137993385Y-134621504D01*
X138000687Y-134592350D01*
X138010812Y-134564053D01*
X138023662Y-134536885D01*
X138039112Y-134511107D01*
X138057016Y-134486967D01*
X138077199Y-134464699D01*
X138099467Y-134444516D01*
X138123607Y-134426612D01*
X138149385Y-134411162D01*
X138176553Y-134398312D01*
X138204850Y-134388187D01*
X138234004Y-134380885D01*
X138263732Y-134376475D01*
X138293750Y-134375000D01*
X138906250Y-134375000D01*
X138936268Y-134376475D01*
X138936268Y-134376475D01*
G37*
D14*
X138600000Y-135200000D03*
G04 #@! TD*
D13*
G04 #@! TO.C,R13*
G36*
X141773768Y-88576475D02*
X141803496Y-88580885D01*
X141832650Y-88588187D01*
X141860947Y-88598312D01*
X141888115Y-88611162D01*
X141913893Y-88626612D01*
X141938033Y-88644516D01*
X141960301Y-88664699D01*
X141980484Y-88686967D01*
X141998388Y-88711107D01*
X142013838Y-88736885D01*
X142026688Y-88764053D01*
X142036813Y-88792350D01*
X142044115Y-88821504D01*
X142048525Y-88851232D01*
X142050000Y-88881250D01*
X142050000Y-89918750D01*
X142048525Y-89948768D01*
X142044115Y-89978496D01*
X142036813Y-90007650D01*
X142026688Y-90035947D01*
X142013838Y-90063115D01*
X141998388Y-90088893D01*
X141980484Y-90113033D01*
X141960301Y-90135301D01*
X141938033Y-90155484D01*
X141913893Y-90173388D01*
X141888115Y-90188838D01*
X141860947Y-90201688D01*
X141832650Y-90211813D01*
X141803496Y-90219115D01*
X141773768Y-90223525D01*
X141743750Y-90225000D01*
X141131250Y-90225000D01*
X141101232Y-90223525D01*
X141071504Y-90219115D01*
X141042350Y-90211813D01*
X141014053Y-90201688D01*
X140986885Y-90188838D01*
X140961107Y-90173388D01*
X140936967Y-90155484D01*
X140914699Y-90135301D01*
X140894516Y-90113033D01*
X140876612Y-90088893D01*
X140861162Y-90063115D01*
X140848312Y-90035947D01*
X140838187Y-90007650D01*
X140830885Y-89978496D01*
X140826475Y-89948768D01*
X140825000Y-89918750D01*
X140825000Y-88881250D01*
X140826475Y-88851232D01*
X140830885Y-88821504D01*
X140838187Y-88792350D01*
X140848312Y-88764053D01*
X140861162Y-88736885D01*
X140876612Y-88711107D01*
X140894516Y-88686967D01*
X140914699Y-88664699D01*
X140936967Y-88644516D01*
X140961107Y-88626612D01*
X140986885Y-88611162D01*
X141014053Y-88598312D01*
X141042350Y-88588187D01*
X141071504Y-88580885D01*
X141101232Y-88576475D01*
X141131250Y-88575000D01*
X141743750Y-88575000D01*
X141773768Y-88576475D01*
X141773768Y-88576475D01*
G37*
D14*
X141437500Y-89400000D03*
D13*
G36*
X139898768Y-88576475D02*
X139928496Y-88580885D01*
X139957650Y-88588187D01*
X139985947Y-88598312D01*
X140013115Y-88611162D01*
X140038893Y-88626612D01*
X140063033Y-88644516D01*
X140085301Y-88664699D01*
X140105484Y-88686967D01*
X140123388Y-88711107D01*
X140138838Y-88736885D01*
X140151688Y-88764053D01*
X140161813Y-88792350D01*
X140169115Y-88821504D01*
X140173525Y-88851232D01*
X140175000Y-88881250D01*
X140175000Y-89918750D01*
X140173525Y-89948768D01*
X140169115Y-89978496D01*
X140161813Y-90007650D01*
X140151688Y-90035947D01*
X140138838Y-90063115D01*
X140123388Y-90088893D01*
X140105484Y-90113033D01*
X140085301Y-90135301D01*
X140063033Y-90155484D01*
X140038893Y-90173388D01*
X140013115Y-90188838D01*
X139985947Y-90201688D01*
X139957650Y-90211813D01*
X139928496Y-90219115D01*
X139898768Y-90223525D01*
X139868750Y-90225000D01*
X139256250Y-90225000D01*
X139226232Y-90223525D01*
X139196504Y-90219115D01*
X139167350Y-90211813D01*
X139139053Y-90201688D01*
X139111885Y-90188838D01*
X139086107Y-90173388D01*
X139061967Y-90155484D01*
X139039699Y-90135301D01*
X139019516Y-90113033D01*
X139001612Y-90088893D01*
X138986162Y-90063115D01*
X138973312Y-90035947D01*
X138963187Y-90007650D01*
X138955885Y-89978496D01*
X138951475Y-89948768D01*
X138950000Y-89918750D01*
X138950000Y-88881250D01*
X138951475Y-88851232D01*
X138955885Y-88821504D01*
X138963187Y-88792350D01*
X138973312Y-88764053D01*
X138986162Y-88736885D01*
X139001612Y-88711107D01*
X139019516Y-88686967D01*
X139039699Y-88664699D01*
X139061967Y-88644516D01*
X139086107Y-88626612D01*
X139111885Y-88611162D01*
X139139053Y-88598312D01*
X139167350Y-88588187D01*
X139196504Y-88580885D01*
X139226232Y-88576475D01*
X139256250Y-88575000D01*
X139868750Y-88575000D01*
X139898768Y-88576475D01*
X139898768Y-88576475D01*
G37*
D14*
X139562500Y-89400000D03*
G04 #@! TD*
D13*
G04 #@! TO.C,C6*
G36*
X130798768Y-88576475D02*
X130828496Y-88580885D01*
X130857650Y-88588187D01*
X130885947Y-88598312D01*
X130913115Y-88611162D01*
X130938893Y-88626612D01*
X130963033Y-88644516D01*
X130985301Y-88664699D01*
X131005484Y-88686967D01*
X131023388Y-88711107D01*
X131038838Y-88736885D01*
X131051688Y-88764053D01*
X131061813Y-88792350D01*
X131069115Y-88821504D01*
X131073525Y-88851232D01*
X131075000Y-88881250D01*
X131075000Y-89918750D01*
X131073525Y-89948768D01*
X131069115Y-89978496D01*
X131061813Y-90007650D01*
X131051688Y-90035947D01*
X131038838Y-90063115D01*
X131023388Y-90088893D01*
X131005484Y-90113033D01*
X130985301Y-90135301D01*
X130963033Y-90155484D01*
X130938893Y-90173388D01*
X130913115Y-90188838D01*
X130885947Y-90201688D01*
X130857650Y-90211813D01*
X130828496Y-90219115D01*
X130798768Y-90223525D01*
X130768750Y-90225000D01*
X130156250Y-90225000D01*
X130126232Y-90223525D01*
X130096504Y-90219115D01*
X130067350Y-90211813D01*
X130039053Y-90201688D01*
X130011885Y-90188838D01*
X129986107Y-90173388D01*
X129961967Y-90155484D01*
X129939699Y-90135301D01*
X129919516Y-90113033D01*
X129901612Y-90088893D01*
X129886162Y-90063115D01*
X129873312Y-90035947D01*
X129863187Y-90007650D01*
X129855885Y-89978496D01*
X129851475Y-89948768D01*
X129850000Y-89918750D01*
X129850000Y-88881250D01*
X129851475Y-88851232D01*
X129855885Y-88821504D01*
X129863187Y-88792350D01*
X129873312Y-88764053D01*
X129886162Y-88736885D01*
X129901612Y-88711107D01*
X129919516Y-88686967D01*
X129939699Y-88664699D01*
X129961967Y-88644516D01*
X129986107Y-88626612D01*
X130011885Y-88611162D01*
X130039053Y-88598312D01*
X130067350Y-88588187D01*
X130096504Y-88580885D01*
X130126232Y-88576475D01*
X130156250Y-88575000D01*
X130768750Y-88575000D01*
X130798768Y-88576475D01*
X130798768Y-88576475D01*
G37*
D14*
X130462500Y-89400000D03*
D13*
G36*
X132673768Y-88576475D02*
X132703496Y-88580885D01*
X132732650Y-88588187D01*
X132760947Y-88598312D01*
X132788115Y-88611162D01*
X132813893Y-88626612D01*
X132838033Y-88644516D01*
X132860301Y-88664699D01*
X132880484Y-88686967D01*
X132898388Y-88711107D01*
X132913838Y-88736885D01*
X132926688Y-88764053D01*
X132936813Y-88792350D01*
X132944115Y-88821504D01*
X132948525Y-88851232D01*
X132950000Y-88881250D01*
X132950000Y-89918750D01*
X132948525Y-89948768D01*
X132944115Y-89978496D01*
X132936813Y-90007650D01*
X132926688Y-90035947D01*
X132913838Y-90063115D01*
X132898388Y-90088893D01*
X132880484Y-90113033D01*
X132860301Y-90135301D01*
X132838033Y-90155484D01*
X132813893Y-90173388D01*
X132788115Y-90188838D01*
X132760947Y-90201688D01*
X132732650Y-90211813D01*
X132703496Y-90219115D01*
X132673768Y-90223525D01*
X132643750Y-90225000D01*
X132031250Y-90225000D01*
X132001232Y-90223525D01*
X131971504Y-90219115D01*
X131942350Y-90211813D01*
X131914053Y-90201688D01*
X131886885Y-90188838D01*
X131861107Y-90173388D01*
X131836967Y-90155484D01*
X131814699Y-90135301D01*
X131794516Y-90113033D01*
X131776612Y-90088893D01*
X131761162Y-90063115D01*
X131748312Y-90035947D01*
X131738187Y-90007650D01*
X131730885Y-89978496D01*
X131726475Y-89948768D01*
X131725000Y-89918750D01*
X131725000Y-88881250D01*
X131726475Y-88851232D01*
X131730885Y-88821504D01*
X131738187Y-88792350D01*
X131748312Y-88764053D01*
X131761162Y-88736885D01*
X131776612Y-88711107D01*
X131794516Y-88686967D01*
X131814699Y-88664699D01*
X131836967Y-88644516D01*
X131861107Y-88626612D01*
X131886885Y-88611162D01*
X131914053Y-88598312D01*
X131942350Y-88588187D01*
X131971504Y-88580885D01*
X132001232Y-88576475D01*
X132031250Y-88575000D01*
X132643750Y-88575000D01*
X132673768Y-88576475D01*
X132673768Y-88576475D01*
G37*
D14*
X132337500Y-89400000D03*
G04 #@! TD*
D13*
G04 #@! TO.C,C5*
G36*
X131734943Y-111738915D02*
X131763469Y-111743146D01*
X131791443Y-111750154D01*
X131818595Y-111759869D01*
X131844665Y-111772199D01*
X131869400Y-111787024D01*
X131892563Y-111804203D01*
X131913930Y-111823570D01*
X131933297Y-111844937D01*
X131950476Y-111868100D01*
X131965301Y-111892835D01*
X131977631Y-111918905D01*
X131987346Y-111946057D01*
X131994354Y-111974031D01*
X131998585Y-112002557D01*
X132000000Y-112031360D01*
X132000000Y-113118640D01*
X131998585Y-113147443D01*
X131994354Y-113175969D01*
X131987346Y-113203943D01*
X131977631Y-113231095D01*
X131965301Y-113257165D01*
X131950476Y-113281900D01*
X131933297Y-113305063D01*
X131913930Y-113326430D01*
X131892563Y-113345797D01*
X131869400Y-113362976D01*
X131844665Y-113377801D01*
X131818595Y-113390131D01*
X131791443Y-113399846D01*
X131763469Y-113406854D01*
X131734943Y-113411085D01*
X131706140Y-113412500D01*
X130293860Y-113412500D01*
X130265057Y-113411085D01*
X130236531Y-113406854D01*
X130208557Y-113399846D01*
X130181405Y-113390131D01*
X130155335Y-113377801D01*
X130130600Y-113362976D01*
X130107437Y-113345797D01*
X130086070Y-113326430D01*
X130066703Y-113305063D01*
X130049524Y-113281900D01*
X130034699Y-113257165D01*
X130022369Y-113231095D01*
X130012654Y-113203943D01*
X130005646Y-113175969D01*
X130001415Y-113147443D01*
X130000000Y-113118640D01*
X130000000Y-112031360D01*
X130001415Y-112002557D01*
X130005646Y-111974031D01*
X130012654Y-111946057D01*
X130022369Y-111918905D01*
X130034699Y-111892835D01*
X130049524Y-111868100D01*
X130066703Y-111844937D01*
X130086070Y-111823570D01*
X130107437Y-111804203D01*
X130130600Y-111787024D01*
X130155335Y-111772199D01*
X130181405Y-111759869D01*
X130208557Y-111750154D01*
X130236531Y-111743146D01*
X130265057Y-111738915D01*
X130293860Y-111737500D01*
X131706140Y-111737500D01*
X131734943Y-111738915D01*
X131734943Y-111738915D01*
G37*
D20*
X131000000Y-112575000D03*
D13*
G36*
X131734943Y-114713915D02*
X131763469Y-114718146D01*
X131791443Y-114725154D01*
X131818595Y-114734869D01*
X131844665Y-114747199D01*
X131869400Y-114762024D01*
X131892563Y-114779203D01*
X131913930Y-114798570D01*
X131933297Y-114819937D01*
X131950476Y-114843100D01*
X131965301Y-114867835D01*
X131977631Y-114893905D01*
X131987346Y-114921057D01*
X131994354Y-114949031D01*
X131998585Y-114977557D01*
X132000000Y-115006360D01*
X132000000Y-116093640D01*
X131998585Y-116122443D01*
X131994354Y-116150969D01*
X131987346Y-116178943D01*
X131977631Y-116206095D01*
X131965301Y-116232165D01*
X131950476Y-116256900D01*
X131933297Y-116280063D01*
X131913930Y-116301430D01*
X131892563Y-116320797D01*
X131869400Y-116337976D01*
X131844665Y-116352801D01*
X131818595Y-116365131D01*
X131791443Y-116374846D01*
X131763469Y-116381854D01*
X131734943Y-116386085D01*
X131706140Y-116387500D01*
X130293860Y-116387500D01*
X130265057Y-116386085D01*
X130236531Y-116381854D01*
X130208557Y-116374846D01*
X130181405Y-116365131D01*
X130155335Y-116352801D01*
X130130600Y-116337976D01*
X130107437Y-116320797D01*
X130086070Y-116301430D01*
X130066703Y-116280063D01*
X130049524Y-116256900D01*
X130034699Y-116232165D01*
X130022369Y-116206095D01*
X130012654Y-116178943D01*
X130005646Y-116150969D01*
X130001415Y-116122443D01*
X130000000Y-116093640D01*
X130000000Y-115006360D01*
X130001415Y-114977557D01*
X130005646Y-114949031D01*
X130012654Y-114921057D01*
X130022369Y-114893905D01*
X130034699Y-114867835D01*
X130049524Y-114843100D01*
X130066703Y-114819937D01*
X130086070Y-114798570D01*
X130107437Y-114779203D01*
X130130600Y-114762024D01*
X130155335Y-114747199D01*
X130181405Y-114734869D01*
X130208557Y-114725154D01*
X130236531Y-114718146D01*
X130265057Y-114713915D01*
X130293860Y-114712500D01*
X131706140Y-114712500D01*
X131734943Y-114713915D01*
X131734943Y-114713915D01*
G37*
D20*
X131000000Y-115550000D03*
G04 #@! TD*
D13*
G04 #@! TO.C,C1*
G36*
X106736268Y-92176475D02*
X106765996Y-92180885D01*
X106795150Y-92188187D01*
X106823447Y-92198312D01*
X106850615Y-92211162D01*
X106876393Y-92226612D01*
X106900533Y-92244516D01*
X106922801Y-92264699D01*
X106942984Y-92286967D01*
X106960888Y-92311107D01*
X106976338Y-92336885D01*
X106989188Y-92364053D01*
X106999313Y-92392350D01*
X107006615Y-92421504D01*
X107011025Y-92451232D01*
X107012500Y-92481250D01*
X107012500Y-93518750D01*
X107011025Y-93548768D01*
X107006615Y-93578496D01*
X106999313Y-93607650D01*
X106989188Y-93635947D01*
X106976338Y-93663115D01*
X106960888Y-93688893D01*
X106942984Y-93713033D01*
X106922801Y-93735301D01*
X106900533Y-93755484D01*
X106876393Y-93773388D01*
X106850615Y-93788838D01*
X106823447Y-93801688D01*
X106795150Y-93811813D01*
X106765996Y-93819115D01*
X106736268Y-93823525D01*
X106706250Y-93825000D01*
X106093750Y-93825000D01*
X106063732Y-93823525D01*
X106034004Y-93819115D01*
X106004850Y-93811813D01*
X105976553Y-93801688D01*
X105949385Y-93788838D01*
X105923607Y-93773388D01*
X105899467Y-93755484D01*
X105877199Y-93735301D01*
X105857016Y-93713033D01*
X105839112Y-93688893D01*
X105823662Y-93663115D01*
X105810812Y-93635947D01*
X105800687Y-93607650D01*
X105793385Y-93578496D01*
X105788975Y-93548768D01*
X105787500Y-93518750D01*
X105787500Y-92481250D01*
X105788975Y-92451232D01*
X105793385Y-92421504D01*
X105800687Y-92392350D01*
X105810812Y-92364053D01*
X105823662Y-92336885D01*
X105839112Y-92311107D01*
X105857016Y-92286967D01*
X105877199Y-92264699D01*
X105899467Y-92244516D01*
X105923607Y-92226612D01*
X105949385Y-92211162D01*
X105976553Y-92198312D01*
X106004850Y-92188187D01*
X106034004Y-92180885D01*
X106063732Y-92176475D01*
X106093750Y-92175000D01*
X106706250Y-92175000D01*
X106736268Y-92176475D01*
X106736268Y-92176475D01*
G37*
D14*
X106400000Y-93000000D03*
D13*
G36*
X104861268Y-92176475D02*
X104890996Y-92180885D01*
X104920150Y-92188187D01*
X104948447Y-92198312D01*
X104975615Y-92211162D01*
X105001393Y-92226612D01*
X105025533Y-92244516D01*
X105047801Y-92264699D01*
X105067984Y-92286967D01*
X105085888Y-92311107D01*
X105101338Y-92336885D01*
X105114188Y-92364053D01*
X105124313Y-92392350D01*
X105131615Y-92421504D01*
X105136025Y-92451232D01*
X105137500Y-92481250D01*
X105137500Y-93518750D01*
X105136025Y-93548768D01*
X105131615Y-93578496D01*
X105124313Y-93607650D01*
X105114188Y-93635947D01*
X105101338Y-93663115D01*
X105085888Y-93688893D01*
X105067984Y-93713033D01*
X105047801Y-93735301D01*
X105025533Y-93755484D01*
X105001393Y-93773388D01*
X104975615Y-93788838D01*
X104948447Y-93801688D01*
X104920150Y-93811813D01*
X104890996Y-93819115D01*
X104861268Y-93823525D01*
X104831250Y-93825000D01*
X104218750Y-93825000D01*
X104188732Y-93823525D01*
X104159004Y-93819115D01*
X104129850Y-93811813D01*
X104101553Y-93801688D01*
X104074385Y-93788838D01*
X104048607Y-93773388D01*
X104024467Y-93755484D01*
X104002199Y-93735301D01*
X103982016Y-93713033D01*
X103964112Y-93688893D01*
X103948662Y-93663115D01*
X103935812Y-93635947D01*
X103925687Y-93607650D01*
X103918385Y-93578496D01*
X103913975Y-93548768D01*
X103912500Y-93518750D01*
X103912500Y-92481250D01*
X103913975Y-92451232D01*
X103918385Y-92421504D01*
X103925687Y-92392350D01*
X103935812Y-92364053D01*
X103948662Y-92336885D01*
X103964112Y-92311107D01*
X103982016Y-92286967D01*
X104002199Y-92264699D01*
X104024467Y-92244516D01*
X104048607Y-92226612D01*
X104074385Y-92211162D01*
X104101553Y-92198312D01*
X104129850Y-92188187D01*
X104159004Y-92180885D01*
X104188732Y-92176475D01*
X104218750Y-92175000D01*
X104831250Y-92175000D01*
X104861268Y-92176475D01*
X104861268Y-92176475D01*
G37*
D14*
X104525000Y-93000000D03*
G04 #@! TD*
D19*
G04 #@! TO.C,D17*
X103962500Y-89600000D03*
X106962500Y-89600000D03*
G04 #@! TD*
G04 #@! TO.C,D12*
X132330310Y-92249079D03*
X129330310Y-92249079D03*
G04 #@! TD*
G04 #@! TO.C,D3*
X138000000Y-115562500D03*
X138000000Y-112562500D03*
G04 #@! TD*
D23*
G04 #@! TO.C,D51*
X128830310Y-102000000D03*
X128830310Y-106000000D03*
G04 #@! TD*
D24*
G04 #@! TO.C,J56*
X95250000Y-114038000D03*
X97794660Y-115045460D03*
X97794660Y-113016000D03*
X95250000Y-112000000D03*
X97794660Y-110986540D03*
X95250000Y-109970540D03*
G04 #@! TD*
G04 #@! TO.C,J55*
X95220000Y-99770540D03*
X95220000Y-101800000D03*
X97764660Y-100786540D03*
X97764660Y-98757080D03*
X95220000Y-97741080D03*
X97764660Y-96727620D03*
X95220000Y-95711620D03*
X97764660Y-94698160D03*
G04 #@! TD*
D16*
G04 #@! TO.C,J52*
X148500000Y-130280000D03*
X148500000Y-135360000D03*
G04 #@! TD*
D25*
G04 #@! TO.C,C51*
X136000000Y-122500000D03*
X141000000Y-122500000D03*
G04 #@! TD*
G04 #@! TO.C,C52*
X136000000Y-102000000D03*
X141000000Y-102000000D03*
G04 #@! TD*
D26*
G04 #@! TO.C,U1*
X122500000Y-118000000D03*
D13*
G36*
X121555614Y-120022598D02*
X121532165Y-120015485D01*
X121510554Y-120003934D01*
X121491612Y-119988388D01*
X121476066Y-119969446D01*
X121464515Y-119947835D01*
X121457402Y-119924386D01*
X121455000Y-119900000D01*
X121455000Y-119305000D01*
X121010000Y-119305000D01*
X120985614Y-119302598D01*
X120962165Y-119295485D01*
X120940554Y-119283934D01*
X120921612Y-119268388D01*
X120906066Y-119249446D01*
X120894515Y-119227835D01*
X120887402Y-119204386D01*
X120885000Y-119180000D01*
X120885000Y-116330000D01*
X120887402Y-116305614D01*
X120894515Y-116282165D01*
X120906066Y-116260554D01*
X120921612Y-116241612D01*
X120940554Y-116226066D01*
X120962165Y-116214515D01*
X120985614Y-116207402D01*
X121010000Y-116205000D01*
X123160000Y-116205000D01*
X123184386Y-116207402D01*
X123207835Y-116214515D01*
X123229446Y-116226066D01*
X123248388Y-116241612D01*
X123263934Y-116260554D01*
X123275485Y-116282165D01*
X123282598Y-116305614D01*
X123285000Y-116330000D01*
X123285000Y-116605000D01*
X123900000Y-116605000D01*
X123924386Y-116607402D01*
X123947835Y-116614515D01*
X123969446Y-116626066D01*
X123988388Y-116641612D01*
X124003934Y-116660554D01*
X124015485Y-116682165D01*
X124022598Y-116705614D01*
X124025000Y-116730000D01*
X124025000Y-118900000D01*
X124022598Y-118924386D01*
X124015485Y-118947835D01*
X124003934Y-118969446D01*
X123988388Y-118988388D01*
X123969446Y-119003934D01*
X123947835Y-119015485D01*
X123924386Y-119022598D01*
X123900000Y-119025000D01*
X123285000Y-119025000D01*
X123285000Y-119180000D01*
X123282598Y-119204386D01*
X123275485Y-119227835D01*
X123263934Y-119249446D01*
X123248388Y-119268388D01*
X123229446Y-119283934D01*
X123207835Y-119295485D01*
X123184386Y-119302598D01*
X123160000Y-119305000D01*
X123145000Y-119305000D01*
X123145000Y-119900000D01*
X123142598Y-119924386D01*
X123135485Y-119947835D01*
X123123934Y-119969446D01*
X123108388Y-119988388D01*
X123089446Y-120003934D01*
X123067835Y-120015485D01*
X123044386Y-120022598D01*
X123020000Y-120025000D01*
X121580000Y-120025000D01*
X121555614Y-120022598D01*
X121555614Y-120022598D01*
G37*
D26*
X113500000Y-107000000D03*
D13*
G36*
X114444386Y-104977402D02*
X114467835Y-104984515D01*
X114489446Y-104996066D01*
X114508388Y-105011612D01*
X114523934Y-105030554D01*
X114535485Y-105052165D01*
X114542598Y-105075614D01*
X114545000Y-105100000D01*
X114545000Y-105695000D01*
X114990000Y-105695000D01*
X115014386Y-105697402D01*
X115037835Y-105704515D01*
X115059446Y-105716066D01*
X115078388Y-105731612D01*
X115093934Y-105750554D01*
X115105485Y-105772165D01*
X115112598Y-105795614D01*
X115115000Y-105820000D01*
X115115000Y-108670000D01*
X115112598Y-108694386D01*
X115105485Y-108717835D01*
X115093934Y-108739446D01*
X115078388Y-108758388D01*
X115059446Y-108773934D01*
X115037835Y-108785485D01*
X115014386Y-108792598D01*
X114990000Y-108795000D01*
X112840000Y-108795000D01*
X112815614Y-108792598D01*
X112792165Y-108785485D01*
X112770554Y-108773934D01*
X112751612Y-108758388D01*
X112736066Y-108739446D01*
X112724515Y-108717835D01*
X112717402Y-108694386D01*
X112715000Y-108670000D01*
X112715000Y-108395000D01*
X112100000Y-108395000D01*
X112075614Y-108392598D01*
X112052165Y-108385485D01*
X112030554Y-108373934D01*
X112011612Y-108358388D01*
X111996066Y-108339446D01*
X111984515Y-108317835D01*
X111977402Y-108294386D01*
X111975000Y-108270000D01*
X111975000Y-106100000D01*
X111977402Y-106075614D01*
X111984515Y-106052165D01*
X111996066Y-106030554D01*
X112011612Y-106011612D01*
X112030554Y-105996066D01*
X112052165Y-105984515D01*
X112075614Y-105977402D01*
X112100000Y-105975000D01*
X112715000Y-105975000D01*
X112715000Y-105820000D01*
X112717402Y-105795614D01*
X112724515Y-105772165D01*
X112736066Y-105750554D01*
X112751612Y-105731612D01*
X112770554Y-105716066D01*
X112792165Y-105704515D01*
X112815614Y-105697402D01*
X112840000Y-105695000D01*
X112855000Y-105695000D01*
X112855000Y-105100000D01*
X112857402Y-105075614D01*
X112864515Y-105052165D01*
X112876066Y-105030554D01*
X112891612Y-105011612D01*
X112910554Y-104996066D01*
X112932165Y-104984515D01*
X112955614Y-104977402D01*
X112980000Y-104975000D01*
X114420000Y-104975000D01*
X114444386Y-104977402D01*
X114444386Y-104977402D01*
G37*
D26*
X122500000Y-107000000D03*
D13*
G36*
X120985614Y-108792598D02*
X120962165Y-108785485D01*
X120940554Y-108773934D01*
X120921612Y-108758388D01*
X120906066Y-108739446D01*
X120894515Y-108717835D01*
X120887402Y-108694386D01*
X120885000Y-108670000D01*
X120885000Y-105820000D01*
X120887402Y-105795614D01*
X120894515Y-105772165D01*
X120906066Y-105750554D01*
X120921612Y-105731612D01*
X120940554Y-105716066D01*
X120962165Y-105704515D01*
X120985614Y-105697402D01*
X121010000Y-105695000D01*
X121455000Y-105695000D01*
X121455000Y-105100000D01*
X121457402Y-105075614D01*
X121464515Y-105052165D01*
X121476066Y-105030554D01*
X121491612Y-105011612D01*
X121510554Y-104996066D01*
X121532165Y-104984515D01*
X121555614Y-104977402D01*
X121580000Y-104975000D01*
X123020000Y-104975000D01*
X123044386Y-104977402D01*
X123067835Y-104984515D01*
X123089446Y-104996066D01*
X123108388Y-105011612D01*
X123123934Y-105030554D01*
X123135485Y-105052165D01*
X123142598Y-105075614D01*
X123145000Y-105100000D01*
X123145000Y-105695000D01*
X123160000Y-105695000D01*
X123184386Y-105697402D01*
X123207835Y-105704515D01*
X123229446Y-105716066D01*
X123248388Y-105731612D01*
X123263934Y-105750554D01*
X123275485Y-105772165D01*
X123282598Y-105795614D01*
X123285000Y-105820000D01*
X123285000Y-105975000D01*
X123900000Y-105975000D01*
X123924386Y-105977402D01*
X123947835Y-105984515D01*
X123969446Y-105996066D01*
X123988388Y-106011612D01*
X124003934Y-106030554D01*
X124015485Y-106052165D01*
X124022598Y-106075614D01*
X124025000Y-106100000D01*
X124025000Y-108270000D01*
X124022598Y-108294386D01*
X124015485Y-108317835D01*
X124003934Y-108339446D01*
X123988388Y-108358388D01*
X123969446Y-108373934D01*
X123947835Y-108385485D01*
X123924386Y-108392598D01*
X123900000Y-108395000D01*
X123285000Y-108395000D01*
X123285000Y-108670000D01*
X123282598Y-108694386D01*
X123275485Y-108717835D01*
X123263934Y-108739446D01*
X123248388Y-108758388D01*
X123229446Y-108773934D01*
X123207835Y-108785485D01*
X123184386Y-108792598D01*
X123160000Y-108795000D01*
X121010000Y-108795000D01*
X120985614Y-108792598D01*
X120985614Y-108792598D01*
G37*
D26*
X113500000Y-118000000D03*
D13*
G36*
X115014386Y-116207402D02*
X115037835Y-116214515D01*
X115059446Y-116226066D01*
X115078388Y-116241612D01*
X115093934Y-116260554D01*
X115105485Y-116282165D01*
X115112598Y-116305614D01*
X115115000Y-116330000D01*
X115115000Y-119180000D01*
X115112598Y-119204386D01*
X115105485Y-119227835D01*
X115093934Y-119249446D01*
X115078388Y-119268388D01*
X115059446Y-119283934D01*
X115037835Y-119295485D01*
X115014386Y-119302598D01*
X114990000Y-119305000D01*
X114545000Y-119305000D01*
X114545000Y-119900000D01*
X114542598Y-119924386D01*
X114535485Y-119947835D01*
X114523934Y-119969446D01*
X114508388Y-119988388D01*
X114489446Y-120003934D01*
X114467835Y-120015485D01*
X114444386Y-120022598D01*
X114420000Y-120025000D01*
X112980000Y-120025000D01*
X112955614Y-120022598D01*
X112932165Y-120015485D01*
X112910554Y-120003934D01*
X112891612Y-119988388D01*
X112876066Y-119969446D01*
X112864515Y-119947835D01*
X112857402Y-119924386D01*
X112855000Y-119900000D01*
X112855000Y-119305000D01*
X112840000Y-119305000D01*
X112815614Y-119302598D01*
X112792165Y-119295485D01*
X112770554Y-119283934D01*
X112751612Y-119268388D01*
X112736066Y-119249446D01*
X112724515Y-119227835D01*
X112717402Y-119204386D01*
X112715000Y-119180000D01*
X112715000Y-119025000D01*
X112100000Y-119025000D01*
X112075614Y-119022598D01*
X112052165Y-119015485D01*
X112030554Y-119003934D01*
X112011612Y-118988388D01*
X111996066Y-118969446D01*
X111984515Y-118947835D01*
X111977402Y-118924386D01*
X111975000Y-118900000D01*
X111975000Y-116730000D01*
X111977402Y-116705614D01*
X111984515Y-116682165D01*
X111996066Y-116660554D01*
X112011612Y-116641612D01*
X112030554Y-116626066D01*
X112052165Y-116614515D01*
X112075614Y-116607402D01*
X112100000Y-116605000D01*
X112715000Y-116605000D01*
X112715000Y-116330000D01*
X112717402Y-116305614D01*
X112724515Y-116282165D01*
X112736066Y-116260554D01*
X112751612Y-116241612D01*
X112770554Y-116226066D01*
X112792165Y-116214515D01*
X112815614Y-116207402D01*
X112840000Y-116205000D01*
X114990000Y-116205000D01*
X115014386Y-116207402D01*
X115014386Y-116207402D01*
G37*
D27*
X119370000Y-108240000D03*
X116630000Y-108240000D03*
X119370000Y-116760000D03*
X116630000Y-116760000D03*
D28*
X118310000Y-105500000D03*
X120510000Y-105500000D03*
X117690000Y-105500000D03*
X115490000Y-105500000D03*
X120510000Y-119500000D03*
X118310000Y-119500000D03*
X117690000Y-119500000D03*
X115490000Y-119500000D03*
D29*
X123500000Y-115750000D03*
X123500000Y-115150000D03*
X123500000Y-114750000D03*
X123500000Y-114350000D03*
X123500000Y-113620000D03*
X123500000Y-112900000D03*
X123500000Y-112500000D03*
X123500000Y-112100000D03*
X123500000Y-111700000D03*
X123500000Y-110980000D03*
X123500000Y-110580000D03*
X123500000Y-109850000D03*
X123500000Y-109250000D03*
X112500000Y-109250000D03*
X112500000Y-109850000D03*
X112500000Y-110310000D03*
X112500000Y-110710000D03*
X112500000Y-111110000D03*
X112500000Y-111510000D03*
X112500000Y-111910000D03*
X112500000Y-112310000D03*
X112500000Y-112710000D03*
X112500000Y-113110000D03*
X112500000Y-113510000D03*
X112500000Y-113910000D03*
X112500000Y-114310000D03*
X112500000Y-114710000D03*
X112500000Y-115150000D03*
X112500000Y-115750000D03*
D30*
X118000000Y-112500000D03*
D31*
X119410000Y-119300000D03*
X116590000Y-119300000D03*
X116590000Y-105700000D03*
X119410000Y-105700000D03*
G04 #@! TD*
D16*
G04 #@! TO.C,J51*
X148500000Y-104880000D03*
X148500000Y-109960000D03*
X148500000Y-115040000D03*
X148500000Y-120120000D03*
G04 #@! TD*
D24*
G04 #@! TO.C,J54*
X95255340Y-128272380D03*
X95255340Y-130301840D03*
X97800000Y-129288380D03*
X97800000Y-127258920D03*
X95255340Y-126242920D03*
X97800000Y-125229460D03*
X95255340Y-124213460D03*
X97800000Y-123200000D03*
G04 #@! TD*
D32*
X99800000Y-89600000D03*
X118775000Y-109225000D03*
X120025000Y-109225000D03*
X120025000Y-107250000D03*
X118775000Y-108225000D03*
X118750000Y-107250000D03*
X120025000Y-108225000D03*
X115975000Y-107250000D03*
X116000000Y-108225000D03*
X117250000Y-109225000D03*
X117250000Y-107250000D03*
X116000000Y-109225000D03*
X117250000Y-108225000D03*
X118725000Y-115775000D03*
X120000000Y-117750000D03*
X120000000Y-115775000D03*
X118750000Y-116750000D03*
X120000000Y-116750000D03*
X118750000Y-117750000D03*
X116000000Y-116750000D03*
X117250000Y-115775000D03*
X116000000Y-117750000D03*
X117250000Y-117750000D03*
X115975000Y-115775000D03*
X117250000Y-116750000D03*
X98430310Y-120549079D03*
X107600000Y-94800000D03*
X110230310Y-114349079D03*
X99630310Y-119349079D03*
X98130310Y-103449079D03*
X105830310Y-113949079D03*
X132530310Y-96349079D03*
X122000000Y-110400000D03*
X116000000Y-110975000D03*
X117000000Y-110975000D03*
X118000000Y-110975000D03*
X119000000Y-110975000D03*
X120000000Y-110975000D03*
X116000000Y-111975000D03*
X117000000Y-111975000D03*
X118000000Y-111975000D03*
X119000000Y-111975000D03*
X116000000Y-112975000D03*
X117000000Y-112975000D03*
X118000000Y-112975000D03*
X119000000Y-112975000D03*
X120000000Y-112975000D03*
X116000000Y-113975000D03*
X117000000Y-113975000D03*
X118000000Y-113975000D03*
X119000000Y-113975000D03*
X120000000Y-113975000D03*
X120000000Y-111975000D03*
X140000000Y-127500000D03*
X125580310Y-100499079D03*
X109430310Y-109349079D03*
X131800000Y-129000000D03*
X109000000Y-96400000D03*
X125830310Y-116049079D03*
X113230310Y-130749058D03*
X133000000Y-130000000D03*
X127330310Y-116849079D03*
X108230310Y-91149079D03*
X110230310Y-110749079D03*
D33*
X108630310Y-105949079D03*
X108400000Y-120800000D03*
X108230310Y-136149079D03*
D32*
X107200000Y-124200000D03*
X105230310Y-95949079D03*
X126500000Y-108500000D03*
X134330310Y-96349079D03*
X114000000Y-103500000D03*
X113830310Y-111549079D03*
X114000000Y-121500000D03*
X113830310Y-113549079D03*
X102030310Y-100049079D03*
X103130310Y-112049079D03*
D33*
X104030310Y-115549079D03*
X103630310Y-85749079D03*
D32*
X134200000Y-129000000D03*
X128030310Y-115549079D03*
M02*
