G04 #@! TF.GenerationSoftware,KiCad,Pcbnew,5.0.0-fee4fd1~66~ubuntu16.04.1*
G04 #@! TF.CreationDate,2018-10-25T21:56:12-03:00*
G04 #@! TF.ProjectId,pap,7061702E6B696361645F706362000000,1.0*
G04 #@! TF.SameCoordinates,Original*
G04 #@! TF.FileFunction,Paste,Bot*
G04 #@! TF.FilePolarity,Positive*
%FSLAX46Y46*%
G04 Gerber Fmt 4.6, Leading zero omitted, Abs format (unit mm)*
G04 Created by KiCad (PCBNEW 5.0.0-fee4fd1~66~ubuntu16.04.1) date Thu Oct 25 21:56:12 2018*
%MOMM*%
%LPD*%
G01*
G04 APERTURE LIST*
%ADD10C,0.100000*%
%ADD11C,0.725000*%
%ADD12R,1.550000X1.550000*%
%ADD13C,1.175000*%
%ADD14C,2.950000*%
%ADD15R,1.950000X2.250000*%
%ADD16C,1.250000*%
%ADD17R,2.050000X2.760000*%
%ADD18R,5.330000X4.430000*%
%ADD19R,0.910000X0.950000*%
G04 APERTURE END LIST*
D10*
G04 #@! TO.C,R17*
G36*
X98029326Y-88874952D02*
X98046920Y-88877562D01*
X98064174Y-88881884D01*
X98080921Y-88887876D01*
X98097001Y-88895481D01*
X98112257Y-88904625D01*
X98126544Y-88915221D01*
X98139723Y-88927166D01*
X98151668Y-88940345D01*
X98162264Y-88954632D01*
X98171408Y-88969888D01*
X98179013Y-88985968D01*
X98185005Y-89002715D01*
X98189327Y-89019969D01*
X98191937Y-89037563D01*
X98192810Y-89055329D01*
X98192810Y-89842829D01*
X98191937Y-89860595D01*
X98189327Y-89878189D01*
X98185005Y-89895443D01*
X98179013Y-89912190D01*
X98171408Y-89928270D01*
X98162264Y-89943526D01*
X98151668Y-89957813D01*
X98139723Y-89970992D01*
X98126544Y-89982937D01*
X98112257Y-89993533D01*
X98097001Y-90002677D01*
X98080921Y-90010282D01*
X98064174Y-90016274D01*
X98046920Y-90020596D01*
X98029326Y-90023206D01*
X98011560Y-90024079D01*
X97649060Y-90024079D01*
X97631294Y-90023206D01*
X97613700Y-90020596D01*
X97596446Y-90016274D01*
X97579699Y-90010282D01*
X97563619Y-90002677D01*
X97548363Y-89993533D01*
X97534076Y-89982937D01*
X97520897Y-89970992D01*
X97508952Y-89957813D01*
X97498356Y-89943526D01*
X97489212Y-89928270D01*
X97481607Y-89912190D01*
X97475615Y-89895443D01*
X97471293Y-89878189D01*
X97468683Y-89860595D01*
X97467810Y-89842829D01*
X97467810Y-89055329D01*
X97468683Y-89037563D01*
X97471293Y-89019969D01*
X97475615Y-89002715D01*
X97481607Y-88985968D01*
X97489212Y-88969888D01*
X97498356Y-88954632D01*
X97508952Y-88940345D01*
X97520897Y-88927166D01*
X97534076Y-88915221D01*
X97548363Y-88904625D01*
X97563619Y-88895481D01*
X97579699Y-88887876D01*
X97596446Y-88881884D01*
X97613700Y-88877562D01*
X97631294Y-88874952D01*
X97649060Y-88874079D01*
X98011560Y-88874079D01*
X98029326Y-88874952D01*
X98029326Y-88874952D01*
G37*
D11*
X97830310Y-89449079D03*
D10*
G36*
X96154326Y-88874952D02*
X96171920Y-88877562D01*
X96189174Y-88881884D01*
X96205921Y-88887876D01*
X96222001Y-88895481D01*
X96237257Y-88904625D01*
X96251544Y-88915221D01*
X96264723Y-88927166D01*
X96276668Y-88940345D01*
X96287264Y-88954632D01*
X96296408Y-88969888D01*
X96304013Y-88985968D01*
X96310005Y-89002715D01*
X96314327Y-89019969D01*
X96316937Y-89037563D01*
X96317810Y-89055329D01*
X96317810Y-89842829D01*
X96316937Y-89860595D01*
X96314327Y-89878189D01*
X96310005Y-89895443D01*
X96304013Y-89912190D01*
X96296408Y-89928270D01*
X96287264Y-89943526D01*
X96276668Y-89957813D01*
X96264723Y-89970992D01*
X96251544Y-89982937D01*
X96237257Y-89993533D01*
X96222001Y-90002677D01*
X96205921Y-90010282D01*
X96189174Y-90016274D01*
X96171920Y-90020596D01*
X96154326Y-90023206D01*
X96136560Y-90024079D01*
X95774060Y-90024079D01*
X95756294Y-90023206D01*
X95738700Y-90020596D01*
X95721446Y-90016274D01*
X95704699Y-90010282D01*
X95688619Y-90002677D01*
X95673363Y-89993533D01*
X95659076Y-89982937D01*
X95645897Y-89970992D01*
X95633952Y-89957813D01*
X95623356Y-89943526D01*
X95614212Y-89928270D01*
X95606607Y-89912190D01*
X95600615Y-89895443D01*
X95596293Y-89878189D01*
X95593683Y-89860595D01*
X95592810Y-89842829D01*
X95592810Y-89055329D01*
X95593683Y-89037563D01*
X95596293Y-89019969D01*
X95600615Y-89002715D01*
X95606607Y-88985968D01*
X95614212Y-88969888D01*
X95623356Y-88954632D01*
X95633952Y-88940345D01*
X95645897Y-88927166D01*
X95659076Y-88915221D01*
X95673363Y-88904625D01*
X95688619Y-88895481D01*
X95704699Y-88887876D01*
X95721446Y-88881884D01*
X95738700Y-88877562D01*
X95756294Y-88874952D01*
X95774060Y-88874079D01*
X96136560Y-88874079D01*
X96154326Y-88874952D01*
X96154326Y-88874952D01*
G37*
D11*
X95955310Y-89449079D03*
G04 #@! TD*
D10*
G04 #@! TO.C,C7*
G36*
X130191826Y-94274952D02*
X130209420Y-94277562D01*
X130226674Y-94281884D01*
X130243421Y-94287876D01*
X130259501Y-94295481D01*
X130274757Y-94304625D01*
X130289044Y-94315221D01*
X130302223Y-94327166D01*
X130314168Y-94340345D01*
X130324764Y-94354632D01*
X130333908Y-94369888D01*
X130341513Y-94385968D01*
X130347505Y-94402715D01*
X130351827Y-94419969D01*
X130354437Y-94437563D01*
X130355310Y-94455329D01*
X130355310Y-95242829D01*
X130354437Y-95260595D01*
X130351827Y-95278189D01*
X130347505Y-95295443D01*
X130341513Y-95312190D01*
X130333908Y-95328270D01*
X130324764Y-95343526D01*
X130314168Y-95357813D01*
X130302223Y-95370992D01*
X130289044Y-95382937D01*
X130274757Y-95393533D01*
X130259501Y-95402677D01*
X130243421Y-95410282D01*
X130226674Y-95416274D01*
X130209420Y-95420596D01*
X130191826Y-95423206D01*
X130174060Y-95424079D01*
X129811560Y-95424079D01*
X129793794Y-95423206D01*
X129776200Y-95420596D01*
X129758946Y-95416274D01*
X129742199Y-95410282D01*
X129726119Y-95402677D01*
X129710863Y-95393533D01*
X129696576Y-95382937D01*
X129683397Y-95370992D01*
X129671452Y-95357813D01*
X129660856Y-95343526D01*
X129651712Y-95328270D01*
X129644107Y-95312190D01*
X129638115Y-95295443D01*
X129633793Y-95278189D01*
X129631183Y-95260595D01*
X129630310Y-95242829D01*
X129630310Y-94455329D01*
X129631183Y-94437563D01*
X129633793Y-94419969D01*
X129638115Y-94402715D01*
X129644107Y-94385968D01*
X129651712Y-94369888D01*
X129660856Y-94354632D01*
X129671452Y-94340345D01*
X129683397Y-94327166D01*
X129696576Y-94315221D01*
X129710863Y-94304625D01*
X129726119Y-94295481D01*
X129742199Y-94287876D01*
X129758946Y-94281884D01*
X129776200Y-94277562D01*
X129793794Y-94274952D01*
X129811560Y-94274079D01*
X130174060Y-94274079D01*
X130191826Y-94274952D01*
X130191826Y-94274952D01*
G37*
D11*
X129992810Y-94849079D03*
D10*
G36*
X132066826Y-94274952D02*
X132084420Y-94277562D01*
X132101674Y-94281884D01*
X132118421Y-94287876D01*
X132134501Y-94295481D01*
X132149757Y-94304625D01*
X132164044Y-94315221D01*
X132177223Y-94327166D01*
X132189168Y-94340345D01*
X132199764Y-94354632D01*
X132208908Y-94369888D01*
X132216513Y-94385968D01*
X132222505Y-94402715D01*
X132226827Y-94419969D01*
X132229437Y-94437563D01*
X132230310Y-94455329D01*
X132230310Y-95242829D01*
X132229437Y-95260595D01*
X132226827Y-95278189D01*
X132222505Y-95295443D01*
X132216513Y-95312190D01*
X132208908Y-95328270D01*
X132199764Y-95343526D01*
X132189168Y-95357813D01*
X132177223Y-95370992D01*
X132164044Y-95382937D01*
X132149757Y-95393533D01*
X132134501Y-95402677D01*
X132118421Y-95410282D01*
X132101674Y-95416274D01*
X132084420Y-95420596D01*
X132066826Y-95423206D01*
X132049060Y-95424079D01*
X131686560Y-95424079D01*
X131668794Y-95423206D01*
X131651200Y-95420596D01*
X131633946Y-95416274D01*
X131617199Y-95410282D01*
X131601119Y-95402677D01*
X131585863Y-95393533D01*
X131571576Y-95382937D01*
X131558397Y-95370992D01*
X131546452Y-95357813D01*
X131535856Y-95343526D01*
X131526712Y-95328270D01*
X131519107Y-95312190D01*
X131513115Y-95295443D01*
X131508793Y-95278189D01*
X131506183Y-95260595D01*
X131505310Y-95242829D01*
X131505310Y-94455329D01*
X131506183Y-94437563D01*
X131508793Y-94419969D01*
X131513115Y-94402715D01*
X131519107Y-94385968D01*
X131526712Y-94369888D01*
X131535856Y-94354632D01*
X131546452Y-94340345D01*
X131558397Y-94327166D01*
X131571576Y-94315221D01*
X131585863Y-94304625D01*
X131601119Y-94295481D01*
X131617199Y-94287876D01*
X131633946Y-94281884D01*
X131651200Y-94277562D01*
X131668794Y-94274952D01*
X131686560Y-94274079D01*
X132049060Y-94274079D01*
X132066826Y-94274952D01*
X132066826Y-94274952D01*
G37*
D11*
X131867810Y-94849079D03*
G04 #@! TD*
D10*
G04 #@! TO.C,R15*
G36*
X96229326Y-116374952D02*
X96246920Y-116377562D01*
X96264174Y-116381884D01*
X96280921Y-116387876D01*
X96297001Y-116395481D01*
X96312257Y-116404625D01*
X96326544Y-116415221D01*
X96339723Y-116427166D01*
X96351668Y-116440345D01*
X96362264Y-116454632D01*
X96371408Y-116469888D01*
X96379013Y-116485968D01*
X96385005Y-116502715D01*
X96389327Y-116519969D01*
X96391937Y-116537563D01*
X96392810Y-116555329D01*
X96392810Y-117342829D01*
X96391937Y-117360595D01*
X96389327Y-117378189D01*
X96385005Y-117395443D01*
X96379013Y-117412190D01*
X96371408Y-117428270D01*
X96362264Y-117443526D01*
X96351668Y-117457813D01*
X96339723Y-117470992D01*
X96326544Y-117482937D01*
X96312257Y-117493533D01*
X96297001Y-117502677D01*
X96280921Y-117510282D01*
X96264174Y-117516274D01*
X96246920Y-117520596D01*
X96229326Y-117523206D01*
X96211560Y-117524079D01*
X95849060Y-117524079D01*
X95831294Y-117523206D01*
X95813700Y-117520596D01*
X95796446Y-117516274D01*
X95779699Y-117510282D01*
X95763619Y-117502677D01*
X95748363Y-117493533D01*
X95734076Y-117482937D01*
X95720897Y-117470992D01*
X95708952Y-117457813D01*
X95698356Y-117443526D01*
X95689212Y-117428270D01*
X95681607Y-117412190D01*
X95675615Y-117395443D01*
X95671293Y-117378189D01*
X95668683Y-117360595D01*
X95667810Y-117342829D01*
X95667810Y-116555329D01*
X95668683Y-116537563D01*
X95671293Y-116519969D01*
X95675615Y-116502715D01*
X95681607Y-116485968D01*
X95689212Y-116469888D01*
X95698356Y-116454632D01*
X95708952Y-116440345D01*
X95720897Y-116427166D01*
X95734076Y-116415221D01*
X95748363Y-116404625D01*
X95763619Y-116395481D01*
X95779699Y-116387876D01*
X95796446Y-116381884D01*
X95813700Y-116377562D01*
X95831294Y-116374952D01*
X95849060Y-116374079D01*
X96211560Y-116374079D01*
X96229326Y-116374952D01*
X96229326Y-116374952D01*
G37*
D11*
X96030310Y-116949079D03*
D10*
G36*
X94354326Y-116374952D02*
X94371920Y-116377562D01*
X94389174Y-116381884D01*
X94405921Y-116387876D01*
X94422001Y-116395481D01*
X94437257Y-116404625D01*
X94451544Y-116415221D01*
X94464723Y-116427166D01*
X94476668Y-116440345D01*
X94487264Y-116454632D01*
X94496408Y-116469888D01*
X94504013Y-116485968D01*
X94510005Y-116502715D01*
X94514327Y-116519969D01*
X94516937Y-116537563D01*
X94517810Y-116555329D01*
X94517810Y-117342829D01*
X94516937Y-117360595D01*
X94514327Y-117378189D01*
X94510005Y-117395443D01*
X94504013Y-117412190D01*
X94496408Y-117428270D01*
X94487264Y-117443526D01*
X94476668Y-117457813D01*
X94464723Y-117470992D01*
X94451544Y-117482937D01*
X94437257Y-117493533D01*
X94422001Y-117502677D01*
X94405921Y-117510282D01*
X94389174Y-117516274D01*
X94371920Y-117520596D01*
X94354326Y-117523206D01*
X94336560Y-117524079D01*
X93974060Y-117524079D01*
X93956294Y-117523206D01*
X93938700Y-117520596D01*
X93921446Y-117516274D01*
X93904699Y-117510282D01*
X93888619Y-117502677D01*
X93873363Y-117493533D01*
X93859076Y-117482937D01*
X93845897Y-117470992D01*
X93833952Y-117457813D01*
X93823356Y-117443526D01*
X93814212Y-117428270D01*
X93806607Y-117412190D01*
X93800615Y-117395443D01*
X93796293Y-117378189D01*
X93793683Y-117360595D01*
X93792810Y-117342829D01*
X93792810Y-116555329D01*
X93793683Y-116537563D01*
X93796293Y-116519969D01*
X93800615Y-116502715D01*
X93806607Y-116485968D01*
X93814212Y-116469888D01*
X93823356Y-116454632D01*
X93833952Y-116440345D01*
X93845897Y-116427166D01*
X93859076Y-116415221D01*
X93873363Y-116404625D01*
X93888619Y-116395481D01*
X93904699Y-116387876D01*
X93921446Y-116381884D01*
X93938700Y-116377562D01*
X93956294Y-116374952D01*
X93974060Y-116374079D01*
X94336560Y-116374079D01*
X94354326Y-116374952D01*
X94354326Y-116374952D01*
G37*
D11*
X94155310Y-116949079D03*
G04 #@! TD*
D10*
G04 #@! TO.C,R16*
G36*
X100566826Y-108074952D02*
X100584420Y-108077562D01*
X100601674Y-108081884D01*
X100618421Y-108087876D01*
X100634501Y-108095481D01*
X100649757Y-108104625D01*
X100664044Y-108115221D01*
X100677223Y-108127166D01*
X100689168Y-108140345D01*
X100699764Y-108154632D01*
X100708908Y-108169888D01*
X100716513Y-108185968D01*
X100722505Y-108202715D01*
X100726827Y-108219969D01*
X100729437Y-108237563D01*
X100730310Y-108255329D01*
X100730310Y-109042829D01*
X100729437Y-109060595D01*
X100726827Y-109078189D01*
X100722505Y-109095443D01*
X100716513Y-109112190D01*
X100708908Y-109128270D01*
X100699764Y-109143526D01*
X100689168Y-109157813D01*
X100677223Y-109170992D01*
X100664044Y-109182937D01*
X100649757Y-109193533D01*
X100634501Y-109202677D01*
X100618421Y-109210282D01*
X100601674Y-109216274D01*
X100584420Y-109220596D01*
X100566826Y-109223206D01*
X100549060Y-109224079D01*
X100186560Y-109224079D01*
X100168794Y-109223206D01*
X100151200Y-109220596D01*
X100133946Y-109216274D01*
X100117199Y-109210282D01*
X100101119Y-109202677D01*
X100085863Y-109193533D01*
X100071576Y-109182937D01*
X100058397Y-109170992D01*
X100046452Y-109157813D01*
X100035856Y-109143526D01*
X100026712Y-109128270D01*
X100019107Y-109112190D01*
X100013115Y-109095443D01*
X100008793Y-109078189D01*
X100006183Y-109060595D01*
X100005310Y-109042829D01*
X100005310Y-108255329D01*
X100006183Y-108237563D01*
X100008793Y-108219969D01*
X100013115Y-108202715D01*
X100019107Y-108185968D01*
X100026712Y-108169888D01*
X100035856Y-108154632D01*
X100046452Y-108140345D01*
X100058397Y-108127166D01*
X100071576Y-108115221D01*
X100085863Y-108104625D01*
X100101119Y-108095481D01*
X100117199Y-108087876D01*
X100133946Y-108081884D01*
X100151200Y-108077562D01*
X100168794Y-108074952D01*
X100186560Y-108074079D01*
X100549060Y-108074079D01*
X100566826Y-108074952D01*
X100566826Y-108074952D01*
G37*
D11*
X100367810Y-108649079D03*
D10*
G36*
X98691826Y-108074952D02*
X98709420Y-108077562D01*
X98726674Y-108081884D01*
X98743421Y-108087876D01*
X98759501Y-108095481D01*
X98774757Y-108104625D01*
X98789044Y-108115221D01*
X98802223Y-108127166D01*
X98814168Y-108140345D01*
X98824764Y-108154632D01*
X98833908Y-108169888D01*
X98841513Y-108185968D01*
X98847505Y-108202715D01*
X98851827Y-108219969D01*
X98854437Y-108237563D01*
X98855310Y-108255329D01*
X98855310Y-109042829D01*
X98854437Y-109060595D01*
X98851827Y-109078189D01*
X98847505Y-109095443D01*
X98841513Y-109112190D01*
X98833908Y-109128270D01*
X98824764Y-109143526D01*
X98814168Y-109157813D01*
X98802223Y-109170992D01*
X98789044Y-109182937D01*
X98774757Y-109193533D01*
X98759501Y-109202677D01*
X98743421Y-109210282D01*
X98726674Y-109216274D01*
X98709420Y-109220596D01*
X98691826Y-109223206D01*
X98674060Y-109224079D01*
X98311560Y-109224079D01*
X98293794Y-109223206D01*
X98276200Y-109220596D01*
X98258946Y-109216274D01*
X98242199Y-109210282D01*
X98226119Y-109202677D01*
X98210863Y-109193533D01*
X98196576Y-109182937D01*
X98183397Y-109170992D01*
X98171452Y-109157813D01*
X98160856Y-109143526D01*
X98151712Y-109128270D01*
X98144107Y-109112190D01*
X98138115Y-109095443D01*
X98133793Y-109078189D01*
X98131183Y-109060595D01*
X98130310Y-109042829D01*
X98130310Y-108255329D01*
X98131183Y-108237563D01*
X98133793Y-108219969D01*
X98138115Y-108202715D01*
X98144107Y-108185968D01*
X98151712Y-108169888D01*
X98160856Y-108154632D01*
X98171452Y-108140345D01*
X98183397Y-108127166D01*
X98196576Y-108115221D01*
X98210863Y-108104625D01*
X98226119Y-108095481D01*
X98242199Y-108087876D01*
X98258946Y-108081884D01*
X98276200Y-108077562D01*
X98293794Y-108074952D01*
X98311560Y-108074079D01*
X98674060Y-108074079D01*
X98691826Y-108074952D01*
X98691826Y-108074952D01*
G37*
D11*
X98492810Y-108649079D03*
G04 #@! TD*
D10*
G04 #@! TO.C,C9*
G36*
X106629326Y-106974952D02*
X106646920Y-106977562D01*
X106664174Y-106981884D01*
X106680921Y-106987876D01*
X106697001Y-106995481D01*
X106712257Y-107004625D01*
X106726544Y-107015221D01*
X106739723Y-107027166D01*
X106751668Y-107040345D01*
X106762264Y-107054632D01*
X106771408Y-107069888D01*
X106779013Y-107085968D01*
X106785005Y-107102715D01*
X106789327Y-107119969D01*
X106791937Y-107137563D01*
X106792810Y-107155329D01*
X106792810Y-107942829D01*
X106791937Y-107960595D01*
X106789327Y-107978189D01*
X106785005Y-107995443D01*
X106779013Y-108012190D01*
X106771408Y-108028270D01*
X106762264Y-108043526D01*
X106751668Y-108057813D01*
X106739723Y-108070992D01*
X106726544Y-108082937D01*
X106712257Y-108093533D01*
X106697001Y-108102677D01*
X106680921Y-108110282D01*
X106664174Y-108116274D01*
X106646920Y-108120596D01*
X106629326Y-108123206D01*
X106611560Y-108124079D01*
X106249060Y-108124079D01*
X106231294Y-108123206D01*
X106213700Y-108120596D01*
X106196446Y-108116274D01*
X106179699Y-108110282D01*
X106163619Y-108102677D01*
X106148363Y-108093533D01*
X106134076Y-108082937D01*
X106120897Y-108070992D01*
X106108952Y-108057813D01*
X106098356Y-108043526D01*
X106089212Y-108028270D01*
X106081607Y-108012190D01*
X106075615Y-107995443D01*
X106071293Y-107978189D01*
X106068683Y-107960595D01*
X106067810Y-107942829D01*
X106067810Y-107155329D01*
X106068683Y-107137563D01*
X106071293Y-107119969D01*
X106075615Y-107102715D01*
X106081607Y-107085968D01*
X106089212Y-107069888D01*
X106098356Y-107054632D01*
X106108952Y-107040345D01*
X106120897Y-107027166D01*
X106134076Y-107015221D01*
X106148363Y-107004625D01*
X106163619Y-106995481D01*
X106179699Y-106987876D01*
X106196446Y-106981884D01*
X106213700Y-106977562D01*
X106231294Y-106974952D01*
X106249060Y-106974079D01*
X106611560Y-106974079D01*
X106629326Y-106974952D01*
X106629326Y-106974952D01*
G37*
D11*
X106430310Y-107549079D03*
D10*
G36*
X104754326Y-106974952D02*
X104771920Y-106977562D01*
X104789174Y-106981884D01*
X104805921Y-106987876D01*
X104822001Y-106995481D01*
X104837257Y-107004625D01*
X104851544Y-107015221D01*
X104864723Y-107027166D01*
X104876668Y-107040345D01*
X104887264Y-107054632D01*
X104896408Y-107069888D01*
X104904013Y-107085968D01*
X104910005Y-107102715D01*
X104914327Y-107119969D01*
X104916937Y-107137563D01*
X104917810Y-107155329D01*
X104917810Y-107942829D01*
X104916937Y-107960595D01*
X104914327Y-107978189D01*
X104910005Y-107995443D01*
X104904013Y-108012190D01*
X104896408Y-108028270D01*
X104887264Y-108043526D01*
X104876668Y-108057813D01*
X104864723Y-108070992D01*
X104851544Y-108082937D01*
X104837257Y-108093533D01*
X104822001Y-108102677D01*
X104805921Y-108110282D01*
X104789174Y-108116274D01*
X104771920Y-108120596D01*
X104754326Y-108123206D01*
X104736560Y-108124079D01*
X104374060Y-108124079D01*
X104356294Y-108123206D01*
X104338700Y-108120596D01*
X104321446Y-108116274D01*
X104304699Y-108110282D01*
X104288619Y-108102677D01*
X104273363Y-108093533D01*
X104259076Y-108082937D01*
X104245897Y-108070992D01*
X104233952Y-108057813D01*
X104223356Y-108043526D01*
X104214212Y-108028270D01*
X104206607Y-108012190D01*
X104200615Y-107995443D01*
X104196293Y-107978189D01*
X104193683Y-107960595D01*
X104192810Y-107942829D01*
X104192810Y-107155329D01*
X104193683Y-107137563D01*
X104196293Y-107119969D01*
X104200615Y-107102715D01*
X104206607Y-107085968D01*
X104214212Y-107069888D01*
X104223356Y-107054632D01*
X104233952Y-107040345D01*
X104245897Y-107027166D01*
X104259076Y-107015221D01*
X104273363Y-107004625D01*
X104288619Y-106995481D01*
X104304699Y-106987876D01*
X104321446Y-106981884D01*
X104338700Y-106977562D01*
X104356294Y-106974952D01*
X104374060Y-106974079D01*
X104736560Y-106974079D01*
X104754326Y-106974952D01*
X104754326Y-106974952D01*
G37*
D11*
X104555310Y-107549079D03*
G04 #@! TD*
D10*
G04 #@! TO.C,R1*
G36*
X104724016Y-104574952D02*
X104741610Y-104577562D01*
X104758864Y-104581884D01*
X104775611Y-104587876D01*
X104791691Y-104595481D01*
X104806947Y-104604625D01*
X104821234Y-104615221D01*
X104834413Y-104627166D01*
X104846358Y-104640345D01*
X104856954Y-104654632D01*
X104866098Y-104669888D01*
X104873703Y-104685968D01*
X104879695Y-104702715D01*
X104884017Y-104719969D01*
X104886627Y-104737563D01*
X104887500Y-104755329D01*
X104887500Y-105542829D01*
X104886627Y-105560595D01*
X104884017Y-105578189D01*
X104879695Y-105595443D01*
X104873703Y-105612190D01*
X104866098Y-105628270D01*
X104856954Y-105643526D01*
X104846358Y-105657813D01*
X104834413Y-105670992D01*
X104821234Y-105682937D01*
X104806947Y-105693533D01*
X104791691Y-105702677D01*
X104775611Y-105710282D01*
X104758864Y-105716274D01*
X104741610Y-105720596D01*
X104724016Y-105723206D01*
X104706250Y-105724079D01*
X104343750Y-105724079D01*
X104325984Y-105723206D01*
X104308390Y-105720596D01*
X104291136Y-105716274D01*
X104274389Y-105710282D01*
X104258309Y-105702677D01*
X104243053Y-105693533D01*
X104228766Y-105682937D01*
X104215587Y-105670992D01*
X104203642Y-105657813D01*
X104193046Y-105643526D01*
X104183902Y-105628270D01*
X104176297Y-105612190D01*
X104170305Y-105595443D01*
X104165983Y-105578189D01*
X104163373Y-105560595D01*
X104162500Y-105542829D01*
X104162500Y-104755329D01*
X104163373Y-104737563D01*
X104165983Y-104719969D01*
X104170305Y-104702715D01*
X104176297Y-104685968D01*
X104183902Y-104669888D01*
X104193046Y-104654632D01*
X104203642Y-104640345D01*
X104215587Y-104627166D01*
X104228766Y-104615221D01*
X104243053Y-104604625D01*
X104258309Y-104595481D01*
X104274389Y-104587876D01*
X104291136Y-104581884D01*
X104308390Y-104577562D01*
X104325984Y-104574952D01*
X104343750Y-104574079D01*
X104706250Y-104574079D01*
X104724016Y-104574952D01*
X104724016Y-104574952D01*
G37*
D11*
X104525000Y-105149079D03*
D10*
G36*
X106599016Y-104574952D02*
X106616610Y-104577562D01*
X106633864Y-104581884D01*
X106650611Y-104587876D01*
X106666691Y-104595481D01*
X106681947Y-104604625D01*
X106696234Y-104615221D01*
X106709413Y-104627166D01*
X106721358Y-104640345D01*
X106731954Y-104654632D01*
X106741098Y-104669888D01*
X106748703Y-104685968D01*
X106754695Y-104702715D01*
X106759017Y-104719969D01*
X106761627Y-104737563D01*
X106762500Y-104755329D01*
X106762500Y-105542829D01*
X106761627Y-105560595D01*
X106759017Y-105578189D01*
X106754695Y-105595443D01*
X106748703Y-105612190D01*
X106741098Y-105628270D01*
X106731954Y-105643526D01*
X106721358Y-105657813D01*
X106709413Y-105670992D01*
X106696234Y-105682937D01*
X106681947Y-105693533D01*
X106666691Y-105702677D01*
X106650611Y-105710282D01*
X106633864Y-105716274D01*
X106616610Y-105720596D01*
X106599016Y-105723206D01*
X106581250Y-105724079D01*
X106218750Y-105724079D01*
X106200984Y-105723206D01*
X106183390Y-105720596D01*
X106166136Y-105716274D01*
X106149389Y-105710282D01*
X106133309Y-105702677D01*
X106118053Y-105693533D01*
X106103766Y-105682937D01*
X106090587Y-105670992D01*
X106078642Y-105657813D01*
X106068046Y-105643526D01*
X106058902Y-105628270D01*
X106051297Y-105612190D01*
X106045305Y-105595443D01*
X106040983Y-105578189D01*
X106038373Y-105560595D01*
X106037500Y-105542829D01*
X106037500Y-104755329D01*
X106038373Y-104737563D01*
X106040983Y-104719969D01*
X106045305Y-104702715D01*
X106051297Y-104685968D01*
X106058902Y-104669888D01*
X106068046Y-104654632D01*
X106078642Y-104640345D01*
X106090587Y-104627166D01*
X106103766Y-104615221D01*
X106118053Y-104604625D01*
X106133309Y-104595481D01*
X106149389Y-104587876D01*
X106166136Y-104581884D01*
X106183390Y-104577562D01*
X106200984Y-104574952D01*
X106218750Y-104574079D01*
X106581250Y-104574079D01*
X106599016Y-104574952D01*
X106599016Y-104574952D01*
G37*
D11*
X106400000Y-105149079D03*
G04 #@! TD*
D10*
G04 #@! TO.C,C8*
G36*
X106604326Y-102374952D02*
X106621920Y-102377562D01*
X106639174Y-102381884D01*
X106655921Y-102387876D01*
X106672001Y-102395481D01*
X106687257Y-102404625D01*
X106701544Y-102415221D01*
X106714723Y-102427166D01*
X106726668Y-102440345D01*
X106737264Y-102454632D01*
X106746408Y-102469888D01*
X106754013Y-102485968D01*
X106760005Y-102502715D01*
X106764327Y-102519969D01*
X106766937Y-102537563D01*
X106767810Y-102555329D01*
X106767810Y-103342829D01*
X106766937Y-103360595D01*
X106764327Y-103378189D01*
X106760005Y-103395443D01*
X106754013Y-103412190D01*
X106746408Y-103428270D01*
X106737264Y-103443526D01*
X106726668Y-103457813D01*
X106714723Y-103470992D01*
X106701544Y-103482937D01*
X106687257Y-103493533D01*
X106672001Y-103502677D01*
X106655921Y-103510282D01*
X106639174Y-103516274D01*
X106621920Y-103520596D01*
X106604326Y-103523206D01*
X106586560Y-103524079D01*
X106224060Y-103524079D01*
X106206294Y-103523206D01*
X106188700Y-103520596D01*
X106171446Y-103516274D01*
X106154699Y-103510282D01*
X106138619Y-103502677D01*
X106123363Y-103493533D01*
X106109076Y-103482937D01*
X106095897Y-103470992D01*
X106083952Y-103457813D01*
X106073356Y-103443526D01*
X106064212Y-103428270D01*
X106056607Y-103412190D01*
X106050615Y-103395443D01*
X106046293Y-103378189D01*
X106043683Y-103360595D01*
X106042810Y-103342829D01*
X106042810Y-102555329D01*
X106043683Y-102537563D01*
X106046293Y-102519969D01*
X106050615Y-102502715D01*
X106056607Y-102485968D01*
X106064212Y-102469888D01*
X106073356Y-102454632D01*
X106083952Y-102440345D01*
X106095897Y-102427166D01*
X106109076Y-102415221D01*
X106123363Y-102404625D01*
X106138619Y-102395481D01*
X106154699Y-102387876D01*
X106171446Y-102381884D01*
X106188700Y-102377562D01*
X106206294Y-102374952D01*
X106224060Y-102374079D01*
X106586560Y-102374079D01*
X106604326Y-102374952D01*
X106604326Y-102374952D01*
G37*
D11*
X106405310Y-102949079D03*
D10*
G36*
X104729326Y-102374952D02*
X104746920Y-102377562D01*
X104764174Y-102381884D01*
X104780921Y-102387876D01*
X104797001Y-102395481D01*
X104812257Y-102404625D01*
X104826544Y-102415221D01*
X104839723Y-102427166D01*
X104851668Y-102440345D01*
X104862264Y-102454632D01*
X104871408Y-102469888D01*
X104879013Y-102485968D01*
X104885005Y-102502715D01*
X104889327Y-102519969D01*
X104891937Y-102537563D01*
X104892810Y-102555329D01*
X104892810Y-103342829D01*
X104891937Y-103360595D01*
X104889327Y-103378189D01*
X104885005Y-103395443D01*
X104879013Y-103412190D01*
X104871408Y-103428270D01*
X104862264Y-103443526D01*
X104851668Y-103457813D01*
X104839723Y-103470992D01*
X104826544Y-103482937D01*
X104812257Y-103493533D01*
X104797001Y-103502677D01*
X104780921Y-103510282D01*
X104764174Y-103516274D01*
X104746920Y-103520596D01*
X104729326Y-103523206D01*
X104711560Y-103524079D01*
X104349060Y-103524079D01*
X104331294Y-103523206D01*
X104313700Y-103520596D01*
X104296446Y-103516274D01*
X104279699Y-103510282D01*
X104263619Y-103502677D01*
X104248363Y-103493533D01*
X104234076Y-103482937D01*
X104220897Y-103470992D01*
X104208952Y-103457813D01*
X104198356Y-103443526D01*
X104189212Y-103428270D01*
X104181607Y-103412190D01*
X104175615Y-103395443D01*
X104171293Y-103378189D01*
X104168683Y-103360595D01*
X104167810Y-103342829D01*
X104167810Y-102555329D01*
X104168683Y-102537563D01*
X104171293Y-102519969D01*
X104175615Y-102502715D01*
X104181607Y-102485968D01*
X104189212Y-102469888D01*
X104198356Y-102454632D01*
X104208952Y-102440345D01*
X104220897Y-102427166D01*
X104234076Y-102415221D01*
X104248363Y-102404625D01*
X104263619Y-102395481D01*
X104279699Y-102387876D01*
X104296446Y-102381884D01*
X104313700Y-102377562D01*
X104331294Y-102374952D01*
X104349060Y-102374079D01*
X104711560Y-102374079D01*
X104729326Y-102374952D01*
X104729326Y-102374952D01*
G37*
D11*
X104530310Y-102949079D03*
G04 #@! TD*
D10*
G04 #@! TO.C,C11*
G36*
X133041826Y-102649952D02*
X133059420Y-102652562D01*
X133076674Y-102656884D01*
X133093421Y-102662876D01*
X133109501Y-102670481D01*
X133124757Y-102679625D01*
X133139044Y-102690221D01*
X133152223Y-102702166D01*
X133164168Y-102715345D01*
X133174764Y-102729632D01*
X133183908Y-102744888D01*
X133191513Y-102760968D01*
X133197505Y-102777715D01*
X133201827Y-102794969D01*
X133204437Y-102812563D01*
X133205310Y-102830329D01*
X133205310Y-103192829D01*
X133204437Y-103210595D01*
X133201827Y-103228189D01*
X133197505Y-103245443D01*
X133191513Y-103262190D01*
X133183908Y-103278270D01*
X133174764Y-103293526D01*
X133164168Y-103307813D01*
X133152223Y-103320992D01*
X133139044Y-103332937D01*
X133124757Y-103343533D01*
X133109501Y-103352677D01*
X133093421Y-103360282D01*
X133076674Y-103366274D01*
X133059420Y-103370596D01*
X133041826Y-103373206D01*
X133024060Y-103374079D01*
X132236560Y-103374079D01*
X132218794Y-103373206D01*
X132201200Y-103370596D01*
X132183946Y-103366274D01*
X132167199Y-103360282D01*
X132151119Y-103352677D01*
X132135863Y-103343533D01*
X132121576Y-103332937D01*
X132108397Y-103320992D01*
X132096452Y-103307813D01*
X132085856Y-103293526D01*
X132076712Y-103278270D01*
X132069107Y-103262190D01*
X132063115Y-103245443D01*
X132058793Y-103228189D01*
X132056183Y-103210595D01*
X132055310Y-103192829D01*
X132055310Y-102830329D01*
X132056183Y-102812563D01*
X132058793Y-102794969D01*
X132063115Y-102777715D01*
X132069107Y-102760968D01*
X132076712Y-102744888D01*
X132085856Y-102729632D01*
X132096452Y-102715345D01*
X132108397Y-102702166D01*
X132121576Y-102690221D01*
X132135863Y-102679625D01*
X132151119Y-102670481D01*
X132167199Y-102662876D01*
X132183946Y-102656884D01*
X132201200Y-102652562D01*
X132218794Y-102649952D01*
X132236560Y-102649079D01*
X133024060Y-102649079D01*
X133041826Y-102649952D01*
X133041826Y-102649952D01*
G37*
D11*
X132630310Y-103011579D03*
D10*
G36*
X133041826Y-104524952D02*
X133059420Y-104527562D01*
X133076674Y-104531884D01*
X133093421Y-104537876D01*
X133109501Y-104545481D01*
X133124757Y-104554625D01*
X133139044Y-104565221D01*
X133152223Y-104577166D01*
X133164168Y-104590345D01*
X133174764Y-104604632D01*
X133183908Y-104619888D01*
X133191513Y-104635968D01*
X133197505Y-104652715D01*
X133201827Y-104669969D01*
X133204437Y-104687563D01*
X133205310Y-104705329D01*
X133205310Y-105067829D01*
X133204437Y-105085595D01*
X133201827Y-105103189D01*
X133197505Y-105120443D01*
X133191513Y-105137190D01*
X133183908Y-105153270D01*
X133174764Y-105168526D01*
X133164168Y-105182813D01*
X133152223Y-105195992D01*
X133139044Y-105207937D01*
X133124757Y-105218533D01*
X133109501Y-105227677D01*
X133093421Y-105235282D01*
X133076674Y-105241274D01*
X133059420Y-105245596D01*
X133041826Y-105248206D01*
X133024060Y-105249079D01*
X132236560Y-105249079D01*
X132218794Y-105248206D01*
X132201200Y-105245596D01*
X132183946Y-105241274D01*
X132167199Y-105235282D01*
X132151119Y-105227677D01*
X132135863Y-105218533D01*
X132121576Y-105207937D01*
X132108397Y-105195992D01*
X132096452Y-105182813D01*
X132085856Y-105168526D01*
X132076712Y-105153270D01*
X132069107Y-105137190D01*
X132063115Y-105120443D01*
X132058793Y-105103189D01*
X132056183Y-105085595D01*
X132055310Y-105067829D01*
X132055310Y-104705329D01*
X132056183Y-104687563D01*
X132058793Y-104669969D01*
X132063115Y-104652715D01*
X132069107Y-104635968D01*
X132076712Y-104619888D01*
X132085856Y-104604632D01*
X132096452Y-104590345D01*
X132108397Y-104577166D01*
X132121576Y-104565221D01*
X132135863Y-104554625D01*
X132151119Y-104545481D01*
X132167199Y-104537876D01*
X132183946Y-104531884D01*
X132201200Y-104527562D01*
X132218794Y-104524952D01*
X132236560Y-104524079D01*
X133024060Y-104524079D01*
X133041826Y-104524952D01*
X133041826Y-104524952D01*
G37*
D11*
X132630310Y-104886579D03*
G04 #@! TD*
D10*
G04 #@! TO.C,C10*
G36*
X131341826Y-121762452D02*
X131359420Y-121765062D01*
X131376674Y-121769384D01*
X131393421Y-121775376D01*
X131409501Y-121782981D01*
X131424757Y-121792125D01*
X131439044Y-121802721D01*
X131452223Y-121814666D01*
X131464168Y-121827845D01*
X131474764Y-121842132D01*
X131483908Y-121857388D01*
X131491513Y-121873468D01*
X131497505Y-121890215D01*
X131501827Y-121907469D01*
X131504437Y-121925063D01*
X131505310Y-121942829D01*
X131505310Y-122305329D01*
X131504437Y-122323095D01*
X131501827Y-122340689D01*
X131497505Y-122357943D01*
X131491513Y-122374690D01*
X131483908Y-122390770D01*
X131474764Y-122406026D01*
X131464168Y-122420313D01*
X131452223Y-122433492D01*
X131439044Y-122445437D01*
X131424757Y-122456033D01*
X131409501Y-122465177D01*
X131393421Y-122472782D01*
X131376674Y-122478774D01*
X131359420Y-122483096D01*
X131341826Y-122485706D01*
X131324060Y-122486579D01*
X130536560Y-122486579D01*
X130518794Y-122485706D01*
X130501200Y-122483096D01*
X130483946Y-122478774D01*
X130467199Y-122472782D01*
X130451119Y-122465177D01*
X130435863Y-122456033D01*
X130421576Y-122445437D01*
X130408397Y-122433492D01*
X130396452Y-122420313D01*
X130385856Y-122406026D01*
X130376712Y-122390770D01*
X130369107Y-122374690D01*
X130363115Y-122357943D01*
X130358793Y-122340689D01*
X130356183Y-122323095D01*
X130355310Y-122305329D01*
X130355310Y-121942829D01*
X130356183Y-121925063D01*
X130358793Y-121907469D01*
X130363115Y-121890215D01*
X130369107Y-121873468D01*
X130376712Y-121857388D01*
X130385856Y-121842132D01*
X130396452Y-121827845D01*
X130408397Y-121814666D01*
X130421576Y-121802721D01*
X130435863Y-121792125D01*
X130451119Y-121782981D01*
X130467199Y-121775376D01*
X130483946Y-121769384D01*
X130501200Y-121765062D01*
X130518794Y-121762452D01*
X130536560Y-121761579D01*
X131324060Y-121761579D01*
X131341826Y-121762452D01*
X131341826Y-121762452D01*
G37*
D11*
X130930310Y-122124079D03*
D10*
G36*
X131341826Y-119887452D02*
X131359420Y-119890062D01*
X131376674Y-119894384D01*
X131393421Y-119900376D01*
X131409501Y-119907981D01*
X131424757Y-119917125D01*
X131439044Y-119927721D01*
X131452223Y-119939666D01*
X131464168Y-119952845D01*
X131474764Y-119967132D01*
X131483908Y-119982388D01*
X131491513Y-119998468D01*
X131497505Y-120015215D01*
X131501827Y-120032469D01*
X131504437Y-120050063D01*
X131505310Y-120067829D01*
X131505310Y-120430329D01*
X131504437Y-120448095D01*
X131501827Y-120465689D01*
X131497505Y-120482943D01*
X131491513Y-120499690D01*
X131483908Y-120515770D01*
X131474764Y-120531026D01*
X131464168Y-120545313D01*
X131452223Y-120558492D01*
X131439044Y-120570437D01*
X131424757Y-120581033D01*
X131409501Y-120590177D01*
X131393421Y-120597782D01*
X131376674Y-120603774D01*
X131359420Y-120608096D01*
X131341826Y-120610706D01*
X131324060Y-120611579D01*
X130536560Y-120611579D01*
X130518794Y-120610706D01*
X130501200Y-120608096D01*
X130483946Y-120603774D01*
X130467199Y-120597782D01*
X130451119Y-120590177D01*
X130435863Y-120581033D01*
X130421576Y-120570437D01*
X130408397Y-120558492D01*
X130396452Y-120545313D01*
X130385856Y-120531026D01*
X130376712Y-120515770D01*
X130369107Y-120499690D01*
X130363115Y-120482943D01*
X130358793Y-120465689D01*
X130356183Y-120448095D01*
X130355310Y-120430329D01*
X130355310Y-120067829D01*
X130356183Y-120050063D01*
X130358793Y-120032469D01*
X130363115Y-120015215D01*
X130369107Y-119998468D01*
X130376712Y-119982388D01*
X130385856Y-119967132D01*
X130396452Y-119952845D01*
X130408397Y-119939666D01*
X130421576Y-119927721D01*
X130435863Y-119917125D01*
X130451119Y-119907981D01*
X130467199Y-119900376D01*
X130483946Y-119894384D01*
X130501200Y-119890062D01*
X130518794Y-119887452D01*
X130536560Y-119886579D01*
X131324060Y-119886579D01*
X131341826Y-119887452D01*
X131341826Y-119887452D01*
G37*
D11*
X130930310Y-120249079D03*
G04 #@! TD*
D10*
G04 #@! TO.C,C2*
G36*
X103054326Y-135374952D02*
X103071920Y-135377562D01*
X103089174Y-135381884D01*
X103105921Y-135387876D01*
X103122001Y-135395481D01*
X103137257Y-135404625D01*
X103151544Y-135415221D01*
X103164723Y-135427166D01*
X103176668Y-135440345D01*
X103187264Y-135454632D01*
X103196408Y-135469888D01*
X103204013Y-135485968D01*
X103210005Y-135502715D01*
X103214327Y-135519969D01*
X103216937Y-135537563D01*
X103217810Y-135555329D01*
X103217810Y-136342829D01*
X103216937Y-136360595D01*
X103214327Y-136378189D01*
X103210005Y-136395443D01*
X103204013Y-136412190D01*
X103196408Y-136428270D01*
X103187264Y-136443526D01*
X103176668Y-136457813D01*
X103164723Y-136470992D01*
X103151544Y-136482937D01*
X103137257Y-136493533D01*
X103122001Y-136502677D01*
X103105921Y-136510282D01*
X103089174Y-136516274D01*
X103071920Y-136520596D01*
X103054326Y-136523206D01*
X103036560Y-136524079D01*
X102674060Y-136524079D01*
X102656294Y-136523206D01*
X102638700Y-136520596D01*
X102621446Y-136516274D01*
X102604699Y-136510282D01*
X102588619Y-136502677D01*
X102573363Y-136493533D01*
X102559076Y-136482937D01*
X102545897Y-136470992D01*
X102533952Y-136457813D01*
X102523356Y-136443526D01*
X102514212Y-136428270D01*
X102506607Y-136412190D01*
X102500615Y-136395443D01*
X102496293Y-136378189D01*
X102493683Y-136360595D01*
X102492810Y-136342829D01*
X102492810Y-135555329D01*
X102493683Y-135537563D01*
X102496293Y-135519969D01*
X102500615Y-135502715D01*
X102506607Y-135485968D01*
X102514212Y-135469888D01*
X102523356Y-135454632D01*
X102533952Y-135440345D01*
X102545897Y-135427166D01*
X102559076Y-135415221D01*
X102573363Y-135404625D01*
X102588619Y-135395481D01*
X102604699Y-135387876D01*
X102621446Y-135381884D01*
X102638700Y-135377562D01*
X102656294Y-135374952D01*
X102674060Y-135374079D01*
X103036560Y-135374079D01*
X103054326Y-135374952D01*
X103054326Y-135374952D01*
G37*
D11*
X102855310Y-135949079D03*
D10*
G36*
X104929326Y-135374952D02*
X104946920Y-135377562D01*
X104964174Y-135381884D01*
X104980921Y-135387876D01*
X104997001Y-135395481D01*
X105012257Y-135404625D01*
X105026544Y-135415221D01*
X105039723Y-135427166D01*
X105051668Y-135440345D01*
X105062264Y-135454632D01*
X105071408Y-135469888D01*
X105079013Y-135485968D01*
X105085005Y-135502715D01*
X105089327Y-135519969D01*
X105091937Y-135537563D01*
X105092810Y-135555329D01*
X105092810Y-136342829D01*
X105091937Y-136360595D01*
X105089327Y-136378189D01*
X105085005Y-136395443D01*
X105079013Y-136412190D01*
X105071408Y-136428270D01*
X105062264Y-136443526D01*
X105051668Y-136457813D01*
X105039723Y-136470992D01*
X105026544Y-136482937D01*
X105012257Y-136493533D01*
X104997001Y-136502677D01*
X104980921Y-136510282D01*
X104964174Y-136516274D01*
X104946920Y-136520596D01*
X104929326Y-136523206D01*
X104911560Y-136524079D01*
X104549060Y-136524079D01*
X104531294Y-136523206D01*
X104513700Y-136520596D01*
X104496446Y-136516274D01*
X104479699Y-136510282D01*
X104463619Y-136502677D01*
X104448363Y-136493533D01*
X104434076Y-136482937D01*
X104420897Y-136470992D01*
X104408952Y-136457813D01*
X104398356Y-136443526D01*
X104389212Y-136428270D01*
X104381607Y-136412190D01*
X104375615Y-136395443D01*
X104371293Y-136378189D01*
X104368683Y-136360595D01*
X104367810Y-136342829D01*
X104367810Y-135555329D01*
X104368683Y-135537563D01*
X104371293Y-135519969D01*
X104375615Y-135502715D01*
X104381607Y-135485968D01*
X104389212Y-135469888D01*
X104398356Y-135454632D01*
X104408952Y-135440345D01*
X104420897Y-135427166D01*
X104434076Y-135415221D01*
X104448363Y-135404625D01*
X104463619Y-135395481D01*
X104479699Y-135387876D01*
X104496446Y-135381884D01*
X104513700Y-135377562D01*
X104531294Y-135374952D01*
X104549060Y-135374079D01*
X104911560Y-135374079D01*
X104929326Y-135374952D01*
X104929326Y-135374952D01*
G37*
D11*
X104730310Y-135949079D03*
G04 #@! TD*
D12*
G04 #@! TO.C,D15*
X115330310Y-89549079D03*
X112330310Y-89549079D03*
G04 #@! TD*
G04 #@! TO.C,D16*
X112430310Y-92949079D03*
X115430310Y-92949079D03*
G04 #@! TD*
D10*
G04 #@! TO.C,C4*
G36*
X135131875Y-108250993D02*
X135151886Y-108253961D01*
X135171509Y-108258876D01*
X135190556Y-108265691D01*
X135208844Y-108274341D01*
X135226195Y-108284741D01*
X135242444Y-108296792D01*
X135257433Y-108310377D01*
X135271018Y-108325366D01*
X135283069Y-108341615D01*
X135293469Y-108358966D01*
X135302119Y-108377254D01*
X135308934Y-108396301D01*
X135313849Y-108415924D01*
X135316817Y-108435935D01*
X135317810Y-108456140D01*
X135317810Y-109543860D01*
X135316817Y-109564065D01*
X135313849Y-109584076D01*
X135308934Y-109603699D01*
X135302119Y-109622746D01*
X135293469Y-109641034D01*
X135283069Y-109658385D01*
X135271018Y-109674634D01*
X135257433Y-109689623D01*
X135242444Y-109703208D01*
X135226195Y-109715259D01*
X135208844Y-109725659D01*
X135190556Y-109734309D01*
X135171509Y-109741124D01*
X135151886Y-109746039D01*
X135131875Y-109749007D01*
X135111670Y-109750000D01*
X134348950Y-109750000D01*
X134328745Y-109749007D01*
X134308734Y-109746039D01*
X134289111Y-109741124D01*
X134270064Y-109734309D01*
X134251776Y-109725659D01*
X134234425Y-109715259D01*
X134218176Y-109703208D01*
X134203187Y-109689623D01*
X134189602Y-109674634D01*
X134177551Y-109658385D01*
X134167151Y-109641034D01*
X134158501Y-109622746D01*
X134151686Y-109603699D01*
X134146771Y-109584076D01*
X134143803Y-109564065D01*
X134142810Y-109543860D01*
X134142810Y-108456140D01*
X134143803Y-108435935D01*
X134146771Y-108415924D01*
X134151686Y-108396301D01*
X134158501Y-108377254D01*
X134167151Y-108358966D01*
X134177551Y-108341615D01*
X134189602Y-108325366D01*
X134203187Y-108310377D01*
X134218176Y-108296792D01*
X134234425Y-108284741D01*
X134251776Y-108274341D01*
X134270064Y-108265691D01*
X134289111Y-108258876D01*
X134308734Y-108253961D01*
X134328745Y-108250993D01*
X134348950Y-108250000D01*
X135111670Y-108250000D01*
X135131875Y-108250993D01*
X135131875Y-108250993D01*
G37*
D13*
X134730310Y-109000000D03*
D10*
G36*
X138106875Y-108250993D02*
X138126886Y-108253961D01*
X138146509Y-108258876D01*
X138165556Y-108265691D01*
X138183844Y-108274341D01*
X138201195Y-108284741D01*
X138217444Y-108296792D01*
X138232433Y-108310377D01*
X138246018Y-108325366D01*
X138258069Y-108341615D01*
X138268469Y-108358966D01*
X138277119Y-108377254D01*
X138283934Y-108396301D01*
X138288849Y-108415924D01*
X138291817Y-108435935D01*
X138292810Y-108456140D01*
X138292810Y-109543860D01*
X138291817Y-109564065D01*
X138288849Y-109584076D01*
X138283934Y-109603699D01*
X138277119Y-109622746D01*
X138268469Y-109641034D01*
X138258069Y-109658385D01*
X138246018Y-109674634D01*
X138232433Y-109689623D01*
X138217444Y-109703208D01*
X138201195Y-109715259D01*
X138183844Y-109725659D01*
X138165556Y-109734309D01*
X138146509Y-109741124D01*
X138126886Y-109746039D01*
X138106875Y-109749007D01*
X138086670Y-109750000D01*
X137323950Y-109750000D01*
X137303745Y-109749007D01*
X137283734Y-109746039D01*
X137264111Y-109741124D01*
X137245064Y-109734309D01*
X137226776Y-109725659D01*
X137209425Y-109715259D01*
X137193176Y-109703208D01*
X137178187Y-109689623D01*
X137164602Y-109674634D01*
X137152551Y-109658385D01*
X137142151Y-109641034D01*
X137133501Y-109622746D01*
X137126686Y-109603699D01*
X137121771Y-109584076D01*
X137118803Y-109564065D01*
X137117810Y-109543860D01*
X137117810Y-108456140D01*
X137118803Y-108435935D01*
X137121771Y-108415924D01*
X137126686Y-108396301D01*
X137133501Y-108377254D01*
X137142151Y-108358966D01*
X137152551Y-108341615D01*
X137164602Y-108325366D01*
X137178187Y-108310377D01*
X137193176Y-108296792D01*
X137209425Y-108284741D01*
X137226776Y-108274341D01*
X137245064Y-108265691D01*
X137264111Y-108258876D01*
X137283734Y-108253961D01*
X137303745Y-108250993D01*
X137323950Y-108250000D01*
X138086670Y-108250000D01*
X138106875Y-108250993D01*
X138106875Y-108250993D01*
G37*
D13*
X137705310Y-109000000D03*
G04 #@! TD*
D10*
G04 #@! TO.C,R8*
G36*
X104691826Y-129974952D02*
X104709420Y-129977562D01*
X104726674Y-129981884D01*
X104743421Y-129987876D01*
X104759501Y-129995481D01*
X104774757Y-130004625D01*
X104789044Y-130015221D01*
X104802223Y-130027166D01*
X104814168Y-130040345D01*
X104824764Y-130054632D01*
X104833908Y-130069888D01*
X104841513Y-130085968D01*
X104847505Y-130102715D01*
X104851827Y-130119969D01*
X104854437Y-130137563D01*
X104855310Y-130155329D01*
X104855310Y-130942829D01*
X104854437Y-130960595D01*
X104851827Y-130978189D01*
X104847505Y-130995443D01*
X104841513Y-131012190D01*
X104833908Y-131028270D01*
X104824764Y-131043526D01*
X104814168Y-131057813D01*
X104802223Y-131070992D01*
X104789044Y-131082937D01*
X104774757Y-131093533D01*
X104759501Y-131102677D01*
X104743421Y-131110282D01*
X104726674Y-131116274D01*
X104709420Y-131120596D01*
X104691826Y-131123206D01*
X104674060Y-131124079D01*
X104311560Y-131124079D01*
X104293794Y-131123206D01*
X104276200Y-131120596D01*
X104258946Y-131116274D01*
X104242199Y-131110282D01*
X104226119Y-131102677D01*
X104210863Y-131093533D01*
X104196576Y-131082937D01*
X104183397Y-131070992D01*
X104171452Y-131057813D01*
X104160856Y-131043526D01*
X104151712Y-131028270D01*
X104144107Y-131012190D01*
X104138115Y-130995443D01*
X104133793Y-130978189D01*
X104131183Y-130960595D01*
X104130310Y-130942829D01*
X104130310Y-130155329D01*
X104131183Y-130137563D01*
X104133793Y-130119969D01*
X104138115Y-130102715D01*
X104144107Y-130085968D01*
X104151712Y-130069888D01*
X104160856Y-130054632D01*
X104171452Y-130040345D01*
X104183397Y-130027166D01*
X104196576Y-130015221D01*
X104210863Y-130004625D01*
X104226119Y-129995481D01*
X104242199Y-129987876D01*
X104258946Y-129981884D01*
X104276200Y-129977562D01*
X104293794Y-129974952D01*
X104311560Y-129974079D01*
X104674060Y-129974079D01*
X104691826Y-129974952D01*
X104691826Y-129974952D01*
G37*
D11*
X104492810Y-130549079D03*
D10*
G36*
X106566826Y-129974952D02*
X106584420Y-129977562D01*
X106601674Y-129981884D01*
X106618421Y-129987876D01*
X106634501Y-129995481D01*
X106649757Y-130004625D01*
X106664044Y-130015221D01*
X106677223Y-130027166D01*
X106689168Y-130040345D01*
X106699764Y-130054632D01*
X106708908Y-130069888D01*
X106716513Y-130085968D01*
X106722505Y-130102715D01*
X106726827Y-130119969D01*
X106729437Y-130137563D01*
X106730310Y-130155329D01*
X106730310Y-130942829D01*
X106729437Y-130960595D01*
X106726827Y-130978189D01*
X106722505Y-130995443D01*
X106716513Y-131012190D01*
X106708908Y-131028270D01*
X106699764Y-131043526D01*
X106689168Y-131057813D01*
X106677223Y-131070992D01*
X106664044Y-131082937D01*
X106649757Y-131093533D01*
X106634501Y-131102677D01*
X106618421Y-131110282D01*
X106601674Y-131116274D01*
X106584420Y-131120596D01*
X106566826Y-131123206D01*
X106549060Y-131124079D01*
X106186560Y-131124079D01*
X106168794Y-131123206D01*
X106151200Y-131120596D01*
X106133946Y-131116274D01*
X106117199Y-131110282D01*
X106101119Y-131102677D01*
X106085863Y-131093533D01*
X106071576Y-131082937D01*
X106058397Y-131070992D01*
X106046452Y-131057813D01*
X106035856Y-131043526D01*
X106026712Y-131028270D01*
X106019107Y-131012190D01*
X106013115Y-130995443D01*
X106008793Y-130978189D01*
X106006183Y-130960595D01*
X106005310Y-130942829D01*
X106005310Y-130155329D01*
X106006183Y-130137563D01*
X106008793Y-130119969D01*
X106013115Y-130102715D01*
X106019107Y-130085968D01*
X106026712Y-130069888D01*
X106035856Y-130054632D01*
X106046452Y-130040345D01*
X106058397Y-130027166D01*
X106071576Y-130015221D01*
X106085863Y-130004625D01*
X106101119Y-129995481D01*
X106117199Y-129987876D01*
X106133946Y-129981884D01*
X106151200Y-129977562D01*
X106168794Y-129974952D01*
X106186560Y-129974079D01*
X106549060Y-129974079D01*
X106566826Y-129974952D01*
X106566826Y-129974952D01*
G37*
D11*
X106367810Y-130549079D03*
G04 #@! TD*
D10*
G04 #@! TO.C,R9*
G36*
X106599016Y-99774952D02*
X106616610Y-99777562D01*
X106633864Y-99781884D01*
X106650611Y-99787876D01*
X106666691Y-99795481D01*
X106681947Y-99804625D01*
X106696234Y-99815221D01*
X106709413Y-99827166D01*
X106721358Y-99840345D01*
X106731954Y-99854632D01*
X106741098Y-99869888D01*
X106748703Y-99885968D01*
X106754695Y-99902715D01*
X106759017Y-99919969D01*
X106761627Y-99937563D01*
X106762500Y-99955329D01*
X106762500Y-100742829D01*
X106761627Y-100760595D01*
X106759017Y-100778189D01*
X106754695Y-100795443D01*
X106748703Y-100812190D01*
X106741098Y-100828270D01*
X106731954Y-100843526D01*
X106721358Y-100857813D01*
X106709413Y-100870992D01*
X106696234Y-100882937D01*
X106681947Y-100893533D01*
X106666691Y-100902677D01*
X106650611Y-100910282D01*
X106633864Y-100916274D01*
X106616610Y-100920596D01*
X106599016Y-100923206D01*
X106581250Y-100924079D01*
X106218750Y-100924079D01*
X106200984Y-100923206D01*
X106183390Y-100920596D01*
X106166136Y-100916274D01*
X106149389Y-100910282D01*
X106133309Y-100902677D01*
X106118053Y-100893533D01*
X106103766Y-100882937D01*
X106090587Y-100870992D01*
X106078642Y-100857813D01*
X106068046Y-100843526D01*
X106058902Y-100828270D01*
X106051297Y-100812190D01*
X106045305Y-100795443D01*
X106040983Y-100778189D01*
X106038373Y-100760595D01*
X106037500Y-100742829D01*
X106037500Y-99955329D01*
X106038373Y-99937563D01*
X106040983Y-99919969D01*
X106045305Y-99902715D01*
X106051297Y-99885968D01*
X106058902Y-99869888D01*
X106068046Y-99854632D01*
X106078642Y-99840345D01*
X106090587Y-99827166D01*
X106103766Y-99815221D01*
X106118053Y-99804625D01*
X106133309Y-99795481D01*
X106149389Y-99787876D01*
X106166136Y-99781884D01*
X106183390Y-99777562D01*
X106200984Y-99774952D01*
X106218750Y-99774079D01*
X106581250Y-99774079D01*
X106599016Y-99774952D01*
X106599016Y-99774952D01*
G37*
D11*
X106400000Y-100349079D03*
D10*
G36*
X104724016Y-99774952D02*
X104741610Y-99777562D01*
X104758864Y-99781884D01*
X104775611Y-99787876D01*
X104791691Y-99795481D01*
X104806947Y-99804625D01*
X104821234Y-99815221D01*
X104834413Y-99827166D01*
X104846358Y-99840345D01*
X104856954Y-99854632D01*
X104866098Y-99869888D01*
X104873703Y-99885968D01*
X104879695Y-99902715D01*
X104884017Y-99919969D01*
X104886627Y-99937563D01*
X104887500Y-99955329D01*
X104887500Y-100742829D01*
X104886627Y-100760595D01*
X104884017Y-100778189D01*
X104879695Y-100795443D01*
X104873703Y-100812190D01*
X104866098Y-100828270D01*
X104856954Y-100843526D01*
X104846358Y-100857813D01*
X104834413Y-100870992D01*
X104821234Y-100882937D01*
X104806947Y-100893533D01*
X104791691Y-100902677D01*
X104775611Y-100910282D01*
X104758864Y-100916274D01*
X104741610Y-100920596D01*
X104724016Y-100923206D01*
X104706250Y-100924079D01*
X104343750Y-100924079D01*
X104325984Y-100923206D01*
X104308390Y-100920596D01*
X104291136Y-100916274D01*
X104274389Y-100910282D01*
X104258309Y-100902677D01*
X104243053Y-100893533D01*
X104228766Y-100882937D01*
X104215587Y-100870992D01*
X104203642Y-100857813D01*
X104193046Y-100843526D01*
X104183902Y-100828270D01*
X104176297Y-100812190D01*
X104170305Y-100795443D01*
X104165983Y-100778189D01*
X104163373Y-100760595D01*
X104162500Y-100742829D01*
X104162500Y-99955329D01*
X104163373Y-99937563D01*
X104165983Y-99919969D01*
X104170305Y-99902715D01*
X104176297Y-99885968D01*
X104183902Y-99869888D01*
X104193046Y-99854632D01*
X104203642Y-99840345D01*
X104215587Y-99827166D01*
X104228766Y-99815221D01*
X104243053Y-99804625D01*
X104258309Y-99795481D01*
X104274389Y-99787876D01*
X104291136Y-99781884D01*
X104308390Y-99777562D01*
X104325984Y-99774952D01*
X104343750Y-99774079D01*
X104706250Y-99774079D01*
X104724016Y-99774952D01*
X104724016Y-99774952D01*
G37*
D11*
X104525000Y-100349079D03*
G04 #@! TD*
D12*
G04 #@! TO.C,D2*
X134500000Y-112562500D03*
X134500000Y-115562500D03*
G04 #@! TD*
D10*
G04 #@! TO.C,R14*
G36*
X141636516Y-91550874D02*
X141654110Y-91553484D01*
X141671364Y-91557806D01*
X141688111Y-91563798D01*
X141704191Y-91571403D01*
X141719447Y-91580547D01*
X141733734Y-91591143D01*
X141746913Y-91603088D01*
X141758858Y-91616267D01*
X141769454Y-91630554D01*
X141778598Y-91645810D01*
X141786203Y-91661890D01*
X141792195Y-91678637D01*
X141796517Y-91695891D01*
X141799127Y-91713485D01*
X141800000Y-91731251D01*
X141800000Y-92518751D01*
X141799127Y-92536517D01*
X141796517Y-92554111D01*
X141792195Y-92571365D01*
X141786203Y-92588112D01*
X141778598Y-92604192D01*
X141769454Y-92619448D01*
X141758858Y-92633735D01*
X141746913Y-92646914D01*
X141733734Y-92658859D01*
X141719447Y-92669455D01*
X141704191Y-92678599D01*
X141688111Y-92686204D01*
X141671364Y-92692196D01*
X141654110Y-92696518D01*
X141636516Y-92699128D01*
X141618750Y-92700001D01*
X141256250Y-92700001D01*
X141238484Y-92699128D01*
X141220890Y-92696518D01*
X141203636Y-92692196D01*
X141186889Y-92686204D01*
X141170809Y-92678599D01*
X141155553Y-92669455D01*
X141141266Y-92658859D01*
X141128087Y-92646914D01*
X141116142Y-92633735D01*
X141105546Y-92619448D01*
X141096402Y-92604192D01*
X141088797Y-92588112D01*
X141082805Y-92571365D01*
X141078483Y-92554111D01*
X141075873Y-92536517D01*
X141075000Y-92518751D01*
X141075000Y-91731251D01*
X141075873Y-91713485D01*
X141078483Y-91695891D01*
X141082805Y-91678637D01*
X141088797Y-91661890D01*
X141096402Y-91645810D01*
X141105546Y-91630554D01*
X141116142Y-91616267D01*
X141128087Y-91603088D01*
X141141266Y-91591143D01*
X141155553Y-91580547D01*
X141170809Y-91571403D01*
X141186889Y-91563798D01*
X141203636Y-91557806D01*
X141220890Y-91553484D01*
X141238484Y-91550874D01*
X141256250Y-91550001D01*
X141618750Y-91550001D01*
X141636516Y-91550874D01*
X141636516Y-91550874D01*
G37*
D11*
X141437500Y-92125001D03*
D10*
G36*
X139761516Y-91550874D02*
X139779110Y-91553484D01*
X139796364Y-91557806D01*
X139813111Y-91563798D01*
X139829191Y-91571403D01*
X139844447Y-91580547D01*
X139858734Y-91591143D01*
X139871913Y-91603088D01*
X139883858Y-91616267D01*
X139894454Y-91630554D01*
X139903598Y-91645810D01*
X139911203Y-91661890D01*
X139917195Y-91678637D01*
X139921517Y-91695891D01*
X139924127Y-91713485D01*
X139925000Y-91731251D01*
X139925000Y-92518751D01*
X139924127Y-92536517D01*
X139921517Y-92554111D01*
X139917195Y-92571365D01*
X139911203Y-92588112D01*
X139903598Y-92604192D01*
X139894454Y-92619448D01*
X139883858Y-92633735D01*
X139871913Y-92646914D01*
X139858734Y-92658859D01*
X139844447Y-92669455D01*
X139829191Y-92678599D01*
X139813111Y-92686204D01*
X139796364Y-92692196D01*
X139779110Y-92696518D01*
X139761516Y-92699128D01*
X139743750Y-92700001D01*
X139381250Y-92700001D01*
X139363484Y-92699128D01*
X139345890Y-92696518D01*
X139328636Y-92692196D01*
X139311889Y-92686204D01*
X139295809Y-92678599D01*
X139280553Y-92669455D01*
X139266266Y-92658859D01*
X139253087Y-92646914D01*
X139241142Y-92633735D01*
X139230546Y-92619448D01*
X139221402Y-92604192D01*
X139213797Y-92588112D01*
X139207805Y-92571365D01*
X139203483Y-92554111D01*
X139200873Y-92536517D01*
X139200000Y-92518751D01*
X139200000Y-91731251D01*
X139200873Y-91713485D01*
X139203483Y-91695891D01*
X139207805Y-91678637D01*
X139213797Y-91661890D01*
X139221402Y-91645810D01*
X139230546Y-91630554D01*
X139241142Y-91616267D01*
X139253087Y-91603088D01*
X139266266Y-91591143D01*
X139280553Y-91580547D01*
X139295809Y-91571403D01*
X139311889Y-91563798D01*
X139328636Y-91557806D01*
X139345890Y-91553484D01*
X139363484Y-91550874D01*
X139381250Y-91550001D01*
X139743750Y-91550001D01*
X139761516Y-91550874D01*
X139761516Y-91550874D01*
G37*
D11*
X139562500Y-92125001D03*
G04 #@! TD*
D10*
G04 #@! TO.C,R3*
G36*
X124467122Y-122401110D02*
X124489494Y-122404428D01*
X124511433Y-122409924D01*
X124532728Y-122417543D01*
X124553174Y-122427213D01*
X124572573Y-122438841D01*
X124590739Y-122452314D01*
X124607497Y-122467503D01*
X124622686Y-122484261D01*
X124636159Y-122502427D01*
X124647787Y-122521826D01*
X124657457Y-122542272D01*
X124665076Y-122563567D01*
X124670572Y-122585506D01*
X124673890Y-122607878D01*
X124675000Y-122630468D01*
X124675000Y-126369532D01*
X124673890Y-126392122D01*
X124670572Y-126414494D01*
X124665076Y-126436433D01*
X124657457Y-126457728D01*
X124647787Y-126478174D01*
X124636159Y-126497573D01*
X124622686Y-126515739D01*
X124607497Y-126532497D01*
X124590739Y-126547686D01*
X124572573Y-126561159D01*
X124553174Y-126572787D01*
X124532728Y-126582457D01*
X124511433Y-126590076D01*
X124489494Y-126595572D01*
X124467122Y-126598890D01*
X124444532Y-126600000D01*
X121955468Y-126600000D01*
X121932878Y-126598890D01*
X121910506Y-126595572D01*
X121888567Y-126590076D01*
X121867272Y-126582457D01*
X121846826Y-126572787D01*
X121827427Y-126561159D01*
X121809261Y-126547686D01*
X121792503Y-126532497D01*
X121777314Y-126515739D01*
X121763841Y-126497573D01*
X121752213Y-126478174D01*
X121742543Y-126457728D01*
X121734924Y-126436433D01*
X121729428Y-126414494D01*
X121726110Y-126392122D01*
X121725000Y-126369532D01*
X121725000Y-122630468D01*
X121726110Y-122607878D01*
X121729428Y-122585506D01*
X121734924Y-122563567D01*
X121742543Y-122542272D01*
X121752213Y-122521826D01*
X121763841Y-122502427D01*
X121777314Y-122484261D01*
X121792503Y-122467503D01*
X121809261Y-122452314D01*
X121827427Y-122438841D01*
X121846826Y-122427213D01*
X121867272Y-122417543D01*
X121888567Y-122409924D01*
X121910506Y-122404428D01*
X121932878Y-122401110D01*
X121955468Y-122400000D01*
X124444532Y-122400000D01*
X124467122Y-122401110D01*
X124467122Y-122401110D01*
G37*
D14*
X123200000Y-124500000D03*
D10*
G36*
X119267122Y-122401110D02*
X119289494Y-122404428D01*
X119311433Y-122409924D01*
X119332728Y-122417543D01*
X119353174Y-122427213D01*
X119372573Y-122438841D01*
X119390739Y-122452314D01*
X119407497Y-122467503D01*
X119422686Y-122484261D01*
X119436159Y-122502427D01*
X119447787Y-122521826D01*
X119457457Y-122542272D01*
X119465076Y-122563567D01*
X119470572Y-122585506D01*
X119473890Y-122607878D01*
X119475000Y-122630468D01*
X119475000Y-126369532D01*
X119473890Y-126392122D01*
X119470572Y-126414494D01*
X119465076Y-126436433D01*
X119457457Y-126457728D01*
X119447787Y-126478174D01*
X119436159Y-126497573D01*
X119422686Y-126515739D01*
X119407497Y-126532497D01*
X119390739Y-126547686D01*
X119372573Y-126561159D01*
X119353174Y-126572787D01*
X119332728Y-126582457D01*
X119311433Y-126590076D01*
X119289494Y-126595572D01*
X119267122Y-126598890D01*
X119244532Y-126600000D01*
X116755468Y-126600000D01*
X116732878Y-126598890D01*
X116710506Y-126595572D01*
X116688567Y-126590076D01*
X116667272Y-126582457D01*
X116646826Y-126572787D01*
X116627427Y-126561159D01*
X116609261Y-126547686D01*
X116592503Y-126532497D01*
X116577314Y-126515739D01*
X116563841Y-126497573D01*
X116552213Y-126478174D01*
X116542543Y-126457728D01*
X116534924Y-126436433D01*
X116529428Y-126414494D01*
X116526110Y-126392122D01*
X116525000Y-126369532D01*
X116525000Y-122630468D01*
X116526110Y-122607878D01*
X116529428Y-122585506D01*
X116534924Y-122563567D01*
X116542543Y-122542272D01*
X116552213Y-122521826D01*
X116563841Y-122502427D01*
X116577314Y-122484261D01*
X116592503Y-122467503D01*
X116609261Y-122452314D01*
X116627427Y-122438841D01*
X116646826Y-122427213D01*
X116667272Y-122417543D01*
X116688567Y-122409924D01*
X116710506Y-122404428D01*
X116732878Y-122401110D01*
X116755468Y-122400000D01*
X119244532Y-122400000D01*
X119267122Y-122401110D01*
X119267122Y-122401110D01*
G37*
D14*
X118000000Y-124500000D03*
G04 #@! TD*
D10*
G04 #@! TO.C,R4*
G36*
X124467122Y-98401110D02*
X124489494Y-98404428D01*
X124511433Y-98409924D01*
X124532728Y-98417543D01*
X124553174Y-98427213D01*
X124572573Y-98438841D01*
X124590739Y-98452314D01*
X124607497Y-98467503D01*
X124622686Y-98484261D01*
X124636159Y-98502427D01*
X124647787Y-98521826D01*
X124657457Y-98542272D01*
X124665076Y-98563567D01*
X124670572Y-98585506D01*
X124673890Y-98607878D01*
X124675000Y-98630468D01*
X124675000Y-102369532D01*
X124673890Y-102392122D01*
X124670572Y-102414494D01*
X124665076Y-102436433D01*
X124657457Y-102457728D01*
X124647787Y-102478174D01*
X124636159Y-102497573D01*
X124622686Y-102515739D01*
X124607497Y-102532497D01*
X124590739Y-102547686D01*
X124572573Y-102561159D01*
X124553174Y-102572787D01*
X124532728Y-102582457D01*
X124511433Y-102590076D01*
X124489494Y-102595572D01*
X124467122Y-102598890D01*
X124444532Y-102600000D01*
X121955468Y-102600000D01*
X121932878Y-102598890D01*
X121910506Y-102595572D01*
X121888567Y-102590076D01*
X121867272Y-102582457D01*
X121846826Y-102572787D01*
X121827427Y-102561159D01*
X121809261Y-102547686D01*
X121792503Y-102532497D01*
X121777314Y-102515739D01*
X121763841Y-102497573D01*
X121752213Y-102478174D01*
X121742543Y-102457728D01*
X121734924Y-102436433D01*
X121729428Y-102414494D01*
X121726110Y-102392122D01*
X121725000Y-102369532D01*
X121725000Y-98630468D01*
X121726110Y-98607878D01*
X121729428Y-98585506D01*
X121734924Y-98563567D01*
X121742543Y-98542272D01*
X121752213Y-98521826D01*
X121763841Y-98502427D01*
X121777314Y-98484261D01*
X121792503Y-98467503D01*
X121809261Y-98452314D01*
X121827427Y-98438841D01*
X121846826Y-98427213D01*
X121867272Y-98417543D01*
X121888567Y-98409924D01*
X121910506Y-98404428D01*
X121932878Y-98401110D01*
X121955468Y-98400000D01*
X124444532Y-98400000D01*
X124467122Y-98401110D01*
X124467122Y-98401110D01*
G37*
D14*
X123200000Y-100500000D03*
D10*
G36*
X119267122Y-98401110D02*
X119289494Y-98404428D01*
X119311433Y-98409924D01*
X119332728Y-98417543D01*
X119353174Y-98427213D01*
X119372573Y-98438841D01*
X119390739Y-98452314D01*
X119407497Y-98467503D01*
X119422686Y-98484261D01*
X119436159Y-98502427D01*
X119447787Y-98521826D01*
X119457457Y-98542272D01*
X119465076Y-98563567D01*
X119470572Y-98585506D01*
X119473890Y-98607878D01*
X119475000Y-98630468D01*
X119475000Y-102369532D01*
X119473890Y-102392122D01*
X119470572Y-102414494D01*
X119465076Y-102436433D01*
X119457457Y-102457728D01*
X119447787Y-102478174D01*
X119436159Y-102497573D01*
X119422686Y-102515739D01*
X119407497Y-102532497D01*
X119390739Y-102547686D01*
X119372573Y-102561159D01*
X119353174Y-102572787D01*
X119332728Y-102582457D01*
X119311433Y-102590076D01*
X119289494Y-102595572D01*
X119267122Y-102598890D01*
X119244532Y-102600000D01*
X116755468Y-102600000D01*
X116732878Y-102598890D01*
X116710506Y-102595572D01*
X116688567Y-102590076D01*
X116667272Y-102582457D01*
X116646826Y-102572787D01*
X116627427Y-102561159D01*
X116609261Y-102547686D01*
X116592503Y-102532497D01*
X116577314Y-102515739D01*
X116563841Y-102497573D01*
X116552213Y-102478174D01*
X116542543Y-102457728D01*
X116534924Y-102436433D01*
X116529428Y-102414494D01*
X116526110Y-102392122D01*
X116525000Y-102369532D01*
X116525000Y-98630468D01*
X116526110Y-98607878D01*
X116529428Y-98585506D01*
X116534924Y-98563567D01*
X116542543Y-98542272D01*
X116552213Y-98521826D01*
X116563841Y-98502427D01*
X116577314Y-98484261D01*
X116592503Y-98467503D01*
X116609261Y-98452314D01*
X116627427Y-98438841D01*
X116646826Y-98427213D01*
X116667272Y-98417543D01*
X116688567Y-98409924D01*
X116710506Y-98404428D01*
X116732878Y-98401110D01*
X116755468Y-98400000D01*
X119244532Y-98400000D01*
X119267122Y-98401110D01*
X119267122Y-98401110D01*
G37*
D14*
X118000000Y-100500000D03*
G04 #@! TD*
D10*
G04 #@! TO.C,R10*
G36*
X104724016Y-121425873D02*
X104741610Y-121428483D01*
X104758864Y-121432805D01*
X104775611Y-121438797D01*
X104791691Y-121446402D01*
X104806947Y-121455546D01*
X104821234Y-121466142D01*
X104834413Y-121478087D01*
X104846358Y-121491266D01*
X104856954Y-121505553D01*
X104866098Y-121520809D01*
X104873703Y-121536889D01*
X104879695Y-121553636D01*
X104884017Y-121570890D01*
X104886627Y-121588484D01*
X104887500Y-121606250D01*
X104887500Y-122393750D01*
X104886627Y-122411516D01*
X104884017Y-122429110D01*
X104879695Y-122446364D01*
X104873703Y-122463111D01*
X104866098Y-122479191D01*
X104856954Y-122494447D01*
X104846358Y-122508734D01*
X104834413Y-122521913D01*
X104821234Y-122533858D01*
X104806947Y-122544454D01*
X104791691Y-122553598D01*
X104775611Y-122561203D01*
X104758864Y-122567195D01*
X104741610Y-122571517D01*
X104724016Y-122574127D01*
X104706250Y-122575000D01*
X104343750Y-122575000D01*
X104325984Y-122574127D01*
X104308390Y-122571517D01*
X104291136Y-122567195D01*
X104274389Y-122561203D01*
X104258309Y-122553598D01*
X104243053Y-122544454D01*
X104228766Y-122533858D01*
X104215587Y-122521913D01*
X104203642Y-122508734D01*
X104193046Y-122494447D01*
X104183902Y-122479191D01*
X104176297Y-122463111D01*
X104170305Y-122446364D01*
X104165983Y-122429110D01*
X104163373Y-122411516D01*
X104162500Y-122393750D01*
X104162500Y-121606250D01*
X104163373Y-121588484D01*
X104165983Y-121570890D01*
X104170305Y-121553636D01*
X104176297Y-121536889D01*
X104183902Y-121520809D01*
X104193046Y-121505553D01*
X104203642Y-121491266D01*
X104215587Y-121478087D01*
X104228766Y-121466142D01*
X104243053Y-121455546D01*
X104258309Y-121446402D01*
X104274389Y-121438797D01*
X104291136Y-121432805D01*
X104308390Y-121428483D01*
X104325984Y-121425873D01*
X104343750Y-121425000D01*
X104706250Y-121425000D01*
X104724016Y-121425873D01*
X104724016Y-121425873D01*
G37*
D11*
X104525000Y-122000000D03*
D10*
G36*
X106599016Y-121425873D02*
X106616610Y-121428483D01*
X106633864Y-121432805D01*
X106650611Y-121438797D01*
X106666691Y-121446402D01*
X106681947Y-121455546D01*
X106696234Y-121466142D01*
X106709413Y-121478087D01*
X106721358Y-121491266D01*
X106731954Y-121505553D01*
X106741098Y-121520809D01*
X106748703Y-121536889D01*
X106754695Y-121553636D01*
X106759017Y-121570890D01*
X106761627Y-121588484D01*
X106762500Y-121606250D01*
X106762500Y-122393750D01*
X106761627Y-122411516D01*
X106759017Y-122429110D01*
X106754695Y-122446364D01*
X106748703Y-122463111D01*
X106741098Y-122479191D01*
X106731954Y-122494447D01*
X106721358Y-122508734D01*
X106709413Y-122521913D01*
X106696234Y-122533858D01*
X106681947Y-122544454D01*
X106666691Y-122553598D01*
X106650611Y-122561203D01*
X106633864Y-122567195D01*
X106616610Y-122571517D01*
X106599016Y-122574127D01*
X106581250Y-122575000D01*
X106218750Y-122575000D01*
X106200984Y-122574127D01*
X106183390Y-122571517D01*
X106166136Y-122567195D01*
X106149389Y-122561203D01*
X106133309Y-122553598D01*
X106118053Y-122544454D01*
X106103766Y-122533858D01*
X106090587Y-122521913D01*
X106078642Y-122508734D01*
X106068046Y-122494447D01*
X106058902Y-122479191D01*
X106051297Y-122463111D01*
X106045305Y-122446364D01*
X106040983Y-122429110D01*
X106038373Y-122411516D01*
X106037500Y-122393750D01*
X106037500Y-121606250D01*
X106038373Y-121588484D01*
X106040983Y-121570890D01*
X106045305Y-121553636D01*
X106051297Y-121536889D01*
X106058902Y-121520809D01*
X106068046Y-121505553D01*
X106078642Y-121491266D01*
X106090587Y-121478087D01*
X106103766Y-121466142D01*
X106118053Y-121455546D01*
X106133309Y-121446402D01*
X106149389Y-121438797D01*
X106166136Y-121432805D01*
X106183390Y-121428483D01*
X106200984Y-121425873D01*
X106218750Y-121425000D01*
X106581250Y-121425000D01*
X106599016Y-121425873D01*
X106599016Y-121425873D01*
G37*
D11*
X106400000Y-122000000D03*
G04 #@! TD*
D10*
G04 #@! TO.C,R6*
G36*
X135324016Y-91550874D02*
X135341610Y-91553484D01*
X135358864Y-91557806D01*
X135375611Y-91563798D01*
X135391691Y-91571403D01*
X135406947Y-91580547D01*
X135421234Y-91591143D01*
X135434413Y-91603088D01*
X135446358Y-91616267D01*
X135456954Y-91630554D01*
X135466098Y-91645810D01*
X135473703Y-91661890D01*
X135479695Y-91678637D01*
X135484017Y-91695891D01*
X135486627Y-91713485D01*
X135487500Y-91731251D01*
X135487500Y-92518751D01*
X135486627Y-92536517D01*
X135484017Y-92554111D01*
X135479695Y-92571365D01*
X135473703Y-92588112D01*
X135466098Y-92604192D01*
X135456954Y-92619448D01*
X135446358Y-92633735D01*
X135434413Y-92646914D01*
X135421234Y-92658859D01*
X135406947Y-92669455D01*
X135391691Y-92678599D01*
X135375611Y-92686204D01*
X135358864Y-92692196D01*
X135341610Y-92696518D01*
X135324016Y-92699128D01*
X135306250Y-92700001D01*
X134943750Y-92700001D01*
X134925984Y-92699128D01*
X134908390Y-92696518D01*
X134891136Y-92692196D01*
X134874389Y-92686204D01*
X134858309Y-92678599D01*
X134843053Y-92669455D01*
X134828766Y-92658859D01*
X134815587Y-92646914D01*
X134803642Y-92633735D01*
X134793046Y-92619448D01*
X134783902Y-92604192D01*
X134776297Y-92588112D01*
X134770305Y-92571365D01*
X134765983Y-92554111D01*
X134763373Y-92536517D01*
X134762500Y-92518751D01*
X134762500Y-91731251D01*
X134763373Y-91713485D01*
X134765983Y-91695891D01*
X134770305Y-91678637D01*
X134776297Y-91661890D01*
X134783902Y-91645810D01*
X134793046Y-91630554D01*
X134803642Y-91616267D01*
X134815587Y-91603088D01*
X134828766Y-91591143D01*
X134843053Y-91580547D01*
X134858309Y-91571403D01*
X134874389Y-91563798D01*
X134891136Y-91557806D01*
X134908390Y-91553484D01*
X134925984Y-91550874D01*
X134943750Y-91550001D01*
X135306250Y-91550001D01*
X135324016Y-91550874D01*
X135324016Y-91550874D01*
G37*
D11*
X135125000Y-92125001D03*
D10*
G36*
X137199016Y-91550874D02*
X137216610Y-91553484D01*
X137233864Y-91557806D01*
X137250611Y-91563798D01*
X137266691Y-91571403D01*
X137281947Y-91580547D01*
X137296234Y-91591143D01*
X137309413Y-91603088D01*
X137321358Y-91616267D01*
X137331954Y-91630554D01*
X137341098Y-91645810D01*
X137348703Y-91661890D01*
X137354695Y-91678637D01*
X137359017Y-91695891D01*
X137361627Y-91713485D01*
X137362500Y-91731251D01*
X137362500Y-92518751D01*
X137361627Y-92536517D01*
X137359017Y-92554111D01*
X137354695Y-92571365D01*
X137348703Y-92588112D01*
X137341098Y-92604192D01*
X137331954Y-92619448D01*
X137321358Y-92633735D01*
X137309413Y-92646914D01*
X137296234Y-92658859D01*
X137281947Y-92669455D01*
X137266691Y-92678599D01*
X137250611Y-92686204D01*
X137233864Y-92692196D01*
X137216610Y-92696518D01*
X137199016Y-92699128D01*
X137181250Y-92700001D01*
X136818750Y-92700001D01*
X136800984Y-92699128D01*
X136783390Y-92696518D01*
X136766136Y-92692196D01*
X136749389Y-92686204D01*
X136733309Y-92678599D01*
X136718053Y-92669455D01*
X136703766Y-92658859D01*
X136690587Y-92646914D01*
X136678642Y-92633735D01*
X136668046Y-92619448D01*
X136658902Y-92604192D01*
X136651297Y-92588112D01*
X136645305Y-92571365D01*
X136640983Y-92554111D01*
X136638373Y-92536517D01*
X136637500Y-92518751D01*
X136637500Y-91731251D01*
X136638373Y-91713485D01*
X136640983Y-91695891D01*
X136645305Y-91678637D01*
X136651297Y-91661890D01*
X136658902Y-91645810D01*
X136668046Y-91630554D01*
X136678642Y-91616267D01*
X136690587Y-91603088D01*
X136703766Y-91591143D01*
X136718053Y-91580547D01*
X136733309Y-91571403D01*
X136749389Y-91563798D01*
X136766136Y-91557806D01*
X136783390Y-91553484D01*
X136800984Y-91550874D01*
X136818750Y-91550001D01*
X137181250Y-91550001D01*
X137199016Y-91550874D01*
X137199016Y-91550874D01*
G37*
D11*
X137000000Y-92125001D03*
G04 #@! TD*
D10*
G04 #@! TO.C,R7*
G36*
X137199016Y-88825873D02*
X137216610Y-88828483D01*
X137233864Y-88832805D01*
X137250611Y-88838797D01*
X137266691Y-88846402D01*
X137281947Y-88855546D01*
X137296234Y-88866142D01*
X137309413Y-88878087D01*
X137321358Y-88891266D01*
X137331954Y-88905553D01*
X137341098Y-88920809D01*
X137348703Y-88936889D01*
X137354695Y-88953636D01*
X137359017Y-88970890D01*
X137361627Y-88988484D01*
X137362500Y-89006250D01*
X137362500Y-89793750D01*
X137361627Y-89811516D01*
X137359017Y-89829110D01*
X137354695Y-89846364D01*
X137348703Y-89863111D01*
X137341098Y-89879191D01*
X137331954Y-89894447D01*
X137321358Y-89908734D01*
X137309413Y-89921913D01*
X137296234Y-89933858D01*
X137281947Y-89944454D01*
X137266691Y-89953598D01*
X137250611Y-89961203D01*
X137233864Y-89967195D01*
X137216610Y-89971517D01*
X137199016Y-89974127D01*
X137181250Y-89975000D01*
X136818750Y-89975000D01*
X136800984Y-89974127D01*
X136783390Y-89971517D01*
X136766136Y-89967195D01*
X136749389Y-89961203D01*
X136733309Y-89953598D01*
X136718053Y-89944454D01*
X136703766Y-89933858D01*
X136690587Y-89921913D01*
X136678642Y-89908734D01*
X136668046Y-89894447D01*
X136658902Y-89879191D01*
X136651297Y-89863111D01*
X136645305Y-89846364D01*
X136640983Y-89829110D01*
X136638373Y-89811516D01*
X136637500Y-89793750D01*
X136637500Y-89006250D01*
X136638373Y-88988484D01*
X136640983Y-88970890D01*
X136645305Y-88953636D01*
X136651297Y-88936889D01*
X136658902Y-88920809D01*
X136668046Y-88905553D01*
X136678642Y-88891266D01*
X136690587Y-88878087D01*
X136703766Y-88866142D01*
X136718053Y-88855546D01*
X136733309Y-88846402D01*
X136749389Y-88838797D01*
X136766136Y-88832805D01*
X136783390Y-88828483D01*
X136800984Y-88825873D01*
X136818750Y-88825000D01*
X137181250Y-88825000D01*
X137199016Y-88825873D01*
X137199016Y-88825873D01*
G37*
D11*
X137000000Y-89400000D03*
D10*
G36*
X135324016Y-88825873D02*
X135341610Y-88828483D01*
X135358864Y-88832805D01*
X135375611Y-88838797D01*
X135391691Y-88846402D01*
X135406947Y-88855546D01*
X135421234Y-88866142D01*
X135434413Y-88878087D01*
X135446358Y-88891266D01*
X135456954Y-88905553D01*
X135466098Y-88920809D01*
X135473703Y-88936889D01*
X135479695Y-88953636D01*
X135484017Y-88970890D01*
X135486627Y-88988484D01*
X135487500Y-89006250D01*
X135487500Y-89793750D01*
X135486627Y-89811516D01*
X135484017Y-89829110D01*
X135479695Y-89846364D01*
X135473703Y-89863111D01*
X135466098Y-89879191D01*
X135456954Y-89894447D01*
X135446358Y-89908734D01*
X135434413Y-89921913D01*
X135421234Y-89933858D01*
X135406947Y-89944454D01*
X135391691Y-89953598D01*
X135375611Y-89961203D01*
X135358864Y-89967195D01*
X135341610Y-89971517D01*
X135324016Y-89974127D01*
X135306250Y-89975000D01*
X134943750Y-89975000D01*
X134925984Y-89974127D01*
X134908390Y-89971517D01*
X134891136Y-89967195D01*
X134874389Y-89961203D01*
X134858309Y-89953598D01*
X134843053Y-89944454D01*
X134828766Y-89933858D01*
X134815587Y-89921913D01*
X134803642Y-89908734D01*
X134793046Y-89894447D01*
X134783902Y-89879191D01*
X134776297Y-89863111D01*
X134770305Y-89846364D01*
X134765983Y-89829110D01*
X134763373Y-89811516D01*
X134762500Y-89793750D01*
X134762500Y-89006250D01*
X134763373Y-88988484D01*
X134765983Y-88970890D01*
X134770305Y-88953636D01*
X134776297Y-88936889D01*
X134783902Y-88920809D01*
X134793046Y-88905553D01*
X134803642Y-88891266D01*
X134815587Y-88878087D01*
X134828766Y-88866142D01*
X134843053Y-88855546D01*
X134858309Y-88846402D01*
X134874389Y-88838797D01*
X134891136Y-88832805D01*
X134908390Y-88828483D01*
X134925984Y-88825873D01*
X134943750Y-88825000D01*
X135306250Y-88825000D01*
X135324016Y-88825873D01*
X135324016Y-88825873D01*
G37*
D11*
X135125000Y-89400000D03*
G04 #@! TD*
D10*
G04 #@! TO.C,R11*
G36*
X133461516Y-134625873D02*
X133479110Y-134628483D01*
X133496364Y-134632805D01*
X133513111Y-134638797D01*
X133529191Y-134646402D01*
X133544447Y-134655546D01*
X133558734Y-134666142D01*
X133571913Y-134678087D01*
X133583858Y-134691266D01*
X133594454Y-134705553D01*
X133603598Y-134720809D01*
X133611203Y-134736889D01*
X133617195Y-134753636D01*
X133621517Y-134770890D01*
X133624127Y-134788484D01*
X133625000Y-134806250D01*
X133625000Y-135593750D01*
X133624127Y-135611516D01*
X133621517Y-135629110D01*
X133617195Y-135646364D01*
X133611203Y-135663111D01*
X133603598Y-135679191D01*
X133594454Y-135694447D01*
X133583858Y-135708734D01*
X133571913Y-135721913D01*
X133558734Y-135733858D01*
X133544447Y-135744454D01*
X133529191Y-135753598D01*
X133513111Y-135761203D01*
X133496364Y-135767195D01*
X133479110Y-135771517D01*
X133461516Y-135774127D01*
X133443750Y-135775000D01*
X133081250Y-135775000D01*
X133063484Y-135774127D01*
X133045890Y-135771517D01*
X133028636Y-135767195D01*
X133011889Y-135761203D01*
X132995809Y-135753598D01*
X132980553Y-135744454D01*
X132966266Y-135733858D01*
X132953087Y-135721913D01*
X132941142Y-135708734D01*
X132930546Y-135694447D01*
X132921402Y-135679191D01*
X132913797Y-135663111D01*
X132907805Y-135646364D01*
X132903483Y-135629110D01*
X132900873Y-135611516D01*
X132900000Y-135593750D01*
X132900000Y-134806250D01*
X132900873Y-134788484D01*
X132903483Y-134770890D01*
X132907805Y-134753636D01*
X132913797Y-134736889D01*
X132921402Y-134720809D01*
X132930546Y-134705553D01*
X132941142Y-134691266D01*
X132953087Y-134678087D01*
X132966266Y-134666142D01*
X132980553Y-134655546D01*
X132995809Y-134646402D01*
X133011889Y-134638797D01*
X133028636Y-134632805D01*
X133045890Y-134628483D01*
X133063484Y-134625873D01*
X133081250Y-134625000D01*
X133443750Y-134625000D01*
X133461516Y-134625873D01*
X133461516Y-134625873D01*
G37*
D11*
X133262500Y-135200000D03*
D10*
G36*
X135336516Y-134625873D02*
X135354110Y-134628483D01*
X135371364Y-134632805D01*
X135388111Y-134638797D01*
X135404191Y-134646402D01*
X135419447Y-134655546D01*
X135433734Y-134666142D01*
X135446913Y-134678087D01*
X135458858Y-134691266D01*
X135469454Y-134705553D01*
X135478598Y-134720809D01*
X135486203Y-134736889D01*
X135492195Y-134753636D01*
X135496517Y-134770890D01*
X135499127Y-134788484D01*
X135500000Y-134806250D01*
X135500000Y-135593750D01*
X135499127Y-135611516D01*
X135496517Y-135629110D01*
X135492195Y-135646364D01*
X135486203Y-135663111D01*
X135478598Y-135679191D01*
X135469454Y-135694447D01*
X135458858Y-135708734D01*
X135446913Y-135721913D01*
X135433734Y-135733858D01*
X135419447Y-135744454D01*
X135404191Y-135753598D01*
X135388111Y-135761203D01*
X135371364Y-135767195D01*
X135354110Y-135771517D01*
X135336516Y-135774127D01*
X135318750Y-135775000D01*
X134956250Y-135775000D01*
X134938484Y-135774127D01*
X134920890Y-135771517D01*
X134903636Y-135767195D01*
X134886889Y-135761203D01*
X134870809Y-135753598D01*
X134855553Y-135744454D01*
X134841266Y-135733858D01*
X134828087Y-135721913D01*
X134816142Y-135708734D01*
X134805546Y-135694447D01*
X134796402Y-135679191D01*
X134788797Y-135663111D01*
X134782805Y-135646364D01*
X134778483Y-135629110D01*
X134775873Y-135611516D01*
X134775000Y-135593750D01*
X134775000Y-134806250D01*
X134775873Y-134788484D01*
X134778483Y-134770890D01*
X134782805Y-134753636D01*
X134788797Y-134736889D01*
X134796402Y-134720809D01*
X134805546Y-134705553D01*
X134816142Y-134691266D01*
X134828087Y-134678087D01*
X134841266Y-134666142D01*
X134855553Y-134655546D01*
X134870809Y-134646402D01*
X134886889Y-134638797D01*
X134903636Y-134632805D01*
X134920890Y-134628483D01*
X134938484Y-134625873D01*
X134956250Y-134625000D01*
X135318750Y-134625000D01*
X135336516Y-134625873D01*
X135336516Y-134625873D01*
G37*
D11*
X135137500Y-135200000D03*
G04 #@! TD*
D10*
G04 #@! TO.C,R18*
G36*
X144911516Y-108075873D02*
X144929110Y-108078483D01*
X144946364Y-108082805D01*
X144963111Y-108088797D01*
X144979191Y-108096402D01*
X144994447Y-108105546D01*
X145008734Y-108116142D01*
X145021913Y-108128087D01*
X145033858Y-108141266D01*
X145044454Y-108155553D01*
X145053598Y-108170809D01*
X145061203Y-108186889D01*
X145067195Y-108203636D01*
X145071517Y-108220890D01*
X145074127Y-108238484D01*
X145075000Y-108256250D01*
X145075000Y-108618750D01*
X145074127Y-108636516D01*
X145071517Y-108654110D01*
X145067195Y-108671364D01*
X145061203Y-108688111D01*
X145053598Y-108704191D01*
X145044454Y-108719447D01*
X145033858Y-108733734D01*
X145021913Y-108746913D01*
X145008734Y-108758858D01*
X144994447Y-108769454D01*
X144979191Y-108778598D01*
X144963111Y-108786203D01*
X144946364Y-108792195D01*
X144929110Y-108796517D01*
X144911516Y-108799127D01*
X144893750Y-108800000D01*
X144106250Y-108800000D01*
X144088484Y-108799127D01*
X144070890Y-108796517D01*
X144053636Y-108792195D01*
X144036889Y-108786203D01*
X144020809Y-108778598D01*
X144005553Y-108769454D01*
X143991266Y-108758858D01*
X143978087Y-108746913D01*
X143966142Y-108733734D01*
X143955546Y-108719447D01*
X143946402Y-108704191D01*
X143938797Y-108688111D01*
X143932805Y-108671364D01*
X143928483Y-108654110D01*
X143925873Y-108636516D01*
X143925000Y-108618750D01*
X143925000Y-108256250D01*
X143925873Y-108238484D01*
X143928483Y-108220890D01*
X143932805Y-108203636D01*
X143938797Y-108186889D01*
X143946402Y-108170809D01*
X143955546Y-108155553D01*
X143966142Y-108141266D01*
X143978087Y-108128087D01*
X143991266Y-108116142D01*
X144005553Y-108105546D01*
X144020809Y-108096402D01*
X144036889Y-108088797D01*
X144053636Y-108082805D01*
X144070890Y-108078483D01*
X144088484Y-108075873D01*
X144106250Y-108075000D01*
X144893750Y-108075000D01*
X144911516Y-108075873D01*
X144911516Y-108075873D01*
G37*
D11*
X144500000Y-108437500D03*
D10*
G36*
X144911516Y-106200873D02*
X144929110Y-106203483D01*
X144946364Y-106207805D01*
X144963111Y-106213797D01*
X144979191Y-106221402D01*
X144994447Y-106230546D01*
X145008734Y-106241142D01*
X145021913Y-106253087D01*
X145033858Y-106266266D01*
X145044454Y-106280553D01*
X145053598Y-106295809D01*
X145061203Y-106311889D01*
X145067195Y-106328636D01*
X145071517Y-106345890D01*
X145074127Y-106363484D01*
X145075000Y-106381250D01*
X145075000Y-106743750D01*
X145074127Y-106761516D01*
X145071517Y-106779110D01*
X145067195Y-106796364D01*
X145061203Y-106813111D01*
X145053598Y-106829191D01*
X145044454Y-106844447D01*
X145033858Y-106858734D01*
X145021913Y-106871913D01*
X145008734Y-106883858D01*
X144994447Y-106894454D01*
X144979191Y-106903598D01*
X144963111Y-106911203D01*
X144946364Y-106917195D01*
X144929110Y-106921517D01*
X144911516Y-106924127D01*
X144893750Y-106925000D01*
X144106250Y-106925000D01*
X144088484Y-106924127D01*
X144070890Y-106921517D01*
X144053636Y-106917195D01*
X144036889Y-106911203D01*
X144020809Y-106903598D01*
X144005553Y-106894454D01*
X143991266Y-106883858D01*
X143978087Y-106871913D01*
X143966142Y-106858734D01*
X143955546Y-106844447D01*
X143946402Y-106829191D01*
X143938797Y-106813111D01*
X143932805Y-106796364D01*
X143928483Y-106779110D01*
X143925873Y-106761516D01*
X143925000Y-106743750D01*
X143925000Y-106381250D01*
X143925873Y-106363484D01*
X143928483Y-106345890D01*
X143932805Y-106328636D01*
X143938797Y-106311889D01*
X143946402Y-106295809D01*
X143955546Y-106280553D01*
X143966142Y-106266266D01*
X143978087Y-106253087D01*
X143991266Y-106241142D01*
X144005553Y-106230546D01*
X144020809Y-106221402D01*
X144036889Y-106213797D01*
X144053636Y-106207805D01*
X144070890Y-106203483D01*
X144088484Y-106200873D01*
X144106250Y-106200000D01*
X144893750Y-106200000D01*
X144911516Y-106200873D01*
X144911516Y-106200873D01*
G37*
D11*
X144500000Y-106562500D03*
G04 #@! TD*
D10*
G04 #@! TO.C,R12*
G36*
X140674016Y-134625873D02*
X140691610Y-134628483D01*
X140708864Y-134632805D01*
X140725611Y-134638797D01*
X140741691Y-134646402D01*
X140756947Y-134655546D01*
X140771234Y-134666142D01*
X140784413Y-134678087D01*
X140796358Y-134691266D01*
X140806954Y-134705553D01*
X140816098Y-134720809D01*
X140823703Y-134736889D01*
X140829695Y-134753636D01*
X140834017Y-134770890D01*
X140836627Y-134788484D01*
X140837500Y-134806250D01*
X140837500Y-135593750D01*
X140836627Y-135611516D01*
X140834017Y-135629110D01*
X140829695Y-135646364D01*
X140823703Y-135663111D01*
X140816098Y-135679191D01*
X140806954Y-135694447D01*
X140796358Y-135708734D01*
X140784413Y-135721913D01*
X140771234Y-135733858D01*
X140756947Y-135744454D01*
X140741691Y-135753598D01*
X140725611Y-135761203D01*
X140708864Y-135767195D01*
X140691610Y-135771517D01*
X140674016Y-135774127D01*
X140656250Y-135775000D01*
X140293750Y-135775000D01*
X140275984Y-135774127D01*
X140258390Y-135771517D01*
X140241136Y-135767195D01*
X140224389Y-135761203D01*
X140208309Y-135753598D01*
X140193053Y-135744454D01*
X140178766Y-135733858D01*
X140165587Y-135721913D01*
X140153642Y-135708734D01*
X140143046Y-135694447D01*
X140133902Y-135679191D01*
X140126297Y-135663111D01*
X140120305Y-135646364D01*
X140115983Y-135629110D01*
X140113373Y-135611516D01*
X140112500Y-135593750D01*
X140112500Y-134806250D01*
X140113373Y-134788484D01*
X140115983Y-134770890D01*
X140120305Y-134753636D01*
X140126297Y-134736889D01*
X140133902Y-134720809D01*
X140143046Y-134705553D01*
X140153642Y-134691266D01*
X140165587Y-134678087D01*
X140178766Y-134666142D01*
X140193053Y-134655546D01*
X140208309Y-134646402D01*
X140224389Y-134638797D01*
X140241136Y-134632805D01*
X140258390Y-134628483D01*
X140275984Y-134625873D01*
X140293750Y-134625000D01*
X140656250Y-134625000D01*
X140674016Y-134625873D01*
X140674016Y-134625873D01*
G37*
D11*
X140475000Y-135200000D03*
D10*
G36*
X138799016Y-134625873D02*
X138816610Y-134628483D01*
X138833864Y-134632805D01*
X138850611Y-134638797D01*
X138866691Y-134646402D01*
X138881947Y-134655546D01*
X138896234Y-134666142D01*
X138909413Y-134678087D01*
X138921358Y-134691266D01*
X138931954Y-134705553D01*
X138941098Y-134720809D01*
X138948703Y-134736889D01*
X138954695Y-134753636D01*
X138959017Y-134770890D01*
X138961627Y-134788484D01*
X138962500Y-134806250D01*
X138962500Y-135593750D01*
X138961627Y-135611516D01*
X138959017Y-135629110D01*
X138954695Y-135646364D01*
X138948703Y-135663111D01*
X138941098Y-135679191D01*
X138931954Y-135694447D01*
X138921358Y-135708734D01*
X138909413Y-135721913D01*
X138896234Y-135733858D01*
X138881947Y-135744454D01*
X138866691Y-135753598D01*
X138850611Y-135761203D01*
X138833864Y-135767195D01*
X138816610Y-135771517D01*
X138799016Y-135774127D01*
X138781250Y-135775000D01*
X138418750Y-135775000D01*
X138400984Y-135774127D01*
X138383390Y-135771517D01*
X138366136Y-135767195D01*
X138349389Y-135761203D01*
X138333309Y-135753598D01*
X138318053Y-135744454D01*
X138303766Y-135733858D01*
X138290587Y-135721913D01*
X138278642Y-135708734D01*
X138268046Y-135694447D01*
X138258902Y-135679191D01*
X138251297Y-135663111D01*
X138245305Y-135646364D01*
X138240983Y-135629110D01*
X138238373Y-135611516D01*
X138237500Y-135593750D01*
X138237500Y-134806250D01*
X138238373Y-134788484D01*
X138240983Y-134770890D01*
X138245305Y-134753636D01*
X138251297Y-134736889D01*
X138258902Y-134720809D01*
X138268046Y-134705553D01*
X138278642Y-134691266D01*
X138290587Y-134678087D01*
X138303766Y-134666142D01*
X138318053Y-134655546D01*
X138333309Y-134646402D01*
X138349389Y-134638797D01*
X138366136Y-134632805D01*
X138383390Y-134628483D01*
X138400984Y-134625873D01*
X138418750Y-134625000D01*
X138781250Y-134625000D01*
X138799016Y-134625873D01*
X138799016Y-134625873D01*
G37*
D11*
X138600000Y-135200000D03*
G04 #@! TD*
D10*
G04 #@! TO.C,R13*
G36*
X141636516Y-88825873D02*
X141654110Y-88828483D01*
X141671364Y-88832805D01*
X141688111Y-88838797D01*
X141704191Y-88846402D01*
X141719447Y-88855546D01*
X141733734Y-88866142D01*
X141746913Y-88878087D01*
X141758858Y-88891266D01*
X141769454Y-88905553D01*
X141778598Y-88920809D01*
X141786203Y-88936889D01*
X141792195Y-88953636D01*
X141796517Y-88970890D01*
X141799127Y-88988484D01*
X141800000Y-89006250D01*
X141800000Y-89793750D01*
X141799127Y-89811516D01*
X141796517Y-89829110D01*
X141792195Y-89846364D01*
X141786203Y-89863111D01*
X141778598Y-89879191D01*
X141769454Y-89894447D01*
X141758858Y-89908734D01*
X141746913Y-89921913D01*
X141733734Y-89933858D01*
X141719447Y-89944454D01*
X141704191Y-89953598D01*
X141688111Y-89961203D01*
X141671364Y-89967195D01*
X141654110Y-89971517D01*
X141636516Y-89974127D01*
X141618750Y-89975000D01*
X141256250Y-89975000D01*
X141238484Y-89974127D01*
X141220890Y-89971517D01*
X141203636Y-89967195D01*
X141186889Y-89961203D01*
X141170809Y-89953598D01*
X141155553Y-89944454D01*
X141141266Y-89933858D01*
X141128087Y-89921913D01*
X141116142Y-89908734D01*
X141105546Y-89894447D01*
X141096402Y-89879191D01*
X141088797Y-89863111D01*
X141082805Y-89846364D01*
X141078483Y-89829110D01*
X141075873Y-89811516D01*
X141075000Y-89793750D01*
X141075000Y-89006250D01*
X141075873Y-88988484D01*
X141078483Y-88970890D01*
X141082805Y-88953636D01*
X141088797Y-88936889D01*
X141096402Y-88920809D01*
X141105546Y-88905553D01*
X141116142Y-88891266D01*
X141128087Y-88878087D01*
X141141266Y-88866142D01*
X141155553Y-88855546D01*
X141170809Y-88846402D01*
X141186889Y-88838797D01*
X141203636Y-88832805D01*
X141220890Y-88828483D01*
X141238484Y-88825873D01*
X141256250Y-88825000D01*
X141618750Y-88825000D01*
X141636516Y-88825873D01*
X141636516Y-88825873D01*
G37*
D11*
X141437500Y-89400000D03*
D10*
G36*
X139761516Y-88825873D02*
X139779110Y-88828483D01*
X139796364Y-88832805D01*
X139813111Y-88838797D01*
X139829191Y-88846402D01*
X139844447Y-88855546D01*
X139858734Y-88866142D01*
X139871913Y-88878087D01*
X139883858Y-88891266D01*
X139894454Y-88905553D01*
X139903598Y-88920809D01*
X139911203Y-88936889D01*
X139917195Y-88953636D01*
X139921517Y-88970890D01*
X139924127Y-88988484D01*
X139925000Y-89006250D01*
X139925000Y-89793750D01*
X139924127Y-89811516D01*
X139921517Y-89829110D01*
X139917195Y-89846364D01*
X139911203Y-89863111D01*
X139903598Y-89879191D01*
X139894454Y-89894447D01*
X139883858Y-89908734D01*
X139871913Y-89921913D01*
X139858734Y-89933858D01*
X139844447Y-89944454D01*
X139829191Y-89953598D01*
X139813111Y-89961203D01*
X139796364Y-89967195D01*
X139779110Y-89971517D01*
X139761516Y-89974127D01*
X139743750Y-89975000D01*
X139381250Y-89975000D01*
X139363484Y-89974127D01*
X139345890Y-89971517D01*
X139328636Y-89967195D01*
X139311889Y-89961203D01*
X139295809Y-89953598D01*
X139280553Y-89944454D01*
X139266266Y-89933858D01*
X139253087Y-89921913D01*
X139241142Y-89908734D01*
X139230546Y-89894447D01*
X139221402Y-89879191D01*
X139213797Y-89863111D01*
X139207805Y-89846364D01*
X139203483Y-89829110D01*
X139200873Y-89811516D01*
X139200000Y-89793750D01*
X139200000Y-89006250D01*
X139200873Y-88988484D01*
X139203483Y-88970890D01*
X139207805Y-88953636D01*
X139213797Y-88936889D01*
X139221402Y-88920809D01*
X139230546Y-88905553D01*
X139241142Y-88891266D01*
X139253087Y-88878087D01*
X139266266Y-88866142D01*
X139280553Y-88855546D01*
X139295809Y-88846402D01*
X139311889Y-88838797D01*
X139328636Y-88832805D01*
X139345890Y-88828483D01*
X139363484Y-88825873D01*
X139381250Y-88825000D01*
X139743750Y-88825000D01*
X139761516Y-88825873D01*
X139761516Y-88825873D01*
G37*
D11*
X139562500Y-89400000D03*
G04 #@! TD*
D10*
G04 #@! TO.C,C6*
G36*
X130661516Y-88825873D02*
X130679110Y-88828483D01*
X130696364Y-88832805D01*
X130713111Y-88838797D01*
X130729191Y-88846402D01*
X130744447Y-88855546D01*
X130758734Y-88866142D01*
X130771913Y-88878087D01*
X130783858Y-88891266D01*
X130794454Y-88905553D01*
X130803598Y-88920809D01*
X130811203Y-88936889D01*
X130817195Y-88953636D01*
X130821517Y-88970890D01*
X130824127Y-88988484D01*
X130825000Y-89006250D01*
X130825000Y-89793750D01*
X130824127Y-89811516D01*
X130821517Y-89829110D01*
X130817195Y-89846364D01*
X130811203Y-89863111D01*
X130803598Y-89879191D01*
X130794454Y-89894447D01*
X130783858Y-89908734D01*
X130771913Y-89921913D01*
X130758734Y-89933858D01*
X130744447Y-89944454D01*
X130729191Y-89953598D01*
X130713111Y-89961203D01*
X130696364Y-89967195D01*
X130679110Y-89971517D01*
X130661516Y-89974127D01*
X130643750Y-89975000D01*
X130281250Y-89975000D01*
X130263484Y-89974127D01*
X130245890Y-89971517D01*
X130228636Y-89967195D01*
X130211889Y-89961203D01*
X130195809Y-89953598D01*
X130180553Y-89944454D01*
X130166266Y-89933858D01*
X130153087Y-89921913D01*
X130141142Y-89908734D01*
X130130546Y-89894447D01*
X130121402Y-89879191D01*
X130113797Y-89863111D01*
X130107805Y-89846364D01*
X130103483Y-89829110D01*
X130100873Y-89811516D01*
X130100000Y-89793750D01*
X130100000Y-89006250D01*
X130100873Y-88988484D01*
X130103483Y-88970890D01*
X130107805Y-88953636D01*
X130113797Y-88936889D01*
X130121402Y-88920809D01*
X130130546Y-88905553D01*
X130141142Y-88891266D01*
X130153087Y-88878087D01*
X130166266Y-88866142D01*
X130180553Y-88855546D01*
X130195809Y-88846402D01*
X130211889Y-88838797D01*
X130228636Y-88832805D01*
X130245890Y-88828483D01*
X130263484Y-88825873D01*
X130281250Y-88825000D01*
X130643750Y-88825000D01*
X130661516Y-88825873D01*
X130661516Y-88825873D01*
G37*
D11*
X130462500Y-89400000D03*
D10*
G36*
X132536516Y-88825873D02*
X132554110Y-88828483D01*
X132571364Y-88832805D01*
X132588111Y-88838797D01*
X132604191Y-88846402D01*
X132619447Y-88855546D01*
X132633734Y-88866142D01*
X132646913Y-88878087D01*
X132658858Y-88891266D01*
X132669454Y-88905553D01*
X132678598Y-88920809D01*
X132686203Y-88936889D01*
X132692195Y-88953636D01*
X132696517Y-88970890D01*
X132699127Y-88988484D01*
X132700000Y-89006250D01*
X132700000Y-89793750D01*
X132699127Y-89811516D01*
X132696517Y-89829110D01*
X132692195Y-89846364D01*
X132686203Y-89863111D01*
X132678598Y-89879191D01*
X132669454Y-89894447D01*
X132658858Y-89908734D01*
X132646913Y-89921913D01*
X132633734Y-89933858D01*
X132619447Y-89944454D01*
X132604191Y-89953598D01*
X132588111Y-89961203D01*
X132571364Y-89967195D01*
X132554110Y-89971517D01*
X132536516Y-89974127D01*
X132518750Y-89975000D01*
X132156250Y-89975000D01*
X132138484Y-89974127D01*
X132120890Y-89971517D01*
X132103636Y-89967195D01*
X132086889Y-89961203D01*
X132070809Y-89953598D01*
X132055553Y-89944454D01*
X132041266Y-89933858D01*
X132028087Y-89921913D01*
X132016142Y-89908734D01*
X132005546Y-89894447D01*
X131996402Y-89879191D01*
X131988797Y-89863111D01*
X131982805Y-89846364D01*
X131978483Y-89829110D01*
X131975873Y-89811516D01*
X131975000Y-89793750D01*
X131975000Y-89006250D01*
X131975873Y-88988484D01*
X131978483Y-88970890D01*
X131982805Y-88953636D01*
X131988797Y-88936889D01*
X131996402Y-88920809D01*
X132005546Y-88905553D01*
X132016142Y-88891266D01*
X132028087Y-88878087D01*
X132041266Y-88866142D01*
X132055553Y-88855546D01*
X132070809Y-88846402D01*
X132086889Y-88838797D01*
X132103636Y-88832805D01*
X132120890Y-88828483D01*
X132138484Y-88825873D01*
X132156250Y-88825000D01*
X132518750Y-88825000D01*
X132536516Y-88825873D01*
X132536516Y-88825873D01*
G37*
D11*
X132337500Y-89400000D03*
G04 #@! TD*
D10*
G04 #@! TO.C,C5*
G36*
X131564065Y-111988493D02*
X131584076Y-111991461D01*
X131603699Y-111996376D01*
X131622746Y-112003191D01*
X131641034Y-112011841D01*
X131658385Y-112022241D01*
X131674634Y-112034292D01*
X131689623Y-112047877D01*
X131703208Y-112062866D01*
X131715259Y-112079115D01*
X131725659Y-112096466D01*
X131734309Y-112114754D01*
X131741124Y-112133801D01*
X131746039Y-112153424D01*
X131749007Y-112173435D01*
X131750000Y-112193640D01*
X131750000Y-112956360D01*
X131749007Y-112976565D01*
X131746039Y-112996576D01*
X131741124Y-113016199D01*
X131734309Y-113035246D01*
X131725659Y-113053534D01*
X131715259Y-113070885D01*
X131703208Y-113087134D01*
X131689623Y-113102123D01*
X131674634Y-113115708D01*
X131658385Y-113127759D01*
X131641034Y-113138159D01*
X131622746Y-113146809D01*
X131603699Y-113153624D01*
X131584076Y-113158539D01*
X131564065Y-113161507D01*
X131543860Y-113162500D01*
X130456140Y-113162500D01*
X130435935Y-113161507D01*
X130415924Y-113158539D01*
X130396301Y-113153624D01*
X130377254Y-113146809D01*
X130358966Y-113138159D01*
X130341615Y-113127759D01*
X130325366Y-113115708D01*
X130310377Y-113102123D01*
X130296792Y-113087134D01*
X130284741Y-113070885D01*
X130274341Y-113053534D01*
X130265691Y-113035246D01*
X130258876Y-113016199D01*
X130253961Y-112996576D01*
X130250993Y-112976565D01*
X130250000Y-112956360D01*
X130250000Y-112193640D01*
X130250993Y-112173435D01*
X130253961Y-112153424D01*
X130258876Y-112133801D01*
X130265691Y-112114754D01*
X130274341Y-112096466D01*
X130284741Y-112079115D01*
X130296792Y-112062866D01*
X130310377Y-112047877D01*
X130325366Y-112034292D01*
X130341615Y-112022241D01*
X130358966Y-112011841D01*
X130377254Y-112003191D01*
X130396301Y-111996376D01*
X130415924Y-111991461D01*
X130435935Y-111988493D01*
X130456140Y-111987500D01*
X131543860Y-111987500D01*
X131564065Y-111988493D01*
X131564065Y-111988493D01*
G37*
D13*
X131000000Y-112575000D03*
D10*
G36*
X131564065Y-114963493D02*
X131584076Y-114966461D01*
X131603699Y-114971376D01*
X131622746Y-114978191D01*
X131641034Y-114986841D01*
X131658385Y-114997241D01*
X131674634Y-115009292D01*
X131689623Y-115022877D01*
X131703208Y-115037866D01*
X131715259Y-115054115D01*
X131725659Y-115071466D01*
X131734309Y-115089754D01*
X131741124Y-115108801D01*
X131746039Y-115128424D01*
X131749007Y-115148435D01*
X131750000Y-115168640D01*
X131750000Y-115931360D01*
X131749007Y-115951565D01*
X131746039Y-115971576D01*
X131741124Y-115991199D01*
X131734309Y-116010246D01*
X131725659Y-116028534D01*
X131715259Y-116045885D01*
X131703208Y-116062134D01*
X131689623Y-116077123D01*
X131674634Y-116090708D01*
X131658385Y-116102759D01*
X131641034Y-116113159D01*
X131622746Y-116121809D01*
X131603699Y-116128624D01*
X131584076Y-116133539D01*
X131564065Y-116136507D01*
X131543860Y-116137500D01*
X130456140Y-116137500D01*
X130435935Y-116136507D01*
X130415924Y-116133539D01*
X130396301Y-116128624D01*
X130377254Y-116121809D01*
X130358966Y-116113159D01*
X130341615Y-116102759D01*
X130325366Y-116090708D01*
X130310377Y-116077123D01*
X130296792Y-116062134D01*
X130284741Y-116045885D01*
X130274341Y-116028534D01*
X130265691Y-116010246D01*
X130258876Y-115991199D01*
X130253961Y-115971576D01*
X130250993Y-115951565D01*
X130250000Y-115931360D01*
X130250000Y-115168640D01*
X130250993Y-115148435D01*
X130253961Y-115128424D01*
X130258876Y-115108801D01*
X130265691Y-115089754D01*
X130274341Y-115071466D01*
X130284741Y-115054115D01*
X130296792Y-115037866D01*
X130310377Y-115022877D01*
X130325366Y-115009292D01*
X130341615Y-114997241D01*
X130358966Y-114986841D01*
X130377254Y-114978191D01*
X130396301Y-114971376D01*
X130415924Y-114966461D01*
X130435935Y-114963493D01*
X130456140Y-114962500D01*
X131543860Y-114962500D01*
X131564065Y-114963493D01*
X131564065Y-114963493D01*
G37*
D13*
X131000000Y-115550000D03*
G04 #@! TD*
D10*
G04 #@! TO.C,C1*
G36*
X106599016Y-92425873D02*
X106616610Y-92428483D01*
X106633864Y-92432805D01*
X106650611Y-92438797D01*
X106666691Y-92446402D01*
X106681947Y-92455546D01*
X106696234Y-92466142D01*
X106709413Y-92478087D01*
X106721358Y-92491266D01*
X106731954Y-92505553D01*
X106741098Y-92520809D01*
X106748703Y-92536889D01*
X106754695Y-92553636D01*
X106759017Y-92570890D01*
X106761627Y-92588484D01*
X106762500Y-92606250D01*
X106762500Y-93393750D01*
X106761627Y-93411516D01*
X106759017Y-93429110D01*
X106754695Y-93446364D01*
X106748703Y-93463111D01*
X106741098Y-93479191D01*
X106731954Y-93494447D01*
X106721358Y-93508734D01*
X106709413Y-93521913D01*
X106696234Y-93533858D01*
X106681947Y-93544454D01*
X106666691Y-93553598D01*
X106650611Y-93561203D01*
X106633864Y-93567195D01*
X106616610Y-93571517D01*
X106599016Y-93574127D01*
X106581250Y-93575000D01*
X106218750Y-93575000D01*
X106200984Y-93574127D01*
X106183390Y-93571517D01*
X106166136Y-93567195D01*
X106149389Y-93561203D01*
X106133309Y-93553598D01*
X106118053Y-93544454D01*
X106103766Y-93533858D01*
X106090587Y-93521913D01*
X106078642Y-93508734D01*
X106068046Y-93494447D01*
X106058902Y-93479191D01*
X106051297Y-93463111D01*
X106045305Y-93446364D01*
X106040983Y-93429110D01*
X106038373Y-93411516D01*
X106037500Y-93393750D01*
X106037500Y-92606250D01*
X106038373Y-92588484D01*
X106040983Y-92570890D01*
X106045305Y-92553636D01*
X106051297Y-92536889D01*
X106058902Y-92520809D01*
X106068046Y-92505553D01*
X106078642Y-92491266D01*
X106090587Y-92478087D01*
X106103766Y-92466142D01*
X106118053Y-92455546D01*
X106133309Y-92446402D01*
X106149389Y-92438797D01*
X106166136Y-92432805D01*
X106183390Y-92428483D01*
X106200984Y-92425873D01*
X106218750Y-92425000D01*
X106581250Y-92425000D01*
X106599016Y-92425873D01*
X106599016Y-92425873D01*
G37*
D11*
X106400000Y-93000000D03*
D10*
G36*
X104724016Y-92425873D02*
X104741610Y-92428483D01*
X104758864Y-92432805D01*
X104775611Y-92438797D01*
X104791691Y-92446402D01*
X104806947Y-92455546D01*
X104821234Y-92466142D01*
X104834413Y-92478087D01*
X104846358Y-92491266D01*
X104856954Y-92505553D01*
X104866098Y-92520809D01*
X104873703Y-92536889D01*
X104879695Y-92553636D01*
X104884017Y-92570890D01*
X104886627Y-92588484D01*
X104887500Y-92606250D01*
X104887500Y-93393750D01*
X104886627Y-93411516D01*
X104884017Y-93429110D01*
X104879695Y-93446364D01*
X104873703Y-93463111D01*
X104866098Y-93479191D01*
X104856954Y-93494447D01*
X104846358Y-93508734D01*
X104834413Y-93521913D01*
X104821234Y-93533858D01*
X104806947Y-93544454D01*
X104791691Y-93553598D01*
X104775611Y-93561203D01*
X104758864Y-93567195D01*
X104741610Y-93571517D01*
X104724016Y-93574127D01*
X104706250Y-93575000D01*
X104343750Y-93575000D01*
X104325984Y-93574127D01*
X104308390Y-93571517D01*
X104291136Y-93567195D01*
X104274389Y-93561203D01*
X104258309Y-93553598D01*
X104243053Y-93544454D01*
X104228766Y-93533858D01*
X104215587Y-93521913D01*
X104203642Y-93508734D01*
X104193046Y-93494447D01*
X104183902Y-93479191D01*
X104176297Y-93463111D01*
X104170305Y-93446364D01*
X104165983Y-93429110D01*
X104163373Y-93411516D01*
X104162500Y-93393750D01*
X104162500Y-92606250D01*
X104163373Y-92588484D01*
X104165983Y-92570890D01*
X104170305Y-92553636D01*
X104176297Y-92536889D01*
X104183902Y-92520809D01*
X104193046Y-92505553D01*
X104203642Y-92491266D01*
X104215587Y-92478087D01*
X104228766Y-92466142D01*
X104243053Y-92455546D01*
X104258309Y-92446402D01*
X104274389Y-92438797D01*
X104291136Y-92432805D01*
X104308390Y-92428483D01*
X104325984Y-92425873D01*
X104343750Y-92425000D01*
X104706250Y-92425000D01*
X104724016Y-92425873D01*
X104724016Y-92425873D01*
G37*
D11*
X104525000Y-93000000D03*
G04 #@! TD*
D12*
G04 #@! TO.C,D17*
X103962500Y-89600000D03*
X106962500Y-89600000D03*
G04 #@! TD*
G04 #@! TO.C,D12*
X132330310Y-92249079D03*
X129330310Y-92249079D03*
G04 #@! TD*
G04 #@! TO.C,D3*
X138000000Y-115562500D03*
X138000000Y-112562500D03*
G04 #@! TD*
D15*
G04 #@! TO.C,D51*
X128830310Y-102000000D03*
X128830310Y-106000000D03*
G04 #@! TD*
D16*
G04 #@! TO.C,U1*
X122500000Y-118000000D03*
D10*
G36*
X121705000Y-119180000D02*
X121702598Y-119155614D01*
X121695485Y-119132165D01*
X121683934Y-119110554D01*
X121668388Y-119091612D01*
X121649446Y-119076066D01*
X121627835Y-119064515D01*
X121604386Y-119057402D01*
X121580000Y-119055000D01*
X121135000Y-119055000D01*
X121135000Y-116455000D01*
X123035000Y-116455000D01*
X123035000Y-116730000D01*
X123037402Y-116754386D01*
X123044515Y-116777835D01*
X123056066Y-116799446D01*
X123071612Y-116818388D01*
X123090554Y-116833934D01*
X123112165Y-116845485D01*
X123135614Y-116852598D01*
X123160000Y-116855000D01*
X123775000Y-116855000D01*
X123775000Y-118775000D01*
X123160000Y-118775000D01*
X123135614Y-118777402D01*
X123112165Y-118784515D01*
X123090554Y-118796066D01*
X123071612Y-118811612D01*
X123056066Y-118830554D01*
X123044515Y-118852165D01*
X123037402Y-118875614D01*
X123035000Y-118900000D01*
X123035000Y-119055000D01*
X123020000Y-119055000D01*
X122995614Y-119057402D01*
X122972165Y-119064515D01*
X122950554Y-119076066D01*
X122931612Y-119091612D01*
X122916066Y-119110554D01*
X122904515Y-119132165D01*
X122897402Y-119155614D01*
X122895000Y-119180000D01*
X122895000Y-119775000D01*
X121705000Y-119775000D01*
X121705000Y-119180000D01*
X121705000Y-119180000D01*
G37*
D16*
X113500000Y-107000000D03*
D10*
G36*
X114295000Y-105820000D02*
X114297402Y-105844386D01*
X114304515Y-105867835D01*
X114316066Y-105889446D01*
X114331612Y-105908388D01*
X114350554Y-105923934D01*
X114372165Y-105935485D01*
X114395614Y-105942598D01*
X114420000Y-105945000D01*
X114865000Y-105945000D01*
X114865000Y-108545000D01*
X112965000Y-108545000D01*
X112965000Y-108270000D01*
X112962598Y-108245614D01*
X112955485Y-108222165D01*
X112943934Y-108200554D01*
X112928388Y-108181612D01*
X112909446Y-108166066D01*
X112887835Y-108154515D01*
X112864386Y-108147402D01*
X112840000Y-108145000D01*
X112225000Y-108145000D01*
X112225000Y-106225000D01*
X112840000Y-106225000D01*
X112864386Y-106222598D01*
X112887835Y-106215485D01*
X112909446Y-106203934D01*
X112928388Y-106188388D01*
X112943934Y-106169446D01*
X112955485Y-106147835D01*
X112962598Y-106124386D01*
X112965000Y-106100000D01*
X112965000Y-105945000D01*
X112980000Y-105945000D01*
X113004386Y-105942598D01*
X113027835Y-105935485D01*
X113049446Y-105923934D01*
X113068388Y-105908388D01*
X113083934Y-105889446D01*
X113095485Y-105867835D01*
X113102598Y-105844386D01*
X113105000Y-105820000D01*
X113105000Y-105225000D01*
X114295000Y-105225000D01*
X114295000Y-105820000D01*
X114295000Y-105820000D01*
G37*
D16*
X122500000Y-107000000D03*
D10*
G36*
X121135000Y-105945000D02*
X121580000Y-105945000D01*
X121604386Y-105942598D01*
X121627835Y-105935485D01*
X121649446Y-105923934D01*
X121668388Y-105908388D01*
X121683934Y-105889446D01*
X121695485Y-105867835D01*
X121702598Y-105844386D01*
X121705000Y-105820000D01*
X121705000Y-105225000D01*
X122895000Y-105225000D01*
X122895000Y-105820000D01*
X122897402Y-105844386D01*
X122904515Y-105867835D01*
X122916066Y-105889446D01*
X122931612Y-105908388D01*
X122950554Y-105923934D01*
X122972165Y-105935485D01*
X122995614Y-105942598D01*
X123020000Y-105945000D01*
X123035000Y-105945000D01*
X123035000Y-106100000D01*
X123037402Y-106124386D01*
X123044515Y-106147835D01*
X123056066Y-106169446D01*
X123071612Y-106188388D01*
X123090554Y-106203934D01*
X123112165Y-106215485D01*
X123135614Y-106222598D01*
X123160000Y-106225000D01*
X123775000Y-106225000D01*
X123775000Y-108145000D01*
X123160000Y-108145000D01*
X123135614Y-108147402D01*
X123112165Y-108154515D01*
X123090554Y-108166066D01*
X123071612Y-108181612D01*
X123056066Y-108200554D01*
X123044515Y-108222165D01*
X123037402Y-108245614D01*
X123035000Y-108270000D01*
X123035000Y-108545000D01*
X121135000Y-108545000D01*
X121135000Y-105945000D01*
X121135000Y-105945000D01*
G37*
D16*
X113500000Y-118000000D03*
D10*
G36*
X114865000Y-119055000D02*
X114420000Y-119055000D01*
X114395614Y-119057402D01*
X114372165Y-119064515D01*
X114350554Y-119076066D01*
X114331612Y-119091612D01*
X114316066Y-119110554D01*
X114304515Y-119132165D01*
X114297402Y-119155614D01*
X114295000Y-119180000D01*
X114295000Y-119775000D01*
X113105000Y-119775000D01*
X113105000Y-119180000D01*
X113102598Y-119155614D01*
X113095485Y-119132165D01*
X113083934Y-119110554D01*
X113068388Y-119091612D01*
X113049446Y-119076066D01*
X113027835Y-119064515D01*
X113004386Y-119057402D01*
X112980000Y-119055000D01*
X112965000Y-119055000D01*
X112965000Y-118900000D01*
X112962598Y-118875614D01*
X112955485Y-118852165D01*
X112943934Y-118830554D01*
X112928388Y-118811612D01*
X112909446Y-118796066D01*
X112887835Y-118784515D01*
X112864386Y-118777402D01*
X112840000Y-118775000D01*
X112225000Y-118775000D01*
X112225000Y-116855000D01*
X112840000Y-116855000D01*
X112864386Y-116852598D01*
X112887835Y-116845485D01*
X112909446Y-116833934D01*
X112928388Y-116818388D01*
X112943934Y-116799446D01*
X112955485Y-116777835D01*
X112962598Y-116754386D01*
X112965000Y-116730000D01*
X112965000Y-116455000D01*
X114865000Y-116455000D01*
X114865000Y-119055000D01*
X114865000Y-119055000D01*
G37*
D17*
X119370000Y-108240000D03*
X116630000Y-108240000D03*
X119370000Y-116760000D03*
X116630000Y-116760000D03*
D18*
X118000000Y-112500000D03*
D19*
X119410000Y-119300000D03*
X116590000Y-119300000D03*
X116590000Y-105700000D03*
X119410000Y-105700000D03*
G04 #@! TD*
M02*
