G04 #@! TF.GenerationSoftware,KiCad,Pcbnew,5.0.0-fee4fd1~66~ubuntu16.04.1*
G04 #@! TF.CreationDate,2018-10-25T21:56:12-03:00*
G04 #@! TF.ProjectId,pap,7061702E6B696361645F706362000000,1.0*
G04 #@! TF.SameCoordinates,Original*
G04 #@! TF.FileFunction,Soldermask,Top*
G04 #@! TF.FilePolarity,Negative*
%FSLAX46Y46*%
G04 Gerber Fmt 4.6, Leading zero omitted, Abs format (unit mm)*
G04 Created by KiCad (PCBNEW 5.0.0-fee4fd1~66~ubuntu16.04.1) date Thu Oct 25 21:56:12 2018*
%MOMM*%
%LPD*%
G01*
G04 APERTURE LIST*
%ADD10C,0.150000*%
%ADD11C,2.250000*%
%ADD12O,5.250000X4.250000*%
%ADD13C,4.250000*%
%ADD14O,2.250000X1.750000*%
%ADD15C,3.750000*%
%ADD16C,1.250000*%
%ADD17C,1.650000*%
G04 APERTURE END LIST*
D10*
G36*
X115930310Y-109149079D02*
X117230310Y-109149079D01*
X117230310Y-106949079D01*
X117230310Y-106849079D01*
X117230310Y-101649079D01*
X127430310Y-91449079D01*
X136830310Y-91449079D01*
X137830310Y-90449079D01*
X145430310Y-90449079D01*
X145430310Y-89249079D01*
X137030310Y-89249079D01*
X136230310Y-90049079D01*
X126930310Y-90049079D01*
X115930310Y-101249079D01*
X115930310Y-109149079D01*
G37*
X115930310Y-109149079D02*
X117230310Y-109149079D01*
X117230310Y-106949079D01*
X117230310Y-106849079D01*
X117230310Y-101649079D01*
X127430310Y-91449079D01*
X136830310Y-91449079D01*
X137830310Y-90449079D01*
X145430310Y-90449079D01*
X145430310Y-89249079D01*
X137030310Y-89249079D01*
X136230310Y-90049079D01*
X126930310Y-90049079D01*
X115930310Y-101249079D01*
X115930310Y-109149079D01*
G36*
X116330310Y-111749079D02*
X116330310Y-113249079D01*
X139030310Y-113149079D01*
X143930310Y-108049079D01*
X146730310Y-108049079D01*
X146730310Y-106749079D01*
X143530310Y-106749079D01*
X138630310Y-111649079D01*
X116330310Y-111749079D01*
G37*
X116330310Y-111749079D02*
X116330310Y-113249079D01*
X139030310Y-113149079D01*
X143930310Y-108049079D01*
X146730310Y-108049079D01*
X146730310Y-106749079D01*
X143530310Y-106749079D01*
X138630310Y-111649079D01*
X116330310Y-111749079D01*
G36*
X118630310Y-115749079D02*
X118630310Y-117949079D01*
X118630310Y-118349079D01*
X118630310Y-120549079D01*
X130830310Y-132749079D01*
X137580310Y-132749079D01*
X139080310Y-131249079D01*
X145230310Y-131249079D01*
X145230310Y-129949079D01*
X138830310Y-129999079D01*
X137230310Y-131599079D01*
X131430310Y-131549079D01*
X120130310Y-120249079D01*
X120130310Y-118249079D01*
X120130310Y-117949079D01*
X120130310Y-115849079D01*
X118630310Y-115749079D01*
G37*
X118630310Y-115749079D02*
X118630310Y-117949079D01*
X118630310Y-118349079D01*
X118630310Y-120549079D01*
X130830310Y-132749079D01*
X137580310Y-132749079D01*
X139080310Y-131249079D01*
X145230310Y-131249079D01*
X145230310Y-129949079D01*
X138830310Y-129999079D01*
X137230310Y-131599079D01*
X131430310Y-131549079D01*
X120130310Y-120249079D01*
X120130310Y-118249079D01*
X120130310Y-117949079D01*
X120130310Y-115849079D01*
X118630310Y-115749079D01*
G36*
X115930310Y-115749079D02*
X115930310Y-117949079D01*
X115930310Y-118249079D01*
X115930310Y-122449079D01*
X129130310Y-135649079D01*
X145130310Y-135649079D01*
X145130310Y-134349079D01*
X129730310Y-134349079D01*
X117330310Y-121949079D01*
X117330310Y-118349079D01*
X117330310Y-118249079D01*
X117330310Y-117949079D01*
X117330310Y-115849079D01*
X115930310Y-115749079D01*
G37*
X115930310Y-115749079D02*
X115930310Y-117949079D01*
X115930310Y-118249079D01*
X115930310Y-122449079D01*
X129130310Y-135649079D01*
X145130310Y-135649079D01*
X145130310Y-134349079D01*
X129730310Y-134349079D01*
X117330310Y-121949079D01*
X117330310Y-118349079D01*
X117330310Y-118249079D01*
X117330310Y-117949079D01*
X117330310Y-115849079D01*
X115930310Y-115749079D01*
G36*
X118730310Y-109249079D02*
X118730310Y-106849079D01*
X118730310Y-106549079D01*
X118730310Y-103249079D01*
X129030310Y-93049079D01*
X141730310Y-93049079D01*
X142630310Y-93849079D01*
X145230310Y-93849079D01*
X145230310Y-95049079D01*
X142030310Y-95049079D01*
X141230310Y-94349079D01*
X129530310Y-94249079D01*
X120030310Y-103649079D01*
X120030310Y-106449079D01*
X120030310Y-106849079D01*
X120030310Y-109249079D01*
X118730310Y-109249079D01*
G37*
X118730310Y-109249079D02*
X118730310Y-106849079D01*
X118730310Y-106549079D01*
X118730310Y-103249079D01*
X129030310Y-93049079D01*
X141730310Y-93049079D01*
X142630310Y-93849079D01*
X145230310Y-93849079D01*
X145230310Y-95049079D01*
X142030310Y-95049079D01*
X141230310Y-94349079D01*
X129530310Y-94249079D01*
X120030310Y-103649079D01*
X120030310Y-106449079D01*
X120030310Y-106849079D01*
X120030310Y-109249079D01*
X118730310Y-109249079D01*
D11*
G04 #@! TO.C,D9*
X101500000Y-110810000D03*
X101500000Y-114110000D03*
G04 #@! TD*
G04 #@! TO.C,D6*
X101500000Y-123000000D03*
X101500000Y-120460000D03*
G04 #@! TD*
G04 #@! TO.C,D5*
X101500000Y-104500000D03*
X101500000Y-101960000D03*
G04 #@! TD*
G04 #@! TO.C,D13*
X101500000Y-94500000D03*
X101500000Y-91960000D03*
G04 #@! TD*
G04 #@! TO.C,D4*
X101500000Y-133040000D03*
X101500000Y-130500000D03*
G04 #@! TD*
G04 #@! TO.C,D7*
X144500000Y-137640000D03*
X144500000Y-135100000D03*
G04 #@! TD*
G04 #@! TO.C,D10*
X144600000Y-89840000D03*
X144600000Y-87300000D03*
G04 #@! TD*
G04 #@! TO.C,D8*
X144500000Y-130500000D03*
X144500000Y-127960000D03*
G04 #@! TD*
G04 #@! TO.C,D11*
X144600000Y-97000000D03*
X144600000Y-94460000D03*
G04 #@! TD*
G04 #@! TO.C,D14*
X144500000Y-113749079D03*
X144500000Y-111209079D03*
G04 #@! TD*
G04 #@! TO.C,C3*
X132779542Y-86704129D03*
X130430310Y-85849079D03*
G04 #@! TD*
D12*
G04 #@! TO.C,J53*
X148500000Y-89640000D03*
X148500000Y-94720000D03*
G04 #@! TD*
D13*
G04 #@! TO.C,MH101*
X122500000Y-137500000D03*
G04 #@! TD*
G04 #@! TO.C,MH102*
X122500000Y-87500000D03*
G04 #@! TD*
D14*
G04 #@! TO.C,J56*
X95250000Y-114038000D03*
X97794660Y-115045460D03*
X97794660Y-113016000D03*
X95250000Y-112000000D03*
X97794660Y-110986540D03*
X95250000Y-109970540D03*
G04 #@! TD*
G04 #@! TO.C,J55*
X95220000Y-99770540D03*
X95220000Y-101800000D03*
X97764660Y-100786540D03*
X97764660Y-98757080D03*
X95220000Y-97741080D03*
X97764660Y-96727620D03*
X95220000Y-95711620D03*
X97764660Y-94698160D03*
G04 #@! TD*
D12*
G04 #@! TO.C,J52*
X148500000Y-130280000D03*
X148500000Y-135360000D03*
G04 #@! TD*
D15*
G04 #@! TO.C,C51*
X136000000Y-122500000D03*
X141000000Y-122500000D03*
G04 #@! TD*
G04 #@! TO.C,C52*
X136000000Y-102000000D03*
X141000000Y-102000000D03*
G04 #@! TD*
D12*
G04 #@! TO.C,J51*
X148500000Y-104880000D03*
X148500000Y-109960000D03*
X148500000Y-115040000D03*
X148500000Y-120120000D03*
G04 #@! TD*
D14*
G04 #@! TO.C,J54*
X95255340Y-128272380D03*
X95255340Y-130301840D03*
X97800000Y-129288380D03*
X97800000Y-127258920D03*
X95255340Y-126242920D03*
X97800000Y-125229460D03*
X95255340Y-124213460D03*
X97800000Y-123200000D03*
G04 #@! TD*
D16*
X99800000Y-89600000D03*
X118775000Y-109225000D03*
X120025000Y-109225000D03*
X120025000Y-107250000D03*
X118775000Y-108225000D03*
X118750000Y-107250000D03*
X120025000Y-108225000D03*
X115975000Y-107250000D03*
X116000000Y-108225000D03*
X117250000Y-109225000D03*
X117250000Y-107250000D03*
X116000000Y-109225000D03*
X117250000Y-108225000D03*
X118725000Y-115775000D03*
X120000000Y-117750000D03*
X120000000Y-115775000D03*
X118750000Y-116750000D03*
X120000000Y-116750000D03*
X118750000Y-117750000D03*
X116000000Y-116750000D03*
X117250000Y-115775000D03*
X116000000Y-117750000D03*
X117250000Y-117750000D03*
X115975000Y-115775000D03*
X117250000Y-116750000D03*
X98430310Y-120549079D03*
X107600000Y-94800000D03*
X110230310Y-114349079D03*
X99630310Y-119349079D03*
X98130310Y-103449079D03*
X105830310Y-113949079D03*
X132530310Y-96349079D03*
X122000000Y-110400000D03*
X116000000Y-110975000D03*
X117000000Y-110975000D03*
X118000000Y-110975000D03*
X119000000Y-110975000D03*
X120000000Y-110975000D03*
X116000000Y-111975000D03*
X117000000Y-111975000D03*
X118000000Y-111975000D03*
X119000000Y-111975000D03*
X116000000Y-112975000D03*
X117000000Y-112975000D03*
X118000000Y-112975000D03*
X119000000Y-112975000D03*
X120000000Y-112975000D03*
X116000000Y-113975000D03*
X117000000Y-113975000D03*
X118000000Y-113975000D03*
X119000000Y-113975000D03*
X120000000Y-113975000D03*
X120000000Y-111975000D03*
X140000000Y-127500000D03*
X125580310Y-100499079D03*
X109430310Y-109349079D03*
X131800000Y-129000000D03*
X109000000Y-96400000D03*
X125830310Y-116049079D03*
X113230310Y-130749058D03*
X133000000Y-130000000D03*
X127330310Y-116849079D03*
X108230310Y-91149079D03*
X110230310Y-110749079D03*
D17*
X108630310Y-105949079D03*
X108400000Y-120800000D03*
X108230310Y-136149079D03*
D16*
X107200000Y-124200000D03*
X105230310Y-95949079D03*
X126500000Y-108500000D03*
X134330310Y-96349079D03*
X114000000Y-103500000D03*
X113830310Y-111549079D03*
X114000000Y-121500000D03*
X113830310Y-113549079D03*
X102030310Y-100049079D03*
X103130310Y-112049079D03*
D17*
X104030310Y-115549079D03*
X103630310Y-85749079D03*
D16*
X134200000Y-129000000D03*
X128030310Y-115549079D03*
M02*
