G04 #@! TF.GenerationSoftware,KiCad,Pcbnew,5.0.0-fee4fd1~66~ubuntu16.04.1*
G04 #@! TF.CreationDate,2018-10-25T21:56:12-03:00*
G04 #@! TF.ProjectId,pap,7061702E6B696361645F706362000000,1.0*
G04 #@! TF.SameCoordinates,Original*
G04 #@! TF.FileFunction,Other,Fab,Top*
%FSLAX46Y46*%
G04 Gerber Fmt 4.6, Leading zero omitted, Abs format (unit mm)*
G04 Created by KiCad (PCBNEW 5.0.0-fee4fd1~66~ubuntu16.04.1) date Thu Oct 25 21:56:12 2018*
%MOMM*%
%LPD*%
G01*
G04 APERTURE LIST*
%ADD10C,0.300000*%
%ADD11C,0.100000*%
%ADD12C,0.150000*%
%ADD13C,0.304800*%
G04 APERTURE END LIST*
D10*
X113230310Y-109549079D02*
X113230310Y-110949079D01*
X113430310Y-109549079D02*
X113230310Y-109549079D01*
X122830310Y-109549079D02*
X113430310Y-109549079D01*
X122830310Y-111149079D02*
X122830310Y-109549079D01*
X121230310Y-111149079D02*
X122830310Y-111149079D01*
X121230310Y-110349079D02*
X121230310Y-111149079D01*
X114430310Y-110349079D02*
X121230310Y-110349079D01*
X114430310Y-114349079D02*
X114430310Y-110349079D01*
X113230310Y-114349079D02*
X114430310Y-114349079D01*
X113230310Y-110949079D02*
X113230310Y-114349079D01*
X79630310Y-144749079D02*
X113230310Y-110949079D01*
X52144595Y-143209793D02*
X52073167Y-143281221D01*
X51858881Y-143352650D01*
X51716024Y-143352650D01*
X51501738Y-143281221D01*
X51358881Y-143138364D01*
X51287452Y-142995507D01*
X51216024Y-142709793D01*
X51216024Y-142495507D01*
X51287452Y-142209793D01*
X51358881Y-142066936D01*
X51501738Y-141924079D01*
X51716024Y-141852650D01*
X51858881Y-141852650D01*
X52073167Y-141924079D01*
X52144595Y-141995507D01*
X53001738Y-143352650D02*
X52858881Y-143281221D01*
X52787452Y-143209793D01*
X52716024Y-143066936D01*
X52716024Y-142638364D01*
X52787452Y-142495507D01*
X52858881Y-142424079D01*
X53001738Y-142352650D01*
X53216024Y-142352650D01*
X53358881Y-142424079D01*
X53430310Y-142495507D01*
X53501738Y-142638364D01*
X53501738Y-143066936D01*
X53430310Y-143209793D01*
X53358881Y-143281221D01*
X53216024Y-143352650D01*
X53001738Y-143352650D01*
X54001738Y-142352650D02*
X54358881Y-143352650D01*
X54716024Y-142352650D01*
X55858881Y-143281221D02*
X55716024Y-143352650D01*
X55430310Y-143352650D01*
X55287452Y-143281221D01*
X55216024Y-143138364D01*
X55216024Y-142566936D01*
X55287452Y-142424079D01*
X55430310Y-142352650D01*
X55716024Y-142352650D01*
X55858881Y-142424079D01*
X55930310Y-142566936D01*
X55930310Y-142709793D01*
X55216024Y-142852650D01*
X56573167Y-143352650D02*
X56573167Y-142352650D01*
X56573167Y-142638364D02*
X56644595Y-142495507D01*
X56716024Y-142424079D01*
X56858881Y-142352650D01*
X57001738Y-142352650D01*
X58430310Y-142352650D02*
X59001738Y-142352650D01*
X58644595Y-141852650D02*
X58644595Y-143138364D01*
X58716024Y-143281221D01*
X58858881Y-143352650D01*
X59001738Y-143352650D01*
X59501738Y-143352650D02*
X59501738Y-141852650D01*
X60144595Y-143352650D02*
X60144595Y-142566936D01*
X60073167Y-142424079D01*
X59930310Y-142352650D01*
X59716024Y-142352650D01*
X59573167Y-142424079D01*
X59501738Y-142495507D01*
X61430310Y-143281221D02*
X61287452Y-143352650D01*
X61001738Y-143352650D01*
X60858881Y-143281221D01*
X60787452Y-143138364D01*
X60787452Y-142566936D01*
X60858881Y-142424079D01*
X61001738Y-142352650D01*
X61287452Y-142352650D01*
X61430310Y-142424079D01*
X61501738Y-142566936D01*
X61501738Y-142709793D01*
X60787452Y-142852650D01*
X62073167Y-143281221D02*
X62216024Y-143352650D01*
X62501738Y-143352650D01*
X62644595Y-143281221D01*
X62716024Y-143138364D01*
X62716024Y-143066936D01*
X62644595Y-142924079D01*
X62501738Y-142852650D01*
X62287452Y-142852650D01*
X62144595Y-142781221D01*
X62073167Y-142638364D01*
X62073167Y-142566936D01*
X62144595Y-142424079D01*
X62287452Y-142352650D01*
X62501738Y-142352650D01*
X62644595Y-142424079D01*
X63930310Y-143281221D02*
X63787452Y-143352650D01*
X63501738Y-143352650D01*
X63358881Y-143281221D01*
X63287452Y-143138364D01*
X63287452Y-142566936D01*
X63358881Y-142424079D01*
X63501738Y-142352650D01*
X63787452Y-142352650D01*
X63930310Y-142424079D01*
X64001738Y-142566936D01*
X64001738Y-142709793D01*
X63287452Y-142852650D01*
X65644595Y-141852650D02*
X66573167Y-141852650D01*
X66073167Y-142424079D01*
X66287452Y-142424079D01*
X66430310Y-142495507D01*
X66501738Y-142566936D01*
X66573167Y-142709793D01*
X66573167Y-143066936D01*
X66501738Y-143209793D01*
X66430310Y-143281221D01*
X66287452Y-143352650D01*
X65858881Y-143352650D01*
X65716024Y-143281221D01*
X65644595Y-143209793D01*
X68216024Y-142352650D02*
X68573167Y-143352650D01*
X68930310Y-142352650D01*
X69501738Y-143352650D02*
X69501738Y-142352650D01*
X69501738Y-141852650D02*
X69430310Y-141924079D01*
X69501738Y-141995507D01*
X69573167Y-141924079D01*
X69501738Y-141852650D01*
X69501738Y-141995507D01*
X70858881Y-143352650D02*
X70858881Y-142566936D01*
X70787452Y-142424079D01*
X70644595Y-142352650D01*
X70358881Y-142352650D01*
X70216024Y-142424079D01*
X70858881Y-143281221D02*
X70716024Y-143352650D01*
X70358881Y-143352650D01*
X70216024Y-143281221D01*
X70144595Y-143138364D01*
X70144595Y-142995507D01*
X70216024Y-142852650D01*
X70358881Y-142781221D01*
X70716024Y-142781221D01*
X70858881Y-142709793D01*
X71501738Y-143281221D02*
X71644595Y-143352650D01*
X71930310Y-143352650D01*
X72073167Y-143281221D01*
X72144595Y-143138364D01*
X72144595Y-143066936D01*
X72073167Y-142924079D01*
X71930310Y-142852650D01*
X71716024Y-142852650D01*
X71573167Y-142781221D01*
X71501738Y-142638364D01*
X71501738Y-142566936D01*
X71573167Y-142424079D01*
X71716024Y-142352650D01*
X71930310Y-142352650D01*
X72073167Y-142424079D01*
X73930310Y-143352650D02*
X73930310Y-141852650D01*
X73930310Y-142424079D02*
X74073167Y-142352650D01*
X74358881Y-142352650D01*
X74501738Y-142424079D01*
X74573167Y-142495507D01*
X74644595Y-142638364D01*
X74644595Y-143066936D01*
X74573167Y-143209793D01*
X74501738Y-143281221D01*
X74358881Y-143352650D01*
X74073167Y-143352650D01*
X73930310Y-143281221D01*
X75858881Y-143281221D02*
X75716024Y-143352650D01*
X75430310Y-143352650D01*
X75287452Y-143281221D01*
X75216024Y-143138364D01*
X75216024Y-142566936D01*
X75287452Y-142424079D01*
X75430310Y-142352650D01*
X75716024Y-142352650D01*
X75858881Y-142424079D01*
X75930310Y-142566936D01*
X75930310Y-142709793D01*
X75216024Y-142852650D01*
X76787452Y-143352650D02*
X76644595Y-143281221D01*
X76573167Y-143138364D01*
X76573167Y-141852650D01*
X77573167Y-143352650D02*
X77430310Y-143281221D01*
X77358881Y-143209793D01*
X77287452Y-143066936D01*
X77287452Y-142638364D01*
X77358881Y-142495507D01*
X77430310Y-142424079D01*
X77573167Y-142352650D01*
X77787452Y-142352650D01*
X77930310Y-142424079D01*
X78001738Y-142495507D01*
X78073167Y-142638364D01*
X78073167Y-143066936D01*
X78001738Y-143209793D01*
X77930310Y-143281221D01*
X77787452Y-143352650D01*
X77573167Y-143352650D01*
X78573167Y-142352650D02*
X78858881Y-143352650D01*
X79144595Y-142638364D01*
X79430310Y-143352650D01*
X79716024Y-142352650D01*
X54930310Y-145902650D02*
X54930310Y-144402650D01*
X56501738Y-145759793D02*
X56430310Y-145831221D01*
X56216024Y-145902650D01*
X56073167Y-145902650D01*
X55858881Y-145831221D01*
X55716024Y-145688364D01*
X55644595Y-145545507D01*
X55573167Y-145259793D01*
X55573167Y-145045507D01*
X55644595Y-144759793D01*
X55716024Y-144616936D01*
X55858881Y-144474079D01*
X56073167Y-144402650D01*
X56216024Y-144402650D01*
X56430310Y-144474079D01*
X56501738Y-144545507D01*
X58144595Y-144902650D02*
X58430310Y-145902650D01*
X58716024Y-145188364D01*
X59001738Y-145902650D01*
X59287452Y-144902650D01*
X59858881Y-145902650D02*
X59858881Y-144902650D01*
X59858881Y-144402650D02*
X59787452Y-144474079D01*
X59858881Y-144545507D01*
X59930310Y-144474079D01*
X59858881Y-144402650D01*
X59858881Y-144545507D01*
X60358881Y-144902650D02*
X60930310Y-144902650D01*
X60573167Y-144402650D02*
X60573167Y-145688364D01*
X60644595Y-145831221D01*
X60787452Y-145902650D01*
X60930310Y-145902650D01*
X61430310Y-145902650D02*
X61430310Y-144402650D01*
X62073167Y-145902650D02*
X62073167Y-145116936D01*
X62001738Y-144974079D01*
X61858881Y-144902650D01*
X61644595Y-144902650D01*
X61501738Y-144974079D01*
X61430310Y-145045507D01*
X63858881Y-145831221D02*
X64001738Y-145902650D01*
X64287452Y-145902650D01*
X64430310Y-145831221D01*
X64501738Y-145688364D01*
X64501738Y-145616936D01*
X64430310Y-145474079D01*
X64287452Y-145402650D01*
X64073167Y-145402650D01*
X63930310Y-145331221D01*
X63858881Y-145188364D01*
X63858881Y-145116936D01*
X63930310Y-144974079D01*
X64073167Y-144902650D01*
X64287452Y-144902650D01*
X64430310Y-144974079D01*
X65358881Y-145902650D02*
X65216024Y-145831221D01*
X65144595Y-145759793D01*
X65073167Y-145616936D01*
X65073167Y-145188364D01*
X65144595Y-145045507D01*
X65216024Y-144974079D01*
X65358881Y-144902650D01*
X65573167Y-144902650D01*
X65716024Y-144974079D01*
X65787452Y-145045507D01*
X65858881Y-145188364D01*
X65858881Y-145616936D01*
X65787452Y-145759793D01*
X65716024Y-145831221D01*
X65573167Y-145902650D01*
X65358881Y-145902650D01*
X66716024Y-145902650D02*
X66573167Y-145831221D01*
X66501738Y-145688364D01*
X66501738Y-144402650D01*
X67930310Y-145902650D02*
X67930310Y-144402650D01*
X67930310Y-145831221D02*
X67787452Y-145902650D01*
X67501738Y-145902650D01*
X67358881Y-145831221D01*
X67287452Y-145759793D01*
X67216024Y-145616936D01*
X67216024Y-145188364D01*
X67287452Y-145045507D01*
X67358881Y-144974079D01*
X67501738Y-144902650D01*
X67787452Y-144902650D01*
X67930310Y-144974079D01*
X69216024Y-145831221D02*
X69073167Y-145902650D01*
X68787452Y-145902650D01*
X68644595Y-145831221D01*
X68573167Y-145688364D01*
X68573167Y-145116936D01*
X68644595Y-144974079D01*
X68787452Y-144902650D01*
X69073167Y-144902650D01*
X69216024Y-144974079D01*
X69287452Y-145116936D01*
X69287452Y-145259793D01*
X68573167Y-145402650D01*
X69930310Y-145902650D02*
X69930310Y-144902650D01*
X69930310Y-145188364D02*
X70001738Y-145045507D01*
X70073167Y-144974079D01*
X70216024Y-144902650D01*
X70358881Y-144902650D01*
X70858881Y-145902650D02*
X70858881Y-144902650D01*
X70858881Y-145045507D02*
X70930310Y-144974079D01*
X71073167Y-144902650D01*
X71287452Y-144902650D01*
X71430310Y-144974079D01*
X71501738Y-145116936D01*
X71501738Y-145902650D01*
X71501738Y-145116936D02*
X71573167Y-144974079D01*
X71716024Y-144902650D01*
X71930310Y-144902650D01*
X72073167Y-144974079D01*
X72144595Y-145116936D01*
X72144595Y-145902650D01*
X73501738Y-145902650D02*
X73501738Y-145116936D01*
X73430310Y-144974079D01*
X73287452Y-144902650D01*
X73001738Y-144902650D01*
X72858881Y-144974079D01*
X73501738Y-145831221D02*
X73358881Y-145902650D01*
X73001738Y-145902650D01*
X72858881Y-145831221D01*
X72787452Y-145688364D01*
X72787452Y-145545507D01*
X72858881Y-145402650D01*
X73001738Y-145331221D01*
X73358881Y-145331221D01*
X73501738Y-145259793D01*
X74144595Y-145831221D02*
X74287452Y-145902650D01*
X74573167Y-145902650D01*
X74716024Y-145831221D01*
X74787452Y-145688364D01*
X74787452Y-145616936D01*
X74716024Y-145474079D01*
X74573167Y-145402650D01*
X74358881Y-145402650D01*
X74216024Y-145331221D01*
X74144595Y-145188364D01*
X74144595Y-145116936D01*
X74216024Y-144974079D01*
X74358881Y-144902650D01*
X74573167Y-144902650D01*
X74716024Y-144974079D01*
X75430310Y-145902650D02*
X75430310Y-144402650D01*
X75573167Y-145331221D02*
X76001738Y-145902650D01*
X76001738Y-144902650D02*
X75430310Y-145474079D01*
X187711024Y-81799079D02*
X188425310Y-81799079D01*
X187568167Y-82227650D02*
X188068167Y-80727650D01*
X188568167Y-82227650D01*
X189282452Y-82227650D02*
X189139595Y-82156221D01*
X189068167Y-82013364D01*
X189068167Y-80727650D01*
X190068167Y-82227650D02*
X189925310Y-82156221D01*
X189853881Y-82013364D01*
X189853881Y-80727650D01*
X190639595Y-82227650D02*
X190639595Y-80727650D01*
X191211024Y-80727650D01*
X191353881Y-80799079D01*
X191425310Y-80870507D01*
X191496738Y-81013364D01*
X191496738Y-81227650D01*
X191425310Y-81370507D01*
X191353881Y-81441936D01*
X191211024Y-81513364D01*
X190639595Y-81513364D01*
X192996738Y-82084793D02*
X192925310Y-82156221D01*
X192711024Y-82227650D01*
X192568167Y-82227650D01*
X192353881Y-82156221D01*
X192211024Y-82013364D01*
X192139595Y-81870507D01*
X192068167Y-81584793D01*
X192068167Y-81370507D01*
X192139595Y-81084793D01*
X192211024Y-80941936D01*
X192353881Y-80799079D01*
X192568167Y-80727650D01*
X192711024Y-80727650D01*
X192925310Y-80799079D01*
X192996738Y-80870507D01*
X194139595Y-81441936D02*
X194353881Y-81513364D01*
X194425310Y-81584793D01*
X194496738Y-81727650D01*
X194496738Y-81941936D01*
X194425310Y-82084793D01*
X194353881Y-82156221D01*
X194211024Y-82227650D01*
X193639595Y-82227650D01*
X193639595Y-80727650D01*
X194139595Y-80727650D01*
X194282452Y-80799079D01*
X194353881Y-80870507D01*
X194425310Y-81013364D01*
X194425310Y-81156221D01*
X194353881Y-81299079D01*
X194282452Y-81370507D01*
X194139595Y-81441936D01*
X193639595Y-81441936D01*
X196782452Y-81441936D02*
X196282452Y-81441936D01*
X196282452Y-82227650D02*
X196282452Y-80727650D01*
X196996738Y-80727650D01*
X198211024Y-82227650D02*
X198211024Y-81441936D01*
X198139595Y-81299079D01*
X197996738Y-81227650D01*
X197711024Y-81227650D01*
X197568167Y-81299079D01*
X198211024Y-82156221D02*
X198068167Y-82227650D01*
X197711024Y-82227650D01*
X197568167Y-82156221D01*
X197496738Y-82013364D01*
X197496738Y-81870507D01*
X197568167Y-81727650D01*
X197711024Y-81656221D01*
X198068167Y-81656221D01*
X198211024Y-81584793D01*
X198925310Y-82227650D02*
X198925310Y-80727650D01*
X198925310Y-81299079D02*
X199068167Y-81227650D01*
X199353881Y-81227650D01*
X199496738Y-81299079D01*
X199568167Y-81370507D01*
X199639595Y-81513364D01*
X199639595Y-81941936D01*
X199568167Y-82084793D01*
X199496738Y-82156221D01*
X199353881Y-82227650D01*
X199068167Y-82227650D01*
X198925310Y-82156221D01*
X187996738Y-83277650D02*
X187996738Y-83634793D01*
X187639595Y-83491936D02*
X187996738Y-83634793D01*
X188353881Y-83491936D01*
X187782452Y-83920507D02*
X187996738Y-83634793D01*
X188211024Y-83920507D01*
X189139595Y-83277650D02*
X189139595Y-83634793D01*
X188782452Y-83491936D02*
X189139595Y-83634793D01*
X189496738Y-83491936D01*
X188925310Y-83920507D02*
X189139595Y-83634793D01*
X189353881Y-83920507D01*
X190282452Y-83277650D02*
X190282452Y-83634793D01*
X189925310Y-83491936D02*
X190282452Y-83634793D01*
X190639595Y-83491936D01*
X190068167Y-83920507D02*
X190282452Y-83634793D01*
X190496738Y-83920507D01*
X191425310Y-83277650D02*
X191425310Y-83634793D01*
X191068167Y-83491936D02*
X191425310Y-83634793D01*
X191782452Y-83491936D01*
X191211024Y-83920507D02*
X191425310Y-83634793D01*
X191639595Y-83920507D01*
X192568167Y-83277650D02*
X192568167Y-83634793D01*
X192211024Y-83491936D02*
X192568167Y-83634793D01*
X192925310Y-83491936D01*
X192353881Y-83920507D02*
X192568167Y-83634793D01*
X192782452Y-83920507D01*
X193711024Y-83277650D02*
X193711024Y-83634793D01*
X193353881Y-83491936D02*
X193711024Y-83634793D01*
X194068167Y-83491936D01*
X193496738Y-83920507D02*
X193711024Y-83634793D01*
X193925310Y-83920507D01*
X194853881Y-83277650D02*
X194853881Y-83634793D01*
X194496738Y-83491936D02*
X194853881Y-83634793D01*
X195211024Y-83491936D01*
X194639595Y-83920507D02*
X194853881Y-83634793D01*
X195068167Y-83920507D01*
X195996738Y-83277650D02*
X195996738Y-83634793D01*
X195639595Y-83491936D02*
X195996738Y-83634793D01*
X196353881Y-83491936D01*
X195782452Y-83920507D02*
X195996738Y-83634793D01*
X196211024Y-83920507D01*
X197139595Y-83277650D02*
X197139595Y-83634793D01*
X196782452Y-83491936D02*
X197139595Y-83634793D01*
X197496738Y-83491936D01*
X196925310Y-83920507D02*
X197139595Y-83634793D01*
X197353881Y-83920507D01*
X198282452Y-83277650D02*
X198282452Y-83634793D01*
X197925310Y-83491936D02*
X198282452Y-83634793D01*
X198639595Y-83491936D01*
X198068167Y-83920507D02*
X198282452Y-83634793D01*
X198496738Y-83920507D01*
X199425310Y-83277650D02*
X199425310Y-83634793D01*
X199068167Y-83491936D02*
X199425310Y-83634793D01*
X199782452Y-83491936D01*
X199211024Y-83920507D02*
X199425310Y-83634793D01*
X199639595Y-83920507D01*
X200568167Y-83277650D02*
X200568167Y-83634793D01*
X200211024Y-83491936D02*
X200568167Y-83634793D01*
X200925310Y-83491936D01*
X200353881Y-83920507D02*
X200568167Y-83634793D01*
X200782452Y-83920507D01*
X201711024Y-83277650D02*
X201711024Y-83634793D01*
X201353881Y-83491936D02*
X201711024Y-83634793D01*
X202068167Y-83491936D01*
X201496738Y-83920507D02*
X201711024Y-83634793D01*
X201925310Y-83920507D01*
X202853881Y-83277650D02*
X202853881Y-83634793D01*
X202496738Y-83491936D02*
X202853881Y-83634793D01*
X203211024Y-83491936D01*
X202639595Y-83920507D02*
X202853881Y-83634793D01*
X203068167Y-83920507D01*
X203996738Y-83277650D02*
X203996738Y-83634793D01*
X203639595Y-83491936D02*
X203996738Y-83634793D01*
X204353881Y-83491936D01*
X203782452Y-83920507D02*
X203996738Y-83634793D01*
X204211024Y-83920507D01*
X205139595Y-83277650D02*
X205139595Y-83634793D01*
X204782452Y-83491936D02*
X205139595Y-83634793D01*
X205496738Y-83491936D01*
X204925310Y-83920507D02*
X205139595Y-83634793D01*
X205353881Y-83920507D01*
X206282452Y-83277650D02*
X206282452Y-83634793D01*
X205925310Y-83491936D02*
X206282452Y-83634793D01*
X206639595Y-83491936D01*
X206068167Y-83920507D02*
X206282452Y-83634793D01*
X206496738Y-83920507D01*
X207425310Y-83277650D02*
X207425310Y-83634793D01*
X207068167Y-83491936D02*
X207425310Y-83634793D01*
X207782452Y-83491936D01*
X207211024Y-83920507D02*
X207425310Y-83634793D01*
X207639595Y-83920507D01*
X208568167Y-83277650D02*
X208568167Y-83634793D01*
X208211024Y-83491936D02*
X208568167Y-83634793D01*
X208925310Y-83491936D01*
X208353881Y-83920507D02*
X208568167Y-83634793D01*
X208782452Y-83920507D01*
X209711024Y-83277650D02*
X209711024Y-83634793D01*
X209353881Y-83491936D02*
X209711024Y-83634793D01*
X210068167Y-83491936D01*
X209496738Y-83920507D02*
X209711024Y-83634793D01*
X209925310Y-83920507D01*
X210853881Y-83277650D02*
X210853881Y-83634793D01*
X210496738Y-83491936D02*
X210853881Y-83634793D01*
X211211024Y-83491936D01*
X210639595Y-83920507D02*
X210853881Y-83634793D01*
X211068167Y-83920507D01*
X211996738Y-83277650D02*
X211996738Y-83634793D01*
X211639595Y-83491936D02*
X211996738Y-83634793D01*
X212353881Y-83491936D01*
X211782452Y-83920507D02*
X211996738Y-83634793D01*
X212211024Y-83920507D01*
X213139595Y-83277650D02*
X213139595Y-83634793D01*
X212782452Y-83491936D02*
X213139595Y-83634793D01*
X213496738Y-83491936D01*
X212925310Y-83920507D02*
X213139595Y-83634793D01*
X213353881Y-83920507D01*
X214282452Y-83277650D02*
X214282452Y-83634793D01*
X213925309Y-83491936D02*
X214282452Y-83634793D01*
X214639595Y-83491936D01*
X214068167Y-83920507D02*
X214282452Y-83634793D01*
X214496738Y-83920507D01*
X215425309Y-83277650D02*
X215425309Y-83634793D01*
X215068167Y-83491936D02*
X215425309Y-83634793D01*
X215782452Y-83491936D01*
X215211024Y-83920507D02*
X215425309Y-83634793D01*
X215639595Y-83920507D01*
X216568167Y-83277650D02*
X216568167Y-83634793D01*
X216211024Y-83491936D02*
X216568167Y-83634793D01*
X216925309Y-83491936D01*
X216353881Y-83920507D02*
X216568167Y-83634793D01*
X216782452Y-83920507D01*
X217711024Y-83277650D02*
X217711024Y-83634793D01*
X217353881Y-83491936D02*
X217711024Y-83634793D01*
X218068167Y-83491936D01*
X217496738Y-83920507D02*
X217711024Y-83634793D01*
X217925309Y-83920507D01*
X218853881Y-83277650D02*
X218853881Y-83634793D01*
X218496738Y-83491936D02*
X218853881Y-83634793D01*
X219211024Y-83491936D01*
X218639595Y-83920507D02*
X218853881Y-83634793D01*
X219068167Y-83920507D01*
X219996738Y-83277650D02*
X219996738Y-83634793D01*
X219639595Y-83491936D02*
X219996738Y-83634793D01*
X220353881Y-83491936D01*
X219782452Y-83920507D02*
X219996738Y-83634793D01*
X220211024Y-83920507D01*
X221139595Y-83277650D02*
X221139595Y-83634793D01*
X220782452Y-83491936D02*
X221139595Y-83634793D01*
X221496738Y-83491936D01*
X220925309Y-83920507D02*
X221139595Y-83634793D01*
X221353881Y-83920507D01*
X222282452Y-83277650D02*
X222282452Y-83634793D01*
X221925309Y-83491936D02*
X222282452Y-83634793D01*
X222639595Y-83491936D01*
X222068167Y-83920507D02*
X222282452Y-83634793D01*
X222496738Y-83920507D01*
X223425309Y-83277650D02*
X223425309Y-83634793D01*
X223068167Y-83491936D02*
X223425309Y-83634793D01*
X223782452Y-83491936D01*
X223211024Y-83920507D02*
X223425309Y-83634793D01*
X223639595Y-83920507D01*
X224568167Y-83277650D02*
X224568167Y-83634793D01*
X224211024Y-83491936D02*
X224568167Y-83634793D01*
X224925309Y-83491936D01*
X224353881Y-83920507D02*
X224568167Y-83634793D01*
X224782452Y-83920507D01*
X225711024Y-83277650D02*
X225711024Y-83634793D01*
X225353881Y-83491936D02*
X225711024Y-83634793D01*
X226068167Y-83491936D01*
X225496738Y-83920507D02*
X225711024Y-83634793D01*
X225925309Y-83920507D01*
X187711024Y-92356221D02*
X187925310Y-92427650D01*
X188282452Y-92427650D01*
X188425310Y-92356221D01*
X188496738Y-92284793D01*
X188568167Y-92141936D01*
X188568167Y-91999079D01*
X188496738Y-91856221D01*
X188425310Y-91784793D01*
X188282452Y-91713364D01*
X187996738Y-91641936D01*
X187853881Y-91570507D01*
X187782452Y-91499079D01*
X187711024Y-91356221D01*
X187711024Y-91213364D01*
X187782452Y-91070507D01*
X187853881Y-90999079D01*
X187996738Y-90927650D01*
X188353881Y-90927650D01*
X188568167Y-90999079D01*
X189211024Y-92427650D02*
X189211024Y-91427650D01*
X189211024Y-90927650D02*
X189139595Y-90999079D01*
X189211024Y-91070507D01*
X189282452Y-90999079D01*
X189211024Y-90927650D01*
X189211024Y-91070507D01*
X190139595Y-92427650D02*
X189996738Y-92356221D01*
X189925310Y-92213364D01*
X189925310Y-90927650D01*
X190711024Y-92427650D02*
X190711024Y-90927650D01*
X190853881Y-91856221D02*
X191282452Y-92427650D01*
X191282452Y-91427650D02*
X190711024Y-91999079D01*
X191853881Y-92356221D02*
X191996738Y-92427650D01*
X192282452Y-92427650D01*
X192425310Y-92356221D01*
X192496738Y-92213364D01*
X192496738Y-92141936D01*
X192425310Y-91999079D01*
X192282452Y-91927650D01*
X192068167Y-91927650D01*
X191925310Y-91856221D01*
X191853881Y-91713364D01*
X191853881Y-91641936D01*
X191925310Y-91499079D01*
X192068167Y-91427650D01*
X192282452Y-91427650D01*
X192425310Y-91499079D01*
X193782452Y-92356221D02*
X193639595Y-92427650D01*
X193353881Y-92427650D01*
X193211024Y-92356221D01*
X193139595Y-92284793D01*
X193068167Y-92141936D01*
X193068167Y-91713364D01*
X193139595Y-91570507D01*
X193211024Y-91499079D01*
X193353881Y-91427650D01*
X193639595Y-91427650D01*
X193782452Y-91499079D01*
X194425310Y-92427650D02*
X194425310Y-91427650D01*
X194425310Y-91713364D02*
X194496738Y-91570507D01*
X194568167Y-91499079D01*
X194711024Y-91427650D01*
X194853881Y-91427650D01*
X195925310Y-92356221D02*
X195782452Y-92427650D01*
X195496738Y-92427650D01*
X195353881Y-92356221D01*
X195282452Y-92213364D01*
X195282452Y-91641936D01*
X195353881Y-91499079D01*
X195496738Y-91427650D01*
X195782452Y-91427650D01*
X195925310Y-91499079D01*
X195996738Y-91641936D01*
X195996738Y-91784793D01*
X195282452Y-91927650D01*
X197211024Y-92356221D02*
X197068167Y-92427650D01*
X196782452Y-92427650D01*
X196639595Y-92356221D01*
X196568167Y-92213364D01*
X196568167Y-91641936D01*
X196639595Y-91499079D01*
X196782452Y-91427650D01*
X197068167Y-91427650D01*
X197211024Y-91499079D01*
X197282452Y-91641936D01*
X197282452Y-91784793D01*
X196568167Y-91927650D01*
X197925310Y-91427650D02*
X197925310Y-92427650D01*
X197925310Y-91570507D02*
X197996738Y-91499079D01*
X198139595Y-91427650D01*
X198353881Y-91427650D01*
X198496738Y-91499079D01*
X198568167Y-91641936D01*
X198568167Y-92427650D01*
X200211024Y-90927650D02*
X201068167Y-90927650D01*
X200639595Y-92427650D02*
X200639595Y-90927650D01*
X201782452Y-92427650D02*
X201639595Y-92356221D01*
X201568167Y-92284793D01*
X201496738Y-92141936D01*
X201496738Y-91713364D01*
X201568167Y-91570507D01*
X201639595Y-91499079D01*
X201782452Y-91427650D01*
X201996738Y-91427650D01*
X202139595Y-91499079D01*
X202211024Y-91570507D01*
X202282452Y-91713364D01*
X202282452Y-92141936D01*
X202211024Y-92284793D01*
X202139595Y-92356221D01*
X201996738Y-92427650D01*
X201782452Y-92427650D01*
X202925310Y-91427650D02*
X202925310Y-92927650D01*
X202925310Y-91499079D02*
X203068167Y-91427650D01*
X203353881Y-91427650D01*
X203496738Y-91499079D01*
X203568167Y-91570507D01*
X203639595Y-91713364D01*
X203639595Y-92141936D01*
X203568167Y-92284793D01*
X203496738Y-92356221D01*
X203353881Y-92427650D01*
X203068167Y-92427650D01*
X202925310Y-92356221D01*
X205282452Y-90927650D02*
X205639595Y-92427650D01*
X205925310Y-91356221D01*
X206211024Y-92427650D01*
X206568167Y-90927650D01*
X207139595Y-92427650D02*
X207139595Y-90927650D01*
X207782452Y-92427650D02*
X207782452Y-91641936D01*
X207711024Y-91499079D01*
X207568167Y-91427650D01*
X207353881Y-91427650D01*
X207211024Y-91499079D01*
X207139595Y-91570507D01*
X208496738Y-92427650D02*
X208496738Y-91427650D01*
X208496738Y-90927650D02*
X208425310Y-90999079D01*
X208496738Y-91070507D01*
X208568167Y-90999079D01*
X208496738Y-90927650D01*
X208496738Y-91070507D01*
X208996738Y-91427650D02*
X209568167Y-91427650D01*
X209211024Y-90927650D02*
X209211024Y-92213364D01*
X209282452Y-92356221D01*
X209425310Y-92427650D01*
X209568167Y-92427650D01*
X210639595Y-92356221D02*
X210496738Y-92427650D01*
X210211024Y-92427650D01*
X210068167Y-92356221D01*
X209996738Y-92213364D01*
X209996738Y-91641936D01*
X210068167Y-91499079D01*
X210211024Y-91427650D01*
X210496738Y-91427650D01*
X210639595Y-91499079D01*
X210711024Y-91641936D01*
X210711024Y-91784793D01*
X209996738Y-91927650D01*
X187782452Y-94406221D02*
X188925310Y-94406221D01*
X189639595Y-94406221D02*
X190782452Y-94406221D01*
X191496738Y-94406221D02*
X192639595Y-94406221D01*
X193353881Y-94406221D02*
X194496738Y-94406221D01*
X195211024Y-94406221D02*
X196353881Y-94406221D01*
X197068167Y-94406221D02*
X198211024Y-94406221D01*
X198925310Y-94406221D02*
X200068167Y-94406221D01*
X200782452Y-94406221D02*
X201925310Y-94406221D01*
X202639595Y-94406221D02*
X203782452Y-94406221D01*
X204496738Y-94406221D02*
X205639595Y-94406221D01*
X206353881Y-94406221D02*
X207496738Y-94406221D01*
X208211024Y-94406221D02*
X209353881Y-94406221D01*
X210068167Y-94406221D02*
X211211024Y-94406221D01*
X211925310Y-94406221D02*
X213068167Y-94406221D01*
X213782452Y-94406221D02*
X214925310Y-94406221D01*
X215639595Y-94406221D02*
X216782452Y-94406221D01*
X217496738Y-94406221D02*
X218639595Y-94406221D01*
X219353881Y-94406221D02*
X220496738Y-94406221D01*
X221211024Y-94406221D02*
X222353881Y-94406221D01*
X223068167Y-94406221D02*
X224211024Y-94406221D01*
X224925310Y-94406221D02*
X226068167Y-94406221D01*
X226782452Y-94406221D02*
X227925310Y-94406221D01*
X228639595Y-94406221D02*
X229782452Y-94406221D01*
X230496738Y-94406221D02*
X231639595Y-94406221D01*
X232353881Y-94406221D02*
X233496738Y-94406221D01*
X187711024Y-97456221D02*
X187925310Y-97527650D01*
X188282452Y-97527650D01*
X188425310Y-97456221D01*
X188496738Y-97384793D01*
X188568167Y-97241936D01*
X188568167Y-97099079D01*
X188496738Y-96956221D01*
X188425310Y-96884793D01*
X188282452Y-96813364D01*
X187996738Y-96741936D01*
X187853881Y-96670507D01*
X187782452Y-96599079D01*
X187711024Y-96456221D01*
X187711024Y-96313364D01*
X187782452Y-96170507D01*
X187853881Y-96099079D01*
X187996738Y-96027650D01*
X188353881Y-96027650D01*
X188568167Y-96099079D01*
X189425310Y-97527650D02*
X189282452Y-97456221D01*
X189211024Y-97384793D01*
X189139595Y-97241936D01*
X189139595Y-96813364D01*
X189211024Y-96670507D01*
X189282452Y-96599079D01*
X189425310Y-96527650D01*
X189639595Y-96527650D01*
X189782452Y-96599079D01*
X189853881Y-96670507D01*
X189925310Y-96813364D01*
X189925310Y-97241936D01*
X189853881Y-97384793D01*
X189782452Y-97456221D01*
X189639595Y-97527650D01*
X189425310Y-97527650D01*
X190782452Y-97527650D02*
X190639595Y-97456221D01*
X190568167Y-97313364D01*
X190568167Y-96027650D01*
X191996738Y-97527650D02*
X191996738Y-96027650D01*
X191996738Y-97456221D02*
X191853881Y-97527650D01*
X191568167Y-97527650D01*
X191425310Y-97456221D01*
X191353881Y-97384793D01*
X191282452Y-97241936D01*
X191282452Y-96813364D01*
X191353881Y-96670507D01*
X191425310Y-96599079D01*
X191568167Y-96527650D01*
X191853881Y-96527650D01*
X191996738Y-96599079D01*
X193282452Y-97456221D02*
X193139595Y-97527650D01*
X192853881Y-97527650D01*
X192711024Y-97456221D01*
X192639595Y-97313364D01*
X192639595Y-96741936D01*
X192711024Y-96599079D01*
X192853881Y-96527650D01*
X193139595Y-96527650D01*
X193282452Y-96599079D01*
X193353881Y-96741936D01*
X193353881Y-96884793D01*
X192639595Y-97027650D01*
X193996738Y-97527650D02*
X193996738Y-96527650D01*
X193996738Y-96813364D02*
X194068167Y-96670507D01*
X194139595Y-96599079D01*
X194282452Y-96527650D01*
X194425310Y-96527650D01*
X196068167Y-97527650D02*
X196068167Y-96027650D01*
X196568167Y-97099079D01*
X197068167Y-96027650D01*
X197068167Y-97527650D01*
X198425310Y-97527650D02*
X198425310Y-96741936D01*
X198353881Y-96599079D01*
X198211024Y-96527650D01*
X197925310Y-96527650D01*
X197782452Y-96599079D01*
X198425310Y-97456221D02*
X198282452Y-97527650D01*
X197925310Y-97527650D01*
X197782452Y-97456221D01*
X197711024Y-97313364D01*
X197711024Y-97170507D01*
X197782452Y-97027650D01*
X197925310Y-96956221D01*
X198282452Y-96956221D01*
X198425310Y-96884793D01*
X199068167Y-97456221D02*
X199211024Y-97527650D01*
X199496738Y-97527650D01*
X199639595Y-97456221D01*
X199711024Y-97313364D01*
X199711024Y-97241936D01*
X199639595Y-97099079D01*
X199496738Y-97027650D01*
X199282452Y-97027650D01*
X199139595Y-96956221D01*
X199068167Y-96813364D01*
X199068167Y-96741936D01*
X199139595Y-96599079D01*
X199282452Y-96527650D01*
X199496738Y-96527650D01*
X199639595Y-96599079D01*
X200353881Y-97527650D02*
X200353881Y-96027650D01*
X200496738Y-96956221D02*
X200925310Y-97527650D01*
X200925310Y-96527650D02*
X200353881Y-97099079D01*
X202496738Y-96027650D02*
X203353881Y-96027650D01*
X202925310Y-97527650D02*
X202925310Y-96027650D01*
X204068167Y-97527650D02*
X203925310Y-97456221D01*
X203853881Y-97384793D01*
X203782452Y-97241936D01*
X203782452Y-96813364D01*
X203853881Y-96670507D01*
X203925310Y-96599079D01*
X204068167Y-96527650D01*
X204282452Y-96527650D01*
X204425310Y-96599079D01*
X204496738Y-96670507D01*
X204568167Y-96813364D01*
X204568167Y-97241936D01*
X204496738Y-97384793D01*
X204425310Y-97456221D01*
X204282452Y-97527650D01*
X204068167Y-97527650D01*
X205211024Y-96527650D02*
X205211024Y-98027650D01*
X205211024Y-96599079D02*
X205353881Y-96527650D01*
X205639595Y-96527650D01*
X205782452Y-96599079D01*
X205853881Y-96670507D01*
X205925310Y-96813364D01*
X205925310Y-97241936D01*
X205853881Y-97384793D01*
X205782452Y-97456221D01*
X205639595Y-97527650D01*
X205353881Y-97527650D01*
X205211024Y-97456221D01*
X208496738Y-96099079D02*
X208353881Y-96027650D01*
X208139595Y-96027650D01*
X207925310Y-96099079D01*
X207782452Y-96241936D01*
X207711024Y-96384793D01*
X207639595Y-96670507D01*
X207639595Y-96884793D01*
X207711024Y-97170507D01*
X207782452Y-97313364D01*
X207925310Y-97456221D01*
X208139595Y-97527650D01*
X208282452Y-97527650D01*
X208496738Y-97456221D01*
X208568167Y-97384793D01*
X208568167Y-96884793D01*
X208282452Y-96884793D01*
X209211024Y-97527650D02*
X209211024Y-96527650D01*
X209211024Y-96813364D02*
X209282452Y-96670507D01*
X209353881Y-96599079D01*
X209496738Y-96527650D01*
X209639595Y-96527650D01*
X210711024Y-97456221D02*
X210568167Y-97527650D01*
X210282452Y-97527650D01*
X210139595Y-97456221D01*
X210068167Y-97313364D01*
X210068167Y-96741936D01*
X210139595Y-96599079D01*
X210282452Y-96527650D01*
X210568167Y-96527650D01*
X210711024Y-96599079D01*
X210782452Y-96741936D01*
X210782452Y-96884793D01*
X210068167Y-97027650D01*
X211996738Y-97456221D02*
X211853881Y-97527650D01*
X211568167Y-97527650D01*
X211425310Y-97456221D01*
X211353881Y-97313364D01*
X211353881Y-96741936D01*
X211425310Y-96599079D01*
X211568167Y-96527650D01*
X211853881Y-96527650D01*
X211996738Y-96599079D01*
X212068167Y-96741936D01*
X212068167Y-96884793D01*
X211353881Y-97027650D01*
X212711024Y-96527650D02*
X212711024Y-97527650D01*
X212711024Y-96670507D02*
X212782452Y-96599079D01*
X212925310Y-96527650D01*
X213139595Y-96527650D01*
X213282452Y-96599079D01*
X213353881Y-96741936D01*
X213353881Y-97527650D01*
X187782452Y-99506221D02*
X188925310Y-99506221D01*
X189639595Y-99506221D02*
X190782452Y-99506221D01*
X191496738Y-99506221D02*
X192639595Y-99506221D01*
X193353881Y-99506221D02*
X194496738Y-99506221D01*
X195211024Y-99506221D02*
X196353881Y-99506221D01*
X197068167Y-99506221D02*
X198211024Y-99506221D01*
X198925310Y-99506221D02*
X200068167Y-99506221D01*
X200782452Y-99506221D02*
X201925310Y-99506221D01*
X202639595Y-99506221D02*
X203782452Y-99506221D01*
X204496738Y-99506221D02*
X205639595Y-99506221D01*
X206353881Y-99506221D02*
X207496738Y-99506221D01*
X208211024Y-99506221D02*
X209353881Y-99506221D01*
X210068167Y-99506221D02*
X211211024Y-99506221D01*
X211925310Y-99506221D02*
X213068167Y-99506221D01*
X213782452Y-99506221D02*
X214925310Y-99506221D01*
X215639595Y-99506221D02*
X216782452Y-99506221D01*
X217496738Y-99506221D02*
X218639595Y-99506221D01*
X219353881Y-99506221D02*
X220496738Y-99506221D01*
X221211024Y-99506221D02*
X222353881Y-99506221D01*
X223068167Y-99506221D02*
X224211024Y-99506221D01*
X224925310Y-99506221D02*
X226068167Y-99506221D01*
X226782452Y-99506221D02*
X227925310Y-99506221D01*
X228639595Y-99506221D02*
X229782452Y-99506221D01*
X230496738Y-99506221D02*
X231639595Y-99506221D01*
X232353881Y-99506221D02*
X233496738Y-99506221D01*
X187568167Y-101127650D02*
X188425310Y-101127650D01*
X187996738Y-102627650D02*
X187996738Y-101127650D01*
X189211024Y-101127650D02*
X189496738Y-101127650D01*
X189639595Y-101199079D01*
X189782452Y-101341936D01*
X189853881Y-101627650D01*
X189853881Y-102127650D01*
X189782452Y-102413364D01*
X189639595Y-102556221D01*
X189496738Y-102627650D01*
X189211024Y-102627650D01*
X189068167Y-102556221D01*
X188925310Y-102413364D01*
X188853881Y-102127650D01*
X188853881Y-101627650D01*
X188925310Y-101341936D01*
X189068167Y-101199079D01*
X189211024Y-101127650D01*
X190496738Y-102627650D02*
X190496738Y-101127650D01*
X191068167Y-101127650D01*
X191211024Y-101199079D01*
X191282452Y-101270507D01*
X191353881Y-101413364D01*
X191353881Y-101627650D01*
X191282452Y-101770507D01*
X191211024Y-101841936D01*
X191068167Y-101913364D01*
X190496738Y-101913364D01*
X193068167Y-101270507D02*
X193139595Y-101199079D01*
X193282452Y-101127650D01*
X193639595Y-101127650D01*
X193782452Y-101199079D01*
X193853881Y-101270507D01*
X193925310Y-101413364D01*
X193925310Y-101556221D01*
X193853881Y-101770507D01*
X192996738Y-102627650D01*
X193925310Y-102627650D01*
X194853881Y-101127650D02*
X195139595Y-101127650D01*
X195282452Y-101199079D01*
X195425310Y-101341936D01*
X195496738Y-101627650D01*
X195496738Y-102127650D01*
X195425310Y-102413364D01*
X195282452Y-102556221D01*
X195139595Y-102627650D01*
X194853881Y-102627650D01*
X194711024Y-102556221D01*
X194568167Y-102413364D01*
X194496738Y-102127650D01*
X194496738Y-101627650D01*
X194568167Y-101341936D01*
X194711024Y-101199079D01*
X194853881Y-101127650D01*
X195996738Y-101627650D02*
X196782452Y-101627650D01*
X195996738Y-102627650D01*
X196782452Y-102627650D01*
X198496738Y-102627650D02*
X198496738Y-101127650D01*
X198496738Y-101841936D02*
X199353881Y-101841936D01*
X199353881Y-102627650D02*
X199353881Y-101127650D01*
X199996738Y-102199079D02*
X200711024Y-102199079D01*
X199853881Y-102627650D02*
X200353881Y-101127650D01*
X200853881Y-102627650D01*
X201282452Y-102556221D02*
X201496738Y-102627650D01*
X201853881Y-102627650D01*
X201996738Y-102556221D01*
X202068167Y-102484793D01*
X202139595Y-102341936D01*
X202139595Y-102199079D01*
X202068167Y-102056221D01*
X201996738Y-101984793D01*
X201853881Y-101913364D01*
X201568167Y-101841936D01*
X201425310Y-101770507D01*
X201353881Y-101699079D01*
X201282452Y-101556221D01*
X201282452Y-101413364D01*
X201353881Y-101270507D01*
X201425310Y-101199079D01*
X201568167Y-101127650D01*
X201925310Y-101127650D01*
X202139595Y-101199079D01*
X203496738Y-102627650D02*
X202782452Y-102627650D01*
X202782452Y-101127650D01*
X187782452Y-104606221D02*
X188925310Y-104606221D01*
X189639595Y-104606221D02*
X190782452Y-104606221D01*
X191496738Y-104606221D02*
X192639595Y-104606221D01*
X193353881Y-104606221D02*
X194496738Y-104606221D01*
X195211024Y-104606221D02*
X196353881Y-104606221D01*
X197068167Y-104606221D02*
X198211024Y-104606221D01*
X198925310Y-104606221D02*
X200068167Y-104606221D01*
X200782452Y-104606221D02*
X201925310Y-104606221D01*
X202639595Y-104606221D02*
X203782452Y-104606221D01*
X204496738Y-104606221D02*
X205639595Y-104606221D01*
X206353881Y-104606221D02*
X207496738Y-104606221D01*
X208211024Y-104606221D02*
X209353881Y-104606221D01*
X210068167Y-104606221D02*
X211211024Y-104606221D01*
X211925310Y-104606221D02*
X213068167Y-104606221D01*
X213782452Y-104606221D02*
X214925310Y-104606221D01*
X215639595Y-104606221D02*
X216782452Y-104606221D01*
X217496738Y-104606221D02*
X218639595Y-104606221D01*
X219353881Y-104606221D02*
X220496738Y-104606221D01*
X221211024Y-104606221D02*
X222353881Y-104606221D01*
X223068167Y-104606221D02*
X224211024Y-104606221D01*
X224925310Y-104606221D02*
X226068167Y-104606221D01*
X226782452Y-104606221D02*
X227925310Y-104606221D01*
X228639595Y-104606221D02*
X229782452Y-104606221D01*
X230496738Y-104606221D02*
X231639595Y-104606221D01*
X232353881Y-104606221D02*
X233496738Y-104606221D01*
X188282452Y-106941936D02*
X187782452Y-106941936D01*
X187782452Y-107727650D02*
X187782452Y-106227650D01*
X188496738Y-106227650D01*
X189925310Y-107727650D02*
X189425310Y-107013364D01*
X189068167Y-107727650D02*
X189068167Y-106227650D01*
X189639595Y-106227650D01*
X189782452Y-106299079D01*
X189853881Y-106370507D01*
X189925310Y-106513364D01*
X189925310Y-106727650D01*
X189853881Y-106870507D01*
X189782452Y-106941936D01*
X189639595Y-107013364D01*
X189068167Y-107013364D01*
X191211024Y-106727650D02*
X191211024Y-107727650D01*
X190853881Y-106156221D02*
X190496738Y-107227650D01*
X191425310Y-107227650D01*
X193925310Y-107727650D02*
X193068167Y-107727650D01*
X193496738Y-107727650D02*
X193496738Y-106227650D01*
X193353881Y-106441936D01*
X193211024Y-106584793D01*
X193068167Y-106656221D01*
X194568167Y-107584793D02*
X194639595Y-107656221D01*
X194568167Y-107727650D01*
X194496738Y-107656221D01*
X194568167Y-107584793D01*
X194568167Y-107727650D01*
X195925310Y-106227650D02*
X195639595Y-106227650D01*
X195496738Y-106299079D01*
X195425310Y-106370507D01*
X195282452Y-106584793D01*
X195211024Y-106870507D01*
X195211024Y-107441936D01*
X195282452Y-107584793D01*
X195353881Y-107656221D01*
X195496738Y-107727650D01*
X195782452Y-107727650D01*
X195925310Y-107656221D01*
X195996738Y-107584793D01*
X196068167Y-107441936D01*
X196068167Y-107084793D01*
X195996738Y-106941936D01*
X195925310Y-106870507D01*
X195782452Y-106799079D01*
X195496738Y-106799079D01*
X195353881Y-106870507D01*
X195282452Y-106941936D01*
X195211024Y-107084793D01*
X196711024Y-107727650D02*
X196711024Y-106727650D01*
X196711024Y-106870507D02*
X196782452Y-106799079D01*
X196925310Y-106727650D01*
X197139595Y-106727650D01*
X197282452Y-106799079D01*
X197353881Y-106941936D01*
X197353881Y-107727650D01*
X197353881Y-106941936D02*
X197425310Y-106799079D01*
X197568167Y-106727650D01*
X197782452Y-106727650D01*
X197925310Y-106799079D01*
X197996738Y-106941936D01*
X197996738Y-107727650D01*
X198711024Y-107727650D02*
X198711024Y-106727650D01*
X198711024Y-106870507D02*
X198782452Y-106799079D01*
X198925310Y-106727650D01*
X199139595Y-106727650D01*
X199282452Y-106799079D01*
X199353881Y-106941936D01*
X199353881Y-107727650D01*
X199353881Y-106941936D02*
X199425310Y-106799079D01*
X199568167Y-106727650D01*
X199782452Y-106727650D01*
X199925310Y-106799079D01*
X199996738Y-106941936D01*
X199996738Y-107727650D01*
X187782452Y-109706221D02*
X188925310Y-109706221D01*
X189639595Y-109706221D02*
X190782452Y-109706221D01*
X191496738Y-109706221D02*
X192639595Y-109706221D01*
X193353881Y-109706221D02*
X194496738Y-109706221D01*
X195211024Y-109706221D02*
X196353881Y-109706221D01*
X197068167Y-109706221D02*
X198211024Y-109706221D01*
X198925310Y-109706221D02*
X200068167Y-109706221D01*
X200782452Y-109706221D02*
X201925310Y-109706221D01*
X202639595Y-109706221D02*
X203782452Y-109706221D01*
X204496738Y-109706221D02*
X205639595Y-109706221D01*
X206353881Y-109706221D02*
X207496738Y-109706221D01*
X208211024Y-109706221D02*
X209353881Y-109706221D01*
X210068167Y-109706221D02*
X211211024Y-109706221D01*
X211925310Y-109706221D02*
X213068167Y-109706221D01*
X213782452Y-109706221D02*
X214925310Y-109706221D01*
X215639595Y-109706221D02*
X216782452Y-109706221D01*
X217496738Y-109706221D02*
X218639595Y-109706221D01*
X219353881Y-109706221D02*
X220496738Y-109706221D01*
X221211024Y-109706221D02*
X222353881Y-109706221D01*
X223068167Y-109706221D02*
X224211024Y-109706221D01*
X224925310Y-109706221D02*
X226068167Y-109706221D01*
X226782452Y-109706221D02*
X227925310Y-109706221D01*
X228639595Y-109706221D02*
X229782452Y-109706221D01*
X230496738Y-109706221D02*
X231639595Y-109706221D01*
X232353881Y-109706221D02*
X233496738Y-109706221D01*
X188282452Y-112041936D02*
X188496738Y-112113364D01*
X188568167Y-112184793D01*
X188639595Y-112327650D01*
X188639595Y-112541936D01*
X188568167Y-112684793D01*
X188496738Y-112756221D01*
X188353881Y-112827650D01*
X187782452Y-112827650D01*
X187782452Y-111327650D01*
X188282452Y-111327650D01*
X188425310Y-111399079D01*
X188496738Y-111470507D01*
X188568167Y-111613364D01*
X188568167Y-111756221D01*
X188496738Y-111899079D01*
X188425310Y-111970507D01*
X188282452Y-112041936D01*
X187782452Y-112041936D01*
X189496738Y-112827650D02*
X189353881Y-112756221D01*
X189282452Y-112684793D01*
X189211024Y-112541936D01*
X189211024Y-112113364D01*
X189282452Y-111970507D01*
X189353881Y-111899079D01*
X189496738Y-111827650D01*
X189711024Y-111827650D01*
X189853881Y-111899079D01*
X189925310Y-111970507D01*
X189996738Y-112113364D01*
X189996738Y-112541936D01*
X189925310Y-112684793D01*
X189853881Y-112756221D01*
X189711024Y-112827650D01*
X189496738Y-112827650D01*
X190425310Y-111827650D02*
X190996738Y-111827650D01*
X190639595Y-111327650D02*
X190639595Y-112613364D01*
X190711024Y-112756221D01*
X190853881Y-112827650D01*
X190996738Y-112827650D01*
X191282452Y-111827650D02*
X191853881Y-111827650D01*
X191496738Y-111327650D02*
X191496738Y-112613364D01*
X191568167Y-112756221D01*
X191711024Y-112827650D01*
X191853881Y-112827650D01*
X192568167Y-112827650D02*
X192425310Y-112756221D01*
X192353881Y-112684793D01*
X192282452Y-112541936D01*
X192282452Y-112113364D01*
X192353881Y-111970507D01*
X192425310Y-111899079D01*
X192568167Y-111827650D01*
X192782452Y-111827650D01*
X192925310Y-111899079D01*
X192996738Y-111970507D01*
X193068167Y-112113364D01*
X193068167Y-112541936D01*
X192996738Y-112684793D01*
X192925310Y-112756221D01*
X192782452Y-112827650D01*
X192568167Y-112827650D01*
X193711024Y-112827650D02*
X193711024Y-111827650D01*
X193711024Y-111970507D02*
X193782452Y-111899079D01*
X193925310Y-111827650D01*
X194139595Y-111827650D01*
X194282452Y-111899079D01*
X194353881Y-112041936D01*
X194353881Y-112827650D01*
X194353881Y-112041936D02*
X194425310Y-111899079D01*
X194568167Y-111827650D01*
X194782452Y-111827650D01*
X194925310Y-111899079D01*
X194996738Y-112041936D01*
X194996738Y-112827650D01*
X196782452Y-111470507D02*
X196853881Y-111399079D01*
X196996738Y-111327650D01*
X197353881Y-111327650D01*
X197496738Y-111399079D01*
X197568167Y-111470507D01*
X197639595Y-111613364D01*
X197639595Y-111756221D01*
X197568167Y-111970507D01*
X196711024Y-112827650D01*
X197639595Y-112827650D01*
X199711024Y-111327650D02*
X199996738Y-111327650D01*
X200139595Y-111399079D01*
X200282452Y-111541936D01*
X200353881Y-111827650D01*
X200353881Y-112327650D01*
X200282452Y-112613364D01*
X200139595Y-112756221D01*
X199996738Y-112827650D01*
X199711024Y-112827650D01*
X199568167Y-112756221D01*
X199425310Y-112613364D01*
X199353881Y-112327650D01*
X199353881Y-111827650D01*
X199425310Y-111541936D01*
X199568167Y-111399079D01*
X199711024Y-111327650D01*
X200853881Y-111827650D02*
X201639595Y-111827650D01*
X200853881Y-112827650D01*
X201639595Y-112827650D01*
X203353881Y-112827650D02*
X203353881Y-111327650D01*
X203353881Y-112041936D02*
X204211024Y-112041936D01*
X204211024Y-112827650D02*
X204211024Y-111327650D01*
X204853881Y-112399079D02*
X205568167Y-112399079D01*
X204711024Y-112827650D02*
X205211024Y-111327650D01*
X205711024Y-112827650D01*
X206139595Y-112756221D02*
X206353881Y-112827650D01*
X206711024Y-112827650D01*
X206853881Y-112756221D01*
X206925310Y-112684793D01*
X206996738Y-112541936D01*
X206996738Y-112399079D01*
X206925310Y-112256221D01*
X206853881Y-112184793D01*
X206711024Y-112113364D01*
X206425310Y-112041936D01*
X206282452Y-111970507D01*
X206211024Y-111899079D01*
X206139595Y-111756221D01*
X206139595Y-111613364D01*
X206211024Y-111470507D01*
X206282452Y-111399079D01*
X206425310Y-111327650D01*
X206782452Y-111327650D01*
X206996738Y-111399079D01*
X208353881Y-112827650D02*
X207639595Y-112827650D01*
X207639595Y-111327650D01*
X187782452Y-114806221D02*
X188925310Y-114806221D01*
X189639595Y-114806221D02*
X190782452Y-114806221D01*
X191496738Y-114806221D02*
X192639595Y-114806221D01*
X193353881Y-114806221D02*
X194496738Y-114806221D01*
X195211024Y-114806221D02*
X196353881Y-114806221D01*
X197068167Y-114806221D02*
X198211024Y-114806221D01*
X198925310Y-114806221D02*
X200068167Y-114806221D01*
X200782452Y-114806221D02*
X201925310Y-114806221D01*
X202639595Y-114806221D02*
X203782452Y-114806221D01*
X204496738Y-114806221D02*
X205639595Y-114806221D01*
X206353881Y-114806221D02*
X207496738Y-114806221D01*
X208211024Y-114806221D02*
X209353881Y-114806221D01*
X210068167Y-114806221D02*
X211211024Y-114806221D01*
X211925310Y-114806221D02*
X213068167Y-114806221D01*
X213782452Y-114806221D02*
X214925310Y-114806221D01*
X215639595Y-114806221D02*
X216782452Y-114806221D01*
X217496738Y-114806221D02*
X218639595Y-114806221D01*
X219353881Y-114806221D02*
X220496738Y-114806221D01*
X221211024Y-114806221D02*
X222353881Y-114806221D01*
X223068167Y-114806221D02*
X224211024Y-114806221D01*
X224925310Y-114806221D02*
X226068167Y-114806221D01*
X226782452Y-114806221D02*
X227925310Y-114806221D01*
X228639595Y-114806221D02*
X229782452Y-114806221D01*
X230496738Y-114806221D02*
X231639595Y-114806221D01*
X232353881Y-114806221D02*
X233496738Y-114806221D01*
X187711024Y-117856221D02*
X187925310Y-117927650D01*
X188282452Y-117927650D01*
X188425310Y-117856221D01*
X188496738Y-117784793D01*
X188568167Y-117641936D01*
X188568167Y-117499079D01*
X188496738Y-117356221D01*
X188425310Y-117284793D01*
X188282452Y-117213364D01*
X187996738Y-117141936D01*
X187853881Y-117070507D01*
X187782452Y-116999079D01*
X187711024Y-116856221D01*
X187711024Y-116713364D01*
X187782452Y-116570507D01*
X187853881Y-116499079D01*
X187996738Y-116427650D01*
X188353881Y-116427650D01*
X188568167Y-116499079D01*
X189425310Y-117927650D02*
X189282452Y-117856221D01*
X189211024Y-117784793D01*
X189139595Y-117641936D01*
X189139595Y-117213364D01*
X189211024Y-117070507D01*
X189282452Y-116999079D01*
X189425310Y-116927650D01*
X189639595Y-116927650D01*
X189782452Y-116999079D01*
X189853881Y-117070507D01*
X189925310Y-117213364D01*
X189925310Y-117641936D01*
X189853881Y-117784793D01*
X189782452Y-117856221D01*
X189639595Y-117927650D01*
X189425310Y-117927650D01*
X190782452Y-117927650D02*
X190639595Y-117856221D01*
X190568167Y-117713364D01*
X190568167Y-116427650D01*
X191996738Y-117927650D02*
X191996738Y-116427650D01*
X191996738Y-117856221D02*
X191853881Y-117927650D01*
X191568167Y-117927650D01*
X191425310Y-117856221D01*
X191353881Y-117784793D01*
X191282452Y-117641936D01*
X191282452Y-117213364D01*
X191353881Y-117070507D01*
X191425310Y-116999079D01*
X191568167Y-116927650D01*
X191853881Y-116927650D01*
X191996738Y-116999079D01*
X193282452Y-117856221D02*
X193139595Y-117927650D01*
X192853881Y-117927650D01*
X192711024Y-117856221D01*
X192639595Y-117713364D01*
X192639595Y-117141936D01*
X192711024Y-116999079D01*
X192853881Y-116927650D01*
X193139595Y-116927650D01*
X193282452Y-116999079D01*
X193353881Y-117141936D01*
X193353881Y-117284793D01*
X192639595Y-117427650D01*
X193996738Y-117927650D02*
X193996738Y-116927650D01*
X193996738Y-117213364D02*
X194068167Y-117070507D01*
X194139595Y-116999079D01*
X194282452Y-116927650D01*
X194425310Y-116927650D01*
X196068167Y-117927650D02*
X196068167Y-116427650D01*
X196568167Y-117499079D01*
X197068167Y-116427650D01*
X197068167Y-117927650D01*
X198425310Y-117927650D02*
X198425310Y-117141936D01*
X198353881Y-116999079D01*
X198211024Y-116927650D01*
X197925310Y-116927650D01*
X197782452Y-116999079D01*
X198425310Y-117856221D02*
X198282452Y-117927650D01*
X197925310Y-117927650D01*
X197782452Y-117856221D01*
X197711024Y-117713364D01*
X197711024Y-117570507D01*
X197782452Y-117427650D01*
X197925310Y-117356221D01*
X198282452Y-117356221D01*
X198425310Y-117284793D01*
X199068167Y-117856221D02*
X199211024Y-117927650D01*
X199496738Y-117927650D01*
X199639595Y-117856221D01*
X199711024Y-117713364D01*
X199711024Y-117641936D01*
X199639595Y-117499079D01*
X199496738Y-117427650D01*
X199282452Y-117427650D01*
X199139595Y-117356221D01*
X199068167Y-117213364D01*
X199068167Y-117141936D01*
X199139595Y-116999079D01*
X199282452Y-116927650D01*
X199496738Y-116927650D01*
X199639595Y-116999079D01*
X200353881Y-117927650D02*
X200353881Y-116427650D01*
X200496738Y-117356221D02*
X200925310Y-117927650D01*
X200925310Y-116927650D02*
X200353881Y-117499079D01*
X203211024Y-117141936D02*
X203425310Y-117213364D01*
X203496738Y-117284793D01*
X203568167Y-117427650D01*
X203568167Y-117641936D01*
X203496738Y-117784793D01*
X203425310Y-117856221D01*
X203282452Y-117927650D01*
X202711024Y-117927650D01*
X202711024Y-116427650D01*
X203211024Y-116427650D01*
X203353881Y-116499079D01*
X203425310Y-116570507D01*
X203496738Y-116713364D01*
X203496738Y-116856221D01*
X203425310Y-116999079D01*
X203353881Y-117070507D01*
X203211024Y-117141936D01*
X202711024Y-117141936D01*
X204425310Y-117927650D02*
X204282452Y-117856221D01*
X204211024Y-117784793D01*
X204139595Y-117641936D01*
X204139595Y-117213364D01*
X204211024Y-117070507D01*
X204282452Y-116999079D01*
X204425310Y-116927650D01*
X204639595Y-116927650D01*
X204782452Y-116999079D01*
X204853881Y-117070507D01*
X204925310Y-117213364D01*
X204925310Y-117641936D01*
X204853881Y-117784793D01*
X204782452Y-117856221D01*
X204639595Y-117927650D01*
X204425310Y-117927650D01*
X205353881Y-116927650D02*
X205925310Y-116927650D01*
X205568167Y-116427650D02*
X205568167Y-117713364D01*
X205639595Y-117856221D01*
X205782452Y-117927650D01*
X205925310Y-117927650D01*
X206211024Y-116927650D02*
X206782452Y-116927650D01*
X206425310Y-116427650D02*
X206425310Y-117713364D01*
X206496738Y-117856221D01*
X206639595Y-117927650D01*
X206782452Y-117927650D01*
X207496738Y-117927650D02*
X207353881Y-117856221D01*
X207282452Y-117784793D01*
X207211024Y-117641936D01*
X207211024Y-117213364D01*
X207282452Y-117070507D01*
X207353881Y-116999079D01*
X207496738Y-116927650D01*
X207711024Y-116927650D01*
X207853881Y-116999079D01*
X207925310Y-117070507D01*
X207996738Y-117213364D01*
X207996738Y-117641936D01*
X207925310Y-117784793D01*
X207853881Y-117856221D01*
X207711024Y-117927650D01*
X207496738Y-117927650D01*
X208639595Y-117927650D02*
X208639595Y-116927650D01*
X208639595Y-117070507D02*
X208711024Y-116999079D01*
X208853881Y-116927650D01*
X209068167Y-116927650D01*
X209211024Y-116999079D01*
X209282452Y-117141936D01*
X209282452Y-117927650D01*
X209282452Y-117141936D02*
X209353881Y-116999079D01*
X209496738Y-116927650D01*
X209711024Y-116927650D01*
X209853881Y-116999079D01*
X209925310Y-117141936D01*
X209925310Y-117927650D01*
X212568167Y-116499079D02*
X212425310Y-116427650D01*
X212211024Y-116427650D01*
X211996738Y-116499079D01*
X211853881Y-116641936D01*
X211782452Y-116784793D01*
X211711024Y-117070507D01*
X211711024Y-117284793D01*
X211782452Y-117570507D01*
X211853881Y-117713364D01*
X211996738Y-117856221D01*
X212211024Y-117927650D01*
X212353881Y-117927650D01*
X212568167Y-117856221D01*
X212639595Y-117784793D01*
X212639595Y-117284793D01*
X212353881Y-117284793D01*
X213282452Y-117927650D02*
X213282452Y-116927650D01*
X213282452Y-117213364D02*
X213353881Y-117070507D01*
X213425310Y-116999079D01*
X213568167Y-116927650D01*
X213711024Y-116927650D01*
X214782452Y-117856221D02*
X214639595Y-117927650D01*
X214353881Y-117927650D01*
X214211024Y-117856221D01*
X214139595Y-117713364D01*
X214139595Y-117141936D01*
X214211024Y-116999079D01*
X214353881Y-116927650D01*
X214639595Y-116927650D01*
X214782452Y-116999079D01*
X214853881Y-117141936D01*
X214853881Y-117284793D01*
X214139595Y-117427650D01*
X216068167Y-117856221D02*
X215925310Y-117927650D01*
X215639595Y-117927650D01*
X215496738Y-117856221D01*
X215425310Y-117713364D01*
X215425310Y-117141936D01*
X215496738Y-116999079D01*
X215639595Y-116927650D01*
X215925310Y-116927650D01*
X216068167Y-116999079D01*
X216139595Y-117141936D01*
X216139595Y-117284793D01*
X215425310Y-117427650D01*
X216782452Y-116927650D02*
X216782452Y-117927650D01*
X216782452Y-117070507D02*
X216853881Y-116999079D01*
X216996738Y-116927650D01*
X217211024Y-116927650D01*
X217353881Y-116999079D01*
X217425310Y-117141936D01*
X217425310Y-117927650D01*
X187782452Y-119906221D02*
X188925310Y-119906221D01*
X189639595Y-119906221D02*
X190782452Y-119906221D01*
X191496738Y-119906221D02*
X192639595Y-119906221D01*
X193353881Y-119906221D02*
X194496738Y-119906221D01*
X195211024Y-119906221D02*
X196353881Y-119906221D01*
X197068167Y-119906221D02*
X198211024Y-119906221D01*
X198925310Y-119906221D02*
X200068167Y-119906221D01*
X200782452Y-119906221D02*
X201925310Y-119906221D01*
X202639595Y-119906221D02*
X203782452Y-119906221D01*
X204496738Y-119906221D02*
X205639595Y-119906221D01*
X206353881Y-119906221D02*
X207496738Y-119906221D01*
X208211024Y-119906221D02*
X209353881Y-119906221D01*
X210068167Y-119906221D02*
X211211024Y-119906221D01*
X211925310Y-119906221D02*
X213068167Y-119906221D01*
X213782452Y-119906221D02*
X214925310Y-119906221D01*
X215639595Y-119906221D02*
X216782452Y-119906221D01*
X217496738Y-119906221D02*
X218639595Y-119906221D01*
X219353881Y-119906221D02*
X220496738Y-119906221D01*
X221211024Y-119906221D02*
X222353881Y-119906221D01*
X223068167Y-119906221D02*
X224211024Y-119906221D01*
X224925310Y-119906221D02*
X226068167Y-119906221D01*
X226782452Y-119906221D02*
X227925310Y-119906221D01*
X228639595Y-119906221D02*
X229782452Y-119906221D01*
X230496738Y-119906221D02*
X231639595Y-119906221D01*
X232353881Y-119906221D02*
X233496738Y-119906221D01*
X187711024Y-122956221D02*
X187925310Y-123027650D01*
X188282452Y-123027650D01*
X188425310Y-122956221D01*
X188496738Y-122884793D01*
X188568167Y-122741936D01*
X188568167Y-122599079D01*
X188496738Y-122456221D01*
X188425310Y-122384793D01*
X188282452Y-122313364D01*
X187996738Y-122241936D01*
X187853881Y-122170507D01*
X187782452Y-122099079D01*
X187711024Y-121956221D01*
X187711024Y-121813364D01*
X187782452Y-121670507D01*
X187853881Y-121599079D01*
X187996738Y-121527650D01*
X188353881Y-121527650D01*
X188568167Y-121599079D01*
X189211024Y-123027650D02*
X189211024Y-122027650D01*
X189211024Y-121527650D02*
X189139595Y-121599079D01*
X189211024Y-121670507D01*
X189282452Y-121599079D01*
X189211024Y-121527650D01*
X189211024Y-121670507D01*
X190139595Y-123027650D02*
X189996738Y-122956221D01*
X189925310Y-122813364D01*
X189925310Y-121527650D01*
X190711024Y-123027650D02*
X190711024Y-121527650D01*
X190853881Y-122456221D02*
X191282452Y-123027650D01*
X191282452Y-122027650D02*
X190711024Y-122599079D01*
X191853881Y-122956221D02*
X191996738Y-123027650D01*
X192282452Y-123027650D01*
X192425310Y-122956221D01*
X192496738Y-122813364D01*
X192496738Y-122741936D01*
X192425310Y-122599079D01*
X192282452Y-122527650D01*
X192068167Y-122527650D01*
X191925310Y-122456221D01*
X191853881Y-122313364D01*
X191853881Y-122241936D01*
X191925310Y-122099079D01*
X192068167Y-122027650D01*
X192282452Y-122027650D01*
X192425310Y-122099079D01*
X193782452Y-122956221D02*
X193639595Y-123027650D01*
X193353881Y-123027650D01*
X193211024Y-122956221D01*
X193139595Y-122884793D01*
X193068167Y-122741936D01*
X193068167Y-122313364D01*
X193139595Y-122170507D01*
X193211024Y-122099079D01*
X193353881Y-122027650D01*
X193639595Y-122027650D01*
X193782452Y-122099079D01*
X194425310Y-123027650D02*
X194425310Y-122027650D01*
X194425310Y-122313364D02*
X194496738Y-122170507D01*
X194568167Y-122099079D01*
X194711024Y-122027650D01*
X194853881Y-122027650D01*
X195925310Y-122956221D02*
X195782452Y-123027650D01*
X195496738Y-123027650D01*
X195353881Y-122956221D01*
X195282452Y-122813364D01*
X195282452Y-122241936D01*
X195353881Y-122099079D01*
X195496738Y-122027650D01*
X195782452Y-122027650D01*
X195925310Y-122099079D01*
X195996738Y-122241936D01*
X195996738Y-122384793D01*
X195282452Y-122527650D01*
X197211024Y-122956221D02*
X197068167Y-123027650D01*
X196782452Y-123027650D01*
X196639595Y-122956221D01*
X196568167Y-122813364D01*
X196568167Y-122241936D01*
X196639595Y-122099079D01*
X196782452Y-122027650D01*
X197068167Y-122027650D01*
X197211024Y-122099079D01*
X197282452Y-122241936D01*
X197282452Y-122384793D01*
X196568167Y-122527650D01*
X197925310Y-122027650D02*
X197925310Y-123027650D01*
X197925310Y-122170507D02*
X197996738Y-122099079D01*
X198139595Y-122027650D01*
X198353881Y-122027650D01*
X198496738Y-122099079D01*
X198568167Y-122241936D01*
X198568167Y-123027650D01*
X200925310Y-122241936D02*
X201139595Y-122313364D01*
X201211024Y-122384793D01*
X201282452Y-122527650D01*
X201282452Y-122741936D01*
X201211024Y-122884793D01*
X201139595Y-122956221D01*
X200996738Y-123027650D01*
X200425310Y-123027650D01*
X200425310Y-121527650D01*
X200925310Y-121527650D01*
X201068167Y-121599079D01*
X201139595Y-121670507D01*
X201211024Y-121813364D01*
X201211024Y-121956221D01*
X201139595Y-122099079D01*
X201068167Y-122170507D01*
X200925310Y-122241936D01*
X200425310Y-122241936D01*
X202139595Y-123027650D02*
X201996738Y-122956221D01*
X201925310Y-122884793D01*
X201853881Y-122741936D01*
X201853881Y-122313364D01*
X201925310Y-122170507D01*
X201996738Y-122099079D01*
X202139595Y-122027650D01*
X202353881Y-122027650D01*
X202496738Y-122099079D01*
X202568167Y-122170507D01*
X202639595Y-122313364D01*
X202639595Y-122741936D01*
X202568167Y-122884793D01*
X202496738Y-122956221D01*
X202353881Y-123027650D01*
X202139595Y-123027650D01*
X203068167Y-122027650D02*
X203639595Y-122027650D01*
X203282452Y-121527650D02*
X203282452Y-122813364D01*
X203353881Y-122956221D01*
X203496738Y-123027650D01*
X203639595Y-123027650D01*
X203925310Y-122027650D02*
X204496738Y-122027650D01*
X204139595Y-121527650D02*
X204139595Y-122813364D01*
X204211024Y-122956221D01*
X204353881Y-123027650D01*
X204496738Y-123027650D01*
X205211024Y-123027650D02*
X205068167Y-122956221D01*
X204996738Y-122884793D01*
X204925310Y-122741936D01*
X204925310Y-122313364D01*
X204996738Y-122170507D01*
X205068167Y-122099079D01*
X205211024Y-122027650D01*
X205425310Y-122027650D01*
X205568167Y-122099079D01*
X205639595Y-122170507D01*
X205711024Y-122313364D01*
X205711024Y-122741936D01*
X205639595Y-122884793D01*
X205568167Y-122956221D01*
X205425310Y-123027650D01*
X205211024Y-123027650D01*
X206353881Y-123027650D02*
X206353881Y-122027650D01*
X206353881Y-122170507D02*
X206425310Y-122099079D01*
X206568167Y-122027650D01*
X206782452Y-122027650D01*
X206925310Y-122099079D01*
X206996738Y-122241936D01*
X206996738Y-123027650D01*
X206996738Y-122241936D02*
X207068167Y-122099079D01*
X207211024Y-122027650D01*
X207425310Y-122027650D01*
X207568167Y-122099079D01*
X207639595Y-122241936D01*
X207639595Y-123027650D01*
X209353881Y-121527650D02*
X209711024Y-123027650D01*
X209996738Y-121956221D01*
X210282452Y-123027650D01*
X210639595Y-121527650D01*
X211211024Y-123027650D02*
X211211024Y-121527650D01*
X211853881Y-123027650D02*
X211853881Y-122241936D01*
X211782452Y-122099079D01*
X211639595Y-122027650D01*
X211425310Y-122027650D01*
X211282452Y-122099079D01*
X211211024Y-122170507D01*
X212568167Y-123027650D02*
X212568167Y-122027650D01*
X212568167Y-121527650D02*
X212496738Y-121599079D01*
X212568167Y-121670507D01*
X212639595Y-121599079D01*
X212568167Y-121527650D01*
X212568167Y-121670507D01*
X213068167Y-122027650D02*
X213639595Y-122027650D01*
X213282452Y-121527650D02*
X213282452Y-122813364D01*
X213353881Y-122956221D01*
X213496738Y-123027650D01*
X213639595Y-123027650D01*
X214711024Y-122956221D02*
X214568167Y-123027650D01*
X214282452Y-123027650D01*
X214139595Y-122956221D01*
X214068167Y-122813364D01*
X214068167Y-122241936D01*
X214139595Y-122099079D01*
X214282452Y-122027650D01*
X214568167Y-122027650D01*
X214711024Y-122099079D01*
X214782452Y-122241936D01*
X214782452Y-122384793D01*
X214068167Y-122527650D01*
X187782452Y-125006221D02*
X188925310Y-125006221D01*
X189639595Y-125006221D02*
X190782452Y-125006221D01*
X191496738Y-125006221D02*
X192639595Y-125006221D01*
X193353881Y-125006221D02*
X194496738Y-125006221D01*
X195211024Y-125006221D02*
X196353881Y-125006221D01*
X197068167Y-125006221D02*
X198211024Y-125006221D01*
X198925310Y-125006221D02*
X200068167Y-125006221D01*
X200782452Y-125006221D02*
X201925310Y-125006221D01*
X202639595Y-125006221D02*
X203782452Y-125006221D01*
X204496738Y-125006221D02*
X205639595Y-125006221D01*
X206353881Y-125006221D02*
X207496738Y-125006221D01*
X208211024Y-125006221D02*
X209353881Y-125006221D01*
X210068167Y-125006221D02*
X211211024Y-125006221D01*
X211925310Y-125006221D02*
X213068167Y-125006221D01*
X213782452Y-125006221D02*
X214925310Y-125006221D01*
X215639595Y-125006221D02*
X216782452Y-125006221D01*
X217496738Y-125006221D02*
X218639595Y-125006221D01*
X219353881Y-125006221D02*
X220496738Y-125006221D01*
X221211024Y-125006221D02*
X222353881Y-125006221D01*
X223068167Y-125006221D02*
X224211024Y-125006221D01*
X224925310Y-125006221D02*
X226068167Y-125006221D01*
X226782452Y-125006221D02*
X227925310Y-125006221D01*
X228639595Y-125006221D02*
X229782452Y-125006221D01*
X230496738Y-125006221D02*
X231639595Y-125006221D01*
X232353881Y-125006221D02*
X233496738Y-125006221D01*
X187782452Y-128127650D02*
X187782452Y-126627650D01*
X188353881Y-126627650D01*
X188496738Y-126699079D01*
X188568167Y-126770507D01*
X188639595Y-126913364D01*
X188639595Y-127127650D01*
X188568167Y-127270507D01*
X188496738Y-127341936D01*
X188353881Y-127413364D01*
X187782452Y-127413364D01*
X189925310Y-128127650D02*
X189925310Y-127341936D01*
X189853881Y-127199079D01*
X189711024Y-127127650D01*
X189425310Y-127127650D01*
X189282452Y-127199079D01*
X189925310Y-128056221D02*
X189782452Y-128127650D01*
X189425310Y-128127650D01*
X189282452Y-128056221D01*
X189211024Y-127913364D01*
X189211024Y-127770507D01*
X189282452Y-127627650D01*
X189425310Y-127556221D01*
X189782452Y-127556221D01*
X189925310Y-127484793D01*
X190568167Y-128056221D02*
X190711024Y-128127650D01*
X190996738Y-128127650D01*
X191139595Y-128056221D01*
X191211024Y-127913364D01*
X191211024Y-127841936D01*
X191139595Y-127699079D01*
X190996738Y-127627650D01*
X190782452Y-127627650D01*
X190639595Y-127556221D01*
X190568167Y-127413364D01*
X190568167Y-127341936D01*
X190639595Y-127199079D01*
X190782452Y-127127650D01*
X190996738Y-127127650D01*
X191139595Y-127199079D01*
X191639595Y-127127650D02*
X192211024Y-127127650D01*
X191853881Y-126627650D02*
X191853881Y-127913364D01*
X191925310Y-128056221D01*
X192068167Y-128127650D01*
X192211024Y-128127650D01*
X193282452Y-128056221D02*
X193139595Y-128127650D01*
X192853881Y-128127650D01*
X192711024Y-128056221D01*
X192639595Y-127913364D01*
X192639595Y-127341936D01*
X192711024Y-127199079D01*
X192853881Y-127127650D01*
X193139595Y-127127650D01*
X193282452Y-127199079D01*
X193353881Y-127341936D01*
X193353881Y-127484793D01*
X192639595Y-127627650D01*
X195139595Y-128127650D02*
X195139595Y-126627650D01*
X195639595Y-127699079D01*
X196139595Y-126627650D01*
X196139595Y-128127650D01*
X197496738Y-128127650D02*
X197496738Y-127341936D01*
X197425310Y-127199079D01*
X197282452Y-127127650D01*
X196996738Y-127127650D01*
X196853881Y-127199079D01*
X197496738Y-128056221D02*
X197353881Y-128127650D01*
X196996738Y-128127650D01*
X196853881Y-128056221D01*
X196782452Y-127913364D01*
X196782452Y-127770507D01*
X196853881Y-127627650D01*
X196996738Y-127556221D01*
X197353881Y-127556221D01*
X197496738Y-127484793D01*
X198139595Y-128056221D02*
X198282452Y-128127650D01*
X198568167Y-128127650D01*
X198711024Y-128056221D01*
X198782452Y-127913364D01*
X198782452Y-127841936D01*
X198711024Y-127699079D01*
X198568167Y-127627650D01*
X198353881Y-127627650D01*
X198211024Y-127556221D01*
X198139595Y-127413364D01*
X198139595Y-127341936D01*
X198211024Y-127199079D01*
X198353881Y-127127650D01*
X198568167Y-127127650D01*
X198711024Y-127199079D01*
X199425310Y-128127650D02*
X199425310Y-126627650D01*
X199568167Y-127556221D02*
X199996738Y-128127650D01*
X199996738Y-127127650D02*
X199425310Y-127699079D01*
X202282452Y-127341936D02*
X202496738Y-127413364D01*
X202568167Y-127484793D01*
X202639595Y-127627650D01*
X202639595Y-127841936D01*
X202568167Y-127984793D01*
X202496738Y-128056221D01*
X202353881Y-128127650D01*
X201782452Y-128127650D01*
X201782452Y-126627650D01*
X202282452Y-126627650D01*
X202425310Y-126699079D01*
X202496738Y-126770507D01*
X202568167Y-126913364D01*
X202568167Y-127056221D01*
X202496738Y-127199079D01*
X202425310Y-127270507D01*
X202282452Y-127341936D01*
X201782452Y-127341936D01*
X203496738Y-128127650D02*
X203353881Y-128056221D01*
X203282452Y-127984793D01*
X203211024Y-127841936D01*
X203211024Y-127413364D01*
X203282452Y-127270507D01*
X203353881Y-127199079D01*
X203496738Y-127127650D01*
X203711024Y-127127650D01*
X203853881Y-127199079D01*
X203925310Y-127270507D01*
X203996738Y-127413364D01*
X203996738Y-127841936D01*
X203925310Y-127984793D01*
X203853881Y-128056221D01*
X203711024Y-128127650D01*
X203496738Y-128127650D01*
X204425310Y-127127650D02*
X204996738Y-127127650D01*
X204639595Y-126627650D02*
X204639595Y-127913364D01*
X204711024Y-128056221D01*
X204853881Y-128127650D01*
X204996738Y-128127650D01*
X205282452Y-127127650D02*
X205853881Y-127127650D01*
X205496738Y-126627650D02*
X205496738Y-127913364D01*
X205568167Y-128056221D01*
X205711024Y-128127650D01*
X205853881Y-128127650D01*
X206568167Y-128127650D02*
X206425310Y-128056221D01*
X206353881Y-127984793D01*
X206282452Y-127841936D01*
X206282452Y-127413364D01*
X206353881Y-127270507D01*
X206425310Y-127199079D01*
X206568167Y-127127650D01*
X206782452Y-127127650D01*
X206925310Y-127199079D01*
X206996738Y-127270507D01*
X207068167Y-127413364D01*
X207068167Y-127841936D01*
X206996738Y-127984793D01*
X206925310Y-128056221D01*
X206782452Y-128127650D01*
X206568167Y-128127650D01*
X207711024Y-128127650D02*
X207711024Y-127127650D01*
X207711024Y-127270507D02*
X207782452Y-127199079D01*
X207925310Y-127127650D01*
X208139595Y-127127650D01*
X208282452Y-127199079D01*
X208353881Y-127341936D01*
X208353881Y-128127650D01*
X208353881Y-127341936D02*
X208425310Y-127199079D01*
X208568167Y-127127650D01*
X208782452Y-127127650D01*
X208925310Y-127199079D01*
X208996738Y-127341936D01*
X208996738Y-128127650D01*
X187996738Y-131727650D02*
X187996738Y-132084793D01*
X187639595Y-131941936D02*
X187996738Y-132084793D01*
X188353881Y-131941936D01*
X187782452Y-132370507D02*
X187996738Y-132084793D01*
X188211024Y-132370507D01*
X189139595Y-131727650D02*
X189139595Y-132084793D01*
X188782452Y-131941936D02*
X189139595Y-132084793D01*
X189496738Y-131941936D01*
X188925310Y-132370507D02*
X189139595Y-132084793D01*
X189353881Y-132370507D01*
X190282452Y-131727650D02*
X190282452Y-132084793D01*
X189925310Y-131941936D02*
X190282452Y-132084793D01*
X190639595Y-131941936D01*
X190068167Y-132370507D02*
X190282452Y-132084793D01*
X190496738Y-132370507D01*
X191425310Y-131727650D02*
X191425310Y-132084793D01*
X191068167Y-131941936D02*
X191425310Y-132084793D01*
X191782452Y-131941936D01*
X191211024Y-132370507D02*
X191425310Y-132084793D01*
X191639595Y-132370507D01*
X192568167Y-131727650D02*
X192568167Y-132084793D01*
X192211024Y-131941936D02*
X192568167Y-132084793D01*
X192925310Y-131941936D01*
X192353881Y-132370507D02*
X192568167Y-132084793D01*
X192782452Y-132370507D01*
X193711024Y-131727650D02*
X193711024Y-132084793D01*
X193353881Y-131941936D02*
X193711024Y-132084793D01*
X194068167Y-131941936D01*
X193496738Y-132370507D02*
X193711024Y-132084793D01*
X193925310Y-132370507D01*
X194853881Y-131727650D02*
X194853881Y-132084793D01*
X194496738Y-131941936D02*
X194853881Y-132084793D01*
X195211024Y-131941936D01*
X194639595Y-132370507D02*
X194853881Y-132084793D01*
X195068167Y-132370507D01*
X195996738Y-131727650D02*
X195996738Y-132084793D01*
X195639595Y-131941936D02*
X195996738Y-132084793D01*
X196353881Y-131941936D01*
X195782452Y-132370507D02*
X195996738Y-132084793D01*
X196211024Y-132370507D01*
X197139595Y-131727650D02*
X197139595Y-132084793D01*
X196782452Y-131941936D02*
X197139595Y-132084793D01*
X197496738Y-131941936D01*
X196925310Y-132370507D02*
X197139595Y-132084793D01*
X197353881Y-132370507D01*
X198282452Y-131727650D02*
X198282452Y-132084793D01*
X197925310Y-131941936D02*
X198282452Y-132084793D01*
X198639595Y-131941936D01*
X198068167Y-132370507D02*
X198282452Y-132084793D01*
X198496738Y-132370507D01*
X199425310Y-131727650D02*
X199425310Y-132084793D01*
X199068167Y-131941936D02*
X199425310Y-132084793D01*
X199782452Y-131941936D01*
X199211024Y-132370507D02*
X199425310Y-132084793D01*
X199639595Y-132370507D01*
X200568167Y-131727650D02*
X200568167Y-132084793D01*
X200211024Y-131941936D02*
X200568167Y-132084793D01*
X200925310Y-131941936D01*
X200353881Y-132370507D02*
X200568167Y-132084793D01*
X200782452Y-132370507D01*
X201711024Y-131727650D02*
X201711024Y-132084793D01*
X201353881Y-131941936D02*
X201711024Y-132084793D01*
X202068167Y-131941936D01*
X201496738Y-132370507D02*
X201711024Y-132084793D01*
X201925310Y-132370507D01*
X202853881Y-131727650D02*
X202853881Y-132084793D01*
X202496738Y-131941936D02*
X202853881Y-132084793D01*
X203211024Y-131941936D01*
X202639595Y-132370507D02*
X202853881Y-132084793D01*
X203068167Y-132370507D01*
X203996738Y-131727650D02*
X203996738Y-132084793D01*
X203639595Y-131941936D02*
X203996738Y-132084793D01*
X204353881Y-131941936D01*
X203782452Y-132370507D02*
X203996738Y-132084793D01*
X204211024Y-132370507D01*
X205139595Y-131727650D02*
X205139595Y-132084793D01*
X204782452Y-131941936D02*
X205139595Y-132084793D01*
X205496738Y-131941936D01*
X204925310Y-132370507D02*
X205139595Y-132084793D01*
X205353881Y-132370507D01*
X206282452Y-131727650D02*
X206282452Y-132084793D01*
X205925310Y-131941936D02*
X206282452Y-132084793D01*
X206639595Y-131941936D01*
X206068167Y-132370507D02*
X206282452Y-132084793D01*
X206496738Y-132370507D01*
X207425310Y-131727650D02*
X207425310Y-132084793D01*
X207068167Y-131941936D02*
X207425310Y-132084793D01*
X207782452Y-131941936D01*
X207211024Y-132370507D02*
X207425310Y-132084793D01*
X207639595Y-132370507D01*
X208568167Y-131727650D02*
X208568167Y-132084793D01*
X208211024Y-131941936D02*
X208568167Y-132084793D01*
X208925310Y-131941936D01*
X208353881Y-132370507D02*
X208568167Y-132084793D01*
X208782452Y-132370507D01*
X209711024Y-131727650D02*
X209711024Y-132084793D01*
X209353881Y-131941936D02*
X209711024Y-132084793D01*
X210068167Y-131941936D01*
X209496738Y-132370507D02*
X209711024Y-132084793D01*
X209925310Y-132370507D01*
X210853881Y-131727650D02*
X210853881Y-132084793D01*
X210496738Y-131941936D02*
X210853881Y-132084793D01*
X211211024Y-131941936D01*
X210639595Y-132370507D02*
X210853881Y-132084793D01*
X211068167Y-132370507D01*
X211996738Y-131727650D02*
X211996738Y-132084793D01*
X211639595Y-131941936D02*
X211996738Y-132084793D01*
X212353881Y-131941936D01*
X211782452Y-132370507D02*
X211996738Y-132084793D01*
X212211024Y-132370507D01*
X213139595Y-131727650D02*
X213139595Y-132084793D01*
X212782452Y-131941936D02*
X213139595Y-132084793D01*
X213496738Y-131941936D01*
X212925310Y-132370507D02*
X213139595Y-132084793D01*
X213353881Y-132370507D01*
X214282452Y-131727650D02*
X214282452Y-132084793D01*
X213925309Y-131941936D02*
X214282452Y-132084793D01*
X214639595Y-131941936D01*
X214068167Y-132370507D02*
X214282452Y-132084793D01*
X214496738Y-132370507D01*
X215425309Y-131727650D02*
X215425309Y-132084793D01*
X215068167Y-131941936D02*
X215425309Y-132084793D01*
X215782452Y-131941936D01*
X215211024Y-132370507D02*
X215425309Y-132084793D01*
X215639595Y-132370507D01*
X216568167Y-131727650D02*
X216568167Y-132084793D01*
X216211024Y-131941936D02*
X216568167Y-132084793D01*
X216925309Y-131941936D01*
X216353881Y-132370507D02*
X216568167Y-132084793D01*
X216782452Y-132370507D01*
X217711024Y-131727650D02*
X217711024Y-132084793D01*
X217353881Y-131941936D02*
X217711024Y-132084793D01*
X218068167Y-131941936D01*
X217496738Y-132370507D02*
X217711024Y-132084793D01*
X217925309Y-132370507D01*
X218853881Y-131727650D02*
X218853881Y-132084793D01*
X218496738Y-131941936D02*
X218853881Y-132084793D01*
X219211024Y-131941936D01*
X218639595Y-132370507D02*
X218853881Y-132084793D01*
X219068167Y-132370507D01*
X219996738Y-131727650D02*
X219996738Y-132084793D01*
X219639595Y-131941936D02*
X219996738Y-132084793D01*
X220353881Y-131941936D01*
X219782452Y-132370507D02*
X219996738Y-132084793D01*
X220211024Y-132370507D01*
X221139595Y-131727650D02*
X221139595Y-132084793D01*
X220782452Y-131941936D02*
X221139595Y-132084793D01*
X221496738Y-131941936D01*
X220925309Y-132370507D02*
X221139595Y-132084793D01*
X221353881Y-132370507D01*
X222282452Y-131727650D02*
X222282452Y-132084793D01*
X221925309Y-131941936D02*
X222282452Y-132084793D01*
X222639595Y-131941936D01*
X222068167Y-132370507D02*
X222282452Y-132084793D01*
X222496738Y-132370507D01*
X223425309Y-131727650D02*
X223425309Y-132084793D01*
X223068167Y-131941936D02*
X223425309Y-132084793D01*
X223782452Y-131941936D01*
X223211024Y-132370507D02*
X223425309Y-132084793D01*
X223639595Y-132370507D01*
X224568167Y-131727650D02*
X224568167Y-132084793D01*
X224211024Y-131941936D02*
X224568167Y-132084793D01*
X224925309Y-131941936D01*
X224353881Y-132370507D02*
X224568167Y-132084793D01*
X224782452Y-132370507D01*
X225711024Y-131727650D02*
X225711024Y-132084793D01*
X225353881Y-131941936D02*
X225711024Y-132084793D01*
X226068167Y-131941936D01*
X225496738Y-132370507D02*
X225711024Y-132084793D01*
X225925309Y-132370507D01*
X226853881Y-131727650D02*
X226853881Y-132084793D01*
X226496738Y-131941936D02*
X226853881Y-132084793D01*
X227211024Y-131941936D01*
X226639595Y-132370507D02*
X226853881Y-132084793D01*
X227068167Y-132370507D01*
X227996738Y-131727650D02*
X227996738Y-132084793D01*
X227639595Y-131941936D02*
X227996738Y-132084793D01*
X228353881Y-131941936D01*
X227782452Y-132370507D02*
X227996738Y-132084793D01*
X228211024Y-132370507D01*
X229139595Y-131727650D02*
X229139595Y-132084793D01*
X228782452Y-131941936D02*
X229139595Y-132084793D01*
X229496738Y-131941936D01*
X228925309Y-132370507D02*
X229139595Y-132084793D01*
X229353881Y-132370507D01*
X230282452Y-131727650D02*
X230282452Y-132084793D01*
X229925309Y-131941936D02*
X230282452Y-132084793D01*
X230639595Y-131941936D01*
X230068167Y-132370507D02*
X230282452Y-132084793D01*
X230496738Y-132370507D01*
X187568167Y-134277650D02*
X188425310Y-134277650D01*
X187996738Y-135777650D02*
X187996738Y-134277650D01*
X188925310Y-135777650D02*
X188925310Y-134777650D01*
X188925310Y-135063364D02*
X188996738Y-134920507D01*
X189068167Y-134849079D01*
X189211024Y-134777650D01*
X189353881Y-134777650D01*
X190496738Y-135777650D02*
X190496738Y-134991936D01*
X190425310Y-134849079D01*
X190282452Y-134777650D01*
X189996738Y-134777650D01*
X189853881Y-134849079D01*
X190496738Y-135706221D02*
X190353881Y-135777650D01*
X189996738Y-135777650D01*
X189853881Y-135706221D01*
X189782452Y-135563364D01*
X189782452Y-135420507D01*
X189853881Y-135277650D01*
X189996738Y-135206221D01*
X190353881Y-135206221D01*
X190496738Y-135134793D01*
X191853881Y-135706221D02*
X191711024Y-135777650D01*
X191425310Y-135777650D01*
X191282452Y-135706221D01*
X191211024Y-135634793D01*
X191139595Y-135491936D01*
X191139595Y-135063364D01*
X191211024Y-134920507D01*
X191282452Y-134849079D01*
X191425310Y-134777650D01*
X191711024Y-134777650D01*
X191853881Y-134849079D01*
X193068167Y-135706221D02*
X192925310Y-135777650D01*
X192639595Y-135777650D01*
X192496738Y-135706221D01*
X192425310Y-135563364D01*
X192425310Y-134991936D01*
X192496738Y-134849079D01*
X192639595Y-134777650D01*
X192925310Y-134777650D01*
X193068167Y-134849079D01*
X193139595Y-134991936D01*
X193139595Y-135134793D01*
X192425310Y-135277650D01*
X194853881Y-134206221D02*
X193568167Y-136134793D01*
X195282452Y-135706221D02*
X195425310Y-135777650D01*
X195711024Y-135777650D01*
X195853881Y-135706221D01*
X195925310Y-135563364D01*
X195925310Y-135491936D01*
X195853881Y-135349079D01*
X195711024Y-135277650D01*
X195496738Y-135277650D01*
X195353881Y-135206221D01*
X195282452Y-135063364D01*
X195282452Y-134991936D01*
X195353881Y-134849079D01*
X195496738Y-134777650D01*
X195711024Y-134777650D01*
X195853881Y-134849079D01*
X196568167Y-134777650D02*
X196568167Y-136277650D01*
X196568167Y-134849079D02*
X196711024Y-134777650D01*
X196996738Y-134777650D01*
X197139595Y-134849079D01*
X197211024Y-134920507D01*
X197282452Y-135063364D01*
X197282452Y-135491936D01*
X197211024Y-135634793D01*
X197139595Y-135706221D01*
X196996738Y-135777650D01*
X196711024Y-135777650D01*
X196568167Y-135706221D01*
X198568167Y-135777650D02*
X198568167Y-134991936D01*
X198496738Y-134849079D01*
X198353881Y-134777650D01*
X198068167Y-134777650D01*
X197925310Y-134849079D01*
X198568167Y-135706221D02*
X198425310Y-135777650D01*
X198068167Y-135777650D01*
X197925310Y-135706221D01*
X197853881Y-135563364D01*
X197853881Y-135420507D01*
X197925310Y-135277650D01*
X198068167Y-135206221D01*
X198425310Y-135206221D01*
X198568167Y-135134793D01*
X199925310Y-135706221D02*
X199782452Y-135777650D01*
X199496738Y-135777650D01*
X199353881Y-135706221D01*
X199282452Y-135634793D01*
X199211024Y-135491936D01*
X199211024Y-135063364D01*
X199282452Y-134920507D01*
X199353881Y-134849079D01*
X199496738Y-134777650D01*
X199782452Y-134777650D01*
X199925310Y-134849079D01*
X201139595Y-135706221D02*
X200996738Y-135777650D01*
X200711024Y-135777650D01*
X200568167Y-135706221D01*
X200496738Y-135563364D01*
X200496738Y-134991936D01*
X200568167Y-134849079D01*
X200711024Y-134777650D01*
X200996738Y-134777650D01*
X201139595Y-134849079D01*
X201211024Y-134991936D01*
X201211024Y-135134793D01*
X200496738Y-135277650D01*
X202996738Y-134991936D02*
X204139595Y-134991936D01*
X204139595Y-135420507D02*
X202996738Y-135420507D01*
X206282452Y-134277650D02*
X206425310Y-134277650D01*
X206568167Y-134349079D01*
X206639595Y-134420507D01*
X206711024Y-134563364D01*
X206782452Y-134849079D01*
X206782452Y-135206221D01*
X206711024Y-135491936D01*
X206639595Y-135634793D01*
X206568167Y-135706221D01*
X206425310Y-135777650D01*
X206282452Y-135777650D01*
X206139595Y-135706221D01*
X206068167Y-135634793D01*
X205996738Y-135491936D01*
X205925310Y-135206221D01*
X205925310Y-134849079D01*
X205996738Y-134563364D01*
X206068167Y-134420507D01*
X206139595Y-134349079D01*
X206282452Y-134277650D01*
X207425310Y-135634793D02*
X207496738Y-135706221D01*
X207425310Y-135777650D01*
X207353881Y-135706221D01*
X207425310Y-135634793D01*
X207425310Y-135777650D01*
X208068167Y-134420507D02*
X208139595Y-134349079D01*
X208282452Y-134277650D01*
X208639595Y-134277650D01*
X208782452Y-134349079D01*
X208853881Y-134420507D01*
X208925310Y-134563364D01*
X208925310Y-134706221D01*
X208853881Y-134920507D01*
X207996738Y-135777650D01*
X208925310Y-135777650D01*
X210282452Y-134277650D02*
X209568167Y-134277650D01*
X209496738Y-134991936D01*
X209568167Y-134920507D01*
X209711024Y-134849079D01*
X210068167Y-134849079D01*
X210211024Y-134920507D01*
X210282452Y-134991936D01*
X210353881Y-135134793D01*
X210353881Y-135491936D01*
X210282452Y-135634793D01*
X210211024Y-135706221D01*
X210068167Y-135777650D01*
X209711024Y-135777650D01*
X209568167Y-135706221D01*
X209496738Y-135634793D01*
X212068167Y-134206221D02*
X210782452Y-136134793D01*
X212853881Y-134277650D02*
X212996738Y-134277650D01*
X213139595Y-134349079D01*
X213211024Y-134420507D01*
X213282452Y-134563364D01*
X213353881Y-134849079D01*
X213353881Y-135206221D01*
X213282452Y-135491936D01*
X213211024Y-135634793D01*
X213139595Y-135706221D01*
X212996738Y-135777650D01*
X212853881Y-135777650D01*
X212711024Y-135706221D01*
X212639595Y-135634793D01*
X212568167Y-135491936D01*
X212496738Y-135206221D01*
X212496738Y-134849079D01*
X212568167Y-134563364D01*
X212639595Y-134420507D01*
X212711024Y-134349079D01*
X212853881Y-134277650D01*
X213996738Y-135634793D02*
X214068167Y-135706221D01*
X213996738Y-135777650D01*
X213925310Y-135706221D01*
X213996738Y-135634793D01*
X213996738Y-135777650D01*
X214639595Y-134420507D02*
X214711024Y-134349079D01*
X214853881Y-134277650D01*
X215211024Y-134277650D01*
X215353881Y-134349079D01*
X215425310Y-134420507D01*
X215496738Y-134563364D01*
X215496738Y-134706221D01*
X215425310Y-134920507D01*
X214568167Y-135777650D01*
X215496738Y-135777650D01*
X216853881Y-134277650D02*
X216139595Y-134277650D01*
X216068167Y-134991936D01*
X216139595Y-134920507D01*
X216282452Y-134849079D01*
X216639595Y-134849079D01*
X216782452Y-134920507D01*
X216853881Y-134991936D01*
X216925310Y-135134793D01*
X216925310Y-135491936D01*
X216853881Y-135634793D01*
X216782452Y-135706221D01*
X216639595Y-135777650D01*
X216282452Y-135777650D01*
X216139595Y-135706221D01*
X216068167Y-135634793D01*
X218711024Y-135777650D02*
X218711024Y-134777650D01*
X218711024Y-134920507D02*
X218782452Y-134849079D01*
X218925310Y-134777650D01*
X219139595Y-134777650D01*
X219282452Y-134849079D01*
X219353881Y-134991936D01*
X219353881Y-135777650D01*
X219353881Y-134991936D02*
X219425310Y-134849079D01*
X219568167Y-134777650D01*
X219782452Y-134777650D01*
X219925310Y-134849079D01*
X219996738Y-134991936D01*
X219996738Y-135777650D01*
X220711024Y-135777650D02*
X220711024Y-134777650D01*
X220711024Y-134920507D02*
X220782452Y-134849079D01*
X220925310Y-134777650D01*
X221139595Y-134777650D01*
X221282452Y-134849079D01*
X221353881Y-134991936D01*
X221353881Y-135777650D01*
X221353881Y-134991936D02*
X221425310Y-134849079D01*
X221568167Y-134777650D01*
X221782452Y-134777650D01*
X221925310Y-134849079D01*
X221996738Y-134991936D01*
X221996738Y-135777650D01*
X187996738Y-136827650D02*
X187996738Y-137184793D01*
X187639595Y-137041936D02*
X187996738Y-137184793D01*
X188353881Y-137041936D01*
X187782452Y-137470507D02*
X187996738Y-137184793D01*
X188211024Y-137470507D01*
X189139595Y-136827650D02*
X189139595Y-137184793D01*
X188782452Y-137041936D02*
X189139595Y-137184793D01*
X189496738Y-137041936D01*
X188925310Y-137470507D02*
X189139595Y-137184793D01*
X189353881Y-137470507D01*
X190282452Y-136827650D02*
X190282452Y-137184793D01*
X189925310Y-137041936D02*
X190282452Y-137184793D01*
X190639595Y-137041936D01*
X190068167Y-137470507D02*
X190282452Y-137184793D01*
X190496738Y-137470507D01*
X191425310Y-136827650D02*
X191425310Y-137184793D01*
X191068167Y-137041936D02*
X191425310Y-137184793D01*
X191782452Y-137041936D01*
X191211024Y-137470507D02*
X191425310Y-137184793D01*
X191639595Y-137470507D01*
X192568167Y-136827650D02*
X192568167Y-137184793D01*
X192211024Y-137041936D02*
X192568167Y-137184793D01*
X192925310Y-137041936D01*
X192353881Y-137470507D02*
X192568167Y-137184793D01*
X192782452Y-137470507D01*
X193711024Y-136827650D02*
X193711024Y-137184793D01*
X193353881Y-137041936D02*
X193711024Y-137184793D01*
X194068167Y-137041936D01*
X193496738Y-137470507D02*
X193711024Y-137184793D01*
X193925310Y-137470507D01*
X194853881Y-136827650D02*
X194853881Y-137184793D01*
X194496738Y-137041936D02*
X194853881Y-137184793D01*
X195211024Y-137041936D01*
X194639595Y-137470507D02*
X194853881Y-137184793D01*
X195068167Y-137470507D01*
X195996738Y-136827650D02*
X195996738Y-137184793D01*
X195639595Y-137041936D02*
X195996738Y-137184793D01*
X196353881Y-137041936D01*
X195782452Y-137470507D02*
X195996738Y-137184793D01*
X196211024Y-137470507D01*
X197139595Y-136827650D02*
X197139595Y-137184793D01*
X196782452Y-137041936D02*
X197139595Y-137184793D01*
X197496738Y-137041936D01*
X196925310Y-137470507D02*
X197139595Y-137184793D01*
X197353881Y-137470507D01*
X198282452Y-136827650D02*
X198282452Y-137184793D01*
X197925310Y-137041936D02*
X198282452Y-137184793D01*
X198639595Y-137041936D01*
X198068167Y-137470507D02*
X198282452Y-137184793D01*
X198496738Y-137470507D01*
X199425310Y-136827650D02*
X199425310Y-137184793D01*
X199068167Y-137041936D02*
X199425310Y-137184793D01*
X199782452Y-137041936D01*
X199211024Y-137470507D02*
X199425310Y-137184793D01*
X199639595Y-137470507D01*
X200568167Y-136827650D02*
X200568167Y-137184793D01*
X200211024Y-137041936D02*
X200568167Y-137184793D01*
X200925310Y-137041936D01*
X200353881Y-137470507D02*
X200568167Y-137184793D01*
X200782452Y-137470507D01*
X201711024Y-136827650D02*
X201711024Y-137184793D01*
X201353881Y-137041936D02*
X201711024Y-137184793D01*
X202068167Y-137041936D01*
X201496738Y-137470507D02*
X201711024Y-137184793D01*
X201925310Y-137470507D01*
X202853881Y-136827650D02*
X202853881Y-137184793D01*
X202496738Y-137041936D02*
X202853881Y-137184793D01*
X203211024Y-137041936D01*
X202639595Y-137470507D02*
X202853881Y-137184793D01*
X203068167Y-137470507D01*
X203996738Y-136827650D02*
X203996738Y-137184793D01*
X203639595Y-137041936D02*
X203996738Y-137184793D01*
X204353881Y-137041936D01*
X203782452Y-137470507D02*
X203996738Y-137184793D01*
X204211024Y-137470507D01*
X205139595Y-136827650D02*
X205139595Y-137184793D01*
X204782452Y-137041936D02*
X205139595Y-137184793D01*
X205496738Y-137041936D01*
X204925310Y-137470507D02*
X205139595Y-137184793D01*
X205353881Y-137470507D01*
X206282452Y-136827650D02*
X206282452Y-137184793D01*
X205925310Y-137041936D02*
X206282452Y-137184793D01*
X206639595Y-137041936D01*
X206068167Y-137470507D02*
X206282452Y-137184793D01*
X206496738Y-137470507D01*
X207425310Y-136827650D02*
X207425310Y-137184793D01*
X207068167Y-137041936D02*
X207425310Y-137184793D01*
X207782452Y-137041936D01*
X207211024Y-137470507D02*
X207425310Y-137184793D01*
X207639595Y-137470507D01*
X208568167Y-136827650D02*
X208568167Y-137184793D01*
X208211024Y-137041936D02*
X208568167Y-137184793D01*
X208925310Y-137041936D01*
X208353881Y-137470507D02*
X208568167Y-137184793D01*
X208782452Y-137470507D01*
X209711024Y-136827650D02*
X209711024Y-137184793D01*
X209353881Y-137041936D02*
X209711024Y-137184793D01*
X210068167Y-137041936D01*
X209496738Y-137470507D02*
X209711024Y-137184793D01*
X209925310Y-137470507D01*
X210853881Y-136827650D02*
X210853881Y-137184793D01*
X210496738Y-137041936D02*
X210853881Y-137184793D01*
X211211024Y-137041936D01*
X210639595Y-137470507D02*
X210853881Y-137184793D01*
X211068167Y-137470507D01*
X211996738Y-136827650D02*
X211996738Y-137184793D01*
X211639595Y-137041936D02*
X211996738Y-137184793D01*
X212353881Y-137041936D01*
X211782452Y-137470507D02*
X211996738Y-137184793D01*
X212211024Y-137470507D01*
X213139595Y-136827650D02*
X213139595Y-137184793D01*
X212782452Y-137041936D02*
X213139595Y-137184793D01*
X213496738Y-137041936D01*
X212925310Y-137470507D02*
X213139595Y-137184793D01*
X213353881Y-137470507D01*
X214282452Y-136827650D02*
X214282452Y-137184793D01*
X213925309Y-137041936D02*
X214282452Y-137184793D01*
X214639595Y-137041936D01*
X214068167Y-137470507D02*
X214282452Y-137184793D01*
X214496738Y-137470507D01*
X215425309Y-136827650D02*
X215425309Y-137184793D01*
X215068167Y-137041936D02*
X215425309Y-137184793D01*
X215782452Y-137041936D01*
X215211024Y-137470507D02*
X215425309Y-137184793D01*
X215639595Y-137470507D01*
X216568167Y-136827650D02*
X216568167Y-137184793D01*
X216211024Y-137041936D02*
X216568167Y-137184793D01*
X216925309Y-137041936D01*
X216353881Y-137470507D02*
X216568167Y-137184793D01*
X216782452Y-137470507D01*
X217711024Y-136827650D02*
X217711024Y-137184793D01*
X217353881Y-137041936D02*
X217711024Y-137184793D01*
X218068167Y-137041936D01*
X217496738Y-137470507D02*
X217711024Y-137184793D01*
X217925309Y-137470507D01*
X218853881Y-136827650D02*
X218853881Y-137184793D01*
X218496738Y-137041936D02*
X218853881Y-137184793D01*
X219211024Y-137041936D01*
X218639595Y-137470507D02*
X218853881Y-137184793D01*
X219068167Y-137470507D01*
X219996738Y-136827650D02*
X219996738Y-137184793D01*
X219639595Y-137041936D02*
X219996738Y-137184793D01*
X220353881Y-137041936D01*
X219782452Y-137470507D02*
X219996738Y-137184793D01*
X220211024Y-137470507D01*
X221139595Y-136827650D02*
X221139595Y-137184793D01*
X220782452Y-137041936D02*
X221139595Y-137184793D01*
X221496738Y-137041936D01*
X220925309Y-137470507D02*
X221139595Y-137184793D01*
X221353881Y-137470507D01*
X222282452Y-136827650D02*
X222282452Y-137184793D01*
X221925309Y-137041936D02*
X222282452Y-137184793D01*
X222639595Y-137041936D01*
X222068167Y-137470507D02*
X222282452Y-137184793D01*
X222496738Y-137470507D01*
X223425309Y-136827650D02*
X223425309Y-137184793D01*
X223068167Y-137041936D02*
X223425309Y-137184793D01*
X223782452Y-137041936D01*
X223211024Y-137470507D02*
X223425309Y-137184793D01*
X223639595Y-137470507D01*
X224568167Y-136827650D02*
X224568167Y-137184793D01*
X224211024Y-137041936D02*
X224568167Y-137184793D01*
X224925309Y-137041936D01*
X224353881Y-137470507D02*
X224568167Y-137184793D01*
X224782452Y-137470507D01*
X225711024Y-136827650D02*
X225711024Y-137184793D01*
X225353881Y-137041936D02*
X225711024Y-137184793D01*
X226068167Y-137041936D01*
X225496738Y-137470507D02*
X225711024Y-137184793D01*
X225925309Y-137470507D01*
X226853881Y-136827650D02*
X226853881Y-137184793D01*
X226496738Y-137041936D02*
X226853881Y-137184793D01*
X227211024Y-137041936D01*
X226639595Y-137470507D02*
X226853881Y-137184793D01*
X227068167Y-137470507D01*
X227996738Y-136827650D02*
X227996738Y-137184793D01*
X227639595Y-137041936D02*
X227996738Y-137184793D01*
X228353881Y-137041936D01*
X227782452Y-137470507D02*
X227996738Y-137184793D01*
X228211024Y-137470507D01*
X229139595Y-136827650D02*
X229139595Y-137184793D01*
X228782452Y-137041936D02*
X229139595Y-137184793D01*
X229496738Y-137041936D01*
X228925309Y-137470507D02*
X229139595Y-137184793D01*
X229353881Y-137470507D01*
X230282452Y-136827650D02*
X230282452Y-137184793D01*
X229925309Y-137041936D02*
X230282452Y-137184793D01*
X230639595Y-137041936D01*
X230068167Y-137470507D02*
X230282452Y-137184793D01*
X230496738Y-137470507D01*
X187568167Y-139377650D02*
X188068167Y-140877650D01*
X188568167Y-139377650D01*
X189068167Y-140877650D02*
X189068167Y-139877650D01*
X189068167Y-139377650D02*
X188996738Y-139449079D01*
X189068167Y-139520507D01*
X189139595Y-139449079D01*
X189068167Y-139377650D01*
X189068167Y-139520507D01*
X190425310Y-140877650D02*
X190425310Y-140091936D01*
X190353881Y-139949079D01*
X190211024Y-139877650D01*
X189925310Y-139877650D01*
X189782452Y-139949079D01*
X190425310Y-140806221D02*
X190282452Y-140877650D01*
X189925310Y-140877650D01*
X189782452Y-140806221D01*
X189711024Y-140663364D01*
X189711024Y-140520507D01*
X189782452Y-140377650D01*
X189925310Y-140306221D01*
X190282452Y-140306221D01*
X190425310Y-140234793D01*
X191068167Y-140806221D02*
X191211024Y-140877650D01*
X191496738Y-140877650D01*
X191639595Y-140806221D01*
X191711024Y-140663364D01*
X191711024Y-140591936D01*
X191639595Y-140449079D01*
X191496738Y-140377650D01*
X191282452Y-140377650D01*
X191139595Y-140306221D01*
X191068167Y-140163364D01*
X191068167Y-140091936D01*
X191139595Y-139949079D01*
X191282452Y-139877650D01*
X191496738Y-139877650D01*
X191639595Y-139949079D01*
X193496738Y-140877650D02*
X193496738Y-139377650D01*
X193853881Y-139377650D01*
X194068167Y-139449079D01*
X194211024Y-139591936D01*
X194282452Y-139734793D01*
X194353881Y-140020507D01*
X194353881Y-140234793D01*
X194282452Y-140520507D01*
X194211024Y-140663364D01*
X194068167Y-140806221D01*
X193853881Y-140877650D01*
X193496738Y-140877650D01*
X194996738Y-140877650D02*
X194996738Y-139877650D01*
X194996738Y-140163364D02*
X195068167Y-140020507D01*
X195139595Y-139949079D01*
X195282452Y-139877650D01*
X195425310Y-139877650D01*
X195925310Y-140877650D02*
X195925310Y-139877650D01*
X195925310Y-139377650D02*
X195853881Y-139449079D01*
X195925310Y-139520507D01*
X195996738Y-139449079D01*
X195925310Y-139377650D01*
X195925310Y-139520507D01*
X196853881Y-140877650D02*
X196711024Y-140806221D01*
X196639595Y-140663364D01*
X196639595Y-139377650D01*
X197639595Y-140877650D02*
X197496738Y-140806221D01*
X197425310Y-140663364D01*
X197425310Y-139377650D01*
X199282452Y-139306221D02*
X197996738Y-141234793D01*
X199782452Y-140877650D02*
X199782452Y-139377650D01*
X200353881Y-139377650D01*
X200496738Y-139449079D01*
X200568167Y-139520507D01*
X200639595Y-139663364D01*
X200639595Y-139877650D01*
X200568167Y-140020507D01*
X200496738Y-140091936D01*
X200353881Y-140163364D01*
X199782452Y-140163364D01*
X201925310Y-140877650D02*
X201925310Y-140091936D01*
X201853881Y-139949079D01*
X201711024Y-139877650D01*
X201425310Y-139877650D01*
X201282452Y-139949079D01*
X201925310Y-140806221D02*
X201782452Y-140877650D01*
X201425310Y-140877650D01*
X201282452Y-140806221D01*
X201211024Y-140663364D01*
X201211024Y-140520507D01*
X201282452Y-140377650D01*
X201425310Y-140306221D01*
X201782452Y-140306221D01*
X201925310Y-140234793D01*
X203282452Y-140877650D02*
X203282452Y-139377650D01*
X203282452Y-140806221D02*
X203139595Y-140877650D01*
X202853881Y-140877650D01*
X202711024Y-140806221D01*
X202639595Y-140734793D01*
X202568167Y-140591936D01*
X202568167Y-140163364D01*
X202639595Y-140020507D01*
X202711024Y-139949079D01*
X202853881Y-139877650D01*
X203139595Y-139877650D01*
X203282452Y-139949079D01*
X205139595Y-140091936D02*
X206282452Y-140091936D01*
X206282452Y-140520507D02*
X205139595Y-140520507D01*
X208425310Y-139377650D02*
X208568167Y-139377650D01*
X208711024Y-139449079D01*
X208782452Y-139520507D01*
X208853881Y-139663364D01*
X208925310Y-139949079D01*
X208925310Y-140306221D01*
X208853881Y-140591936D01*
X208782452Y-140734793D01*
X208711024Y-140806221D01*
X208568167Y-140877650D01*
X208425310Y-140877650D01*
X208282452Y-140806221D01*
X208211024Y-140734793D01*
X208139595Y-140591936D01*
X208068167Y-140306221D01*
X208068167Y-139949079D01*
X208139595Y-139663364D01*
X208211024Y-139520507D01*
X208282452Y-139449079D01*
X208425310Y-139377650D01*
X209568167Y-140734793D02*
X209639595Y-140806221D01*
X209568167Y-140877650D01*
X209496738Y-140806221D01*
X209568167Y-140734793D01*
X209568167Y-140877650D01*
X210925310Y-139877650D02*
X210925310Y-140877650D01*
X210568167Y-139306221D02*
X210211024Y-140377650D01*
X211139595Y-140377650D01*
X212782452Y-139306221D02*
X211496738Y-141234793D01*
X213568167Y-139377650D02*
X213711024Y-139377650D01*
X213853881Y-139449079D01*
X213925310Y-139520507D01*
X213996738Y-139663364D01*
X214068167Y-139949079D01*
X214068167Y-140306221D01*
X213996738Y-140591936D01*
X213925310Y-140734793D01*
X213853881Y-140806221D01*
X213711024Y-140877650D01*
X213568167Y-140877650D01*
X213425310Y-140806221D01*
X213353881Y-140734793D01*
X213282452Y-140591936D01*
X213211024Y-140306221D01*
X213211024Y-139949079D01*
X213282452Y-139663364D01*
X213353881Y-139520507D01*
X213425310Y-139449079D01*
X213568167Y-139377650D01*
X214711024Y-140734793D02*
X214782452Y-140806221D01*
X214711024Y-140877650D01*
X214639595Y-140806221D01*
X214711024Y-140734793D01*
X214711024Y-140877650D01*
X215639595Y-140020507D02*
X215496738Y-139949079D01*
X215425310Y-139877650D01*
X215353881Y-139734793D01*
X215353881Y-139663364D01*
X215425310Y-139520507D01*
X215496738Y-139449079D01*
X215639595Y-139377650D01*
X215925310Y-139377650D01*
X216068167Y-139449079D01*
X216139595Y-139520507D01*
X216211024Y-139663364D01*
X216211024Y-139734793D01*
X216139595Y-139877650D01*
X216068167Y-139949079D01*
X215925310Y-140020507D01*
X215639595Y-140020507D01*
X215496738Y-140091936D01*
X215425310Y-140163364D01*
X215353881Y-140306221D01*
X215353881Y-140591936D01*
X215425310Y-140734793D01*
X215496738Y-140806221D01*
X215639595Y-140877650D01*
X215925310Y-140877650D01*
X216068167Y-140806221D01*
X216139595Y-140734793D01*
X216211024Y-140591936D01*
X216211024Y-140306221D01*
X216139595Y-140163364D01*
X216068167Y-140091936D01*
X215925310Y-140020507D01*
X216853881Y-140877650D02*
X216853881Y-139877650D01*
X216853881Y-140020507D02*
X216925310Y-139949079D01*
X217068167Y-139877650D01*
X217282452Y-139877650D01*
X217425310Y-139949079D01*
X217496738Y-140091936D01*
X217496738Y-140877650D01*
X217496738Y-140091936D02*
X217568167Y-139949079D01*
X217711024Y-139877650D01*
X217925310Y-139877650D01*
X218068167Y-139949079D01*
X218139595Y-140091936D01*
X218139595Y-140877650D01*
X218853881Y-140877650D02*
X218853881Y-139877650D01*
X218853881Y-140020507D02*
X218925310Y-139949079D01*
X219068167Y-139877650D01*
X219282452Y-139877650D01*
X219425310Y-139949079D01*
X219496738Y-140091936D01*
X219496738Y-140877650D01*
X219496738Y-140091936D02*
X219568167Y-139949079D01*
X219711024Y-139877650D01*
X219925310Y-139877650D01*
X220068167Y-139949079D01*
X220139595Y-140091936D01*
X220139595Y-140877650D01*
X187996738Y-141927650D02*
X187996738Y-142284793D01*
X187639595Y-142141936D02*
X187996738Y-142284793D01*
X188353881Y-142141936D01*
X187782452Y-142570507D02*
X187996738Y-142284793D01*
X188211024Y-142570507D01*
X189139595Y-141927650D02*
X189139595Y-142284793D01*
X188782452Y-142141936D02*
X189139595Y-142284793D01*
X189496738Y-142141936D01*
X188925310Y-142570507D02*
X189139595Y-142284793D01*
X189353881Y-142570507D01*
X190282452Y-141927650D02*
X190282452Y-142284793D01*
X189925310Y-142141936D02*
X190282452Y-142284793D01*
X190639595Y-142141936D01*
X190068167Y-142570507D02*
X190282452Y-142284793D01*
X190496738Y-142570507D01*
X191425310Y-141927650D02*
X191425310Y-142284793D01*
X191068167Y-142141936D02*
X191425310Y-142284793D01*
X191782452Y-142141936D01*
X191211024Y-142570507D02*
X191425310Y-142284793D01*
X191639595Y-142570507D01*
X192568167Y-141927650D02*
X192568167Y-142284793D01*
X192211024Y-142141936D02*
X192568167Y-142284793D01*
X192925310Y-142141936D01*
X192353881Y-142570507D02*
X192568167Y-142284793D01*
X192782452Y-142570507D01*
X193711024Y-141927650D02*
X193711024Y-142284793D01*
X193353881Y-142141936D02*
X193711024Y-142284793D01*
X194068167Y-142141936D01*
X193496738Y-142570507D02*
X193711024Y-142284793D01*
X193925310Y-142570507D01*
X194853881Y-141927650D02*
X194853881Y-142284793D01*
X194496738Y-142141936D02*
X194853881Y-142284793D01*
X195211024Y-142141936D01*
X194639595Y-142570507D02*
X194853881Y-142284793D01*
X195068167Y-142570507D01*
X195996738Y-141927650D02*
X195996738Y-142284793D01*
X195639595Y-142141936D02*
X195996738Y-142284793D01*
X196353881Y-142141936D01*
X195782452Y-142570507D02*
X195996738Y-142284793D01*
X196211024Y-142570507D01*
X197139595Y-141927650D02*
X197139595Y-142284793D01*
X196782452Y-142141936D02*
X197139595Y-142284793D01*
X197496738Y-142141936D01*
X196925310Y-142570507D02*
X197139595Y-142284793D01*
X197353881Y-142570507D01*
X198282452Y-141927650D02*
X198282452Y-142284793D01*
X197925310Y-142141936D02*
X198282452Y-142284793D01*
X198639595Y-142141936D01*
X198068167Y-142570507D02*
X198282452Y-142284793D01*
X198496738Y-142570507D01*
X199425310Y-141927650D02*
X199425310Y-142284793D01*
X199068167Y-142141936D02*
X199425310Y-142284793D01*
X199782452Y-142141936D01*
X199211024Y-142570507D02*
X199425310Y-142284793D01*
X199639595Y-142570507D01*
X200568167Y-141927650D02*
X200568167Y-142284793D01*
X200211024Y-142141936D02*
X200568167Y-142284793D01*
X200925310Y-142141936D01*
X200353881Y-142570507D02*
X200568167Y-142284793D01*
X200782452Y-142570507D01*
X201711024Y-141927650D02*
X201711024Y-142284793D01*
X201353881Y-142141936D02*
X201711024Y-142284793D01*
X202068167Y-142141936D01*
X201496738Y-142570507D02*
X201711024Y-142284793D01*
X201925310Y-142570507D01*
X202853881Y-141927650D02*
X202853881Y-142284793D01*
X202496738Y-142141936D02*
X202853881Y-142284793D01*
X203211024Y-142141936D01*
X202639595Y-142570507D02*
X202853881Y-142284793D01*
X203068167Y-142570507D01*
X203996738Y-141927650D02*
X203996738Y-142284793D01*
X203639595Y-142141936D02*
X203996738Y-142284793D01*
X204353881Y-142141936D01*
X203782452Y-142570507D02*
X203996738Y-142284793D01*
X204211024Y-142570507D01*
X205139595Y-141927650D02*
X205139595Y-142284793D01*
X204782452Y-142141936D02*
X205139595Y-142284793D01*
X205496738Y-142141936D01*
X204925310Y-142570507D02*
X205139595Y-142284793D01*
X205353881Y-142570507D01*
X206282452Y-141927650D02*
X206282452Y-142284793D01*
X205925310Y-142141936D02*
X206282452Y-142284793D01*
X206639595Y-142141936D01*
X206068167Y-142570507D02*
X206282452Y-142284793D01*
X206496738Y-142570507D01*
X207425310Y-141927650D02*
X207425310Y-142284793D01*
X207068167Y-142141936D02*
X207425310Y-142284793D01*
X207782452Y-142141936D01*
X207211024Y-142570507D02*
X207425310Y-142284793D01*
X207639595Y-142570507D01*
X208568167Y-141927650D02*
X208568167Y-142284793D01*
X208211024Y-142141936D02*
X208568167Y-142284793D01*
X208925310Y-142141936D01*
X208353881Y-142570507D02*
X208568167Y-142284793D01*
X208782452Y-142570507D01*
X209711024Y-141927650D02*
X209711024Y-142284793D01*
X209353881Y-142141936D02*
X209711024Y-142284793D01*
X210068167Y-142141936D01*
X209496738Y-142570507D02*
X209711024Y-142284793D01*
X209925310Y-142570507D01*
X210853881Y-141927650D02*
X210853881Y-142284793D01*
X210496738Y-142141936D02*
X210853881Y-142284793D01*
X211211024Y-142141936D01*
X210639595Y-142570507D02*
X210853881Y-142284793D01*
X211068167Y-142570507D01*
X211996738Y-141927650D02*
X211996738Y-142284793D01*
X211639595Y-142141936D02*
X211996738Y-142284793D01*
X212353881Y-142141936D01*
X211782452Y-142570507D02*
X211996738Y-142284793D01*
X212211024Y-142570507D01*
X213139595Y-141927650D02*
X213139595Y-142284793D01*
X212782452Y-142141936D02*
X213139595Y-142284793D01*
X213496738Y-142141936D01*
X212925310Y-142570507D02*
X213139595Y-142284793D01*
X213353881Y-142570507D01*
X214282452Y-141927650D02*
X214282452Y-142284793D01*
X213925309Y-142141936D02*
X214282452Y-142284793D01*
X214639595Y-142141936D01*
X214068167Y-142570507D02*
X214282452Y-142284793D01*
X214496738Y-142570507D01*
X215425309Y-141927650D02*
X215425309Y-142284793D01*
X215068167Y-142141936D02*
X215425309Y-142284793D01*
X215782452Y-142141936D01*
X215211024Y-142570507D02*
X215425309Y-142284793D01*
X215639595Y-142570507D01*
X216568167Y-141927650D02*
X216568167Y-142284793D01*
X216211024Y-142141936D02*
X216568167Y-142284793D01*
X216925309Y-142141936D01*
X216353881Y-142570507D02*
X216568167Y-142284793D01*
X216782452Y-142570507D01*
X217711024Y-141927650D02*
X217711024Y-142284793D01*
X217353881Y-142141936D02*
X217711024Y-142284793D01*
X218068167Y-142141936D01*
X217496738Y-142570507D02*
X217711024Y-142284793D01*
X217925309Y-142570507D01*
X218853881Y-141927650D02*
X218853881Y-142284793D01*
X218496738Y-142141936D02*
X218853881Y-142284793D01*
X219211024Y-142141936D01*
X218639595Y-142570507D02*
X218853881Y-142284793D01*
X219068167Y-142570507D01*
X219996738Y-141927650D02*
X219996738Y-142284793D01*
X219639595Y-142141936D02*
X219996738Y-142284793D01*
X220353881Y-142141936D01*
X219782452Y-142570507D02*
X219996738Y-142284793D01*
X220211024Y-142570507D01*
X221139595Y-141927650D02*
X221139595Y-142284793D01*
X220782452Y-142141936D02*
X221139595Y-142284793D01*
X221496738Y-142141936D01*
X220925309Y-142570507D02*
X221139595Y-142284793D01*
X221353881Y-142570507D01*
X222282452Y-141927650D02*
X222282452Y-142284793D01*
X221925309Y-142141936D02*
X222282452Y-142284793D01*
X222639595Y-142141936D01*
X222068167Y-142570507D02*
X222282452Y-142284793D01*
X222496738Y-142570507D01*
X223425309Y-141927650D02*
X223425309Y-142284793D01*
X223068167Y-142141936D02*
X223425309Y-142284793D01*
X223782452Y-142141936D01*
X223211024Y-142570507D02*
X223425309Y-142284793D01*
X223639595Y-142570507D01*
X224568167Y-141927650D02*
X224568167Y-142284793D01*
X224211024Y-142141936D02*
X224568167Y-142284793D01*
X224925309Y-142141936D01*
X224353881Y-142570507D02*
X224568167Y-142284793D01*
X224782452Y-142570507D01*
X225711024Y-141927650D02*
X225711024Y-142284793D01*
X225353881Y-142141936D02*
X225711024Y-142284793D01*
X226068167Y-142141936D01*
X225496738Y-142570507D02*
X225711024Y-142284793D01*
X225925309Y-142570507D01*
X226853881Y-141927650D02*
X226853881Y-142284793D01*
X226496738Y-142141936D02*
X226853881Y-142284793D01*
X227211024Y-142141936D01*
X226639595Y-142570507D02*
X226853881Y-142284793D01*
X227068167Y-142570507D01*
X227996738Y-141927650D02*
X227996738Y-142284793D01*
X227639595Y-142141936D02*
X227996738Y-142284793D01*
X228353881Y-142141936D01*
X227782452Y-142570507D02*
X227996738Y-142284793D01*
X228211024Y-142570507D01*
X229139595Y-141927650D02*
X229139595Y-142284793D01*
X228782452Y-142141936D02*
X229139595Y-142284793D01*
X229496738Y-142141936D01*
X228925309Y-142570507D02*
X229139595Y-142284793D01*
X229353881Y-142570507D01*
X230282452Y-141927650D02*
X230282452Y-142284793D01*
X229925309Y-142141936D02*
X230282452Y-142284793D01*
X230639595Y-142141936D01*
X230068167Y-142570507D02*
X230282452Y-142284793D01*
X230496738Y-142570507D01*
X169501738Y-106979089D02*
X169501738Y-106693374D01*
X169430310Y-106550517D01*
X169358881Y-106479089D01*
X169144595Y-106336231D01*
X168858881Y-106264803D01*
X168287452Y-106264803D01*
X168144595Y-106336231D01*
X168073167Y-106407660D01*
X168001738Y-106550517D01*
X168001738Y-106836231D01*
X168073167Y-106979089D01*
X168144595Y-107050517D01*
X168287452Y-107121946D01*
X168644595Y-107121946D01*
X168787452Y-107050517D01*
X168858881Y-106979089D01*
X168930310Y-106836231D01*
X168930310Y-106550517D01*
X168858881Y-106407660D01*
X168787452Y-106336231D01*
X168644595Y-106264803D01*
X169501738Y-108050517D02*
X169501738Y-108193374D01*
X169430310Y-108336231D01*
X169358881Y-108407660D01*
X169216024Y-108479089D01*
X168930310Y-108550517D01*
X168573167Y-108550517D01*
X168287452Y-108479089D01*
X168144595Y-108407660D01*
X168073167Y-108336231D01*
X168001738Y-108193374D01*
X168001738Y-108050517D01*
X168073167Y-107907660D01*
X168144595Y-107836231D01*
X168287452Y-107764803D01*
X168573167Y-107693374D01*
X168930310Y-107693374D01*
X169216024Y-107764803D01*
X169358881Y-107836231D01*
X169430310Y-107907660D01*
X169501738Y-108050517D01*
X168144595Y-109193374D02*
X168073167Y-109264803D01*
X168001738Y-109193374D01*
X168073167Y-109121946D01*
X168144595Y-109193374D01*
X168001738Y-109193374D01*
X169501738Y-110193374D02*
X169501738Y-110336231D01*
X169430310Y-110479089D01*
X169358881Y-110550517D01*
X169216024Y-110621946D01*
X168930310Y-110693374D01*
X168573167Y-110693374D01*
X168287452Y-110621946D01*
X168144595Y-110550517D01*
X168073167Y-110479089D01*
X168001738Y-110336231D01*
X168001738Y-110193374D01*
X168073167Y-110050517D01*
X168144595Y-109979089D01*
X168287452Y-109907660D01*
X168573167Y-109836231D01*
X168930310Y-109836231D01*
X169216024Y-109907660D01*
X169358881Y-109979089D01*
X169430310Y-110050517D01*
X169501738Y-110193374D01*
X169501738Y-111621946D02*
X169501738Y-111764803D01*
X169430310Y-111907660D01*
X169358881Y-111979089D01*
X169216024Y-112050517D01*
X168930310Y-112121946D01*
X168573167Y-112121946D01*
X168287452Y-112050517D01*
X168144595Y-111979089D01*
X168073167Y-111907660D01*
X168001738Y-111764803D01*
X168001738Y-111621946D01*
X168073167Y-111479089D01*
X168144595Y-111407660D01*
X168287452Y-111336231D01*
X168573167Y-111264803D01*
X168930310Y-111264803D01*
X169216024Y-111336231D01*
X169358881Y-111407660D01*
X169430310Y-111479089D01*
X169501738Y-111621946D01*
X169501738Y-113050517D02*
X169501738Y-113193374D01*
X169430310Y-113336231D01*
X169358881Y-113407660D01*
X169216024Y-113479089D01*
X168930310Y-113550517D01*
X168573167Y-113550517D01*
X168287452Y-113479089D01*
X168144595Y-113407660D01*
X168073167Y-113336231D01*
X168001738Y-113193374D01*
X168001738Y-113050517D01*
X168073167Y-112907660D01*
X168144595Y-112836231D01*
X168287452Y-112764803D01*
X168573167Y-112693374D01*
X168930310Y-112693374D01*
X169216024Y-112764803D01*
X169358881Y-112836231D01*
X169430310Y-112907660D01*
X169501738Y-113050517D01*
X168001738Y-115336231D02*
X169001738Y-115336231D01*
X168858881Y-115336231D02*
X168930310Y-115407660D01*
X169001738Y-115550517D01*
X169001738Y-115764803D01*
X168930310Y-115907660D01*
X168787452Y-115979089D01*
X168001738Y-115979089D01*
X168787452Y-115979089D02*
X168930310Y-116050517D01*
X169001738Y-116193374D01*
X169001738Y-116407660D01*
X168930310Y-116550517D01*
X168787452Y-116621946D01*
X168001738Y-116621946D01*
X168001738Y-117336231D02*
X169001738Y-117336231D01*
X168858881Y-117336231D02*
X168930310Y-117407660D01*
X169001738Y-117550517D01*
X169001738Y-117764803D01*
X168930310Y-117907660D01*
X168787452Y-117979089D01*
X168001738Y-117979089D01*
X168787452Y-117979089D02*
X168930310Y-118050517D01*
X169001738Y-118193374D01*
X169001738Y-118407660D01*
X168930310Y-118550517D01*
X168787452Y-118621946D01*
X168001738Y-118621946D01*
X166580310Y-82479079D02*
X166580310Y-142479099D01*
X152500310Y-82479079D02*
X167166731Y-82479079D01*
X152500310Y-142479099D02*
X167166731Y-142479099D01*
X166580310Y-142479099D02*
X165993889Y-141352595D01*
X166580310Y-142479099D02*
X167166731Y-141352595D01*
X166580310Y-82479079D02*
X165993889Y-83605583D01*
X166580310Y-82479079D02*
X167166731Y-83605583D01*
X117000310Y-70887650D02*
X116714595Y-70887650D01*
X116571738Y-70959079D01*
X116500310Y-71030507D01*
X116357452Y-71244793D01*
X116286024Y-71530507D01*
X116286024Y-72101936D01*
X116357452Y-72244793D01*
X116428881Y-72316221D01*
X116571738Y-72387650D01*
X116857452Y-72387650D01*
X117000310Y-72316221D01*
X117071738Y-72244793D01*
X117143167Y-72101936D01*
X117143167Y-71744793D01*
X117071738Y-71601936D01*
X117000310Y-71530507D01*
X116857452Y-71459079D01*
X116571738Y-71459079D01*
X116428881Y-71530507D01*
X116357452Y-71601936D01*
X116286024Y-71744793D01*
X118071738Y-70887650D02*
X118214595Y-70887650D01*
X118357452Y-70959079D01*
X118428881Y-71030507D01*
X118500310Y-71173364D01*
X118571738Y-71459079D01*
X118571738Y-71816221D01*
X118500310Y-72101936D01*
X118428881Y-72244793D01*
X118357452Y-72316221D01*
X118214595Y-72387650D01*
X118071738Y-72387650D01*
X117928881Y-72316221D01*
X117857452Y-72244793D01*
X117786024Y-72101936D01*
X117714595Y-71816221D01*
X117714595Y-71459079D01*
X117786024Y-71173364D01*
X117857452Y-71030507D01*
X117928881Y-70959079D01*
X118071738Y-70887650D01*
X119214595Y-72244793D02*
X119286024Y-72316221D01*
X119214595Y-72387650D01*
X119143167Y-72316221D01*
X119214595Y-72244793D01*
X119214595Y-72387650D01*
X120214595Y-70887650D02*
X120357452Y-70887650D01*
X120500310Y-70959079D01*
X120571738Y-71030507D01*
X120643167Y-71173364D01*
X120714595Y-71459079D01*
X120714595Y-71816221D01*
X120643167Y-72101936D01*
X120571738Y-72244793D01*
X120500310Y-72316221D01*
X120357452Y-72387650D01*
X120214595Y-72387650D01*
X120071738Y-72316221D01*
X120000310Y-72244793D01*
X119928881Y-72101936D01*
X119857452Y-71816221D01*
X119857452Y-71459079D01*
X119928881Y-71173364D01*
X120000310Y-71030507D01*
X120071738Y-70959079D01*
X120214595Y-70887650D01*
X121643167Y-70887650D02*
X121786024Y-70887650D01*
X121928881Y-70959079D01*
X122000310Y-71030507D01*
X122071738Y-71173364D01*
X122143167Y-71459079D01*
X122143167Y-71816221D01*
X122071738Y-72101936D01*
X122000310Y-72244793D01*
X121928881Y-72316221D01*
X121786024Y-72387650D01*
X121643167Y-72387650D01*
X121500310Y-72316221D01*
X121428881Y-72244793D01*
X121357452Y-72101936D01*
X121286024Y-71816221D01*
X121286024Y-71459079D01*
X121357452Y-71173364D01*
X121428881Y-71030507D01*
X121500310Y-70959079D01*
X121643167Y-70887650D01*
X123071738Y-70887650D02*
X123214595Y-70887650D01*
X123357452Y-70959079D01*
X123428881Y-71030507D01*
X123500310Y-71173364D01*
X123571738Y-71459079D01*
X123571738Y-71816221D01*
X123500310Y-72101936D01*
X123428881Y-72244793D01*
X123357452Y-72316221D01*
X123214595Y-72387650D01*
X123071738Y-72387650D01*
X122928881Y-72316221D01*
X122857452Y-72244793D01*
X122786024Y-72101936D01*
X122714595Y-71816221D01*
X122714595Y-71459079D01*
X122786024Y-71173364D01*
X122857452Y-71030507D01*
X122928881Y-70959079D01*
X123071738Y-70887650D01*
X125357452Y-72387650D02*
X125357452Y-71387650D01*
X125357452Y-71530507D02*
X125428881Y-71459079D01*
X125571738Y-71387650D01*
X125786024Y-71387650D01*
X125928881Y-71459079D01*
X126000310Y-71601936D01*
X126000310Y-72387650D01*
X126000310Y-71601936D02*
X126071738Y-71459079D01*
X126214595Y-71387650D01*
X126428881Y-71387650D01*
X126571738Y-71459079D01*
X126643167Y-71601936D01*
X126643167Y-72387650D01*
X127357452Y-72387650D02*
X127357452Y-71387650D01*
X127357452Y-71530507D02*
X127428881Y-71459079D01*
X127571738Y-71387650D01*
X127786024Y-71387650D01*
X127928881Y-71459079D01*
X128000310Y-71601936D01*
X128000310Y-72387650D01*
X128000310Y-71601936D02*
X128071738Y-71459079D01*
X128214595Y-71387650D01*
X128428881Y-71387650D01*
X128571738Y-71459079D01*
X128643167Y-71601936D01*
X128643167Y-72387650D01*
X92500310Y-73809079D02*
X152500310Y-73809079D01*
X92500310Y-82499079D02*
X92500310Y-73222658D01*
X152500310Y-82499079D02*
X152500310Y-73222658D01*
X152500310Y-73809079D02*
X151373806Y-74395500D01*
X152500310Y-73809079D02*
X151373806Y-73222658D01*
X92500310Y-73809079D02*
X93626814Y-74395500D01*
X92500310Y-73809079D02*
X93626814Y-73222658D01*
D11*
G04 #@! TO.C,D9*
X101500000Y-111210000D02*
X101500000Y-111210000D01*
X101500000Y-113750000D02*
X101500000Y-113750000D01*
G04 #@! TO.C,D6*
X101500000Y-123000000D02*
X101500000Y-123000000D01*
X101500000Y-120460000D02*
X101500000Y-120460000D01*
G04 #@! TO.C,D5*
X101500000Y-104500000D02*
X101500000Y-104500000D01*
X101500000Y-101960000D02*
X101500000Y-101960000D01*
G04 #@! TO.C,D13*
X101500000Y-94500000D02*
X101500000Y-94500000D01*
X101500000Y-91960000D02*
X101500000Y-91960000D01*
G04 #@! TO.C,D4*
X101500000Y-133040000D02*
X101500000Y-133040000D01*
X101500000Y-130500000D02*
X101500000Y-130500000D01*
G04 #@! TO.C,D7*
X144500000Y-137640000D02*
X144500000Y-137640000D01*
X144500000Y-135100000D02*
X144500000Y-135100000D01*
G04 #@! TO.C,D10*
X144600000Y-89840000D02*
X144600000Y-89840000D01*
X144600000Y-87300000D02*
X144600000Y-87300000D01*
G04 #@! TO.C,D8*
X144500000Y-130500000D02*
X144500000Y-130500000D01*
X144500000Y-127960000D02*
X144500000Y-127960000D01*
G04 #@! TO.C,D11*
X144600000Y-97000000D02*
X144600000Y-97000000D01*
X144600000Y-94460000D02*
X144600000Y-94460000D01*
G04 #@! TO.C,D14*
X144500000Y-113749079D02*
X144500000Y-113749079D01*
X144500000Y-111209079D02*
X144500000Y-111209079D01*
G04 #@! TO.C,C3*
X134754926Y-86276604D02*
G75*
G03X134754926Y-86276604I-3150000J0D01*
G01*
X133666667Y-88488664D02*
X133074661Y-88273192D01*
X133262928Y-88676931D02*
X133478400Y-88084925D01*
G04 #@! TO.C,J53*
X148000000Y-94720000D02*
X146500000Y-95670000D01*
X146500000Y-93770000D02*
X148000000Y-94720000D01*
X146500000Y-86100000D02*
X146500000Y-98260000D01*
X158500000Y-86100000D02*
X146500000Y-86100000D01*
X158500000Y-98260000D02*
X158500000Y-86100000D01*
X146500000Y-98260000D02*
X158500000Y-98260000D01*
G04 #@! TO.C,J52*
X148000000Y-135360000D02*
X146500000Y-136310000D01*
X146500000Y-134410000D02*
X148000000Y-135360000D01*
X146500000Y-126740000D02*
X146500000Y-138900000D01*
X158500000Y-126740000D02*
X146500000Y-126740000D01*
X158500000Y-138900000D02*
X158500000Y-126740000D01*
X146500000Y-138900000D02*
X158500000Y-138900000D01*
G04 #@! TO.C,C51*
X143432015Y-125997500D02*
X143432015Y-124697500D01*
X144082015Y-125347500D02*
X142782015Y-125347500D01*
X145000000Y-122500000D02*
G75*
G03X145000000Y-122500000I-6500000J0D01*
G01*
G04 #@! TO.C,C52*
X143432015Y-105497500D02*
X143432015Y-104197500D01*
X144082015Y-104847500D02*
X142782015Y-104847500D01*
X145000000Y-102000000D02*
G75*
G03X145000000Y-102000000I-6500000J0D01*
G01*
G04 #@! TO.C,J51*
X148000000Y-120120000D02*
X146500000Y-121070000D01*
X146500000Y-119170000D02*
X148000000Y-120120000D01*
X146500000Y-101340000D02*
X146500000Y-123660000D01*
X158500000Y-101340000D02*
X146500000Y-101340000D01*
X158500000Y-123660000D02*
X158500000Y-101340000D01*
X146500000Y-123660000D02*
X158500000Y-123660000D01*
G04 #@! TD*
G04 #@! TO.C,D9*
D12*
X84842380Y-113122857D02*
X84842380Y-113599047D01*
X83842380Y-113599047D01*
X84318571Y-112789523D02*
X84318571Y-112456190D01*
X84842380Y-112313333D02*
X84842380Y-112789523D01*
X83842380Y-112789523D01*
X83842380Y-112313333D01*
X84842380Y-111884761D02*
X83842380Y-111884761D01*
X83842380Y-111646666D01*
X83890000Y-111503809D01*
X83985238Y-111408571D01*
X84080476Y-111360952D01*
X84270952Y-111313333D01*
X84413809Y-111313333D01*
X84604285Y-111360952D01*
X84699523Y-111408571D01*
X84794761Y-111503809D01*
X84842380Y-111646666D01*
X84842380Y-111884761D01*
G04 #@! TO.C,D6*
X84842380Y-122372857D02*
X84842380Y-122849047D01*
X83842380Y-122849047D01*
X84318571Y-122039523D02*
X84318571Y-121706190D01*
X84842380Y-121563333D02*
X84842380Y-122039523D01*
X83842380Y-122039523D01*
X83842380Y-121563333D01*
X84842380Y-121134761D02*
X83842380Y-121134761D01*
X83842380Y-120896666D01*
X83890000Y-120753809D01*
X83985238Y-120658571D01*
X84080476Y-120610952D01*
X84270952Y-120563333D01*
X84413809Y-120563333D01*
X84604285Y-120610952D01*
X84699523Y-120658571D01*
X84794761Y-120753809D01*
X84842380Y-120896666D01*
X84842380Y-121134761D01*
G04 #@! TO.C,D5*
X84842380Y-103872857D02*
X84842380Y-104349047D01*
X83842380Y-104349047D01*
X84318571Y-103539523D02*
X84318571Y-103206190D01*
X84842380Y-103063333D02*
X84842380Y-103539523D01*
X83842380Y-103539523D01*
X83842380Y-103063333D01*
X84842380Y-102634761D02*
X83842380Y-102634761D01*
X83842380Y-102396666D01*
X83890000Y-102253809D01*
X83985238Y-102158571D01*
X84080476Y-102110952D01*
X84270952Y-102063333D01*
X84413809Y-102063333D01*
X84604285Y-102110952D01*
X84699523Y-102158571D01*
X84794761Y-102253809D01*
X84842380Y-102396666D01*
X84842380Y-102634761D01*
G04 #@! TO.C,D13*
X84842380Y-93872857D02*
X84842380Y-94349047D01*
X83842380Y-94349047D01*
X84318571Y-93539523D02*
X84318571Y-93206190D01*
X84842380Y-93063333D02*
X84842380Y-93539523D01*
X83842380Y-93539523D01*
X83842380Y-93063333D01*
X84842380Y-92634761D02*
X83842380Y-92634761D01*
X83842380Y-92396666D01*
X83890000Y-92253809D01*
X83985238Y-92158571D01*
X84080476Y-92110952D01*
X84270952Y-92063333D01*
X84413809Y-92063333D01*
X84604285Y-92110952D01*
X84699523Y-92158571D01*
X84794761Y-92253809D01*
X84842380Y-92396666D01*
X84842380Y-92634761D01*
G04 #@! TO.C,D4*
X84842380Y-132412857D02*
X84842380Y-132889047D01*
X83842380Y-132889047D01*
X84318571Y-132079523D02*
X84318571Y-131746190D01*
X84842380Y-131603333D02*
X84842380Y-132079523D01*
X83842380Y-132079523D01*
X83842380Y-131603333D01*
X84842380Y-131174761D02*
X83842380Y-131174761D01*
X83842380Y-130936666D01*
X83890000Y-130793809D01*
X83985238Y-130698571D01*
X84080476Y-130650952D01*
X84270952Y-130603333D01*
X84413809Y-130603333D01*
X84604285Y-130650952D01*
X84699523Y-130698571D01*
X84794761Y-130793809D01*
X84842380Y-130936666D01*
X84842380Y-131174761D01*
G04 #@! TO.C,D7*
X162062380Y-137012857D02*
X162062380Y-137489047D01*
X161062380Y-137489047D01*
X161538571Y-136679523D02*
X161538571Y-136346190D01*
X162062380Y-136203333D02*
X162062380Y-136679523D01*
X161062380Y-136679523D01*
X161062380Y-136203333D01*
X162062380Y-135774761D02*
X161062380Y-135774761D01*
X161062380Y-135536666D01*
X161110000Y-135393809D01*
X161205238Y-135298571D01*
X161300476Y-135250952D01*
X161490952Y-135203333D01*
X161633809Y-135203333D01*
X161824285Y-135250952D01*
X161919523Y-135298571D01*
X162014761Y-135393809D01*
X162062380Y-135536666D01*
X162062380Y-135774761D01*
G04 #@! TO.C,D10*
X162162380Y-89831904D02*
X162162380Y-90308095D01*
X161162380Y-90308095D01*
X161638571Y-89498571D02*
X161638571Y-89165238D01*
X162162380Y-89022380D02*
X162162380Y-89498571D01*
X161162380Y-89498571D01*
X161162380Y-89022380D01*
X162162380Y-88593809D02*
X161162380Y-88593809D01*
X161162380Y-88355714D01*
X161210000Y-88212857D01*
X161305238Y-88117619D01*
X161400476Y-88070000D01*
X161590952Y-88022380D01*
X161733809Y-88022380D01*
X161924285Y-88070000D01*
X162019523Y-88117619D01*
X162114761Y-88212857D01*
X162162380Y-88355714D01*
X162162380Y-88593809D01*
X162257619Y-87831904D02*
X162257619Y-87070000D01*
X162162380Y-86831904D02*
X161162380Y-86831904D01*
G04 #@! TO.C,D8*
X162062380Y-130491904D02*
X162062380Y-130968095D01*
X161062380Y-130968095D01*
X161538571Y-130158571D02*
X161538571Y-129825238D01*
X162062380Y-129682380D02*
X162062380Y-130158571D01*
X161062380Y-130158571D01*
X161062380Y-129682380D01*
X162062380Y-129253809D02*
X161062380Y-129253809D01*
X161062380Y-129015714D01*
X161110000Y-128872857D01*
X161205238Y-128777619D01*
X161300476Y-128730000D01*
X161490952Y-128682380D01*
X161633809Y-128682380D01*
X161824285Y-128730000D01*
X161919523Y-128777619D01*
X162014761Y-128872857D01*
X162062380Y-129015714D01*
X162062380Y-129253809D01*
X162157619Y-128491904D02*
X162157619Y-127730000D01*
X162062380Y-127491904D02*
X161062380Y-127491904D01*
G04 #@! TO.C,D11*
X162162380Y-96372857D02*
X162162380Y-96849047D01*
X161162380Y-96849047D01*
X161638571Y-96039523D02*
X161638571Y-95706190D01*
X162162380Y-95563333D02*
X162162380Y-96039523D01*
X161162380Y-96039523D01*
X161162380Y-95563333D01*
X162162380Y-95134761D02*
X161162380Y-95134761D01*
X161162380Y-94896666D01*
X161210000Y-94753809D01*
X161305238Y-94658571D01*
X161400476Y-94610952D01*
X161590952Y-94563333D01*
X161733809Y-94563333D01*
X161924285Y-94610952D01*
X162019523Y-94658571D01*
X162114761Y-94753809D01*
X162162380Y-94896666D01*
X162162380Y-95134761D01*
G04 #@! TO.C,D14*
X162062380Y-113740983D02*
X162062380Y-114217174D01*
X161062380Y-114217174D01*
X161538571Y-113407650D02*
X161538571Y-113074317D01*
X162062380Y-112931459D02*
X162062380Y-113407650D01*
X161062380Y-113407650D01*
X161062380Y-112931459D01*
X162062380Y-112502888D02*
X161062380Y-112502888D01*
X161062380Y-112264793D01*
X161110000Y-112121936D01*
X161205238Y-112026698D01*
X161300476Y-111979079D01*
X161490952Y-111931459D01*
X161633809Y-111931459D01*
X161824285Y-111979079D01*
X161919523Y-112026698D01*
X162014761Y-112121936D01*
X162062380Y-112264793D01*
X162062380Y-112502888D01*
X162157619Y-111740983D02*
X162157619Y-110979079D01*
X162062380Y-110740983D02*
X161062380Y-110740983D01*
G04 #@! TO.C,C3*
X129640009Y-80397636D02*
X129701043Y-80369175D01*
X129806824Y-80357001D01*
X130030561Y-80438435D01*
X130103769Y-80515755D01*
X130132229Y-80576789D01*
X130144403Y-80682571D01*
X130111830Y-80772065D01*
X130018222Y-80890020D01*
X129285815Y-81231547D01*
X129867530Y-81443274D01*
X130534955Y-80723369D02*
X130595989Y-80694909D01*
X130701770Y-80682735D01*
X130925506Y-80764168D01*
X130998714Y-80841489D01*
X131027175Y-80902523D01*
X131039348Y-81008304D01*
X131006775Y-81097799D01*
X130913168Y-81215754D01*
X130180761Y-81557281D01*
X130762475Y-81769008D01*
X131686210Y-81041042D02*
X131775704Y-81073615D01*
X131848912Y-81150936D01*
X131877373Y-81211970D01*
X131889547Y-81317751D01*
X131869147Y-81513027D01*
X131787714Y-81736763D01*
X131677820Y-81899465D01*
X131600499Y-81972673D01*
X131539465Y-82001134D01*
X131433684Y-82013308D01*
X131344189Y-81980734D01*
X131270982Y-81903414D01*
X131242521Y-81842380D01*
X131230347Y-81736599D01*
X131250747Y-81541323D01*
X131332180Y-81317586D01*
X131442074Y-81154884D01*
X131519394Y-81081676D01*
X131580428Y-81053216D01*
X131686210Y-81041042D01*
X132690885Y-81761439D02*
X132462871Y-82387901D01*
X132288159Y-81614859D02*
X132109006Y-82107079D01*
X132121180Y-82212860D01*
X132194388Y-82290181D01*
X132328629Y-82339041D01*
X132434411Y-82326867D01*
X132495445Y-82298407D01*
X133402728Y-82172555D02*
X133089497Y-82058548D01*
X132910344Y-82550768D02*
X133252364Y-81611075D01*
X133699837Y-81773942D01*
X133626300Y-82811355D02*
X134346533Y-82364046D01*
X133854314Y-82184893D02*
X134118520Y-82990508D01*
X134741198Y-82254317D02*
X134802232Y-82225856D01*
X134908013Y-82213682D01*
X135131749Y-82295116D01*
X135204957Y-82372436D01*
X135233418Y-82433470D01*
X135245592Y-82539251D01*
X135213018Y-82628746D01*
X135119411Y-82746701D01*
X134387004Y-83088228D01*
X134968718Y-83299955D01*
X136160936Y-82669709D02*
X135713464Y-82506842D01*
X135505850Y-82938028D01*
X135566884Y-82909568D01*
X135672665Y-82897394D01*
X135896401Y-82978827D01*
X135969609Y-83056148D01*
X135998070Y-83117182D01*
X136010244Y-83222963D01*
X135928810Y-83446699D01*
X135851490Y-83519907D01*
X135790456Y-83548368D01*
X135684674Y-83560542D01*
X135460938Y-83479108D01*
X135387730Y-83401788D01*
X135359270Y-83340754D01*
X136404908Y-83113233D02*
X136400631Y-83821128D01*
X136852380Y-83276100D01*
X127860872Y-89497445D02*
X127799838Y-89525905D01*
X127649310Y-89521792D01*
X127559815Y-89489219D01*
X127441860Y-89395612D01*
X127384939Y-89273544D01*
X127372765Y-89167763D01*
X127393164Y-88972487D01*
X127442024Y-88838245D01*
X127551918Y-88675543D01*
X127629239Y-88602335D01*
X127751307Y-88545414D01*
X127901835Y-88549527D01*
X127991330Y-88582100D01*
X128109285Y-88675707D01*
X128137745Y-88736741D01*
X128483550Y-88761253D02*
X129065264Y-88972980D01*
X128621740Y-89216951D01*
X128755982Y-89265811D01*
X128829190Y-89343132D01*
X128857650Y-89404166D01*
X128869824Y-89509947D01*
X128788391Y-89733684D01*
X128711070Y-89806891D01*
X128650036Y-89835352D01*
X128544255Y-89847526D01*
X128275771Y-89749806D01*
X128202563Y-89672485D01*
X128174103Y-89611451D01*
G04 #@! TO.C,J53*
X159857142Y-95918095D02*
X159904761Y-95965714D01*
X159952380Y-96108571D01*
X159952380Y-96203809D01*
X159904761Y-96346666D01*
X159809523Y-96441904D01*
X159714285Y-96489523D01*
X159523809Y-96537142D01*
X159380952Y-96537142D01*
X159190476Y-96489523D01*
X159095238Y-96441904D01*
X159000000Y-96346666D01*
X158952380Y-96203809D01*
X158952380Y-96108571D01*
X159000000Y-95965714D01*
X159047619Y-95918095D01*
X159952380Y-95346666D02*
X159904761Y-95441904D01*
X159857142Y-95489523D01*
X159761904Y-95537142D01*
X159476190Y-95537142D01*
X159380952Y-95489523D01*
X159333333Y-95441904D01*
X159285714Y-95346666D01*
X159285714Y-95203809D01*
X159333333Y-95108571D01*
X159380952Y-95060952D01*
X159476190Y-95013333D01*
X159761904Y-95013333D01*
X159857142Y-95060952D01*
X159904761Y-95108571D01*
X159952380Y-95203809D01*
X159952380Y-95346666D01*
X159285714Y-94584761D02*
X159952380Y-94584761D01*
X159380952Y-94584761D02*
X159333333Y-94537142D01*
X159285714Y-94441904D01*
X159285714Y-94299047D01*
X159333333Y-94203809D01*
X159428571Y-94156190D01*
X159952380Y-94156190D01*
X159285714Y-93680000D02*
X159952380Y-93680000D01*
X159380952Y-93680000D02*
X159333333Y-93632380D01*
X159285714Y-93537142D01*
X159285714Y-93394285D01*
X159333333Y-93299047D01*
X159428571Y-93251428D01*
X159952380Y-93251428D01*
X160047619Y-93013333D02*
X160047619Y-92251428D01*
X158952380Y-91822857D02*
X158952380Y-91727619D01*
X159000000Y-91632380D01*
X159047619Y-91584761D01*
X159142857Y-91537142D01*
X159333333Y-91489523D01*
X159571428Y-91489523D01*
X159761904Y-91537142D01*
X159857142Y-91584761D01*
X159904761Y-91632380D01*
X159952380Y-91727619D01*
X159952380Y-91822857D01*
X159904761Y-91918095D01*
X159857142Y-91965714D01*
X159761904Y-92013333D01*
X159571428Y-92060952D01*
X159333333Y-92060952D01*
X159142857Y-92013333D01*
X159047619Y-91965714D01*
X159000000Y-91918095D01*
X158952380Y-91822857D01*
X159952380Y-90537142D02*
X159952380Y-91108571D01*
X159952380Y-90822857D02*
X158952380Y-90822857D01*
X159095238Y-90918095D01*
X159190476Y-91013333D01*
X159238095Y-91108571D01*
X159952380Y-90203809D02*
X159285714Y-89680000D01*
X159285714Y-90203809D02*
X159952380Y-89680000D01*
X158952380Y-89108571D02*
X158952380Y-89013333D01*
X159000000Y-88918095D01*
X159047619Y-88870476D01*
X159142857Y-88822857D01*
X159333333Y-88775238D01*
X159571428Y-88775238D01*
X159761904Y-88822857D01*
X159857142Y-88870476D01*
X159904761Y-88918095D01*
X159952380Y-89013333D01*
X159952380Y-89108571D01*
X159904761Y-89203809D01*
X159857142Y-89251428D01*
X159761904Y-89299047D01*
X159571428Y-89346666D01*
X159333333Y-89346666D01*
X159142857Y-89299047D01*
X159047619Y-89251428D01*
X159000000Y-89203809D01*
X158952380Y-89108571D01*
X159047619Y-88394285D02*
X159000000Y-88346666D01*
X158952380Y-88251428D01*
X158952380Y-88013333D01*
X159000000Y-87918095D01*
X159047619Y-87870476D01*
X159142857Y-87822857D01*
X159238095Y-87822857D01*
X159380952Y-87870476D01*
X159952380Y-88441904D01*
X159952380Y-87822857D01*
X150952380Y-91989523D02*
X151666666Y-91989523D01*
X151809523Y-92037142D01*
X151904761Y-92132380D01*
X151952380Y-92275238D01*
X151952380Y-92370476D01*
X150952380Y-91037142D02*
X150952380Y-91513333D01*
X151428571Y-91560952D01*
X151380952Y-91513333D01*
X151333333Y-91418095D01*
X151333333Y-91180000D01*
X151380952Y-91084761D01*
X151428571Y-91037142D01*
X151523809Y-90989523D01*
X151761904Y-90989523D01*
X151857142Y-91037142D01*
X151904761Y-91084761D01*
X151952380Y-91180000D01*
X151952380Y-91418095D01*
X151904761Y-91513333D01*
X151857142Y-91560952D01*
X150952380Y-90656190D02*
X150952380Y-90037142D01*
X151333333Y-90370476D01*
X151333333Y-90227619D01*
X151380952Y-90132380D01*
X151428571Y-90084761D01*
X151523809Y-90037142D01*
X151761904Y-90037142D01*
X151857142Y-90084761D01*
X151904761Y-90132380D01*
X151952380Y-90227619D01*
X151952380Y-90513333D01*
X151904761Y-90608571D01*
X151857142Y-90656190D01*
G04 #@! TO.C,L101*
X119892214Y-134951459D02*
X119796976Y-134903840D01*
X119749357Y-134808602D01*
X119749357Y-133951459D01*
X120416024Y-134951459D02*
X120320786Y-134903840D01*
X120273167Y-134856221D01*
X120225548Y-134760983D01*
X120225548Y-134475269D01*
X120273167Y-134380031D01*
X120320786Y-134332412D01*
X120416024Y-134284793D01*
X120558881Y-134284793D01*
X120654119Y-134332412D01*
X120701738Y-134380031D01*
X120749357Y-134475269D01*
X120749357Y-134760983D01*
X120701738Y-134856221D01*
X120654119Y-134903840D01*
X120558881Y-134951459D01*
X120416024Y-134951459D01*
X121606500Y-134284793D02*
X121606500Y-135094317D01*
X121558881Y-135189555D01*
X121511262Y-135237174D01*
X121416024Y-135284793D01*
X121273167Y-135284793D01*
X121177929Y-135237174D01*
X121606500Y-134903840D02*
X121511262Y-134951459D01*
X121320786Y-134951459D01*
X121225548Y-134903840D01*
X121177929Y-134856221D01*
X121130310Y-134760983D01*
X121130310Y-134475269D01*
X121177929Y-134380031D01*
X121225548Y-134332412D01*
X121320786Y-134284793D01*
X121511262Y-134284793D01*
X121606500Y-134332412D01*
X122225548Y-134951459D02*
X122130310Y-134903840D01*
X122082690Y-134856221D01*
X122035071Y-134760983D01*
X122035071Y-134475269D01*
X122082690Y-134380031D01*
X122130310Y-134332412D01*
X122225548Y-134284793D01*
X122368405Y-134284793D01*
X122463643Y-134332412D01*
X122511262Y-134380031D01*
X122558881Y-134475269D01*
X122558881Y-134760983D01*
X122511262Y-134856221D01*
X122463643Y-134903840D01*
X122368405Y-134951459D01*
X122225548Y-134951459D01*
X122749357Y-135046698D02*
X123511262Y-135046698D01*
X124177929Y-134951459D02*
X124177929Y-133951459D01*
X124177929Y-134903840D02*
X124082690Y-134951459D01*
X123892214Y-134951459D01*
X123796976Y-134903840D01*
X123749357Y-134856221D01*
X123701738Y-134760983D01*
X123701738Y-134475269D01*
X123749357Y-134380031D01*
X123796976Y-134332412D01*
X123892214Y-134284793D01*
X124082690Y-134284793D01*
X124177929Y-134332412D01*
X125082690Y-134903840D02*
X124987452Y-134951459D01*
X124796976Y-134951459D01*
X124701738Y-134903840D01*
X124654119Y-134856221D01*
X124606500Y-134760983D01*
X124606500Y-134475269D01*
X124654119Y-134380031D01*
X124701738Y-134332412D01*
X124796976Y-134284793D01*
X124987452Y-134284793D01*
X125082690Y-134332412D01*
X125511262Y-134951459D02*
X125511262Y-134284793D01*
X125511262Y-133951459D02*
X125463643Y-133999079D01*
X125511262Y-134046698D01*
X125558881Y-133999079D01*
X125511262Y-133951459D01*
X125511262Y-134046698D01*
G04 #@! TO.C,MH101*
X120833333Y-141152380D02*
X121452380Y-141152380D01*
X121119047Y-141533333D01*
X121261904Y-141533333D01*
X121357142Y-141580952D01*
X121404761Y-141628571D01*
X121452380Y-141723809D01*
X121452380Y-141961904D01*
X121404761Y-142057142D01*
X121357142Y-142104761D01*
X121261904Y-142152380D01*
X120976190Y-142152380D01*
X120880952Y-142104761D01*
X120833333Y-142057142D01*
X121880952Y-142152380D02*
X121880952Y-141485714D01*
X121880952Y-141580952D02*
X121928571Y-141533333D01*
X122023809Y-141485714D01*
X122166666Y-141485714D01*
X122261904Y-141533333D01*
X122309523Y-141628571D01*
X122309523Y-142152380D01*
X122309523Y-141628571D02*
X122357142Y-141533333D01*
X122452380Y-141485714D01*
X122595238Y-141485714D01*
X122690476Y-141533333D01*
X122738095Y-141628571D01*
X122738095Y-142152380D01*
X123214285Y-142152380D02*
X123214285Y-141485714D01*
X123214285Y-141580952D02*
X123261904Y-141533333D01*
X123357142Y-141485714D01*
X123500000Y-141485714D01*
X123595238Y-141533333D01*
X123642857Y-141628571D01*
X123642857Y-142152380D01*
X123642857Y-141628571D02*
X123690476Y-141533333D01*
X123785714Y-141485714D01*
X123928571Y-141485714D01*
X124023809Y-141533333D01*
X124071428Y-141628571D01*
X124071428Y-142152380D01*
X120514285Y-137952380D02*
X120514285Y-136952380D01*
X120847619Y-137666666D01*
X121180952Y-136952380D01*
X121180952Y-137952380D01*
X121657142Y-137952380D02*
X121657142Y-136952380D01*
X121657142Y-137428571D02*
X122228571Y-137428571D01*
X122228571Y-137952380D02*
X122228571Y-136952380D01*
X123228571Y-137952380D02*
X122657142Y-137952380D01*
X122942857Y-137952380D02*
X122942857Y-136952380D01*
X122847619Y-137095238D01*
X122752380Y-137190476D01*
X122657142Y-137238095D01*
X123847619Y-136952380D02*
X123942857Y-136952380D01*
X124038095Y-137000000D01*
X124085714Y-137047619D01*
X124133333Y-137142857D01*
X124180952Y-137333333D01*
X124180952Y-137571428D01*
X124133333Y-137761904D01*
X124085714Y-137857142D01*
X124038095Y-137904761D01*
X123942857Y-137952380D01*
X123847619Y-137952380D01*
X123752380Y-137904761D01*
X123704761Y-137857142D01*
X123657142Y-137761904D01*
X123609523Y-137571428D01*
X123609523Y-137333333D01*
X123657142Y-137142857D01*
X123704761Y-137047619D01*
X123752380Y-137000000D01*
X123847619Y-136952380D01*
X125133333Y-137952380D02*
X124561904Y-137952380D01*
X124847619Y-137952380D02*
X124847619Y-136952380D01*
X124752380Y-137095238D01*
X124657142Y-137190476D01*
X124561904Y-137238095D01*
G04 #@! TO.C,MH102*
X120833333Y-91152380D02*
X121452380Y-91152380D01*
X121119047Y-91533333D01*
X121261904Y-91533333D01*
X121357142Y-91580952D01*
X121404761Y-91628571D01*
X121452380Y-91723809D01*
X121452380Y-91961904D01*
X121404761Y-92057142D01*
X121357142Y-92104761D01*
X121261904Y-92152380D01*
X120976190Y-92152380D01*
X120880952Y-92104761D01*
X120833333Y-92057142D01*
X121880952Y-92152380D02*
X121880952Y-91485714D01*
X121880952Y-91580952D02*
X121928571Y-91533333D01*
X122023809Y-91485714D01*
X122166666Y-91485714D01*
X122261904Y-91533333D01*
X122309523Y-91628571D01*
X122309523Y-92152380D01*
X122309523Y-91628571D02*
X122357142Y-91533333D01*
X122452380Y-91485714D01*
X122595238Y-91485714D01*
X122690476Y-91533333D01*
X122738095Y-91628571D01*
X122738095Y-92152380D01*
X123214285Y-92152380D02*
X123214285Y-91485714D01*
X123214285Y-91580952D02*
X123261904Y-91533333D01*
X123357142Y-91485714D01*
X123500000Y-91485714D01*
X123595238Y-91533333D01*
X123642857Y-91628571D01*
X123642857Y-92152380D01*
X123642857Y-91628571D02*
X123690476Y-91533333D01*
X123785714Y-91485714D01*
X123928571Y-91485714D01*
X124023809Y-91533333D01*
X124071428Y-91628571D01*
X124071428Y-92152380D01*
X120514285Y-87952380D02*
X120514285Y-86952380D01*
X120847619Y-87666666D01*
X121180952Y-86952380D01*
X121180952Y-87952380D01*
X121657142Y-87952380D02*
X121657142Y-86952380D01*
X121657142Y-87428571D02*
X122228571Y-87428571D01*
X122228571Y-87952380D02*
X122228571Y-86952380D01*
X123228571Y-87952380D02*
X122657142Y-87952380D01*
X122942857Y-87952380D02*
X122942857Y-86952380D01*
X122847619Y-87095238D01*
X122752380Y-87190476D01*
X122657142Y-87238095D01*
X123847619Y-86952380D02*
X123942857Y-86952380D01*
X124038095Y-87000000D01*
X124085714Y-87047619D01*
X124133333Y-87142857D01*
X124180952Y-87333333D01*
X124180952Y-87571428D01*
X124133333Y-87761904D01*
X124085714Y-87857142D01*
X124038095Y-87904761D01*
X123942857Y-87952380D01*
X123847619Y-87952380D01*
X123752380Y-87904761D01*
X123704761Y-87857142D01*
X123657142Y-87761904D01*
X123609523Y-87571428D01*
X123609523Y-87333333D01*
X123657142Y-87142857D01*
X123704761Y-87047619D01*
X123752380Y-87000000D01*
X123847619Y-86952380D01*
X124561904Y-87047619D02*
X124609523Y-87000000D01*
X124704761Y-86952380D01*
X124942857Y-86952380D01*
X125038095Y-87000000D01*
X125085714Y-87047619D01*
X125133333Y-87142857D01*
X125133333Y-87238095D01*
X125085714Y-87380952D01*
X124514285Y-87952380D01*
X125133333Y-87952380D01*
G04 #@! TO.C,J56*
D13*
X102093428Y-114068285D02*
X101367714Y-114576285D01*
X102093428Y-114939142D02*
X100569428Y-114939142D01*
X100569428Y-114358571D01*
X100642000Y-114213428D01*
X100714571Y-114140857D01*
X100859714Y-114068285D01*
X101077428Y-114068285D01*
X101222571Y-114140857D01*
X101295142Y-114213428D01*
X101367714Y-114358571D01*
X101367714Y-114939142D01*
X100569428Y-112979714D02*
X101658000Y-112979714D01*
X101875714Y-113052285D01*
X102020857Y-113197428D01*
X102093428Y-113415142D01*
X102093428Y-113560285D01*
X102093428Y-111455714D02*
X102093428Y-112326571D01*
X102093428Y-111891142D02*
X100569428Y-111891142D01*
X100787142Y-112036285D01*
X100932285Y-112181428D01*
X101004857Y-112326571D01*
X100714571Y-110875142D02*
X100642000Y-110802571D01*
X100569428Y-110657428D01*
X100569428Y-110294571D01*
X100642000Y-110149428D01*
X100714571Y-110076857D01*
X100859714Y-110004285D01*
X101004857Y-110004285D01*
X101222571Y-110076857D01*
X102093428Y-110947714D01*
X102093428Y-110004285D01*
G04 #@! TO.C,J55*
X78870024Y-98538507D02*
X78362024Y-97812793D01*
X77999167Y-98538507D02*
X77999167Y-97014507D01*
X78579738Y-97014507D01*
X78724881Y-97087079D01*
X78797452Y-97159650D01*
X78870024Y-97304793D01*
X78870024Y-97522507D01*
X78797452Y-97667650D01*
X78724881Y-97740221D01*
X78579738Y-97812793D01*
X77999167Y-97812793D01*
X79958595Y-97014507D02*
X79958595Y-98103079D01*
X79886024Y-98320793D01*
X79740881Y-98465936D01*
X79523167Y-98538507D01*
X79378024Y-98538507D01*
X81337452Y-97522507D02*
X81337452Y-98538507D01*
X80974595Y-96941936D02*
X80611738Y-98030507D01*
X81555167Y-98030507D01*
X82861452Y-97014507D02*
X82135738Y-97014507D01*
X82063167Y-97740221D01*
X82135738Y-97667650D01*
X82280881Y-97595079D01*
X82643738Y-97595079D01*
X82788881Y-97667650D01*
X82861452Y-97740221D01*
X82934024Y-97885364D01*
X82934024Y-98248221D01*
X82861452Y-98393364D01*
X82788881Y-98465936D01*
X82643738Y-98538507D01*
X82280881Y-98538507D01*
X82135738Y-98465936D01*
X82063167Y-98393364D01*
G04 #@! TO.C,J52*
D12*
X159857142Y-136558095D02*
X159904761Y-136605714D01*
X159952380Y-136748571D01*
X159952380Y-136843809D01*
X159904761Y-136986666D01*
X159809523Y-137081904D01*
X159714285Y-137129523D01*
X159523809Y-137177142D01*
X159380952Y-137177142D01*
X159190476Y-137129523D01*
X159095238Y-137081904D01*
X159000000Y-136986666D01*
X158952380Y-136843809D01*
X158952380Y-136748571D01*
X159000000Y-136605714D01*
X159047619Y-136558095D01*
X159952380Y-135986666D02*
X159904761Y-136081904D01*
X159857142Y-136129523D01*
X159761904Y-136177142D01*
X159476190Y-136177142D01*
X159380952Y-136129523D01*
X159333333Y-136081904D01*
X159285714Y-135986666D01*
X159285714Y-135843809D01*
X159333333Y-135748571D01*
X159380952Y-135700952D01*
X159476190Y-135653333D01*
X159761904Y-135653333D01*
X159857142Y-135700952D01*
X159904761Y-135748571D01*
X159952380Y-135843809D01*
X159952380Y-135986666D01*
X159285714Y-135224761D02*
X159952380Y-135224761D01*
X159380952Y-135224761D02*
X159333333Y-135177142D01*
X159285714Y-135081904D01*
X159285714Y-134939047D01*
X159333333Y-134843809D01*
X159428571Y-134796190D01*
X159952380Y-134796190D01*
X159285714Y-134320000D02*
X159952380Y-134320000D01*
X159380952Y-134320000D02*
X159333333Y-134272380D01*
X159285714Y-134177142D01*
X159285714Y-134034285D01*
X159333333Y-133939047D01*
X159428571Y-133891428D01*
X159952380Y-133891428D01*
X160047619Y-133653333D02*
X160047619Y-132891428D01*
X158952380Y-132462857D02*
X158952380Y-132367619D01*
X159000000Y-132272380D01*
X159047619Y-132224761D01*
X159142857Y-132177142D01*
X159333333Y-132129523D01*
X159571428Y-132129523D01*
X159761904Y-132177142D01*
X159857142Y-132224761D01*
X159904761Y-132272380D01*
X159952380Y-132367619D01*
X159952380Y-132462857D01*
X159904761Y-132558095D01*
X159857142Y-132605714D01*
X159761904Y-132653333D01*
X159571428Y-132700952D01*
X159333333Y-132700952D01*
X159142857Y-132653333D01*
X159047619Y-132605714D01*
X159000000Y-132558095D01*
X158952380Y-132462857D01*
X159952380Y-131177142D02*
X159952380Y-131748571D01*
X159952380Y-131462857D02*
X158952380Y-131462857D01*
X159095238Y-131558095D01*
X159190476Y-131653333D01*
X159238095Y-131748571D01*
X159952380Y-130843809D02*
X159285714Y-130320000D01*
X159285714Y-130843809D02*
X159952380Y-130320000D01*
X158952380Y-129748571D02*
X158952380Y-129653333D01*
X159000000Y-129558095D01*
X159047619Y-129510476D01*
X159142857Y-129462857D01*
X159333333Y-129415238D01*
X159571428Y-129415238D01*
X159761904Y-129462857D01*
X159857142Y-129510476D01*
X159904761Y-129558095D01*
X159952380Y-129653333D01*
X159952380Y-129748571D01*
X159904761Y-129843809D01*
X159857142Y-129891428D01*
X159761904Y-129939047D01*
X159571428Y-129986666D01*
X159333333Y-129986666D01*
X159142857Y-129939047D01*
X159047619Y-129891428D01*
X159000000Y-129843809D01*
X158952380Y-129748571D01*
X159047619Y-129034285D02*
X159000000Y-128986666D01*
X158952380Y-128891428D01*
X158952380Y-128653333D01*
X159000000Y-128558095D01*
X159047619Y-128510476D01*
X159142857Y-128462857D01*
X159238095Y-128462857D01*
X159380952Y-128510476D01*
X159952380Y-129081904D01*
X159952380Y-128462857D01*
X150952380Y-132629523D02*
X151666666Y-132629523D01*
X151809523Y-132677142D01*
X151904761Y-132772380D01*
X151952380Y-132915238D01*
X151952380Y-133010476D01*
X150952380Y-131677142D02*
X150952380Y-132153333D01*
X151428571Y-132200952D01*
X151380952Y-132153333D01*
X151333333Y-132058095D01*
X151333333Y-131820000D01*
X151380952Y-131724761D01*
X151428571Y-131677142D01*
X151523809Y-131629523D01*
X151761904Y-131629523D01*
X151857142Y-131677142D01*
X151904761Y-131724761D01*
X151952380Y-131820000D01*
X151952380Y-132058095D01*
X151904761Y-132153333D01*
X151857142Y-132200952D01*
X151047619Y-131248571D02*
X151000000Y-131200952D01*
X150952380Y-131105714D01*
X150952380Y-130867619D01*
X151000000Y-130772380D01*
X151047619Y-130724761D01*
X151142857Y-130677142D01*
X151238095Y-130677142D01*
X151380952Y-130724761D01*
X151952380Y-131296190D01*
X151952380Y-130677142D01*
G04 #@! TO.C,C51*
X134738095Y-115202380D02*
X134166666Y-115202380D01*
X134452380Y-115202380D02*
X134452380Y-114202380D01*
X134357142Y-114345238D01*
X134261904Y-114440476D01*
X134166666Y-114488095D01*
X135357142Y-114202380D02*
X135452380Y-114202380D01*
X135547619Y-114250000D01*
X135595238Y-114297619D01*
X135642857Y-114392857D01*
X135690476Y-114583333D01*
X135690476Y-114821428D01*
X135642857Y-115011904D01*
X135595238Y-115107142D01*
X135547619Y-115154761D01*
X135452380Y-115202380D01*
X135357142Y-115202380D01*
X135261904Y-115154761D01*
X135214285Y-115107142D01*
X135166666Y-115011904D01*
X135119047Y-114821428D01*
X135119047Y-114583333D01*
X135166666Y-114392857D01*
X135214285Y-114297619D01*
X135261904Y-114250000D01*
X135357142Y-114202380D01*
X136309523Y-114202380D02*
X136404761Y-114202380D01*
X136500000Y-114250000D01*
X136547619Y-114297619D01*
X136595238Y-114392857D01*
X136642857Y-114583333D01*
X136642857Y-114821428D01*
X136595238Y-115011904D01*
X136547619Y-115107142D01*
X136500000Y-115154761D01*
X136404761Y-115202380D01*
X136309523Y-115202380D01*
X136214285Y-115154761D01*
X136166666Y-115107142D01*
X136119047Y-115011904D01*
X136071428Y-114821428D01*
X136071428Y-114583333D01*
X136119047Y-114392857D01*
X136166666Y-114297619D01*
X136214285Y-114250000D01*
X136309523Y-114202380D01*
X137500000Y-114535714D02*
X137500000Y-115202380D01*
X137071428Y-114535714D02*
X137071428Y-115059523D01*
X137119047Y-115154761D01*
X137214285Y-115202380D01*
X137357142Y-115202380D01*
X137452380Y-115154761D01*
X137500000Y-115107142D01*
X138309523Y-114678571D02*
X137976190Y-114678571D01*
X137976190Y-115202380D02*
X137976190Y-114202380D01*
X138452380Y-114202380D01*
X138738095Y-115202380D02*
X139261904Y-114535714D01*
X138738095Y-114535714D02*
X139261904Y-115202380D01*
X140166666Y-115202380D02*
X139595238Y-115202380D01*
X139880952Y-115202380D02*
X139880952Y-114202380D01*
X139785714Y-114345238D01*
X139690476Y-114440476D01*
X139595238Y-114488095D01*
X140785714Y-114202380D02*
X140880952Y-114202380D01*
X140976190Y-114250000D01*
X141023809Y-114297619D01*
X141071428Y-114392857D01*
X141119047Y-114583333D01*
X141119047Y-114821428D01*
X141071428Y-115011904D01*
X141023809Y-115107142D01*
X140976190Y-115154761D01*
X140880952Y-115202380D01*
X140785714Y-115202380D01*
X140690476Y-115154761D01*
X140642857Y-115107142D01*
X140595238Y-115011904D01*
X140547619Y-114821428D01*
X140547619Y-114583333D01*
X140595238Y-114392857D01*
X140642857Y-114297619D01*
X140690476Y-114250000D01*
X140785714Y-114202380D01*
X141738095Y-114202380D02*
X141833333Y-114202380D01*
X141928571Y-114250000D01*
X141976190Y-114297619D01*
X142023809Y-114392857D01*
X142071428Y-114583333D01*
X142071428Y-114821428D01*
X142023809Y-115011904D01*
X141976190Y-115107142D01*
X141928571Y-115154761D01*
X141833333Y-115202380D01*
X141738095Y-115202380D01*
X141642857Y-115154761D01*
X141595238Y-115107142D01*
X141547619Y-115011904D01*
X141500000Y-114821428D01*
X141500000Y-114583333D01*
X141547619Y-114392857D01*
X141595238Y-114297619D01*
X141642857Y-114250000D01*
X141738095Y-114202380D01*
X142404761Y-114535714D02*
X142642857Y-115202380D01*
X142880952Y-114535714D01*
X137857142Y-122857142D02*
X137809523Y-122904761D01*
X137666666Y-122952380D01*
X137571428Y-122952380D01*
X137428571Y-122904761D01*
X137333333Y-122809523D01*
X137285714Y-122714285D01*
X137238095Y-122523809D01*
X137238095Y-122380952D01*
X137285714Y-122190476D01*
X137333333Y-122095238D01*
X137428571Y-122000000D01*
X137571428Y-121952380D01*
X137666666Y-121952380D01*
X137809523Y-122000000D01*
X137857142Y-122047619D01*
X138761904Y-121952380D02*
X138285714Y-121952380D01*
X138238095Y-122428571D01*
X138285714Y-122380952D01*
X138380952Y-122333333D01*
X138619047Y-122333333D01*
X138714285Y-122380952D01*
X138761904Y-122428571D01*
X138809523Y-122523809D01*
X138809523Y-122761904D01*
X138761904Y-122857142D01*
X138714285Y-122904761D01*
X138619047Y-122952380D01*
X138380952Y-122952380D01*
X138285714Y-122904761D01*
X138238095Y-122857142D01*
X139761904Y-122952380D02*
X139190476Y-122952380D01*
X139476190Y-122952380D02*
X139476190Y-121952380D01*
X139380952Y-122095238D01*
X139285714Y-122190476D01*
X139190476Y-122238095D01*
G04 #@! TO.C,C52*
X134738095Y-94702380D02*
X134166666Y-94702380D01*
X134452380Y-94702380D02*
X134452380Y-93702380D01*
X134357142Y-93845238D01*
X134261904Y-93940476D01*
X134166666Y-93988095D01*
X135357142Y-93702380D02*
X135452380Y-93702380D01*
X135547619Y-93750000D01*
X135595238Y-93797619D01*
X135642857Y-93892857D01*
X135690476Y-94083333D01*
X135690476Y-94321428D01*
X135642857Y-94511904D01*
X135595238Y-94607142D01*
X135547619Y-94654761D01*
X135452380Y-94702380D01*
X135357142Y-94702380D01*
X135261904Y-94654761D01*
X135214285Y-94607142D01*
X135166666Y-94511904D01*
X135119047Y-94321428D01*
X135119047Y-94083333D01*
X135166666Y-93892857D01*
X135214285Y-93797619D01*
X135261904Y-93750000D01*
X135357142Y-93702380D01*
X136309523Y-93702380D02*
X136404761Y-93702380D01*
X136500000Y-93750000D01*
X136547619Y-93797619D01*
X136595238Y-93892857D01*
X136642857Y-94083333D01*
X136642857Y-94321428D01*
X136595238Y-94511904D01*
X136547619Y-94607142D01*
X136500000Y-94654761D01*
X136404761Y-94702380D01*
X136309523Y-94702380D01*
X136214285Y-94654761D01*
X136166666Y-94607142D01*
X136119047Y-94511904D01*
X136071428Y-94321428D01*
X136071428Y-94083333D01*
X136119047Y-93892857D01*
X136166666Y-93797619D01*
X136214285Y-93750000D01*
X136309523Y-93702380D01*
X137500000Y-94035714D02*
X137500000Y-94702380D01*
X137071428Y-94035714D02*
X137071428Y-94559523D01*
X137119047Y-94654761D01*
X137214285Y-94702380D01*
X137357142Y-94702380D01*
X137452380Y-94654761D01*
X137500000Y-94607142D01*
X138309523Y-94178571D02*
X137976190Y-94178571D01*
X137976190Y-94702380D02*
X137976190Y-93702380D01*
X138452380Y-93702380D01*
X138738095Y-94702380D02*
X139261904Y-94035714D01*
X138738095Y-94035714D02*
X139261904Y-94702380D01*
X140166666Y-94702380D02*
X139595238Y-94702380D01*
X139880952Y-94702380D02*
X139880952Y-93702380D01*
X139785714Y-93845238D01*
X139690476Y-93940476D01*
X139595238Y-93988095D01*
X140785714Y-93702380D02*
X140880952Y-93702380D01*
X140976190Y-93750000D01*
X141023809Y-93797619D01*
X141071428Y-93892857D01*
X141119047Y-94083333D01*
X141119047Y-94321428D01*
X141071428Y-94511904D01*
X141023809Y-94607142D01*
X140976190Y-94654761D01*
X140880952Y-94702380D01*
X140785714Y-94702380D01*
X140690476Y-94654761D01*
X140642857Y-94607142D01*
X140595238Y-94511904D01*
X140547619Y-94321428D01*
X140547619Y-94083333D01*
X140595238Y-93892857D01*
X140642857Y-93797619D01*
X140690476Y-93750000D01*
X140785714Y-93702380D01*
X141738095Y-93702380D02*
X141833333Y-93702380D01*
X141928571Y-93750000D01*
X141976190Y-93797619D01*
X142023809Y-93892857D01*
X142071428Y-94083333D01*
X142071428Y-94321428D01*
X142023809Y-94511904D01*
X141976190Y-94607142D01*
X141928571Y-94654761D01*
X141833333Y-94702380D01*
X141738095Y-94702380D01*
X141642857Y-94654761D01*
X141595238Y-94607142D01*
X141547619Y-94511904D01*
X141500000Y-94321428D01*
X141500000Y-94083333D01*
X141547619Y-93892857D01*
X141595238Y-93797619D01*
X141642857Y-93750000D01*
X141738095Y-93702380D01*
X142404761Y-94035714D02*
X142642857Y-94702380D01*
X142880952Y-94035714D01*
X137857142Y-102357142D02*
X137809523Y-102404761D01*
X137666666Y-102452380D01*
X137571428Y-102452380D01*
X137428571Y-102404761D01*
X137333333Y-102309523D01*
X137285714Y-102214285D01*
X137238095Y-102023809D01*
X137238095Y-101880952D01*
X137285714Y-101690476D01*
X137333333Y-101595238D01*
X137428571Y-101500000D01*
X137571428Y-101452380D01*
X137666666Y-101452380D01*
X137809523Y-101500000D01*
X137857142Y-101547619D01*
X138761904Y-101452380D02*
X138285714Y-101452380D01*
X138238095Y-101928571D01*
X138285714Y-101880952D01*
X138380952Y-101833333D01*
X138619047Y-101833333D01*
X138714285Y-101880952D01*
X138761904Y-101928571D01*
X138809523Y-102023809D01*
X138809523Y-102261904D01*
X138761904Y-102357142D01*
X138714285Y-102404761D01*
X138619047Y-102452380D01*
X138380952Y-102452380D01*
X138285714Y-102404761D01*
X138238095Y-102357142D01*
X139190476Y-101547619D02*
X139238095Y-101500000D01*
X139333333Y-101452380D01*
X139571428Y-101452380D01*
X139666666Y-101500000D01*
X139714285Y-101547619D01*
X139761904Y-101642857D01*
X139761904Y-101738095D01*
X139714285Y-101880952D01*
X139142857Y-102452380D01*
X139761904Y-102452380D01*
G04 #@! TO.C,J51*
X159857142Y-116238095D02*
X159904761Y-116285714D01*
X159952380Y-116428571D01*
X159952380Y-116523809D01*
X159904761Y-116666666D01*
X159809523Y-116761904D01*
X159714285Y-116809523D01*
X159523809Y-116857142D01*
X159380952Y-116857142D01*
X159190476Y-116809523D01*
X159095238Y-116761904D01*
X159000000Y-116666666D01*
X158952380Y-116523809D01*
X158952380Y-116428571D01*
X159000000Y-116285714D01*
X159047619Y-116238095D01*
X159952380Y-115666666D02*
X159904761Y-115761904D01*
X159857142Y-115809523D01*
X159761904Y-115857142D01*
X159476190Y-115857142D01*
X159380952Y-115809523D01*
X159333333Y-115761904D01*
X159285714Y-115666666D01*
X159285714Y-115523809D01*
X159333333Y-115428571D01*
X159380952Y-115380952D01*
X159476190Y-115333333D01*
X159761904Y-115333333D01*
X159857142Y-115380952D01*
X159904761Y-115428571D01*
X159952380Y-115523809D01*
X159952380Y-115666666D01*
X159285714Y-114904761D02*
X159952380Y-114904761D01*
X159380952Y-114904761D02*
X159333333Y-114857142D01*
X159285714Y-114761904D01*
X159285714Y-114619047D01*
X159333333Y-114523809D01*
X159428571Y-114476190D01*
X159952380Y-114476190D01*
X159285714Y-114000000D02*
X159952380Y-114000000D01*
X159380952Y-114000000D02*
X159333333Y-113952380D01*
X159285714Y-113857142D01*
X159285714Y-113714285D01*
X159333333Y-113619047D01*
X159428571Y-113571428D01*
X159952380Y-113571428D01*
X160047619Y-113333333D02*
X160047619Y-112571428D01*
X158952380Y-112142857D02*
X158952380Y-112047619D01*
X159000000Y-111952380D01*
X159047619Y-111904761D01*
X159142857Y-111857142D01*
X159333333Y-111809523D01*
X159571428Y-111809523D01*
X159761904Y-111857142D01*
X159857142Y-111904761D01*
X159904761Y-111952380D01*
X159952380Y-112047619D01*
X159952380Y-112142857D01*
X159904761Y-112238095D01*
X159857142Y-112285714D01*
X159761904Y-112333333D01*
X159571428Y-112380952D01*
X159333333Y-112380952D01*
X159142857Y-112333333D01*
X159047619Y-112285714D01*
X159000000Y-112238095D01*
X158952380Y-112142857D01*
X159952380Y-110857142D02*
X159952380Y-111428571D01*
X159952380Y-111142857D02*
X158952380Y-111142857D01*
X159095238Y-111238095D01*
X159190476Y-111333333D01*
X159238095Y-111428571D01*
X159952380Y-110523809D02*
X159285714Y-110000000D01*
X159285714Y-110523809D02*
X159952380Y-110000000D01*
X158952380Y-109428571D02*
X158952380Y-109333333D01*
X159000000Y-109238095D01*
X159047619Y-109190476D01*
X159142857Y-109142857D01*
X159333333Y-109095238D01*
X159571428Y-109095238D01*
X159761904Y-109142857D01*
X159857142Y-109190476D01*
X159904761Y-109238095D01*
X159952380Y-109333333D01*
X159952380Y-109428571D01*
X159904761Y-109523809D01*
X159857142Y-109571428D01*
X159761904Y-109619047D01*
X159571428Y-109666666D01*
X159333333Y-109666666D01*
X159142857Y-109619047D01*
X159047619Y-109571428D01*
X159000000Y-109523809D01*
X158952380Y-109428571D01*
X159285714Y-108238095D02*
X159952380Y-108238095D01*
X158904761Y-108476190D02*
X159619047Y-108714285D01*
X159619047Y-108095238D01*
X150952380Y-113309523D02*
X151666666Y-113309523D01*
X151809523Y-113357142D01*
X151904761Y-113452380D01*
X151952380Y-113595238D01*
X151952380Y-113690476D01*
X150952380Y-112357142D02*
X150952380Y-112833333D01*
X151428571Y-112880952D01*
X151380952Y-112833333D01*
X151333333Y-112738095D01*
X151333333Y-112500000D01*
X151380952Y-112404761D01*
X151428571Y-112357142D01*
X151523809Y-112309523D01*
X151761904Y-112309523D01*
X151857142Y-112357142D01*
X151904761Y-112404761D01*
X151952380Y-112500000D01*
X151952380Y-112738095D01*
X151904761Y-112833333D01*
X151857142Y-112880952D01*
X151952380Y-111357142D02*
X151952380Y-111928571D01*
X151952380Y-111642857D02*
X150952380Y-111642857D01*
X151095238Y-111738095D01*
X151190476Y-111833333D01*
X151238095Y-111928571D01*
G04 #@! TO.C,J54*
D13*
X87187907Y-128311205D02*
X86462193Y-128819205D01*
X87187907Y-129182062D02*
X85663907Y-129182062D01*
X85663907Y-128601491D01*
X85736479Y-128456348D01*
X85809050Y-128383777D01*
X85954193Y-128311205D01*
X86171907Y-128311205D01*
X86317050Y-128383777D01*
X86389621Y-128456348D01*
X86462193Y-128601491D01*
X86462193Y-129182062D01*
X85663907Y-127222634D02*
X86752479Y-127222634D01*
X86970193Y-127295205D01*
X87115336Y-127440348D01*
X87187907Y-127658062D01*
X87187907Y-127803205D01*
X86171907Y-125843777D02*
X87187907Y-125843777D01*
X85591336Y-126206634D02*
X86679907Y-126569491D01*
X86679907Y-125626062D01*
X85663907Y-124319777D02*
X85663907Y-125045491D01*
X86389621Y-125118062D01*
X86317050Y-125045491D01*
X86244479Y-124900348D01*
X86244479Y-124537491D01*
X86317050Y-124392348D01*
X86389621Y-124319777D01*
X86534764Y-124247205D01*
X86897621Y-124247205D01*
X87042764Y-124319777D01*
X87115336Y-124392348D01*
X87187907Y-124537491D01*
X87187907Y-124900348D01*
X87115336Y-125045491D01*
X87042764Y-125118062D01*
G04 #@! TD*
M02*
