M48
;DRILL file {KiCad 5.0.0-fee4fd1~66~ubuntu16.04.1} date Thu Oct 25 21:56:07 2018
;FORMAT={-:-/ absolute / metric / decimal}
FMAT,2
METRIC,TZ
T1C0.500
T2C0.700
T3C0.800
T4C0.900
T5C1.200
T6C1.400
T7C3.200
%
G90
G05
M71
T1
X98.13Y-103.449
X98.43Y-120.549
X99.63Y-119.349
X99.8Y-89.6
X102.03Y-100.049
X103.13Y-112.049
X105.23Y-95.949
X105.83Y-113.949
X107.2Y-124.2
X107.6Y-94.8
X108.23Y-91.149
X109.Y-96.4
X109.43Y-109.349
X110.23Y-110.749
X110.23Y-114.349
X113.23Y-130.749
X113.83Y-111.549
X113.83Y-113.549
X114.Y-103.5
X114.Y-121.5
X115.975Y-107.25
X115.975Y-115.775
X116.Y-108.225
X116.Y-109.225
X116.Y-110.975
X116.Y-111.975
X116.Y-112.975
X116.Y-113.975
X116.Y-116.75
X116.Y-117.75
X117.Y-110.975
X117.Y-111.975
X117.Y-112.975
X117.Y-113.975
X117.25Y-107.25
X117.25Y-108.225
X117.25Y-109.225
X117.25Y-115.775
X117.25Y-116.75
X117.25Y-117.75
X118.Y-110.975
X118.Y-111.975
X118.Y-112.975
X118.Y-113.975
X118.725Y-115.775
X118.75Y-107.25
X118.75Y-116.75
X118.75Y-117.75
X118.775Y-108.225
X118.775Y-109.225
X119.Y-110.975
X119.Y-111.975
X119.Y-112.975
X119.Y-113.975
X120.Y-110.975
X120.Y-111.975
X120.Y-112.975
X120.Y-113.975
X120.Y-115.775
X120.Y-116.75
X120.Y-117.75
X120.025Y-107.25
X120.025Y-108.225
X120.025Y-109.225
X122.Y-110.4
X125.58Y-100.499
X125.83Y-116.049
X126.5Y-108.5
X127.33Y-116.849
X128.03Y-115.549
X131.8Y-129.
X132.53Y-96.349
X133.Y-130.
X134.2Y-129.
X134.33Y-96.349
X140.Y-127.5
T2
X95.25Y-109.971
X95.25Y-112.
X95.25Y-114.038
X97.795Y-110.987
X97.795Y-113.016
X97.795Y-115.045
X95.22Y-95.712
X95.22Y-97.741
X95.22Y-99.771
X95.22Y-101.8
X97.765Y-94.698
X97.765Y-96.728
X97.765Y-98.757
X97.765Y-100.787
X95.255Y-124.213
X95.255Y-126.243
X95.255Y-128.272
X95.255Y-130.302
X97.8Y-123.2
X97.8Y-125.229
X97.8Y-127.259
X97.8Y-129.288
T3
X103.63Y-85.749
X104.03Y-115.549
X108.23Y-136.149
X108.4Y-120.8
X108.63Y-105.949
X130.43Y-85.849
X132.78Y-86.704
T4
X144.5Y-127.96
X144.5Y-130.5
X101.5Y-120.46
X101.5Y-123.
X101.5Y-130.5
X101.5Y-133.04
X101.5Y-110.81
X101.5Y-114.11
X101.5Y-101.96
X101.5Y-104.5
X144.5Y-111.209
X144.5Y-113.749
X101.5Y-91.96
X101.5Y-94.5
X144.5Y-135.1
X144.5Y-137.64
X144.6Y-94.46
X144.6Y-97.
X144.6Y-87.3
X144.6Y-89.84
T5
X136.Y-102.
X141.Y-102.
X136.Y-122.5
X141.Y-122.5
T6
X148.5Y-104.88
X148.5Y-109.96
X148.5Y-115.04
X148.5Y-120.12
X148.5Y-130.28
X148.5Y-135.36
X148.5Y-89.64
X148.5Y-94.72
T7
X122.5Y-137.5
X122.5Y-87.5
T0
M30
