G04 #@! TF.GenerationSoftware,KiCad,Pcbnew,(5.0.0)*
G04 #@! TF.CreationDate,2018-10-15T18:52:21-03:00*
G04 #@! TF.ProjectId,TPMS_Sensor,54504D535F53656E736F722E6B696361,1*
G04 #@! TF.SameCoordinates,Original*
G04 #@! TF.FileFunction,Copper,L1,Top,Signal*
G04 #@! TF.FilePolarity,Positive*
%FSLAX46Y46*%
G04 Gerber Fmt 4.6, Leading zero omitted, Abs format (unit mm)*
G04 Created by KiCad (PCBNEW (5.0.0)) date 10/15/18 18:52:21*
%MOMM*%
%LPD*%
G01*
G04 APERTURE LIST*
G04 #@! TA.AperFunction,Conductor*
%ADD10C,0.100000*%
G04 #@! TD*
G04 #@! TA.AperFunction,SMDPad,CuDef*
%ADD11C,0.590000*%
G04 #@! TD*
G04 #@! TA.AperFunction,ComponentPad*
%ADD12R,1.700000X1.700000*%
G04 #@! TD*
G04 #@! TA.AperFunction,ComponentPad*
%ADD13O,1.700000X1.700000*%
G04 #@! TD*
G04 #@! TA.AperFunction,SMDPad,CuDef*
%ADD14R,1.600000X3.200000*%
G04 #@! TD*
G04 #@! TA.AperFunction,SMDPad,CuDef*
%ADD15R,2.540000X5.080000*%
G04 #@! TD*
G04 #@! TA.AperFunction,SMDPad,CuDef*
%ADD16R,1.300000X1.000000*%
G04 #@! TD*
G04 #@! TA.AperFunction,ComponentPad*
%ADD17C,0.800000*%
G04 #@! TD*
G04 #@! TA.AperFunction,SMDPad,CuDef*
%ADD18R,5.150000X5.150000*%
G04 #@! TD*
G04 #@! TA.AperFunction,SMDPad,CuDef*
%ADD19R,0.850000X0.650000*%
G04 #@! TD*
G04 #@! TA.AperFunction,SMDPad,CuDef*
%ADD20R,0.650000X0.850000*%
G04 #@! TD*
G04 #@! TA.AperFunction,ViaPad*
%ADD21C,0.800000*%
G04 #@! TD*
G04 #@! TA.AperFunction,Conductor*
%ADD22C,0.500000*%
G04 #@! TD*
G04 #@! TA.AperFunction,Conductor*
%ADD23C,0.300000*%
G04 #@! TD*
G04 #@! TA.AperFunction,Conductor*
%ADD24C,0.254000*%
G04 #@! TD*
G04 APERTURE END LIST*
D10*
G04 #@! TO.N,Net-(C1-Pad1)*
G04 #@! TO.C,C1*
G36*
X145443158Y-84885710D02*
X145457476Y-84887834D01*
X145471517Y-84891351D01*
X145485146Y-84896228D01*
X145498231Y-84902417D01*
X145510647Y-84909858D01*
X145522273Y-84918481D01*
X145532998Y-84928202D01*
X145542719Y-84938927D01*
X145551342Y-84950553D01*
X145558783Y-84962969D01*
X145564972Y-84976054D01*
X145569849Y-84989683D01*
X145573366Y-85003724D01*
X145575490Y-85018042D01*
X145576200Y-85032500D01*
X145576200Y-85327500D01*
X145575490Y-85341958D01*
X145573366Y-85356276D01*
X145569849Y-85370317D01*
X145564972Y-85383946D01*
X145558783Y-85397031D01*
X145551342Y-85409447D01*
X145542719Y-85421073D01*
X145532998Y-85431798D01*
X145522273Y-85441519D01*
X145510647Y-85450142D01*
X145498231Y-85457583D01*
X145485146Y-85463772D01*
X145471517Y-85468649D01*
X145457476Y-85472166D01*
X145443158Y-85474290D01*
X145428700Y-85475000D01*
X145083700Y-85475000D01*
X145069242Y-85474290D01*
X145054924Y-85472166D01*
X145040883Y-85468649D01*
X145027254Y-85463772D01*
X145014169Y-85457583D01*
X145001753Y-85450142D01*
X144990127Y-85441519D01*
X144979402Y-85431798D01*
X144969681Y-85421073D01*
X144961058Y-85409447D01*
X144953617Y-85397031D01*
X144947428Y-85383946D01*
X144942551Y-85370317D01*
X144939034Y-85356276D01*
X144936910Y-85341958D01*
X144936200Y-85327500D01*
X144936200Y-85032500D01*
X144936910Y-85018042D01*
X144939034Y-85003724D01*
X144942551Y-84989683D01*
X144947428Y-84976054D01*
X144953617Y-84962969D01*
X144961058Y-84950553D01*
X144969681Y-84938927D01*
X144979402Y-84928202D01*
X144990127Y-84918481D01*
X145001753Y-84909858D01*
X145014169Y-84902417D01*
X145027254Y-84896228D01*
X145040883Y-84891351D01*
X145054924Y-84887834D01*
X145069242Y-84885710D01*
X145083700Y-84885000D01*
X145428700Y-84885000D01*
X145443158Y-84885710D01*
X145443158Y-84885710D01*
G37*
D11*
G04 #@! TD*
G04 #@! TO.P,C1,1*
G04 #@! TO.N,Net-(C1-Pad1)*
X145256200Y-85180000D03*
D10*
G04 #@! TO.N,-BATT*
G04 #@! TO.C,C1*
G36*
X145443158Y-83915710D02*
X145457476Y-83917834D01*
X145471517Y-83921351D01*
X145485146Y-83926228D01*
X145498231Y-83932417D01*
X145510647Y-83939858D01*
X145522273Y-83948481D01*
X145532998Y-83958202D01*
X145542719Y-83968927D01*
X145551342Y-83980553D01*
X145558783Y-83992969D01*
X145564972Y-84006054D01*
X145569849Y-84019683D01*
X145573366Y-84033724D01*
X145575490Y-84048042D01*
X145576200Y-84062500D01*
X145576200Y-84357500D01*
X145575490Y-84371958D01*
X145573366Y-84386276D01*
X145569849Y-84400317D01*
X145564972Y-84413946D01*
X145558783Y-84427031D01*
X145551342Y-84439447D01*
X145542719Y-84451073D01*
X145532998Y-84461798D01*
X145522273Y-84471519D01*
X145510647Y-84480142D01*
X145498231Y-84487583D01*
X145485146Y-84493772D01*
X145471517Y-84498649D01*
X145457476Y-84502166D01*
X145443158Y-84504290D01*
X145428700Y-84505000D01*
X145083700Y-84505000D01*
X145069242Y-84504290D01*
X145054924Y-84502166D01*
X145040883Y-84498649D01*
X145027254Y-84493772D01*
X145014169Y-84487583D01*
X145001753Y-84480142D01*
X144990127Y-84471519D01*
X144979402Y-84461798D01*
X144969681Y-84451073D01*
X144961058Y-84439447D01*
X144953617Y-84427031D01*
X144947428Y-84413946D01*
X144942551Y-84400317D01*
X144939034Y-84386276D01*
X144936910Y-84371958D01*
X144936200Y-84357500D01*
X144936200Y-84062500D01*
X144936910Y-84048042D01*
X144939034Y-84033724D01*
X144942551Y-84019683D01*
X144947428Y-84006054D01*
X144953617Y-83992969D01*
X144961058Y-83980553D01*
X144969681Y-83968927D01*
X144979402Y-83958202D01*
X144990127Y-83948481D01*
X145001753Y-83939858D01*
X145014169Y-83932417D01*
X145027254Y-83926228D01*
X145040883Y-83921351D01*
X145054924Y-83917834D01*
X145069242Y-83915710D01*
X145083700Y-83915000D01*
X145428700Y-83915000D01*
X145443158Y-83915710D01*
X145443158Y-83915710D01*
G37*
D11*
G04 #@! TD*
G04 #@! TO.P,C1,2*
G04 #@! TO.N,-BATT*
X145256200Y-84210000D03*
D10*
G04 #@! TO.N,-BATT*
G04 #@! TO.C,C2*
G36*
X144376358Y-82828310D02*
X144390676Y-82830434D01*
X144404717Y-82833951D01*
X144418346Y-82838828D01*
X144431431Y-82845017D01*
X144443847Y-82852458D01*
X144455473Y-82861081D01*
X144466198Y-82870802D01*
X144475919Y-82881527D01*
X144484542Y-82893153D01*
X144491983Y-82905569D01*
X144498172Y-82918654D01*
X144503049Y-82932283D01*
X144506566Y-82946324D01*
X144508690Y-82960642D01*
X144509400Y-82975100D01*
X144509400Y-83270100D01*
X144508690Y-83284558D01*
X144506566Y-83298876D01*
X144503049Y-83312917D01*
X144498172Y-83326546D01*
X144491983Y-83339631D01*
X144484542Y-83352047D01*
X144475919Y-83363673D01*
X144466198Y-83374398D01*
X144455473Y-83384119D01*
X144443847Y-83392742D01*
X144431431Y-83400183D01*
X144418346Y-83406372D01*
X144404717Y-83411249D01*
X144390676Y-83414766D01*
X144376358Y-83416890D01*
X144361900Y-83417600D01*
X144016900Y-83417600D01*
X144002442Y-83416890D01*
X143988124Y-83414766D01*
X143974083Y-83411249D01*
X143960454Y-83406372D01*
X143947369Y-83400183D01*
X143934953Y-83392742D01*
X143923327Y-83384119D01*
X143912602Y-83374398D01*
X143902881Y-83363673D01*
X143894258Y-83352047D01*
X143886817Y-83339631D01*
X143880628Y-83326546D01*
X143875751Y-83312917D01*
X143872234Y-83298876D01*
X143870110Y-83284558D01*
X143869400Y-83270100D01*
X143869400Y-82975100D01*
X143870110Y-82960642D01*
X143872234Y-82946324D01*
X143875751Y-82932283D01*
X143880628Y-82918654D01*
X143886817Y-82905569D01*
X143894258Y-82893153D01*
X143902881Y-82881527D01*
X143912602Y-82870802D01*
X143923327Y-82861081D01*
X143934953Y-82852458D01*
X143947369Y-82845017D01*
X143960454Y-82838828D01*
X143974083Y-82833951D01*
X143988124Y-82830434D01*
X144002442Y-82828310D01*
X144016900Y-82827600D01*
X144361900Y-82827600D01*
X144376358Y-82828310D01*
X144376358Y-82828310D01*
G37*
D11*
G04 #@! TD*
G04 #@! TO.P,C2,2*
G04 #@! TO.N,-BATT*
X144189400Y-83122600D03*
D10*
G04 #@! TO.N,+BATT*
G04 #@! TO.C,C2*
G36*
X144376358Y-81858310D02*
X144390676Y-81860434D01*
X144404717Y-81863951D01*
X144418346Y-81868828D01*
X144431431Y-81875017D01*
X144443847Y-81882458D01*
X144455473Y-81891081D01*
X144466198Y-81900802D01*
X144475919Y-81911527D01*
X144484542Y-81923153D01*
X144491983Y-81935569D01*
X144498172Y-81948654D01*
X144503049Y-81962283D01*
X144506566Y-81976324D01*
X144508690Y-81990642D01*
X144509400Y-82005100D01*
X144509400Y-82300100D01*
X144508690Y-82314558D01*
X144506566Y-82328876D01*
X144503049Y-82342917D01*
X144498172Y-82356546D01*
X144491983Y-82369631D01*
X144484542Y-82382047D01*
X144475919Y-82393673D01*
X144466198Y-82404398D01*
X144455473Y-82414119D01*
X144443847Y-82422742D01*
X144431431Y-82430183D01*
X144418346Y-82436372D01*
X144404717Y-82441249D01*
X144390676Y-82444766D01*
X144376358Y-82446890D01*
X144361900Y-82447600D01*
X144016900Y-82447600D01*
X144002442Y-82446890D01*
X143988124Y-82444766D01*
X143974083Y-82441249D01*
X143960454Y-82436372D01*
X143947369Y-82430183D01*
X143934953Y-82422742D01*
X143923327Y-82414119D01*
X143912602Y-82404398D01*
X143902881Y-82393673D01*
X143894258Y-82382047D01*
X143886817Y-82369631D01*
X143880628Y-82356546D01*
X143875751Y-82342917D01*
X143872234Y-82328876D01*
X143870110Y-82314558D01*
X143869400Y-82300100D01*
X143869400Y-82005100D01*
X143870110Y-81990642D01*
X143872234Y-81976324D01*
X143875751Y-81962283D01*
X143880628Y-81948654D01*
X143886817Y-81935569D01*
X143894258Y-81923153D01*
X143902881Y-81911527D01*
X143912602Y-81900802D01*
X143923327Y-81891081D01*
X143934953Y-81882458D01*
X143947369Y-81875017D01*
X143960454Y-81868828D01*
X143974083Y-81863951D01*
X143988124Y-81860434D01*
X144002442Y-81858310D01*
X144016900Y-81857600D01*
X144361900Y-81857600D01*
X144376358Y-81858310D01*
X144376358Y-81858310D01*
G37*
D11*
G04 #@! TD*
G04 #@! TO.P,C2,1*
G04 #@! TO.N,+BATT*
X144189400Y-82152600D03*
D10*
G04 #@! TO.N,+BATT*
G04 #@! TO.C,C3*
G36*
X145468558Y-81858310D02*
X145482876Y-81860434D01*
X145496917Y-81863951D01*
X145510546Y-81868828D01*
X145523631Y-81875017D01*
X145536047Y-81882458D01*
X145547673Y-81891081D01*
X145558398Y-81900802D01*
X145568119Y-81911527D01*
X145576742Y-81923153D01*
X145584183Y-81935569D01*
X145590372Y-81948654D01*
X145595249Y-81962283D01*
X145598766Y-81976324D01*
X145600890Y-81990642D01*
X145601600Y-82005100D01*
X145601600Y-82300100D01*
X145600890Y-82314558D01*
X145598766Y-82328876D01*
X145595249Y-82342917D01*
X145590372Y-82356546D01*
X145584183Y-82369631D01*
X145576742Y-82382047D01*
X145568119Y-82393673D01*
X145558398Y-82404398D01*
X145547673Y-82414119D01*
X145536047Y-82422742D01*
X145523631Y-82430183D01*
X145510546Y-82436372D01*
X145496917Y-82441249D01*
X145482876Y-82444766D01*
X145468558Y-82446890D01*
X145454100Y-82447600D01*
X145109100Y-82447600D01*
X145094642Y-82446890D01*
X145080324Y-82444766D01*
X145066283Y-82441249D01*
X145052654Y-82436372D01*
X145039569Y-82430183D01*
X145027153Y-82422742D01*
X145015527Y-82414119D01*
X145004802Y-82404398D01*
X144995081Y-82393673D01*
X144986458Y-82382047D01*
X144979017Y-82369631D01*
X144972828Y-82356546D01*
X144967951Y-82342917D01*
X144964434Y-82328876D01*
X144962310Y-82314558D01*
X144961600Y-82300100D01*
X144961600Y-82005100D01*
X144962310Y-81990642D01*
X144964434Y-81976324D01*
X144967951Y-81962283D01*
X144972828Y-81948654D01*
X144979017Y-81935569D01*
X144986458Y-81923153D01*
X144995081Y-81911527D01*
X145004802Y-81900802D01*
X145015527Y-81891081D01*
X145027153Y-81882458D01*
X145039569Y-81875017D01*
X145052654Y-81868828D01*
X145066283Y-81863951D01*
X145080324Y-81860434D01*
X145094642Y-81858310D01*
X145109100Y-81857600D01*
X145454100Y-81857600D01*
X145468558Y-81858310D01*
X145468558Y-81858310D01*
G37*
D11*
G04 #@! TD*
G04 #@! TO.P,C3,1*
G04 #@! TO.N,+BATT*
X145281600Y-82152600D03*
D10*
G04 #@! TO.N,-BATT*
G04 #@! TO.C,C3*
G36*
X145468558Y-82828310D02*
X145482876Y-82830434D01*
X145496917Y-82833951D01*
X145510546Y-82838828D01*
X145523631Y-82845017D01*
X145536047Y-82852458D01*
X145547673Y-82861081D01*
X145558398Y-82870802D01*
X145568119Y-82881527D01*
X145576742Y-82893153D01*
X145584183Y-82905569D01*
X145590372Y-82918654D01*
X145595249Y-82932283D01*
X145598766Y-82946324D01*
X145600890Y-82960642D01*
X145601600Y-82975100D01*
X145601600Y-83270100D01*
X145600890Y-83284558D01*
X145598766Y-83298876D01*
X145595249Y-83312917D01*
X145590372Y-83326546D01*
X145584183Y-83339631D01*
X145576742Y-83352047D01*
X145568119Y-83363673D01*
X145558398Y-83374398D01*
X145547673Y-83384119D01*
X145536047Y-83392742D01*
X145523631Y-83400183D01*
X145510546Y-83406372D01*
X145496917Y-83411249D01*
X145482876Y-83414766D01*
X145468558Y-83416890D01*
X145454100Y-83417600D01*
X145109100Y-83417600D01*
X145094642Y-83416890D01*
X145080324Y-83414766D01*
X145066283Y-83411249D01*
X145052654Y-83406372D01*
X145039569Y-83400183D01*
X145027153Y-83392742D01*
X145015527Y-83384119D01*
X145004802Y-83374398D01*
X144995081Y-83363673D01*
X144986458Y-83352047D01*
X144979017Y-83339631D01*
X144972828Y-83326546D01*
X144967951Y-83312917D01*
X144964434Y-83298876D01*
X144962310Y-83284558D01*
X144961600Y-83270100D01*
X144961600Y-82975100D01*
X144962310Y-82960642D01*
X144964434Y-82946324D01*
X144967951Y-82932283D01*
X144972828Y-82918654D01*
X144979017Y-82905569D01*
X144986458Y-82893153D01*
X144995081Y-82881527D01*
X145004802Y-82870802D01*
X145015527Y-82861081D01*
X145027153Y-82852458D01*
X145039569Y-82845017D01*
X145052654Y-82838828D01*
X145066283Y-82833951D01*
X145080324Y-82830434D01*
X145094642Y-82828310D01*
X145109100Y-82827600D01*
X145454100Y-82827600D01*
X145468558Y-82828310D01*
X145468558Y-82828310D01*
G37*
D11*
G04 #@! TD*
G04 #@! TO.P,C3,2*
G04 #@! TO.N,-BATT*
X145281600Y-83122600D03*
D10*
G04 #@! TO.N,-BATT*
G04 #@! TO.C,C4*
G36*
X143341358Y-82828310D02*
X143355676Y-82830434D01*
X143369717Y-82833951D01*
X143383346Y-82838828D01*
X143396431Y-82845017D01*
X143408847Y-82852458D01*
X143420473Y-82861081D01*
X143431198Y-82870802D01*
X143440919Y-82881527D01*
X143449542Y-82893153D01*
X143456983Y-82905569D01*
X143463172Y-82918654D01*
X143468049Y-82932283D01*
X143471566Y-82946324D01*
X143473690Y-82960642D01*
X143474400Y-82975100D01*
X143474400Y-83270100D01*
X143473690Y-83284558D01*
X143471566Y-83298876D01*
X143468049Y-83312917D01*
X143463172Y-83326546D01*
X143456983Y-83339631D01*
X143449542Y-83352047D01*
X143440919Y-83363673D01*
X143431198Y-83374398D01*
X143420473Y-83384119D01*
X143408847Y-83392742D01*
X143396431Y-83400183D01*
X143383346Y-83406372D01*
X143369717Y-83411249D01*
X143355676Y-83414766D01*
X143341358Y-83416890D01*
X143326900Y-83417600D01*
X142981900Y-83417600D01*
X142967442Y-83416890D01*
X142953124Y-83414766D01*
X142939083Y-83411249D01*
X142925454Y-83406372D01*
X142912369Y-83400183D01*
X142899953Y-83392742D01*
X142888327Y-83384119D01*
X142877602Y-83374398D01*
X142867881Y-83363673D01*
X142859258Y-83352047D01*
X142851817Y-83339631D01*
X142845628Y-83326546D01*
X142840751Y-83312917D01*
X142837234Y-83298876D01*
X142835110Y-83284558D01*
X142834400Y-83270100D01*
X142834400Y-82975100D01*
X142835110Y-82960642D01*
X142837234Y-82946324D01*
X142840751Y-82932283D01*
X142845628Y-82918654D01*
X142851817Y-82905569D01*
X142859258Y-82893153D01*
X142867881Y-82881527D01*
X142877602Y-82870802D01*
X142888327Y-82861081D01*
X142899953Y-82852458D01*
X142912369Y-82845017D01*
X142925454Y-82838828D01*
X142939083Y-82833951D01*
X142953124Y-82830434D01*
X142967442Y-82828310D01*
X142981900Y-82827600D01*
X143326900Y-82827600D01*
X143341358Y-82828310D01*
X143341358Y-82828310D01*
G37*
D11*
G04 #@! TD*
G04 #@! TO.P,C4,2*
G04 #@! TO.N,-BATT*
X143154400Y-83122600D03*
D10*
G04 #@! TO.N,+BATT*
G04 #@! TO.C,C4*
G36*
X143341358Y-81858310D02*
X143355676Y-81860434D01*
X143369717Y-81863951D01*
X143383346Y-81868828D01*
X143396431Y-81875017D01*
X143408847Y-81882458D01*
X143420473Y-81891081D01*
X143431198Y-81900802D01*
X143440919Y-81911527D01*
X143449542Y-81923153D01*
X143456983Y-81935569D01*
X143463172Y-81948654D01*
X143468049Y-81962283D01*
X143471566Y-81976324D01*
X143473690Y-81990642D01*
X143474400Y-82005100D01*
X143474400Y-82300100D01*
X143473690Y-82314558D01*
X143471566Y-82328876D01*
X143468049Y-82342917D01*
X143463172Y-82356546D01*
X143456983Y-82369631D01*
X143449542Y-82382047D01*
X143440919Y-82393673D01*
X143431198Y-82404398D01*
X143420473Y-82414119D01*
X143408847Y-82422742D01*
X143396431Y-82430183D01*
X143383346Y-82436372D01*
X143369717Y-82441249D01*
X143355676Y-82444766D01*
X143341358Y-82446890D01*
X143326900Y-82447600D01*
X142981900Y-82447600D01*
X142967442Y-82446890D01*
X142953124Y-82444766D01*
X142939083Y-82441249D01*
X142925454Y-82436372D01*
X142912369Y-82430183D01*
X142899953Y-82422742D01*
X142888327Y-82414119D01*
X142877602Y-82404398D01*
X142867881Y-82393673D01*
X142859258Y-82382047D01*
X142851817Y-82369631D01*
X142845628Y-82356546D01*
X142840751Y-82342917D01*
X142837234Y-82328876D01*
X142835110Y-82314558D01*
X142834400Y-82300100D01*
X142834400Y-82005100D01*
X142835110Y-81990642D01*
X142837234Y-81976324D01*
X142840751Y-81962283D01*
X142845628Y-81948654D01*
X142851817Y-81935569D01*
X142859258Y-81923153D01*
X142867881Y-81911527D01*
X142877602Y-81900802D01*
X142888327Y-81891081D01*
X142899953Y-81882458D01*
X142912369Y-81875017D01*
X142925454Y-81868828D01*
X142939083Y-81863951D01*
X142953124Y-81860434D01*
X142967442Y-81858310D01*
X142981900Y-81857600D01*
X143326900Y-81857600D01*
X143341358Y-81858310D01*
X143341358Y-81858310D01*
G37*
D11*
G04 #@! TD*
G04 #@! TO.P,C4,1*
G04 #@! TO.N,+BATT*
X143154400Y-82152600D03*
D10*
G04 #@! TO.N,VREG*
G04 #@! TO.C,C5*
G36*
X147359758Y-88250510D02*
X147374076Y-88252634D01*
X147388117Y-88256151D01*
X147401746Y-88261028D01*
X147414831Y-88267217D01*
X147427247Y-88274658D01*
X147438873Y-88283281D01*
X147449598Y-88293002D01*
X147459319Y-88303727D01*
X147467942Y-88315353D01*
X147475383Y-88327769D01*
X147481572Y-88340854D01*
X147486449Y-88354483D01*
X147489966Y-88368524D01*
X147492090Y-88382842D01*
X147492800Y-88397300D01*
X147492800Y-88742300D01*
X147492090Y-88756758D01*
X147489966Y-88771076D01*
X147486449Y-88785117D01*
X147481572Y-88798746D01*
X147475383Y-88811831D01*
X147467942Y-88824247D01*
X147459319Y-88835873D01*
X147449598Y-88846598D01*
X147438873Y-88856319D01*
X147427247Y-88864942D01*
X147414831Y-88872383D01*
X147401746Y-88878572D01*
X147388117Y-88883449D01*
X147374076Y-88886966D01*
X147359758Y-88889090D01*
X147345300Y-88889800D01*
X147050300Y-88889800D01*
X147035842Y-88889090D01*
X147021524Y-88886966D01*
X147007483Y-88883449D01*
X146993854Y-88878572D01*
X146980769Y-88872383D01*
X146968353Y-88864942D01*
X146956727Y-88856319D01*
X146946002Y-88846598D01*
X146936281Y-88835873D01*
X146927658Y-88824247D01*
X146920217Y-88811831D01*
X146914028Y-88798746D01*
X146909151Y-88785117D01*
X146905634Y-88771076D01*
X146903510Y-88756758D01*
X146902800Y-88742300D01*
X146902800Y-88397300D01*
X146903510Y-88382842D01*
X146905634Y-88368524D01*
X146909151Y-88354483D01*
X146914028Y-88340854D01*
X146920217Y-88327769D01*
X146927658Y-88315353D01*
X146936281Y-88303727D01*
X146946002Y-88293002D01*
X146956727Y-88283281D01*
X146968353Y-88274658D01*
X146980769Y-88267217D01*
X146993854Y-88261028D01*
X147007483Y-88256151D01*
X147021524Y-88252634D01*
X147035842Y-88250510D01*
X147050300Y-88249800D01*
X147345300Y-88249800D01*
X147359758Y-88250510D01*
X147359758Y-88250510D01*
G37*
D11*
G04 #@! TD*
G04 #@! TO.P,C5,1*
G04 #@! TO.N,VREG*
X147197800Y-88569800D03*
D10*
G04 #@! TO.N,-BATT*
G04 #@! TO.C,C5*
G36*
X146389758Y-88250510D02*
X146404076Y-88252634D01*
X146418117Y-88256151D01*
X146431746Y-88261028D01*
X146444831Y-88267217D01*
X146457247Y-88274658D01*
X146468873Y-88283281D01*
X146479598Y-88293002D01*
X146489319Y-88303727D01*
X146497942Y-88315353D01*
X146505383Y-88327769D01*
X146511572Y-88340854D01*
X146516449Y-88354483D01*
X146519966Y-88368524D01*
X146522090Y-88382842D01*
X146522800Y-88397300D01*
X146522800Y-88742300D01*
X146522090Y-88756758D01*
X146519966Y-88771076D01*
X146516449Y-88785117D01*
X146511572Y-88798746D01*
X146505383Y-88811831D01*
X146497942Y-88824247D01*
X146489319Y-88835873D01*
X146479598Y-88846598D01*
X146468873Y-88856319D01*
X146457247Y-88864942D01*
X146444831Y-88872383D01*
X146431746Y-88878572D01*
X146418117Y-88883449D01*
X146404076Y-88886966D01*
X146389758Y-88889090D01*
X146375300Y-88889800D01*
X146080300Y-88889800D01*
X146065842Y-88889090D01*
X146051524Y-88886966D01*
X146037483Y-88883449D01*
X146023854Y-88878572D01*
X146010769Y-88872383D01*
X145998353Y-88864942D01*
X145986727Y-88856319D01*
X145976002Y-88846598D01*
X145966281Y-88835873D01*
X145957658Y-88824247D01*
X145950217Y-88811831D01*
X145944028Y-88798746D01*
X145939151Y-88785117D01*
X145935634Y-88771076D01*
X145933510Y-88756758D01*
X145932800Y-88742300D01*
X145932800Y-88397300D01*
X145933510Y-88382842D01*
X145935634Y-88368524D01*
X145939151Y-88354483D01*
X145944028Y-88340854D01*
X145950217Y-88327769D01*
X145957658Y-88315353D01*
X145966281Y-88303727D01*
X145976002Y-88293002D01*
X145986727Y-88283281D01*
X145998353Y-88274658D01*
X146010769Y-88267217D01*
X146023854Y-88261028D01*
X146037483Y-88256151D01*
X146051524Y-88252634D01*
X146065842Y-88250510D01*
X146080300Y-88249800D01*
X146375300Y-88249800D01*
X146389758Y-88250510D01*
X146389758Y-88250510D01*
G37*
D11*
G04 #@! TD*
G04 #@! TO.P,C5,2*
G04 #@! TO.N,-BATT*
X146227800Y-88569800D03*
D10*
G04 #@! TO.N,-BATT*
G04 #@! TO.C,C6*
G36*
X145376158Y-95057710D02*
X145390476Y-95059834D01*
X145404517Y-95063351D01*
X145418146Y-95068228D01*
X145431231Y-95074417D01*
X145443647Y-95081858D01*
X145455273Y-95090481D01*
X145465998Y-95100202D01*
X145475719Y-95110927D01*
X145484342Y-95122553D01*
X145491783Y-95134969D01*
X145497972Y-95148054D01*
X145502849Y-95161683D01*
X145506366Y-95175724D01*
X145508490Y-95190042D01*
X145509200Y-95204500D01*
X145509200Y-95549500D01*
X145508490Y-95563958D01*
X145506366Y-95578276D01*
X145502849Y-95592317D01*
X145497972Y-95605946D01*
X145491783Y-95619031D01*
X145484342Y-95631447D01*
X145475719Y-95643073D01*
X145465998Y-95653798D01*
X145455273Y-95663519D01*
X145443647Y-95672142D01*
X145431231Y-95679583D01*
X145418146Y-95685772D01*
X145404517Y-95690649D01*
X145390476Y-95694166D01*
X145376158Y-95696290D01*
X145361700Y-95697000D01*
X145066700Y-95697000D01*
X145052242Y-95696290D01*
X145037924Y-95694166D01*
X145023883Y-95690649D01*
X145010254Y-95685772D01*
X144997169Y-95679583D01*
X144984753Y-95672142D01*
X144973127Y-95663519D01*
X144962402Y-95653798D01*
X144952681Y-95643073D01*
X144944058Y-95631447D01*
X144936617Y-95619031D01*
X144930428Y-95605946D01*
X144925551Y-95592317D01*
X144922034Y-95578276D01*
X144919910Y-95563958D01*
X144919200Y-95549500D01*
X144919200Y-95204500D01*
X144919910Y-95190042D01*
X144922034Y-95175724D01*
X144925551Y-95161683D01*
X144930428Y-95148054D01*
X144936617Y-95134969D01*
X144944058Y-95122553D01*
X144952681Y-95110927D01*
X144962402Y-95100202D01*
X144973127Y-95090481D01*
X144984753Y-95081858D01*
X144997169Y-95074417D01*
X145010254Y-95068228D01*
X145023883Y-95063351D01*
X145037924Y-95059834D01*
X145052242Y-95057710D01*
X145066700Y-95057000D01*
X145361700Y-95057000D01*
X145376158Y-95057710D01*
X145376158Y-95057710D01*
G37*
D11*
G04 #@! TD*
G04 #@! TO.P,C6,2*
G04 #@! TO.N,-BATT*
X145214200Y-95377000D03*
D10*
G04 #@! TO.N,Net-(C6-Pad1)*
G04 #@! TO.C,C6*
G36*
X144406158Y-95057710D02*
X144420476Y-95059834D01*
X144434517Y-95063351D01*
X144448146Y-95068228D01*
X144461231Y-95074417D01*
X144473647Y-95081858D01*
X144485273Y-95090481D01*
X144495998Y-95100202D01*
X144505719Y-95110927D01*
X144514342Y-95122553D01*
X144521783Y-95134969D01*
X144527972Y-95148054D01*
X144532849Y-95161683D01*
X144536366Y-95175724D01*
X144538490Y-95190042D01*
X144539200Y-95204500D01*
X144539200Y-95549500D01*
X144538490Y-95563958D01*
X144536366Y-95578276D01*
X144532849Y-95592317D01*
X144527972Y-95605946D01*
X144521783Y-95619031D01*
X144514342Y-95631447D01*
X144505719Y-95643073D01*
X144495998Y-95653798D01*
X144485273Y-95663519D01*
X144473647Y-95672142D01*
X144461231Y-95679583D01*
X144448146Y-95685772D01*
X144434517Y-95690649D01*
X144420476Y-95694166D01*
X144406158Y-95696290D01*
X144391700Y-95697000D01*
X144096700Y-95697000D01*
X144082242Y-95696290D01*
X144067924Y-95694166D01*
X144053883Y-95690649D01*
X144040254Y-95685772D01*
X144027169Y-95679583D01*
X144014753Y-95672142D01*
X144003127Y-95663519D01*
X143992402Y-95653798D01*
X143982681Y-95643073D01*
X143974058Y-95631447D01*
X143966617Y-95619031D01*
X143960428Y-95605946D01*
X143955551Y-95592317D01*
X143952034Y-95578276D01*
X143949910Y-95563958D01*
X143949200Y-95549500D01*
X143949200Y-95204500D01*
X143949910Y-95190042D01*
X143952034Y-95175724D01*
X143955551Y-95161683D01*
X143960428Y-95148054D01*
X143966617Y-95134969D01*
X143974058Y-95122553D01*
X143982681Y-95110927D01*
X143992402Y-95100202D01*
X144003127Y-95090481D01*
X144014753Y-95081858D01*
X144027169Y-95074417D01*
X144040254Y-95068228D01*
X144053883Y-95063351D01*
X144067924Y-95059834D01*
X144082242Y-95057710D01*
X144096700Y-95057000D01*
X144391700Y-95057000D01*
X144406158Y-95057710D01*
X144406158Y-95057710D01*
G37*
D11*
G04 #@! TD*
G04 #@! TO.P,C6,1*
G04 #@! TO.N,Net-(C6-Pad1)*
X144244200Y-95377000D03*
D10*
G04 #@! TO.N,X0*
G04 #@! TO.C,C7*
G36*
X147357358Y-90480710D02*
X147371676Y-90482834D01*
X147385717Y-90486351D01*
X147399346Y-90491228D01*
X147412431Y-90497417D01*
X147424847Y-90504858D01*
X147436473Y-90513481D01*
X147447198Y-90523202D01*
X147456919Y-90533927D01*
X147465542Y-90545553D01*
X147472983Y-90557969D01*
X147479172Y-90571054D01*
X147484049Y-90584683D01*
X147487566Y-90598724D01*
X147489690Y-90613042D01*
X147490400Y-90627500D01*
X147490400Y-90972500D01*
X147489690Y-90986958D01*
X147487566Y-91001276D01*
X147484049Y-91015317D01*
X147479172Y-91028946D01*
X147472983Y-91042031D01*
X147465542Y-91054447D01*
X147456919Y-91066073D01*
X147447198Y-91076798D01*
X147436473Y-91086519D01*
X147424847Y-91095142D01*
X147412431Y-91102583D01*
X147399346Y-91108772D01*
X147385717Y-91113649D01*
X147371676Y-91117166D01*
X147357358Y-91119290D01*
X147342900Y-91120000D01*
X147047900Y-91120000D01*
X147033442Y-91119290D01*
X147019124Y-91117166D01*
X147005083Y-91113649D01*
X146991454Y-91108772D01*
X146978369Y-91102583D01*
X146965953Y-91095142D01*
X146954327Y-91086519D01*
X146943602Y-91076798D01*
X146933881Y-91066073D01*
X146925258Y-91054447D01*
X146917817Y-91042031D01*
X146911628Y-91028946D01*
X146906751Y-91015317D01*
X146903234Y-91001276D01*
X146901110Y-90986958D01*
X146900400Y-90972500D01*
X146900400Y-90627500D01*
X146901110Y-90613042D01*
X146903234Y-90598724D01*
X146906751Y-90584683D01*
X146911628Y-90571054D01*
X146917817Y-90557969D01*
X146925258Y-90545553D01*
X146933881Y-90533927D01*
X146943602Y-90523202D01*
X146954327Y-90513481D01*
X146965953Y-90504858D01*
X146978369Y-90497417D01*
X146991454Y-90491228D01*
X147005083Y-90486351D01*
X147019124Y-90482834D01*
X147033442Y-90480710D01*
X147047900Y-90480000D01*
X147342900Y-90480000D01*
X147357358Y-90480710D01*
X147357358Y-90480710D01*
G37*
D11*
G04 #@! TD*
G04 #@! TO.P,C7,1*
G04 #@! TO.N,X0*
X147195400Y-90800000D03*
D10*
G04 #@! TO.N,-BATT*
G04 #@! TO.C,C7*
G36*
X146387358Y-90480710D02*
X146401676Y-90482834D01*
X146415717Y-90486351D01*
X146429346Y-90491228D01*
X146442431Y-90497417D01*
X146454847Y-90504858D01*
X146466473Y-90513481D01*
X146477198Y-90523202D01*
X146486919Y-90533927D01*
X146495542Y-90545553D01*
X146502983Y-90557969D01*
X146509172Y-90571054D01*
X146514049Y-90584683D01*
X146517566Y-90598724D01*
X146519690Y-90613042D01*
X146520400Y-90627500D01*
X146520400Y-90972500D01*
X146519690Y-90986958D01*
X146517566Y-91001276D01*
X146514049Y-91015317D01*
X146509172Y-91028946D01*
X146502983Y-91042031D01*
X146495542Y-91054447D01*
X146486919Y-91066073D01*
X146477198Y-91076798D01*
X146466473Y-91086519D01*
X146454847Y-91095142D01*
X146442431Y-91102583D01*
X146429346Y-91108772D01*
X146415717Y-91113649D01*
X146401676Y-91117166D01*
X146387358Y-91119290D01*
X146372900Y-91120000D01*
X146077900Y-91120000D01*
X146063442Y-91119290D01*
X146049124Y-91117166D01*
X146035083Y-91113649D01*
X146021454Y-91108772D01*
X146008369Y-91102583D01*
X145995953Y-91095142D01*
X145984327Y-91086519D01*
X145973602Y-91076798D01*
X145963881Y-91066073D01*
X145955258Y-91054447D01*
X145947817Y-91042031D01*
X145941628Y-91028946D01*
X145936751Y-91015317D01*
X145933234Y-91001276D01*
X145931110Y-90986958D01*
X145930400Y-90972500D01*
X145930400Y-90627500D01*
X145931110Y-90613042D01*
X145933234Y-90598724D01*
X145936751Y-90584683D01*
X145941628Y-90571054D01*
X145947817Y-90557969D01*
X145955258Y-90545553D01*
X145963881Y-90533927D01*
X145973602Y-90523202D01*
X145984327Y-90513481D01*
X145995953Y-90504858D01*
X146008369Y-90497417D01*
X146021454Y-90491228D01*
X146035083Y-90486351D01*
X146049124Y-90482834D01*
X146063442Y-90480710D01*
X146077900Y-90480000D01*
X146372900Y-90480000D01*
X146387358Y-90480710D01*
X146387358Y-90480710D01*
G37*
D11*
G04 #@! TD*
G04 #@! TO.P,C7,2*
G04 #@! TO.N,-BATT*
X146225400Y-90800000D03*
D10*
G04 #@! TO.N,-BATT*
G04 #@! TO.C,C8*
G36*
X152693758Y-75829910D02*
X152708076Y-75832034D01*
X152722117Y-75835551D01*
X152735746Y-75840428D01*
X152748831Y-75846617D01*
X152761247Y-75854058D01*
X152772873Y-75862681D01*
X152783598Y-75872402D01*
X152793319Y-75883127D01*
X152801942Y-75894753D01*
X152809383Y-75907169D01*
X152815572Y-75920254D01*
X152820449Y-75933883D01*
X152823966Y-75947924D01*
X152826090Y-75962242D01*
X152826800Y-75976700D01*
X152826800Y-76321700D01*
X152826090Y-76336158D01*
X152823966Y-76350476D01*
X152820449Y-76364517D01*
X152815572Y-76378146D01*
X152809383Y-76391231D01*
X152801942Y-76403647D01*
X152793319Y-76415273D01*
X152783598Y-76425998D01*
X152772873Y-76435719D01*
X152761247Y-76444342D01*
X152748831Y-76451783D01*
X152735746Y-76457972D01*
X152722117Y-76462849D01*
X152708076Y-76466366D01*
X152693758Y-76468490D01*
X152679300Y-76469200D01*
X152384300Y-76469200D01*
X152369842Y-76468490D01*
X152355524Y-76466366D01*
X152341483Y-76462849D01*
X152327854Y-76457972D01*
X152314769Y-76451783D01*
X152302353Y-76444342D01*
X152290727Y-76435719D01*
X152280002Y-76425998D01*
X152270281Y-76415273D01*
X152261658Y-76403647D01*
X152254217Y-76391231D01*
X152248028Y-76378146D01*
X152243151Y-76364517D01*
X152239634Y-76350476D01*
X152237510Y-76336158D01*
X152236800Y-76321700D01*
X152236800Y-75976700D01*
X152237510Y-75962242D01*
X152239634Y-75947924D01*
X152243151Y-75933883D01*
X152248028Y-75920254D01*
X152254217Y-75907169D01*
X152261658Y-75894753D01*
X152270281Y-75883127D01*
X152280002Y-75872402D01*
X152290727Y-75862681D01*
X152302353Y-75854058D01*
X152314769Y-75846617D01*
X152327854Y-75840428D01*
X152341483Y-75835551D01*
X152355524Y-75832034D01*
X152369842Y-75829910D01*
X152384300Y-75829200D01*
X152679300Y-75829200D01*
X152693758Y-75829910D01*
X152693758Y-75829910D01*
G37*
D11*
G04 #@! TD*
G04 #@! TO.P,C8,2*
G04 #@! TO.N,-BATT*
X152531800Y-76149200D03*
D10*
G04 #@! TO.N,Net-(C8-Pad1)*
G04 #@! TO.C,C8*
G36*
X151723758Y-75829910D02*
X151738076Y-75832034D01*
X151752117Y-75835551D01*
X151765746Y-75840428D01*
X151778831Y-75846617D01*
X151791247Y-75854058D01*
X151802873Y-75862681D01*
X151813598Y-75872402D01*
X151823319Y-75883127D01*
X151831942Y-75894753D01*
X151839383Y-75907169D01*
X151845572Y-75920254D01*
X151850449Y-75933883D01*
X151853966Y-75947924D01*
X151856090Y-75962242D01*
X151856800Y-75976700D01*
X151856800Y-76321700D01*
X151856090Y-76336158D01*
X151853966Y-76350476D01*
X151850449Y-76364517D01*
X151845572Y-76378146D01*
X151839383Y-76391231D01*
X151831942Y-76403647D01*
X151823319Y-76415273D01*
X151813598Y-76425998D01*
X151802873Y-76435719D01*
X151791247Y-76444342D01*
X151778831Y-76451783D01*
X151765746Y-76457972D01*
X151752117Y-76462849D01*
X151738076Y-76466366D01*
X151723758Y-76468490D01*
X151709300Y-76469200D01*
X151414300Y-76469200D01*
X151399842Y-76468490D01*
X151385524Y-76466366D01*
X151371483Y-76462849D01*
X151357854Y-76457972D01*
X151344769Y-76451783D01*
X151332353Y-76444342D01*
X151320727Y-76435719D01*
X151310002Y-76425998D01*
X151300281Y-76415273D01*
X151291658Y-76403647D01*
X151284217Y-76391231D01*
X151278028Y-76378146D01*
X151273151Y-76364517D01*
X151269634Y-76350476D01*
X151267510Y-76336158D01*
X151266800Y-76321700D01*
X151266800Y-75976700D01*
X151267510Y-75962242D01*
X151269634Y-75947924D01*
X151273151Y-75933883D01*
X151278028Y-75920254D01*
X151284217Y-75907169D01*
X151291658Y-75894753D01*
X151300281Y-75883127D01*
X151310002Y-75872402D01*
X151320727Y-75862681D01*
X151332353Y-75854058D01*
X151344769Y-75846617D01*
X151357854Y-75840428D01*
X151371483Y-75835551D01*
X151385524Y-75832034D01*
X151399842Y-75829910D01*
X151414300Y-75829200D01*
X151709300Y-75829200D01*
X151723758Y-75829910D01*
X151723758Y-75829910D01*
G37*
D11*
G04 #@! TD*
G04 #@! TO.P,C8,1*
G04 #@! TO.N,Net-(C8-Pad1)*
X151561800Y-76149200D03*
D10*
G04 #@! TO.N,Net-(C9-Pad1)*
G04 #@! TO.C,C9*
G36*
X153780758Y-73795110D02*
X153795076Y-73797234D01*
X153809117Y-73800751D01*
X153822746Y-73805628D01*
X153835831Y-73811817D01*
X153848247Y-73819258D01*
X153859873Y-73827881D01*
X153870598Y-73837602D01*
X153880319Y-73848327D01*
X153888942Y-73859953D01*
X153896383Y-73872369D01*
X153902572Y-73885454D01*
X153907449Y-73899083D01*
X153910966Y-73913124D01*
X153913090Y-73927442D01*
X153913800Y-73941900D01*
X153913800Y-74236900D01*
X153913090Y-74251358D01*
X153910966Y-74265676D01*
X153907449Y-74279717D01*
X153902572Y-74293346D01*
X153896383Y-74306431D01*
X153888942Y-74318847D01*
X153880319Y-74330473D01*
X153870598Y-74341198D01*
X153859873Y-74350919D01*
X153848247Y-74359542D01*
X153835831Y-74366983D01*
X153822746Y-74373172D01*
X153809117Y-74378049D01*
X153795076Y-74381566D01*
X153780758Y-74383690D01*
X153766300Y-74384400D01*
X153421300Y-74384400D01*
X153406842Y-74383690D01*
X153392524Y-74381566D01*
X153378483Y-74378049D01*
X153364854Y-74373172D01*
X153351769Y-74366983D01*
X153339353Y-74359542D01*
X153327727Y-74350919D01*
X153317002Y-74341198D01*
X153307281Y-74330473D01*
X153298658Y-74318847D01*
X153291217Y-74306431D01*
X153285028Y-74293346D01*
X153280151Y-74279717D01*
X153276634Y-74265676D01*
X153274510Y-74251358D01*
X153273800Y-74236900D01*
X153273800Y-73941900D01*
X153274510Y-73927442D01*
X153276634Y-73913124D01*
X153280151Y-73899083D01*
X153285028Y-73885454D01*
X153291217Y-73872369D01*
X153298658Y-73859953D01*
X153307281Y-73848327D01*
X153317002Y-73837602D01*
X153327727Y-73827881D01*
X153339353Y-73819258D01*
X153351769Y-73811817D01*
X153364854Y-73805628D01*
X153378483Y-73800751D01*
X153392524Y-73797234D01*
X153406842Y-73795110D01*
X153421300Y-73794400D01*
X153766300Y-73794400D01*
X153780758Y-73795110D01*
X153780758Y-73795110D01*
G37*
D11*
G04 #@! TD*
G04 #@! TO.P,C9,1*
G04 #@! TO.N,Net-(C9-Pad1)*
X153593800Y-74089400D03*
D10*
G04 #@! TO.N,-BATT*
G04 #@! TO.C,C9*
G36*
X153780758Y-74765110D02*
X153795076Y-74767234D01*
X153809117Y-74770751D01*
X153822746Y-74775628D01*
X153835831Y-74781817D01*
X153848247Y-74789258D01*
X153859873Y-74797881D01*
X153870598Y-74807602D01*
X153880319Y-74818327D01*
X153888942Y-74829953D01*
X153896383Y-74842369D01*
X153902572Y-74855454D01*
X153907449Y-74869083D01*
X153910966Y-74883124D01*
X153913090Y-74897442D01*
X153913800Y-74911900D01*
X153913800Y-75206900D01*
X153913090Y-75221358D01*
X153910966Y-75235676D01*
X153907449Y-75249717D01*
X153902572Y-75263346D01*
X153896383Y-75276431D01*
X153888942Y-75288847D01*
X153880319Y-75300473D01*
X153870598Y-75311198D01*
X153859873Y-75320919D01*
X153848247Y-75329542D01*
X153835831Y-75336983D01*
X153822746Y-75343172D01*
X153809117Y-75348049D01*
X153795076Y-75351566D01*
X153780758Y-75353690D01*
X153766300Y-75354400D01*
X153421300Y-75354400D01*
X153406842Y-75353690D01*
X153392524Y-75351566D01*
X153378483Y-75348049D01*
X153364854Y-75343172D01*
X153351769Y-75336983D01*
X153339353Y-75329542D01*
X153327727Y-75320919D01*
X153317002Y-75311198D01*
X153307281Y-75300473D01*
X153298658Y-75288847D01*
X153291217Y-75276431D01*
X153285028Y-75263346D01*
X153280151Y-75249717D01*
X153276634Y-75235676D01*
X153274510Y-75221358D01*
X153273800Y-75206900D01*
X153273800Y-74911900D01*
X153274510Y-74897442D01*
X153276634Y-74883124D01*
X153280151Y-74869083D01*
X153285028Y-74855454D01*
X153291217Y-74842369D01*
X153298658Y-74829953D01*
X153307281Y-74818327D01*
X153317002Y-74807602D01*
X153327727Y-74797881D01*
X153339353Y-74789258D01*
X153351769Y-74781817D01*
X153364854Y-74775628D01*
X153378483Y-74770751D01*
X153392524Y-74767234D01*
X153406842Y-74765110D01*
X153421300Y-74764400D01*
X153766300Y-74764400D01*
X153780758Y-74765110D01*
X153780758Y-74765110D01*
G37*
D11*
G04 #@! TD*
G04 #@! TO.P,C9,2*
G04 #@! TO.N,-BATT*
X153593800Y-75059400D03*
D10*
G04 #@! TO.N,Net-(C10-Pad2)*
G04 #@! TO.C,C10*
G36*
X153656558Y-92873310D02*
X153670876Y-92875434D01*
X153684917Y-92878951D01*
X153698546Y-92883828D01*
X153711631Y-92890017D01*
X153724047Y-92897458D01*
X153735673Y-92906081D01*
X153746398Y-92915802D01*
X153756119Y-92926527D01*
X153764742Y-92938153D01*
X153772183Y-92950569D01*
X153778372Y-92963654D01*
X153783249Y-92977283D01*
X153786766Y-92991324D01*
X153788890Y-93005642D01*
X153789600Y-93020100D01*
X153789600Y-93365100D01*
X153788890Y-93379558D01*
X153786766Y-93393876D01*
X153783249Y-93407917D01*
X153778372Y-93421546D01*
X153772183Y-93434631D01*
X153764742Y-93447047D01*
X153756119Y-93458673D01*
X153746398Y-93469398D01*
X153735673Y-93479119D01*
X153724047Y-93487742D01*
X153711631Y-93495183D01*
X153698546Y-93501372D01*
X153684917Y-93506249D01*
X153670876Y-93509766D01*
X153656558Y-93511890D01*
X153642100Y-93512600D01*
X153347100Y-93512600D01*
X153332642Y-93511890D01*
X153318324Y-93509766D01*
X153304283Y-93506249D01*
X153290654Y-93501372D01*
X153277569Y-93495183D01*
X153265153Y-93487742D01*
X153253527Y-93479119D01*
X153242802Y-93469398D01*
X153233081Y-93458673D01*
X153224458Y-93447047D01*
X153217017Y-93434631D01*
X153210828Y-93421546D01*
X153205951Y-93407917D01*
X153202434Y-93393876D01*
X153200310Y-93379558D01*
X153199600Y-93365100D01*
X153199600Y-93020100D01*
X153200310Y-93005642D01*
X153202434Y-92991324D01*
X153205951Y-92977283D01*
X153210828Y-92963654D01*
X153217017Y-92950569D01*
X153224458Y-92938153D01*
X153233081Y-92926527D01*
X153242802Y-92915802D01*
X153253527Y-92906081D01*
X153265153Y-92897458D01*
X153277569Y-92890017D01*
X153290654Y-92883828D01*
X153304283Y-92878951D01*
X153318324Y-92875434D01*
X153332642Y-92873310D01*
X153347100Y-92872600D01*
X153642100Y-92872600D01*
X153656558Y-92873310D01*
X153656558Y-92873310D01*
G37*
D11*
G04 #@! TD*
G04 #@! TO.P,C10,2*
G04 #@! TO.N,Net-(C10-Pad2)*
X153494600Y-93192600D03*
D10*
G04 #@! TO.N,Net-(C10-Pad1)*
G04 #@! TO.C,C10*
G36*
X152686558Y-92873310D02*
X152700876Y-92875434D01*
X152714917Y-92878951D01*
X152728546Y-92883828D01*
X152741631Y-92890017D01*
X152754047Y-92897458D01*
X152765673Y-92906081D01*
X152776398Y-92915802D01*
X152786119Y-92926527D01*
X152794742Y-92938153D01*
X152802183Y-92950569D01*
X152808372Y-92963654D01*
X152813249Y-92977283D01*
X152816766Y-92991324D01*
X152818890Y-93005642D01*
X152819600Y-93020100D01*
X152819600Y-93365100D01*
X152818890Y-93379558D01*
X152816766Y-93393876D01*
X152813249Y-93407917D01*
X152808372Y-93421546D01*
X152802183Y-93434631D01*
X152794742Y-93447047D01*
X152786119Y-93458673D01*
X152776398Y-93469398D01*
X152765673Y-93479119D01*
X152754047Y-93487742D01*
X152741631Y-93495183D01*
X152728546Y-93501372D01*
X152714917Y-93506249D01*
X152700876Y-93509766D01*
X152686558Y-93511890D01*
X152672100Y-93512600D01*
X152377100Y-93512600D01*
X152362642Y-93511890D01*
X152348324Y-93509766D01*
X152334283Y-93506249D01*
X152320654Y-93501372D01*
X152307569Y-93495183D01*
X152295153Y-93487742D01*
X152283527Y-93479119D01*
X152272802Y-93469398D01*
X152263081Y-93458673D01*
X152254458Y-93447047D01*
X152247017Y-93434631D01*
X152240828Y-93421546D01*
X152235951Y-93407917D01*
X152232434Y-93393876D01*
X152230310Y-93379558D01*
X152229600Y-93365100D01*
X152229600Y-93020100D01*
X152230310Y-93005642D01*
X152232434Y-92991324D01*
X152235951Y-92977283D01*
X152240828Y-92963654D01*
X152247017Y-92950569D01*
X152254458Y-92938153D01*
X152263081Y-92926527D01*
X152272802Y-92915802D01*
X152283527Y-92906081D01*
X152295153Y-92897458D01*
X152307569Y-92890017D01*
X152320654Y-92883828D01*
X152334283Y-92878951D01*
X152348324Y-92875434D01*
X152362642Y-92873310D01*
X152377100Y-92872600D01*
X152672100Y-92872600D01*
X152686558Y-92873310D01*
X152686558Y-92873310D01*
G37*
D11*
G04 #@! TD*
G04 #@! TO.P,C10,1*
G04 #@! TO.N,Net-(C10-Pad1)*
X152524600Y-93192600D03*
D10*
G04 #@! TO.N,Net-(C11-Pad1)*
G04 #@! TO.C,C11*
G36*
X149663958Y-73747110D02*
X149678276Y-73749234D01*
X149692317Y-73752751D01*
X149705946Y-73757628D01*
X149719031Y-73763817D01*
X149731447Y-73771258D01*
X149743073Y-73779881D01*
X149753798Y-73789602D01*
X149763519Y-73800327D01*
X149772142Y-73811953D01*
X149779583Y-73824369D01*
X149785772Y-73837454D01*
X149790649Y-73851083D01*
X149794166Y-73865124D01*
X149796290Y-73879442D01*
X149797000Y-73893900D01*
X149797000Y-74238900D01*
X149796290Y-74253358D01*
X149794166Y-74267676D01*
X149790649Y-74281717D01*
X149785772Y-74295346D01*
X149779583Y-74308431D01*
X149772142Y-74320847D01*
X149763519Y-74332473D01*
X149753798Y-74343198D01*
X149743073Y-74352919D01*
X149731447Y-74361542D01*
X149719031Y-74368983D01*
X149705946Y-74375172D01*
X149692317Y-74380049D01*
X149678276Y-74383566D01*
X149663958Y-74385690D01*
X149649500Y-74386400D01*
X149354500Y-74386400D01*
X149340042Y-74385690D01*
X149325724Y-74383566D01*
X149311683Y-74380049D01*
X149298054Y-74375172D01*
X149284969Y-74368983D01*
X149272553Y-74361542D01*
X149260927Y-74352919D01*
X149250202Y-74343198D01*
X149240481Y-74332473D01*
X149231858Y-74320847D01*
X149224417Y-74308431D01*
X149218228Y-74295346D01*
X149213351Y-74281717D01*
X149209834Y-74267676D01*
X149207710Y-74253358D01*
X149207000Y-74238900D01*
X149207000Y-73893900D01*
X149207710Y-73879442D01*
X149209834Y-73865124D01*
X149213351Y-73851083D01*
X149218228Y-73837454D01*
X149224417Y-73824369D01*
X149231858Y-73811953D01*
X149240481Y-73800327D01*
X149250202Y-73789602D01*
X149260927Y-73779881D01*
X149272553Y-73771258D01*
X149284969Y-73763817D01*
X149298054Y-73757628D01*
X149311683Y-73752751D01*
X149325724Y-73749234D01*
X149340042Y-73747110D01*
X149354500Y-73746400D01*
X149649500Y-73746400D01*
X149663958Y-73747110D01*
X149663958Y-73747110D01*
G37*
D11*
G04 #@! TD*
G04 #@! TO.P,C11,1*
G04 #@! TO.N,Net-(C11-Pad1)*
X149502000Y-74066400D03*
D10*
G04 #@! TO.N,Net-(C11-Pad2)*
G04 #@! TO.C,C11*
G36*
X150633958Y-73747110D02*
X150648276Y-73749234D01*
X150662317Y-73752751D01*
X150675946Y-73757628D01*
X150689031Y-73763817D01*
X150701447Y-73771258D01*
X150713073Y-73779881D01*
X150723798Y-73789602D01*
X150733519Y-73800327D01*
X150742142Y-73811953D01*
X150749583Y-73824369D01*
X150755772Y-73837454D01*
X150760649Y-73851083D01*
X150764166Y-73865124D01*
X150766290Y-73879442D01*
X150767000Y-73893900D01*
X150767000Y-74238900D01*
X150766290Y-74253358D01*
X150764166Y-74267676D01*
X150760649Y-74281717D01*
X150755772Y-74295346D01*
X150749583Y-74308431D01*
X150742142Y-74320847D01*
X150733519Y-74332473D01*
X150723798Y-74343198D01*
X150713073Y-74352919D01*
X150701447Y-74361542D01*
X150689031Y-74368983D01*
X150675946Y-74375172D01*
X150662317Y-74380049D01*
X150648276Y-74383566D01*
X150633958Y-74385690D01*
X150619500Y-74386400D01*
X150324500Y-74386400D01*
X150310042Y-74385690D01*
X150295724Y-74383566D01*
X150281683Y-74380049D01*
X150268054Y-74375172D01*
X150254969Y-74368983D01*
X150242553Y-74361542D01*
X150230927Y-74352919D01*
X150220202Y-74343198D01*
X150210481Y-74332473D01*
X150201858Y-74320847D01*
X150194417Y-74308431D01*
X150188228Y-74295346D01*
X150183351Y-74281717D01*
X150179834Y-74267676D01*
X150177710Y-74253358D01*
X150177000Y-74238900D01*
X150177000Y-73893900D01*
X150177710Y-73879442D01*
X150179834Y-73865124D01*
X150183351Y-73851083D01*
X150188228Y-73837454D01*
X150194417Y-73824369D01*
X150201858Y-73811953D01*
X150210481Y-73800327D01*
X150220202Y-73789602D01*
X150230927Y-73779881D01*
X150242553Y-73771258D01*
X150254969Y-73763817D01*
X150268054Y-73757628D01*
X150281683Y-73752751D01*
X150295724Y-73749234D01*
X150310042Y-73747110D01*
X150324500Y-73746400D01*
X150619500Y-73746400D01*
X150633958Y-73747110D01*
X150633958Y-73747110D01*
G37*
D11*
G04 #@! TD*
G04 #@! TO.P,C11,2*
G04 #@! TO.N,Net-(C11-Pad2)*
X150472000Y-74066400D03*
D12*
G04 #@! TO.P,JP1,1*
G04 #@! TO.N,+BATT*
X141808200Y-95681800D03*
D13*
G04 #@! TO.P,JP1,2*
G04 #@! TO.N,VDD_BAT*
X141808200Y-98221800D03*
G04 #@! TD*
D10*
G04 #@! TO.N,Net-(C6-Pad1)*
G04 #@! TO.C,L1*
G36*
X144458958Y-94043710D02*
X144473276Y-94045834D01*
X144487317Y-94049351D01*
X144500946Y-94054228D01*
X144514031Y-94060417D01*
X144526447Y-94067858D01*
X144538073Y-94076481D01*
X144548798Y-94086202D01*
X144558519Y-94096927D01*
X144567142Y-94108553D01*
X144574583Y-94120969D01*
X144580772Y-94134054D01*
X144585649Y-94147683D01*
X144589166Y-94161724D01*
X144591290Y-94176042D01*
X144592000Y-94190500D01*
X144592000Y-94485500D01*
X144591290Y-94499958D01*
X144589166Y-94514276D01*
X144585649Y-94528317D01*
X144580772Y-94541946D01*
X144574583Y-94555031D01*
X144567142Y-94567447D01*
X144558519Y-94579073D01*
X144548798Y-94589798D01*
X144538073Y-94599519D01*
X144526447Y-94608142D01*
X144514031Y-94615583D01*
X144500946Y-94621772D01*
X144487317Y-94626649D01*
X144473276Y-94630166D01*
X144458958Y-94632290D01*
X144444500Y-94633000D01*
X144099500Y-94633000D01*
X144085042Y-94632290D01*
X144070724Y-94630166D01*
X144056683Y-94626649D01*
X144043054Y-94621772D01*
X144029969Y-94615583D01*
X144017553Y-94608142D01*
X144005927Y-94599519D01*
X143995202Y-94589798D01*
X143985481Y-94579073D01*
X143976858Y-94567447D01*
X143969417Y-94555031D01*
X143963228Y-94541946D01*
X143958351Y-94528317D01*
X143954834Y-94514276D01*
X143952710Y-94499958D01*
X143952000Y-94485500D01*
X143952000Y-94190500D01*
X143952710Y-94176042D01*
X143954834Y-94161724D01*
X143958351Y-94147683D01*
X143963228Y-94134054D01*
X143969417Y-94120969D01*
X143976858Y-94108553D01*
X143985481Y-94096927D01*
X143995202Y-94086202D01*
X144005927Y-94076481D01*
X144017553Y-94067858D01*
X144029969Y-94060417D01*
X144043054Y-94054228D01*
X144056683Y-94049351D01*
X144070724Y-94045834D01*
X144085042Y-94043710D01*
X144099500Y-94043000D01*
X144444500Y-94043000D01*
X144458958Y-94043710D01*
X144458958Y-94043710D01*
G37*
D11*
G04 #@! TD*
G04 #@! TO.P,L1,2*
G04 #@! TO.N,Net-(C6-Pad1)*
X144272000Y-94338000D03*
D10*
G04 #@! TO.N,X1*
G04 #@! TO.C,L1*
G36*
X144458958Y-93073710D02*
X144473276Y-93075834D01*
X144487317Y-93079351D01*
X144500946Y-93084228D01*
X144514031Y-93090417D01*
X144526447Y-93097858D01*
X144538073Y-93106481D01*
X144548798Y-93116202D01*
X144558519Y-93126927D01*
X144567142Y-93138553D01*
X144574583Y-93150969D01*
X144580772Y-93164054D01*
X144585649Y-93177683D01*
X144589166Y-93191724D01*
X144591290Y-93206042D01*
X144592000Y-93220500D01*
X144592000Y-93515500D01*
X144591290Y-93529958D01*
X144589166Y-93544276D01*
X144585649Y-93558317D01*
X144580772Y-93571946D01*
X144574583Y-93585031D01*
X144567142Y-93597447D01*
X144558519Y-93609073D01*
X144548798Y-93619798D01*
X144538073Y-93629519D01*
X144526447Y-93638142D01*
X144514031Y-93645583D01*
X144500946Y-93651772D01*
X144487317Y-93656649D01*
X144473276Y-93660166D01*
X144458958Y-93662290D01*
X144444500Y-93663000D01*
X144099500Y-93663000D01*
X144085042Y-93662290D01*
X144070724Y-93660166D01*
X144056683Y-93656649D01*
X144043054Y-93651772D01*
X144029969Y-93645583D01*
X144017553Y-93638142D01*
X144005927Y-93629519D01*
X143995202Y-93619798D01*
X143985481Y-93609073D01*
X143976858Y-93597447D01*
X143969417Y-93585031D01*
X143963228Y-93571946D01*
X143958351Y-93558317D01*
X143954834Y-93544276D01*
X143952710Y-93529958D01*
X143952000Y-93515500D01*
X143952000Y-93220500D01*
X143952710Y-93206042D01*
X143954834Y-93191724D01*
X143958351Y-93177683D01*
X143963228Y-93164054D01*
X143969417Y-93150969D01*
X143976858Y-93138553D01*
X143985481Y-93126927D01*
X143995202Y-93116202D01*
X144005927Y-93106481D01*
X144017553Y-93097858D01*
X144029969Y-93090417D01*
X144043054Y-93084228D01*
X144056683Y-93079351D01*
X144070724Y-93075834D01*
X144085042Y-93073710D01*
X144099500Y-93073000D01*
X144444500Y-93073000D01*
X144458958Y-93073710D01*
X144458958Y-93073710D01*
G37*
D11*
G04 #@! TD*
G04 #@! TO.P,L1,1*
G04 #@! TO.N,X1*
X144272000Y-93368000D03*
D10*
G04 #@! TO.N,Net-(C8-Pad1)*
G04 #@! TO.C,L2*
G36*
X151721358Y-74788510D02*
X151735676Y-74790634D01*
X151749717Y-74794151D01*
X151763346Y-74799028D01*
X151776431Y-74805217D01*
X151788847Y-74812658D01*
X151800473Y-74821281D01*
X151811198Y-74831002D01*
X151820919Y-74841727D01*
X151829542Y-74853353D01*
X151836983Y-74865769D01*
X151843172Y-74878854D01*
X151848049Y-74892483D01*
X151851566Y-74906524D01*
X151853690Y-74920842D01*
X151854400Y-74935300D01*
X151854400Y-75280300D01*
X151853690Y-75294758D01*
X151851566Y-75309076D01*
X151848049Y-75323117D01*
X151843172Y-75336746D01*
X151836983Y-75349831D01*
X151829542Y-75362247D01*
X151820919Y-75373873D01*
X151811198Y-75384598D01*
X151800473Y-75394319D01*
X151788847Y-75402942D01*
X151776431Y-75410383D01*
X151763346Y-75416572D01*
X151749717Y-75421449D01*
X151735676Y-75424966D01*
X151721358Y-75427090D01*
X151706900Y-75427800D01*
X151411900Y-75427800D01*
X151397442Y-75427090D01*
X151383124Y-75424966D01*
X151369083Y-75421449D01*
X151355454Y-75416572D01*
X151342369Y-75410383D01*
X151329953Y-75402942D01*
X151318327Y-75394319D01*
X151307602Y-75384598D01*
X151297881Y-75373873D01*
X151289258Y-75362247D01*
X151281817Y-75349831D01*
X151275628Y-75336746D01*
X151270751Y-75323117D01*
X151267234Y-75309076D01*
X151265110Y-75294758D01*
X151264400Y-75280300D01*
X151264400Y-74935300D01*
X151265110Y-74920842D01*
X151267234Y-74906524D01*
X151270751Y-74892483D01*
X151275628Y-74878854D01*
X151281817Y-74865769D01*
X151289258Y-74853353D01*
X151297881Y-74841727D01*
X151307602Y-74831002D01*
X151318327Y-74821281D01*
X151329953Y-74812658D01*
X151342369Y-74805217D01*
X151355454Y-74799028D01*
X151369083Y-74794151D01*
X151383124Y-74790634D01*
X151397442Y-74788510D01*
X151411900Y-74787800D01*
X151706900Y-74787800D01*
X151721358Y-74788510D01*
X151721358Y-74788510D01*
G37*
D11*
G04 #@! TD*
G04 #@! TO.P,L2,1*
G04 #@! TO.N,Net-(C8-Pad1)*
X151559400Y-75107800D03*
D10*
G04 #@! TO.N,Net-(C9-Pad1)*
G04 #@! TO.C,L2*
G36*
X152691358Y-74788510D02*
X152705676Y-74790634D01*
X152719717Y-74794151D01*
X152733346Y-74799028D01*
X152746431Y-74805217D01*
X152758847Y-74812658D01*
X152770473Y-74821281D01*
X152781198Y-74831002D01*
X152790919Y-74841727D01*
X152799542Y-74853353D01*
X152806983Y-74865769D01*
X152813172Y-74878854D01*
X152818049Y-74892483D01*
X152821566Y-74906524D01*
X152823690Y-74920842D01*
X152824400Y-74935300D01*
X152824400Y-75280300D01*
X152823690Y-75294758D01*
X152821566Y-75309076D01*
X152818049Y-75323117D01*
X152813172Y-75336746D01*
X152806983Y-75349831D01*
X152799542Y-75362247D01*
X152790919Y-75373873D01*
X152781198Y-75384598D01*
X152770473Y-75394319D01*
X152758847Y-75402942D01*
X152746431Y-75410383D01*
X152733346Y-75416572D01*
X152719717Y-75421449D01*
X152705676Y-75424966D01*
X152691358Y-75427090D01*
X152676900Y-75427800D01*
X152381900Y-75427800D01*
X152367442Y-75427090D01*
X152353124Y-75424966D01*
X152339083Y-75421449D01*
X152325454Y-75416572D01*
X152312369Y-75410383D01*
X152299953Y-75402942D01*
X152288327Y-75394319D01*
X152277602Y-75384598D01*
X152267881Y-75373873D01*
X152259258Y-75362247D01*
X152251817Y-75349831D01*
X152245628Y-75336746D01*
X152240751Y-75323117D01*
X152237234Y-75309076D01*
X152235110Y-75294758D01*
X152234400Y-75280300D01*
X152234400Y-74935300D01*
X152235110Y-74920842D01*
X152237234Y-74906524D01*
X152240751Y-74892483D01*
X152245628Y-74878854D01*
X152251817Y-74865769D01*
X152259258Y-74853353D01*
X152267881Y-74841727D01*
X152277602Y-74831002D01*
X152288327Y-74821281D01*
X152299953Y-74812658D01*
X152312369Y-74805217D01*
X152325454Y-74799028D01*
X152339083Y-74794151D01*
X152353124Y-74790634D01*
X152367442Y-74788510D01*
X152381900Y-74787800D01*
X152676900Y-74787800D01*
X152691358Y-74788510D01*
X152691358Y-74788510D01*
G37*
D11*
G04 #@! TD*
G04 #@! TO.P,L2,2*
G04 #@! TO.N,Net-(C9-Pad1)*
X152529400Y-75107800D03*
D10*
G04 #@! TO.N,Net-(L3-Pad1)*
G04 #@! TO.C,L3*
G36*
X150633958Y-76871310D02*
X150648276Y-76873434D01*
X150662317Y-76876951D01*
X150675946Y-76881828D01*
X150689031Y-76888017D01*
X150701447Y-76895458D01*
X150713073Y-76904081D01*
X150723798Y-76913802D01*
X150733519Y-76924527D01*
X150742142Y-76936153D01*
X150749583Y-76948569D01*
X150755772Y-76961654D01*
X150760649Y-76975283D01*
X150764166Y-76989324D01*
X150766290Y-77003642D01*
X150767000Y-77018100D01*
X150767000Y-77363100D01*
X150766290Y-77377558D01*
X150764166Y-77391876D01*
X150760649Y-77405917D01*
X150755772Y-77419546D01*
X150749583Y-77432631D01*
X150742142Y-77445047D01*
X150733519Y-77456673D01*
X150723798Y-77467398D01*
X150713073Y-77477119D01*
X150701447Y-77485742D01*
X150689031Y-77493183D01*
X150675946Y-77499372D01*
X150662317Y-77504249D01*
X150648276Y-77507766D01*
X150633958Y-77509890D01*
X150619500Y-77510600D01*
X150324500Y-77510600D01*
X150310042Y-77509890D01*
X150295724Y-77507766D01*
X150281683Y-77504249D01*
X150268054Y-77499372D01*
X150254969Y-77493183D01*
X150242553Y-77485742D01*
X150230927Y-77477119D01*
X150220202Y-77467398D01*
X150210481Y-77456673D01*
X150201858Y-77445047D01*
X150194417Y-77432631D01*
X150188228Y-77419546D01*
X150183351Y-77405917D01*
X150179834Y-77391876D01*
X150177710Y-77377558D01*
X150177000Y-77363100D01*
X150177000Y-77018100D01*
X150177710Y-77003642D01*
X150179834Y-76989324D01*
X150183351Y-76975283D01*
X150188228Y-76961654D01*
X150194417Y-76948569D01*
X150201858Y-76936153D01*
X150210481Y-76924527D01*
X150220202Y-76913802D01*
X150230927Y-76904081D01*
X150242553Y-76895458D01*
X150254969Y-76888017D01*
X150268054Y-76881828D01*
X150281683Y-76876951D01*
X150295724Y-76873434D01*
X150310042Y-76871310D01*
X150324500Y-76870600D01*
X150619500Y-76870600D01*
X150633958Y-76871310D01*
X150633958Y-76871310D01*
G37*
D11*
G04 #@! TD*
G04 #@! TO.P,L3,1*
G04 #@! TO.N,Net-(L3-Pad1)*
X150472000Y-77190600D03*
D10*
G04 #@! TO.N,+BATT*
G04 #@! TO.C,L3*
G36*
X149663958Y-76871310D02*
X149678276Y-76873434D01*
X149692317Y-76876951D01*
X149705946Y-76881828D01*
X149719031Y-76888017D01*
X149731447Y-76895458D01*
X149743073Y-76904081D01*
X149753798Y-76913802D01*
X149763519Y-76924527D01*
X149772142Y-76936153D01*
X149779583Y-76948569D01*
X149785772Y-76961654D01*
X149790649Y-76975283D01*
X149794166Y-76989324D01*
X149796290Y-77003642D01*
X149797000Y-77018100D01*
X149797000Y-77363100D01*
X149796290Y-77377558D01*
X149794166Y-77391876D01*
X149790649Y-77405917D01*
X149785772Y-77419546D01*
X149779583Y-77432631D01*
X149772142Y-77445047D01*
X149763519Y-77456673D01*
X149753798Y-77467398D01*
X149743073Y-77477119D01*
X149731447Y-77485742D01*
X149719031Y-77493183D01*
X149705946Y-77499372D01*
X149692317Y-77504249D01*
X149678276Y-77507766D01*
X149663958Y-77509890D01*
X149649500Y-77510600D01*
X149354500Y-77510600D01*
X149340042Y-77509890D01*
X149325724Y-77507766D01*
X149311683Y-77504249D01*
X149298054Y-77499372D01*
X149284969Y-77493183D01*
X149272553Y-77485742D01*
X149260927Y-77477119D01*
X149250202Y-77467398D01*
X149240481Y-77456673D01*
X149231858Y-77445047D01*
X149224417Y-77432631D01*
X149218228Y-77419546D01*
X149213351Y-77405917D01*
X149209834Y-77391876D01*
X149207710Y-77377558D01*
X149207000Y-77363100D01*
X149207000Y-77018100D01*
X149207710Y-77003642D01*
X149209834Y-76989324D01*
X149213351Y-76975283D01*
X149218228Y-76961654D01*
X149224417Y-76948569D01*
X149231858Y-76936153D01*
X149240481Y-76924527D01*
X149250202Y-76913802D01*
X149260927Y-76904081D01*
X149272553Y-76895458D01*
X149284969Y-76888017D01*
X149298054Y-76881828D01*
X149311683Y-76876951D01*
X149325724Y-76873434D01*
X149340042Y-76871310D01*
X149354500Y-76870600D01*
X149649500Y-76870600D01*
X149663958Y-76871310D01*
X149663958Y-76871310D01*
G37*
D11*
G04 #@! TD*
G04 #@! TO.P,L3,2*
G04 #@! TO.N,+BATT*
X149502000Y-77190600D03*
D10*
G04 #@! TO.N,+BATT*
G04 #@! TO.C,L4*
G36*
X147354558Y-76924110D02*
X147368876Y-76926234D01*
X147382917Y-76929751D01*
X147396546Y-76934628D01*
X147409631Y-76940817D01*
X147422047Y-76948258D01*
X147433673Y-76956881D01*
X147444398Y-76966602D01*
X147454119Y-76977327D01*
X147462742Y-76988953D01*
X147470183Y-77001369D01*
X147476372Y-77014454D01*
X147481249Y-77028083D01*
X147484766Y-77042124D01*
X147486890Y-77056442D01*
X147487600Y-77070900D01*
X147487600Y-77365900D01*
X147486890Y-77380358D01*
X147484766Y-77394676D01*
X147481249Y-77408717D01*
X147476372Y-77422346D01*
X147470183Y-77435431D01*
X147462742Y-77447847D01*
X147454119Y-77459473D01*
X147444398Y-77470198D01*
X147433673Y-77479919D01*
X147422047Y-77488542D01*
X147409631Y-77495983D01*
X147396546Y-77502172D01*
X147382917Y-77507049D01*
X147368876Y-77510566D01*
X147354558Y-77512690D01*
X147340100Y-77513400D01*
X146995100Y-77513400D01*
X146980642Y-77512690D01*
X146966324Y-77510566D01*
X146952283Y-77507049D01*
X146938654Y-77502172D01*
X146925569Y-77495983D01*
X146913153Y-77488542D01*
X146901527Y-77479919D01*
X146890802Y-77470198D01*
X146881081Y-77459473D01*
X146872458Y-77447847D01*
X146865017Y-77435431D01*
X146858828Y-77422346D01*
X146853951Y-77408717D01*
X146850434Y-77394676D01*
X146848310Y-77380358D01*
X146847600Y-77365900D01*
X146847600Y-77070900D01*
X146848310Y-77056442D01*
X146850434Y-77042124D01*
X146853951Y-77028083D01*
X146858828Y-77014454D01*
X146865017Y-77001369D01*
X146872458Y-76988953D01*
X146881081Y-76977327D01*
X146890802Y-76966602D01*
X146901527Y-76956881D01*
X146913153Y-76948258D01*
X146925569Y-76940817D01*
X146938654Y-76934628D01*
X146952283Y-76929751D01*
X146966324Y-76926234D01*
X146980642Y-76924110D01*
X146995100Y-76923400D01*
X147340100Y-76923400D01*
X147354558Y-76924110D01*
X147354558Y-76924110D01*
G37*
D11*
G04 #@! TD*
G04 #@! TO.P,L4,2*
G04 #@! TO.N,+BATT*
X147167600Y-77218400D03*
D10*
G04 #@! TO.N,Net-(L4-Pad1)*
G04 #@! TO.C,L4*
G36*
X147354558Y-75954110D02*
X147368876Y-75956234D01*
X147382917Y-75959751D01*
X147396546Y-75964628D01*
X147409631Y-75970817D01*
X147422047Y-75978258D01*
X147433673Y-75986881D01*
X147444398Y-75996602D01*
X147454119Y-76007327D01*
X147462742Y-76018953D01*
X147470183Y-76031369D01*
X147476372Y-76044454D01*
X147481249Y-76058083D01*
X147484766Y-76072124D01*
X147486890Y-76086442D01*
X147487600Y-76100900D01*
X147487600Y-76395900D01*
X147486890Y-76410358D01*
X147484766Y-76424676D01*
X147481249Y-76438717D01*
X147476372Y-76452346D01*
X147470183Y-76465431D01*
X147462742Y-76477847D01*
X147454119Y-76489473D01*
X147444398Y-76500198D01*
X147433673Y-76509919D01*
X147422047Y-76518542D01*
X147409631Y-76525983D01*
X147396546Y-76532172D01*
X147382917Y-76537049D01*
X147368876Y-76540566D01*
X147354558Y-76542690D01*
X147340100Y-76543400D01*
X146995100Y-76543400D01*
X146980642Y-76542690D01*
X146966324Y-76540566D01*
X146952283Y-76537049D01*
X146938654Y-76532172D01*
X146925569Y-76525983D01*
X146913153Y-76518542D01*
X146901527Y-76509919D01*
X146890802Y-76500198D01*
X146881081Y-76489473D01*
X146872458Y-76477847D01*
X146865017Y-76465431D01*
X146858828Y-76452346D01*
X146853951Y-76438717D01*
X146850434Y-76424676D01*
X146848310Y-76410358D01*
X146847600Y-76395900D01*
X146847600Y-76100900D01*
X146848310Y-76086442D01*
X146850434Y-76072124D01*
X146853951Y-76058083D01*
X146858828Y-76044454D01*
X146865017Y-76031369D01*
X146872458Y-76018953D01*
X146881081Y-76007327D01*
X146890802Y-75996602D01*
X146901527Y-75986881D01*
X146913153Y-75978258D01*
X146925569Y-75970817D01*
X146938654Y-75964628D01*
X146952283Y-75959751D01*
X146966324Y-75956234D01*
X146980642Y-75954110D01*
X146995100Y-75953400D01*
X147340100Y-75953400D01*
X147354558Y-75954110D01*
X147354558Y-75954110D01*
G37*
D11*
G04 #@! TD*
G04 #@! TO.P,L4,1*
G04 #@! TO.N,Net-(L4-Pad1)*
X147167600Y-76248400D03*
D14*
G04 #@! TO.P,L5,1*
G04 #@! TO.N,Net-(C10-Pad2)*
X158161200Y-97663000D03*
G04 #@! TO.P,L5,2*
G04 #@! TO.N,Net-(C10-Pad1)*
X148061200Y-97663000D03*
G04 #@! TD*
D10*
G04 #@! TO.N,+BATT*
G04 #@! TO.C,R1*
G36*
X146286958Y-76924110D02*
X146301276Y-76926234D01*
X146315317Y-76929751D01*
X146328946Y-76934628D01*
X146342031Y-76940817D01*
X146354447Y-76948258D01*
X146366073Y-76956881D01*
X146376798Y-76966602D01*
X146386519Y-76977327D01*
X146395142Y-76988953D01*
X146402583Y-77001369D01*
X146408772Y-77014454D01*
X146413649Y-77028083D01*
X146417166Y-77042124D01*
X146419290Y-77056442D01*
X146420000Y-77070900D01*
X146420000Y-77365900D01*
X146419290Y-77380358D01*
X146417166Y-77394676D01*
X146413649Y-77408717D01*
X146408772Y-77422346D01*
X146402583Y-77435431D01*
X146395142Y-77447847D01*
X146386519Y-77459473D01*
X146376798Y-77470198D01*
X146366073Y-77479919D01*
X146354447Y-77488542D01*
X146342031Y-77495983D01*
X146328946Y-77502172D01*
X146315317Y-77507049D01*
X146301276Y-77510566D01*
X146286958Y-77512690D01*
X146272500Y-77513400D01*
X145927500Y-77513400D01*
X145913042Y-77512690D01*
X145898724Y-77510566D01*
X145884683Y-77507049D01*
X145871054Y-77502172D01*
X145857969Y-77495983D01*
X145845553Y-77488542D01*
X145833927Y-77479919D01*
X145823202Y-77470198D01*
X145813481Y-77459473D01*
X145804858Y-77447847D01*
X145797417Y-77435431D01*
X145791228Y-77422346D01*
X145786351Y-77408717D01*
X145782834Y-77394676D01*
X145780710Y-77380358D01*
X145780000Y-77365900D01*
X145780000Y-77070900D01*
X145780710Y-77056442D01*
X145782834Y-77042124D01*
X145786351Y-77028083D01*
X145791228Y-77014454D01*
X145797417Y-77001369D01*
X145804858Y-76988953D01*
X145813481Y-76977327D01*
X145823202Y-76966602D01*
X145833927Y-76956881D01*
X145845553Y-76948258D01*
X145857969Y-76940817D01*
X145871054Y-76934628D01*
X145884683Y-76929751D01*
X145898724Y-76926234D01*
X145913042Y-76924110D01*
X145927500Y-76923400D01*
X146272500Y-76923400D01*
X146286958Y-76924110D01*
X146286958Y-76924110D01*
G37*
D11*
G04 #@! TD*
G04 #@! TO.P,R1,1*
G04 #@! TO.N,+BATT*
X146100000Y-77218400D03*
D10*
G04 #@! TO.N,RESET*
G04 #@! TO.C,R1*
G36*
X146286958Y-75954110D02*
X146301276Y-75956234D01*
X146315317Y-75959751D01*
X146328946Y-75964628D01*
X146342031Y-75970817D01*
X146354447Y-75978258D01*
X146366073Y-75986881D01*
X146376798Y-75996602D01*
X146386519Y-76007327D01*
X146395142Y-76018953D01*
X146402583Y-76031369D01*
X146408772Y-76044454D01*
X146413649Y-76058083D01*
X146417166Y-76072124D01*
X146419290Y-76086442D01*
X146420000Y-76100900D01*
X146420000Y-76395900D01*
X146419290Y-76410358D01*
X146417166Y-76424676D01*
X146413649Y-76438717D01*
X146408772Y-76452346D01*
X146402583Y-76465431D01*
X146395142Y-76477847D01*
X146386519Y-76489473D01*
X146376798Y-76500198D01*
X146366073Y-76509919D01*
X146354447Y-76518542D01*
X146342031Y-76525983D01*
X146328946Y-76532172D01*
X146315317Y-76537049D01*
X146301276Y-76540566D01*
X146286958Y-76542690D01*
X146272500Y-76543400D01*
X145927500Y-76543400D01*
X145913042Y-76542690D01*
X145898724Y-76540566D01*
X145884683Y-76537049D01*
X145871054Y-76532172D01*
X145857969Y-76525983D01*
X145845553Y-76518542D01*
X145833927Y-76509919D01*
X145823202Y-76500198D01*
X145813481Y-76489473D01*
X145804858Y-76477847D01*
X145797417Y-76465431D01*
X145791228Y-76452346D01*
X145786351Y-76438717D01*
X145782834Y-76424676D01*
X145780710Y-76410358D01*
X145780000Y-76395900D01*
X145780000Y-76100900D01*
X145780710Y-76086442D01*
X145782834Y-76072124D01*
X145786351Y-76058083D01*
X145791228Y-76044454D01*
X145797417Y-76031369D01*
X145804858Y-76018953D01*
X145813481Y-76007327D01*
X145823202Y-75996602D01*
X145833927Y-75986881D01*
X145845553Y-75978258D01*
X145857969Y-75970817D01*
X145871054Y-75964628D01*
X145884683Y-75959751D01*
X145898724Y-75956234D01*
X145913042Y-75954110D01*
X145927500Y-75953400D01*
X146272500Y-75953400D01*
X146286958Y-75954110D01*
X146286958Y-75954110D01*
G37*
D11*
G04 #@! TD*
G04 #@! TO.P,R1,2*
G04 #@! TO.N,RESET*
X146100000Y-76248400D03*
D10*
G04 #@! TO.N,PTA4_BKGD*
G04 #@! TO.C,R2*
G36*
X145186958Y-75954110D02*
X145201276Y-75956234D01*
X145215317Y-75959751D01*
X145228946Y-75964628D01*
X145242031Y-75970817D01*
X145254447Y-75978258D01*
X145266073Y-75986881D01*
X145276798Y-75996602D01*
X145286519Y-76007327D01*
X145295142Y-76018953D01*
X145302583Y-76031369D01*
X145308772Y-76044454D01*
X145313649Y-76058083D01*
X145317166Y-76072124D01*
X145319290Y-76086442D01*
X145320000Y-76100900D01*
X145320000Y-76395900D01*
X145319290Y-76410358D01*
X145317166Y-76424676D01*
X145313649Y-76438717D01*
X145308772Y-76452346D01*
X145302583Y-76465431D01*
X145295142Y-76477847D01*
X145286519Y-76489473D01*
X145276798Y-76500198D01*
X145266073Y-76509919D01*
X145254447Y-76518542D01*
X145242031Y-76525983D01*
X145228946Y-76532172D01*
X145215317Y-76537049D01*
X145201276Y-76540566D01*
X145186958Y-76542690D01*
X145172500Y-76543400D01*
X144827500Y-76543400D01*
X144813042Y-76542690D01*
X144798724Y-76540566D01*
X144784683Y-76537049D01*
X144771054Y-76532172D01*
X144757969Y-76525983D01*
X144745553Y-76518542D01*
X144733927Y-76509919D01*
X144723202Y-76500198D01*
X144713481Y-76489473D01*
X144704858Y-76477847D01*
X144697417Y-76465431D01*
X144691228Y-76452346D01*
X144686351Y-76438717D01*
X144682834Y-76424676D01*
X144680710Y-76410358D01*
X144680000Y-76395900D01*
X144680000Y-76100900D01*
X144680710Y-76086442D01*
X144682834Y-76072124D01*
X144686351Y-76058083D01*
X144691228Y-76044454D01*
X144697417Y-76031369D01*
X144704858Y-76018953D01*
X144713481Y-76007327D01*
X144723202Y-75996602D01*
X144733927Y-75986881D01*
X144745553Y-75978258D01*
X144757969Y-75970817D01*
X144771054Y-75964628D01*
X144784683Y-75959751D01*
X144798724Y-75956234D01*
X144813042Y-75954110D01*
X144827500Y-75953400D01*
X145172500Y-75953400D01*
X145186958Y-75954110D01*
X145186958Y-75954110D01*
G37*
D11*
G04 #@! TD*
G04 #@! TO.P,R2,2*
G04 #@! TO.N,PTA4_BKGD*
X145000000Y-76248400D03*
D10*
G04 #@! TO.N,+BATT*
G04 #@! TO.C,R2*
G36*
X145186958Y-76924110D02*
X145201276Y-76926234D01*
X145215317Y-76929751D01*
X145228946Y-76934628D01*
X145242031Y-76940817D01*
X145254447Y-76948258D01*
X145266073Y-76956881D01*
X145276798Y-76966602D01*
X145286519Y-76977327D01*
X145295142Y-76988953D01*
X145302583Y-77001369D01*
X145308772Y-77014454D01*
X145313649Y-77028083D01*
X145317166Y-77042124D01*
X145319290Y-77056442D01*
X145320000Y-77070900D01*
X145320000Y-77365900D01*
X145319290Y-77380358D01*
X145317166Y-77394676D01*
X145313649Y-77408717D01*
X145308772Y-77422346D01*
X145302583Y-77435431D01*
X145295142Y-77447847D01*
X145286519Y-77459473D01*
X145276798Y-77470198D01*
X145266073Y-77479919D01*
X145254447Y-77488542D01*
X145242031Y-77495983D01*
X145228946Y-77502172D01*
X145215317Y-77507049D01*
X145201276Y-77510566D01*
X145186958Y-77512690D01*
X145172500Y-77513400D01*
X144827500Y-77513400D01*
X144813042Y-77512690D01*
X144798724Y-77510566D01*
X144784683Y-77507049D01*
X144771054Y-77502172D01*
X144757969Y-77495983D01*
X144745553Y-77488542D01*
X144733927Y-77479919D01*
X144723202Y-77470198D01*
X144713481Y-77459473D01*
X144704858Y-77447847D01*
X144697417Y-77435431D01*
X144691228Y-77422346D01*
X144686351Y-77408717D01*
X144682834Y-77394676D01*
X144680710Y-77380358D01*
X144680000Y-77365900D01*
X144680000Y-77070900D01*
X144680710Y-77056442D01*
X144682834Y-77042124D01*
X144686351Y-77028083D01*
X144691228Y-77014454D01*
X144697417Y-77001369D01*
X144704858Y-76988953D01*
X144713481Y-76977327D01*
X144723202Y-76966602D01*
X144733927Y-76956881D01*
X144745553Y-76948258D01*
X144757969Y-76940817D01*
X144771054Y-76934628D01*
X144784683Y-76929751D01*
X144798724Y-76926234D01*
X144813042Y-76924110D01*
X144827500Y-76923400D01*
X145172500Y-76923400D01*
X145186958Y-76924110D01*
X145186958Y-76924110D01*
G37*
D11*
G04 #@! TD*
G04 #@! TO.P,R2,1*
G04 #@! TO.N,+BATT*
X145000000Y-77218400D03*
D10*
G04 #@! TO.N,PTA3*
G04 #@! TO.C,R6*
G36*
X156775958Y-88250510D02*
X156790276Y-88252634D01*
X156804317Y-88256151D01*
X156817946Y-88261028D01*
X156831031Y-88267217D01*
X156843447Y-88274658D01*
X156855073Y-88283281D01*
X156865798Y-88293002D01*
X156875519Y-88303727D01*
X156884142Y-88315353D01*
X156891583Y-88327769D01*
X156897772Y-88340854D01*
X156902649Y-88354483D01*
X156906166Y-88368524D01*
X156908290Y-88382842D01*
X156909000Y-88397300D01*
X156909000Y-88742300D01*
X156908290Y-88756758D01*
X156906166Y-88771076D01*
X156902649Y-88785117D01*
X156897772Y-88798746D01*
X156891583Y-88811831D01*
X156884142Y-88824247D01*
X156875519Y-88835873D01*
X156865798Y-88846598D01*
X156855073Y-88856319D01*
X156843447Y-88864942D01*
X156831031Y-88872383D01*
X156817946Y-88878572D01*
X156804317Y-88883449D01*
X156790276Y-88886966D01*
X156775958Y-88889090D01*
X156761500Y-88889800D01*
X156466500Y-88889800D01*
X156452042Y-88889090D01*
X156437724Y-88886966D01*
X156423683Y-88883449D01*
X156410054Y-88878572D01*
X156396969Y-88872383D01*
X156384553Y-88864942D01*
X156372927Y-88856319D01*
X156362202Y-88846598D01*
X156352481Y-88835873D01*
X156343858Y-88824247D01*
X156336417Y-88811831D01*
X156330228Y-88798746D01*
X156325351Y-88785117D01*
X156321834Y-88771076D01*
X156319710Y-88756758D01*
X156319000Y-88742300D01*
X156319000Y-88397300D01*
X156319710Y-88382842D01*
X156321834Y-88368524D01*
X156325351Y-88354483D01*
X156330228Y-88340854D01*
X156336417Y-88327769D01*
X156343858Y-88315353D01*
X156352481Y-88303727D01*
X156362202Y-88293002D01*
X156372927Y-88283281D01*
X156384553Y-88274658D01*
X156396969Y-88267217D01*
X156410054Y-88261028D01*
X156423683Y-88256151D01*
X156437724Y-88252634D01*
X156452042Y-88250510D01*
X156466500Y-88249800D01*
X156761500Y-88249800D01*
X156775958Y-88250510D01*
X156775958Y-88250510D01*
G37*
D11*
G04 #@! TD*
G04 #@! TO.P,R6,1*
G04 #@! TO.N,PTA3*
X156614000Y-88569800D03*
D10*
G04 #@! TO.N,-BATT*
G04 #@! TO.C,R6*
G36*
X157745958Y-88250510D02*
X157760276Y-88252634D01*
X157774317Y-88256151D01*
X157787946Y-88261028D01*
X157801031Y-88267217D01*
X157813447Y-88274658D01*
X157825073Y-88283281D01*
X157835798Y-88293002D01*
X157845519Y-88303727D01*
X157854142Y-88315353D01*
X157861583Y-88327769D01*
X157867772Y-88340854D01*
X157872649Y-88354483D01*
X157876166Y-88368524D01*
X157878290Y-88382842D01*
X157879000Y-88397300D01*
X157879000Y-88742300D01*
X157878290Y-88756758D01*
X157876166Y-88771076D01*
X157872649Y-88785117D01*
X157867772Y-88798746D01*
X157861583Y-88811831D01*
X157854142Y-88824247D01*
X157845519Y-88835873D01*
X157835798Y-88846598D01*
X157825073Y-88856319D01*
X157813447Y-88864942D01*
X157801031Y-88872383D01*
X157787946Y-88878572D01*
X157774317Y-88883449D01*
X157760276Y-88886966D01*
X157745958Y-88889090D01*
X157731500Y-88889800D01*
X157436500Y-88889800D01*
X157422042Y-88889090D01*
X157407724Y-88886966D01*
X157393683Y-88883449D01*
X157380054Y-88878572D01*
X157366969Y-88872383D01*
X157354553Y-88864942D01*
X157342927Y-88856319D01*
X157332202Y-88846598D01*
X157322481Y-88835873D01*
X157313858Y-88824247D01*
X157306417Y-88811831D01*
X157300228Y-88798746D01*
X157295351Y-88785117D01*
X157291834Y-88771076D01*
X157289710Y-88756758D01*
X157289000Y-88742300D01*
X157289000Y-88397300D01*
X157289710Y-88382842D01*
X157291834Y-88368524D01*
X157295351Y-88354483D01*
X157300228Y-88340854D01*
X157306417Y-88327769D01*
X157313858Y-88315353D01*
X157322481Y-88303727D01*
X157332202Y-88293002D01*
X157342927Y-88283281D01*
X157354553Y-88274658D01*
X157366969Y-88267217D01*
X157380054Y-88261028D01*
X157393683Y-88256151D01*
X157407724Y-88252634D01*
X157422042Y-88250510D01*
X157436500Y-88249800D01*
X157731500Y-88249800D01*
X157745958Y-88250510D01*
X157745958Y-88250510D01*
G37*
D11*
G04 #@! TD*
G04 #@! TO.P,R6,2*
G04 #@! TO.N,-BATT*
X157584000Y-88569800D03*
D10*
G04 #@! TO.N,Net-(C10-Pad2)*
G04 #@! TO.C,R9*
G36*
X153729958Y-90767110D02*
X153744276Y-90769234D01*
X153758317Y-90772751D01*
X153771946Y-90777628D01*
X153785031Y-90783817D01*
X153797447Y-90791258D01*
X153809073Y-90799881D01*
X153819798Y-90809602D01*
X153829519Y-90820327D01*
X153838142Y-90831953D01*
X153845583Y-90844369D01*
X153851772Y-90857454D01*
X153856649Y-90871083D01*
X153860166Y-90885124D01*
X153862290Y-90899442D01*
X153863000Y-90913900D01*
X153863000Y-91208900D01*
X153862290Y-91223358D01*
X153860166Y-91237676D01*
X153856649Y-91251717D01*
X153851772Y-91265346D01*
X153845583Y-91278431D01*
X153838142Y-91290847D01*
X153829519Y-91302473D01*
X153819798Y-91313198D01*
X153809073Y-91322919D01*
X153797447Y-91331542D01*
X153785031Y-91338983D01*
X153771946Y-91345172D01*
X153758317Y-91350049D01*
X153744276Y-91353566D01*
X153729958Y-91355690D01*
X153715500Y-91356400D01*
X153370500Y-91356400D01*
X153356042Y-91355690D01*
X153341724Y-91353566D01*
X153327683Y-91350049D01*
X153314054Y-91345172D01*
X153300969Y-91338983D01*
X153288553Y-91331542D01*
X153276927Y-91322919D01*
X153266202Y-91313198D01*
X153256481Y-91302473D01*
X153247858Y-91290847D01*
X153240417Y-91278431D01*
X153234228Y-91265346D01*
X153229351Y-91251717D01*
X153225834Y-91237676D01*
X153223710Y-91223358D01*
X153223000Y-91208900D01*
X153223000Y-90913900D01*
X153223710Y-90899442D01*
X153225834Y-90885124D01*
X153229351Y-90871083D01*
X153234228Y-90857454D01*
X153240417Y-90844369D01*
X153247858Y-90831953D01*
X153256481Y-90820327D01*
X153266202Y-90809602D01*
X153276927Y-90799881D01*
X153288553Y-90791258D01*
X153300969Y-90783817D01*
X153314054Y-90777628D01*
X153327683Y-90772751D01*
X153341724Y-90769234D01*
X153356042Y-90767110D01*
X153370500Y-90766400D01*
X153715500Y-90766400D01*
X153729958Y-90767110D01*
X153729958Y-90767110D01*
G37*
D11*
G04 #@! TD*
G04 #@! TO.P,R9,1*
G04 #@! TO.N,Net-(C10-Pad2)*
X153543000Y-91061400D03*
D10*
G04 #@! TO.N,LFA*
G04 #@! TO.C,R9*
G36*
X153729958Y-89797110D02*
X153744276Y-89799234D01*
X153758317Y-89802751D01*
X153771946Y-89807628D01*
X153785031Y-89813817D01*
X153797447Y-89821258D01*
X153809073Y-89829881D01*
X153819798Y-89839602D01*
X153829519Y-89850327D01*
X153838142Y-89861953D01*
X153845583Y-89874369D01*
X153851772Y-89887454D01*
X153856649Y-89901083D01*
X153860166Y-89915124D01*
X153862290Y-89929442D01*
X153863000Y-89943900D01*
X153863000Y-90238900D01*
X153862290Y-90253358D01*
X153860166Y-90267676D01*
X153856649Y-90281717D01*
X153851772Y-90295346D01*
X153845583Y-90308431D01*
X153838142Y-90320847D01*
X153829519Y-90332473D01*
X153819798Y-90343198D01*
X153809073Y-90352919D01*
X153797447Y-90361542D01*
X153785031Y-90368983D01*
X153771946Y-90375172D01*
X153758317Y-90380049D01*
X153744276Y-90383566D01*
X153729958Y-90385690D01*
X153715500Y-90386400D01*
X153370500Y-90386400D01*
X153356042Y-90385690D01*
X153341724Y-90383566D01*
X153327683Y-90380049D01*
X153314054Y-90375172D01*
X153300969Y-90368983D01*
X153288553Y-90361542D01*
X153276927Y-90352919D01*
X153266202Y-90343198D01*
X153256481Y-90332473D01*
X153247858Y-90320847D01*
X153240417Y-90308431D01*
X153234228Y-90295346D01*
X153229351Y-90281717D01*
X153225834Y-90267676D01*
X153223710Y-90253358D01*
X153223000Y-90238900D01*
X153223000Y-89943900D01*
X153223710Y-89929442D01*
X153225834Y-89915124D01*
X153229351Y-89901083D01*
X153234228Y-89887454D01*
X153240417Y-89874369D01*
X153247858Y-89861953D01*
X153256481Y-89850327D01*
X153266202Y-89839602D01*
X153276927Y-89829881D01*
X153288553Y-89821258D01*
X153300969Y-89813817D01*
X153314054Y-89807628D01*
X153327683Y-89802751D01*
X153341724Y-89799234D01*
X153356042Y-89797110D01*
X153370500Y-89796400D01*
X153715500Y-89796400D01*
X153729958Y-89797110D01*
X153729958Y-89797110D01*
G37*
D11*
G04 #@! TD*
G04 #@! TO.P,R9,2*
G04 #@! TO.N,LFA*
X153543000Y-90091400D03*
D10*
G04 #@! TO.N,LFB*
G04 #@! TO.C,R10*
G36*
X152713958Y-89797110D02*
X152728276Y-89799234D01*
X152742317Y-89802751D01*
X152755946Y-89807628D01*
X152769031Y-89813817D01*
X152781447Y-89821258D01*
X152793073Y-89829881D01*
X152803798Y-89839602D01*
X152813519Y-89850327D01*
X152822142Y-89861953D01*
X152829583Y-89874369D01*
X152835772Y-89887454D01*
X152840649Y-89901083D01*
X152844166Y-89915124D01*
X152846290Y-89929442D01*
X152847000Y-89943900D01*
X152847000Y-90238900D01*
X152846290Y-90253358D01*
X152844166Y-90267676D01*
X152840649Y-90281717D01*
X152835772Y-90295346D01*
X152829583Y-90308431D01*
X152822142Y-90320847D01*
X152813519Y-90332473D01*
X152803798Y-90343198D01*
X152793073Y-90352919D01*
X152781447Y-90361542D01*
X152769031Y-90368983D01*
X152755946Y-90375172D01*
X152742317Y-90380049D01*
X152728276Y-90383566D01*
X152713958Y-90385690D01*
X152699500Y-90386400D01*
X152354500Y-90386400D01*
X152340042Y-90385690D01*
X152325724Y-90383566D01*
X152311683Y-90380049D01*
X152298054Y-90375172D01*
X152284969Y-90368983D01*
X152272553Y-90361542D01*
X152260927Y-90352919D01*
X152250202Y-90343198D01*
X152240481Y-90332473D01*
X152231858Y-90320847D01*
X152224417Y-90308431D01*
X152218228Y-90295346D01*
X152213351Y-90281717D01*
X152209834Y-90267676D01*
X152207710Y-90253358D01*
X152207000Y-90238900D01*
X152207000Y-89943900D01*
X152207710Y-89929442D01*
X152209834Y-89915124D01*
X152213351Y-89901083D01*
X152218228Y-89887454D01*
X152224417Y-89874369D01*
X152231858Y-89861953D01*
X152240481Y-89850327D01*
X152250202Y-89839602D01*
X152260927Y-89829881D01*
X152272553Y-89821258D01*
X152284969Y-89813817D01*
X152298054Y-89807628D01*
X152311683Y-89802751D01*
X152325724Y-89799234D01*
X152340042Y-89797110D01*
X152354500Y-89796400D01*
X152699500Y-89796400D01*
X152713958Y-89797110D01*
X152713958Y-89797110D01*
G37*
D11*
G04 #@! TD*
G04 #@! TO.P,R10,2*
G04 #@! TO.N,LFB*
X152527000Y-90091400D03*
D10*
G04 #@! TO.N,Net-(C10-Pad1)*
G04 #@! TO.C,R10*
G36*
X152713958Y-90767110D02*
X152728276Y-90769234D01*
X152742317Y-90772751D01*
X152755946Y-90777628D01*
X152769031Y-90783817D01*
X152781447Y-90791258D01*
X152793073Y-90799881D01*
X152803798Y-90809602D01*
X152813519Y-90820327D01*
X152822142Y-90831953D01*
X152829583Y-90844369D01*
X152835772Y-90857454D01*
X152840649Y-90871083D01*
X152844166Y-90885124D01*
X152846290Y-90899442D01*
X152847000Y-90913900D01*
X152847000Y-91208900D01*
X152846290Y-91223358D01*
X152844166Y-91237676D01*
X152840649Y-91251717D01*
X152835772Y-91265346D01*
X152829583Y-91278431D01*
X152822142Y-91290847D01*
X152813519Y-91302473D01*
X152803798Y-91313198D01*
X152793073Y-91322919D01*
X152781447Y-91331542D01*
X152769031Y-91338983D01*
X152755946Y-91345172D01*
X152742317Y-91350049D01*
X152728276Y-91353566D01*
X152713958Y-91355690D01*
X152699500Y-91356400D01*
X152354500Y-91356400D01*
X152340042Y-91355690D01*
X152325724Y-91353566D01*
X152311683Y-91350049D01*
X152298054Y-91345172D01*
X152284969Y-91338983D01*
X152272553Y-91331542D01*
X152260927Y-91322919D01*
X152250202Y-91313198D01*
X152240481Y-91302473D01*
X152231858Y-91290847D01*
X152224417Y-91278431D01*
X152218228Y-91265346D01*
X152213351Y-91251717D01*
X152209834Y-91237676D01*
X152207710Y-91223358D01*
X152207000Y-91208900D01*
X152207000Y-90913900D01*
X152207710Y-90899442D01*
X152209834Y-90885124D01*
X152213351Y-90871083D01*
X152218228Y-90857454D01*
X152224417Y-90844369D01*
X152231858Y-90831953D01*
X152240481Y-90820327D01*
X152250202Y-90809602D01*
X152260927Y-90799881D01*
X152272553Y-90791258D01*
X152284969Y-90783817D01*
X152298054Y-90777628D01*
X152311683Y-90772751D01*
X152325724Y-90769234D01*
X152340042Y-90767110D01*
X152354500Y-90766400D01*
X152699500Y-90766400D01*
X152713958Y-90767110D01*
X152713958Y-90767110D01*
G37*
D11*
G04 #@! TD*
G04 #@! TO.P,R10,1*
G04 #@! TO.N,Net-(C10-Pad1)*
X152527000Y-91061400D03*
D10*
G04 #@! TO.N,Net-(C10-Pad2)*
G04 #@! TO.C,R11*
G36*
X153656558Y-91831910D02*
X153670876Y-91834034D01*
X153684917Y-91837551D01*
X153698546Y-91842428D01*
X153711631Y-91848617D01*
X153724047Y-91856058D01*
X153735673Y-91864681D01*
X153746398Y-91874402D01*
X153756119Y-91885127D01*
X153764742Y-91896753D01*
X153772183Y-91909169D01*
X153778372Y-91922254D01*
X153783249Y-91935883D01*
X153786766Y-91949924D01*
X153788890Y-91964242D01*
X153789600Y-91978700D01*
X153789600Y-92323700D01*
X153788890Y-92338158D01*
X153786766Y-92352476D01*
X153783249Y-92366517D01*
X153778372Y-92380146D01*
X153772183Y-92393231D01*
X153764742Y-92405647D01*
X153756119Y-92417273D01*
X153746398Y-92427998D01*
X153735673Y-92437719D01*
X153724047Y-92446342D01*
X153711631Y-92453783D01*
X153698546Y-92459972D01*
X153684917Y-92464849D01*
X153670876Y-92468366D01*
X153656558Y-92470490D01*
X153642100Y-92471200D01*
X153347100Y-92471200D01*
X153332642Y-92470490D01*
X153318324Y-92468366D01*
X153304283Y-92464849D01*
X153290654Y-92459972D01*
X153277569Y-92453783D01*
X153265153Y-92446342D01*
X153253527Y-92437719D01*
X153242802Y-92427998D01*
X153233081Y-92417273D01*
X153224458Y-92405647D01*
X153217017Y-92393231D01*
X153210828Y-92380146D01*
X153205951Y-92366517D01*
X153202434Y-92352476D01*
X153200310Y-92338158D01*
X153199600Y-92323700D01*
X153199600Y-91978700D01*
X153200310Y-91964242D01*
X153202434Y-91949924D01*
X153205951Y-91935883D01*
X153210828Y-91922254D01*
X153217017Y-91909169D01*
X153224458Y-91896753D01*
X153233081Y-91885127D01*
X153242802Y-91874402D01*
X153253527Y-91864681D01*
X153265153Y-91856058D01*
X153277569Y-91848617D01*
X153290654Y-91842428D01*
X153304283Y-91837551D01*
X153318324Y-91834034D01*
X153332642Y-91831910D01*
X153347100Y-91831200D01*
X153642100Y-91831200D01*
X153656558Y-91831910D01*
X153656558Y-91831910D01*
G37*
D11*
G04 #@! TD*
G04 #@! TO.P,R11,2*
G04 #@! TO.N,Net-(C10-Pad2)*
X153494600Y-92151200D03*
D10*
G04 #@! TO.N,Net-(C10-Pad1)*
G04 #@! TO.C,R11*
G36*
X152686558Y-91831910D02*
X152700876Y-91834034D01*
X152714917Y-91837551D01*
X152728546Y-91842428D01*
X152741631Y-91848617D01*
X152754047Y-91856058D01*
X152765673Y-91864681D01*
X152776398Y-91874402D01*
X152786119Y-91885127D01*
X152794742Y-91896753D01*
X152802183Y-91909169D01*
X152808372Y-91922254D01*
X152813249Y-91935883D01*
X152816766Y-91949924D01*
X152818890Y-91964242D01*
X152819600Y-91978700D01*
X152819600Y-92323700D01*
X152818890Y-92338158D01*
X152816766Y-92352476D01*
X152813249Y-92366517D01*
X152808372Y-92380146D01*
X152802183Y-92393231D01*
X152794742Y-92405647D01*
X152786119Y-92417273D01*
X152776398Y-92427998D01*
X152765673Y-92437719D01*
X152754047Y-92446342D01*
X152741631Y-92453783D01*
X152728546Y-92459972D01*
X152714917Y-92464849D01*
X152700876Y-92468366D01*
X152686558Y-92470490D01*
X152672100Y-92471200D01*
X152377100Y-92471200D01*
X152362642Y-92470490D01*
X152348324Y-92468366D01*
X152334283Y-92464849D01*
X152320654Y-92459972D01*
X152307569Y-92453783D01*
X152295153Y-92446342D01*
X152283527Y-92437719D01*
X152272802Y-92427998D01*
X152263081Y-92417273D01*
X152254458Y-92405647D01*
X152247017Y-92393231D01*
X152240828Y-92380146D01*
X152235951Y-92366517D01*
X152232434Y-92352476D01*
X152230310Y-92338158D01*
X152229600Y-92323700D01*
X152229600Y-91978700D01*
X152230310Y-91964242D01*
X152232434Y-91949924D01*
X152235951Y-91935883D01*
X152240828Y-91922254D01*
X152247017Y-91909169D01*
X152254458Y-91896753D01*
X152263081Y-91885127D01*
X152272802Y-91874402D01*
X152283527Y-91864681D01*
X152295153Y-91856058D01*
X152307569Y-91848617D01*
X152320654Y-91842428D01*
X152334283Y-91837551D01*
X152348324Y-91834034D01*
X152362642Y-91831910D01*
X152377100Y-91831200D01*
X152672100Y-91831200D01*
X152686558Y-91831910D01*
X152686558Y-91831910D01*
G37*
D11*
G04 #@! TD*
G04 #@! TO.P,R11,1*
G04 #@! TO.N,Net-(C10-Pad1)*
X152524600Y-92151200D03*
D10*
G04 #@! TO.N,Net-(L3-Pad1)*
G04 #@! TO.C,R12*
G36*
X150631558Y-75829910D02*
X150645876Y-75832034D01*
X150659917Y-75835551D01*
X150673546Y-75840428D01*
X150686631Y-75846617D01*
X150699047Y-75854058D01*
X150710673Y-75862681D01*
X150721398Y-75872402D01*
X150731119Y-75883127D01*
X150739742Y-75894753D01*
X150747183Y-75907169D01*
X150753372Y-75920254D01*
X150758249Y-75933883D01*
X150761766Y-75947924D01*
X150763890Y-75962242D01*
X150764600Y-75976700D01*
X150764600Y-76321700D01*
X150763890Y-76336158D01*
X150761766Y-76350476D01*
X150758249Y-76364517D01*
X150753372Y-76378146D01*
X150747183Y-76391231D01*
X150739742Y-76403647D01*
X150731119Y-76415273D01*
X150721398Y-76425998D01*
X150710673Y-76435719D01*
X150699047Y-76444342D01*
X150686631Y-76451783D01*
X150673546Y-76457972D01*
X150659917Y-76462849D01*
X150645876Y-76466366D01*
X150631558Y-76468490D01*
X150617100Y-76469200D01*
X150322100Y-76469200D01*
X150307642Y-76468490D01*
X150293324Y-76466366D01*
X150279283Y-76462849D01*
X150265654Y-76457972D01*
X150252569Y-76451783D01*
X150240153Y-76444342D01*
X150228527Y-76435719D01*
X150217802Y-76425998D01*
X150208081Y-76415273D01*
X150199458Y-76403647D01*
X150192017Y-76391231D01*
X150185828Y-76378146D01*
X150180951Y-76364517D01*
X150177434Y-76350476D01*
X150175310Y-76336158D01*
X150174600Y-76321700D01*
X150174600Y-75976700D01*
X150175310Y-75962242D01*
X150177434Y-75947924D01*
X150180951Y-75933883D01*
X150185828Y-75920254D01*
X150192017Y-75907169D01*
X150199458Y-75894753D01*
X150208081Y-75883127D01*
X150217802Y-75872402D01*
X150228527Y-75862681D01*
X150240153Y-75854058D01*
X150252569Y-75846617D01*
X150265654Y-75840428D01*
X150279283Y-75835551D01*
X150293324Y-75832034D01*
X150307642Y-75829910D01*
X150322100Y-75829200D01*
X150617100Y-75829200D01*
X150631558Y-75829910D01*
X150631558Y-75829910D01*
G37*
D11*
G04 #@! TD*
G04 #@! TO.P,R12,1*
G04 #@! TO.N,Net-(L3-Pad1)*
X150469600Y-76149200D03*
D10*
G04 #@! TO.N,Net-(L4-Pad1)*
G04 #@! TO.C,R12*
G36*
X149661558Y-75829910D02*
X149675876Y-75832034D01*
X149689917Y-75835551D01*
X149703546Y-75840428D01*
X149716631Y-75846617D01*
X149729047Y-75854058D01*
X149740673Y-75862681D01*
X149751398Y-75872402D01*
X149761119Y-75883127D01*
X149769742Y-75894753D01*
X149777183Y-75907169D01*
X149783372Y-75920254D01*
X149788249Y-75933883D01*
X149791766Y-75947924D01*
X149793890Y-75962242D01*
X149794600Y-75976700D01*
X149794600Y-76321700D01*
X149793890Y-76336158D01*
X149791766Y-76350476D01*
X149788249Y-76364517D01*
X149783372Y-76378146D01*
X149777183Y-76391231D01*
X149769742Y-76403647D01*
X149761119Y-76415273D01*
X149751398Y-76425998D01*
X149740673Y-76435719D01*
X149729047Y-76444342D01*
X149716631Y-76451783D01*
X149703546Y-76457972D01*
X149689917Y-76462849D01*
X149675876Y-76466366D01*
X149661558Y-76468490D01*
X149647100Y-76469200D01*
X149352100Y-76469200D01*
X149337642Y-76468490D01*
X149323324Y-76466366D01*
X149309283Y-76462849D01*
X149295654Y-76457972D01*
X149282569Y-76451783D01*
X149270153Y-76444342D01*
X149258527Y-76435719D01*
X149247802Y-76425998D01*
X149238081Y-76415273D01*
X149229458Y-76403647D01*
X149222017Y-76391231D01*
X149215828Y-76378146D01*
X149210951Y-76364517D01*
X149207434Y-76350476D01*
X149205310Y-76336158D01*
X149204600Y-76321700D01*
X149204600Y-75976700D01*
X149205310Y-75962242D01*
X149207434Y-75947924D01*
X149210951Y-75933883D01*
X149215828Y-75920254D01*
X149222017Y-75907169D01*
X149229458Y-75894753D01*
X149238081Y-75883127D01*
X149247802Y-75872402D01*
X149258527Y-75862681D01*
X149270153Y-75854058D01*
X149282569Y-75846617D01*
X149295654Y-75840428D01*
X149309283Y-75835551D01*
X149323324Y-75832034D01*
X149337642Y-75829910D01*
X149352100Y-75829200D01*
X149647100Y-75829200D01*
X149661558Y-75829910D01*
X149661558Y-75829910D01*
G37*
D11*
G04 #@! TD*
G04 #@! TO.P,R12,2*
G04 #@! TO.N,Net-(L4-Pad1)*
X149499600Y-76149200D03*
D10*
G04 #@! TO.N,Net-(L4-Pad1)*
G04 #@! TO.C,R13*
G36*
X149663958Y-74788510D02*
X149678276Y-74790634D01*
X149692317Y-74794151D01*
X149705946Y-74799028D01*
X149719031Y-74805217D01*
X149731447Y-74812658D01*
X149743073Y-74821281D01*
X149753798Y-74831002D01*
X149763519Y-74841727D01*
X149772142Y-74853353D01*
X149779583Y-74865769D01*
X149785772Y-74878854D01*
X149790649Y-74892483D01*
X149794166Y-74906524D01*
X149796290Y-74920842D01*
X149797000Y-74935300D01*
X149797000Y-75280300D01*
X149796290Y-75294758D01*
X149794166Y-75309076D01*
X149790649Y-75323117D01*
X149785772Y-75336746D01*
X149779583Y-75349831D01*
X149772142Y-75362247D01*
X149763519Y-75373873D01*
X149753798Y-75384598D01*
X149743073Y-75394319D01*
X149731447Y-75402942D01*
X149719031Y-75410383D01*
X149705946Y-75416572D01*
X149692317Y-75421449D01*
X149678276Y-75424966D01*
X149663958Y-75427090D01*
X149649500Y-75427800D01*
X149354500Y-75427800D01*
X149340042Y-75427090D01*
X149325724Y-75424966D01*
X149311683Y-75421449D01*
X149298054Y-75416572D01*
X149284969Y-75410383D01*
X149272553Y-75402942D01*
X149260927Y-75394319D01*
X149250202Y-75384598D01*
X149240481Y-75373873D01*
X149231858Y-75362247D01*
X149224417Y-75349831D01*
X149218228Y-75336746D01*
X149213351Y-75323117D01*
X149209834Y-75309076D01*
X149207710Y-75294758D01*
X149207000Y-75280300D01*
X149207000Y-74935300D01*
X149207710Y-74920842D01*
X149209834Y-74906524D01*
X149213351Y-74892483D01*
X149218228Y-74878854D01*
X149224417Y-74865769D01*
X149231858Y-74853353D01*
X149240481Y-74841727D01*
X149250202Y-74831002D01*
X149260927Y-74821281D01*
X149272553Y-74812658D01*
X149284969Y-74805217D01*
X149298054Y-74799028D01*
X149311683Y-74794151D01*
X149325724Y-74790634D01*
X149340042Y-74788510D01*
X149354500Y-74787800D01*
X149649500Y-74787800D01*
X149663958Y-74788510D01*
X149663958Y-74788510D01*
G37*
D11*
G04 #@! TD*
G04 #@! TO.P,R13,1*
G04 #@! TO.N,Net-(L4-Pad1)*
X149502000Y-75107800D03*
D10*
G04 #@! TO.N,Net-(C8-Pad1)*
G04 #@! TO.C,R13*
G36*
X150633958Y-74788510D02*
X150648276Y-74790634D01*
X150662317Y-74794151D01*
X150675946Y-74799028D01*
X150689031Y-74805217D01*
X150701447Y-74812658D01*
X150713073Y-74821281D01*
X150723798Y-74831002D01*
X150733519Y-74841727D01*
X150742142Y-74853353D01*
X150749583Y-74865769D01*
X150755772Y-74878854D01*
X150760649Y-74892483D01*
X150764166Y-74906524D01*
X150766290Y-74920842D01*
X150767000Y-74935300D01*
X150767000Y-75280300D01*
X150766290Y-75294758D01*
X150764166Y-75309076D01*
X150760649Y-75323117D01*
X150755772Y-75336746D01*
X150749583Y-75349831D01*
X150742142Y-75362247D01*
X150733519Y-75373873D01*
X150723798Y-75384598D01*
X150713073Y-75394319D01*
X150701447Y-75402942D01*
X150689031Y-75410383D01*
X150675946Y-75416572D01*
X150662317Y-75421449D01*
X150648276Y-75424966D01*
X150633958Y-75427090D01*
X150619500Y-75427800D01*
X150324500Y-75427800D01*
X150310042Y-75427090D01*
X150295724Y-75424966D01*
X150281683Y-75421449D01*
X150268054Y-75416572D01*
X150254969Y-75410383D01*
X150242553Y-75402942D01*
X150230927Y-75394319D01*
X150220202Y-75384598D01*
X150210481Y-75373873D01*
X150201858Y-75362247D01*
X150194417Y-75349831D01*
X150188228Y-75336746D01*
X150183351Y-75323117D01*
X150179834Y-75309076D01*
X150177710Y-75294758D01*
X150177000Y-75280300D01*
X150177000Y-74935300D01*
X150177710Y-74920842D01*
X150179834Y-74906524D01*
X150183351Y-74892483D01*
X150188228Y-74878854D01*
X150194417Y-74865769D01*
X150201858Y-74853353D01*
X150210481Y-74841727D01*
X150220202Y-74831002D01*
X150230927Y-74821281D01*
X150242553Y-74812658D01*
X150254969Y-74805217D01*
X150268054Y-74799028D01*
X150281683Y-74794151D01*
X150295724Y-74790634D01*
X150310042Y-74788510D01*
X150324500Y-74787800D01*
X150619500Y-74787800D01*
X150633958Y-74788510D01*
X150633958Y-74788510D01*
G37*
D11*
G04 #@! TD*
G04 #@! TO.P,R13,2*
G04 #@! TO.N,Net-(C8-Pad1)*
X150472000Y-75107800D03*
D10*
G04 #@! TO.N,Net-(C9-Pad1)*
G04 #@! TO.C,R14*
G36*
X152691358Y-73747110D02*
X152705676Y-73749234D01*
X152719717Y-73752751D01*
X152733346Y-73757628D01*
X152746431Y-73763817D01*
X152758847Y-73771258D01*
X152770473Y-73779881D01*
X152781198Y-73789602D01*
X152790919Y-73800327D01*
X152799542Y-73811953D01*
X152806983Y-73824369D01*
X152813172Y-73837454D01*
X152818049Y-73851083D01*
X152821566Y-73865124D01*
X152823690Y-73879442D01*
X152824400Y-73893900D01*
X152824400Y-74238900D01*
X152823690Y-74253358D01*
X152821566Y-74267676D01*
X152818049Y-74281717D01*
X152813172Y-74295346D01*
X152806983Y-74308431D01*
X152799542Y-74320847D01*
X152790919Y-74332473D01*
X152781198Y-74343198D01*
X152770473Y-74352919D01*
X152758847Y-74361542D01*
X152746431Y-74368983D01*
X152733346Y-74375172D01*
X152719717Y-74380049D01*
X152705676Y-74383566D01*
X152691358Y-74385690D01*
X152676900Y-74386400D01*
X152381900Y-74386400D01*
X152367442Y-74385690D01*
X152353124Y-74383566D01*
X152339083Y-74380049D01*
X152325454Y-74375172D01*
X152312369Y-74368983D01*
X152299953Y-74361542D01*
X152288327Y-74352919D01*
X152277602Y-74343198D01*
X152267881Y-74332473D01*
X152259258Y-74320847D01*
X152251817Y-74308431D01*
X152245628Y-74295346D01*
X152240751Y-74281717D01*
X152237234Y-74267676D01*
X152235110Y-74253358D01*
X152234400Y-74238900D01*
X152234400Y-73893900D01*
X152235110Y-73879442D01*
X152237234Y-73865124D01*
X152240751Y-73851083D01*
X152245628Y-73837454D01*
X152251817Y-73824369D01*
X152259258Y-73811953D01*
X152267881Y-73800327D01*
X152277602Y-73789602D01*
X152288327Y-73779881D01*
X152299953Y-73771258D01*
X152312369Y-73763817D01*
X152325454Y-73757628D01*
X152339083Y-73752751D01*
X152353124Y-73749234D01*
X152367442Y-73747110D01*
X152381900Y-73746400D01*
X152676900Y-73746400D01*
X152691358Y-73747110D01*
X152691358Y-73747110D01*
G37*
D11*
G04 #@! TD*
G04 #@! TO.P,R14,2*
G04 #@! TO.N,Net-(C9-Pad1)*
X152529400Y-74066400D03*
D10*
G04 #@! TO.N,Net-(C11-Pad2)*
G04 #@! TO.C,R14*
G36*
X151721358Y-73747110D02*
X151735676Y-73749234D01*
X151749717Y-73752751D01*
X151763346Y-73757628D01*
X151776431Y-73763817D01*
X151788847Y-73771258D01*
X151800473Y-73779881D01*
X151811198Y-73789602D01*
X151820919Y-73800327D01*
X151829542Y-73811953D01*
X151836983Y-73824369D01*
X151843172Y-73837454D01*
X151848049Y-73851083D01*
X151851566Y-73865124D01*
X151853690Y-73879442D01*
X151854400Y-73893900D01*
X151854400Y-74238900D01*
X151853690Y-74253358D01*
X151851566Y-74267676D01*
X151848049Y-74281717D01*
X151843172Y-74295346D01*
X151836983Y-74308431D01*
X151829542Y-74320847D01*
X151820919Y-74332473D01*
X151811198Y-74343198D01*
X151800473Y-74352919D01*
X151788847Y-74361542D01*
X151776431Y-74368983D01*
X151763346Y-74375172D01*
X151749717Y-74380049D01*
X151735676Y-74383566D01*
X151721358Y-74385690D01*
X151706900Y-74386400D01*
X151411900Y-74386400D01*
X151397442Y-74385690D01*
X151383124Y-74383566D01*
X151369083Y-74380049D01*
X151355454Y-74375172D01*
X151342369Y-74368983D01*
X151329953Y-74361542D01*
X151318327Y-74352919D01*
X151307602Y-74343198D01*
X151297881Y-74332473D01*
X151289258Y-74320847D01*
X151281817Y-74308431D01*
X151275628Y-74295346D01*
X151270751Y-74281717D01*
X151267234Y-74267676D01*
X151265110Y-74253358D01*
X151264400Y-74238900D01*
X151264400Y-73893900D01*
X151265110Y-73879442D01*
X151267234Y-73865124D01*
X151270751Y-73851083D01*
X151275628Y-73837454D01*
X151281817Y-73824369D01*
X151289258Y-73811953D01*
X151297881Y-73800327D01*
X151307602Y-73789602D01*
X151318327Y-73779881D01*
X151329953Y-73771258D01*
X151342369Y-73763817D01*
X151355454Y-73757628D01*
X151369083Y-73752751D01*
X151383124Y-73749234D01*
X151397442Y-73747110D01*
X151411900Y-73746400D01*
X151706900Y-73746400D01*
X151721358Y-73747110D01*
X151721358Y-73747110D01*
G37*
D11*
G04 #@! TD*
G04 #@! TO.P,R14,1*
G04 #@! TO.N,Net-(C11-Pad2)*
X151559400Y-74066400D03*
D10*
G04 #@! TO.N,-BATT*
G04 #@! TO.C,R15*
G36*
X155663158Y-91831910D02*
X155677476Y-91834034D01*
X155691517Y-91837551D01*
X155705146Y-91842428D01*
X155718231Y-91848617D01*
X155730647Y-91856058D01*
X155742273Y-91864681D01*
X155752998Y-91874402D01*
X155762719Y-91885127D01*
X155771342Y-91896753D01*
X155778783Y-91909169D01*
X155784972Y-91922254D01*
X155789849Y-91935883D01*
X155793366Y-91949924D01*
X155795490Y-91964242D01*
X155796200Y-91978700D01*
X155796200Y-92323700D01*
X155795490Y-92338158D01*
X155793366Y-92352476D01*
X155789849Y-92366517D01*
X155784972Y-92380146D01*
X155778783Y-92393231D01*
X155771342Y-92405647D01*
X155762719Y-92417273D01*
X155752998Y-92427998D01*
X155742273Y-92437719D01*
X155730647Y-92446342D01*
X155718231Y-92453783D01*
X155705146Y-92459972D01*
X155691517Y-92464849D01*
X155677476Y-92468366D01*
X155663158Y-92470490D01*
X155648700Y-92471200D01*
X155353700Y-92471200D01*
X155339242Y-92470490D01*
X155324924Y-92468366D01*
X155310883Y-92464849D01*
X155297254Y-92459972D01*
X155284169Y-92453783D01*
X155271753Y-92446342D01*
X155260127Y-92437719D01*
X155249402Y-92427998D01*
X155239681Y-92417273D01*
X155231058Y-92405647D01*
X155223617Y-92393231D01*
X155217428Y-92380146D01*
X155212551Y-92366517D01*
X155209034Y-92352476D01*
X155206910Y-92338158D01*
X155206200Y-92323700D01*
X155206200Y-91978700D01*
X155206910Y-91964242D01*
X155209034Y-91949924D01*
X155212551Y-91935883D01*
X155217428Y-91922254D01*
X155223617Y-91909169D01*
X155231058Y-91896753D01*
X155239681Y-91885127D01*
X155249402Y-91874402D01*
X155260127Y-91864681D01*
X155271753Y-91856058D01*
X155284169Y-91848617D01*
X155297254Y-91842428D01*
X155310883Y-91837551D01*
X155324924Y-91834034D01*
X155339242Y-91831910D01*
X155353700Y-91831200D01*
X155648700Y-91831200D01*
X155663158Y-91831910D01*
X155663158Y-91831910D01*
G37*
D11*
G04 #@! TD*
G04 #@! TO.P,R15,1*
G04 #@! TO.N,-BATT*
X155501200Y-92151200D03*
D10*
G04 #@! TO.N,Net-(C10-Pad2)*
G04 #@! TO.C,R15*
G36*
X154693158Y-91831910D02*
X154707476Y-91834034D01*
X154721517Y-91837551D01*
X154735146Y-91842428D01*
X154748231Y-91848617D01*
X154760647Y-91856058D01*
X154772273Y-91864681D01*
X154782998Y-91874402D01*
X154792719Y-91885127D01*
X154801342Y-91896753D01*
X154808783Y-91909169D01*
X154814972Y-91922254D01*
X154819849Y-91935883D01*
X154823366Y-91949924D01*
X154825490Y-91964242D01*
X154826200Y-91978700D01*
X154826200Y-92323700D01*
X154825490Y-92338158D01*
X154823366Y-92352476D01*
X154819849Y-92366517D01*
X154814972Y-92380146D01*
X154808783Y-92393231D01*
X154801342Y-92405647D01*
X154792719Y-92417273D01*
X154782998Y-92427998D01*
X154772273Y-92437719D01*
X154760647Y-92446342D01*
X154748231Y-92453783D01*
X154735146Y-92459972D01*
X154721517Y-92464849D01*
X154707476Y-92468366D01*
X154693158Y-92470490D01*
X154678700Y-92471200D01*
X154383700Y-92471200D01*
X154369242Y-92470490D01*
X154354924Y-92468366D01*
X154340883Y-92464849D01*
X154327254Y-92459972D01*
X154314169Y-92453783D01*
X154301753Y-92446342D01*
X154290127Y-92437719D01*
X154279402Y-92427998D01*
X154269681Y-92417273D01*
X154261058Y-92405647D01*
X154253617Y-92393231D01*
X154247428Y-92380146D01*
X154242551Y-92366517D01*
X154239034Y-92352476D01*
X154236910Y-92338158D01*
X154236200Y-92323700D01*
X154236200Y-91978700D01*
X154236910Y-91964242D01*
X154239034Y-91949924D01*
X154242551Y-91935883D01*
X154247428Y-91922254D01*
X154253617Y-91909169D01*
X154261058Y-91896753D01*
X154269681Y-91885127D01*
X154279402Y-91874402D01*
X154290127Y-91864681D01*
X154301753Y-91856058D01*
X154314169Y-91848617D01*
X154327254Y-91842428D01*
X154340883Y-91837551D01*
X154354924Y-91834034D01*
X154369242Y-91831910D01*
X154383700Y-91831200D01*
X154678700Y-91831200D01*
X154693158Y-91831910D01*
X154693158Y-91831910D01*
G37*
D11*
G04 #@! TD*
G04 #@! TO.P,R15,2*
G04 #@! TO.N,Net-(C10-Pad2)*
X154531200Y-92151200D03*
D10*
G04 #@! TO.N,Net-(C10-Pad1)*
G04 #@! TO.C,R16*
G36*
X151700758Y-91831910D02*
X151715076Y-91834034D01*
X151729117Y-91837551D01*
X151742746Y-91842428D01*
X151755831Y-91848617D01*
X151768247Y-91856058D01*
X151779873Y-91864681D01*
X151790598Y-91874402D01*
X151800319Y-91885127D01*
X151808942Y-91896753D01*
X151816383Y-91909169D01*
X151822572Y-91922254D01*
X151827449Y-91935883D01*
X151830966Y-91949924D01*
X151833090Y-91964242D01*
X151833800Y-91978700D01*
X151833800Y-92323700D01*
X151833090Y-92338158D01*
X151830966Y-92352476D01*
X151827449Y-92366517D01*
X151822572Y-92380146D01*
X151816383Y-92393231D01*
X151808942Y-92405647D01*
X151800319Y-92417273D01*
X151790598Y-92427998D01*
X151779873Y-92437719D01*
X151768247Y-92446342D01*
X151755831Y-92453783D01*
X151742746Y-92459972D01*
X151729117Y-92464849D01*
X151715076Y-92468366D01*
X151700758Y-92470490D01*
X151686300Y-92471200D01*
X151391300Y-92471200D01*
X151376842Y-92470490D01*
X151362524Y-92468366D01*
X151348483Y-92464849D01*
X151334854Y-92459972D01*
X151321769Y-92453783D01*
X151309353Y-92446342D01*
X151297727Y-92437719D01*
X151287002Y-92427998D01*
X151277281Y-92417273D01*
X151268658Y-92405647D01*
X151261217Y-92393231D01*
X151255028Y-92380146D01*
X151250151Y-92366517D01*
X151246634Y-92352476D01*
X151244510Y-92338158D01*
X151243800Y-92323700D01*
X151243800Y-91978700D01*
X151244510Y-91964242D01*
X151246634Y-91949924D01*
X151250151Y-91935883D01*
X151255028Y-91922254D01*
X151261217Y-91909169D01*
X151268658Y-91896753D01*
X151277281Y-91885127D01*
X151287002Y-91874402D01*
X151297727Y-91864681D01*
X151309353Y-91856058D01*
X151321769Y-91848617D01*
X151334854Y-91842428D01*
X151348483Y-91837551D01*
X151362524Y-91834034D01*
X151376842Y-91831910D01*
X151391300Y-91831200D01*
X151686300Y-91831200D01*
X151700758Y-91831910D01*
X151700758Y-91831910D01*
G37*
D11*
G04 #@! TD*
G04 #@! TO.P,R16,2*
G04 #@! TO.N,Net-(C10-Pad1)*
X151538800Y-92151200D03*
D10*
G04 #@! TO.N,-BATT*
G04 #@! TO.C,R16*
G36*
X150730758Y-91831910D02*
X150745076Y-91834034D01*
X150759117Y-91837551D01*
X150772746Y-91842428D01*
X150785831Y-91848617D01*
X150798247Y-91856058D01*
X150809873Y-91864681D01*
X150820598Y-91874402D01*
X150830319Y-91885127D01*
X150838942Y-91896753D01*
X150846383Y-91909169D01*
X150852572Y-91922254D01*
X150857449Y-91935883D01*
X150860966Y-91949924D01*
X150863090Y-91964242D01*
X150863800Y-91978700D01*
X150863800Y-92323700D01*
X150863090Y-92338158D01*
X150860966Y-92352476D01*
X150857449Y-92366517D01*
X150852572Y-92380146D01*
X150846383Y-92393231D01*
X150838942Y-92405647D01*
X150830319Y-92417273D01*
X150820598Y-92427998D01*
X150809873Y-92437719D01*
X150798247Y-92446342D01*
X150785831Y-92453783D01*
X150772746Y-92459972D01*
X150759117Y-92464849D01*
X150745076Y-92468366D01*
X150730758Y-92470490D01*
X150716300Y-92471200D01*
X150421300Y-92471200D01*
X150406842Y-92470490D01*
X150392524Y-92468366D01*
X150378483Y-92464849D01*
X150364854Y-92459972D01*
X150351769Y-92453783D01*
X150339353Y-92446342D01*
X150327727Y-92437719D01*
X150317002Y-92427998D01*
X150307281Y-92417273D01*
X150298658Y-92405647D01*
X150291217Y-92393231D01*
X150285028Y-92380146D01*
X150280151Y-92366517D01*
X150276634Y-92352476D01*
X150274510Y-92338158D01*
X150273800Y-92323700D01*
X150273800Y-91978700D01*
X150274510Y-91964242D01*
X150276634Y-91949924D01*
X150280151Y-91935883D01*
X150285028Y-91922254D01*
X150291217Y-91909169D01*
X150298658Y-91896753D01*
X150307281Y-91885127D01*
X150317002Y-91874402D01*
X150327727Y-91864681D01*
X150339353Y-91856058D01*
X150351769Y-91848617D01*
X150364854Y-91842428D01*
X150378483Y-91837551D01*
X150392524Y-91834034D01*
X150406842Y-91831910D01*
X150421300Y-91831200D01*
X150716300Y-91831200D01*
X150730758Y-91831910D01*
X150730758Y-91831910D01*
G37*
D11*
G04 #@! TD*
G04 #@! TO.P,R16,1*
G04 #@! TO.N,-BATT*
X150568800Y-92151200D03*
D15*
G04 #@! TO.P,U2,1*
G04 #@! TO.N,Net-(C11-Pad1)*
X141833600Y-73050400D03*
G04 #@! TD*
G04 #@! TO.P,U3,1*
G04 #@! TO.N,Net-(C11-Pad2)*
X158140400Y-73050400D03*
G04 #@! TD*
D16*
G04 #@! TO.P,Y1,1*
G04 #@! TO.N,Net-(C6-Pad1)*
X145737400Y-93991000D03*
G04 #@! TO.P,Y1,2*
G04 #@! TO.N,-BATT*
X147937400Y-93991000D03*
G04 #@! TO.P,Y1,3*
G04 #@! TO.N,X0*
X147937400Y-92191000D03*
G04 #@! TO.P,Y1,4*
G04 #@! TO.N,-BATT*
X145737400Y-92191000D03*
G04 #@! TD*
D17*
G04 #@! TO.P,U1,25*
G04 #@! TO.N,-BATT*
X151900000Y-84900000D03*
D18*
X151900000Y-84900000D03*
D19*
G04 #@! TO.P,U1,24*
G04 #@! TO.N,PTB0*
X155550000Y-82400000D03*
G04 #@! TO.P,U1,23*
G04 #@! TO.N,Net-(U1-Pad23)*
X155550000Y-83400000D03*
G04 #@! TO.P,U1,22*
G04 #@! TO.N,Net-(U1-Pad22)*
X155550000Y-84400000D03*
G04 #@! TO.P,U1,21*
G04 #@! TO.N,Net-(U1-Pad21)*
X155550000Y-85400000D03*
G04 #@! TO.P,U1,20*
G04 #@! TO.N,Net-(U1-Pad20)*
X155550000Y-86400000D03*
G04 #@! TO.P,U1,19*
G04 #@! TO.N,Net-(U1-Pad19)*
X155550000Y-87400000D03*
D20*
G04 #@! TO.P,U1,18*
G04 #@! TO.N,PTA3*
X154400000Y-88550000D03*
G04 #@! TO.P,U1,17*
G04 #@! TO.N,LFA*
X153400000Y-88550000D03*
G04 #@! TO.P,U1,16*
G04 #@! TO.N,LFB*
X152400000Y-88550000D03*
G04 #@! TO.P,U1,15*
G04 #@! TO.N,PTA4_BKGD*
X151400000Y-88550000D03*
G04 #@! TO.P,U1,14*
G04 #@! TO.N,X0*
X150400000Y-88550000D03*
D19*
G04 #@! TO.P,U1,12*
G04 #@! TO.N,VREG*
X148250000Y-87400000D03*
G04 #@! TO.P,U1,11*
G04 #@! TO.N,Net-(C1-Pad1)*
X148250000Y-86400000D03*
G04 #@! TO.P,U1,10*
G04 #@! TO.N,-BATT*
X148250000Y-85400000D03*
G04 #@! TO.P,U1,9*
X148250000Y-84400000D03*
G04 #@! TO.P,U1,8*
G04 #@! TO.N,+BATT*
X148250000Y-83400000D03*
G04 #@! TO.P,U1,7*
X148250000Y-82400000D03*
D20*
G04 #@! TO.P,U1,6*
G04 #@! TO.N,-BATT*
X149400000Y-81250000D03*
G04 #@! TO.P,U1,5*
G04 #@! TO.N,RESET*
X150400000Y-81250000D03*
G04 #@! TO.P,U1,4*
G04 #@! TO.N,PTA0*
X151400000Y-81250000D03*
G04 #@! TO.P,U1,3*
G04 #@! TO.N,PTA1*
X152400000Y-81250000D03*
G04 #@! TO.P,U1,2*
G04 #@! TO.N,PTA2*
X153400000Y-81250000D03*
G04 #@! TO.P,U1,1*
G04 #@! TO.N,PTB1*
X154400000Y-81250000D03*
G04 #@! TO.P,U1,13*
G04 #@! TO.N,X1*
X149400000Y-88550000D03*
G04 #@! TD*
D21*
G04 #@! TO.N,+BATT*
X142300000Y-80547600D03*
X147119000Y-81889600D03*
G04 #@! TO.N,-BATT*
X149402800Y-79959200D03*
X145288000Y-96520000D03*
X149860000Y-93472000D03*
X155956000Y-90932000D03*
X146304000Y-87376000D03*
X153600000Y-76100000D03*
G04 #@! TO.N,PTA4_BKGD*
X151384000Y-89916000D03*
X141500000Y-86200000D03*
G04 #@! TO.N,PTA0*
X153924000Y-77724000D03*
G04 #@! TO.N,PTA1*
X153924000Y-78740000D03*
G04 #@! TO.N,PTA2*
X153924000Y-79756000D03*
G04 #@! TO.N,PTB0*
X157480000Y-84328000D03*
G04 #@! TO.N,PTB1*
X158496000Y-84328000D03*
G04 #@! TO.N,RESET*
X146000000Y-75200000D03*
X146659600Y-78638400D03*
X146253200Y-82905600D03*
G04 #@! TD*
D22*
G04 #@! TO.N,+BATT*
X147195400Y-77190600D02*
X147167600Y-77218400D01*
X149502000Y-77190600D02*
X147195400Y-77190600D01*
X145000000Y-77218400D02*
X146100000Y-77218400D01*
X147167600Y-77218400D02*
X146100000Y-77218400D01*
X144647432Y-77552568D02*
X142300000Y-79900000D01*
X145000000Y-77218400D02*
X144665832Y-77552568D01*
X144665832Y-77552568D02*
X144647432Y-77552568D01*
X145281600Y-82152600D02*
X144189400Y-82152600D01*
X142300000Y-79900000D02*
X142300000Y-80300000D01*
X148267400Y-82386800D02*
X148267400Y-83386800D01*
X143154400Y-82152600D02*
X144189400Y-82152600D01*
X142300000Y-80547600D02*
X142300000Y-79900000D01*
X143154400Y-81402000D02*
X142300000Y-80547600D01*
X143154400Y-82152600D02*
X143154400Y-81402000D01*
X147629400Y-82400000D02*
X147119000Y-81889600D01*
X148250000Y-82400000D02*
X147629400Y-82400000D01*
X142300000Y-95190000D02*
X141808200Y-95681800D01*
X142300000Y-80547600D02*
X142300000Y-95190000D01*
G04 #@! TO.N,-BATT*
X146225400Y-91703000D02*
X145737400Y-92191000D01*
X146225400Y-90800000D02*
X146225400Y-91703000D01*
X145281600Y-83122600D02*
X144189400Y-83122600D01*
X145281600Y-84184600D02*
X145256200Y-84210000D01*
X145281600Y-83122600D02*
X145281600Y-84184600D01*
X148267400Y-85386800D02*
X148267400Y-84386800D01*
X144189400Y-83122600D02*
X143154400Y-83122600D01*
X149400000Y-81250000D02*
X149400000Y-79962000D01*
X149400000Y-79962000D02*
X149402800Y-79959200D01*
D23*
X146137400Y-92191000D02*
X147937400Y-93991000D01*
X145737400Y-92191000D02*
X146137400Y-92191000D01*
D22*
X145214200Y-95377000D02*
X145214200Y-96446200D01*
X145214200Y-96446200D02*
X145288000Y-96520000D01*
X150568800Y-92151200D02*
X150568800Y-92763200D01*
X150568800Y-92763200D02*
X149860000Y-93472000D01*
X149341000Y-93991000D02*
X149860000Y-93472000D01*
X147937400Y-93991000D02*
X149341000Y-93991000D01*
X155501200Y-92151200D02*
X155501200Y-91386800D01*
X155501200Y-91386800D02*
X155956000Y-90932000D01*
X157584000Y-88569800D02*
X157584000Y-89304000D01*
X157584000Y-89304000D02*
X155956000Y-90932000D01*
X147135000Y-84210000D02*
X145256200Y-84210000D01*
X148250000Y-84400000D02*
X147325000Y-84400000D01*
X147325000Y-84400000D02*
X147135000Y-84210000D01*
X146227800Y-88569800D02*
X146227800Y-87452200D01*
X146227800Y-87452200D02*
X146304000Y-87376000D01*
X146304000Y-87376000D02*
X145288000Y-87376000D01*
X144189400Y-86277400D02*
X144189400Y-83122600D01*
X145288000Y-87376000D02*
X144189400Y-86277400D01*
X153593800Y-75059400D02*
X153593800Y-76093800D01*
X153593800Y-76093800D02*
X153600000Y-76100000D01*
X153550800Y-76149200D02*
X153600000Y-76100000D01*
X152531800Y-76149200D02*
X153550800Y-76149200D01*
G04 #@! TO.N,Net-(C1-Pad1)*
X146463000Y-86386800D02*
X145256200Y-85180000D01*
X148267400Y-86386800D02*
X146463000Y-86386800D01*
G04 #@! TO.N,VREG*
X147197800Y-88456400D02*
X148267400Y-87386800D01*
X147197800Y-88569800D02*
X147197800Y-88456400D01*
G04 #@! TO.N,Net-(C6-Pad1)*
X145390400Y-94338000D02*
X145737400Y-93991000D01*
X144272000Y-94338000D02*
X145390400Y-94338000D01*
X144272000Y-95349200D02*
X144244200Y-95377000D01*
X144272000Y-94338000D02*
X144272000Y-95349200D01*
G04 #@! TO.N,X0*
X147590400Y-90800000D02*
X147195400Y-90800000D01*
X149079200Y-90800000D02*
X147590400Y-90800000D01*
X150417400Y-89461800D02*
X149079200Y-90800000D01*
X150417400Y-88536800D02*
X150417400Y-89461800D01*
X147937400Y-91542000D02*
X147195400Y-90800000D01*
X147937400Y-92191000D02*
X147937400Y-91542000D01*
G04 #@! TO.N,Net-(C8-Pad1)*
X151559400Y-76146800D02*
X151561800Y-76149200D01*
X151559400Y-75107800D02*
X151559400Y-76146800D01*
X151559400Y-75107800D02*
X150472000Y-75107800D01*
G04 #@! TO.N,Net-(C9-Pad1)*
X153570800Y-74066400D02*
X153593800Y-74089400D01*
X152529400Y-74066400D02*
X153570800Y-74066400D01*
X152529400Y-74066400D02*
X152529400Y-75107800D01*
G04 #@! TO.N,Net-(C10-Pad2)*
X153889600Y-93192600D02*
X153494600Y-93192600D01*
X154490800Y-93192600D02*
X153889600Y-93192600D01*
X158161200Y-96863000D02*
X154490800Y-93192600D01*
X158161200Y-97663000D02*
X158161200Y-96863000D01*
X153494600Y-93192600D02*
X153494600Y-92151200D01*
X153494600Y-92151200D02*
X154531200Y-92151200D01*
X153494600Y-91109800D02*
X153543000Y-91061400D01*
X153494600Y-92151200D02*
X153494600Y-91109800D01*
G04 #@! TO.N,Net-(C10-Pad1)*
X152129600Y-93192600D02*
X152524600Y-93192600D01*
X151731600Y-93192600D02*
X152129600Y-93192600D01*
X148061200Y-96863000D02*
X151731600Y-93192600D01*
X148061200Y-97663000D02*
X148061200Y-96863000D01*
X152524600Y-93192600D02*
X152524600Y-92151200D01*
X152524600Y-92151200D02*
X151538800Y-92151200D01*
X152524600Y-91063800D02*
X152527000Y-91061400D01*
X152524600Y-92151200D02*
X152524600Y-91063800D01*
G04 #@! TO.N,Net-(C11-Pad2)*
X151559400Y-73646400D02*
X151559400Y-74066400D01*
X152155400Y-73050400D02*
X151559400Y-73646400D01*
X158140400Y-73050400D02*
X152155400Y-73050400D01*
X150472000Y-74066400D02*
X151559400Y-74066400D01*
G04 #@! TO.N,Net-(C11-Pad1)*
X142849600Y-74066400D02*
X141833600Y-73050400D01*
X149502000Y-74066400D02*
X142849600Y-74066400D01*
G04 #@! TO.N,PTA4_BKGD*
X151384000Y-88570200D02*
X151417400Y-88536800D01*
X151384000Y-89916000D02*
X151384000Y-88570200D01*
X144665832Y-75914232D02*
X143985768Y-75914232D01*
X145000000Y-76248400D02*
X144665832Y-75914232D01*
X143985768Y-75914232D02*
X142400000Y-77500000D01*
X142400000Y-77500000D02*
X141300000Y-78600000D01*
X141300000Y-78600000D02*
X141300000Y-85900000D01*
X141300000Y-85900000D02*
X141300000Y-86000000D01*
X141300000Y-86000000D02*
X141500000Y-86200000D01*
G04 #@! TO.N,X1*
X149417400Y-88536800D02*
X149417400Y-88834600D01*
X149400000Y-89475000D02*
X149400000Y-88550000D01*
X148959000Y-89916000D02*
X149400000Y-89475000D01*
X145288000Y-89916000D02*
X148959000Y-89916000D01*
X144272000Y-90932000D02*
X145288000Y-89916000D01*
X144272000Y-93368000D02*
X144272000Y-90932000D01*
G04 #@! TO.N,Net-(L3-Pad1)*
X150469600Y-77188200D02*
X150472000Y-77190600D01*
X150469600Y-76149200D02*
X150469600Y-77188200D01*
G04 #@! TO.N,Net-(L4-Pad1)*
X149502000Y-76146800D02*
X149499600Y-76149200D01*
X149502000Y-75107800D02*
X149502000Y-76146800D01*
X147266800Y-76149200D02*
X147167600Y-76248400D01*
X149499600Y-76149200D02*
X147266800Y-76149200D01*
G04 #@! TO.N,PTA0*
X151417400Y-79664915D02*
X151417400Y-81236800D01*
X153924000Y-77724000D02*
X153358315Y-77724000D01*
X153358315Y-77724000D02*
X151417400Y-79664915D01*
G04 #@! TO.N,PTA1*
X152417400Y-80311800D02*
X152417400Y-81236800D01*
X152417400Y-79680915D02*
X152417400Y-80311800D01*
X153358315Y-78740000D02*
X152417400Y-79680915D01*
X153981685Y-78740000D02*
X153416000Y-78740000D01*
G04 #@! TO.N,PTA2*
X153417400Y-80262600D02*
X153417400Y-81236800D01*
X153924000Y-79756000D02*
X153417400Y-80262600D01*
G04 #@! TO.N,PTA3*
X154419800Y-88569800D02*
X154400000Y-88550000D01*
X156614000Y-88569800D02*
X154419800Y-88569800D01*
G04 #@! TO.N,PTB0*
X156492400Y-82386800D02*
X157480000Y-83374400D01*
X155567400Y-82386800D02*
X156492400Y-82386800D01*
X157480000Y-83374400D02*
X157480000Y-84328000D01*
G04 #@! TO.N,PTB1*
X154417400Y-81236800D02*
X156928800Y-81236800D01*
X156928800Y-81236800D02*
X158496000Y-82804000D01*
X158496000Y-82804000D02*
X158496000Y-84328000D01*
G04 #@! TO.N,LFA*
X153543000Y-88662400D02*
X153417400Y-88536800D01*
X153543000Y-90091400D02*
X153543000Y-88662400D01*
G04 #@! TO.N,LFB*
X152527000Y-88646400D02*
X152417400Y-88536800D01*
X152527000Y-90091400D02*
X152527000Y-88646400D01*
G04 #@! TO.N,RESET*
X146100000Y-76248400D02*
X146100000Y-75300000D01*
X146100000Y-75300000D02*
X146000000Y-75200000D01*
X150400000Y-80325000D02*
X150418800Y-80306200D01*
X150400000Y-81250000D02*
X150400000Y-80325000D01*
X150418800Y-80306200D02*
X150418800Y-79705200D01*
X150418800Y-79705200D02*
X149453600Y-78740000D01*
X149453600Y-78740000D02*
X146761200Y-78740000D01*
X146761200Y-78740000D02*
X146659600Y-78638400D01*
X146710400Y-78689200D02*
X146659600Y-78638400D01*
X146253200Y-79044800D02*
X146659600Y-78638400D01*
X146253200Y-82905600D02*
X146253200Y-79044800D01*
G04 #@! TD*
D24*
G04 #@! TO.N,+BATT*
G36*
X140399942Y-70346742D02*
X140349771Y-70421829D01*
X140332153Y-70510400D01*
X140332153Y-75590400D01*
X140349771Y-75678971D01*
X140399942Y-75754058D01*
X140475029Y-75804229D01*
X140563600Y-75821847D01*
X143103600Y-75821847D01*
X143192171Y-75804229D01*
X143267258Y-75754058D01*
X143317429Y-75678971D01*
X143335047Y-75590400D01*
X143335047Y-74543400D01*
X149141236Y-74543400D01*
X149206638Y-74587100D01*
X149086544Y-74667344D01*
X149004399Y-74790283D01*
X148975553Y-74935300D01*
X148975553Y-75280300D01*
X149004399Y-75425317D01*
X149025000Y-75456149D01*
X149025001Y-75672200D01*
X147313771Y-75672200D01*
X147266800Y-75662857D01*
X147219829Y-75672200D01*
X147219825Y-75672200D01*
X147080684Y-75699877D01*
X147047645Y-75721953D01*
X146995100Y-75721953D01*
X146850083Y-75750799D01*
X146727144Y-75832944D01*
X146644999Y-75955883D01*
X146633800Y-76012184D01*
X146622601Y-75955883D01*
X146577000Y-75887636D01*
X146577000Y-75445429D01*
X146627000Y-75324718D01*
X146627000Y-75075282D01*
X146531545Y-74844833D01*
X146355167Y-74668455D01*
X146124718Y-74573000D01*
X145875282Y-74573000D01*
X145644833Y-74668455D01*
X145468455Y-74844833D01*
X145373000Y-75075282D01*
X145373000Y-75324718D01*
X145468455Y-75555167D01*
X145623001Y-75709713D01*
X145623000Y-75887636D01*
X145577399Y-75955883D01*
X145550000Y-76093626D01*
X145522601Y-75955883D01*
X145440456Y-75832944D01*
X145317517Y-75750799D01*
X145172500Y-75721953D01*
X145148132Y-75721953D01*
X145036339Y-75610160D01*
X145009729Y-75570335D01*
X144851948Y-75464909D01*
X144712807Y-75437232D01*
X144712803Y-75437232D01*
X144665832Y-75427889D01*
X144618861Y-75437232D01*
X144032743Y-75437232D01*
X143985768Y-75427888D01*
X143938793Y-75437232D01*
X143799652Y-75464909D01*
X143641871Y-75570335D01*
X143615262Y-75610158D01*
X142095929Y-77129492D01*
X142095926Y-77129494D01*
X140995929Y-78229492D01*
X140956103Y-78256103D01*
X140850677Y-78413885D01*
X140823000Y-78553026D01*
X140823000Y-78553029D01*
X140813657Y-78600000D01*
X140823000Y-78646971D01*
X140823001Y-85853021D01*
X140823000Y-85853026D01*
X140823000Y-85953029D01*
X140813657Y-86000000D01*
X140823000Y-86046971D01*
X140823000Y-86046975D01*
X140850677Y-86186116D01*
X140873000Y-86219525D01*
X140873000Y-86324718D01*
X140968455Y-86555167D01*
X141144833Y-86731545D01*
X141375282Y-86827000D01*
X141624718Y-86827000D01*
X141855167Y-86731545D01*
X142031545Y-86555167D01*
X142127000Y-86324718D01*
X142127000Y-86075282D01*
X142031545Y-85844833D01*
X141855167Y-85668455D01*
X141777000Y-85636077D01*
X141777000Y-82438350D01*
X142199400Y-82438350D01*
X142199400Y-82573909D01*
X142296073Y-82807298D01*
X142474701Y-82985927D01*
X142602953Y-83039051D01*
X142602953Y-83270100D01*
X142631799Y-83415117D01*
X142713944Y-83538056D01*
X142836883Y-83620201D01*
X142981900Y-83649047D01*
X143326900Y-83649047D01*
X143471917Y-83620201D01*
X143502749Y-83599600D01*
X143712401Y-83599600D01*
X143712400Y-86230429D01*
X143703057Y-86277400D01*
X143712400Y-86324371D01*
X143712400Y-86324374D01*
X143740077Y-86463515D01*
X143845503Y-86621297D01*
X143885329Y-86647908D01*
X144917493Y-87680073D01*
X144944103Y-87719897D01*
X145101884Y-87825323D01*
X145241025Y-87853000D01*
X145241028Y-87853000D01*
X145287999Y-87862343D01*
X145334970Y-87853000D01*
X145750801Y-87853000D01*
X145750800Y-88221451D01*
X145730199Y-88252283D01*
X145701353Y-88397300D01*
X145701353Y-88742300D01*
X145730199Y-88887317D01*
X145812344Y-89010256D01*
X145935283Y-89092401D01*
X146080300Y-89121247D01*
X146375300Y-89121247D01*
X146520317Y-89092401D01*
X146643256Y-89010256D01*
X146712800Y-88906176D01*
X146782344Y-89010256D01*
X146905283Y-89092401D01*
X147050300Y-89121247D01*
X147345300Y-89121247D01*
X147490317Y-89092401D01*
X147613256Y-89010256D01*
X147695401Y-88887317D01*
X147724247Y-88742300D01*
X147724247Y-88604532D01*
X148372333Y-87956447D01*
X148675000Y-87956447D01*
X148763571Y-87938829D01*
X148838658Y-87888658D01*
X148888829Y-87813571D01*
X148906447Y-87725000D01*
X148906447Y-87075000D01*
X148888829Y-86986429D01*
X148838658Y-86911342D01*
X148821683Y-86900000D01*
X148838658Y-86888658D01*
X148888829Y-86813571D01*
X148906447Y-86725000D01*
X148906447Y-86075000D01*
X148888829Y-85986429D01*
X148838658Y-85911342D01*
X148821683Y-85900000D01*
X148838658Y-85888658D01*
X148888829Y-85813571D01*
X148906447Y-85725000D01*
X148906447Y-85075000D01*
X148888829Y-84986429D01*
X148838658Y-84911342D01*
X148821683Y-84900000D01*
X148838658Y-84888658D01*
X148888829Y-84813571D01*
X148906447Y-84725000D01*
X148906447Y-84316451D01*
X149034699Y-84263327D01*
X149093553Y-84204473D01*
X149093553Y-87475000D01*
X149111171Y-87563571D01*
X149161342Y-87638658D01*
X149236429Y-87688829D01*
X149325000Y-87706447D01*
X154475000Y-87706447D01*
X154563571Y-87688829D01*
X154638658Y-87638658D01*
X154688829Y-87563571D01*
X154706447Y-87475000D01*
X154706447Y-82325000D01*
X154688829Y-82236429D01*
X154638658Y-82161342D01*
X154563571Y-82111171D01*
X154475000Y-82093553D01*
X149325000Y-82093553D01*
X149310000Y-82096537D01*
X149310000Y-81948691D01*
X149292502Y-81906447D01*
X149725000Y-81906447D01*
X149813571Y-81888829D01*
X149888658Y-81838658D01*
X149900000Y-81821683D01*
X149911342Y-81838658D01*
X149986429Y-81888829D01*
X150075000Y-81906447D01*
X150725000Y-81906447D01*
X150813571Y-81888829D01*
X150888658Y-81838658D01*
X150900000Y-81821683D01*
X150911342Y-81838658D01*
X150986429Y-81888829D01*
X151075000Y-81906447D01*
X151725000Y-81906447D01*
X151813571Y-81888829D01*
X151888658Y-81838658D01*
X151900000Y-81821683D01*
X151911342Y-81838658D01*
X151986429Y-81888829D01*
X152075000Y-81906447D01*
X152725000Y-81906447D01*
X152813571Y-81888829D01*
X152888658Y-81838658D01*
X152900000Y-81821683D01*
X152911342Y-81838658D01*
X152986429Y-81888829D01*
X153075000Y-81906447D01*
X153725000Y-81906447D01*
X153813571Y-81888829D01*
X153888658Y-81838658D01*
X153900000Y-81821683D01*
X153911342Y-81838658D01*
X153986429Y-81888829D01*
X154075000Y-81906447D01*
X154725000Y-81906447D01*
X154813571Y-81888829D01*
X154888658Y-81838658D01*
X154938829Y-81763571D01*
X154948729Y-81713800D01*
X156731221Y-81713800D01*
X158019000Y-83001579D01*
X158019001Y-83918287D01*
X157988000Y-83949288D01*
X157957000Y-83918288D01*
X157957000Y-83421370D01*
X157966343Y-83374399D01*
X157957000Y-83327426D01*
X157957000Y-83327425D01*
X157929323Y-83188284D01*
X157823897Y-83030503D01*
X157784075Y-83003895D01*
X156862908Y-82082729D01*
X156836297Y-82042903D01*
X156678516Y-81937477D01*
X156539375Y-81909800D01*
X156539371Y-81909800D01*
X156492400Y-81900457D01*
X156445429Y-81909800D01*
X156136350Y-81909800D01*
X156063571Y-81861171D01*
X155975000Y-81843553D01*
X155125000Y-81843553D01*
X155036429Y-81861171D01*
X154961342Y-81911342D01*
X154911171Y-81986429D01*
X154893553Y-82075000D01*
X154893553Y-82725000D01*
X154911171Y-82813571D01*
X154961342Y-82888658D01*
X154978317Y-82900000D01*
X154961342Y-82911342D01*
X154911171Y-82986429D01*
X154893553Y-83075000D01*
X154893553Y-83725000D01*
X154911171Y-83813571D01*
X154961342Y-83888658D01*
X154978317Y-83900000D01*
X154961342Y-83911342D01*
X154911171Y-83986429D01*
X154893553Y-84075000D01*
X154893553Y-84725000D01*
X154911171Y-84813571D01*
X154961342Y-84888658D01*
X154978317Y-84900000D01*
X154961342Y-84911342D01*
X154911171Y-84986429D01*
X154893553Y-85075000D01*
X154893553Y-85725000D01*
X154911171Y-85813571D01*
X154961342Y-85888658D01*
X154978317Y-85900000D01*
X154961342Y-85911342D01*
X154911171Y-85986429D01*
X154893553Y-86075000D01*
X154893553Y-86725000D01*
X154911171Y-86813571D01*
X154961342Y-86888658D01*
X154978317Y-86900000D01*
X154961342Y-86911342D01*
X154911171Y-86986429D01*
X154893553Y-87075000D01*
X154893553Y-87725000D01*
X154911171Y-87813571D01*
X154961342Y-87888658D01*
X155036429Y-87938829D01*
X155125000Y-87956447D01*
X155975000Y-87956447D01*
X156063571Y-87938829D01*
X156138658Y-87888658D01*
X156188829Y-87813571D01*
X156206447Y-87725000D01*
X156206447Y-87075000D01*
X156188829Y-86986429D01*
X156138658Y-86911342D01*
X156121683Y-86900000D01*
X156138658Y-86888658D01*
X156188829Y-86813571D01*
X156206447Y-86725000D01*
X156206447Y-86075000D01*
X156188829Y-85986429D01*
X156138658Y-85911342D01*
X156121683Y-85900000D01*
X156138658Y-85888658D01*
X156188829Y-85813571D01*
X156206447Y-85725000D01*
X156206447Y-85075000D01*
X156188829Y-84986429D01*
X156138658Y-84911342D01*
X156121683Y-84900000D01*
X156138658Y-84888658D01*
X156188829Y-84813571D01*
X156206447Y-84725000D01*
X156206447Y-84075000D01*
X156188829Y-83986429D01*
X156138658Y-83911342D01*
X156121683Y-83900000D01*
X156138658Y-83888658D01*
X156188829Y-83813571D01*
X156206447Y-83725000D01*
X156206447Y-83075000D01*
X156188829Y-82986429D01*
X156138658Y-82911342D01*
X156121683Y-82900000D01*
X156138658Y-82888658D01*
X156155267Y-82863800D01*
X156294821Y-82863800D01*
X157003000Y-83571980D01*
X157003001Y-83918287D01*
X156948455Y-83972833D01*
X156853000Y-84203282D01*
X156853000Y-84452718D01*
X156948455Y-84683167D01*
X157124833Y-84859545D01*
X157355282Y-84955000D01*
X157604718Y-84955000D01*
X157835167Y-84859545D01*
X157988000Y-84706712D01*
X158140833Y-84859545D01*
X158371282Y-84955000D01*
X158620718Y-84955000D01*
X158851167Y-84859545D01*
X159027545Y-84683167D01*
X159123000Y-84452718D01*
X159123000Y-84203282D01*
X159027545Y-83972833D01*
X158973000Y-83918288D01*
X158973000Y-82850969D01*
X158982343Y-82803999D01*
X158973000Y-82757029D01*
X158973000Y-82757025D01*
X158945323Y-82617884D01*
X158839897Y-82460103D01*
X158800072Y-82433493D01*
X157299308Y-80932729D01*
X157272697Y-80892903D01*
X157114916Y-80787477D01*
X156975775Y-80759800D01*
X156975771Y-80759800D01*
X156928800Y-80750457D01*
X156881829Y-80759800D01*
X154943478Y-80759800D01*
X154938829Y-80736429D01*
X154888658Y-80661342D01*
X154813571Y-80611171D01*
X154725000Y-80593553D01*
X154075000Y-80593553D01*
X153986429Y-80611171D01*
X153911342Y-80661342D01*
X153900000Y-80678317D01*
X153894400Y-80669936D01*
X153894400Y-80460179D01*
X153971579Y-80383000D01*
X154048718Y-80383000D01*
X154279167Y-80287545D01*
X154455545Y-80111167D01*
X154551000Y-79880718D01*
X154551000Y-79631282D01*
X154455545Y-79400833D01*
X154302712Y-79248000D01*
X154455545Y-79095167D01*
X154551000Y-78864718D01*
X154551000Y-78615282D01*
X154455545Y-78384833D01*
X154302712Y-78232000D01*
X154455545Y-78079167D01*
X154551000Y-77848718D01*
X154551000Y-77599282D01*
X154455545Y-77368833D01*
X154279167Y-77192455D01*
X154048718Y-77097000D01*
X153799282Y-77097000D01*
X153568833Y-77192455D01*
X153514288Y-77247000D01*
X153405285Y-77247000D01*
X153358314Y-77237657D01*
X153311343Y-77247000D01*
X153311340Y-77247000D01*
X153172199Y-77274677D01*
X153014418Y-77380103D01*
X152987809Y-77419926D01*
X151113329Y-79294407D01*
X151073503Y-79321018D01*
X150968077Y-79478800D01*
X150940400Y-79617941D01*
X150940400Y-79617944D01*
X150931057Y-79664915D01*
X150940400Y-79711886D01*
X150940401Y-80641926D01*
X150911342Y-80661342D01*
X150900000Y-80678317D01*
X150888658Y-80661342D01*
X150877000Y-80653552D01*
X150877000Y-80447689D01*
X150895800Y-80353175D01*
X150895800Y-80353172D01*
X150905143Y-80306201D01*
X150895800Y-80259230D01*
X150895800Y-79752171D01*
X150905143Y-79705200D01*
X150895800Y-79658229D01*
X150895800Y-79658225D01*
X150868123Y-79519084D01*
X150762697Y-79361303D01*
X150722874Y-79334694D01*
X149824108Y-78435929D01*
X149797497Y-78396103D01*
X149639716Y-78290677D01*
X149500575Y-78263000D01*
X149500571Y-78263000D01*
X149453600Y-78253657D01*
X149406629Y-78263000D01*
X147170912Y-78263000D01*
X147014767Y-78106855D01*
X146950157Y-78080093D01*
X147040600Y-77989650D01*
X147040600Y-77674474D01*
X147055000Y-77639709D01*
X147055000Y-77504150D01*
X147040600Y-77489750D01*
X147040600Y-77345400D01*
X147294600Y-77345400D01*
X147294600Y-77989650D01*
X147453350Y-78148400D01*
X147613910Y-78148400D01*
X147847299Y-78051727D01*
X148025927Y-77873098D01*
X148122600Y-77639709D01*
X148122600Y-77504150D01*
X148094800Y-77476350D01*
X148572000Y-77476350D01*
X148572000Y-77636910D01*
X148668673Y-77870299D01*
X148847302Y-78048927D01*
X149080691Y-78145600D01*
X149216250Y-78145600D01*
X149375000Y-77986850D01*
X149375000Y-77317600D01*
X148730750Y-77317600D01*
X148572000Y-77476350D01*
X148094800Y-77476350D01*
X147963850Y-77345400D01*
X147294600Y-77345400D01*
X147040600Y-77345400D01*
X146227000Y-77345400D01*
X146227000Y-77489750D01*
X146212600Y-77504150D01*
X146212600Y-77639709D01*
X146227000Y-77674474D01*
X146227000Y-77989650D01*
X146332556Y-78095206D01*
X146304433Y-78106855D01*
X146128055Y-78283233D01*
X146032600Y-78513682D01*
X146032600Y-78590821D01*
X145949127Y-78674294D01*
X145909304Y-78700903D01*
X145882695Y-78740726D01*
X145882694Y-78740727D01*
X145803877Y-78858685D01*
X145766857Y-79044800D01*
X145776201Y-79091776D01*
X145776200Y-81242603D01*
X145727910Y-81222600D01*
X145567350Y-81222600D01*
X145408600Y-81381350D01*
X145408600Y-82025600D01*
X145428600Y-82025600D01*
X145428600Y-82279600D01*
X145408600Y-82279600D01*
X145408600Y-82299600D01*
X145154600Y-82299600D01*
X145154600Y-82279600D01*
X144316400Y-82279600D01*
X144316400Y-82299600D01*
X144062400Y-82299600D01*
X144062400Y-82279600D01*
X143281400Y-82279600D01*
X143281400Y-82299600D01*
X143027400Y-82299600D01*
X143027400Y-82279600D01*
X142358150Y-82279600D01*
X142199400Y-82438350D01*
X141777000Y-82438350D01*
X141777000Y-81731291D01*
X142199400Y-81731291D01*
X142199400Y-81866850D01*
X142358150Y-82025600D01*
X143027400Y-82025600D01*
X143027400Y-81731291D01*
X143234400Y-81731291D01*
X143234400Y-81866850D01*
X143281400Y-81913850D01*
X143281400Y-82025600D01*
X144062400Y-82025600D01*
X144062400Y-81913850D01*
X144109400Y-81866850D01*
X144109400Y-81731291D01*
X144062400Y-81617823D01*
X144062400Y-81381350D01*
X144316400Y-81381350D01*
X144316400Y-82025600D01*
X145154600Y-82025600D01*
X145154600Y-81381350D01*
X144995850Y-81222600D01*
X144835290Y-81222600D01*
X144735500Y-81263934D01*
X144635710Y-81222600D01*
X144475150Y-81222600D01*
X144316400Y-81381350D01*
X144062400Y-81381350D01*
X143903650Y-81222600D01*
X143743090Y-81222600D01*
X143671900Y-81252088D01*
X143600710Y-81222600D01*
X143440150Y-81222600D01*
X143281400Y-81381350D01*
X143281400Y-81617823D01*
X143234400Y-81731291D01*
X143027400Y-81731291D01*
X143027400Y-81381350D01*
X142868650Y-81222600D01*
X142708090Y-81222600D01*
X142474701Y-81319273D01*
X142296073Y-81497902D01*
X142199400Y-81731291D01*
X141777000Y-81731291D01*
X141777000Y-78797579D01*
X142770506Y-77804074D01*
X142770508Y-77804071D01*
X143070429Y-77504150D01*
X144045000Y-77504150D01*
X144045000Y-77639709D01*
X144141673Y-77873098D01*
X144320301Y-78051727D01*
X144553690Y-78148400D01*
X144714250Y-78148400D01*
X144873000Y-77989650D01*
X144873000Y-77345400D01*
X145127000Y-77345400D01*
X145127000Y-77989650D01*
X145285750Y-78148400D01*
X145446310Y-78148400D01*
X145550000Y-78105450D01*
X145653690Y-78148400D01*
X145814250Y-78148400D01*
X145973000Y-77989650D01*
X145973000Y-77345400D01*
X145127000Y-77345400D01*
X144873000Y-77345400D01*
X144203750Y-77345400D01*
X144045000Y-77504150D01*
X143070429Y-77504150D01*
X144183348Y-76391232D01*
X144314142Y-76391232D01*
X144141673Y-76563702D01*
X144045000Y-76797091D01*
X144045000Y-76932650D01*
X144203750Y-77091400D01*
X144873000Y-77091400D01*
X144873000Y-77071400D01*
X145127000Y-77071400D01*
X145127000Y-77091400D01*
X145973000Y-77091400D01*
X145973000Y-77071400D01*
X146227000Y-77071400D01*
X146227000Y-77091400D01*
X147040600Y-77091400D01*
X147040600Y-77071400D01*
X147294600Y-77071400D01*
X147294600Y-77091400D01*
X147963850Y-77091400D01*
X148122600Y-76932650D01*
X148122600Y-76797091D01*
X148051815Y-76626200D01*
X148620915Y-76626200D01*
X148572000Y-76744290D01*
X148572000Y-76904850D01*
X148730750Y-77063600D01*
X149375000Y-77063600D01*
X149375000Y-77043600D01*
X149629000Y-77043600D01*
X149629000Y-77063600D01*
X149649000Y-77063600D01*
X149649000Y-77317600D01*
X149629000Y-77317600D01*
X149629000Y-77986850D01*
X149787750Y-78145600D01*
X149923309Y-78145600D01*
X150156698Y-78048927D01*
X150335327Y-77870299D01*
X150388451Y-77742047D01*
X150619500Y-77742047D01*
X150764517Y-77713201D01*
X150887456Y-77631056D01*
X150969601Y-77508117D01*
X150998447Y-77363100D01*
X150998447Y-77018100D01*
X150969601Y-76873083D01*
X150946600Y-76838659D01*
X150946600Y-76497549D01*
X150967201Y-76466717D01*
X150996047Y-76321700D01*
X150996047Y-75976700D01*
X150967201Y-75831683D01*
X150885056Y-75708744D01*
X150766162Y-75629302D01*
X150832764Y-75584800D01*
X151082400Y-75584800D01*
X151082401Y-75804442D01*
X151064199Y-75831683D01*
X151035353Y-75976700D01*
X151035353Y-76321700D01*
X151064199Y-76466717D01*
X151146344Y-76589656D01*
X151269283Y-76671801D01*
X151414300Y-76700647D01*
X151709300Y-76700647D01*
X151854317Y-76671801D01*
X151977256Y-76589656D01*
X152046800Y-76485576D01*
X152116344Y-76589656D01*
X152239283Y-76671801D01*
X152384300Y-76700647D01*
X152679300Y-76700647D01*
X152824317Y-76671801D01*
X152892564Y-76626200D01*
X153239488Y-76626200D01*
X153244833Y-76631545D01*
X153475282Y-76727000D01*
X153724718Y-76727000D01*
X153955167Y-76631545D01*
X154131545Y-76455167D01*
X154227000Y-76224718D01*
X154227000Y-75975282D01*
X154131545Y-75744833D01*
X154070800Y-75684088D01*
X154070800Y-75420164D01*
X154116401Y-75351917D01*
X154145247Y-75206900D01*
X154145247Y-74911900D01*
X154116401Y-74766883D01*
X154034256Y-74643944D01*
X153930176Y-74574400D01*
X154034256Y-74504856D01*
X154116401Y-74381917D01*
X154145247Y-74236900D01*
X154145247Y-73941900D01*
X154116401Y-73796883D01*
X154034256Y-73673944D01*
X153911317Y-73591799D01*
X153766300Y-73562953D01*
X153421300Y-73562953D01*
X153288343Y-73589400D01*
X152890164Y-73589400D01*
X152821917Y-73543799D01*
X152739475Y-73527400D01*
X156638953Y-73527400D01*
X156638953Y-75590400D01*
X156656571Y-75678971D01*
X156706742Y-75754058D01*
X156781829Y-75804229D01*
X156870400Y-75821847D01*
X159410400Y-75821847D01*
X159498971Y-75804229D01*
X159574058Y-75754058D01*
X159624229Y-75678971D01*
X159641847Y-75590400D01*
X159641847Y-70510400D01*
X159624229Y-70421829D01*
X159574058Y-70346742D01*
X159507096Y-70302000D01*
X159698001Y-70302000D01*
X159698000Y-99698000D01*
X140302000Y-99698000D01*
X140302000Y-95967550D01*
X140323200Y-95967550D01*
X140323200Y-96658110D01*
X140419873Y-96891499D01*
X140598502Y-97070127D01*
X140831891Y-97166800D01*
X141522450Y-97166800D01*
X141681198Y-97008052D01*
X141681198Y-97148963D01*
X141387976Y-97207289D01*
X141031727Y-97445327D01*
X140793689Y-97801576D01*
X140710101Y-98221800D01*
X140793689Y-98642024D01*
X141031727Y-98998273D01*
X141387976Y-99236311D01*
X141702128Y-99298800D01*
X141914272Y-99298800D01*
X142228424Y-99236311D01*
X142584673Y-98998273D01*
X142822711Y-98642024D01*
X142906299Y-98221800D01*
X142822711Y-97801576D01*
X142584673Y-97445327D01*
X142228424Y-97207289D01*
X141935202Y-97148963D01*
X141935202Y-97008052D01*
X142093950Y-97166800D01*
X142784509Y-97166800D01*
X143017898Y-97070127D01*
X143196527Y-96891499D01*
X143293200Y-96658110D01*
X143293200Y-95967550D01*
X143134450Y-95808800D01*
X141935200Y-95808800D01*
X141935200Y-95828800D01*
X141681200Y-95828800D01*
X141681200Y-95808800D01*
X140481950Y-95808800D01*
X140323200Y-95967550D01*
X140302000Y-95967550D01*
X140302000Y-94705490D01*
X140323200Y-94705490D01*
X140323200Y-95396050D01*
X140481950Y-95554800D01*
X141681200Y-95554800D01*
X141681200Y-94355550D01*
X141935200Y-94355550D01*
X141935200Y-95554800D01*
X143134450Y-95554800D01*
X143293200Y-95396050D01*
X143293200Y-95204500D01*
X143717753Y-95204500D01*
X143717753Y-95549500D01*
X143746599Y-95694517D01*
X143828744Y-95817456D01*
X143951683Y-95899601D01*
X144096700Y-95928447D01*
X144391700Y-95928447D01*
X144536717Y-95899601D01*
X144659656Y-95817456D01*
X144729200Y-95713376D01*
X144737200Y-95725349D01*
X144737201Y-96211317D01*
X144661000Y-96395282D01*
X144661000Y-96644718D01*
X144756455Y-96875167D01*
X144932833Y-97051545D01*
X145163282Y-97147000D01*
X145412718Y-97147000D01*
X145643167Y-97051545D01*
X145819545Y-96875167D01*
X145915000Y-96644718D01*
X145915000Y-96395282D01*
X145819545Y-96164833D01*
X145691200Y-96036488D01*
X145691200Y-95725349D01*
X145711801Y-95694517D01*
X145740647Y-95549500D01*
X145740647Y-95204500D01*
X145711801Y-95059483D01*
X145629656Y-94936544D01*
X145506717Y-94854399D01*
X145361700Y-94825553D01*
X145066700Y-94825553D01*
X144921683Y-94854399D01*
X144798744Y-94936544D01*
X144749000Y-95010991D01*
X144749000Y-94815000D01*
X145343429Y-94815000D01*
X145390400Y-94824343D01*
X145437371Y-94815000D01*
X145437375Y-94815000D01*
X145576516Y-94787323D01*
X145673610Y-94722447D01*
X146387400Y-94722447D01*
X146475971Y-94704829D01*
X146551058Y-94654658D01*
X146601229Y-94579571D01*
X146618847Y-94491000D01*
X146618847Y-93491000D01*
X146601229Y-93402429D01*
X146551058Y-93327342D01*
X146475971Y-93277171D01*
X146387400Y-93259553D01*
X145087400Y-93259553D01*
X144998829Y-93277171D01*
X144923742Y-93327342D01*
X144873571Y-93402429D01*
X144855953Y-93491000D01*
X144855953Y-93861000D01*
X144620349Y-93861000D01*
X144608376Y-93853000D01*
X144712456Y-93783456D01*
X144794601Y-93660517D01*
X144823447Y-93515500D01*
X144823447Y-93220500D01*
X144794601Y-93075483D01*
X144749000Y-93007236D01*
X144749000Y-91129579D01*
X145485580Y-90393000D01*
X145787589Y-90393000D01*
X145727799Y-90482483D01*
X145698953Y-90627500D01*
X145698953Y-90972500D01*
X145727799Y-91117517D01*
X145748400Y-91148349D01*
X145748401Y-91459553D01*
X145087400Y-91459553D01*
X144998829Y-91477171D01*
X144923742Y-91527342D01*
X144873571Y-91602429D01*
X144855953Y-91691000D01*
X144855953Y-92691000D01*
X144873571Y-92779571D01*
X144923742Y-92854658D01*
X144998829Y-92904829D01*
X145087400Y-92922447D01*
X146335689Y-92922447D01*
X147055953Y-93642712D01*
X147055953Y-94491000D01*
X147073571Y-94579571D01*
X147123742Y-94654658D01*
X147198829Y-94704829D01*
X147287400Y-94722447D01*
X148587400Y-94722447D01*
X148675971Y-94704829D01*
X148751058Y-94654658D01*
X148801229Y-94579571D01*
X148818847Y-94491000D01*
X148818847Y-94468000D01*
X149294029Y-94468000D01*
X149341000Y-94477343D01*
X149387971Y-94468000D01*
X149387975Y-94468000D01*
X149527116Y-94440323D01*
X149684897Y-94334897D01*
X149711507Y-94295072D01*
X149907579Y-94099000D01*
X149984718Y-94099000D01*
X150215167Y-94003545D01*
X150391545Y-93827167D01*
X150487000Y-93596718D01*
X150487000Y-93519579D01*
X150872874Y-93133706D01*
X150912697Y-93107097D01*
X151018123Y-92949316D01*
X151038873Y-92845000D01*
X151055144Y-92763200D01*
X151045800Y-92716225D01*
X151045800Y-92499549D01*
X151053800Y-92487576D01*
X151123344Y-92591656D01*
X151246283Y-92673801D01*
X151391300Y-92702647D01*
X151686300Y-92702647D01*
X151831317Y-92673801D01*
X151899564Y-92628200D01*
X152047601Y-92628200D01*
X152047600Y-92715600D01*
X151778569Y-92715600D01*
X151731599Y-92706257D01*
X151684629Y-92715600D01*
X151684625Y-92715600D01*
X151545484Y-92743277D01*
X151387703Y-92848703D01*
X151361092Y-92888529D01*
X148418068Y-95831553D01*
X147261200Y-95831553D01*
X147172629Y-95849171D01*
X147097542Y-95899342D01*
X147047371Y-95974429D01*
X147029753Y-96063000D01*
X147029753Y-99263000D01*
X147047371Y-99351571D01*
X147097542Y-99426658D01*
X147172629Y-99476829D01*
X147261200Y-99494447D01*
X148861200Y-99494447D01*
X148949771Y-99476829D01*
X149024858Y-99426658D01*
X149075029Y-99351571D01*
X149092647Y-99263000D01*
X149092647Y-96506132D01*
X151929179Y-93669600D01*
X152163836Y-93669600D01*
X152232083Y-93715201D01*
X152377100Y-93744047D01*
X152672100Y-93744047D01*
X152817117Y-93715201D01*
X152940056Y-93633056D01*
X153009600Y-93528976D01*
X153079144Y-93633056D01*
X153202083Y-93715201D01*
X153347100Y-93744047D01*
X153642100Y-93744047D01*
X153787117Y-93715201D01*
X153855364Y-93669600D01*
X154293221Y-93669600D01*
X157129753Y-96506132D01*
X157129753Y-99263000D01*
X157147371Y-99351571D01*
X157197542Y-99426658D01*
X157272629Y-99476829D01*
X157361200Y-99494447D01*
X158961200Y-99494447D01*
X159049771Y-99476829D01*
X159124858Y-99426658D01*
X159175029Y-99351571D01*
X159192647Y-99263000D01*
X159192647Y-96063000D01*
X159175029Y-95974429D01*
X159124858Y-95899342D01*
X159049771Y-95849171D01*
X158961200Y-95831553D01*
X157804332Y-95831553D01*
X154861308Y-92888529D01*
X154834697Y-92848703D01*
X154676916Y-92743277D01*
X154537775Y-92715600D01*
X154537771Y-92715600D01*
X154490800Y-92706257D01*
X154443829Y-92715600D01*
X153971600Y-92715600D01*
X153971600Y-92628200D01*
X154170436Y-92628200D01*
X154238683Y-92673801D01*
X154383700Y-92702647D01*
X154678700Y-92702647D01*
X154823717Y-92673801D01*
X154946656Y-92591656D01*
X155016200Y-92487576D01*
X155085744Y-92591656D01*
X155208683Y-92673801D01*
X155353700Y-92702647D01*
X155648700Y-92702647D01*
X155793717Y-92673801D01*
X155916656Y-92591656D01*
X155998801Y-92468717D01*
X156027647Y-92323700D01*
X156027647Y-91978700D01*
X155998801Y-91833683D01*
X155978200Y-91802851D01*
X155978200Y-91584379D01*
X156003579Y-91559000D01*
X156080718Y-91559000D01*
X156311167Y-91463545D01*
X156487545Y-91287167D01*
X156583000Y-91056718D01*
X156583000Y-90979579D01*
X157888074Y-89674506D01*
X157927897Y-89647897D01*
X157983319Y-89564953D01*
X158033323Y-89490116D01*
X158070344Y-89304000D01*
X158061000Y-89257025D01*
X158061000Y-88918149D01*
X158081601Y-88887317D01*
X158110447Y-88742300D01*
X158110447Y-88397300D01*
X158081601Y-88252283D01*
X157999456Y-88129344D01*
X157876517Y-88047199D01*
X157731500Y-88018353D01*
X157436500Y-88018353D01*
X157291483Y-88047199D01*
X157168544Y-88129344D01*
X157099000Y-88233424D01*
X157029456Y-88129344D01*
X156906517Y-88047199D01*
X156761500Y-88018353D01*
X156466500Y-88018353D01*
X156321483Y-88047199D01*
X156253236Y-88092800D01*
X154950042Y-88092800D01*
X154938829Y-88036429D01*
X154888658Y-87961342D01*
X154813571Y-87911171D01*
X154725000Y-87893553D01*
X154075000Y-87893553D01*
X153986429Y-87911171D01*
X153911342Y-87961342D01*
X153900000Y-87978317D01*
X153888658Y-87961342D01*
X153813571Y-87911171D01*
X153725000Y-87893553D01*
X153075000Y-87893553D01*
X152986429Y-87911171D01*
X152911342Y-87961342D01*
X152900000Y-87978317D01*
X152888658Y-87961342D01*
X152813571Y-87911171D01*
X152725000Y-87893553D01*
X152075000Y-87893553D01*
X151986429Y-87911171D01*
X151911342Y-87961342D01*
X151900000Y-87978317D01*
X151888658Y-87961342D01*
X151813571Y-87911171D01*
X151725000Y-87893553D01*
X151075000Y-87893553D01*
X150986429Y-87911171D01*
X150911342Y-87961342D01*
X150900000Y-87978317D01*
X150888658Y-87961342D01*
X150813571Y-87911171D01*
X150725000Y-87893553D01*
X150075000Y-87893553D01*
X149986429Y-87911171D01*
X149911342Y-87961342D01*
X149900000Y-87978317D01*
X149888658Y-87961342D01*
X149813571Y-87911171D01*
X149725000Y-87893553D01*
X149075000Y-87893553D01*
X148986429Y-87911171D01*
X148911342Y-87961342D01*
X148861171Y-88036429D01*
X148843553Y-88125000D01*
X148843553Y-88975000D01*
X148861171Y-89063571D01*
X148911342Y-89138658D01*
X148923000Y-89146448D01*
X148923000Y-89277420D01*
X148761421Y-89439000D01*
X145334971Y-89439000D01*
X145288000Y-89429657D01*
X145241029Y-89439000D01*
X145241025Y-89439000D01*
X145101884Y-89466677D01*
X144944103Y-89572103D01*
X144917494Y-89611926D01*
X143967927Y-90561494D01*
X143928104Y-90588103D01*
X143901495Y-90627926D01*
X143901494Y-90627927D01*
X143822677Y-90745885D01*
X143785657Y-90932000D01*
X143795001Y-90978976D01*
X143795000Y-93007236D01*
X143749399Y-93075483D01*
X143720553Y-93220500D01*
X143720553Y-93515500D01*
X143749399Y-93660517D01*
X143831544Y-93783456D01*
X143935624Y-93853000D01*
X143831544Y-93922544D01*
X143749399Y-94045483D01*
X143720553Y-94190500D01*
X143720553Y-94485500D01*
X143749399Y-94630517D01*
X143795000Y-94698764D01*
X143795001Y-94987045D01*
X143746599Y-95059483D01*
X143717753Y-95204500D01*
X143293200Y-95204500D01*
X143293200Y-94705490D01*
X143196527Y-94472101D01*
X143017898Y-94293473D01*
X142784509Y-94196800D01*
X142093950Y-94196800D01*
X141935200Y-94355550D01*
X141681200Y-94355550D01*
X141522450Y-94196800D01*
X140831891Y-94196800D01*
X140598502Y-94293473D01*
X140419873Y-94472101D01*
X140323200Y-94705490D01*
X140302000Y-94705490D01*
X140302000Y-70302000D01*
X140466904Y-70302000D01*
X140399942Y-70346742D01*
X140399942Y-70346742D01*
G37*
X140399942Y-70346742D02*
X140349771Y-70421829D01*
X140332153Y-70510400D01*
X140332153Y-75590400D01*
X140349771Y-75678971D01*
X140399942Y-75754058D01*
X140475029Y-75804229D01*
X140563600Y-75821847D01*
X143103600Y-75821847D01*
X143192171Y-75804229D01*
X143267258Y-75754058D01*
X143317429Y-75678971D01*
X143335047Y-75590400D01*
X143335047Y-74543400D01*
X149141236Y-74543400D01*
X149206638Y-74587100D01*
X149086544Y-74667344D01*
X149004399Y-74790283D01*
X148975553Y-74935300D01*
X148975553Y-75280300D01*
X149004399Y-75425317D01*
X149025000Y-75456149D01*
X149025001Y-75672200D01*
X147313771Y-75672200D01*
X147266800Y-75662857D01*
X147219829Y-75672200D01*
X147219825Y-75672200D01*
X147080684Y-75699877D01*
X147047645Y-75721953D01*
X146995100Y-75721953D01*
X146850083Y-75750799D01*
X146727144Y-75832944D01*
X146644999Y-75955883D01*
X146633800Y-76012184D01*
X146622601Y-75955883D01*
X146577000Y-75887636D01*
X146577000Y-75445429D01*
X146627000Y-75324718D01*
X146627000Y-75075282D01*
X146531545Y-74844833D01*
X146355167Y-74668455D01*
X146124718Y-74573000D01*
X145875282Y-74573000D01*
X145644833Y-74668455D01*
X145468455Y-74844833D01*
X145373000Y-75075282D01*
X145373000Y-75324718D01*
X145468455Y-75555167D01*
X145623001Y-75709713D01*
X145623000Y-75887636D01*
X145577399Y-75955883D01*
X145550000Y-76093626D01*
X145522601Y-75955883D01*
X145440456Y-75832944D01*
X145317517Y-75750799D01*
X145172500Y-75721953D01*
X145148132Y-75721953D01*
X145036339Y-75610160D01*
X145009729Y-75570335D01*
X144851948Y-75464909D01*
X144712807Y-75437232D01*
X144712803Y-75437232D01*
X144665832Y-75427889D01*
X144618861Y-75437232D01*
X144032743Y-75437232D01*
X143985768Y-75427888D01*
X143938793Y-75437232D01*
X143799652Y-75464909D01*
X143641871Y-75570335D01*
X143615262Y-75610158D01*
X142095929Y-77129492D01*
X142095926Y-77129494D01*
X140995929Y-78229492D01*
X140956103Y-78256103D01*
X140850677Y-78413885D01*
X140823000Y-78553026D01*
X140823000Y-78553029D01*
X140813657Y-78600000D01*
X140823000Y-78646971D01*
X140823001Y-85853021D01*
X140823000Y-85853026D01*
X140823000Y-85953029D01*
X140813657Y-86000000D01*
X140823000Y-86046971D01*
X140823000Y-86046975D01*
X140850677Y-86186116D01*
X140873000Y-86219525D01*
X140873000Y-86324718D01*
X140968455Y-86555167D01*
X141144833Y-86731545D01*
X141375282Y-86827000D01*
X141624718Y-86827000D01*
X141855167Y-86731545D01*
X142031545Y-86555167D01*
X142127000Y-86324718D01*
X142127000Y-86075282D01*
X142031545Y-85844833D01*
X141855167Y-85668455D01*
X141777000Y-85636077D01*
X141777000Y-82438350D01*
X142199400Y-82438350D01*
X142199400Y-82573909D01*
X142296073Y-82807298D01*
X142474701Y-82985927D01*
X142602953Y-83039051D01*
X142602953Y-83270100D01*
X142631799Y-83415117D01*
X142713944Y-83538056D01*
X142836883Y-83620201D01*
X142981900Y-83649047D01*
X143326900Y-83649047D01*
X143471917Y-83620201D01*
X143502749Y-83599600D01*
X143712401Y-83599600D01*
X143712400Y-86230429D01*
X143703057Y-86277400D01*
X143712400Y-86324371D01*
X143712400Y-86324374D01*
X143740077Y-86463515D01*
X143845503Y-86621297D01*
X143885329Y-86647908D01*
X144917493Y-87680073D01*
X144944103Y-87719897D01*
X145101884Y-87825323D01*
X145241025Y-87853000D01*
X145241028Y-87853000D01*
X145287999Y-87862343D01*
X145334970Y-87853000D01*
X145750801Y-87853000D01*
X145750800Y-88221451D01*
X145730199Y-88252283D01*
X145701353Y-88397300D01*
X145701353Y-88742300D01*
X145730199Y-88887317D01*
X145812344Y-89010256D01*
X145935283Y-89092401D01*
X146080300Y-89121247D01*
X146375300Y-89121247D01*
X146520317Y-89092401D01*
X146643256Y-89010256D01*
X146712800Y-88906176D01*
X146782344Y-89010256D01*
X146905283Y-89092401D01*
X147050300Y-89121247D01*
X147345300Y-89121247D01*
X147490317Y-89092401D01*
X147613256Y-89010256D01*
X147695401Y-88887317D01*
X147724247Y-88742300D01*
X147724247Y-88604532D01*
X148372333Y-87956447D01*
X148675000Y-87956447D01*
X148763571Y-87938829D01*
X148838658Y-87888658D01*
X148888829Y-87813571D01*
X148906447Y-87725000D01*
X148906447Y-87075000D01*
X148888829Y-86986429D01*
X148838658Y-86911342D01*
X148821683Y-86900000D01*
X148838658Y-86888658D01*
X148888829Y-86813571D01*
X148906447Y-86725000D01*
X148906447Y-86075000D01*
X148888829Y-85986429D01*
X148838658Y-85911342D01*
X148821683Y-85900000D01*
X148838658Y-85888658D01*
X148888829Y-85813571D01*
X148906447Y-85725000D01*
X148906447Y-85075000D01*
X148888829Y-84986429D01*
X148838658Y-84911342D01*
X148821683Y-84900000D01*
X148838658Y-84888658D01*
X148888829Y-84813571D01*
X148906447Y-84725000D01*
X148906447Y-84316451D01*
X149034699Y-84263327D01*
X149093553Y-84204473D01*
X149093553Y-87475000D01*
X149111171Y-87563571D01*
X149161342Y-87638658D01*
X149236429Y-87688829D01*
X149325000Y-87706447D01*
X154475000Y-87706447D01*
X154563571Y-87688829D01*
X154638658Y-87638658D01*
X154688829Y-87563571D01*
X154706447Y-87475000D01*
X154706447Y-82325000D01*
X154688829Y-82236429D01*
X154638658Y-82161342D01*
X154563571Y-82111171D01*
X154475000Y-82093553D01*
X149325000Y-82093553D01*
X149310000Y-82096537D01*
X149310000Y-81948691D01*
X149292502Y-81906447D01*
X149725000Y-81906447D01*
X149813571Y-81888829D01*
X149888658Y-81838658D01*
X149900000Y-81821683D01*
X149911342Y-81838658D01*
X149986429Y-81888829D01*
X150075000Y-81906447D01*
X150725000Y-81906447D01*
X150813571Y-81888829D01*
X150888658Y-81838658D01*
X150900000Y-81821683D01*
X150911342Y-81838658D01*
X150986429Y-81888829D01*
X151075000Y-81906447D01*
X151725000Y-81906447D01*
X151813571Y-81888829D01*
X151888658Y-81838658D01*
X151900000Y-81821683D01*
X151911342Y-81838658D01*
X151986429Y-81888829D01*
X152075000Y-81906447D01*
X152725000Y-81906447D01*
X152813571Y-81888829D01*
X152888658Y-81838658D01*
X152900000Y-81821683D01*
X152911342Y-81838658D01*
X152986429Y-81888829D01*
X153075000Y-81906447D01*
X153725000Y-81906447D01*
X153813571Y-81888829D01*
X153888658Y-81838658D01*
X153900000Y-81821683D01*
X153911342Y-81838658D01*
X153986429Y-81888829D01*
X154075000Y-81906447D01*
X154725000Y-81906447D01*
X154813571Y-81888829D01*
X154888658Y-81838658D01*
X154938829Y-81763571D01*
X154948729Y-81713800D01*
X156731221Y-81713800D01*
X158019000Y-83001579D01*
X158019001Y-83918287D01*
X157988000Y-83949288D01*
X157957000Y-83918288D01*
X157957000Y-83421370D01*
X157966343Y-83374399D01*
X157957000Y-83327426D01*
X157957000Y-83327425D01*
X157929323Y-83188284D01*
X157823897Y-83030503D01*
X157784075Y-83003895D01*
X156862908Y-82082729D01*
X156836297Y-82042903D01*
X156678516Y-81937477D01*
X156539375Y-81909800D01*
X156539371Y-81909800D01*
X156492400Y-81900457D01*
X156445429Y-81909800D01*
X156136350Y-81909800D01*
X156063571Y-81861171D01*
X155975000Y-81843553D01*
X155125000Y-81843553D01*
X155036429Y-81861171D01*
X154961342Y-81911342D01*
X154911171Y-81986429D01*
X154893553Y-82075000D01*
X154893553Y-82725000D01*
X154911171Y-82813571D01*
X154961342Y-82888658D01*
X154978317Y-82900000D01*
X154961342Y-82911342D01*
X154911171Y-82986429D01*
X154893553Y-83075000D01*
X154893553Y-83725000D01*
X154911171Y-83813571D01*
X154961342Y-83888658D01*
X154978317Y-83900000D01*
X154961342Y-83911342D01*
X154911171Y-83986429D01*
X154893553Y-84075000D01*
X154893553Y-84725000D01*
X154911171Y-84813571D01*
X154961342Y-84888658D01*
X154978317Y-84900000D01*
X154961342Y-84911342D01*
X154911171Y-84986429D01*
X154893553Y-85075000D01*
X154893553Y-85725000D01*
X154911171Y-85813571D01*
X154961342Y-85888658D01*
X154978317Y-85900000D01*
X154961342Y-85911342D01*
X154911171Y-85986429D01*
X154893553Y-86075000D01*
X154893553Y-86725000D01*
X154911171Y-86813571D01*
X154961342Y-86888658D01*
X154978317Y-86900000D01*
X154961342Y-86911342D01*
X154911171Y-86986429D01*
X154893553Y-87075000D01*
X154893553Y-87725000D01*
X154911171Y-87813571D01*
X154961342Y-87888658D01*
X155036429Y-87938829D01*
X155125000Y-87956447D01*
X155975000Y-87956447D01*
X156063571Y-87938829D01*
X156138658Y-87888658D01*
X156188829Y-87813571D01*
X156206447Y-87725000D01*
X156206447Y-87075000D01*
X156188829Y-86986429D01*
X156138658Y-86911342D01*
X156121683Y-86900000D01*
X156138658Y-86888658D01*
X156188829Y-86813571D01*
X156206447Y-86725000D01*
X156206447Y-86075000D01*
X156188829Y-85986429D01*
X156138658Y-85911342D01*
X156121683Y-85900000D01*
X156138658Y-85888658D01*
X156188829Y-85813571D01*
X156206447Y-85725000D01*
X156206447Y-85075000D01*
X156188829Y-84986429D01*
X156138658Y-84911342D01*
X156121683Y-84900000D01*
X156138658Y-84888658D01*
X156188829Y-84813571D01*
X156206447Y-84725000D01*
X156206447Y-84075000D01*
X156188829Y-83986429D01*
X156138658Y-83911342D01*
X156121683Y-83900000D01*
X156138658Y-83888658D01*
X156188829Y-83813571D01*
X156206447Y-83725000D01*
X156206447Y-83075000D01*
X156188829Y-82986429D01*
X156138658Y-82911342D01*
X156121683Y-82900000D01*
X156138658Y-82888658D01*
X156155267Y-82863800D01*
X156294821Y-82863800D01*
X157003000Y-83571980D01*
X157003001Y-83918287D01*
X156948455Y-83972833D01*
X156853000Y-84203282D01*
X156853000Y-84452718D01*
X156948455Y-84683167D01*
X157124833Y-84859545D01*
X157355282Y-84955000D01*
X157604718Y-84955000D01*
X157835167Y-84859545D01*
X157988000Y-84706712D01*
X158140833Y-84859545D01*
X158371282Y-84955000D01*
X158620718Y-84955000D01*
X158851167Y-84859545D01*
X159027545Y-84683167D01*
X159123000Y-84452718D01*
X159123000Y-84203282D01*
X159027545Y-83972833D01*
X158973000Y-83918288D01*
X158973000Y-82850969D01*
X158982343Y-82803999D01*
X158973000Y-82757029D01*
X158973000Y-82757025D01*
X158945323Y-82617884D01*
X158839897Y-82460103D01*
X158800072Y-82433493D01*
X157299308Y-80932729D01*
X157272697Y-80892903D01*
X157114916Y-80787477D01*
X156975775Y-80759800D01*
X156975771Y-80759800D01*
X156928800Y-80750457D01*
X156881829Y-80759800D01*
X154943478Y-80759800D01*
X154938829Y-80736429D01*
X154888658Y-80661342D01*
X154813571Y-80611171D01*
X154725000Y-80593553D01*
X154075000Y-80593553D01*
X153986429Y-80611171D01*
X153911342Y-80661342D01*
X153900000Y-80678317D01*
X153894400Y-80669936D01*
X153894400Y-80460179D01*
X153971579Y-80383000D01*
X154048718Y-80383000D01*
X154279167Y-80287545D01*
X154455545Y-80111167D01*
X154551000Y-79880718D01*
X154551000Y-79631282D01*
X154455545Y-79400833D01*
X154302712Y-79248000D01*
X154455545Y-79095167D01*
X154551000Y-78864718D01*
X154551000Y-78615282D01*
X154455545Y-78384833D01*
X154302712Y-78232000D01*
X154455545Y-78079167D01*
X154551000Y-77848718D01*
X154551000Y-77599282D01*
X154455545Y-77368833D01*
X154279167Y-77192455D01*
X154048718Y-77097000D01*
X153799282Y-77097000D01*
X153568833Y-77192455D01*
X153514288Y-77247000D01*
X153405285Y-77247000D01*
X153358314Y-77237657D01*
X153311343Y-77247000D01*
X153311340Y-77247000D01*
X153172199Y-77274677D01*
X153014418Y-77380103D01*
X152987809Y-77419926D01*
X151113329Y-79294407D01*
X151073503Y-79321018D01*
X150968077Y-79478800D01*
X150940400Y-79617941D01*
X150940400Y-79617944D01*
X150931057Y-79664915D01*
X150940400Y-79711886D01*
X150940401Y-80641926D01*
X150911342Y-80661342D01*
X150900000Y-80678317D01*
X150888658Y-80661342D01*
X150877000Y-80653552D01*
X150877000Y-80447689D01*
X150895800Y-80353175D01*
X150895800Y-80353172D01*
X150905143Y-80306201D01*
X150895800Y-80259230D01*
X150895800Y-79752171D01*
X150905143Y-79705200D01*
X150895800Y-79658229D01*
X150895800Y-79658225D01*
X150868123Y-79519084D01*
X150762697Y-79361303D01*
X150722874Y-79334694D01*
X149824108Y-78435929D01*
X149797497Y-78396103D01*
X149639716Y-78290677D01*
X149500575Y-78263000D01*
X149500571Y-78263000D01*
X149453600Y-78253657D01*
X149406629Y-78263000D01*
X147170912Y-78263000D01*
X147014767Y-78106855D01*
X146950157Y-78080093D01*
X147040600Y-77989650D01*
X147040600Y-77674474D01*
X147055000Y-77639709D01*
X147055000Y-77504150D01*
X147040600Y-77489750D01*
X147040600Y-77345400D01*
X147294600Y-77345400D01*
X147294600Y-77989650D01*
X147453350Y-78148400D01*
X147613910Y-78148400D01*
X147847299Y-78051727D01*
X148025927Y-77873098D01*
X148122600Y-77639709D01*
X148122600Y-77504150D01*
X148094800Y-77476350D01*
X148572000Y-77476350D01*
X148572000Y-77636910D01*
X148668673Y-77870299D01*
X148847302Y-78048927D01*
X149080691Y-78145600D01*
X149216250Y-78145600D01*
X149375000Y-77986850D01*
X149375000Y-77317600D01*
X148730750Y-77317600D01*
X148572000Y-77476350D01*
X148094800Y-77476350D01*
X147963850Y-77345400D01*
X147294600Y-77345400D01*
X147040600Y-77345400D01*
X146227000Y-77345400D01*
X146227000Y-77489750D01*
X146212600Y-77504150D01*
X146212600Y-77639709D01*
X146227000Y-77674474D01*
X146227000Y-77989650D01*
X146332556Y-78095206D01*
X146304433Y-78106855D01*
X146128055Y-78283233D01*
X146032600Y-78513682D01*
X146032600Y-78590821D01*
X145949127Y-78674294D01*
X145909304Y-78700903D01*
X145882695Y-78740726D01*
X145882694Y-78740727D01*
X145803877Y-78858685D01*
X145766857Y-79044800D01*
X145776201Y-79091776D01*
X145776200Y-81242603D01*
X145727910Y-81222600D01*
X145567350Y-81222600D01*
X145408600Y-81381350D01*
X145408600Y-82025600D01*
X145428600Y-82025600D01*
X145428600Y-82279600D01*
X145408600Y-82279600D01*
X145408600Y-82299600D01*
X145154600Y-82299600D01*
X145154600Y-82279600D01*
X144316400Y-82279600D01*
X144316400Y-82299600D01*
X144062400Y-82299600D01*
X144062400Y-82279600D01*
X143281400Y-82279600D01*
X143281400Y-82299600D01*
X143027400Y-82299600D01*
X143027400Y-82279600D01*
X142358150Y-82279600D01*
X142199400Y-82438350D01*
X141777000Y-82438350D01*
X141777000Y-81731291D01*
X142199400Y-81731291D01*
X142199400Y-81866850D01*
X142358150Y-82025600D01*
X143027400Y-82025600D01*
X143027400Y-81731291D01*
X143234400Y-81731291D01*
X143234400Y-81866850D01*
X143281400Y-81913850D01*
X143281400Y-82025600D01*
X144062400Y-82025600D01*
X144062400Y-81913850D01*
X144109400Y-81866850D01*
X144109400Y-81731291D01*
X144062400Y-81617823D01*
X144062400Y-81381350D01*
X144316400Y-81381350D01*
X144316400Y-82025600D01*
X145154600Y-82025600D01*
X145154600Y-81381350D01*
X144995850Y-81222600D01*
X144835290Y-81222600D01*
X144735500Y-81263934D01*
X144635710Y-81222600D01*
X144475150Y-81222600D01*
X144316400Y-81381350D01*
X144062400Y-81381350D01*
X143903650Y-81222600D01*
X143743090Y-81222600D01*
X143671900Y-81252088D01*
X143600710Y-81222600D01*
X143440150Y-81222600D01*
X143281400Y-81381350D01*
X143281400Y-81617823D01*
X143234400Y-81731291D01*
X143027400Y-81731291D01*
X143027400Y-81381350D01*
X142868650Y-81222600D01*
X142708090Y-81222600D01*
X142474701Y-81319273D01*
X142296073Y-81497902D01*
X142199400Y-81731291D01*
X141777000Y-81731291D01*
X141777000Y-78797579D01*
X142770506Y-77804074D01*
X142770508Y-77804071D01*
X143070429Y-77504150D01*
X144045000Y-77504150D01*
X144045000Y-77639709D01*
X144141673Y-77873098D01*
X144320301Y-78051727D01*
X144553690Y-78148400D01*
X144714250Y-78148400D01*
X144873000Y-77989650D01*
X144873000Y-77345400D01*
X145127000Y-77345400D01*
X145127000Y-77989650D01*
X145285750Y-78148400D01*
X145446310Y-78148400D01*
X145550000Y-78105450D01*
X145653690Y-78148400D01*
X145814250Y-78148400D01*
X145973000Y-77989650D01*
X145973000Y-77345400D01*
X145127000Y-77345400D01*
X144873000Y-77345400D01*
X144203750Y-77345400D01*
X144045000Y-77504150D01*
X143070429Y-77504150D01*
X144183348Y-76391232D01*
X144314142Y-76391232D01*
X144141673Y-76563702D01*
X144045000Y-76797091D01*
X144045000Y-76932650D01*
X144203750Y-77091400D01*
X144873000Y-77091400D01*
X144873000Y-77071400D01*
X145127000Y-77071400D01*
X145127000Y-77091400D01*
X145973000Y-77091400D01*
X145973000Y-77071400D01*
X146227000Y-77071400D01*
X146227000Y-77091400D01*
X147040600Y-77091400D01*
X147040600Y-77071400D01*
X147294600Y-77071400D01*
X147294600Y-77091400D01*
X147963850Y-77091400D01*
X148122600Y-76932650D01*
X148122600Y-76797091D01*
X148051815Y-76626200D01*
X148620915Y-76626200D01*
X148572000Y-76744290D01*
X148572000Y-76904850D01*
X148730750Y-77063600D01*
X149375000Y-77063600D01*
X149375000Y-77043600D01*
X149629000Y-77043600D01*
X149629000Y-77063600D01*
X149649000Y-77063600D01*
X149649000Y-77317600D01*
X149629000Y-77317600D01*
X149629000Y-77986850D01*
X149787750Y-78145600D01*
X149923309Y-78145600D01*
X150156698Y-78048927D01*
X150335327Y-77870299D01*
X150388451Y-77742047D01*
X150619500Y-77742047D01*
X150764517Y-77713201D01*
X150887456Y-77631056D01*
X150969601Y-77508117D01*
X150998447Y-77363100D01*
X150998447Y-77018100D01*
X150969601Y-76873083D01*
X150946600Y-76838659D01*
X150946600Y-76497549D01*
X150967201Y-76466717D01*
X150996047Y-76321700D01*
X150996047Y-75976700D01*
X150967201Y-75831683D01*
X150885056Y-75708744D01*
X150766162Y-75629302D01*
X150832764Y-75584800D01*
X151082400Y-75584800D01*
X151082401Y-75804442D01*
X151064199Y-75831683D01*
X151035353Y-75976700D01*
X151035353Y-76321700D01*
X151064199Y-76466717D01*
X151146344Y-76589656D01*
X151269283Y-76671801D01*
X151414300Y-76700647D01*
X151709300Y-76700647D01*
X151854317Y-76671801D01*
X151977256Y-76589656D01*
X152046800Y-76485576D01*
X152116344Y-76589656D01*
X152239283Y-76671801D01*
X152384300Y-76700647D01*
X152679300Y-76700647D01*
X152824317Y-76671801D01*
X152892564Y-76626200D01*
X153239488Y-76626200D01*
X153244833Y-76631545D01*
X153475282Y-76727000D01*
X153724718Y-76727000D01*
X153955167Y-76631545D01*
X154131545Y-76455167D01*
X154227000Y-76224718D01*
X154227000Y-75975282D01*
X154131545Y-75744833D01*
X154070800Y-75684088D01*
X154070800Y-75420164D01*
X154116401Y-75351917D01*
X154145247Y-75206900D01*
X154145247Y-74911900D01*
X154116401Y-74766883D01*
X154034256Y-74643944D01*
X153930176Y-74574400D01*
X154034256Y-74504856D01*
X154116401Y-74381917D01*
X154145247Y-74236900D01*
X154145247Y-73941900D01*
X154116401Y-73796883D01*
X154034256Y-73673944D01*
X153911317Y-73591799D01*
X153766300Y-73562953D01*
X153421300Y-73562953D01*
X153288343Y-73589400D01*
X152890164Y-73589400D01*
X152821917Y-73543799D01*
X152739475Y-73527400D01*
X156638953Y-73527400D01*
X156638953Y-75590400D01*
X156656571Y-75678971D01*
X156706742Y-75754058D01*
X156781829Y-75804229D01*
X156870400Y-75821847D01*
X159410400Y-75821847D01*
X159498971Y-75804229D01*
X159574058Y-75754058D01*
X159624229Y-75678971D01*
X159641847Y-75590400D01*
X159641847Y-70510400D01*
X159624229Y-70421829D01*
X159574058Y-70346742D01*
X159507096Y-70302000D01*
X159698001Y-70302000D01*
X159698000Y-99698000D01*
X140302000Y-99698000D01*
X140302000Y-95967550D01*
X140323200Y-95967550D01*
X140323200Y-96658110D01*
X140419873Y-96891499D01*
X140598502Y-97070127D01*
X140831891Y-97166800D01*
X141522450Y-97166800D01*
X141681198Y-97008052D01*
X141681198Y-97148963D01*
X141387976Y-97207289D01*
X141031727Y-97445327D01*
X140793689Y-97801576D01*
X140710101Y-98221800D01*
X140793689Y-98642024D01*
X141031727Y-98998273D01*
X141387976Y-99236311D01*
X141702128Y-99298800D01*
X141914272Y-99298800D01*
X142228424Y-99236311D01*
X142584673Y-98998273D01*
X142822711Y-98642024D01*
X142906299Y-98221800D01*
X142822711Y-97801576D01*
X142584673Y-97445327D01*
X142228424Y-97207289D01*
X141935202Y-97148963D01*
X141935202Y-97008052D01*
X142093950Y-97166800D01*
X142784509Y-97166800D01*
X143017898Y-97070127D01*
X143196527Y-96891499D01*
X143293200Y-96658110D01*
X143293200Y-95967550D01*
X143134450Y-95808800D01*
X141935200Y-95808800D01*
X141935200Y-95828800D01*
X141681200Y-95828800D01*
X141681200Y-95808800D01*
X140481950Y-95808800D01*
X140323200Y-95967550D01*
X140302000Y-95967550D01*
X140302000Y-94705490D01*
X140323200Y-94705490D01*
X140323200Y-95396050D01*
X140481950Y-95554800D01*
X141681200Y-95554800D01*
X141681200Y-94355550D01*
X141935200Y-94355550D01*
X141935200Y-95554800D01*
X143134450Y-95554800D01*
X143293200Y-95396050D01*
X143293200Y-95204500D01*
X143717753Y-95204500D01*
X143717753Y-95549500D01*
X143746599Y-95694517D01*
X143828744Y-95817456D01*
X143951683Y-95899601D01*
X144096700Y-95928447D01*
X144391700Y-95928447D01*
X144536717Y-95899601D01*
X144659656Y-95817456D01*
X144729200Y-95713376D01*
X144737200Y-95725349D01*
X144737201Y-96211317D01*
X144661000Y-96395282D01*
X144661000Y-96644718D01*
X144756455Y-96875167D01*
X144932833Y-97051545D01*
X145163282Y-97147000D01*
X145412718Y-97147000D01*
X145643167Y-97051545D01*
X145819545Y-96875167D01*
X145915000Y-96644718D01*
X145915000Y-96395282D01*
X145819545Y-96164833D01*
X145691200Y-96036488D01*
X145691200Y-95725349D01*
X145711801Y-95694517D01*
X145740647Y-95549500D01*
X145740647Y-95204500D01*
X145711801Y-95059483D01*
X145629656Y-94936544D01*
X145506717Y-94854399D01*
X145361700Y-94825553D01*
X145066700Y-94825553D01*
X144921683Y-94854399D01*
X144798744Y-94936544D01*
X144749000Y-95010991D01*
X144749000Y-94815000D01*
X145343429Y-94815000D01*
X145390400Y-94824343D01*
X145437371Y-94815000D01*
X145437375Y-94815000D01*
X145576516Y-94787323D01*
X145673610Y-94722447D01*
X146387400Y-94722447D01*
X146475971Y-94704829D01*
X146551058Y-94654658D01*
X146601229Y-94579571D01*
X146618847Y-94491000D01*
X146618847Y-93491000D01*
X146601229Y-93402429D01*
X146551058Y-93327342D01*
X146475971Y-93277171D01*
X146387400Y-93259553D01*
X145087400Y-93259553D01*
X144998829Y-93277171D01*
X144923742Y-93327342D01*
X144873571Y-93402429D01*
X144855953Y-93491000D01*
X144855953Y-93861000D01*
X144620349Y-93861000D01*
X144608376Y-93853000D01*
X144712456Y-93783456D01*
X144794601Y-93660517D01*
X144823447Y-93515500D01*
X144823447Y-93220500D01*
X144794601Y-93075483D01*
X144749000Y-93007236D01*
X144749000Y-91129579D01*
X145485580Y-90393000D01*
X145787589Y-90393000D01*
X145727799Y-90482483D01*
X145698953Y-90627500D01*
X145698953Y-90972500D01*
X145727799Y-91117517D01*
X145748400Y-91148349D01*
X145748401Y-91459553D01*
X145087400Y-91459553D01*
X144998829Y-91477171D01*
X144923742Y-91527342D01*
X144873571Y-91602429D01*
X144855953Y-91691000D01*
X144855953Y-92691000D01*
X144873571Y-92779571D01*
X144923742Y-92854658D01*
X144998829Y-92904829D01*
X145087400Y-92922447D01*
X146335689Y-92922447D01*
X147055953Y-93642712D01*
X147055953Y-94491000D01*
X147073571Y-94579571D01*
X147123742Y-94654658D01*
X147198829Y-94704829D01*
X147287400Y-94722447D01*
X148587400Y-94722447D01*
X148675971Y-94704829D01*
X148751058Y-94654658D01*
X148801229Y-94579571D01*
X148818847Y-94491000D01*
X148818847Y-94468000D01*
X149294029Y-94468000D01*
X149341000Y-94477343D01*
X149387971Y-94468000D01*
X149387975Y-94468000D01*
X149527116Y-94440323D01*
X149684897Y-94334897D01*
X149711507Y-94295072D01*
X149907579Y-94099000D01*
X149984718Y-94099000D01*
X150215167Y-94003545D01*
X150391545Y-93827167D01*
X150487000Y-93596718D01*
X150487000Y-93519579D01*
X150872874Y-93133706D01*
X150912697Y-93107097D01*
X151018123Y-92949316D01*
X151038873Y-92845000D01*
X151055144Y-92763200D01*
X151045800Y-92716225D01*
X151045800Y-92499549D01*
X151053800Y-92487576D01*
X151123344Y-92591656D01*
X151246283Y-92673801D01*
X151391300Y-92702647D01*
X151686300Y-92702647D01*
X151831317Y-92673801D01*
X151899564Y-92628200D01*
X152047601Y-92628200D01*
X152047600Y-92715600D01*
X151778569Y-92715600D01*
X151731599Y-92706257D01*
X151684629Y-92715600D01*
X151684625Y-92715600D01*
X151545484Y-92743277D01*
X151387703Y-92848703D01*
X151361092Y-92888529D01*
X148418068Y-95831553D01*
X147261200Y-95831553D01*
X147172629Y-95849171D01*
X147097542Y-95899342D01*
X147047371Y-95974429D01*
X147029753Y-96063000D01*
X147029753Y-99263000D01*
X147047371Y-99351571D01*
X147097542Y-99426658D01*
X147172629Y-99476829D01*
X147261200Y-99494447D01*
X148861200Y-99494447D01*
X148949771Y-99476829D01*
X149024858Y-99426658D01*
X149075029Y-99351571D01*
X149092647Y-99263000D01*
X149092647Y-96506132D01*
X151929179Y-93669600D01*
X152163836Y-93669600D01*
X152232083Y-93715201D01*
X152377100Y-93744047D01*
X152672100Y-93744047D01*
X152817117Y-93715201D01*
X152940056Y-93633056D01*
X153009600Y-93528976D01*
X153079144Y-93633056D01*
X153202083Y-93715201D01*
X153347100Y-93744047D01*
X153642100Y-93744047D01*
X153787117Y-93715201D01*
X153855364Y-93669600D01*
X154293221Y-93669600D01*
X157129753Y-96506132D01*
X157129753Y-99263000D01*
X157147371Y-99351571D01*
X157197542Y-99426658D01*
X157272629Y-99476829D01*
X157361200Y-99494447D01*
X158961200Y-99494447D01*
X159049771Y-99476829D01*
X159124858Y-99426658D01*
X159175029Y-99351571D01*
X159192647Y-99263000D01*
X159192647Y-96063000D01*
X159175029Y-95974429D01*
X159124858Y-95899342D01*
X159049771Y-95849171D01*
X158961200Y-95831553D01*
X157804332Y-95831553D01*
X154861308Y-92888529D01*
X154834697Y-92848703D01*
X154676916Y-92743277D01*
X154537775Y-92715600D01*
X154537771Y-92715600D01*
X154490800Y-92706257D01*
X154443829Y-92715600D01*
X153971600Y-92715600D01*
X153971600Y-92628200D01*
X154170436Y-92628200D01*
X154238683Y-92673801D01*
X154383700Y-92702647D01*
X154678700Y-92702647D01*
X154823717Y-92673801D01*
X154946656Y-92591656D01*
X155016200Y-92487576D01*
X155085744Y-92591656D01*
X155208683Y-92673801D01*
X155353700Y-92702647D01*
X155648700Y-92702647D01*
X155793717Y-92673801D01*
X155916656Y-92591656D01*
X155998801Y-92468717D01*
X156027647Y-92323700D01*
X156027647Y-91978700D01*
X155998801Y-91833683D01*
X155978200Y-91802851D01*
X155978200Y-91584379D01*
X156003579Y-91559000D01*
X156080718Y-91559000D01*
X156311167Y-91463545D01*
X156487545Y-91287167D01*
X156583000Y-91056718D01*
X156583000Y-90979579D01*
X157888074Y-89674506D01*
X157927897Y-89647897D01*
X157983319Y-89564953D01*
X158033323Y-89490116D01*
X158070344Y-89304000D01*
X158061000Y-89257025D01*
X158061000Y-88918149D01*
X158081601Y-88887317D01*
X158110447Y-88742300D01*
X158110447Y-88397300D01*
X158081601Y-88252283D01*
X157999456Y-88129344D01*
X157876517Y-88047199D01*
X157731500Y-88018353D01*
X157436500Y-88018353D01*
X157291483Y-88047199D01*
X157168544Y-88129344D01*
X157099000Y-88233424D01*
X157029456Y-88129344D01*
X156906517Y-88047199D01*
X156761500Y-88018353D01*
X156466500Y-88018353D01*
X156321483Y-88047199D01*
X156253236Y-88092800D01*
X154950042Y-88092800D01*
X154938829Y-88036429D01*
X154888658Y-87961342D01*
X154813571Y-87911171D01*
X154725000Y-87893553D01*
X154075000Y-87893553D01*
X153986429Y-87911171D01*
X153911342Y-87961342D01*
X153900000Y-87978317D01*
X153888658Y-87961342D01*
X153813571Y-87911171D01*
X153725000Y-87893553D01*
X153075000Y-87893553D01*
X152986429Y-87911171D01*
X152911342Y-87961342D01*
X152900000Y-87978317D01*
X152888658Y-87961342D01*
X152813571Y-87911171D01*
X152725000Y-87893553D01*
X152075000Y-87893553D01*
X151986429Y-87911171D01*
X151911342Y-87961342D01*
X151900000Y-87978317D01*
X151888658Y-87961342D01*
X151813571Y-87911171D01*
X151725000Y-87893553D01*
X151075000Y-87893553D01*
X150986429Y-87911171D01*
X150911342Y-87961342D01*
X150900000Y-87978317D01*
X150888658Y-87961342D01*
X150813571Y-87911171D01*
X150725000Y-87893553D01*
X150075000Y-87893553D01*
X149986429Y-87911171D01*
X149911342Y-87961342D01*
X149900000Y-87978317D01*
X149888658Y-87961342D01*
X149813571Y-87911171D01*
X149725000Y-87893553D01*
X149075000Y-87893553D01*
X148986429Y-87911171D01*
X148911342Y-87961342D01*
X148861171Y-88036429D01*
X148843553Y-88125000D01*
X148843553Y-88975000D01*
X148861171Y-89063571D01*
X148911342Y-89138658D01*
X148923000Y-89146448D01*
X148923000Y-89277420D01*
X148761421Y-89439000D01*
X145334971Y-89439000D01*
X145288000Y-89429657D01*
X145241029Y-89439000D01*
X145241025Y-89439000D01*
X145101884Y-89466677D01*
X144944103Y-89572103D01*
X144917494Y-89611926D01*
X143967927Y-90561494D01*
X143928104Y-90588103D01*
X143901495Y-90627926D01*
X143901494Y-90627927D01*
X143822677Y-90745885D01*
X143785657Y-90932000D01*
X143795001Y-90978976D01*
X143795000Y-93007236D01*
X143749399Y-93075483D01*
X143720553Y-93220500D01*
X143720553Y-93515500D01*
X143749399Y-93660517D01*
X143831544Y-93783456D01*
X143935624Y-93853000D01*
X143831544Y-93922544D01*
X143749399Y-94045483D01*
X143720553Y-94190500D01*
X143720553Y-94485500D01*
X143749399Y-94630517D01*
X143795000Y-94698764D01*
X143795001Y-94987045D01*
X143746599Y-95059483D01*
X143717753Y-95204500D01*
X143293200Y-95204500D01*
X143293200Y-94705490D01*
X143196527Y-94472101D01*
X143017898Y-94293473D01*
X142784509Y-94196800D01*
X142093950Y-94196800D01*
X141935200Y-94355550D01*
X141681200Y-94355550D01*
X141522450Y-94196800D01*
X140831891Y-94196800D01*
X140598502Y-94293473D01*
X140419873Y-94472101D01*
X140323200Y-94705490D01*
X140302000Y-94705490D01*
X140302000Y-70302000D01*
X140466904Y-70302000D01*
X140399942Y-70346742D01*
G36*
X149371221Y-79332200D02*
X149278082Y-79332200D01*
X149047633Y-79427655D01*
X148871255Y-79604033D01*
X148775800Y-79834482D01*
X148775800Y-80083918D01*
X148871255Y-80314367D01*
X148923001Y-80366113D01*
X148923000Y-80653552D01*
X148911342Y-80661342D01*
X148861171Y-80736429D01*
X148843553Y-80825000D01*
X148843553Y-81457498D01*
X148801310Y-81440000D01*
X148535750Y-81440000D01*
X148377000Y-81598750D01*
X148377000Y-82273000D01*
X148397000Y-82273000D01*
X148397000Y-82527000D01*
X148377000Y-82527000D01*
X148377000Y-83273000D01*
X148397000Y-83273000D01*
X148397000Y-83527000D01*
X148377000Y-83527000D01*
X148377000Y-83547000D01*
X148123000Y-83547000D01*
X148123000Y-83527000D01*
X147348750Y-83527000D01*
X147190000Y-83685750D01*
X147190000Y-83734596D01*
X147181975Y-83733000D01*
X147181971Y-83733000D01*
X147135000Y-83723657D01*
X147088029Y-83733000D01*
X145758600Y-83733000D01*
X145758600Y-83483364D01*
X145804201Y-83415117D01*
X145816114Y-83355226D01*
X145898033Y-83437145D01*
X146128482Y-83532600D01*
X146377918Y-83532600D01*
X146608367Y-83437145D01*
X146784745Y-83260767D01*
X146880200Y-83030318D01*
X146880200Y-82780882D01*
X146840796Y-82685750D01*
X147190000Y-82685750D01*
X147190000Y-82851309D01*
X147210168Y-82900000D01*
X147190000Y-82948691D01*
X147190000Y-83114250D01*
X147348750Y-83273000D01*
X147488654Y-83273000D01*
X147698690Y-83360000D01*
X147964250Y-83360000D01*
X148051250Y-83273000D01*
X148123000Y-83273000D01*
X148123000Y-82527000D01*
X148051250Y-82527000D01*
X147964250Y-82440000D01*
X147698690Y-82440000D01*
X147488654Y-82527000D01*
X147348750Y-82527000D01*
X147190000Y-82685750D01*
X146840796Y-82685750D01*
X146784745Y-82550433D01*
X146730200Y-82495888D01*
X146730200Y-81948691D01*
X147190000Y-81948691D01*
X147190000Y-82114250D01*
X147348750Y-82273000D01*
X148123000Y-82273000D01*
X148123000Y-81598750D01*
X147964250Y-81440000D01*
X147698690Y-81440000D01*
X147465301Y-81536673D01*
X147286673Y-81715302D01*
X147190000Y-81948691D01*
X146730200Y-81948691D01*
X146730200Y-79265400D01*
X146784318Y-79265400D01*
X146901166Y-79217000D01*
X149256021Y-79217000D01*
X149371221Y-79332200D01*
X149371221Y-79332200D01*
G37*
X149371221Y-79332200D02*
X149278082Y-79332200D01*
X149047633Y-79427655D01*
X148871255Y-79604033D01*
X148775800Y-79834482D01*
X148775800Y-80083918D01*
X148871255Y-80314367D01*
X148923001Y-80366113D01*
X148923000Y-80653552D01*
X148911342Y-80661342D01*
X148861171Y-80736429D01*
X148843553Y-80825000D01*
X148843553Y-81457498D01*
X148801310Y-81440000D01*
X148535750Y-81440000D01*
X148377000Y-81598750D01*
X148377000Y-82273000D01*
X148397000Y-82273000D01*
X148397000Y-82527000D01*
X148377000Y-82527000D01*
X148377000Y-83273000D01*
X148397000Y-83273000D01*
X148397000Y-83527000D01*
X148377000Y-83527000D01*
X148377000Y-83547000D01*
X148123000Y-83547000D01*
X148123000Y-83527000D01*
X147348750Y-83527000D01*
X147190000Y-83685750D01*
X147190000Y-83734596D01*
X147181975Y-83733000D01*
X147181971Y-83733000D01*
X147135000Y-83723657D01*
X147088029Y-83733000D01*
X145758600Y-83733000D01*
X145758600Y-83483364D01*
X145804201Y-83415117D01*
X145816114Y-83355226D01*
X145898033Y-83437145D01*
X146128482Y-83532600D01*
X146377918Y-83532600D01*
X146608367Y-83437145D01*
X146784745Y-83260767D01*
X146880200Y-83030318D01*
X146880200Y-82780882D01*
X146840796Y-82685750D01*
X147190000Y-82685750D01*
X147190000Y-82851309D01*
X147210168Y-82900000D01*
X147190000Y-82948691D01*
X147190000Y-83114250D01*
X147348750Y-83273000D01*
X147488654Y-83273000D01*
X147698690Y-83360000D01*
X147964250Y-83360000D01*
X148051250Y-83273000D01*
X148123000Y-83273000D01*
X148123000Y-82527000D01*
X148051250Y-82527000D01*
X147964250Y-82440000D01*
X147698690Y-82440000D01*
X147488654Y-82527000D01*
X147348750Y-82527000D01*
X147190000Y-82685750D01*
X146840796Y-82685750D01*
X146784745Y-82550433D01*
X146730200Y-82495888D01*
X146730200Y-81948691D01*
X147190000Y-81948691D01*
X147190000Y-82114250D01*
X147348750Y-82273000D01*
X148123000Y-82273000D01*
X148123000Y-81598750D01*
X147964250Y-81440000D01*
X147698690Y-81440000D01*
X147465301Y-81536673D01*
X147286673Y-81715302D01*
X147190000Y-81948691D01*
X146730200Y-81948691D01*
X146730200Y-79265400D01*
X146784318Y-79265400D01*
X146901166Y-79217000D01*
X149256021Y-79217000D01*
X149371221Y-79332200D01*
G04 #@! TD*
M02*
