G04 #@! TF.GenerationSoftware,KiCad,Pcbnew,(5.0.0)*
G04 #@! TF.CreationDate,2018-10-15T18:52:21-03:00*
G04 #@! TF.ProjectId,TPMS_Sensor,54504D535F53656E736F722E6B696361,1*
G04 #@! TF.SameCoordinates,Original*
G04 #@! TF.FileFunction,Copper,L2,Bot,Signal*
G04 #@! TF.FilePolarity,Positive*
%FSLAX46Y46*%
G04 Gerber Fmt 4.6, Leading zero omitted, Abs format (unit mm)*
G04 Created by KiCad (PCBNEW (5.0.0)) date 10/15/18 18:52:21*
%MOMM*%
%LPD*%
G01*
G04 APERTURE LIST*
G04 #@! TA.AperFunction,SMDPad,CuDef*
%ADD10R,0.800000X2.000000*%
G04 #@! TD*
G04 #@! TA.AperFunction,Conductor*
%ADD11C,0.100000*%
G04 #@! TD*
G04 #@! TA.AperFunction,SMDPad,CuDef*
%ADD12C,0.400000*%
G04 #@! TD*
G04 #@! TA.AperFunction,SMDPad,CuDef*
%ADD13R,3.150000X1.000000*%
G04 #@! TD*
G04 #@! TA.AperFunction,ComponentPad*
%ADD14R,1.700000X1.700000*%
G04 #@! TD*
G04 #@! TA.AperFunction,ComponentPad*
%ADD15O,1.700000X1.700000*%
G04 #@! TD*
G04 #@! TA.AperFunction,SMDPad,CuDef*
%ADD16C,0.590000*%
G04 #@! TD*
G04 #@! TA.AperFunction,SMDPad,CuDef*
%ADD17R,1.000000X1.000000*%
G04 #@! TD*
G04 #@! TA.AperFunction,ComponentPad*
%ADD18C,0.800000*%
G04 #@! TD*
G04 #@! TA.AperFunction,ViaPad*
%ADD19C,0.800000*%
G04 #@! TD*
G04 #@! TA.AperFunction,Conductor*
%ADD20C,0.500000*%
G04 #@! TD*
G04 #@! TA.AperFunction,Conductor*
%ADD21C,0.800000*%
G04 #@! TD*
G04 #@! TA.AperFunction,Conductor*
%ADD22C,0.254000*%
G04 #@! TD*
G04 APERTURE END LIST*
D10*
G04 #@! TO.P,BT1,1*
G04 #@! TO.N,VDD_BAT*
X152361200Y-97815400D03*
G04 #@! TO.P,BT1,2*
G04 #@! TO.N,-BATT*
X153861200Y-97815400D03*
G04 #@! TD*
D11*
G04 #@! TO.N,-BATT*
G04 #@! TO.C,D1*
G36*
X157691402Y-90209682D02*
X157701109Y-90211121D01*
X157710628Y-90213506D01*
X157719868Y-90216812D01*
X157728740Y-90221008D01*
X157737157Y-90226053D01*
X157745039Y-90231899D01*
X157752311Y-90238489D01*
X157758901Y-90245761D01*
X157764747Y-90253643D01*
X157769792Y-90262060D01*
X157773988Y-90270932D01*
X157777294Y-90280172D01*
X157779679Y-90289691D01*
X157781118Y-90299398D01*
X157781600Y-90309200D01*
X157781600Y-90569200D01*
X157781118Y-90579002D01*
X157779679Y-90588709D01*
X157777294Y-90598228D01*
X157773988Y-90607468D01*
X157769792Y-90616340D01*
X157764747Y-90624757D01*
X157758901Y-90632639D01*
X157752311Y-90639911D01*
X157745039Y-90646501D01*
X157737157Y-90652347D01*
X157728740Y-90657392D01*
X157719868Y-90661588D01*
X157710628Y-90664894D01*
X157701109Y-90667279D01*
X157691402Y-90668718D01*
X157681600Y-90669200D01*
X157481600Y-90669200D01*
X157471798Y-90668718D01*
X157462091Y-90667279D01*
X157452572Y-90664894D01*
X157443332Y-90661588D01*
X157434460Y-90657392D01*
X157426043Y-90652347D01*
X157418161Y-90646501D01*
X157410889Y-90639911D01*
X157404299Y-90632639D01*
X157398453Y-90624757D01*
X157393408Y-90616340D01*
X157389212Y-90607468D01*
X157385906Y-90598228D01*
X157383521Y-90588709D01*
X157382082Y-90579002D01*
X157381600Y-90569200D01*
X157381600Y-90309200D01*
X157382082Y-90299398D01*
X157383521Y-90289691D01*
X157385906Y-90280172D01*
X157389212Y-90270932D01*
X157393408Y-90262060D01*
X157398453Y-90253643D01*
X157404299Y-90245761D01*
X157410889Y-90238489D01*
X157418161Y-90231899D01*
X157426043Y-90226053D01*
X157434460Y-90221008D01*
X157443332Y-90216812D01*
X157452572Y-90213506D01*
X157462091Y-90211121D01*
X157471798Y-90209682D01*
X157481600Y-90209200D01*
X157681600Y-90209200D01*
X157691402Y-90209682D01*
X157691402Y-90209682D01*
G37*
D12*
G04 #@! TD*
G04 #@! TO.P,D1,1*
G04 #@! TO.N,-BATT*
X157581600Y-90439200D03*
D11*
G04 #@! TO.N,Net-(D1-Pad2)*
G04 #@! TO.C,D1*
G36*
X157691402Y-89569682D02*
X157701109Y-89571121D01*
X157710628Y-89573506D01*
X157719868Y-89576812D01*
X157728740Y-89581008D01*
X157737157Y-89586053D01*
X157745039Y-89591899D01*
X157752311Y-89598489D01*
X157758901Y-89605761D01*
X157764747Y-89613643D01*
X157769792Y-89622060D01*
X157773988Y-89630932D01*
X157777294Y-89640172D01*
X157779679Y-89649691D01*
X157781118Y-89659398D01*
X157781600Y-89669200D01*
X157781600Y-89929200D01*
X157781118Y-89939002D01*
X157779679Y-89948709D01*
X157777294Y-89958228D01*
X157773988Y-89967468D01*
X157769792Y-89976340D01*
X157764747Y-89984757D01*
X157758901Y-89992639D01*
X157752311Y-89999911D01*
X157745039Y-90006501D01*
X157737157Y-90012347D01*
X157728740Y-90017392D01*
X157719868Y-90021588D01*
X157710628Y-90024894D01*
X157701109Y-90027279D01*
X157691402Y-90028718D01*
X157681600Y-90029200D01*
X157481600Y-90029200D01*
X157471798Y-90028718D01*
X157462091Y-90027279D01*
X157452572Y-90024894D01*
X157443332Y-90021588D01*
X157434460Y-90017392D01*
X157426043Y-90012347D01*
X157418161Y-90006501D01*
X157410889Y-89999911D01*
X157404299Y-89992639D01*
X157398453Y-89984757D01*
X157393408Y-89976340D01*
X157389212Y-89967468D01*
X157385906Y-89958228D01*
X157383521Y-89948709D01*
X157382082Y-89939002D01*
X157381600Y-89929200D01*
X157381600Y-89669200D01*
X157382082Y-89659398D01*
X157383521Y-89649691D01*
X157385906Y-89640172D01*
X157389212Y-89630932D01*
X157393408Y-89622060D01*
X157398453Y-89613643D01*
X157404299Y-89605761D01*
X157410889Y-89598489D01*
X157418161Y-89591899D01*
X157426043Y-89586053D01*
X157434460Y-89581008D01*
X157443332Y-89576812D01*
X157452572Y-89573506D01*
X157462091Y-89571121D01*
X157471798Y-89569682D01*
X157481600Y-89569200D01*
X157681600Y-89569200D01*
X157691402Y-89569682D01*
X157691402Y-89569682D01*
G37*
D12*
G04 #@! TD*
G04 #@! TO.P,D1,2*
G04 #@! TO.N,Net-(D1-Pad2)*
X157581600Y-89799200D03*
D11*
G04 #@! TO.N,Net-(D2-Pad2)*
G04 #@! TO.C,D2*
G36*
X158732802Y-89569682D02*
X158742509Y-89571121D01*
X158752028Y-89573506D01*
X158761268Y-89576812D01*
X158770140Y-89581008D01*
X158778557Y-89586053D01*
X158786439Y-89591899D01*
X158793711Y-89598489D01*
X158800301Y-89605761D01*
X158806147Y-89613643D01*
X158811192Y-89622060D01*
X158815388Y-89630932D01*
X158818694Y-89640172D01*
X158821079Y-89649691D01*
X158822518Y-89659398D01*
X158823000Y-89669200D01*
X158823000Y-89929200D01*
X158822518Y-89939002D01*
X158821079Y-89948709D01*
X158818694Y-89958228D01*
X158815388Y-89967468D01*
X158811192Y-89976340D01*
X158806147Y-89984757D01*
X158800301Y-89992639D01*
X158793711Y-89999911D01*
X158786439Y-90006501D01*
X158778557Y-90012347D01*
X158770140Y-90017392D01*
X158761268Y-90021588D01*
X158752028Y-90024894D01*
X158742509Y-90027279D01*
X158732802Y-90028718D01*
X158723000Y-90029200D01*
X158523000Y-90029200D01*
X158513198Y-90028718D01*
X158503491Y-90027279D01*
X158493972Y-90024894D01*
X158484732Y-90021588D01*
X158475860Y-90017392D01*
X158467443Y-90012347D01*
X158459561Y-90006501D01*
X158452289Y-89999911D01*
X158445699Y-89992639D01*
X158439853Y-89984757D01*
X158434808Y-89976340D01*
X158430612Y-89967468D01*
X158427306Y-89958228D01*
X158424921Y-89948709D01*
X158423482Y-89939002D01*
X158423000Y-89929200D01*
X158423000Y-89669200D01*
X158423482Y-89659398D01*
X158424921Y-89649691D01*
X158427306Y-89640172D01*
X158430612Y-89630932D01*
X158434808Y-89622060D01*
X158439853Y-89613643D01*
X158445699Y-89605761D01*
X158452289Y-89598489D01*
X158459561Y-89591899D01*
X158467443Y-89586053D01*
X158475860Y-89581008D01*
X158484732Y-89576812D01*
X158493972Y-89573506D01*
X158503491Y-89571121D01*
X158513198Y-89569682D01*
X158523000Y-89569200D01*
X158723000Y-89569200D01*
X158732802Y-89569682D01*
X158732802Y-89569682D01*
G37*
D12*
G04 #@! TD*
G04 #@! TO.P,D2,2*
G04 #@! TO.N,Net-(D2-Pad2)*
X158623000Y-89799200D03*
D11*
G04 #@! TO.N,-BATT*
G04 #@! TO.C,D2*
G36*
X158732802Y-90209682D02*
X158742509Y-90211121D01*
X158752028Y-90213506D01*
X158761268Y-90216812D01*
X158770140Y-90221008D01*
X158778557Y-90226053D01*
X158786439Y-90231899D01*
X158793711Y-90238489D01*
X158800301Y-90245761D01*
X158806147Y-90253643D01*
X158811192Y-90262060D01*
X158815388Y-90270932D01*
X158818694Y-90280172D01*
X158821079Y-90289691D01*
X158822518Y-90299398D01*
X158823000Y-90309200D01*
X158823000Y-90569200D01*
X158822518Y-90579002D01*
X158821079Y-90588709D01*
X158818694Y-90598228D01*
X158815388Y-90607468D01*
X158811192Y-90616340D01*
X158806147Y-90624757D01*
X158800301Y-90632639D01*
X158793711Y-90639911D01*
X158786439Y-90646501D01*
X158778557Y-90652347D01*
X158770140Y-90657392D01*
X158761268Y-90661588D01*
X158752028Y-90664894D01*
X158742509Y-90667279D01*
X158732802Y-90668718D01*
X158723000Y-90669200D01*
X158523000Y-90669200D01*
X158513198Y-90668718D01*
X158503491Y-90667279D01*
X158493972Y-90664894D01*
X158484732Y-90661588D01*
X158475860Y-90657392D01*
X158467443Y-90652347D01*
X158459561Y-90646501D01*
X158452289Y-90639911D01*
X158445699Y-90632639D01*
X158439853Y-90624757D01*
X158434808Y-90616340D01*
X158430612Y-90607468D01*
X158427306Y-90598228D01*
X158424921Y-90588709D01*
X158423482Y-90579002D01*
X158423000Y-90569200D01*
X158423000Y-90309200D01*
X158423482Y-90299398D01*
X158424921Y-90289691D01*
X158427306Y-90280172D01*
X158430612Y-90270932D01*
X158434808Y-90262060D01*
X158439853Y-90253643D01*
X158445699Y-90245761D01*
X158452289Y-90238489D01*
X158459561Y-90231899D01*
X158467443Y-90226053D01*
X158475860Y-90221008D01*
X158484732Y-90216812D01*
X158493972Y-90213506D01*
X158503491Y-90211121D01*
X158513198Y-90209682D01*
X158523000Y-90209200D01*
X158723000Y-90209200D01*
X158732802Y-90209682D01*
X158732802Y-90209682D01*
G37*
D12*
G04 #@! TD*
G04 #@! TO.P,D2,1*
G04 #@! TO.N,-BATT*
X158623000Y-90439200D03*
D13*
G04 #@! TO.P,J1,1*
G04 #@! TO.N,PTA4_BKGD*
X143601200Y-87426800D03*
G04 #@! TO.P,J1,2*
G04 #@! TO.N,-BATT*
X148651200Y-87426800D03*
G04 #@! TO.P,J1,3*
G04 #@! TO.N,Net-(J1-Pad3)*
X143601200Y-84886800D03*
G04 #@! TO.P,J1,4*
G04 #@! TO.N,RESET*
X148651200Y-84886800D03*
G04 #@! TO.P,J1,5*
G04 #@! TO.N,Net-(J1-Pad5)*
X143601200Y-82346800D03*
G04 #@! TO.P,J1,6*
G04 #@! TO.N,+BATT*
X148651200Y-82346800D03*
G04 #@! TD*
D14*
G04 #@! TO.P,JP1,1*
G04 #@! TO.N,+BATT*
X141808200Y-95681800D03*
D15*
G04 #@! TO.P,JP1,2*
G04 #@! TO.N,VDD_BAT*
X141808200Y-98221800D03*
G04 #@! TD*
D11*
G04 #@! TO.N,-BATT*
G04 #@! TO.C,R3*
G36*
X158609558Y-78573110D02*
X158623876Y-78575234D01*
X158637917Y-78578751D01*
X158651546Y-78583628D01*
X158664631Y-78589817D01*
X158677047Y-78597258D01*
X158688673Y-78605881D01*
X158699398Y-78615602D01*
X158709119Y-78626327D01*
X158717742Y-78637953D01*
X158725183Y-78650369D01*
X158731372Y-78663454D01*
X158736249Y-78677083D01*
X158739766Y-78691124D01*
X158741890Y-78705442D01*
X158742600Y-78719900D01*
X158742600Y-79064900D01*
X158741890Y-79079358D01*
X158739766Y-79093676D01*
X158736249Y-79107717D01*
X158731372Y-79121346D01*
X158725183Y-79134431D01*
X158717742Y-79146847D01*
X158709119Y-79158473D01*
X158699398Y-79169198D01*
X158688673Y-79178919D01*
X158677047Y-79187542D01*
X158664631Y-79194983D01*
X158651546Y-79201172D01*
X158637917Y-79206049D01*
X158623876Y-79209566D01*
X158609558Y-79211690D01*
X158595100Y-79212400D01*
X158300100Y-79212400D01*
X158285642Y-79211690D01*
X158271324Y-79209566D01*
X158257283Y-79206049D01*
X158243654Y-79201172D01*
X158230569Y-79194983D01*
X158218153Y-79187542D01*
X158206527Y-79178919D01*
X158195802Y-79169198D01*
X158186081Y-79158473D01*
X158177458Y-79146847D01*
X158170017Y-79134431D01*
X158163828Y-79121346D01*
X158158951Y-79107717D01*
X158155434Y-79093676D01*
X158153310Y-79079358D01*
X158152600Y-79064900D01*
X158152600Y-78719900D01*
X158153310Y-78705442D01*
X158155434Y-78691124D01*
X158158951Y-78677083D01*
X158163828Y-78663454D01*
X158170017Y-78650369D01*
X158177458Y-78637953D01*
X158186081Y-78626327D01*
X158195802Y-78615602D01*
X158206527Y-78605881D01*
X158218153Y-78597258D01*
X158230569Y-78589817D01*
X158243654Y-78583628D01*
X158257283Y-78578751D01*
X158271324Y-78575234D01*
X158285642Y-78573110D01*
X158300100Y-78572400D01*
X158595100Y-78572400D01*
X158609558Y-78573110D01*
X158609558Y-78573110D01*
G37*
D16*
G04 #@! TD*
G04 #@! TO.P,R3,2*
G04 #@! TO.N,-BATT*
X158447600Y-78892400D03*
D11*
G04 #@! TO.N,PTA0*
G04 #@! TO.C,R3*
G36*
X157639558Y-78573110D02*
X157653876Y-78575234D01*
X157667917Y-78578751D01*
X157681546Y-78583628D01*
X157694631Y-78589817D01*
X157707047Y-78597258D01*
X157718673Y-78605881D01*
X157729398Y-78615602D01*
X157739119Y-78626327D01*
X157747742Y-78637953D01*
X157755183Y-78650369D01*
X157761372Y-78663454D01*
X157766249Y-78677083D01*
X157769766Y-78691124D01*
X157771890Y-78705442D01*
X157772600Y-78719900D01*
X157772600Y-79064900D01*
X157771890Y-79079358D01*
X157769766Y-79093676D01*
X157766249Y-79107717D01*
X157761372Y-79121346D01*
X157755183Y-79134431D01*
X157747742Y-79146847D01*
X157739119Y-79158473D01*
X157729398Y-79169198D01*
X157718673Y-79178919D01*
X157707047Y-79187542D01*
X157694631Y-79194983D01*
X157681546Y-79201172D01*
X157667917Y-79206049D01*
X157653876Y-79209566D01*
X157639558Y-79211690D01*
X157625100Y-79212400D01*
X157330100Y-79212400D01*
X157315642Y-79211690D01*
X157301324Y-79209566D01*
X157287283Y-79206049D01*
X157273654Y-79201172D01*
X157260569Y-79194983D01*
X157248153Y-79187542D01*
X157236527Y-79178919D01*
X157225802Y-79169198D01*
X157216081Y-79158473D01*
X157207458Y-79146847D01*
X157200017Y-79134431D01*
X157193828Y-79121346D01*
X157188951Y-79107717D01*
X157185434Y-79093676D01*
X157183310Y-79079358D01*
X157182600Y-79064900D01*
X157182600Y-78719900D01*
X157183310Y-78705442D01*
X157185434Y-78691124D01*
X157188951Y-78677083D01*
X157193828Y-78663454D01*
X157200017Y-78650369D01*
X157207458Y-78637953D01*
X157216081Y-78626327D01*
X157225802Y-78615602D01*
X157236527Y-78605881D01*
X157248153Y-78597258D01*
X157260569Y-78589817D01*
X157273654Y-78583628D01*
X157287283Y-78578751D01*
X157301324Y-78575234D01*
X157315642Y-78573110D01*
X157330100Y-78572400D01*
X157625100Y-78572400D01*
X157639558Y-78573110D01*
X157639558Y-78573110D01*
G37*
D16*
G04 #@! TD*
G04 #@! TO.P,R3,1*
G04 #@! TO.N,PTA0*
X157477600Y-78892400D03*
D11*
G04 #@! TO.N,PTA1*
G04 #@! TO.C,R4*
G36*
X157639558Y-79665310D02*
X157653876Y-79667434D01*
X157667917Y-79670951D01*
X157681546Y-79675828D01*
X157694631Y-79682017D01*
X157707047Y-79689458D01*
X157718673Y-79698081D01*
X157729398Y-79707802D01*
X157739119Y-79718527D01*
X157747742Y-79730153D01*
X157755183Y-79742569D01*
X157761372Y-79755654D01*
X157766249Y-79769283D01*
X157769766Y-79783324D01*
X157771890Y-79797642D01*
X157772600Y-79812100D01*
X157772600Y-80157100D01*
X157771890Y-80171558D01*
X157769766Y-80185876D01*
X157766249Y-80199917D01*
X157761372Y-80213546D01*
X157755183Y-80226631D01*
X157747742Y-80239047D01*
X157739119Y-80250673D01*
X157729398Y-80261398D01*
X157718673Y-80271119D01*
X157707047Y-80279742D01*
X157694631Y-80287183D01*
X157681546Y-80293372D01*
X157667917Y-80298249D01*
X157653876Y-80301766D01*
X157639558Y-80303890D01*
X157625100Y-80304600D01*
X157330100Y-80304600D01*
X157315642Y-80303890D01*
X157301324Y-80301766D01*
X157287283Y-80298249D01*
X157273654Y-80293372D01*
X157260569Y-80287183D01*
X157248153Y-80279742D01*
X157236527Y-80271119D01*
X157225802Y-80261398D01*
X157216081Y-80250673D01*
X157207458Y-80239047D01*
X157200017Y-80226631D01*
X157193828Y-80213546D01*
X157188951Y-80199917D01*
X157185434Y-80185876D01*
X157183310Y-80171558D01*
X157182600Y-80157100D01*
X157182600Y-79812100D01*
X157183310Y-79797642D01*
X157185434Y-79783324D01*
X157188951Y-79769283D01*
X157193828Y-79755654D01*
X157200017Y-79742569D01*
X157207458Y-79730153D01*
X157216081Y-79718527D01*
X157225802Y-79707802D01*
X157236527Y-79698081D01*
X157248153Y-79689458D01*
X157260569Y-79682017D01*
X157273654Y-79675828D01*
X157287283Y-79670951D01*
X157301324Y-79667434D01*
X157315642Y-79665310D01*
X157330100Y-79664600D01*
X157625100Y-79664600D01*
X157639558Y-79665310D01*
X157639558Y-79665310D01*
G37*
D16*
G04 #@! TD*
G04 #@! TO.P,R4,1*
G04 #@! TO.N,PTA1*
X157477600Y-79984600D03*
D11*
G04 #@! TO.N,-BATT*
G04 #@! TO.C,R4*
G36*
X158609558Y-79665310D02*
X158623876Y-79667434D01*
X158637917Y-79670951D01*
X158651546Y-79675828D01*
X158664631Y-79682017D01*
X158677047Y-79689458D01*
X158688673Y-79698081D01*
X158699398Y-79707802D01*
X158709119Y-79718527D01*
X158717742Y-79730153D01*
X158725183Y-79742569D01*
X158731372Y-79755654D01*
X158736249Y-79769283D01*
X158739766Y-79783324D01*
X158741890Y-79797642D01*
X158742600Y-79812100D01*
X158742600Y-80157100D01*
X158741890Y-80171558D01*
X158739766Y-80185876D01*
X158736249Y-80199917D01*
X158731372Y-80213546D01*
X158725183Y-80226631D01*
X158717742Y-80239047D01*
X158709119Y-80250673D01*
X158699398Y-80261398D01*
X158688673Y-80271119D01*
X158677047Y-80279742D01*
X158664631Y-80287183D01*
X158651546Y-80293372D01*
X158637917Y-80298249D01*
X158623876Y-80301766D01*
X158609558Y-80303890D01*
X158595100Y-80304600D01*
X158300100Y-80304600D01*
X158285642Y-80303890D01*
X158271324Y-80301766D01*
X158257283Y-80298249D01*
X158243654Y-80293372D01*
X158230569Y-80287183D01*
X158218153Y-80279742D01*
X158206527Y-80271119D01*
X158195802Y-80261398D01*
X158186081Y-80250673D01*
X158177458Y-80239047D01*
X158170017Y-80226631D01*
X158163828Y-80213546D01*
X158158951Y-80199917D01*
X158155434Y-80185876D01*
X158153310Y-80171558D01*
X158152600Y-80157100D01*
X158152600Y-79812100D01*
X158153310Y-79797642D01*
X158155434Y-79783324D01*
X158158951Y-79769283D01*
X158163828Y-79755654D01*
X158170017Y-79742569D01*
X158177458Y-79730153D01*
X158186081Y-79718527D01*
X158195802Y-79707802D01*
X158206527Y-79698081D01*
X158218153Y-79689458D01*
X158230569Y-79682017D01*
X158243654Y-79675828D01*
X158257283Y-79670951D01*
X158271324Y-79667434D01*
X158285642Y-79665310D01*
X158300100Y-79664600D01*
X158595100Y-79664600D01*
X158609558Y-79665310D01*
X158609558Y-79665310D01*
G37*
D16*
G04 #@! TD*
G04 #@! TO.P,R4,2*
G04 #@! TO.N,-BATT*
X158447600Y-79984600D03*
D11*
G04 #@! TO.N,-BATT*
G04 #@! TO.C,R5*
G36*
X158609558Y-82078310D02*
X158623876Y-82080434D01*
X158637917Y-82083951D01*
X158651546Y-82088828D01*
X158664631Y-82095017D01*
X158677047Y-82102458D01*
X158688673Y-82111081D01*
X158699398Y-82120802D01*
X158709119Y-82131527D01*
X158717742Y-82143153D01*
X158725183Y-82155569D01*
X158731372Y-82168654D01*
X158736249Y-82182283D01*
X158739766Y-82196324D01*
X158741890Y-82210642D01*
X158742600Y-82225100D01*
X158742600Y-82570100D01*
X158741890Y-82584558D01*
X158739766Y-82598876D01*
X158736249Y-82612917D01*
X158731372Y-82626546D01*
X158725183Y-82639631D01*
X158717742Y-82652047D01*
X158709119Y-82663673D01*
X158699398Y-82674398D01*
X158688673Y-82684119D01*
X158677047Y-82692742D01*
X158664631Y-82700183D01*
X158651546Y-82706372D01*
X158637917Y-82711249D01*
X158623876Y-82714766D01*
X158609558Y-82716890D01*
X158595100Y-82717600D01*
X158300100Y-82717600D01*
X158285642Y-82716890D01*
X158271324Y-82714766D01*
X158257283Y-82711249D01*
X158243654Y-82706372D01*
X158230569Y-82700183D01*
X158218153Y-82692742D01*
X158206527Y-82684119D01*
X158195802Y-82674398D01*
X158186081Y-82663673D01*
X158177458Y-82652047D01*
X158170017Y-82639631D01*
X158163828Y-82626546D01*
X158158951Y-82612917D01*
X158155434Y-82598876D01*
X158153310Y-82584558D01*
X158152600Y-82570100D01*
X158152600Y-82225100D01*
X158153310Y-82210642D01*
X158155434Y-82196324D01*
X158158951Y-82182283D01*
X158163828Y-82168654D01*
X158170017Y-82155569D01*
X158177458Y-82143153D01*
X158186081Y-82131527D01*
X158195802Y-82120802D01*
X158206527Y-82111081D01*
X158218153Y-82102458D01*
X158230569Y-82095017D01*
X158243654Y-82088828D01*
X158257283Y-82083951D01*
X158271324Y-82080434D01*
X158285642Y-82078310D01*
X158300100Y-82077600D01*
X158595100Y-82077600D01*
X158609558Y-82078310D01*
X158609558Y-82078310D01*
G37*
D16*
G04 #@! TD*
G04 #@! TO.P,R5,2*
G04 #@! TO.N,-BATT*
X158447600Y-82397600D03*
D11*
G04 #@! TO.N,PTA2*
G04 #@! TO.C,R5*
G36*
X157639558Y-82078310D02*
X157653876Y-82080434D01*
X157667917Y-82083951D01*
X157681546Y-82088828D01*
X157694631Y-82095017D01*
X157707047Y-82102458D01*
X157718673Y-82111081D01*
X157729398Y-82120802D01*
X157739119Y-82131527D01*
X157747742Y-82143153D01*
X157755183Y-82155569D01*
X157761372Y-82168654D01*
X157766249Y-82182283D01*
X157769766Y-82196324D01*
X157771890Y-82210642D01*
X157772600Y-82225100D01*
X157772600Y-82570100D01*
X157771890Y-82584558D01*
X157769766Y-82598876D01*
X157766249Y-82612917D01*
X157761372Y-82626546D01*
X157755183Y-82639631D01*
X157747742Y-82652047D01*
X157739119Y-82663673D01*
X157729398Y-82674398D01*
X157718673Y-82684119D01*
X157707047Y-82692742D01*
X157694631Y-82700183D01*
X157681546Y-82706372D01*
X157667917Y-82711249D01*
X157653876Y-82714766D01*
X157639558Y-82716890D01*
X157625100Y-82717600D01*
X157330100Y-82717600D01*
X157315642Y-82716890D01*
X157301324Y-82714766D01*
X157287283Y-82711249D01*
X157273654Y-82706372D01*
X157260569Y-82700183D01*
X157248153Y-82692742D01*
X157236527Y-82684119D01*
X157225802Y-82674398D01*
X157216081Y-82663673D01*
X157207458Y-82652047D01*
X157200017Y-82639631D01*
X157193828Y-82626546D01*
X157188951Y-82612917D01*
X157185434Y-82598876D01*
X157183310Y-82584558D01*
X157182600Y-82570100D01*
X157182600Y-82225100D01*
X157183310Y-82210642D01*
X157185434Y-82196324D01*
X157188951Y-82182283D01*
X157193828Y-82168654D01*
X157200017Y-82155569D01*
X157207458Y-82143153D01*
X157216081Y-82131527D01*
X157225802Y-82120802D01*
X157236527Y-82111081D01*
X157248153Y-82102458D01*
X157260569Y-82095017D01*
X157273654Y-82088828D01*
X157287283Y-82083951D01*
X157301324Y-82080434D01*
X157315642Y-82078310D01*
X157330100Y-82077600D01*
X157625100Y-82077600D01*
X157639558Y-82078310D01*
X157639558Y-82078310D01*
G37*
D16*
G04 #@! TD*
G04 #@! TO.P,R5,1*
G04 #@! TO.N,PTA2*
X157477600Y-82397600D03*
D11*
G04 #@! TO.N,Net-(D1-Pad2)*
G04 #@! TO.C,R7*
G36*
X157768558Y-88303310D02*
X157782876Y-88305434D01*
X157796917Y-88308951D01*
X157810546Y-88313828D01*
X157823631Y-88320017D01*
X157836047Y-88327458D01*
X157847673Y-88336081D01*
X157858398Y-88345802D01*
X157868119Y-88356527D01*
X157876742Y-88368153D01*
X157884183Y-88380569D01*
X157890372Y-88393654D01*
X157895249Y-88407283D01*
X157898766Y-88421324D01*
X157900890Y-88435642D01*
X157901600Y-88450100D01*
X157901600Y-88745100D01*
X157900890Y-88759558D01*
X157898766Y-88773876D01*
X157895249Y-88787917D01*
X157890372Y-88801546D01*
X157884183Y-88814631D01*
X157876742Y-88827047D01*
X157868119Y-88838673D01*
X157858398Y-88849398D01*
X157847673Y-88859119D01*
X157836047Y-88867742D01*
X157823631Y-88875183D01*
X157810546Y-88881372D01*
X157796917Y-88886249D01*
X157782876Y-88889766D01*
X157768558Y-88891890D01*
X157754100Y-88892600D01*
X157409100Y-88892600D01*
X157394642Y-88891890D01*
X157380324Y-88889766D01*
X157366283Y-88886249D01*
X157352654Y-88881372D01*
X157339569Y-88875183D01*
X157327153Y-88867742D01*
X157315527Y-88859119D01*
X157304802Y-88849398D01*
X157295081Y-88838673D01*
X157286458Y-88827047D01*
X157279017Y-88814631D01*
X157272828Y-88801546D01*
X157267951Y-88787917D01*
X157264434Y-88773876D01*
X157262310Y-88759558D01*
X157261600Y-88745100D01*
X157261600Y-88450100D01*
X157262310Y-88435642D01*
X157264434Y-88421324D01*
X157267951Y-88407283D01*
X157272828Y-88393654D01*
X157279017Y-88380569D01*
X157286458Y-88368153D01*
X157295081Y-88356527D01*
X157304802Y-88345802D01*
X157315527Y-88336081D01*
X157327153Y-88327458D01*
X157339569Y-88320017D01*
X157352654Y-88313828D01*
X157366283Y-88308951D01*
X157380324Y-88305434D01*
X157394642Y-88303310D01*
X157409100Y-88302600D01*
X157754100Y-88302600D01*
X157768558Y-88303310D01*
X157768558Y-88303310D01*
G37*
D16*
G04 #@! TD*
G04 #@! TO.P,R7,2*
G04 #@! TO.N,Net-(D1-Pad2)*
X157581600Y-88597600D03*
D11*
G04 #@! TO.N,PTB0*
G04 #@! TO.C,R7*
G36*
X157768558Y-87333310D02*
X157782876Y-87335434D01*
X157796917Y-87338951D01*
X157810546Y-87343828D01*
X157823631Y-87350017D01*
X157836047Y-87357458D01*
X157847673Y-87366081D01*
X157858398Y-87375802D01*
X157868119Y-87386527D01*
X157876742Y-87398153D01*
X157884183Y-87410569D01*
X157890372Y-87423654D01*
X157895249Y-87437283D01*
X157898766Y-87451324D01*
X157900890Y-87465642D01*
X157901600Y-87480100D01*
X157901600Y-87775100D01*
X157900890Y-87789558D01*
X157898766Y-87803876D01*
X157895249Y-87817917D01*
X157890372Y-87831546D01*
X157884183Y-87844631D01*
X157876742Y-87857047D01*
X157868119Y-87868673D01*
X157858398Y-87879398D01*
X157847673Y-87889119D01*
X157836047Y-87897742D01*
X157823631Y-87905183D01*
X157810546Y-87911372D01*
X157796917Y-87916249D01*
X157782876Y-87919766D01*
X157768558Y-87921890D01*
X157754100Y-87922600D01*
X157409100Y-87922600D01*
X157394642Y-87921890D01*
X157380324Y-87919766D01*
X157366283Y-87916249D01*
X157352654Y-87911372D01*
X157339569Y-87905183D01*
X157327153Y-87897742D01*
X157315527Y-87889119D01*
X157304802Y-87879398D01*
X157295081Y-87868673D01*
X157286458Y-87857047D01*
X157279017Y-87844631D01*
X157272828Y-87831546D01*
X157267951Y-87817917D01*
X157264434Y-87803876D01*
X157262310Y-87789558D01*
X157261600Y-87775100D01*
X157261600Y-87480100D01*
X157262310Y-87465642D01*
X157264434Y-87451324D01*
X157267951Y-87437283D01*
X157272828Y-87423654D01*
X157279017Y-87410569D01*
X157286458Y-87398153D01*
X157295081Y-87386527D01*
X157304802Y-87375802D01*
X157315527Y-87366081D01*
X157327153Y-87357458D01*
X157339569Y-87350017D01*
X157352654Y-87343828D01*
X157366283Y-87338951D01*
X157380324Y-87335434D01*
X157394642Y-87333310D01*
X157409100Y-87332600D01*
X157754100Y-87332600D01*
X157768558Y-87333310D01*
X157768558Y-87333310D01*
G37*
D16*
G04 #@! TD*
G04 #@! TO.P,R7,1*
G04 #@! TO.N,PTB0*
X157581600Y-87627600D03*
D11*
G04 #@! TO.N,PTB1*
G04 #@! TO.C,R8*
G36*
X158835358Y-87333310D02*
X158849676Y-87335434D01*
X158863717Y-87338951D01*
X158877346Y-87343828D01*
X158890431Y-87350017D01*
X158902847Y-87357458D01*
X158914473Y-87366081D01*
X158925198Y-87375802D01*
X158934919Y-87386527D01*
X158943542Y-87398153D01*
X158950983Y-87410569D01*
X158957172Y-87423654D01*
X158962049Y-87437283D01*
X158965566Y-87451324D01*
X158967690Y-87465642D01*
X158968400Y-87480100D01*
X158968400Y-87775100D01*
X158967690Y-87789558D01*
X158965566Y-87803876D01*
X158962049Y-87817917D01*
X158957172Y-87831546D01*
X158950983Y-87844631D01*
X158943542Y-87857047D01*
X158934919Y-87868673D01*
X158925198Y-87879398D01*
X158914473Y-87889119D01*
X158902847Y-87897742D01*
X158890431Y-87905183D01*
X158877346Y-87911372D01*
X158863717Y-87916249D01*
X158849676Y-87919766D01*
X158835358Y-87921890D01*
X158820900Y-87922600D01*
X158475900Y-87922600D01*
X158461442Y-87921890D01*
X158447124Y-87919766D01*
X158433083Y-87916249D01*
X158419454Y-87911372D01*
X158406369Y-87905183D01*
X158393953Y-87897742D01*
X158382327Y-87889119D01*
X158371602Y-87879398D01*
X158361881Y-87868673D01*
X158353258Y-87857047D01*
X158345817Y-87844631D01*
X158339628Y-87831546D01*
X158334751Y-87817917D01*
X158331234Y-87803876D01*
X158329110Y-87789558D01*
X158328400Y-87775100D01*
X158328400Y-87480100D01*
X158329110Y-87465642D01*
X158331234Y-87451324D01*
X158334751Y-87437283D01*
X158339628Y-87423654D01*
X158345817Y-87410569D01*
X158353258Y-87398153D01*
X158361881Y-87386527D01*
X158371602Y-87375802D01*
X158382327Y-87366081D01*
X158393953Y-87357458D01*
X158406369Y-87350017D01*
X158419454Y-87343828D01*
X158433083Y-87338951D01*
X158447124Y-87335434D01*
X158461442Y-87333310D01*
X158475900Y-87332600D01*
X158820900Y-87332600D01*
X158835358Y-87333310D01*
X158835358Y-87333310D01*
G37*
D16*
G04 #@! TD*
G04 #@! TO.P,R8,1*
G04 #@! TO.N,PTB1*
X158648400Y-87627600D03*
D11*
G04 #@! TO.N,Net-(D2-Pad2)*
G04 #@! TO.C,R8*
G36*
X158835358Y-88303310D02*
X158849676Y-88305434D01*
X158863717Y-88308951D01*
X158877346Y-88313828D01*
X158890431Y-88320017D01*
X158902847Y-88327458D01*
X158914473Y-88336081D01*
X158925198Y-88345802D01*
X158934919Y-88356527D01*
X158943542Y-88368153D01*
X158950983Y-88380569D01*
X158957172Y-88393654D01*
X158962049Y-88407283D01*
X158965566Y-88421324D01*
X158967690Y-88435642D01*
X158968400Y-88450100D01*
X158968400Y-88745100D01*
X158967690Y-88759558D01*
X158965566Y-88773876D01*
X158962049Y-88787917D01*
X158957172Y-88801546D01*
X158950983Y-88814631D01*
X158943542Y-88827047D01*
X158934919Y-88838673D01*
X158925198Y-88849398D01*
X158914473Y-88859119D01*
X158902847Y-88867742D01*
X158890431Y-88875183D01*
X158877346Y-88881372D01*
X158863717Y-88886249D01*
X158849676Y-88889766D01*
X158835358Y-88891890D01*
X158820900Y-88892600D01*
X158475900Y-88892600D01*
X158461442Y-88891890D01*
X158447124Y-88889766D01*
X158433083Y-88886249D01*
X158419454Y-88881372D01*
X158406369Y-88875183D01*
X158393953Y-88867742D01*
X158382327Y-88859119D01*
X158371602Y-88849398D01*
X158361881Y-88838673D01*
X158353258Y-88827047D01*
X158345817Y-88814631D01*
X158339628Y-88801546D01*
X158334751Y-88787917D01*
X158331234Y-88773876D01*
X158329110Y-88759558D01*
X158328400Y-88745100D01*
X158328400Y-88450100D01*
X158329110Y-88435642D01*
X158331234Y-88421324D01*
X158334751Y-88407283D01*
X158339628Y-88393654D01*
X158345817Y-88380569D01*
X158353258Y-88368153D01*
X158361881Y-88356527D01*
X158371602Y-88345802D01*
X158382327Y-88336081D01*
X158393953Y-88327458D01*
X158406369Y-88320017D01*
X158419454Y-88313828D01*
X158433083Y-88308951D01*
X158447124Y-88305434D01*
X158461442Y-88303310D01*
X158475900Y-88302600D01*
X158820900Y-88302600D01*
X158835358Y-88303310D01*
X158835358Y-88303310D01*
G37*
D16*
G04 #@! TD*
G04 #@! TO.P,R8,2*
G04 #@! TO.N,Net-(D2-Pad2)*
X158648400Y-88597600D03*
D17*
G04 #@! TO.P,TP1,1*
G04 #@! TO.N,+BATT*
X141900000Y-93100000D03*
G04 #@! TD*
G04 #@! TO.P,TP2,1*
G04 #@! TO.N,RESET*
X142062200Y-76885800D03*
G04 #@! TD*
G04 #@! TO.P,TP3,1*
G04 #@! TO.N,PTA4_BKGD*
X141900000Y-90900000D03*
G04 #@! TD*
G04 #@! TO.P,TP4,1*
G04 #@! TO.N,-BATT*
X158394400Y-93421200D03*
G04 #@! TD*
G04 #@! TO.P,TP5,1*
G04 #@! TO.N,-BATT*
X157962600Y-77038200D03*
G04 #@! TD*
D18*
G04 #@! TO.P,U1,25*
G04 #@! TO.N,-BATT*
X151900000Y-84900000D03*
G04 #@! TD*
D19*
G04 #@! TO.N,+BATT*
X142300000Y-80547600D03*
X147119000Y-81889600D03*
G04 #@! TO.N,-BATT*
X149402800Y-79959200D03*
X145288000Y-96520000D03*
X149860000Y-93472000D03*
X155956000Y-90932000D03*
X146304000Y-87376000D03*
X153600000Y-76100000D03*
G04 #@! TO.N,PTA4_BKGD*
X151384000Y-89916000D03*
X141500000Y-86200000D03*
G04 #@! TO.N,PTA0*
X153924000Y-77724000D03*
G04 #@! TO.N,PTA1*
X153924000Y-78740000D03*
G04 #@! TO.N,PTA2*
X153924000Y-79756000D03*
G04 #@! TO.N,PTB0*
X157480000Y-84328000D03*
G04 #@! TO.N,PTB1*
X158496000Y-84328000D03*
G04 #@! TO.N,RESET*
X146000000Y-75200000D03*
X146659600Y-78638400D03*
X146253200Y-82905600D03*
G04 #@! TD*
D20*
G04 #@! TO.N,+BATT*
X148651200Y-82346800D02*
X147576200Y-82346800D01*
X146306200Y-81076800D02*
X142829200Y-81076800D01*
X142829200Y-81076800D02*
X142300000Y-80547600D01*
X147576200Y-82346800D02*
X147119000Y-81889600D01*
X147119000Y-81889600D02*
X146306200Y-81076800D01*
X141900000Y-95590000D02*
X141808200Y-95681800D01*
X141900000Y-93100000D02*
X141900000Y-95590000D01*
G04 #@! TO.N,-BATT*
X157088800Y-90932000D02*
X157581600Y-90439200D01*
X155956000Y-90932000D02*
X157088800Y-90932000D01*
X158623000Y-90439200D02*
X157581600Y-90439200D01*
G04 #@! TO.N,Net-(D1-Pad2)*
X157581600Y-89799200D02*
X157581600Y-88597600D01*
G04 #@! TO.N,Net-(D2-Pad2)*
X158623000Y-88623000D02*
X158648400Y-88597600D01*
X158623000Y-89799200D02*
X158623000Y-88623000D01*
G04 #@! TO.N,PTA4_BKGD*
X143601200Y-88426800D02*
X145598400Y-90424000D01*
X143601200Y-87426800D02*
X143601200Y-88426800D01*
X145598400Y-90424000D02*
X150876000Y-90424000D01*
X150876000Y-90424000D02*
X151384000Y-89916000D01*
X141500000Y-86200000D02*
X142374400Y-86200000D01*
X142374400Y-86200000D02*
X143601200Y-87426800D01*
X143601200Y-89198800D02*
X141900000Y-90900000D01*
X143601200Y-87426800D02*
X143601200Y-89198800D01*
G04 #@! TO.N,PTA0*
X157477600Y-78892400D02*
X156108400Y-78892400D01*
X156108400Y-78892400D02*
X154940000Y-77724000D01*
X154940000Y-77724000D02*
X153924000Y-77724000D01*
G04 #@! TO.N,PTA1*
X157477600Y-79984600D02*
X155676600Y-79984600D01*
X155676600Y-79984600D02*
X154432000Y-78740000D01*
X154432000Y-78740000D02*
X153924000Y-78740000D01*
G04 #@! TO.N,PTA2*
X157477600Y-82397600D02*
X156565600Y-82397600D01*
X156565600Y-82397600D02*
X153924000Y-79756000D01*
G04 #@! TO.N,PTB0*
X157480000Y-87526000D02*
X157581600Y-87627600D01*
X157480000Y-84328000D02*
X157480000Y-87526000D01*
G04 #@! TO.N,PTB1*
X158496000Y-87475200D02*
X158648400Y-87627600D01*
X158496000Y-84328000D02*
X158496000Y-87475200D01*
G04 #@! TO.N,RESET*
X144885800Y-76885800D02*
X142062200Y-76885800D01*
X146000000Y-75765685D02*
X146000000Y-78000000D01*
X146000000Y-75200000D02*
X146000000Y-75765685D01*
X146000000Y-78000000D02*
X144885800Y-76885800D01*
X148651200Y-84886800D02*
X147576200Y-84886800D01*
X148651200Y-84886800D02*
X147523200Y-84886800D01*
X146238401Y-78238401D02*
X146000000Y-78000000D01*
X146259601Y-78238401D02*
X146238401Y-78238401D01*
X146659600Y-78638400D02*
X146259601Y-78238401D01*
X147576200Y-84886800D02*
X146913600Y-84886800D01*
X146913600Y-84886800D02*
X146812000Y-84886800D01*
X146812000Y-84886800D02*
X146253200Y-84328000D01*
X146253200Y-84328000D02*
X146253200Y-82905600D01*
D21*
G04 #@! TO.N,VDD_BAT*
X151954800Y-98221800D02*
X152361200Y-97815400D01*
X141808200Y-98221800D02*
X151954800Y-98221800D01*
G04 #@! TD*
D22*
G04 #@! TO.N,-BATT*
G36*
X159698000Y-99698000D02*
X140302000Y-99698000D01*
X140302000Y-98221800D01*
X140710101Y-98221800D01*
X140793689Y-98642024D01*
X141031727Y-98998273D01*
X141387976Y-99236311D01*
X141702128Y-99298800D01*
X141914272Y-99298800D01*
X142228424Y-99236311D01*
X142584673Y-98998273D01*
X142684548Y-98848800D01*
X151736397Y-98848800D01*
X151747371Y-98903971D01*
X151797542Y-98979058D01*
X151872629Y-99029229D01*
X151961200Y-99046847D01*
X152761200Y-99046847D01*
X152849771Y-99029229D01*
X152859703Y-99022593D01*
X152922873Y-99175098D01*
X153101501Y-99353727D01*
X153334890Y-99450400D01*
X153575450Y-99450400D01*
X153734200Y-99291650D01*
X153734200Y-97942400D01*
X153988200Y-97942400D01*
X153988200Y-99291650D01*
X154146950Y-99450400D01*
X154387510Y-99450400D01*
X154620899Y-99353727D01*
X154799527Y-99175098D01*
X154896200Y-98941709D01*
X154896200Y-98101150D01*
X154737450Y-97942400D01*
X153988200Y-97942400D01*
X153734200Y-97942400D01*
X153714200Y-97942400D01*
X153714200Y-97688400D01*
X153734200Y-97688400D01*
X153734200Y-96339150D01*
X153988200Y-96339150D01*
X153988200Y-97688400D01*
X154737450Y-97688400D01*
X154896200Y-97529650D01*
X154896200Y-96689091D01*
X154799527Y-96455702D01*
X154620899Y-96277073D01*
X154387510Y-96180400D01*
X154146950Y-96180400D01*
X153988200Y-96339150D01*
X153734200Y-96339150D01*
X153575450Y-96180400D01*
X153334890Y-96180400D01*
X153101501Y-96277073D01*
X152922873Y-96455702D01*
X152859703Y-96608207D01*
X152849771Y-96601571D01*
X152761200Y-96583953D01*
X151961200Y-96583953D01*
X151872629Y-96601571D01*
X151797542Y-96651742D01*
X151747371Y-96726829D01*
X151729753Y-96815400D01*
X151729753Y-97560135D01*
X151695089Y-97594800D01*
X142684548Y-97594800D01*
X142584673Y-97445327D01*
X142228424Y-97207289D01*
X141914272Y-97144800D01*
X141702128Y-97144800D01*
X141387976Y-97207289D01*
X141031727Y-97445327D01*
X140793689Y-97801576D01*
X140710101Y-98221800D01*
X140302000Y-98221800D01*
X140302000Y-94831800D01*
X140726753Y-94831800D01*
X140726753Y-96531800D01*
X140744371Y-96620371D01*
X140794542Y-96695458D01*
X140869629Y-96745629D01*
X140958200Y-96763247D01*
X142658200Y-96763247D01*
X142746771Y-96745629D01*
X142821858Y-96695458D01*
X142872029Y-96620371D01*
X142889647Y-96531800D01*
X142889647Y-94831800D01*
X142872029Y-94743229D01*
X142821858Y-94668142D01*
X142746771Y-94617971D01*
X142658200Y-94600353D01*
X142377000Y-94600353D01*
X142377000Y-93831447D01*
X142400000Y-93831447D01*
X142488571Y-93813829D01*
X142563658Y-93763658D01*
X142601548Y-93706950D01*
X157259400Y-93706950D01*
X157259400Y-94047510D01*
X157356073Y-94280899D01*
X157534702Y-94459527D01*
X157768091Y-94556200D01*
X158108650Y-94556200D01*
X158267400Y-94397450D01*
X158267400Y-93548200D01*
X158521400Y-93548200D01*
X158521400Y-94397450D01*
X158680150Y-94556200D01*
X159020709Y-94556200D01*
X159254098Y-94459527D01*
X159432727Y-94280899D01*
X159529400Y-94047510D01*
X159529400Y-93706950D01*
X159370650Y-93548200D01*
X158521400Y-93548200D01*
X158267400Y-93548200D01*
X157418150Y-93548200D01*
X157259400Y-93706950D01*
X142601548Y-93706950D01*
X142613829Y-93688571D01*
X142631447Y-93600000D01*
X142631447Y-92794890D01*
X157259400Y-92794890D01*
X157259400Y-93135450D01*
X157418150Y-93294200D01*
X158267400Y-93294200D01*
X158267400Y-92444950D01*
X158521400Y-92444950D01*
X158521400Y-93294200D01*
X159370650Y-93294200D01*
X159529400Y-93135450D01*
X159529400Y-92794890D01*
X159432727Y-92561501D01*
X159254098Y-92382873D01*
X159020709Y-92286200D01*
X158680150Y-92286200D01*
X158521400Y-92444950D01*
X158267400Y-92444950D01*
X158108650Y-92286200D01*
X157768091Y-92286200D01*
X157534702Y-92382873D01*
X157356073Y-92561501D01*
X157259400Y-92794890D01*
X142631447Y-92794890D01*
X142631447Y-92600000D01*
X142613829Y-92511429D01*
X142563658Y-92436342D01*
X142488571Y-92386171D01*
X142400000Y-92368553D01*
X141400000Y-92368553D01*
X141311429Y-92386171D01*
X141236342Y-92436342D01*
X141186171Y-92511429D01*
X141168553Y-92600000D01*
X141168553Y-93600000D01*
X141186171Y-93688571D01*
X141236342Y-93763658D01*
X141311429Y-93813829D01*
X141400000Y-93831447D01*
X141423000Y-93831447D01*
X141423001Y-94600353D01*
X140958200Y-94600353D01*
X140869629Y-94617971D01*
X140794542Y-94668142D01*
X140744371Y-94743229D01*
X140726753Y-94831800D01*
X140302000Y-94831800D01*
X140302000Y-86075282D01*
X140873000Y-86075282D01*
X140873000Y-86324718D01*
X140968455Y-86555167D01*
X141144833Y-86731545D01*
X141375282Y-86827000D01*
X141624718Y-86827000D01*
X141855167Y-86731545D01*
X141909712Y-86677000D01*
X142176821Y-86677000D01*
X142195174Y-86695353D01*
X142026200Y-86695353D01*
X141937629Y-86712971D01*
X141862542Y-86763142D01*
X141812371Y-86838229D01*
X141794753Y-86926800D01*
X141794753Y-87926800D01*
X141812371Y-88015371D01*
X141862542Y-88090458D01*
X141937629Y-88140629D01*
X142026200Y-88158247D01*
X143124200Y-88158247D01*
X143124201Y-88379826D01*
X143114857Y-88426800D01*
X143124201Y-88473774D01*
X143124201Y-89001219D01*
X141956868Y-90168553D01*
X141400000Y-90168553D01*
X141311429Y-90186171D01*
X141236342Y-90236342D01*
X141186171Y-90311429D01*
X141168553Y-90400000D01*
X141168553Y-91400000D01*
X141186171Y-91488571D01*
X141236342Y-91563658D01*
X141311429Y-91613829D01*
X141400000Y-91631447D01*
X142400000Y-91631447D01*
X142488571Y-91613829D01*
X142563658Y-91563658D01*
X142613829Y-91488571D01*
X142631447Y-91400000D01*
X142631447Y-90843132D01*
X143905274Y-89569306D01*
X143945097Y-89542697D01*
X143984118Y-89484298D01*
X145227894Y-90728074D01*
X145254503Y-90767897D01*
X145412284Y-90873323D01*
X145551425Y-90901000D01*
X145551429Y-90901000D01*
X145598399Y-90910343D01*
X145645369Y-90901000D01*
X150829029Y-90901000D01*
X150876000Y-90910343D01*
X150922971Y-90901000D01*
X150922975Y-90901000D01*
X151062116Y-90873323D01*
X151219897Y-90767897D01*
X151246508Y-90728071D01*
X151261629Y-90712950D01*
X156746600Y-90712950D01*
X156746600Y-90795509D01*
X156843273Y-91028898D01*
X157021901Y-91207527D01*
X157255290Y-91304200D01*
X157322850Y-91304200D01*
X157481600Y-91145450D01*
X157481600Y-90554200D01*
X157681600Y-90554200D01*
X157681600Y-91145450D01*
X157840350Y-91304200D01*
X157907910Y-91304200D01*
X158102300Y-91223681D01*
X158296690Y-91304200D01*
X158364250Y-91304200D01*
X158523000Y-91145450D01*
X158523000Y-90554200D01*
X158723000Y-90554200D01*
X158723000Y-91145450D01*
X158881750Y-91304200D01*
X158949310Y-91304200D01*
X159182699Y-91207527D01*
X159361327Y-91028898D01*
X159458000Y-90795509D01*
X159458000Y-90712950D01*
X159299250Y-90554200D01*
X158723000Y-90554200D01*
X158523000Y-90554200D01*
X157681600Y-90554200D01*
X157481600Y-90554200D01*
X156905350Y-90554200D01*
X156746600Y-90712950D01*
X151261629Y-90712950D01*
X151431579Y-90543000D01*
X151508718Y-90543000D01*
X151739167Y-90447545D01*
X151915545Y-90271167D01*
X151993531Y-90082891D01*
X156746600Y-90082891D01*
X156746600Y-90165450D01*
X156905350Y-90324200D01*
X157481600Y-90324200D01*
X157481600Y-90292200D01*
X157681600Y-90292200D01*
X157681600Y-90324200D01*
X158523000Y-90324200D01*
X158523000Y-90292200D01*
X158723000Y-90292200D01*
X158723000Y-90324200D01*
X159299250Y-90324200D01*
X159458000Y-90165450D01*
X159458000Y-90082891D01*
X159361327Y-89849502D01*
X159182699Y-89670873D01*
X159100000Y-89636618D01*
X159100000Y-88996378D01*
X159171001Y-88890117D01*
X159199847Y-88745100D01*
X159199847Y-88450100D01*
X159171001Y-88305083D01*
X159088856Y-88182144D01*
X158984776Y-88112600D01*
X159088856Y-88043056D01*
X159171001Y-87920117D01*
X159199847Y-87775100D01*
X159199847Y-87480100D01*
X159171001Y-87335083D01*
X159088856Y-87212144D01*
X158973000Y-87134732D01*
X158973000Y-84737712D01*
X159027545Y-84683167D01*
X159123000Y-84452718D01*
X159123000Y-84203282D01*
X159027545Y-83972833D01*
X158851167Y-83796455D01*
X158620718Y-83701000D01*
X158371282Y-83701000D01*
X158140833Y-83796455D01*
X157988000Y-83949288D01*
X157835167Y-83796455D01*
X157604718Y-83701000D01*
X157355282Y-83701000D01*
X157124833Y-83796455D01*
X156948455Y-83972833D01*
X156853000Y-84203282D01*
X156853000Y-84452718D01*
X156948455Y-84683167D01*
X157003000Y-84737712D01*
X157003001Y-87479024D01*
X156993657Y-87526000D01*
X157030153Y-87709481D01*
X157030153Y-87775100D01*
X157058999Y-87920117D01*
X157141144Y-88043056D01*
X157245224Y-88112600D01*
X157141144Y-88182144D01*
X157058999Y-88305083D01*
X157030153Y-88450100D01*
X157030153Y-88745100D01*
X157058999Y-88890117D01*
X157104601Y-88958365D01*
X157104600Y-89636618D01*
X157021901Y-89670873D01*
X156843273Y-89849502D01*
X156746600Y-90082891D01*
X151993531Y-90082891D01*
X152011000Y-90040718D01*
X152011000Y-89791282D01*
X151915545Y-89560833D01*
X151739167Y-89384455D01*
X151508718Y-89289000D01*
X151259282Y-89289000D01*
X151028833Y-89384455D01*
X150852455Y-89560833D01*
X150757000Y-89791282D01*
X150757000Y-89868421D01*
X150678421Y-89947000D01*
X145795980Y-89947000D01*
X144078200Y-88229221D01*
X144078200Y-88158247D01*
X145176200Y-88158247D01*
X145264771Y-88140629D01*
X145339858Y-88090458D01*
X145390029Y-88015371D01*
X145407647Y-87926800D01*
X145407647Y-87712550D01*
X146441200Y-87712550D01*
X146441200Y-88053110D01*
X146537873Y-88286499D01*
X146716502Y-88465127D01*
X146949891Y-88561800D01*
X148365450Y-88561800D01*
X148524200Y-88403050D01*
X148524200Y-87553800D01*
X148778200Y-87553800D01*
X148778200Y-88403050D01*
X148936950Y-88561800D01*
X150352509Y-88561800D01*
X150585898Y-88465127D01*
X150764527Y-88286499D01*
X150861200Y-88053110D01*
X150861200Y-87712550D01*
X150702450Y-87553800D01*
X148778200Y-87553800D01*
X148524200Y-87553800D01*
X146599950Y-87553800D01*
X146441200Y-87712550D01*
X145407647Y-87712550D01*
X145407647Y-86926800D01*
X145390029Y-86838229D01*
X145364813Y-86800490D01*
X146441200Y-86800490D01*
X146441200Y-87141050D01*
X146599950Y-87299800D01*
X148524200Y-87299800D01*
X148524200Y-86450550D01*
X148778200Y-86450550D01*
X148778200Y-87299800D01*
X150702450Y-87299800D01*
X150861200Y-87141050D01*
X150861200Y-86800490D01*
X150764527Y-86567101D01*
X150585898Y-86388473D01*
X150352509Y-86291800D01*
X148936950Y-86291800D01*
X148778200Y-86450550D01*
X148524200Y-86450550D01*
X148365450Y-86291800D01*
X146949891Y-86291800D01*
X146716502Y-86388473D01*
X146537873Y-86567101D01*
X146441200Y-86800490D01*
X145364813Y-86800490D01*
X145339858Y-86763142D01*
X145264771Y-86712971D01*
X145176200Y-86695353D01*
X143544333Y-86695353D01*
X142744908Y-85895929D01*
X142718297Y-85856103D01*
X142560516Y-85750677D01*
X142421375Y-85723000D01*
X142421371Y-85723000D01*
X142374400Y-85713657D01*
X142327429Y-85723000D01*
X141909712Y-85723000D01*
X141855167Y-85668455D01*
X141624718Y-85573000D01*
X141375282Y-85573000D01*
X141144833Y-85668455D01*
X140968455Y-85844833D01*
X140873000Y-86075282D01*
X140302000Y-86075282D01*
X140302000Y-84386800D01*
X141794753Y-84386800D01*
X141794753Y-85386800D01*
X141812371Y-85475371D01*
X141862542Y-85550458D01*
X141937629Y-85600629D01*
X142026200Y-85618247D01*
X145176200Y-85618247D01*
X145264771Y-85600629D01*
X145339858Y-85550458D01*
X145390029Y-85475371D01*
X145407647Y-85386800D01*
X145407647Y-84386800D01*
X145390029Y-84298229D01*
X145339858Y-84223142D01*
X145264771Y-84172971D01*
X145176200Y-84155353D01*
X142026200Y-84155353D01*
X141937629Y-84172971D01*
X141862542Y-84223142D01*
X141812371Y-84298229D01*
X141794753Y-84386800D01*
X140302000Y-84386800D01*
X140302000Y-81846800D01*
X141794753Y-81846800D01*
X141794753Y-82846800D01*
X141812371Y-82935371D01*
X141862542Y-83010458D01*
X141937629Y-83060629D01*
X142026200Y-83078247D01*
X145176200Y-83078247D01*
X145264771Y-83060629D01*
X145339858Y-83010458D01*
X145390029Y-82935371D01*
X145407647Y-82846800D01*
X145407647Y-81846800D01*
X145390029Y-81758229D01*
X145339858Y-81683142D01*
X145264771Y-81632971D01*
X145176200Y-81615353D01*
X142026200Y-81615353D01*
X141937629Y-81632971D01*
X141862542Y-81683142D01*
X141812371Y-81758229D01*
X141794753Y-81846800D01*
X140302000Y-81846800D01*
X140302000Y-80422882D01*
X141673000Y-80422882D01*
X141673000Y-80672318D01*
X141768455Y-80902767D01*
X141944833Y-81079145D01*
X142175282Y-81174600D01*
X142252420Y-81174600D01*
X142458693Y-81380873D01*
X142485303Y-81420697D01*
X142643084Y-81526123D01*
X142782225Y-81553800D01*
X142782229Y-81553800D01*
X142829200Y-81563143D01*
X142876171Y-81553800D01*
X146108621Y-81553800D01*
X146492000Y-81937180D01*
X146492000Y-82014318D01*
X146587455Y-82244767D01*
X146763833Y-82421145D01*
X146844753Y-82454663D01*
X146844753Y-82695305D01*
X146784745Y-82550433D01*
X146608367Y-82374055D01*
X146377918Y-82278600D01*
X146128482Y-82278600D01*
X145898033Y-82374055D01*
X145721655Y-82550433D01*
X145626200Y-82780882D01*
X145626200Y-83030318D01*
X145721655Y-83260767D01*
X145776201Y-83315313D01*
X145776200Y-84281029D01*
X145766857Y-84328000D01*
X145776200Y-84374971D01*
X145776200Y-84374974D01*
X145803877Y-84514115D01*
X145909303Y-84671897D01*
X145949128Y-84698508D01*
X146441494Y-85190874D01*
X146468103Y-85230697D01*
X146507926Y-85257306D01*
X146625884Y-85336123D01*
X146812000Y-85373144D01*
X146844753Y-85366629D01*
X146844753Y-85386800D01*
X146862371Y-85475371D01*
X146912542Y-85550458D01*
X146987629Y-85600629D01*
X147076200Y-85618247D01*
X150226200Y-85618247D01*
X150230709Y-85617350D01*
X151362255Y-85617350D01*
X151386977Y-85822180D01*
X151778931Y-85948309D01*
X152189318Y-85914842D01*
X152413023Y-85822180D01*
X152437745Y-85617350D01*
X151900000Y-85079605D01*
X151362255Y-85617350D01*
X150230709Y-85617350D01*
X150314771Y-85600629D01*
X150389858Y-85550458D01*
X150440029Y-85475371D01*
X150457647Y-85386800D01*
X150457647Y-84778931D01*
X150851691Y-84778931D01*
X150885158Y-85189318D01*
X150977820Y-85413023D01*
X151182650Y-85437745D01*
X151720395Y-84900000D01*
X152079605Y-84900000D01*
X152617350Y-85437745D01*
X152822180Y-85413023D01*
X152948309Y-85021069D01*
X152914842Y-84610682D01*
X152822180Y-84386977D01*
X152617350Y-84362255D01*
X152079605Y-84900000D01*
X151720395Y-84900000D01*
X151182650Y-84362255D01*
X150977820Y-84386977D01*
X150851691Y-84778931D01*
X150457647Y-84778931D01*
X150457647Y-84386800D01*
X150440029Y-84298229D01*
X150389858Y-84223142D01*
X150329257Y-84182650D01*
X151362255Y-84182650D01*
X151900000Y-84720395D01*
X152437745Y-84182650D01*
X152413023Y-83977820D01*
X152021069Y-83851691D01*
X151610682Y-83885158D01*
X151386977Y-83977820D01*
X151362255Y-84182650D01*
X150329257Y-84182650D01*
X150314771Y-84172971D01*
X150226200Y-84155353D01*
X147076200Y-84155353D01*
X146987629Y-84172971D01*
X146912542Y-84223142D01*
X146876645Y-84276866D01*
X146730200Y-84130421D01*
X146730200Y-83315312D01*
X146784745Y-83260767D01*
X146880200Y-83030318D01*
X146880200Y-82962054D01*
X146912542Y-83010458D01*
X146987629Y-83060629D01*
X147076200Y-83078247D01*
X150226200Y-83078247D01*
X150314771Y-83060629D01*
X150389858Y-83010458D01*
X150440029Y-82935371D01*
X150457647Y-82846800D01*
X150457647Y-81846800D01*
X150440029Y-81758229D01*
X150389858Y-81683142D01*
X150314771Y-81632971D01*
X150226200Y-81615353D01*
X147684063Y-81615353D01*
X147650545Y-81534433D01*
X147474167Y-81358055D01*
X147243718Y-81262600D01*
X147166580Y-81262600D01*
X146676708Y-80772728D01*
X146650097Y-80732903D01*
X146492316Y-80627477D01*
X146353175Y-80599800D01*
X146353171Y-80599800D01*
X146306200Y-80590457D01*
X146259229Y-80599800D01*
X143026780Y-80599800D01*
X142927000Y-80500020D01*
X142927000Y-80422882D01*
X142831545Y-80192433D01*
X142655167Y-80016055D01*
X142424718Y-79920600D01*
X142175282Y-79920600D01*
X141944833Y-80016055D01*
X141768455Y-80192433D01*
X141673000Y-80422882D01*
X140302000Y-80422882D01*
X140302000Y-76385800D01*
X141330753Y-76385800D01*
X141330753Y-77385800D01*
X141348371Y-77474371D01*
X141398542Y-77549458D01*
X141473629Y-77599629D01*
X141562200Y-77617247D01*
X142562200Y-77617247D01*
X142650771Y-77599629D01*
X142725858Y-77549458D01*
X142776029Y-77474371D01*
X142793647Y-77385800D01*
X142793647Y-77362800D01*
X144688221Y-77362800D01*
X145629497Y-78304077D01*
X145656104Y-78343897D01*
X145695924Y-78370504D01*
X145695926Y-78370506D01*
X145695929Y-78370508D01*
X145867893Y-78542472D01*
X145894504Y-78582298D01*
X145998219Y-78651598D01*
X146032600Y-78685979D01*
X146032600Y-78763118D01*
X146128055Y-78993567D01*
X146304433Y-79169945D01*
X146534882Y-79265400D01*
X146784318Y-79265400D01*
X147014767Y-79169945D01*
X147191145Y-78993567D01*
X147286600Y-78763118D01*
X147286600Y-78513682D01*
X147191145Y-78283233D01*
X147014767Y-78106855D01*
X146784318Y-78011400D01*
X146707179Y-78011400D01*
X146630108Y-77934329D01*
X146603498Y-77894504D01*
X146499782Y-77825203D01*
X146477000Y-77802421D01*
X146477000Y-77599282D01*
X153297000Y-77599282D01*
X153297000Y-77848718D01*
X153392455Y-78079167D01*
X153545288Y-78232000D01*
X153392455Y-78384833D01*
X153297000Y-78615282D01*
X153297000Y-78864718D01*
X153392455Y-79095167D01*
X153545288Y-79248000D01*
X153392455Y-79400833D01*
X153297000Y-79631282D01*
X153297000Y-79880718D01*
X153392455Y-80111167D01*
X153568833Y-80287545D01*
X153799282Y-80383000D01*
X153876421Y-80383000D01*
X156195094Y-82701674D01*
X156221703Y-82741497D01*
X156261526Y-82768106D01*
X156379484Y-82846923D01*
X156565600Y-82883944D01*
X156612575Y-82874600D01*
X157116836Y-82874600D01*
X157185083Y-82920201D01*
X157330100Y-82949047D01*
X157561149Y-82949047D01*
X157614273Y-83077299D01*
X157792902Y-83255927D01*
X158026291Y-83352600D01*
X158161850Y-83352600D01*
X158320600Y-83193850D01*
X158320600Y-82524600D01*
X158574600Y-82524600D01*
X158574600Y-83193850D01*
X158733350Y-83352600D01*
X158868909Y-83352600D01*
X159102298Y-83255927D01*
X159280927Y-83077299D01*
X159377600Y-82843910D01*
X159377600Y-82683350D01*
X159218850Y-82524600D01*
X158574600Y-82524600D01*
X158320600Y-82524600D01*
X158300600Y-82524600D01*
X158300600Y-82270600D01*
X158320600Y-82270600D01*
X158320600Y-81601350D01*
X158574600Y-81601350D01*
X158574600Y-82270600D01*
X159218850Y-82270600D01*
X159377600Y-82111850D01*
X159377600Y-81951290D01*
X159280927Y-81717901D01*
X159102298Y-81539273D01*
X158868909Y-81442600D01*
X158733350Y-81442600D01*
X158574600Y-81601350D01*
X158320600Y-81601350D01*
X158161850Y-81442600D01*
X158026291Y-81442600D01*
X157792902Y-81539273D01*
X157614273Y-81717901D01*
X157561149Y-81846153D01*
X157330100Y-81846153D01*
X157185083Y-81874999D01*
X157116836Y-81920600D01*
X156763180Y-81920600D01*
X154551000Y-79708421D01*
X154551000Y-79631282D01*
X154481914Y-79464493D01*
X155306094Y-80288674D01*
X155332703Y-80328497D01*
X155490484Y-80433923D01*
X155629625Y-80461600D01*
X155629628Y-80461600D01*
X155676599Y-80470943D01*
X155723570Y-80461600D01*
X157116836Y-80461600D01*
X157185083Y-80507201D01*
X157330100Y-80536047D01*
X157561149Y-80536047D01*
X157614273Y-80664299D01*
X157792902Y-80842927D01*
X158026291Y-80939600D01*
X158161850Y-80939600D01*
X158320600Y-80780850D01*
X158320600Y-80111600D01*
X158574600Y-80111600D01*
X158574600Y-80780850D01*
X158733350Y-80939600D01*
X158868909Y-80939600D01*
X159102298Y-80842927D01*
X159280927Y-80664299D01*
X159377600Y-80430910D01*
X159377600Y-80270350D01*
X159218850Y-80111600D01*
X158574600Y-80111600D01*
X158320600Y-80111600D01*
X158300600Y-80111600D01*
X158300600Y-79857600D01*
X158320600Y-79857600D01*
X158320600Y-79019400D01*
X158574600Y-79019400D01*
X158574600Y-79857600D01*
X159218850Y-79857600D01*
X159377600Y-79698850D01*
X159377600Y-79538290D01*
X159336266Y-79438500D01*
X159377600Y-79338710D01*
X159377600Y-79178150D01*
X159218850Y-79019400D01*
X158574600Y-79019400D01*
X158320600Y-79019400D01*
X158300600Y-79019400D01*
X158300600Y-78765400D01*
X158320600Y-78765400D01*
X158320600Y-78745400D01*
X158574600Y-78745400D01*
X158574600Y-78765400D01*
X159218850Y-78765400D01*
X159377600Y-78606650D01*
X159377600Y-78446090D01*
X159280927Y-78212701D01*
X159102298Y-78034073D01*
X158934328Y-77964498D01*
X159000927Y-77897899D01*
X159097600Y-77664510D01*
X159097600Y-77323950D01*
X158938850Y-77165200D01*
X158089600Y-77165200D01*
X158089600Y-77185200D01*
X157835600Y-77185200D01*
X157835600Y-77165200D01*
X156986350Y-77165200D01*
X156827600Y-77323950D01*
X156827600Y-77664510D01*
X156924273Y-77897899D01*
X157102902Y-78076527D01*
X157336291Y-78173200D01*
X157653774Y-78173200D01*
X157614273Y-78212701D01*
X157561149Y-78340953D01*
X157330100Y-78340953D01*
X157185083Y-78369799D01*
X157116836Y-78415400D01*
X156305980Y-78415400D01*
X155310508Y-77419929D01*
X155283897Y-77380103D01*
X155126116Y-77274677D01*
X154986975Y-77247000D01*
X154986971Y-77247000D01*
X154940000Y-77237657D01*
X154893029Y-77247000D01*
X154333712Y-77247000D01*
X154279167Y-77192455D01*
X154048718Y-77097000D01*
X153799282Y-77097000D01*
X153568833Y-77192455D01*
X153392455Y-77368833D01*
X153297000Y-77599282D01*
X146477000Y-77599282D01*
X146477000Y-76411890D01*
X156827600Y-76411890D01*
X156827600Y-76752450D01*
X156986350Y-76911200D01*
X157835600Y-76911200D01*
X157835600Y-76061950D01*
X158089600Y-76061950D01*
X158089600Y-76911200D01*
X158938850Y-76911200D01*
X159097600Y-76752450D01*
X159097600Y-76411890D01*
X159000927Y-76178501D01*
X158822298Y-75999873D01*
X158588909Y-75903200D01*
X158248350Y-75903200D01*
X158089600Y-76061950D01*
X157835600Y-76061950D01*
X157676850Y-75903200D01*
X157336291Y-75903200D01*
X157102902Y-75999873D01*
X156924273Y-76178501D01*
X156827600Y-76411890D01*
X146477000Y-76411890D01*
X146477000Y-75609712D01*
X146531545Y-75555167D01*
X146627000Y-75324718D01*
X146627000Y-75075282D01*
X146531545Y-74844833D01*
X146355167Y-74668455D01*
X146124718Y-74573000D01*
X145875282Y-74573000D01*
X145644833Y-74668455D01*
X145468455Y-74844833D01*
X145373000Y-75075282D01*
X145373000Y-75324718D01*
X145468455Y-75555167D01*
X145523001Y-75609713D01*
X145523001Y-75718707D01*
X145523000Y-75718711D01*
X145523000Y-76848421D01*
X145256308Y-76581729D01*
X145229697Y-76541903D01*
X145071916Y-76436477D01*
X144932775Y-76408800D01*
X144932771Y-76408800D01*
X144885800Y-76399457D01*
X144838829Y-76408800D01*
X142793647Y-76408800D01*
X142793647Y-76385800D01*
X142776029Y-76297229D01*
X142725858Y-76222142D01*
X142650771Y-76171971D01*
X142562200Y-76154353D01*
X141562200Y-76154353D01*
X141473629Y-76171971D01*
X141398542Y-76222142D01*
X141348371Y-76297229D01*
X141330753Y-76385800D01*
X140302000Y-76385800D01*
X140302000Y-70302000D01*
X159698001Y-70302000D01*
X159698000Y-99698000D01*
X159698000Y-99698000D01*
G37*
X159698000Y-99698000D02*
X140302000Y-99698000D01*
X140302000Y-98221800D01*
X140710101Y-98221800D01*
X140793689Y-98642024D01*
X141031727Y-98998273D01*
X141387976Y-99236311D01*
X141702128Y-99298800D01*
X141914272Y-99298800D01*
X142228424Y-99236311D01*
X142584673Y-98998273D01*
X142684548Y-98848800D01*
X151736397Y-98848800D01*
X151747371Y-98903971D01*
X151797542Y-98979058D01*
X151872629Y-99029229D01*
X151961200Y-99046847D01*
X152761200Y-99046847D01*
X152849771Y-99029229D01*
X152859703Y-99022593D01*
X152922873Y-99175098D01*
X153101501Y-99353727D01*
X153334890Y-99450400D01*
X153575450Y-99450400D01*
X153734200Y-99291650D01*
X153734200Y-97942400D01*
X153988200Y-97942400D01*
X153988200Y-99291650D01*
X154146950Y-99450400D01*
X154387510Y-99450400D01*
X154620899Y-99353727D01*
X154799527Y-99175098D01*
X154896200Y-98941709D01*
X154896200Y-98101150D01*
X154737450Y-97942400D01*
X153988200Y-97942400D01*
X153734200Y-97942400D01*
X153714200Y-97942400D01*
X153714200Y-97688400D01*
X153734200Y-97688400D01*
X153734200Y-96339150D01*
X153988200Y-96339150D01*
X153988200Y-97688400D01*
X154737450Y-97688400D01*
X154896200Y-97529650D01*
X154896200Y-96689091D01*
X154799527Y-96455702D01*
X154620899Y-96277073D01*
X154387510Y-96180400D01*
X154146950Y-96180400D01*
X153988200Y-96339150D01*
X153734200Y-96339150D01*
X153575450Y-96180400D01*
X153334890Y-96180400D01*
X153101501Y-96277073D01*
X152922873Y-96455702D01*
X152859703Y-96608207D01*
X152849771Y-96601571D01*
X152761200Y-96583953D01*
X151961200Y-96583953D01*
X151872629Y-96601571D01*
X151797542Y-96651742D01*
X151747371Y-96726829D01*
X151729753Y-96815400D01*
X151729753Y-97560135D01*
X151695089Y-97594800D01*
X142684548Y-97594800D01*
X142584673Y-97445327D01*
X142228424Y-97207289D01*
X141914272Y-97144800D01*
X141702128Y-97144800D01*
X141387976Y-97207289D01*
X141031727Y-97445327D01*
X140793689Y-97801576D01*
X140710101Y-98221800D01*
X140302000Y-98221800D01*
X140302000Y-94831800D01*
X140726753Y-94831800D01*
X140726753Y-96531800D01*
X140744371Y-96620371D01*
X140794542Y-96695458D01*
X140869629Y-96745629D01*
X140958200Y-96763247D01*
X142658200Y-96763247D01*
X142746771Y-96745629D01*
X142821858Y-96695458D01*
X142872029Y-96620371D01*
X142889647Y-96531800D01*
X142889647Y-94831800D01*
X142872029Y-94743229D01*
X142821858Y-94668142D01*
X142746771Y-94617971D01*
X142658200Y-94600353D01*
X142377000Y-94600353D01*
X142377000Y-93831447D01*
X142400000Y-93831447D01*
X142488571Y-93813829D01*
X142563658Y-93763658D01*
X142601548Y-93706950D01*
X157259400Y-93706950D01*
X157259400Y-94047510D01*
X157356073Y-94280899D01*
X157534702Y-94459527D01*
X157768091Y-94556200D01*
X158108650Y-94556200D01*
X158267400Y-94397450D01*
X158267400Y-93548200D01*
X158521400Y-93548200D01*
X158521400Y-94397450D01*
X158680150Y-94556200D01*
X159020709Y-94556200D01*
X159254098Y-94459527D01*
X159432727Y-94280899D01*
X159529400Y-94047510D01*
X159529400Y-93706950D01*
X159370650Y-93548200D01*
X158521400Y-93548200D01*
X158267400Y-93548200D01*
X157418150Y-93548200D01*
X157259400Y-93706950D01*
X142601548Y-93706950D01*
X142613829Y-93688571D01*
X142631447Y-93600000D01*
X142631447Y-92794890D01*
X157259400Y-92794890D01*
X157259400Y-93135450D01*
X157418150Y-93294200D01*
X158267400Y-93294200D01*
X158267400Y-92444950D01*
X158521400Y-92444950D01*
X158521400Y-93294200D01*
X159370650Y-93294200D01*
X159529400Y-93135450D01*
X159529400Y-92794890D01*
X159432727Y-92561501D01*
X159254098Y-92382873D01*
X159020709Y-92286200D01*
X158680150Y-92286200D01*
X158521400Y-92444950D01*
X158267400Y-92444950D01*
X158108650Y-92286200D01*
X157768091Y-92286200D01*
X157534702Y-92382873D01*
X157356073Y-92561501D01*
X157259400Y-92794890D01*
X142631447Y-92794890D01*
X142631447Y-92600000D01*
X142613829Y-92511429D01*
X142563658Y-92436342D01*
X142488571Y-92386171D01*
X142400000Y-92368553D01*
X141400000Y-92368553D01*
X141311429Y-92386171D01*
X141236342Y-92436342D01*
X141186171Y-92511429D01*
X141168553Y-92600000D01*
X141168553Y-93600000D01*
X141186171Y-93688571D01*
X141236342Y-93763658D01*
X141311429Y-93813829D01*
X141400000Y-93831447D01*
X141423000Y-93831447D01*
X141423001Y-94600353D01*
X140958200Y-94600353D01*
X140869629Y-94617971D01*
X140794542Y-94668142D01*
X140744371Y-94743229D01*
X140726753Y-94831800D01*
X140302000Y-94831800D01*
X140302000Y-86075282D01*
X140873000Y-86075282D01*
X140873000Y-86324718D01*
X140968455Y-86555167D01*
X141144833Y-86731545D01*
X141375282Y-86827000D01*
X141624718Y-86827000D01*
X141855167Y-86731545D01*
X141909712Y-86677000D01*
X142176821Y-86677000D01*
X142195174Y-86695353D01*
X142026200Y-86695353D01*
X141937629Y-86712971D01*
X141862542Y-86763142D01*
X141812371Y-86838229D01*
X141794753Y-86926800D01*
X141794753Y-87926800D01*
X141812371Y-88015371D01*
X141862542Y-88090458D01*
X141937629Y-88140629D01*
X142026200Y-88158247D01*
X143124200Y-88158247D01*
X143124201Y-88379826D01*
X143114857Y-88426800D01*
X143124201Y-88473774D01*
X143124201Y-89001219D01*
X141956868Y-90168553D01*
X141400000Y-90168553D01*
X141311429Y-90186171D01*
X141236342Y-90236342D01*
X141186171Y-90311429D01*
X141168553Y-90400000D01*
X141168553Y-91400000D01*
X141186171Y-91488571D01*
X141236342Y-91563658D01*
X141311429Y-91613829D01*
X141400000Y-91631447D01*
X142400000Y-91631447D01*
X142488571Y-91613829D01*
X142563658Y-91563658D01*
X142613829Y-91488571D01*
X142631447Y-91400000D01*
X142631447Y-90843132D01*
X143905274Y-89569306D01*
X143945097Y-89542697D01*
X143984118Y-89484298D01*
X145227894Y-90728074D01*
X145254503Y-90767897D01*
X145412284Y-90873323D01*
X145551425Y-90901000D01*
X145551429Y-90901000D01*
X145598399Y-90910343D01*
X145645369Y-90901000D01*
X150829029Y-90901000D01*
X150876000Y-90910343D01*
X150922971Y-90901000D01*
X150922975Y-90901000D01*
X151062116Y-90873323D01*
X151219897Y-90767897D01*
X151246508Y-90728071D01*
X151261629Y-90712950D01*
X156746600Y-90712950D01*
X156746600Y-90795509D01*
X156843273Y-91028898D01*
X157021901Y-91207527D01*
X157255290Y-91304200D01*
X157322850Y-91304200D01*
X157481600Y-91145450D01*
X157481600Y-90554200D01*
X157681600Y-90554200D01*
X157681600Y-91145450D01*
X157840350Y-91304200D01*
X157907910Y-91304200D01*
X158102300Y-91223681D01*
X158296690Y-91304200D01*
X158364250Y-91304200D01*
X158523000Y-91145450D01*
X158523000Y-90554200D01*
X158723000Y-90554200D01*
X158723000Y-91145450D01*
X158881750Y-91304200D01*
X158949310Y-91304200D01*
X159182699Y-91207527D01*
X159361327Y-91028898D01*
X159458000Y-90795509D01*
X159458000Y-90712950D01*
X159299250Y-90554200D01*
X158723000Y-90554200D01*
X158523000Y-90554200D01*
X157681600Y-90554200D01*
X157481600Y-90554200D01*
X156905350Y-90554200D01*
X156746600Y-90712950D01*
X151261629Y-90712950D01*
X151431579Y-90543000D01*
X151508718Y-90543000D01*
X151739167Y-90447545D01*
X151915545Y-90271167D01*
X151993531Y-90082891D01*
X156746600Y-90082891D01*
X156746600Y-90165450D01*
X156905350Y-90324200D01*
X157481600Y-90324200D01*
X157481600Y-90292200D01*
X157681600Y-90292200D01*
X157681600Y-90324200D01*
X158523000Y-90324200D01*
X158523000Y-90292200D01*
X158723000Y-90292200D01*
X158723000Y-90324200D01*
X159299250Y-90324200D01*
X159458000Y-90165450D01*
X159458000Y-90082891D01*
X159361327Y-89849502D01*
X159182699Y-89670873D01*
X159100000Y-89636618D01*
X159100000Y-88996378D01*
X159171001Y-88890117D01*
X159199847Y-88745100D01*
X159199847Y-88450100D01*
X159171001Y-88305083D01*
X159088856Y-88182144D01*
X158984776Y-88112600D01*
X159088856Y-88043056D01*
X159171001Y-87920117D01*
X159199847Y-87775100D01*
X159199847Y-87480100D01*
X159171001Y-87335083D01*
X159088856Y-87212144D01*
X158973000Y-87134732D01*
X158973000Y-84737712D01*
X159027545Y-84683167D01*
X159123000Y-84452718D01*
X159123000Y-84203282D01*
X159027545Y-83972833D01*
X158851167Y-83796455D01*
X158620718Y-83701000D01*
X158371282Y-83701000D01*
X158140833Y-83796455D01*
X157988000Y-83949288D01*
X157835167Y-83796455D01*
X157604718Y-83701000D01*
X157355282Y-83701000D01*
X157124833Y-83796455D01*
X156948455Y-83972833D01*
X156853000Y-84203282D01*
X156853000Y-84452718D01*
X156948455Y-84683167D01*
X157003000Y-84737712D01*
X157003001Y-87479024D01*
X156993657Y-87526000D01*
X157030153Y-87709481D01*
X157030153Y-87775100D01*
X157058999Y-87920117D01*
X157141144Y-88043056D01*
X157245224Y-88112600D01*
X157141144Y-88182144D01*
X157058999Y-88305083D01*
X157030153Y-88450100D01*
X157030153Y-88745100D01*
X157058999Y-88890117D01*
X157104601Y-88958365D01*
X157104600Y-89636618D01*
X157021901Y-89670873D01*
X156843273Y-89849502D01*
X156746600Y-90082891D01*
X151993531Y-90082891D01*
X152011000Y-90040718D01*
X152011000Y-89791282D01*
X151915545Y-89560833D01*
X151739167Y-89384455D01*
X151508718Y-89289000D01*
X151259282Y-89289000D01*
X151028833Y-89384455D01*
X150852455Y-89560833D01*
X150757000Y-89791282D01*
X150757000Y-89868421D01*
X150678421Y-89947000D01*
X145795980Y-89947000D01*
X144078200Y-88229221D01*
X144078200Y-88158247D01*
X145176200Y-88158247D01*
X145264771Y-88140629D01*
X145339858Y-88090458D01*
X145390029Y-88015371D01*
X145407647Y-87926800D01*
X145407647Y-87712550D01*
X146441200Y-87712550D01*
X146441200Y-88053110D01*
X146537873Y-88286499D01*
X146716502Y-88465127D01*
X146949891Y-88561800D01*
X148365450Y-88561800D01*
X148524200Y-88403050D01*
X148524200Y-87553800D01*
X148778200Y-87553800D01*
X148778200Y-88403050D01*
X148936950Y-88561800D01*
X150352509Y-88561800D01*
X150585898Y-88465127D01*
X150764527Y-88286499D01*
X150861200Y-88053110D01*
X150861200Y-87712550D01*
X150702450Y-87553800D01*
X148778200Y-87553800D01*
X148524200Y-87553800D01*
X146599950Y-87553800D01*
X146441200Y-87712550D01*
X145407647Y-87712550D01*
X145407647Y-86926800D01*
X145390029Y-86838229D01*
X145364813Y-86800490D01*
X146441200Y-86800490D01*
X146441200Y-87141050D01*
X146599950Y-87299800D01*
X148524200Y-87299800D01*
X148524200Y-86450550D01*
X148778200Y-86450550D01*
X148778200Y-87299800D01*
X150702450Y-87299800D01*
X150861200Y-87141050D01*
X150861200Y-86800490D01*
X150764527Y-86567101D01*
X150585898Y-86388473D01*
X150352509Y-86291800D01*
X148936950Y-86291800D01*
X148778200Y-86450550D01*
X148524200Y-86450550D01*
X148365450Y-86291800D01*
X146949891Y-86291800D01*
X146716502Y-86388473D01*
X146537873Y-86567101D01*
X146441200Y-86800490D01*
X145364813Y-86800490D01*
X145339858Y-86763142D01*
X145264771Y-86712971D01*
X145176200Y-86695353D01*
X143544333Y-86695353D01*
X142744908Y-85895929D01*
X142718297Y-85856103D01*
X142560516Y-85750677D01*
X142421375Y-85723000D01*
X142421371Y-85723000D01*
X142374400Y-85713657D01*
X142327429Y-85723000D01*
X141909712Y-85723000D01*
X141855167Y-85668455D01*
X141624718Y-85573000D01*
X141375282Y-85573000D01*
X141144833Y-85668455D01*
X140968455Y-85844833D01*
X140873000Y-86075282D01*
X140302000Y-86075282D01*
X140302000Y-84386800D01*
X141794753Y-84386800D01*
X141794753Y-85386800D01*
X141812371Y-85475371D01*
X141862542Y-85550458D01*
X141937629Y-85600629D01*
X142026200Y-85618247D01*
X145176200Y-85618247D01*
X145264771Y-85600629D01*
X145339858Y-85550458D01*
X145390029Y-85475371D01*
X145407647Y-85386800D01*
X145407647Y-84386800D01*
X145390029Y-84298229D01*
X145339858Y-84223142D01*
X145264771Y-84172971D01*
X145176200Y-84155353D01*
X142026200Y-84155353D01*
X141937629Y-84172971D01*
X141862542Y-84223142D01*
X141812371Y-84298229D01*
X141794753Y-84386800D01*
X140302000Y-84386800D01*
X140302000Y-81846800D01*
X141794753Y-81846800D01*
X141794753Y-82846800D01*
X141812371Y-82935371D01*
X141862542Y-83010458D01*
X141937629Y-83060629D01*
X142026200Y-83078247D01*
X145176200Y-83078247D01*
X145264771Y-83060629D01*
X145339858Y-83010458D01*
X145390029Y-82935371D01*
X145407647Y-82846800D01*
X145407647Y-81846800D01*
X145390029Y-81758229D01*
X145339858Y-81683142D01*
X145264771Y-81632971D01*
X145176200Y-81615353D01*
X142026200Y-81615353D01*
X141937629Y-81632971D01*
X141862542Y-81683142D01*
X141812371Y-81758229D01*
X141794753Y-81846800D01*
X140302000Y-81846800D01*
X140302000Y-80422882D01*
X141673000Y-80422882D01*
X141673000Y-80672318D01*
X141768455Y-80902767D01*
X141944833Y-81079145D01*
X142175282Y-81174600D01*
X142252420Y-81174600D01*
X142458693Y-81380873D01*
X142485303Y-81420697D01*
X142643084Y-81526123D01*
X142782225Y-81553800D01*
X142782229Y-81553800D01*
X142829200Y-81563143D01*
X142876171Y-81553800D01*
X146108621Y-81553800D01*
X146492000Y-81937180D01*
X146492000Y-82014318D01*
X146587455Y-82244767D01*
X146763833Y-82421145D01*
X146844753Y-82454663D01*
X146844753Y-82695305D01*
X146784745Y-82550433D01*
X146608367Y-82374055D01*
X146377918Y-82278600D01*
X146128482Y-82278600D01*
X145898033Y-82374055D01*
X145721655Y-82550433D01*
X145626200Y-82780882D01*
X145626200Y-83030318D01*
X145721655Y-83260767D01*
X145776201Y-83315313D01*
X145776200Y-84281029D01*
X145766857Y-84328000D01*
X145776200Y-84374971D01*
X145776200Y-84374974D01*
X145803877Y-84514115D01*
X145909303Y-84671897D01*
X145949128Y-84698508D01*
X146441494Y-85190874D01*
X146468103Y-85230697D01*
X146507926Y-85257306D01*
X146625884Y-85336123D01*
X146812000Y-85373144D01*
X146844753Y-85366629D01*
X146844753Y-85386800D01*
X146862371Y-85475371D01*
X146912542Y-85550458D01*
X146987629Y-85600629D01*
X147076200Y-85618247D01*
X150226200Y-85618247D01*
X150230709Y-85617350D01*
X151362255Y-85617350D01*
X151386977Y-85822180D01*
X151778931Y-85948309D01*
X152189318Y-85914842D01*
X152413023Y-85822180D01*
X152437745Y-85617350D01*
X151900000Y-85079605D01*
X151362255Y-85617350D01*
X150230709Y-85617350D01*
X150314771Y-85600629D01*
X150389858Y-85550458D01*
X150440029Y-85475371D01*
X150457647Y-85386800D01*
X150457647Y-84778931D01*
X150851691Y-84778931D01*
X150885158Y-85189318D01*
X150977820Y-85413023D01*
X151182650Y-85437745D01*
X151720395Y-84900000D01*
X152079605Y-84900000D01*
X152617350Y-85437745D01*
X152822180Y-85413023D01*
X152948309Y-85021069D01*
X152914842Y-84610682D01*
X152822180Y-84386977D01*
X152617350Y-84362255D01*
X152079605Y-84900000D01*
X151720395Y-84900000D01*
X151182650Y-84362255D01*
X150977820Y-84386977D01*
X150851691Y-84778931D01*
X150457647Y-84778931D01*
X150457647Y-84386800D01*
X150440029Y-84298229D01*
X150389858Y-84223142D01*
X150329257Y-84182650D01*
X151362255Y-84182650D01*
X151900000Y-84720395D01*
X152437745Y-84182650D01*
X152413023Y-83977820D01*
X152021069Y-83851691D01*
X151610682Y-83885158D01*
X151386977Y-83977820D01*
X151362255Y-84182650D01*
X150329257Y-84182650D01*
X150314771Y-84172971D01*
X150226200Y-84155353D01*
X147076200Y-84155353D01*
X146987629Y-84172971D01*
X146912542Y-84223142D01*
X146876645Y-84276866D01*
X146730200Y-84130421D01*
X146730200Y-83315312D01*
X146784745Y-83260767D01*
X146880200Y-83030318D01*
X146880200Y-82962054D01*
X146912542Y-83010458D01*
X146987629Y-83060629D01*
X147076200Y-83078247D01*
X150226200Y-83078247D01*
X150314771Y-83060629D01*
X150389858Y-83010458D01*
X150440029Y-82935371D01*
X150457647Y-82846800D01*
X150457647Y-81846800D01*
X150440029Y-81758229D01*
X150389858Y-81683142D01*
X150314771Y-81632971D01*
X150226200Y-81615353D01*
X147684063Y-81615353D01*
X147650545Y-81534433D01*
X147474167Y-81358055D01*
X147243718Y-81262600D01*
X147166580Y-81262600D01*
X146676708Y-80772728D01*
X146650097Y-80732903D01*
X146492316Y-80627477D01*
X146353175Y-80599800D01*
X146353171Y-80599800D01*
X146306200Y-80590457D01*
X146259229Y-80599800D01*
X143026780Y-80599800D01*
X142927000Y-80500020D01*
X142927000Y-80422882D01*
X142831545Y-80192433D01*
X142655167Y-80016055D01*
X142424718Y-79920600D01*
X142175282Y-79920600D01*
X141944833Y-80016055D01*
X141768455Y-80192433D01*
X141673000Y-80422882D01*
X140302000Y-80422882D01*
X140302000Y-76385800D01*
X141330753Y-76385800D01*
X141330753Y-77385800D01*
X141348371Y-77474371D01*
X141398542Y-77549458D01*
X141473629Y-77599629D01*
X141562200Y-77617247D01*
X142562200Y-77617247D01*
X142650771Y-77599629D01*
X142725858Y-77549458D01*
X142776029Y-77474371D01*
X142793647Y-77385800D01*
X142793647Y-77362800D01*
X144688221Y-77362800D01*
X145629497Y-78304077D01*
X145656104Y-78343897D01*
X145695924Y-78370504D01*
X145695926Y-78370506D01*
X145695929Y-78370508D01*
X145867893Y-78542472D01*
X145894504Y-78582298D01*
X145998219Y-78651598D01*
X146032600Y-78685979D01*
X146032600Y-78763118D01*
X146128055Y-78993567D01*
X146304433Y-79169945D01*
X146534882Y-79265400D01*
X146784318Y-79265400D01*
X147014767Y-79169945D01*
X147191145Y-78993567D01*
X147286600Y-78763118D01*
X147286600Y-78513682D01*
X147191145Y-78283233D01*
X147014767Y-78106855D01*
X146784318Y-78011400D01*
X146707179Y-78011400D01*
X146630108Y-77934329D01*
X146603498Y-77894504D01*
X146499782Y-77825203D01*
X146477000Y-77802421D01*
X146477000Y-77599282D01*
X153297000Y-77599282D01*
X153297000Y-77848718D01*
X153392455Y-78079167D01*
X153545288Y-78232000D01*
X153392455Y-78384833D01*
X153297000Y-78615282D01*
X153297000Y-78864718D01*
X153392455Y-79095167D01*
X153545288Y-79248000D01*
X153392455Y-79400833D01*
X153297000Y-79631282D01*
X153297000Y-79880718D01*
X153392455Y-80111167D01*
X153568833Y-80287545D01*
X153799282Y-80383000D01*
X153876421Y-80383000D01*
X156195094Y-82701674D01*
X156221703Y-82741497D01*
X156261526Y-82768106D01*
X156379484Y-82846923D01*
X156565600Y-82883944D01*
X156612575Y-82874600D01*
X157116836Y-82874600D01*
X157185083Y-82920201D01*
X157330100Y-82949047D01*
X157561149Y-82949047D01*
X157614273Y-83077299D01*
X157792902Y-83255927D01*
X158026291Y-83352600D01*
X158161850Y-83352600D01*
X158320600Y-83193850D01*
X158320600Y-82524600D01*
X158574600Y-82524600D01*
X158574600Y-83193850D01*
X158733350Y-83352600D01*
X158868909Y-83352600D01*
X159102298Y-83255927D01*
X159280927Y-83077299D01*
X159377600Y-82843910D01*
X159377600Y-82683350D01*
X159218850Y-82524600D01*
X158574600Y-82524600D01*
X158320600Y-82524600D01*
X158300600Y-82524600D01*
X158300600Y-82270600D01*
X158320600Y-82270600D01*
X158320600Y-81601350D01*
X158574600Y-81601350D01*
X158574600Y-82270600D01*
X159218850Y-82270600D01*
X159377600Y-82111850D01*
X159377600Y-81951290D01*
X159280927Y-81717901D01*
X159102298Y-81539273D01*
X158868909Y-81442600D01*
X158733350Y-81442600D01*
X158574600Y-81601350D01*
X158320600Y-81601350D01*
X158161850Y-81442600D01*
X158026291Y-81442600D01*
X157792902Y-81539273D01*
X157614273Y-81717901D01*
X157561149Y-81846153D01*
X157330100Y-81846153D01*
X157185083Y-81874999D01*
X157116836Y-81920600D01*
X156763180Y-81920600D01*
X154551000Y-79708421D01*
X154551000Y-79631282D01*
X154481914Y-79464493D01*
X155306094Y-80288674D01*
X155332703Y-80328497D01*
X155490484Y-80433923D01*
X155629625Y-80461600D01*
X155629628Y-80461600D01*
X155676599Y-80470943D01*
X155723570Y-80461600D01*
X157116836Y-80461600D01*
X157185083Y-80507201D01*
X157330100Y-80536047D01*
X157561149Y-80536047D01*
X157614273Y-80664299D01*
X157792902Y-80842927D01*
X158026291Y-80939600D01*
X158161850Y-80939600D01*
X158320600Y-80780850D01*
X158320600Y-80111600D01*
X158574600Y-80111600D01*
X158574600Y-80780850D01*
X158733350Y-80939600D01*
X158868909Y-80939600D01*
X159102298Y-80842927D01*
X159280927Y-80664299D01*
X159377600Y-80430910D01*
X159377600Y-80270350D01*
X159218850Y-80111600D01*
X158574600Y-80111600D01*
X158320600Y-80111600D01*
X158300600Y-80111600D01*
X158300600Y-79857600D01*
X158320600Y-79857600D01*
X158320600Y-79019400D01*
X158574600Y-79019400D01*
X158574600Y-79857600D01*
X159218850Y-79857600D01*
X159377600Y-79698850D01*
X159377600Y-79538290D01*
X159336266Y-79438500D01*
X159377600Y-79338710D01*
X159377600Y-79178150D01*
X159218850Y-79019400D01*
X158574600Y-79019400D01*
X158320600Y-79019400D01*
X158300600Y-79019400D01*
X158300600Y-78765400D01*
X158320600Y-78765400D01*
X158320600Y-78745400D01*
X158574600Y-78745400D01*
X158574600Y-78765400D01*
X159218850Y-78765400D01*
X159377600Y-78606650D01*
X159377600Y-78446090D01*
X159280927Y-78212701D01*
X159102298Y-78034073D01*
X158934328Y-77964498D01*
X159000927Y-77897899D01*
X159097600Y-77664510D01*
X159097600Y-77323950D01*
X158938850Y-77165200D01*
X158089600Y-77165200D01*
X158089600Y-77185200D01*
X157835600Y-77185200D01*
X157835600Y-77165200D01*
X156986350Y-77165200D01*
X156827600Y-77323950D01*
X156827600Y-77664510D01*
X156924273Y-77897899D01*
X157102902Y-78076527D01*
X157336291Y-78173200D01*
X157653774Y-78173200D01*
X157614273Y-78212701D01*
X157561149Y-78340953D01*
X157330100Y-78340953D01*
X157185083Y-78369799D01*
X157116836Y-78415400D01*
X156305980Y-78415400D01*
X155310508Y-77419929D01*
X155283897Y-77380103D01*
X155126116Y-77274677D01*
X154986975Y-77247000D01*
X154986971Y-77247000D01*
X154940000Y-77237657D01*
X154893029Y-77247000D01*
X154333712Y-77247000D01*
X154279167Y-77192455D01*
X154048718Y-77097000D01*
X153799282Y-77097000D01*
X153568833Y-77192455D01*
X153392455Y-77368833D01*
X153297000Y-77599282D01*
X146477000Y-77599282D01*
X146477000Y-76411890D01*
X156827600Y-76411890D01*
X156827600Y-76752450D01*
X156986350Y-76911200D01*
X157835600Y-76911200D01*
X157835600Y-76061950D01*
X158089600Y-76061950D01*
X158089600Y-76911200D01*
X158938850Y-76911200D01*
X159097600Y-76752450D01*
X159097600Y-76411890D01*
X159000927Y-76178501D01*
X158822298Y-75999873D01*
X158588909Y-75903200D01*
X158248350Y-75903200D01*
X158089600Y-76061950D01*
X157835600Y-76061950D01*
X157676850Y-75903200D01*
X157336291Y-75903200D01*
X157102902Y-75999873D01*
X156924273Y-76178501D01*
X156827600Y-76411890D01*
X146477000Y-76411890D01*
X146477000Y-75609712D01*
X146531545Y-75555167D01*
X146627000Y-75324718D01*
X146627000Y-75075282D01*
X146531545Y-74844833D01*
X146355167Y-74668455D01*
X146124718Y-74573000D01*
X145875282Y-74573000D01*
X145644833Y-74668455D01*
X145468455Y-74844833D01*
X145373000Y-75075282D01*
X145373000Y-75324718D01*
X145468455Y-75555167D01*
X145523001Y-75609713D01*
X145523001Y-75718707D01*
X145523000Y-75718711D01*
X145523000Y-76848421D01*
X145256308Y-76581729D01*
X145229697Y-76541903D01*
X145071916Y-76436477D01*
X144932775Y-76408800D01*
X144932771Y-76408800D01*
X144885800Y-76399457D01*
X144838829Y-76408800D01*
X142793647Y-76408800D01*
X142793647Y-76385800D01*
X142776029Y-76297229D01*
X142725858Y-76222142D01*
X142650771Y-76171971D01*
X142562200Y-76154353D01*
X141562200Y-76154353D01*
X141473629Y-76171971D01*
X141398542Y-76222142D01*
X141348371Y-76297229D01*
X141330753Y-76385800D01*
X140302000Y-76385800D01*
X140302000Y-70302000D01*
X159698001Y-70302000D01*
X159698000Y-99698000D01*
G04 #@! TD*
M02*
