G04 #@! TF.GenerationSoftware,KiCad,Pcbnew,(5.0.0)*
G04 #@! TF.CreationDate,2018-10-15T18:52:21-03:00*
G04 #@! TF.ProjectId,TPMS_Sensor,54504D535F53656E736F722E6B696361,1*
G04 #@! TF.SameCoordinates,Original*
G04 #@! TF.FileFunction,Legend,Top*
G04 #@! TF.FilePolarity,Positive*
%FSLAX46Y46*%
G04 Gerber Fmt 4.6, Leading zero omitted, Abs format (unit mm)*
G04 Created by KiCad (PCBNEW (5.0.0)) date 10/15/18 18:52:21*
%MOMM*%
%LPD*%
G01*
G04 APERTURE LIST*
%ADD10C,0.200000*%
%ADD11C,0.120000*%
%ADD12C,0.100000*%
%ADD13C,0.125000*%
G04 APERTURE END LIST*
D10*
X152500000Y-76100000D02*
X153200000Y-76100000D01*
X152100000Y-75100000D02*
X152500000Y-76100000D01*
X153500000Y-93100000D02*
X154400000Y-93100000D01*
X153000000Y-92100000D02*
X153500000Y-93100000D01*
D11*
G04 #@! TO.C,JP1*
X140478200Y-99551800D02*
X143138200Y-99551800D01*
X140478200Y-96951800D02*
X140478200Y-99551800D01*
X143138200Y-96951800D02*
X143138200Y-99551800D01*
X140478200Y-96951800D02*
X143138200Y-96951800D01*
X140478200Y-95681800D02*
X140478200Y-94351800D01*
X140478200Y-94351800D02*
X141808200Y-94351800D01*
G04 #@! TO.C,L5*
X159511200Y-99563000D02*
X159511200Y-95763000D01*
X159511200Y-95763000D02*
X146711200Y-95763000D01*
X146711200Y-95763000D02*
X146711200Y-99563000D01*
X146711200Y-99563000D02*
X159511200Y-99563000D01*
G04 #@! TO.C,Y1*
X144887400Y-91491000D02*
X144887400Y-94691000D01*
X144887400Y-94691000D02*
X148787400Y-94691000D01*
D12*
G04 #@! TO.C,U1*
X155475000Y-88475000D02*
X155475000Y-87900000D01*
X154900000Y-88475000D02*
X155475000Y-88475000D01*
X148325000Y-88475000D02*
X148325000Y-87900000D01*
X148900000Y-88475000D02*
X148325000Y-88475000D01*
X148900000Y-81325000D02*
X148325000Y-81325000D01*
X148325000Y-81325000D02*
X148325000Y-81900000D01*
X154600000Y-81325000D02*
X154600000Y-80900000D01*
X154900000Y-81325000D02*
X154600000Y-81325000D01*
X155475000Y-81900000D02*
X154900000Y-81325000D01*
X155475000Y-82050000D02*
X155475000Y-81900000D01*
G04 #@! TO.C,C1*
D13*
X144216666Y-84878571D02*
X144192857Y-84902380D01*
X144121428Y-84926190D01*
X144073809Y-84926190D01*
X144002380Y-84902380D01*
X143954761Y-84854761D01*
X143930952Y-84807142D01*
X143907142Y-84711904D01*
X143907142Y-84640476D01*
X143930952Y-84545238D01*
X143954761Y-84497619D01*
X144002380Y-84450000D01*
X144073809Y-84426190D01*
X144121428Y-84426190D01*
X144192857Y-84450000D01*
X144216666Y-84473809D01*
X144692857Y-84926190D02*
X144407142Y-84926190D01*
X144550000Y-84926190D02*
X144550000Y-84426190D01*
X144502380Y-84497619D01*
X144454761Y-84545238D01*
X144407142Y-84569047D01*
G04 #@! TO.C,C2*
X144016666Y-81478571D02*
X143992857Y-81502380D01*
X143921428Y-81526190D01*
X143873809Y-81526190D01*
X143802380Y-81502380D01*
X143754761Y-81454761D01*
X143730952Y-81407142D01*
X143707142Y-81311904D01*
X143707142Y-81240476D01*
X143730952Y-81145238D01*
X143754761Y-81097619D01*
X143802380Y-81050000D01*
X143873809Y-81026190D01*
X143921428Y-81026190D01*
X143992857Y-81050000D01*
X144016666Y-81073809D01*
X144207142Y-81073809D02*
X144230952Y-81050000D01*
X144278571Y-81026190D01*
X144397619Y-81026190D01*
X144445238Y-81050000D01*
X144469047Y-81073809D01*
X144492857Y-81121428D01*
X144492857Y-81169047D01*
X144469047Y-81240476D01*
X144183333Y-81526190D01*
X144492857Y-81526190D01*
G04 #@! TO.C,C3*
X145116666Y-81478571D02*
X145092857Y-81502380D01*
X145021428Y-81526190D01*
X144973809Y-81526190D01*
X144902380Y-81502380D01*
X144854761Y-81454761D01*
X144830952Y-81407142D01*
X144807142Y-81311904D01*
X144807142Y-81240476D01*
X144830952Y-81145238D01*
X144854761Y-81097619D01*
X144902380Y-81050000D01*
X144973809Y-81026190D01*
X145021428Y-81026190D01*
X145092857Y-81050000D01*
X145116666Y-81073809D01*
X145283333Y-81026190D02*
X145592857Y-81026190D01*
X145426190Y-81216666D01*
X145497619Y-81216666D01*
X145545238Y-81240476D01*
X145569047Y-81264285D01*
X145592857Y-81311904D01*
X145592857Y-81430952D01*
X145569047Y-81478571D01*
X145545238Y-81502380D01*
X145497619Y-81526190D01*
X145354761Y-81526190D01*
X145307142Y-81502380D01*
X145283333Y-81478571D01*
G04 #@! TO.C,C4*
X143016666Y-81478571D02*
X142992857Y-81502380D01*
X142921428Y-81526190D01*
X142873809Y-81526190D01*
X142802380Y-81502380D01*
X142754761Y-81454761D01*
X142730952Y-81407142D01*
X142707142Y-81311904D01*
X142707142Y-81240476D01*
X142730952Y-81145238D01*
X142754761Y-81097619D01*
X142802380Y-81050000D01*
X142873809Y-81026190D01*
X142921428Y-81026190D01*
X142992857Y-81050000D01*
X143016666Y-81073809D01*
X143445238Y-81192857D02*
X143445238Y-81526190D01*
X143326190Y-81002380D02*
X143207142Y-81359523D01*
X143516666Y-81359523D01*
G04 #@! TO.C,C5*
X145116666Y-88678571D02*
X145092857Y-88702380D01*
X145021428Y-88726190D01*
X144973809Y-88726190D01*
X144902380Y-88702380D01*
X144854761Y-88654761D01*
X144830952Y-88607142D01*
X144807142Y-88511904D01*
X144807142Y-88440476D01*
X144830952Y-88345238D01*
X144854761Y-88297619D01*
X144902380Y-88250000D01*
X144973809Y-88226190D01*
X145021428Y-88226190D01*
X145092857Y-88250000D01*
X145116666Y-88273809D01*
X145569047Y-88226190D02*
X145330952Y-88226190D01*
X145307142Y-88464285D01*
X145330952Y-88440476D01*
X145378571Y-88416666D01*
X145497619Y-88416666D01*
X145545238Y-88440476D01*
X145569047Y-88464285D01*
X145592857Y-88511904D01*
X145592857Y-88630952D01*
X145569047Y-88678571D01*
X145545238Y-88702380D01*
X145497619Y-88726190D01*
X145378571Y-88726190D01*
X145330952Y-88702380D01*
X145307142Y-88678571D01*
G04 #@! TO.C,C6*
X144116666Y-96478571D02*
X144092857Y-96502380D01*
X144021428Y-96526190D01*
X143973809Y-96526190D01*
X143902380Y-96502380D01*
X143854761Y-96454761D01*
X143830952Y-96407142D01*
X143807142Y-96311904D01*
X143807142Y-96240476D01*
X143830952Y-96145238D01*
X143854761Y-96097619D01*
X143902380Y-96050000D01*
X143973809Y-96026190D01*
X144021428Y-96026190D01*
X144092857Y-96050000D01*
X144116666Y-96073809D01*
X144545238Y-96026190D02*
X144450000Y-96026190D01*
X144402380Y-96050000D01*
X144378571Y-96073809D01*
X144330952Y-96145238D01*
X144307142Y-96240476D01*
X144307142Y-96430952D01*
X144330952Y-96478571D01*
X144354761Y-96502380D01*
X144402380Y-96526190D01*
X144497619Y-96526190D01*
X144545238Y-96502380D01*
X144569047Y-96478571D01*
X144592857Y-96430952D01*
X144592857Y-96311904D01*
X144569047Y-96264285D01*
X144545238Y-96240476D01*
X144497619Y-96216666D01*
X144402380Y-96216666D01*
X144354761Y-96240476D01*
X144330952Y-96264285D01*
X144307142Y-96311904D01*
G04 #@! TO.C,C7*
X145116666Y-90878571D02*
X145092857Y-90902380D01*
X145021428Y-90926190D01*
X144973809Y-90926190D01*
X144902380Y-90902380D01*
X144854761Y-90854761D01*
X144830952Y-90807142D01*
X144807142Y-90711904D01*
X144807142Y-90640476D01*
X144830952Y-90545238D01*
X144854761Y-90497619D01*
X144902380Y-90450000D01*
X144973809Y-90426190D01*
X145021428Y-90426190D01*
X145092857Y-90450000D01*
X145116666Y-90473809D01*
X145283333Y-90426190D02*
X145616666Y-90426190D01*
X145402380Y-90926190D01*
G04 #@! TO.C,C8*
X152516666Y-77278571D02*
X152492857Y-77302380D01*
X152421428Y-77326190D01*
X152373809Y-77326190D01*
X152302380Y-77302380D01*
X152254761Y-77254761D01*
X152230952Y-77207142D01*
X152207142Y-77111904D01*
X152207142Y-77040476D01*
X152230952Y-76945238D01*
X152254761Y-76897619D01*
X152302380Y-76850000D01*
X152373809Y-76826190D01*
X152421428Y-76826190D01*
X152492857Y-76850000D01*
X152516666Y-76873809D01*
X152802380Y-77040476D02*
X152754761Y-77016666D01*
X152730952Y-76992857D01*
X152707142Y-76945238D01*
X152707142Y-76921428D01*
X152730952Y-76873809D01*
X152754761Y-76850000D01*
X152802380Y-76826190D01*
X152897619Y-76826190D01*
X152945238Y-76850000D01*
X152969047Y-76873809D01*
X152992857Y-76921428D01*
X152992857Y-76945238D01*
X152969047Y-76992857D01*
X152945238Y-77016666D01*
X152897619Y-77040476D01*
X152802380Y-77040476D01*
X152754761Y-77064285D01*
X152730952Y-77088095D01*
X152707142Y-77135714D01*
X152707142Y-77230952D01*
X152730952Y-77278571D01*
X152754761Y-77302380D01*
X152802380Y-77326190D01*
X152897619Y-77326190D01*
X152945238Y-77302380D01*
X152969047Y-77278571D01*
X152992857Y-77230952D01*
X152992857Y-77135714D01*
X152969047Y-77088095D01*
X152945238Y-77064285D01*
X152897619Y-77040476D01*
G04 #@! TO.C,C9*
X153616666Y-73378571D02*
X153592857Y-73402380D01*
X153521428Y-73426190D01*
X153473809Y-73426190D01*
X153402380Y-73402380D01*
X153354761Y-73354761D01*
X153330952Y-73307142D01*
X153307142Y-73211904D01*
X153307142Y-73140476D01*
X153330952Y-73045238D01*
X153354761Y-72997619D01*
X153402380Y-72950000D01*
X153473809Y-72926190D01*
X153521428Y-72926190D01*
X153592857Y-72950000D01*
X153616666Y-72973809D01*
X153854761Y-73426190D02*
X153950000Y-73426190D01*
X153997619Y-73402380D01*
X154021428Y-73378571D01*
X154069047Y-73307142D01*
X154092857Y-73211904D01*
X154092857Y-73021428D01*
X154069047Y-72973809D01*
X154045238Y-72950000D01*
X153997619Y-72926190D01*
X153902380Y-72926190D01*
X153854761Y-72950000D01*
X153830952Y-72973809D01*
X153807142Y-73021428D01*
X153807142Y-73140476D01*
X153830952Y-73188095D01*
X153854761Y-73211904D01*
X153902380Y-73235714D01*
X153997619Y-73235714D01*
X154045238Y-73211904D01*
X154069047Y-73188095D01*
X154092857Y-73140476D01*
G04 #@! TO.C,C10*
X150978571Y-93278571D02*
X150954761Y-93302380D01*
X150883333Y-93326190D01*
X150835714Y-93326190D01*
X150764285Y-93302380D01*
X150716666Y-93254761D01*
X150692857Y-93207142D01*
X150669047Y-93111904D01*
X150669047Y-93040476D01*
X150692857Y-92945238D01*
X150716666Y-92897619D01*
X150764285Y-92850000D01*
X150835714Y-92826190D01*
X150883333Y-92826190D01*
X150954761Y-92850000D01*
X150978571Y-92873809D01*
X151454761Y-93326190D02*
X151169047Y-93326190D01*
X151311904Y-93326190D02*
X151311904Y-92826190D01*
X151264285Y-92897619D01*
X151216666Y-92945238D01*
X151169047Y-92969047D01*
X151764285Y-92826190D02*
X151811904Y-92826190D01*
X151859523Y-92850000D01*
X151883333Y-92873809D01*
X151907142Y-92921428D01*
X151930952Y-93016666D01*
X151930952Y-93135714D01*
X151907142Y-93230952D01*
X151883333Y-93278571D01*
X151859523Y-93302380D01*
X151811904Y-93326190D01*
X151764285Y-93326190D01*
X151716666Y-93302380D01*
X151692857Y-93278571D01*
X151669047Y-93230952D01*
X151645238Y-93135714D01*
X151645238Y-93016666D01*
X151669047Y-92921428D01*
X151692857Y-92873809D01*
X151716666Y-92850000D01*
X151764285Y-92826190D01*
G04 #@! TO.C,C11*
X148078571Y-74278571D02*
X148054761Y-74302380D01*
X147983333Y-74326190D01*
X147935714Y-74326190D01*
X147864285Y-74302380D01*
X147816666Y-74254761D01*
X147792857Y-74207142D01*
X147769047Y-74111904D01*
X147769047Y-74040476D01*
X147792857Y-73945238D01*
X147816666Y-73897619D01*
X147864285Y-73850000D01*
X147935714Y-73826190D01*
X147983333Y-73826190D01*
X148054761Y-73850000D01*
X148078571Y-73873809D01*
X148554761Y-74326190D02*
X148269047Y-74326190D01*
X148411904Y-74326190D02*
X148411904Y-73826190D01*
X148364285Y-73897619D01*
X148316666Y-73945238D01*
X148269047Y-73969047D01*
X149030952Y-74326190D02*
X148745238Y-74326190D01*
X148888095Y-74326190D02*
X148888095Y-73826190D01*
X148840476Y-73897619D01*
X148792857Y-73945238D01*
X148745238Y-73969047D01*
G04 #@! TO.C,JP1*
X140283333Y-93126190D02*
X140283333Y-93483333D01*
X140259523Y-93554761D01*
X140211904Y-93602380D01*
X140140476Y-93626190D01*
X140092857Y-93626190D01*
X140521428Y-93626190D02*
X140521428Y-93126190D01*
X140711904Y-93126190D01*
X140759523Y-93150000D01*
X140783333Y-93173809D01*
X140807142Y-93221428D01*
X140807142Y-93292857D01*
X140783333Y-93340476D01*
X140759523Y-93364285D01*
X140711904Y-93388095D01*
X140521428Y-93388095D01*
X141283333Y-93626190D02*
X140997619Y-93626190D01*
X141140476Y-93626190D02*
X141140476Y-93126190D01*
X141092857Y-93197619D01*
X141045238Y-93245238D01*
X140997619Y-93269047D01*
G04 #@! TO.C,L1*
X144116666Y-92726190D02*
X143878571Y-92726190D01*
X143878571Y-92226190D01*
X144545238Y-92726190D02*
X144259523Y-92726190D01*
X144402380Y-92726190D02*
X144402380Y-92226190D01*
X144354761Y-92297619D01*
X144307142Y-92345238D01*
X144259523Y-92369047D01*
G04 #@! TO.C,L2*
X153716666Y-76326190D02*
X153478571Y-76326190D01*
X153478571Y-75826190D01*
X153859523Y-75873809D02*
X153883333Y-75850000D01*
X153930952Y-75826190D01*
X154050000Y-75826190D01*
X154097619Y-75850000D01*
X154121428Y-75873809D01*
X154145238Y-75921428D01*
X154145238Y-75969047D01*
X154121428Y-76040476D01*
X153835714Y-76326190D01*
X154145238Y-76326190D01*
G04 #@! TO.C,L3*
X148516666Y-77426190D02*
X148278571Y-77426190D01*
X148278571Y-76926190D01*
X148635714Y-76926190D02*
X148945238Y-76926190D01*
X148778571Y-77116666D01*
X148850000Y-77116666D01*
X148897619Y-77140476D01*
X148921428Y-77164285D01*
X148945238Y-77211904D01*
X148945238Y-77330952D01*
X148921428Y-77378571D01*
X148897619Y-77402380D01*
X148850000Y-77426190D01*
X148707142Y-77426190D01*
X148659523Y-77402380D01*
X148635714Y-77378571D01*
G04 #@! TO.C,L4*
X147016666Y-75626190D02*
X146778571Y-75626190D01*
X146778571Y-75126190D01*
X147397619Y-75292857D02*
X147397619Y-75626190D01*
X147278571Y-75102380D02*
X147159523Y-75459523D01*
X147469047Y-75459523D01*
G04 #@! TO.C,L5*
X159416666Y-95326190D02*
X159178571Y-95326190D01*
X159178571Y-94826190D01*
X159821428Y-94826190D02*
X159583333Y-94826190D01*
X159559523Y-95064285D01*
X159583333Y-95040476D01*
X159630952Y-95016666D01*
X159750000Y-95016666D01*
X159797619Y-95040476D01*
X159821428Y-95064285D01*
X159845238Y-95111904D01*
X159845238Y-95230952D01*
X159821428Y-95278571D01*
X159797619Y-95302380D01*
X159750000Y-95326190D01*
X159630952Y-95326190D01*
X159583333Y-95302380D01*
X159559523Y-95278571D01*
G04 #@! TO.C,R1*
X146016666Y-75626190D02*
X145850000Y-75388095D01*
X145730952Y-75626190D02*
X145730952Y-75126190D01*
X145921428Y-75126190D01*
X145969047Y-75150000D01*
X145992857Y-75173809D01*
X146016666Y-75221428D01*
X146016666Y-75292857D01*
X145992857Y-75340476D01*
X145969047Y-75364285D01*
X145921428Y-75388095D01*
X145730952Y-75388095D01*
X146492857Y-75626190D02*
X146207142Y-75626190D01*
X146350000Y-75626190D02*
X146350000Y-75126190D01*
X146302380Y-75197619D01*
X146254761Y-75245238D01*
X146207142Y-75269047D01*
G04 #@! TO.C,R2*
X144816666Y-75626190D02*
X144650000Y-75388095D01*
X144530952Y-75626190D02*
X144530952Y-75126190D01*
X144721428Y-75126190D01*
X144769047Y-75150000D01*
X144792857Y-75173809D01*
X144816666Y-75221428D01*
X144816666Y-75292857D01*
X144792857Y-75340476D01*
X144769047Y-75364285D01*
X144721428Y-75388095D01*
X144530952Y-75388095D01*
X145007142Y-75173809D02*
X145030952Y-75150000D01*
X145078571Y-75126190D01*
X145197619Y-75126190D01*
X145245238Y-75150000D01*
X145269047Y-75173809D01*
X145292857Y-75221428D01*
X145292857Y-75269047D01*
X145269047Y-75340476D01*
X144983333Y-75626190D01*
X145292857Y-75626190D01*
G04 #@! TO.C,R6*
X157516666Y-87926190D02*
X157350000Y-87688095D01*
X157230952Y-87926190D02*
X157230952Y-87426190D01*
X157421428Y-87426190D01*
X157469047Y-87450000D01*
X157492857Y-87473809D01*
X157516666Y-87521428D01*
X157516666Y-87592857D01*
X157492857Y-87640476D01*
X157469047Y-87664285D01*
X157421428Y-87688095D01*
X157230952Y-87688095D01*
X157945238Y-87426190D02*
X157850000Y-87426190D01*
X157802380Y-87450000D01*
X157778571Y-87473809D01*
X157730952Y-87545238D01*
X157707142Y-87640476D01*
X157707142Y-87830952D01*
X157730952Y-87878571D01*
X157754761Y-87902380D01*
X157802380Y-87926190D01*
X157897619Y-87926190D01*
X157945238Y-87902380D01*
X157969047Y-87878571D01*
X157992857Y-87830952D01*
X157992857Y-87711904D01*
X157969047Y-87664285D01*
X157945238Y-87640476D01*
X157897619Y-87616666D01*
X157802380Y-87616666D01*
X157754761Y-87640476D01*
X157730952Y-87664285D01*
X157707142Y-87711904D01*
G04 #@! TO.C,R9*
X154416666Y-90126190D02*
X154250000Y-89888095D01*
X154130952Y-90126190D02*
X154130952Y-89626190D01*
X154321428Y-89626190D01*
X154369047Y-89650000D01*
X154392857Y-89673809D01*
X154416666Y-89721428D01*
X154416666Y-89792857D01*
X154392857Y-89840476D01*
X154369047Y-89864285D01*
X154321428Y-89888095D01*
X154130952Y-89888095D01*
X154654761Y-90126190D02*
X154750000Y-90126190D01*
X154797619Y-90102380D01*
X154821428Y-90078571D01*
X154869047Y-90007142D01*
X154892857Y-89911904D01*
X154892857Y-89721428D01*
X154869047Y-89673809D01*
X154845238Y-89650000D01*
X154797619Y-89626190D01*
X154702380Y-89626190D01*
X154654761Y-89650000D01*
X154630952Y-89673809D01*
X154607142Y-89721428D01*
X154607142Y-89840476D01*
X154630952Y-89888095D01*
X154654761Y-89911904D01*
X154702380Y-89935714D01*
X154797619Y-89935714D01*
X154845238Y-89911904D01*
X154869047Y-89888095D01*
X154892857Y-89840476D01*
G04 #@! TO.C,R10*
X150978571Y-90126190D02*
X150811904Y-89888095D01*
X150692857Y-90126190D02*
X150692857Y-89626190D01*
X150883333Y-89626190D01*
X150930952Y-89650000D01*
X150954761Y-89673809D01*
X150978571Y-89721428D01*
X150978571Y-89792857D01*
X150954761Y-89840476D01*
X150930952Y-89864285D01*
X150883333Y-89888095D01*
X150692857Y-89888095D01*
X151454761Y-90126190D02*
X151169047Y-90126190D01*
X151311904Y-90126190D02*
X151311904Y-89626190D01*
X151264285Y-89697619D01*
X151216666Y-89745238D01*
X151169047Y-89769047D01*
X151764285Y-89626190D02*
X151811904Y-89626190D01*
X151859523Y-89650000D01*
X151883333Y-89673809D01*
X151907142Y-89721428D01*
X151930952Y-89816666D01*
X151930952Y-89935714D01*
X151907142Y-90030952D01*
X151883333Y-90078571D01*
X151859523Y-90102380D01*
X151811904Y-90126190D01*
X151764285Y-90126190D01*
X151716666Y-90102380D01*
X151692857Y-90078571D01*
X151669047Y-90030952D01*
X151645238Y-89935714D01*
X151645238Y-89816666D01*
X151669047Y-89721428D01*
X151692857Y-89673809D01*
X151716666Y-89650000D01*
X151764285Y-89626190D01*
G04 #@! TO.C,R11*
X155078571Y-93426190D02*
X154911904Y-93188095D01*
X154792857Y-93426190D02*
X154792857Y-92926190D01*
X154983333Y-92926190D01*
X155030952Y-92950000D01*
X155054761Y-92973809D01*
X155078571Y-93021428D01*
X155078571Y-93092857D01*
X155054761Y-93140476D01*
X155030952Y-93164285D01*
X154983333Y-93188095D01*
X154792857Y-93188095D01*
X155554761Y-93426190D02*
X155269047Y-93426190D01*
X155411904Y-93426190D02*
X155411904Y-92926190D01*
X155364285Y-92997619D01*
X155316666Y-93045238D01*
X155269047Y-93069047D01*
X156030952Y-93426190D02*
X155745238Y-93426190D01*
X155888095Y-93426190D02*
X155888095Y-92926190D01*
X155840476Y-92997619D01*
X155792857Y-93045238D01*
X155745238Y-93069047D01*
G04 #@! TO.C,R12*
X148078571Y-76426190D02*
X147911904Y-76188095D01*
X147792857Y-76426190D02*
X147792857Y-75926190D01*
X147983333Y-75926190D01*
X148030952Y-75950000D01*
X148054761Y-75973809D01*
X148078571Y-76021428D01*
X148078571Y-76092857D01*
X148054761Y-76140476D01*
X148030952Y-76164285D01*
X147983333Y-76188095D01*
X147792857Y-76188095D01*
X148554761Y-76426190D02*
X148269047Y-76426190D01*
X148411904Y-76426190D02*
X148411904Y-75926190D01*
X148364285Y-75997619D01*
X148316666Y-76045238D01*
X148269047Y-76069047D01*
X148745238Y-75973809D02*
X148769047Y-75950000D01*
X148816666Y-75926190D01*
X148935714Y-75926190D01*
X148983333Y-75950000D01*
X149007142Y-75973809D01*
X149030952Y-76021428D01*
X149030952Y-76069047D01*
X149007142Y-76140476D01*
X148721428Y-76426190D01*
X149030952Y-76426190D01*
G04 #@! TO.C,R13*
X148078571Y-75326190D02*
X147911904Y-75088095D01*
X147792857Y-75326190D02*
X147792857Y-74826190D01*
X147983333Y-74826190D01*
X148030952Y-74850000D01*
X148054761Y-74873809D01*
X148078571Y-74921428D01*
X148078571Y-74992857D01*
X148054761Y-75040476D01*
X148030952Y-75064285D01*
X147983333Y-75088095D01*
X147792857Y-75088095D01*
X148554761Y-75326190D02*
X148269047Y-75326190D01*
X148411904Y-75326190D02*
X148411904Y-74826190D01*
X148364285Y-74897619D01*
X148316666Y-74945238D01*
X148269047Y-74969047D01*
X148721428Y-74826190D02*
X149030952Y-74826190D01*
X148864285Y-75016666D01*
X148935714Y-75016666D01*
X148983333Y-75040476D01*
X149007142Y-75064285D01*
X149030952Y-75111904D01*
X149030952Y-75230952D01*
X149007142Y-75278571D01*
X148983333Y-75302380D01*
X148935714Y-75326190D01*
X148792857Y-75326190D01*
X148745238Y-75302380D01*
X148721428Y-75278571D01*
G04 #@! TO.C,R14*
X151978571Y-73426190D02*
X151811904Y-73188095D01*
X151692857Y-73426190D02*
X151692857Y-72926190D01*
X151883333Y-72926190D01*
X151930952Y-72950000D01*
X151954761Y-72973809D01*
X151978571Y-73021428D01*
X151978571Y-73092857D01*
X151954761Y-73140476D01*
X151930952Y-73164285D01*
X151883333Y-73188095D01*
X151692857Y-73188095D01*
X152454761Y-73426190D02*
X152169047Y-73426190D01*
X152311904Y-73426190D02*
X152311904Y-72926190D01*
X152264285Y-72997619D01*
X152216666Y-73045238D01*
X152169047Y-73069047D01*
X152883333Y-73092857D02*
X152883333Y-73426190D01*
X152764285Y-72902380D02*
X152645238Y-73259523D01*
X152954761Y-73259523D01*
G04 #@! TO.C,R15*
X154978571Y-91526190D02*
X154811904Y-91288095D01*
X154692857Y-91526190D02*
X154692857Y-91026190D01*
X154883333Y-91026190D01*
X154930952Y-91050000D01*
X154954761Y-91073809D01*
X154978571Y-91121428D01*
X154978571Y-91192857D01*
X154954761Y-91240476D01*
X154930952Y-91264285D01*
X154883333Y-91288095D01*
X154692857Y-91288095D01*
X155454761Y-91526190D02*
X155169047Y-91526190D01*
X155311904Y-91526190D02*
X155311904Y-91026190D01*
X155264285Y-91097619D01*
X155216666Y-91145238D01*
X155169047Y-91169047D01*
X155907142Y-91026190D02*
X155669047Y-91026190D01*
X155645238Y-91264285D01*
X155669047Y-91240476D01*
X155716666Y-91216666D01*
X155835714Y-91216666D01*
X155883333Y-91240476D01*
X155907142Y-91264285D01*
X155930952Y-91311904D01*
X155930952Y-91430952D01*
X155907142Y-91478571D01*
X155883333Y-91502380D01*
X155835714Y-91526190D01*
X155716666Y-91526190D01*
X155669047Y-91502380D01*
X155645238Y-91478571D01*
G04 #@! TO.C,R16*
X150378571Y-91526190D02*
X150211904Y-91288095D01*
X150092857Y-91526190D02*
X150092857Y-91026190D01*
X150283333Y-91026190D01*
X150330952Y-91050000D01*
X150354761Y-91073809D01*
X150378571Y-91121428D01*
X150378571Y-91192857D01*
X150354761Y-91240476D01*
X150330952Y-91264285D01*
X150283333Y-91288095D01*
X150092857Y-91288095D01*
X150854761Y-91526190D02*
X150569047Y-91526190D01*
X150711904Y-91526190D02*
X150711904Y-91026190D01*
X150664285Y-91097619D01*
X150616666Y-91145238D01*
X150569047Y-91169047D01*
X151283333Y-91026190D02*
X151188095Y-91026190D01*
X151140476Y-91050000D01*
X151116666Y-91073809D01*
X151069047Y-91145238D01*
X151045238Y-91240476D01*
X151045238Y-91430952D01*
X151069047Y-91478571D01*
X151092857Y-91502380D01*
X151140476Y-91526190D01*
X151235714Y-91526190D01*
X151283333Y-91502380D01*
X151307142Y-91478571D01*
X151330952Y-91430952D01*
X151330952Y-91311904D01*
X151307142Y-91264285D01*
X151283333Y-91240476D01*
X151235714Y-91216666D01*
X151140476Y-91216666D01*
X151092857Y-91240476D01*
X151069047Y-91264285D01*
X151045238Y-91311904D01*
G04 #@! TO.C,U2*
X143419047Y-70526190D02*
X143419047Y-70930952D01*
X143442857Y-70978571D01*
X143466666Y-71002380D01*
X143514285Y-71026190D01*
X143609523Y-71026190D01*
X143657142Y-71002380D01*
X143680952Y-70978571D01*
X143704761Y-70930952D01*
X143704761Y-70526190D01*
X143919047Y-70573809D02*
X143942857Y-70550000D01*
X143990476Y-70526190D01*
X144109523Y-70526190D01*
X144157142Y-70550000D01*
X144180952Y-70573809D01*
X144204761Y-70621428D01*
X144204761Y-70669047D01*
X144180952Y-70740476D01*
X143895238Y-71026190D01*
X144204761Y-71026190D01*
G04 #@! TO.C,U3*
X155819047Y-70426190D02*
X155819047Y-70830952D01*
X155842857Y-70878571D01*
X155866666Y-70902380D01*
X155914285Y-70926190D01*
X156009523Y-70926190D01*
X156057142Y-70902380D01*
X156080952Y-70878571D01*
X156104761Y-70830952D01*
X156104761Y-70426190D01*
X156295238Y-70426190D02*
X156604761Y-70426190D01*
X156438095Y-70616666D01*
X156509523Y-70616666D01*
X156557142Y-70640476D01*
X156580952Y-70664285D01*
X156604761Y-70711904D01*
X156604761Y-70830952D01*
X156580952Y-70878571D01*
X156557142Y-70902380D01*
X156509523Y-70926190D01*
X156366666Y-70926190D01*
X156319047Y-70902380D01*
X156295238Y-70878571D01*
G04 #@! TO.C,Y1*
X148261904Y-90988095D02*
X148261904Y-91226190D01*
X148095238Y-90726190D02*
X148261904Y-90988095D01*
X148428571Y-90726190D01*
X148857142Y-91226190D02*
X148571428Y-91226190D01*
X148714285Y-91226190D02*
X148714285Y-90726190D01*
X148666666Y-90797619D01*
X148619047Y-90845238D01*
X148571428Y-90869047D01*
G04 #@! TO.C,U1*
X155219047Y-80026190D02*
X155219047Y-80430952D01*
X155242857Y-80478571D01*
X155266666Y-80502380D01*
X155314285Y-80526190D01*
X155409523Y-80526190D01*
X155457142Y-80502380D01*
X155480952Y-80478571D01*
X155504761Y-80430952D01*
X155504761Y-80026190D01*
X156004761Y-80526190D02*
X155719047Y-80526190D01*
X155861904Y-80526190D02*
X155861904Y-80026190D01*
X155814285Y-80097619D01*
X155766666Y-80145238D01*
X155719047Y-80169047D01*
G04 #@! TD*
M02*
