G04 #@! TF.GenerationSoftware,KiCad,Pcbnew,(5.0.0)*
G04 #@! TF.CreationDate,2018-10-15T18:52:21-03:00*
G04 #@! TF.ProjectId,TPMS_Sensor,54504D535F53656E736F722E6B696361,1*
G04 #@! TF.SameCoordinates,Original*
G04 #@! TF.FileFunction,Legend,Bot*
G04 #@! TF.FilePolarity,Positive*
%FSLAX46Y46*%
G04 Gerber Fmt 4.6, Leading zero omitted, Abs format (unit mm)*
G04 Created by KiCad (PCBNEW (5.0.0)) date 10/15/18 18:52:21*
%MOMM*%
%LPD*%
G01*
G04 APERTURE LIST*
%ADD10C,0.120000*%
%ADD11C,0.100000*%
%ADD12C,0.125000*%
G04 APERTURE END LIST*
D10*
G04 #@! TO.C,BT1*
X151909254Y-96514692D02*
G75*
G02X154311200Y-96515400I1201946J3299292D01*
G01*
D11*
G04 #@! TO.C,D1*
X157631600Y-90979200D02*
G75*
G03X157631600Y-90979200I-50000J0D01*
G01*
G04 #@! TO.C,D2*
X158673000Y-90979200D02*
G75*
G03X158673000Y-90979200I-50000J0D01*
G01*
D10*
G04 #@! TO.C,J1*
X143526200Y-88756800D02*
X148726200Y-88756800D01*
X143526200Y-81016800D02*
X148726200Y-81016800D01*
X142086200Y-88186800D02*
X143526200Y-88186800D01*
X143526200Y-88756800D02*
X143526200Y-88186800D01*
X148726200Y-88756800D02*
X148726200Y-88186800D01*
X143526200Y-81586800D02*
X143526200Y-81016800D01*
X148726200Y-81586800D02*
X148726200Y-81016800D01*
X143526200Y-86666800D02*
X143526200Y-85646800D01*
X148726200Y-86666800D02*
X148726200Y-85646800D01*
X143526200Y-84126800D02*
X143526200Y-83106800D01*
X148726200Y-84126800D02*
X148726200Y-83106800D01*
G04 #@! TO.C,TP1*
X141200000Y-93800000D02*
X142600000Y-93800000D01*
X142600000Y-93800000D02*
X142600000Y-92400000D01*
X142600000Y-92400000D02*
X141200000Y-92400000D01*
X141200000Y-92400000D02*
X141200000Y-93800000D01*
G04 #@! TO.C,TP2*
X141362200Y-76185800D02*
X141362200Y-77585800D01*
X142762200Y-76185800D02*
X141362200Y-76185800D01*
X142762200Y-77585800D02*
X142762200Y-76185800D01*
X141362200Y-77585800D02*
X142762200Y-77585800D01*
G04 #@! TO.C,TP3*
X141200000Y-91600000D02*
X142600000Y-91600000D01*
X142600000Y-91600000D02*
X142600000Y-90200000D01*
X142600000Y-90200000D02*
X141200000Y-90200000D01*
X141200000Y-90200000D02*
X141200000Y-91600000D01*
G04 #@! TO.C,TP4*
X157694400Y-92721200D02*
X157694400Y-94121200D01*
X159094400Y-92721200D02*
X157694400Y-92721200D01*
X159094400Y-94121200D02*
X159094400Y-92721200D01*
X157694400Y-94121200D02*
X159094400Y-94121200D01*
G04 #@! TO.C,TP5*
X157262600Y-77738200D02*
X158662600Y-77738200D01*
X158662600Y-77738200D02*
X158662600Y-76338200D01*
X158662600Y-76338200D02*
X157262600Y-76338200D01*
X157262600Y-76338200D02*
X157262600Y-77738200D01*
G04 #@! TO.C,BT1*
D12*
X153492857Y-88964285D02*
X153421428Y-88988095D01*
X153397619Y-89011904D01*
X153373809Y-89059523D01*
X153373809Y-89130952D01*
X153397619Y-89178571D01*
X153421428Y-89202380D01*
X153469047Y-89226190D01*
X153659523Y-89226190D01*
X153659523Y-88726190D01*
X153492857Y-88726190D01*
X153445238Y-88750000D01*
X153421428Y-88773809D01*
X153397619Y-88821428D01*
X153397619Y-88869047D01*
X153421428Y-88916666D01*
X153445238Y-88940476D01*
X153492857Y-88964285D01*
X153659523Y-88964285D01*
X153230952Y-88726190D02*
X152945238Y-88726190D01*
X153088095Y-89226190D02*
X153088095Y-88726190D01*
X152516666Y-89226190D02*
X152802380Y-89226190D01*
X152659523Y-89226190D02*
X152659523Y-88726190D01*
X152707142Y-88797619D01*
X152754761Y-88845238D01*
X152802380Y-88869047D01*
G04 #@! TO.C,D1*
X157869047Y-91726190D02*
X157869047Y-91226190D01*
X157750000Y-91226190D01*
X157678571Y-91250000D01*
X157630952Y-91297619D01*
X157607142Y-91345238D01*
X157583333Y-91440476D01*
X157583333Y-91511904D01*
X157607142Y-91607142D01*
X157630952Y-91654761D01*
X157678571Y-91702380D01*
X157750000Y-91726190D01*
X157869047Y-91726190D01*
X157107142Y-91726190D02*
X157392857Y-91726190D01*
X157250000Y-91726190D02*
X157250000Y-91226190D01*
X157297619Y-91297619D01*
X157345238Y-91345238D01*
X157392857Y-91369047D01*
G04 #@! TO.C,D2*
X158969047Y-91726190D02*
X158969047Y-91226190D01*
X158850000Y-91226190D01*
X158778571Y-91250000D01*
X158730952Y-91297619D01*
X158707142Y-91345238D01*
X158683333Y-91440476D01*
X158683333Y-91511904D01*
X158707142Y-91607142D01*
X158730952Y-91654761D01*
X158778571Y-91702380D01*
X158850000Y-91726190D01*
X158969047Y-91726190D01*
X158492857Y-91273809D02*
X158469047Y-91250000D01*
X158421428Y-91226190D01*
X158302380Y-91226190D01*
X158254761Y-91250000D01*
X158230952Y-91273809D01*
X158207142Y-91321428D01*
X158207142Y-91369047D01*
X158230952Y-91440476D01*
X158516666Y-91726190D01*
X158207142Y-91726190D01*
G04 #@! TO.C,J1*
X151866666Y-79826190D02*
X151866666Y-80183333D01*
X151890476Y-80254761D01*
X151938095Y-80302380D01*
X152009523Y-80326190D01*
X152057142Y-80326190D01*
X151366666Y-80326190D02*
X151652380Y-80326190D01*
X151509523Y-80326190D02*
X151509523Y-79826190D01*
X151557142Y-79897619D01*
X151604761Y-79945238D01*
X151652380Y-79969047D01*
G04 #@! TO.C,R3*
X156583333Y-79226190D02*
X156750000Y-78988095D01*
X156869047Y-79226190D02*
X156869047Y-78726190D01*
X156678571Y-78726190D01*
X156630952Y-78750000D01*
X156607142Y-78773809D01*
X156583333Y-78821428D01*
X156583333Y-78892857D01*
X156607142Y-78940476D01*
X156630952Y-78964285D01*
X156678571Y-78988095D01*
X156869047Y-78988095D01*
X156416666Y-78726190D02*
X156107142Y-78726190D01*
X156273809Y-78916666D01*
X156202380Y-78916666D01*
X156154761Y-78940476D01*
X156130952Y-78964285D01*
X156107142Y-79011904D01*
X156107142Y-79130952D01*
X156130952Y-79178571D01*
X156154761Y-79202380D01*
X156202380Y-79226190D01*
X156345238Y-79226190D01*
X156392857Y-79202380D01*
X156416666Y-79178571D01*
G04 #@! TO.C,R4*
X156583333Y-80326190D02*
X156750000Y-80088095D01*
X156869047Y-80326190D02*
X156869047Y-79826190D01*
X156678571Y-79826190D01*
X156630952Y-79850000D01*
X156607142Y-79873809D01*
X156583333Y-79921428D01*
X156583333Y-79992857D01*
X156607142Y-80040476D01*
X156630952Y-80064285D01*
X156678571Y-80088095D01*
X156869047Y-80088095D01*
X156154761Y-79992857D02*
X156154761Y-80326190D01*
X156273809Y-79802380D02*
X156392857Y-80159523D01*
X156083333Y-80159523D01*
G04 #@! TO.C,R5*
X156583333Y-82726190D02*
X156750000Y-82488095D01*
X156869047Y-82726190D02*
X156869047Y-82226190D01*
X156678571Y-82226190D01*
X156630952Y-82250000D01*
X156607142Y-82273809D01*
X156583333Y-82321428D01*
X156583333Y-82392857D01*
X156607142Y-82440476D01*
X156630952Y-82464285D01*
X156678571Y-82488095D01*
X156869047Y-82488095D01*
X156130952Y-82226190D02*
X156369047Y-82226190D01*
X156392857Y-82464285D01*
X156369047Y-82440476D01*
X156321428Y-82416666D01*
X156202380Y-82416666D01*
X156154761Y-82440476D01*
X156130952Y-82464285D01*
X156107142Y-82511904D01*
X156107142Y-82630952D01*
X156130952Y-82678571D01*
X156154761Y-82702380D01*
X156202380Y-82726190D01*
X156321428Y-82726190D01*
X156369047Y-82702380D01*
X156392857Y-82678571D01*
G04 #@! TO.C,R7*
X157683333Y-87026190D02*
X157850000Y-86788095D01*
X157969047Y-87026190D02*
X157969047Y-86526190D01*
X157778571Y-86526190D01*
X157730952Y-86550000D01*
X157707142Y-86573809D01*
X157683333Y-86621428D01*
X157683333Y-86692857D01*
X157707142Y-86740476D01*
X157730952Y-86764285D01*
X157778571Y-86788095D01*
X157969047Y-86788095D01*
X157516666Y-86526190D02*
X157183333Y-86526190D01*
X157397619Y-87026190D01*
G04 #@! TO.C,R8*
X158783333Y-87026190D02*
X158950000Y-86788095D01*
X159069047Y-87026190D02*
X159069047Y-86526190D01*
X158878571Y-86526190D01*
X158830952Y-86550000D01*
X158807142Y-86573809D01*
X158783333Y-86621428D01*
X158783333Y-86692857D01*
X158807142Y-86740476D01*
X158830952Y-86764285D01*
X158878571Y-86788095D01*
X159069047Y-86788095D01*
X158497619Y-86740476D02*
X158545238Y-86716666D01*
X158569047Y-86692857D01*
X158592857Y-86645238D01*
X158592857Y-86621428D01*
X158569047Y-86573809D01*
X158545238Y-86550000D01*
X158497619Y-86526190D01*
X158402380Y-86526190D01*
X158354761Y-86550000D01*
X158330952Y-86573809D01*
X158307142Y-86621428D01*
X158307142Y-86645238D01*
X158330952Y-86692857D01*
X158354761Y-86716666D01*
X158402380Y-86740476D01*
X158497619Y-86740476D01*
X158545238Y-86764285D01*
X158569047Y-86788095D01*
X158592857Y-86835714D01*
X158592857Y-86930952D01*
X158569047Y-86978571D01*
X158545238Y-87002380D01*
X158497619Y-87026190D01*
X158402380Y-87026190D01*
X158354761Y-87002380D01*
X158330952Y-86978571D01*
X158307142Y-86930952D01*
X158307142Y-86835714D01*
X158330952Y-86788095D01*
X158354761Y-86764285D01*
X158402380Y-86740476D01*
G04 #@! TO.C,TP1*
X144195752Y-93511590D02*
X143910038Y-93511590D01*
X144052895Y-94011590D02*
X144052895Y-93511590D01*
X143743371Y-94011590D02*
X143743371Y-93511590D01*
X143552895Y-93511590D01*
X143505276Y-93535400D01*
X143481466Y-93559209D01*
X143457657Y-93606828D01*
X143457657Y-93678257D01*
X143481466Y-93725876D01*
X143505276Y-93749685D01*
X143552895Y-93773495D01*
X143743371Y-93773495D01*
X142981466Y-94011590D02*
X143267180Y-94011590D01*
X143124323Y-94011590D02*
X143124323Y-93511590D01*
X143171942Y-93583019D01*
X143219561Y-93630638D01*
X143267180Y-93654447D01*
G04 #@! TO.C,TP2*
X143130952Y-75126190D02*
X142845238Y-75126190D01*
X142988095Y-75626190D02*
X142988095Y-75126190D01*
X142678571Y-75626190D02*
X142678571Y-75126190D01*
X142488095Y-75126190D01*
X142440476Y-75150000D01*
X142416666Y-75173809D01*
X142392857Y-75221428D01*
X142392857Y-75292857D01*
X142416666Y-75340476D01*
X142440476Y-75364285D01*
X142488095Y-75388095D01*
X142678571Y-75388095D01*
X142202380Y-75173809D02*
X142178571Y-75150000D01*
X142130952Y-75126190D01*
X142011904Y-75126190D01*
X141964285Y-75150000D01*
X141940476Y-75173809D01*
X141916666Y-75221428D01*
X141916666Y-75269047D01*
X141940476Y-75340476D01*
X142226190Y-75626190D01*
X141916666Y-75626190D01*
G04 #@! TO.C,TP3*
X144295752Y-91272190D02*
X144010038Y-91272190D01*
X144152895Y-91772190D02*
X144152895Y-91272190D01*
X143843371Y-91772190D02*
X143843371Y-91272190D01*
X143652895Y-91272190D01*
X143605276Y-91296000D01*
X143581466Y-91319809D01*
X143557657Y-91367428D01*
X143557657Y-91438857D01*
X143581466Y-91486476D01*
X143605276Y-91510285D01*
X143652895Y-91534095D01*
X143843371Y-91534095D01*
X143390990Y-91272190D02*
X143081466Y-91272190D01*
X143248133Y-91462666D01*
X143176704Y-91462666D01*
X143129085Y-91486476D01*
X143105276Y-91510285D01*
X143081466Y-91557904D01*
X143081466Y-91676952D01*
X143105276Y-91724571D01*
X143129085Y-91748380D01*
X143176704Y-91772190D01*
X143319561Y-91772190D01*
X143367180Y-91748380D01*
X143390990Y-91724571D01*
G04 #@! TO.C,TP4*
X159330952Y-94595390D02*
X159045238Y-94595390D01*
X159188095Y-95095390D02*
X159188095Y-94595390D01*
X158878571Y-95095390D02*
X158878571Y-94595390D01*
X158688095Y-94595390D01*
X158640476Y-94619200D01*
X158616666Y-94643009D01*
X158592857Y-94690628D01*
X158592857Y-94762057D01*
X158616666Y-94809676D01*
X158640476Y-94833485D01*
X158688095Y-94857295D01*
X158878571Y-94857295D01*
X158164285Y-94762057D02*
X158164285Y-95095390D01*
X158283333Y-94571580D02*
X158402380Y-94928723D01*
X158092857Y-94928723D01*
G04 #@! TO.C,TP5*
X159030952Y-75326190D02*
X158745238Y-75326190D01*
X158888095Y-75826190D02*
X158888095Y-75326190D01*
X158578571Y-75826190D02*
X158578571Y-75326190D01*
X158388095Y-75326190D01*
X158340476Y-75350000D01*
X158316666Y-75373809D01*
X158292857Y-75421428D01*
X158292857Y-75492857D01*
X158316666Y-75540476D01*
X158340476Y-75564285D01*
X158388095Y-75588095D01*
X158578571Y-75588095D01*
X157840476Y-75326190D02*
X158078571Y-75326190D01*
X158102380Y-75564285D01*
X158078571Y-75540476D01*
X158030952Y-75516666D01*
X157911904Y-75516666D01*
X157864285Y-75540476D01*
X157840476Y-75564285D01*
X157816666Y-75611904D01*
X157816666Y-75730952D01*
X157840476Y-75778571D01*
X157864285Y-75802380D01*
X157911904Y-75826190D01*
X158030952Y-75826190D01*
X158078571Y-75802380D01*
X158102380Y-75778571D01*
G04 #@! TD*
M02*
