G04 #@! TF.GenerationSoftware,KiCad,Pcbnew,5.0.0-fee4fd1~66~ubuntu18.04.1*
G04 #@! TF.CreationDate,2018-11-12T17:48:12-03:00*
G04 #@! TF.ProjectId,pcbAlarma,706362416C61726D612E6B696361645F,1.1*
G04 #@! TF.SameCoordinates,Original*
G04 #@! TF.FileFunction,Copper,L2,Bot,Signal*
G04 #@! TF.FilePolarity,Positive*
%FSLAX46Y46*%
G04 Gerber Fmt 4.6, Leading zero omitted, Abs format (unit mm)*
G04 Created by KiCad (PCBNEW 5.0.0-fee4fd1~66~ubuntu18.04.1) date Mon Nov 12 17:48:12 2018*
%MOMM*%
%LPD*%
G01*
G04 APERTURE LIST*
G04 #@! TA.AperFunction,NonConductor*
%ADD10C,0.150000*%
G04 #@! TD*
G04 #@! TA.AperFunction,SMDPad,CuDef*
%ADD11R,1.450000X1.150000*%
G04 #@! TD*
G04 #@! TA.AperFunction,ComponentPad*
%ADD12O,1.900000X1.050000*%
G04 #@! TD*
G04 #@! TA.AperFunction,SMDPad,CuDef*
%ADD13R,1.900000X1.750000*%
G04 #@! TD*
G04 #@! TA.AperFunction,SMDPad,CuDef*
%ADD14R,1.400000X0.400000*%
G04 #@! TD*
G04 #@! TA.AperFunction,ComponentPad*
%ADD15R,1.700000X1.700000*%
G04 #@! TD*
G04 #@! TA.AperFunction,ComponentPad*
%ADD16O,1.700000X1.700000*%
G04 #@! TD*
G04 #@! TA.AperFunction,ComponentPad*
%ADD17C,1.600000*%
G04 #@! TD*
G04 #@! TA.AperFunction,ComponentPad*
%ADD18R,1.600000X1.600000*%
G04 #@! TD*
G04 #@! TA.AperFunction,ComponentPad*
%ADD19C,1.800000*%
G04 #@! TD*
G04 #@! TA.AperFunction,ComponentPad*
%ADD20R,1.800000X1.800000*%
G04 #@! TD*
G04 #@! TA.AperFunction,ComponentPad*
%ADD21O,1.800000X1.800000*%
G04 #@! TD*
G04 #@! TA.AperFunction,BGAPad,CuDef*
%ADD22C,1.000000*%
G04 #@! TD*
G04 #@! TA.AperFunction,ComponentPad*
%ADD23C,3.000000*%
G04 #@! TD*
G04 #@! TA.AperFunction,ComponentPad*
%ADD24R,3.000000X3.000000*%
G04 #@! TD*
G04 #@! TA.AperFunction,ComponentPad*
%ADD25R,2.500000X2.500000*%
G04 #@! TD*
G04 #@! TA.AperFunction,ComponentPad*
%ADD26O,2.500000X2.500000*%
G04 #@! TD*
G04 #@! TA.AperFunction,ComponentPad*
%ADD27R,1.500000X1.050000*%
G04 #@! TD*
G04 #@! TA.AperFunction,ComponentPad*
%ADD28O,1.500000X1.050000*%
G04 #@! TD*
G04 #@! TA.AperFunction,ComponentPad*
%ADD29O,1.600000X1.600000*%
G04 #@! TD*
G04 #@! TA.AperFunction,SMDPad,CuDef*
%ADD30R,2.000000X1.500000*%
G04 #@! TD*
G04 #@! TA.AperFunction,SMDPad,CuDef*
%ADD31R,2.000000X3.800000*%
G04 #@! TD*
G04 #@! TA.AperFunction,SMDPad,CuDef*
%ADD32R,0.900000X2.000000*%
G04 #@! TD*
G04 #@! TA.AperFunction,SMDPad,CuDef*
%ADD33R,2.000000X0.900000*%
G04 #@! TD*
G04 #@! TA.AperFunction,SMDPad,CuDef*
%ADD34R,5.000000X5.000000*%
G04 #@! TD*
G04 #@! TA.AperFunction,Conductor*
%ADD35C,0.400000*%
G04 #@! TD*
G04 #@! TA.AperFunction,Conductor*
%ADD36C,2.000000*%
G04 #@! TD*
G04 #@! TA.AperFunction,Conductor*
%ADD37C,0.254000*%
G04 #@! TD*
G04 APERTURE END LIST*
D10*
X178084523Y-76427380D02*
X178084523Y-75427380D01*
X177608333Y-76427380D02*
X177608333Y-75427380D01*
X177036904Y-76427380D01*
X177036904Y-75427380D01*
X176560714Y-76427380D02*
X176560714Y-75427380D01*
X176322619Y-75427380D01*
X176179761Y-75475000D01*
X176084523Y-75570238D01*
X176036904Y-75665476D01*
X175989285Y-75855952D01*
X175989285Y-75998809D01*
X176036904Y-76189285D01*
X176084523Y-76284523D01*
X176179761Y-76379761D01*
X176322619Y-76427380D01*
X176560714Y-76427380D01*
X175560714Y-76332142D02*
X175513095Y-76379761D01*
X175560714Y-76427380D01*
X175608333Y-76379761D01*
X175560714Y-76332142D01*
X175560714Y-76427380D01*
X174370238Y-76141666D02*
X173894047Y-76141666D01*
X174465476Y-76427380D02*
X174132142Y-75427380D01*
X173798809Y-76427380D01*
X172894047Y-76427380D02*
X173227380Y-75951190D01*
X173465476Y-76427380D02*
X173465476Y-75427380D01*
X173084523Y-75427380D01*
X172989285Y-75475000D01*
X172941666Y-75522619D01*
X172894047Y-75617857D01*
X172894047Y-75760714D01*
X172941666Y-75855952D01*
X172989285Y-75903571D01*
X173084523Y-75951190D01*
X173465476Y-75951190D01*
X171941666Y-75475000D02*
X172036904Y-75427380D01*
X172179761Y-75427380D01*
X172322619Y-75475000D01*
X172417857Y-75570238D01*
X172465476Y-75665476D01*
X172513095Y-75855952D01*
X172513095Y-75998809D01*
X172465476Y-76189285D01*
X172417857Y-76284523D01*
X172322619Y-76379761D01*
X172179761Y-76427380D01*
X172084523Y-76427380D01*
X171941666Y-76379761D01*
X171894047Y-76332142D01*
X171894047Y-75998809D01*
X172084523Y-75998809D01*
X171465476Y-76332142D02*
X171417857Y-76379761D01*
X171465476Y-76427380D01*
X171513095Y-76379761D01*
X171465476Y-76332142D01*
X171465476Y-76427380D01*
X181336904Y-105577380D02*
X181336904Y-106386904D01*
X181289285Y-106482142D01*
X181241666Y-106529761D01*
X181146428Y-106577380D01*
X180955952Y-106577380D01*
X180860714Y-106529761D01*
X180813095Y-106482142D01*
X180765476Y-106386904D01*
X180765476Y-105577380D01*
X179765476Y-106577380D02*
X180336904Y-106577380D01*
X180051190Y-106577380D02*
X180051190Y-105577380D01*
X180146428Y-105720238D01*
X180241666Y-105815476D01*
X180336904Y-105863095D01*
X193661904Y-102402380D02*
X193661904Y-103211904D01*
X193614285Y-103307142D01*
X193566666Y-103354761D01*
X193471428Y-103402380D01*
X193280952Y-103402380D01*
X193185714Y-103354761D01*
X193138095Y-103307142D01*
X193090476Y-103211904D01*
X193090476Y-102402380D01*
X192661904Y-102497619D02*
X192614285Y-102450000D01*
X192519047Y-102402380D01*
X192280952Y-102402380D01*
X192185714Y-102450000D01*
X192138095Y-102497619D01*
X192090476Y-102592857D01*
X192090476Y-102688095D01*
X192138095Y-102830952D01*
X192709523Y-103402380D01*
X192090476Y-103402380D01*
X173058333Y-102252380D02*
X173058333Y-102966666D01*
X173105952Y-103109523D01*
X173201190Y-103204761D01*
X173344047Y-103252380D01*
X173439285Y-103252380D01*
X172058333Y-103252380D02*
X172629761Y-103252380D01*
X172344047Y-103252380D02*
X172344047Y-102252380D01*
X172439285Y-102395238D01*
X172534523Y-102490476D01*
X172629761Y-102538095D01*
X164200000Y-64600000D02*
X164200000Y-114600000D01*
X214200000Y-64600000D02*
X164200000Y-64600000D01*
X214200000Y-114600000D02*
X214200000Y-64600000D01*
X164200000Y-114600000D02*
X214200000Y-114600000D01*
D11*
G04 #@! TO.P,J1,6*
G04 #@! TO.N,Net-(J1-Pad6)*
X170230000Y-105620000D03*
X170230000Y-100980000D03*
D12*
X168000000Y-99725000D03*
X168000000Y-106875000D03*
D13*
X168000000Y-104425000D03*
D14*
G04 #@! TO.P,J1,3*
G04 #@! TO.N,Net-(J1-Pad3)*
X170650000Y-103300000D03*
G04 #@! TO.P,J1,4*
G04 #@! TO.N,Net-(J1-Pad4)*
X170650000Y-102650000D03*
G04 #@! TO.P,J1,5*
G04 #@! TO.N,GND*
X170650000Y-102000000D03*
G04 #@! TO.P,J1,1*
G04 #@! TO.N,+5V*
X170650000Y-104600000D03*
G04 #@! TO.P,J1,2*
G04 #@! TO.N,Net-(J1-Pad2)*
X170650000Y-103950000D03*
D13*
G04 #@! TO.P,J1,6*
G04 #@! TO.N,Net-(J1-Pad6)*
X168000000Y-102175000D03*
G04 #@! TD*
D15*
G04 #@! TO.P,J102,1*
G04 #@! TO.N,GND*
X210000000Y-107400000D03*
D16*
G04 #@! TO.P,J102,2*
G04 #@! TO.N,+3V3*
X207460000Y-107400000D03*
G04 #@! TO.P,J102,3*
G04 #@! TO.N,/EN*
X204920000Y-107400000D03*
G04 #@! TO.P,J102,4*
G04 #@! TO.N,Net-(J102-Pad4)*
X202380000Y-107400000D03*
G04 #@! TO.P,J102,5*
G04 #@! TO.N,Net-(J102-Pad5)*
X199840000Y-107400000D03*
G04 #@! TO.P,J102,6*
G04 #@! TO.N,/GPIO0*
X197300000Y-107400000D03*
G04 #@! TD*
D17*
G04 #@! TO.P,C1,2*
G04 #@! TO.N,GND*
X173600000Y-111800000D03*
D18*
G04 #@! TO.P,C1,1*
G04 #@! TO.N,+5V*
X173600000Y-109300000D03*
G04 #@! TD*
D17*
G04 #@! TO.P,C2,2*
G04 #@! TO.N,GND*
X188700000Y-111850000D03*
D18*
G04 #@! TO.P,C2,1*
G04 #@! TO.N,+3V3*
X188700000Y-109350000D03*
G04 #@! TD*
D19*
G04 #@! TO.P,D1,2*
G04 #@! TO.N,Net-(D1-Pad2)*
X177400000Y-94660000D03*
D20*
G04 #@! TO.P,D1,1*
G04 #@! TO.N,GND*
X177400000Y-97200000D03*
G04 #@! TD*
D21*
G04 #@! TO.P,D2,2*
G04 #@! TO.N,Net-(D2-Pad2)*
X200760000Y-75800000D03*
D20*
G04 #@! TO.P,D2,1*
G04 #@! TO.N,+5V*
X190600000Y-75800000D03*
G04 #@! TD*
D19*
G04 #@! TO.P,D3,2*
G04 #@! TO.N,Net-(D3-Pad2)*
X167300000Y-94660000D03*
D20*
G04 #@! TO.P,D3,1*
G04 #@! TO.N,GND*
X167300000Y-97200000D03*
G04 #@! TD*
D19*
G04 #@! TO.P,D4,2*
G04 #@! TO.N,Net-(D4-Pad2)*
X172400000Y-94660000D03*
D20*
G04 #@! TO.P,D4,1*
G04 #@! TO.N,GND*
X172400000Y-97200000D03*
G04 #@! TD*
D22*
G04 #@! TO.P,F1,~*
G04 #@! TO.N,N/C*
X188000000Y-93200000D03*
G04 #@! TD*
G04 #@! TO.P,F2,~*
G04 #@! TO.N,N/C*
X204200000Y-69600000D03*
G04 #@! TD*
G04 #@! TO.P,F3,~*
G04 #@! TO.N,N/C*
X212000000Y-112000000D03*
G04 #@! TD*
D23*
G04 #@! TO.P,J4,2*
G04 #@! TO.N,Net-(J4-Pad2)*
X192170000Y-69725000D03*
D24*
G04 #@! TO.P,J4,1*
G04 #@! TO.N,Net-(J4-Pad1)*
X197250000Y-69725000D03*
G04 #@! TD*
D16*
G04 #@! TO.P,J101,2*
G04 #@! TO.N,Net-(J101-Pad2)*
X211200000Y-75340000D03*
D15*
G04 #@! TO.P,J101,1*
G04 #@! TO.N,GND*
X211200000Y-72800000D03*
G04 #@! TD*
D25*
G04 #@! TO.P,K1,1*
G04 #@! TO.N,Net-(D2-Pad2)*
X186200000Y-74200000D03*
D26*
G04 #@! TO.P,K1,2*
G04 #@! TO.N,Net-(J4-Pad1)*
X184200000Y-68200000D03*
G04 #@! TO.P,K1,3*
G04 #@! TO.N,Net-(J4-Pad2)*
X172000000Y-68200000D03*
G04 #@! TO.P,K1,4*
G04 #@! TO.N,Net-(K1-Pad4)*
X172000000Y-80200000D03*
G04 #@! TO.P,K1,5*
G04 #@! TO.N,+5V*
X184200000Y-80200000D03*
G04 #@! TD*
D27*
G04 #@! TO.P,Q1,1*
G04 #@! TO.N,Net-(D2-Pad2)*
X204800000Y-75130000D03*
D28*
G04 #@! TO.P,Q1,3*
G04 #@! TO.N,GND*
X204800000Y-77670000D03*
G04 #@! TO.P,Q1,2*
G04 #@! TO.N,Net-(Q1-Pad2)*
X204800000Y-76400000D03*
G04 #@! TD*
D17*
G04 #@! TO.P,R1,1*
G04 #@! TO.N,+3V3*
X182100000Y-91600000D03*
D29*
G04 #@! TO.P,R1,2*
G04 #@! TO.N,Net-(D1-Pad2)*
X171940000Y-91600000D03*
G04 #@! TD*
G04 #@! TO.P,R2,2*
G04 #@! TO.N,/Salidas/LedStatus*
X182160000Y-84800000D03*
D17*
G04 #@! TO.P,R2,1*
G04 #@! TO.N,Net-(D3-Pad2)*
X172000000Y-84800000D03*
G04 #@! TD*
D29*
G04 #@! TO.P,R3,2*
G04 #@! TO.N,+3V3*
X207760000Y-111600000D03*
D17*
G04 #@! TO.P,R3,1*
G04 #@! TO.N,/EN*
X197600000Y-111600000D03*
G04 #@! TD*
D29*
G04 #@! TO.P,R4,2*
G04 #@! TO.N,/Salidas/LedControl*
X182160000Y-88300000D03*
D17*
G04 #@! TO.P,R4,1*
G04 #@! TO.N,Net-(D4-Pad2)*
X172000000Y-88300000D03*
G04 #@! TD*
D29*
G04 #@! TO.P,R5,2*
G04 #@! TO.N,Net-(Q1-Pad2)*
X190440000Y-80600000D03*
D17*
G04 #@! TO.P,R5,1*
G04 #@! TO.N,/Salidas/RelayIN*
X200600000Y-80600000D03*
G04 #@! TD*
D30*
G04 #@! TO.P,U1,1*
G04 #@! TO.N,GND*
X177900000Y-112800000D03*
G04 #@! TO.P,U1,3*
G04 #@! TO.N,+5V*
X177900000Y-108200000D03*
G04 #@! TO.P,U1,2*
G04 #@! TO.N,+3V3*
X177900000Y-110500000D03*
D31*
X184200000Y-110500000D03*
G04 #@! TD*
D32*
G04 #@! TO.P,U2,38*
G04 #@! TO.N,Net-(U2-Pad38)*
X212455000Y-86100000D03*
G04 #@! TO.P,U2,37*
G04 #@! TO.N,Net-(J101-Pad2)*
X211185000Y-86100000D03*
G04 #@! TO.P,U2,36*
G04 #@! TO.N,Net-(U2-Pad36)*
X209915000Y-86100000D03*
G04 #@! TO.P,U2,35*
G04 #@! TO.N,Net-(J102-Pad5)*
X208645000Y-86100000D03*
G04 #@! TO.P,U2,34*
G04 #@! TO.N,Net-(J102-Pad4)*
X207375000Y-86100000D03*
G04 #@! TO.P,U2,33*
G04 #@! TO.N,Net-(U2-Pad33)*
X206105000Y-86100000D03*
G04 #@! TO.P,U2,32*
G04 #@! TO.N,/Salidas/RelayIN*
X204835000Y-86100000D03*
G04 #@! TO.P,U2,31*
G04 #@! TO.N,/Salidas/LedStatus*
X203565000Y-86100000D03*
G04 #@! TO.P,U2,30*
G04 #@! TO.N,/Salidas/LedControl*
X202295000Y-86100000D03*
G04 #@! TO.P,U2,29*
G04 #@! TO.N,Net-(U2-Pad29)*
X201025000Y-86100000D03*
G04 #@! TO.P,U2,28*
G04 #@! TO.N,Net-(U2-Pad28)*
X199755000Y-86100000D03*
G04 #@! TO.P,U2,27*
G04 #@! TO.N,Net-(U2-Pad27)*
X198485000Y-86100000D03*
G04 #@! TO.P,U2,26*
G04 #@! TO.N,Net-(U2-Pad26)*
X197215000Y-86100000D03*
G04 #@! TO.P,U2,25*
G04 #@! TO.N,/GPIO0*
X195945000Y-86100000D03*
D33*
G04 #@! TO.P,U2,24*
G04 #@! TO.N,Net-(U2-Pad24)*
X194945000Y-88885000D03*
G04 #@! TO.P,U2,23*
G04 #@! TO.N,Net-(U2-Pad23)*
X194945000Y-90155000D03*
G04 #@! TO.P,U2,22*
G04 #@! TO.N,Net-(U2-Pad22)*
X194945000Y-91425000D03*
G04 #@! TO.P,U2,21*
G04 #@! TO.N,Net-(U2-Pad21)*
X194945000Y-92695000D03*
G04 #@! TO.P,U2,20*
G04 #@! TO.N,Net-(U2-Pad20)*
X194945000Y-93965000D03*
G04 #@! TO.P,U2,19*
G04 #@! TO.N,Net-(U2-Pad19)*
X194945000Y-95235000D03*
G04 #@! TO.P,U2,18*
G04 #@! TO.N,Net-(U2-Pad18)*
X194945000Y-96505000D03*
G04 #@! TO.P,U2,17*
G04 #@! TO.N,Net-(U2-Pad17)*
X194945000Y-97775000D03*
G04 #@! TO.P,U2,16*
G04 #@! TO.N,Net-(U2-Pad16)*
X194945000Y-99045000D03*
G04 #@! TO.P,U2,15*
G04 #@! TO.N,Net-(U2-Pad15)*
X194945000Y-100315000D03*
D32*
G04 #@! TO.P,U2,14*
G04 #@! TO.N,Net-(U2-Pad14)*
X195945000Y-103100000D03*
G04 #@! TO.P,U2,13*
G04 #@! TO.N,Net-(U2-Pad13)*
X197215000Y-103100000D03*
G04 #@! TO.P,U2,12*
G04 #@! TO.N,Net-(U2-Pad12)*
X198485000Y-103100000D03*
G04 #@! TO.P,U2,11*
G04 #@! TO.N,Net-(U2-Pad11)*
X199755000Y-103100000D03*
G04 #@! TO.P,U2,10*
G04 #@! TO.N,Net-(U2-Pad10)*
X201025000Y-103100000D03*
G04 #@! TO.P,U2,9*
G04 #@! TO.N,Net-(U2-Pad9)*
X202295000Y-103100000D03*
G04 #@! TO.P,U2,8*
G04 #@! TO.N,Net-(U2-Pad8)*
X203565000Y-103100000D03*
G04 #@! TO.P,U2,7*
G04 #@! TO.N,Net-(U2-Pad7)*
X204835000Y-103100000D03*
G04 #@! TO.P,U2,6*
G04 #@! TO.N,Net-(U2-Pad6)*
X206105000Y-103100000D03*
G04 #@! TO.P,U2,5*
G04 #@! TO.N,Net-(U2-Pad5)*
X207375000Y-103100000D03*
G04 #@! TO.P,U2,4*
G04 #@! TO.N,Net-(U2-Pad4)*
X208645000Y-103100000D03*
G04 #@! TO.P,U2,3*
G04 #@! TO.N,/EN*
X209915000Y-103100000D03*
G04 #@! TO.P,U2,2*
G04 #@! TO.N,+3V3*
X211185000Y-103100000D03*
G04 #@! TO.P,U2,1*
G04 #@! TO.N,GND*
X212455000Y-103100000D03*
D34*
G04 #@! TO.P,U2,39*
G04 #@! TO.N,Net-(U2-Pad39)*
X204955000Y-95600000D03*
G04 #@! TD*
D35*
G04 #@! TO.N,+5V*
X188600000Y-75800000D02*
X184200000Y-80200000D01*
X190600000Y-75800000D02*
X188600000Y-75800000D01*
X174700000Y-108200000D02*
X173600000Y-109300000D01*
X177900000Y-108200000D02*
X174700000Y-108200000D01*
X179700000Y-97900000D02*
X179700000Y-82932234D01*
X182432234Y-80200000D02*
X184200000Y-80200000D01*
X179700000Y-82932234D02*
X182432234Y-80200000D01*
X173600000Y-104000000D02*
X179700000Y-97900000D01*
X173000000Y-104600000D02*
X173600000Y-104000000D01*
X170650000Y-104600000D02*
X173000000Y-104600000D01*
X174700000Y-108200000D02*
X173000000Y-106500000D01*
X173000000Y-106500000D02*
X173000000Y-104600000D01*
G04 #@! TO.N,GND*
X174600000Y-112800000D02*
X177900000Y-112800000D01*
X173600000Y-111800000D02*
X174600000Y-112800000D01*
X212455000Y-103870000D02*
X212455000Y-103100000D01*
X211250000Y-107400000D02*
X212455000Y-106195000D01*
X212455000Y-104500000D02*
X212455000Y-103100000D01*
X212455000Y-106195000D02*
X212455000Y-104500000D01*
X210000000Y-107400000D02*
X211250000Y-107400000D01*
X212455000Y-101700000D02*
X212455000Y-103100000D01*
X213405001Y-100749999D02*
X212455000Y-101700000D01*
X213405001Y-73755001D02*
X213405001Y-100749999D01*
X212450000Y-72800000D02*
X213405001Y-73755001D01*
X211200000Y-72800000D02*
X212450000Y-72800000D01*
X206330000Y-77670000D02*
X204800000Y-77670000D01*
X211200000Y-72800000D02*
X206330000Y-77670000D01*
X178150000Y-112800000D02*
X177900000Y-112800000D01*
X170400000Y-109731370D02*
X170400000Y-108300000D01*
X172468630Y-111800000D02*
X170400000Y-109731370D01*
X173600000Y-111800000D02*
X172468630Y-111800000D01*
X177400000Y-97200000D02*
X167300000Y-97200000D01*
X166000000Y-97200000D02*
X167300000Y-97200000D01*
X165800000Y-97400000D02*
X166000000Y-97200000D01*
X166400000Y-108300000D02*
X165800000Y-107700000D01*
X165800000Y-107700000D02*
X165800000Y-97400000D01*
X170400000Y-108300000D02*
X166400000Y-108300000D01*
X190750010Y-113900010D02*
X188700000Y-111850000D01*
X210000000Y-107400000D02*
X210000000Y-111284002D01*
X207383992Y-113900010D02*
X190750010Y-113900010D01*
X210000000Y-111284002D02*
X207383992Y-113900010D01*
X171750000Y-102000000D02*
X170650000Y-102000000D01*
X172400000Y-101350000D02*
X171750000Y-102000000D01*
X172400000Y-97200000D02*
X172400000Y-101350000D01*
G04 #@! TO.N,Net-(D1-Pad2)*
X174340000Y-91600000D02*
X177400000Y-94660000D01*
X171940000Y-91600000D02*
X174340000Y-91600000D01*
G04 #@! TO.N,Net-(D2-Pad2)*
X201430000Y-75130000D02*
X200760000Y-75800000D01*
X204800000Y-75130000D02*
X201430000Y-75130000D01*
X187850000Y-74200000D02*
X186200000Y-74200000D01*
X197887208Y-74200000D02*
X187850000Y-74200000D01*
X199487208Y-75800000D02*
X197887208Y-74200000D01*
X200760000Y-75800000D02*
X199487208Y-75800000D01*
G04 #@! TO.N,Net-(D3-Pad2)*
X168199999Y-93760001D02*
X167300000Y-94660000D01*
X169939989Y-92020011D02*
X168199999Y-93760001D01*
X169939989Y-86860011D02*
X169939989Y-92020011D01*
X172000000Y-84800000D02*
X169939989Y-86860011D01*
G04 #@! TO.N,Net-(D4-Pad2)*
X171200001Y-89099999D02*
X172000000Y-88300000D01*
X170639999Y-89660001D02*
X171200001Y-89099999D01*
X170639999Y-92899999D02*
X170639999Y-89660001D01*
X172400000Y-94660000D02*
X170639999Y-92899999D01*
D36*
G04 #@! TO.N,Net-(J4-Pad1)*
X184200000Y-68200000D02*
X184200000Y-68175000D01*
X194100000Y-66575000D02*
X197250000Y-69725000D01*
X185800000Y-66575000D02*
X194100000Y-66575000D01*
X184200000Y-68175000D02*
X185800000Y-66575000D01*
G04 #@! TO.N,Net-(J4-Pad2)*
X192170000Y-69725000D02*
X188775000Y-69725000D01*
X174875000Y-71075000D02*
X172000000Y-68200000D01*
X187425000Y-71075000D02*
X174875000Y-71075000D01*
X188775000Y-69725000D02*
X187425000Y-71075000D01*
D35*
G04 #@! TO.N,Net-(Q1-Pad2)*
X192840000Y-78200000D02*
X190440000Y-80600000D01*
X201850000Y-78200000D02*
X192840000Y-78200000D01*
X204800000Y-76400000D02*
X203650000Y-76400000D01*
X203650000Y-76400000D02*
X201850000Y-78200000D01*
G04 #@! TO.N,/Salidas/LedStatus*
X203565000Y-84700000D02*
X202265000Y-83400000D01*
X203565000Y-86100000D02*
X203565000Y-84700000D01*
X183560000Y-83400000D02*
X182160000Y-84800000D01*
X202265000Y-83400000D02*
X183560000Y-83400000D01*
G04 #@! TO.N,/Salidas/LedControl*
X186260000Y-84200000D02*
X182160000Y-88300000D01*
X201295002Y-84200000D02*
X186260000Y-84200000D01*
X202295000Y-86100000D02*
X202295000Y-85199998D01*
X202295000Y-85199998D02*
X201295002Y-84200000D01*
G04 #@! TO.N,/Salidas/RelayIN*
X200735000Y-80600000D02*
X200600000Y-80600000D01*
X204835000Y-84700000D02*
X200735000Y-80600000D01*
X204835000Y-86100000D02*
X204835000Y-84700000D01*
G04 #@! TO.N,+3V3*
X177900000Y-110500000D02*
X184200000Y-110500000D01*
X207760000Y-111600000D02*
X206160000Y-113200000D01*
X206160000Y-113200000D02*
X195500000Y-113200000D01*
X211185000Y-104015000D02*
X211185000Y-103100000D01*
X209899989Y-105300011D02*
X211185000Y-104015000D01*
X209559989Y-105300011D02*
X209899989Y-105300011D01*
X207460000Y-107400000D02*
X209559989Y-105300011D01*
X207760000Y-111600000D02*
X207760000Y-107640000D01*
X207760000Y-107640000D02*
X208000000Y-107400000D01*
X211048542Y-103236458D02*
X211185000Y-103100000D01*
X182100000Y-91600000D02*
X182100000Y-104600000D01*
X184200000Y-106700000D02*
X184200000Y-110500000D01*
X182100000Y-104600000D02*
X184200000Y-106700000D01*
X191650000Y-109350000D02*
X188700000Y-109350000D01*
X195500000Y-113200000D02*
X191650000Y-109350000D01*
X187550000Y-110500000D02*
X188700000Y-109350000D01*
X184200000Y-110500000D02*
X187550000Y-110500000D01*
G04 #@! TO.N,Net-(J101-Pad2)*
X211185000Y-75355000D02*
X211200000Y-75340000D01*
X211185000Y-86100000D02*
X211185000Y-75355000D01*
G04 #@! TO.N,/GPIO0*
X190400000Y-90000000D02*
X194300000Y-86100000D01*
X190400000Y-104400000D02*
X190400000Y-90000000D01*
X194300000Y-86100000D02*
X195945000Y-86100000D01*
X193400000Y-107400000D02*
X190400000Y-104400000D01*
X197300000Y-107400000D02*
X193400000Y-107400000D01*
G04 #@! TO.N,/EN*
X204920000Y-109080000D02*
X204920000Y-107400000D01*
X203199999Y-110800001D02*
X204920000Y-109080000D01*
X197600000Y-111600000D02*
X198399999Y-110800001D01*
X198399999Y-110800001D02*
X203199999Y-110800001D01*
X207120000Y-105200000D02*
X204920000Y-107400000D01*
X209495001Y-104600001D02*
X207719999Y-104600001D01*
X207719999Y-104600001D02*
X207120000Y-105200000D01*
X209915000Y-103100000D02*
X209915000Y-104180002D01*
X209915000Y-104180002D02*
X209495001Y-104600001D01*
G04 #@! TO.N,Net-(J102-Pad5)*
X208645000Y-84700000D02*
X208645000Y-86100000D01*
X191000000Y-82600000D02*
X194600000Y-79000000D01*
X181400000Y-82600000D02*
X191000000Y-82600000D01*
X180600000Y-83400000D02*
X181400000Y-82600000D01*
X180600000Y-89164002D02*
X180600000Y-83400000D01*
X198440000Y-108800000D02*
X192800000Y-108800000D01*
X192800000Y-108735998D02*
X185000000Y-100935998D01*
X185000000Y-91900000D02*
X183000000Y-89900000D01*
X194600000Y-79000000D02*
X202945000Y-79000000D01*
X199840000Y-107400000D02*
X198440000Y-108800000D01*
X202945000Y-79000000D02*
X208645000Y-84700000D01*
X181335998Y-89900000D02*
X180600000Y-89164002D01*
X185000000Y-100935998D02*
X185000000Y-91900000D01*
X183000000Y-89900000D02*
X181335998Y-89900000D01*
X192800000Y-108800000D02*
X192800000Y-108735998D01*
G04 #@! TO.N,Net-(J102-Pad4)*
X207375000Y-87000002D02*
X206575002Y-87800000D01*
X207375000Y-86100000D02*
X207375000Y-87000002D01*
X193859998Y-87800000D02*
X191400000Y-90259998D01*
X206575002Y-87800000D02*
X193859998Y-87800000D01*
X191400000Y-90259998D02*
X191400000Y-104200000D01*
X191400000Y-104200000D02*
X193000000Y-105800000D01*
X200780000Y-105800000D02*
X202380000Y-107400000D01*
X193000000Y-105800000D02*
X200780000Y-105800000D01*
G04 #@! TO.N,Net-(J1-Pad6)*
X169195000Y-105620000D02*
X168000000Y-104425000D01*
X170230000Y-105620000D02*
X169195000Y-105620000D01*
X168000000Y-104425000D02*
X168000000Y-102175000D01*
X169195000Y-100980000D02*
X168000000Y-102175000D01*
X170230000Y-100980000D02*
X169195000Y-100980000D01*
X168000000Y-99725000D02*
X168000000Y-106875000D01*
G04 #@! TD*
D37*
G04 #@! TO.N,GND*
G36*
X168973000Y-72500000D02*
X168982667Y-72548601D01*
X169010197Y-72589803D01*
X169051399Y-72617333D01*
X169100000Y-72627000D01*
X174337707Y-72627000D01*
X174714758Y-72702000D01*
X174714762Y-72702000D01*
X174875000Y-72733873D01*
X175035238Y-72702000D01*
X184361623Y-72702000D01*
X184359380Y-72705357D01*
X184310717Y-72950000D01*
X184310717Y-75450000D01*
X184359380Y-75694643D01*
X184497959Y-75902041D01*
X184705357Y-76040620D01*
X184950000Y-76089283D01*
X187141163Y-76089283D01*
X184820745Y-78409702D01*
X184384866Y-78323000D01*
X184015134Y-78323000D01*
X183467631Y-78431905D01*
X182846759Y-78846759D01*
X182497311Y-79369745D01*
X182432233Y-79356800D01*
X182350790Y-79373000D01*
X182350786Y-79373000D01*
X182109555Y-79420984D01*
X182109553Y-79420985D01*
X182109554Y-79420985D01*
X181950616Y-79527184D01*
X181836001Y-79603767D01*
X181789866Y-79672813D01*
X179172817Y-82289864D01*
X179103768Y-82336001D01*
X179057631Y-82405050D01*
X178920984Y-82609556D01*
X178856800Y-82932234D01*
X178873001Y-83013683D01*
X178873000Y-94225894D01*
X178694528Y-93795024D01*
X178264976Y-93365472D01*
X177703739Y-93133000D01*
X177096261Y-93133000D01*
X177058285Y-93148730D01*
X174982372Y-91072819D01*
X174936233Y-91003767D01*
X174662679Y-90820984D01*
X174421448Y-90773000D01*
X174421444Y-90773000D01*
X174340000Y-90756800D01*
X174258556Y-90773000D01*
X173103654Y-90773000D01*
X172968809Y-90571191D01*
X172496788Y-90255796D01*
X172080544Y-90173000D01*
X171799456Y-90173000D01*
X171466999Y-90239130D01*
X171466999Y-90002555D01*
X171742555Y-89727000D01*
X172283848Y-89727000D01*
X172808331Y-89509753D01*
X173209753Y-89108331D01*
X173427000Y-88583848D01*
X173427000Y-88016152D01*
X173209753Y-87491669D01*
X172808331Y-87090247D01*
X172283848Y-86873000D01*
X171716152Y-86873000D01*
X171191669Y-87090247D01*
X170790247Y-87491669D01*
X170766989Y-87547819D01*
X170766989Y-87202564D01*
X171742554Y-86227000D01*
X172283848Y-86227000D01*
X172808331Y-86009753D01*
X173209753Y-85608331D01*
X173427000Y-85083848D01*
X173427000Y-84516152D01*
X173209753Y-83991669D01*
X172808331Y-83590247D01*
X172283848Y-83373000D01*
X171716152Y-83373000D01*
X171191669Y-83590247D01*
X170790247Y-83991669D01*
X170573000Y-84516152D01*
X170573000Y-85057446D01*
X169412808Y-86217639D01*
X169343756Y-86263778D01*
X169160973Y-86537333D01*
X169112989Y-86778564D01*
X169112989Y-86778567D01*
X169096789Y-86860011D01*
X169112989Y-86941455D01*
X169112990Y-91677455D01*
X167672817Y-93117630D01*
X167672814Y-93117632D01*
X167641716Y-93148730D01*
X167603739Y-93133000D01*
X166996261Y-93133000D01*
X166435024Y-93365472D01*
X166005472Y-93795024D01*
X165773000Y-94356261D01*
X165773000Y-94963739D01*
X166005472Y-95524976D01*
X166183043Y-95702547D01*
X166040301Y-95761673D01*
X165861673Y-95940302D01*
X165765000Y-96173691D01*
X165765000Y-96914250D01*
X165923750Y-97073000D01*
X167173000Y-97073000D01*
X167173000Y-97053000D01*
X167427000Y-97053000D01*
X167427000Y-97073000D01*
X168676250Y-97073000D01*
X168835000Y-96914250D01*
X168835000Y-96173691D01*
X168738327Y-95940302D01*
X168559699Y-95761673D01*
X168416957Y-95702547D01*
X168594528Y-95524976D01*
X168827000Y-94963739D01*
X168827000Y-94356261D01*
X168811270Y-94318284D01*
X168842368Y-94287186D01*
X168842370Y-94287183D01*
X169879366Y-93250189D01*
X170043766Y-93496232D01*
X170112818Y-93542371D01*
X170888730Y-94318284D01*
X170873000Y-94356261D01*
X170873000Y-94963739D01*
X171105472Y-95524976D01*
X171283043Y-95702547D01*
X171140301Y-95761673D01*
X170961673Y-95940302D01*
X170865000Y-96173691D01*
X170865000Y-96914250D01*
X171023750Y-97073000D01*
X172273000Y-97073000D01*
X172273000Y-97053000D01*
X172527000Y-97053000D01*
X172527000Y-97073000D01*
X173776250Y-97073000D01*
X173935000Y-96914250D01*
X173935000Y-96173691D01*
X173838327Y-95940302D01*
X173659699Y-95761673D01*
X173516957Y-95702547D01*
X173694528Y-95524976D01*
X173927000Y-94963739D01*
X173927000Y-94356261D01*
X173694528Y-93795024D01*
X173264976Y-93365472D01*
X172703739Y-93133000D01*
X172096261Y-93133000D01*
X172058284Y-93148730D01*
X171936554Y-93027000D01*
X172080544Y-93027000D01*
X172496788Y-92944204D01*
X172968809Y-92628809D01*
X173103654Y-92427000D01*
X173997447Y-92427000D01*
X175888730Y-94318285D01*
X175873000Y-94356261D01*
X175873000Y-94963739D01*
X176105472Y-95524976D01*
X176283043Y-95702547D01*
X176140301Y-95761673D01*
X175961673Y-95940302D01*
X175865000Y-96173691D01*
X175865000Y-96914250D01*
X176023750Y-97073000D01*
X177273000Y-97073000D01*
X177273000Y-97053000D01*
X177527000Y-97053000D01*
X177527000Y-97073000D01*
X177547000Y-97073000D01*
X177547000Y-97327000D01*
X177527000Y-97327000D01*
X177527000Y-98576250D01*
X177685750Y-98735000D01*
X177695446Y-98735000D01*
X174284143Y-102146304D01*
X174284143Y-101415500D01*
X171863525Y-101415500D01*
X171709699Y-101261673D01*
X171594283Y-101213866D01*
X171594283Y-100405000D01*
X171545620Y-100160357D01*
X171407041Y-99952959D01*
X171199643Y-99814380D01*
X170955000Y-99765717D01*
X169591470Y-99765717D01*
X169599569Y-99725000D01*
X169510160Y-99275512D01*
X169255546Y-98894454D01*
X168874488Y-98639840D01*
X168610664Y-98587362D01*
X168738327Y-98459698D01*
X168835000Y-98226309D01*
X168835000Y-97485750D01*
X170865000Y-97485750D01*
X170865000Y-98226309D01*
X170961673Y-98459698D01*
X171140301Y-98638327D01*
X171373690Y-98735000D01*
X172114250Y-98735000D01*
X172273000Y-98576250D01*
X172273000Y-97327000D01*
X172527000Y-97327000D01*
X172527000Y-98576250D01*
X172685750Y-98735000D01*
X173426310Y-98735000D01*
X173659699Y-98638327D01*
X173838327Y-98459698D01*
X173935000Y-98226309D01*
X173935000Y-97485750D01*
X175865000Y-97485750D01*
X175865000Y-98226309D01*
X175961673Y-98459698D01*
X176140301Y-98638327D01*
X176373690Y-98735000D01*
X177114250Y-98735000D01*
X177273000Y-98576250D01*
X177273000Y-97327000D01*
X176023750Y-97327000D01*
X175865000Y-97485750D01*
X173935000Y-97485750D01*
X173776250Y-97327000D01*
X172527000Y-97327000D01*
X172273000Y-97327000D01*
X171023750Y-97327000D01*
X170865000Y-97485750D01*
X168835000Y-97485750D01*
X168676250Y-97327000D01*
X167427000Y-97327000D01*
X167427000Y-97347000D01*
X167173000Y-97347000D01*
X167173000Y-97327000D01*
X165923750Y-97327000D01*
X165765000Y-97485750D01*
X165765000Y-98226309D01*
X165861673Y-98459698D01*
X166040301Y-98638327D01*
X166273690Y-98735000D01*
X166983095Y-98735000D01*
X166744454Y-98894454D01*
X166489840Y-99275512D01*
X166400431Y-99725000D01*
X166489840Y-100174488D01*
X166744454Y-100555546D01*
X166935839Y-100683425D01*
X166805357Y-100709380D01*
X166597959Y-100847959D01*
X166459380Y-101055357D01*
X166410717Y-101300000D01*
X166410717Y-103050000D01*
X166459380Y-103294643D01*
X166462959Y-103300000D01*
X166459380Y-103305357D01*
X166410717Y-103550000D01*
X166410717Y-105300000D01*
X166459380Y-105544643D01*
X166597959Y-105752041D01*
X166805357Y-105890620D01*
X166935839Y-105916575D01*
X166744454Y-106044454D01*
X166489840Y-106425512D01*
X166400431Y-106875000D01*
X166489840Y-107324488D01*
X166744454Y-107705546D01*
X167125512Y-107960160D01*
X167461538Y-108027000D01*
X168538462Y-108027000D01*
X168874488Y-107960160D01*
X169255546Y-107705546D01*
X169510160Y-107324488D01*
X169599569Y-106875000D01*
X169591470Y-106834283D01*
X170955000Y-106834283D01*
X171199643Y-106785620D01*
X171407041Y-106647041D01*
X171545620Y-106439643D01*
X171594283Y-106195000D01*
X171594283Y-105427000D01*
X172173001Y-105427000D01*
X172173000Y-106418556D01*
X172156800Y-106500000D01*
X172173000Y-106581444D01*
X172173000Y-106581447D01*
X172220984Y-106822678D01*
X172403767Y-107096233D01*
X172472819Y-107142372D01*
X173191164Y-107860717D01*
X172800000Y-107860717D01*
X172555357Y-107909380D01*
X172347959Y-108047959D01*
X172209380Y-108255357D01*
X172160717Y-108500000D01*
X172160717Y-110100000D01*
X172209380Y-110344643D01*
X172347959Y-110552041D01*
X172555357Y-110690620D01*
X172788506Y-110736997D01*
X172771861Y-110792255D01*
X173600000Y-111620395D01*
X174428139Y-110792255D01*
X174411494Y-110736997D01*
X174644643Y-110690620D01*
X174852041Y-110552041D01*
X174990620Y-110344643D01*
X175039283Y-110100000D01*
X175039283Y-109030271D01*
X175042554Y-109027000D01*
X176276033Y-109027000D01*
X176309380Y-109194643D01*
X176413186Y-109350000D01*
X176309380Y-109505357D01*
X176260717Y-109750000D01*
X176260717Y-111250000D01*
X176309380Y-111494643D01*
X176408695Y-111643279D01*
X176361673Y-111690301D01*
X176265000Y-111923690D01*
X176265000Y-112514250D01*
X176423750Y-112673000D01*
X177773000Y-112673000D01*
X177773000Y-112653000D01*
X178027000Y-112653000D01*
X178027000Y-112673000D01*
X179376250Y-112673000D01*
X179535000Y-112514250D01*
X179535000Y-111923690D01*
X179438327Y-111690301D01*
X179391305Y-111643279D01*
X179490620Y-111494643D01*
X179523967Y-111327000D01*
X182560717Y-111327000D01*
X182560717Y-112400000D01*
X182609380Y-112644643D01*
X182747959Y-112852041D01*
X182955357Y-112990620D01*
X183200000Y-113039283D01*
X185200000Y-113039283D01*
X185444643Y-112990620D01*
X185643504Y-112857745D01*
X187871861Y-112857745D01*
X187945995Y-113103864D01*
X188483223Y-113296965D01*
X189053454Y-113269778D01*
X189454005Y-113103864D01*
X189528139Y-112857745D01*
X188700000Y-112029605D01*
X187871861Y-112857745D01*
X185643504Y-112857745D01*
X185652041Y-112852041D01*
X185790620Y-112644643D01*
X185839283Y-112400000D01*
X185839283Y-111327000D01*
X187363104Y-111327000D01*
X187253035Y-111633223D01*
X187280222Y-112203454D01*
X187446136Y-112604005D01*
X187692255Y-112678139D01*
X188520395Y-111850000D01*
X188879605Y-111850000D01*
X189707745Y-112678139D01*
X189953864Y-112604005D01*
X190146965Y-112066777D01*
X190119778Y-111496546D01*
X189953864Y-111095995D01*
X189707745Y-111021861D01*
X188879605Y-111850000D01*
X188520395Y-111850000D01*
X188506252Y-111835858D01*
X188685858Y-111656252D01*
X188700000Y-111670395D01*
X189528139Y-110842255D01*
X189511494Y-110786997D01*
X189744643Y-110740620D01*
X189952041Y-110602041D01*
X190090620Y-110394643D01*
X190133912Y-110177000D01*
X191307447Y-110177000D01*
X194857632Y-113727187D01*
X194903767Y-113796233D01*
X195056072Y-113898000D01*
X179443173Y-113898000D01*
X179535000Y-113676310D01*
X179535000Y-113085750D01*
X179376250Y-112927000D01*
X178027000Y-112927000D01*
X178027000Y-112947000D01*
X177773000Y-112947000D01*
X177773000Y-112927000D01*
X176423750Y-112927000D01*
X176265000Y-113085750D01*
X176265000Y-113676310D01*
X176356827Y-113898000D01*
X164902000Y-113898000D01*
X164902000Y-110956478D01*
X165473000Y-110956478D01*
X165473000Y-111643522D01*
X165735920Y-112278267D01*
X166221733Y-112764080D01*
X166856478Y-113027000D01*
X167543522Y-113027000D01*
X168072850Y-112807745D01*
X172771861Y-112807745D01*
X172845995Y-113053864D01*
X173383223Y-113246965D01*
X173953454Y-113219778D01*
X174354005Y-113053864D01*
X174428139Y-112807745D01*
X173600000Y-111979605D01*
X172771861Y-112807745D01*
X168072850Y-112807745D01*
X168178267Y-112764080D01*
X168664080Y-112278267D01*
X168927000Y-111643522D01*
X168927000Y-111583223D01*
X172153035Y-111583223D01*
X172180222Y-112153454D01*
X172346136Y-112554005D01*
X172592255Y-112628139D01*
X173420395Y-111800000D01*
X173779605Y-111800000D01*
X174607745Y-112628139D01*
X174853864Y-112554005D01*
X175046965Y-112016777D01*
X175019778Y-111446546D01*
X174853864Y-111045995D01*
X174607745Y-110971861D01*
X173779605Y-111800000D01*
X173420395Y-111800000D01*
X172592255Y-110971861D01*
X172346136Y-111045995D01*
X172153035Y-111583223D01*
X168927000Y-111583223D01*
X168927000Y-110956478D01*
X168664080Y-110321733D01*
X168178267Y-109835920D01*
X167543522Y-109573000D01*
X166856478Y-109573000D01*
X166221733Y-109835920D01*
X165735920Y-110321733D01*
X165473000Y-110956478D01*
X164902000Y-110956478D01*
X164902000Y-86681478D01*
X165423000Y-86681478D01*
X165423000Y-87368522D01*
X165685920Y-88003267D01*
X166171733Y-88489080D01*
X166806478Y-88752000D01*
X167493522Y-88752000D01*
X168128267Y-88489080D01*
X168614080Y-88003267D01*
X168877000Y-87368522D01*
X168877000Y-86681478D01*
X168614080Y-86046733D01*
X168128267Y-85560920D01*
X167493522Y-85298000D01*
X166806478Y-85298000D01*
X166171733Y-85560920D01*
X165685920Y-86046733D01*
X165423000Y-86681478D01*
X164902000Y-86681478D01*
X164902000Y-80200000D01*
X170086228Y-80200000D01*
X170231905Y-80932369D01*
X170646759Y-81553241D01*
X171267631Y-81968095D01*
X171815134Y-82077000D01*
X172184866Y-82077000D01*
X172732369Y-81968095D01*
X173353241Y-81553241D01*
X173768095Y-80932369D01*
X173913772Y-80200000D01*
X173768095Y-79467631D01*
X173353241Y-78846759D01*
X172732369Y-78431905D01*
X172184866Y-78323000D01*
X171815134Y-78323000D01*
X171267631Y-78431905D01*
X170646759Y-78846759D01*
X170231905Y-79467631D01*
X170086228Y-80200000D01*
X164902000Y-80200000D01*
X164902000Y-74590500D01*
X170525381Y-74590500D01*
X170525381Y-77494500D01*
X179024619Y-77494500D01*
X179024619Y-74590500D01*
X170525381Y-74590500D01*
X164902000Y-74590500D01*
X164902000Y-65302000D01*
X168973000Y-65302000D01*
X168973000Y-72500000D01*
X168973000Y-72500000D01*
G37*
X168973000Y-72500000D02*
X168982667Y-72548601D01*
X169010197Y-72589803D01*
X169051399Y-72617333D01*
X169100000Y-72627000D01*
X174337707Y-72627000D01*
X174714758Y-72702000D01*
X174714762Y-72702000D01*
X174875000Y-72733873D01*
X175035238Y-72702000D01*
X184361623Y-72702000D01*
X184359380Y-72705357D01*
X184310717Y-72950000D01*
X184310717Y-75450000D01*
X184359380Y-75694643D01*
X184497959Y-75902041D01*
X184705357Y-76040620D01*
X184950000Y-76089283D01*
X187141163Y-76089283D01*
X184820745Y-78409702D01*
X184384866Y-78323000D01*
X184015134Y-78323000D01*
X183467631Y-78431905D01*
X182846759Y-78846759D01*
X182497311Y-79369745D01*
X182432233Y-79356800D01*
X182350790Y-79373000D01*
X182350786Y-79373000D01*
X182109555Y-79420984D01*
X182109553Y-79420985D01*
X182109554Y-79420985D01*
X181950616Y-79527184D01*
X181836001Y-79603767D01*
X181789866Y-79672813D01*
X179172817Y-82289864D01*
X179103768Y-82336001D01*
X179057631Y-82405050D01*
X178920984Y-82609556D01*
X178856800Y-82932234D01*
X178873001Y-83013683D01*
X178873000Y-94225894D01*
X178694528Y-93795024D01*
X178264976Y-93365472D01*
X177703739Y-93133000D01*
X177096261Y-93133000D01*
X177058285Y-93148730D01*
X174982372Y-91072819D01*
X174936233Y-91003767D01*
X174662679Y-90820984D01*
X174421448Y-90773000D01*
X174421444Y-90773000D01*
X174340000Y-90756800D01*
X174258556Y-90773000D01*
X173103654Y-90773000D01*
X172968809Y-90571191D01*
X172496788Y-90255796D01*
X172080544Y-90173000D01*
X171799456Y-90173000D01*
X171466999Y-90239130D01*
X171466999Y-90002555D01*
X171742555Y-89727000D01*
X172283848Y-89727000D01*
X172808331Y-89509753D01*
X173209753Y-89108331D01*
X173427000Y-88583848D01*
X173427000Y-88016152D01*
X173209753Y-87491669D01*
X172808331Y-87090247D01*
X172283848Y-86873000D01*
X171716152Y-86873000D01*
X171191669Y-87090247D01*
X170790247Y-87491669D01*
X170766989Y-87547819D01*
X170766989Y-87202564D01*
X171742554Y-86227000D01*
X172283848Y-86227000D01*
X172808331Y-86009753D01*
X173209753Y-85608331D01*
X173427000Y-85083848D01*
X173427000Y-84516152D01*
X173209753Y-83991669D01*
X172808331Y-83590247D01*
X172283848Y-83373000D01*
X171716152Y-83373000D01*
X171191669Y-83590247D01*
X170790247Y-83991669D01*
X170573000Y-84516152D01*
X170573000Y-85057446D01*
X169412808Y-86217639D01*
X169343756Y-86263778D01*
X169160973Y-86537333D01*
X169112989Y-86778564D01*
X169112989Y-86778567D01*
X169096789Y-86860011D01*
X169112989Y-86941455D01*
X169112990Y-91677455D01*
X167672817Y-93117630D01*
X167672814Y-93117632D01*
X167641716Y-93148730D01*
X167603739Y-93133000D01*
X166996261Y-93133000D01*
X166435024Y-93365472D01*
X166005472Y-93795024D01*
X165773000Y-94356261D01*
X165773000Y-94963739D01*
X166005472Y-95524976D01*
X166183043Y-95702547D01*
X166040301Y-95761673D01*
X165861673Y-95940302D01*
X165765000Y-96173691D01*
X165765000Y-96914250D01*
X165923750Y-97073000D01*
X167173000Y-97073000D01*
X167173000Y-97053000D01*
X167427000Y-97053000D01*
X167427000Y-97073000D01*
X168676250Y-97073000D01*
X168835000Y-96914250D01*
X168835000Y-96173691D01*
X168738327Y-95940302D01*
X168559699Y-95761673D01*
X168416957Y-95702547D01*
X168594528Y-95524976D01*
X168827000Y-94963739D01*
X168827000Y-94356261D01*
X168811270Y-94318284D01*
X168842368Y-94287186D01*
X168842370Y-94287183D01*
X169879366Y-93250189D01*
X170043766Y-93496232D01*
X170112818Y-93542371D01*
X170888730Y-94318284D01*
X170873000Y-94356261D01*
X170873000Y-94963739D01*
X171105472Y-95524976D01*
X171283043Y-95702547D01*
X171140301Y-95761673D01*
X170961673Y-95940302D01*
X170865000Y-96173691D01*
X170865000Y-96914250D01*
X171023750Y-97073000D01*
X172273000Y-97073000D01*
X172273000Y-97053000D01*
X172527000Y-97053000D01*
X172527000Y-97073000D01*
X173776250Y-97073000D01*
X173935000Y-96914250D01*
X173935000Y-96173691D01*
X173838327Y-95940302D01*
X173659699Y-95761673D01*
X173516957Y-95702547D01*
X173694528Y-95524976D01*
X173927000Y-94963739D01*
X173927000Y-94356261D01*
X173694528Y-93795024D01*
X173264976Y-93365472D01*
X172703739Y-93133000D01*
X172096261Y-93133000D01*
X172058284Y-93148730D01*
X171936554Y-93027000D01*
X172080544Y-93027000D01*
X172496788Y-92944204D01*
X172968809Y-92628809D01*
X173103654Y-92427000D01*
X173997447Y-92427000D01*
X175888730Y-94318285D01*
X175873000Y-94356261D01*
X175873000Y-94963739D01*
X176105472Y-95524976D01*
X176283043Y-95702547D01*
X176140301Y-95761673D01*
X175961673Y-95940302D01*
X175865000Y-96173691D01*
X175865000Y-96914250D01*
X176023750Y-97073000D01*
X177273000Y-97073000D01*
X177273000Y-97053000D01*
X177527000Y-97053000D01*
X177527000Y-97073000D01*
X177547000Y-97073000D01*
X177547000Y-97327000D01*
X177527000Y-97327000D01*
X177527000Y-98576250D01*
X177685750Y-98735000D01*
X177695446Y-98735000D01*
X174284143Y-102146304D01*
X174284143Y-101415500D01*
X171863525Y-101415500D01*
X171709699Y-101261673D01*
X171594283Y-101213866D01*
X171594283Y-100405000D01*
X171545620Y-100160357D01*
X171407041Y-99952959D01*
X171199643Y-99814380D01*
X170955000Y-99765717D01*
X169591470Y-99765717D01*
X169599569Y-99725000D01*
X169510160Y-99275512D01*
X169255546Y-98894454D01*
X168874488Y-98639840D01*
X168610664Y-98587362D01*
X168738327Y-98459698D01*
X168835000Y-98226309D01*
X168835000Y-97485750D01*
X170865000Y-97485750D01*
X170865000Y-98226309D01*
X170961673Y-98459698D01*
X171140301Y-98638327D01*
X171373690Y-98735000D01*
X172114250Y-98735000D01*
X172273000Y-98576250D01*
X172273000Y-97327000D01*
X172527000Y-97327000D01*
X172527000Y-98576250D01*
X172685750Y-98735000D01*
X173426310Y-98735000D01*
X173659699Y-98638327D01*
X173838327Y-98459698D01*
X173935000Y-98226309D01*
X173935000Y-97485750D01*
X175865000Y-97485750D01*
X175865000Y-98226309D01*
X175961673Y-98459698D01*
X176140301Y-98638327D01*
X176373690Y-98735000D01*
X177114250Y-98735000D01*
X177273000Y-98576250D01*
X177273000Y-97327000D01*
X176023750Y-97327000D01*
X175865000Y-97485750D01*
X173935000Y-97485750D01*
X173776250Y-97327000D01*
X172527000Y-97327000D01*
X172273000Y-97327000D01*
X171023750Y-97327000D01*
X170865000Y-97485750D01*
X168835000Y-97485750D01*
X168676250Y-97327000D01*
X167427000Y-97327000D01*
X167427000Y-97347000D01*
X167173000Y-97347000D01*
X167173000Y-97327000D01*
X165923750Y-97327000D01*
X165765000Y-97485750D01*
X165765000Y-98226309D01*
X165861673Y-98459698D01*
X166040301Y-98638327D01*
X166273690Y-98735000D01*
X166983095Y-98735000D01*
X166744454Y-98894454D01*
X166489840Y-99275512D01*
X166400431Y-99725000D01*
X166489840Y-100174488D01*
X166744454Y-100555546D01*
X166935839Y-100683425D01*
X166805357Y-100709380D01*
X166597959Y-100847959D01*
X166459380Y-101055357D01*
X166410717Y-101300000D01*
X166410717Y-103050000D01*
X166459380Y-103294643D01*
X166462959Y-103300000D01*
X166459380Y-103305357D01*
X166410717Y-103550000D01*
X166410717Y-105300000D01*
X166459380Y-105544643D01*
X166597959Y-105752041D01*
X166805357Y-105890620D01*
X166935839Y-105916575D01*
X166744454Y-106044454D01*
X166489840Y-106425512D01*
X166400431Y-106875000D01*
X166489840Y-107324488D01*
X166744454Y-107705546D01*
X167125512Y-107960160D01*
X167461538Y-108027000D01*
X168538462Y-108027000D01*
X168874488Y-107960160D01*
X169255546Y-107705546D01*
X169510160Y-107324488D01*
X169599569Y-106875000D01*
X169591470Y-106834283D01*
X170955000Y-106834283D01*
X171199643Y-106785620D01*
X171407041Y-106647041D01*
X171545620Y-106439643D01*
X171594283Y-106195000D01*
X171594283Y-105427000D01*
X172173001Y-105427000D01*
X172173000Y-106418556D01*
X172156800Y-106500000D01*
X172173000Y-106581444D01*
X172173000Y-106581447D01*
X172220984Y-106822678D01*
X172403767Y-107096233D01*
X172472819Y-107142372D01*
X173191164Y-107860717D01*
X172800000Y-107860717D01*
X172555357Y-107909380D01*
X172347959Y-108047959D01*
X172209380Y-108255357D01*
X172160717Y-108500000D01*
X172160717Y-110100000D01*
X172209380Y-110344643D01*
X172347959Y-110552041D01*
X172555357Y-110690620D01*
X172788506Y-110736997D01*
X172771861Y-110792255D01*
X173600000Y-111620395D01*
X174428139Y-110792255D01*
X174411494Y-110736997D01*
X174644643Y-110690620D01*
X174852041Y-110552041D01*
X174990620Y-110344643D01*
X175039283Y-110100000D01*
X175039283Y-109030271D01*
X175042554Y-109027000D01*
X176276033Y-109027000D01*
X176309380Y-109194643D01*
X176413186Y-109350000D01*
X176309380Y-109505357D01*
X176260717Y-109750000D01*
X176260717Y-111250000D01*
X176309380Y-111494643D01*
X176408695Y-111643279D01*
X176361673Y-111690301D01*
X176265000Y-111923690D01*
X176265000Y-112514250D01*
X176423750Y-112673000D01*
X177773000Y-112673000D01*
X177773000Y-112653000D01*
X178027000Y-112653000D01*
X178027000Y-112673000D01*
X179376250Y-112673000D01*
X179535000Y-112514250D01*
X179535000Y-111923690D01*
X179438327Y-111690301D01*
X179391305Y-111643279D01*
X179490620Y-111494643D01*
X179523967Y-111327000D01*
X182560717Y-111327000D01*
X182560717Y-112400000D01*
X182609380Y-112644643D01*
X182747959Y-112852041D01*
X182955357Y-112990620D01*
X183200000Y-113039283D01*
X185200000Y-113039283D01*
X185444643Y-112990620D01*
X185643504Y-112857745D01*
X187871861Y-112857745D01*
X187945995Y-113103864D01*
X188483223Y-113296965D01*
X189053454Y-113269778D01*
X189454005Y-113103864D01*
X189528139Y-112857745D01*
X188700000Y-112029605D01*
X187871861Y-112857745D01*
X185643504Y-112857745D01*
X185652041Y-112852041D01*
X185790620Y-112644643D01*
X185839283Y-112400000D01*
X185839283Y-111327000D01*
X187363104Y-111327000D01*
X187253035Y-111633223D01*
X187280222Y-112203454D01*
X187446136Y-112604005D01*
X187692255Y-112678139D01*
X188520395Y-111850000D01*
X188879605Y-111850000D01*
X189707745Y-112678139D01*
X189953864Y-112604005D01*
X190146965Y-112066777D01*
X190119778Y-111496546D01*
X189953864Y-111095995D01*
X189707745Y-111021861D01*
X188879605Y-111850000D01*
X188520395Y-111850000D01*
X188506252Y-111835858D01*
X188685858Y-111656252D01*
X188700000Y-111670395D01*
X189528139Y-110842255D01*
X189511494Y-110786997D01*
X189744643Y-110740620D01*
X189952041Y-110602041D01*
X190090620Y-110394643D01*
X190133912Y-110177000D01*
X191307447Y-110177000D01*
X194857632Y-113727187D01*
X194903767Y-113796233D01*
X195056072Y-113898000D01*
X179443173Y-113898000D01*
X179535000Y-113676310D01*
X179535000Y-113085750D01*
X179376250Y-112927000D01*
X178027000Y-112927000D01*
X178027000Y-112947000D01*
X177773000Y-112947000D01*
X177773000Y-112927000D01*
X176423750Y-112927000D01*
X176265000Y-113085750D01*
X176265000Y-113676310D01*
X176356827Y-113898000D01*
X164902000Y-113898000D01*
X164902000Y-110956478D01*
X165473000Y-110956478D01*
X165473000Y-111643522D01*
X165735920Y-112278267D01*
X166221733Y-112764080D01*
X166856478Y-113027000D01*
X167543522Y-113027000D01*
X168072850Y-112807745D01*
X172771861Y-112807745D01*
X172845995Y-113053864D01*
X173383223Y-113246965D01*
X173953454Y-113219778D01*
X174354005Y-113053864D01*
X174428139Y-112807745D01*
X173600000Y-111979605D01*
X172771861Y-112807745D01*
X168072850Y-112807745D01*
X168178267Y-112764080D01*
X168664080Y-112278267D01*
X168927000Y-111643522D01*
X168927000Y-111583223D01*
X172153035Y-111583223D01*
X172180222Y-112153454D01*
X172346136Y-112554005D01*
X172592255Y-112628139D01*
X173420395Y-111800000D01*
X173779605Y-111800000D01*
X174607745Y-112628139D01*
X174853864Y-112554005D01*
X175046965Y-112016777D01*
X175019778Y-111446546D01*
X174853864Y-111045995D01*
X174607745Y-110971861D01*
X173779605Y-111800000D01*
X173420395Y-111800000D01*
X172592255Y-110971861D01*
X172346136Y-111045995D01*
X172153035Y-111583223D01*
X168927000Y-111583223D01*
X168927000Y-110956478D01*
X168664080Y-110321733D01*
X168178267Y-109835920D01*
X167543522Y-109573000D01*
X166856478Y-109573000D01*
X166221733Y-109835920D01*
X165735920Y-110321733D01*
X165473000Y-110956478D01*
X164902000Y-110956478D01*
X164902000Y-86681478D01*
X165423000Y-86681478D01*
X165423000Y-87368522D01*
X165685920Y-88003267D01*
X166171733Y-88489080D01*
X166806478Y-88752000D01*
X167493522Y-88752000D01*
X168128267Y-88489080D01*
X168614080Y-88003267D01*
X168877000Y-87368522D01*
X168877000Y-86681478D01*
X168614080Y-86046733D01*
X168128267Y-85560920D01*
X167493522Y-85298000D01*
X166806478Y-85298000D01*
X166171733Y-85560920D01*
X165685920Y-86046733D01*
X165423000Y-86681478D01*
X164902000Y-86681478D01*
X164902000Y-80200000D01*
X170086228Y-80200000D01*
X170231905Y-80932369D01*
X170646759Y-81553241D01*
X171267631Y-81968095D01*
X171815134Y-82077000D01*
X172184866Y-82077000D01*
X172732369Y-81968095D01*
X173353241Y-81553241D01*
X173768095Y-80932369D01*
X173913772Y-80200000D01*
X173768095Y-79467631D01*
X173353241Y-78846759D01*
X172732369Y-78431905D01*
X172184866Y-78323000D01*
X171815134Y-78323000D01*
X171267631Y-78431905D01*
X170646759Y-78846759D01*
X170231905Y-79467631D01*
X170086228Y-80200000D01*
X164902000Y-80200000D01*
X164902000Y-74590500D01*
X170525381Y-74590500D01*
X170525381Y-77494500D01*
X179024619Y-77494500D01*
X179024619Y-74590500D01*
X170525381Y-74590500D01*
X164902000Y-74590500D01*
X164902000Y-65302000D01*
X168973000Y-65302000D01*
X168973000Y-72500000D01*
G36*
X213498000Y-101872295D02*
X213443327Y-101740302D01*
X213264699Y-101561673D01*
X213031310Y-101465000D01*
X212740750Y-101465000D01*
X212582000Y-101623750D01*
X212582000Y-102973000D01*
X212602000Y-102973000D01*
X212602000Y-103227000D01*
X212582000Y-103227000D01*
X212582000Y-104576250D01*
X212740750Y-104735000D01*
X213031310Y-104735000D01*
X213264699Y-104638327D01*
X213443327Y-104459698D01*
X213498000Y-104327705D01*
X213498000Y-113898000D01*
X206603928Y-113898000D01*
X206756233Y-113796233D01*
X206802372Y-113727181D01*
X207521949Y-113007605D01*
X207619456Y-113027000D01*
X207900544Y-113027000D01*
X208316788Y-112944204D01*
X208788809Y-112628809D01*
X209104204Y-112156788D01*
X209179982Y-111775826D01*
X210873000Y-111775826D01*
X210873000Y-112224174D01*
X211044576Y-112638394D01*
X211361606Y-112955424D01*
X211775826Y-113127000D01*
X212224174Y-113127000D01*
X212638394Y-112955424D01*
X212955424Y-112638394D01*
X213127000Y-112224174D01*
X213127000Y-111775826D01*
X212955424Y-111361606D01*
X212638394Y-111044576D01*
X212224174Y-110873000D01*
X211775826Y-110873000D01*
X211361606Y-111044576D01*
X211044576Y-111361606D01*
X210873000Y-111775826D01*
X209179982Y-111775826D01*
X209214956Y-111600000D01*
X209104204Y-111043212D01*
X208788809Y-110571191D01*
X208587000Y-110436346D01*
X208587000Y-108550132D01*
X208611673Y-108609698D01*
X208790301Y-108788327D01*
X209023690Y-108885000D01*
X209714250Y-108885000D01*
X209873000Y-108726250D01*
X209873000Y-107527000D01*
X210127000Y-107527000D01*
X210127000Y-108726250D01*
X210285750Y-108885000D01*
X210976310Y-108885000D01*
X211209699Y-108788327D01*
X211388327Y-108609698D01*
X211485000Y-108376309D01*
X211485000Y-107685750D01*
X211326250Y-107527000D01*
X210127000Y-107527000D01*
X209873000Y-107527000D01*
X209853000Y-107527000D01*
X209853000Y-107273000D01*
X209873000Y-107273000D01*
X209873000Y-107253000D01*
X210127000Y-107253000D01*
X210127000Y-107273000D01*
X211326250Y-107273000D01*
X211485000Y-107114250D01*
X211485000Y-106423691D01*
X211388327Y-106190302D01*
X211209699Y-106011673D01*
X210976310Y-105915000D01*
X210468152Y-105915000D01*
X210496222Y-105896244D01*
X210542361Y-105827192D01*
X211630271Y-104739283D01*
X211635000Y-104739283D01*
X211806616Y-104705146D01*
X211878690Y-104735000D01*
X212169250Y-104735000D01*
X212328000Y-104576250D01*
X212328000Y-103227000D01*
X212308000Y-103227000D01*
X212308000Y-102973000D01*
X212328000Y-102973000D01*
X212328000Y-101623750D01*
X212169250Y-101465000D01*
X211878690Y-101465000D01*
X211806616Y-101494854D01*
X211635000Y-101460717D01*
X210735000Y-101460717D01*
X210550000Y-101497516D01*
X210365000Y-101460717D01*
X209465000Y-101460717D01*
X209280000Y-101497516D01*
X209095000Y-101460717D01*
X208195000Y-101460717D01*
X208010000Y-101497516D01*
X207825000Y-101460717D01*
X206925000Y-101460717D01*
X206740000Y-101497516D01*
X206555000Y-101460717D01*
X205655000Y-101460717D01*
X205470000Y-101497516D01*
X205285000Y-101460717D01*
X204385000Y-101460717D01*
X204200000Y-101497516D01*
X204015000Y-101460717D01*
X203115000Y-101460717D01*
X202930000Y-101497516D01*
X202745000Y-101460717D01*
X201845000Y-101460717D01*
X201660000Y-101497516D01*
X201475000Y-101460717D01*
X200575000Y-101460717D01*
X200390000Y-101497516D01*
X200205000Y-101460717D01*
X199305000Y-101460717D01*
X199120000Y-101497516D01*
X198935000Y-101460717D01*
X198035000Y-101460717D01*
X197850000Y-101497516D01*
X197665000Y-101460717D01*
X196765000Y-101460717D01*
X196580000Y-101497516D01*
X196395000Y-101460717D01*
X195495000Y-101460717D01*
X195250357Y-101509380D01*
X195042959Y-101647959D01*
X194904380Y-101855357D01*
X194855717Y-102100000D01*
X194855717Y-104100000D01*
X194904380Y-104344643D01*
X195042959Y-104552041D01*
X195250357Y-104690620D01*
X195495000Y-104739283D01*
X196395000Y-104739283D01*
X196580000Y-104702484D01*
X196765000Y-104739283D01*
X197665000Y-104739283D01*
X197850000Y-104702484D01*
X198035000Y-104739283D01*
X198935000Y-104739283D01*
X199120000Y-104702484D01*
X199305000Y-104739283D01*
X200205000Y-104739283D01*
X200390000Y-104702484D01*
X200575000Y-104739283D01*
X201475000Y-104739283D01*
X201660000Y-104702484D01*
X201845000Y-104739283D01*
X202745000Y-104739283D01*
X202930000Y-104702484D01*
X203115000Y-104739283D01*
X204015000Y-104739283D01*
X204200000Y-104702484D01*
X204385000Y-104739283D01*
X205285000Y-104739283D01*
X205470000Y-104702484D01*
X205655000Y-104739283D01*
X206411163Y-104739283D01*
X205200573Y-105949874D01*
X205065471Y-105923000D01*
X204774529Y-105923000D01*
X204343703Y-106008697D01*
X203855142Y-106335142D01*
X203650000Y-106642160D01*
X203444858Y-106335142D01*
X202956297Y-106008697D01*
X202525471Y-105923000D01*
X202234529Y-105923000D01*
X202099427Y-105949874D01*
X201422372Y-105272819D01*
X201376233Y-105203767D01*
X201102679Y-105020984D01*
X200861448Y-104973000D01*
X200861444Y-104973000D01*
X200780000Y-104956800D01*
X200698556Y-104973000D01*
X193342554Y-104973000D01*
X192839054Y-104469500D01*
X194602000Y-104469500D01*
X194602000Y-101565500D01*
X192227000Y-101565500D01*
X192227000Y-90602551D01*
X193337047Y-89492505D01*
X193342516Y-89520000D01*
X193305717Y-89705000D01*
X193305717Y-90605000D01*
X193342516Y-90790000D01*
X193305717Y-90975000D01*
X193305717Y-91875000D01*
X193342516Y-92060000D01*
X193305717Y-92245000D01*
X193305717Y-93145000D01*
X193342516Y-93330000D01*
X193305717Y-93515000D01*
X193305717Y-94415000D01*
X193342516Y-94600000D01*
X193305717Y-94785000D01*
X193305717Y-95685000D01*
X193342516Y-95870000D01*
X193305717Y-96055000D01*
X193305717Y-96955000D01*
X193342516Y-97140000D01*
X193305717Y-97325000D01*
X193305717Y-98225000D01*
X193342516Y-98410000D01*
X193305717Y-98595000D01*
X193305717Y-99495000D01*
X193342516Y-99680000D01*
X193305717Y-99865000D01*
X193305717Y-100765000D01*
X193354380Y-101009643D01*
X193492959Y-101217041D01*
X193700357Y-101355620D01*
X193945000Y-101404283D01*
X195945000Y-101404283D01*
X196189643Y-101355620D01*
X196397041Y-101217041D01*
X196535620Y-101009643D01*
X196584283Y-100765000D01*
X196584283Y-99865000D01*
X196547484Y-99680000D01*
X196584283Y-99495000D01*
X196584283Y-98595000D01*
X196547484Y-98410000D01*
X196584283Y-98225000D01*
X196584283Y-97325000D01*
X196547484Y-97140000D01*
X196584283Y-96955000D01*
X196584283Y-96055000D01*
X196547484Y-95870000D01*
X196584283Y-95685000D01*
X196584283Y-94785000D01*
X196547484Y-94600000D01*
X196584283Y-94415000D01*
X196584283Y-93515000D01*
X196547484Y-93330000D01*
X196584283Y-93145000D01*
X196584283Y-93100000D01*
X201815717Y-93100000D01*
X201815717Y-98100000D01*
X201864380Y-98344643D01*
X202002959Y-98552041D01*
X202210357Y-98690620D01*
X202455000Y-98739283D01*
X207455000Y-98739283D01*
X207699643Y-98690620D01*
X207907041Y-98552041D01*
X208045620Y-98344643D01*
X208094283Y-98100000D01*
X208094283Y-93100000D01*
X208045620Y-92855357D01*
X207907041Y-92647959D01*
X207699643Y-92509380D01*
X207455000Y-92460717D01*
X202455000Y-92460717D01*
X202210357Y-92509380D01*
X202002959Y-92647959D01*
X201864380Y-92855357D01*
X201815717Y-93100000D01*
X196584283Y-93100000D01*
X196584283Y-92245000D01*
X196547484Y-92060000D01*
X196584283Y-91875000D01*
X196584283Y-90975000D01*
X196547484Y-90790000D01*
X196584283Y-90605000D01*
X196584283Y-89705000D01*
X196547484Y-89520000D01*
X196584283Y-89335000D01*
X196584283Y-88627000D01*
X206493558Y-88627000D01*
X206575002Y-88643200D01*
X206656446Y-88627000D01*
X206656450Y-88627000D01*
X206897681Y-88579016D01*
X207171235Y-88396233D01*
X207217374Y-88327181D01*
X207805273Y-87739283D01*
X207825000Y-87739283D01*
X208010000Y-87702484D01*
X208195000Y-87739283D01*
X209095000Y-87739283D01*
X209280000Y-87702484D01*
X209465000Y-87739283D01*
X210365000Y-87739283D01*
X210550000Y-87702484D01*
X210735000Y-87739283D01*
X211635000Y-87739283D01*
X211820000Y-87702484D01*
X212005000Y-87739283D01*
X212905000Y-87739283D01*
X213149643Y-87690620D01*
X213357041Y-87552041D01*
X213495620Y-87344643D01*
X213498001Y-87332675D01*
X213498000Y-101872295D01*
X213498000Y-101872295D01*
G37*
X213498000Y-101872295D02*
X213443327Y-101740302D01*
X213264699Y-101561673D01*
X213031310Y-101465000D01*
X212740750Y-101465000D01*
X212582000Y-101623750D01*
X212582000Y-102973000D01*
X212602000Y-102973000D01*
X212602000Y-103227000D01*
X212582000Y-103227000D01*
X212582000Y-104576250D01*
X212740750Y-104735000D01*
X213031310Y-104735000D01*
X213264699Y-104638327D01*
X213443327Y-104459698D01*
X213498000Y-104327705D01*
X213498000Y-113898000D01*
X206603928Y-113898000D01*
X206756233Y-113796233D01*
X206802372Y-113727181D01*
X207521949Y-113007605D01*
X207619456Y-113027000D01*
X207900544Y-113027000D01*
X208316788Y-112944204D01*
X208788809Y-112628809D01*
X209104204Y-112156788D01*
X209179982Y-111775826D01*
X210873000Y-111775826D01*
X210873000Y-112224174D01*
X211044576Y-112638394D01*
X211361606Y-112955424D01*
X211775826Y-113127000D01*
X212224174Y-113127000D01*
X212638394Y-112955424D01*
X212955424Y-112638394D01*
X213127000Y-112224174D01*
X213127000Y-111775826D01*
X212955424Y-111361606D01*
X212638394Y-111044576D01*
X212224174Y-110873000D01*
X211775826Y-110873000D01*
X211361606Y-111044576D01*
X211044576Y-111361606D01*
X210873000Y-111775826D01*
X209179982Y-111775826D01*
X209214956Y-111600000D01*
X209104204Y-111043212D01*
X208788809Y-110571191D01*
X208587000Y-110436346D01*
X208587000Y-108550132D01*
X208611673Y-108609698D01*
X208790301Y-108788327D01*
X209023690Y-108885000D01*
X209714250Y-108885000D01*
X209873000Y-108726250D01*
X209873000Y-107527000D01*
X210127000Y-107527000D01*
X210127000Y-108726250D01*
X210285750Y-108885000D01*
X210976310Y-108885000D01*
X211209699Y-108788327D01*
X211388327Y-108609698D01*
X211485000Y-108376309D01*
X211485000Y-107685750D01*
X211326250Y-107527000D01*
X210127000Y-107527000D01*
X209873000Y-107527000D01*
X209853000Y-107527000D01*
X209853000Y-107273000D01*
X209873000Y-107273000D01*
X209873000Y-107253000D01*
X210127000Y-107253000D01*
X210127000Y-107273000D01*
X211326250Y-107273000D01*
X211485000Y-107114250D01*
X211485000Y-106423691D01*
X211388327Y-106190302D01*
X211209699Y-106011673D01*
X210976310Y-105915000D01*
X210468152Y-105915000D01*
X210496222Y-105896244D01*
X210542361Y-105827192D01*
X211630271Y-104739283D01*
X211635000Y-104739283D01*
X211806616Y-104705146D01*
X211878690Y-104735000D01*
X212169250Y-104735000D01*
X212328000Y-104576250D01*
X212328000Y-103227000D01*
X212308000Y-103227000D01*
X212308000Y-102973000D01*
X212328000Y-102973000D01*
X212328000Y-101623750D01*
X212169250Y-101465000D01*
X211878690Y-101465000D01*
X211806616Y-101494854D01*
X211635000Y-101460717D01*
X210735000Y-101460717D01*
X210550000Y-101497516D01*
X210365000Y-101460717D01*
X209465000Y-101460717D01*
X209280000Y-101497516D01*
X209095000Y-101460717D01*
X208195000Y-101460717D01*
X208010000Y-101497516D01*
X207825000Y-101460717D01*
X206925000Y-101460717D01*
X206740000Y-101497516D01*
X206555000Y-101460717D01*
X205655000Y-101460717D01*
X205470000Y-101497516D01*
X205285000Y-101460717D01*
X204385000Y-101460717D01*
X204200000Y-101497516D01*
X204015000Y-101460717D01*
X203115000Y-101460717D01*
X202930000Y-101497516D01*
X202745000Y-101460717D01*
X201845000Y-101460717D01*
X201660000Y-101497516D01*
X201475000Y-101460717D01*
X200575000Y-101460717D01*
X200390000Y-101497516D01*
X200205000Y-101460717D01*
X199305000Y-101460717D01*
X199120000Y-101497516D01*
X198935000Y-101460717D01*
X198035000Y-101460717D01*
X197850000Y-101497516D01*
X197665000Y-101460717D01*
X196765000Y-101460717D01*
X196580000Y-101497516D01*
X196395000Y-101460717D01*
X195495000Y-101460717D01*
X195250357Y-101509380D01*
X195042959Y-101647959D01*
X194904380Y-101855357D01*
X194855717Y-102100000D01*
X194855717Y-104100000D01*
X194904380Y-104344643D01*
X195042959Y-104552041D01*
X195250357Y-104690620D01*
X195495000Y-104739283D01*
X196395000Y-104739283D01*
X196580000Y-104702484D01*
X196765000Y-104739283D01*
X197665000Y-104739283D01*
X197850000Y-104702484D01*
X198035000Y-104739283D01*
X198935000Y-104739283D01*
X199120000Y-104702484D01*
X199305000Y-104739283D01*
X200205000Y-104739283D01*
X200390000Y-104702484D01*
X200575000Y-104739283D01*
X201475000Y-104739283D01*
X201660000Y-104702484D01*
X201845000Y-104739283D01*
X202745000Y-104739283D01*
X202930000Y-104702484D01*
X203115000Y-104739283D01*
X204015000Y-104739283D01*
X204200000Y-104702484D01*
X204385000Y-104739283D01*
X205285000Y-104739283D01*
X205470000Y-104702484D01*
X205655000Y-104739283D01*
X206411163Y-104739283D01*
X205200573Y-105949874D01*
X205065471Y-105923000D01*
X204774529Y-105923000D01*
X204343703Y-106008697D01*
X203855142Y-106335142D01*
X203650000Y-106642160D01*
X203444858Y-106335142D01*
X202956297Y-106008697D01*
X202525471Y-105923000D01*
X202234529Y-105923000D01*
X202099427Y-105949874D01*
X201422372Y-105272819D01*
X201376233Y-105203767D01*
X201102679Y-105020984D01*
X200861448Y-104973000D01*
X200861444Y-104973000D01*
X200780000Y-104956800D01*
X200698556Y-104973000D01*
X193342554Y-104973000D01*
X192839054Y-104469500D01*
X194602000Y-104469500D01*
X194602000Y-101565500D01*
X192227000Y-101565500D01*
X192227000Y-90602551D01*
X193337047Y-89492505D01*
X193342516Y-89520000D01*
X193305717Y-89705000D01*
X193305717Y-90605000D01*
X193342516Y-90790000D01*
X193305717Y-90975000D01*
X193305717Y-91875000D01*
X193342516Y-92060000D01*
X193305717Y-92245000D01*
X193305717Y-93145000D01*
X193342516Y-93330000D01*
X193305717Y-93515000D01*
X193305717Y-94415000D01*
X193342516Y-94600000D01*
X193305717Y-94785000D01*
X193305717Y-95685000D01*
X193342516Y-95870000D01*
X193305717Y-96055000D01*
X193305717Y-96955000D01*
X193342516Y-97140000D01*
X193305717Y-97325000D01*
X193305717Y-98225000D01*
X193342516Y-98410000D01*
X193305717Y-98595000D01*
X193305717Y-99495000D01*
X193342516Y-99680000D01*
X193305717Y-99865000D01*
X193305717Y-100765000D01*
X193354380Y-101009643D01*
X193492959Y-101217041D01*
X193700357Y-101355620D01*
X193945000Y-101404283D01*
X195945000Y-101404283D01*
X196189643Y-101355620D01*
X196397041Y-101217041D01*
X196535620Y-101009643D01*
X196584283Y-100765000D01*
X196584283Y-99865000D01*
X196547484Y-99680000D01*
X196584283Y-99495000D01*
X196584283Y-98595000D01*
X196547484Y-98410000D01*
X196584283Y-98225000D01*
X196584283Y-97325000D01*
X196547484Y-97140000D01*
X196584283Y-96955000D01*
X196584283Y-96055000D01*
X196547484Y-95870000D01*
X196584283Y-95685000D01*
X196584283Y-94785000D01*
X196547484Y-94600000D01*
X196584283Y-94415000D01*
X196584283Y-93515000D01*
X196547484Y-93330000D01*
X196584283Y-93145000D01*
X196584283Y-93100000D01*
X201815717Y-93100000D01*
X201815717Y-98100000D01*
X201864380Y-98344643D01*
X202002959Y-98552041D01*
X202210357Y-98690620D01*
X202455000Y-98739283D01*
X207455000Y-98739283D01*
X207699643Y-98690620D01*
X207907041Y-98552041D01*
X208045620Y-98344643D01*
X208094283Y-98100000D01*
X208094283Y-93100000D01*
X208045620Y-92855357D01*
X207907041Y-92647959D01*
X207699643Y-92509380D01*
X207455000Y-92460717D01*
X202455000Y-92460717D01*
X202210357Y-92509380D01*
X202002959Y-92647959D01*
X201864380Y-92855357D01*
X201815717Y-93100000D01*
X196584283Y-93100000D01*
X196584283Y-92245000D01*
X196547484Y-92060000D01*
X196584283Y-91875000D01*
X196584283Y-90975000D01*
X196547484Y-90790000D01*
X196584283Y-90605000D01*
X196584283Y-89705000D01*
X196547484Y-89520000D01*
X196584283Y-89335000D01*
X196584283Y-88627000D01*
X206493558Y-88627000D01*
X206575002Y-88643200D01*
X206656446Y-88627000D01*
X206656450Y-88627000D01*
X206897681Y-88579016D01*
X207171235Y-88396233D01*
X207217374Y-88327181D01*
X207805273Y-87739283D01*
X207825000Y-87739283D01*
X208010000Y-87702484D01*
X208195000Y-87739283D01*
X209095000Y-87739283D01*
X209280000Y-87702484D01*
X209465000Y-87739283D01*
X210365000Y-87739283D01*
X210550000Y-87702484D01*
X210735000Y-87739283D01*
X211635000Y-87739283D01*
X211820000Y-87702484D01*
X212005000Y-87739283D01*
X212905000Y-87739283D01*
X213149643Y-87690620D01*
X213357041Y-87552041D01*
X213495620Y-87344643D01*
X213498001Y-87332675D01*
X213498000Y-101872295D01*
G36*
X213498001Y-84867325D02*
X213495620Y-84855357D01*
X213357041Y-84647959D01*
X213149643Y-84509380D01*
X212905000Y-84460717D01*
X212012000Y-84460717D01*
X212012000Y-76573812D01*
X212264858Y-76404858D01*
X212591303Y-75916297D01*
X212705936Y-75340000D01*
X212591303Y-74763703D01*
X212264858Y-74275142D01*
X212240079Y-74258585D01*
X212409698Y-74188327D01*
X212588327Y-74009699D01*
X212685000Y-73776310D01*
X212685000Y-73085750D01*
X212526250Y-72927000D01*
X211327000Y-72927000D01*
X211327000Y-72947000D01*
X211073000Y-72947000D01*
X211073000Y-72927000D01*
X209873750Y-72927000D01*
X209715000Y-73085750D01*
X209715000Y-73776310D01*
X209811673Y-74009699D01*
X209990302Y-74188327D01*
X210159921Y-74258585D01*
X210135142Y-74275142D01*
X209808697Y-74763703D01*
X209694064Y-75340000D01*
X209808697Y-75916297D01*
X210135142Y-76404858D01*
X210358001Y-76553767D01*
X210358000Y-84460717D01*
X209465000Y-84460717D01*
X209441533Y-84465385D01*
X209424016Y-84377321D01*
X209291513Y-84179016D01*
X209287369Y-84172814D01*
X209287368Y-84172813D01*
X209241233Y-84103767D01*
X209172187Y-84057632D01*
X203587372Y-78472819D01*
X203541233Y-78403767D01*
X203267679Y-78220984D01*
X203043218Y-78176336D01*
X203422552Y-77797002D01*
X203581836Y-77797002D01*
X203456036Y-77975810D01*
X203464734Y-78037336D01*
X203689821Y-78434255D01*
X204049669Y-78714823D01*
X204489494Y-78836326D01*
X204673000Y-78676593D01*
X204673000Y-77797000D01*
X204927000Y-77797000D01*
X204927000Y-78676593D01*
X205110506Y-78836326D01*
X205550331Y-78714823D01*
X205910179Y-78434255D01*
X206135266Y-78037336D01*
X206143964Y-77975810D01*
X206018163Y-77797000D01*
X204927000Y-77797000D01*
X204673000Y-77797000D01*
X204653000Y-77797000D01*
X204653000Y-77552000D01*
X205138462Y-77552000D01*
X205183708Y-77543000D01*
X206018163Y-77543000D01*
X206143964Y-77364190D01*
X206135266Y-77302664D01*
X205984730Y-77037208D01*
X206110160Y-76849488D01*
X206199569Y-76400000D01*
X206110160Y-75950512D01*
X206108395Y-75947871D01*
X206140620Y-75899643D01*
X206189283Y-75655000D01*
X206189283Y-74605000D01*
X206140620Y-74360357D01*
X206002041Y-74152959D01*
X205794643Y-74014380D01*
X205550000Y-73965717D01*
X204050000Y-73965717D01*
X203805357Y-74014380D01*
X203597959Y-74152959D01*
X203497705Y-74303000D01*
X201511442Y-74303000D01*
X201429999Y-74286800D01*
X201348556Y-74303000D01*
X201348552Y-74303000D01*
X201204883Y-74331578D01*
X200910393Y-74273000D01*
X200609607Y-74273000D01*
X200164194Y-74361598D01*
X199659095Y-74699095D01*
X199617743Y-74760982D01*
X198529580Y-73672819D01*
X198483441Y-73603767D01*
X198209887Y-73420984D01*
X197968656Y-73373000D01*
X197968652Y-73373000D01*
X197887208Y-73356800D01*
X197805764Y-73373000D01*
X188089283Y-73373000D01*
X188089283Y-72950000D01*
X188040620Y-72705357D01*
X187988263Y-72627000D01*
X200000000Y-72627000D01*
X200048601Y-72617333D01*
X200089803Y-72589803D01*
X200117333Y-72548601D01*
X200127000Y-72500000D01*
X200127000Y-71823690D01*
X209715000Y-71823690D01*
X209715000Y-72514250D01*
X209873750Y-72673000D01*
X211073000Y-72673000D01*
X211073000Y-71473750D01*
X211327000Y-71473750D01*
X211327000Y-72673000D01*
X212526250Y-72673000D01*
X212685000Y-72514250D01*
X212685000Y-71823690D01*
X212588327Y-71590301D01*
X212409698Y-71411673D01*
X212176309Y-71315000D01*
X211485750Y-71315000D01*
X211327000Y-71473750D01*
X211073000Y-71473750D01*
X210914250Y-71315000D01*
X210223691Y-71315000D01*
X209990302Y-71411673D01*
X209811673Y-71590301D01*
X209715000Y-71823690D01*
X200127000Y-71823690D01*
X200127000Y-69375826D01*
X203073000Y-69375826D01*
X203073000Y-69824174D01*
X203244576Y-70238394D01*
X203561606Y-70555424D01*
X203975826Y-70727000D01*
X204424174Y-70727000D01*
X204838394Y-70555424D01*
X205155424Y-70238394D01*
X205327000Y-69824174D01*
X205327000Y-69375826D01*
X205155424Y-68961606D01*
X204838394Y-68644576D01*
X204424174Y-68473000D01*
X203975826Y-68473000D01*
X203561606Y-68644576D01*
X203244576Y-68961606D01*
X203073000Y-69375826D01*
X200127000Y-69375826D01*
X200127000Y-67256478D01*
X209473000Y-67256478D01*
X209473000Y-67943522D01*
X209735920Y-68578267D01*
X210221733Y-69064080D01*
X210856478Y-69327000D01*
X211543522Y-69327000D01*
X212178267Y-69064080D01*
X212664080Y-68578267D01*
X212927000Y-67943522D01*
X212927000Y-67256478D01*
X212664080Y-66621733D01*
X212178267Y-66135920D01*
X211543522Y-65873000D01*
X210856478Y-65873000D01*
X210221733Y-66135920D01*
X209735920Y-66621733D01*
X209473000Y-67256478D01*
X200127000Y-67256478D01*
X200127000Y-65302000D01*
X213498001Y-65302000D01*
X213498001Y-84867325D01*
X213498001Y-84867325D01*
G37*
X213498001Y-84867325D02*
X213495620Y-84855357D01*
X213357041Y-84647959D01*
X213149643Y-84509380D01*
X212905000Y-84460717D01*
X212012000Y-84460717D01*
X212012000Y-76573812D01*
X212264858Y-76404858D01*
X212591303Y-75916297D01*
X212705936Y-75340000D01*
X212591303Y-74763703D01*
X212264858Y-74275142D01*
X212240079Y-74258585D01*
X212409698Y-74188327D01*
X212588327Y-74009699D01*
X212685000Y-73776310D01*
X212685000Y-73085750D01*
X212526250Y-72927000D01*
X211327000Y-72927000D01*
X211327000Y-72947000D01*
X211073000Y-72947000D01*
X211073000Y-72927000D01*
X209873750Y-72927000D01*
X209715000Y-73085750D01*
X209715000Y-73776310D01*
X209811673Y-74009699D01*
X209990302Y-74188327D01*
X210159921Y-74258585D01*
X210135142Y-74275142D01*
X209808697Y-74763703D01*
X209694064Y-75340000D01*
X209808697Y-75916297D01*
X210135142Y-76404858D01*
X210358001Y-76553767D01*
X210358000Y-84460717D01*
X209465000Y-84460717D01*
X209441533Y-84465385D01*
X209424016Y-84377321D01*
X209291513Y-84179016D01*
X209287369Y-84172814D01*
X209287368Y-84172813D01*
X209241233Y-84103767D01*
X209172187Y-84057632D01*
X203587372Y-78472819D01*
X203541233Y-78403767D01*
X203267679Y-78220984D01*
X203043218Y-78176336D01*
X203422552Y-77797002D01*
X203581836Y-77797002D01*
X203456036Y-77975810D01*
X203464734Y-78037336D01*
X203689821Y-78434255D01*
X204049669Y-78714823D01*
X204489494Y-78836326D01*
X204673000Y-78676593D01*
X204673000Y-77797000D01*
X204927000Y-77797000D01*
X204927000Y-78676593D01*
X205110506Y-78836326D01*
X205550331Y-78714823D01*
X205910179Y-78434255D01*
X206135266Y-78037336D01*
X206143964Y-77975810D01*
X206018163Y-77797000D01*
X204927000Y-77797000D01*
X204673000Y-77797000D01*
X204653000Y-77797000D01*
X204653000Y-77552000D01*
X205138462Y-77552000D01*
X205183708Y-77543000D01*
X206018163Y-77543000D01*
X206143964Y-77364190D01*
X206135266Y-77302664D01*
X205984730Y-77037208D01*
X206110160Y-76849488D01*
X206199569Y-76400000D01*
X206110160Y-75950512D01*
X206108395Y-75947871D01*
X206140620Y-75899643D01*
X206189283Y-75655000D01*
X206189283Y-74605000D01*
X206140620Y-74360357D01*
X206002041Y-74152959D01*
X205794643Y-74014380D01*
X205550000Y-73965717D01*
X204050000Y-73965717D01*
X203805357Y-74014380D01*
X203597959Y-74152959D01*
X203497705Y-74303000D01*
X201511442Y-74303000D01*
X201429999Y-74286800D01*
X201348556Y-74303000D01*
X201348552Y-74303000D01*
X201204883Y-74331578D01*
X200910393Y-74273000D01*
X200609607Y-74273000D01*
X200164194Y-74361598D01*
X199659095Y-74699095D01*
X199617743Y-74760982D01*
X198529580Y-73672819D01*
X198483441Y-73603767D01*
X198209887Y-73420984D01*
X197968656Y-73373000D01*
X197968652Y-73373000D01*
X197887208Y-73356800D01*
X197805764Y-73373000D01*
X188089283Y-73373000D01*
X188089283Y-72950000D01*
X188040620Y-72705357D01*
X187988263Y-72627000D01*
X200000000Y-72627000D01*
X200048601Y-72617333D01*
X200089803Y-72589803D01*
X200117333Y-72548601D01*
X200127000Y-72500000D01*
X200127000Y-71823690D01*
X209715000Y-71823690D01*
X209715000Y-72514250D01*
X209873750Y-72673000D01*
X211073000Y-72673000D01*
X211073000Y-71473750D01*
X211327000Y-71473750D01*
X211327000Y-72673000D01*
X212526250Y-72673000D01*
X212685000Y-72514250D01*
X212685000Y-71823690D01*
X212588327Y-71590301D01*
X212409698Y-71411673D01*
X212176309Y-71315000D01*
X211485750Y-71315000D01*
X211327000Y-71473750D01*
X211073000Y-71473750D01*
X210914250Y-71315000D01*
X210223691Y-71315000D01*
X209990302Y-71411673D01*
X209811673Y-71590301D01*
X209715000Y-71823690D01*
X200127000Y-71823690D01*
X200127000Y-69375826D01*
X203073000Y-69375826D01*
X203073000Y-69824174D01*
X203244576Y-70238394D01*
X203561606Y-70555424D01*
X203975826Y-70727000D01*
X204424174Y-70727000D01*
X204838394Y-70555424D01*
X205155424Y-70238394D01*
X205327000Y-69824174D01*
X205327000Y-69375826D01*
X205155424Y-68961606D01*
X204838394Y-68644576D01*
X204424174Y-68473000D01*
X203975826Y-68473000D01*
X203561606Y-68644576D01*
X203244576Y-68961606D01*
X203073000Y-69375826D01*
X200127000Y-69375826D01*
X200127000Y-67256478D01*
X209473000Y-67256478D01*
X209473000Y-67943522D01*
X209735920Y-68578267D01*
X210221733Y-69064080D01*
X210856478Y-69327000D01*
X211543522Y-69327000D01*
X212178267Y-69064080D01*
X212664080Y-68578267D01*
X212927000Y-67943522D01*
X212927000Y-67256478D01*
X212664080Y-66621733D01*
X212178267Y-66135920D01*
X211543522Y-65873000D01*
X210856478Y-65873000D01*
X210221733Y-66135920D01*
X209735920Y-66621733D01*
X209473000Y-67256478D01*
X200127000Y-67256478D01*
X200127000Y-65302000D01*
X213498001Y-65302000D01*
X213498001Y-84867325D01*
G04 #@! TD*
M02*
