G04 #@! TF.GenerationSoftware,KiCad,Pcbnew,5.0.0-fee4fd1~66~ubuntu18.04.1*
G04 #@! TF.CreationDate,2018-11-12T17:48:12-03:00*
G04 #@! TF.ProjectId,pcbAlarma,706362416C61726D612E6B696361645F,1.1*
G04 #@! TF.SameCoordinates,Original*
G04 #@! TF.FileFunction,Paste,Bot*
G04 #@! TF.FilePolarity,Positive*
%FSLAX46Y46*%
G04 Gerber Fmt 4.6, Leading zero omitted, Abs format (unit mm)*
G04 Created by KiCad (PCBNEW 5.0.0-fee4fd1~66~ubuntu18.04.1) date Mon Nov 12 17:48:12 2018*
%MOMM*%
%LPD*%
G01*
G04 APERTURE LIST*
%ADD10C,0.150000*%
%ADD11R,1.450000X1.150000*%
%ADD12R,1.900000X1.750000*%
%ADD13R,1.400000X0.400000*%
%ADD14R,2.000000X1.500000*%
%ADD15R,2.000000X3.800000*%
%ADD16R,0.900000X2.000000*%
%ADD17R,2.000000X0.900000*%
%ADD18R,5.000000X5.000000*%
G04 APERTURE END LIST*
D10*
X164200000Y-64600000D02*
X164200000Y-114600000D01*
X214200000Y-64600000D02*
X164200000Y-64600000D01*
X214200000Y-114600000D02*
X214200000Y-64600000D01*
X164200000Y-114600000D02*
X214200000Y-114600000D01*
D11*
G04 #@! TO.C,J1*
X170230000Y-105620000D03*
X170230000Y-100980000D03*
D12*
X168000000Y-104425000D03*
D13*
X170650000Y-103300000D03*
X170650000Y-102650000D03*
X170650000Y-102000000D03*
X170650000Y-104600000D03*
X170650000Y-103950000D03*
D12*
X168000000Y-102175000D03*
G04 #@! TD*
D14*
G04 #@! TO.C,U1*
X177900000Y-112800000D03*
X177900000Y-108200000D03*
X177900000Y-110500000D03*
D15*
X184200000Y-110500000D03*
G04 #@! TD*
D16*
G04 #@! TO.C,U2*
X212455000Y-86100000D03*
X211185000Y-86100000D03*
X209915000Y-86100000D03*
X208645000Y-86100000D03*
X207375000Y-86100000D03*
X206105000Y-86100000D03*
X204835000Y-86100000D03*
X203565000Y-86100000D03*
X202295000Y-86100000D03*
X201025000Y-86100000D03*
X199755000Y-86100000D03*
X198485000Y-86100000D03*
X197215000Y-86100000D03*
X195945000Y-86100000D03*
D17*
X194945000Y-88885000D03*
X194945000Y-90155000D03*
X194945000Y-91425000D03*
X194945000Y-92695000D03*
X194945000Y-93965000D03*
X194945000Y-95235000D03*
X194945000Y-96505000D03*
X194945000Y-97775000D03*
X194945000Y-99045000D03*
X194945000Y-100315000D03*
D16*
X195945000Y-103100000D03*
X197215000Y-103100000D03*
X198485000Y-103100000D03*
X199755000Y-103100000D03*
X201025000Y-103100000D03*
X202295000Y-103100000D03*
X203565000Y-103100000D03*
X204835000Y-103100000D03*
X206105000Y-103100000D03*
X207375000Y-103100000D03*
X208645000Y-103100000D03*
X209915000Y-103100000D03*
X211185000Y-103100000D03*
X212455000Y-103100000D03*
D18*
X204955000Y-95600000D03*
G04 #@! TD*
M02*
