G04 #@! TF.GenerationSoftware,KiCad,Pcbnew,5.0.0-fee4fd1~66~ubuntu18.04.1*
G04 #@! TF.CreationDate,2018-11-12T17:48:12-03:00*
G04 #@! TF.ProjectId,pcbAlarma,706362416C61726D612E6B696361645F,1.1*
G04 #@! TF.SameCoordinates,Original*
G04 #@! TF.FileFunction,Legend,Top*
G04 #@! TF.FilePolarity,Positive*
%FSLAX46Y46*%
G04 Gerber Fmt 4.6, Leading zero omitted, Abs format (unit mm)*
G04 Created by KiCad (PCBNEW 5.0.0-fee4fd1~66~ubuntu18.04.1) date Mon Nov 12 17:48:12 2018*
%MOMM*%
%LPD*%
G01*
G04 APERTURE LIST*
%ADD10C,0.150000*%
%ADD11C,0.120000*%
%ADD12O,2.300000X1.450000*%
%ADD13R,2.100000X2.100000*%
%ADD14O,2.100000X2.100000*%
%ADD15C,2.000000*%
%ADD16R,2.000000X2.000000*%
%ADD17C,2.200000*%
%ADD18R,2.200000X2.200000*%
%ADD19O,2.200000X2.200000*%
%ADD20C,2.600000*%
%ADD21C,3.400000*%
%ADD22R,3.400000X3.400000*%
%ADD23R,2.900000X2.900000*%
%ADD24O,2.900000X2.900000*%
%ADD25R,1.900000X1.450000*%
%ADD26O,1.900000X1.450000*%
%ADD27O,2.000000X2.000000*%
G04 APERTURE END LIST*
D10*
X189427500Y-89717857D02*
X189427500Y-88517857D01*
X189998928Y-88917857D02*
X189998928Y-89717857D01*
X189998928Y-89032142D02*
X190056071Y-88975000D01*
X190170357Y-88917857D01*
X190341785Y-88917857D01*
X190456071Y-88975000D01*
X190513214Y-89089285D01*
X190513214Y-89717857D01*
X191598928Y-88917857D02*
X191598928Y-89889285D01*
X191541785Y-90003571D01*
X191484642Y-90060714D01*
X191370357Y-90117857D01*
X191198928Y-90117857D01*
X191084642Y-90060714D01*
X191598928Y-89660714D02*
X191484642Y-89717857D01*
X191256071Y-89717857D01*
X191141785Y-89660714D01*
X191084642Y-89603571D01*
X191027500Y-89489285D01*
X191027500Y-89146428D01*
X191084642Y-89032142D01*
X191141785Y-88975000D01*
X191256071Y-88917857D01*
X191484642Y-88917857D01*
X191598928Y-88975000D01*
X192170357Y-89603571D02*
X192227500Y-89660714D01*
X192170357Y-89717857D01*
X192113214Y-89660714D01*
X192170357Y-89603571D01*
X192170357Y-89717857D01*
X193598928Y-89660714D02*
X193770357Y-89717857D01*
X194056071Y-89717857D01*
X194170357Y-89660714D01*
X194227500Y-89603571D01*
X194284642Y-89489285D01*
X194284642Y-89375000D01*
X194227500Y-89260714D01*
X194170357Y-89203571D01*
X194056071Y-89146428D01*
X193827500Y-89089285D01*
X193713214Y-89032142D01*
X193656071Y-88975000D01*
X193598928Y-88860714D01*
X193598928Y-88746428D01*
X193656071Y-88632142D01*
X193713214Y-88575000D01*
X193827500Y-88517857D01*
X194113214Y-88517857D01*
X194284642Y-88575000D01*
X195313214Y-89717857D02*
X195313214Y-89089285D01*
X195256071Y-88975000D01*
X195141785Y-88917857D01*
X194913214Y-88917857D01*
X194798928Y-88975000D01*
X195313214Y-89660714D02*
X195198928Y-89717857D01*
X194913214Y-89717857D01*
X194798928Y-89660714D01*
X194741785Y-89546428D01*
X194741785Y-89432142D01*
X194798928Y-89317857D01*
X194913214Y-89260714D01*
X195198928Y-89260714D01*
X195313214Y-89203571D01*
X195884642Y-88917857D02*
X195884642Y-89717857D01*
X195884642Y-89032142D02*
X195941785Y-88975000D01*
X196056071Y-88917857D01*
X196227500Y-88917857D01*
X196341785Y-88975000D01*
X196398928Y-89089285D01*
X196398928Y-89717857D01*
X196798928Y-88917857D02*
X197256071Y-88917857D01*
X196970357Y-88517857D02*
X196970357Y-89546428D01*
X197027500Y-89660714D01*
X197141785Y-89717857D01*
X197256071Y-89717857D01*
X197656071Y-89717857D02*
X197656071Y-88917857D01*
X197656071Y-88517857D02*
X197598928Y-88575000D01*
X197656071Y-88632142D01*
X197713214Y-88575000D01*
X197656071Y-88517857D01*
X197656071Y-88632142D01*
X198741785Y-89717857D02*
X198741785Y-89089285D01*
X198684642Y-88975000D01*
X198570357Y-88917857D01*
X198341785Y-88917857D01*
X198227500Y-88975000D01*
X198741785Y-89660714D02*
X198627500Y-89717857D01*
X198341785Y-89717857D01*
X198227500Y-89660714D01*
X198170357Y-89546428D01*
X198170357Y-89432142D01*
X198227500Y-89317857D01*
X198341785Y-89260714D01*
X198627500Y-89260714D01*
X198741785Y-89203571D01*
X199827500Y-88917857D02*
X199827500Y-89889285D01*
X199770357Y-90003571D01*
X199713214Y-90060714D01*
X199598928Y-90117857D01*
X199427500Y-90117857D01*
X199313214Y-90060714D01*
X199827500Y-89660714D02*
X199713214Y-89717857D01*
X199484642Y-89717857D01*
X199370357Y-89660714D01*
X199313214Y-89603571D01*
X199256071Y-89489285D01*
X199256071Y-89146428D01*
X199313214Y-89032142D01*
X199370357Y-88975000D01*
X199484642Y-88917857D01*
X199713214Y-88917857D01*
X199827500Y-88975000D01*
X200570357Y-89717857D02*
X200456071Y-89660714D01*
X200398928Y-89603571D01*
X200341785Y-89489285D01*
X200341785Y-89146428D01*
X200398928Y-89032142D01*
X200456071Y-88975000D01*
X200570357Y-88917857D01*
X200741785Y-88917857D01*
X200856071Y-88975000D01*
X200913214Y-89032142D01*
X200970357Y-89146428D01*
X200970357Y-89489285D01*
X200913214Y-89603571D01*
X200856071Y-89660714D01*
X200741785Y-89717857D01*
X200570357Y-89717857D01*
X202341785Y-89660714D02*
X202513214Y-89717857D01*
X202798928Y-89717857D01*
X202913214Y-89660714D01*
X202970357Y-89603571D01*
X203027500Y-89489285D01*
X203027500Y-89375000D01*
X202970357Y-89260714D01*
X202913214Y-89203571D01*
X202798928Y-89146428D01*
X202570357Y-89089285D01*
X202456071Y-89032142D01*
X202398928Y-88975000D01*
X202341785Y-88860714D01*
X202341785Y-88746428D01*
X202398928Y-88632142D01*
X202456071Y-88575000D01*
X202570357Y-88517857D01*
X202856071Y-88517857D01*
X203027500Y-88575000D01*
X204056071Y-89717857D02*
X204056071Y-89089285D01*
X203998928Y-88975000D01*
X203884642Y-88917857D01*
X203656071Y-88917857D01*
X203541785Y-88975000D01*
X204056071Y-89660714D02*
X203941785Y-89717857D01*
X203656071Y-89717857D01*
X203541785Y-89660714D01*
X203484642Y-89546428D01*
X203484642Y-89432142D01*
X203541785Y-89317857D01*
X203656071Y-89260714D01*
X203941785Y-89260714D01*
X204056071Y-89203571D01*
X204798928Y-89717857D02*
X204684642Y-89660714D01*
X204627500Y-89546428D01*
X204627500Y-88517857D01*
X205770357Y-89717857D02*
X205770357Y-89089285D01*
X205713214Y-88975000D01*
X205598928Y-88917857D01*
X205370357Y-88917857D01*
X205256071Y-88975000D01*
X205770357Y-89660714D02*
X205656071Y-89717857D01*
X205370357Y-89717857D01*
X205256071Y-89660714D01*
X205198928Y-89546428D01*
X205198928Y-89432142D01*
X205256071Y-89317857D01*
X205370357Y-89260714D01*
X205656071Y-89260714D01*
X205770357Y-89203571D01*
X206341785Y-89717857D02*
X206341785Y-88917857D01*
X206341785Y-89032142D02*
X206398928Y-88975000D01*
X206513214Y-88917857D01*
X206684642Y-88917857D01*
X206798928Y-88975000D01*
X206856071Y-89089285D01*
X206856071Y-89717857D01*
X206856071Y-89089285D02*
X206913214Y-88975000D01*
X207027500Y-88917857D01*
X207198928Y-88917857D01*
X207313214Y-88975000D01*
X207370357Y-89089285D01*
X207370357Y-89717857D01*
X208456071Y-89717857D02*
X208456071Y-89089285D01*
X208398928Y-88975000D01*
X208284642Y-88917857D01*
X208056071Y-88917857D01*
X207941785Y-88975000D01*
X208456071Y-89660714D02*
X208341785Y-89717857D01*
X208056071Y-89717857D01*
X207941785Y-89660714D01*
X207884642Y-89546428D01*
X207884642Y-89432142D01*
X207941785Y-89317857D01*
X208056071Y-89260714D01*
X208341785Y-89260714D01*
X208456071Y-89203571D01*
X209027500Y-88917857D02*
X209027500Y-89717857D01*
X209027500Y-89032142D02*
X209084642Y-88975000D01*
X209198928Y-88917857D01*
X209370357Y-88917857D01*
X209484642Y-88975000D01*
X209541785Y-89089285D01*
X209541785Y-89717857D01*
X210627500Y-89717857D02*
X210627500Y-88517857D01*
X210627500Y-89660714D02*
X210513214Y-89717857D01*
X210284642Y-89717857D01*
X210170357Y-89660714D01*
X210113214Y-89603571D01*
X210056071Y-89489285D01*
X210056071Y-89146428D01*
X210113214Y-89032142D01*
X210170357Y-88975000D01*
X210284642Y-88917857D01*
X210513214Y-88917857D01*
X210627500Y-88975000D01*
X211198928Y-89717857D02*
X211198928Y-88917857D01*
X211198928Y-89146428D02*
X211256071Y-89032142D01*
X211313214Y-88975000D01*
X211427500Y-88917857D01*
X211541785Y-88917857D01*
X211941785Y-89717857D02*
X211941785Y-88917857D01*
X211941785Y-88517857D02*
X211884642Y-88575000D01*
X211941785Y-88632142D01*
X211998928Y-88575000D01*
X211941785Y-88517857D01*
X211941785Y-88632142D01*
X205027500Y-91667857D02*
X204341785Y-91667857D01*
X204684642Y-91667857D02*
X204684642Y-90467857D01*
X204570357Y-90639285D01*
X204456071Y-90753571D01*
X204341785Y-90810714D01*
X206170357Y-91667857D02*
X205484642Y-91667857D01*
X205827500Y-91667857D02*
X205827500Y-90467857D01*
X205713214Y-90639285D01*
X205598928Y-90753571D01*
X205484642Y-90810714D01*
X207541785Y-90410714D02*
X206513214Y-91953571D01*
X207884642Y-90582142D02*
X207941785Y-90525000D01*
X208056071Y-90467857D01*
X208341785Y-90467857D01*
X208456071Y-90525000D01*
X208513214Y-90582142D01*
X208570357Y-90696428D01*
X208570357Y-90810714D01*
X208513214Y-90982142D01*
X207827500Y-91667857D01*
X208570357Y-91667857D01*
X209313214Y-90467857D02*
X209427500Y-90467857D01*
X209541785Y-90525000D01*
X209598928Y-90582142D01*
X209656071Y-90696428D01*
X209713214Y-90925000D01*
X209713214Y-91210714D01*
X209656071Y-91439285D01*
X209598928Y-91553571D01*
X209541785Y-91610714D01*
X209427500Y-91667857D01*
X209313214Y-91667857D01*
X209198928Y-91610714D01*
X209141785Y-91553571D01*
X209084642Y-91439285D01*
X209027500Y-91210714D01*
X209027500Y-90925000D01*
X209084642Y-90696428D01*
X209141785Y-90582142D01*
X209198928Y-90525000D01*
X209313214Y-90467857D01*
X210856071Y-91667857D02*
X210170357Y-91667857D01*
X210513214Y-91667857D02*
X210513214Y-90467857D01*
X210398928Y-90639285D01*
X210284642Y-90753571D01*
X210170357Y-90810714D01*
X211541785Y-90982142D02*
X211427500Y-90925000D01*
X211370357Y-90867857D01*
X211313214Y-90753571D01*
X211313214Y-90696428D01*
X211370357Y-90582142D01*
X211427500Y-90525000D01*
X211541785Y-90467857D01*
X211770357Y-90467857D01*
X211884642Y-90525000D01*
X211941785Y-90582142D01*
X211998928Y-90696428D01*
X211998928Y-90753571D01*
X211941785Y-90867857D01*
X211884642Y-90925000D01*
X211770357Y-90982142D01*
X211541785Y-90982142D01*
X211427500Y-91039285D01*
X211370357Y-91096428D01*
X211313214Y-91210714D01*
X211313214Y-91439285D01*
X211370357Y-91553571D01*
X211427500Y-91610714D01*
X211541785Y-91667857D01*
X211770357Y-91667857D01*
X211884642Y-91610714D01*
X211941785Y-91553571D01*
X211998928Y-91439285D01*
X211998928Y-91210714D01*
X211941785Y-91096428D01*
X211884642Y-91039285D01*
X211770357Y-90982142D01*
X208627500Y-92817857D02*
X208913214Y-93617857D01*
X209198928Y-92817857D01*
X209598928Y-92532142D02*
X209656071Y-92475000D01*
X209770357Y-92417857D01*
X210056071Y-92417857D01*
X210170357Y-92475000D01*
X210227500Y-92532142D01*
X210284642Y-92646428D01*
X210284642Y-92760714D01*
X210227500Y-92932142D01*
X209541785Y-93617857D01*
X210284642Y-93617857D01*
X210798928Y-93503571D02*
X210856071Y-93560714D01*
X210798928Y-93617857D01*
X210741785Y-93560714D01*
X210798928Y-93503571D01*
X210798928Y-93617857D01*
X211598928Y-92417857D02*
X211713214Y-92417857D01*
X211827500Y-92475000D01*
X211884642Y-92532142D01*
X211941785Y-92646428D01*
X211998928Y-92875000D01*
X211998928Y-93160714D01*
X211941785Y-93389285D01*
X211884642Y-93503571D01*
X211827500Y-93560714D01*
X211713214Y-93617857D01*
X211598928Y-93617857D01*
X211484642Y-93560714D01*
X211427500Y-93503571D01*
X211370357Y-93389285D01*
X211313214Y-93160714D01*
X211313214Y-92875000D01*
X211370357Y-92646428D01*
X211427500Y-92532142D01*
X211484642Y-92475000D01*
X211598928Y-92417857D01*
X203998928Y-99467857D02*
X203998928Y-98267857D01*
X204570357Y-99467857D02*
X204570357Y-98267857D01*
X205256071Y-99467857D01*
X205256071Y-98267857D01*
X205827500Y-99467857D02*
X205827500Y-98267857D01*
X206113214Y-98267857D01*
X206284642Y-98325000D01*
X206398928Y-98439285D01*
X206456071Y-98553571D01*
X206513214Y-98782142D01*
X206513214Y-98953571D01*
X206456071Y-99182142D01*
X206398928Y-99296428D01*
X206284642Y-99410714D01*
X206113214Y-99467857D01*
X205827500Y-99467857D01*
X207027500Y-99353571D02*
X207084642Y-99410714D01*
X207027500Y-99467857D01*
X206970357Y-99410714D01*
X207027500Y-99353571D01*
X207027500Y-99467857D01*
X208456071Y-99125000D02*
X209027500Y-99125000D01*
X208341785Y-99467857D02*
X208741785Y-98267857D01*
X209141785Y-99467857D01*
X210227500Y-99467857D02*
X209827500Y-98896428D01*
X209541785Y-99467857D02*
X209541785Y-98267857D01*
X209998928Y-98267857D01*
X210113214Y-98325000D01*
X210170357Y-98382142D01*
X210227500Y-98496428D01*
X210227500Y-98667857D01*
X210170357Y-98782142D01*
X210113214Y-98839285D01*
X209998928Y-98896428D01*
X209541785Y-98896428D01*
X211370357Y-98325000D02*
X211256071Y-98267857D01*
X211084642Y-98267857D01*
X210913214Y-98325000D01*
X210798928Y-98439285D01*
X210741785Y-98553571D01*
X210684642Y-98782142D01*
X210684642Y-98953571D01*
X210741785Y-99182142D01*
X210798928Y-99296428D01*
X210913214Y-99410714D01*
X211084642Y-99467857D01*
X211198928Y-99467857D01*
X211370357Y-99410714D01*
X211427500Y-99353571D01*
X211427500Y-98953571D01*
X211198928Y-98953571D01*
X211941785Y-99353571D02*
X211998928Y-99410714D01*
X211941785Y-99467857D01*
X211884642Y-99410714D01*
X211941785Y-99353571D01*
X211941785Y-99467857D01*
X164200000Y-64600000D02*
X164200000Y-114600000D01*
X214200000Y-64600000D02*
X164200000Y-64600000D01*
X214200000Y-114600000D02*
X214200000Y-64600000D01*
X164200000Y-114600000D02*
X214200000Y-114600000D01*
D11*
G04 #@! TO.C,J102*
X208730000Y-106070000D02*
X208730000Y-108730000D01*
X208730000Y-106070000D02*
X195970000Y-106070000D01*
X195970000Y-106070000D02*
X195970000Y-108730000D01*
X208730000Y-108730000D02*
X195970000Y-108730000D01*
X211330000Y-108730000D02*
X210000000Y-108730000D01*
X211330000Y-107400000D02*
X211330000Y-108730000D01*
G04 #@! TO.C,C1*
X175325000Y-107995225D02*
X174825000Y-107995225D01*
X175075000Y-107745225D02*
X175075000Y-108245225D01*
X173884000Y-113151000D02*
X173316000Y-113151000D01*
X174118000Y-113111000D02*
X173082000Y-113111000D01*
X174277000Y-113071000D02*
X172923000Y-113071000D01*
X174405000Y-113031000D02*
X172795000Y-113031000D01*
X174515000Y-112991000D02*
X172685000Y-112991000D01*
X174611000Y-112951000D02*
X172589000Y-112951000D01*
X174698000Y-112911000D02*
X172502000Y-112911000D01*
X174778000Y-112871000D02*
X172422000Y-112871000D01*
X172560000Y-112831000D02*
X172349000Y-112831000D01*
X174851000Y-112831000D02*
X174640000Y-112831000D01*
X172560000Y-112791000D02*
X172281000Y-112791000D01*
X174919000Y-112791000D02*
X174640000Y-112791000D01*
X172560000Y-112751000D02*
X172217000Y-112751000D01*
X174983000Y-112751000D02*
X174640000Y-112751000D01*
X172560000Y-112711000D02*
X172157000Y-112711000D01*
X175043000Y-112711000D02*
X174640000Y-112711000D01*
X172560000Y-112671000D02*
X172100000Y-112671000D01*
X175100000Y-112671000D02*
X174640000Y-112671000D01*
X172560000Y-112631000D02*
X172046000Y-112631000D01*
X175154000Y-112631000D02*
X174640000Y-112631000D01*
X172560000Y-112591000D02*
X171995000Y-112591000D01*
X175205000Y-112591000D02*
X174640000Y-112591000D01*
X172560000Y-112551000D02*
X171947000Y-112551000D01*
X175253000Y-112551000D02*
X174640000Y-112551000D01*
X172560000Y-112511000D02*
X171901000Y-112511000D01*
X175299000Y-112511000D02*
X174640000Y-112511000D01*
X172560000Y-112471000D02*
X171857000Y-112471000D01*
X175343000Y-112471000D02*
X174640000Y-112471000D01*
X172560000Y-112431000D02*
X171815000Y-112431000D01*
X175385000Y-112431000D02*
X174640000Y-112431000D01*
X172560000Y-112391000D02*
X171774000Y-112391000D01*
X175426000Y-112391000D02*
X174640000Y-112391000D01*
X172560000Y-112351000D02*
X171736000Y-112351000D01*
X175464000Y-112351000D02*
X174640000Y-112351000D01*
X172560000Y-112311000D02*
X171699000Y-112311000D01*
X175501000Y-112311000D02*
X174640000Y-112311000D01*
X172560000Y-112271000D02*
X171663000Y-112271000D01*
X175537000Y-112271000D02*
X174640000Y-112271000D01*
X172560000Y-112231000D02*
X171629000Y-112231000D01*
X175571000Y-112231000D02*
X174640000Y-112231000D01*
X172560000Y-112191000D02*
X171596000Y-112191000D01*
X175604000Y-112191000D02*
X174640000Y-112191000D01*
X172560000Y-112151000D02*
X171565000Y-112151000D01*
X175635000Y-112151000D02*
X174640000Y-112151000D01*
X172560000Y-112111000D02*
X171535000Y-112111000D01*
X175665000Y-112111000D02*
X174640000Y-112111000D01*
X172560000Y-112071000D02*
X171505000Y-112071000D01*
X175695000Y-112071000D02*
X174640000Y-112071000D01*
X172560000Y-112031000D02*
X171478000Y-112031000D01*
X175722000Y-112031000D02*
X174640000Y-112031000D01*
X172560000Y-111991000D02*
X171451000Y-111991000D01*
X175749000Y-111991000D02*
X174640000Y-111991000D01*
X172560000Y-111951000D02*
X171425000Y-111951000D01*
X175775000Y-111951000D02*
X174640000Y-111951000D01*
X172560000Y-111911000D02*
X171400000Y-111911000D01*
X175800000Y-111911000D02*
X174640000Y-111911000D01*
X172560000Y-111871000D02*
X171376000Y-111871000D01*
X175824000Y-111871000D02*
X174640000Y-111871000D01*
X172560000Y-111831000D02*
X171353000Y-111831000D01*
X175847000Y-111831000D02*
X174640000Y-111831000D01*
X172560000Y-111791000D02*
X171332000Y-111791000D01*
X175868000Y-111791000D02*
X174640000Y-111791000D01*
X172560000Y-111751000D02*
X171310000Y-111751000D01*
X175890000Y-111751000D02*
X174640000Y-111751000D01*
X172560000Y-111711000D02*
X171290000Y-111711000D01*
X175910000Y-111711000D02*
X174640000Y-111711000D01*
X172560000Y-111671000D02*
X171271000Y-111671000D01*
X175929000Y-111671000D02*
X174640000Y-111671000D01*
X172560000Y-111631000D02*
X171252000Y-111631000D01*
X175948000Y-111631000D02*
X174640000Y-111631000D01*
X172560000Y-111591000D02*
X171235000Y-111591000D01*
X175965000Y-111591000D02*
X174640000Y-111591000D01*
X172560000Y-111551000D02*
X171218000Y-111551000D01*
X175982000Y-111551000D02*
X174640000Y-111551000D01*
X172560000Y-111511000D02*
X171202000Y-111511000D01*
X175998000Y-111511000D02*
X174640000Y-111511000D01*
X172560000Y-111471000D02*
X171186000Y-111471000D01*
X176014000Y-111471000D02*
X174640000Y-111471000D01*
X172560000Y-111431000D02*
X171172000Y-111431000D01*
X176028000Y-111431000D02*
X174640000Y-111431000D01*
X172560000Y-111391000D02*
X171158000Y-111391000D01*
X176042000Y-111391000D02*
X174640000Y-111391000D01*
X172560000Y-111351000D02*
X171145000Y-111351000D01*
X176055000Y-111351000D02*
X174640000Y-111351000D01*
X172560000Y-111311000D02*
X171132000Y-111311000D01*
X176068000Y-111311000D02*
X174640000Y-111311000D01*
X172560000Y-111271000D02*
X171120000Y-111271000D01*
X176080000Y-111271000D02*
X174640000Y-111271000D01*
X172560000Y-111230000D02*
X171109000Y-111230000D01*
X176091000Y-111230000D02*
X174640000Y-111230000D01*
X172560000Y-111190000D02*
X171099000Y-111190000D01*
X176101000Y-111190000D02*
X174640000Y-111190000D01*
X172560000Y-111150000D02*
X171089000Y-111150000D01*
X176111000Y-111150000D02*
X174640000Y-111150000D01*
X172560000Y-111110000D02*
X171080000Y-111110000D01*
X176120000Y-111110000D02*
X174640000Y-111110000D01*
X172560000Y-111070000D02*
X171072000Y-111070000D01*
X176128000Y-111070000D02*
X174640000Y-111070000D01*
X172560000Y-111030000D02*
X171064000Y-111030000D01*
X176136000Y-111030000D02*
X174640000Y-111030000D01*
X172560000Y-110990000D02*
X171057000Y-110990000D01*
X176143000Y-110990000D02*
X174640000Y-110990000D01*
X172560000Y-110950000D02*
X171050000Y-110950000D01*
X176150000Y-110950000D02*
X174640000Y-110950000D01*
X172560000Y-110910000D02*
X171044000Y-110910000D01*
X176156000Y-110910000D02*
X174640000Y-110910000D01*
X172560000Y-110870000D02*
X171039000Y-110870000D01*
X176161000Y-110870000D02*
X174640000Y-110870000D01*
X172560000Y-110830000D02*
X171035000Y-110830000D01*
X176165000Y-110830000D02*
X174640000Y-110830000D01*
X172560000Y-110790000D02*
X171031000Y-110790000D01*
X176169000Y-110790000D02*
X174640000Y-110790000D01*
X176173000Y-110750000D02*
X171027000Y-110750000D01*
X176176000Y-110710000D02*
X171024000Y-110710000D01*
X176178000Y-110670000D02*
X171022000Y-110670000D01*
X176179000Y-110630000D02*
X171021000Y-110630000D01*
X176180000Y-110590000D02*
X171020000Y-110590000D01*
X176180000Y-110550000D02*
X171020000Y-110550000D01*
X176220000Y-110550000D02*
G75*
G03X176220000Y-110550000I-2620000J0D01*
G01*
G04 #@! TO.C,C2*
X190425000Y-108045225D02*
X189925000Y-108045225D01*
X190175000Y-107795225D02*
X190175000Y-108295225D01*
X188984000Y-113201000D02*
X188416000Y-113201000D01*
X189218000Y-113161000D02*
X188182000Y-113161000D01*
X189377000Y-113121000D02*
X188023000Y-113121000D01*
X189505000Y-113081000D02*
X187895000Y-113081000D01*
X189615000Y-113041000D02*
X187785000Y-113041000D01*
X189711000Y-113001000D02*
X187689000Y-113001000D01*
X189798000Y-112961000D02*
X187602000Y-112961000D01*
X189878000Y-112921000D02*
X187522000Y-112921000D01*
X187660000Y-112881000D02*
X187449000Y-112881000D01*
X189951000Y-112881000D02*
X189740000Y-112881000D01*
X187660000Y-112841000D02*
X187381000Y-112841000D01*
X190019000Y-112841000D02*
X189740000Y-112841000D01*
X187660000Y-112801000D02*
X187317000Y-112801000D01*
X190083000Y-112801000D02*
X189740000Y-112801000D01*
X187660000Y-112761000D02*
X187257000Y-112761000D01*
X190143000Y-112761000D02*
X189740000Y-112761000D01*
X187660000Y-112721000D02*
X187200000Y-112721000D01*
X190200000Y-112721000D02*
X189740000Y-112721000D01*
X187660000Y-112681000D02*
X187146000Y-112681000D01*
X190254000Y-112681000D02*
X189740000Y-112681000D01*
X187660000Y-112641000D02*
X187095000Y-112641000D01*
X190305000Y-112641000D02*
X189740000Y-112641000D01*
X187660000Y-112601000D02*
X187047000Y-112601000D01*
X190353000Y-112601000D02*
X189740000Y-112601000D01*
X187660000Y-112561000D02*
X187001000Y-112561000D01*
X190399000Y-112561000D02*
X189740000Y-112561000D01*
X187660000Y-112521000D02*
X186957000Y-112521000D01*
X190443000Y-112521000D02*
X189740000Y-112521000D01*
X187660000Y-112481000D02*
X186915000Y-112481000D01*
X190485000Y-112481000D02*
X189740000Y-112481000D01*
X187660000Y-112441000D02*
X186874000Y-112441000D01*
X190526000Y-112441000D02*
X189740000Y-112441000D01*
X187660000Y-112401000D02*
X186836000Y-112401000D01*
X190564000Y-112401000D02*
X189740000Y-112401000D01*
X187660000Y-112361000D02*
X186799000Y-112361000D01*
X190601000Y-112361000D02*
X189740000Y-112361000D01*
X187660000Y-112321000D02*
X186763000Y-112321000D01*
X190637000Y-112321000D02*
X189740000Y-112321000D01*
X187660000Y-112281000D02*
X186729000Y-112281000D01*
X190671000Y-112281000D02*
X189740000Y-112281000D01*
X187660000Y-112241000D02*
X186696000Y-112241000D01*
X190704000Y-112241000D02*
X189740000Y-112241000D01*
X187660000Y-112201000D02*
X186665000Y-112201000D01*
X190735000Y-112201000D02*
X189740000Y-112201000D01*
X187660000Y-112161000D02*
X186635000Y-112161000D01*
X190765000Y-112161000D02*
X189740000Y-112161000D01*
X187660000Y-112121000D02*
X186605000Y-112121000D01*
X190795000Y-112121000D02*
X189740000Y-112121000D01*
X187660000Y-112081000D02*
X186578000Y-112081000D01*
X190822000Y-112081000D02*
X189740000Y-112081000D01*
X187660000Y-112041000D02*
X186551000Y-112041000D01*
X190849000Y-112041000D02*
X189740000Y-112041000D01*
X187660000Y-112001000D02*
X186525000Y-112001000D01*
X190875000Y-112001000D02*
X189740000Y-112001000D01*
X187660000Y-111961000D02*
X186500000Y-111961000D01*
X190900000Y-111961000D02*
X189740000Y-111961000D01*
X187660000Y-111921000D02*
X186476000Y-111921000D01*
X190924000Y-111921000D02*
X189740000Y-111921000D01*
X187660000Y-111881000D02*
X186453000Y-111881000D01*
X190947000Y-111881000D02*
X189740000Y-111881000D01*
X187660000Y-111841000D02*
X186432000Y-111841000D01*
X190968000Y-111841000D02*
X189740000Y-111841000D01*
X187660000Y-111801000D02*
X186410000Y-111801000D01*
X190990000Y-111801000D02*
X189740000Y-111801000D01*
X187660000Y-111761000D02*
X186390000Y-111761000D01*
X191010000Y-111761000D02*
X189740000Y-111761000D01*
X187660000Y-111721000D02*
X186371000Y-111721000D01*
X191029000Y-111721000D02*
X189740000Y-111721000D01*
X187660000Y-111681000D02*
X186352000Y-111681000D01*
X191048000Y-111681000D02*
X189740000Y-111681000D01*
X187660000Y-111641000D02*
X186335000Y-111641000D01*
X191065000Y-111641000D02*
X189740000Y-111641000D01*
X187660000Y-111601000D02*
X186318000Y-111601000D01*
X191082000Y-111601000D02*
X189740000Y-111601000D01*
X187660000Y-111561000D02*
X186302000Y-111561000D01*
X191098000Y-111561000D02*
X189740000Y-111561000D01*
X187660000Y-111521000D02*
X186286000Y-111521000D01*
X191114000Y-111521000D02*
X189740000Y-111521000D01*
X187660000Y-111481000D02*
X186272000Y-111481000D01*
X191128000Y-111481000D02*
X189740000Y-111481000D01*
X187660000Y-111441000D02*
X186258000Y-111441000D01*
X191142000Y-111441000D02*
X189740000Y-111441000D01*
X187660000Y-111401000D02*
X186245000Y-111401000D01*
X191155000Y-111401000D02*
X189740000Y-111401000D01*
X187660000Y-111361000D02*
X186232000Y-111361000D01*
X191168000Y-111361000D02*
X189740000Y-111361000D01*
X187660000Y-111321000D02*
X186220000Y-111321000D01*
X191180000Y-111321000D02*
X189740000Y-111321000D01*
X187660000Y-111280000D02*
X186209000Y-111280000D01*
X191191000Y-111280000D02*
X189740000Y-111280000D01*
X187660000Y-111240000D02*
X186199000Y-111240000D01*
X191201000Y-111240000D02*
X189740000Y-111240000D01*
X187660000Y-111200000D02*
X186189000Y-111200000D01*
X191211000Y-111200000D02*
X189740000Y-111200000D01*
X187660000Y-111160000D02*
X186180000Y-111160000D01*
X191220000Y-111160000D02*
X189740000Y-111160000D01*
X187660000Y-111120000D02*
X186172000Y-111120000D01*
X191228000Y-111120000D02*
X189740000Y-111120000D01*
X187660000Y-111080000D02*
X186164000Y-111080000D01*
X191236000Y-111080000D02*
X189740000Y-111080000D01*
X187660000Y-111040000D02*
X186157000Y-111040000D01*
X191243000Y-111040000D02*
X189740000Y-111040000D01*
X187660000Y-111000000D02*
X186150000Y-111000000D01*
X191250000Y-111000000D02*
X189740000Y-111000000D01*
X187660000Y-110960000D02*
X186144000Y-110960000D01*
X191256000Y-110960000D02*
X189740000Y-110960000D01*
X187660000Y-110920000D02*
X186139000Y-110920000D01*
X191261000Y-110920000D02*
X189740000Y-110920000D01*
X187660000Y-110880000D02*
X186135000Y-110880000D01*
X191265000Y-110880000D02*
X189740000Y-110880000D01*
X187660000Y-110840000D02*
X186131000Y-110840000D01*
X191269000Y-110840000D02*
X189740000Y-110840000D01*
X191273000Y-110800000D02*
X186127000Y-110800000D01*
X191276000Y-110760000D02*
X186124000Y-110760000D01*
X191278000Y-110720000D02*
X186122000Y-110720000D01*
X191279000Y-110680000D02*
X186121000Y-110680000D01*
X191280000Y-110640000D02*
X186120000Y-110640000D01*
X191280000Y-110600000D02*
X186120000Y-110600000D01*
X191320000Y-110600000D02*
G75*
G03X191320000Y-110600000I-2620000J0D01*
G01*
G04 #@! TO.C,D1*
X178480000Y-97490000D02*
X178636000Y-97490000D01*
X176164000Y-97490000D02*
X176320000Y-97490000D01*
X178479837Y-94888870D02*
G75*
G02X178480000Y-96970961I-1079837J-1041130D01*
G01*
X176320163Y-94888870D02*
G75*
G03X176320000Y-96970961I1079837J-1041130D01*
G01*
X178478608Y-94257665D02*
G75*
G02X178635516Y-97490000I-1078608J-1672335D01*
G01*
X176321392Y-94257665D02*
G75*
G03X176164484Y-97490000I1078608J-1672335D01*
G01*
G04 #@! TO.C,D2*
X193740000Y-74330000D02*
X193740000Y-77270000D01*
X193980000Y-74330000D02*
X193980000Y-77270000D01*
X193860000Y-74330000D02*
X193860000Y-77270000D01*
X199620000Y-75800000D02*
X198400000Y-75800000D01*
X191740000Y-75800000D02*
X192960000Y-75800000D01*
X198400000Y-74330000D02*
X192960000Y-74330000D01*
X198400000Y-77270000D02*
X198400000Y-74330000D01*
X192960000Y-77270000D02*
X198400000Y-77270000D01*
X192960000Y-74330000D02*
X192960000Y-77270000D01*
G04 #@! TO.C,D3*
X168380000Y-97490000D02*
X168536000Y-97490000D01*
X166064000Y-97490000D02*
X166220000Y-97490000D01*
X168379837Y-94888870D02*
G75*
G02X168380000Y-96970961I-1079837J-1041130D01*
G01*
X166220163Y-94888870D02*
G75*
G03X166220000Y-96970961I1079837J-1041130D01*
G01*
X168378608Y-94257665D02*
G75*
G02X168535516Y-97490000I-1078608J-1672335D01*
G01*
X166221392Y-94257665D02*
G75*
G03X166064484Y-97490000I1078608J-1672335D01*
G01*
G04 #@! TO.C,D4*
X173480000Y-97490000D02*
X173636000Y-97490000D01*
X171164000Y-97490000D02*
X171320000Y-97490000D01*
X173479837Y-94888870D02*
G75*
G02X173480000Y-96970961I-1079837J-1041130D01*
G01*
X171320163Y-94888870D02*
G75*
G03X171320000Y-96970961I1079837J-1041130D01*
G01*
X173478608Y-94257665D02*
G75*
G02X173635516Y-97490000I-1078608J-1672335D01*
G01*
X171321392Y-94257665D02*
G75*
G03X171164484Y-97490000I1078608J-1672335D01*
G01*
G04 #@! TO.C,J4*
X199790000Y-65915000D02*
X189630000Y-65915000D01*
X199790000Y-73535000D02*
X199790000Y-65915000D01*
X189630000Y-73535000D02*
X199790000Y-73535000D01*
X189630000Y-65915000D02*
X189630000Y-73535000D01*
X189630000Y-67185000D02*
X199790000Y-67185000D01*
G04 #@! TO.C,J101*
X209870000Y-71470000D02*
X211200000Y-71470000D01*
X209870000Y-72800000D02*
X209870000Y-71470000D01*
X209870000Y-74070000D02*
X212530000Y-74070000D01*
X212530000Y-74070000D02*
X212530000Y-76670000D01*
X209870000Y-74070000D02*
X209870000Y-76670000D01*
X209870000Y-76670000D02*
X212530000Y-76670000D01*
G04 #@! TO.C,K1*
X166150000Y-82550000D02*
X188850000Y-82550000D01*
X188850000Y-82550000D02*
X188850000Y-65850000D01*
X188850000Y-65850000D02*
X166150000Y-65850000D01*
X166150000Y-65850000D02*
X166150000Y-82550000D01*
X183800000Y-73850000D02*
X184200000Y-74550000D01*
X183400000Y-74550000D02*
X184600000Y-74550000D01*
X184600000Y-74550000D02*
X184600000Y-73850000D01*
X184600000Y-73850000D02*
X183400000Y-73850000D01*
X183400000Y-73850000D02*
X183400000Y-74550000D01*
X189110000Y-73200000D02*
X189110000Y-75200000D01*
X184000000Y-69700000D02*
X184000000Y-72850000D01*
X184000000Y-75550000D02*
X184000000Y-78700000D01*
G04 #@! TO.C,Q1*
X202961522Y-78238478D02*
G75*
G03X207400000Y-76400000I1838478J1838478D01*
G01*
X202961522Y-74561522D02*
G75*
G02X207400000Y-76400000I1838478J-1838478D01*
G01*
X202950000Y-74600000D02*
X202950000Y-78200000D01*
G04 #@! TO.C,R1*
X180290000Y-92970000D02*
X180290000Y-90230000D01*
X180290000Y-90230000D02*
X173750000Y-90230000D01*
X173750000Y-90230000D02*
X173750000Y-92970000D01*
X173750000Y-92970000D02*
X180290000Y-92970000D01*
X181060000Y-91600000D02*
X180290000Y-91600000D01*
X172980000Y-91600000D02*
X173750000Y-91600000D01*
G04 #@! TO.C,R2*
X181120000Y-84800000D02*
X180350000Y-84800000D01*
X173040000Y-84800000D02*
X173810000Y-84800000D01*
X180350000Y-83430000D02*
X173810000Y-83430000D01*
X180350000Y-86170000D02*
X180350000Y-83430000D01*
X173810000Y-86170000D02*
X180350000Y-86170000D01*
X173810000Y-83430000D02*
X173810000Y-86170000D01*
G04 #@! TO.C,R3*
X206720000Y-111600000D02*
X205950000Y-111600000D01*
X198640000Y-111600000D02*
X199410000Y-111600000D01*
X205950000Y-110230000D02*
X199410000Y-110230000D01*
X205950000Y-112970000D02*
X205950000Y-110230000D01*
X199410000Y-112970000D02*
X205950000Y-112970000D01*
X199410000Y-110230000D02*
X199410000Y-112970000D01*
G04 #@! TO.C,R4*
X181120000Y-88300000D02*
X180350000Y-88300000D01*
X173040000Y-88300000D02*
X173810000Y-88300000D01*
X180350000Y-86930000D02*
X173810000Y-86930000D01*
X180350000Y-89670000D02*
X180350000Y-86930000D01*
X173810000Y-89670000D02*
X180350000Y-89670000D01*
X173810000Y-86930000D02*
X173810000Y-89670000D01*
G04 #@! TO.C,R5*
X191480000Y-80600000D02*
X192250000Y-80600000D01*
X199560000Y-80600000D02*
X198790000Y-80600000D01*
X192250000Y-81970000D02*
X198790000Y-81970000D01*
X192250000Y-79230000D02*
X192250000Y-81970000D01*
X198790000Y-79230000D02*
X192250000Y-79230000D01*
X198790000Y-81970000D02*
X198790000Y-79230000D01*
G04 #@! TD*
G04 #@! TO.C,J102*
D10*
X202314285Y-104652380D02*
X202314285Y-105366666D01*
X202266666Y-105509523D01*
X202171428Y-105604761D01*
X202028571Y-105652380D01*
X201933333Y-105652380D01*
X203314285Y-105652380D02*
X202742857Y-105652380D01*
X203028571Y-105652380D02*
X203028571Y-104652380D01*
X202933333Y-104795238D01*
X202838095Y-104890476D01*
X202742857Y-104938095D01*
X203933333Y-104652380D02*
X204028571Y-104652380D01*
X204123809Y-104700000D01*
X204171428Y-104747619D01*
X204219047Y-104842857D01*
X204266666Y-105033333D01*
X204266666Y-105271428D01*
X204219047Y-105461904D01*
X204171428Y-105557142D01*
X204123809Y-105604761D01*
X204028571Y-105652380D01*
X203933333Y-105652380D01*
X203838095Y-105604761D01*
X203790476Y-105557142D01*
X203742857Y-105461904D01*
X203695238Y-105271428D01*
X203695238Y-105033333D01*
X203742857Y-104842857D01*
X203790476Y-104747619D01*
X203838095Y-104700000D01*
X203933333Y-104652380D01*
X204647619Y-104747619D02*
X204695238Y-104700000D01*
X204790476Y-104652380D01*
X205028571Y-104652380D01*
X205123809Y-104700000D01*
X205171428Y-104747619D01*
X205219047Y-104842857D01*
X205219047Y-104938095D01*
X205171428Y-105080952D01*
X204600000Y-105652380D01*
X205219047Y-105652380D01*
G04 #@! TO.C,C1*
X170558333Y-113282142D02*
X170510714Y-113329761D01*
X170367857Y-113377380D01*
X170272619Y-113377380D01*
X170129761Y-113329761D01*
X170034523Y-113234523D01*
X169986904Y-113139285D01*
X169939285Y-112948809D01*
X169939285Y-112805952D01*
X169986904Y-112615476D01*
X170034523Y-112520238D01*
X170129761Y-112425000D01*
X170272619Y-112377380D01*
X170367857Y-112377380D01*
X170510714Y-112425000D01*
X170558333Y-112472619D01*
X171510714Y-113377380D02*
X170939285Y-113377380D01*
X171225000Y-113377380D02*
X171225000Y-112377380D01*
X171129761Y-112520238D01*
X171034523Y-112615476D01*
X170939285Y-112663095D01*
G04 #@! TO.C,C2*
X186183333Y-113832142D02*
X186135714Y-113879761D01*
X185992857Y-113927380D01*
X185897619Y-113927380D01*
X185754761Y-113879761D01*
X185659523Y-113784523D01*
X185611904Y-113689285D01*
X185564285Y-113498809D01*
X185564285Y-113355952D01*
X185611904Y-113165476D01*
X185659523Y-113070238D01*
X185754761Y-112975000D01*
X185897619Y-112927380D01*
X185992857Y-112927380D01*
X186135714Y-112975000D01*
X186183333Y-113022619D01*
X186564285Y-113022619D02*
X186611904Y-112975000D01*
X186707142Y-112927380D01*
X186945238Y-112927380D01*
X187040476Y-112975000D01*
X187088095Y-113022619D01*
X187135714Y-113117857D01*
X187135714Y-113213095D01*
X187088095Y-113355952D01*
X186516666Y-113927380D01*
X187135714Y-113927380D01*
G04 #@! TO.C,D1*
X175361904Y-99552380D02*
X175361904Y-98552380D01*
X175600000Y-98552380D01*
X175742857Y-98600000D01*
X175838095Y-98695238D01*
X175885714Y-98790476D01*
X175933333Y-98980952D01*
X175933333Y-99123809D01*
X175885714Y-99314285D01*
X175838095Y-99409523D01*
X175742857Y-99504761D01*
X175600000Y-99552380D01*
X175361904Y-99552380D01*
X176885714Y-99552380D02*
X176314285Y-99552380D01*
X176600000Y-99552380D02*
X176600000Y-98552380D01*
X176504761Y-98695238D01*
X176409523Y-98790476D01*
X176314285Y-98838095D01*
G04 #@! TO.C,D2*
X189661904Y-78652380D02*
X189661904Y-77652380D01*
X189900000Y-77652380D01*
X190042857Y-77700000D01*
X190138095Y-77795238D01*
X190185714Y-77890476D01*
X190233333Y-78080952D01*
X190233333Y-78223809D01*
X190185714Y-78414285D01*
X190138095Y-78509523D01*
X190042857Y-78604761D01*
X189900000Y-78652380D01*
X189661904Y-78652380D01*
X190614285Y-77747619D02*
X190661904Y-77700000D01*
X190757142Y-77652380D01*
X190995238Y-77652380D01*
X191090476Y-77700000D01*
X191138095Y-77747619D01*
X191185714Y-77842857D01*
X191185714Y-77938095D01*
X191138095Y-78080952D01*
X190566666Y-78652380D01*
X191185714Y-78652380D01*
X192288095Y-78502380D02*
X192288095Y-77502380D01*
X192859523Y-78502380D02*
X192430952Y-77930952D01*
X192859523Y-77502380D02*
X192288095Y-78073809D01*
G04 #@! TO.C,D3*
X164986904Y-99527380D02*
X164986904Y-98527380D01*
X165225000Y-98527380D01*
X165367857Y-98575000D01*
X165463095Y-98670238D01*
X165510714Y-98765476D01*
X165558333Y-98955952D01*
X165558333Y-99098809D01*
X165510714Y-99289285D01*
X165463095Y-99384523D01*
X165367857Y-99479761D01*
X165225000Y-99527380D01*
X164986904Y-99527380D01*
X165891666Y-98527380D02*
X166510714Y-98527380D01*
X166177380Y-98908333D01*
X166320238Y-98908333D01*
X166415476Y-98955952D01*
X166463095Y-99003571D01*
X166510714Y-99098809D01*
X166510714Y-99336904D01*
X166463095Y-99432142D01*
X166415476Y-99479761D01*
X166320238Y-99527380D01*
X166034523Y-99527380D01*
X165939285Y-99479761D01*
X165891666Y-99432142D01*
G04 #@! TO.C,D4*
X169961904Y-99452380D02*
X169961904Y-98452380D01*
X170200000Y-98452380D01*
X170342857Y-98500000D01*
X170438095Y-98595238D01*
X170485714Y-98690476D01*
X170533333Y-98880952D01*
X170533333Y-99023809D01*
X170485714Y-99214285D01*
X170438095Y-99309523D01*
X170342857Y-99404761D01*
X170200000Y-99452380D01*
X169961904Y-99452380D01*
X171390476Y-98785714D02*
X171390476Y-99452380D01*
X171152380Y-98404761D02*
X170914285Y-99119047D01*
X171533333Y-99119047D01*
G04 #@! TO.C,J4*
X200516666Y-69377380D02*
X200516666Y-70091666D01*
X200469047Y-70234523D01*
X200373809Y-70329761D01*
X200230952Y-70377380D01*
X200135714Y-70377380D01*
X201421428Y-69710714D02*
X201421428Y-70377380D01*
X201183333Y-69329761D02*
X200945238Y-70044047D01*
X201564285Y-70044047D01*
G04 #@! TO.C,J101*
X206314285Y-71252380D02*
X206314285Y-71966666D01*
X206266666Y-72109523D01*
X206171428Y-72204761D01*
X206028571Y-72252380D01*
X205933333Y-72252380D01*
X207314285Y-72252380D02*
X206742857Y-72252380D01*
X207028571Y-72252380D02*
X207028571Y-71252380D01*
X206933333Y-71395238D01*
X206838095Y-71490476D01*
X206742857Y-71538095D01*
X207933333Y-71252380D02*
X208028571Y-71252380D01*
X208123809Y-71300000D01*
X208171428Y-71347619D01*
X208219047Y-71442857D01*
X208266666Y-71633333D01*
X208266666Y-71871428D01*
X208219047Y-72061904D01*
X208171428Y-72157142D01*
X208123809Y-72204761D01*
X208028571Y-72252380D01*
X207933333Y-72252380D01*
X207838095Y-72204761D01*
X207790476Y-72157142D01*
X207742857Y-72061904D01*
X207695238Y-71871428D01*
X207695238Y-71633333D01*
X207742857Y-71442857D01*
X207790476Y-71347619D01*
X207838095Y-71300000D01*
X207933333Y-71252380D01*
X209219047Y-72252380D02*
X208647619Y-72252380D01*
X208933333Y-72252380D02*
X208933333Y-71252380D01*
X208838095Y-71395238D01*
X208742857Y-71490476D01*
X208647619Y-71538095D01*
G04 #@! TO.C,K1*
X166911904Y-84352380D02*
X166911904Y-83352380D01*
X167483333Y-84352380D02*
X167054761Y-83780952D01*
X167483333Y-83352380D02*
X166911904Y-83923809D01*
X168435714Y-84352380D02*
X167864285Y-84352380D01*
X168150000Y-84352380D02*
X168150000Y-83352380D01*
X168054761Y-83495238D01*
X167959523Y-83590476D01*
X167864285Y-83638095D01*
G04 #@! TO.C,Q1*
X204504761Y-73347619D02*
X204409523Y-73300000D01*
X204314285Y-73204761D01*
X204171428Y-73061904D01*
X204076190Y-73014285D01*
X203980952Y-73014285D01*
X204028571Y-73252380D02*
X203933333Y-73204761D01*
X203838095Y-73109523D01*
X203790476Y-72919047D01*
X203790476Y-72585714D01*
X203838095Y-72395238D01*
X203933333Y-72300000D01*
X204028571Y-72252380D01*
X204219047Y-72252380D01*
X204314285Y-72300000D01*
X204409523Y-72395238D01*
X204457142Y-72585714D01*
X204457142Y-72919047D01*
X204409523Y-73109523D01*
X204314285Y-73204761D01*
X204219047Y-73252380D01*
X204028571Y-73252380D01*
X205409523Y-73252380D02*
X204838095Y-73252380D01*
X205123809Y-73252380D02*
X205123809Y-72252380D01*
X205028571Y-72395238D01*
X204933333Y-72490476D01*
X204838095Y-72538095D01*
G04 #@! TO.C,R1*
X184108333Y-92027380D02*
X183775000Y-91551190D01*
X183536904Y-92027380D02*
X183536904Y-91027380D01*
X183917857Y-91027380D01*
X184013095Y-91075000D01*
X184060714Y-91122619D01*
X184108333Y-91217857D01*
X184108333Y-91360714D01*
X184060714Y-91455952D01*
X184013095Y-91503571D01*
X183917857Y-91551190D01*
X183536904Y-91551190D01*
X185060714Y-92027380D02*
X184489285Y-92027380D01*
X184775000Y-92027380D02*
X184775000Y-91027380D01*
X184679761Y-91170238D01*
X184584523Y-91265476D01*
X184489285Y-91313095D01*
G04 #@! TO.C,R2*
X184233333Y-85252380D02*
X183900000Y-84776190D01*
X183661904Y-85252380D02*
X183661904Y-84252380D01*
X184042857Y-84252380D01*
X184138095Y-84300000D01*
X184185714Y-84347619D01*
X184233333Y-84442857D01*
X184233333Y-84585714D01*
X184185714Y-84680952D01*
X184138095Y-84728571D01*
X184042857Y-84776190D01*
X183661904Y-84776190D01*
X184614285Y-84347619D02*
X184661904Y-84300000D01*
X184757142Y-84252380D01*
X184995238Y-84252380D01*
X185090476Y-84300000D01*
X185138095Y-84347619D01*
X185185714Y-84442857D01*
X185185714Y-84538095D01*
X185138095Y-84680952D01*
X184566666Y-85252380D01*
X185185714Y-85252380D01*
G04 #@! TO.C,R3*
X195433333Y-111852380D02*
X195100000Y-111376190D01*
X194861904Y-111852380D02*
X194861904Y-110852380D01*
X195242857Y-110852380D01*
X195338095Y-110900000D01*
X195385714Y-110947619D01*
X195433333Y-111042857D01*
X195433333Y-111185714D01*
X195385714Y-111280952D01*
X195338095Y-111328571D01*
X195242857Y-111376190D01*
X194861904Y-111376190D01*
X195766666Y-110852380D02*
X196385714Y-110852380D01*
X196052380Y-111233333D01*
X196195238Y-111233333D01*
X196290476Y-111280952D01*
X196338095Y-111328571D01*
X196385714Y-111423809D01*
X196385714Y-111661904D01*
X196338095Y-111757142D01*
X196290476Y-111804761D01*
X196195238Y-111852380D01*
X195909523Y-111852380D01*
X195814285Y-111804761D01*
X195766666Y-111757142D01*
G04 #@! TO.C,R4*
X184233333Y-88752380D02*
X183900000Y-88276190D01*
X183661904Y-88752380D02*
X183661904Y-87752380D01*
X184042857Y-87752380D01*
X184138095Y-87800000D01*
X184185714Y-87847619D01*
X184233333Y-87942857D01*
X184233333Y-88085714D01*
X184185714Y-88180952D01*
X184138095Y-88228571D01*
X184042857Y-88276190D01*
X183661904Y-88276190D01*
X185090476Y-88085714D02*
X185090476Y-88752380D01*
X184852380Y-87704761D02*
X184614285Y-88419047D01*
X185233333Y-88419047D01*
G04 #@! TO.C,R5*
X202633333Y-81252380D02*
X202300000Y-80776190D01*
X202061904Y-81252380D02*
X202061904Y-80252380D01*
X202442857Y-80252380D01*
X202538095Y-80300000D01*
X202585714Y-80347619D01*
X202633333Y-80442857D01*
X202633333Y-80585714D01*
X202585714Y-80680952D01*
X202538095Y-80728571D01*
X202442857Y-80776190D01*
X202061904Y-80776190D01*
X203538095Y-80252380D02*
X203061904Y-80252380D01*
X203014285Y-80728571D01*
X203061904Y-80680952D01*
X203157142Y-80633333D01*
X203395238Y-80633333D01*
X203490476Y-80680952D01*
X203538095Y-80728571D01*
X203585714Y-80823809D01*
X203585714Y-81061904D01*
X203538095Y-81157142D01*
X203490476Y-81204761D01*
X203395238Y-81252380D01*
X203157142Y-81252380D01*
X203061904Y-81204761D01*
X203014285Y-81157142D01*
G04 #@! TD*
%LPC*%
D12*
G04 #@! TO.C,J1*
X168000000Y-99725000D03*
X168000000Y-106875000D03*
G04 #@! TD*
D13*
G04 #@! TO.C,J102*
X210000000Y-107400000D03*
D14*
X207460000Y-107400000D03*
X204920000Y-107400000D03*
X202380000Y-107400000D03*
X199840000Y-107400000D03*
X197300000Y-107400000D03*
G04 #@! TD*
D15*
G04 #@! TO.C,C1*
X173600000Y-111800000D03*
D16*
X173600000Y-109300000D03*
G04 #@! TD*
D15*
G04 #@! TO.C,C2*
X188700000Y-111850000D03*
D16*
X188700000Y-109350000D03*
G04 #@! TD*
D17*
G04 #@! TO.C,D1*
X177400000Y-94660000D03*
D18*
X177400000Y-97200000D03*
G04 #@! TD*
D19*
G04 #@! TO.C,D2*
X200760000Y-75800000D03*
D18*
X190600000Y-75800000D03*
G04 #@! TD*
D17*
G04 #@! TO.C,D3*
X167300000Y-94660000D03*
D18*
X167300000Y-97200000D03*
G04 #@! TD*
D17*
G04 #@! TO.C,D4*
X172400000Y-94660000D03*
D18*
X172400000Y-97200000D03*
G04 #@! TD*
D20*
G04 #@! TO.C,H1*
X167200000Y-111300000D03*
G04 #@! TD*
G04 #@! TO.C,H2*
X211200000Y-67600000D03*
G04 #@! TD*
G04 #@! TO.C,H3*
X167150000Y-87025000D03*
G04 #@! TD*
D21*
G04 #@! TO.C,J4*
X192170000Y-69725000D03*
D22*
X197250000Y-69725000D03*
G04 #@! TD*
D14*
G04 #@! TO.C,J101*
X211200000Y-75340000D03*
D13*
X211200000Y-72800000D03*
G04 #@! TD*
D23*
G04 #@! TO.C,K1*
X186200000Y-74200000D03*
D24*
X184200000Y-68200000D03*
X172000000Y-68200000D03*
X172000000Y-80200000D03*
X184200000Y-80200000D03*
G04 #@! TD*
D25*
G04 #@! TO.C,Q1*
X204800000Y-75130000D03*
D26*
X204800000Y-77670000D03*
X204800000Y-76400000D03*
G04 #@! TD*
D15*
G04 #@! TO.C,R1*
X182100000Y-91600000D03*
D27*
X171940000Y-91600000D03*
G04 #@! TD*
G04 #@! TO.C,R2*
X182160000Y-84800000D03*
D15*
X172000000Y-84800000D03*
G04 #@! TD*
D27*
G04 #@! TO.C,R3*
X207760000Y-111600000D03*
D15*
X197600000Y-111600000D03*
G04 #@! TD*
D27*
G04 #@! TO.C,R4*
X182160000Y-88300000D03*
D15*
X172000000Y-88300000D03*
G04 #@! TD*
D27*
G04 #@! TO.C,R5*
X190440000Y-80600000D03*
D15*
X200600000Y-80600000D03*
G04 #@! TD*
M02*
