G04 #@! TF.GenerationSoftware,KiCad,Pcbnew,5.0.0-fee4fd1~66~ubuntu18.04.1*
G04 #@! TF.CreationDate,2018-11-12T17:48:12-03:00*
G04 #@! TF.ProjectId,pcbAlarma,706362416C61726D612E6B696361645F,1.1*
G04 #@! TF.SameCoordinates,Original*
G04 #@! TF.FileFunction,Drawing*
%FSLAX46Y46*%
G04 Gerber Fmt 4.6, Leading zero omitted, Abs format (unit mm)*
G04 Created by KiCad (PCBNEW 5.0.0-fee4fd1~66~ubuntu18.04.1) date Mon Nov 12 17:48:12 2018*
%MOMM*%
%LPD*%
G01*
G04 APERTURE LIST*
%ADD10C,0.300000*%
%ADD11C,0.150000*%
%ADD12C,0.100000*%
%ADD13C,0.080000*%
G04 APERTURE END LIST*
D10*
X229121428Y-84171428D02*
X229121428Y-83457142D01*
X228407142Y-83385714D01*
X228478571Y-83457142D01*
X228550000Y-83600000D01*
X228550000Y-83957142D01*
X228478571Y-84100000D01*
X228407142Y-84171428D01*
X228264285Y-84242857D01*
X227907142Y-84242857D01*
X227764285Y-84171428D01*
X227692857Y-84100000D01*
X227621428Y-83957142D01*
X227621428Y-83600000D01*
X227692857Y-83457142D01*
X227764285Y-83385714D01*
X229121428Y-85171428D02*
X229121428Y-85314285D01*
X229050000Y-85457142D01*
X228978571Y-85528571D01*
X228835714Y-85600000D01*
X228550000Y-85671428D01*
X228192857Y-85671428D01*
X227907142Y-85600000D01*
X227764285Y-85528571D01*
X227692857Y-85457142D01*
X227621428Y-85314285D01*
X227621428Y-85171428D01*
X227692857Y-85028571D01*
X227764285Y-84957142D01*
X227907142Y-84885714D01*
X228192857Y-84814285D01*
X228550000Y-84814285D01*
X228835714Y-84885714D01*
X228978571Y-84957142D01*
X229050000Y-85028571D01*
X229121428Y-85171428D01*
X227764285Y-86314285D02*
X227692857Y-86385714D01*
X227621428Y-86314285D01*
X227692857Y-86242857D01*
X227764285Y-86314285D01*
X227621428Y-86314285D01*
X229121428Y-87314285D02*
X229121428Y-87457142D01*
X229050000Y-87600000D01*
X228978571Y-87671428D01*
X228835714Y-87742857D01*
X228550000Y-87814285D01*
X228192857Y-87814285D01*
X227907142Y-87742857D01*
X227764285Y-87671428D01*
X227692857Y-87600000D01*
X227621428Y-87457142D01*
X227621428Y-87314285D01*
X227692857Y-87171428D01*
X227764285Y-87100000D01*
X227907142Y-87028571D01*
X228192857Y-86957142D01*
X228550000Y-86957142D01*
X228835714Y-87028571D01*
X228978571Y-87100000D01*
X229050000Y-87171428D01*
X229121428Y-87314285D01*
X229121428Y-88742857D02*
X229121428Y-88885714D01*
X229050000Y-89028571D01*
X228978571Y-89100000D01*
X228835714Y-89171428D01*
X228550000Y-89242857D01*
X228192857Y-89242857D01*
X227907142Y-89171428D01*
X227764285Y-89100000D01*
X227692857Y-89028571D01*
X227621428Y-88885714D01*
X227621428Y-88742857D01*
X227692857Y-88600000D01*
X227764285Y-88528571D01*
X227907142Y-88457142D01*
X228192857Y-88385714D01*
X228550000Y-88385714D01*
X228835714Y-88457142D01*
X228978571Y-88528571D01*
X229050000Y-88600000D01*
X229121428Y-88742857D01*
X229121428Y-90171428D02*
X229121428Y-90314285D01*
X229050000Y-90457142D01*
X228978571Y-90528571D01*
X228835714Y-90600000D01*
X228550000Y-90671428D01*
X228192857Y-90671428D01*
X227907142Y-90600000D01*
X227764285Y-90528571D01*
X227692857Y-90457142D01*
X227621428Y-90314285D01*
X227621428Y-90171428D01*
X227692857Y-90028571D01*
X227764285Y-89957142D01*
X227907142Y-89885714D01*
X228192857Y-89814285D01*
X228550000Y-89814285D01*
X228835714Y-89885714D01*
X228978571Y-89957142D01*
X229050000Y-90028571D01*
X229121428Y-90171428D01*
X227621428Y-92457142D02*
X228621428Y-92457142D01*
X228478571Y-92457142D02*
X228550000Y-92528571D01*
X228621428Y-92671428D01*
X228621428Y-92885714D01*
X228550000Y-93028571D01*
X228407142Y-93100000D01*
X227621428Y-93100000D01*
X228407142Y-93100000D02*
X228550000Y-93171428D01*
X228621428Y-93314285D01*
X228621428Y-93528571D01*
X228550000Y-93671428D01*
X228407142Y-93742857D01*
X227621428Y-93742857D01*
X227621428Y-94457142D02*
X228621428Y-94457142D01*
X228478571Y-94457142D02*
X228550000Y-94528571D01*
X228621428Y-94671428D01*
X228621428Y-94885714D01*
X228550000Y-95028571D01*
X228407142Y-95100000D01*
X227621428Y-95100000D01*
X228407142Y-95100000D02*
X228550000Y-95171428D01*
X228621428Y-95314285D01*
X228621428Y-95528571D01*
X228550000Y-95671428D01*
X228407142Y-95742857D01*
X227621428Y-95742857D01*
X226200000Y-64600000D02*
X226200000Y-114600000D01*
X214200000Y-64600000D02*
X226786421Y-64600000D01*
X214200000Y-114600000D02*
X226786421Y-114600000D01*
X226200000Y-114600000D02*
X225613579Y-113473496D01*
X226200000Y-114600000D02*
X226786421Y-113473496D01*
X226200000Y-64600000D02*
X225613579Y-65726504D01*
X226200000Y-64600000D02*
X226786421Y-65726504D01*
X183771428Y-54678571D02*
X183057142Y-54678571D01*
X182985714Y-55392857D01*
X183057142Y-55321428D01*
X183200000Y-55250000D01*
X183557142Y-55250000D01*
X183700000Y-55321428D01*
X183771428Y-55392857D01*
X183842857Y-55535714D01*
X183842857Y-55892857D01*
X183771428Y-56035714D01*
X183700000Y-56107142D01*
X183557142Y-56178571D01*
X183200000Y-56178571D01*
X183057142Y-56107142D01*
X182985714Y-56035714D01*
X184771428Y-54678571D02*
X184914285Y-54678571D01*
X185057142Y-54750000D01*
X185128571Y-54821428D01*
X185200000Y-54964285D01*
X185271428Y-55250000D01*
X185271428Y-55607142D01*
X185200000Y-55892857D01*
X185128571Y-56035714D01*
X185057142Y-56107142D01*
X184914285Y-56178571D01*
X184771428Y-56178571D01*
X184628571Y-56107142D01*
X184557142Y-56035714D01*
X184485714Y-55892857D01*
X184414285Y-55607142D01*
X184414285Y-55250000D01*
X184485714Y-54964285D01*
X184557142Y-54821428D01*
X184628571Y-54750000D01*
X184771428Y-54678571D01*
X185914285Y-56035714D02*
X185985714Y-56107142D01*
X185914285Y-56178571D01*
X185842857Y-56107142D01*
X185914285Y-56035714D01*
X185914285Y-56178571D01*
X186914285Y-54678571D02*
X187057142Y-54678571D01*
X187200000Y-54750000D01*
X187271428Y-54821428D01*
X187342857Y-54964285D01*
X187414285Y-55250000D01*
X187414285Y-55607142D01*
X187342857Y-55892857D01*
X187271428Y-56035714D01*
X187200000Y-56107142D01*
X187057142Y-56178571D01*
X186914285Y-56178571D01*
X186771428Y-56107142D01*
X186700000Y-56035714D01*
X186628571Y-55892857D01*
X186557142Y-55607142D01*
X186557142Y-55250000D01*
X186628571Y-54964285D01*
X186700000Y-54821428D01*
X186771428Y-54750000D01*
X186914285Y-54678571D01*
X188342857Y-54678571D02*
X188485714Y-54678571D01*
X188628571Y-54750000D01*
X188700000Y-54821428D01*
X188771428Y-54964285D01*
X188842857Y-55250000D01*
X188842857Y-55607142D01*
X188771428Y-55892857D01*
X188700000Y-56035714D01*
X188628571Y-56107142D01*
X188485714Y-56178571D01*
X188342857Y-56178571D01*
X188200000Y-56107142D01*
X188128571Y-56035714D01*
X188057142Y-55892857D01*
X187985714Y-55607142D01*
X187985714Y-55250000D01*
X188057142Y-54964285D01*
X188128571Y-54821428D01*
X188200000Y-54750000D01*
X188342857Y-54678571D01*
X189771428Y-54678571D02*
X189914285Y-54678571D01*
X190057142Y-54750000D01*
X190128571Y-54821428D01*
X190200000Y-54964285D01*
X190271428Y-55250000D01*
X190271428Y-55607142D01*
X190200000Y-55892857D01*
X190128571Y-56035714D01*
X190057142Y-56107142D01*
X189914285Y-56178571D01*
X189771428Y-56178571D01*
X189628571Y-56107142D01*
X189557142Y-56035714D01*
X189485714Y-55892857D01*
X189414285Y-55607142D01*
X189414285Y-55250000D01*
X189485714Y-54964285D01*
X189557142Y-54821428D01*
X189628571Y-54750000D01*
X189771428Y-54678571D01*
X192057142Y-56178571D02*
X192057142Y-55178571D01*
X192057142Y-55321428D02*
X192128571Y-55250000D01*
X192271428Y-55178571D01*
X192485714Y-55178571D01*
X192628571Y-55250000D01*
X192700000Y-55392857D01*
X192700000Y-56178571D01*
X192700000Y-55392857D02*
X192771428Y-55250000D01*
X192914285Y-55178571D01*
X193128571Y-55178571D01*
X193271428Y-55250000D01*
X193342857Y-55392857D01*
X193342857Y-56178571D01*
X194057142Y-56178571D02*
X194057142Y-55178571D01*
X194057142Y-55321428D02*
X194128571Y-55250000D01*
X194271428Y-55178571D01*
X194485714Y-55178571D01*
X194628571Y-55250000D01*
X194700000Y-55392857D01*
X194700000Y-56178571D01*
X194700000Y-55392857D02*
X194771428Y-55250000D01*
X194914285Y-55178571D01*
X195128571Y-55178571D01*
X195271428Y-55250000D01*
X195342857Y-55392857D01*
X195342857Y-56178571D01*
X164200000Y-57600000D02*
X214200000Y-57600000D01*
X164200000Y-64600000D02*
X164200000Y-57013579D01*
X214200000Y-64600000D02*
X214200000Y-57013579D01*
X214200000Y-57600000D02*
X213073496Y-58186421D01*
X214200000Y-57600000D02*
X213073496Y-57013579D01*
X164200000Y-57600000D02*
X165326504Y-58186421D01*
X164200000Y-57600000D02*
X165326504Y-57013579D01*
D11*
X164200000Y-64600000D02*
X164200000Y-114600000D01*
X214200000Y-64600000D02*
X164200000Y-64600000D01*
X214200000Y-114600000D02*
X214200000Y-64600000D01*
X164200000Y-114600000D02*
X214200000Y-114600000D01*
D10*
X238837857Y-85100000D02*
X238695000Y-85028571D01*
X238480714Y-85028571D01*
X238266428Y-85100000D01*
X238123571Y-85242857D01*
X238052142Y-85385714D01*
X237980714Y-85671428D01*
X237980714Y-85885714D01*
X238052142Y-86171428D01*
X238123571Y-86314285D01*
X238266428Y-86457142D01*
X238480714Y-86528571D01*
X238623571Y-86528571D01*
X238837857Y-86457142D01*
X238909285Y-86385714D01*
X238909285Y-85885714D01*
X238623571Y-85885714D01*
X239552142Y-86528571D02*
X239552142Y-85528571D01*
X239552142Y-85814285D02*
X239623571Y-85671428D01*
X239695000Y-85600000D01*
X239837857Y-85528571D01*
X239980714Y-85528571D01*
X240480714Y-86528571D02*
X240480714Y-85528571D01*
X240480714Y-85028571D02*
X240409285Y-85100000D01*
X240480714Y-85171428D01*
X240552142Y-85100000D01*
X240480714Y-85028571D01*
X240480714Y-85171428D01*
X241409285Y-86528571D02*
X241266428Y-86457142D01*
X241195000Y-86314285D01*
X241195000Y-85028571D01*
X242195000Y-86528571D02*
X242052142Y-86457142D01*
X241980714Y-86314285D01*
X241980714Y-85028571D01*
X243409285Y-86528571D02*
X243409285Y-85742857D01*
X243337857Y-85600000D01*
X243195000Y-85528571D01*
X242909285Y-85528571D01*
X242766428Y-85600000D01*
X243409285Y-86457142D02*
X243266428Y-86528571D01*
X242909285Y-86528571D01*
X242766428Y-86457142D01*
X242695000Y-86314285D01*
X242695000Y-86171428D01*
X242766428Y-86028571D01*
X242909285Y-85957142D01*
X243266428Y-85957142D01*
X243409285Y-85885714D01*
X244052142Y-86457142D02*
X244195000Y-86528571D01*
X244480714Y-86528571D01*
X244623571Y-86457142D01*
X244695000Y-86314285D01*
X244695000Y-86242857D01*
X244623571Y-86100000D01*
X244480714Y-86028571D01*
X244266428Y-86028571D01*
X244123571Y-85957142D01*
X244052142Y-85814285D01*
X244052142Y-85742857D01*
X244123571Y-85600000D01*
X244266428Y-85528571D01*
X244480714Y-85528571D01*
X244623571Y-85600000D01*
X245337857Y-86385714D02*
X245409285Y-86457142D01*
X245337857Y-86528571D01*
X245266428Y-86457142D01*
X245337857Y-86385714D01*
X245337857Y-86528571D01*
X245337857Y-85600000D02*
X245409285Y-85671428D01*
X245337857Y-85742857D01*
X245266428Y-85671428D01*
X245337857Y-85600000D01*
X245337857Y-85742857D01*
X247980714Y-86528571D02*
X247123571Y-86528571D01*
X247552142Y-86528571D02*
X247552142Y-85028571D01*
X247409285Y-85242857D01*
X247266428Y-85385714D01*
X247123571Y-85457142D01*
X249766428Y-86528571D02*
X249766428Y-85528571D01*
X249766428Y-85671428D02*
X249837857Y-85600000D01*
X249980714Y-85528571D01*
X250195000Y-85528571D01*
X250337857Y-85600000D01*
X250409285Y-85742857D01*
X250409285Y-86528571D01*
X250409285Y-85742857D02*
X250480714Y-85600000D01*
X250623571Y-85528571D01*
X250837857Y-85528571D01*
X250980714Y-85600000D01*
X251052142Y-85742857D01*
X251052142Y-86528571D01*
X251766428Y-86528571D02*
X251766428Y-85528571D01*
X251766428Y-85671428D02*
X251837857Y-85600000D01*
X251980714Y-85528571D01*
X252195000Y-85528571D01*
X252337857Y-85600000D01*
X252409285Y-85742857D01*
X252409285Y-86528571D01*
X252409285Y-85742857D02*
X252480714Y-85600000D01*
X252623571Y-85528571D01*
X252837857Y-85528571D01*
X252980714Y-85600000D01*
X253052142Y-85742857D01*
X253052142Y-86528571D01*
X253837857Y-86457142D02*
X253837857Y-86528571D01*
X253766428Y-86671428D01*
X253695000Y-86742857D01*
X255909285Y-85028571D02*
X256052142Y-85028571D01*
X256195000Y-85100000D01*
X256266428Y-85171428D01*
X256337857Y-85314285D01*
X256409285Y-85600000D01*
X256409285Y-85957142D01*
X256337857Y-86242857D01*
X256266428Y-86385714D01*
X256195000Y-86457142D01*
X256052142Y-86528571D01*
X255909285Y-86528571D01*
X255766428Y-86457142D01*
X255695000Y-86385714D01*
X255623571Y-86242857D01*
X255552142Y-85957142D01*
X255552142Y-85600000D01*
X255623571Y-85314285D01*
X255695000Y-85171428D01*
X255766428Y-85100000D01*
X255909285Y-85028571D01*
X257123571Y-86457142D02*
X257123571Y-86528571D01*
X257052142Y-86671428D01*
X256980714Y-86742857D01*
X258480714Y-85028571D02*
X257766428Y-85028571D01*
X257695000Y-85742857D01*
X257766428Y-85671428D01*
X257909285Y-85600000D01*
X258266428Y-85600000D01*
X258409285Y-85671428D01*
X258480714Y-85742857D01*
X258552142Y-85885714D01*
X258552142Y-86242857D01*
X258480714Y-86385714D01*
X258409285Y-86457142D01*
X258266428Y-86528571D01*
X257909285Y-86528571D01*
X257766428Y-86457142D01*
X257695000Y-86385714D01*
X260337857Y-86528571D02*
X260337857Y-85528571D01*
X260337857Y-85671428D02*
X260409285Y-85600000D01*
X260552142Y-85528571D01*
X260766428Y-85528571D01*
X260909285Y-85600000D01*
X260980714Y-85742857D01*
X260980714Y-86528571D01*
X260980714Y-85742857D02*
X261052142Y-85600000D01*
X261195000Y-85528571D01*
X261409285Y-85528571D01*
X261552142Y-85600000D01*
X261623571Y-85742857D01*
X261623571Y-86528571D01*
X262337857Y-86528571D02*
X262337857Y-85528571D01*
X262337857Y-85671428D02*
X262409285Y-85600000D01*
X262552142Y-85528571D01*
X262766428Y-85528571D01*
X262909285Y-85600000D01*
X262980714Y-85742857D01*
X262980714Y-86528571D01*
X262980714Y-85742857D02*
X263052142Y-85600000D01*
X263195000Y-85528571D01*
X263409285Y-85528571D01*
X263552142Y-85600000D01*
X263623571Y-85742857D01*
X263623571Y-86528571D01*
X265552142Y-86457142D02*
X265552142Y-86528571D01*
X265480714Y-86671428D01*
X265409285Y-86742857D01*
X267623571Y-85028571D02*
X267766428Y-85028571D01*
X267909285Y-85100000D01*
X267980714Y-85171428D01*
X268052142Y-85314285D01*
X268123571Y-85600000D01*
X268123571Y-85957142D01*
X268052142Y-86242857D01*
X267980714Y-86385714D01*
X267909285Y-86457142D01*
X267766428Y-86528571D01*
X267623571Y-86528571D01*
X267480714Y-86457142D01*
X267409285Y-86385714D01*
X267337857Y-86242857D01*
X267266428Y-85957142D01*
X267266428Y-85600000D01*
X267337857Y-85314285D01*
X267409285Y-85171428D01*
X267480714Y-85100000D01*
X267623571Y-85028571D01*
X268837857Y-86457142D02*
X268837857Y-86528571D01*
X268766428Y-86671428D01*
X268695000Y-86742857D01*
X270266428Y-86528571D02*
X269409285Y-86528571D01*
X269837857Y-86528571D02*
X269837857Y-85028571D01*
X269695000Y-85242857D01*
X269552142Y-85385714D01*
X269409285Y-85457142D01*
X271195000Y-85028571D02*
X271337857Y-85028571D01*
X271480714Y-85100000D01*
X271552142Y-85171428D01*
X271623571Y-85314285D01*
X271695000Y-85600000D01*
X271695000Y-85957142D01*
X271623571Y-86242857D01*
X271552142Y-86385714D01*
X271480714Y-86457142D01*
X271337857Y-86528571D01*
X271195000Y-86528571D01*
X271052142Y-86457142D01*
X270980714Y-86385714D01*
X270909285Y-86242857D01*
X270837857Y-85957142D01*
X270837857Y-85600000D01*
X270909285Y-85314285D01*
X270980714Y-85171428D01*
X271052142Y-85100000D01*
X271195000Y-85028571D01*
X273480714Y-86528571D02*
X273480714Y-85528571D01*
X273480714Y-85671428D02*
X273552142Y-85600000D01*
X273695000Y-85528571D01*
X273909285Y-85528571D01*
X274052142Y-85600000D01*
X274123571Y-85742857D01*
X274123571Y-86528571D01*
X274123571Y-85742857D02*
X274195000Y-85600000D01*
X274337857Y-85528571D01*
X274552142Y-85528571D01*
X274695000Y-85600000D01*
X274766428Y-85742857D01*
X274766428Y-86528571D01*
X275480714Y-86528571D02*
X275480714Y-85528571D01*
X275480714Y-85671428D02*
X275552142Y-85600000D01*
X275695000Y-85528571D01*
X275909285Y-85528571D01*
X276052142Y-85600000D01*
X276123571Y-85742857D01*
X276123571Y-86528571D01*
X276123571Y-85742857D02*
X276195000Y-85600000D01*
X276337857Y-85528571D01*
X276552142Y-85528571D01*
X276695000Y-85600000D01*
X276766428Y-85742857D01*
X276766428Y-86528571D01*
X237837857Y-87578571D02*
X238337857Y-89078571D01*
X238837857Y-87578571D01*
X239337857Y-89078571D02*
X239337857Y-88078571D01*
X239337857Y-87578571D02*
X239266428Y-87650000D01*
X239337857Y-87721428D01*
X239409285Y-87650000D01*
X239337857Y-87578571D01*
X239337857Y-87721428D01*
X240695000Y-89078571D02*
X240695000Y-88292857D01*
X240623571Y-88150000D01*
X240480714Y-88078571D01*
X240195000Y-88078571D01*
X240052142Y-88150000D01*
X240695000Y-89007142D02*
X240552142Y-89078571D01*
X240195000Y-89078571D01*
X240052142Y-89007142D01*
X239980714Y-88864285D01*
X239980714Y-88721428D01*
X240052142Y-88578571D01*
X240195000Y-88507142D01*
X240552142Y-88507142D01*
X240695000Y-88435714D01*
X241409285Y-88935714D02*
X241480714Y-89007142D01*
X241409285Y-89078571D01*
X241337857Y-89007142D01*
X241409285Y-88935714D01*
X241409285Y-89078571D01*
X241409285Y-88150000D02*
X241480714Y-88221428D01*
X241409285Y-88292857D01*
X241337857Y-88221428D01*
X241409285Y-88150000D01*
X241409285Y-88292857D01*
X243266428Y-89078571D02*
X243266428Y-87578571D01*
X244123571Y-89078571D01*
X244123571Y-87578571D01*
X245052142Y-89078571D02*
X244909285Y-89007142D01*
X244837857Y-88935714D01*
X244766428Y-88792857D01*
X244766428Y-88364285D01*
X244837857Y-88221428D01*
X244909285Y-88150000D01*
X245052142Y-88078571D01*
X245266428Y-88078571D01*
X245409285Y-88150000D01*
X245480714Y-88221428D01*
X245552142Y-88364285D01*
X245552142Y-88792857D01*
X245480714Y-88935714D01*
X245409285Y-89007142D01*
X245266428Y-89078571D01*
X245052142Y-89078571D01*
X247337857Y-89078571D02*
X247337857Y-87578571D01*
X247980714Y-89078571D02*
X247980714Y-88292857D01*
X247909285Y-88150000D01*
X247766428Y-88078571D01*
X247552142Y-88078571D01*
X247409285Y-88150000D01*
X247337857Y-88221428D01*
X249337857Y-89078571D02*
X249337857Y-88292857D01*
X249266428Y-88150000D01*
X249123571Y-88078571D01*
X248837857Y-88078571D01*
X248695000Y-88150000D01*
X249337857Y-89007142D02*
X249195000Y-89078571D01*
X248837857Y-89078571D01*
X248695000Y-89007142D01*
X248623571Y-88864285D01*
X248623571Y-88721428D01*
X248695000Y-88578571D01*
X248837857Y-88507142D01*
X249195000Y-88507142D01*
X249337857Y-88435714D01*
X249909285Y-88078571D02*
X250266428Y-89078571D01*
X250623571Y-88078571D02*
X250266428Y-89078571D01*
X250123571Y-89435714D01*
X250052142Y-89507142D01*
X249909285Y-89578571D01*
X238052142Y-91628571D02*
X238052142Y-90128571D01*
X238552142Y-91200000D01*
X239052142Y-90128571D01*
X239052142Y-91628571D01*
X240409285Y-91628571D02*
X240409285Y-90842857D01*
X240337857Y-90700000D01*
X240195000Y-90628571D01*
X239909285Y-90628571D01*
X239766428Y-90700000D01*
X240409285Y-91557142D02*
X240266428Y-91628571D01*
X239909285Y-91628571D01*
X239766428Y-91557142D01*
X239695000Y-91414285D01*
X239695000Y-91271428D01*
X239766428Y-91128571D01*
X239909285Y-91057142D01*
X240266428Y-91057142D01*
X240409285Y-90985714D01*
X241123571Y-91628571D02*
X241123571Y-90628571D01*
X241123571Y-90914285D02*
X241195000Y-90771428D01*
X241266428Y-90700000D01*
X241409285Y-90628571D01*
X241552142Y-90628571D01*
X242695000Y-90628571D02*
X242695000Y-91842857D01*
X242623571Y-91985714D01*
X242552142Y-92057142D01*
X242409285Y-92128571D01*
X242195000Y-92128571D01*
X242052142Y-92057142D01*
X242695000Y-91557142D02*
X242552142Y-91628571D01*
X242266428Y-91628571D01*
X242123571Y-91557142D01*
X242052142Y-91485714D01*
X241980714Y-91342857D01*
X241980714Y-90914285D01*
X242052142Y-90771428D01*
X242123571Y-90700000D01*
X242266428Y-90628571D01*
X242552142Y-90628571D01*
X242695000Y-90700000D01*
X243980714Y-91557142D02*
X243837857Y-91628571D01*
X243552142Y-91628571D01*
X243409285Y-91557142D01*
X243337857Y-91414285D01*
X243337857Y-90842857D01*
X243409285Y-90700000D01*
X243552142Y-90628571D01*
X243837857Y-90628571D01*
X243980714Y-90700000D01*
X244052142Y-90842857D01*
X244052142Y-90985714D01*
X243337857Y-91128571D01*
X244695000Y-90628571D02*
X244695000Y-91628571D01*
X244695000Y-90771428D02*
X244766428Y-90700000D01*
X244909285Y-90628571D01*
X245123571Y-90628571D01*
X245266428Y-90700000D01*
X245337857Y-90842857D01*
X245337857Y-91628571D01*
X246052142Y-91485714D02*
X246123571Y-91557142D01*
X246052142Y-91628571D01*
X245980714Y-91557142D01*
X246052142Y-91485714D01*
X246052142Y-91628571D01*
X246052142Y-90700000D02*
X246123571Y-90771428D01*
X246052142Y-90842857D01*
X245980714Y-90771428D01*
X246052142Y-90700000D01*
X246052142Y-90842857D01*
X248195000Y-90128571D02*
X248337857Y-90128571D01*
X248480714Y-90200000D01*
X248552142Y-90271428D01*
X248623571Y-90414285D01*
X248695000Y-90700000D01*
X248695000Y-91057142D01*
X248623571Y-91342857D01*
X248552142Y-91485714D01*
X248480714Y-91557142D01*
X248337857Y-91628571D01*
X248195000Y-91628571D01*
X248052142Y-91557142D01*
X247980714Y-91485714D01*
X247909285Y-91342857D01*
X247837857Y-91057142D01*
X247837857Y-90700000D01*
X247909285Y-90414285D01*
X247980714Y-90271428D01*
X248052142Y-90200000D01*
X248195000Y-90128571D01*
X249337857Y-91485714D02*
X249409285Y-91557142D01*
X249337857Y-91628571D01*
X249266428Y-91557142D01*
X249337857Y-91485714D01*
X249337857Y-91628571D01*
X249909285Y-90128571D02*
X250837857Y-90128571D01*
X250337857Y-90700000D01*
X250552142Y-90700000D01*
X250695000Y-90771428D01*
X250766428Y-90842857D01*
X250837857Y-90985714D01*
X250837857Y-91342857D01*
X250766428Y-91485714D01*
X250695000Y-91557142D01*
X250552142Y-91628571D01*
X250123571Y-91628571D01*
X249980714Y-91557142D01*
X249909285Y-91485714D01*
X252623571Y-91628571D02*
X252623571Y-90628571D01*
X252623571Y-90771428D02*
X252695000Y-90700000D01*
X252837857Y-90628571D01*
X253052142Y-90628571D01*
X253195000Y-90700000D01*
X253266428Y-90842857D01*
X253266428Y-91628571D01*
X253266428Y-90842857D02*
X253337857Y-90700000D01*
X253480714Y-90628571D01*
X253695000Y-90628571D01*
X253837857Y-90700000D01*
X253909285Y-90842857D01*
X253909285Y-91628571D01*
X254623571Y-91628571D02*
X254623571Y-90628571D01*
X254623571Y-90771428D02*
X254695000Y-90700000D01*
X254837857Y-90628571D01*
X255052142Y-90628571D01*
X255195000Y-90700000D01*
X255266428Y-90842857D01*
X255266428Y-91628571D01*
X255266428Y-90842857D02*
X255337857Y-90700000D01*
X255480714Y-90628571D01*
X255695000Y-90628571D01*
X255837857Y-90700000D01*
X255909285Y-90842857D01*
X255909285Y-91628571D01*
X238052142Y-94178571D02*
X238052142Y-92678571D01*
X238623571Y-92678571D01*
X238766428Y-92750000D01*
X238837857Y-92821428D01*
X238909285Y-92964285D01*
X238909285Y-93178571D01*
X238837857Y-93321428D01*
X238766428Y-93392857D01*
X238623571Y-93464285D01*
X238052142Y-93464285D01*
X239552142Y-94178571D02*
X239552142Y-93178571D01*
X239552142Y-92678571D02*
X239480714Y-92750000D01*
X239552142Y-92821428D01*
X239623571Y-92750000D01*
X239552142Y-92678571D01*
X239552142Y-92821428D01*
X240195000Y-94107142D02*
X240337857Y-94178571D01*
X240623571Y-94178571D01*
X240766428Y-94107142D01*
X240837857Y-93964285D01*
X240837857Y-93892857D01*
X240766428Y-93750000D01*
X240623571Y-93678571D01*
X240409285Y-93678571D01*
X240266428Y-93607142D01*
X240195000Y-93464285D01*
X240195000Y-93392857D01*
X240266428Y-93250000D01*
X240409285Y-93178571D01*
X240623571Y-93178571D01*
X240766428Y-93250000D01*
X241266428Y-93178571D02*
X241837857Y-93178571D01*
X241480714Y-92678571D02*
X241480714Y-93964285D01*
X241552142Y-94107142D01*
X241695000Y-94178571D01*
X241837857Y-94178571D01*
X242980714Y-94178571D02*
X242980714Y-93392857D01*
X242909285Y-93250000D01*
X242766428Y-93178571D01*
X242480714Y-93178571D01*
X242337857Y-93250000D01*
X242980714Y-94107142D02*
X242837857Y-94178571D01*
X242480714Y-94178571D01*
X242337857Y-94107142D01*
X242266428Y-93964285D01*
X242266428Y-93821428D01*
X242337857Y-93678571D01*
X242480714Y-93607142D01*
X242837857Y-93607142D01*
X242980714Y-93535714D01*
X243695000Y-94035714D02*
X243766428Y-94107142D01*
X243695000Y-94178571D01*
X243623571Y-94107142D01*
X243695000Y-94035714D01*
X243695000Y-94178571D01*
X243695000Y-93250000D02*
X243766428Y-93321428D01*
X243695000Y-93392857D01*
X243623571Y-93321428D01*
X243695000Y-93250000D01*
X243695000Y-93392857D01*
X245837857Y-92678571D02*
X245980714Y-92678571D01*
X246123571Y-92750000D01*
X246195000Y-92821428D01*
X246266428Y-92964285D01*
X246337857Y-93250000D01*
X246337857Y-93607142D01*
X246266428Y-93892857D01*
X246195000Y-94035714D01*
X246123571Y-94107142D01*
X245980714Y-94178571D01*
X245837857Y-94178571D01*
X245695000Y-94107142D01*
X245623571Y-94035714D01*
X245552142Y-93892857D01*
X245480714Y-93607142D01*
X245480714Y-93250000D01*
X245552142Y-92964285D01*
X245623571Y-92821428D01*
X245695000Y-92750000D01*
X245837857Y-92678571D01*
X246980714Y-94035714D02*
X247052142Y-94107142D01*
X246980714Y-94178571D01*
X246909285Y-94107142D01*
X246980714Y-94035714D01*
X246980714Y-94178571D01*
X248337857Y-93178571D02*
X248337857Y-94178571D01*
X247980714Y-92607142D02*
X247623571Y-93678571D01*
X248552142Y-93678571D01*
X250266428Y-94178571D02*
X250266428Y-93178571D01*
X250266428Y-93321428D02*
X250337857Y-93250000D01*
X250480714Y-93178571D01*
X250695000Y-93178571D01*
X250837857Y-93250000D01*
X250909285Y-93392857D01*
X250909285Y-94178571D01*
X250909285Y-93392857D02*
X250980714Y-93250000D01*
X251123571Y-93178571D01*
X251337857Y-93178571D01*
X251480714Y-93250000D01*
X251552142Y-93392857D01*
X251552142Y-94178571D01*
X252266428Y-94178571D02*
X252266428Y-93178571D01*
X252266428Y-93321428D02*
X252337857Y-93250000D01*
X252480714Y-93178571D01*
X252695000Y-93178571D01*
X252837857Y-93250000D01*
X252909285Y-93392857D01*
X252909285Y-94178571D01*
X252909285Y-93392857D02*
X252980714Y-93250000D01*
X253123571Y-93178571D01*
X253337857Y-93178571D01*
X253480714Y-93250000D01*
X253552142Y-93392857D01*
X253552142Y-94178571D01*
X255480714Y-94107142D02*
X255480714Y-94178571D01*
X255409285Y-94321428D01*
X255337857Y-94392857D01*
X257195000Y-92821428D02*
X257266428Y-92750000D01*
X257409285Y-92678571D01*
X257766428Y-92678571D01*
X257909285Y-92750000D01*
X257980714Y-92821428D01*
X258052142Y-92964285D01*
X258052142Y-93107142D01*
X257980714Y-93321428D01*
X257123571Y-94178571D01*
X258052142Y-94178571D01*
X259837857Y-94178571D02*
X259837857Y-93178571D01*
X259837857Y-93321428D02*
X259909285Y-93250000D01*
X260052142Y-93178571D01*
X260266428Y-93178571D01*
X260409285Y-93250000D01*
X260480714Y-93392857D01*
X260480714Y-94178571D01*
X260480714Y-93392857D02*
X260552142Y-93250000D01*
X260695000Y-93178571D01*
X260909285Y-93178571D01*
X261052142Y-93250000D01*
X261123571Y-93392857D01*
X261123571Y-94178571D01*
X261837857Y-94178571D02*
X261837857Y-93178571D01*
X261837857Y-93321428D02*
X261909285Y-93250000D01*
X262052142Y-93178571D01*
X262266428Y-93178571D01*
X262409285Y-93250000D01*
X262480714Y-93392857D01*
X262480714Y-94178571D01*
X262480714Y-93392857D02*
X262552142Y-93250000D01*
X262695000Y-93178571D01*
X262909285Y-93178571D01*
X263052142Y-93250000D01*
X263123571Y-93392857D01*
X263123571Y-94178571D01*
X238052142Y-96728571D02*
X238052142Y-95228571D01*
X238409285Y-95228571D01*
X238623571Y-95300000D01*
X238766428Y-95442857D01*
X238837857Y-95585714D01*
X238909285Y-95871428D01*
X238909285Y-96085714D01*
X238837857Y-96371428D01*
X238766428Y-96514285D01*
X238623571Y-96657142D01*
X238409285Y-96728571D01*
X238052142Y-96728571D01*
X239552142Y-96728571D02*
X239552142Y-95728571D01*
X239552142Y-95228571D02*
X239480714Y-95300000D01*
X239552142Y-95371428D01*
X239623571Y-95300000D01*
X239552142Y-95228571D01*
X239552142Y-95371428D01*
X240195000Y-96657142D02*
X240337857Y-96728571D01*
X240623571Y-96728571D01*
X240766428Y-96657142D01*
X240837857Y-96514285D01*
X240837857Y-96442857D01*
X240766428Y-96300000D01*
X240623571Y-96228571D01*
X240409285Y-96228571D01*
X240266428Y-96157142D01*
X240195000Y-96014285D01*
X240195000Y-95942857D01*
X240266428Y-95800000D01*
X240409285Y-95728571D01*
X240623571Y-95728571D01*
X240766428Y-95800000D01*
X241266428Y-95728571D02*
X241837857Y-95728571D01*
X241480714Y-95228571D02*
X241480714Y-96514285D01*
X241552142Y-96657142D01*
X241695000Y-96728571D01*
X241837857Y-96728571D01*
X242337857Y-96585714D02*
X242409285Y-96657142D01*
X242337857Y-96728571D01*
X242266428Y-96657142D01*
X242337857Y-96585714D01*
X242337857Y-96728571D01*
X244837857Y-96728571D02*
X244837857Y-95942857D01*
X244766428Y-95800000D01*
X244623571Y-95728571D01*
X244337857Y-95728571D01*
X244195000Y-95800000D01*
X244837857Y-96657142D02*
X244695000Y-96728571D01*
X244337857Y-96728571D01*
X244195000Y-96657142D01*
X244123571Y-96514285D01*
X244123571Y-96371428D01*
X244195000Y-96228571D01*
X244337857Y-96157142D01*
X244695000Y-96157142D01*
X244837857Y-96085714D01*
X246695000Y-96728571D02*
X246695000Y-95228571D01*
X246695000Y-95800000D02*
X246837857Y-95728571D01*
X247123571Y-95728571D01*
X247266428Y-95800000D01*
X247337857Y-95871428D01*
X247409285Y-96014285D01*
X247409285Y-96442857D01*
X247337857Y-96585714D01*
X247266428Y-96657142D01*
X247123571Y-96728571D01*
X246837857Y-96728571D01*
X246695000Y-96657142D01*
X248266428Y-96728571D02*
X248123571Y-96657142D01*
X248052142Y-96585714D01*
X247980714Y-96442857D01*
X247980714Y-96014285D01*
X248052142Y-95871428D01*
X248123571Y-95800000D01*
X248266428Y-95728571D01*
X248480714Y-95728571D01*
X248623571Y-95800000D01*
X248695000Y-95871428D01*
X248766428Y-96014285D01*
X248766428Y-96442857D01*
X248695000Y-96585714D01*
X248623571Y-96657142D01*
X248480714Y-96728571D01*
X248266428Y-96728571D01*
X249409285Y-96728571D02*
X249409285Y-95728571D01*
X249409285Y-96014285D02*
X249480714Y-95871428D01*
X249552142Y-95800000D01*
X249695000Y-95728571D01*
X249837857Y-95728571D01*
X250980714Y-96728571D02*
X250980714Y-95228571D01*
X250980714Y-96657142D02*
X250837857Y-96728571D01*
X250552142Y-96728571D01*
X250409285Y-96657142D01*
X250337857Y-96585714D01*
X250266428Y-96442857D01*
X250266428Y-96014285D01*
X250337857Y-95871428D01*
X250409285Y-95800000D01*
X250552142Y-95728571D01*
X250837857Y-95728571D01*
X250980714Y-95800000D01*
X252266428Y-96657142D02*
X252123571Y-96728571D01*
X251837857Y-96728571D01*
X251695000Y-96657142D01*
X251623571Y-96514285D01*
X251623571Y-95942857D01*
X251695000Y-95800000D01*
X251837857Y-95728571D01*
X252123571Y-95728571D01*
X252266428Y-95800000D01*
X252337857Y-95942857D01*
X252337857Y-96085714D01*
X251623571Y-96228571D01*
X252980714Y-96585714D02*
X253052142Y-96657142D01*
X252980714Y-96728571D01*
X252909285Y-96657142D01*
X252980714Y-96585714D01*
X252980714Y-96728571D01*
X252980714Y-95800000D02*
X253052142Y-95871428D01*
X252980714Y-95942857D01*
X252909285Y-95871428D01*
X252980714Y-95800000D01*
X252980714Y-95942857D01*
X255123571Y-95228571D02*
X255266428Y-95228571D01*
X255409285Y-95300000D01*
X255480714Y-95371428D01*
X255552142Y-95514285D01*
X255623571Y-95800000D01*
X255623571Y-96157142D01*
X255552142Y-96442857D01*
X255480714Y-96585714D01*
X255409285Y-96657142D01*
X255266428Y-96728571D01*
X255123571Y-96728571D01*
X254980714Y-96657142D01*
X254909285Y-96585714D01*
X254837857Y-96442857D01*
X254766428Y-96157142D01*
X254766428Y-95800000D01*
X254837857Y-95514285D01*
X254909285Y-95371428D01*
X254980714Y-95300000D01*
X255123571Y-95228571D01*
X256266428Y-96585714D02*
X256337857Y-96657142D01*
X256266428Y-96728571D01*
X256195000Y-96657142D01*
X256266428Y-96585714D01*
X256266428Y-96728571D01*
X257623571Y-95728571D02*
X257623571Y-96728571D01*
X257266428Y-95157142D02*
X256909285Y-96228571D01*
X257837857Y-96228571D01*
X258695000Y-95228571D02*
X258837857Y-95228571D01*
X258980714Y-95300000D01*
X259052142Y-95371428D01*
X259123571Y-95514285D01*
X259195000Y-95800000D01*
X259195000Y-96157142D01*
X259123571Y-96442857D01*
X259052142Y-96585714D01*
X258980714Y-96657142D01*
X258837857Y-96728571D01*
X258695000Y-96728571D01*
X258552142Y-96657142D01*
X258480714Y-96585714D01*
X258409285Y-96442857D01*
X258337857Y-96157142D01*
X258337857Y-95800000D01*
X258409285Y-95514285D01*
X258480714Y-95371428D01*
X258552142Y-95300000D01*
X258695000Y-95228571D01*
X260980714Y-96728571D02*
X260980714Y-95728571D01*
X260980714Y-95871428D02*
X261052142Y-95800000D01*
X261195000Y-95728571D01*
X261409285Y-95728571D01*
X261552142Y-95800000D01*
X261623571Y-95942857D01*
X261623571Y-96728571D01*
X261623571Y-95942857D02*
X261695000Y-95800000D01*
X261837857Y-95728571D01*
X262052142Y-95728571D01*
X262195000Y-95800000D01*
X262266428Y-95942857D01*
X262266428Y-96728571D01*
X262980714Y-96728571D02*
X262980714Y-95728571D01*
X262980714Y-95871428D02*
X263052142Y-95800000D01*
X263195000Y-95728571D01*
X263409285Y-95728571D01*
X263552142Y-95800000D01*
X263623571Y-95942857D01*
X263623571Y-96728571D01*
X263623571Y-95942857D02*
X263695000Y-95800000D01*
X263837857Y-95728571D01*
X264052142Y-95728571D01*
X264195000Y-95800000D01*
X264266428Y-95942857D01*
X264266428Y-96728571D01*
X237837857Y-97778571D02*
X238695000Y-97778571D01*
X238266428Y-99278571D02*
X238266428Y-97778571D01*
X239766428Y-99207142D02*
X239623571Y-99278571D01*
X239337857Y-99278571D01*
X239195000Y-99207142D01*
X239123571Y-99064285D01*
X239123571Y-98492857D01*
X239195000Y-98350000D01*
X239337857Y-98278571D01*
X239623571Y-98278571D01*
X239766428Y-98350000D01*
X239837857Y-98492857D01*
X239837857Y-98635714D01*
X239123571Y-98778571D01*
X240480714Y-99278571D02*
X240480714Y-98278571D01*
X240480714Y-98564285D02*
X240552142Y-98421428D01*
X240623571Y-98350000D01*
X240766428Y-98278571D01*
X240909285Y-98278571D01*
X241409285Y-99278571D02*
X241409285Y-98278571D01*
X241409285Y-98421428D02*
X241480714Y-98350000D01*
X241623571Y-98278571D01*
X241837857Y-98278571D01*
X241980714Y-98350000D01*
X242052142Y-98492857D01*
X242052142Y-99278571D01*
X242052142Y-98492857D02*
X242123571Y-98350000D01*
X242266428Y-98278571D01*
X242480714Y-98278571D01*
X242623571Y-98350000D01*
X242695000Y-98492857D01*
X242695000Y-99278571D01*
X243409285Y-99278571D02*
X243409285Y-98278571D01*
X243409285Y-97778571D02*
X243337857Y-97850000D01*
X243409285Y-97921428D01*
X243480714Y-97850000D01*
X243409285Y-97778571D01*
X243409285Y-97921428D01*
X244123571Y-98278571D02*
X244123571Y-99278571D01*
X244123571Y-98421428D02*
X244195000Y-98350000D01*
X244337857Y-98278571D01*
X244552142Y-98278571D01*
X244695000Y-98350000D01*
X244766428Y-98492857D01*
X244766428Y-99278571D01*
X246123571Y-99278571D02*
X246123571Y-98492857D01*
X246052142Y-98350000D01*
X245909285Y-98278571D01*
X245623571Y-98278571D01*
X245480714Y-98350000D01*
X246123571Y-99207142D02*
X245980714Y-99278571D01*
X245623571Y-99278571D01*
X245480714Y-99207142D01*
X245409285Y-99064285D01*
X245409285Y-98921428D01*
X245480714Y-98778571D01*
X245623571Y-98707142D01*
X245980714Y-98707142D01*
X246123571Y-98635714D01*
X247480714Y-99207142D02*
X247337857Y-99278571D01*
X247052142Y-99278571D01*
X246909285Y-99207142D01*
X246837857Y-99135714D01*
X246766428Y-98992857D01*
X246766428Y-98564285D01*
X246837857Y-98421428D01*
X246909285Y-98350000D01*
X247052142Y-98278571D01*
X247337857Y-98278571D01*
X247480714Y-98350000D01*
X248123571Y-99278571D02*
X248123571Y-98278571D01*
X248123571Y-97778571D02*
X248052142Y-97850000D01*
X248123571Y-97921428D01*
X248195000Y-97850000D01*
X248123571Y-97778571D01*
X248123571Y-97921428D01*
X249052142Y-99278571D02*
X248909285Y-99207142D01*
X248837857Y-99135714D01*
X248766428Y-98992857D01*
X248766428Y-98564285D01*
X248837857Y-98421428D01*
X248909285Y-98350000D01*
X249052142Y-98278571D01*
X249266428Y-98278571D01*
X249409285Y-98350000D01*
X249480714Y-98421428D01*
X249552142Y-98564285D01*
X249552142Y-98992857D01*
X249480714Y-99135714D01*
X249409285Y-99207142D01*
X249266428Y-99278571D01*
X249052142Y-99278571D01*
X250195000Y-98278571D02*
X250195000Y-99278571D01*
X250195000Y-98421428D02*
X250266428Y-98350000D01*
X250409285Y-98278571D01*
X250623571Y-98278571D01*
X250766428Y-98350000D01*
X250837857Y-98492857D01*
X250837857Y-99278571D01*
X251552142Y-99135714D02*
X251623571Y-99207142D01*
X251552142Y-99278571D01*
X251480714Y-99207142D01*
X251552142Y-99135714D01*
X251552142Y-99278571D01*
X251552142Y-98350000D02*
X251623571Y-98421428D01*
X251552142Y-98492857D01*
X251480714Y-98421428D01*
X251552142Y-98350000D01*
X251552142Y-98492857D01*
X253409285Y-98492857D02*
X253909285Y-98492857D01*
X254123571Y-99278571D02*
X253409285Y-99278571D01*
X253409285Y-97778571D01*
X254123571Y-97778571D01*
X254695000Y-99207142D02*
X254837857Y-99278571D01*
X255123571Y-99278571D01*
X255266428Y-99207142D01*
X255337857Y-99064285D01*
X255337857Y-98992857D01*
X255266428Y-98850000D01*
X255123571Y-98778571D01*
X254909285Y-98778571D01*
X254766428Y-98707142D01*
X254695000Y-98564285D01*
X254695000Y-98492857D01*
X254766428Y-98350000D01*
X254909285Y-98278571D01*
X255123571Y-98278571D01*
X255266428Y-98350000D01*
X255766428Y-98278571D02*
X256337857Y-98278571D01*
X255980714Y-97778571D02*
X255980714Y-99064285D01*
X256052142Y-99207142D01*
X256195000Y-99278571D01*
X256337857Y-99278571D01*
X257480714Y-99278571D02*
X257480714Y-98492857D01*
X257409285Y-98350000D01*
X257266428Y-98278571D01*
X256980714Y-98278571D01*
X256837857Y-98350000D01*
X257480714Y-99207142D02*
X257337857Y-99278571D01*
X256980714Y-99278571D01*
X256837857Y-99207142D01*
X256766428Y-99064285D01*
X256766428Y-98921428D01*
X256837857Y-98778571D01*
X256980714Y-98707142D01*
X257337857Y-98707142D01*
X257480714Y-98635714D01*
X258195000Y-98278571D02*
X258195000Y-99278571D01*
X258195000Y-98421428D02*
X258266428Y-98350000D01*
X258409285Y-98278571D01*
X258623571Y-98278571D01*
X258766428Y-98350000D01*
X258837857Y-98492857D01*
X258837857Y-99278571D01*
X258123571Y-97921428D02*
X258195000Y-97850000D01*
X258337857Y-97778571D01*
X258623571Y-97921428D01*
X258766428Y-97850000D01*
X258837857Y-97778571D01*
X259766428Y-99278571D02*
X259623571Y-99207142D01*
X259552142Y-99135714D01*
X259480714Y-98992857D01*
X259480714Y-98564285D01*
X259552142Y-98421428D01*
X259623571Y-98350000D01*
X259766428Y-98278571D01*
X259980714Y-98278571D01*
X260123571Y-98350000D01*
X260195000Y-98421428D01*
X260266428Y-98564285D01*
X260266428Y-98992857D01*
X260195000Y-99135714D01*
X260123571Y-99207142D01*
X259980714Y-99278571D01*
X259766428Y-99278571D01*
X262052142Y-99278571D02*
X262052142Y-97778571D01*
X262623571Y-97778571D01*
X262766428Y-97850000D01*
X262837857Y-97921428D01*
X262909285Y-98064285D01*
X262909285Y-98278571D01*
X262837857Y-98421428D01*
X262766428Y-98492857D01*
X262623571Y-98564285D01*
X262052142Y-98564285D01*
X263766428Y-99278571D02*
X263623571Y-99207142D01*
X263552142Y-99064285D01*
X263552142Y-97778571D01*
X264552142Y-99278571D02*
X264409285Y-99207142D01*
X264337857Y-99135714D01*
X264266428Y-98992857D01*
X264266428Y-98564285D01*
X264337857Y-98421428D01*
X264409285Y-98350000D01*
X264552142Y-98278571D01*
X264766428Y-98278571D01*
X264909285Y-98350000D01*
X264980714Y-98421428D01*
X265052142Y-98564285D01*
X265052142Y-98992857D01*
X264980714Y-99135714D01*
X264909285Y-99207142D01*
X264766428Y-99278571D01*
X264552142Y-99278571D01*
X265695000Y-99278571D02*
X265695000Y-98278571D01*
X265695000Y-98421428D02*
X265766428Y-98350000D01*
X265909285Y-98278571D01*
X266123571Y-98278571D01*
X266266428Y-98350000D01*
X266337857Y-98492857D01*
X266337857Y-99278571D01*
X266337857Y-98492857D02*
X266409285Y-98350000D01*
X266552142Y-98278571D01*
X266766428Y-98278571D01*
X266909285Y-98350000D01*
X266980714Y-98492857D01*
X266980714Y-99278571D01*
X267909285Y-99278571D02*
X267766428Y-99207142D01*
X267695000Y-99135714D01*
X267623571Y-98992857D01*
X267623571Y-98564285D01*
X267695000Y-98421428D01*
X267766428Y-98350000D01*
X267909285Y-98278571D01*
X268123571Y-98278571D01*
X268266428Y-98350000D01*
X268337857Y-98421428D01*
X268409285Y-98564285D01*
X268409285Y-98992857D01*
X268337857Y-99135714D01*
X268266428Y-99207142D01*
X268123571Y-99278571D01*
X267909285Y-99278571D01*
X270623571Y-99850000D02*
X270552142Y-99778571D01*
X270409285Y-99564285D01*
X270337857Y-99421428D01*
X270266428Y-99207142D01*
X270195000Y-98850000D01*
X270195000Y-98564285D01*
X270266428Y-98207142D01*
X270337857Y-97992857D01*
X270409285Y-97850000D01*
X270552142Y-97635714D01*
X270623571Y-97564285D01*
X271123571Y-99207142D02*
X271337857Y-99278571D01*
X271695000Y-99278571D01*
X271837857Y-99207142D01*
X271909285Y-99135714D01*
X271980714Y-98992857D01*
X271980714Y-98850000D01*
X271909285Y-98707142D01*
X271837857Y-98635714D01*
X271695000Y-98564285D01*
X271409285Y-98492857D01*
X271266428Y-98421428D01*
X271195000Y-98350000D01*
X271123571Y-98207142D01*
X271123571Y-98064285D01*
X271195000Y-97921428D01*
X271266428Y-97850000D01*
X271409285Y-97778571D01*
X271766428Y-97778571D01*
X271980714Y-97850000D01*
X272623571Y-98278571D02*
X272623571Y-99278571D01*
X272623571Y-98421428D02*
X272695000Y-98350000D01*
X272837857Y-98278571D01*
X273052142Y-98278571D01*
X273195000Y-98350000D01*
X273266428Y-98492857D01*
X273266428Y-99278571D01*
X275052142Y-97707142D02*
X273766428Y-99635714D01*
X275552142Y-99278571D02*
X275552142Y-97778571D01*
X276123571Y-97778571D01*
X276266428Y-97850000D01*
X276337857Y-97921428D01*
X276409285Y-98064285D01*
X276409285Y-98278571D01*
X276337857Y-98421428D01*
X276266428Y-98492857D01*
X276123571Y-98564285D01*
X275552142Y-98564285D01*
X277052142Y-99278571D02*
X277052142Y-97778571D01*
X277052142Y-98350000D02*
X277195000Y-98278571D01*
X277480714Y-98278571D01*
X277623571Y-98350000D01*
X277695000Y-98421428D01*
X277766428Y-98564285D01*
X277766428Y-98992857D01*
X277695000Y-99135714D01*
X277623571Y-99207142D01*
X277480714Y-99278571D01*
X277195000Y-99278571D01*
X277052142Y-99207142D01*
X278266428Y-99850000D02*
X278337857Y-99778571D01*
X278480714Y-99564285D01*
X278552142Y-99421428D01*
X278623571Y-99207142D01*
X278695000Y-98850000D01*
X278695000Y-98564285D01*
X278623571Y-98207142D01*
X278552142Y-97992857D01*
X278480714Y-97850000D01*
X278337857Y-97635714D01*
X278266428Y-97564285D01*
D12*
G04 #@! TO.C,U2*
X215785000Y-80600000D02*
X214170000Y-82600000D01*
X217400000Y-80600000D02*
X214170000Y-84600000D01*
X219015000Y-80600000D02*
X214170000Y-86600000D01*
X220630000Y-80600000D02*
X214170000Y-88600000D01*
X222245000Y-80600000D02*
X214170000Y-90600000D01*
X223860000Y-80600000D02*
X214170000Y-92600000D01*
X224950000Y-81125000D02*
X214170000Y-94600000D01*
X224950000Y-83125000D02*
X214170000Y-96600000D01*
X224950000Y-85125000D02*
X214170000Y-98600000D01*
X224950000Y-87125000D02*
X214170000Y-100600000D01*
X214170000Y-102600000D02*
X224950000Y-89125000D01*
X224950000Y-91125000D02*
X214170000Y-104600000D01*
X224950000Y-93125000D02*
X214170000Y-106600000D01*
X224950000Y-95125000D02*
X214170000Y-108600000D01*
X224950000Y-97125000D02*
X215785000Y-108600000D01*
X224950000Y-99125000D02*
X217400000Y-108600000D01*
X224950000Y-101125000D02*
X219015000Y-108600000D01*
X224950000Y-103125000D02*
X220630000Y-108600000D01*
X224950000Y-105125000D02*
X222245000Y-108600000D01*
X224950000Y-107125000D02*
X223860000Y-108600000D01*
X224950000Y-80600000D02*
X224950000Y-108600000D01*
X214170000Y-80600000D02*
X224950000Y-80600000D01*
X214170000Y-80600000D02*
X214170000Y-108600000D01*
X214170000Y-108600000D02*
X224950000Y-108600000D01*
G04 #@! TD*
G04 #@! TO.C,J1*
D13*
X166776190Y-105014285D02*
X166276190Y-105014285D01*
X166276190Y-104823809D01*
X166300000Y-104776190D01*
X166323809Y-104752380D01*
X166371428Y-104728571D01*
X166442857Y-104728571D01*
X166490476Y-104752380D01*
X166514285Y-104776190D01*
X166538095Y-104823809D01*
X166538095Y-105014285D01*
X166728571Y-104228571D02*
X166752380Y-104252380D01*
X166776190Y-104323809D01*
X166776190Y-104371428D01*
X166752380Y-104442857D01*
X166704761Y-104490476D01*
X166657142Y-104514285D01*
X166561904Y-104538095D01*
X166490476Y-104538095D01*
X166395238Y-104514285D01*
X166347619Y-104490476D01*
X166300000Y-104442857D01*
X166276190Y-104371428D01*
X166276190Y-104323809D01*
X166300000Y-104252380D01*
X166323809Y-104228571D01*
X166514285Y-103847619D02*
X166538095Y-103776190D01*
X166561904Y-103752380D01*
X166609523Y-103728571D01*
X166680952Y-103728571D01*
X166728571Y-103752380D01*
X166752380Y-103776190D01*
X166776190Y-103823809D01*
X166776190Y-104014285D01*
X166276190Y-104014285D01*
X166276190Y-103847619D01*
X166300000Y-103800000D01*
X166323809Y-103776190D01*
X166371428Y-103752380D01*
X166419047Y-103752380D01*
X166466666Y-103776190D01*
X166490476Y-103800000D01*
X166514285Y-103847619D01*
X166514285Y-104014285D01*
X166514285Y-103133333D02*
X166514285Y-102966666D01*
X166776190Y-102895238D02*
X166776190Y-103133333D01*
X166276190Y-103133333D01*
X166276190Y-102895238D01*
X166776190Y-102466666D02*
X166276190Y-102466666D01*
X166752380Y-102466666D02*
X166776190Y-102514285D01*
X166776190Y-102609523D01*
X166752380Y-102657142D01*
X166728571Y-102680952D01*
X166680952Y-102704761D01*
X166538095Y-102704761D01*
X166490476Y-102680952D01*
X166466666Y-102657142D01*
X166442857Y-102609523D01*
X166442857Y-102514285D01*
X166466666Y-102466666D01*
X166442857Y-102014285D02*
X166847619Y-102014285D01*
X166895238Y-102038095D01*
X166919047Y-102061904D01*
X166942857Y-102109523D01*
X166942857Y-102180952D01*
X166919047Y-102228571D01*
X166752380Y-102014285D02*
X166776190Y-102061904D01*
X166776190Y-102157142D01*
X166752380Y-102204761D01*
X166728571Y-102228571D01*
X166680952Y-102252380D01*
X166538095Y-102252380D01*
X166490476Y-102228571D01*
X166466666Y-102204761D01*
X166442857Y-102157142D01*
X166442857Y-102061904D01*
X166466666Y-102014285D01*
X166752380Y-101585714D02*
X166776190Y-101633333D01*
X166776190Y-101728571D01*
X166752380Y-101776190D01*
X166704761Y-101800000D01*
X166514285Y-101800000D01*
X166466666Y-101776190D01*
X166442857Y-101728571D01*
X166442857Y-101633333D01*
X166466666Y-101585714D01*
X166514285Y-101561904D01*
X166561904Y-101561904D01*
X166609523Y-101800000D01*
G04 #@! TD*
M02*
