G04 #@! TF.GenerationSoftware,KiCad,Pcbnew,5.0.0-fee4fd1~66~ubuntu18.04.1*
G04 #@! TF.CreationDate,2018-11-12T17:48:12-03:00*
G04 #@! TF.ProjectId,pcbAlarma,706362416C61726D612E6B696361645F,1.1*
G04 #@! TF.SameCoordinates,Original*
G04 #@! TF.FileFunction,Copper,L1,Top,Signal*
G04 #@! TF.FilePolarity,Positive*
%FSLAX46Y46*%
G04 Gerber Fmt 4.6, Leading zero omitted, Abs format (unit mm)*
G04 Created by KiCad (PCBNEW 5.0.0-fee4fd1~66~ubuntu18.04.1) date Mon Nov 12 17:48:12 2018*
%MOMM*%
%LPD*%
G01*
G04 APERTURE LIST*
G04 #@! TA.AperFunction,NonConductor*
%ADD10C,0.150000*%
G04 #@! TD*
G04 #@! TA.AperFunction,ComponentPad*
%ADD11O,1.900000X1.050000*%
G04 #@! TD*
G04 #@! TA.AperFunction,ComponentPad*
%ADD12R,1.700000X1.700000*%
G04 #@! TD*
G04 #@! TA.AperFunction,ComponentPad*
%ADD13O,1.700000X1.700000*%
G04 #@! TD*
G04 #@! TA.AperFunction,ComponentPad*
%ADD14C,1.600000*%
G04 #@! TD*
G04 #@! TA.AperFunction,ComponentPad*
%ADD15R,1.600000X1.600000*%
G04 #@! TD*
G04 #@! TA.AperFunction,ComponentPad*
%ADD16C,1.800000*%
G04 #@! TD*
G04 #@! TA.AperFunction,ComponentPad*
%ADD17R,1.800000X1.800000*%
G04 #@! TD*
G04 #@! TA.AperFunction,ComponentPad*
%ADD18O,1.800000X1.800000*%
G04 #@! TD*
G04 #@! TA.AperFunction,ComponentPad*
%ADD19C,3.000000*%
G04 #@! TD*
G04 #@! TA.AperFunction,ComponentPad*
%ADD20R,3.000000X3.000000*%
G04 #@! TD*
G04 #@! TA.AperFunction,ComponentPad*
%ADD21R,2.500000X2.500000*%
G04 #@! TD*
G04 #@! TA.AperFunction,ComponentPad*
%ADD22O,2.500000X2.500000*%
G04 #@! TD*
G04 #@! TA.AperFunction,ComponentPad*
%ADD23R,1.500000X1.050000*%
G04 #@! TD*
G04 #@! TA.AperFunction,ComponentPad*
%ADD24O,1.500000X1.050000*%
G04 #@! TD*
G04 #@! TA.AperFunction,ComponentPad*
%ADD25O,1.600000X1.600000*%
G04 #@! TD*
G04 APERTURE END LIST*
D10*
X164200000Y-64600000D02*
X164200000Y-114600000D01*
X214200000Y-64600000D02*
X164200000Y-64600000D01*
X214200000Y-114600000D02*
X214200000Y-64600000D01*
X164200000Y-114600000D02*
X214200000Y-114600000D01*
D11*
G04 #@! TO.P,J1,6*
G04 #@! TO.N,Net-(J1-Pad6)*
X168000000Y-99725000D03*
X168000000Y-106875000D03*
G04 #@! TD*
D12*
G04 #@! TO.P,J102,1*
G04 #@! TO.N,GND*
X210000000Y-107400000D03*
D13*
G04 #@! TO.P,J102,2*
G04 #@! TO.N,+3V3*
X207460000Y-107400000D03*
G04 #@! TO.P,J102,3*
G04 #@! TO.N,/EN*
X204920000Y-107400000D03*
G04 #@! TO.P,J102,4*
G04 #@! TO.N,Net-(J102-Pad4)*
X202380000Y-107400000D03*
G04 #@! TO.P,J102,5*
G04 #@! TO.N,Net-(J102-Pad5)*
X199840000Y-107400000D03*
G04 #@! TO.P,J102,6*
G04 #@! TO.N,/GPIO0*
X197300000Y-107400000D03*
G04 #@! TD*
D14*
G04 #@! TO.P,C1,2*
G04 #@! TO.N,GND*
X173600000Y-111800000D03*
D15*
G04 #@! TO.P,C1,1*
G04 #@! TO.N,+5V*
X173600000Y-109300000D03*
G04 #@! TD*
D14*
G04 #@! TO.P,C2,2*
G04 #@! TO.N,GND*
X188700000Y-111850000D03*
D15*
G04 #@! TO.P,C2,1*
G04 #@! TO.N,+3V3*
X188700000Y-109350000D03*
G04 #@! TD*
D16*
G04 #@! TO.P,D1,2*
G04 #@! TO.N,Net-(D1-Pad2)*
X177400000Y-94660000D03*
D17*
G04 #@! TO.P,D1,1*
G04 #@! TO.N,GND*
X177400000Y-97200000D03*
G04 #@! TD*
D18*
G04 #@! TO.P,D2,2*
G04 #@! TO.N,Net-(D2-Pad2)*
X200760000Y-75800000D03*
D17*
G04 #@! TO.P,D2,1*
G04 #@! TO.N,+5V*
X190600000Y-75800000D03*
G04 #@! TD*
D16*
G04 #@! TO.P,D3,2*
G04 #@! TO.N,Net-(D3-Pad2)*
X167300000Y-94660000D03*
D17*
G04 #@! TO.P,D3,1*
G04 #@! TO.N,GND*
X167300000Y-97200000D03*
G04 #@! TD*
D16*
G04 #@! TO.P,D4,2*
G04 #@! TO.N,Net-(D4-Pad2)*
X172400000Y-94660000D03*
D17*
G04 #@! TO.P,D4,1*
G04 #@! TO.N,GND*
X172400000Y-97200000D03*
G04 #@! TD*
D19*
G04 #@! TO.P,J4,2*
G04 #@! TO.N,Net-(J4-Pad2)*
X192170000Y-69725000D03*
D20*
G04 #@! TO.P,J4,1*
G04 #@! TO.N,Net-(J4-Pad1)*
X197250000Y-69725000D03*
G04 #@! TD*
D13*
G04 #@! TO.P,J101,2*
G04 #@! TO.N,Net-(J101-Pad2)*
X211200000Y-75340000D03*
D12*
G04 #@! TO.P,J101,1*
G04 #@! TO.N,GND*
X211200000Y-72800000D03*
G04 #@! TD*
D21*
G04 #@! TO.P,K1,1*
G04 #@! TO.N,Net-(D2-Pad2)*
X186200000Y-74200000D03*
D22*
G04 #@! TO.P,K1,2*
G04 #@! TO.N,Net-(J4-Pad1)*
X184200000Y-68200000D03*
G04 #@! TO.P,K1,3*
G04 #@! TO.N,Net-(J4-Pad2)*
X172000000Y-68200000D03*
G04 #@! TO.P,K1,4*
G04 #@! TO.N,Net-(K1-Pad4)*
X172000000Y-80200000D03*
G04 #@! TO.P,K1,5*
G04 #@! TO.N,+5V*
X184200000Y-80200000D03*
G04 #@! TD*
D23*
G04 #@! TO.P,Q1,1*
G04 #@! TO.N,Net-(D2-Pad2)*
X204800000Y-75130000D03*
D24*
G04 #@! TO.P,Q1,3*
G04 #@! TO.N,GND*
X204800000Y-77670000D03*
G04 #@! TO.P,Q1,2*
G04 #@! TO.N,Net-(Q1-Pad2)*
X204800000Y-76400000D03*
G04 #@! TD*
D14*
G04 #@! TO.P,R1,1*
G04 #@! TO.N,+3V3*
X182100000Y-91600000D03*
D25*
G04 #@! TO.P,R1,2*
G04 #@! TO.N,Net-(D1-Pad2)*
X171940000Y-91600000D03*
G04 #@! TD*
G04 #@! TO.P,R2,2*
G04 #@! TO.N,/Salidas/LedStatus*
X182160000Y-84800000D03*
D14*
G04 #@! TO.P,R2,1*
G04 #@! TO.N,Net-(D3-Pad2)*
X172000000Y-84800000D03*
G04 #@! TD*
D25*
G04 #@! TO.P,R3,2*
G04 #@! TO.N,+3V3*
X207760000Y-111600000D03*
D14*
G04 #@! TO.P,R3,1*
G04 #@! TO.N,/EN*
X197600000Y-111600000D03*
G04 #@! TD*
D25*
G04 #@! TO.P,R4,2*
G04 #@! TO.N,/Salidas/LedControl*
X182160000Y-88300000D03*
D14*
G04 #@! TO.P,R4,1*
G04 #@! TO.N,Net-(D4-Pad2)*
X172000000Y-88300000D03*
G04 #@! TD*
D25*
G04 #@! TO.P,R5,2*
G04 #@! TO.N,Net-(Q1-Pad2)*
X190440000Y-80600000D03*
D14*
G04 #@! TO.P,R5,1*
G04 #@! TO.N,/Salidas/RelayIN*
X200600000Y-80600000D03*
G04 #@! TD*
M02*
