G04 #@! TF.GenerationSoftware,KiCad,Pcbnew,5.0.0-fee4fd1~66~ubuntu18.04.1*
G04 #@! TF.CreationDate,2018-11-12T17:48:12-03:00*
G04 #@! TF.ProjectId,pcbAlarma,706362416C61726D612E6B696361645F,1.1*
G04 #@! TF.SameCoordinates,Original*
G04 #@! TF.FileFunction,Soldermask,Top*
G04 #@! TF.FilePolarity,Negative*
%FSLAX46Y46*%
G04 Gerber Fmt 4.6, Leading zero omitted, Abs format (unit mm)*
G04 Created by KiCad (PCBNEW 5.0.0-fee4fd1~66~ubuntu18.04.1) date Mon Nov 12 17:48:12 2018*
%MOMM*%
%LPD*%
G01*
G04 APERTURE LIST*
%ADD10C,0.150000*%
%ADD11O,2.300000X1.450000*%
%ADD12R,2.100000X2.100000*%
%ADD13O,2.100000X2.100000*%
%ADD14C,2.000000*%
%ADD15R,2.000000X2.000000*%
%ADD16C,2.200000*%
%ADD17R,2.200000X2.200000*%
%ADD18O,2.200000X2.200000*%
%ADD19C,2.600000*%
%ADD20C,3.400000*%
%ADD21R,3.400000X3.400000*%
%ADD22R,2.900000X2.900000*%
%ADD23O,2.900000X2.900000*%
%ADD24R,1.900000X1.450000*%
%ADD25O,1.900000X1.450000*%
%ADD26O,2.000000X2.000000*%
G04 APERTURE END LIST*
D10*
X164200000Y-64600000D02*
X164200000Y-114600000D01*
X214200000Y-64600000D02*
X164200000Y-64600000D01*
X214200000Y-114600000D02*
X214200000Y-64600000D01*
X164200000Y-114600000D02*
X214200000Y-114600000D01*
D11*
G04 #@! TO.C,J1*
X168000000Y-99725000D03*
X168000000Y-106875000D03*
G04 #@! TD*
D12*
G04 #@! TO.C,J102*
X210000000Y-107400000D03*
D13*
X207460000Y-107400000D03*
X204920000Y-107400000D03*
X202380000Y-107400000D03*
X199840000Y-107400000D03*
X197300000Y-107400000D03*
G04 #@! TD*
D14*
G04 #@! TO.C,C1*
X173600000Y-111800000D03*
D15*
X173600000Y-109300000D03*
G04 #@! TD*
D14*
G04 #@! TO.C,C2*
X188700000Y-111850000D03*
D15*
X188700000Y-109350000D03*
G04 #@! TD*
D16*
G04 #@! TO.C,D1*
X177400000Y-94660000D03*
D17*
X177400000Y-97200000D03*
G04 #@! TD*
D18*
G04 #@! TO.C,D2*
X200760000Y-75800000D03*
D17*
X190600000Y-75800000D03*
G04 #@! TD*
D16*
G04 #@! TO.C,D3*
X167300000Y-94660000D03*
D17*
X167300000Y-97200000D03*
G04 #@! TD*
D16*
G04 #@! TO.C,D4*
X172400000Y-94660000D03*
D17*
X172400000Y-97200000D03*
G04 #@! TD*
D19*
G04 #@! TO.C,H1*
X167200000Y-111300000D03*
G04 #@! TD*
G04 #@! TO.C,H2*
X211200000Y-67600000D03*
G04 #@! TD*
G04 #@! TO.C,H3*
X167150000Y-87025000D03*
G04 #@! TD*
D20*
G04 #@! TO.C,J4*
X192170000Y-69725000D03*
D21*
X197250000Y-69725000D03*
G04 #@! TD*
D13*
G04 #@! TO.C,J101*
X211200000Y-75340000D03*
D12*
X211200000Y-72800000D03*
G04 #@! TD*
D22*
G04 #@! TO.C,K1*
X186200000Y-74200000D03*
D23*
X184200000Y-68200000D03*
X172000000Y-68200000D03*
X172000000Y-80200000D03*
X184200000Y-80200000D03*
G04 #@! TD*
D24*
G04 #@! TO.C,Q1*
X204800000Y-75130000D03*
D25*
X204800000Y-77670000D03*
X204800000Y-76400000D03*
G04 #@! TD*
D14*
G04 #@! TO.C,R1*
X182100000Y-91600000D03*
D26*
X171940000Y-91600000D03*
G04 #@! TD*
G04 #@! TO.C,R2*
X182160000Y-84800000D03*
D14*
X172000000Y-84800000D03*
G04 #@! TD*
D26*
G04 #@! TO.C,R3*
X207760000Y-111600000D03*
D14*
X197600000Y-111600000D03*
G04 #@! TD*
D26*
G04 #@! TO.C,R4*
X182160000Y-88300000D03*
D14*
X172000000Y-88300000D03*
G04 #@! TD*
D26*
G04 #@! TO.C,R5*
X190440000Y-80600000D03*
D14*
X200600000Y-80600000D03*
G04 #@! TD*
M02*
