M48
;DRILL file {KiCad 5.0.0-fee4fd1~66~ubuntu18.04.1} date Mon Nov 12 17:47:57 2018
;FORMAT={-:-/ absolute / inch / decimal}
FMAT,2
INCH,TZ
T1C0.0177
T2C0.0295
T3C0.0315
T4C0.0354
T5C0.0394
T6C0.0512
T7C0.0598
%
G90
G05
M72
T2
X8.063Y-2.9579
X8.063Y-3.0079
X8.063Y-3.0579
T3
X6.7693Y-3.6063
X7.1693Y-3.6063
X6.7717Y-3.4764
X7.1717Y-3.4764
X7.4976Y-3.1732
X7.8976Y-3.1732
X7.4291Y-4.3051
X7.4291Y-4.4035
X6.7717Y-3.3386
X7.1717Y-3.3386
X6.8346Y-4.3031
X6.8346Y-4.4016
X7.7795Y-4.3937
X8.1795Y-4.3937
T4
X6.5866Y-3.7268
X6.5866Y-3.8268
X6.7874Y-3.7268
X6.7874Y-3.8268
X6.9843Y-3.7268
X6.9843Y-3.8268
X7.5039Y-2.9843
X7.9039Y-2.9843
T5
X8.315Y-2.8661
X8.315Y-2.9661
X7.7677Y-4.2283
X7.8677Y-4.2283
X7.9677Y-4.2283
X8.0677Y-4.2283
X8.1677Y-4.2283
X8.2677Y-4.2283
T6
X6.7717Y-2.685
X6.7717Y-3.1575
X7.252Y-2.685
X7.252Y-3.1575
X7.3307Y-2.9213
T7
X7.5657Y-2.7451
X7.7657Y-2.7451
T1
X6.5984Y-3.9262G85X6.6299Y-3.9262
G05
X6.6299Y-4.2077G85X6.5984Y-4.2077
G05
T0
M30
