G04 #@! TF.GenerationSoftware,KiCad,Pcbnew,5.0.0-fee4fd1~66~ubuntu18.04.1*
G04 #@! TF.CreationDate,2018-11-12T17:48:12-03:00*
G04 #@! TF.ProjectId,pcbAlarma,706362416C61726D612E6B696361645F,1.1*
G04 #@! TF.SameCoordinates,Original*
G04 #@! TF.FileFunction,Legend,Bot*
G04 #@! TF.FilePolarity,Positive*
%FSLAX46Y46*%
G04 Gerber Fmt 4.6, Leading zero omitted, Abs format (unit mm)*
G04 Created by KiCad (PCBNEW 5.0.0-fee4fd1~66~ubuntu18.04.1) date Mon Nov 12 17:48:12 2018*
%MOMM*%
%LPD*%
G01*
G04 APERTURE LIST*
%ADD10C,0.150000*%
%ADD11C,0.120000*%
%ADD12R,1.850000X1.550000*%
%ADD13O,2.300000X1.450000*%
%ADD14R,2.300000X2.150000*%
%ADD15R,1.800000X0.800000*%
%ADD16R,2.100000X2.100000*%
%ADD17O,2.100000X2.100000*%
%ADD18C,2.000000*%
%ADD19R,2.000000X2.000000*%
%ADD20C,2.200000*%
%ADD21R,2.200000X2.200000*%
%ADD22O,2.200000X2.200000*%
%ADD23C,2.600000*%
%ADD24C,3.400000*%
%ADD25R,3.400000X3.400000*%
%ADD26R,2.900000X2.900000*%
%ADD27O,2.900000X2.900000*%
%ADD28R,1.900000X1.450000*%
%ADD29O,1.900000X1.450000*%
%ADD30O,2.000000X2.000000*%
%ADD31R,2.400000X1.900000*%
%ADD32R,2.400000X4.200000*%
%ADD33R,1.300000X2.400000*%
%ADD34R,2.400000X1.300000*%
%ADD35R,5.400000X5.400000*%
G04 APERTURE END LIST*
D10*
X164200000Y-64600000D02*
X164200000Y-114600000D01*
X214200000Y-64600000D02*
X164200000Y-64600000D01*
X214200000Y-114600000D02*
X214200000Y-64600000D01*
X164200000Y-114600000D02*
X214200000Y-114600000D01*
D11*
G04 #@! TO.C,J1*
X171610000Y-105060000D02*
X171220000Y-105060000D01*
X171610000Y-105060000D02*
X171610000Y-104610000D01*
X170910000Y-99490000D02*
X170910000Y-100140000D01*
X169180000Y-99490000D02*
X170910000Y-99490000D01*
X166610000Y-107110000D02*
X166820000Y-107110000D01*
X166610000Y-99490000D02*
X166820000Y-99490000D01*
X169180000Y-107110000D02*
X170910000Y-107110000D01*
X170910000Y-107110000D02*
X170910000Y-106450000D01*
G04 #@! TO.C,U1*
X176950000Y-113910000D02*
X182960000Y-113910000D01*
X179200000Y-107090000D02*
X182960000Y-107090000D01*
X182960000Y-113910000D02*
X182960000Y-112650000D01*
X182960000Y-107090000D02*
X182960000Y-108350000D01*
G04 #@! TO.C,U2*
X213645000Y-103720000D02*
X213645000Y-104100000D01*
X220065000Y-103720000D02*
X213645000Y-103720000D01*
X220065000Y-85480000D02*
X213645000Y-85480000D01*
X220065000Y-103720000D02*
X220065000Y-85480000D01*
X194320000Y-85480000D02*
X194320000Y-86480000D01*
X195100000Y-85480000D02*
X194320000Y-85480000D01*
X194320000Y-103720000D02*
X194320000Y-102720000D01*
X195100000Y-103720000D02*
X194320000Y-103720000D01*
G04 #@! TD*
%LPC*%
D12*
G04 #@! TO.C,J1*
X170230000Y-105620000D03*
X170230000Y-100980000D03*
D13*
X168000000Y-99725000D03*
X168000000Y-106875000D03*
D14*
X168000000Y-104425000D03*
D15*
X170650000Y-103300000D03*
X170650000Y-102650000D03*
X170650000Y-102000000D03*
X170650000Y-104600000D03*
X170650000Y-103950000D03*
D14*
X168000000Y-102175000D03*
G04 #@! TD*
D16*
G04 #@! TO.C,J102*
X210000000Y-107400000D03*
D17*
X207460000Y-107400000D03*
X204920000Y-107400000D03*
X202380000Y-107400000D03*
X199840000Y-107400000D03*
X197300000Y-107400000D03*
G04 #@! TD*
D18*
G04 #@! TO.C,C1*
X173600000Y-111800000D03*
D19*
X173600000Y-109300000D03*
G04 #@! TD*
D18*
G04 #@! TO.C,C2*
X188700000Y-111850000D03*
D19*
X188700000Y-109350000D03*
G04 #@! TD*
D20*
G04 #@! TO.C,D1*
X177400000Y-94660000D03*
D21*
X177400000Y-97200000D03*
G04 #@! TD*
D22*
G04 #@! TO.C,D2*
X200760000Y-75800000D03*
D21*
X190600000Y-75800000D03*
G04 #@! TD*
D20*
G04 #@! TO.C,D3*
X167300000Y-94660000D03*
D21*
X167300000Y-97200000D03*
G04 #@! TD*
D20*
G04 #@! TO.C,D4*
X172400000Y-94660000D03*
D21*
X172400000Y-97200000D03*
G04 #@! TD*
D18*
G04 #@! TO.C,F1*
X188000000Y-93200000D03*
G04 #@! TD*
G04 #@! TO.C,F2*
X204200000Y-69600000D03*
G04 #@! TD*
G04 #@! TO.C,F3*
X212000000Y-112000000D03*
G04 #@! TD*
D23*
G04 #@! TO.C,H1*
X167200000Y-111300000D03*
G04 #@! TD*
G04 #@! TO.C,H2*
X211200000Y-67600000D03*
G04 #@! TD*
G04 #@! TO.C,H3*
X167150000Y-87025000D03*
G04 #@! TD*
D24*
G04 #@! TO.C,J4*
X192170000Y-69725000D03*
D25*
X197250000Y-69725000D03*
G04 #@! TD*
D17*
G04 #@! TO.C,J101*
X211200000Y-75340000D03*
D16*
X211200000Y-72800000D03*
G04 #@! TD*
D26*
G04 #@! TO.C,K1*
X186200000Y-74200000D03*
D27*
X184200000Y-68200000D03*
X172000000Y-68200000D03*
X172000000Y-80200000D03*
X184200000Y-80200000D03*
G04 #@! TD*
D28*
G04 #@! TO.C,Q1*
X204800000Y-75130000D03*
D29*
X204800000Y-77670000D03*
X204800000Y-76400000D03*
G04 #@! TD*
D18*
G04 #@! TO.C,R1*
X182100000Y-91600000D03*
D30*
X171940000Y-91600000D03*
G04 #@! TD*
G04 #@! TO.C,R2*
X182160000Y-84800000D03*
D18*
X172000000Y-84800000D03*
G04 #@! TD*
D30*
G04 #@! TO.C,R3*
X207760000Y-111600000D03*
D18*
X197600000Y-111600000D03*
G04 #@! TD*
D30*
G04 #@! TO.C,R4*
X182160000Y-88300000D03*
D18*
X172000000Y-88300000D03*
G04 #@! TD*
D30*
G04 #@! TO.C,R5*
X190440000Y-80600000D03*
D18*
X200600000Y-80600000D03*
G04 #@! TD*
D31*
G04 #@! TO.C,U1*
X177900000Y-112800000D03*
X177900000Y-108200000D03*
X177900000Y-110500000D03*
D32*
X184200000Y-110500000D03*
G04 #@! TD*
D33*
G04 #@! TO.C,U2*
X212455000Y-86100000D03*
X211185000Y-86100000D03*
X209915000Y-86100000D03*
X208645000Y-86100000D03*
X207375000Y-86100000D03*
X206105000Y-86100000D03*
X204835000Y-86100000D03*
X203565000Y-86100000D03*
X202295000Y-86100000D03*
X201025000Y-86100000D03*
X199755000Y-86100000D03*
X198485000Y-86100000D03*
X197215000Y-86100000D03*
X195945000Y-86100000D03*
D34*
X194945000Y-88885000D03*
X194945000Y-90155000D03*
X194945000Y-91425000D03*
X194945000Y-92695000D03*
X194945000Y-93965000D03*
X194945000Y-95235000D03*
X194945000Y-96505000D03*
X194945000Y-97775000D03*
X194945000Y-99045000D03*
X194945000Y-100315000D03*
D33*
X195945000Y-103100000D03*
X197215000Y-103100000D03*
X198485000Y-103100000D03*
X199755000Y-103100000D03*
X201025000Y-103100000D03*
X202295000Y-103100000D03*
X203565000Y-103100000D03*
X204835000Y-103100000D03*
X206105000Y-103100000D03*
X207375000Y-103100000D03*
X208645000Y-103100000D03*
X209915000Y-103100000D03*
X211185000Y-103100000D03*
X212455000Y-103100000D03*
D35*
X204955000Y-95600000D03*
G04 #@! TD*
M02*
