G04 #@! TF.GenerationSoftware,KiCad,Pcbnew,(5.0.0)*
G04 #@! TF.CreationDate,2018-11-30T23:52:53-03:00*
G04 #@! TF.ProjectId,TP_Final,54505F46696E616C2E6B696361645F70,1*
G04 #@! TF.SameCoordinates,Original*
G04 #@! TF.FileFunction,Legend,Top*
G04 #@! TF.FilePolarity,Positive*
%FSLAX46Y46*%
G04 Gerber Fmt 4.6, Leading zero omitted, Abs format (unit mm)*
G04 Created by KiCad (PCBNEW (5.0.0)) date 11/30/18 23:52:53*
%MOMM*%
%LPD*%
G01*
G04 APERTURE LIST*
%ADD10C,0.125000*%
%ADD11C,0.100000*%
%ADD12C,0.010000*%
%ADD13C,0.150000*%
%ADD14C,0.120000*%
G04 APERTURE END LIST*
D10*
X150933333Y-84529166D02*
X151266666Y-84529166D01*
X150866666Y-84729166D02*
X151100000Y-84029166D01*
X151333333Y-84729166D01*
X151866666Y-84262500D02*
X151866666Y-84729166D01*
X151566666Y-84262500D02*
X151566666Y-84629166D01*
X151600000Y-84695833D01*
X151666666Y-84729166D01*
X151766666Y-84729166D01*
X151833333Y-84695833D01*
X151866666Y-84662500D01*
X152100000Y-84262500D02*
X152366666Y-84262500D01*
X152200000Y-84029166D02*
X152200000Y-84629166D01*
X152233333Y-84695833D01*
X152300000Y-84729166D01*
X152366666Y-84729166D01*
X152700000Y-84729166D02*
X152633333Y-84695833D01*
X152600000Y-84662500D01*
X152566666Y-84595833D01*
X152566666Y-84395833D01*
X152600000Y-84329166D01*
X152633333Y-84295833D01*
X152700000Y-84262500D01*
X152800000Y-84262500D01*
X152866666Y-84295833D01*
X152900000Y-84329166D01*
X152933333Y-84395833D01*
X152933333Y-84595833D01*
X152900000Y-84662500D01*
X152866666Y-84695833D01*
X152800000Y-84729166D01*
X152700000Y-84729166D01*
X153233333Y-84729166D02*
X153233333Y-84262500D01*
X153233333Y-84395833D02*
X153266666Y-84329166D01*
X153300000Y-84295833D01*
X153366666Y-84262500D01*
X153433333Y-84262500D01*
X154200000Y-84729166D02*
X154200000Y-84029166D01*
X154466666Y-84029166D01*
X154533333Y-84062500D01*
X154566666Y-84095833D01*
X154600000Y-84162500D01*
X154600000Y-84262500D01*
X154566666Y-84329166D01*
X154533333Y-84362500D01*
X154466666Y-84395833D01*
X154200000Y-84395833D01*
X155300000Y-84662500D02*
X155266666Y-84695833D01*
X155166666Y-84729166D01*
X155100000Y-84729166D01*
X155000000Y-84695833D01*
X154933333Y-84629166D01*
X154900000Y-84562500D01*
X154866666Y-84429166D01*
X154866666Y-84329166D01*
X154900000Y-84195833D01*
X154933333Y-84129166D01*
X155000000Y-84062500D01*
X155100000Y-84029166D01*
X155166666Y-84029166D01*
X155266666Y-84062500D01*
X155300000Y-84095833D01*
X155833333Y-84362500D02*
X155933333Y-84395833D01*
X155966666Y-84429166D01*
X156000000Y-84495833D01*
X156000000Y-84595833D01*
X155966666Y-84662500D01*
X155933333Y-84695833D01*
X155866666Y-84729166D01*
X155600000Y-84729166D01*
X155600000Y-84029166D01*
X155833333Y-84029166D01*
X155900000Y-84062500D01*
X155933333Y-84095833D01*
X155966666Y-84162500D01*
X155966666Y-84229166D01*
X155933333Y-84295833D01*
X155900000Y-84329166D01*
X155833333Y-84362500D01*
X155600000Y-84362500D01*
X156300000Y-84662500D02*
X156333333Y-84695833D01*
X156300000Y-84729166D01*
X156266666Y-84695833D01*
X156300000Y-84662500D01*
X156300000Y-84729166D01*
X156300000Y-84295833D02*
X156333333Y-84329166D01*
X156300000Y-84362500D01*
X156266666Y-84329166D01*
X156300000Y-84295833D01*
X156300000Y-84362500D01*
X157066666Y-84029166D02*
X157466666Y-84029166D01*
X157266666Y-84729166D02*
X157266666Y-84029166D01*
X157966666Y-84695833D02*
X157900000Y-84729166D01*
X157766666Y-84729166D01*
X157700000Y-84695833D01*
X157666666Y-84629166D01*
X157666666Y-84362500D01*
X157700000Y-84295833D01*
X157766666Y-84262500D01*
X157900000Y-84262500D01*
X157966666Y-84295833D01*
X158000000Y-84362500D01*
X158000000Y-84429166D01*
X157666666Y-84495833D01*
X158400000Y-84729166D02*
X158333333Y-84695833D01*
X158300000Y-84629166D01*
X158300000Y-84029166D01*
X158666666Y-84729166D02*
X158666666Y-84262500D01*
X158666666Y-84329166D02*
X158700000Y-84295833D01*
X158766666Y-84262500D01*
X158866666Y-84262500D01*
X158933333Y-84295833D01*
X158966666Y-84362500D01*
X158966666Y-84729166D01*
X158966666Y-84362500D02*
X159000000Y-84295833D01*
X159066666Y-84262500D01*
X159166666Y-84262500D01*
X159233333Y-84295833D01*
X159266666Y-84362500D01*
X159266666Y-84729166D01*
X159700000Y-84729166D02*
X159633333Y-84695833D01*
X159600000Y-84662500D01*
X159566666Y-84595833D01*
X159566666Y-84395833D01*
X159600000Y-84329166D01*
X159633333Y-84295833D01*
X159700000Y-84262500D01*
X159800000Y-84262500D01*
X159866666Y-84295833D01*
X159900000Y-84329166D01*
X159933333Y-84395833D01*
X159933333Y-84595833D01*
X159900000Y-84662500D01*
X159866666Y-84695833D01*
X159800000Y-84729166D01*
X159700000Y-84729166D01*
X160766666Y-84729166D02*
X160766666Y-84029166D01*
X161000000Y-84529166D01*
X161233333Y-84029166D01*
X161233333Y-84729166D01*
X161666666Y-84729166D02*
X161600000Y-84695833D01*
X161566666Y-84662500D01*
X161533333Y-84595833D01*
X161533333Y-84395833D01*
X161566666Y-84329166D01*
X161600000Y-84295833D01*
X161666666Y-84262500D01*
X161766666Y-84262500D01*
X161833333Y-84295833D01*
X161866666Y-84329166D01*
X161900000Y-84395833D01*
X161900000Y-84595833D01*
X161866666Y-84662500D01*
X161833333Y-84695833D01*
X161766666Y-84729166D01*
X161666666Y-84729166D01*
X162133333Y-84262500D02*
X162300000Y-84729166D01*
X162466666Y-84262500D02*
X162300000Y-84729166D01*
X162233333Y-84895833D01*
X162200000Y-84929166D01*
X162133333Y-84962500D01*
X163033333Y-84729166D02*
X163033333Y-84362500D01*
X163000000Y-84295833D01*
X162933333Y-84262500D01*
X162800000Y-84262500D01*
X162733333Y-84295833D01*
X163033333Y-84695833D02*
X162966666Y-84729166D01*
X162800000Y-84729166D01*
X162733333Y-84695833D01*
X162700000Y-84629166D01*
X162700000Y-84562500D01*
X162733333Y-84495833D01*
X162800000Y-84462500D01*
X162966666Y-84462500D01*
X163033333Y-84429166D01*
X150816666Y-85437500D02*
X151083333Y-85437500D01*
X150916666Y-85204166D02*
X150916666Y-85804166D01*
X150950000Y-85870833D01*
X151016666Y-85904166D01*
X151083333Y-85904166D01*
X151583333Y-85870833D02*
X151516666Y-85904166D01*
X151383333Y-85904166D01*
X151316666Y-85870833D01*
X151283333Y-85804166D01*
X151283333Y-85537500D01*
X151316666Y-85470833D01*
X151383333Y-85437500D01*
X151516666Y-85437500D01*
X151583333Y-85470833D01*
X151616666Y-85537500D01*
X151616666Y-85604166D01*
X151283333Y-85670833D01*
X152016666Y-85904166D02*
X151950000Y-85870833D01*
X151916666Y-85804166D01*
X151916666Y-85204166D01*
X152283333Y-85904166D02*
X152283333Y-85437500D01*
X152283333Y-85504166D02*
X152316666Y-85470833D01*
X152383333Y-85437500D01*
X152483333Y-85437500D01*
X152550000Y-85470833D01*
X152583333Y-85537500D01*
X152583333Y-85904166D01*
X152583333Y-85537500D02*
X152616666Y-85470833D01*
X152683333Y-85437500D01*
X152783333Y-85437500D01*
X152850000Y-85470833D01*
X152883333Y-85537500D01*
X152883333Y-85904166D01*
X153316666Y-85904166D02*
X153250000Y-85870833D01*
X153216666Y-85837500D01*
X153183333Y-85770833D01*
X153183333Y-85570833D01*
X153216666Y-85504166D01*
X153250000Y-85470833D01*
X153316666Y-85437500D01*
X153416666Y-85437500D01*
X153483333Y-85470833D01*
X153516666Y-85504166D01*
X153550000Y-85570833D01*
X153550000Y-85770833D01*
X153516666Y-85837500D01*
X153483333Y-85870833D01*
X153416666Y-85904166D01*
X153316666Y-85904166D01*
X153850000Y-85904166D02*
X153850000Y-85437500D01*
X153850000Y-85504166D02*
X153883333Y-85470833D01*
X153950000Y-85437500D01*
X154050000Y-85437500D01*
X154116666Y-85470833D01*
X154150000Y-85537500D01*
X154150000Y-85904166D01*
X154150000Y-85537500D02*
X154183333Y-85470833D01*
X154250000Y-85437500D01*
X154350000Y-85437500D01*
X154416666Y-85470833D01*
X154450000Y-85537500D01*
X154450000Y-85904166D01*
X154883333Y-85904166D02*
X154816666Y-85870833D01*
X154783333Y-85837500D01*
X154750000Y-85770833D01*
X154750000Y-85570833D01*
X154783333Y-85504166D01*
X154816666Y-85470833D01*
X154883333Y-85437500D01*
X154983333Y-85437500D01*
X155050000Y-85470833D01*
X155083333Y-85504166D01*
X155116666Y-85570833D01*
X155116666Y-85770833D01*
X155083333Y-85837500D01*
X155050000Y-85870833D01*
X154983333Y-85904166D01*
X154883333Y-85904166D01*
X155350000Y-85437500D02*
X155516666Y-85904166D01*
X155683333Y-85437500D02*
X155516666Y-85904166D01*
X155450000Y-86070833D01*
X155416666Y-86104166D01*
X155350000Y-86137500D01*
X156250000Y-85904166D02*
X156250000Y-85537500D01*
X156216666Y-85470833D01*
X156150000Y-85437500D01*
X156016666Y-85437500D01*
X155950000Y-85470833D01*
X156250000Y-85870833D02*
X156183333Y-85904166D01*
X156016666Y-85904166D01*
X155950000Y-85870833D01*
X155916666Y-85804166D01*
X155916666Y-85737500D01*
X155950000Y-85670833D01*
X156016666Y-85637500D01*
X156183333Y-85637500D01*
X156250000Y-85604166D01*
X157016666Y-85570833D02*
X156983333Y-85537500D01*
X156916666Y-85504166D01*
X156850000Y-85504166D01*
X156783333Y-85537500D01*
X156750000Y-85570833D01*
X156716666Y-85637500D01*
X156716666Y-85704166D01*
X156750000Y-85770833D01*
X156783333Y-85804166D01*
X156850000Y-85837500D01*
X156916666Y-85837500D01*
X156983333Y-85804166D01*
X157016666Y-85770833D01*
X157016666Y-85504166D02*
X157016666Y-85770833D01*
X157050000Y-85804166D01*
X157083333Y-85804166D01*
X157150000Y-85770833D01*
X157183333Y-85704166D01*
X157183333Y-85537500D01*
X157116666Y-85437500D01*
X157016666Y-85370833D01*
X156883333Y-85337500D01*
X156750000Y-85370833D01*
X156650000Y-85437500D01*
X156583333Y-85537500D01*
X156550000Y-85670833D01*
X156583333Y-85804166D01*
X156650000Y-85904166D01*
X156750000Y-85970833D01*
X156883333Y-86004166D01*
X157016666Y-85970833D01*
X157116666Y-85904166D01*
X157783333Y-85437500D02*
X157783333Y-86004166D01*
X157750000Y-86070833D01*
X157716666Y-86104166D01*
X157650000Y-86137500D01*
X157550000Y-86137500D01*
X157483333Y-86104166D01*
X157783333Y-85870833D02*
X157716666Y-85904166D01*
X157583333Y-85904166D01*
X157516666Y-85870833D01*
X157483333Y-85837500D01*
X157450000Y-85770833D01*
X157450000Y-85570833D01*
X157483333Y-85504166D01*
X157516666Y-85470833D01*
X157583333Y-85437500D01*
X157716666Y-85437500D01*
X157783333Y-85470833D01*
X158116666Y-85904166D02*
X158116666Y-85437500D01*
X158116666Y-85504166D02*
X158150000Y-85470833D01*
X158216666Y-85437500D01*
X158316666Y-85437500D01*
X158383333Y-85470833D01*
X158416666Y-85537500D01*
X158416666Y-85904166D01*
X158416666Y-85537500D02*
X158450000Y-85470833D01*
X158516666Y-85437500D01*
X158616666Y-85437500D01*
X158683333Y-85470833D01*
X158716666Y-85537500D01*
X158716666Y-85904166D01*
X159350000Y-85904166D02*
X159350000Y-85537500D01*
X159316666Y-85470833D01*
X159250000Y-85437500D01*
X159116666Y-85437500D01*
X159050000Y-85470833D01*
X159350000Y-85870833D02*
X159283333Y-85904166D01*
X159116666Y-85904166D01*
X159050000Y-85870833D01*
X159016666Y-85804166D01*
X159016666Y-85737500D01*
X159050000Y-85670833D01*
X159116666Y-85637500D01*
X159283333Y-85637500D01*
X159350000Y-85604166D01*
X159683333Y-85904166D02*
X159683333Y-85437500D01*
X159683333Y-85204166D02*
X159650000Y-85237500D01*
X159683333Y-85270833D01*
X159716666Y-85237500D01*
X159683333Y-85204166D01*
X159683333Y-85270833D01*
X160116666Y-85904166D02*
X160050000Y-85870833D01*
X160016666Y-85804166D01*
X160016666Y-85204166D01*
X160383333Y-85837500D02*
X160416666Y-85870833D01*
X160383333Y-85904166D01*
X160350000Y-85870833D01*
X160383333Y-85837500D01*
X160383333Y-85904166D01*
X161016666Y-85870833D02*
X160950000Y-85904166D01*
X160816666Y-85904166D01*
X160750000Y-85870833D01*
X160716666Y-85837500D01*
X160683333Y-85770833D01*
X160683333Y-85570833D01*
X160716666Y-85504166D01*
X160750000Y-85470833D01*
X160816666Y-85437500D01*
X160950000Y-85437500D01*
X161016666Y-85470833D01*
X161416666Y-85904166D02*
X161350000Y-85870833D01*
X161316666Y-85837500D01*
X161283333Y-85770833D01*
X161283333Y-85570833D01*
X161316666Y-85504166D01*
X161350000Y-85470833D01*
X161416666Y-85437500D01*
X161516666Y-85437500D01*
X161583333Y-85470833D01*
X161616666Y-85504166D01*
X161650000Y-85570833D01*
X161650000Y-85770833D01*
X161616666Y-85837500D01*
X161583333Y-85870833D01*
X161516666Y-85904166D01*
X161416666Y-85904166D01*
X161950000Y-85904166D02*
X161950000Y-85437500D01*
X161950000Y-85504166D02*
X161983333Y-85470833D01*
X162050000Y-85437500D01*
X162150000Y-85437500D01*
X162216666Y-85470833D01*
X162250000Y-85537500D01*
X162250000Y-85904166D01*
X162250000Y-85537500D02*
X162283333Y-85470833D01*
X162350000Y-85437500D01*
X162450000Y-85437500D01*
X162516666Y-85470833D01*
X162550000Y-85537500D01*
X162550000Y-85904166D01*
X148149999Y-79710714D02*
X148449999Y-79710714D01*
X148578571Y-80182142D02*
X148149999Y-80182142D01*
X148149999Y-79282142D01*
X148578571Y-79282142D01*
X149092857Y-80182142D02*
X149007142Y-80139285D01*
X148964285Y-80053571D01*
X148964285Y-79282142D01*
X149778571Y-80139285D02*
X149692857Y-80182142D01*
X149521428Y-80182142D01*
X149435714Y-80139285D01*
X149392857Y-80053571D01*
X149392857Y-79710714D01*
X149435714Y-79625000D01*
X149521428Y-79582142D01*
X149692857Y-79582142D01*
X149778571Y-79625000D01*
X149821428Y-79710714D01*
X149821428Y-79796428D01*
X149392857Y-79882142D01*
X150592857Y-80139285D02*
X150507142Y-80182142D01*
X150335714Y-80182142D01*
X150249999Y-80139285D01*
X150207142Y-80096428D01*
X150164285Y-80010714D01*
X150164285Y-79753571D01*
X150207142Y-79667857D01*
X150249999Y-79625000D01*
X150335714Y-79582142D01*
X150507142Y-79582142D01*
X150592857Y-79625000D01*
X150849999Y-79582142D02*
X151192857Y-79582142D01*
X150978571Y-79282142D02*
X150978571Y-80053571D01*
X151021428Y-80139285D01*
X151107142Y-80182142D01*
X151192857Y-80182142D01*
X151492857Y-80182142D02*
X151492857Y-79582142D01*
X151492857Y-79753571D02*
X151535714Y-79667857D01*
X151578571Y-79625000D01*
X151664285Y-79582142D01*
X151749999Y-79582142D01*
X152178571Y-80182142D02*
X152092857Y-80139285D01*
X152049999Y-80096428D01*
X152007142Y-80010714D01*
X152007142Y-79753571D01*
X152049999Y-79667857D01*
X152092857Y-79625000D01*
X152178571Y-79582142D01*
X152307142Y-79582142D01*
X152392857Y-79625000D01*
X152435714Y-79667857D01*
X152478571Y-79753571D01*
X152478571Y-80010714D01*
X152435714Y-80096428D01*
X152392857Y-80139285D01*
X152307142Y-80182142D01*
X152178571Y-80182142D01*
X153249999Y-80182142D02*
X153249999Y-79282142D01*
X153249999Y-80139285D02*
X153164285Y-80182142D01*
X152992857Y-80182142D01*
X152907142Y-80139285D01*
X152864285Y-80096428D01*
X152821428Y-80010714D01*
X152821428Y-79753571D01*
X152864285Y-79667857D01*
X152907142Y-79625000D01*
X152992857Y-79582142D01*
X153164285Y-79582142D01*
X153249999Y-79625000D01*
X153807142Y-80182142D02*
X153721428Y-80139285D01*
X153678571Y-80096428D01*
X153635714Y-80010714D01*
X153635714Y-79753571D01*
X153678571Y-79667857D01*
X153721428Y-79625000D01*
X153807142Y-79582142D01*
X153935714Y-79582142D01*
X154021428Y-79625000D01*
X154064285Y-79667857D01*
X154107142Y-79753571D01*
X154107142Y-80010714D01*
X154064285Y-80096428D01*
X154021428Y-80139285D01*
X153935714Y-80182142D01*
X153807142Y-80182142D01*
X155135714Y-79925000D02*
X155564285Y-79925000D01*
X155049999Y-80182142D02*
X155349999Y-79282142D01*
X155649999Y-80182142D01*
X156335714Y-80139285D02*
X156249999Y-80182142D01*
X156078571Y-80182142D01*
X155992857Y-80139285D01*
X155949999Y-80096428D01*
X155907142Y-80010714D01*
X155907142Y-79753571D01*
X155949999Y-79667857D01*
X155992857Y-79625000D01*
X156078571Y-79582142D01*
X156249999Y-79582142D01*
X156335714Y-79625000D01*
X156592857Y-79582142D02*
X156935714Y-79582142D01*
X156721428Y-79282142D02*
X156721428Y-80053571D01*
X156764285Y-80139285D01*
X156849999Y-80182142D01*
X156935714Y-80182142D01*
X157235714Y-80182142D02*
X157235714Y-79582142D01*
X157235714Y-79282142D02*
X157192857Y-79325000D01*
X157235714Y-79367857D01*
X157278571Y-79325000D01*
X157235714Y-79282142D01*
X157235714Y-79367857D01*
X157578571Y-79582142D02*
X157792857Y-80182142D01*
X158007142Y-79582142D01*
X158478571Y-80182142D02*
X158392857Y-80139285D01*
X158349999Y-80096428D01*
X158307142Y-80010714D01*
X158307142Y-79753571D01*
X158349999Y-79667857D01*
X158392857Y-79625000D01*
X158478571Y-79582142D01*
X158607142Y-79582142D01*
X158692857Y-79625000D01*
X158735714Y-79667857D01*
X158778571Y-79753571D01*
X158778571Y-80010714D01*
X158735714Y-80096428D01*
X158692857Y-80139285D01*
X158607142Y-80182142D01*
X158478571Y-80182142D01*
X159849999Y-79582142D02*
X159849999Y-80482142D01*
X159849999Y-79625000D02*
X159935714Y-79582142D01*
X160107142Y-79582142D01*
X160192857Y-79625000D01*
X160235714Y-79667857D01*
X160278571Y-79753571D01*
X160278571Y-80010714D01*
X160235714Y-80096428D01*
X160192857Y-80139285D01*
X160107142Y-80182142D01*
X159935714Y-80182142D01*
X159849999Y-80139285D01*
X161049999Y-80182142D02*
X161049999Y-79710714D01*
X161007142Y-79625000D01*
X160921428Y-79582142D01*
X160749999Y-79582142D01*
X160664285Y-79625000D01*
X161049999Y-80139285D02*
X160964285Y-80182142D01*
X160749999Y-80182142D01*
X160664285Y-80139285D01*
X160621428Y-80053571D01*
X160621428Y-79967857D01*
X160664285Y-79882142D01*
X160749999Y-79839285D01*
X160964285Y-79839285D01*
X161049999Y-79796428D01*
X161478571Y-80182142D02*
X161478571Y-79582142D01*
X161478571Y-79753571D02*
X161521428Y-79667857D01*
X161564285Y-79625000D01*
X161649999Y-79582142D01*
X161735714Y-79582142D01*
X162421428Y-80182142D02*
X162421428Y-79710714D01*
X162378571Y-79625000D01*
X162292857Y-79582142D01*
X162121428Y-79582142D01*
X162035714Y-79625000D01*
X162421428Y-80139285D02*
X162335714Y-80182142D01*
X162121428Y-80182142D01*
X162035714Y-80139285D01*
X161992857Y-80053571D01*
X161992857Y-79967857D01*
X162035714Y-79882142D01*
X162121428Y-79839285D01*
X162335714Y-79839285D01*
X162421428Y-79796428D01*
X163535714Y-79710714D02*
X163835714Y-79710714D01*
X163964285Y-80182142D02*
X163535714Y-80182142D01*
X163535714Y-79282142D01*
X163964285Y-79282142D01*
X164349999Y-80182142D02*
X164349999Y-79282142D01*
X164649999Y-79925000D01*
X164949999Y-79282142D01*
X164949999Y-80182142D01*
X165850000Y-79325000D02*
X165764285Y-79282142D01*
X165635714Y-79282142D01*
X165507142Y-79325000D01*
X165421428Y-79410714D01*
X165378571Y-79496428D01*
X165335714Y-79667857D01*
X165335714Y-79796428D01*
X165378571Y-79967857D01*
X165421428Y-80053571D01*
X165507142Y-80139285D01*
X165635714Y-80182142D01*
X165721428Y-80182142D01*
X165850000Y-80139285D01*
X165892857Y-80096428D01*
X165892857Y-79796428D01*
X165721428Y-79796428D01*
X152200000Y-80757142D02*
X152500000Y-81657142D01*
X152800000Y-80757142D01*
X153571428Y-81657142D02*
X153057142Y-81657142D01*
X153314285Y-81657142D02*
X153314285Y-80757142D01*
X153228571Y-80885714D01*
X153142857Y-80971428D01*
X153057142Y-81014285D01*
X153957142Y-81571428D02*
X154000000Y-81614285D01*
X153957142Y-81657142D01*
X153914285Y-81614285D01*
X153957142Y-81571428D01*
X153957142Y-81657142D01*
X154557142Y-80757142D02*
X154642857Y-80757142D01*
X154728571Y-80800000D01*
X154771428Y-80842857D01*
X154814285Y-80928571D01*
X154857142Y-81100000D01*
X154857142Y-81314285D01*
X154814285Y-81485714D01*
X154771428Y-81571428D01*
X154728571Y-81614285D01*
X154642857Y-81657142D01*
X154557142Y-81657142D01*
X154471428Y-81614285D01*
X154428571Y-81571428D01*
X154385714Y-81485714D01*
X154342857Y-81314285D01*
X154342857Y-81100000D01*
X154385714Y-80928571D01*
X154428571Y-80842857D01*
X154471428Y-80800000D01*
X154557142Y-80757142D01*
X155928571Y-81314285D02*
X156614285Y-81314285D01*
X157900000Y-80757142D02*
X157985714Y-80757142D01*
X158071428Y-80800000D01*
X158114285Y-80842857D01*
X158157142Y-80928571D01*
X158200000Y-81100000D01*
X158200000Y-81314285D01*
X158157142Y-81485714D01*
X158114285Y-81571428D01*
X158071428Y-81614285D01*
X157985714Y-81657142D01*
X157900000Y-81657142D01*
X157814285Y-81614285D01*
X157771428Y-81571428D01*
X157728571Y-81485714D01*
X157685714Y-81314285D01*
X157685714Y-81100000D01*
X157728571Y-80928571D01*
X157771428Y-80842857D01*
X157814285Y-80800000D01*
X157900000Y-80757142D01*
X158628571Y-81657142D02*
X158800000Y-81657142D01*
X158885714Y-81614285D01*
X158928571Y-81571428D01*
X159014285Y-81442857D01*
X159057142Y-81271428D01*
X159057142Y-80928571D01*
X159014285Y-80842857D01*
X158971428Y-80800000D01*
X158885714Y-80757142D01*
X158714285Y-80757142D01*
X158628571Y-80800000D01*
X158585714Y-80842857D01*
X158542857Y-80928571D01*
X158542857Y-81142857D01*
X158585714Y-81228571D01*
X158628571Y-81271428D01*
X158714285Y-81314285D01*
X158885714Y-81314285D01*
X158971428Y-81271428D01*
X159014285Y-81228571D01*
X159057142Y-81142857D01*
X160085714Y-80714285D02*
X159314285Y-81871428D01*
X160857142Y-81657142D02*
X160342857Y-81657142D01*
X160600000Y-81657142D02*
X160600000Y-80757142D01*
X160514285Y-80885714D01*
X160428571Y-80971428D01*
X160342857Y-81014285D01*
X161371428Y-81142857D02*
X161285714Y-81100000D01*
X161242857Y-81057142D01*
X161200000Y-80971428D01*
X161200000Y-80928571D01*
X161242857Y-80842857D01*
X161285714Y-80800000D01*
X161371428Y-80757142D01*
X161542857Y-80757142D01*
X161628571Y-80800000D01*
X161671428Y-80842857D01*
X161714285Y-80928571D01*
X161714285Y-80971428D01*
X161671428Y-81057142D01*
X161628571Y-81100000D01*
X161542857Y-81142857D01*
X161371428Y-81142857D01*
X161285714Y-81185714D01*
X161242857Y-81228571D01*
X161200000Y-81314285D01*
X161200000Y-81485714D01*
X161242857Y-81571428D01*
X161285714Y-81614285D01*
X161371428Y-81657142D01*
X161542857Y-81657142D01*
X161628571Y-81614285D01*
X161671428Y-81571428D01*
X161714285Y-81485714D01*
X161714285Y-81314285D01*
X161671428Y-81228571D01*
X161628571Y-81185714D01*
X161542857Y-81142857D01*
X151428571Y-83046428D02*
X151385714Y-83089285D01*
X151257142Y-83132142D01*
X151171428Y-83132142D01*
X151042857Y-83089285D01*
X150957142Y-83003571D01*
X150914285Y-82917857D01*
X150871428Y-82746428D01*
X150871428Y-82617857D01*
X150914285Y-82446428D01*
X150957142Y-82360714D01*
X151042857Y-82275000D01*
X151171428Y-82232142D01*
X151257142Y-82232142D01*
X151385714Y-82275000D01*
X151428571Y-82317857D01*
X151814285Y-82660714D02*
X152114285Y-82660714D01*
X152242857Y-83132142D02*
X151814285Y-83132142D01*
X151814285Y-82232142D01*
X152242857Y-82232142D01*
X152585714Y-83089285D02*
X152714285Y-83132142D01*
X152928571Y-83132142D01*
X153014285Y-83089285D01*
X153057142Y-83046428D01*
X153100000Y-82960714D01*
X153100000Y-82875000D01*
X153057142Y-82789285D01*
X153014285Y-82746428D01*
X152928571Y-82703571D01*
X152757142Y-82660714D01*
X152671428Y-82617857D01*
X152628571Y-82575000D01*
X152585714Y-82489285D01*
X152585714Y-82403571D01*
X152628571Y-82317857D01*
X152671428Y-82275000D01*
X152757142Y-82232142D01*
X152971428Y-82232142D01*
X153100000Y-82275000D01*
X153485714Y-82660714D02*
X153785714Y-82660714D01*
X153914285Y-83132142D02*
X153485714Y-83132142D01*
X153485714Y-82232142D01*
X153914285Y-82232142D01*
X154942857Y-82317857D02*
X154985714Y-82275000D01*
X155071428Y-82232142D01*
X155285714Y-82232142D01*
X155371428Y-82275000D01*
X155414285Y-82317857D01*
X155457142Y-82403571D01*
X155457142Y-82489285D01*
X155414285Y-82617857D01*
X154900000Y-83132142D01*
X155457142Y-83132142D01*
X156014285Y-82232142D02*
X156100000Y-82232142D01*
X156185714Y-82275000D01*
X156228571Y-82317857D01*
X156271428Y-82403571D01*
X156314285Y-82575000D01*
X156314285Y-82789285D01*
X156271428Y-82960714D01*
X156228571Y-83046428D01*
X156185714Y-83089285D01*
X156100000Y-83132142D01*
X156014285Y-83132142D01*
X155928571Y-83089285D01*
X155885714Y-83046428D01*
X155842857Y-82960714D01*
X155800000Y-82789285D01*
X155800000Y-82575000D01*
X155842857Y-82403571D01*
X155885714Y-82317857D01*
X155928571Y-82275000D01*
X156014285Y-82232142D01*
X157171428Y-83132142D02*
X156657142Y-83132142D01*
X156914285Y-83132142D02*
X156914285Y-82232142D01*
X156828571Y-82360714D01*
X156742857Y-82446428D01*
X156657142Y-82489285D01*
X157685714Y-82617857D02*
X157600000Y-82575000D01*
X157557142Y-82532142D01*
X157514285Y-82446428D01*
X157514285Y-82403571D01*
X157557142Y-82317857D01*
X157600000Y-82275000D01*
X157685714Y-82232142D01*
X157857142Y-82232142D01*
X157942857Y-82275000D01*
X157985714Y-82317857D01*
X158028571Y-82403571D01*
X158028571Y-82446428D01*
X157985714Y-82532142D01*
X157942857Y-82575000D01*
X157857142Y-82617857D01*
X157685714Y-82617857D01*
X157600000Y-82660714D01*
X157557142Y-82703571D01*
X157514285Y-82789285D01*
X157514285Y-82960714D01*
X157557142Y-83046428D01*
X157600000Y-83089285D01*
X157685714Y-83132142D01*
X157857142Y-83132142D01*
X157942857Y-83089285D01*
X157985714Y-83046428D01*
X158028571Y-82960714D01*
X158028571Y-82789285D01*
X157985714Y-82703571D01*
X157942857Y-82660714D01*
X157857142Y-82617857D01*
X159100000Y-82789285D02*
X159785714Y-82789285D01*
X160900000Y-82232142D02*
X160900000Y-82960714D01*
X160942857Y-83046428D01*
X160985714Y-83089285D01*
X161071428Y-83132142D01*
X161242857Y-83132142D01*
X161328571Y-83089285D01*
X161371428Y-83046428D01*
X161414285Y-82960714D01*
X161414285Y-82232142D01*
X162142857Y-82660714D02*
X162271428Y-82703571D01*
X162314285Y-82746428D01*
X162357142Y-82832142D01*
X162357142Y-82960714D01*
X162314285Y-83046428D01*
X162271428Y-83089285D01*
X162185714Y-83132142D01*
X161842857Y-83132142D01*
X161842857Y-82232142D01*
X162142857Y-82232142D01*
X162228571Y-82275000D01*
X162271428Y-82317857D01*
X162314285Y-82403571D01*
X162314285Y-82489285D01*
X162271428Y-82575000D01*
X162228571Y-82617857D01*
X162142857Y-82660714D01*
X161842857Y-82660714D01*
X162700000Y-82875000D02*
X163128571Y-82875000D01*
X162614285Y-83132142D02*
X162914285Y-82232142D01*
X163214285Y-83132142D01*
D11*
X167000000Y-44000000D02*
X147000000Y-44000000D01*
X167000000Y-96000000D02*
X167000000Y-44000000D01*
X147000000Y-96000000D02*
X167000000Y-96000000D01*
X147000000Y-44000000D02*
X147000000Y-96000000D01*
D12*
G04 #@! TO.C,REF\002A\002A*
G36*
X157353910Y-72992348D02*
X157432454Y-72992778D01*
X157489298Y-72993942D01*
X157528105Y-72996207D01*
X157552538Y-72999940D01*
X157566262Y-73005506D01*
X157572940Y-73013273D01*
X157576236Y-73023605D01*
X157576556Y-73024943D01*
X157581562Y-73049079D01*
X157590829Y-73096701D01*
X157603392Y-73162741D01*
X157618287Y-73242128D01*
X157634551Y-73329796D01*
X157635119Y-73332875D01*
X157651410Y-73418789D01*
X157666652Y-73494696D01*
X157679861Y-73556045D01*
X157690054Y-73598282D01*
X157696248Y-73616855D01*
X157696543Y-73617184D01*
X157714788Y-73626253D01*
X157752405Y-73641367D01*
X157801271Y-73659262D01*
X157801543Y-73659358D01*
X157863093Y-73682493D01*
X157935657Y-73711965D01*
X158004057Y-73741597D01*
X158007294Y-73743062D01*
X158118702Y-73793626D01*
X158365399Y-73625160D01*
X158441077Y-73573803D01*
X158509631Y-73527889D01*
X158567088Y-73490030D01*
X158609476Y-73462837D01*
X158632825Y-73448921D01*
X158635042Y-73447889D01*
X158652010Y-73452484D01*
X158683701Y-73474655D01*
X158731352Y-73515447D01*
X158796198Y-73575905D01*
X158862397Y-73640227D01*
X158926214Y-73703612D01*
X158983329Y-73761451D01*
X159030305Y-73810175D01*
X159063703Y-73846210D01*
X159080085Y-73865984D01*
X159080694Y-73867002D01*
X159082505Y-73880572D01*
X159075683Y-73902733D01*
X159058540Y-73936478D01*
X159029393Y-73984800D01*
X158986555Y-74050692D01*
X158929448Y-74135517D01*
X158878766Y-74210177D01*
X158833461Y-74277140D01*
X158796150Y-74332516D01*
X158769452Y-74372420D01*
X158755985Y-74392962D01*
X158755137Y-74394356D01*
X158756781Y-74414038D01*
X158769245Y-74452293D01*
X158790048Y-74501889D01*
X158797462Y-74517728D01*
X158829814Y-74588290D01*
X158864328Y-74668353D01*
X158892365Y-74737629D01*
X158912568Y-74789045D01*
X158928615Y-74828119D01*
X158937888Y-74848541D01*
X158939041Y-74850114D01*
X158956096Y-74852721D01*
X158996298Y-74859863D01*
X159054302Y-74870523D01*
X159124763Y-74883685D01*
X159202335Y-74898333D01*
X159281672Y-74913449D01*
X159357431Y-74928018D01*
X159424264Y-74941022D01*
X159476828Y-74951445D01*
X159509776Y-74958270D01*
X159517857Y-74960199D01*
X159526205Y-74964962D01*
X159532506Y-74975718D01*
X159537045Y-74996098D01*
X159540104Y-75029734D01*
X159541967Y-75080255D01*
X159542918Y-75151292D01*
X159543240Y-75246476D01*
X159543257Y-75285492D01*
X159543257Y-75602799D01*
X159467057Y-75617839D01*
X159424663Y-75625995D01*
X159361400Y-75637899D01*
X159284962Y-75652116D01*
X159203043Y-75667210D01*
X159180400Y-75671355D01*
X159104806Y-75686053D01*
X159038953Y-75700505D01*
X158988366Y-75713375D01*
X158958574Y-75723322D01*
X158953612Y-75726287D01*
X158941426Y-75747283D01*
X158923953Y-75787967D01*
X158904577Y-75840322D01*
X158900734Y-75851600D01*
X158875339Y-75921523D01*
X158843817Y-76000418D01*
X158812969Y-76071266D01*
X158812817Y-76071595D01*
X158761447Y-76182733D01*
X158930399Y-76431253D01*
X159099352Y-76679772D01*
X158882429Y-76897058D01*
X158816819Y-76961726D01*
X158756979Y-77018733D01*
X158706267Y-77065033D01*
X158668046Y-77097584D01*
X158645675Y-77113343D01*
X158642466Y-77114343D01*
X158623626Y-77106469D01*
X158585180Y-77084578D01*
X158531330Y-77051267D01*
X158466276Y-77009131D01*
X158395940Y-76961943D01*
X158324555Y-76913810D01*
X158260908Y-76871928D01*
X158209041Y-76838871D01*
X158172995Y-76817218D01*
X158156867Y-76809543D01*
X158137189Y-76816037D01*
X158099875Y-76833150D01*
X158052621Y-76857326D01*
X158047612Y-76860013D01*
X157983977Y-76891927D01*
X157940341Y-76907579D01*
X157913202Y-76907745D01*
X157899057Y-76893204D01*
X157898975Y-76893000D01*
X157891905Y-76875779D01*
X157875042Y-76834899D01*
X157849695Y-76773525D01*
X157817171Y-76694819D01*
X157778778Y-76601947D01*
X157735822Y-76498072D01*
X157694222Y-76397502D01*
X157648504Y-76286516D01*
X157606526Y-76183703D01*
X157569548Y-76092215D01*
X157538827Y-76015201D01*
X157515622Y-75955815D01*
X157501190Y-75917209D01*
X157496743Y-75902800D01*
X157507896Y-75886272D01*
X157537069Y-75859930D01*
X157575971Y-75830887D01*
X157686757Y-75739039D01*
X157773351Y-75633759D01*
X157834716Y-75517266D01*
X157869815Y-75391776D01*
X157877608Y-75259507D01*
X157871943Y-75198457D01*
X157841078Y-75071795D01*
X157787920Y-74959941D01*
X157715767Y-74864001D01*
X157627917Y-74785076D01*
X157527665Y-74724270D01*
X157418310Y-74682687D01*
X157303147Y-74661428D01*
X157185475Y-74661599D01*
X157068590Y-74684301D01*
X156955789Y-74730638D01*
X156850369Y-74801713D01*
X156806368Y-74841911D01*
X156721979Y-74945129D01*
X156663222Y-75057925D01*
X156629704Y-75177010D01*
X156621035Y-75299095D01*
X156636823Y-75420893D01*
X156676678Y-75539116D01*
X156740207Y-75650475D01*
X156827021Y-75751684D01*
X156924029Y-75830887D01*
X156964437Y-75861162D01*
X156992982Y-75887219D01*
X157003257Y-75902825D01*
X156997877Y-75919843D01*
X156982575Y-75960500D01*
X156958612Y-76021642D01*
X156927244Y-76100119D01*
X156889732Y-76192780D01*
X156847333Y-76296472D01*
X156805663Y-76397526D01*
X156759690Y-76508607D01*
X156717107Y-76611541D01*
X156679221Y-76703165D01*
X156647340Y-76780316D01*
X156622771Y-76839831D01*
X156606820Y-76878544D01*
X156600910Y-76893000D01*
X156586948Y-76907685D01*
X156559940Y-76907642D01*
X156516413Y-76892099D01*
X156452890Y-76860284D01*
X156452388Y-76860013D01*
X156404560Y-76835323D01*
X156365897Y-76817338D01*
X156344095Y-76809614D01*
X156343133Y-76809543D01*
X156326721Y-76817378D01*
X156290487Y-76839165D01*
X156238474Y-76872328D01*
X156174725Y-76914291D01*
X156104060Y-76961943D01*
X156032116Y-77010191D01*
X155967274Y-77052151D01*
X155913735Y-77085227D01*
X155875697Y-77106821D01*
X155857533Y-77114343D01*
X155840808Y-77104457D01*
X155807180Y-77076826D01*
X155760010Y-77034495D01*
X155702658Y-76980505D01*
X155638484Y-76917899D01*
X155617497Y-76896983D01*
X155400499Y-76679623D01*
X155565668Y-76437220D01*
X155615864Y-76362781D01*
X155659919Y-76295972D01*
X155695362Y-76240665D01*
X155719719Y-76200729D01*
X155730522Y-76180036D01*
X155730838Y-76178563D01*
X155725143Y-76159058D01*
X155709826Y-76119822D01*
X155687537Y-76067430D01*
X155671893Y-76032355D01*
X155642641Y-75965201D01*
X155615094Y-75897358D01*
X155593737Y-75840034D01*
X155587935Y-75822572D01*
X155571452Y-75775938D01*
X155555340Y-75739905D01*
X155546490Y-75726287D01*
X155526960Y-75717952D01*
X155484334Y-75706137D01*
X155424145Y-75692181D01*
X155351922Y-75677422D01*
X155319600Y-75671355D01*
X155237522Y-75656273D01*
X155158795Y-75641669D01*
X155091109Y-75628980D01*
X155042160Y-75619642D01*
X155032943Y-75617839D01*
X154956743Y-75602799D01*
X154956743Y-75285492D01*
X154956914Y-75181154D01*
X154957616Y-75102213D01*
X154959134Y-75045038D01*
X154961749Y-75005999D01*
X154965746Y-74981465D01*
X154971409Y-74967805D01*
X154979020Y-74961389D01*
X154982143Y-74960199D01*
X155000978Y-74955980D01*
X155042588Y-74947562D01*
X155101630Y-74935961D01*
X155172757Y-74922195D01*
X155250625Y-74907280D01*
X155329887Y-74892232D01*
X155405198Y-74878069D01*
X155471213Y-74865806D01*
X155522587Y-74856461D01*
X155553975Y-74851050D01*
X155560959Y-74850114D01*
X155567285Y-74837596D01*
X155581290Y-74804246D01*
X155600355Y-74756377D01*
X155607634Y-74737629D01*
X155636996Y-74665195D01*
X155671571Y-74585170D01*
X155702537Y-74517728D01*
X155725323Y-74466159D01*
X155740482Y-74423785D01*
X155745542Y-74397834D01*
X155744736Y-74394356D01*
X155734041Y-74377936D01*
X155709620Y-74341417D01*
X155674095Y-74288687D01*
X155630087Y-74223635D01*
X155580217Y-74150151D01*
X155570356Y-74135645D01*
X155512492Y-74049704D01*
X155469956Y-73984261D01*
X155441054Y-73936304D01*
X155424090Y-73902820D01*
X155417367Y-73880795D01*
X155419190Y-73867217D01*
X155419236Y-73867131D01*
X155433586Y-73849297D01*
X155465323Y-73814817D01*
X155511010Y-73767268D01*
X155567204Y-73710222D01*
X155630468Y-73647255D01*
X155637602Y-73640227D01*
X155717330Y-73563020D01*
X155778857Y-73506330D01*
X155823421Y-73469110D01*
X155852257Y-73450315D01*
X155864958Y-73447889D01*
X155883494Y-73458471D01*
X155921961Y-73482916D01*
X155976386Y-73518612D01*
X156042798Y-73562947D01*
X156117225Y-73613311D01*
X156134601Y-73625160D01*
X156381297Y-73793626D01*
X156492706Y-73743062D01*
X156560457Y-73713595D01*
X156633183Y-73683959D01*
X156695703Y-73660330D01*
X156698457Y-73659358D01*
X156747360Y-73641457D01*
X156785057Y-73626320D01*
X156803425Y-73617210D01*
X156803456Y-73617184D01*
X156809285Y-73600717D01*
X156819192Y-73560219D01*
X156832195Y-73500242D01*
X156847309Y-73425340D01*
X156863552Y-73340064D01*
X156864881Y-73332875D01*
X156881175Y-73245014D01*
X156896133Y-73165260D01*
X156908791Y-73098681D01*
X156918186Y-73050347D01*
X156923354Y-73025325D01*
X156923444Y-73024943D01*
X156926589Y-73014299D01*
X156932704Y-73006262D01*
X156945453Y-73000467D01*
X156968500Y-72996547D01*
X157005509Y-72994135D01*
X157060144Y-72992865D01*
X157136067Y-72992371D01*
X157236944Y-72992286D01*
X157250000Y-72992286D01*
X157353910Y-72992348D01*
X157353910Y-72992348D01*
G37*
X157353910Y-72992348D02*
X157432454Y-72992778D01*
X157489298Y-72993942D01*
X157528105Y-72996207D01*
X157552538Y-72999940D01*
X157566262Y-73005506D01*
X157572940Y-73013273D01*
X157576236Y-73023605D01*
X157576556Y-73024943D01*
X157581562Y-73049079D01*
X157590829Y-73096701D01*
X157603392Y-73162741D01*
X157618287Y-73242128D01*
X157634551Y-73329796D01*
X157635119Y-73332875D01*
X157651410Y-73418789D01*
X157666652Y-73494696D01*
X157679861Y-73556045D01*
X157690054Y-73598282D01*
X157696248Y-73616855D01*
X157696543Y-73617184D01*
X157714788Y-73626253D01*
X157752405Y-73641367D01*
X157801271Y-73659262D01*
X157801543Y-73659358D01*
X157863093Y-73682493D01*
X157935657Y-73711965D01*
X158004057Y-73741597D01*
X158007294Y-73743062D01*
X158118702Y-73793626D01*
X158365399Y-73625160D01*
X158441077Y-73573803D01*
X158509631Y-73527889D01*
X158567088Y-73490030D01*
X158609476Y-73462837D01*
X158632825Y-73448921D01*
X158635042Y-73447889D01*
X158652010Y-73452484D01*
X158683701Y-73474655D01*
X158731352Y-73515447D01*
X158796198Y-73575905D01*
X158862397Y-73640227D01*
X158926214Y-73703612D01*
X158983329Y-73761451D01*
X159030305Y-73810175D01*
X159063703Y-73846210D01*
X159080085Y-73865984D01*
X159080694Y-73867002D01*
X159082505Y-73880572D01*
X159075683Y-73902733D01*
X159058540Y-73936478D01*
X159029393Y-73984800D01*
X158986555Y-74050692D01*
X158929448Y-74135517D01*
X158878766Y-74210177D01*
X158833461Y-74277140D01*
X158796150Y-74332516D01*
X158769452Y-74372420D01*
X158755985Y-74392962D01*
X158755137Y-74394356D01*
X158756781Y-74414038D01*
X158769245Y-74452293D01*
X158790048Y-74501889D01*
X158797462Y-74517728D01*
X158829814Y-74588290D01*
X158864328Y-74668353D01*
X158892365Y-74737629D01*
X158912568Y-74789045D01*
X158928615Y-74828119D01*
X158937888Y-74848541D01*
X158939041Y-74850114D01*
X158956096Y-74852721D01*
X158996298Y-74859863D01*
X159054302Y-74870523D01*
X159124763Y-74883685D01*
X159202335Y-74898333D01*
X159281672Y-74913449D01*
X159357431Y-74928018D01*
X159424264Y-74941022D01*
X159476828Y-74951445D01*
X159509776Y-74958270D01*
X159517857Y-74960199D01*
X159526205Y-74964962D01*
X159532506Y-74975718D01*
X159537045Y-74996098D01*
X159540104Y-75029734D01*
X159541967Y-75080255D01*
X159542918Y-75151292D01*
X159543240Y-75246476D01*
X159543257Y-75285492D01*
X159543257Y-75602799D01*
X159467057Y-75617839D01*
X159424663Y-75625995D01*
X159361400Y-75637899D01*
X159284962Y-75652116D01*
X159203043Y-75667210D01*
X159180400Y-75671355D01*
X159104806Y-75686053D01*
X159038953Y-75700505D01*
X158988366Y-75713375D01*
X158958574Y-75723322D01*
X158953612Y-75726287D01*
X158941426Y-75747283D01*
X158923953Y-75787967D01*
X158904577Y-75840322D01*
X158900734Y-75851600D01*
X158875339Y-75921523D01*
X158843817Y-76000418D01*
X158812969Y-76071266D01*
X158812817Y-76071595D01*
X158761447Y-76182733D01*
X158930399Y-76431253D01*
X159099352Y-76679772D01*
X158882429Y-76897058D01*
X158816819Y-76961726D01*
X158756979Y-77018733D01*
X158706267Y-77065033D01*
X158668046Y-77097584D01*
X158645675Y-77113343D01*
X158642466Y-77114343D01*
X158623626Y-77106469D01*
X158585180Y-77084578D01*
X158531330Y-77051267D01*
X158466276Y-77009131D01*
X158395940Y-76961943D01*
X158324555Y-76913810D01*
X158260908Y-76871928D01*
X158209041Y-76838871D01*
X158172995Y-76817218D01*
X158156867Y-76809543D01*
X158137189Y-76816037D01*
X158099875Y-76833150D01*
X158052621Y-76857326D01*
X158047612Y-76860013D01*
X157983977Y-76891927D01*
X157940341Y-76907579D01*
X157913202Y-76907745D01*
X157899057Y-76893204D01*
X157898975Y-76893000D01*
X157891905Y-76875779D01*
X157875042Y-76834899D01*
X157849695Y-76773525D01*
X157817171Y-76694819D01*
X157778778Y-76601947D01*
X157735822Y-76498072D01*
X157694222Y-76397502D01*
X157648504Y-76286516D01*
X157606526Y-76183703D01*
X157569548Y-76092215D01*
X157538827Y-76015201D01*
X157515622Y-75955815D01*
X157501190Y-75917209D01*
X157496743Y-75902800D01*
X157507896Y-75886272D01*
X157537069Y-75859930D01*
X157575971Y-75830887D01*
X157686757Y-75739039D01*
X157773351Y-75633759D01*
X157834716Y-75517266D01*
X157869815Y-75391776D01*
X157877608Y-75259507D01*
X157871943Y-75198457D01*
X157841078Y-75071795D01*
X157787920Y-74959941D01*
X157715767Y-74864001D01*
X157627917Y-74785076D01*
X157527665Y-74724270D01*
X157418310Y-74682687D01*
X157303147Y-74661428D01*
X157185475Y-74661599D01*
X157068590Y-74684301D01*
X156955789Y-74730638D01*
X156850369Y-74801713D01*
X156806368Y-74841911D01*
X156721979Y-74945129D01*
X156663222Y-75057925D01*
X156629704Y-75177010D01*
X156621035Y-75299095D01*
X156636823Y-75420893D01*
X156676678Y-75539116D01*
X156740207Y-75650475D01*
X156827021Y-75751684D01*
X156924029Y-75830887D01*
X156964437Y-75861162D01*
X156992982Y-75887219D01*
X157003257Y-75902825D01*
X156997877Y-75919843D01*
X156982575Y-75960500D01*
X156958612Y-76021642D01*
X156927244Y-76100119D01*
X156889732Y-76192780D01*
X156847333Y-76296472D01*
X156805663Y-76397526D01*
X156759690Y-76508607D01*
X156717107Y-76611541D01*
X156679221Y-76703165D01*
X156647340Y-76780316D01*
X156622771Y-76839831D01*
X156606820Y-76878544D01*
X156600910Y-76893000D01*
X156586948Y-76907685D01*
X156559940Y-76907642D01*
X156516413Y-76892099D01*
X156452890Y-76860284D01*
X156452388Y-76860013D01*
X156404560Y-76835323D01*
X156365897Y-76817338D01*
X156344095Y-76809614D01*
X156343133Y-76809543D01*
X156326721Y-76817378D01*
X156290487Y-76839165D01*
X156238474Y-76872328D01*
X156174725Y-76914291D01*
X156104060Y-76961943D01*
X156032116Y-77010191D01*
X155967274Y-77052151D01*
X155913735Y-77085227D01*
X155875697Y-77106821D01*
X155857533Y-77114343D01*
X155840808Y-77104457D01*
X155807180Y-77076826D01*
X155760010Y-77034495D01*
X155702658Y-76980505D01*
X155638484Y-76917899D01*
X155617497Y-76896983D01*
X155400499Y-76679623D01*
X155565668Y-76437220D01*
X155615864Y-76362781D01*
X155659919Y-76295972D01*
X155695362Y-76240665D01*
X155719719Y-76200729D01*
X155730522Y-76180036D01*
X155730838Y-76178563D01*
X155725143Y-76159058D01*
X155709826Y-76119822D01*
X155687537Y-76067430D01*
X155671893Y-76032355D01*
X155642641Y-75965201D01*
X155615094Y-75897358D01*
X155593737Y-75840034D01*
X155587935Y-75822572D01*
X155571452Y-75775938D01*
X155555340Y-75739905D01*
X155546490Y-75726287D01*
X155526960Y-75717952D01*
X155484334Y-75706137D01*
X155424145Y-75692181D01*
X155351922Y-75677422D01*
X155319600Y-75671355D01*
X155237522Y-75656273D01*
X155158795Y-75641669D01*
X155091109Y-75628980D01*
X155042160Y-75619642D01*
X155032943Y-75617839D01*
X154956743Y-75602799D01*
X154956743Y-75285492D01*
X154956914Y-75181154D01*
X154957616Y-75102213D01*
X154959134Y-75045038D01*
X154961749Y-75005999D01*
X154965746Y-74981465D01*
X154971409Y-74967805D01*
X154979020Y-74961389D01*
X154982143Y-74960199D01*
X155000978Y-74955980D01*
X155042588Y-74947562D01*
X155101630Y-74935961D01*
X155172757Y-74922195D01*
X155250625Y-74907280D01*
X155329887Y-74892232D01*
X155405198Y-74878069D01*
X155471213Y-74865806D01*
X155522587Y-74856461D01*
X155553975Y-74851050D01*
X155560959Y-74850114D01*
X155567285Y-74837596D01*
X155581290Y-74804246D01*
X155600355Y-74756377D01*
X155607634Y-74737629D01*
X155636996Y-74665195D01*
X155671571Y-74585170D01*
X155702537Y-74517728D01*
X155725323Y-74466159D01*
X155740482Y-74423785D01*
X155745542Y-74397834D01*
X155744736Y-74394356D01*
X155734041Y-74377936D01*
X155709620Y-74341417D01*
X155674095Y-74288687D01*
X155630087Y-74223635D01*
X155580217Y-74150151D01*
X155570356Y-74135645D01*
X155512492Y-74049704D01*
X155469956Y-73984261D01*
X155441054Y-73936304D01*
X155424090Y-73902820D01*
X155417367Y-73880795D01*
X155419190Y-73867217D01*
X155419236Y-73867131D01*
X155433586Y-73849297D01*
X155465323Y-73814817D01*
X155511010Y-73767268D01*
X155567204Y-73710222D01*
X155630468Y-73647255D01*
X155637602Y-73640227D01*
X155717330Y-73563020D01*
X155778857Y-73506330D01*
X155823421Y-73469110D01*
X155852257Y-73450315D01*
X155864958Y-73447889D01*
X155883494Y-73458471D01*
X155921961Y-73482916D01*
X155976386Y-73518612D01*
X156042798Y-73562947D01*
X156117225Y-73613311D01*
X156134601Y-73625160D01*
X156381297Y-73793626D01*
X156492706Y-73743062D01*
X156560457Y-73713595D01*
X156633183Y-73683959D01*
X156695703Y-73660330D01*
X156698457Y-73659358D01*
X156747360Y-73641457D01*
X156785057Y-73626320D01*
X156803425Y-73617210D01*
X156803456Y-73617184D01*
X156809285Y-73600717D01*
X156819192Y-73560219D01*
X156832195Y-73500242D01*
X156847309Y-73425340D01*
X156863552Y-73340064D01*
X156864881Y-73332875D01*
X156881175Y-73245014D01*
X156896133Y-73165260D01*
X156908791Y-73098681D01*
X156918186Y-73050347D01*
X156923354Y-73025325D01*
X156923444Y-73024943D01*
X156926589Y-73014299D01*
X156932704Y-73006262D01*
X156945453Y-73000467D01*
X156968500Y-72996547D01*
X157005509Y-72994135D01*
X157060144Y-72992865D01*
X157136067Y-72992371D01*
X157236944Y-72992286D01*
X157250000Y-72992286D01*
X157353910Y-72992348D01*
G36*
X160403595Y-77716966D02*
X160461021Y-77754497D01*
X160488719Y-77788096D01*
X160510662Y-77849064D01*
X160512405Y-77897308D01*
X160508457Y-77961816D01*
X160359686Y-78026934D01*
X160287349Y-78060202D01*
X160240084Y-78086964D01*
X160215507Y-78110144D01*
X160211237Y-78132667D01*
X160224889Y-78157455D01*
X160239943Y-78173886D01*
X160283746Y-78200235D01*
X160331389Y-78202081D01*
X160375145Y-78181546D01*
X160407289Y-78140752D01*
X160413038Y-78126347D01*
X160440576Y-78081356D01*
X160472258Y-78062182D01*
X160515714Y-78045779D01*
X160515714Y-78107966D01*
X160511872Y-78150283D01*
X160496823Y-78185969D01*
X160465280Y-78226943D01*
X160460592Y-78232267D01*
X160425506Y-78268720D01*
X160395347Y-78288283D01*
X160357615Y-78297283D01*
X160326335Y-78300230D01*
X160270385Y-78300965D01*
X160230555Y-78291660D01*
X160205708Y-78277846D01*
X160166656Y-78247467D01*
X160139625Y-78214613D01*
X160122517Y-78173294D01*
X160113238Y-78117521D01*
X160109693Y-78041305D01*
X160109410Y-78002622D01*
X160110372Y-77956247D01*
X160198007Y-77956247D01*
X160199023Y-77981126D01*
X160201556Y-77985200D01*
X160218274Y-77979665D01*
X160254249Y-77965017D01*
X160302331Y-77944190D01*
X160312386Y-77939714D01*
X160373152Y-77908814D01*
X160406632Y-77881657D01*
X160413990Y-77856220D01*
X160396391Y-77830481D01*
X160381856Y-77819109D01*
X160329410Y-77796364D01*
X160280322Y-77800122D01*
X160239227Y-77827884D01*
X160210758Y-77877152D01*
X160201631Y-77916257D01*
X160198007Y-77956247D01*
X160110372Y-77956247D01*
X160111285Y-77912249D01*
X160118196Y-77845384D01*
X160131884Y-77796695D01*
X160154096Y-77760849D01*
X160186574Y-77732513D01*
X160200733Y-77723355D01*
X160265053Y-77699507D01*
X160335473Y-77698006D01*
X160403595Y-77716966D01*
X160403595Y-77716966D01*
G37*
X160403595Y-77716966D02*
X160461021Y-77754497D01*
X160488719Y-77788096D01*
X160510662Y-77849064D01*
X160512405Y-77897308D01*
X160508457Y-77961816D01*
X160359686Y-78026934D01*
X160287349Y-78060202D01*
X160240084Y-78086964D01*
X160215507Y-78110144D01*
X160211237Y-78132667D01*
X160224889Y-78157455D01*
X160239943Y-78173886D01*
X160283746Y-78200235D01*
X160331389Y-78202081D01*
X160375145Y-78181546D01*
X160407289Y-78140752D01*
X160413038Y-78126347D01*
X160440576Y-78081356D01*
X160472258Y-78062182D01*
X160515714Y-78045779D01*
X160515714Y-78107966D01*
X160511872Y-78150283D01*
X160496823Y-78185969D01*
X160465280Y-78226943D01*
X160460592Y-78232267D01*
X160425506Y-78268720D01*
X160395347Y-78288283D01*
X160357615Y-78297283D01*
X160326335Y-78300230D01*
X160270385Y-78300965D01*
X160230555Y-78291660D01*
X160205708Y-78277846D01*
X160166656Y-78247467D01*
X160139625Y-78214613D01*
X160122517Y-78173294D01*
X160113238Y-78117521D01*
X160109693Y-78041305D01*
X160109410Y-78002622D01*
X160110372Y-77956247D01*
X160198007Y-77956247D01*
X160199023Y-77981126D01*
X160201556Y-77985200D01*
X160218274Y-77979665D01*
X160254249Y-77965017D01*
X160302331Y-77944190D01*
X160312386Y-77939714D01*
X160373152Y-77908814D01*
X160406632Y-77881657D01*
X160413990Y-77856220D01*
X160396391Y-77830481D01*
X160381856Y-77819109D01*
X160329410Y-77796364D01*
X160280322Y-77800122D01*
X160239227Y-77827884D01*
X160210758Y-77877152D01*
X160201631Y-77916257D01*
X160198007Y-77956247D01*
X160110372Y-77956247D01*
X160111285Y-77912249D01*
X160118196Y-77845384D01*
X160131884Y-77796695D01*
X160154096Y-77760849D01*
X160186574Y-77732513D01*
X160200733Y-77723355D01*
X160265053Y-77699507D01*
X160335473Y-77698006D01*
X160403595Y-77716966D01*
G36*
X159902600Y-77708752D02*
X159919948Y-77716334D01*
X159961356Y-77749128D01*
X159996765Y-77796547D01*
X160018664Y-77847151D01*
X160022229Y-77872098D01*
X160010279Y-77906927D01*
X159984067Y-77925357D01*
X159955964Y-77936516D01*
X159943095Y-77938572D01*
X159936829Y-77923649D01*
X159924456Y-77891175D01*
X159919028Y-77876502D01*
X159888590Y-77825744D01*
X159844520Y-77800427D01*
X159788010Y-77801206D01*
X159783825Y-77802203D01*
X159753655Y-77816507D01*
X159731476Y-77844393D01*
X159716327Y-77889287D01*
X159707250Y-77954615D01*
X159703286Y-78043804D01*
X159702914Y-78091261D01*
X159702730Y-78166071D01*
X159701522Y-78217069D01*
X159698309Y-78249471D01*
X159692109Y-78268495D01*
X159681940Y-78279356D01*
X159666819Y-78287272D01*
X159665946Y-78287670D01*
X159636828Y-78299981D01*
X159622403Y-78304514D01*
X159620186Y-78290809D01*
X159618289Y-78252925D01*
X159616847Y-78195715D01*
X159615998Y-78124027D01*
X159615829Y-78071565D01*
X159616692Y-77970047D01*
X159620070Y-77893032D01*
X159627142Y-77836023D01*
X159639088Y-77794526D01*
X159657090Y-77764043D01*
X159682327Y-77740080D01*
X159707247Y-77723355D01*
X159767171Y-77701097D01*
X159836911Y-77696076D01*
X159902600Y-77708752D01*
X159902600Y-77708752D01*
G37*
X159902600Y-77708752D02*
X159919948Y-77716334D01*
X159961356Y-77749128D01*
X159996765Y-77796547D01*
X160018664Y-77847151D01*
X160022229Y-77872098D01*
X160010279Y-77906927D01*
X159984067Y-77925357D01*
X159955964Y-77936516D01*
X159943095Y-77938572D01*
X159936829Y-77923649D01*
X159924456Y-77891175D01*
X159919028Y-77876502D01*
X159888590Y-77825744D01*
X159844520Y-77800427D01*
X159788010Y-77801206D01*
X159783825Y-77802203D01*
X159753655Y-77816507D01*
X159731476Y-77844393D01*
X159716327Y-77889287D01*
X159707250Y-77954615D01*
X159703286Y-78043804D01*
X159702914Y-78091261D01*
X159702730Y-78166071D01*
X159701522Y-78217069D01*
X159698309Y-78249471D01*
X159692109Y-78268495D01*
X159681940Y-78279356D01*
X159666819Y-78287272D01*
X159665946Y-78287670D01*
X159636828Y-78299981D01*
X159622403Y-78304514D01*
X159620186Y-78290809D01*
X159618289Y-78252925D01*
X159616847Y-78195715D01*
X159615998Y-78124027D01*
X159615829Y-78071565D01*
X159616692Y-77970047D01*
X159620070Y-77893032D01*
X159627142Y-77836023D01*
X159639088Y-77794526D01*
X159657090Y-77764043D01*
X159682327Y-77740080D01*
X159707247Y-77723355D01*
X159767171Y-77701097D01*
X159836911Y-77696076D01*
X159902600Y-77708752D01*
G36*
X159394876Y-77706335D02*
X159436667Y-77725344D01*
X159469469Y-77748378D01*
X159493503Y-77774133D01*
X159510097Y-77807358D01*
X159520577Y-77852800D01*
X159526271Y-77915207D01*
X159528507Y-77999327D01*
X159528743Y-78054721D01*
X159528743Y-78270826D01*
X159491774Y-78287670D01*
X159462656Y-78299981D01*
X159448231Y-78304514D01*
X159445472Y-78291025D01*
X159443282Y-78254653D01*
X159441942Y-78201542D01*
X159441657Y-78159372D01*
X159440434Y-78098447D01*
X159437136Y-78050115D01*
X159432321Y-78020518D01*
X159428496Y-78014229D01*
X159402783Y-78020652D01*
X159362418Y-78037125D01*
X159315679Y-78059458D01*
X159270845Y-78083457D01*
X159236193Y-78104930D01*
X159220002Y-78119685D01*
X159219938Y-78119845D01*
X159221330Y-78147152D01*
X159233818Y-78173219D01*
X159255743Y-78194392D01*
X159287743Y-78201474D01*
X159315092Y-78200649D01*
X159353826Y-78200042D01*
X159374158Y-78209116D01*
X159386369Y-78233092D01*
X159387909Y-78237613D01*
X159393203Y-78271806D01*
X159379047Y-78292568D01*
X159342148Y-78302462D01*
X159302289Y-78304292D01*
X159230562Y-78290727D01*
X159193432Y-78271355D01*
X159147576Y-78225845D01*
X159123256Y-78169983D01*
X159121073Y-78110957D01*
X159141629Y-78055953D01*
X159172549Y-78021486D01*
X159203420Y-78002189D01*
X159251942Y-77977759D01*
X159308485Y-77952985D01*
X159317910Y-77949199D01*
X159380019Y-77921791D01*
X159415822Y-77897634D01*
X159427337Y-77873619D01*
X159416580Y-77846635D01*
X159398114Y-77825543D01*
X159354469Y-77799572D01*
X159306446Y-77797624D01*
X159262406Y-77817637D01*
X159230709Y-77857551D01*
X159226549Y-77867848D01*
X159202327Y-77905724D01*
X159166965Y-77933842D01*
X159122343Y-77956917D01*
X159122343Y-77891485D01*
X159124969Y-77851506D01*
X159136230Y-77819997D01*
X159161199Y-77786378D01*
X159185169Y-77760484D01*
X159222441Y-77723817D01*
X159251401Y-77704121D01*
X159282505Y-77696220D01*
X159317713Y-77694914D01*
X159394876Y-77706335D01*
X159394876Y-77706335D01*
G37*
X159394876Y-77706335D02*
X159436667Y-77725344D01*
X159469469Y-77748378D01*
X159493503Y-77774133D01*
X159510097Y-77807358D01*
X159520577Y-77852800D01*
X159526271Y-77915207D01*
X159528507Y-77999327D01*
X159528743Y-78054721D01*
X159528743Y-78270826D01*
X159491774Y-78287670D01*
X159462656Y-78299981D01*
X159448231Y-78304514D01*
X159445472Y-78291025D01*
X159443282Y-78254653D01*
X159441942Y-78201542D01*
X159441657Y-78159372D01*
X159440434Y-78098447D01*
X159437136Y-78050115D01*
X159432321Y-78020518D01*
X159428496Y-78014229D01*
X159402783Y-78020652D01*
X159362418Y-78037125D01*
X159315679Y-78059458D01*
X159270845Y-78083457D01*
X159236193Y-78104930D01*
X159220002Y-78119685D01*
X159219938Y-78119845D01*
X159221330Y-78147152D01*
X159233818Y-78173219D01*
X159255743Y-78194392D01*
X159287743Y-78201474D01*
X159315092Y-78200649D01*
X159353826Y-78200042D01*
X159374158Y-78209116D01*
X159386369Y-78233092D01*
X159387909Y-78237613D01*
X159393203Y-78271806D01*
X159379047Y-78292568D01*
X159342148Y-78302462D01*
X159302289Y-78304292D01*
X159230562Y-78290727D01*
X159193432Y-78271355D01*
X159147576Y-78225845D01*
X159123256Y-78169983D01*
X159121073Y-78110957D01*
X159141629Y-78055953D01*
X159172549Y-78021486D01*
X159203420Y-78002189D01*
X159251942Y-77977759D01*
X159308485Y-77952985D01*
X159317910Y-77949199D01*
X159380019Y-77921791D01*
X159415822Y-77897634D01*
X159427337Y-77873619D01*
X159416580Y-77846635D01*
X159398114Y-77825543D01*
X159354469Y-77799572D01*
X159306446Y-77797624D01*
X159262406Y-77817637D01*
X159230709Y-77857551D01*
X159226549Y-77867848D01*
X159202327Y-77905724D01*
X159166965Y-77933842D01*
X159122343Y-77956917D01*
X159122343Y-77891485D01*
X159124969Y-77851506D01*
X159136230Y-77819997D01*
X159161199Y-77786378D01*
X159185169Y-77760484D01*
X159222441Y-77723817D01*
X159251401Y-77704121D01*
X159282505Y-77696220D01*
X159317713Y-77694914D01*
X159394876Y-77706335D01*
G36*
X159029833Y-77708663D02*
X159032048Y-77746850D01*
X159033784Y-77804886D01*
X159034899Y-77878180D01*
X159035257Y-77955055D01*
X159035257Y-78215196D01*
X158989326Y-78261127D01*
X158957675Y-78289429D01*
X158929890Y-78300893D01*
X158891915Y-78300168D01*
X158876840Y-78298321D01*
X158829726Y-78292948D01*
X158790756Y-78289869D01*
X158781257Y-78289585D01*
X158749233Y-78291445D01*
X158703432Y-78296114D01*
X158685674Y-78298321D01*
X158642057Y-78301735D01*
X158612745Y-78294320D01*
X158583680Y-78271427D01*
X158573188Y-78261127D01*
X158527257Y-78215196D01*
X158527257Y-77728602D01*
X158564226Y-77711758D01*
X158596059Y-77699282D01*
X158614683Y-77694914D01*
X158619458Y-77708718D01*
X158623921Y-77747286D01*
X158627775Y-77806356D01*
X158630722Y-77881663D01*
X158632143Y-77945286D01*
X158636114Y-78195657D01*
X158670759Y-78200556D01*
X158702268Y-78197131D01*
X158717708Y-78186041D01*
X158722023Y-78165308D01*
X158725708Y-78121145D01*
X158728469Y-78059146D01*
X158730012Y-77984909D01*
X158730235Y-77946706D01*
X158730457Y-77726783D01*
X158776166Y-77710849D01*
X158808518Y-77700015D01*
X158826115Y-77694962D01*
X158826623Y-77694914D01*
X158828388Y-77708648D01*
X158830329Y-77746730D01*
X158832282Y-77804482D01*
X158834084Y-77877227D01*
X158835343Y-77945286D01*
X158839314Y-78195657D01*
X158926400Y-78195657D01*
X158930396Y-77967240D01*
X158934392Y-77738822D01*
X158976847Y-77716868D01*
X159008192Y-77701793D01*
X159026744Y-77694951D01*
X159027279Y-77694914D01*
X159029833Y-77708663D01*
X159029833Y-77708663D01*
G37*
X159029833Y-77708663D02*
X159032048Y-77746850D01*
X159033784Y-77804886D01*
X159034899Y-77878180D01*
X159035257Y-77955055D01*
X159035257Y-78215196D01*
X158989326Y-78261127D01*
X158957675Y-78289429D01*
X158929890Y-78300893D01*
X158891915Y-78300168D01*
X158876840Y-78298321D01*
X158829726Y-78292948D01*
X158790756Y-78289869D01*
X158781257Y-78289585D01*
X158749233Y-78291445D01*
X158703432Y-78296114D01*
X158685674Y-78298321D01*
X158642057Y-78301735D01*
X158612745Y-78294320D01*
X158583680Y-78271427D01*
X158573188Y-78261127D01*
X158527257Y-78215196D01*
X158527257Y-77728602D01*
X158564226Y-77711758D01*
X158596059Y-77699282D01*
X158614683Y-77694914D01*
X158619458Y-77708718D01*
X158623921Y-77747286D01*
X158627775Y-77806356D01*
X158630722Y-77881663D01*
X158632143Y-77945286D01*
X158636114Y-78195657D01*
X158670759Y-78200556D01*
X158702268Y-78197131D01*
X158717708Y-78186041D01*
X158722023Y-78165308D01*
X158725708Y-78121145D01*
X158728469Y-78059146D01*
X158730012Y-77984909D01*
X158730235Y-77946706D01*
X158730457Y-77726783D01*
X158776166Y-77710849D01*
X158808518Y-77700015D01*
X158826115Y-77694962D01*
X158826623Y-77694914D01*
X158828388Y-77708648D01*
X158830329Y-77746730D01*
X158832282Y-77804482D01*
X158834084Y-77877227D01*
X158835343Y-77945286D01*
X158839314Y-78195657D01*
X158926400Y-78195657D01*
X158930396Y-77967240D01*
X158934392Y-77738822D01*
X158976847Y-77716868D01*
X159008192Y-77701793D01*
X159026744Y-77694951D01*
X159027279Y-77694914D01*
X159029833Y-77708663D01*
G36*
X158440117Y-77815358D02*
X158439933Y-77923837D01*
X158439219Y-78007287D01*
X158437675Y-78069704D01*
X158435001Y-78115085D01*
X158430894Y-78147429D01*
X158425055Y-78170733D01*
X158417182Y-78188995D01*
X158411221Y-78199418D01*
X158361855Y-78255945D01*
X158299264Y-78291377D01*
X158230013Y-78304090D01*
X158160668Y-78292463D01*
X158119375Y-78271568D01*
X158076025Y-78235422D01*
X158046481Y-78191276D01*
X158028655Y-78133462D01*
X158020463Y-78056313D01*
X158019302Y-77999714D01*
X158019458Y-77995647D01*
X158120857Y-77995647D01*
X158121476Y-78060550D01*
X158124314Y-78103514D01*
X158130840Y-78131622D01*
X158142523Y-78151953D01*
X158156483Y-78167288D01*
X158203365Y-78196890D01*
X158253701Y-78199419D01*
X158301276Y-78174705D01*
X158304979Y-78171356D01*
X158320783Y-78153935D01*
X158330693Y-78133209D01*
X158336058Y-78102362D01*
X158338228Y-78054577D01*
X158338571Y-78001748D01*
X158337827Y-77935381D01*
X158334748Y-77891106D01*
X158328061Y-77862009D01*
X158316496Y-77841173D01*
X158307013Y-77830107D01*
X158262960Y-77802198D01*
X158212224Y-77798843D01*
X158163796Y-77820159D01*
X158154450Y-77828073D01*
X158138540Y-77845647D01*
X158128610Y-77866587D01*
X158123278Y-77897782D01*
X158121163Y-77946122D01*
X158120857Y-77995647D01*
X158019458Y-77995647D01*
X158022810Y-77908568D01*
X158034726Y-77840086D01*
X158057135Y-77788600D01*
X158092124Y-77748443D01*
X158119375Y-77727861D01*
X158168907Y-77705625D01*
X158226316Y-77695304D01*
X158279682Y-77698067D01*
X158309543Y-77709212D01*
X158321261Y-77712383D01*
X158329037Y-77700557D01*
X158334465Y-77668866D01*
X158338571Y-77620593D01*
X158343067Y-77566829D01*
X158349313Y-77534482D01*
X158360676Y-77515985D01*
X158380528Y-77503770D01*
X158393000Y-77498362D01*
X158440171Y-77478601D01*
X158440117Y-77815358D01*
X158440117Y-77815358D01*
G37*
X158440117Y-77815358D02*
X158439933Y-77923837D01*
X158439219Y-78007287D01*
X158437675Y-78069704D01*
X158435001Y-78115085D01*
X158430894Y-78147429D01*
X158425055Y-78170733D01*
X158417182Y-78188995D01*
X158411221Y-78199418D01*
X158361855Y-78255945D01*
X158299264Y-78291377D01*
X158230013Y-78304090D01*
X158160668Y-78292463D01*
X158119375Y-78271568D01*
X158076025Y-78235422D01*
X158046481Y-78191276D01*
X158028655Y-78133462D01*
X158020463Y-78056313D01*
X158019302Y-77999714D01*
X158019458Y-77995647D01*
X158120857Y-77995647D01*
X158121476Y-78060550D01*
X158124314Y-78103514D01*
X158130840Y-78131622D01*
X158142523Y-78151953D01*
X158156483Y-78167288D01*
X158203365Y-78196890D01*
X158253701Y-78199419D01*
X158301276Y-78174705D01*
X158304979Y-78171356D01*
X158320783Y-78153935D01*
X158330693Y-78133209D01*
X158336058Y-78102362D01*
X158338228Y-78054577D01*
X158338571Y-78001748D01*
X158337827Y-77935381D01*
X158334748Y-77891106D01*
X158328061Y-77862009D01*
X158316496Y-77841173D01*
X158307013Y-77830107D01*
X158262960Y-77802198D01*
X158212224Y-77798843D01*
X158163796Y-77820159D01*
X158154450Y-77828073D01*
X158138540Y-77845647D01*
X158128610Y-77866587D01*
X158123278Y-77897782D01*
X158121163Y-77946122D01*
X158120857Y-77995647D01*
X158019458Y-77995647D01*
X158022810Y-77908568D01*
X158034726Y-77840086D01*
X158057135Y-77788600D01*
X158092124Y-77748443D01*
X158119375Y-77727861D01*
X158168907Y-77705625D01*
X158226316Y-77695304D01*
X158279682Y-77698067D01*
X158309543Y-77709212D01*
X158321261Y-77712383D01*
X158329037Y-77700557D01*
X158334465Y-77668866D01*
X158338571Y-77620593D01*
X158343067Y-77566829D01*
X158349313Y-77534482D01*
X158360676Y-77515985D01*
X158380528Y-77503770D01*
X158393000Y-77498362D01*
X158440171Y-77478601D01*
X158440117Y-77815358D01*
G36*
X157779926Y-77699755D02*
X157845858Y-77724084D01*
X157899273Y-77767117D01*
X157920164Y-77797409D01*
X157942939Y-77852994D01*
X157942466Y-77893186D01*
X157918562Y-77920217D01*
X157909717Y-77924813D01*
X157871530Y-77939144D01*
X157852028Y-77935472D01*
X157845422Y-77911407D01*
X157845086Y-77898114D01*
X157832992Y-77849210D01*
X157801471Y-77814999D01*
X157757659Y-77798476D01*
X157708695Y-77802634D01*
X157668894Y-77824227D01*
X157655450Y-77836544D01*
X157645921Y-77851487D01*
X157639485Y-77874075D01*
X157635317Y-77909328D01*
X157632597Y-77962266D01*
X157630502Y-78037907D01*
X157629960Y-78061857D01*
X157627981Y-78143790D01*
X157625731Y-78201455D01*
X157622357Y-78239608D01*
X157617006Y-78263004D01*
X157608824Y-78276398D01*
X157596959Y-78284545D01*
X157589362Y-78288144D01*
X157557102Y-78300452D01*
X157538111Y-78304514D01*
X157531836Y-78290948D01*
X157528006Y-78249934D01*
X157526600Y-78180999D01*
X157527598Y-78083669D01*
X157527908Y-78068657D01*
X157530101Y-77979859D01*
X157532693Y-77915019D01*
X157536382Y-77869067D01*
X157541864Y-77836935D01*
X157549835Y-77813553D01*
X157560993Y-77793852D01*
X157566830Y-77785410D01*
X157600296Y-77748057D01*
X157637727Y-77719003D01*
X157642309Y-77716467D01*
X157709426Y-77696443D01*
X157779926Y-77699755D01*
X157779926Y-77699755D01*
G37*
X157779926Y-77699755D02*
X157845858Y-77724084D01*
X157899273Y-77767117D01*
X157920164Y-77797409D01*
X157942939Y-77852994D01*
X157942466Y-77893186D01*
X157918562Y-77920217D01*
X157909717Y-77924813D01*
X157871530Y-77939144D01*
X157852028Y-77935472D01*
X157845422Y-77911407D01*
X157845086Y-77898114D01*
X157832992Y-77849210D01*
X157801471Y-77814999D01*
X157757659Y-77798476D01*
X157708695Y-77802634D01*
X157668894Y-77824227D01*
X157655450Y-77836544D01*
X157645921Y-77851487D01*
X157639485Y-77874075D01*
X157635317Y-77909328D01*
X157632597Y-77962266D01*
X157630502Y-78037907D01*
X157629960Y-78061857D01*
X157627981Y-78143790D01*
X157625731Y-78201455D01*
X157622357Y-78239608D01*
X157617006Y-78263004D01*
X157608824Y-78276398D01*
X157596959Y-78284545D01*
X157589362Y-78288144D01*
X157557102Y-78300452D01*
X157538111Y-78304514D01*
X157531836Y-78290948D01*
X157528006Y-78249934D01*
X157526600Y-78180999D01*
X157527598Y-78083669D01*
X157527908Y-78068657D01*
X157530101Y-77979859D01*
X157532693Y-77915019D01*
X157536382Y-77869067D01*
X157541864Y-77836935D01*
X157549835Y-77813553D01*
X157560993Y-77793852D01*
X157566830Y-77785410D01*
X157600296Y-77748057D01*
X157637727Y-77719003D01*
X157642309Y-77716467D01*
X157709426Y-77696443D01*
X157779926Y-77699755D01*
G36*
X157289744Y-77700968D02*
X157346616Y-77722087D01*
X157347267Y-77722493D01*
X157382440Y-77748380D01*
X157408407Y-77778633D01*
X157426670Y-77818058D01*
X157438732Y-77871462D01*
X157446096Y-77943651D01*
X157450264Y-78039432D01*
X157450629Y-78053078D01*
X157455876Y-78258842D01*
X157411716Y-78281678D01*
X157379763Y-78297110D01*
X157360470Y-78304423D01*
X157359578Y-78304514D01*
X157356239Y-78291022D01*
X157353587Y-78254626D01*
X157351956Y-78201452D01*
X157351600Y-78158393D01*
X157351592Y-78088641D01*
X157348403Y-78044837D01*
X157337288Y-78023944D01*
X157313501Y-78022925D01*
X157272296Y-78038741D01*
X157210086Y-78067815D01*
X157164341Y-78091963D01*
X157140813Y-78112913D01*
X157133896Y-78135747D01*
X157133886Y-78136877D01*
X157145299Y-78176212D01*
X157179092Y-78197462D01*
X157230809Y-78200539D01*
X157268061Y-78200006D01*
X157287703Y-78210735D01*
X157299952Y-78236505D01*
X157307002Y-78269337D01*
X157296842Y-78287966D01*
X157293017Y-78290632D01*
X157257001Y-78301340D01*
X157206566Y-78302856D01*
X157154626Y-78295759D01*
X157117822Y-78282788D01*
X157066938Y-78239585D01*
X157038014Y-78179446D01*
X157032286Y-78132462D01*
X157036657Y-78090082D01*
X157052475Y-78055488D01*
X157083797Y-78024763D01*
X157134678Y-77993990D01*
X157209176Y-77959252D01*
X157213714Y-77957288D01*
X157280821Y-77926287D01*
X157322232Y-77900862D01*
X157339981Y-77878014D01*
X157336107Y-77854745D01*
X157312643Y-77828056D01*
X157305627Y-77821914D01*
X157258630Y-77798100D01*
X157209933Y-77799103D01*
X157167522Y-77822451D01*
X157139384Y-77865675D01*
X157136769Y-77874160D01*
X157111308Y-77915308D01*
X157079001Y-77935128D01*
X157032286Y-77954770D01*
X157032286Y-77903950D01*
X157046496Y-77830082D01*
X157088675Y-77762327D01*
X157110624Y-77739661D01*
X157160517Y-77710569D01*
X157223967Y-77697400D01*
X157289744Y-77700968D01*
X157289744Y-77700968D01*
G37*
X157289744Y-77700968D02*
X157346616Y-77722087D01*
X157347267Y-77722493D01*
X157382440Y-77748380D01*
X157408407Y-77778633D01*
X157426670Y-77818058D01*
X157438732Y-77871462D01*
X157446096Y-77943651D01*
X157450264Y-78039432D01*
X157450629Y-78053078D01*
X157455876Y-78258842D01*
X157411716Y-78281678D01*
X157379763Y-78297110D01*
X157360470Y-78304423D01*
X157359578Y-78304514D01*
X157356239Y-78291022D01*
X157353587Y-78254626D01*
X157351956Y-78201452D01*
X157351600Y-78158393D01*
X157351592Y-78088641D01*
X157348403Y-78044837D01*
X157337288Y-78023944D01*
X157313501Y-78022925D01*
X157272296Y-78038741D01*
X157210086Y-78067815D01*
X157164341Y-78091963D01*
X157140813Y-78112913D01*
X157133896Y-78135747D01*
X157133886Y-78136877D01*
X157145299Y-78176212D01*
X157179092Y-78197462D01*
X157230809Y-78200539D01*
X157268061Y-78200006D01*
X157287703Y-78210735D01*
X157299952Y-78236505D01*
X157307002Y-78269337D01*
X157296842Y-78287966D01*
X157293017Y-78290632D01*
X157257001Y-78301340D01*
X157206566Y-78302856D01*
X157154626Y-78295759D01*
X157117822Y-78282788D01*
X157066938Y-78239585D01*
X157038014Y-78179446D01*
X157032286Y-78132462D01*
X157036657Y-78090082D01*
X157052475Y-78055488D01*
X157083797Y-78024763D01*
X157134678Y-77993990D01*
X157209176Y-77959252D01*
X157213714Y-77957288D01*
X157280821Y-77926287D01*
X157322232Y-77900862D01*
X157339981Y-77878014D01*
X157336107Y-77854745D01*
X157312643Y-77828056D01*
X157305627Y-77821914D01*
X157258630Y-77798100D01*
X157209933Y-77799103D01*
X157167522Y-77822451D01*
X157139384Y-77865675D01*
X157136769Y-77874160D01*
X157111308Y-77915308D01*
X157079001Y-77935128D01*
X157032286Y-77954770D01*
X157032286Y-77903950D01*
X157046496Y-77830082D01*
X157088675Y-77762327D01*
X157110624Y-77739661D01*
X157160517Y-77710569D01*
X157223967Y-77697400D01*
X157289744Y-77700968D01*
G36*
X156625886Y-77601289D02*
X156630139Y-77660613D01*
X156635025Y-77695572D01*
X156641795Y-77710820D01*
X156651702Y-77711015D01*
X156654914Y-77709195D01*
X156697644Y-77696015D01*
X156753227Y-77696785D01*
X156809737Y-77710333D01*
X156845082Y-77727861D01*
X156881321Y-77755861D01*
X156907813Y-77787549D01*
X156925999Y-77827813D01*
X156937322Y-77881543D01*
X156943222Y-77953626D01*
X156945143Y-78048951D01*
X156945177Y-78067237D01*
X156945200Y-78272646D01*
X156899491Y-78288580D01*
X156867027Y-78299420D01*
X156849215Y-78304468D01*
X156848691Y-78304514D01*
X156846937Y-78290828D01*
X156845444Y-78253076D01*
X156844326Y-78196224D01*
X156843697Y-78125234D01*
X156843600Y-78082073D01*
X156843398Y-77996973D01*
X156842358Y-77935981D01*
X156839831Y-77894177D01*
X156835164Y-77866642D01*
X156827707Y-77848456D01*
X156816811Y-77834698D01*
X156810007Y-77828073D01*
X156763272Y-77801375D01*
X156712272Y-77799375D01*
X156666001Y-77821955D01*
X156657444Y-77830107D01*
X156644893Y-77845436D01*
X156636188Y-77863618D01*
X156630631Y-77889909D01*
X156627526Y-77929562D01*
X156626176Y-77987832D01*
X156625886Y-78068173D01*
X156625886Y-78272646D01*
X156580177Y-78288580D01*
X156547713Y-78299420D01*
X156529901Y-78304468D01*
X156529377Y-78304514D01*
X156528037Y-78290623D01*
X156526828Y-78251439D01*
X156525801Y-78190700D01*
X156525002Y-78112141D01*
X156524481Y-78019498D01*
X156524286Y-77916509D01*
X156524286Y-77519342D01*
X156571457Y-77499444D01*
X156618629Y-77479547D01*
X156625886Y-77601289D01*
X156625886Y-77601289D01*
G37*
X156625886Y-77601289D02*
X156630139Y-77660613D01*
X156635025Y-77695572D01*
X156641795Y-77710820D01*
X156651702Y-77711015D01*
X156654914Y-77709195D01*
X156697644Y-77696015D01*
X156753227Y-77696785D01*
X156809737Y-77710333D01*
X156845082Y-77727861D01*
X156881321Y-77755861D01*
X156907813Y-77787549D01*
X156925999Y-77827813D01*
X156937322Y-77881543D01*
X156943222Y-77953626D01*
X156945143Y-78048951D01*
X156945177Y-78067237D01*
X156945200Y-78272646D01*
X156899491Y-78288580D01*
X156867027Y-78299420D01*
X156849215Y-78304468D01*
X156848691Y-78304514D01*
X156846937Y-78290828D01*
X156845444Y-78253076D01*
X156844326Y-78196224D01*
X156843697Y-78125234D01*
X156843600Y-78082073D01*
X156843398Y-77996973D01*
X156842358Y-77935981D01*
X156839831Y-77894177D01*
X156835164Y-77866642D01*
X156827707Y-77848456D01*
X156816811Y-77834698D01*
X156810007Y-77828073D01*
X156763272Y-77801375D01*
X156712272Y-77799375D01*
X156666001Y-77821955D01*
X156657444Y-77830107D01*
X156644893Y-77845436D01*
X156636188Y-77863618D01*
X156630631Y-77889909D01*
X156627526Y-77929562D01*
X156626176Y-77987832D01*
X156625886Y-78068173D01*
X156625886Y-78272646D01*
X156580177Y-78288580D01*
X156547713Y-78299420D01*
X156529901Y-78304468D01*
X156529377Y-78304514D01*
X156528037Y-78290623D01*
X156526828Y-78251439D01*
X156525801Y-78190700D01*
X156525002Y-78112141D01*
X156524481Y-78019498D01*
X156524286Y-77916509D01*
X156524286Y-77519342D01*
X156571457Y-77499444D01*
X156618629Y-77479547D01*
X156625886Y-77601289D01*
G36*
X155418303Y-77681239D02*
X155475527Y-77719735D01*
X155519749Y-77775335D01*
X155546167Y-77846086D01*
X155551510Y-77898162D01*
X155550903Y-77919893D01*
X155545822Y-77936531D01*
X155531855Y-77951437D01*
X155504589Y-77967973D01*
X155459612Y-77989498D01*
X155392511Y-78019374D01*
X155392171Y-78019524D01*
X155330407Y-78047813D01*
X155279759Y-78072933D01*
X155245404Y-78092179D01*
X155232518Y-78102848D01*
X155232514Y-78102934D01*
X155243872Y-78126166D01*
X155270431Y-78151774D01*
X155300923Y-78170221D01*
X155316370Y-78173886D01*
X155358515Y-78161212D01*
X155394808Y-78129471D01*
X155412517Y-78094572D01*
X155429552Y-78068845D01*
X155462922Y-78039546D01*
X155502149Y-78014235D01*
X155536756Y-78000471D01*
X155543993Y-77999714D01*
X155552139Y-78012160D01*
X155552630Y-78043972D01*
X155546643Y-78086866D01*
X155535357Y-78132558D01*
X155519950Y-78172761D01*
X155519171Y-78174322D01*
X155472804Y-78239062D01*
X155412711Y-78283097D01*
X155344465Y-78304711D01*
X155273638Y-78302185D01*
X155205804Y-78273804D01*
X155202788Y-78271808D01*
X155149427Y-78223448D01*
X155114340Y-78160352D01*
X155094922Y-78077387D01*
X155092316Y-78054078D01*
X155087701Y-77944055D01*
X155093233Y-77892748D01*
X155232514Y-77892748D01*
X155234324Y-77924753D01*
X155244222Y-77934093D01*
X155268898Y-77927105D01*
X155307795Y-77910587D01*
X155351275Y-77889881D01*
X155352356Y-77889333D01*
X155389209Y-77869949D01*
X155404000Y-77857013D01*
X155400353Y-77843451D01*
X155384995Y-77825632D01*
X155345923Y-77799845D01*
X155303846Y-77797950D01*
X155266103Y-77816717D01*
X155240034Y-77852915D01*
X155232514Y-77892748D01*
X155093233Y-77892748D01*
X155097194Y-77856027D01*
X155121550Y-77786212D01*
X155155456Y-77737302D01*
X155216653Y-77687878D01*
X155284063Y-77663359D01*
X155352880Y-77661797D01*
X155418303Y-77681239D01*
X155418303Y-77681239D01*
G37*
X155418303Y-77681239D02*
X155475527Y-77719735D01*
X155519749Y-77775335D01*
X155546167Y-77846086D01*
X155551510Y-77898162D01*
X155550903Y-77919893D01*
X155545822Y-77936531D01*
X155531855Y-77951437D01*
X155504589Y-77967973D01*
X155459612Y-77989498D01*
X155392511Y-78019374D01*
X155392171Y-78019524D01*
X155330407Y-78047813D01*
X155279759Y-78072933D01*
X155245404Y-78092179D01*
X155232518Y-78102848D01*
X155232514Y-78102934D01*
X155243872Y-78126166D01*
X155270431Y-78151774D01*
X155300923Y-78170221D01*
X155316370Y-78173886D01*
X155358515Y-78161212D01*
X155394808Y-78129471D01*
X155412517Y-78094572D01*
X155429552Y-78068845D01*
X155462922Y-78039546D01*
X155502149Y-78014235D01*
X155536756Y-78000471D01*
X155543993Y-77999714D01*
X155552139Y-78012160D01*
X155552630Y-78043972D01*
X155546643Y-78086866D01*
X155535357Y-78132558D01*
X155519950Y-78172761D01*
X155519171Y-78174322D01*
X155472804Y-78239062D01*
X155412711Y-78283097D01*
X155344465Y-78304711D01*
X155273638Y-78302185D01*
X155205804Y-78273804D01*
X155202788Y-78271808D01*
X155149427Y-78223448D01*
X155114340Y-78160352D01*
X155094922Y-78077387D01*
X155092316Y-78054078D01*
X155087701Y-77944055D01*
X155093233Y-77892748D01*
X155232514Y-77892748D01*
X155234324Y-77924753D01*
X155244222Y-77934093D01*
X155268898Y-77927105D01*
X155307795Y-77910587D01*
X155351275Y-77889881D01*
X155352356Y-77889333D01*
X155389209Y-77869949D01*
X155404000Y-77857013D01*
X155400353Y-77843451D01*
X155384995Y-77825632D01*
X155345923Y-77799845D01*
X155303846Y-77797950D01*
X155266103Y-77816717D01*
X155240034Y-77852915D01*
X155232514Y-77892748D01*
X155093233Y-77892748D01*
X155097194Y-77856027D01*
X155121550Y-77786212D01*
X155155456Y-77737302D01*
X155216653Y-77687878D01*
X155284063Y-77663359D01*
X155352880Y-77661797D01*
X155418303Y-77681239D01*
G36*
X154291115Y-77671962D02*
X154359145Y-77707733D01*
X154409351Y-77765301D01*
X154427185Y-77802312D01*
X154441063Y-77857882D01*
X154448167Y-77928096D01*
X154448840Y-78004727D01*
X154443427Y-78079552D01*
X154432270Y-78144342D01*
X154415714Y-78190873D01*
X154410626Y-78198887D01*
X154350355Y-78258707D01*
X154278769Y-78294535D01*
X154201092Y-78305020D01*
X154122548Y-78288810D01*
X154100689Y-78279092D01*
X154058122Y-78249143D01*
X154020763Y-78209433D01*
X154017232Y-78204397D01*
X154002881Y-78180124D01*
X153993394Y-78154178D01*
X153987790Y-78120022D01*
X153985086Y-78071119D01*
X153984299Y-78000935D01*
X153984286Y-77985200D01*
X153984322Y-77980192D01*
X154129429Y-77980192D01*
X154130273Y-78046430D01*
X154133596Y-78090386D01*
X154140583Y-78118779D01*
X154152416Y-78138325D01*
X154158457Y-78144857D01*
X154193186Y-78169680D01*
X154226903Y-78168548D01*
X154260995Y-78147016D01*
X154281329Y-78124029D01*
X154293371Y-78090478D01*
X154300134Y-78037569D01*
X154300598Y-78031399D01*
X154301752Y-77935513D01*
X154289688Y-77864299D01*
X154264570Y-77818194D01*
X154226560Y-77797635D01*
X154212992Y-77796514D01*
X154177364Y-77802152D01*
X154152994Y-77821686D01*
X154138093Y-77859042D01*
X154130875Y-77918150D01*
X154129429Y-77980192D01*
X153984322Y-77980192D01*
X153984826Y-77910413D01*
X153987096Y-77858159D01*
X153992068Y-77821949D01*
X154000713Y-77795299D01*
X154014005Y-77771722D01*
X154016943Y-77767338D01*
X154066313Y-77708249D01*
X154120109Y-77673947D01*
X154185602Y-77660331D01*
X154207842Y-77659665D01*
X154291115Y-77671962D01*
X154291115Y-77671962D01*
G37*
X154291115Y-77671962D02*
X154359145Y-77707733D01*
X154409351Y-77765301D01*
X154427185Y-77802312D01*
X154441063Y-77857882D01*
X154448167Y-77928096D01*
X154448840Y-78004727D01*
X154443427Y-78079552D01*
X154432270Y-78144342D01*
X154415714Y-78190873D01*
X154410626Y-78198887D01*
X154350355Y-78258707D01*
X154278769Y-78294535D01*
X154201092Y-78305020D01*
X154122548Y-78288810D01*
X154100689Y-78279092D01*
X154058122Y-78249143D01*
X154020763Y-78209433D01*
X154017232Y-78204397D01*
X154002881Y-78180124D01*
X153993394Y-78154178D01*
X153987790Y-78120022D01*
X153985086Y-78071119D01*
X153984299Y-78000935D01*
X153984286Y-77985200D01*
X153984322Y-77980192D01*
X154129429Y-77980192D01*
X154130273Y-78046430D01*
X154133596Y-78090386D01*
X154140583Y-78118779D01*
X154152416Y-78138325D01*
X154158457Y-78144857D01*
X154193186Y-78169680D01*
X154226903Y-78168548D01*
X154260995Y-78147016D01*
X154281329Y-78124029D01*
X154293371Y-78090478D01*
X154300134Y-78037569D01*
X154300598Y-78031399D01*
X154301752Y-77935513D01*
X154289688Y-77864299D01*
X154264570Y-77818194D01*
X154226560Y-77797635D01*
X154212992Y-77796514D01*
X154177364Y-77802152D01*
X154152994Y-77821686D01*
X154138093Y-77859042D01*
X154130875Y-77918150D01*
X154129429Y-77980192D01*
X153984322Y-77980192D01*
X153984826Y-77910413D01*
X153987096Y-77858159D01*
X153992068Y-77821949D01*
X154000713Y-77795299D01*
X154014005Y-77771722D01*
X154016943Y-77767338D01*
X154066313Y-77708249D01*
X154120109Y-77673947D01*
X154185602Y-77660331D01*
X154207842Y-77659665D01*
X154291115Y-77671962D01*
G36*
X155966093Y-77677780D02*
X156012672Y-77704723D01*
X156045057Y-77731466D01*
X156068742Y-77759484D01*
X156085059Y-77793748D01*
X156095339Y-77839227D01*
X156100914Y-77900892D01*
X156103116Y-77983711D01*
X156103371Y-78043246D01*
X156103371Y-78262391D01*
X156041686Y-78290044D01*
X155980000Y-78317697D01*
X155972743Y-78077670D01*
X155969744Y-77988028D01*
X155966598Y-77922962D01*
X155962701Y-77878026D01*
X155957447Y-77848770D01*
X155950231Y-77830748D01*
X155940450Y-77819511D01*
X155937312Y-77817079D01*
X155889761Y-77798083D01*
X155841697Y-77805600D01*
X155813086Y-77825543D01*
X155801447Y-77839675D01*
X155793391Y-77858220D01*
X155788271Y-77886334D01*
X155785441Y-77929173D01*
X155784256Y-77991895D01*
X155784057Y-78057261D01*
X155784018Y-78139268D01*
X155782614Y-78197316D01*
X155777914Y-78236465D01*
X155767987Y-78261780D01*
X155750903Y-78278323D01*
X155724732Y-78291156D01*
X155689775Y-78304491D01*
X155651596Y-78319007D01*
X155656141Y-78061389D01*
X155657971Y-77968519D01*
X155660112Y-77899889D01*
X155663181Y-77850711D01*
X155667794Y-77816198D01*
X155674568Y-77791562D01*
X155684119Y-77772016D01*
X155695634Y-77754770D01*
X155751190Y-77699680D01*
X155818980Y-77667822D01*
X155892713Y-77660191D01*
X155966093Y-77677780D01*
X155966093Y-77677780D01*
G37*
X155966093Y-77677780D02*
X156012672Y-77704723D01*
X156045057Y-77731466D01*
X156068742Y-77759484D01*
X156085059Y-77793748D01*
X156095339Y-77839227D01*
X156100914Y-77900892D01*
X156103116Y-77983711D01*
X156103371Y-78043246D01*
X156103371Y-78262391D01*
X156041686Y-78290044D01*
X155980000Y-78317697D01*
X155972743Y-78077670D01*
X155969744Y-77988028D01*
X155966598Y-77922962D01*
X155962701Y-77878026D01*
X155957447Y-77848770D01*
X155950231Y-77830748D01*
X155940450Y-77819511D01*
X155937312Y-77817079D01*
X155889761Y-77798083D01*
X155841697Y-77805600D01*
X155813086Y-77825543D01*
X155801447Y-77839675D01*
X155793391Y-77858220D01*
X155788271Y-77886334D01*
X155785441Y-77929173D01*
X155784256Y-77991895D01*
X155784057Y-78057261D01*
X155784018Y-78139268D01*
X155782614Y-78197316D01*
X155777914Y-78236465D01*
X155767987Y-78261780D01*
X155750903Y-78278323D01*
X155724732Y-78291156D01*
X155689775Y-78304491D01*
X155651596Y-78319007D01*
X155656141Y-78061389D01*
X155657971Y-77968519D01*
X155660112Y-77899889D01*
X155663181Y-77850711D01*
X155667794Y-77816198D01*
X155674568Y-77791562D01*
X155684119Y-77772016D01*
X155695634Y-77754770D01*
X155751190Y-77699680D01*
X155818980Y-77667822D01*
X155892713Y-77660191D01*
X155966093Y-77677780D01*
G36*
X154849744Y-77669918D02*
X154905201Y-77697568D01*
X154954148Y-77748480D01*
X154967629Y-77767338D01*
X154982314Y-77792015D01*
X154991842Y-77818816D01*
X154997293Y-77854587D01*
X154999747Y-77906169D01*
X155000286Y-77974267D01*
X154997852Y-78067588D01*
X154989394Y-78137657D01*
X154973174Y-78189931D01*
X154947454Y-78229869D01*
X154910497Y-78262929D01*
X154907782Y-78264886D01*
X154871360Y-78284908D01*
X154827502Y-78294815D01*
X154771724Y-78297257D01*
X154681048Y-78297257D01*
X154681010Y-78385283D01*
X154680166Y-78434308D01*
X154675024Y-78463065D01*
X154661587Y-78480311D01*
X154635858Y-78494808D01*
X154629679Y-78497769D01*
X154600764Y-78511648D01*
X154578376Y-78520414D01*
X154561729Y-78521171D01*
X154550036Y-78511023D01*
X154542510Y-78487073D01*
X154538366Y-78446426D01*
X154536815Y-78386186D01*
X154537071Y-78303455D01*
X154538349Y-78195339D01*
X154538748Y-78163000D01*
X154540185Y-78051524D01*
X154541472Y-77978603D01*
X154680971Y-77978603D01*
X154681755Y-78040499D01*
X154685240Y-78080997D01*
X154693124Y-78107708D01*
X154707105Y-78128244D01*
X154716597Y-78138260D01*
X154755404Y-78167567D01*
X154789763Y-78169952D01*
X154825216Y-78145750D01*
X154826114Y-78144857D01*
X154840539Y-78126153D01*
X154849313Y-78100732D01*
X154853739Y-78061584D01*
X154855118Y-78001697D01*
X154855143Y-77988430D01*
X154851812Y-77905901D01*
X154840969Y-77848691D01*
X154821340Y-77813766D01*
X154791650Y-77798094D01*
X154774491Y-77796514D01*
X154733766Y-77803926D01*
X154705832Y-77828330D01*
X154689017Y-77872980D01*
X154681650Y-77941130D01*
X154680971Y-77978603D01*
X154541472Y-77978603D01*
X154541708Y-77965245D01*
X154543677Y-77900333D01*
X154546450Y-77852958D01*
X154550388Y-77819290D01*
X154555849Y-77795498D01*
X154563192Y-77777753D01*
X154572777Y-77762224D01*
X154576887Y-77756381D01*
X154631405Y-77701185D01*
X154700336Y-77669890D01*
X154780072Y-77661165D01*
X154849744Y-77669918D01*
X154849744Y-77669918D01*
G37*
X154849744Y-77669918D02*
X154905201Y-77697568D01*
X154954148Y-77748480D01*
X154967629Y-77767338D01*
X154982314Y-77792015D01*
X154991842Y-77818816D01*
X154997293Y-77854587D01*
X154999747Y-77906169D01*
X155000286Y-77974267D01*
X154997852Y-78067588D01*
X154989394Y-78137657D01*
X154973174Y-78189931D01*
X154947454Y-78229869D01*
X154910497Y-78262929D01*
X154907782Y-78264886D01*
X154871360Y-78284908D01*
X154827502Y-78294815D01*
X154771724Y-78297257D01*
X154681048Y-78297257D01*
X154681010Y-78385283D01*
X154680166Y-78434308D01*
X154675024Y-78463065D01*
X154661587Y-78480311D01*
X154635858Y-78494808D01*
X154629679Y-78497769D01*
X154600764Y-78511648D01*
X154578376Y-78520414D01*
X154561729Y-78521171D01*
X154550036Y-78511023D01*
X154542510Y-78487073D01*
X154538366Y-78446426D01*
X154536815Y-78386186D01*
X154537071Y-78303455D01*
X154538349Y-78195339D01*
X154538748Y-78163000D01*
X154540185Y-78051524D01*
X154541472Y-77978603D01*
X154680971Y-77978603D01*
X154681755Y-78040499D01*
X154685240Y-78080997D01*
X154693124Y-78107708D01*
X154707105Y-78128244D01*
X154716597Y-78138260D01*
X154755404Y-78167567D01*
X154789763Y-78169952D01*
X154825216Y-78145750D01*
X154826114Y-78144857D01*
X154840539Y-78126153D01*
X154849313Y-78100732D01*
X154853739Y-78061584D01*
X154855118Y-78001697D01*
X154855143Y-77988430D01*
X154851812Y-77905901D01*
X154840969Y-77848691D01*
X154821340Y-77813766D01*
X154791650Y-77798094D01*
X154774491Y-77796514D01*
X154733766Y-77803926D01*
X154705832Y-77828330D01*
X154689017Y-77872980D01*
X154681650Y-77941130D01*
X154680971Y-77978603D01*
X154541472Y-77978603D01*
X154541708Y-77965245D01*
X154543677Y-77900333D01*
X154546450Y-77852958D01*
X154550388Y-77819290D01*
X154555849Y-77795498D01*
X154563192Y-77777753D01*
X154572777Y-77762224D01*
X154576887Y-77756381D01*
X154631405Y-77701185D01*
X154700336Y-77669890D01*
X154780072Y-77661165D01*
X154849744Y-77669918D01*
D13*
G04 #@! TO.C,U1*
X153162801Y-66882901D02*
X151812801Y-66882901D01*
X153162801Y-72007901D02*
X157812801Y-72007901D01*
X153162801Y-66757901D02*
X157812801Y-66757901D01*
X153162801Y-72007901D02*
X153162801Y-71782901D01*
X157812801Y-72007901D02*
X157812801Y-71782901D01*
X157812801Y-66757901D02*
X157812801Y-66982901D01*
X153162801Y-66757901D02*
X153162801Y-66882901D01*
D14*
G04 #@! TO.C,C1*
X152897936Y-53910000D02*
X154102064Y-53910000D01*
X152897936Y-52090000D02*
X154102064Y-52090000D01*
G04 #@! TO.C,C2*
X160102064Y-58910000D02*
X158897936Y-58910000D01*
X160102064Y-57090000D02*
X158897936Y-57090000D01*
G04 #@! TO.C,C3*
X152897936Y-57090000D02*
X154102064Y-57090000D01*
X152897936Y-58910000D02*
X154102064Y-58910000D01*
G04 #@! TO.C,J4*
X149805000Y-74440000D02*
X151195000Y-74440000D01*
X149805000Y-78560000D02*
X151195000Y-78560000D01*
X149805000Y-74440000D02*
X148810000Y-74440000D01*
X149805000Y-74440000D02*
X149805000Y-74440000D01*
X151195000Y-78560000D02*
X151195000Y-78560000D01*
X151195000Y-74440000D02*
X151195000Y-75440000D01*
X151195000Y-76560000D02*
X151195000Y-77440000D01*
X149805000Y-75560000D02*
X149805000Y-76440000D01*
X149805000Y-77560000D02*
X149805000Y-78560000D01*
G04 #@! TO.C,R1*
X159238748Y-53710000D02*
X159761252Y-53710000D01*
X159238748Y-52290000D02*
X159761252Y-52290000D01*
G04 #@! TO.C,R2*
X159761252Y-63710000D02*
X159238748Y-63710000D01*
X159761252Y-62290000D02*
X159238748Y-62290000D01*
G04 #@! TO.C,R3*
X152988748Y-62290000D02*
X153511252Y-62290000D01*
X152988748Y-63710000D02*
X153511252Y-63710000D01*
G04 #@! TD*
G04 #@! TO.C,U1*
D13*
X154725896Y-65285281D02*
X154725896Y-66094805D01*
X154773515Y-66190043D01*
X154821134Y-66237662D01*
X154916372Y-66285281D01*
X155106848Y-66285281D01*
X155202086Y-66237662D01*
X155249705Y-66190043D01*
X155297324Y-66094805D01*
X155297324Y-65285281D01*
X156297324Y-66285281D02*
X155725896Y-66285281D01*
X156011610Y-66285281D02*
X156011610Y-65285281D01*
X155916372Y-65428139D01*
X155821134Y-65523377D01*
X155725896Y-65570996D01*
G04 #@! TO.C,J1*
X149666666Y-51452380D02*
X149666666Y-52166666D01*
X149619047Y-52309523D01*
X149523809Y-52404761D01*
X149380952Y-52452380D01*
X149285714Y-52452380D01*
X150666666Y-52452380D02*
X150095238Y-52452380D01*
X150380952Y-52452380D02*
X150380952Y-51452380D01*
X150285714Y-51595238D01*
X150190476Y-51690476D01*
X150095238Y-51738095D01*
G04 #@! TO.C,J3*
X149666666Y-87452380D02*
X149666666Y-88166666D01*
X149619047Y-88309523D01*
X149523809Y-88404761D01*
X149380952Y-88452380D01*
X149285714Y-88452380D01*
X150047619Y-87452380D02*
X150666666Y-87452380D01*
X150333333Y-87833333D01*
X150476190Y-87833333D01*
X150571428Y-87880952D01*
X150619047Y-87928571D01*
X150666666Y-88023809D01*
X150666666Y-88261904D01*
X150619047Y-88357142D01*
X150571428Y-88404761D01*
X150476190Y-88452380D01*
X150190476Y-88452380D01*
X150095238Y-88404761D01*
X150047619Y-88357142D01*
G04 #@! TO.C,C1*
X153333333Y-51537142D02*
X153285714Y-51584761D01*
X153142857Y-51632380D01*
X153047619Y-51632380D01*
X152904761Y-51584761D01*
X152809523Y-51489523D01*
X152761904Y-51394285D01*
X152714285Y-51203809D01*
X152714285Y-51060952D01*
X152761904Y-50870476D01*
X152809523Y-50775238D01*
X152904761Y-50680000D01*
X153047619Y-50632380D01*
X153142857Y-50632380D01*
X153285714Y-50680000D01*
X153333333Y-50727619D01*
X154285714Y-51632380D02*
X153714285Y-51632380D01*
X154000000Y-51632380D02*
X154000000Y-50632380D01*
X153904761Y-50775238D01*
X153809523Y-50870476D01*
X153714285Y-50918095D01*
G04 #@! TO.C,C2*
X159315053Y-56536862D02*
X159267434Y-56584481D01*
X159124577Y-56632100D01*
X159029339Y-56632100D01*
X158886481Y-56584481D01*
X158791243Y-56489243D01*
X158743624Y-56394005D01*
X158696005Y-56203529D01*
X158696005Y-56060672D01*
X158743624Y-55870196D01*
X158791243Y-55774958D01*
X158886481Y-55679720D01*
X159029339Y-55632100D01*
X159124577Y-55632100D01*
X159267434Y-55679720D01*
X159315053Y-55727339D01*
X159696005Y-55727339D02*
X159743624Y-55679720D01*
X159838862Y-55632100D01*
X160076958Y-55632100D01*
X160172196Y-55679720D01*
X160219815Y-55727339D01*
X160267434Y-55822577D01*
X160267434Y-55917815D01*
X160219815Y-56060672D01*
X159648386Y-56632100D01*
X160267434Y-56632100D01*
G04 #@! TO.C,C3*
X153333333Y-56537142D02*
X153285714Y-56584761D01*
X153142857Y-56632380D01*
X153047619Y-56632380D01*
X152904761Y-56584761D01*
X152809523Y-56489523D01*
X152761904Y-56394285D01*
X152714285Y-56203809D01*
X152714285Y-56060952D01*
X152761904Y-55870476D01*
X152809523Y-55775238D01*
X152904761Y-55680000D01*
X153047619Y-55632380D01*
X153142857Y-55632380D01*
X153285714Y-55680000D01*
X153333333Y-55727619D01*
X153666666Y-55632380D02*
X154285714Y-55632380D01*
X153952380Y-56013333D01*
X154095238Y-56013333D01*
X154190476Y-56060952D01*
X154238095Y-56108571D01*
X154285714Y-56203809D01*
X154285714Y-56441904D01*
X154238095Y-56537142D01*
X154190476Y-56584761D01*
X154095238Y-56632380D01*
X153809523Y-56632380D01*
X153714285Y-56584761D01*
X153666666Y-56537142D01*
G04 #@! TO.C,J4*
X149666666Y-72892380D02*
X149666666Y-73606666D01*
X149619047Y-73749523D01*
X149523809Y-73844761D01*
X149380952Y-73892380D01*
X149285714Y-73892380D01*
X150571428Y-73225714D02*
X150571428Y-73892380D01*
X150333333Y-72844761D02*
X150095238Y-73559047D01*
X150714285Y-73559047D01*
G04 #@! TO.C,J2*
X149666666Y-67452380D02*
X149666666Y-68166666D01*
X149619047Y-68309523D01*
X149523809Y-68404761D01*
X149380952Y-68452380D01*
X149285714Y-68452380D01*
X150095238Y-67547619D02*
X150142857Y-67500000D01*
X150238095Y-67452380D01*
X150476190Y-67452380D01*
X150571428Y-67500000D01*
X150619047Y-67547619D01*
X150666666Y-67642857D01*
X150666666Y-67738095D01*
X150619047Y-67880952D01*
X150047619Y-68452380D01*
X150666666Y-68452380D01*
G04 #@! TO.C,R1*
X159333333Y-51802380D02*
X159000000Y-51326190D01*
X158761904Y-51802380D02*
X158761904Y-50802380D01*
X159142857Y-50802380D01*
X159238095Y-50850000D01*
X159285714Y-50897619D01*
X159333333Y-50992857D01*
X159333333Y-51135714D01*
X159285714Y-51230952D01*
X159238095Y-51278571D01*
X159142857Y-51326190D01*
X158761904Y-51326190D01*
X160285714Y-51802380D02*
X159714285Y-51802380D01*
X160000000Y-51802380D02*
X160000000Y-50802380D01*
X159904761Y-50945238D01*
X159809523Y-51040476D01*
X159714285Y-51088095D01*
G04 #@! TO.C,R2*
X159333333Y-65102380D02*
X159000000Y-64626190D01*
X158761904Y-65102380D02*
X158761904Y-64102380D01*
X159142857Y-64102380D01*
X159238095Y-64150000D01*
X159285714Y-64197619D01*
X159333333Y-64292857D01*
X159333333Y-64435714D01*
X159285714Y-64530952D01*
X159238095Y-64578571D01*
X159142857Y-64626190D01*
X158761904Y-64626190D01*
X159714285Y-64197619D02*
X159761904Y-64150000D01*
X159857142Y-64102380D01*
X160095238Y-64102380D01*
X160190476Y-64150000D01*
X160238095Y-64197619D01*
X160285714Y-64292857D01*
X160285714Y-64388095D01*
X160238095Y-64530952D01*
X159666666Y-65102380D01*
X160285714Y-65102380D01*
G04 #@! TO.C,R3*
X153083333Y-61802380D02*
X152750000Y-61326190D01*
X152511904Y-61802380D02*
X152511904Y-60802380D01*
X152892857Y-60802380D01*
X152988095Y-60850000D01*
X153035714Y-60897619D01*
X153083333Y-60992857D01*
X153083333Y-61135714D01*
X153035714Y-61230952D01*
X152988095Y-61278571D01*
X152892857Y-61326190D01*
X152511904Y-61326190D01*
X153416666Y-60802380D02*
X154035714Y-60802380D01*
X153702380Y-61183333D01*
X153845238Y-61183333D01*
X153940476Y-61230952D01*
X153988095Y-61278571D01*
X154035714Y-61373809D01*
X154035714Y-61611904D01*
X153988095Y-61707142D01*
X153940476Y-61754761D01*
X153845238Y-61802380D01*
X153559523Y-61802380D01*
X153464285Y-61754761D01*
X153416666Y-61707142D01*
G04 #@! TD*
M02*
