G04 #@! TF.GenerationSoftware,KiCad,Pcbnew,(5.0.0)*
G04 #@! TF.CreationDate,2018-11-30T23:52:53-03:00*
G04 #@! TF.ProjectId,TP_Final,54505F46696E616C2E6B696361645F70,1*
G04 #@! TF.SameCoordinates,Original*
G04 #@! TF.FileFunction,Drawing*
%FSLAX46Y46*%
G04 Gerber Fmt 4.6, Leading zero omitted, Abs format (unit mm)*
G04 Created by KiCad (PCBNEW (5.0.0)) date 11/30/18 23:52:53*
%MOMM*%
%LPD*%
G01*
G04 APERTURE LIST*
%ADD10C,0.250000*%
%ADD11C,0.300000*%
%ADD12C,0.100000*%
G04 APERTURE END LIST*
D10*
X173785714Y-69077380D02*
X173309523Y-69077380D01*
X173309523Y-68077380D01*
X174261904Y-69077380D02*
X174166666Y-69029761D01*
X174119047Y-68982142D01*
X174071428Y-68886904D01*
X174071428Y-68601190D01*
X174119047Y-68505952D01*
X174166666Y-68458333D01*
X174261904Y-68410714D01*
X174404761Y-68410714D01*
X174500000Y-68458333D01*
X174547619Y-68505952D01*
X174595238Y-68601190D01*
X174595238Y-68886904D01*
X174547619Y-68982142D01*
X174500000Y-69029761D01*
X174404761Y-69077380D01*
X174261904Y-69077380D01*
X174976190Y-69029761D02*
X175071428Y-69077380D01*
X175261904Y-69077380D01*
X175357142Y-69029761D01*
X175404761Y-68934523D01*
X175404761Y-68886904D01*
X175357142Y-68791666D01*
X175261904Y-68744047D01*
X175119047Y-68744047D01*
X175023809Y-68696428D01*
X174976190Y-68601190D01*
X174976190Y-68553571D01*
X175023809Y-68458333D01*
X175119047Y-68410714D01*
X175261904Y-68410714D01*
X175357142Y-68458333D01*
X176976190Y-69029761D02*
X176880952Y-69077380D01*
X176690476Y-69077380D01*
X176595238Y-69029761D01*
X176547619Y-68934523D01*
X176547619Y-68553571D01*
X176595238Y-68458333D01*
X176690476Y-68410714D01*
X176880952Y-68410714D01*
X176976190Y-68458333D01*
X177023809Y-68553571D01*
X177023809Y-68648809D01*
X176547619Y-68744047D01*
X177595238Y-69077380D02*
X177500000Y-69029761D01*
X177452380Y-68934523D01*
X177452380Y-68077380D01*
X178357142Y-69029761D02*
X178261904Y-69077380D01*
X178071428Y-69077380D01*
X177976190Y-69029761D01*
X177928571Y-68934523D01*
X177928571Y-68553571D01*
X177976190Y-68458333D01*
X178071428Y-68410714D01*
X178261904Y-68410714D01*
X178357142Y-68458333D01*
X178404761Y-68553571D01*
X178404761Y-68648809D01*
X177928571Y-68744047D01*
X179261904Y-69029761D02*
X179166666Y-69077380D01*
X178976190Y-69077380D01*
X178880952Y-69029761D01*
X178833333Y-68982142D01*
X178785714Y-68886904D01*
X178785714Y-68601190D01*
X178833333Y-68505952D01*
X178880952Y-68458333D01*
X178976190Y-68410714D01*
X179166666Y-68410714D01*
X179261904Y-68458333D01*
X179547619Y-68410714D02*
X179928571Y-68410714D01*
X179690476Y-68077380D02*
X179690476Y-68934523D01*
X179738095Y-69029761D01*
X179833333Y-69077380D01*
X179928571Y-69077380D01*
X180261904Y-69077380D02*
X180261904Y-68410714D01*
X180261904Y-68601190D02*
X180309523Y-68505952D01*
X180357142Y-68458333D01*
X180452380Y-68410714D01*
X180547619Y-68410714D01*
X181023809Y-69077380D02*
X180928571Y-69029761D01*
X180880952Y-68982142D01*
X180833333Y-68886904D01*
X180833333Y-68601190D01*
X180880952Y-68505952D01*
X180928571Y-68458333D01*
X181023809Y-68410714D01*
X181166666Y-68410714D01*
X181261904Y-68458333D01*
X181309523Y-68505952D01*
X181357142Y-68601190D01*
X181357142Y-68886904D01*
X181309523Y-68982142D01*
X181261904Y-69029761D01*
X181166666Y-69077380D01*
X181023809Y-69077380D01*
X182214285Y-69077380D02*
X182214285Y-68077380D01*
X182214285Y-69029761D02*
X182119047Y-69077380D01*
X181928571Y-69077380D01*
X181833333Y-69029761D01*
X181785714Y-68982142D01*
X181738095Y-68886904D01*
X181738095Y-68601190D01*
X181785714Y-68505952D01*
X181833333Y-68458333D01*
X181928571Y-68410714D01*
X182119047Y-68410714D01*
X182214285Y-68458333D01*
X182833333Y-69077380D02*
X182738095Y-69029761D01*
X182690476Y-68982142D01*
X182642857Y-68886904D01*
X182642857Y-68601190D01*
X182690476Y-68505952D01*
X182738095Y-68458333D01*
X182833333Y-68410714D01*
X182976190Y-68410714D01*
X183071428Y-68458333D01*
X183119047Y-68505952D01*
X183166666Y-68601190D01*
X183166666Y-68886904D01*
X183119047Y-68982142D01*
X183071428Y-69029761D01*
X182976190Y-69077380D01*
X182833333Y-69077380D01*
X183547619Y-69029761D02*
X183642857Y-69077380D01*
X183833333Y-69077380D01*
X183928571Y-69029761D01*
X183976190Y-68934523D01*
X183976190Y-68886904D01*
X183928571Y-68791666D01*
X183833333Y-68744047D01*
X183690476Y-68744047D01*
X183595238Y-68696428D01*
X183547619Y-68601190D01*
X183547619Y-68553571D01*
X183595238Y-68458333D01*
X183690476Y-68410714D01*
X183833333Y-68410714D01*
X183928571Y-68458333D01*
X185452380Y-69458333D02*
X185404761Y-69410714D01*
X185309523Y-69267857D01*
X185261904Y-69172619D01*
X185214285Y-69029761D01*
X185166666Y-68791666D01*
X185166666Y-68601190D01*
X185214285Y-68363095D01*
X185261904Y-68220238D01*
X185309523Y-68125000D01*
X185404761Y-67982142D01*
X185452380Y-67934523D01*
X186119047Y-68077380D02*
X186119047Y-68791666D01*
X186071428Y-68934523D01*
X185976190Y-69029761D01*
X185833333Y-69077380D01*
X185738095Y-69077380D01*
X187119047Y-69077380D02*
X186547619Y-69077380D01*
X186833333Y-69077380D02*
X186833333Y-68077380D01*
X186738095Y-68220238D01*
X186642857Y-68315476D01*
X186547619Y-68363095D01*
X187595238Y-69029761D02*
X187595238Y-69077380D01*
X187547619Y-69172619D01*
X187500000Y-69220238D01*
X189071428Y-68077380D02*
X189071428Y-68791666D01*
X189023809Y-68934523D01*
X188928571Y-69029761D01*
X188785714Y-69077380D01*
X188690476Y-69077380D01*
X189500000Y-68172619D02*
X189547619Y-68125000D01*
X189642857Y-68077380D01*
X189880952Y-68077380D01*
X189976190Y-68125000D01*
X190023809Y-68172619D01*
X190071428Y-68267857D01*
X190071428Y-68363095D01*
X190023809Y-68505952D01*
X189452380Y-69077380D01*
X190071428Y-69077380D01*
X191166666Y-68410714D02*
X191404761Y-69077380D01*
X191642857Y-68410714D02*
X191404761Y-69077380D01*
X191309523Y-69315476D01*
X191261904Y-69363095D01*
X191166666Y-69410714D01*
X193071428Y-68077380D02*
X193071428Y-68791666D01*
X193023809Y-68934523D01*
X192928571Y-69029761D01*
X192785714Y-69077380D01*
X192690476Y-69077380D01*
X193452380Y-68077380D02*
X194071428Y-68077380D01*
X193738095Y-68458333D01*
X193880952Y-68458333D01*
X193976190Y-68505952D01*
X194023809Y-68553571D01*
X194071428Y-68648809D01*
X194071428Y-68886904D01*
X194023809Y-68982142D01*
X193976190Y-69029761D01*
X193880952Y-69077380D01*
X193595238Y-69077380D01*
X193500000Y-69029761D01*
X193452380Y-68982142D01*
X194404761Y-69458333D02*
X194452380Y-69410714D01*
X194547619Y-69267857D01*
X194595238Y-69172619D01*
X194642857Y-69029761D01*
X194690476Y-68791666D01*
X194690476Y-68601190D01*
X194642857Y-68363095D01*
X194595238Y-68220238D01*
X194547619Y-68125000D01*
X194452380Y-67982142D01*
X194404761Y-67934523D01*
X172595238Y-70827380D02*
X172595238Y-69827380D01*
X172595238Y-70779761D02*
X172500000Y-70827380D01*
X172309523Y-70827380D01*
X172214285Y-70779761D01*
X172166666Y-70732142D01*
X172119047Y-70636904D01*
X172119047Y-70351190D01*
X172166666Y-70255952D01*
X172214285Y-70208333D01*
X172309523Y-70160714D01*
X172500000Y-70160714D01*
X172595238Y-70208333D01*
X173452380Y-70779761D02*
X173357142Y-70827380D01*
X173166666Y-70827380D01*
X173071428Y-70779761D01*
X173023809Y-70684523D01*
X173023809Y-70303571D01*
X173071428Y-70208333D01*
X173166666Y-70160714D01*
X173357142Y-70160714D01*
X173452380Y-70208333D01*
X173500000Y-70303571D01*
X173500000Y-70398809D01*
X173023809Y-70494047D01*
X173928571Y-70827380D02*
X173928571Y-69827380D01*
X173928571Y-70208333D02*
X174023809Y-70160714D01*
X174214285Y-70160714D01*
X174309523Y-70208333D01*
X174357142Y-70255952D01*
X174404761Y-70351190D01*
X174404761Y-70636904D01*
X174357142Y-70732142D01*
X174309523Y-70779761D01*
X174214285Y-70827380D01*
X174023809Y-70827380D01*
X173928571Y-70779761D01*
X175214285Y-70779761D02*
X175119047Y-70827380D01*
X174928571Y-70827380D01*
X174833333Y-70779761D01*
X174785714Y-70684523D01*
X174785714Y-70303571D01*
X174833333Y-70208333D01*
X174928571Y-70160714D01*
X175119047Y-70160714D01*
X175214285Y-70208333D01*
X175261904Y-70303571D01*
X175261904Y-70398809D01*
X174785714Y-70494047D01*
X175690476Y-70160714D02*
X175690476Y-70827380D01*
X175690476Y-70255952D02*
X175738095Y-70208333D01*
X175833333Y-70160714D01*
X175976190Y-70160714D01*
X176071428Y-70208333D01*
X176119047Y-70303571D01*
X176119047Y-70827380D01*
X177738095Y-70779761D02*
X177642857Y-70827380D01*
X177452380Y-70827380D01*
X177357142Y-70779761D01*
X177309523Y-70684523D01*
X177309523Y-70303571D01*
X177357142Y-70208333D01*
X177452380Y-70160714D01*
X177642857Y-70160714D01*
X177738095Y-70208333D01*
X177785714Y-70303571D01*
X177785714Y-70398809D01*
X177309523Y-70494047D01*
X178166666Y-70779761D02*
X178261904Y-70827380D01*
X178452380Y-70827380D01*
X178547619Y-70779761D01*
X178595238Y-70684523D01*
X178595238Y-70636904D01*
X178547619Y-70541666D01*
X178452380Y-70494047D01*
X178309523Y-70494047D01*
X178214285Y-70446428D01*
X178166666Y-70351190D01*
X178166666Y-70303571D01*
X178214285Y-70208333D01*
X178309523Y-70160714D01*
X178452380Y-70160714D01*
X178547619Y-70208333D01*
X178880952Y-70160714D02*
X179261904Y-70160714D01*
X179023809Y-69827380D02*
X179023809Y-70684523D01*
X179071428Y-70779761D01*
X179166666Y-70827380D01*
X179261904Y-70827380D01*
X180023809Y-70827380D02*
X180023809Y-70303571D01*
X179976190Y-70208333D01*
X179880952Y-70160714D01*
X179690476Y-70160714D01*
X179595238Y-70208333D01*
X180023809Y-70779761D02*
X179928571Y-70827380D01*
X179690476Y-70827380D01*
X179595238Y-70779761D01*
X179547619Y-70684523D01*
X179547619Y-70589285D01*
X179595238Y-70494047D01*
X179690476Y-70446428D01*
X179928571Y-70446428D01*
X180023809Y-70398809D01*
X180500000Y-70827380D02*
X180500000Y-70160714D01*
X180500000Y-70351190D02*
X180547619Y-70255952D01*
X180595238Y-70208333D01*
X180690476Y-70160714D01*
X180785714Y-70160714D01*
X182261904Y-70779761D02*
X182166666Y-70827380D01*
X181976190Y-70827380D01*
X181880952Y-70779761D01*
X181833333Y-70684523D01*
X181833333Y-70303571D01*
X181880952Y-70208333D01*
X181976190Y-70160714D01*
X182166666Y-70160714D01*
X182261904Y-70208333D01*
X182309523Y-70303571D01*
X182309523Y-70398809D01*
X181833333Y-70494047D01*
X182690476Y-70779761D02*
X182785714Y-70827380D01*
X182976190Y-70827380D01*
X183071428Y-70779761D01*
X183119047Y-70684523D01*
X183119047Y-70636904D01*
X183071428Y-70541666D01*
X182976190Y-70494047D01*
X182833333Y-70494047D01*
X182738095Y-70446428D01*
X182690476Y-70351190D01*
X182690476Y-70303571D01*
X182738095Y-70208333D01*
X182833333Y-70160714D01*
X182976190Y-70160714D01*
X183071428Y-70208333D01*
X183547619Y-70160714D02*
X183547619Y-71160714D01*
X183547619Y-70208333D02*
X183642857Y-70160714D01*
X183833333Y-70160714D01*
X183928571Y-70208333D01*
X183976190Y-70255952D01*
X184023809Y-70351190D01*
X184023809Y-70636904D01*
X183976190Y-70732142D01*
X183928571Y-70779761D01*
X183833333Y-70827380D01*
X183642857Y-70827380D01*
X183547619Y-70779761D01*
X184880952Y-70827380D02*
X184880952Y-70303571D01*
X184833333Y-70208333D01*
X184738095Y-70160714D01*
X184547619Y-70160714D01*
X184452380Y-70208333D01*
X184880952Y-70779761D02*
X184785714Y-70827380D01*
X184547619Y-70827380D01*
X184452380Y-70779761D01*
X184404761Y-70684523D01*
X184404761Y-70589285D01*
X184452380Y-70494047D01*
X184547619Y-70446428D01*
X184785714Y-70446428D01*
X184880952Y-70398809D01*
X185785714Y-70779761D02*
X185690476Y-70827380D01*
X185500000Y-70827380D01*
X185404761Y-70779761D01*
X185357142Y-70732142D01*
X185309523Y-70636904D01*
X185309523Y-70351190D01*
X185357142Y-70255952D01*
X185404761Y-70208333D01*
X185500000Y-70160714D01*
X185690476Y-70160714D01*
X185785714Y-70208333D01*
X186214285Y-70827380D02*
X186214285Y-70160714D01*
X186214285Y-69827380D02*
X186166666Y-69875000D01*
X186214285Y-69922619D01*
X186261904Y-69875000D01*
X186214285Y-69827380D01*
X186214285Y-69922619D01*
X187119047Y-70827380D02*
X187119047Y-70303571D01*
X187071428Y-70208333D01*
X186976190Y-70160714D01*
X186785714Y-70160714D01*
X186690476Y-70208333D01*
X187119047Y-70779761D02*
X187023809Y-70827380D01*
X186785714Y-70827380D01*
X186690476Y-70779761D01*
X186642857Y-70684523D01*
X186642857Y-70589285D01*
X186690476Y-70494047D01*
X186785714Y-70446428D01*
X187023809Y-70446428D01*
X187119047Y-70398809D01*
X188023809Y-70827380D02*
X188023809Y-69827380D01*
X188023809Y-70779761D02*
X187928571Y-70827380D01*
X187738095Y-70827380D01*
X187642857Y-70779761D01*
X187595238Y-70732142D01*
X187547619Y-70636904D01*
X187547619Y-70351190D01*
X187595238Y-70255952D01*
X187642857Y-70208333D01*
X187738095Y-70160714D01*
X187928571Y-70160714D01*
X188023809Y-70208333D01*
X188642857Y-70827380D02*
X188547619Y-70779761D01*
X188500000Y-70732142D01*
X188452380Y-70636904D01*
X188452380Y-70351190D01*
X188500000Y-70255952D01*
X188547619Y-70208333D01*
X188642857Y-70160714D01*
X188785714Y-70160714D01*
X188880952Y-70208333D01*
X188928571Y-70255952D01*
X188976190Y-70351190D01*
X188976190Y-70636904D01*
X188928571Y-70732142D01*
X188880952Y-70779761D01*
X188785714Y-70827380D01*
X188642857Y-70827380D01*
X189357142Y-70779761D02*
X189452380Y-70827380D01*
X189642857Y-70827380D01*
X189738095Y-70779761D01*
X189785714Y-70684523D01*
X189785714Y-70636904D01*
X189738095Y-70541666D01*
X189642857Y-70494047D01*
X189500000Y-70494047D01*
X189404761Y-70446428D01*
X189357142Y-70351190D01*
X189357142Y-70303571D01*
X189404761Y-70208333D01*
X189500000Y-70160714D01*
X189642857Y-70160714D01*
X189738095Y-70208333D01*
X190928571Y-69922619D02*
X190976190Y-69875000D01*
X191071428Y-69827380D01*
X191309523Y-69827380D01*
X191404761Y-69875000D01*
X191452380Y-69922619D01*
X191500000Y-70017857D01*
X191500000Y-70113095D01*
X191452380Y-70255952D01*
X190880952Y-70827380D01*
X191500000Y-70827380D01*
X192119047Y-69827380D02*
X192214285Y-69827380D01*
X192309523Y-69875000D01*
X192357142Y-69922619D01*
X192404761Y-70017857D01*
X192452380Y-70208333D01*
X192452380Y-70446428D01*
X192404761Y-70636904D01*
X192357142Y-70732142D01*
X192309523Y-70779761D01*
X192214285Y-70827380D01*
X192119047Y-70827380D01*
X192023809Y-70779761D01*
X191976190Y-70732142D01*
X191928571Y-70636904D01*
X191880952Y-70446428D01*
X191880952Y-70208333D01*
X191928571Y-70017857D01*
X191976190Y-69922619D01*
X192023809Y-69875000D01*
X192119047Y-69827380D01*
X193642857Y-70827380D02*
X193642857Y-70160714D01*
X193642857Y-70255952D02*
X193690476Y-70208333D01*
X193785714Y-70160714D01*
X193928571Y-70160714D01*
X194023809Y-70208333D01*
X194071428Y-70303571D01*
X194071428Y-70827380D01*
X194071428Y-70303571D02*
X194119047Y-70208333D01*
X194214285Y-70160714D01*
X194357142Y-70160714D01*
X194452380Y-70208333D01*
X194500000Y-70303571D01*
X194500000Y-70827380D01*
X194976190Y-70827380D02*
X194976190Y-70160714D01*
X194976190Y-70255952D02*
X195023809Y-70208333D01*
X195119047Y-70160714D01*
X195261904Y-70160714D01*
X195357142Y-70208333D01*
X195404761Y-70303571D01*
X195404761Y-70827380D01*
X195404761Y-70303571D02*
X195452380Y-70208333D01*
X195547619Y-70160714D01*
X195690476Y-70160714D01*
X195785714Y-70208333D01*
X195833333Y-70303571D01*
X195833333Y-70827380D01*
D11*
X141221428Y-64571428D02*
X141221428Y-63857142D01*
X140507142Y-63785714D01*
X140578571Y-63857142D01*
X140650000Y-64000000D01*
X140650000Y-64357142D01*
X140578571Y-64500000D01*
X140507142Y-64571428D01*
X140364285Y-64642857D01*
X140007142Y-64642857D01*
X139864285Y-64571428D01*
X139792857Y-64500000D01*
X139721428Y-64357142D01*
X139721428Y-64000000D01*
X139792857Y-63857142D01*
X139864285Y-63785714D01*
X141078571Y-65214285D02*
X141150000Y-65285714D01*
X141221428Y-65428571D01*
X141221428Y-65785714D01*
X141150000Y-65928571D01*
X141078571Y-66000000D01*
X140935714Y-66071428D01*
X140792857Y-66071428D01*
X140578571Y-66000000D01*
X139721428Y-65142857D01*
X139721428Y-66071428D01*
X139792857Y-66785714D02*
X139721428Y-66785714D01*
X139578571Y-66714285D01*
X139507142Y-66642857D01*
X141221428Y-67714285D02*
X141221428Y-67857142D01*
X141150000Y-68000000D01*
X141078571Y-68071428D01*
X140935714Y-68142857D01*
X140650000Y-68214285D01*
X140292857Y-68214285D01*
X140007142Y-68142857D01*
X139864285Y-68071428D01*
X139792857Y-68000000D01*
X139721428Y-67857142D01*
X139721428Y-67714285D01*
X139792857Y-67571428D01*
X139864285Y-67500000D01*
X140007142Y-67428571D01*
X140292857Y-67357142D01*
X140650000Y-67357142D01*
X140935714Y-67428571D01*
X141078571Y-67500000D01*
X141150000Y-67571428D01*
X141221428Y-67714285D01*
X141221428Y-69142857D02*
X141221428Y-69285714D01*
X141150000Y-69428571D01*
X141078571Y-69500000D01*
X140935714Y-69571428D01*
X140650000Y-69642857D01*
X140292857Y-69642857D01*
X140007142Y-69571428D01*
X139864285Y-69500000D01*
X139792857Y-69428571D01*
X139721428Y-69285714D01*
X139721428Y-69142857D01*
X139792857Y-69000000D01*
X139864285Y-68928571D01*
X140007142Y-68857142D01*
X140292857Y-68785714D01*
X140650000Y-68785714D01*
X140935714Y-68857142D01*
X141078571Y-68928571D01*
X141150000Y-69000000D01*
X141221428Y-69142857D01*
X141221428Y-70571428D02*
X141221428Y-70714285D01*
X141150000Y-70857142D01*
X141078571Y-70928571D01*
X140935714Y-71000000D01*
X140650000Y-71071428D01*
X140292857Y-71071428D01*
X140007142Y-71000000D01*
X139864285Y-70928571D01*
X139792857Y-70857142D01*
X139721428Y-70714285D01*
X139721428Y-70571428D01*
X139792857Y-70428571D01*
X139864285Y-70357142D01*
X140007142Y-70285714D01*
X140292857Y-70214285D01*
X140650000Y-70214285D01*
X140935714Y-70285714D01*
X141078571Y-70357142D01*
X141150000Y-70428571D01*
X141221428Y-70571428D01*
X139721428Y-72857142D02*
X140721428Y-72857142D01*
X140578571Y-72857142D02*
X140650000Y-72928571D01*
X140721428Y-73071428D01*
X140721428Y-73285714D01*
X140650000Y-73428571D01*
X140507142Y-73500000D01*
X139721428Y-73500000D01*
X140507142Y-73500000D02*
X140650000Y-73571428D01*
X140721428Y-73714285D01*
X140721428Y-73928571D01*
X140650000Y-74071428D01*
X140507142Y-74142857D01*
X139721428Y-74142857D01*
X139721428Y-74857142D02*
X140721428Y-74857142D01*
X140578571Y-74857142D02*
X140650000Y-74928571D01*
X140721428Y-75071428D01*
X140721428Y-75285714D01*
X140650000Y-75428571D01*
X140507142Y-75500000D01*
X139721428Y-75500000D01*
X140507142Y-75500000D02*
X140650000Y-75571428D01*
X140721428Y-75714285D01*
X140721428Y-75928571D01*
X140650000Y-76071428D01*
X140507142Y-76142857D01*
X139721428Y-76142857D01*
X142500000Y-44000000D02*
X142500000Y-96000000D01*
X147000000Y-44000000D02*
X141913579Y-44000000D01*
X147000000Y-96000000D02*
X141913579Y-96000000D01*
X142500000Y-96000000D02*
X141913579Y-94873496D01*
X142500000Y-96000000D02*
X143086421Y-94873496D01*
X142500000Y-44000000D02*
X141913579Y-45126504D01*
X142500000Y-44000000D02*
X143086421Y-45126504D01*
X150785714Y-37221428D02*
X150857142Y-37150000D01*
X151000000Y-37078571D01*
X151357142Y-37078571D01*
X151500000Y-37150000D01*
X151571428Y-37221428D01*
X151642857Y-37364285D01*
X151642857Y-37507142D01*
X151571428Y-37721428D01*
X150714285Y-38578571D01*
X151642857Y-38578571D01*
X152571428Y-37078571D02*
X152714285Y-37078571D01*
X152857142Y-37150000D01*
X152928571Y-37221428D01*
X153000000Y-37364285D01*
X153071428Y-37650000D01*
X153071428Y-38007142D01*
X153000000Y-38292857D01*
X152928571Y-38435714D01*
X152857142Y-38507142D01*
X152714285Y-38578571D01*
X152571428Y-38578571D01*
X152428571Y-38507142D01*
X152357142Y-38435714D01*
X152285714Y-38292857D01*
X152214285Y-38007142D01*
X152214285Y-37650000D01*
X152285714Y-37364285D01*
X152357142Y-37221428D01*
X152428571Y-37150000D01*
X152571428Y-37078571D01*
X153785714Y-38507142D02*
X153785714Y-38578571D01*
X153714285Y-38721428D01*
X153642857Y-38792857D01*
X154714285Y-37078571D02*
X154857142Y-37078571D01*
X155000000Y-37150000D01*
X155071428Y-37221428D01*
X155142857Y-37364285D01*
X155214285Y-37650000D01*
X155214285Y-38007142D01*
X155142857Y-38292857D01*
X155071428Y-38435714D01*
X155000000Y-38507142D01*
X154857142Y-38578571D01*
X154714285Y-38578571D01*
X154571428Y-38507142D01*
X154500000Y-38435714D01*
X154428571Y-38292857D01*
X154357142Y-38007142D01*
X154357142Y-37650000D01*
X154428571Y-37364285D01*
X154500000Y-37221428D01*
X154571428Y-37150000D01*
X154714285Y-37078571D01*
X156142857Y-37078571D02*
X156285714Y-37078571D01*
X156428571Y-37150000D01*
X156500000Y-37221428D01*
X156571428Y-37364285D01*
X156642857Y-37650000D01*
X156642857Y-38007142D01*
X156571428Y-38292857D01*
X156500000Y-38435714D01*
X156428571Y-38507142D01*
X156285714Y-38578571D01*
X156142857Y-38578571D01*
X156000000Y-38507142D01*
X155928571Y-38435714D01*
X155857142Y-38292857D01*
X155785714Y-38007142D01*
X155785714Y-37650000D01*
X155857142Y-37364285D01*
X155928571Y-37221428D01*
X156000000Y-37150000D01*
X156142857Y-37078571D01*
X157571428Y-37078571D02*
X157714285Y-37078571D01*
X157857142Y-37150000D01*
X157928571Y-37221428D01*
X158000000Y-37364285D01*
X158071428Y-37650000D01*
X158071428Y-38007142D01*
X158000000Y-38292857D01*
X157928571Y-38435714D01*
X157857142Y-38507142D01*
X157714285Y-38578571D01*
X157571428Y-38578571D01*
X157428571Y-38507142D01*
X157357142Y-38435714D01*
X157285714Y-38292857D01*
X157214285Y-38007142D01*
X157214285Y-37650000D01*
X157285714Y-37364285D01*
X157357142Y-37221428D01*
X157428571Y-37150000D01*
X157571428Y-37078571D01*
X159857142Y-38578571D02*
X159857142Y-37578571D01*
X159857142Y-37721428D02*
X159928571Y-37650000D01*
X160071428Y-37578571D01*
X160285714Y-37578571D01*
X160428571Y-37650000D01*
X160500000Y-37792857D01*
X160500000Y-38578571D01*
X160500000Y-37792857D02*
X160571428Y-37650000D01*
X160714285Y-37578571D01*
X160928571Y-37578571D01*
X161071428Y-37650000D01*
X161142857Y-37792857D01*
X161142857Y-38578571D01*
X161857142Y-38578571D02*
X161857142Y-37578571D01*
X161857142Y-37721428D02*
X161928571Y-37650000D01*
X162071428Y-37578571D01*
X162285714Y-37578571D01*
X162428571Y-37650000D01*
X162500000Y-37792857D01*
X162500000Y-38578571D01*
X162500000Y-37792857D02*
X162571428Y-37650000D01*
X162714285Y-37578571D01*
X162928571Y-37578571D01*
X163071428Y-37650000D01*
X163142857Y-37792857D01*
X163142857Y-38578571D01*
X167000000Y-40000000D02*
X147000000Y-40000000D01*
X167000000Y-44000000D02*
X167000000Y-39413579D01*
X147000000Y-44000000D02*
X147000000Y-39413579D01*
X147000000Y-40000000D02*
X148126504Y-39413579D01*
X147000000Y-40000000D02*
X148126504Y-40586421D01*
X167000000Y-40000000D02*
X165873496Y-39413579D01*
X167000000Y-40000000D02*
X165873496Y-40586421D01*
D10*
X173900595Y-46452380D02*
X173900595Y-45452380D01*
X174233928Y-46166666D01*
X174567261Y-45452380D01*
X174567261Y-46452380D01*
X175043452Y-46452380D02*
X175043452Y-45785714D01*
X175138690Y-45404761D02*
X174995833Y-45547619D01*
X175519642Y-45785714D02*
X175519642Y-46452380D01*
X175519642Y-45880952D02*
X175567261Y-45833333D01*
X175662500Y-45785714D01*
X175805357Y-45785714D01*
X175900595Y-45833333D01*
X175948214Y-45928571D01*
X175948214Y-46452380D01*
X176424404Y-46452380D02*
X176424404Y-45785714D01*
X176424404Y-45452380D02*
X176376785Y-45500000D01*
X176424404Y-45547619D01*
X176472023Y-45500000D01*
X176424404Y-45452380D01*
X176424404Y-45547619D01*
X176900595Y-46452380D02*
X176900595Y-45785714D01*
X176900595Y-45880952D02*
X176948214Y-45833333D01*
X177043452Y-45785714D01*
X177186309Y-45785714D01*
X177281547Y-45833333D01*
X177329166Y-45928571D01*
X177329166Y-46452380D01*
X177329166Y-45928571D02*
X177376785Y-45833333D01*
X177472023Y-45785714D01*
X177614880Y-45785714D01*
X177710119Y-45833333D01*
X177757738Y-45928571D01*
X177757738Y-46452380D01*
X178376785Y-46452380D02*
X178281547Y-46404761D01*
X178233928Y-46357142D01*
X178186309Y-46261904D01*
X178186309Y-45976190D01*
X178233928Y-45880952D01*
X178281547Y-45833333D01*
X178376785Y-45785714D01*
X178519642Y-45785714D01*
X178614880Y-45833333D01*
X178662500Y-45880952D01*
X178710119Y-45976190D01*
X178710119Y-46261904D01*
X178662500Y-46357142D01*
X178614880Y-46404761D01*
X178519642Y-46452380D01*
X178376785Y-46452380D01*
X179091071Y-46404761D02*
X179186309Y-46452380D01*
X179376785Y-46452380D01*
X179472023Y-46404761D01*
X179519642Y-46309523D01*
X179519642Y-46261904D01*
X179472023Y-46166666D01*
X179376785Y-46119047D01*
X179233928Y-46119047D01*
X179138690Y-46071428D01*
X179091071Y-45976190D01*
X179091071Y-45928571D01*
X179138690Y-45833333D01*
X179233928Y-45785714D01*
X179376785Y-45785714D01*
X179472023Y-45833333D01*
X180995833Y-46833333D02*
X180948214Y-46785714D01*
X180852976Y-46642857D01*
X180805357Y-46547619D01*
X180757738Y-46404761D01*
X180710119Y-46166666D01*
X180710119Y-45976190D01*
X180757738Y-45738095D01*
X180805357Y-45595238D01*
X180852976Y-45500000D01*
X180948214Y-45357142D01*
X180995833Y-45309523D01*
X181376785Y-46452380D02*
X181376785Y-45452380D01*
X181710119Y-46166666D01*
X182043452Y-45452380D01*
X182043452Y-46452380D01*
X182948214Y-46452380D02*
X182948214Y-45928571D01*
X182900595Y-45833333D01*
X182805357Y-45785714D01*
X182614880Y-45785714D01*
X182519642Y-45833333D01*
X182948214Y-46404761D02*
X182852976Y-46452380D01*
X182614880Y-46452380D01*
X182519642Y-46404761D01*
X182472023Y-46309523D01*
X182472023Y-46214285D01*
X182519642Y-46119047D01*
X182614880Y-46071428D01*
X182852976Y-46071428D01*
X182948214Y-46023809D01*
X183329166Y-45785714D02*
X183567261Y-46452380D01*
X183805357Y-45785714D02*
X183567261Y-46452380D01*
X183472023Y-46690476D01*
X183424404Y-46738095D01*
X183329166Y-46785714D01*
X184567261Y-46404761D02*
X184472023Y-46452380D01*
X184281547Y-46452380D01*
X184186309Y-46404761D01*
X184138690Y-46309523D01*
X184138690Y-45928571D01*
X184186309Y-45833333D01*
X184281547Y-45785714D01*
X184472023Y-45785714D01*
X184567261Y-45833333D01*
X184614880Y-45928571D01*
X184614880Y-46023809D01*
X184138690Y-46119047D01*
X185043452Y-46452380D02*
X185043452Y-45785714D01*
X185043452Y-45976190D02*
X185091071Y-45880952D01*
X185138690Y-45833333D01*
X185233928Y-45785714D01*
X185329166Y-45785714D01*
X186948214Y-46452380D02*
X186376785Y-46452380D01*
X186662500Y-46452380D02*
X186662500Y-45452380D01*
X186567261Y-45595238D01*
X186472023Y-45690476D01*
X186376785Y-45738095D01*
X187567261Y-45452380D02*
X187662500Y-45452380D01*
X187757738Y-45500000D01*
X187805357Y-45547619D01*
X187852976Y-45642857D01*
X187900595Y-45833333D01*
X187900595Y-46071428D01*
X187852976Y-46261904D01*
X187805357Y-46357142D01*
X187757738Y-46404761D01*
X187662500Y-46452380D01*
X187567261Y-46452380D01*
X187472023Y-46404761D01*
X187424404Y-46357142D01*
X187376785Y-46261904D01*
X187329166Y-46071428D01*
X187329166Y-45833333D01*
X187376785Y-45642857D01*
X187424404Y-45547619D01*
X187472023Y-45500000D01*
X187567261Y-45452380D01*
X189091071Y-46452380D02*
X189091071Y-45785714D01*
X189091071Y-45880952D02*
X189138690Y-45833333D01*
X189233928Y-45785714D01*
X189376785Y-45785714D01*
X189472023Y-45833333D01*
X189519642Y-45928571D01*
X189519642Y-46452380D01*
X189519642Y-45928571D02*
X189567261Y-45833333D01*
X189662500Y-45785714D01*
X189805357Y-45785714D01*
X189900595Y-45833333D01*
X189948214Y-45928571D01*
X189948214Y-46452380D01*
X190424404Y-46452380D02*
X190424404Y-45785714D01*
X190424404Y-45452380D02*
X190376785Y-45500000D01*
X190424404Y-45547619D01*
X190472023Y-45500000D01*
X190424404Y-45452380D01*
X190424404Y-45547619D01*
X191043452Y-46452380D02*
X190948214Y-46404761D01*
X190900595Y-46309523D01*
X190900595Y-45452380D01*
X191376785Y-46404761D02*
X191472023Y-46452380D01*
X191662500Y-46452380D01*
X191757738Y-46404761D01*
X191805357Y-46309523D01*
X191805357Y-46261904D01*
X191757738Y-46166666D01*
X191662500Y-46119047D01*
X191519642Y-46119047D01*
X191424404Y-46071428D01*
X191376785Y-45976190D01*
X191376785Y-45928571D01*
X191424404Y-45833333D01*
X191519642Y-45785714D01*
X191662500Y-45785714D01*
X191757738Y-45833333D01*
X192138690Y-46833333D02*
X192186309Y-46785714D01*
X192281547Y-46642857D01*
X192329166Y-46547619D01*
X192376785Y-46404761D01*
X192424404Y-46166666D01*
X192424404Y-45976190D01*
X192376785Y-45738095D01*
X192329166Y-45595238D01*
X192281547Y-45500000D01*
X192186309Y-45357142D01*
X192138690Y-45309523D01*
X192900595Y-46357142D02*
X192948214Y-46404761D01*
X192900595Y-46452380D01*
X192852976Y-46404761D01*
X192900595Y-46357142D01*
X192900595Y-46452380D01*
X192900595Y-45833333D02*
X192948214Y-45880952D01*
X192900595Y-45928571D01*
X192852976Y-45880952D01*
X192900595Y-45833333D01*
X192900595Y-45928571D01*
X174424404Y-47250000D02*
X174329166Y-47202380D01*
X174186309Y-47202380D01*
X174043452Y-47250000D01*
X173948214Y-47345238D01*
X173900595Y-47440476D01*
X173852976Y-47630952D01*
X173852976Y-47773809D01*
X173900595Y-47964285D01*
X173948214Y-48059523D01*
X174043452Y-48154761D01*
X174186309Y-48202380D01*
X174281547Y-48202380D01*
X174424404Y-48154761D01*
X174472023Y-48107142D01*
X174472023Y-47773809D01*
X174281547Y-47773809D01*
X174900595Y-48202380D02*
X174900595Y-47535714D01*
X174900595Y-47726190D02*
X174948214Y-47630952D01*
X174995833Y-47583333D01*
X175091071Y-47535714D01*
X175186309Y-47535714D01*
X175519642Y-48202380D02*
X175519642Y-47535714D01*
X175519642Y-47202380D02*
X175472023Y-47250000D01*
X175519642Y-47297619D01*
X175567261Y-47250000D01*
X175519642Y-47202380D01*
X175519642Y-47297619D01*
X176138690Y-48202380D02*
X176043452Y-48154761D01*
X175995833Y-48059523D01*
X175995833Y-47202380D01*
X176662500Y-48202380D02*
X176567261Y-48154761D01*
X176519642Y-48059523D01*
X176519642Y-47202380D01*
X177472023Y-48202380D02*
X177472023Y-47678571D01*
X177424404Y-47583333D01*
X177329166Y-47535714D01*
X177138690Y-47535714D01*
X177043452Y-47583333D01*
X177472023Y-48154761D02*
X177376785Y-48202380D01*
X177138690Y-48202380D01*
X177043452Y-48154761D01*
X176995833Y-48059523D01*
X176995833Y-47964285D01*
X177043452Y-47869047D01*
X177138690Y-47821428D01*
X177376785Y-47821428D01*
X177472023Y-47773809D01*
X177900595Y-48154761D02*
X177995833Y-48202380D01*
X178186309Y-48202380D01*
X178281547Y-48154761D01*
X178329166Y-48059523D01*
X178329166Y-48011904D01*
X178281547Y-47916666D01*
X178186309Y-47869047D01*
X178043452Y-47869047D01*
X177948214Y-47821428D01*
X177900595Y-47726190D01*
X177900595Y-47678571D01*
X177948214Y-47583333D01*
X178043452Y-47535714D01*
X178186309Y-47535714D01*
X178281547Y-47583333D01*
X178757738Y-48107142D02*
X178805357Y-48154761D01*
X178757738Y-48202380D01*
X178710119Y-48154761D01*
X178757738Y-48107142D01*
X178757738Y-48202380D01*
X178757738Y-47583333D02*
X178805357Y-47630952D01*
X178757738Y-47678571D01*
X178710119Y-47630952D01*
X178757738Y-47583333D01*
X178757738Y-47678571D01*
X180519642Y-48202380D02*
X179948214Y-48202380D01*
X180233928Y-48202380D02*
X180233928Y-47202380D01*
X180138690Y-47345238D01*
X180043452Y-47440476D01*
X179948214Y-47488095D01*
X180948214Y-48202380D02*
X180948214Y-47535714D01*
X180948214Y-47630952D02*
X180995833Y-47583333D01*
X181091071Y-47535714D01*
X181233928Y-47535714D01*
X181329166Y-47583333D01*
X181376785Y-47678571D01*
X181376785Y-48202380D01*
X181376785Y-47678571D02*
X181424404Y-47583333D01*
X181519642Y-47535714D01*
X181662500Y-47535714D01*
X181757738Y-47583333D01*
X181805357Y-47678571D01*
X181805357Y-48202380D01*
X182281547Y-48202380D02*
X182281547Y-47535714D01*
X182281547Y-47630952D02*
X182329166Y-47583333D01*
X182424404Y-47535714D01*
X182567261Y-47535714D01*
X182662500Y-47583333D01*
X182710119Y-47678571D01*
X182710119Y-48202380D01*
X182710119Y-47678571D02*
X182757738Y-47583333D01*
X182852976Y-47535714D01*
X182995833Y-47535714D01*
X183091071Y-47583333D01*
X183138690Y-47678571D01*
X183138690Y-48202380D01*
X183662500Y-48154761D02*
X183662500Y-48202380D01*
X183614880Y-48297619D01*
X183567261Y-48345238D01*
X185043452Y-47202380D02*
X185138690Y-47202380D01*
X185233928Y-47250000D01*
X185281547Y-47297619D01*
X185329166Y-47392857D01*
X185376785Y-47583333D01*
X185376785Y-47821428D01*
X185329166Y-48011904D01*
X185281547Y-48107142D01*
X185233928Y-48154761D01*
X185138690Y-48202380D01*
X185043452Y-48202380D01*
X184948214Y-48154761D01*
X184900595Y-48107142D01*
X184852976Y-48011904D01*
X184805357Y-47821428D01*
X184805357Y-47583333D01*
X184852976Y-47392857D01*
X184900595Y-47297619D01*
X184948214Y-47250000D01*
X185043452Y-47202380D01*
X185852976Y-48154761D02*
X185852976Y-48202380D01*
X185805357Y-48297619D01*
X185757738Y-48345238D01*
X186757738Y-47202380D02*
X186281547Y-47202380D01*
X186233928Y-47678571D01*
X186281547Y-47630952D01*
X186376785Y-47583333D01*
X186614880Y-47583333D01*
X186710119Y-47630952D01*
X186757738Y-47678571D01*
X186805357Y-47773809D01*
X186805357Y-48011904D01*
X186757738Y-48107142D01*
X186710119Y-48154761D01*
X186614880Y-48202380D01*
X186376785Y-48202380D01*
X186281547Y-48154761D01*
X186233928Y-48107142D01*
X187233928Y-48202380D02*
X187233928Y-47535714D01*
X187233928Y-47630952D02*
X187281547Y-47583333D01*
X187376785Y-47535714D01*
X187519642Y-47535714D01*
X187614880Y-47583333D01*
X187662500Y-47678571D01*
X187662500Y-48202380D01*
X187662500Y-47678571D02*
X187710119Y-47583333D01*
X187805357Y-47535714D01*
X187948214Y-47535714D01*
X188043452Y-47583333D01*
X188091071Y-47678571D01*
X188091071Y-48202380D01*
X188567261Y-48202380D02*
X188567261Y-47535714D01*
X188567261Y-47630952D02*
X188614880Y-47583333D01*
X188710119Y-47535714D01*
X188852976Y-47535714D01*
X188948214Y-47583333D01*
X188995833Y-47678571D01*
X188995833Y-48202380D01*
X188995833Y-47678571D02*
X189043452Y-47583333D01*
X189138690Y-47535714D01*
X189281547Y-47535714D01*
X189376785Y-47583333D01*
X189424404Y-47678571D01*
X189424404Y-48202380D01*
X189948214Y-48154761D02*
X189948214Y-48202380D01*
X189900595Y-48297619D01*
X189852976Y-48345238D01*
X191329166Y-47202380D02*
X191424404Y-47202380D01*
X191519642Y-47250000D01*
X191567261Y-47297619D01*
X191614880Y-47392857D01*
X191662500Y-47583333D01*
X191662500Y-47821428D01*
X191614880Y-48011904D01*
X191567261Y-48107142D01*
X191519642Y-48154761D01*
X191424404Y-48202380D01*
X191329166Y-48202380D01*
X191233928Y-48154761D01*
X191186309Y-48107142D01*
X191138690Y-48011904D01*
X191091071Y-47821428D01*
X191091071Y-47583333D01*
X191138690Y-47392857D01*
X191186309Y-47297619D01*
X191233928Y-47250000D01*
X191329166Y-47202380D01*
X192138690Y-48154761D02*
X192138690Y-48202380D01*
X192091071Y-48297619D01*
X192043452Y-48345238D01*
X192519642Y-47297619D02*
X192567261Y-47250000D01*
X192662500Y-47202380D01*
X192900595Y-47202380D01*
X192995833Y-47250000D01*
X193043452Y-47297619D01*
X193091071Y-47392857D01*
X193091071Y-47488095D01*
X193043452Y-47630952D01*
X192472023Y-48202380D01*
X193091071Y-48202380D01*
X193995833Y-47202380D02*
X193519642Y-47202380D01*
X193472023Y-47678571D01*
X193519642Y-47630952D01*
X193614880Y-47583333D01*
X193852976Y-47583333D01*
X193948214Y-47630952D01*
X193995833Y-47678571D01*
X194043452Y-47773809D01*
X194043452Y-48011904D01*
X193995833Y-48107142D01*
X193948214Y-48154761D01*
X193852976Y-48202380D01*
X193614880Y-48202380D01*
X193519642Y-48154761D01*
X193472023Y-48107142D01*
X194472023Y-48202380D02*
X194472023Y-47535714D01*
X194472023Y-47630952D02*
X194519642Y-47583333D01*
X194614880Y-47535714D01*
X194757738Y-47535714D01*
X194852976Y-47583333D01*
X194900595Y-47678571D01*
X194900595Y-48202380D01*
X194900595Y-47678571D02*
X194948214Y-47583333D01*
X195043452Y-47535714D01*
X195186309Y-47535714D01*
X195281547Y-47583333D01*
X195329166Y-47678571D01*
X195329166Y-48202380D01*
X195805357Y-48202380D02*
X195805357Y-47535714D01*
X195805357Y-47630952D02*
X195852976Y-47583333D01*
X195948214Y-47535714D01*
X196091071Y-47535714D01*
X196186309Y-47583333D01*
X196233928Y-47678571D01*
X196233928Y-48202380D01*
X196233928Y-47678571D02*
X196281547Y-47583333D01*
X196376785Y-47535714D01*
X196519642Y-47535714D01*
X196614880Y-47583333D01*
X196662500Y-47678571D01*
X196662500Y-48202380D01*
X173757738Y-48952380D02*
X174091071Y-49952380D01*
X174424404Y-48952380D01*
X174757738Y-49952380D02*
X174757738Y-49285714D01*
X174757738Y-48952380D02*
X174710119Y-49000000D01*
X174757738Y-49047619D01*
X174805357Y-49000000D01*
X174757738Y-48952380D01*
X174757738Y-49047619D01*
X175662500Y-49952380D02*
X175662500Y-49428571D01*
X175614880Y-49333333D01*
X175519642Y-49285714D01*
X175329166Y-49285714D01*
X175233928Y-49333333D01*
X175662500Y-49904761D02*
X175567261Y-49952380D01*
X175329166Y-49952380D01*
X175233928Y-49904761D01*
X175186309Y-49809523D01*
X175186309Y-49714285D01*
X175233928Y-49619047D01*
X175329166Y-49571428D01*
X175567261Y-49571428D01*
X175662500Y-49523809D01*
X176138690Y-49857142D02*
X176186309Y-49904761D01*
X176138690Y-49952380D01*
X176091071Y-49904761D01*
X176138690Y-49857142D01*
X176138690Y-49952380D01*
X176138690Y-49333333D02*
X176186309Y-49380952D01*
X176138690Y-49428571D01*
X176091071Y-49380952D01*
X176138690Y-49333333D01*
X176138690Y-49428571D01*
X177900595Y-49952380D02*
X177329166Y-49952380D01*
X177614880Y-49952380D02*
X177614880Y-48952380D01*
X177519642Y-49095238D01*
X177424404Y-49190476D01*
X177329166Y-49238095D01*
X179091071Y-49952380D02*
X179091071Y-49285714D01*
X179091071Y-49380952D02*
X179138690Y-49333333D01*
X179233928Y-49285714D01*
X179376785Y-49285714D01*
X179472023Y-49333333D01*
X179519642Y-49428571D01*
X179519642Y-49952380D01*
X179519642Y-49428571D02*
X179567261Y-49333333D01*
X179662500Y-49285714D01*
X179805357Y-49285714D01*
X179900595Y-49333333D01*
X179948214Y-49428571D01*
X179948214Y-49952380D01*
X180424404Y-49952380D02*
X180424404Y-49285714D01*
X180424404Y-49380952D02*
X180472023Y-49333333D01*
X180567261Y-49285714D01*
X180710119Y-49285714D01*
X180805357Y-49333333D01*
X180852976Y-49428571D01*
X180852976Y-49952380D01*
X180852976Y-49428571D02*
X180900595Y-49333333D01*
X180995833Y-49285714D01*
X181138690Y-49285714D01*
X181233928Y-49333333D01*
X181281547Y-49428571D01*
X181281547Y-49952380D01*
X183233928Y-48904761D02*
X182376785Y-50190476D01*
X184519642Y-48952380D02*
X184614880Y-48952380D01*
X184710119Y-49000000D01*
X184757738Y-49047619D01*
X184805357Y-49142857D01*
X184852976Y-49333333D01*
X184852976Y-49571428D01*
X184805357Y-49761904D01*
X184757738Y-49857142D01*
X184710119Y-49904761D01*
X184614880Y-49952380D01*
X184519642Y-49952380D01*
X184424404Y-49904761D01*
X184376785Y-49857142D01*
X184329166Y-49761904D01*
X184281547Y-49571428D01*
X184281547Y-49333333D01*
X184329166Y-49142857D01*
X184376785Y-49047619D01*
X184424404Y-49000000D01*
X184519642Y-48952380D01*
X185329166Y-49904761D02*
X185329166Y-49952380D01*
X185281547Y-50047619D01*
X185233928Y-50095238D01*
X186233928Y-48952380D02*
X185757738Y-48952380D01*
X185710119Y-49428571D01*
X185757738Y-49380952D01*
X185852976Y-49333333D01*
X186091071Y-49333333D01*
X186186309Y-49380952D01*
X186233928Y-49428571D01*
X186281547Y-49523809D01*
X186281547Y-49761904D01*
X186233928Y-49857142D01*
X186186309Y-49904761D01*
X186091071Y-49952380D01*
X185852976Y-49952380D01*
X185757738Y-49904761D01*
X185710119Y-49857142D01*
X187472023Y-49952380D02*
X187472023Y-49285714D01*
X187472023Y-49380952D02*
X187519642Y-49333333D01*
X187614880Y-49285714D01*
X187757738Y-49285714D01*
X187852976Y-49333333D01*
X187900595Y-49428571D01*
X187900595Y-49952380D01*
X187900595Y-49428571D02*
X187948214Y-49333333D01*
X188043452Y-49285714D01*
X188186309Y-49285714D01*
X188281547Y-49333333D01*
X188329166Y-49428571D01*
X188329166Y-49952380D01*
X188805357Y-49952380D02*
X188805357Y-49285714D01*
X188805357Y-49380952D02*
X188852976Y-49333333D01*
X188948214Y-49285714D01*
X189091071Y-49285714D01*
X189186309Y-49333333D01*
X189233928Y-49428571D01*
X189233928Y-49952380D01*
X189233928Y-49428571D02*
X189281547Y-49333333D01*
X189376785Y-49285714D01*
X189519642Y-49285714D01*
X189614880Y-49333333D01*
X189662500Y-49428571D01*
X189662500Y-49952380D01*
X173900595Y-51702380D02*
X173900595Y-50702380D01*
X174233928Y-51416666D01*
X174567261Y-50702380D01*
X174567261Y-51702380D01*
X175472023Y-51702380D02*
X175472023Y-51178571D01*
X175424404Y-51083333D01*
X175329166Y-51035714D01*
X175138690Y-51035714D01*
X175043452Y-51083333D01*
X175472023Y-51654761D02*
X175376785Y-51702380D01*
X175138690Y-51702380D01*
X175043452Y-51654761D01*
X174995833Y-51559523D01*
X174995833Y-51464285D01*
X175043452Y-51369047D01*
X175138690Y-51321428D01*
X175376785Y-51321428D01*
X175472023Y-51273809D01*
X175329166Y-50654761D02*
X175186309Y-50797619D01*
X175948214Y-51702380D02*
X175948214Y-51035714D01*
X175948214Y-51226190D02*
X175995833Y-51130952D01*
X176043452Y-51083333D01*
X176138690Y-51035714D01*
X176233928Y-51035714D01*
X176995833Y-51035714D02*
X176995833Y-51845238D01*
X176948214Y-51940476D01*
X176900595Y-51988095D01*
X176805357Y-52035714D01*
X176662500Y-52035714D01*
X176567261Y-51988095D01*
X176995833Y-51654761D02*
X176900595Y-51702380D01*
X176710119Y-51702380D01*
X176614880Y-51654761D01*
X176567261Y-51607142D01*
X176519642Y-51511904D01*
X176519642Y-51226190D01*
X176567261Y-51130952D01*
X176614880Y-51083333D01*
X176710119Y-51035714D01*
X176900595Y-51035714D01*
X176995833Y-51083333D01*
X177852976Y-51654761D02*
X177757738Y-51702380D01*
X177567261Y-51702380D01*
X177472023Y-51654761D01*
X177424404Y-51559523D01*
X177424404Y-51178571D01*
X177472023Y-51083333D01*
X177567261Y-51035714D01*
X177757738Y-51035714D01*
X177852976Y-51083333D01*
X177900595Y-51178571D01*
X177900595Y-51273809D01*
X177424404Y-51369047D01*
X178329166Y-51035714D02*
X178329166Y-51702380D01*
X178329166Y-51130952D02*
X178376785Y-51083333D01*
X178472023Y-51035714D01*
X178614880Y-51035714D01*
X178710119Y-51083333D01*
X178757738Y-51178571D01*
X178757738Y-51702380D01*
X179233928Y-51607142D02*
X179281547Y-51654761D01*
X179233928Y-51702380D01*
X179186309Y-51654761D01*
X179233928Y-51607142D01*
X179233928Y-51702380D01*
X179233928Y-51083333D02*
X179281547Y-51130952D01*
X179233928Y-51178571D01*
X179186309Y-51130952D01*
X179233928Y-51083333D01*
X179233928Y-51178571D01*
X180662500Y-50702380D02*
X180757738Y-50702380D01*
X180852976Y-50750000D01*
X180900595Y-50797619D01*
X180948214Y-50892857D01*
X180995833Y-51083333D01*
X180995833Y-51321428D01*
X180948214Y-51511904D01*
X180900595Y-51607142D01*
X180852976Y-51654761D01*
X180757738Y-51702380D01*
X180662500Y-51702380D01*
X180567261Y-51654761D01*
X180519642Y-51607142D01*
X180472023Y-51511904D01*
X180424404Y-51321428D01*
X180424404Y-51083333D01*
X180472023Y-50892857D01*
X180519642Y-50797619D01*
X180567261Y-50750000D01*
X180662500Y-50702380D01*
X181472023Y-51654761D02*
X181472023Y-51702380D01*
X181424404Y-51797619D01*
X181376785Y-51845238D01*
X181852976Y-50797619D02*
X181900595Y-50750000D01*
X181995833Y-50702380D01*
X182233928Y-50702380D01*
X182329166Y-50750000D01*
X182376785Y-50797619D01*
X182424404Y-50892857D01*
X182424404Y-50988095D01*
X182376785Y-51130952D01*
X181805357Y-51702380D01*
X182424404Y-51702380D01*
X183329166Y-50702380D02*
X182852976Y-50702380D01*
X182805357Y-51178571D01*
X182852976Y-51130952D01*
X182948214Y-51083333D01*
X183186309Y-51083333D01*
X183281547Y-51130952D01*
X183329166Y-51178571D01*
X183376785Y-51273809D01*
X183376785Y-51511904D01*
X183329166Y-51607142D01*
X183281547Y-51654761D01*
X183186309Y-51702380D01*
X182948214Y-51702380D01*
X182852976Y-51654761D01*
X182805357Y-51607142D01*
X184567261Y-51702380D02*
X184567261Y-51035714D01*
X184567261Y-51130952D02*
X184614880Y-51083333D01*
X184710119Y-51035714D01*
X184852976Y-51035714D01*
X184948214Y-51083333D01*
X184995833Y-51178571D01*
X184995833Y-51702380D01*
X184995833Y-51178571D02*
X185043452Y-51083333D01*
X185138690Y-51035714D01*
X185281547Y-51035714D01*
X185376785Y-51083333D01*
X185424404Y-51178571D01*
X185424404Y-51702380D01*
X185900595Y-51702380D02*
X185900595Y-51035714D01*
X185900595Y-51130952D02*
X185948214Y-51083333D01*
X186043452Y-51035714D01*
X186186309Y-51035714D01*
X186281547Y-51083333D01*
X186329166Y-51178571D01*
X186329166Y-51702380D01*
X186329166Y-51178571D02*
X186376785Y-51083333D01*
X186472023Y-51035714D01*
X186614880Y-51035714D01*
X186710119Y-51083333D01*
X186757738Y-51178571D01*
X186757738Y-51702380D01*
X173900595Y-53452380D02*
X173900595Y-52452380D01*
X174281547Y-52452380D01*
X174376785Y-52500000D01*
X174424404Y-52547619D01*
X174472023Y-52642857D01*
X174472023Y-52785714D01*
X174424404Y-52880952D01*
X174376785Y-52928571D01*
X174281547Y-52976190D01*
X173900595Y-52976190D01*
X174900595Y-53452380D02*
X174900595Y-52785714D01*
X174900595Y-52452380D02*
X174852976Y-52500000D01*
X174900595Y-52547619D01*
X174948214Y-52500000D01*
X174900595Y-52452380D01*
X174900595Y-52547619D01*
X175329166Y-53404761D02*
X175424404Y-53452380D01*
X175614880Y-53452380D01*
X175710119Y-53404761D01*
X175757738Y-53309523D01*
X175757738Y-53261904D01*
X175710119Y-53166666D01*
X175614880Y-53119047D01*
X175472023Y-53119047D01*
X175376785Y-53071428D01*
X175329166Y-52976190D01*
X175329166Y-52928571D01*
X175376785Y-52833333D01*
X175472023Y-52785714D01*
X175614880Y-52785714D01*
X175710119Y-52833333D01*
X176043452Y-52785714D02*
X176424404Y-52785714D01*
X176186309Y-52452380D02*
X176186309Y-53309523D01*
X176233928Y-53404761D01*
X176329166Y-53452380D01*
X176424404Y-53452380D01*
X177186309Y-53452380D02*
X177186309Y-52928571D01*
X177138690Y-52833333D01*
X177043452Y-52785714D01*
X176852976Y-52785714D01*
X176757738Y-52833333D01*
X177186309Y-53404761D02*
X177091071Y-53452380D01*
X176852976Y-53452380D01*
X176757738Y-53404761D01*
X176710119Y-53309523D01*
X176710119Y-53214285D01*
X176757738Y-53119047D01*
X176852976Y-53071428D01*
X177091071Y-53071428D01*
X177186309Y-53023809D01*
X177662500Y-53357142D02*
X177710119Y-53404761D01*
X177662500Y-53452380D01*
X177614880Y-53404761D01*
X177662500Y-53357142D01*
X177662500Y-53452380D01*
X177662500Y-52833333D02*
X177710119Y-52880952D01*
X177662500Y-52928571D01*
X177614880Y-52880952D01*
X177662500Y-52833333D01*
X177662500Y-52928571D01*
X179091071Y-52452380D02*
X179186309Y-52452380D01*
X179281547Y-52500000D01*
X179329166Y-52547619D01*
X179376785Y-52642857D01*
X179424404Y-52833333D01*
X179424404Y-53071428D01*
X179376785Y-53261904D01*
X179329166Y-53357142D01*
X179281547Y-53404761D01*
X179186309Y-53452380D01*
X179091071Y-53452380D01*
X178995833Y-53404761D01*
X178948214Y-53357142D01*
X178900595Y-53261904D01*
X178852976Y-53071428D01*
X178852976Y-52833333D01*
X178900595Y-52642857D01*
X178948214Y-52547619D01*
X178995833Y-52500000D01*
X179091071Y-52452380D01*
X179852976Y-53357142D02*
X179900595Y-53404761D01*
X179852976Y-53452380D01*
X179805357Y-53404761D01*
X179852976Y-53357142D01*
X179852976Y-53452380D01*
X180281547Y-52547619D02*
X180329166Y-52500000D01*
X180424404Y-52452380D01*
X180662500Y-52452380D01*
X180757738Y-52500000D01*
X180805357Y-52547619D01*
X180852976Y-52642857D01*
X180852976Y-52738095D01*
X180805357Y-52880952D01*
X180233928Y-53452380D01*
X180852976Y-53452380D01*
X181757738Y-52452380D02*
X181281547Y-52452380D01*
X181233928Y-52928571D01*
X181281547Y-52880952D01*
X181376785Y-52833333D01*
X181614880Y-52833333D01*
X181710119Y-52880952D01*
X181757738Y-52928571D01*
X181805357Y-53023809D01*
X181805357Y-53261904D01*
X181757738Y-53357142D01*
X181710119Y-53404761D01*
X181614880Y-53452380D01*
X181376785Y-53452380D01*
X181281547Y-53404761D01*
X181233928Y-53357142D01*
X182995833Y-53452380D02*
X182995833Y-52785714D01*
X182995833Y-52880952D02*
X183043452Y-52833333D01*
X183138690Y-52785714D01*
X183281547Y-52785714D01*
X183376785Y-52833333D01*
X183424404Y-52928571D01*
X183424404Y-53452380D01*
X183424404Y-52928571D02*
X183472023Y-52833333D01*
X183567261Y-52785714D01*
X183710119Y-52785714D01*
X183805357Y-52833333D01*
X183852976Y-52928571D01*
X183852976Y-53452380D01*
X184329166Y-53452380D02*
X184329166Y-52785714D01*
X184329166Y-52880952D02*
X184376785Y-52833333D01*
X184472023Y-52785714D01*
X184614880Y-52785714D01*
X184710119Y-52833333D01*
X184757738Y-52928571D01*
X184757738Y-53452380D01*
X184757738Y-52928571D02*
X184805357Y-52833333D01*
X184900595Y-52785714D01*
X185043452Y-52785714D01*
X185138690Y-52833333D01*
X185186309Y-52928571D01*
X185186309Y-53452380D01*
X173900595Y-55202380D02*
X173900595Y-54202380D01*
X174138690Y-54202380D01*
X174281547Y-54250000D01*
X174376785Y-54345238D01*
X174424404Y-54440476D01*
X174472023Y-54630952D01*
X174472023Y-54773809D01*
X174424404Y-54964285D01*
X174376785Y-55059523D01*
X174281547Y-55154761D01*
X174138690Y-55202380D01*
X173900595Y-55202380D01*
X174900595Y-55202380D02*
X174900595Y-54535714D01*
X174900595Y-54202380D02*
X174852976Y-54250000D01*
X174900595Y-54297619D01*
X174948214Y-54250000D01*
X174900595Y-54202380D01*
X174900595Y-54297619D01*
X175329166Y-55154761D02*
X175424404Y-55202380D01*
X175614880Y-55202380D01*
X175710119Y-55154761D01*
X175757738Y-55059523D01*
X175757738Y-55011904D01*
X175710119Y-54916666D01*
X175614880Y-54869047D01*
X175472023Y-54869047D01*
X175376785Y-54821428D01*
X175329166Y-54726190D01*
X175329166Y-54678571D01*
X175376785Y-54583333D01*
X175472023Y-54535714D01*
X175614880Y-54535714D01*
X175710119Y-54583333D01*
X176043452Y-54535714D02*
X176424404Y-54535714D01*
X176186309Y-54202380D02*
X176186309Y-55059523D01*
X176233928Y-55154761D01*
X176329166Y-55202380D01*
X176424404Y-55202380D01*
X176757738Y-55107142D02*
X176805357Y-55154761D01*
X176757738Y-55202380D01*
X176710119Y-55154761D01*
X176757738Y-55107142D01*
X176757738Y-55202380D01*
X178424404Y-55202380D02*
X178424404Y-54678571D01*
X178376785Y-54583333D01*
X178281547Y-54535714D01*
X178091071Y-54535714D01*
X177995833Y-54583333D01*
X178424404Y-55154761D02*
X178329166Y-55202380D01*
X178091071Y-55202380D01*
X177995833Y-55154761D01*
X177948214Y-55059523D01*
X177948214Y-54964285D01*
X177995833Y-54869047D01*
X178091071Y-54821428D01*
X178329166Y-54821428D01*
X178424404Y-54773809D01*
X179662500Y-55202380D02*
X179662500Y-54202380D01*
X179662500Y-54583333D02*
X179757738Y-54535714D01*
X179948214Y-54535714D01*
X180043452Y-54583333D01*
X180091071Y-54630952D01*
X180138690Y-54726190D01*
X180138690Y-55011904D01*
X180091071Y-55107142D01*
X180043452Y-55154761D01*
X179948214Y-55202380D01*
X179757738Y-55202380D01*
X179662500Y-55154761D01*
X180710119Y-55202380D02*
X180614880Y-55154761D01*
X180567261Y-55107142D01*
X180519642Y-55011904D01*
X180519642Y-54726190D01*
X180567261Y-54630952D01*
X180614880Y-54583333D01*
X180710119Y-54535714D01*
X180852976Y-54535714D01*
X180948214Y-54583333D01*
X180995833Y-54630952D01*
X181043452Y-54726190D01*
X181043452Y-55011904D01*
X180995833Y-55107142D01*
X180948214Y-55154761D01*
X180852976Y-55202380D01*
X180710119Y-55202380D01*
X181472023Y-55202380D02*
X181472023Y-54535714D01*
X181472023Y-54726190D02*
X181519642Y-54630952D01*
X181567261Y-54583333D01*
X181662500Y-54535714D01*
X181757738Y-54535714D01*
X182519642Y-55202380D02*
X182519642Y-54202380D01*
X182519642Y-55154761D02*
X182424404Y-55202380D01*
X182233928Y-55202380D01*
X182138690Y-55154761D01*
X182091071Y-55107142D01*
X182043452Y-55011904D01*
X182043452Y-54726190D01*
X182091071Y-54630952D01*
X182138690Y-54583333D01*
X182233928Y-54535714D01*
X182424404Y-54535714D01*
X182519642Y-54583333D01*
X183376785Y-55154761D02*
X183281547Y-55202380D01*
X183091071Y-55202380D01*
X182995833Y-55154761D01*
X182948214Y-55059523D01*
X182948214Y-54678571D01*
X182995833Y-54583333D01*
X183091071Y-54535714D01*
X183281547Y-54535714D01*
X183376785Y-54583333D01*
X183424404Y-54678571D01*
X183424404Y-54773809D01*
X182948214Y-54869047D01*
X183852976Y-55107142D02*
X183900595Y-55154761D01*
X183852976Y-55202380D01*
X183805357Y-55154761D01*
X183852976Y-55107142D01*
X183852976Y-55202380D01*
X183852976Y-54583333D02*
X183900595Y-54630952D01*
X183852976Y-54678571D01*
X183805357Y-54630952D01*
X183852976Y-54583333D01*
X183852976Y-54678571D01*
X185281547Y-54202380D02*
X185376785Y-54202380D01*
X185472023Y-54250000D01*
X185519642Y-54297619D01*
X185567261Y-54392857D01*
X185614880Y-54583333D01*
X185614880Y-54821428D01*
X185567261Y-55011904D01*
X185519642Y-55107142D01*
X185472023Y-55154761D01*
X185376785Y-55202380D01*
X185281547Y-55202380D01*
X185186309Y-55154761D01*
X185138690Y-55107142D01*
X185091071Y-55011904D01*
X185043452Y-54821428D01*
X185043452Y-54583333D01*
X185091071Y-54392857D01*
X185138690Y-54297619D01*
X185186309Y-54250000D01*
X185281547Y-54202380D01*
X186043452Y-55107142D02*
X186091071Y-55154761D01*
X186043452Y-55202380D01*
X185995833Y-55154761D01*
X186043452Y-55107142D01*
X186043452Y-55202380D01*
X186424404Y-54202380D02*
X187043452Y-54202380D01*
X186710119Y-54583333D01*
X186852976Y-54583333D01*
X186948214Y-54630952D01*
X186995833Y-54678571D01*
X187043452Y-54773809D01*
X187043452Y-55011904D01*
X186995833Y-55107142D01*
X186948214Y-55154761D01*
X186852976Y-55202380D01*
X186567261Y-55202380D01*
X186472023Y-55154761D01*
X186424404Y-55107142D01*
X188233928Y-55202380D02*
X188233928Y-54535714D01*
X188233928Y-54630952D02*
X188281547Y-54583333D01*
X188376785Y-54535714D01*
X188519642Y-54535714D01*
X188614880Y-54583333D01*
X188662500Y-54678571D01*
X188662500Y-55202380D01*
X188662500Y-54678571D02*
X188710119Y-54583333D01*
X188805357Y-54535714D01*
X188948214Y-54535714D01*
X189043452Y-54583333D01*
X189091071Y-54678571D01*
X189091071Y-55202380D01*
X189567261Y-55202380D02*
X189567261Y-54535714D01*
X189567261Y-54630952D02*
X189614880Y-54583333D01*
X189710119Y-54535714D01*
X189852976Y-54535714D01*
X189948214Y-54583333D01*
X189995833Y-54678571D01*
X189995833Y-55202380D01*
X189995833Y-54678571D02*
X190043452Y-54583333D01*
X190138690Y-54535714D01*
X190281547Y-54535714D01*
X190376785Y-54583333D01*
X190424404Y-54678571D01*
X190424404Y-55202380D01*
X173757738Y-55952380D02*
X174329166Y-55952380D01*
X174043452Y-56952380D02*
X174043452Y-55952380D01*
X175043452Y-56904761D02*
X174948214Y-56952380D01*
X174757738Y-56952380D01*
X174662500Y-56904761D01*
X174614880Y-56809523D01*
X174614880Y-56428571D01*
X174662500Y-56333333D01*
X174757738Y-56285714D01*
X174948214Y-56285714D01*
X175043452Y-56333333D01*
X175091071Y-56428571D01*
X175091071Y-56523809D01*
X174614880Y-56619047D01*
X175519642Y-56952380D02*
X175519642Y-56285714D01*
X175519642Y-56476190D02*
X175567261Y-56380952D01*
X175614880Y-56333333D01*
X175710119Y-56285714D01*
X175805357Y-56285714D01*
X176138690Y-56952380D02*
X176138690Y-56285714D01*
X176138690Y-56380952D02*
X176186309Y-56333333D01*
X176281547Y-56285714D01*
X176424404Y-56285714D01*
X176519642Y-56333333D01*
X176567261Y-56428571D01*
X176567261Y-56952380D01*
X176567261Y-56428571D02*
X176614880Y-56333333D01*
X176710119Y-56285714D01*
X176852976Y-56285714D01*
X176948214Y-56333333D01*
X176995833Y-56428571D01*
X176995833Y-56952380D01*
X177472023Y-56952380D02*
X177472023Y-56285714D01*
X177472023Y-55952380D02*
X177424404Y-56000000D01*
X177472023Y-56047619D01*
X177519642Y-56000000D01*
X177472023Y-55952380D01*
X177472023Y-56047619D01*
X177948214Y-56285714D02*
X177948214Y-56952380D01*
X177948214Y-56380952D02*
X177995833Y-56333333D01*
X178091071Y-56285714D01*
X178233928Y-56285714D01*
X178329166Y-56333333D01*
X178376785Y-56428571D01*
X178376785Y-56952380D01*
X179281547Y-56952380D02*
X179281547Y-56428571D01*
X179233928Y-56333333D01*
X179138690Y-56285714D01*
X178948214Y-56285714D01*
X178852976Y-56333333D01*
X179281547Y-56904761D02*
X179186309Y-56952380D01*
X178948214Y-56952380D01*
X178852976Y-56904761D01*
X178805357Y-56809523D01*
X178805357Y-56714285D01*
X178852976Y-56619047D01*
X178948214Y-56571428D01*
X179186309Y-56571428D01*
X179281547Y-56523809D01*
X180186309Y-56904761D02*
X180091071Y-56952380D01*
X179900595Y-56952380D01*
X179805357Y-56904761D01*
X179757738Y-56857142D01*
X179710119Y-56761904D01*
X179710119Y-56476190D01*
X179757738Y-56380952D01*
X179805357Y-56333333D01*
X179900595Y-56285714D01*
X180091071Y-56285714D01*
X180186309Y-56333333D01*
X180614880Y-56952380D02*
X180614880Y-56285714D01*
X180614880Y-55952380D02*
X180567261Y-56000000D01*
X180614880Y-56047619D01*
X180662500Y-56000000D01*
X180614880Y-55952380D01*
X180614880Y-56047619D01*
X181233928Y-56952380D02*
X181138690Y-56904761D01*
X181091071Y-56857142D01*
X181043452Y-56761904D01*
X181043452Y-56476190D01*
X181091071Y-56380952D01*
X181138690Y-56333333D01*
X181233928Y-56285714D01*
X181376785Y-56285714D01*
X181472023Y-56333333D01*
X181519642Y-56380952D01*
X181567261Y-56476190D01*
X181567261Y-56761904D01*
X181519642Y-56857142D01*
X181472023Y-56904761D01*
X181376785Y-56952380D01*
X181233928Y-56952380D01*
X181424404Y-55904761D02*
X181281547Y-56047619D01*
X181995833Y-56285714D02*
X181995833Y-56952380D01*
X181995833Y-56380952D02*
X182043452Y-56333333D01*
X182138690Y-56285714D01*
X182281547Y-56285714D01*
X182376785Y-56333333D01*
X182424404Y-56428571D01*
X182424404Y-56952380D01*
X182900595Y-56857142D02*
X182948214Y-56904761D01*
X182900595Y-56952380D01*
X182852976Y-56904761D01*
X182900595Y-56857142D01*
X182900595Y-56952380D01*
X182900595Y-56333333D02*
X182948214Y-56380952D01*
X182900595Y-56428571D01*
X182852976Y-56380952D01*
X182900595Y-56333333D01*
X182900595Y-56428571D01*
X184138690Y-56952380D02*
X184138690Y-55952380D01*
X184138690Y-56428571D02*
X184710119Y-56428571D01*
X184710119Y-56952380D02*
X184710119Y-55952380D01*
X185138690Y-56666666D02*
X185614880Y-56666666D01*
X185043452Y-56952380D02*
X185376785Y-55952380D01*
X185710119Y-56952380D01*
X185995833Y-56904761D02*
X186138690Y-56952380D01*
X186376785Y-56952380D01*
X186472023Y-56904761D01*
X186519642Y-56857142D01*
X186567261Y-56761904D01*
X186567261Y-56666666D01*
X186519642Y-56571428D01*
X186472023Y-56523809D01*
X186376785Y-56476190D01*
X186186309Y-56428571D01*
X186091071Y-56380952D01*
X186043452Y-56333333D01*
X185995833Y-56238095D01*
X185995833Y-56142857D01*
X186043452Y-56047619D01*
X186091071Y-56000000D01*
X186186309Y-55952380D01*
X186424404Y-55952380D01*
X186567261Y-56000000D01*
X187472023Y-56952380D02*
X186995833Y-56952380D01*
X186995833Y-55952380D01*
X173900595Y-58702380D02*
X173900595Y-57702380D01*
X174472023Y-58702380D01*
X174472023Y-57702380D01*
X175091071Y-58702380D02*
X174995833Y-58654761D01*
X174948214Y-58607142D01*
X174900595Y-58511904D01*
X174900595Y-58226190D01*
X174948214Y-58130952D01*
X174995833Y-58083333D01*
X175091071Y-58035714D01*
X175233928Y-58035714D01*
X175329166Y-58083333D01*
X175376785Y-58130952D01*
X175424404Y-58226190D01*
X175424404Y-58511904D01*
X175376785Y-58607142D01*
X175329166Y-58654761D01*
X175233928Y-58702380D01*
X175091071Y-58702380D01*
X176567261Y-58654761D02*
X176662500Y-58702380D01*
X176852976Y-58702380D01*
X176948214Y-58654761D01*
X176995833Y-58559523D01*
X176995833Y-58511904D01*
X176948214Y-58416666D01*
X176852976Y-58369047D01*
X176710119Y-58369047D01*
X176614880Y-58321428D01*
X176567261Y-58226190D01*
X176567261Y-58178571D01*
X176614880Y-58083333D01*
X176710119Y-58035714D01*
X176852976Y-58035714D01*
X176948214Y-58083333D01*
X177805357Y-58654761D02*
X177710119Y-58702380D01*
X177519642Y-58702380D01*
X177424404Y-58654761D01*
X177376785Y-58559523D01*
X177376785Y-58178571D01*
X177424404Y-58083333D01*
X177519642Y-58035714D01*
X177710119Y-58035714D01*
X177805357Y-58083333D01*
X177852976Y-58178571D01*
X177852976Y-58273809D01*
X177376785Y-58369047D01*
X178900595Y-58035714D02*
X179281547Y-58035714D01*
X179043452Y-58702380D02*
X179043452Y-57845238D01*
X179091071Y-57750000D01*
X179186309Y-57702380D01*
X179281547Y-57702380D01*
X180043452Y-58702380D02*
X180043452Y-58178571D01*
X179995833Y-58083333D01*
X179900595Y-58035714D01*
X179710119Y-58035714D01*
X179614880Y-58083333D01*
X180043452Y-58654761D02*
X179948214Y-58702380D01*
X179710119Y-58702380D01*
X179614880Y-58654761D01*
X179567261Y-58559523D01*
X179567261Y-58464285D01*
X179614880Y-58369047D01*
X179710119Y-58321428D01*
X179948214Y-58321428D01*
X180043452Y-58273809D01*
X180519642Y-58702380D02*
X180519642Y-57702380D01*
X180519642Y-58083333D02*
X180614880Y-58035714D01*
X180805357Y-58035714D01*
X180900595Y-58083333D01*
X180948214Y-58130952D01*
X180995833Y-58226190D01*
X180995833Y-58511904D01*
X180948214Y-58607142D01*
X180900595Y-58654761D01*
X180805357Y-58702380D01*
X180614880Y-58702380D01*
X180519642Y-58654761D01*
X181424404Y-58702380D02*
X181424404Y-58035714D01*
X181424404Y-58226190D02*
X181472023Y-58130952D01*
X181519642Y-58083333D01*
X181614880Y-58035714D01*
X181710119Y-58035714D01*
X182043452Y-58702380D02*
X182043452Y-58035714D01*
X182043452Y-57702380D02*
X181995833Y-57750000D01*
X182043452Y-57797619D01*
X182091071Y-57750000D01*
X182043452Y-57702380D01*
X182043452Y-57797619D01*
X182948214Y-58654761D02*
X182852976Y-58702380D01*
X182662500Y-58702380D01*
X182567261Y-58654761D01*
X182519642Y-58607142D01*
X182472023Y-58511904D01*
X182472023Y-58226190D01*
X182519642Y-58130952D01*
X182567261Y-58083333D01*
X182662500Y-58035714D01*
X182852976Y-58035714D01*
X182948214Y-58083333D01*
X183805357Y-58702380D02*
X183805357Y-58178571D01*
X183757738Y-58083333D01*
X183662500Y-58035714D01*
X183472023Y-58035714D01*
X183376785Y-58083333D01*
X183805357Y-58654761D02*
X183710119Y-58702380D01*
X183472023Y-58702380D01*
X183376785Y-58654761D01*
X183329166Y-58559523D01*
X183329166Y-58464285D01*
X183376785Y-58369047D01*
X183472023Y-58321428D01*
X183710119Y-58321428D01*
X183805357Y-58273809D01*
X185472023Y-58654761D02*
X185376785Y-58702380D01*
X185186309Y-58702380D01*
X185091071Y-58654761D01*
X185043452Y-58607142D01*
X184995833Y-58511904D01*
X184995833Y-58226190D01*
X185043452Y-58130952D01*
X185091071Y-58083333D01*
X185186309Y-58035714D01*
X185376785Y-58035714D01*
X185472023Y-58083333D01*
X186043452Y-58702380D02*
X185948214Y-58654761D01*
X185900595Y-58607142D01*
X185852976Y-58511904D01*
X185852976Y-58226190D01*
X185900595Y-58130952D01*
X185948214Y-58083333D01*
X186043452Y-58035714D01*
X186186309Y-58035714D01*
X186281547Y-58083333D01*
X186329166Y-58130952D01*
X186376785Y-58226190D01*
X186376785Y-58511904D01*
X186329166Y-58607142D01*
X186281547Y-58654761D01*
X186186309Y-58702380D01*
X186043452Y-58702380D01*
X186805357Y-58702380D02*
X186805357Y-57702380D01*
X186805357Y-58083333D02*
X186900595Y-58035714D01*
X187091071Y-58035714D01*
X187186309Y-58083333D01*
X187233928Y-58130952D01*
X187281547Y-58226190D01*
X187281547Y-58511904D01*
X187233928Y-58607142D01*
X187186309Y-58654761D01*
X187091071Y-58702380D01*
X186900595Y-58702380D01*
X186805357Y-58654761D01*
X187710119Y-58702380D02*
X187710119Y-58035714D01*
X187710119Y-58226190D02*
X187757738Y-58130952D01*
X187805357Y-58083333D01*
X187900595Y-58035714D01*
X187995833Y-58035714D01*
X188710119Y-58654761D02*
X188614880Y-58702380D01*
X188424404Y-58702380D01*
X188329166Y-58654761D01*
X188281547Y-58559523D01*
X188281547Y-58178571D01*
X188329166Y-58083333D01*
X188424404Y-58035714D01*
X188614880Y-58035714D01*
X188710119Y-58083333D01*
X188757738Y-58178571D01*
X188757738Y-58273809D01*
X188281547Y-58369047D01*
X173900595Y-59785714D02*
X173900595Y-60452380D01*
X173900595Y-59880952D02*
X173948214Y-59833333D01*
X174043452Y-59785714D01*
X174186309Y-59785714D01*
X174281547Y-59833333D01*
X174329166Y-59928571D01*
X174329166Y-60452380D01*
X174805357Y-60452380D02*
X174805357Y-59785714D01*
X174805357Y-59452380D02*
X174757738Y-59500000D01*
X174805357Y-59547619D01*
X174852976Y-59500000D01*
X174805357Y-59452380D01*
X174805357Y-59547619D01*
X175995833Y-60404761D02*
X176091071Y-60452380D01*
X176281547Y-60452380D01*
X176376785Y-60404761D01*
X176424404Y-60309523D01*
X176424404Y-60261904D01*
X176376785Y-60166666D01*
X176281547Y-60119047D01*
X176138690Y-60119047D01*
X176043452Y-60071428D01*
X175995833Y-59976190D01*
X175995833Y-59928571D01*
X176043452Y-59833333D01*
X176138690Y-59785714D01*
X176281547Y-59785714D01*
X176376785Y-59833333D01*
X177233928Y-60404761D02*
X177138690Y-60452380D01*
X176948214Y-60452380D01*
X176852976Y-60404761D01*
X176805357Y-60309523D01*
X176805357Y-59928571D01*
X176852976Y-59833333D01*
X176948214Y-59785714D01*
X177138690Y-59785714D01*
X177233928Y-59833333D01*
X177281547Y-59928571D01*
X177281547Y-60023809D01*
X176805357Y-60119047D01*
X177710119Y-60452380D02*
X177710119Y-59785714D01*
X177710119Y-59976190D02*
X177757738Y-59880952D01*
X177805357Y-59833333D01*
X177900595Y-59785714D01*
X177995833Y-59785714D01*
X178329166Y-60452380D02*
X178329166Y-59785714D01*
X178329166Y-59452380D02*
X178281547Y-59500000D01*
X178329166Y-59547619D01*
X178376785Y-59500000D01*
X178329166Y-59452380D01*
X178329166Y-59547619D01*
X179233928Y-59785714D02*
X179233928Y-60595238D01*
X179186309Y-60690476D01*
X179138690Y-60738095D01*
X179043452Y-60785714D01*
X178900595Y-60785714D01*
X178805357Y-60738095D01*
X179233928Y-60404761D02*
X179138690Y-60452380D01*
X178948214Y-60452380D01*
X178852976Y-60404761D01*
X178805357Y-60357142D01*
X178757738Y-60261904D01*
X178757738Y-59976190D01*
X178805357Y-59880952D01*
X178852976Y-59833333D01*
X178948214Y-59785714D01*
X179138690Y-59785714D01*
X179233928Y-59833333D01*
X179710119Y-60452380D02*
X179710119Y-59785714D01*
X179710119Y-59976190D02*
X179757738Y-59880952D01*
X179805357Y-59833333D01*
X179900595Y-59785714D01*
X179995833Y-59785714D01*
X180757738Y-60452380D02*
X180757738Y-59928571D01*
X180710119Y-59833333D01*
X180614880Y-59785714D01*
X180424404Y-59785714D01*
X180329166Y-59833333D01*
X180757738Y-60404761D02*
X180662500Y-60452380D01*
X180424404Y-60452380D01*
X180329166Y-60404761D01*
X180281547Y-60309523D01*
X180281547Y-60214285D01*
X180329166Y-60119047D01*
X180424404Y-60071428D01*
X180662500Y-60071428D01*
X180757738Y-60023809D01*
X181091071Y-59785714D02*
X181472023Y-59785714D01*
X181233928Y-60452380D02*
X181233928Y-59595238D01*
X181281547Y-59500000D01*
X181376785Y-59452380D01*
X181472023Y-59452380D01*
X181805357Y-60452380D02*
X181805357Y-59785714D01*
X181900595Y-59404761D02*
X181757738Y-59547619D01*
X182710119Y-60452380D02*
X182710119Y-59928571D01*
X182662500Y-59833333D01*
X182567261Y-59785714D01*
X182376785Y-59785714D01*
X182281547Y-59833333D01*
X182710119Y-60404761D02*
X182614880Y-60452380D01*
X182376785Y-60452380D01*
X182281547Y-60404761D01*
X182233928Y-60309523D01*
X182233928Y-60214285D01*
X182281547Y-60119047D01*
X182376785Y-60071428D01*
X182614880Y-60071428D01*
X182710119Y-60023809D01*
X183948214Y-60452380D02*
X183948214Y-59785714D01*
X183948214Y-59452380D02*
X183900595Y-59500000D01*
X183948214Y-59547619D01*
X183995833Y-59500000D01*
X183948214Y-59452380D01*
X183948214Y-59547619D01*
X184424404Y-59785714D02*
X184424404Y-60452380D01*
X184424404Y-59880952D02*
X184472023Y-59833333D01*
X184567261Y-59785714D01*
X184710119Y-59785714D01*
X184805357Y-59833333D01*
X184852976Y-59928571D01*
X184852976Y-60452380D01*
X185186309Y-59785714D02*
X185567261Y-59785714D01*
X185329166Y-60452380D02*
X185329166Y-59595238D01*
X185376785Y-59500000D01*
X185472023Y-59452380D01*
X185567261Y-59452380D01*
X186281547Y-60404761D02*
X186186309Y-60452380D01*
X185995833Y-60452380D01*
X185900595Y-60404761D01*
X185852976Y-60309523D01*
X185852976Y-59928571D01*
X185900595Y-59833333D01*
X185995833Y-59785714D01*
X186186309Y-59785714D01*
X186281547Y-59833333D01*
X186329166Y-59928571D01*
X186329166Y-60023809D01*
X185852976Y-60119047D01*
X186757738Y-60452380D02*
X186757738Y-59785714D01*
X186757738Y-59976190D02*
X186805357Y-59880952D01*
X186852976Y-59833333D01*
X186948214Y-59785714D01*
X187043452Y-59785714D01*
X187376785Y-60452380D02*
X187376785Y-59785714D01*
X187376785Y-59452380D02*
X187329166Y-59500000D01*
X187376785Y-59547619D01*
X187424404Y-59500000D01*
X187376785Y-59452380D01*
X187376785Y-59547619D01*
X187995833Y-60452380D02*
X187900595Y-60404761D01*
X187852976Y-60357142D01*
X187805357Y-60261904D01*
X187805357Y-59976190D01*
X187852976Y-59880952D01*
X187900595Y-59833333D01*
X187995833Y-59785714D01*
X188138690Y-59785714D01*
X188233928Y-59833333D01*
X188281547Y-59880952D01*
X188329166Y-59976190D01*
X188329166Y-60261904D01*
X188281547Y-60357142D01*
X188233928Y-60404761D01*
X188138690Y-60452380D01*
X187995833Y-60452380D01*
X188757738Y-60452380D02*
X188757738Y-59785714D01*
X188757738Y-59976190D02*
X188805357Y-59880952D01*
X188852976Y-59833333D01*
X188948214Y-59785714D01*
X189043452Y-59785714D01*
D12*
X167000000Y-44000000D02*
X147000000Y-44000000D01*
X167000000Y-96000000D02*
X167000000Y-44000000D01*
X147000000Y-96000000D02*
X167000000Y-96000000D01*
X147000000Y-44000000D02*
X147000000Y-96000000D01*
M02*
