G04 #@! TF.GenerationSoftware,KiCad,Pcbnew,(5.0.0)*
G04 #@! TF.CreationDate,2018-11-30T23:52:53-03:00*
G04 #@! TF.ProjectId,TP_Final,54505F46696E616C2E6B696361645F70,1*
G04 #@! TF.SameCoordinates,Original*
G04 #@! TF.FileFunction,Soldermask,Top*
G04 #@! TF.FilePolarity,Negative*
%FSLAX46Y46*%
G04 Gerber Fmt 4.6, Leading zero omitted, Abs format (unit mm)*
G04 Created by KiCad (PCBNEW (5.0.0)) date 11/30/18 23:52:53*
%MOMM*%
%LPD*%
G01*
G04 APERTURE LIST*
%ADD10C,0.100000*%
%ADD11R,1.850000X0.850000*%
%ADD12R,2.100000X2.100000*%
%ADD13C,1.825000*%
%ADD14R,2.150000X1.000000*%
%ADD15C,2.600000*%
%ADD16C,2.000000*%
%ADD17C,1.550000*%
%ADD18C,0.254000*%
G04 APERTURE END LIST*
D10*
X167000000Y-44000000D02*
X147000000Y-44000000D01*
X167000000Y-96000000D02*
X167000000Y-44000000D01*
X147000000Y-96000000D02*
X167000000Y-96000000D01*
X147000000Y-44000000D02*
X147000000Y-96000000D01*
D11*
G04 #@! TO.C,U1*
X158437801Y-67432901D03*
X158437801Y-68082901D03*
X158437801Y-68732901D03*
X158437801Y-69382901D03*
X158437801Y-70032901D03*
X158437801Y-70682901D03*
X158437801Y-71332901D03*
X152537801Y-71332901D03*
X152537801Y-70682901D03*
X152537801Y-70032901D03*
X152537801Y-69382901D03*
X152537801Y-68732901D03*
X152537801Y-68082901D03*
X152537801Y-67432901D03*
G04 #@! TD*
D12*
G04 #@! TO.C,J1*
X150000000Y-50000000D03*
G04 #@! TD*
G04 #@! TO.C,J3*
X150000000Y-90000000D03*
G04 #@! TD*
D10*
G04 #@! TO.C,C1*
G36*
X155611207Y-51926542D02*
X155642287Y-51931152D01*
X155672766Y-51938787D01*
X155702350Y-51949372D01*
X155730754Y-51962806D01*
X155757704Y-51978959D01*
X155782942Y-51997677D01*
X155806223Y-52018777D01*
X155827323Y-52042058D01*
X155846041Y-52067296D01*
X155862194Y-52094246D01*
X155875628Y-52122650D01*
X155886213Y-52152234D01*
X155893848Y-52182713D01*
X155898458Y-52213793D01*
X155900000Y-52245176D01*
X155900000Y-53754824D01*
X155898458Y-53786207D01*
X155893848Y-53817287D01*
X155886213Y-53847766D01*
X155875628Y-53877350D01*
X155862194Y-53905754D01*
X155846041Y-53932704D01*
X155827323Y-53957942D01*
X155806223Y-53981223D01*
X155782942Y-54002323D01*
X155757704Y-54021041D01*
X155730754Y-54037194D01*
X155702350Y-54050628D01*
X155672766Y-54061213D01*
X155642287Y-54068848D01*
X155611207Y-54073458D01*
X155579824Y-54075000D01*
X154395176Y-54075000D01*
X154363793Y-54073458D01*
X154332713Y-54068848D01*
X154302234Y-54061213D01*
X154272650Y-54050628D01*
X154244246Y-54037194D01*
X154217296Y-54021041D01*
X154192058Y-54002323D01*
X154168777Y-53981223D01*
X154147677Y-53957942D01*
X154128959Y-53932704D01*
X154112806Y-53905754D01*
X154099372Y-53877350D01*
X154088787Y-53847766D01*
X154081152Y-53817287D01*
X154076542Y-53786207D01*
X154075000Y-53754824D01*
X154075000Y-52245176D01*
X154076542Y-52213793D01*
X154081152Y-52182713D01*
X154088787Y-52152234D01*
X154099372Y-52122650D01*
X154112806Y-52094246D01*
X154128959Y-52067296D01*
X154147677Y-52042058D01*
X154168777Y-52018777D01*
X154192058Y-51997677D01*
X154217296Y-51978959D01*
X154244246Y-51962806D01*
X154272650Y-51949372D01*
X154302234Y-51938787D01*
X154332713Y-51931152D01*
X154363793Y-51926542D01*
X154395176Y-51925000D01*
X155579824Y-51925000D01*
X155611207Y-51926542D01*
X155611207Y-51926542D01*
G37*
D13*
X154987500Y-53000000D03*
D10*
G36*
X152636207Y-51926542D02*
X152667287Y-51931152D01*
X152697766Y-51938787D01*
X152727350Y-51949372D01*
X152755754Y-51962806D01*
X152782704Y-51978959D01*
X152807942Y-51997677D01*
X152831223Y-52018777D01*
X152852323Y-52042058D01*
X152871041Y-52067296D01*
X152887194Y-52094246D01*
X152900628Y-52122650D01*
X152911213Y-52152234D01*
X152918848Y-52182713D01*
X152923458Y-52213793D01*
X152925000Y-52245176D01*
X152925000Y-53754824D01*
X152923458Y-53786207D01*
X152918848Y-53817287D01*
X152911213Y-53847766D01*
X152900628Y-53877350D01*
X152887194Y-53905754D01*
X152871041Y-53932704D01*
X152852323Y-53957942D01*
X152831223Y-53981223D01*
X152807942Y-54002323D01*
X152782704Y-54021041D01*
X152755754Y-54037194D01*
X152727350Y-54050628D01*
X152697766Y-54061213D01*
X152667287Y-54068848D01*
X152636207Y-54073458D01*
X152604824Y-54075000D01*
X151420176Y-54075000D01*
X151388793Y-54073458D01*
X151357713Y-54068848D01*
X151327234Y-54061213D01*
X151297650Y-54050628D01*
X151269246Y-54037194D01*
X151242296Y-54021041D01*
X151217058Y-54002323D01*
X151193777Y-53981223D01*
X151172677Y-53957942D01*
X151153959Y-53932704D01*
X151137806Y-53905754D01*
X151124372Y-53877350D01*
X151113787Y-53847766D01*
X151106152Y-53817287D01*
X151101542Y-53786207D01*
X151100000Y-53754824D01*
X151100000Y-52245176D01*
X151101542Y-52213793D01*
X151106152Y-52182713D01*
X151113787Y-52152234D01*
X151124372Y-52122650D01*
X151137806Y-52094246D01*
X151153959Y-52067296D01*
X151172677Y-52042058D01*
X151193777Y-52018777D01*
X151217058Y-51997677D01*
X151242296Y-51978959D01*
X151269246Y-51962806D01*
X151297650Y-51949372D01*
X151327234Y-51938787D01*
X151357713Y-51931152D01*
X151388793Y-51926542D01*
X151420176Y-51925000D01*
X152604824Y-51925000D01*
X152636207Y-51926542D01*
X152636207Y-51926542D01*
G37*
D13*
X152012500Y-53000000D03*
G04 #@! TD*
D10*
G04 #@! TO.C,C2*
G36*
X161611207Y-56926542D02*
X161642287Y-56931152D01*
X161672766Y-56938787D01*
X161702350Y-56949372D01*
X161730754Y-56962806D01*
X161757704Y-56978959D01*
X161782942Y-56997677D01*
X161806223Y-57018777D01*
X161827323Y-57042058D01*
X161846041Y-57067296D01*
X161862194Y-57094246D01*
X161875628Y-57122650D01*
X161886213Y-57152234D01*
X161893848Y-57182713D01*
X161898458Y-57213793D01*
X161900000Y-57245176D01*
X161900000Y-58754824D01*
X161898458Y-58786207D01*
X161893848Y-58817287D01*
X161886213Y-58847766D01*
X161875628Y-58877350D01*
X161862194Y-58905754D01*
X161846041Y-58932704D01*
X161827323Y-58957942D01*
X161806223Y-58981223D01*
X161782942Y-59002323D01*
X161757704Y-59021041D01*
X161730754Y-59037194D01*
X161702350Y-59050628D01*
X161672766Y-59061213D01*
X161642287Y-59068848D01*
X161611207Y-59073458D01*
X161579824Y-59075000D01*
X160395176Y-59075000D01*
X160363793Y-59073458D01*
X160332713Y-59068848D01*
X160302234Y-59061213D01*
X160272650Y-59050628D01*
X160244246Y-59037194D01*
X160217296Y-59021041D01*
X160192058Y-59002323D01*
X160168777Y-58981223D01*
X160147677Y-58957942D01*
X160128959Y-58932704D01*
X160112806Y-58905754D01*
X160099372Y-58877350D01*
X160088787Y-58847766D01*
X160081152Y-58817287D01*
X160076542Y-58786207D01*
X160075000Y-58754824D01*
X160075000Y-57245176D01*
X160076542Y-57213793D01*
X160081152Y-57182713D01*
X160088787Y-57152234D01*
X160099372Y-57122650D01*
X160112806Y-57094246D01*
X160128959Y-57067296D01*
X160147677Y-57042058D01*
X160168777Y-57018777D01*
X160192058Y-56997677D01*
X160217296Y-56978959D01*
X160244246Y-56962806D01*
X160272650Y-56949372D01*
X160302234Y-56938787D01*
X160332713Y-56931152D01*
X160363793Y-56926542D01*
X160395176Y-56925000D01*
X161579824Y-56925000D01*
X161611207Y-56926542D01*
X161611207Y-56926542D01*
G37*
D13*
X160987500Y-58000000D03*
D10*
G36*
X158636207Y-56926542D02*
X158667287Y-56931152D01*
X158697766Y-56938787D01*
X158727350Y-56949372D01*
X158755754Y-56962806D01*
X158782704Y-56978959D01*
X158807942Y-56997677D01*
X158831223Y-57018777D01*
X158852323Y-57042058D01*
X158871041Y-57067296D01*
X158887194Y-57094246D01*
X158900628Y-57122650D01*
X158911213Y-57152234D01*
X158918848Y-57182713D01*
X158923458Y-57213793D01*
X158925000Y-57245176D01*
X158925000Y-58754824D01*
X158923458Y-58786207D01*
X158918848Y-58817287D01*
X158911213Y-58847766D01*
X158900628Y-58877350D01*
X158887194Y-58905754D01*
X158871041Y-58932704D01*
X158852323Y-58957942D01*
X158831223Y-58981223D01*
X158807942Y-59002323D01*
X158782704Y-59021041D01*
X158755754Y-59037194D01*
X158727350Y-59050628D01*
X158697766Y-59061213D01*
X158667287Y-59068848D01*
X158636207Y-59073458D01*
X158604824Y-59075000D01*
X157420176Y-59075000D01*
X157388793Y-59073458D01*
X157357713Y-59068848D01*
X157327234Y-59061213D01*
X157297650Y-59050628D01*
X157269246Y-59037194D01*
X157242296Y-59021041D01*
X157217058Y-59002323D01*
X157193777Y-58981223D01*
X157172677Y-58957942D01*
X157153959Y-58932704D01*
X157137806Y-58905754D01*
X157124372Y-58877350D01*
X157113787Y-58847766D01*
X157106152Y-58817287D01*
X157101542Y-58786207D01*
X157100000Y-58754824D01*
X157100000Y-57245176D01*
X157101542Y-57213793D01*
X157106152Y-57182713D01*
X157113787Y-57152234D01*
X157124372Y-57122650D01*
X157137806Y-57094246D01*
X157153959Y-57067296D01*
X157172677Y-57042058D01*
X157193777Y-57018777D01*
X157217058Y-56997677D01*
X157242296Y-56978959D01*
X157269246Y-56962806D01*
X157297650Y-56949372D01*
X157327234Y-56938787D01*
X157357713Y-56931152D01*
X157388793Y-56926542D01*
X157420176Y-56925000D01*
X158604824Y-56925000D01*
X158636207Y-56926542D01*
X158636207Y-56926542D01*
G37*
D13*
X158012500Y-58000000D03*
G04 #@! TD*
D10*
G04 #@! TO.C,C3*
G36*
X152636207Y-56926542D02*
X152667287Y-56931152D01*
X152697766Y-56938787D01*
X152727350Y-56949372D01*
X152755754Y-56962806D01*
X152782704Y-56978959D01*
X152807942Y-56997677D01*
X152831223Y-57018777D01*
X152852323Y-57042058D01*
X152871041Y-57067296D01*
X152887194Y-57094246D01*
X152900628Y-57122650D01*
X152911213Y-57152234D01*
X152918848Y-57182713D01*
X152923458Y-57213793D01*
X152925000Y-57245176D01*
X152925000Y-58754824D01*
X152923458Y-58786207D01*
X152918848Y-58817287D01*
X152911213Y-58847766D01*
X152900628Y-58877350D01*
X152887194Y-58905754D01*
X152871041Y-58932704D01*
X152852323Y-58957942D01*
X152831223Y-58981223D01*
X152807942Y-59002323D01*
X152782704Y-59021041D01*
X152755754Y-59037194D01*
X152727350Y-59050628D01*
X152697766Y-59061213D01*
X152667287Y-59068848D01*
X152636207Y-59073458D01*
X152604824Y-59075000D01*
X151420176Y-59075000D01*
X151388793Y-59073458D01*
X151357713Y-59068848D01*
X151327234Y-59061213D01*
X151297650Y-59050628D01*
X151269246Y-59037194D01*
X151242296Y-59021041D01*
X151217058Y-59002323D01*
X151193777Y-58981223D01*
X151172677Y-58957942D01*
X151153959Y-58932704D01*
X151137806Y-58905754D01*
X151124372Y-58877350D01*
X151113787Y-58847766D01*
X151106152Y-58817287D01*
X151101542Y-58786207D01*
X151100000Y-58754824D01*
X151100000Y-57245176D01*
X151101542Y-57213793D01*
X151106152Y-57182713D01*
X151113787Y-57152234D01*
X151124372Y-57122650D01*
X151137806Y-57094246D01*
X151153959Y-57067296D01*
X151172677Y-57042058D01*
X151193777Y-57018777D01*
X151217058Y-56997677D01*
X151242296Y-56978959D01*
X151269246Y-56962806D01*
X151297650Y-56949372D01*
X151327234Y-56938787D01*
X151357713Y-56931152D01*
X151388793Y-56926542D01*
X151420176Y-56925000D01*
X152604824Y-56925000D01*
X152636207Y-56926542D01*
X152636207Y-56926542D01*
G37*
D13*
X152012500Y-58000000D03*
D10*
G36*
X155611207Y-56926542D02*
X155642287Y-56931152D01*
X155672766Y-56938787D01*
X155702350Y-56949372D01*
X155730754Y-56962806D01*
X155757704Y-56978959D01*
X155782942Y-56997677D01*
X155806223Y-57018777D01*
X155827323Y-57042058D01*
X155846041Y-57067296D01*
X155862194Y-57094246D01*
X155875628Y-57122650D01*
X155886213Y-57152234D01*
X155893848Y-57182713D01*
X155898458Y-57213793D01*
X155900000Y-57245176D01*
X155900000Y-58754824D01*
X155898458Y-58786207D01*
X155893848Y-58817287D01*
X155886213Y-58847766D01*
X155875628Y-58877350D01*
X155862194Y-58905754D01*
X155846041Y-58932704D01*
X155827323Y-58957942D01*
X155806223Y-58981223D01*
X155782942Y-59002323D01*
X155757704Y-59021041D01*
X155730754Y-59037194D01*
X155702350Y-59050628D01*
X155672766Y-59061213D01*
X155642287Y-59068848D01*
X155611207Y-59073458D01*
X155579824Y-59075000D01*
X154395176Y-59075000D01*
X154363793Y-59073458D01*
X154332713Y-59068848D01*
X154302234Y-59061213D01*
X154272650Y-59050628D01*
X154244246Y-59037194D01*
X154217296Y-59021041D01*
X154192058Y-59002323D01*
X154168777Y-58981223D01*
X154147677Y-58957942D01*
X154128959Y-58932704D01*
X154112806Y-58905754D01*
X154099372Y-58877350D01*
X154088787Y-58847766D01*
X154081152Y-58817287D01*
X154076542Y-58786207D01*
X154075000Y-58754824D01*
X154075000Y-57245176D01*
X154076542Y-57213793D01*
X154081152Y-57182713D01*
X154088787Y-57152234D01*
X154099372Y-57122650D01*
X154112806Y-57094246D01*
X154128959Y-57067296D01*
X154147677Y-57042058D01*
X154168777Y-57018777D01*
X154192058Y-56997677D01*
X154217296Y-56978959D01*
X154244246Y-56962806D01*
X154272650Y-56949372D01*
X154302234Y-56938787D01*
X154332713Y-56931152D01*
X154363793Y-56926542D01*
X154395176Y-56925000D01*
X155579824Y-56925000D01*
X155611207Y-56926542D01*
X155611207Y-56926542D01*
G37*
D13*
X154987500Y-58000000D03*
G04 #@! TD*
D14*
G04 #@! TO.C,J4*
X149625000Y-75000000D03*
X149625000Y-77000000D03*
X151375000Y-76000000D03*
X151375000Y-78000000D03*
G04 #@! TD*
D12*
G04 #@! TO.C,J2*
X149967100Y-70032900D03*
G04 #@! TD*
D15*
G04 #@! TO.C,MH1*
X149500000Y-46500000D03*
G04 #@! TD*
G04 #@! TO.C,MH2*
X164500000Y-46500000D03*
G04 #@! TD*
G04 #@! TO.C,MH3*
X149500000Y-93500000D03*
G04 #@! TD*
G04 #@! TO.C,MH4*
X164500000Y-93500000D03*
G04 #@! TD*
D12*
G04 #@! TO.C,J11*
X164000000Y-50000000D03*
G04 #@! TD*
G04 #@! TO.C,J22*
X164000000Y-70000000D03*
G04 #@! TD*
G04 #@! TO.C,J33*
X164000000Y-90000000D03*
G04 #@! TD*
D16*
G04 #@! TO.C,F1*
X157250000Y-46500000D03*
G04 #@! TD*
G04 #@! TO.C,F2*
X153250000Y-93500000D03*
G04 #@! TD*
G04 #@! TO.C,F3*
X160750000Y-93500000D03*
G04 #@! TD*
D10*
G04 #@! TO.C,R1*
G36*
X160996071Y-52101623D02*
X161028781Y-52106475D01*
X161060857Y-52114509D01*
X161091991Y-52125649D01*
X161121884Y-52139787D01*
X161150247Y-52156787D01*
X161176807Y-52176485D01*
X161201308Y-52198692D01*
X161223515Y-52223193D01*
X161243213Y-52249753D01*
X161260213Y-52278116D01*
X161274351Y-52308009D01*
X161285491Y-52339143D01*
X161293525Y-52371219D01*
X161298377Y-52403929D01*
X161300000Y-52436956D01*
X161300000Y-53563044D01*
X161298377Y-53596071D01*
X161293525Y-53628781D01*
X161285491Y-53660857D01*
X161274351Y-53691991D01*
X161260213Y-53721884D01*
X161243213Y-53750247D01*
X161223515Y-53776807D01*
X161201308Y-53801308D01*
X161176807Y-53823515D01*
X161150247Y-53843213D01*
X161121884Y-53860213D01*
X161091991Y-53874351D01*
X161060857Y-53885491D01*
X161028781Y-53893525D01*
X160996071Y-53898377D01*
X160963044Y-53900000D01*
X160086956Y-53900000D01*
X160053929Y-53898377D01*
X160021219Y-53893525D01*
X159989143Y-53885491D01*
X159958009Y-53874351D01*
X159928116Y-53860213D01*
X159899753Y-53843213D01*
X159873193Y-53823515D01*
X159848692Y-53801308D01*
X159826485Y-53776807D01*
X159806787Y-53750247D01*
X159789787Y-53721884D01*
X159775649Y-53691991D01*
X159764509Y-53660857D01*
X159756475Y-53628781D01*
X159751623Y-53596071D01*
X159750000Y-53563044D01*
X159750000Y-52436956D01*
X159751623Y-52403929D01*
X159756475Y-52371219D01*
X159764509Y-52339143D01*
X159775649Y-52308009D01*
X159789787Y-52278116D01*
X159806787Y-52249753D01*
X159826485Y-52223193D01*
X159848692Y-52198692D01*
X159873193Y-52176485D01*
X159899753Y-52156787D01*
X159928116Y-52139787D01*
X159958009Y-52125649D01*
X159989143Y-52114509D01*
X160021219Y-52106475D01*
X160053929Y-52101623D01*
X160086956Y-52100000D01*
X160963044Y-52100000D01*
X160996071Y-52101623D01*
X160996071Y-52101623D01*
G37*
D17*
X160525000Y-53000000D03*
D10*
G36*
X158946071Y-52101623D02*
X158978781Y-52106475D01*
X159010857Y-52114509D01*
X159041991Y-52125649D01*
X159071884Y-52139787D01*
X159100247Y-52156787D01*
X159126807Y-52176485D01*
X159151308Y-52198692D01*
X159173515Y-52223193D01*
X159193213Y-52249753D01*
X159210213Y-52278116D01*
X159224351Y-52308009D01*
X159235491Y-52339143D01*
X159243525Y-52371219D01*
X159248377Y-52403929D01*
X159250000Y-52436956D01*
X159250000Y-53563044D01*
X159248377Y-53596071D01*
X159243525Y-53628781D01*
X159235491Y-53660857D01*
X159224351Y-53691991D01*
X159210213Y-53721884D01*
X159193213Y-53750247D01*
X159173515Y-53776807D01*
X159151308Y-53801308D01*
X159126807Y-53823515D01*
X159100247Y-53843213D01*
X159071884Y-53860213D01*
X159041991Y-53874351D01*
X159010857Y-53885491D01*
X158978781Y-53893525D01*
X158946071Y-53898377D01*
X158913044Y-53900000D01*
X158036956Y-53900000D01*
X158003929Y-53898377D01*
X157971219Y-53893525D01*
X157939143Y-53885491D01*
X157908009Y-53874351D01*
X157878116Y-53860213D01*
X157849753Y-53843213D01*
X157823193Y-53823515D01*
X157798692Y-53801308D01*
X157776485Y-53776807D01*
X157756787Y-53750247D01*
X157739787Y-53721884D01*
X157725649Y-53691991D01*
X157714509Y-53660857D01*
X157706475Y-53628781D01*
X157701623Y-53596071D01*
X157700000Y-53563044D01*
X157700000Y-52436956D01*
X157701623Y-52403929D01*
X157706475Y-52371219D01*
X157714509Y-52339143D01*
X157725649Y-52308009D01*
X157739787Y-52278116D01*
X157756787Y-52249753D01*
X157776485Y-52223193D01*
X157798692Y-52198692D01*
X157823193Y-52176485D01*
X157849753Y-52156787D01*
X157878116Y-52139787D01*
X157908009Y-52125649D01*
X157939143Y-52114509D01*
X157971219Y-52106475D01*
X158003929Y-52101623D01*
X158036956Y-52100000D01*
X158913044Y-52100000D01*
X158946071Y-52101623D01*
X158946071Y-52101623D01*
G37*
D17*
X158475000Y-53000000D03*
G04 #@! TD*
D10*
G04 #@! TO.C,R2*
G36*
X160996071Y-62101623D02*
X161028781Y-62106475D01*
X161060857Y-62114509D01*
X161091991Y-62125649D01*
X161121884Y-62139787D01*
X161150247Y-62156787D01*
X161176807Y-62176485D01*
X161201308Y-62198692D01*
X161223515Y-62223193D01*
X161243213Y-62249753D01*
X161260213Y-62278116D01*
X161274351Y-62308009D01*
X161285491Y-62339143D01*
X161293525Y-62371219D01*
X161298377Y-62403929D01*
X161300000Y-62436956D01*
X161300000Y-63563044D01*
X161298377Y-63596071D01*
X161293525Y-63628781D01*
X161285491Y-63660857D01*
X161274351Y-63691991D01*
X161260213Y-63721884D01*
X161243213Y-63750247D01*
X161223515Y-63776807D01*
X161201308Y-63801308D01*
X161176807Y-63823515D01*
X161150247Y-63843213D01*
X161121884Y-63860213D01*
X161091991Y-63874351D01*
X161060857Y-63885491D01*
X161028781Y-63893525D01*
X160996071Y-63898377D01*
X160963044Y-63900000D01*
X160086956Y-63900000D01*
X160053929Y-63898377D01*
X160021219Y-63893525D01*
X159989143Y-63885491D01*
X159958009Y-63874351D01*
X159928116Y-63860213D01*
X159899753Y-63843213D01*
X159873193Y-63823515D01*
X159848692Y-63801308D01*
X159826485Y-63776807D01*
X159806787Y-63750247D01*
X159789787Y-63721884D01*
X159775649Y-63691991D01*
X159764509Y-63660857D01*
X159756475Y-63628781D01*
X159751623Y-63596071D01*
X159750000Y-63563044D01*
X159750000Y-62436956D01*
X159751623Y-62403929D01*
X159756475Y-62371219D01*
X159764509Y-62339143D01*
X159775649Y-62308009D01*
X159789787Y-62278116D01*
X159806787Y-62249753D01*
X159826485Y-62223193D01*
X159848692Y-62198692D01*
X159873193Y-62176485D01*
X159899753Y-62156787D01*
X159928116Y-62139787D01*
X159958009Y-62125649D01*
X159989143Y-62114509D01*
X160021219Y-62106475D01*
X160053929Y-62101623D01*
X160086956Y-62100000D01*
X160963044Y-62100000D01*
X160996071Y-62101623D01*
X160996071Y-62101623D01*
G37*
D17*
X160525000Y-63000000D03*
D10*
G36*
X158946071Y-62101623D02*
X158978781Y-62106475D01*
X159010857Y-62114509D01*
X159041991Y-62125649D01*
X159071884Y-62139787D01*
X159100247Y-62156787D01*
X159126807Y-62176485D01*
X159151308Y-62198692D01*
X159173515Y-62223193D01*
X159193213Y-62249753D01*
X159210213Y-62278116D01*
X159224351Y-62308009D01*
X159235491Y-62339143D01*
X159243525Y-62371219D01*
X159248377Y-62403929D01*
X159250000Y-62436956D01*
X159250000Y-63563044D01*
X159248377Y-63596071D01*
X159243525Y-63628781D01*
X159235491Y-63660857D01*
X159224351Y-63691991D01*
X159210213Y-63721884D01*
X159193213Y-63750247D01*
X159173515Y-63776807D01*
X159151308Y-63801308D01*
X159126807Y-63823515D01*
X159100247Y-63843213D01*
X159071884Y-63860213D01*
X159041991Y-63874351D01*
X159010857Y-63885491D01*
X158978781Y-63893525D01*
X158946071Y-63898377D01*
X158913044Y-63900000D01*
X158036956Y-63900000D01*
X158003929Y-63898377D01*
X157971219Y-63893525D01*
X157939143Y-63885491D01*
X157908009Y-63874351D01*
X157878116Y-63860213D01*
X157849753Y-63843213D01*
X157823193Y-63823515D01*
X157798692Y-63801308D01*
X157776485Y-63776807D01*
X157756787Y-63750247D01*
X157739787Y-63721884D01*
X157725649Y-63691991D01*
X157714509Y-63660857D01*
X157706475Y-63628781D01*
X157701623Y-63596071D01*
X157700000Y-63563044D01*
X157700000Y-62436956D01*
X157701623Y-62403929D01*
X157706475Y-62371219D01*
X157714509Y-62339143D01*
X157725649Y-62308009D01*
X157739787Y-62278116D01*
X157756787Y-62249753D01*
X157776485Y-62223193D01*
X157798692Y-62198692D01*
X157823193Y-62176485D01*
X157849753Y-62156787D01*
X157878116Y-62139787D01*
X157908009Y-62125649D01*
X157939143Y-62114509D01*
X157971219Y-62106475D01*
X158003929Y-62101623D01*
X158036956Y-62100000D01*
X158913044Y-62100000D01*
X158946071Y-62101623D01*
X158946071Y-62101623D01*
G37*
D17*
X158475000Y-63000000D03*
G04 #@! TD*
D10*
G04 #@! TO.C,R3*
G36*
X152696071Y-62101623D02*
X152728781Y-62106475D01*
X152760857Y-62114509D01*
X152791991Y-62125649D01*
X152821884Y-62139787D01*
X152850247Y-62156787D01*
X152876807Y-62176485D01*
X152901308Y-62198692D01*
X152923515Y-62223193D01*
X152943213Y-62249753D01*
X152960213Y-62278116D01*
X152974351Y-62308009D01*
X152985491Y-62339143D01*
X152993525Y-62371219D01*
X152998377Y-62403929D01*
X153000000Y-62436956D01*
X153000000Y-63563044D01*
X152998377Y-63596071D01*
X152993525Y-63628781D01*
X152985491Y-63660857D01*
X152974351Y-63691991D01*
X152960213Y-63721884D01*
X152943213Y-63750247D01*
X152923515Y-63776807D01*
X152901308Y-63801308D01*
X152876807Y-63823515D01*
X152850247Y-63843213D01*
X152821884Y-63860213D01*
X152791991Y-63874351D01*
X152760857Y-63885491D01*
X152728781Y-63893525D01*
X152696071Y-63898377D01*
X152663044Y-63900000D01*
X151786956Y-63900000D01*
X151753929Y-63898377D01*
X151721219Y-63893525D01*
X151689143Y-63885491D01*
X151658009Y-63874351D01*
X151628116Y-63860213D01*
X151599753Y-63843213D01*
X151573193Y-63823515D01*
X151548692Y-63801308D01*
X151526485Y-63776807D01*
X151506787Y-63750247D01*
X151489787Y-63721884D01*
X151475649Y-63691991D01*
X151464509Y-63660857D01*
X151456475Y-63628781D01*
X151451623Y-63596071D01*
X151450000Y-63563044D01*
X151450000Y-62436956D01*
X151451623Y-62403929D01*
X151456475Y-62371219D01*
X151464509Y-62339143D01*
X151475649Y-62308009D01*
X151489787Y-62278116D01*
X151506787Y-62249753D01*
X151526485Y-62223193D01*
X151548692Y-62198692D01*
X151573193Y-62176485D01*
X151599753Y-62156787D01*
X151628116Y-62139787D01*
X151658009Y-62125649D01*
X151689143Y-62114509D01*
X151721219Y-62106475D01*
X151753929Y-62101623D01*
X151786956Y-62100000D01*
X152663044Y-62100000D01*
X152696071Y-62101623D01*
X152696071Y-62101623D01*
G37*
D17*
X152225000Y-63000000D03*
D10*
G36*
X154746071Y-62101623D02*
X154778781Y-62106475D01*
X154810857Y-62114509D01*
X154841991Y-62125649D01*
X154871884Y-62139787D01*
X154900247Y-62156787D01*
X154926807Y-62176485D01*
X154951308Y-62198692D01*
X154973515Y-62223193D01*
X154993213Y-62249753D01*
X155010213Y-62278116D01*
X155024351Y-62308009D01*
X155035491Y-62339143D01*
X155043525Y-62371219D01*
X155048377Y-62403929D01*
X155050000Y-62436956D01*
X155050000Y-63563044D01*
X155048377Y-63596071D01*
X155043525Y-63628781D01*
X155035491Y-63660857D01*
X155024351Y-63691991D01*
X155010213Y-63721884D01*
X154993213Y-63750247D01*
X154973515Y-63776807D01*
X154951308Y-63801308D01*
X154926807Y-63823515D01*
X154900247Y-63843213D01*
X154871884Y-63860213D01*
X154841991Y-63874351D01*
X154810857Y-63885491D01*
X154778781Y-63893525D01*
X154746071Y-63898377D01*
X154713044Y-63900000D01*
X153836956Y-63900000D01*
X153803929Y-63898377D01*
X153771219Y-63893525D01*
X153739143Y-63885491D01*
X153708009Y-63874351D01*
X153678116Y-63860213D01*
X153649753Y-63843213D01*
X153623193Y-63823515D01*
X153598692Y-63801308D01*
X153576485Y-63776807D01*
X153556787Y-63750247D01*
X153539787Y-63721884D01*
X153525649Y-63691991D01*
X153514509Y-63660857D01*
X153506475Y-63628781D01*
X153501623Y-63596071D01*
X153500000Y-63563044D01*
X153500000Y-62436956D01*
X153501623Y-62403929D01*
X153506475Y-62371219D01*
X153514509Y-62339143D01*
X153525649Y-62308009D01*
X153539787Y-62278116D01*
X153556787Y-62249753D01*
X153576485Y-62223193D01*
X153598692Y-62198692D01*
X153623193Y-62176485D01*
X153649753Y-62156787D01*
X153678116Y-62139787D01*
X153708009Y-62125649D01*
X153739143Y-62114509D01*
X153771219Y-62106475D01*
X153803929Y-62101623D01*
X153836956Y-62100000D01*
X154713044Y-62100000D01*
X154746071Y-62101623D01*
X154746071Y-62101623D01*
G37*
D17*
X154275000Y-63000000D03*
G04 #@! TD*
D18*
G36*
X149123000Y-65373000D02*
X147877000Y-65373000D01*
X147877000Y-55127000D01*
X149123000Y-55127000D01*
X149123000Y-65373000D01*
X149123000Y-65373000D01*
G37*
X149123000Y-65373000D02*
X147877000Y-65373000D01*
X147877000Y-55127000D01*
X149123000Y-55127000D01*
X149123000Y-65373000D01*
M02*
