G04 #@! TF.GenerationSoftware,KiCad,Pcbnew,(5.0.0)*
G04 #@! TF.CreationDate,2018-11-30T23:52:53-03:00*
G04 #@! TF.ProjectId,TP_Final,54505F46696E616C2E6B696361645F70,1*
G04 #@! TF.SameCoordinates,Original*
G04 #@! TF.FileFunction,Paste,Top*
G04 #@! TF.FilePolarity,Positive*
%FSLAX46Y46*%
G04 Gerber Fmt 4.6, Leading zero omitted, Abs format (unit mm)*
G04 Created by KiCad (PCBNEW (5.0.0)) date 11/30/18 23:52:53*
%MOMM*%
%LPD*%
G01*
G04 APERTURE LIST*
%ADD10C,0.100000*%
%ADD11R,1.450000X0.450000*%
%ADD12C,1.425000*%
%ADD13R,1.750000X0.600000*%
%ADD14C,1.150000*%
G04 APERTURE END LIST*
D10*
X167000000Y-44000000D02*
X147000000Y-44000000D01*
X167000000Y-96000000D02*
X167000000Y-44000000D01*
X147000000Y-96000000D02*
X167000000Y-96000000D01*
X147000000Y-44000000D02*
X147000000Y-96000000D01*
D11*
G04 #@! TO.C,U1*
X158437801Y-67432901D03*
X158437801Y-68082901D03*
X158437801Y-68732901D03*
X158437801Y-69382901D03*
X158437801Y-70032901D03*
X158437801Y-70682901D03*
X158437801Y-71332901D03*
X152537801Y-71332901D03*
X152537801Y-70682901D03*
X152537801Y-70032901D03*
X152537801Y-69382901D03*
X152537801Y-68732901D03*
X152537801Y-68082901D03*
X152537801Y-67432901D03*
G04 #@! TD*
D10*
G04 #@! TO.C,C1*
G36*
X155474504Y-52126204D02*
X155498773Y-52129804D01*
X155522571Y-52135765D01*
X155545671Y-52144030D01*
X155567849Y-52154520D01*
X155588893Y-52167133D01*
X155608598Y-52181747D01*
X155626777Y-52198223D01*
X155643253Y-52216402D01*
X155657867Y-52236107D01*
X155670480Y-52257151D01*
X155680970Y-52279329D01*
X155689235Y-52302429D01*
X155695196Y-52326227D01*
X155698796Y-52350496D01*
X155700000Y-52375000D01*
X155700000Y-53625000D01*
X155698796Y-53649504D01*
X155695196Y-53673773D01*
X155689235Y-53697571D01*
X155680970Y-53720671D01*
X155670480Y-53742849D01*
X155657867Y-53763893D01*
X155643253Y-53783598D01*
X155626777Y-53801777D01*
X155608598Y-53818253D01*
X155588893Y-53832867D01*
X155567849Y-53845480D01*
X155545671Y-53855970D01*
X155522571Y-53864235D01*
X155498773Y-53870196D01*
X155474504Y-53873796D01*
X155450000Y-53875000D01*
X154525000Y-53875000D01*
X154500496Y-53873796D01*
X154476227Y-53870196D01*
X154452429Y-53864235D01*
X154429329Y-53855970D01*
X154407151Y-53845480D01*
X154386107Y-53832867D01*
X154366402Y-53818253D01*
X154348223Y-53801777D01*
X154331747Y-53783598D01*
X154317133Y-53763893D01*
X154304520Y-53742849D01*
X154294030Y-53720671D01*
X154285765Y-53697571D01*
X154279804Y-53673773D01*
X154276204Y-53649504D01*
X154275000Y-53625000D01*
X154275000Y-52375000D01*
X154276204Y-52350496D01*
X154279804Y-52326227D01*
X154285765Y-52302429D01*
X154294030Y-52279329D01*
X154304520Y-52257151D01*
X154317133Y-52236107D01*
X154331747Y-52216402D01*
X154348223Y-52198223D01*
X154366402Y-52181747D01*
X154386107Y-52167133D01*
X154407151Y-52154520D01*
X154429329Y-52144030D01*
X154452429Y-52135765D01*
X154476227Y-52129804D01*
X154500496Y-52126204D01*
X154525000Y-52125000D01*
X155450000Y-52125000D01*
X155474504Y-52126204D01*
X155474504Y-52126204D01*
G37*
D12*
X154987500Y-53000000D03*
D10*
G36*
X152499504Y-52126204D02*
X152523773Y-52129804D01*
X152547571Y-52135765D01*
X152570671Y-52144030D01*
X152592849Y-52154520D01*
X152613893Y-52167133D01*
X152633598Y-52181747D01*
X152651777Y-52198223D01*
X152668253Y-52216402D01*
X152682867Y-52236107D01*
X152695480Y-52257151D01*
X152705970Y-52279329D01*
X152714235Y-52302429D01*
X152720196Y-52326227D01*
X152723796Y-52350496D01*
X152725000Y-52375000D01*
X152725000Y-53625000D01*
X152723796Y-53649504D01*
X152720196Y-53673773D01*
X152714235Y-53697571D01*
X152705970Y-53720671D01*
X152695480Y-53742849D01*
X152682867Y-53763893D01*
X152668253Y-53783598D01*
X152651777Y-53801777D01*
X152633598Y-53818253D01*
X152613893Y-53832867D01*
X152592849Y-53845480D01*
X152570671Y-53855970D01*
X152547571Y-53864235D01*
X152523773Y-53870196D01*
X152499504Y-53873796D01*
X152475000Y-53875000D01*
X151550000Y-53875000D01*
X151525496Y-53873796D01*
X151501227Y-53870196D01*
X151477429Y-53864235D01*
X151454329Y-53855970D01*
X151432151Y-53845480D01*
X151411107Y-53832867D01*
X151391402Y-53818253D01*
X151373223Y-53801777D01*
X151356747Y-53783598D01*
X151342133Y-53763893D01*
X151329520Y-53742849D01*
X151319030Y-53720671D01*
X151310765Y-53697571D01*
X151304804Y-53673773D01*
X151301204Y-53649504D01*
X151300000Y-53625000D01*
X151300000Y-52375000D01*
X151301204Y-52350496D01*
X151304804Y-52326227D01*
X151310765Y-52302429D01*
X151319030Y-52279329D01*
X151329520Y-52257151D01*
X151342133Y-52236107D01*
X151356747Y-52216402D01*
X151373223Y-52198223D01*
X151391402Y-52181747D01*
X151411107Y-52167133D01*
X151432151Y-52154520D01*
X151454329Y-52144030D01*
X151477429Y-52135765D01*
X151501227Y-52129804D01*
X151525496Y-52126204D01*
X151550000Y-52125000D01*
X152475000Y-52125000D01*
X152499504Y-52126204D01*
X152499504Y-52126204D01*
G37*
D12*
X152012500Y-53000000D03*
G04 #@! TD*
D10*
G04 #@! TO.C,C2*
G36*
X161474504Y-57126204D02*
X161498773Y-57129804D01*
X161522571Y-57135765D01*
X161545671Y-57144030D01*
X161567849Y-57154520D01*
X161588893Y-57167133D01*
X161608598Y-57181747D01*
X161626777Y-57198223D01*
X161643253Y-57216402D01*
X161657867Y-57236107D01*
X161670480Y-57257151D01*
X161680970Y-57279329D01*
X161689235Y-57302429D01*
X161695196Y-57326227D01*
X161698796Y-57350496D01*
X161700000Y-57375000D01*
X161700000Y-58625000D01*
X161698796Y-58649504D01*
X161695196Y-58673773D01*
X161689235Y-58697571D01*
X161680970Y-58720671D01*
X161670480Y-58742849D01*
X161657867Y-58763893D01*
X161643253Y-58783598D01*
X161626777Y-58801777D01*
X161608598Y-58818253D01*
X161588893Y-58832867D01*
X161567849Y-58845480D01*
X161545671Y-58855970D01*
X161522571Y-58864235D01*
X161498773Y-58870196D01*
X161474504Y-58873796D01*
X161450000Y-58875000D01*
X160525000Y-58875000D01*
X160500496Y-58873796D01*
X160476227Y-58870196D01*
X160452429Y-58864235D01*
X160429329Y-58855970D01*
X160407151Y-58845480D01*
X160386107Y-58832867D01*
X160366402Y-58818253D01*
X160348223Y-58801777D01*
X160331747Y-58783598D01*
X160317133Y-58763893D01*
X160304520Y-58742849D01*
X160294030Y-58720671D01*
X160285765Y-58697571D01*
X160279804Y-58673773D01*
X160276204Y-58649504D01*
X160275000Y-58625000D01*
X160275000Y-57375000D01*
X160276204Y-57350496D01*
X160279804Y-57326227D01*
X160285765Y-57302429D01*
X160294030Y-57279329D01*
X160304520Y-57257151D01*
X160317133Y-57236107D01*
X160331747Y-57216402D01*
X160348223Y-57198223D01*
X160366402Y-57181747D01*
X160386107Y-57167133D01*
X160407151Y-57154520D01*
X160429329Y-57144030D01*
X160452429Y-57135765D01*
X160476227Y-57129804D01*
X160500496Y-57126204D01*
X160525000Y-57125000D01*
X161450000Y-57125000D01*
X161474504Y-57126204D01*
X161474504Y-57126204D01*
G37*
D12*
X160987500Y-58000000D03*
D10*
G36*
X158499504Y-57126204D02*
X158523773Y-57129804D01*
X158547571Y-57135765D01*
X158570671Y-57144030D01*
X158592849Y-57154520D01*
X158613893Y-57167133D01*
X158633598Y-57181747D01*
X158651777Y-57198223D01*
X158668253Y-57216402D01*
X158682867Y-57236107D01*
X158695480Y-57257151D01*
X158705970Y-57279329D01*
X158714235Y-57302429D01*
X158720196Y-57326227D01*
X158723796Y-57350496D01*
X158725000Y-57375000D01*
X158725000Y-58625000D01*
X158723796Y-58649504D01*
X158720196Y-58673773D01*
X158714235Y-58697571D01*
X158705970Y-58720671D01*
X158695480Y-58742849D01*
X158682867Y-58763893D01*
X158668253Y-58783598D01*
X158651777Y-58801777D01*
X158633598Y-58818253D01*
X158613893Y-58832867D01*
X158592849Y-58845480D01*
X158570671Y-58855970D01*
X158547571Y-58864235D01*
X158523773Y-58870196D01*
X158499504Y-58873796D01*
X158475000Y-58875000D01*
X157550000Y-58875000D01*
X157525496Y-58873796D01*
X157501227Y-58870196D01*
X157477429Y-58864235D01*
X157454329Y-58855970D01*
X157432151Y-58845480D01*
X157411107Y-58832867D01*
X157391402Y-58818253D01*
X157373223Y-58801777D01*
X157356747Y-58783598D01*
X157342133Y-58763893D01*
X157329520Y-58742849D01*
X157319030Y-58720671D01*
X157310765Y-58697571D01*
X157304804Y-58673773D01*
X157301204Y-58649504D01*
X157300000Y-58625000D01*
X157300000Y-57375000D01*
X157301204Y-57350496D01*
X157304804Y-57326227D01*
X157310765Y-57302429D01*
X157319030Y-57279329D01*
X157329520Y-57257151D01*
X157342133Y-57236107D01*
X157356747Y-57216402D01*
X157373223Y-57198223D01*
X157391402Y-57181747D01*
X157411107Y-57167133D01*
X157432151Y-57154520D01*
X157454329Y-57144030D01*
X157477429Y-57135765D01*
X157501227Y-57129804D01*
X157525496Y-57126204D01*
X157550000Y-57125000D01*
X158475000Y-57125000D01*
X158499504Y-57126204D01*
X158499504Y-57126204D01*
G37*
D12*
X158012500Y-58000000D03*
G04 #@! TD*
D10*
G04 #@! TO.C,C3*
G36*
X152499504Y-57126204D02*
X152523773Y-57129804D01*
X152547571Y-57135765D01*
X152570671Y-57144030D01*
X152592849Y-57154520D01*
X152613893Y-57167133D01*
X152633598Y-57181747D01*
X152651777Y-57198223D01*
X152668253Y-57216402D01*
X152682867Y-57236107D01*
X152695480Y-57257151D01*
X152705970Y-57279329D01*
X152714235Y-57302429D01*
X152720196Y-57326227D01*
X152723796Y-57350496D01*
X152725000Y-57375000D01*
X152725000Y-58625000D01*
X152723796Y-58649504D01*
X152720196Y-58673773D01*
X152714235Y-58697571D01*
X152705970Y-58720671D01*
X152695480Y-58742849D01*
X152682867Y-58763893D01*
X152668253Y-58783598D01*
X152651777Y-58801777D01*
X152633598Y-58818253D01*
X152613893Y-58832867D01*
X152592849Y-58845480D01*
X152570671Y-58855970D01*
X152547571Y-58864235D01*
X152523773Y-58870196D01*
X152499504Y-58873796D01*
X152475000Y-58875000D01*
X151550000Y-58875000D01*
X151525496Y-58873796D01*
X151501227Y-58870196D01*
X151477429Y-58864235D01*
X151454329Y-58855970D01*
X151432151Y-58845480D01*
X151411107Y-58832867D01*
X151391402Y-58818253D01*
X151373223Y-58801777D01*
X151356747Y-58783598D01*
X151342133Y-58763893D01*
X151329520Y-58742849D01*
X151319030Y-58720671D01*
X151310765Y-58697571D01*
X151304804Y-58673773D01*
X151301204Y-58649504D01*
X151300000Y-58625000D01*
X151300000Y-57375000D01*
X151301204Y-57350496D01*
X151304804Y-57326227D01*
X151310765Y-57302429D01*
X151319030Y-57279329D01*
X151329520Y-57257151D01*
X151342133Y-57236107D01*
X151356747Y-57216402D01*
X151373223Y-57198223D01*
X151391402Y-57181747D01*
X151411107Y-57167133D01*
X151432151Y-57154520D01*
X151454329Y-57144030D01*
X151477429Y-57135765D01*
X151501227Y-57129804D01*
X151525496Y-57126204D01*
X151550000Y-57125000D01*
X152475000Y-57125000D01*
X152499504Y-57126204D01*
X152499504Y-57126204D01*
G37*
D12*
X152012500Y-58000000D03*
D10*
G36*
X155474504Y-57126204D02*
X155498773Y-57129804D01*
X155522571Y-57135765D01*
X155545671Y-57144030D01*
X155567849Y-57154520D01*
X155588893Y-57167133D01*
X155608598Y-57181747D01*
X155626777Y-57198223D01*
X155643253Y-57216402D01*
X155657867Y-57236107D01*
X155670480Y-57257151D01*
X155680970Y-57279329D01*
X155689235Y-57302429D01*
X155695196Y-57326227D01*
X155698796Y-57350496D01*
X155700000Y-57375000D01*
X155700000Y-58625000D01*
X155698796Y-58649504D01*
X155695196Y-58673773D01*
X155689235Y-58697571D01*
X155680970Y-58720671D01*
X155670480Y-58742849D01*
X155657867Y-58763893D01*
X155643253Y-58783598D01*
X155626777Y-58801777D01*
X155608598Y-58818253D01*
X155588893Y-58832867D01*
X155567849Y-58845480D01*
X155545671Y-58855970D01*
X155522571Y-58864235D01*
X155498773Y-58870196D01*
X155474504Y-58873796D01*
X155450000Y-58875000D01*
X154525000Y-58875000D01*
X154500496Y-58873796D01*
X154476227Y-58870196D01*
X154452429Y-58864235D01*
X154429329Y-58855970D01*
X154407151Y-58845480D01*
X154386107Y-58832867D01*
X154366402Y-58818253D01*
X154348223Y-58801777D01*
X154331747Y-58783598D01*
X154317133Y-58763893D01*
X154304520Y-58742849D01*
X154294030Y-58720671D01*
X154285765Y-58697571D01*
X154279804Y-58673773D01*
X154276204Y-58649504D01*
X154275000Y-58625000D01*
X154275000Y-57375000D01*
X154276204Y-57350496D01*
X154279804Y-57326227D01*
X154285765Y-57302429D01*
X154294030Y-57279329D01*
X154304520Y-57257151D01*
X154317133Y-57236107D01*
X154331747Y-57216402D01*
X154348223Y-57198223D01*
X154366402Y-57181747D01*
X154386107Y-57167133D01*
X154407151Y-57154520D01*
X154429329Y-57144030D01*
X154452429Y-57135765D01*
X154476227Y-57129804D01*
X154500496Y-57126204D01*
X154525000Y-57125000D01*
X155450000Y-57125000D01*
X155474504Y-57126204D01*
X155474504Y-57126204D01*
G37*
D12*
X154987500Y-58000000D03*
G04 #@! TD*
D13*
G04 #@! TO.C,J4*
X149625000Y-75000000D03*
X149625000Y-77000000D03*
X151375000Y-76000000D03*
X151375000Y-78000000D03*
G04 #@! TD*
D10*
G04 #@! TO.C,R1*
G36*
X160874505Y-52301204D02*
X160898773Y-52304804D01*
X160922572Y-52310765D01*
X160945671Y-52319030D01*
X160967850Y-52329520D01*
X160988893Y-52342132D01*
X161008599Y-52356747D01*
X161026777Y-52373223D01*
X161043253Y-52391401D01*
X161057868Y-52411107D01*
X161070480Y-52432150D01*
X161080970Y-52454329D01*
X161089235Y-52477428D01*
X161095196Y-52501227D01*
X161098796Y-52525495D01*
X161100000Y-52549999D01*
X161100000Y-53450001D01*
X161098796Y-53474505D01*
X161095196Y-53498773D01*
X161089235Y-53522572D01*
X161080970Y-53545671D01*
X161070480Y-53567850D01*
X161057868Y-53588893D01*
X161043253Y-53608599D01*
X161026777Y-53626777D01*
X161008599Y-53643253D01*
X160988893Y-53657868D01*
X160967850Y-53670480D01*
X160945671Y-53680970D01*
X160922572Y-53689235D01*
X160898773Y-53695196D01*
X160874505Y-53698796D01*
X160850001Y-53700000D01*
X160199999Y-53700000D01*
X160175495Y-53698796D01*
X160151227Y-53695196D01*
X160127428Y-53689235D01*
X160104329Y-53680970D01*
X160082150Y-53670480D01*
X160061107Y-53657868D01*
X160041401Y-53643253D01*
X160023223Y-53626777D01*
X160006747Y-53608599D01*
X159992132Y-53588893D01*
X159979520Y-53567850D01*
X159969030Y-53545671D01*
X159960765Y-53522572D01*
X159954804Y-53498773D01*
X159951204Y-53474505D01*
X159950000Y-53450001D01*
X159950000Y-52549999D01*
X159951204Y-52525495D01*
X159954804Y-52501227D01*
X159960765Y-52477428D01*
X159969030Y-52454329D01*
X159979520Y-52432150D01*
X159992132Y-52411107D01*
X160006747Y-52391401D01*
X160023223Y-52373223D01*
X160041401Y-52356747D01*
X160061107Y-52342132D01*
X160082150Y-52329520D01*
X160104329Y-52319030D01*
X160127428Y-52310765D01*
X160151227Y-52304804D01*
X160175495Y-52301204D01*
X160199999Y-52300000D01*
X160850001Y-52300000D01*
X160874505Y-52301204D01*
X160874505Y-52301204D01*
G37*
D14*
X160525000Y-53000000D03*
D10*
G36*
X158824505Y-52301204D02*
X158848773Y-52304804D01*
X158872572Y-52310765D01*
X158895671Y-52319030D01*
X158917850Y-52329520D01*
X158938893Y-52342132D01*
X158958599Y-52356747D01*
X158976777Y-52373223D01*
X158993253Y-52391401D01*
X159007868Y-52411107D01*
X159020480Y-52432150D01*
X159030970Y-52454329D01*
X159039235Y-52477428D01*
X159045196Y-52501227D01*
X159048796Y-52525495D01*
X159050000Y-52549999D01*
X159050000Y-53450001D01*
X159048796Y-53474505D01*
X159045196Y-53498773D01*
X159039235Y-53522572D01*
X159030970Y-53545671D01*
X159020480Y-53567850D01*
X159007868Y-53588893D01*
X158993253Y-53608599D01*
X158976777Y-53626777D01*
X158958599Y-53643253D01*
X158938893Y-53657868D01*
X158917850Y-53670480D01*
X158895671Y-53680970D01*
X158872572Y-53689235D01*
X158848773Y-53695196D01*
X158824505Y-53698796D01*
X158800001Y-53700000D01*
X158149999Y-53700000D01*
X158125495Y-53698796D01*
X158101227Y-53695196D01*
X158077428Y-53689235D01*
X158054329Y-53680970D01*
X158032150Y-53670480D01*
X158011107Y-53657868D01*
X157991401Y-53643253D01*
X157973223Y-53626777D01*
X157956747Y-53608599D01*
X157942132Y-53588893D01*
X157929520Y-53567850D01*
X157919030Y-53545671D01*
X157910765Y-53522572D01*
X157904804Y-53498773D01*
X157901204Y-53474505D01*
X157900000Y-53450001D01*
X157900000Y-52549999D01*
X157901204Y-52525495D01*
X157904804Y-52501227D01*
X157910765Y-52477428D01*
X157919030Y-52454329D01*
X157929520Y-52432150D01*
X157942132Y-52411107D01*
X157956747Y-52391401D01*
X157973223Y-52373223D01*
X157991401Y-52356747D01*
X158011107Y-52342132D01*
X158032150Y-52329520D01*
X158054329Y-52319030D01*
X158077428Y-52310765D01*
X158101227Y-52304804D01*
X158125495Y-52301204D01*
X158149999Y-52300000D01*
X158800001Y-52300000D01*
X158824505Y-52301204D01*
X158824505Y-52301204D01*
G37*
D14*
X158475000Y-53000000D03*
G04 #@! TD*
D10*
G04 #@! TO.C,R2*
G36*
X160874505Y-62301204D02*
X160898773Y-62304804D01*
X160922572Y-62310765D01*
X160945671Y-62319030D01*
X160967850Y-62329520D01*
X160988893Y-62342132D01*
X161008599Y-62356747D01*
X161026777Y-62373223D01*
X161043253Y-62391401D01*
X161057868Y-62411107D01*
X161070480Y-62432150D01*
X161080970Y-62454329D01*
X161089235Y-62477428D01*
X161095196Y-62501227D01*
X161098796Y-62525495D01*
X161100000Y-62549999D01*
X161100000Y-63450001D01*
X161098796Y-63474505D01*
X161095196Y-63498773D01*
X161089235Y-63522572D01*
X161080970Y-63545671D01*
X161070480Y-63567850D01*
X161057868Y-63588893D01*
X161043253Y-63608599D01*
X161026777Y-63626777D01*
X161008599Y-63643253D01*
X160988893Y-63657868D01*
X160967850Y-63670480D01*
X160945671Y-63680970D01*
X160922572Y-63689235D01*
X160898773Y-63695196D01*
X160874505Y-63698796D01*
X160850001Y-63700000D01*
X160199999Y-63700000D01*
X160175495Y-63698796D01*
X160151227Y-63695196D01*
X160127428Y-63689235D01*
X160104329Y-63680970D01*
X160082150Y-63670480D01*
X160061107Y-63657868D01*
X160041401Y-63643253D01*
X160023223Y-63626777D01*
X160006747Y-63608599D01*
X159992132Y-63588893D01*
X159979520Y-63567850D01*
X159969030Y-63545671D01*
X159960765Y-63522572D01*
X159954804Y-63498773D01*
X159951204Y-63474505D01*
X159950000Y-63450001D01*
X159950000Y-62549999D01*
X159951204Y-62525495D01*
X159954804Y-62501227D01*
X159960765Y-62477428D01*
X159969030Y-62454329D01*
X159979520Y-62432150D01*
X159992132Y-62411107D01*
X160006747Y-62391401D01*
X160023223Y-62373223D01*
X160041401Y-62356747D01*
X160061107Y-62342132D01*
X160082150Y-62329520D01*
X160104329Y-62319030D01*
X160127428Y-62310765D01*
X160151227Y-62304804D01*
X160175495Y-62301204D01*
X160199999Y-62300000D01*
X160850001Y-62300000D01*
X160874505Y-62301204D01*
X160874505Y-62301204D01*
G37*
D14*
X160525000Y-63000000D03*
D10*
G36*
X158824505Y-62301204D02*
X158848773Y-62304804D01*
X158872572Y-62310765D01*
X158895671Y-62319030D01*
X158917850Y-62329520D01*
X158938893Y-62342132D01*
X158958599Y-62356747D01*
X158976777Y-62373223D01*
X158993253Y-62391401D01*
X159007868Y-62411107D01*
X159020480Y-62432150D01*
X159030970Y-62454329D01*
X159039235Y-62477428D01*
X159045196Y-62501227D01*
X159048796Y-62525495D01*
X159050000Y-62549999D01*
X159050000Y-63450001D01*
X159048796Y-63474505D01*
X159045196Y-63498773D01*
X159039235Y-63522572D01*
X159030970Y-63545671D01*
X159020480Y-63567850D01*
X159007868Y-63588893D01*
X158993253Y-63608599D01*
X158976777Y-63626777D01*
X158958599Y-63643253D01*
X158938893Y-63657868D01*
X158917850Y-63670480D01*
X158895671Y-63680970D01*
X158872572Y-63689235D01*
X158848773Y-63695196D01*
X158824505Y-63698796D01*
X158800001Y-63700000D01*
X158149999Y-63700000D01*
X158125495Y-63698796D01*
X158101227Y-63695196D01*
X158077428Y-63689235D01*
X158054329Y-63680970D01*
X158032150Y-63670480D01*
X158011107Y-63657868D01*
X157991401Y-63643253D01*
X157973223Y-63626777D01*
X157956747Y-63608599D01*
X157942132Y-63588893D01*
X157929520Y-63567850D01*
X157919030Y-63545671D01*
X157910765Y-63522572D01*
X157904804Y-63498773D01*
X157901204Y-63474505D01*
X157900000Y-63450001D01*
X157900000Y-62549999D01*
X157901204Y-62525495D01*
X157904804Y-62501227D01*
X157910765Y-62477428D01*
X157919030Y-62454329D01*
X157929520Y-62432150D01*
X157942132Y-62411107D01*
X157956747Y-62391401D01*
X157973223Y-62373223D01*
X157991401Y-62356747D01*
X158011107Y-62342132D01*
X158032150Y-62329520D01*
X158054329Y-62319030D01*
X158077428Y-62310765D01*
X158101227Y-62304804D01*
X158125495Y-62301204D01*
X158149999Y-62300000D01*
X158800001Y-62300000D01*
X158824505Y-62301204D01*
X158824505Y-62301204D01*
G37*
D14*
X158475000Y-63000000D03*
G04 #@! TD*
D10*
G04 #@! TO.C,R3*
G36*
X152574505Y-62301204D02*
X152598773Y-62304804D01*
X152622572Y-62310765D01*
X152645671Y-62319030D01*
X152667850Y-62329520D01*
X152688893Y-62342132D01*
X152708599Y-62356747D01*
X152726777Y-62373223D01*
X152743253Y-62391401D01*
X152757868Y-62411107D01*
X152770480Y-62432150D01*
X152780970Y-62454329D01*
X152789235Y-62477428D01*
X152795196Y-62501227D01*
X152798796Y-62525495D01*
X152800000Y-62549999D01*
X152800000Y-63450001D01*
X152798796Y-63474505D01*
X152795196Y-63498773D01*
X152789235Y-63522572D01*
X152780970Y-63545671D01*
X152770480Y-63567850D01*
X152757868Y-63588893D01*
X152743253Y-63608599D01*
X152726777Y-63626777D01*
X152708599Y-63643253D01*
X152688893Y-63657868D01*
X152667850Y-63670480D01*
X152645671Y-63680970D01*
X152622572Y-63689235D01*
X152598773Y-63695196D01*
X152574505Y-63698796D01*
X152550001Y-63700000D01*
X151899999Y-63700000D01*
X151875495Y-63698796D01*
X151851227Y-63695196D01*
X151827428Y-63689235D01*
X151804329Y-63680970D01*
X151782150Y-63670480D01*
X151761107Y-63657868D01*
X151741401Y-63643253D01*
X151723223Y-63626777D01*
X151706747Y-63608599D01*
X151692132Y-63588893D01*
X151679520Y-63567850D01*
X151669030Y-63545671D01*
X151660765Y-63522572D01*
X151654804Y-63498773D01*
X151651204Y-63474505D01*
X151650000Y-63450001D01*
X151650000Y-62549999D01*
X151651204Y-62525495D01*
X151654804Y-62501227D01*
X151660765Y-62477428D01*
X151669030Y-62454329D01*
X151679520Y-62432150D01*
X151692132Y-62411107D01*
X151706747Y-62391401D01*
X151723223Y-62373223D01*
X151741401Y-62356747D01*
X151761107Y-62342132D01*
X151782150Y-62329520D01*
X151804329Y-62319030D01*
X151827428Y-62310765D01*
X151851227Y-62304804D01*
X151875495Y-62301204D01*
X151899999Y-62300000D01*
X152550001Y-62300000D01*
X152574505Y-62301204D01*
X152574505Y-62301204D01*
G37*
D14*
X152225000Y-63000000D03*
D10*
G36*
X154624505Y-62301204D02*
X154648773Y-62304804D01*
X154672572Y-62310765D01*
X154695671Y-62319030D01*
X154717850Y-62329520D01*
X154738893Y-62342132D01*
X154758599Y-62356747D01*
X154776777Y-62373223D01*
X154793253Y-62391401D01*
X154807868Y-62411107D01*
X154820480Y-62432150D01*
X154830970Y-62454329D01*
X154839235Y-62477428D01*
X154845196Y-62501227D01*
X154848796Y-62525495D01*
X154850000Y-62549999D01*
X154850000Y-63450001D01*
X154848796Y-63474505D01*
X154845196Y-63498773D01*
X154839235Y-63522572D01*
X154830970Y-63545671D01*
X154820480Y-63567850D01*
X154807868Y-63588893D01*
X154793253Y-63608599D01*
X154776777Y-63626777D01*
X154758599Y-63643253D01*
X154738893Y-63657868D01*
X154717850Y-63670480D01*
X154695671Y-63680970D01*
X154672572Y-63689235D01*
X154648773Y-63695196D01*
X154624505Y-63698796D01*
X154600001Y-63700000D01*
X153949999Y-63700000D01*
X153925495Y-63698796D01*
X153901227Y-63695196D01*
X153877428Y-63689235D01*
X153854329Y-63680970D01*
X153832150Y-63670480D01*
X153811107Y-63657868D01*
X153791401Y-63643253D01*
X153773223Y-63626777D01*
X153756747Y-63608599D01*
X153742132Y-63588893D01*
X153729520Y-63567850D01*
X153719030Y-63545671D01*
X153710765Y-63522572D01*
X153704804Y-63498773D01*
X153701204Y-63474505D01*
X153700000Y-63450001D01*
X153700000Y-62549999D01*
X153701204Y-62525495D01*
X153704804Y-62501227D01*
X153710765Y-62477428D01*
X153719030Y-62454329D01*
X153729520Y-62432150D01*
X153742132Y-62411107D01*
X153756747Y-62391401D01*
X153773223Y-62373223D01*
X153791401Y-62356747D01*
X153811107Y-62342132D01*
X153832150Y-62329520D01*
X153854329Y-62319030D01*
X153877428Y-62310765D01*
X153901227Y-62304804D01*
X153925495Y-62301204D01*
X153949999Y-62300000D01*
X154600001Y-62300000D01*
X154624505Y-62301204D01*
X154624505Y-62301204D01*
G37*
D14*
X154275000Y-63000000D03*
G04 #@! TD*
M02*
