G04 #@! TF.GenerationSoftware,KiCad,Pcbnew,(5.0.0)*
G04 #@! TF.CreationDate,2018-11-30T23:52:53-03:00*
G04 #@! TF.ProjectId,TP_Final,54505F46696E616C2E6B696361645F70,1*
G04 #@! TF.SameCoordinates,Original*
G04 #@! TF.FileFunction,Copper,L1,Top,Signal*
G04 #@! TF.FilePolarity,Positive*
%FSLAX46Y46*%
G04 Gerber Fmt 4.6, Leading zero omitted, Abs format (unit mm)*
G04 Created by KiCad (PCBNEW (5.0.0)) date 11/30/18 23:52:53*
%MOMM*%
%LPD*%
G01*
G04 APERTURE LIST*
G04 #@! TA.AperFunction,NonConductor*
%ADD10C,0.125000*%
G04 #@! TD*
G04 #@! TA.AperFunction,NonConductor*
%ADD11C,0.100000*%
G04 #@! TD*
G04 #@! TA.AperFunction,SMDPad,CuDef*
%ADD12R,1.450000X0.450000*%
G04 #@! TD*
G04 #@! TA.AperFunction,ComponentPad*
%ADD13R,1.700000X1.700000*%
G04 #@! TD*
G04 #@! TA.AperFunction,Conductor*
%ADD14C,0.100000*%
G04 #@! TD*
G04 #@! TA.AperFunction,SMDPad,CuDef*
%ADD15C,1.425000*%
G04 #@! TD*
G04 #@! TA.AperFunction,SMDPad,CuDef*
%ADD16R,1.750000X0.600000*%
G04 #@! TD*
G04 #@! TA.AperFunction,BGAPad,CuDef*
%ADD17C,1.000000*%
G04 #@! TD*
G04 #@! TA.AperFunction,SMDPad,CuDef*
%ADD18C,1.150000*%
G04 #@! TD*
G04 #@! TA.AperFunction,Conductor*
%ADD19C,0.250000*%
G04 #@! TD*
G04 APERTURE END LIST*
D10*
X148816666Y-65100000D02*
X148116666Y-65100000D01*
X148350000Y-64766666D02*
X148816666Y-64766666D01*
X148416666Y-64766666D02*
X148383333Y-64733333D01*
X148350000Y-64666666D01*
X148350000Y-64566666D01*
X148383333Y-64500000D01*
X148450000Y-64466666D01*
X148816666Y-64466666D01*
X148816666Y-63833333D02*
X148116666Y-63833333D01*
X148783333Y-63833333D02*
X148816666Y-63900000D01*
X148816666Y-64033333D01*
X148783333Y-64100000D01*
X148750000Y-64133333D01*
X148683333Y-64166666D01*
X148483333Y-64166666D01*
X148416666Y-64133333D01*
X148383333Y-64100000D01*
X148350000Y-64033333D01*
X148350000Y-63900000D01*
X148383333Y-63833333D01*
X148350000Y-63200000D02*
X148816666Y-63200000D01*
X148350000Y-63500000D02*
X148716666Y-63500000D01*
X148783333Y-63466666D01*
X148816666Y-63400000D01*
X148816666Y-63300000D01*
X148783333Y-63233333D01*
X148750000Y-63200000D01*
X148783333Y-62900000D02*
X148816666Y-62833333D01*
X148816666Y-62700000D01*
X148783333Y-62633333D01*
X148716666Y-62600000D01*
X148683333Y-62600000D01*
X148616666Y-62633333D01*
X148583333Y-62700000D01*
X148583333Y-62800000D01*
X148550000Y-62866666D01*
X148483333Y-62900000D01*
X148450000Y-62900000D01*
X148383333Y-62866666D01*
X148350000Y-62800000D01*
X148350000Y-62700000D01*
X148383333Y-62633333D01*
X148350000Y-62400000D02*
X148350000Y-62133333D01*
X148116666Y-62300000D02*
X148716666Y-62300000D01*
X148783333Y-62266666D01*
X148816666Y-62200000D01*
X148816666Y-62133333D01*
X148816666Y-61900000D02*
X148350000Y-61900000D01*
X148483333Y-61900000D02*
X148416666Y-61866666D01*
X148383333Y-61833333D01*
X148350000Y-61766666D01*
X148350000Y-61700000D01*
X148816666Y-61466666D02*
X148350000Y-61466666D01*
X148116666Y-61466666D02*
X148150000Y-61500000D01*
X148183333Y-61466666D01*
X148150000Y-61433333D01*
X148116666Y-61466666D01*
X148183333Y-61466666D01*
X148816666Y-60833333D02*
X148450000Y-60833333D01*
X148383333Y-60866666D01*
X148350000Y-60933333D01*
X148350000Y-61066666D01*
X148383333Y-61133333D01*
X148783333Y-60833333D02*
X148816666Y-60900000D01*
X148816666Y-61066666D01*
X148783333Y-61133333D01*
X148716666Y-61166666D01*
X148650000Y-61166666D01*
X148583333Y-61133333D01*
X148550000Y-61066666D01*
X148550000Y-60900000D01*
X148516666Y-60833333D01*
X148616666Y-60000000D02*
X148616666Y-59666666D01*
X148816666Y-60066666D02*
X148116666Y-59833333D01*
X148816666Y-59600000D01*
X148816666Y-59366666D02*
X148350000Y-59366666D01*
X148483333Y-59366666D02*
X148416666Y-59333333D01*
X148383333Y-59300000D01*
X148350000Y-59233333D01*
X148350000Y-59166666D01*
X148350000Y-58633333D02*
X148916666Y-58633333D01*
X148983333Y-58666666D01*
X149016666Y-58700000D01*
X149050000Y-58766666D01*
X149050000Y-58866666D01*
X149016666Y-58933333D01*
X148783333Y-58633333D02*
X148816666Y-58700000D01*
X148816666Y-58833333D01*
X148783333Y-58900000D01*
X148750000Y-58933333D01*
X148683333Y-58966666D01*
X148483333Y-58966666D01*
X148416666Y-58933333D01*
X148383333Y-58900000D01*
X148350000Y-58833333D01*
X148350000Y-58700000D01*
X148383333Y-58633333D01*
X148783333Y-58033333D02*
X148816666Y-58100000D01*
X148816666Y-58233333D01*
X148783333Y-58300000D01*
X148716666Y-58333333D01*
X148450000Y-58333333D01*
X148383333Y-58300000D01*
X148350000Y-58233333D01*
X148350000Y-58100000D01*
X148383333Y-58033333D01*
X148450000Y-58000000D01*
X148516666Y-58000000D01*
X148583333Y-58333333D01*
X148350000Y-57700000D02*
X148816666Y-57700000D01*
X148416666Y-57700000D02*
X148383333Y-57666666D01*
X148350000Y-57600000D01*
X148350000Y-57500000D01*
X148383333Y-57433333D01*
X148450000Y-57400000D01*
X148816666Y-57400000D01*
X148350000Y-57166666D02*
X148350000Y-56900000D01*
X148116666Y-57066666D02*
X148716666Y-57066666D01*
X148783333Y-57033333D01*
X148816666Y-56966666D01*
X148816666Y-56900000D01*
X148816666Y-56666666D02*
X148350000Y-56666666D01*
X148116666Y-56666666D02*
X148150000Y-56700000D01*
X148183333Y-56666666D01*
X148150000Y-56633333D01*
X148116666Y-56666666D01*
X148183333Y-56666666D01*
X148350000Y-56333333D02*
X148816666Y-56333333D01*
X148416666Y-56333333D02*
X148383333Y-56300000D01*
X148350000Y-56233333D01*
X148350000Y-56133333D01*
X148383333Y-56066666D01*
X148450000Y-56033333D01*
X148816666Y-56033333D01*
X148816666Y-55400000D02*
X148450000Y-55400000D01*
X148383333Y-55433333D01*
X148350000Y-55500000D01*
X148350000Y-55633333D01*
X148383333Y-55700000D01*
X148783333Y-55400000D02*
X148816666Y-55466666D01*
X148816666Y-55633333D01*
X148783333Y-55700000D01*
X148716666Y-55733333D01*
X148650000Y-55733333D01*
X148583333Y-55700000D01*
X148550000Y-55633333D01*
X148550000Y-55466666D01*
X148516666Y-55400000D01*
D11*
X167000000Y-44000000D02*
X147000000Y-44000000D01*
X167000000Y-96000000D02*
X167000000Y-44000000D01*
X147000000Y-96000000D02*
X167000000Y-96000000D01*
X147000000Y-44000000D02*
X147000000Y-96000000D01*
D12*
G04 #@! TO.P,U1,14*
G04 #@! TO.N,Net-(R1-Pad2)*
X158437801Y-67432901D03*
G04 #@! TO.P,U1,13*
X158437801Y-68082901D03*
G04 #@! TO.P,U1,12*
G04 #@! TO.N,/Va*
X158437801Y-68732901D03*
G04 #@! TO.P,U1,11*
G04 #@! TO.N,GND*
X158437801Y-69382901D03*
G04 #@! TO.P,U1,10*
G04 #@! TO.N,/Vc*
X158437801Y-70032901D03*
G04 #@! TO.P,U1,9*
G04 #@! TO.N,Net-(R2-Pad2)*
X158437801Y-70682901D03*
G04 #@! TO.P,U1,8*
X158437801Y-71332901D03*
G04 #@! TO.P,U1,7*
G04 #@! TO.N,/Vo+*
X152537801Y-71332901D03*
G04 #@! TO.P,U1,6*
X152537801Y-70682901D03*
G04 #@! TO.P,U1,5*
G04 #@! TO.N,/Vb*
X152537801Y-70032901D03*
G04 #@! TO.P,U1,4*
G04 #@! TO.N,VCC*
X152537801Y-69382901D03*
G04 #@! TO.P,U1,3*
G04 #@! TO.N,/Vo+*
X152537801Y-68732901D03*
G04 #@! TO.P,U1,2*
G04 #@! TO.N,Net-(C1-Pad1)*
X152537801Y-68082901D03*
G04 #@! TO.P,U1,1*
G04 #@! TO.N,/Vo-*
X152537801Y-67432901D03*
G04 #@! TD*
D13*
G04 #@! TO.P,J1,1*
G04 #@! TO.N,/Va*
X150000000Y-50000000D03*
G04 #@! TD*
G04 #@! TO.P,J3,1*
G04 #@! TO.N,/Vc*
X150000000Y-90000000D03*
G04 #@! TD*
D14*
G04 #@! TO.N,Net-(C1-Pad2)*
G04 #@! TO.C,C1*
G36*
X155474504Y-52126204D02*
X155498773Y-52129804D01*
X155522571Y-52135765D01*
X155545671Y-52144030D01*
X155567849Y-52154520D01*
X155588893Y-52167133D01*
X155608598Y-52181747D01*
X155626777Y-52198223D01*
X155643253Y-52216402D01*
X155657867Y-52236107D01*
X155670480Y-52257151D01*
X155680970Y-52279329D01*
X155689235Y-52302429D01*
X155695196Y-52326227D01*
X155698796Y-52350496D01*
X155700000Y-52375000D01*
X155700000Y-53625000D01*
X155698796Y-53649504D01*
X155695196Y-53673773D01*
X155689235Y-53697571D01*
X155680970Y-53720671D01*
X155670480Y-53742849D01*
X155657867Y-53763893D01*
X155643253Y-53783598D01*
X155626777Y-53801777D01*
X155608598Y-53818253D01*
X155588893Y-53832867D01*
X155567849Y-53845480D01*
X155545671Y-53855970D01*
X155522571Y-53864235D01*
X155498773Y-53870196D01*
X155474504Y-53873796D01*
X155450000Y-53875000D01*
X154525000Y-53875000D01*
X154500496Y-53873796D01*
X154476227Y-53870196D01*
X154452429Y-53864235D01*
X154429329Y-53855970D01*
X154407151Y-53845480D01*
X154386107Y-53832867D01*
X154366402Y-53818253D01*
X154348223Y-53801777D01*
X154331747Y-53783598D01*
X154317133Y-53763893D01*
X154304520Y-53742849D01*
X154294030Y-53720671D01*
X154285765Y-53697571D01*
X154279804Y-53673773D01*
X154276204Y-53649504D01*
X154275000Y-53625000D01*
X154275000Y-52375000D01*
X154276204Y-52350496D01*
X154279804Y-52326227D01*
X154285765Y-52302429D01*
X154294030Y-52279329D01*
X154304520Y-52257151D01*
X154317133Y-52236107D01*
X154331747Y-52216402D01*
X154348223Y-52198223D01*
X154366402Y-52181747D01*
X154386107Y-52167133D01*
X154407151Y-52154520D01*
X154429329Y-52144030D01*
X154452429Y-52135765D01*
X154476227Y-52129804D01*
X154500496Y-52126204D01*
X154525000Y-52125000D01*
X155450000Y-52125000D01*
X155474504Y-52126204D01*
X155474504Y-52126204D01*
G37*
D15*
G04 #@! TD*
G04 #@! TO.P,C1,2*
G04 #@! TO.N,Net-(C1-Pad2)*
X154987500Y-53000000D03*
D14*
G04 #@! TO.N,Net-(C1-Pad1)*
G04 #@! TO.C,C1*
G36*
X152499504Y-52126204D02*
X152523773Y-52129804D01*
X152547571Y-52135765D01*
X152570671Y-52144030D01*
X152592849Y-52154520D01*
X152613893Y-52167133D01*
X152633598Y-52181747D01*
X152651777Y-52198223D01*
X152668253Y-52216402D01*
X152682867Y-52236107D01*
X152695480Y-52257151D01*
X152705970Y-52279329D01*
X152714235Y-52302429D01*
X152720196Y-52326227D01*
X152723796Y-52350496D01*
X152725000Y-52375000D01*
X152725000Y-53625000D01*
X152723796Y-53649504D01*
X152720196Y-53673773D01*
X152714235Y-53697571D01*
X152705970Y-53720671D01*
X152695480Y-53742849D01*
X152682867Y-53763893D01*
X152668253Y-53783598D01*
X152651777Y-53801777D01*
X152633598Y-53818253D01*
X152613893Y-53832867D01*
X152592849Y-53845480D01*
X152570671Y-53855970D01*
X152547571Y-53864235D01*
X152523773Y-53870196D01*
X152499504Y-53873796D01*
X152475000Y-53875000D01*
X151550000Y-53875000D01*
X151525496Y-53873796D01*
X151501227Y-53870196D01*
X151477429Y-53864235D01*
X151454329Y-53855970D01*
X151432151Y-53845480D01*
X151411107Y-53832867D01*
X151391402Y-53818253D01*
X151373223Y-53801777D01*
X151356747Y-53783598D01*
X151342133Y-53763893D01*
X151329520Y-53742849D01*
X151319030Y-53720671D01*
X151310765Y-53697571D01*
X151304804Y-53673773D01*
X151301204Y-53649504D01*
X151300000Y-53625000D01*
X151300000Y-52375000D01*
X151301204Y-52350496D01*
X151304804Y-52326227D01*
X151310765Y-52302429D01*
X151319030Y-52279329D01*
X151329520Y-52257151D01*
X151342133Y-52236107D01*
X151356747Y-52216402D01*
X151373223Y-52198223D01*
X151391402Y-52181747D01*
X151411107Y-52167133D01*
X151432151Y-52154520D01*
X151454329Y-52144030D01*
X151477429Y-52135765D01*
X151501227Y-52129804D01*
X151525496Y-52126204D01*
X151550000Y-52125000D01*
X152475000Y-52125000D01*
X152499504Y-52126204D01*
X152499504Y-52126204D01*
G37*
D15*
G04 #@! TD*
G04 #@! TO.P,C1,1*
G04 #@! TO.N,Net-(C1-Pad1)*
X152012500Y-53000000D03*
D14*
G04 #@! TO.N,Net-(C2-Pad1)*
G04 #@! TO.C,C2*
G36*
X161474504Y-57126204D02*
X161498773Y-57129804D01*
X161522571Y-57135765D01*
X161545671Y-57144030D01*
X161567849Y-57154520D01*
X161588893Y-57167133D01*
X161608598Y-57181747D01*
X161626777Y-57198223D01*
X161643253Y-57216402D01*
X161657867Y-57236107D01*
X161670480Y-57257151D01*
X161680970Y-57279329D01*
X161689235Y-57302429D01*
X161695196Y-57326227D01*
X161698796Y-57350496D01*
X161700000Y-57375000D01*
X161700000Y-58625000D01*
X161698796Y-58649504D01*
X161695196Y-58673773D01*
X161689235Y-58697571D01*
X161680970Y-58720671D01*
X161670480Y-58742849D01*
X161657867Y-58763893D01*
X161643253Y-58783598D01*
X161626777Y-58801777D01*
X161608598Y-58818253D01*
X161588893Y-58832867D01*
X161567849Y-58845480D01*
X161545671Y-58855970D01*
X161522571Y-58864235D01*
X161498773Y-58870196D01*
X161474504Y-58873796D01*
X161450000Y-58875000D01*
X160525000Y-58875000D01*
X160500496Y-58873796D01*
X160476227Y-58870196D01*
X160452429Y-58864235D01*
X160429329Y-58855970D01*
X160407151Y-58845480D01*
X160386107Y-58832867D01*
X160366402Y-58818253D01*
X160348223Y-58801777D01*
X160331747Y-58783598D01*
X160317133Y-58763893D01*
X160304520Y-58742849D01*
X160294030Y-58720671D01*
X160285765Y-58697571D01*
X160279804Y-58673773D01*
X160276204Y-58649504D01*
X160275000Y-58625000D01*
X160275000Y-57375000D01*
X160276204Y-57350496D01*
X160279804Y-57326227D01*
X160285765Y-57302429D01*
X160294030Y-57279329D01*
X160304520Y-57257151D01*
X160317133Y-57236107D01*
X160331747Y-57216402D01*
X160348223Y-57198223D01*
X160366402Y-57181747D01*
X160386107Y-57167133D01*
X160407151Y-57154520D01*
X160429329Y-57144030D01*
X160452429Y-57135765D01*
X160476227Y-57129804D01*
X160500496Y-57126204D01*
X160525000Y-57125000D01*
X161450000Y-57125000D01*
X161474504Y-57126204D01*
X161474504Y-57126204D01*
G37*
D15*
G04 #@! TD*
G04 #@! TO.P,C2,1*
G04 #@! TO.N,Net-(C2-Pad1)*
X160987500Y-58000000D03*
D14*
G04 #@! TO.N,Net-(C1-Pad1)*
G04 #@! TO.C,C2*
G36*
X158499504Y-57126204D02*
X158523773Y-57129804D01*
X158547571Y-57135765D01*
X158570671Y-57144030D01*
X158592849Y-57154520D01*
X158613893Y-57167133D01*
X158633598Y-57181747D01*
X158651777Y-57198223D01*
X158668253Y-57216402D01*
X158682867Y-57236107D01*
X158695480Y-57257151D01*
X158705970Y-57279329D01*
X158714235Y-57302429D01*
X158720196Y-57326227D01*
X158723796Y-57350496D01*
X158725000Y-57375000D01*
X158725000Y-58625000D01*
X158723796Y-58649504D01*
X158720196Y-58673773D01*
X158714235Y-58697571D01*
X158705970Y-58720671D01*
X158695480Y-58742849D01*
X158682867Y-58763893D01*
X158668253Y-58783598D01*
X158651777Y-58801777D01*
X158633598Y-58818253D01*
X158613893Y-58832867D01*
X158592849Y-58845480D01*
X158570671Y-58855970D01*
X158547571Y-58864235D01*
X158523773Y-58870196D01*
X158499504Y-58873796D01*
X158475000Y-58875000D01*
X157550000Y-58875000D01*
X157525496Y-58873796D01*
X157501227Y-58870196D01*
X157477429Y-58864235D01*
X157454329Y-58855970D01*
X157432151Y-58845480D01*
X157411107Y-58832867D01*
X157391402Y-58818253D01*
X157373223Y-58801777D01*
X157356747Y-58783598D01*
X157342133Y-58763893D01*
X157329520Y-58742849D01*
X157319030Y-58720671D01*
X157310765Y-58697571D01*
X157304804Y-58673773D01*
X157301204Y-58649504D01*
X157300000Y-58625000D01*
X157300000Y-57375000D01*
X157301204Y-57350496D01*
X157304804Y-57326227D01*
X157310765Y-57302429D01*
X157319030Y-57279329D01*
X157329520Y-57257151D01*
X157342133Y-57236107D01*
X157356747Y-57216402D01*
X157373223Y-57198223D01*
X157391402Y-57181747D01*
X157411107Y-57167133D01*
X157432151Y-57154520D01*
X157454329Y-57144030D01*
X157477429Y-57135765D01*
X157501227Y-57129804D01*
X157525496Y-57126204D01*
X157550000Y-57125000D01*
X158475000Y-57125000D01*
X158499504Y-57126204D01*
X158499504Y-57126204D01*
G37*
D15*
G04 #@! TD*
G04 #@! TO.P,C2,2*
G04 #@! TO.N,Net-(C1-Pad1)*
X158012500Y-58000000D03*
D14*
G04 #@! TO.N,Net-(C1-Pad1)*
G04 #@! TO.C,C3*
G36*
X152499504Y-57126204D02*
X152523773Y-57129804D01*
X152547571Y-57135765D01*
X152570671Y-57144030D01*
X152592849Y-57154520D01*
X152613893Y-57167133D01*
X152633598Y-57181747D01*
X152651777Y-57198223D01*
X152668253Y-57216402D01*
X152682867Y-57236107D01*
X152695480Y-57257151D01*
X152705970Y-57279329D01*
X152714235Y-57302429D01*
X152720196Y-57326227D01*
X152723796Y-57350496D01*
X152725000Y-57375000D01*
X152725000Y-58625000D01*
X152723796Y-58649504D01*
X152720196Y-58673773D01*
X152714235Y-58697571D01*
X152705970Y-58720671D01*
X152695480Y-58742849D01*
X152682867Y-58763893D01*
X152668253Y-58783598D01*
X152651777Y-58801777D01*
X152633598Y-58818253D01*
X152613893Y-58832867D01*
X152592849Y-58845480D01*
X152570671Y-58855970D01*
X152547571Y-58864235D01*
X152523773Y-58870196D01*
X152499504Y-58873796D01*
X152475000Y-58875000D01*
X151550000Y-58875000D01*
X151525496Y-58873796D01*
X151501227Y-58870196D01*
X151477429Y-58864235D01*
X151454329Y-58855970D01*
X151432151Y-58845480D01*
X151411107Y-58832867D01*
X151391402Y-58818253D01*
X151373223Y-58801777D01*
X151356747Y-58783598D01*
X151342133Y-58763893D01*
X151329520Y-58742849D01*
X151319030Y-58720671D01*
X151310765Y-58697571D01*
X151304804Y-58673773D01*
X151301204Y-58649504D01*
X151300000Y-58625000D01*
X151300000Y-57375000D01*
X151301204Y-57350496D01*
X151304804Y-57326227D01*
X151310765Y-57302429D01*
X151319030Y-57279329D01*
X151329520Y-57257151D01*
X151342133Y-57236107D01*
X151356747Y-57216402D01*
X151373223Y-57198223D01*
X151391402Y-57181747D01*
X151411107Y-57167133D01*
X151432151Y-57154520D01*
X151454329Y-57144030D01*
X151477429Y-57135765D01*
X151501227Y-57129804D01*
X151525496Y-57126204D01*
X151550000Y-57125000D01*
X152475000Y-57125000D01*
X152499504Y-57126204D01*
X152499504Y-57126204D01*
G37*
D15*
G04 #@! TD*
G04 #@! TO.P,C3,1*
G04 #@! TO.N,Net-(C1-Pad1)*
X152012500Y-58000000D03*
D14*
G04 #@! TO.N,/Vo-*
G04 #@! TO.C,C3*
G36*
X155474504Y-57126204D02*
X155498773Y-57129804D01*
X155522571Y-57135765D01*
X155545671Y-57144030D01*
X155567849Y-57154520D01*
X155588893Y-57167133D01*
X155608598Y-57181747D01*
X155626777Y-57198223D01*
X155643253Y-57216402D01*
X155657867Y-57236107D01*
X155670480Y-57257151D01*
X155680970Y-57279329D01*
X155689235Y-57302429D01*
X155695196Y-57326227D01*
X155698796Y-57350496D01*
X155700000Y-57375000D01*
X155700000Y-58625000D01*
X155698796Y-58649504D01*
X155695196Y-58673773D01*
X155689235Y-58697571D01*
X155680970Y-58720671D01*
X155670480Y-58742849D01*
X155657867Y-58763893D01*
X155643253Y-58783598D01*
X155626777Y-58801777D01*
X155608598Y-58818253D01*
X155588893Y-58832867D01*
X155567849Y-58845480D01*
X155545671Y-58855970D01*
X155522571Y-58864235D01*
X155498773Y-58870196D01*
X155474504Y-58873796D01*
X155450000Y-58875000D01*
X154525000Y-58875000D01*
X154500496Y-58873796D01*
X154476227Y-58870196D01*
X154452429Y-58864235D01*
X154429329Y-58855970D01*
X154407151Y-58845480D01*
X154386107Y-58832867D01*
X154366402Y-58818253D01*
X154348223Y-58801777D01*
X154331747Y-58783598D01*
X154317133Y-58763893D01*
X154304520Y-58742849D01*
X154294030Y-58720671D01*
X154285765Y-58697571D01*
X154279804Y-58673773D01*
X154276204Y-58649504D01*
X154275000Y-58625000D01*
X154275000Y-57375000D01*
X154276204Y-57350496D01*
X154279804Y-57326227D01*
X154285765Y-57302429D01*
X154294030Y-57279329D01*
X154304520Y-57257151D01*
X154317133Y-57236107D01*
X154331747Y-57216402D01*
X154348223Y-57198223D01*
X154366402Y-57181747D01*
X154386107Y-57167133D01*
X154407151Y-57154520D01*
X154429329Y-57144030D01*
X154452429Y-57135765D01*
X154476227Y-57129804D01*
X154500496Y-57126204D01*
X154525000Y-57125000D01*
X155450000Y-57125000D01*
X155474504Y-57126204D01*
X155474504Y-57126204D01*
G37*
D15*
G04 #@! TD*
G04 #@! TO.P,C3,2*
G04 #@! TO.N,/Vo-*
X154987500Y-58000000D03*
D16*
G04 #@! TO.P,J4,1*
G04 #@! TO.N,/Vo+*
X149625000Y-75000000D03*
G04 #@! TO.P,J4,3*
G04 #@! TO.N,/Vo-*
X149625000Y-77000000D03*
G04 #@! TO.P,J4,2*
G04 #@! TO.N,VCC*
X151375000Y-76000000D03*
G04 #@! TO.P,J4,4*
G04 #@! TO.N,GND*
X151375000Y-78000000D03*
G04 #@! TD*
D13*
G04 #@! TO.P,J2,1*
G04 #@! TO.N,/Vb*
X149967100Y-70032900D03*
G04 #@! TD*
G04 #@! TO.P,J11,1*
G04 #@! TO.N,/Va*
X164000000Y-50000000D03*
G04 #@! TD*
G04 #@! TO.P,J22,1*
G04 #@! TO.N,Net-(J22-Pad1)*
X164000000Y-70000000D03*
G04 #@! TD*
G04 #@! TO.P,J33,1*
G04 #@! TO.N,/Vc*
X164000000Y-90000000D03*
G04 #@! TD*
D17*
G04 #@! TO.P,F1,~*
G04 #@! TO.N,N/C*
X157250000Y-46500000D03*
G04 #@! TD*
G04 #@! TO.P,F2,~*
G04 #@! TO.N,N/C*
X153250000Y-93500000D03*
G04 #@! TD*
G04 #@! TO.P,F3,~*
G04 #@! TO.N,N/C*
X160750000Y-93500000D03*
G04 #@! TD*
D14*
G04 #@! TO.N,Net-(R1-Pad2)*
G04 #@! TO.C,R1*
G36*
X160874505Y-52301204D02*
X160898773Y-52304804D01*
X160922572Y-52310765D01*
X160945671Y-52319030D01*
X160967850Y-52329520D01*
X160988893Y-52342132D01*
X161008599Y-52356747D01*
X161026777Y-52373223D01*
X161043253Y-52391401D01*
X161057868Y-52411107D01*
X161070480Y-52432150D01*
X161080970Y-52454329D01*
X161089235Y-52477428D01*
X161095196Y-52501227D01*
X161098796Y-52525495D01*
X161100000Y-52549999D01*
X161100000Y-53450001D01*
X161098796Y-53474505D01*
X161095196Y-53498773D01*
X161089235Y-53522572D01*
X161080970Y-53545671D01*
X161070480Y-53567850D01*
X161057868Y-53588893D01*
X161043253Y-53608599D01*
X161026777Y-53626777D01*
X161008599Y-53643253D01*
X160988893Y-53657868D01*
X160967850Y-53670480D01*
X160945671Y-53680970D01*
X160922572Y-53689235D01*
X160898773Y-53695196D01*
X160874505Y-53698796D01*
X160850001Y-53700000D01*
X160199999Y-53700000D01*
X160175495Y-53698796D01*
X160151227Y-53695196D01*
X160127428Y-53689235D01*
X160104329Y-53680970D01*
X160082150Y-53670480D01*
X160061107Y-53657868D01*
X160041401Y-53643253D01*
X160023223Y-53626777D01*
X160006747Y-53608599D01*
X159992132Y-53588893D01*
X159979520Y-53567850D01*
X159969030Y-53545671D01*
X159960765Y-53522572D01*
X159954804Y-53498773D01*
X159951204Y-53474505D01*
X159950000Y-53450001D01*
X159950000Y-52549999D01*
X159951204Y-52525495D01*
X159954804Y-52501227D01*
X159960765Y-52477428D01*
X159969030Y-52454329D01*
X159979520Y-52432150D01*
X159992132Y-52411107D01*
X160006747Y-52391401D01*
X160023223Y-52373223D01*
X160041401Y-52356747D01*
X160061107Y-52342132D01*
X160082150Y-52329520D01*
X160104329Y-52319030D01*
X160127428Y-52310765D01*
X160151227Y-52304804D01*
X160175495Y-52301204D01*
X160199999Y-52300000D01*
X160850001Y-52300000D01*
X160874505Y-52301204D01*
X160874505Y-52301204D01*
G37*
D18*
G04 #@! TD*
G04 #@! TO.P,R1,2*
G04 #@! TO.N,Net-(R1-Pad2)*
X160525000Y-53000000D03*
D14*
G04 #@! TO.N,Net-(C1-Pad2)*
G04 #@! TO.C,R1*
G36*
X158824505Y-52301204D02*
X158848773Y-52304804D01*
X158872572Y-52310765D01*
X158895671Y-52319030D01*
X158917850Y-52329520D01*
X158938893Y-52342132D01*
X158958599Y-52356747D01*
X158976777Y-52373223D01*
X158993253Y-52391401D01*
X159007868Y-52411107D01*
X159020480Y-52432150D01*
X159030970Y-52454329D01*
X159039235Y-52477428D01*
X159045196Y-52501227D01*
X159048796Y-52525495D01*
X159050000Y-52549999D01*
X159050000Y-53450001D01*
X159048796Y-53474505D01*
X159045196Y-53498773D01*
X159039235Y-53522572D01*
X159030970Y-53545671D01*
X159020480Y-53567850D01*
X159007868Y-53588893D01*
X158993253Y-53608599D01*
X158976777Y-53626777D01*
X158958599Y-53643253D01*
X158938893Y-53657868D01*
X158917850Y-53670480D01*
X158895671Y-53680970D01*
X158872572Y-53689235D01*
X158848773Y-53695196D01*
X158824505Y-53698796D01*
X158800001Y-53700000D01*
X158149999Y-53700000D01*
X158125495Y-53698796D01*
X158101227Y-53695196D01*
X158077428Y-53689235D01*
X158054329Y-53680970D01*
X158032150Y-53670480D01*
X158011107Y-53657868D01*
X157991401Y-53643253D01*
X157973223Y-53626777D01*
X157956747Y-53608599D01*
X157942132Y-53588893D01*
X157929520Y-53567850D01*
X157919030Y-53545671D01*
X157910765Y-53522572D01*
X157904804Y-53498773D01*
X157901204Y-53474505D01*
X157900000Y-53450001D01*
X157900000Y-52549999D01*
X157901204Y-52525495D01*
X157904804Y-52501227D01*
X157910765Y-52477428D01*
X157919030Y-52454329D01*
X157929520Y-52432150D01*
X157942132Y-52411107D01*
X157956747Y-52391401D01*
X157973223Y-52373223D01*
X157991401Y-52356747D01*
X158011107Y-52342132D01*
X158032150Y-52329520D01*
X158054329Y-52319030D01*
X158077428Y-52310765D01*
X158101227Y-52304804D01*
X158125495Y-52301204D01*
X158149999Y-52300000D01*
X158800001Y-52300000D01*
X158824505Y-52301204D01*
X158824505Y-52301204D01*
G37*
D18*
G04 #@! TD*
G04 #@! TO.P,R1,1*
G04 #@! TO.N,Net-(C1-Pad2)*
X158475000Y-53000000D03*
D14*
G04 #@! TO.N,Net-(C2-Pad1)*
G04 #@! TO.C,R2*
G36*
X160874505Y-62301204D02*
X160898773Y-62304804D01*
X160922572Y-62310765D01*
X160945671Y-62319030D01*
X160967850Y-62329520D01*
X160988893Y-62342132D01*
X161008599Y-62356747D01*
X161026777Y-62373223D01*
X161043253Y-62391401D01*
X161057868Y-62411107D01*
X161070480Y-62432150D01*
X161080970Y-62454329D01*
X161089235Y-62477428D01*
X161095196Y-62501227D01*
X161098796Y-62525495D01*
X161100000Y-62549999D01*
X161100000Y-63450001D01*
X161098796Y-63474505D01*
X161095196Y-63498773D01*
X161089235Y-63522572D01*
X161080970Y-63545671D01*
X161070480Y-63567850D01*
X161057868Y-63588893D01*
X161043253Y-63608599D01*
X161026777Y-63626777D01*
X161008599Y-63643253D01*
X160988893Y-63657868D01*
X160967850Y-63670480D01*
X160945671Y-63680970D01*
X160922572Y-63689235D01*
X160898773Y-63695196D01*
X160874505Y-63698796D01*
X160850001Y-63700000D01*
X160199999Y-63700000D01*
X160175495Y-63698796D01*
X160151227Y-63695196D01*
X160127428Y-63689235D01*
X160104329Y-63680970D01*
X160082150Y-63670480D01*
X160061107Y-63657868D01*
X160041401Y-63643253D01*
X160023223Y-63626777D01*
X160006747Y-63608599D01*
X159992132Y-63588893D01*
X159979520Y-63567850D01*
X159969030Y-63545671D01*
X159960765Y-63522572D01*
X159954804Y-63498773D01*
X159951204Y-63474505D01*
X159950000Y-63450001D01*
X159950000Y-62549999D01*
X159951204Y-62525495D01*
X159954804Y-62501227D01*
X159960765Y-62477428D01*
X159969030Y-62454329D01*
X159979520Y-62432150D01*
X159992132Y-62411107D01*
X160006747Y-62391401D01*
X160023223Y-62373223D01*
X160041401Y-62356747D01*
X160061107Y-62342132D01*
X160082150Y-62329520D01*
X160104329Y-62319030D01*
X160127428Y-62310765D01*
X160151227Y-62304804D01*
X160175495Y-62301204D01*
X160199999Y-62300000D01*
X160850001Y-62300000D01*
X160874505Y-62301204D01*
X160874505Y-62301204D01*
G37*
D18*
G04 #@! TD*
G04 #@! TO.P,R2,1*
G04 #@! TO.N,Net-(C2-Pad1)*
X160525000Y-63000000D03*
D14*
G04 #@! TO.N,Net-(R2-Pad2)*
G04 #@! TO.C,R2*
G36*
X158824505Y-62301204D02*
X158848773Y-62304804D01*
X158872572Y-62310765D01*
X158895671Y-62319030D01*
X158917850Y-62329520D01*
X158938893Y-62342132D01*
X158958599Y-62356747D01*
X158976777Y-62373223D01*
X158993253Y-62391401D01*
X159007868Y-62411107D01*
X159020480Y-62432150D01*
X159030970Y-62454329D01*
X159039235Y-62477428D01*
X159045196Y-62501227D01*
X159048796Y-62525495D01*
X159050000Y-62549999D01*
X159050000Y-63450001D01*
X159048796Y-63474505D01*
X159045196Y-63498773D01*
X159039235Y-63522572D01*
X159030970Y-63545671D01*
X159020480Y-63567850D01*
X159007868Y-63588893D01*
X158993253Y-63608599D01*
X158976777Y-63626777D01*
X158958599Y-63643253D01*
X158938893Y-63657868D01*
X158917850Y-63670480D01*
X158895671Y-63680970D01*
X158872572Y-63689235D01*
X158848773Y-63695196D01*
X158824505Y-63698796D01*
X158800001Y-63700000D01*
X158149999Y-63700000D01*
X158125495Y-63698796D01*
X158101227Y-63695196D01*
X158077428Y-63689235D01*
X158054329Y-63680970D01*
X158032150Y-63670480D01*
X158011107Y-63657868D01*
X157991401Y-63643253D01*
X157973223Y-63626777D01*
X157956747Y-63608599D01*
X157942132Y-63588893D01*
X157929520Y-63567850D01*
X157919030Y-63545671D01*
X157910765Y-63522572D01*
X157904804Y-63498773D01*
X157901204Y-63474505D01*
X157900000Y-63450001D01*
X157900000Y-62549999D01*
X157901204Y-62525495D01*
X157904804Y-62501227D01*
X157910765Y-62477428D01*
X157919030Y-62454329D01*
X157929520Y-62432150D01*
X157942132Y-62411107D01*
X157956747Y-62391401D01*
X157973223Y-62373223D01*
X157991401Y-62356747D01*
X158011107Y-62342132D01*
X158032150Y-62329520D01*
X158054329Y-62319030D01*
X158077428Y-62310765D01*
X158101227Y-62304804D01*
X158125495Y-62301204D01*
X158149999Y-62300000D01*
X158800001Y-62300000D01*
X158824505Y-62301204D01*
X158824505Y-62301204D01*
G37*
D18*
G04 #@! TD*
G04 #@! TO.P,R2,2*
G04 #@! TO.N,Net-(R2-Pad2)*
X158475000Y-63000000D03*
D14*
G04 #@! TO.N,Net-(C1-Pad1)*
G04 #@! TO.C,R3*
G36*
X152574505Y-62301204D02*
X152598773Y-62304804D01*
X152622572Y-62310765D01*
X152645671Y-62319030D01*
X152667850Y-62329520D01*
X152688893Y-62342132D01*
X152708599Y-62356747D01*
X152726777Y-62373223D01*
X152743253Y-62391401D01*
X152757868Y-62411107D01*
X152770480Y-62432150D01*
X152780970Y-62454329D01*
X152789235Y-62477428D01*
X152795196Y-62501227D01*
X152798796Y-62525495D01*
X152800000Y-62549999D01*
X152800000Y-63450001D01*
X152798796Y-63474505D01*
X152795196Y-63498773D01*
X152789235Y-63522572D01*
X152780970Y-63545671D01*
X152770480Y-63567850D01*
X152757868Y-63588893D01*
X152743253Y-63608599D01*
X152726777Y-63626777D01*
X152708599Y-63643253D01*
X152688893Y-63657868D01*
X152667850Y-63670480D01*
X152645671Y-63680970D01*
X152622572Y-63689235D01*
X152598773Y-63695196D01*
X152574505Y-63698796D01*
X152550001Y-63700000D01*
X151899999Y-63700000D01*
X151875495Y-63698796D01*
X151851227Y-63695196D01*
X151827428Y-63689235D01*
X151804329Y-63680970D01*
X151782150Y-63670480D01*
X151761107Y-63657868D01*
X151741401Y-63643253D01*
X151723223Y-63626777D01*
X151706747Y-63608599D01*
X151692132Y-63588893D01*
X151679520Y-63567850D01*
X151669030Y-63545671D01*
X151660765Y-63522572D01*
X151654804Y-63498773D01*
X151651204Y-63474505D01*
X151650000Y-63450001D01*
X151650000Y-62549999D01*
X151651204Y-62525495D01*
X151654804Y-62501227D01*
X151660765Y-62477428D01*
X151669030Y-62454329D01*
X151679520Y-62432150D01*
X151692132Y-62411107D01*
X151706747Y-62391401D01*
X151723223Y-62373223D01*
X151741401Y-62356747D01*
X151761107Y-62342132D01*
X151782150Y-62329520D01*
X151804329Y-62319030D01*
X151827428Y-62310765D01*
X151851227Y-62304804D01*
X151875495Y-62301204D01*
X151899999Y-62300000D01*
X152550001Y-62300000D01*
X152574505Y-62301204D01*
X152574505Y-62301204D01*
G37*
D18*
G04 #@! TD*
G04 #@! TO.P,R3,1*
G04 #@! TO.N,Net-(C1-Pad1)*
X152225000Y-63000000D03*
D14*
G04 #@! TO.N,/Vo-*
G04 #@! TO.C,R3*
G36*
X154624505Y-62301204D02*
X154648773Y-62304804D01*
X154672572Y-62310765D01*
X154695671Y-62319030D01*
X154717850Y-62329520D01*
X154738893Y-62342132D01*
X154758599Y-62356747D01*
X154776777Y-62373223D01*
X154793253Y-62391401D01*
X154807868Y-62411107D01*
X154820480Y-62432150D01*
X154830970Y-62454329D01*
X154839235Y-62477428D01*
X154845196Y-62501227D01*
X154848796Y-62525495D01*
X154850000Y-62549999D01*
X154850000Y-63450001D01*
X154848796Y-63474505D01*
X154845196Y-63498773D01*
X154839235Y-63522572D01*
X154830970Y-63545671D01*
X154820480Y-63567850D01*
X154807868Y-63588893D01*
X154793253Y-63608599D01*
X154776777Y-63626777D01*
X154758599Y-63643253D01*
X154738893Y-63657868D01*
X154717850Y-63670480D01*
X154695671Y-63680970D01*
X154672572Y-63689235D01*
X154648773Y-63695196D01*
X154624505Y-63698796D01*
X154600001Y-63700000D01*
X153949999Y-63700000D01*
X153925495Y-63698796D01*
X153901227Y-63695196D01*
X153877428Y-63689235D01*
X153854329Y-63680970D01*
X153832150Y-63670480D01*
X153811107Y-63657868D01*
X153791401Y-63643253D01*
X153773223Y-63626777D01*
X153756747Y-63608599D01*
X153742132Y-63588893D01*
X153729520Y-63567850D01*
X153719030Y-63545671D01*
X153710765Y-63522572D01*
X153704804Y-63498773D01*
X153701204Y-63474505D01*
X153700000Y-63450001D01*
X153700000Y-62549999D01*
X153701204Y-62525495D01*
X153704804Y-62501227D01*
X153710765Y-62477428D01*
X153719030Y-62454329D01*
X153729520Y-62432150D01*
X153742132Y-62411107D01*
X153756747Y-62391401D01*
X153773223Y-62373223D01*
X153791401Y-62356747D01*
X153811107Y-62342132D01*
X153832150Y-62329520D01*
X153854329Y-62319030D01*
X153877428Y-62310765D01*
X153901227Y-62304804D01*
X153925495Y-62301204D01*
X153949999Y-62300000D01*
X154600001Y-62300000D01*
X154624505Y-62301204D01*
X154624505Y-62301204D01*
G37*
D18*
G04 #@! TD*
G04 #@! TO.P,R3,2*
G04 #@! TO.N,/Vo-*
X154275000Y-63000000D03*
D19*
G04 #@! TO.N,Net-(C1-Pad2)*
X158475000Y-53000000D02*
X154987500Y-53000000D01*
G04 #@! TO.N,Net-(C1-Pad1)*
X152012500Y-54887500D02*
X152012500Y-53000000D01*
X152625000Y-55500000D02*
X152012500Y-54887500D01*
X151437800Y-63787200D02*
X152225000Y-63000000D01*
X151437800Y-67957902D02*
X151437800Y-63787200D01*
X152537801Y-68082901D02*
X151562801Y-68082901D01*
X151562801Y-68082901D02*
X151437800Y-67957902D01*
X155512500Y-55500000D02*
X158012500Y-58000000D01*
X152625000Y-55500000D02*
X155512500Y-55500000D01*
X152012500Y-56112500D02*
X152012500Y-58000000D01*
X152625000Y-55500000D02*
X152012500Y-56112500D01*
X152012500Y-62787500D02*
X152225000Y-63000000D01*
X152012500Y-58000000D02*
X152012500Y-62787500D01*
G04 #@! TO.N,/Vo-*
X152537802Y-67432900D02*
X152537801Y-67432901D01*
X153512801Y-67432901D02*
X152537801Y-67432901D01*
X154500020Y-68420120D02*
X153512801Y-67432901D01*
X154500020Y-74724982D02*
X154500020Y-68420120D01*
X152225002Y-77000000D02*
X154500020Y-74724982D01*
X149625000Y-77000000D02*
X152225002Y-77000000D01*
X154987500Y-62287500D02*
X154275000Y-63000000D01*
X154987500Y-58000000D02*
X154987500Y-62287500D01*
X153512801Y-67432901D02*
X153567099Y-67432901D01*
X154275000Y-66725000D02*
X154275000Y-63000000D01*
X153567099Y-67432901D02*
X154275000Y-66725000D01*
G04 #@! TO.N,/Vo+*
X149767098Y-68732902D02*
X152668401Y-68732902D01*
X148767098Y-68732902D02*
X149767098Y-68732902D01*
X148500000Y-69000000D02*
X148767098Y-68732902D01*
X148500000Y-71000000D02*
X148500000Y-69000000D01*
X148832901Y-71332901D02*
X148500000Y-71000000D01*
X152537801Y-70682901D02*
X152537801Y-71332901D01*
X152537801Y-71332901D02*
X149500000Y-71332901D01*
X149500000Y-71332901D02*
X148832901Y-71332901D01*
X152000000Y-75000000D02*
X149625000Y-75000000D01*
X153500000Y-73500000D02*
X152000000Y-75000000D01*
X153500000Y-71500000D02*
X153500000Y-73500000D01*
X152537801Y-71332901D02*
X153332901Y-71332901D01*
X153332901Y-71332901D02*
X153500000Y-71500000D01*
G04 #@! TO.N,/Vb*
X152668401Y-70032900D02*
X150000000Y-70032900D01*
X150000000Y-70032900D02*
X149967100Y-70032900D01*
G04 #@! TO.N,VCC*
X153512801Y-69382901D02*
X152537801Y-69382901D01*
X154000010Y-69870110D02*
X153512801Y-69382901D01*
X154000010Y-73949990D02*
X154000010Y-69870110D01*
X151950000Y-76000000D02*
X154000010Y-73949990D01*
X151375000Y-76000000D02*
X151950000Y-76000000D01*
G04 #@! TO.N,/Vc*
X165500000Y-89500000D02*
X165000000Y-90000000D01*
X165000000Y-90000000D02*
X150000000Y-90000000D01*
X165500000Y-76120100D02*
X165500000Y-89500000D01*
X159412801Y-70032901D02*
X165500000Y-76120100D01*
X158437801Y-70032901D02*
X159412801Y-70032901D01*
G04 #@! TO.N,GND*
X162242097Y-69382901D02*
X164124998Y-67500000D01*
X158437801Y-69382901D02*
X162242097Y-69382901D01*
X164124998Y-67500000D02*
X166574990Y-67500000D01*
G04 #@! TO.N,/Va*
X161267099Y-68732901D02*
X158437801Y-68732901D01*
X165500000Y-64500000D02*
X161267099Y-68732901D01*
X165500000Y-52000000D02*
X165500000Y-64500000D01*
X150000000Y-50000000D02*
X163500000Y-50000000D01*
X163500000Y-50000000D02*
X165500000Y-52000000D01*
G04 #@! TO.N,Net-(C2-Pad1)*
X160525000Y-58462500D02*
X160987500Y-58000000D01*
X160525000Y-63000000D02*
X160525000Y-58462500D01*
G04 #@! TO.N,Net-(R1-Pad2)*
X158437801Y-67432901D02*
X158437801Y-68082901D01*
X164250000Y-56725000D02*
X160525000Y-53000000D01*
X164250000Y-63750000D02*
X164250000Y-56725000D01*
X158437801Y-67432901D02*
X160567099Y-67432901D01*
X160567099Y-67432901D02*
X164250000Y-63750000D01*
G04 #@! TO.N,Net-(R2-Pad2)*
X158437801Y-70682901D02*
X158437801Y-71332901D01*
X157851628Y-63623372D02*
X158475000Y-63000000D01*
X157337800Y-64137200D02*
X157851628Y-63623372D01*
X157337800Y-70557900D02*
X157337800Y-64137200D01*
X157462801Y-70682901D02*
X157337800Y-70557900D01*
X158437801Y-70682901D02*
X157462801Y-70682901D01*
G04 #@! TD*
G04 #@! TO.N,GND*
G36*
X166575000Y-95575000D02*
X147425000Y-95575000D01*
X147425000Y-93206604D01*
X148025000Y-93206604D01*
X148025000Y-93793396D01*
X148249555Y-94335520D01*
X148664480Y-94750445D01*
X149206604Y-94975000D01*
X149793396Y-94975000D01*
X150335520Y-94750445D01*
X150750445Y-94335520D01*
X150975000Y-93793396D01*
X150975000Y-93276224D01*
X152125000Y-93276224D01*
X152125000Y-93723776D01*
X152296271Y-94137261D01*
X152612739Y-94453729D01*
X153026224Y-94625000D01*
X153473776Y-94625000D01*
X153887261Y-94453729D01*
X154203729Y-94137261D01*
X154375000Y-93723776D01*
X154375000Y-93276224D01*
X159625000Y-93276224D01*
X159625000Y-93723776D01*
X159796271Y-94137261D01*
X160112739Y-94453729D01*
X160526224Y-94625000D01*
X160973776Y-94625000D01*
X161387261Y-94453729D01*
X161703729Y-94137261D01*
X161875000Y-93723776D01*
X161875000Y-93276224D01*
X161846163Y-93206604D01*
X163025000Y-93206604D01*
X163025000Y-93793396D01*
X163249555Y-94335520D01*
X163664480Y-94750445D01*
X164206604Y-94975000D01*
X164793396Y-94975000D01*
X165335520Y-94750445D01*
X165750445Y-94335520D01*
X165975000Y-93793396D01*
X165975000Y-93206604D01*
X165750445Y-92664480D01*
X165335520Y-92249555D01*
X164793396Y-92025000D01*
X164206604Y-92025000D01*
X163664480Y-92249555D01*
X163249555Y-92664480D01*
X163025000Y-93206604D01*
X161846163Y-93206604D01*
X161703729Y-92862739D01*
X161387261Y-92546271D01*
X160973776Y-92375000D01*
X160526224Y-92375000D01*
X160112739Y-92546271D01*
X159796271Y-92862739D01*
X159625000Y-93276224D01*
X154375000Y-93276224D01*
X154203729Y-92862739D01*
X153887261Y-92546271D01*
X153473776Y-92375000D01*
X153026224Y-92375000D01*
X152612739Y-92546271D01*
X152296271Y-92862739D01*
X152125000Y-93276224D01*
X150975000Y-93276224D01*
X150975000Y-93206604D01*
X150750445Y-92664480D01*
X150335520Y-92249555D01*
X149793396Y-92025000D01*
X149206604Y-92025000D01*
X148664480Y-92249555D01*
X148249555Y-92664480D01*
X148025000Y-93206604D01*
X147425000Y-93206604D01*
X147425000Y-78266250D01*
X149895000Y-78266250D01*
X149895000Y-78420342D01*
X149987106Y-78642705D01*
X150157295Y-78812894D01*
X150379658Y-78905000D01*
X151108750Y-78905000D01*
X151260000Y-78753750D01*
X151260000Y-78115000D01*
X151490000Y-78115000D01*
X151490000Y-78753750D01*
X151641250Y-78905000D01*
X152370342Y-78905000D01*
X152592705Y-78812894D01*
X152762894Y-78642705D01*
X152855000Y-78420342D01*
X152855000Y-78266250D01*
X152703750Y-78115000D01*
X151490000Y-78115000D01*
X151260000Y-78115000D01*
X150046250Y-78115000D01*
X149895000Y-78266250D01*
X147425000Y-78266250D01*
X147425000Y-69000000D01*
X147990205Y-69000000D01*
X148000001Y-69049246D01*
X148000000Y-70950758D01*
X147990205Y-71000000D01*
X148000000Y-71049241D01*
X148000000Y-71049242D01*
X148029011Y-71195089D01*
X148139520Y-71360480D01*
X148181270Y-71388376D01*
X148444526Y-71651633D01*
X148472421Y-71693381D01*
X148637811Y-71803890D01*
X148783658Y-71832901D01*
X148783659Y-71832901D01*
X148832900Y-71842696D01*
X148882141Y-71832901D01*
X151549388Y-71832901D01*
X151666484Y-71911143D01*
X151812801Y-71940247D01*
X153000000Y-71940247D01*
X153000001Y-73292892D01*
X151792894Y-74500000D01*
X150817372Y-74500000D01*
X150770359Y-74429641D01*
X150646317Y-74346758D01*
X150500000Y-74317654D01*
X148750000Y-74317654D01*
X148603683Y-74346758D01*
X148479641Y-74429641D01*
X148396758Y-74553683D01*
X148367654Y-74700000D01*
X148367654Y-75300000D01*
X148396758Y-75446317D01*
X148479641Y-75570359D01*
X148603683Y-75653242D01*
X148750000Y-75682346D01*
X150121166Y-75682346D01*
X150117654Y-75700000D01*
X150117654Y-76300000D01*
X150121166Y-76317654D01*
X148750000Y-76317654D01*
X148603683Y-76346758D01*
X148479641Y-76429641D01*
X148396758Y-76553683D01*
X148367654Y-76700000D01*
X148367654Y-77300000D01*
X148396758Y-77446317D01*
X148479641Y-77570359D01*
X148603683Y-77653242D01*
X148750000Y-77682346D01*
X149895000Y-77682346D01*
X149895000Y-77733750D01*
X150046250Y-77885000D01*
X151260000Y-77885000D01*
X151260000Y-77865000D01*
X151490000Y-77865000D01*
X151490000Y-77885000D01*
X152703750Y-77885000D01*
X152855000Y-77733750D01*
X152855000Y-77579658D01*
X152762894Y-77357295D01*
X152668854Y-77263255D01*
X154818753Y-75113356D01*
X154860500Y-75085462D01*
X154971009Y-74920072D01*
X155000020Y-74774225D01*
X155000020Y-74774224D01*
X155009815Y-74724983D01*
X155000020Y-74675742D01*
X155000020Y-68469360D01*
X155009815Y-68420119D01*
X154987493Y-68307901D01*
X154971009Y-68225030D01*
X154860500Y-68059640D01*
X154818752Y-68031745D01*
X154247056Y-67460050D01*
X154593733Y-67113374D01*
X154635480Y-67085480D01*
X154745989Y-66920090D01*
X154775000Y-66774243D01*
X154775000Y-66774242D01*
X154784795Y-66725001D01*
X154775000Y-66675760D01*
X154775000Y-64047537D01*
X154841989Y-64034212D01*
X155047136Y-63897136D01*
X155184212Y-63691989D01*
X155232346Y-63450001D01*
X155232346Y-62749761D01*
X155306232Y-62675875D01*
X155347980Y-62647980D01*
X155458489Y-62482590D01*
X155487500Y-62336743D01*
X155487500Y-62336742D01*
X155497295Y-62287501D01*
X155487500Y-62238260D01*
X155487500Y-59249887D01*
X155691988Y-59209212D01*
X155897136Y-59072136D01*
X156034212Y-58866988D01*
X156082346Y-58625000D01*
X156082346Y-57375000D01*
X156034212Y-57133012D01*
X155897136Y-56927864D01*
X155691988Y-56790788D01*
X155450000Y-56742654D01*
X154525000Y-56742654D01*
X154283012Y-56790788D01*
X154077864Y-56927864D01*
X153940788Y-57133012D01*
X153892654Y-57375000D01*
X153892654Y-58625000D01*
X153940788Y-58866988D01*
X154077864Y-59072136D01*
X154283012Y-59209212D01*
X154487500Y-59249887D01*
X154487501Y-61917654D01*
X153949999Y-61917654D01*
X153708011Y-61965788D01*
X153502864Y-62102864D01*
X153365788Y-62308011D01*
X153317654Y-62549999D01*
X153317654Y-63450001D01*
X153365788Y-63691989D01*
X153502864Y-63897136D01*
X153708011Y-64034212D01*
X153775001Y-64047537D01*
X153775000Y-66517893D01*
X153426572Y-66866322D01*
X153409118Y-66854659D01*
X153262801Y-66825555D01*
X151937800Y-66825555D01*
X151937800Y-64082346D01*
X152550001Y-64082346D01*
X152791989Y-64034212D01*
X152997136Y-63897136D01*
X153134212Y-63691989D01*
X153182346Y-63450001D01*
X153182346Y-62549999D01*
X153134212Y-62308011D01*
X152997136Y-62102864D01*
X152791989Y-61965788D01*
X152550001Y-61917654D01*
X152512500Y-61917654D01*
X152512500Y-59249887D01*
X152716988Y-59209212D01*
X152922136Y-59072136D01*
X153059212Y-58866988D01*
X153107346Y-58625000D01*
X153107346Y-57375000D01*
X153059212Y-57133012D01*
X152922136Y-56927864D01*
X152716988Y-56790788D01*
X152512500Y-56750113D01*
X152512500Y-56319606D01*
X152832107Y-56000000D01*
X155305394Y-56000000D01*
X156917654Y-57612261D01*
X156917654Y-58625000D01*
X156965788Y-58866988D01*
X157102864Y-59072136D01*
X157308012Y-59209212D01*
X157550000Y-59257346D01*
X158475000Y-59257346D01*
X158716988Y-59209212D01*
X158922136Y-59072136D01*
X159059212Y-58866988D01*
X159107346Y-58625000D01*
X159107346Y-57375000D01*
X159059212Y-57133012D01*
X158922136Y-56927864D01*
X158716988Y-56790788D01*
X158475000Y-56742654D01*
X157550000Y-56742654D01*
X157476817Y-56757211D01*
X155900877Y-55181270D01*
X155872980Y-55139520D01*
X155707590Y-55029011D01*
X155561743Y-55000000D01*
X155561741Y-55000000D01*
X155512500Y-54990205D01*
X155463259Y-55000000D01*
X152832107Y-55000000D01*
X152512500Y-54680394D01*
X152512500Y-54249887D01*
X152716988Y-54209212D01*
X152922136Y-54072136D01*
X153059212Y-53866988D01*
X153107346Y-53625000D01*
X153107346Y-52375000D01*
X153892654Y-52375000D01*
X153892654Y-53625000D01*
X153940788Y-53866988D01*
X154077864Y-54072136D01*
X154283012Y-54209212D01*
X154525000Y-54257346D01*
X155450000Y-54257346D01*
X155691988Y-54209212D01*
X155897136Y-54072136D01*
X156034212Y-53866988D01*
X156082346Y-53625000D01*
X156082346Y-53500000D01*
X157527599Y-53500000D01*
X157565788Y-53691989D01*
X157702864Y-53897136D01*
X157908011Y-54034212D01*
X158149999Y-54082346D01*
X158800001Y-54082346D01*
X159041989Y-54034212D01*
X159247136Y-53897136D01*
X159384212Y-53691989D01*
X159432346Y-53450001D01*
X159432346Y-52549999D01*
X159384212Y-52308011D01*
X159247136Y-52102864D01*
X159041989Y-51965788D01*
X158800001Y-51917654D01*
X158149999Y-51917654D01*
X157908011Y-51965788D01*
X157702864Y-52102864D01*
X157565788Y-52308011D01*
X157527599Y-52500000D01*
X156082346Y-52500000D01*
X156082346Y-52375000D01*
X156034212Y-52133012D01*
X155897136Y-51927864D01*
X155691988Y-51790788D01*
X155450000Y-51742654D01*
X154525000Y-51742654D01*
X154283012Y-51790788D01*
X154077864Y-51927864D01*
X153940788Y-52133012D01*
X153892654Y-52375000D01*
X153107346Y-52375000D01*
X153059212Y-52133012D01*
X152922136Y-51927864D01*
X152716988Y-51790788D01*
X152475000Y-51742654D01*
X151550000Y-51742654D01*
X151308012Y-51790788D01*
X151102864Y-51927864D01*
X150965788Y-52133012D01*
X150917654Y-52375000D01*
X150917654Y-53625000D01*
X150965788Y-53866988D01*
X151102864Y-54072136D01*
X151308012Y-54209212D01*
X151512500Y-54249887D01*
X151512500Y-54838258D01*
X151502705Y-54887500D01*
X151512500Y-54936741D01*
X151512500Y-54936742D01*
X151541511Y-55082589D01*
X151652020Y-55247980D01*
X151693770Y-55275876D01*
X151917894Y-55500000D01*
X151693770Y-55724124D01*
X151652020Y-55752020D01*
X151541511Y-55917411D01*
X151530854Y-55970989D01*
X151502705Y-56112500D01*
X151512500Y-56161742D01*
X151512500Y-56750113D01*
X151308012Y-56790788D01*
X151102864Y-56927864D01*
X150965788Y-57133012D01*
X150917654Y-57375000D01*
X150917654Y-58625000D01*
X150965788Y-58866988D01*
X151102864Y-59072136D01*
X151308012Y-59209212D01*
X151512500Y-59249887D01*
X151512501Y-62063016D01*
X151452864Y-62102864D01*
X151315788Y-62308011D01*
X151267654Y-62549999D01*
X151267654Y-63250240D01*
X151119068Y-63398826D01*
X151077321Y-63426720D01*
X151047742Y-63470989D01*
X150966812Y-63592110D01*
X150928005Y-63787200D01*
X150937801Y-63836446D01*
X150937800Y-67908662D01*
X150928005Y-67957906D01*
X150937800Y-68007144D01*
X150966811Y-68152991D01*
X150966812Y-68152992D01*
X150966813Y-68152995D01*
X150987516Y-68183979D01*
X151020205Y-68232902D01*
X148816341Y-68232902D01*
X148767098Y-68223107D01*
X148717855Y-68232902D01*
X148572008Y-68261913D01*
X148406618Y-68372422D01*
X148378721Y-68414173D01*
X148181269Y-68611625D01*
X148139521Y-68639520D01*
X148077126Y-68732902D01*
X148029012Y-68804910D01*
X147990205Y-69000000D01*
X147425000Y-69000000D01*
X147425000Y-54795833D01*
X147589750Y-54795833D01*
X147589750Y-65704166D01*
X149514750Y-65704166D01*
X149514750Y-54795833D01*
X147589750Y-54795833D01*
X147425000Y-54795833D01*
X147425000Y-49150000D01*
X148767654Y-49150000D01*
X148767654Y-50850000D01*
X148796758Y-50996317D01*
X148879641Y-51120359D01*
X149003683Y-51203242D01*
X149150000Y-51232346D01*
X150850000Y-51232346D01*
X150996317Y-51203242D01*
X151120359Y-51120359D01*
X151203242Y-50996317D01*
X151232346Y-50850000D01*
X151232346Y-50500000D01*
X162767654Y-50500000D01*
X162767654Y-50850000D01*
X162796758Y-50996317D01*
X162879641Y-51120359D01*
X163003683Y-51203242D01*
X163150000Y-51232346D01*
X164025240Y-51232346D01*
X165000000Y-52207107D01*
X165000001Y-64292892D01*
X161059993Y-68232901D01*
X159545147Y-68232901D01*
X159545147Y-67932901D01*
X160517858Y-67932901D01*
X160567099Y-67942696D01*
X160616340Y-67932901D01*
X160616342Y-67932901D01*
X160762189Y-67903890D01*
X160927579Y-67793381D01*
X160955476Y-67751630D01*
X164568733Y-64138374D01*
X164610480Y-64110480D01*
X164720989Y-63945090D01*
X164730528Y-63897136D01*
X164759796Y-63750000D01*
X164750000Y-63700754D01*
X164750000Y-56774246D01*
X164759796Y-56725000D01*
X164720989Y-56529910D01*
X164682949Y-56472979D01*
X164610480Y-56364520D01*
X164568729Y-56336623D01*
X161482346Y-53250240D01*
X161482346Y-52549999D01*
X161434212Y-52308011D01*
X161297136Y-52102864D01*
X161091989Y-51965788D01*
X160850001Y-51917654D01*
X160199999Y-51917654D01*
X159958011Y-51965788D01*
X159752864Y-52102864D01*
X159615788Y-52308011D01*
X159567654Y-52549999D01*
X159567654Y-53450001D01*
X159615788Y-53691989D01*
X159752864Y-53897136D01*
X159958011Y-54034212D01*
X160199999Y-54082346D01*
X160850001Y-54082346D01*
X160891905Y-54074011D01*
X163750001Y-56932107D01*
X163750000Y-63542893D01*
X160359993Y-66932901D01*
X159426214Y-66932901D01*
X159309118Y-66854659D01*
X159162801Y-66825555D01*
X157837800Y-66825555D01*
X157837800Y-64344306D01*
X158108095Y-64074011D01*
X158149999Y-64082346D01*
X158800001Y-64082346D01*
X159041989Y-64034212D01*
X159247136Y-63897136D01*
X159384212Y-63691989D01*
X159432346Y-63450001D01*
X159432346Y-62549999D01*
X159567654Y-62549999D01*
X159567654Y-63450001D01*
X159615788Y-63691989D01*
X159752864Y-63897136D01*
X159958011Y-64034212D01*
X160199999Y-64082346D01*
X160850001Y-64082346D01*
X161091989Y-64034212D01*
X161297136Y-63897136D01*
X161434212Y-63691989D01*
X161482346Y-63450001D01*
X161482346Y-62549999D01*
X161434212Y-62308011D01*
X161297136Y-62102864D01*
X161091989Y-61965788D01*
X161025000Y-61952463D01*
X161025000Y-59257346D01*
X161450000Y-59257346D01*
X161691988Y-59209212D01*
X161897136Y-59072136D01*
X162034212Y-58866988D01*
X162082346Y-58625000D01*
X162082346Y-57375000D01*
X162034212Y-57133012D01*
X161897136Y-56927864D01*
X161691988Y-56790788D01*
X161450000Y-56742654D01*
X160525000Y-56742654D01*
X160283012Y-56790788D01*
X160077864Y-56927864D01*
X159940788Y-57133012D01*
X159892654Y-57375000D01*
X159892654Y-58625000D01*
X159940788Y-58866988D01*
X160025001Y-58993021D01*
X160025000Y-61952463D01*
X159958011Y-61965788D01*
X159752864Y-62102864D01*
X159615788Y-62308011D01*
X159567654Y-62549999D01*
X159432346Y-62549999D01*
X159384212Y-62308011D01*
X159247136Y-62102864D01*
X159041989Y-61965788D01*
X158800001Y-61917654D01*
X158149999Y-61917654D01*
X157908011Y-61965788D01*
X157702864Y-62102864D01*
X157565788Y-62308011D01*
X157517654Y-62549999D01*
X157517654Y-63250240D01*
X157019069Y-63748825D01*
X156977321Y-63776720D01*
X156949427Y-63818467D01*
X156866812Y-63942110D01*
X156828005Y-64137200D01*
X156837801Y-64186446D01*
X156837800Y-70508659D01*
X156828005Y-70557900D01*
X156837800Y-70607141D01*
X156837800Y-70607142D01*
X156866811Y-70752989D01*
X156977320Y-70918380D01*
X157019071Y-70946277D01*
X157074424Y-71001630D01*
X157102321Y-71043381D01*
X157267711Y-71153890D01*
X157330455Y-71166371D01*
X157330455Y-71557901D01*
X157359559Y-71704218D01*
X157442442Y-71828260D01*
X157566484Y-71911143D01*
X157712801Y-71940247D01*
X159162801Y-71940247D01*
X159309118Y-71911143D01*
X159433160Y-71828260D01*
X159516043Y-71704218D01*
X159545147Y-71557901D01*
X159545147Y-71107901D01*
X159525256Y-71007901D01*
X159545147Y-70907901D01*
X159545147Y-70872353D01*
X165000000Y-76327207D01*
X165000001Y-88799220D01*
X164996317Y-88796758D01*
X164850000Y-88767654D01*
X163150000Y-88767654D01*
X163003683Y-88796758D01*
X162879641Y-88879641D01*
X162796758Y-89003683D01*
X162767654Y-89150000D01*
X162767654Y-89500000D01*
X151232346Y-89500000D01*
X151232346Y-89150000D01*
X151203242Y-89003683D01*
X151120359Y-88879641D01*
X150996317Y-88796758D01*
X150850000Y-88767654D01*
X149150000Y-88767654D01*
X149003683Y-88796758D01*
X148879641Y-88879641D01*
X148796758Y-89003683D01*
X148767654Y-89150000D01*
X148767654Y-90850000D01*
X148796758Y-90996317D01*
X148879641Y-91120359D01*
X149003683Y-91203242D01*
X149150000Y-91232346D01*
X150850000Y-91232346D01*
X150996317Y-91203242D01*
X151120359Y-91120359D01*
X151203242Y-90996317D01*
X151232346Y-90850000D01*
X151232346Y-90500000D01*
X162767654Y-90500000D01*
X162767654Y-90850000D01*
X162796758Y-90996317D01*
X162879641Y-91120359D01*
X163003683Y-91203242D01*
X163150000Y-91232346D01*
X164850000Y-91232346D01*
X164996317Y-91203242D01*
X165120359Y-91120359D01*
X165203242Y-90996317D01*
X165232346Y-90850000D01*
X165232346Y-90446096D01*
X165360480Y-90360480D01*
X165388376Y-90318730D01*
X165818732Y-89888375D01*
X165860480Y-89860480D01*
X165970989Y-89695090D01*
X166000000Y-89549243D01*
X166009795Y-89500000D01*
X166000000Y-89450757D01*
X166000000Y-76169340D01*
X166009795Y-76120099D01*
X166000000Y-76070857D01*
X165970989Y-75925010D01*
X165860480Y-75759620D01*
X165818733Y-75731726D01*
X159801178Y-69714172D01*
X159773281Y-69672421D01*
X159767801Y-69668759D01*
X159767801Y-69646651D01*
X159616551Y-69495401D01*
X159370092Y-69495401D01*
X159309118Y-69454659D01*
X159162801Y-69425555D01*
X158302801Y-69425555D01*
X158302801Y-69340247D01*
X159162801Y-69340247D01*
X159309118Y-69311143D01*
X159370092Y-69270401D01*
X159616551Y-69270401D01*
X159654051Y-69232901D01*
X161217858Y-69232901D01*
X161267099Y-69242696D01*
X161316340Y-69232901D01*
X161316342Y-69232901D01*
X161462189Y-69203890D01*
X161542841Y-69150000D01*
X162767654Y-69150000D01*
X162767654Y-70850000D01*
X162796758Y-70996317D01*
X162879641Y-71120359D01*
X163003683Y-71203242D01*
X163150000Y-71232346D01*
X164850000Y-71232346D01*
X164996317Y-71203242D01*
X165120359Y-71120359D01*
X165203242Y-70996317D01*
X165232346Y-70850000D01*
X165232346Y-69150000D01*
X165203242Y-69003683D01*
X165120359Y-68879641D01*
X164996317Y-68796758D01*
X164850000Y-68767654D01*
X163150000Y-68767654D01*
X163003683Y-68796758D01*
X162879641Y-68879641D01*
X162796758Y-69003683D01*
X162767654Y-69150000D01*
X161542841Y-69150000D01*
X161627579Y-69093381D01*
X161655476Y-69051630D01*
X165818732Y-64888375D01*
X165860480Y-64860480D01*
X165970989Y-64695090D01*
X166000000Y-64549243D01*
X166000000Y-64549242D01*
X166009795Y-64500001D01*
X166000000Y-64450759D01*
X166000000Y-52049240D01*
X166009795Y-51999999D01*
X165993415Y-51917654D01*
X165970989Y-51804910D01*
X165860480Y-51639520D01*
X165818733Y-51611626D01*
X165203272Y-50996165D01*
X165232346Y-50850000D01*
X165232346Y-49150000D01*
X165203242Y-49003683D01*
X165120359Y-48879641D01*
X164996317Y-48796758D01*
X164850000Y-48767654D01*
X163150000Y-48767654D01*
X163003683Y-48796758D01*
X162879641Y-48879641D01*
X162796758Y-49003683D01*
X162767654Y-49150000D01*
X162767654Y-49500000D01*
X151232346Y-49500000D01*
X151232346Y-49150000D01*
X151203242Y-49003683D01*
X151120359Y-48879641D01*
X150996317Y-48796758D01*
X150850000Y-48767654D01*
X149150000Y-48767654D01*
X149003683Y-48796758D01*
X148879641Y-48879641D01*
X148796758Y-49003683D01*
X148767654Y-49150000D01*
X147425000Y-49150000D01*
X147425000Y-46206604D01*
X148025000Y-46206604D01*
X148025000Y-46793396D01*
X148249555Y-47335520D01*
X148664480Y-47750445D01*
X149206604Y-47975000D01*
X149793396Y-47975000D01*
X150335520Y-47750445D01*
X150750445Y-47335520D01*
X150975000Y-46793396D01*
X150975000Y-46276224D01*
X156125000Y-46276224D01*
X156125000Y-46723776D01*
X156296271Y-47137261D01*
X156612739Y-47453729D01*
X157026224Y-47625000D01*
X157473776Y-47625000D01*
X157887261Y-47453729D01*
X158203729Y-47137261D01*
X158375000Y-46723776D01*
X158375000Y-46276224D01*
X158346163Y-46206604D01*
X163025000Y-46206604D01*
X163025000Y-46793396D01*
X163249555Y-47335520D01*
X163664480Y-47750445D01*
X164206604Y-47975000D01*
X164793396Y-47975000D01*
X165335520Y-47750445D01*
X165750445Y-47335520D01*
X165975000Y-46793396D01*
X165975000Y-46206604D01*
X165750445Y-45664480D01*
X165335520Y-45249555D01*
X164793396Y-45025000D01*
X164206604Y-45025000D01*
X163664480Y-45249555D01*
X163249555Y-45664480D01*
X163025000Y-46206604D01*
X158346163Y-46206604D01*
X158203729Y-45862739D01*
X157887261Y-45546271D01*
X157473776Y-45375000D01*
X157026224Y-45375000D01*
X156612739Y-45546271D01*
X156296271Y-45862739D01*
X156125000Y-46276224D01*
X150975000Y-46276224D01*
X150975000Y-46206604D01*
X150750445Y-45664480D01*
X150335520Y-45249555D01*
X149793396Y-45025000D01*
X149206604Y-45025000D01*
X148664480Y-45249555D01*
X148249555Y-45664480D01*
X148025000Y-46206604D01*
X147425000Y-46206604D01*
X147425000Y-44425000D01*
X166575001Y-44425000D01*
X166575000Y-95575000D01*
X166575000Y-95575000D01*
G37*
X166575000Y-95575000D02*
X147425000Y-95575000D01*
X147425000Y-93206604D01*
X148025000Y-93206604D01*
X148025000Y-93793396D01*
X148249555Y-94335520D01*
X148664480Y-94750445D01*
X149206604Y-94975000D01*
X149793396Y-94975000D01*
X150335520Y-94750445D01*
X150750445Y-94335520D01*
X150975000Y-93793396D01*
X150975000Y-93276224D01*
X152125000Y-93276224D01*
X152125000Y-93723776D01*
X152296271Y-94137261D01*
X152612739Y-94453729D01*
X153026224Y-94625000D01*
X153473776Y-94625000D01*
X153887261Y-94453729D01*
X154203729Y-94137261D01*
X154375000Y-93723776D01*
X154375000Y-93276224D01*
X159625000Y-93276224D01*
X159625000Y-93723776D01*
X159796271Y-94137261D01*
X160112739Y-94453729D01*
X160526224Y-94625000D01*
X160973776Y-94625000D01*
X161387261Y-94453729D01*
X161703729Y-94137261D01*
X161875000Y-93723776D01*
X161875000Y-93276224D01*
X161846163Y-93206604D01*
X163025000Y-93206604D01*
X163025000Y-93793396D01*
X163249555Y-94335520D01*
X163664480Y-94750445D01*
X164206604Y-94975000D01*
X164793396Y-94975000D01*
X165335520Y-94750445D01*
X165750445Y-94335520D01*
X165975000Y-93793396D01*
X165975000Y-93206604D01*
X165750445Y-92664480D01*
X165335520Y-92249555D01*
X164793396Y-92025000D01*
X164206604Y-92025000D01*
X163664480Y-92249555D01*
X163249555Y-92664480D01*
X163025000Y-93206604D01*
X161846163Y-93206604D01*
X161703729Y-92862739D01*
X161387261Y-92546271D01*
X160973776Y-92375000D01*
X160526224Y-92375000D01*
X160112739Y-92546271D01*
X159796271Y-92862739D01*
X159625000Y-93276224D01*
X154375000Y-93276224D01*
X154203729Y-92862739D01*
X153887261Y-92546271D01*
X153473776Y-92375000D01*
X153026224Y-92375000D01*
X152612739Y-92546271D01*
X152296271Y-92862739D01*
X152125000Y-93276224D01*
X150975000Y-93276224D01*
X150975000Y-93206604D01*
X150750445Y-92664480D01*
X150335520Y-92249555D01*
X149793396Y-92025000D01*
X149206604Y-92025000D01*
X148664480Y-92249555D01*
X148249555Y-92664480D01*
X148025000Y-93206604D01*
X147425000Y-93206604D01*
X147425000Y-78266250D01*
X149895000Y-78266250D01*
X149895000Y-78420342D01*
X149987106Y-78642705D01*
X150157295Y-78812894D01*
X150379658Y-78905000D01*
X151108750Y-78905000D01*
X151260000Y-78753750D01*
X151260000Y-78115000D01*
X151490000Y-78115000D01*
X151490000Y-78753750D01*
X151641250Y-78905000D01*
X152370342Y-78905000D01*
X152592705Y-78812894D01*
X152762894Y-78642705D01*
X152855000Y-78420342D01*
X152855000Y-78266250D01*
X152703750Y-78115000D01*
X151490000Y-78115000D01*
X151260000Y-78115000D01*
X150046250Y-78115000D01*
X149895000Y-78266250D01*
X147425000Y-78266250D01*
X147425000Y-69000000D01*
X147990205Y-69000000D01*
X148000001Y-69049246D01*
X148000000Y-70950758D01*
X147990205Y-71000000D01*
X148000000Y-71049241D01*
X148000000Y-71049242D01*
X148029011Y-71195089D01*
X148139520Y-71360480D01*
X148181270Y-71388376D01*
X148444526Y-71651633D01*
X148472421Y-71693381D01*
X148637811Y-71803890D01*
X148783658Y-71832901D01*
X148783659Y-71832901D01*
X148832900Y-71842696D01*
X148882141Y-71832901D01*
X151549388Y-71832901D01*
X151666484Y-71911143D01*
X151812801Y-71940247D01*
X153000000Y-71940247D01*
X153000001Y-73292892D01*
X151792894Y-74500000D01*
X150817372Y-74500000D01*
X150770359Y-74429641D01*
X150646317Y-74346758D01*
X150500000Y-74317654D01*
X148750000Y-74317654D01*
X148603683Y-74346758D01*
X148479641Y-74429641D01*
X148396758Y-74553683D01*
X148367654Y-74700000D01*
X148367654Y-75300000D01*
X148396758Y-75446317D01*
X148479641Y-75570359D01*
X148603683Y-75653242D01*
X148750000Y-75682346D01*
X150121166Y-75682346D01*
X150117654Y-75700000D01*
X150117654Y-76300000D01*
X150121166Y-76317654D01*
X148750000Y-76317654D01*
X148603683Y-76346758D01*
X148479641Y-76429641D01*
X148396758Y-76553683D01*
X148367654Y-76700000D01*
X148367654Y-77300000D01*
X148396758Y-77446317D01*
X148479641Y-77570359D01*
X148603683Y-77653242D01*
X148750000Y-77682346D01*
X149895000Y-77682346D01*
X149895000Y-77733750D01*
X150046250Y-77885000D01*
X151260000Y-77885000D01*
X151260000Y-77865000D01*
X151490000Y-77865000D01*
X151490000Y-77885000D01*
X152703750Y-77885000D01*
X152855000Y-77733750D01*
X152855000Y-77579658D01*
X152762894Y-77357295D01*
X152668854Y-77263255D01*
X154818753Y-75113356D01*
X154860500Y-75085462D01*
X154971009Y-74920072D01*
X155000020Y-74774225D01*
X155000020Y-74774224D01*
X155009815Y-74724983D01*
X155000020Y-74675742D01*
X155000020Y-68469360D01*
X155009815Y-68420119D01*
X154987493Y-68307901D01*
X154971009Y-68225030D01*
X154860500Y-68059640D01*
X154818752Y-68031745D01*
X154247056Y-67460050D01*
X154593733Y-67113374D01*
X154635480Y-67085480D01*
X154745989Y-66920090D01*
X154775000Y-66774243D01*
X154775000Y-66774242D01*
X154784795Y-66725001D01*
X154775000Y-66675760D01*
X154775000Y-64047537D01*
X154841989Y-64034212D01*
X155047136Y-63897136D01*
X155184212Y-63691989D01*
X155232346Y-63450001D01*
X155232346Y-62749761D01*
X155306232Y-62675875D01*
X155347980Y-62647980D01*
X155458489Y-62482590D01*
X155487500Y-62336743D01*
X155487500Y-62336742D01*
X155497295Y-62287501D01*
X155487500Y-62238260D01*
X155487500Y-59249887D01*
X155691988Y-59209212D01*
X155897136Y-59072136D01*
X156034212Y-58866988D01*
X156082346Y-58625000D01*
X156082346Y-57375000D01*
X156034212Y-57133012D01*
X155897136Y-56927864D01*
X155691988Y-56790788D01*
X155450000Y-56742654D01*
X154525000Y-56742654D01*
X154283012Y-56790788D01*
X154077864Y-56927864D01*
X153940788Y-57133012D01*
X153892654Y-57375000D01*
X153892654Y-58625000D01*
X153940788Y-58866988D01*
X154077864Y-59072136D01*
X154283012Y-59209212D01*
X154487500Y-59249887D01*
X154487501Y-61917654D01*
X153949999Y-61917654D01*
X153708011Y-61965788D01*
X153502864Y-62102864D01*
X153365788Y-62308011D01*
X153317654Y-62549999D01*
X153317654Y-63450001D01*
X153365788Y-63691989D01*
X153502864Y-63897136D01*
X153708011Y-64034212D01*
X153775001Y-64047537D01*
X153775000Y-66517893D01*
X153426572Y-66866322D01*
X153409118Y-66854659D01*
X153262801Y-66825555D01*
X151937800Y-66825555D01*
X151937800Y-64082346D01*
X152550001Y-64082346D01*
X152791989Y-64034212D01*
X152997136Y-63897136D01*
X153134212Y-63691989D01*
X153182346Y-63450001D01*
X153182346Y-62549999D01*
X153134212Y-62308011D01*
X152997136Y-62102864D01*
X152791989Y-61965788D01*
X152550001Y-61917654D01*
X152512500Y-61917654D01*
X152512500Y-59249887D01*
X152716988Y-59209212D01*
X152922136Y-59072136D01*
X153059212Y-58866988D01*
X153107346Y-58625000D01*
X153107346Y-57375000D01*
X153059212Y-57133012D01*
X152922136Y-56927864D01*
X152716988Y-56790788D01*
X152512500Y-56750113D01*
X152512500Y-56319606D01*
X152832107Y-56000000D01*
X155305394Y-56000000D01*
X156917654Y-57612261D01*
X156917654Y-58625000D01*
X156965788Y-58866988D01*
X157102864Y-59072136D01*
X157308012Y-59209212D01*
X157550000Y-59257346D01*
X158475000Y-59257346D01*
X158716988Y-59209212D01*
X158922136Y-59072136D01*
X159059212Y-58866988D01*
X159107346Y-58625000D01*
X159107346Y-57375000D01*
X159059212Y-57133012D01*
X158922136Y-56927864D01*
X158716988Y-56790788D01*
X158475000Y-56742654D01*
X157550000Y-56742654D01*
X157476817Y-56757211D01*
X155900877Y-55181270D01*
X155872980Y-55139520D01*
X155707590Y-55029011D01*
X155561743Y-55000000D01*
X155561741Y-55000000D01*
X155512500Y-54990205D01*
X155463259Y-55000000D01*
X152832107Y-55000000D01*
X152512500Y-54680394D01*
X152512500Y-54249887D01*
X152716988Y-54209212D01*
X152922136Y-54072136D01*
X153059212Y-53866988D01*
X153107346Y-53625000D01*
X153107346Y-52375000D01*
X153892654Y-52375000D01*
X153892654Y-53625000D01*
X153940788Y-53866988D01*
X154077864Y-54072136D01*
X154283012Y-54209212D01*
X154525000Y-54257346D01*
X155450000Y-54257346D01*
X155691988Y-54209212D01*
X155897136Y-54072136D01*
X156034212Y-53866988D01*
X156082346Y-53625000D01*
X156082346Y-53500000D01*
X157527599Y-53500000D01*
X157565788Y-53691989D01*
X157702864Y-53897136D01*
X157908011Y-54034212D01*
X158149999Y-54082346D01*
X158800001Y-54082346D01*
X159041989Y-54034212D01*
X159247136Y-53897136D01*
X159384212Y-53691989D01*
X159432346Y-53450001D01*
X159432346Y-52549999D01*
X159384212Y-52308011D01*
X159247136Y-52102864D01*
X159041989Y-51965788D01*
X158800001Y-51917654D01*
X158149999Y-51917654D01*
X157908011Y-51965788D01*
X157702864Y-52102864D01*
X157565788Y-52308011D01*
X157527599Y-52500000D01*
X156082346Y-52500000D01*
X156082346Y-52375000D01*
X156034212Y-52133012D01*
X155897136Y-51927864D01*
X155691988Y-51790788D01*
X155450000Y-51742654D01*
X154525000Y-51742654D01*
X154283012Y-51790788D01*
X154077864Y-51927864D01*
X153940788Y-52133012D01*
X153892654Y-52375000D01*
X153107346Y-52375000D01*
X153059212Y-52133012D01*
X152922136Y-51927864D01*
X152716988Y-51790788D01*
X152475000Y-51742654D01*
X151550000Y-51742654D01*
X151308012Y-51790788D01*
X151102864Y-51927864D01*
X150965788Y-52133012D01*
X150917654Y-52375000D01*
X150917654Y-53625000D01*
X150965788Y-53866988D01*
X151102864Y-54072136D01*
X151308012Y-54209212D01*
X151512500Y-54249887D01*
X151512500Y-54838258D01*
X151502705Y-54887500D01*
X151512500Y-54936741D01*
X151512500Y-54936742D01*
X151541511Y-55082589D01*
X151652020Y-55247980D01*
X151693770Y-55275876D01*
X151917894Y-55500000D01*
X151693770Y-55724124D01*
X151652020Y-55752020D01*
X151541511Y-55917411D01*
X151530854Y-55970989D01*
X151502705Y-56112500D01*
X151512500Y-56161742D01*
X151512500Y-56750113D01*
X151308012Y-56790788D01*
X151102864Y-56927864D01*
X150965788Y-57133012D01*
X150917654Y-57375000D01*
X150917654Y-58625000D01*
X150965788Y-58866988D01*
X151102864Y-59072136D01*
X151308012Y-59209212D01*
X151512500Y-59249887D01*
X151512501Y-62063016D01*
X151452864Y-62102864D01*
X151315788Y-62308011D01*
X151267654Y-62549999D01*
X151267654Y-63250240D01*
X151119068Y-63398826D01*
X151077321Y-63426720D01*
X151047742Y-63470989D01*
X150966812Y-63592110D01*
X150928005Y-63787200D01*
X150937801Y-63836446D01*
X150937800Y-67908662D01*
X150928005Y-67957906D01*
X150937800Y-68007144D01*
X150966811Y-68152991D01*
X150966812Y-68152992D01*
X150966813Y-68152995D01*
X150987516Y-68183979D01*
X151020205Y-68232902D01*
X148816341Y-68232902D01*
X148767098Y-68223107D01*
X148717855Y-68232902D01*
X148572008Y-68261913D01*
X148406618Y-68372422D01*
X148378721Y-68414173D01*
X148181269Y-68611625D01*
X148139521Y-68639520D01*
X148077126Y-68732902D01*
X148029012Y-68804910D01*
X147990205Y-69000000D01*
X147425000Y-69000000D01*
X147425000Y-54795833D01*
X147589750Y-54795833D01*
X147589750Y-65704166D01*
X149514750Y-65704166D01*
X149514750Y-54795833D01*
X147589750Y-54795833D01*
X147425000Y-54795833D01*
X147425000Y-49150000D01*
X148767654Y-49150000D01*
X148767654Y-50850000D01*
X148796758Y-50996317D01*
X148879641Y-51120359D01*
X149003683Y-51203242D01*
X149150000Y-51232346D01*
X150850000Y-51232346D01*
X150996317Y-51203242D01*
X151120359Y-51120359D01*
X151203242Y-50996317D01*
X151232346Y-50850000D01*
X151232346Y-50500000D01*
X162767654Y-50500000D01*
X162767654Y-50850000D01*
X162796758Y-50996317D01*
X162879641Y-51120359D01*
X163003683Y-51203242D01*
X163150000Y-51232346D01*
X164025240Y-51232346D01*
X165000000Y-52207107D01*
X165000001Y-64292892D01*
X161059993Y-68232901D01*
X159545147Y-68232901D01*
X159545147Y-67932901D01*
X160517858Y-67932901D01*
X160567099Y-67942696D01*
X160616340Y-67932901D01*
X160616342Y-67932901D01*
X160762189Y-67903890D01*
X160927579Y-67793381D01*
X160955476Y-67751630D01*
X164568733Y-64138374D01*
X164610480Y-64110480D01*
X164720989Y-63945090D01*
X164730528Y-63897136D01*
X164759796Y-63750000D01*
X164750000Y-63700754D01*
X164750000Y-56774246D01*
X164759796Y-56725000D01*
X164720989Y-56529910D01*
X164682949Y-56472979D01*
X164610480Y-56364520D01*
X164568729Y-56336623D01*
X161482346Y-53250240D01*
X161482346Y-52549999D01*
X161434212Y-52308011D01*
X161297136Y-52102864D01*
X161091989Y-51965788D01*
X160850001Y-51917654D01*
X160199999Y-51917654D01*
X159958011Y-51965788D01*
X159752864Y-52102864D01*
X159615788Y-52308011D01*
X159567654Y-52549999D01*
X159567654Y-53450001D01*
X159615788Y-53691989D01*
X159752864Y-53897136D01*
X159958011Y-54034212D01*
X160199999Y-54082346D01*
X160850001Y-54082346D01*
X160891905Y-54074011D01*
X163750001Y-56932107D01*
X163750000Y-63542893D01*
X160359993Y-66932901D01*
X159426214Y-66932901D01*
X159309118Y-66854659D01*
X159162801Y-66825555D01*
X157837800Y-66825555D01*
X157837800Y-64344306D01*
X158108095Y-64074011D01*
X158149999Y-64082346D01*
X158800001Y-64082346D01*
X159041989Y-64034212D01*
X159247136Y-63897136D01*
X159384212Y-63691989D01*
X159432346Y-63450001D01*
X159432346Y-62549999D01*
X159567654Y-62549999D01*
X159567654Y-63450001D01*
X159615788Y-63691989D01*
X159752864Y-63897136D01*
X159958011Y-64034212D01*
X160199999Y-64082346D01*
X160850001Y-64082346D01*
X161091989Y-64034212D01*
X161297136Y-63897136D01*
X161434212Y-63691989D01*
X161482346Y-63450001D01*
X161482346Y-62549999D01*
X161434212Y-62308011D01*
X161297136Y-62102864D01*
X161091989Y-61965788D01*
X161025000Y-61952463D01*
X161025000Y-59257346D01*
X161450000Y-59257346D01*
X161691988Y-59209212D01*
X161897136Y-59072136D01*
X162034212Y-58866988D01*
X162082346Y-58625000D01*
X162082346Y-57375000D01*
X162034212Y-57133012D01*
X161897136Y-56927864D01*
X161691988Y-56790788D01*
X161450000Y-56742654D01*
X160525000Y-56742654D01*
X160283012Y-56790788D01*
X160077864Y-56927864D01*
X159940788Y-57133012D01*
X159892654Y-57375000D01*
X159892654Y-58625000D01*
X159940788Y-58866988D01*
X160025001Y-58993021D01*
X160025000Y-61952463D01*
X159958011Y-61965788D01*
X159752864Y-62102864D01*
X159615788Y-62308011D01*
X159567654Y-62549999D01*
X159432346Y-62549999D01*
X159384212Y-62308011D01*
X159247136Y-62102864D01*
X159041989Y-61965788D01*
X158800001Y-61917654D01*
X158149999Y-61917654D01*
X157908011Y-61965788D01*
X157702864Y-62102864D01*
X157565788Y-62308011D01*
X157517654Y-62549999D01*
X157517654Y-63250240D01*
X157019069Y-63748825D01*
X156977321Y-63776720D01*
X156949427Y-63818467D01*
X156866812Y-63942110D01*
X156828005Y-64137200D01*
X156837801Y-64186446D01*
X156837800Y-70508659D01*
X156828005Y-70557900D01*
X156837800Y-70607141D01*
X156837800Y-70607142D01*
X156866811Y-70752989D01*
X156977320Y-70918380D01*
X157019071Y-70946277D01*
X157074424Y-71001630D01*
X157102321Y-71043381D01*
X157267711Y-71153890D01*
X157330455Y-71166371D01*
X157330455Y-71557901D01*
X157359559Y-71704218D01*
X157442442Y-71828260D01*
X157566484Y-71911143D01*
X157712801Y-71940247D01*
X159162801Y-71940247D01*
X159309118Y-71911143D01*
X159433160Y-71828260D01*
X159516043Y-71704218D01*
X159545147Y-71557901D01*
X159545147Y-71107901D01*
X159525256Y-71007901D01*
X159545147Y-70907901D01*
X159545147Y-70872353D01*
X165000000Y-76327207D01*
X165000001Y-88799220D01*
X164996317Y-88796758D01*
X164850000Y-88767654D01*
X163150000Y-88767654D01*
X163003683Y-88796758D01*
X162879641Y-88879641D01*
X162796758Y-89003683D01*
X162767654Y-89150000D01*
X162767654Y-89500000D01*
X151232346Y-89500000D01*
X151232346Y-89150000D01*
X151203242Y-89003683D01*
X151120359Y-88879641D01*
X150996317Y-88796758D01*
X150850000Y-88767654D01*
X149150000Y-88767654D01*
X149003683Y-88796758D01*
X148879641Y-88879641D01*
X148796758Y-89003683D01*
X148767654Y-89150000D01*
X148767654Y-90850000D01*
X148796758Y-90996317D01*
X148879641Y-91120359D01*
X149003683Y-91203242D01*
X149150000Y-91232346D01*
X150850000Y-91232346D01*
X150996317Y-91203242D01*
X151120359Y-91120359D01*
X151203242Y-90996317D01*
X151232346Y-90850000D01*
X151232346Y-90500000D01*
X162767654Y-90500000D01*
X162767654Y-90850000D01*
X162796758Y-90996317D01*
X162879641Y-91120359D01*
X163003683Y-91203242D01*
X163150000Y-91232346D01*
X164850000Y-91232346D01*
X164996317Y-91203242D01*
X165120359Y-91120359D01*
X165203242Y-90996317D01*
X165232346Y-90850000D01*
X165232346Y-90446096D01*
X165360480Y-90360480D01*
X165388376Y-90318730D01*
X165818732Y-89888375D01*
X165860480Y-89860480D01*
X165970989Y-89695090D01*
X166000000Y-89549243D01*
X166009795Y-89500000D01*
X166000000Y-89450757D01*
X166000000Y-76169340D01*
X166009795Y-76120099D01*
X166000000Y-76070857D01*
X165970989Y-75925010D01*
X165860480Y-75759620D01*
X165818733Y-75731726D01*
X159801178Y-69714172D01*
X159773281Y-69672421D01*
X159767801Y-69668759D01*
X159767801Y-69646651D01*
X159616551Y-69495401D01*
X159370092Y-69495401D01*
X159309118Y-69454659D01*
X159162801Y-69425555D01*
X158302801Y-69425555D01*
X158302801Y-69340247D01*
X159162801Y-69340247D01*
X159309118Y-69311143D01*
X159370092Y-69270401D01*
X159616551Y-69270401D01*
X159654051Y-69232901D01*
X161217858Y-69232901D01*
X161267099Y-69242696D01*
X161316340Y-69232901D01*
X161316342Y-69232901D01*
X161462189Y-69203890D01*
X161542841Y-69150000D01*
X162767654Y-69150000D01*
X162767654Y-70850000D01*
X162796758Y-70996317D01*
X162879641Y-71120359D01*
X163003683Y-71203242D01*
X163150000Y-71232346D01*
X164850000Y-71232346D01*
X164996317Y-71203242D01*
X165120359Y-71120359D01*
X165203242Y-70996317D01*
X165232346Y-70850000D01*
X165232346Y-69150000D01*
X165203242Y-69003683D01*
X165120359Y-68879641D01*
X164996317Y-68796758D01*
X164850000Y-68767654D01*
X163150000Y-68767654D01*
X163003683Y-68796758D01*
X162879641Y-68879641D01*
X162796758Y-69003683D01*
X162767654Y-69150000D01*
X161542841Y-69150000D01*
X161627579Y-69093381D01*
X161655476Y-69051630D01*
X165818732Y-64888375D01*
X165860480Y-64860480D01*
X165970989Y-64695090D01*
X166000000Y-64549243D01*
X166000000Y-64549242D01*
X166009795Y-64500001D01*
X166000000Y-64450759D01*
X166000000Y-52049240D01*
X166009795Y-51999999D01*
X165993415Y-51917654D01*
X165970989Y-51804910D01*
X165860480Y-51639520D01*
X165818733Y-51611626D01*
X165203272Y-50996165D01*
X165232346Y-50850000D01*
X165232346Y-49150000D01*
X165203242Y-49003683D01*
X165120359Y-48879641D01*
X164996317Y-48796758D01*
X164850000Y-48767654D01*
X163150000Y-48767654D01*
X163003683Y-48796758D01*
X162879641Y-48879641D01*
X162796758Y-49003683D01*
X162767654Y-49150000D01*
X162767654Y-49500000D01*
X151232346Y-49500000D01*
X151232346Y-49150000D01*
X151203242Y-49003683D01*
X151120359Y-48879641D01*
X150996317Y-48796758D01*
X150850000Y-48767654D01*
X149150000Y-48767654D01*
X149003683Y-48796758D01*
X148879641Y-48879641D01*
X148796758Y-49003683D01*
X148767654Y-49150000D01*
X147425000Y-49150000D01*
X147425000Y-46206604D01*
X148025000Y-46206604D01*
X148025000Y-46793396D01*
X148249555Y-47335520D01*
X148664480Y-47750445D01*
X149206604Y-47975000D01*
X149793396Y-47975000D01*
X150335520Y-47750445D01*
X150750445Y-47335520D01*
X150975000Y-46793396D01*
X150975000Y-46276224D01*
X156125000Y-46276224D01*
X156125000Y-46723776D01*
X156296271Y-47137261D01*
X156612739Y-47453729D01*
X157026224Y-47625000D01*
X157473776Y-47625000D01*
X157887261Y-47453729D01*
X158203729Y-47137261D01*
X158375000Y-46723776D01*
X158375000Y-46276224D01*
X158346163Y-46206604D01*
X163025000Y-46206604D01*
X163025000Y-46793396D01*
X163249555Y-47335520D01*
X163664480Y-47750445D01*
X164206604Y-47975000D01*
X164793396Y-47975000D01*
X165335520Y-47750445D01*
X165750445Y-47335520D01*
X165975000Y-46793396D01*
X165975000Y-46206604D01*
X165750445Y-45664480D01*
X165335520Y-45249555D01*
X164793396Y-45025000D01*
X164206604Y-45025000D01*
X163664480Y-45249555D01*
X163249555Y-45664480D01*
X163025000Y-46206604D01*
X158346163Y-46206604D01*
X158203729Y-45862739D01*
X157887261Y-45546271D01*
X157473776Y-45375000D01*
X157026224Y-45375000D01*
X156612739Y-45546271D01*
X156296271Y-45862739D01*
X156125000Y-46276224D01*
X150975000Y-46276224D01*
X150975000Y-46206604D01*
X150750445Y-45664480D01*
X150335520Y-45249555D01*
X149793396Y-45025000D01*
X149206604Y-45025000D01*
X148664480Y-45249555D01*
X148249555Y-45664480D01*
X148025000Y-46206604D01*
X147425000Y-46206604D01*
X147425000Y-44425000D01*
X166575001Y-44425000D01*
X166575000Y-95575000D01*
G04 #@! TD*
M02*
