*
%LPD*%
%LNsilkscreen_bot*%
%FSLAX24Y24*%
%MOIN*%
%AD*%
%ADD82C,0.01*%
G54D82*
%SRX1Y1I0.0J0.0*%
G1X87784Y47438D2*
G1X87829Y47494D1*
G1X87897Y47523D1*
G1X87988Y47523D1*
G1X88056Y47494D1*
G1X88102Y47438D1*
G1X88102Y47382D1*
G1X88079Y47326D1*
G1X88056Y47298D1*
G1X88011Y47269D1*
G1X87875Y47213D1*
G1X87829Y47185D1*
G1X87806Y47157D1*
G1X87784Y47101D1*
G1X87784Y47016D1*
G1X87829Y46960D1*
G1X87897Y46932D1*
G1X87988Y46932D1*
G1X88056Y46960D1*
G1X88102Y47016D1*
G1X87579Y47523D2*
G1X87579Y46932D1*
G1X87375Y47523D2*
G1X87375Y46932D1*
G1X87102Y46932D1*
G1X86897Y47523D2*
G1X86897Y46932D1*
G1X86579Y47523D2*
G1X86897Y47129D1*
G1X86784Y47269D2*
G1X86579Y46932D1*
G1X86056Y47438D2*
G1X86102Y47494D1*
G1X86170Y47523D1*
G1X86261Y47523D1*
G1X86329Y47494D1*
G1X86375Y47438D1*
G1X86375Y47382D1*
G1X86352Y47326D1*
G1X86329Y47298D1*
G1X86284Y47269D1*
G1X86147Y47213D1*
G1X86102Y47185D1*
G1X86079Y47157D1*
G1X86056Y47101D1*
G1X86056Y47016D1*
G1X86102Y46960D1*
G1X86170Y46932D1*
G1X86261Y46932D1*
G1X86329Y46960D1*
G1X86375Y47016D1*
G1X85511Y47382D2*
G1X85534Y47438D1*
G1X85579Y47494D1*
G1X85625Y47523D1*
G1X85716Y47523D1*
G1X85761Y47494D1*
G1X85806Y47438D1*
G1X85829Y47382D1*
G1X85852Y47298D1*
G1X85852Y47157D1*
G1X85829Y47073D1*
G1X85806Y47016D1*
G1X85761Y46960D1*
G1X85716Y46932D1*
G1X85625Y46932D1*
G1X85579Y46960D1*
G1X85534Y47016D1*
G1X85511Y47073D1*
G1X85306Y47523D2*
G1X85306Y46932D1*
G1X85306Y47523D2*
G1X85102Y47523D1*
G1X85034Y47494D1*
G1X85011Y47466D1*
G1X84988Y47410D1*
G1X84988Y47354D1*
G1X85011Y47298D1*
G1X85034Y47269D1*
G1X85102Y47241D1*
G1X85306Y47241D1*
G1X85147Y47241D2*
G1X84988Y46932D1*
G1X84784Y47523D2*
G1X84784Y46932D1*
G1X84784Y47523D2*
G1X84488Y47523D1*
G1X84784Y47241D2*
G1X84602Y47241D1*
G1X84784Y46932D2*
G1X84488Y46932D1*
G1X84284Y47523D2*
G1X84284Y46932D1*
G1X84284Y47523D2*
G1X83988Y47523D1*
G1X84284Y47241D2*
G1X84102Y47241D1*
G1X84284Y46932D2*
G1X83988Y46932D1*
G1X83784Y47523D2*
G1X83784Y46932D1*
G1X83784Y47523D2*
G1X83466Y46932D1*
G1X83466Y47523D2*
G1X83466Y46932D1*
G1X82738Y47523D2*
G1X82738Y46932D1*
G1X82738Y47523D2*
G1X82534Y47523D1*
G1X82466Y47494D1*
G1X82443Y47466D1*
G1X82420Y47410D1*
G1X82420Y47354D1*
G1X82443Y47298D1*
G1X82466Y47269D1*
G1X82534Y47241D1*
G1X82738Y47241D2*
G1X82534Y47241D1*
G1X82466Y47213D1*
G1X82443Y47185D1*
G1X82420Y47129D1*
G1X82420Y47044D1*
G1X82443Y46988D1*
G1X82466Y46960D1*
G1X82534Y46932D1*
G1X82738Y46932D1*
G1X82079Y47523D2*
G1X82125Y47494D1*
G1X82170Y47438D1*
G1X82193Y47382D1*
G1X82216Y47298D1*
G1X82216Y47157D1*
G1X82193Y47073D1*
G1X82170Y47016D1*
G1X82125Y46960D1*
G1X82079Y46932D1*
G1X81988Y46932D1*
G1X81943Y46960D1*
G1X81897Y47016D1*
G1X81875Y47073D1*
G1X81852Y47157D1*
G1X81852Y47298D1*
G1X81875Y47382D1*
G1X81897Y47438D1*
G1X81943Y47494D1*
G1X81988Y47523D1*
G1X82079Y47523D1*
G1X81488Y47523D2*
G1X81488Y46932D1*
G1X81647Y47523D2*
G1X81329Y47523D1*
G1X80966Y47523D2*
G1X80966Y46932D1*
G1X81125Y47523D2*
G1X80806Y47523D1*
G1X80466Y47523D2*
G1X80511Y47494D1*
G1X80556Y47438D1*
G1X80579Y47382D1*
G1X80602Y47298D1*
G1X80602Y47157D1*
G1X80579Y47073D1*
G1X80556Y47016D1*
G1X80511Y46960D1*
G1X80466Y46932D1*
G1X80375Y46932D1*
G1X80329Y46960D1*
G1X80284Y47016D1*
G1X80261Y47073D1*
G1X80238Y47157D1*
G1X80238Y47298D1*
G1X80261Y47382D1*
G1X80284Y47438D1*
G1X80329Y47494D1*
G1X80375Y47523D1*
G1X80466Y47523D1*
G1X80034Y47523D2*
G1X80034Y46932D1*
G1X80034Y47523D2*
G1X79852Y46932D1*
G1X79670Y47523D2*
G1X79852Y46932D1*
G1X79670Y47523D2*
G1X79670Y46932D1*
M2*
