*
%LPD*%
%LNpaste_bot*%
%FSLAX24Y24*%
%MOIN*%
%AD*%
%ADD82C,0.01*%
%ADD142C,0.03937*%
G54D82*
%SRX1Y1I0.0J0.0*%
G1X89216Y48619D2*
G1X89261Y48676D1*
G1X89329Y48704D1*
G1X89420Y48704D1*
G1X89488Y48676D1*
G1X89534Y48619D1*
G1X89534Y48563D1*
G1X89511Y48507D1*
G1X89488Y48479D1*
G1X89443Y48451D1*
G1X89306Y48394D1*
G1X89261Y48366D1*
G1X89238Y48338D1*
G1X89216Y48282D1*
G1X89216Y48197D1*
G1X89261Y48141D1*
G1X89329Y48113D1*
G1X89420Y48113D1*
G1X89488Y48141D1*
G1X89534Y48197D1*
G1X88875Y48704D2*
G1X88920Y48676D1*
G1X88966Y48619D1*
G1X88988Y48563D1*
G1X89011Y48479D1*
G1X89011Y48338D1*
G1X88988Y48254D1*
G1X88966Y48197D1*
G1X88920Y48141D1*
G1X88875Y48113D1*
G1X88784Y48113D1*
G1X88738Y48141D1*
G1X88693Y48197D1*
G1X88670Y48254D1*
G1X88647Y48338D1*
G1X88647Y48479D1*
G1X88670Y48563D1*
G1X88693Y48619D1*
G1X88738Y48676D1*
G1X88784Y48704D1*
G1X88875Y48704D1*
G1X88443Y48704D2*
G1X88443Y48113D1*
G1X88170Y48113D1*
G1X87966Y48704D2*
G1X87966Y48113D1*
G1X87966Y48704D2*
G1X87806Y48704D1*
G1X87738Y48676D1*
G1X87693Y48619D1*
G1X87670Y48563D1*
G1X87647Y48479D1*
G1X87647Y48338D1*
G1X87670Y48254D1*
G1X87693Y48197D1*
G1X87738Y48141D1*
G1X87806Y48113D1*
G1X87966Y48113D1*
G1X87443Y48704D2*
G1X87443Y48113D1*
G1X87443Y48704D2*
G1X87147Y48704D1*
G1X87443Y48422D2*
G1X87261Y48422D1*
G1X87443Y48113D2*
G1X87147Y48113D1*
G1X86943Y48704D2*
G1X86943Y48113D1*
G1X86943Y48704D2*
G1X86738Y48704D1*
G1X86670Y48676D1*
G1X86647Y48647D1*
G1X86625Y48591D1*
G1X86625Y48535D1*
G1X86647Y48479D1*
G1X86670Y48451D1*
G1X86738Y48422D1*
G1X86943Y48422D1*
G1X86784Y48422D2*
G1X86625Y48113D1*
G1X85897Y48704D2*
G1X85897Y48113D1*
G1X85897Y48704D2*
G1X85693Y48704D1*
G1X85625Y48676D1*
G1X85602Y48647D1*
G1X85579Y48591D1*
G1X85579Y48507D1*
G1X85602Y48451D1*
G1X85625Y48422D1*
G1X85693Y48394D1*
G1X85897Y48394D1*
G1X85193Y48704D2*
G1X85375Y48113D1*
G1X85193Y48704D2*
G1X85011Y48113D1*
G1X85306Y48310D2*
G1X85079Y48310D1*
G1X84488Y48619D2*
G1X84534Y48676D1*
G1X84602Y48704D1*
G1X84693Y48704D1*
G1X84761Y48676D1*
G1X84806Y48619D1*
G1X84806Y48563D1*
G1X84784Y48507D1*
G1X84761Y48479D1*
G1X84716Y48451D1*
G1X84579Y48394D1*
G1X84534Y48366D1*
G1X84511Y48338D1*
G1X84488Y48282D1*
G1X84488Y48197D1*
G1X84534Y48141D1*
G1X84602Y48113D1*
G1X84693Y48113D1*
G1X84761Y48141D1*
G1X84806Y48197D1*
G1X84125Y48704D2*
G1X84125Y48113D1*
G1X84284Y48704D2*
G1X83966Y48704D1*
G1X83761Y48704D2*
G1X83761Y48113D1*
G1X83761Y48704D2*
G1X83466Y48704D1*
G1X83761Y48422D2*
G1X83579Y48422D1*
G1X83761Y48113D2*
G1X83466Y48113D1*
G1X82738Y48704D2*
G1X82738Y48113D1*
G1X82738Y48704D2*
G1X82534Y48704D1*
G1X82466Y48676D1*
G1X82443Y48647D1*
G1X82420Y48591D1*
G1X82420Y48535D1*
G1X82443Y48479D1*
G1X82466Y48451D1*
G1X82534Y48422D1*
G1X82738Y48422D2*
G1X82534Y48422D1*
G1X82466Y48394D1*
G1X82443Y48366D1*
G1X82420Y48310D1*
G1X82420Y48226D1*
G1X82443Y48169D1*
G1X82466Y48141D1*
G1X82534Y48113D1*
G1X82738Y48113D1*
G1X82079Y48704D2*
G1X82125Y48676D1*
G1X82170Y48619D1*
G1X82193Y48563D1*
G1X82216Y48479D1*
G1X82216Y48338D1*
G1X82193Y48254D1*
G1X82170Y48197D1*
G1X82125Y48141D1*
G1X82079Y48113D1*
G1X81988Y48113D1*
G1X81943Y48141D1*
G1X81897Y48197D1*
G1X81875Y48254D1*
G1X81852Y48338D1*
G1X81852Y48479D1*
G1X81875Y48563D1*
G1X81897Y48619D1*
G1X81943Y48676D1*
G1X81988Y48704D1*
G1X82079Y48704D1*
G1X81488Y48704D2*
G1X81488Y48113D1*
G1X81647Y48704D2*
G1X81329Y48704D1*
G1X80966Y48704D2*
G1X80966Y48113D1*
G1X81125Y48704D2*
G1X80806Y48704D1*
G1X80466Y48704D2*
G1X80511Y48676D1*
G1X80556Y48619D1*
G1X80579Y48563D1*
G1X80602Y48479D1*
G1X80602Y48338D1*
G1X80579Y48254D1*
G1X80556Y48197D1*
G1X80511Y48141D1*
G1X80466Y48113D1*
G1X80375Y48113D1*
G1X80329Y48141D1*
G1X80284Y48197D1*
G1X80261Y48254D1*
G1X80238Y48338D1*
G1X80238Y48479D1*
G1X80261Y48563D1*
G1X80284Y48619D1*
G1X80329Y48676D1*
G1X80375Y48704D1*
G1X80466Y48704D1*
G1X80034Y48704D2*
G1X80034Y48113D1*
G1X80034Y48704D2*
G1X79852Y48113D1*
G1X79670Y48704D2*
G1X79852Y48113D1*
G1X79670Y48704D2*
G1X79670Y48113D1*
G54D142*
G1X69744Y62874D3*
G1X46457Y39764D3*
G1X51181Y53701D3*
M2*
