*
%LPD*%
%LNsolder_bot*%
%FSLAX24Y24*%
%MOIN*%
%AD*%
%ADD82C,0.01*%
%ADD126C,0.08274*%
%ADD214C,0.07487*%
%ADD221C,0.0788*%
%ADD222R,0.06699X0.06699*%
%ADD224R,0.07093X0.07093*%
%ADD226C,0.06699*%
%ADD354R,0.10243X0.10243*%
%ADD355C,0.10243*%
%ADD371R,0.0788X0.0788*%
%ADD381R,0.08668X0.08668*%
%ADD382C,0.08668*%
G54D82*
%SRX1Y1I0.0J0.0*%
G1X88761Y49800D2*
G1X88806Y49857D1*
G1X88875Y49885D1*
G1X88966Y49885D1*
G1X89034Y49857D1*
G1X89079Y49800D1*
G1X89079Y49744D1*
G1X89056Y49688D1*
G1X89034Y49660D1*
G1X88988Y49632D1*
G1X88852Y49575D1*
G1X88806Y49547D1*
G1X88784Y49519D1*
G1X88761Y49463D1*
G1X88761Y49379D1*
G1X88806Y49322D1*
G1X88875Y49294D1*
G1X88966Y49294D1*
G1X89034Y49322D1*
G1X89079Y49379D1*
G1X88420Y49885D2*
G1X88466Y49857D1*
G1X88511Y49800D1*
G1X88534Y49744D1*
G1X88556Y49660D1*
G1X88556Y49519D1*
G1X88534Y49435D1*
G1X88511Y49379D1*
G1X88466Y49322D1*
G1X88420Y49294D1*
G1X88329Y49294D1*
G1X88284Y49322D1*
G1X88238Y49379D1*
G1X88216Y49435D1*
G1X88193Y49519D1*
G1X88193Y49660D1*
G1X88216Y49744D1*
G1X88238Y49800D1*
G1X88284Y49857D1*
G1X88329Y49885D1*
G1X88420Y49885D1*
G1X87988Y49885D2*
G1X87988Y49294D1*
G1X87716Y49294D1*
G1X87511Y49885D2*
G1X87511Y49294D1*
G1X87511Y49885D2*
G1X87352Y49885D1*
G1X87284Y49857D1*
G1X87238Y49800D1*
G1X87216Y49744D1*
G1X87193Y49660D1*
G1X87193Y49519D1*
G1X87216Y49435D1*
G1X87238Y49379D1*
G1X87284Y49322D1*
G1X87352Y49294D1*
G1X87511Y49294D1*
G1X86988Y49885D2*
G1X86988Y49294D1*
G1X86988Y49885D2*
G1X86693Y49885D1*
G1X86988Y49604D2*
G1X86806Y49604D1*
G1X86988Y49294D2*
G1X86693Y49294D1*
G1X86488Y49885D2*
G1X86488Y49294D1*
G1X86488Y49885D2*
G1X86284Y49885D1*
G1X86216Y49857D1*
G1X86193Y49829D1*
G1X86170Y49772D1*
G1X86170Y49716D1*
G1X86193Y49660D1*
G1X86216Y49632D1*
G1X86284Y49604D1*
G1X86488Y49604D1*
G1X86329Y49604D2*
G1X86170Y49294D1*
G1X85443Y49885D2*
G1X85443Y49294D1*
G1X85443Y49885D2*
G1X85261Y49294D1*
G1X85079Y49885D2*
G1X85261Y49294D1*
G1X85079Y49885D2*
G1X85079Y49294D1*
G1X84693Y49885D2*
G1X84875Y49294D1*
G1X84693Y49885D2*
G1X84511Y49294D1*
G1X84806Y49491D2*
G1X84579Y49491D1*
G1X83988Y49800D2*
G1X84034Y49857D1*
G1X84102Y49885D1*
G1X84193Y49885D1*
G1X84261Y49857D1*
G1X84306Y49800D1*
G1X84306Y49744D1*
G1X84284Y49688D1*
G1X84261Y49660D1*
G1X84216Y49632D1*
G1X84079Y49575D1*
G1X84034Y49547D1*
G1X84011Y49519D1*
G1X83988Y49463D1*
G1X83988Y49379D1*
G1X84034Y49322D1*
G1X84102Y49294D1*
G1X84193Y49294D1*
G1X84261Y49322D1*
G1X84306Y49379D1*
G1X83784Y49885D2*
G1X83784Y49294D1*
G1X83466Y49885D2*
G1X83784Y49491D1*
G1X83670Y49632D2*
G1X83466Y49294D1*
G1X82738Y49885D2*
G1X82738Y49294D1*
G1X82738Y49885D2*
G1X82534Y49885D1*
G1X82466Y49857D1*
G1X82443Y49829D1*
G1X82420Y49772D1*
G1X82420Y49716D1*
G1X82443Y49660D1*
G1X82466Y49632D1*
G1X82534Y49604D1*
G1X82738Y49604D2*
G1X82534Y49604D1*
G1X82466Y49575D1*
G1X82443Y49547D1*
G1X82420Y49491D1*
G1X82420Y49407D1*
G1X82443Y49350D1*
G1X82466Y49322D1*
G1X82534Y49294D1*
G1X82738Y49294D1*
G1X82079Y49885D2*
G1X82125Y49857D1*
G1X82170Y49800D1*
G1X82193Y49744D1*
G1X82216Y49660D1*
G1X82216Y49519D1*
G1X82193Y49435D1*
G1X82170Y49379D1*
G1X82125Y49322D1*
G1X82079Y49294D1*
G1X81988Y49294D1*
G1X81943Y49322D1*
G1X81897Y49379D1*
G1X81875Y49435D1*
G1X81852Y49519D1*
G1X81852Y49660D1*
G1X81875Y49744D1*
G1X81897Y49800D1*
G1X81943Y49857D1*
G1X81988Y49885D1*
G1X82079Y49885D1*
G1X81488Y49885D2*
G1X81488Y49294D1*
G1X81647Y49885D2*
G1X81329Y49885D1*
G1X80966Y49885D2*
G1X80966Y49294D1*
G1X81125Y49885D2*
G1X80806Y49885D1*
G1X80466Y49885D2*
G1X80511Y49857D1*
G1X80556Y49800D1*
G1X80579Y49744D1*
G1X80602Y49660D1*
G1X80602Y49519D1*
G1X80579Y49435D1*
G1X80556Y49379D1*
G1X80511Y49322D1*
G1X80466Y49294D1*
G1X80375Y49294D1*
G1X80329Y49322D1*
G1X80284Y49379D1*
G1X80261Y49435D1*
G1X80238Y49519D1*
G1X80238Y49660D1*
G1X80261Y49744D1*
G1X80284Y49800D1*
G1X80329Y49857D1*
G1X80375Y49885D1*
G1X80466Y49885D1*
G1X80034Y49885D2*
G1X80034Y49294D1*
G1X80034Y49885D2*
G1X79852Y49294D1*
G1X79670Y49885D2*
G1X79852Y49294D1*
G1X79670Y49885D2*
G1X79670Y49294D1*
G54D126*
G1X69744Y62874D3*
G1X46457Y39764D3*
G1X51181Y53701D3*
G54D214*
G1X66417Y61417D3*
G54D221*
G1X46370Y62370D3*
G1X47370Y61370D3*
G1X47370Y62370D3*
G1X48370Y61370D3*
G1X48370Y62370D3*
G1X49370Y61370D3*
G1X49370Y62370D3*
G1X50370Y61370D3*
G1X50370Y62370D3*
G1X51370Y61370D3*
G1X51370Y62370D3*
G1X52370Y61370D3*
G1X52370Y62370D3*
G1X53370Y61370D3*
G1X53370Y62370D3*
G1X54370Y61370D3*
G1X54370Y62370D3*
G1X55370Y61370D3*
G1X55370Y62370D3*
G1X56370Y61370D3*
G1X56370Y62370D3*
G1X57370Y61370D3*
G1X57370Y62370D3*
G1X58370Y61370D3*
G1X58370Y62370D3*
G1X59370Y61370D3*
G1X59370Y62370D3*
G1X60370Y61370D3*
G1X60370Y62370D3*
G1X61370Y61370D3*
G1X61370Y62370D3*
G1X62370Y61370D3*
G1X62370Y62370D3*
G1X63370Y61370D3*
G1X63370Y62370D3*
G1X64370Y61370D3*
G1X64370Y62370D3*
G1X46370Y38370D3*
G1X47370Y37370D3*
G1X47370Y38370D3*
G1X48370Y37370D3*
G1X48370Y38370D3*
G1X49370Y37370D3*
G1X49370Y38370D3*
G1X50370Y37370D3*
G1X50370Y38370D3*
G1X51370Y37370D3*
G1X51370Y38370D3*
G1X52370Y37370D3*
G1X52370Y38370D3*
G1X53370Y37370D3*
G1X53370Y38370D3*
G1X54370Y37370D3*
G1X54370Y38370D3*
G1X55370Y37370D3*
G1X55370Y38370D3*
G1X56370Y37370D3*
G1X56370Y38370D3*
G1X57370Y37370D3*
G1X57370Y38370D3*
G1X58370Y37370D3*
G1X58370Y38370D3*
G1X59370Y37370D3*
G1X59370Y38370D3*
G1X60370Y37370D3*
G1X60370Y38370D3*
G1X61370Y37370D3*
G1X61370Y38370D3*
G1X62370Y37370D3*
G1X62370Y38370D3*
G1X63370Y37370D3*
G1X63370Y38370D3*
G1X64370Y37370D3*
G1X64370Y38370D3*
G54D222*
G1X60370Y40370D3*
G1X61370Y40370D3*
G1X62370Y40370D3*
G1X63370Y40370D3*
G1X64370Y40370D3*
G54D224*
G1X50370Y40370D3*
G1X51370Y40370D3*
G1X52370Y40370D3*
G1X53370Y40370D3*
G1X54370Y40370D3*
G1X55370Y40370D3*
G1X56370Y40370D3*
G1X57370Y40370D3*
G1X53559Y44213D3*
G1X59370Y40370D3*
G1X64370Y59370D3*
G1X63370Y59370D3*
G1X62370Y59370D3*
G1X61370Y59370D3*
G1X60370Y59370D3*
G1X59370Y59370D3*
G1X58370Y59370D3*
G1X57370Y59370D3*
G1X55772Y59370D3*
G1X54772Y59370D3*
G1X53772Y59370D3*
G1X52772Y59370D3*
G1X51772Y59370D3*
G1X50772Y59370D3*
G1X49772Y59370D3*
G1X48772Y59370D3*
G1X47772Y59370D3*
G1X46772Y59370D3*
G54D226*
G1X52559Y44213D3*
G54D354*
G1X73721Y53756D3*
G54D355*
G1X73721Y52256D3*
G1X73721Y50756D3*
G1X73721Y49256D3*
G1X73721Y47756D3*
G1X73721Y46256D3*
G54D371*
G1X46370Y61370D3*
G1X46370Y37370D3*
G54D381*
G1X66480Y53543D3*
G1X66480Y46575D3*
G54D382*
G1X68480Y53543D3*
G1X68480Y46575D3*
M2*
