*
%LPD*%
%LNlayer3*%
%FSLAX24Y24*%
%MOIN*%
%AD*%
%ADD131C,0.01181*%
%ADD142C,0.03937*%
%ADD148C,0.00787*%
%ADD151C,0.02756*%
%ADD153C,0.00984*%
G54D131*
%SRX1Y1I0.0J0.0*%
G1X74159Y50317D2*
G1X74069Y50408D1*
G1X74159Y51194D2*
G1X74069Y51104D1*
G1X73282Y51194D2*
G1X73373Y51104D1*
G1X73282Y50317D2*
G1X73373Y50408D1*
G1X66982Y53543D2*
G1X66854Y53543D1*
G1X66480Y54045D2*
G1X66480Y53917D1*
G1X65978Y53543D2*
G1X66106Y53543D1*
G1X66480Y53041D2*
G1X66480Y53169D1*
G1X66982Y46575D2*
G1X66854Y46575D1*
G1X66480Y47077D2*
G1X66480Y46949D1*
G1X65978Y46575D2*
G1X66106Y46575D1*
G1X66480Y46073D2*
G1X66480Y46201D1*
G1X66551Y53609D2*
G54D142*
G1X66550Y53609D1*
G1X68811Y51348D1*
G1X68811Y50756D1*
G1X73721Y50756D1*
G1X66480Y53543D2*
G1X66550Y53609D1*
G1X59213Y48622D2*
G54D148*
G1X59724Y48622D1*
G1X62923Y48622D1*
G1X59449Y48347D2*
G1X59724Y48622D1*
G1X63307Y48622D2*
G1X62943Y48622D1*
G1X62923Y48622D1*
G1X59213Y51850D2*
G1X59685Y51850D1*
G1X58976Y52126D2*
G1X59409Y52126D1*
G1X66550Y53609D2*
G1X66551Y53609D1*
G1X62963Y51850D2*
G1X62943Y51850D1*
G1X59724Y51850D1*
G1X59449Y52126D2*
G1X59409Y52126D1*
G1X59685Y51850D1*
G1X62963Y51850D2*
G1X63032Y51850D1*
G1X59685Y51850D2*
G1X59724Y51850D1*
G1X66480Y53543D2*
G1X66550Y53609D1*
G54D151*
G1X46102Y36457D3*
G1X47047Y36575D3*
G1X48228Y36457D3*
G1X50197Y36496D3*
G1X52165Y36496D3*
G1X54134Y36496D3*
G1X56102Y36496D3*
G1X58071Y36496D3*
G1X60039Y36496D3*
G1X48228Y39370D3*
G1X49921Y38937D3*
G1X51890Y38937D3*
G1X53937Y38937D3*
G1X55906Y38976D3*
G1X57953Y38937D3*
G1X59961Y38937D3*
G1X46260Y40354D3*
G1X47913Y40158D3*
G1X49173Y40354D3*
G1X58425Y40354D3*
G1X48228Y41339D3*
G1X50197Y41339D3*
G1X51063Y41299D3*
G1X51772Y41417D3*
G1X54685Y41417D3*
G1X55748Y41221D3*
G1X61654Y41732D3*
G1X54646Y42756D3*
G1X53937Y43425D3*
G1X54843Y43465D3*
G1X55591Y42756D3*
G1X50591Y44291D3*
G1X51575Y47126D3*
G1X52126Y47205D3*
G1X58898Y47520D3*
G1X59291Y47520D3*
G1X61378Y47559D3*
G1X50630Y48150D3*
G1X53150Y48228D3*
G1X58976Y48347D3*
G1X59213Y48622D3*
G1X59724Y48622D3*
G1X59449Y48347D3*
G1X61024Y49291D3*
G1X61417Y49291D3*
G1X50630Y50158D3*
G1X53189Y50158D3*
G1X54449Y50236D3*
G1X56102Y50197D3*
G1X56969Y50236D3*
G1X59252Y50472D3*
G1X59252Y49724D3*
G1X59567Y50000D3*
G1X59803Y50472D3*
G1X60118Y50000D3*
G1X59882Y49724D3*
G1X61024Y50276D3*
G1X61024Y49843D3*
G1X61417Y49843D3*
G1X61417Y50276D3*
G1X59567Y50748D3*
G1X60118Y50748D3*
G1X61024Y51142D3*
G1X61417Y50748D3*
G1X61417Y51142D3*
G1X61024Y50748D3*
G1X65591Y36969D3*
G1X65630Y40669D3*
G1X65591Y39370D3*
G1X62008Y39370D3*
G1X62047Y41339D3*
G1X63976Y36496D3*
G1X62008Y36496D3*
G1X66654Y41850D3*
G1X64724Y41850D3*
G1X65748Y41457D3*
G1X63976Y41339D3*
G1X64016Y39370D3*
G1X65591Y38150D3*
G1X69606Y39882D3*
G1X69095Y37559D3*
G1X67677Y36457D3*
G1X69921Y41221D3*
G1X69843Y36457D3*
G1X69252Y38819D3*
G1X67874Y41535D3*
G1X63425Y46339D3*
G1X65748Y50236D3*
G1X66732Y50236D3*
G1X63937Y46339D3*
G1X63189Y50787D3*
G1X62677Y50787D3*
G1X62953Y50472D3*
G1X63465Y50472D3*
G1X63307Y48622D3*
G1X63583Y48347D3*
G1X63032Y48347D3*
G1X63189Y50000D3*
G1X63465Y49724D3*
G1X62638Y50000D3*
G1X62953Y49724D3*
G1X63701Y46772D3*
G1X63189Y46732D3*
G1X62953Y46339D3*
G1X61772Y49291D3*
G1X61772Y49843D3*
G1X61772Y50276D3*
G1X61772Y50748D3*
G1X61772Y51142D3*
G1X74409Y50394D3*
G1X71575Y50236D3*
G1X70906Y50236D3*
G1X72638Y49291D3*
G1X72992Y50394D3*
G1X70197Y50236D3*
G1X73032Y48858D3*
G1X74409Y51142D3*
G1X74331Y48819D3*
G1X68110Y50236D3*
G1X72402Y50433D3*
G1X73071Y49724D3*
G1X74370Y49685D3*
G1X72992Y51142D3*
G1X69528Y50236D3*
G1X47362Y58622D3*
G1X50630Y56221D3*
G1X50630Y54134D3*
G1X50630Y52126D3*
G1X49055Y58543D3*
G1X53189Y52165D3*
G1X58976Y53150D3*
G1X53071Y54449D3*
G1X52795Y58268D3*
G1X52244Y56299D3*
G1X58976Y53898D3*
G1X55591Y57913D3*
G1X59213Y51850D3*
G1X58976Y52126D3*
G1X52795Y56457D3*
G1X59409Y53583D3*
G1X66969Y59095D3*
G1X63032Y58347D3*
G1X65669Y59173D3*
G1X66811Y58268D3*
G1X64882Y58268D3*
G1X63780Y58701D3*
G1X60945Y58071D3*
G1X61378Y58071D3*
G1X62480Y58622D3*
G1X63780Y53976D3*
G1X62087Y58622D3*
G1X63583Y51850D3*
G1X63819Y52126D3*
G1X63307Y52126D3*
G1X63032Y51850D3*
G1X59449Y52126D3*
G1X59685Y51850D3*
G1X62559Y53307D3*
G1X62362Y52953D3*
G1X59409Y53150D3*
G1X61496Y57362D3*
G1X59803Y53150D3*
G1X62520Y53740D3*
G1X60197Y53386D3*
G1X62913Y53504D3*
G1X61772Y58071D3*
G1X59882Y57756D3*
G1X67835Y53189D3*
G1X67913Y58661D3*
G1X70000Y58622D3*
G1X69882Y53189D3*
G1X51181Y62953D3*
G1X47244Y62992D3*
G1X49252Y62992D3*
G1X46181Y60039D3*
G1X55158Y62992D3*
G1X53150Y62992D3*
G1X59095Y62992D3*
G1X57087Y62992D3*
G1X65945Y60079D3*
G1X67205Y60197D3*
G1X65039Y63032D3*
G1X62874Y63032D3*
G1X67284Y62165D3*
G1X60591Y63071D3*
G1X66929Y62992D3*
G1X68819Y61063D3*
G1X67559Y62480D3*
G1X74380Y46256D2*
G75*
G54D153*
G3X74380Y46256I-659J0D1*
G1X74380Y47756D2*
G3X74380Y47756I-659J0D1*
G1X74341Y50756D2*
G3X74341Y50756I-620J0D1*
G1X74380Y52256D2*
G3X74380Y52256I-659J0D1*
G1X74380Y53756D2*
G3X74380Y53756I-659J0D1*
G1X68219Y41535D2*
G3X68219Y41535I-345J0D1*
G1X69022Y46575D2*
G3X69022Y46575I-541J0D1*
G1X68455Y50236D2*
G3X68455Y50236I-345J0D1*
G1X69163Y61063D2*
G3X69163Y61063I-345J0D1*
G1X68258Y58661D2*
G3X68258Y58661I-345J0D1*
G1X66998Y41850D2*
G3X66998Y41850I-345J0D1*
G1X65935Y36969D2*
G3X65935Y36969I-344J0D1*
G1X65935Y38150D2*
G3X65935Y38150I-344J0D1*
G1X65935Y39370D2*
G3X65935Y39370I-344J0D1*
G1X65974Y40669D2*
G3X65974Y40669I-345J0D1*
G1X66093Y41457D2*
G3X66093Y41457I-345J0D1*
G1X67077Y50236D2*
G3X67077Y50236I-345J0D1*
G1X66093Y50236D2*
G3X66093Y50236I-345J0D1*
G1X67156Y58268D2*
G3X67156Y58268I-345J0D1*
G1X67313Y59095D2*
G3X67313Y59095I-345J0D1*
G1X67549Y60197D2*
G3X67549Y60197I-345J0D1*
G1X66014Y59173D2*
G3X66014Y59173I-345J0D1*
G1X66289Y60079D2*
G3X66289Y60079I-345J0D1*
G1X66939Y61417D2*
G3X66939Y61417I-522J0D1*
G1X64360Y39370D2*
G3X64360Y39370I-345J0D1*
G1X62352Y39370D2*
G3X62352Y39370I-345J0D1*
G1X65069Y41850D2*
G3X65069Y41850I-345J0D1*
G1X65226Y58268D2*
G3X65226Y58268I-345J0D1*
G1X64321Y41339D2*
G3X64321Y41339I-345J0D1*
G1X64124Y53976D2*
G3X64124Y53976I-345J0D1*
G1X55935Y42756D2*
G3X55935Y42756I-344J0D1*
G1X56447Y50197D2*
G3X56447Y50197I-345J0D1*
G1X55935Y57913D2*
G3X55935Y57913I-344J0D1*
G1X55030Y41417D2*
G3X55030Y41417I-345J0D1*
G1X54990Y42756D2*
G3X54990Y42756I-345J0D1*
G1X54793Y50236D2*
G3X54793Y50236I-345J0D1*
G1X53494Y48228D2*
G3X53494Y48228I-345J0D1*
G1X53534Y50158D2*
G3X53534Y50158I-345J0D1*
G1X53534Y52165D2*
G3X53534Y52165I-345J0D1*
G1X53415Y54449D2*
G3X53415Y54449I-345J0D1*
G1X53140Y58268D2*
G3X53140Y58268I-345J0D1*
G1X50541Y41339D2*
G3X50541Y41339I-344J0D1*
G1X49518Y40354D2*
G3X49518Y40354I-345J0D1*
G1X48573Y39370D2*
G3X48573Y39370I-345J0D1*
G1X48258Y40158D2*
G3X48258Y40158I-345J0D1*
G1X58770Y40354D2*
G3X58770Y40354I-345J0D1*
G1X60226Y57756D2*
G3X60226Y57756I-345J0D1*
G1X57313Y50236D2*
G3X57313Y50236I-345J0D1*
G1X61722Y47559D2*
G3X61722Y47559I-344J0D1*
G1X69439Y37559D2*
G3X69439Y37559I-345J0D1*
G1X69597Y38819D2*
G3X69597Y38819I-345J0D1*
G1X69951Y39882D2*
G3X69951Y39882I-345J0D1*
G1X70226Y53189D2*
G3X70226Y53189I-345J0D1*
G74*
G1X75305Y44450D2*
G1X75305Y55274D1*
G75*
G3X75291Y55309I-49J0D1*
G74*
G1X74246Y56354D1*
G75*
G3X74211Y56368I-35J-35D1*
G74*
G1X71713Y56368D1*
G1X71712Y56368D2*
G1X71713Y56368D1*
G1X71712Y56368D2*
G1X71712Y56368D1*
G1X71594Y56368D1*
G1X70482Y57497D1*
G1X70482Y57497D1*
G1X70358Y57621D1*
G1X70341Y57640D2*
G75*
G3X70358Y57621I191J155D1*
G1X70341Y57640D2*
G3X70337Y57644I-38J-31D1*
G74*
G1X70285Y57696D1*
G1X70285Y57794D1*
G1X70285Y57794D1*
G1X70285Y57795D2*
G1X70285Y57794D1*
G1X70285Y57795D2*
G1X70285Y58307D1*
G75*
G3X70207Y58347I-49J0D1*
G1X70207Y58898D2*
G3X70207Y58346I-207J-276D1*
G1X70207Y58898D2*
G3X70285Y58937I29J39D1*
G74*
G1X70285Y63366D1*
G75*
G3X70236Y63415I-49J0D1*
G74*
G1X67052Y63415D1*
G75*
G3X67037Y63319I0J-49D1*
G1X66822Y63319D2*
G3X67037Y63319I108J-327D1*
G1X66822Y63319D2*
G3X66806Y63415I-15J47D1*
G74*
G1X65247Y63415D1*
G75*
G3X65221Y63324I0J-49D1*
G1X64822Y62764D2*
G3X65221Y63324I218J267D1*
G1X64822Y62764D2*
G3X64779Y62774I-31J-38D1*
G3X64770Y62817I-48J12D1*
G1X64858Y63324D2*
G3X64770Y62817I181J-293D1*
G1X64858Y63324D2*
G3X64832Y63415I-26J42D1*
G74*
G1X63081Y63415D1*
G75*
G3X63056Y63324I0J-49D1*
G1X63201Y62923D2*
G3X63056Y63324I-327J108D1*
G1X63201Y62923D2*
G3X63259Y62860I47J-16D1*
G1X63825Y62581D2*
G3X63259Y62860I-455J-211D1*
G1X63825Y62581D2*
G3X63915Y62581I45J21D1*
G1X64699Y62749D2*
G3X63915Y62581I-329J-379D1*
G1X64699Y62749D2*
G3X64743Y62739I32J37D1*
G3X64753Y62694I48J-13D1*
G1X64581Y61915D2*
G3X64753Y62694I-211J455D1*
G1X64581Y61915D2*
G3X64581Y61825I21J-45D1*
G1X63915Y61159D2*
G3X64581Y61826I455J211D1*
G1X63915Y61159D2*
G3X63825Y61159I-45J-21D1*
G1X62915Y61159D2*
G3X63825Y61159I455J211D1*
G1X62915Y61159D2*
G3X62825Y61159I-45J-21D1*
G1X61915Y61159D2*
G3X62825Y61159I455J211D1*
G1X61915Y61159D2*
G3X61825Y61159I-45J-21D1*
G1X60915Y61159D2*
G3X61825Y61159I455J211D1*
G1X60915Y61159D2*
G3X60825Y61159I-45J-21D1*
G1X59915Y61159D2*
G3X60825Y61159I455J211D1*
G1X59915Y61159D2*
G3X59825Y61159I-45J-21D1*
G1X58915Y61159D2*
G3X59825Y61159I455J211D1*
G1X58915Y61159D2*
G3X58825Y61159I-45J-21D1*
G1X57915Y61159D2*
G3X58825Y61159I455J211D1*
G1X57915Y61159D2*
G3X57825Y61159I-45J-21D1*
G1X56915Y61159D2*
G3X57825Y61159I455J211D1*
G1X56915Y61159D2*
G3X56825Y61159I-45J-21D1*
G1X55915Y61159D2*
G3X56825Y61159I455J211D1*
G1X55915Y61159D2*
G3X55825Y61159I-45J-21D1*
G1X54915Y61159D2*
G3X55825Y61159I455J211D1*
G1X54915Y61159D2*
G3X54825Y61159I-45J-21D1*
G1X53915Y61159D2*
G3X54825Y61159I455J211D1*
G1X53915Y61159D2*
G3X53825Y61159I-45J-21D1*
G1X52915Y61159D2*
G3X53825Y61159I455J211D1*
G1X52915Y61159D2*
G3X52825Y61159I-45J-21D1*
G1X51915Y61159D2*
G3X52825Y61159I455J211D1*
G1X51915Y61159D2*
G3X51825Y61159I-45J-21D1*
G1X50915Y61159D2*
G3X51825Y61159I455J211D1*
G1X50915Y61159D2*
G3X50825Y61159I-45J-21D1*
G1X49915Y61159D2*
G3X50825Y61159I455J211D1*
G1X49915Y61159D2*
G3X49825Y61159I-45J-21D1*
G1X48915Y61159D2*
G3X49825Y61159I455J211D1*
G1X48915Y61159D2*
G3X48825Y61159I-45J-21D1*
G1X47915Y61159D2*
G3X48825Y61159I455J211D1*
G1X47915Y61159D2*
G3X47825Y61159I-45J-21D1*
G1X46961Y61079D2*
G3X47825Y61159I409J291D1*
G1X46961Y61079D2*
G3X46872Y61050I-40J-29D1*
G74*
G1X46872Y61035D1*
G1X46705Y60868D2*
G75*
G3X46872Y61035I0J167D1*
G74*
G1X46705Y60868D2*
G1X46035Y60868D1*
G1X45981Y60877D2*
G75*
G3X46035Y60868I55J158D1*
G1X45981Y60877D2*
G3X45915Y60831I-16J-47D1*
G74*
G1X45915Y60368D1*
G75*
G3X45992Y60327I49J0D1*
G1X46504Y59919D2*
G3X45992Y60327I-323J121D1*
G1X46504Y59919D2*
G3X46550Y59852I46J-17D1*
G74*
G1X47087Y59852D1*
G1X47230Y59772D2*
G75*
G3X47087Y59852I-143J-87D1*
G1X47230Y59772D2*
G3X47314Y59772I42J26D1*
G1X47457Y59852D2*
G3X47314Y59772I0J-167D1*
G74*
G1X47457Y59852D2*
G1X48087Y59852D1*
G1X48230Y59772D2*
G75*
G3X48087Y59852I-143J-87D1*
G1X48230Y59772D2*
G3X48314Y59772I42J26D1*
G1X48457Y59852D2*
G3X48314Y59772I0J-167D1*
G74*
G1X48457Y59852D2*
G1X49087Y59852D1*
G1X49230Y59772D2*
G75*
G3X49087Y59852I-143J-87D1*
G1X49230Y59772D2*
G3X49314Y59772I42J26D1*
G1X49457Y59852D2*
G3X49314Y59772I0J-167D1*
G74*
G1X49457Y59852D2*
G1X50087Y59852D1*
G1X50230Y59772D2*
G75*
G3X50087Y59852I-143J-87D1*
G1X50230Y59772D2*
G3X50314Y59772I42J26D1*
G1X50457Y59852D2*
G3X50314Y59772I0J-167D1*
G74*
G1X50457Y59852D2*
G1X51087Y59852D1*
G1X51230Y59772D2*
G75*
G3X51087Y59852I-143J-87D1*
G1X51230Y59772D2*
G3X51314Y59772I42J26D1*
G1X51457Y59852D2*
G3X51314Y59772I0J-167D1*
G74*
G1X51457Y59852D2*
G1X52087Y59852D1*
G1X52230Y59772D2*
G75*
G3X52087Y59852I-143J-87D1*
G1X52230Y59772D2*
G3X52314Y59772I42J26D1*
G1X52457Y59852D2*
G3X52314Y59772I0J-167D1*
G74*
G1X52457Y59852D2*
G1X53087Y59852D1*
G1X53230Y59772D2*
G75*
G3X53087Y59852I-143J-87D1*
G1X53230Y59772D2*
G3X53314Y59772I42J26D1*
G1X53457Y59852D2*
G3X53314Y59772I0J-167D1*
G74*
G1X53457Y59852D2*
G1X54087Y59852D1*
G1X54230Y59772D2*
G75*
G3X54087Y59852I-143J-87D1*
G1X54230Y59772D2*
G3X54314Y59772I42J26D1*
G1X54457Y59852D2*
G3X54314Y59772I0J-167D1*
G74*
G1X54457Y59852D2*
G1X55087Y59852D1*
G1X55230Y59772D2*
G75*
G3X55087Y59852I-143J-87D1*
G1X55230Y59772D2*
G3X55314Y59772I42J26D1*
G1X55457Y59852D2*
G3X55314Y59772I0J-167D1*
G74*
G1X55457Y59852D2*
G1X56087Y59852D1*
G1X56254Y59685D2*
G75*
G3X56087Y59852I-167J0D1*
G74*
G1X56254Y59685D2*
G1X56254Y59055D1*
G1X56087Y58888D2*
G75*
G3X56254Y59055I0J167D1*
G74*
G1X56087Y58888D2*
G1X55457Y58888D1*
G1X55314Y58968D2*
G75*
G3X55457Y58888I143J87D1*
G1X55314Y58968D2*
G3X55230Y58968I-42J-25D1*
G1X55087Y58888D2*
G3X55230Y58968I0J167D1*
G74*
G1X55087Y58888D2*
G1X54457Y58888D1*
G1X54314Y58968D2*
G75*
G3X54457Y58888I143J87D1*
G1X54314Y58968D2*
G3X54230Y58968I-42J-25D1*
G1X54087Y58888D2*
G3X54230Y58968I0J167D1*
G74*
G1X54087Y58888D2*
G1X53457Y58888D1*
G1X53314Y58968D2*
G75*
G3X53457Y58888I143J87D1*
G1X53314Y58968D2*
G3X53230Y58968I-42J-25D1*
G1X53087Y58888D2*
G3X53230Y58968I0J167D1*
G74*
G1X53087Y58888D2*
G1X52457Y58888D1*
G1X52314Y58968D2*
G75*
G3X52457Y58888I143J87D1*
G1X52314Y58968D2*
G3X52230Y58968I-42J-25D1*
G1X52087Y58888D2*
G3X52230Y58968I0J167D1*
G74*
G1X52087Y58888D2*
G1X51457Y58888D1*
G1X51314Y58968D2*
G75*
G3X51457Y58888I143J87D1*
G1X51314Y58968D2*
G3X51230Y58968I-42J-25D1*
G1X51087Y58888D2*
G3X51230Y58968I0J167D1*
G74*
G1X51087Y58888D2*
G1X50457Y58888D1*
G1X50314Y58968D2*
G75*
G3X50457Y58888I143J87D1*
G1X50314Y58968D2*
G3X50230Y58968I-42J-25D1*
G1X50087Y58888D2*
G3X50230Y58968I0J167D1*
G74*
G1X50087Y58888D2*
G1X49457Y58888D1*
G1X49314Y58968D2*
G75*
G3X49457Y58888I143J87D1*
G1X49314Y58968D2*
G3X49230Y58968I-42J-25D1*
G1X49199Y58931D2*
G3X49230Y58968I-113J124D1*
G1X49199Y58931D2*
G3X49210Y58851I33J-36D1*
G1X49209Y58235D2*
G3X49210Y58851I-154J308D1*
G1X49209Y58235D2*
G3X49197Y58157I22J-44D1*
G74*
G1X50404Y56950D1*
G1X50404Y56572D1*
G75*
G3X50475Y56528I49J0D1*
G1X50475Y55913D2*
G3X50475Y56528I155J308D1*
G1X50475Y55913D2*
G3X50404Y55869I-22J-44D1*
G74*
G1X50404Y54485D1*
G75*
G3X50475Y54442I49J0D1*
G1X50475Y53826D2*
G3X50475Y54442I155J308D1*
G1X50475Y53826D2*
G3X50404Y53782I-22J-44D1*
G74*
G1X50404Y52478D1*
G75*
G3X50475Y52434I49J0D1*
G1X50475Y51818D2*
G3X50475Y52434I155J308D1*
G1X50475Y51818D2*
G3X50404Y51774I-22J-44D1*
G74*
G1X50404Y50509D1*
G75*
G3X50475Y50465I49J0D1*
G1X50475Y49850D2*
G3X50475Y50465I155J308D1*
G1X50475Y49850D2*
G3X50404Y49806I-22J-44D1*
G74*
G1X50404Y48501D1*
G75*
G3X50475Y48457I49J0D1*
G1X50475Y47842D2*
G3X50475Y48457I155J308D1*
G1X50475Y47842D2*
G3X50404Y47798I-22J-44D1*
G74*
G1X50404Y44660D1*
G75*
G3X50470Y44614I49J0D1*
G1X50470Y43969D2*
G3X50470Y44614I121J323D1*
G1X50470Y43969D2*
G3X50404Y43923I-17J-46D1*
G74*
G1X50404Y42815D1*
G1X49115Y41506D1*
G1X48958Y41506D1*
G1X48958Y41506D1*
G1X48957Y41506D2*
G1X48958Y41506D1*
G1X48957Y41506D2*
G1X48604Y41506D1*
G75*
G3X48557Y41442I0J-49D1*
G1X47900Y41442D2*
G3X48557Y41442I329J-103D1*
G1X47900Y41442D2*
G3X47853Y41506I-47J15D1*
G74*
G1X47048Y41506D1*
G75*
G3X47014Y41492I0J-49D1*
G74*
G1X46288Y40778D1*
G75*
G3X46314Y40695I34J-35D1*
G1X46002Y40127D2*
G3X46314Y40694I258J228D1*
G1X46002Y40127D2*
G3X45915Y40094I-37J-33D1*
G74*
G1X45915Y38743D1*
G75*
G3X46001Y38710I49J0D1*
G1X46825Y38581D2*
G3X46001Y38710I-455J-211D1*
G1X46825Y38581D2*
G3X46915Y38581I45J21D1*
G1X47825Y38581D2*
G3X46915Y38581I-455J-211D1*
G1X47825Y38581D2*
G3X47915Y38581I45J21D1*
G1X48825Y38581D2*
G3X47915Y38581I-455J-211D1*
G1X48825Y38581D2*
G3X48915Y38581I45J21D1*
G1X49515Y38851D2*
G3X48915Y38581I-145J-481D1*
G1X49515Y38851D2*
G3X49579Y38903I14J47D1*
G1X50265Y38921D2*
G3X49579Y38903I-344J16D1*
G1X50265Y38921D2*
G3X50320Y38870I49J-2D1*
G1X50825Y38581D2*
G3X50320Y38870I-455J-211D1*
G1X50825Y38581D2*
G3X50915Y38581I45J21D1*
G1X51486Y38859D2*
G3X50915Y38581I-116J-488D1*
G1X51486Y38859D2*
G3X51546Y38910I11J48D1*
G1X52234Y38917D2*
G3X51546Y38910I-344J20D1*
G1X52234Y38917D2*
G3X52291Y38866I49J-3D1*
G1X52825Y38581D2*
G3X52291Y38866I-455J-211D1*
G1X52825Y38581D2*
G3X52915Y38581I45J21D1*
G1X53530Y38846D2*
G3X52915Y38581I-160J-476D1*
G1X53530Y38846D2*
G3X53595Y38898I16J47D1*
G1X54281Y38922D2*
G3X53595Y38898I-344J15D1*
G1X54281Y38922D2*
G3X54334Y38871I49J-2D1*
G1X54825Y38581D2*
G3X54334Y38871I-455J-211D1*
G1X54825Y38581D2*
G3X54915Y38581I45J21D1*
G1X55506Y38853D2*
G3X54915Y38581I-136J-483D1*
G1X55506Y38853D2*
G3X55567Y38910I13J47D1*
G1X56246Y38924D2*
G3X55567Y38910I-340J53D1*
G1X56246Y38924D2*
G3X56301Y38867I49J-7D1*
G1X56825Y38581D2*
G3X56301Y38867I-455J-211D1*
G1X56825Y38581D2*
G3X56915Y38581I45J21D1*
G1X57545Y38841D2*
G3X56915Y38581I-175J-470D1*
G1X57545Y38841D2*
G3X57611Y38893I17J46D1*
G1X58297Y38923D2*
G3X57611Y38893I-344J14D1*
G1X58297Y38923D2*
G3X58348Y38872I49J-2D1*
G1X58825Y38581D2*
G3X58348Y38872I-455J-211D1*
G1X58825Y38581D2*
G3X58915Y38581I45J21D1*
G1X59553Y38838D2*
G3X58915Y38581I-183J-468D1*
G1X59553Y38838D2*
G3X59619Y38890I18J46D1*
G1X60305Y38923D2*
G3X59619Y38890I-344J14D1*
G1X60305Y38923D2*
G3X60355Y38872I49J-2D1*
G1X60825Y38581D2*
G3X60355Y38872I-455J-211D1*
G1X60825Y38581D2*
G3X60915Y38581I45J21D1*
G1X61825Y38581D2*
G3X60915Y38581I-455J-211D1*
G1X61825Y38581D2*
G3X61915Y38581I45J21D1*
G1X62825Y38581D2*
G3X61915Y38581I-455J-211D1*
G1X62825Y38581D2*
G3X62915Y38581I45J21D1*
G1X63825Y38581D2*
G3X62915Y38581I-455J-211D1*
G1X63825Y38581D2*
G3X63915Y38581I45J21D1*
G1X64581Y37915D2*
G3X63915Y38581I-211J455D1*
G1X64581Y37915D2*
G3X64581Y37825I21J-45D1*
G1X63915Y37159D2*
G3X64581Y37826I455J211D1*
G1X63915Y37159D2*
G3X63825Y37159I-45J-21D1*
G1X62915Y37159D2*
G3X63825Y37159I455J211D1*
G1X62915Y37159D2*
G3X62825Y37159I-45J-21D1*
G1X61915Y37159D2*
G3X62825Y37159I455J211D1*
G1X61915Y37159D2*
G3X61825Y37159I-45J-21D1*
G1X60915Y37159D2*
G3X61825Y37159I455J211D1*
G1X60915Y37159D2*
G3X60825Y37159I-45J-21D1*
G1X60253Y36882D2*
G3X60825Y37159I118J488D1*
G1X60253Y36882D2*
G3X60216Y36792I-11J-48D1*
G1X60371Y36401D2*
G3X60216Y36792I-331J95D1*
G1X60371Y36401D2*
G3X60418Y36339I47J-14D1*
G74*
G1X61629Y36339D1*
G75*
G3X61677Y36401I0J49D1*
G1X62339Y36401D2*
G3X61677Y36401I-331J95D1*
G1X62339Y36401D2*
G3X62386Y36339I47J-14D1*
G74*
G1X63598Y36339D1*
G75*
G3X63645Y36401I0J49D1*
G1X64308Y36401D2*
G3X63645Y36401I-331J95D1*
G1X64308Y36401D2*
G3X64355Y36339I47J-14D1*
G74*
G1X67290Y36339D1*
G75*
G3X67338Y36396I0J49D1*
G1X68016Y36396D2*
G3X67338Y36396I-339J60D1*
G1X68016Y36396D2*
G3X68065Y36339I48J-9D1*
G74*
G1X69455Y36339D1*
G75*
G3X69503Y36396I0J49D1*
G1X70187Y36458D2*
G3X69503Y36396I-345J-2D1*
G74*
G1X70187Y36458D2*
G1X70187Y36457D1*
G1X70187Y36455D1*
G1X70182Y36396D2*
G75*
G3X70187Y36455I-339J60D1*
G1X70182Y36396D2*
G3X70230Y36339I48J-9D1*
G74*
G1X70236Y36339D1*
G75*
G3X70285Y36388I0J49D1*
G74*
G1X70285Y36455D1*
G1X70285Y36457D1*
G1X70285Y36459D1*
G1X70285Y40984D1*
G75*
G3X70197Y41014I-49J0D1*
G1X70197Y41427D2*
G3X70197Y41014I-276J-207D1*
G1X70197Y41427D2*
G3X70285Y41457I39J30D1*
G74*
G1X70285Y41949D1*
G1X70285Y41950D2*
G1X70285Y41949D1*
G1X70285Y41950D2*
G1X70285Y41950D1*
G1X70285Y42131D1*
G1X71515Y43376D1*
G1X71712Y43376D1*
G1X71712Y43376D1*
G1X71713Y43376D2*
G1X71712Y43376D1*
G1X71713Y43376D2*
G1X74248Y43376D1*
G75*
G3X74283Y43390I0J49D1*
G74*
G1X74408Y43515D1*
G1X74408Y43516D1*
G1X75291Y44415D1*
G75*
G3X75305Y44450I-35J34D1*
G1X58098Y36840D2*
G3X58126Y36932I4J49D1*
G1X57915Y37159D2*
G3X58126Y36932I455J211D1*
G1X57915Y37159D2*
G3X57825Y37159I-45J-21D1*
G1X56915Y37159D2*
G3X57825Y37159I455J211D1*
G1X56915Y37159D2*
G3X56825Y37159I-45J-21D1*
G1X56329Y36870D2*
G3X56825Y37159I41J500D1*
G1X56329Y36870D2*
G3X56297Y36780I-4J-49D1*
G1X56434Y36401D2*
G3X56297Y36780I-331J95D1*
G1X56434Y36401D2*
G3X56481Y36339I47J-14D1*
G74*
G1X57692Y36339D1*
G75*
G3X57740Y36401I0J49D1*
G1X58098Y36840D2*
G3X57740Y36401I-27J-343D1*
G1X60103Y36835D2*
G3X60135Y36927I9J48D1*
G1X59915Y37159D2*
G3X60135Y36927I455J211D1*
G1X59915Y37159D2*
G3X59825Y37159I-45J-21D1*
G1X58915Y37159D2*
G3X59825Y37159I455J211D1*
G1X58915Y37159D2*
G3X58825Y37159I-45J-21D1*
G1X58294Y36874D2*
G3X58825Y37159I76J496D1*
G1X58294Y36874D2*
G3X58260Y36784I-7J-49D1*
G1X58402Y36401D2*
G3X58260Y36784I-331J95D1*
G1X58402Y36401D2*
G3X58449Y36339I47J-14D1*
G74*
G1X59661Y36339D1*
G75*
G3X59708Y36401I0J49D1*
G1X60103Y36835D2*
G3X59708Y36401I-64J-339D1*
G1X74380Y46256D2*
G3X74380Y46256I-659J0D1*
G1X74380Y47756D2*
G3X74380Y47756I-659J0D1*
G1X74421Y49344D2*
G3X74077Y49865I-51J341D1*
G1X74421Y49344D2*
G3X74379Y49293I7J-49D1*
G1X74378Y49205D2*
G3X74379Y49293I-657J52D1*
G1X74378Y49205D2*
G3X74415Y49153I49J-4D1*
G1X74042Y48632D2*
G3X74415Y49153I289J187D1*
G1X74042Y48632D2*
G3X73981Y48650I-41J-27D1*
G1X73387Y48687D2*
G3X73981Y48650I334J569D1*
G1X73387Y48687D2*
G3X73321Y48671I-25J-42D1*
G1X72689Y48893D2*
G3X73321Y48671I343J-34D1*
G1X72689Y48893D2*
G3X72640Y48947I-49J5D1*
G1X72674Y49634D2*
G3X72640Y48947I-36J-343D1*
G1X72674Y49634D2*
G3X72728Y49688I5J49D1*
G1X73380Y49878D2*
G3X72728Y49688I-309J-153D1*
G1X73380Y49878D2*
G3X73444Y49855I44J22D1*
G1X74013Y49847D2*
G3X73444Y49855I-292J-591D1*
G1X74013Y49847D2*
G3X74077Y49865I22J44D1*
G1X74341Y50756D2*
G3X74341Y50756I-620J0D1*
G1X74380Y52256D2*
G3X74380Y52256I-659J0D1*
G1X74380Y53756D2*
G3X74380Y53756I-659J0D1*
G1X68219Y41535D2*
G3X68219Y41535I-345J0D1*
G1X69022Y46575D2*
G3X69022Y46575I-541J0D1*
G1X68455Y50236D2*
G3X68455Y50236I-345J0D1*
G1X68217Y53070D2*
G3X67940Y53576I263J473D1*
G1X68217Y53070D2*
G3X68149Y53047I-24J-43D1*
G1X67884Y53530D2*
G3X68149Y53047I-49J-341D1*
G1X67884Y53530D2*
G3X67940Y53576I7J49D1*
G1X69163Y61063D2*
G3X69163Y61063I-345J0D1*
G1X68258Y58661D2*
G3X68258Y58661I-345J0D1*
G1X66998Y41850D2*
G3X66998Y41850I-345J0D1*
G1X65935Y36969D2*
G3X65935Y36969I-344J0D1*
G1X65935Y38150D2*
G3X65935Y38150I-344J0D1*
G1X65935Y39370D2*
G3X65935Y39370I-344J0D1*
G1X65974Y40669D2*
G3X65974Y40669I-345J0D1*
G1X66093Y41457D2*
G3X66093Y41457I-345J0D1*
G74*
G1X66982Y46949D2*
G1X66982Y46201D1*
G1X66854Y46073D2*
G75*
G3X66982Y46201I0J128D1*
G74*
G1X66854Y46073D2*
G1X66106Y46073D1*
G1X65978Y46201D2*
G75*
G3X66106Y46073I128J0D1*
G74*
G1X65978Y46201D2*
G1X65978Y46949D1*
G1X66106Y47077D2*
G75*
G3X65978Y46949I0J-128D1*
G74*
G1X66106Y47077D2*
G1X66854Y47077D1*
G1X66982Y46949D2*
G75*
G3X66854Y47077I-128J0D1*
G1X67077Y50236D2*
G3X67077Y50236I-345J0D1*
G1X66093Y50236D2*
G3X66093Y50236I-345J0D1*
G74*
G1X66982Y53917D2*
G1X66982Y53169D1*
G1X66854Y53041D2*
G75*
G3X66982Y53169I0J128D1*
G74*
G1X66854Y53041D2*
G1X66106Y53041D1*
G1X65978Y53169D2*
G75*
G3X66106Y53041I128J0D1*
G74*
G1X65978Y53169D2*
G1X65978Y53917D1*
G1X66106Y54045D2*
G75*
G3X65978Y53917I0J-128D1*
G74*
G1X66106Y54045D2*
G1X66854Y54045D1*
G1X66982Y53917D2*
G75*
G3X66854Y54045I-128J0D1*
G1X67156Y58268D2*
G3X67156Y58268I-345J0D1*
G1X67313Y59095D2*
G3X67313Y59095I-345J0D1*
G1X67549Y60197D2*
G3X67549Y60197I-345J0D1*
G1X66014Y59173D2*
G3X66014Y59173I-345J0D1*
G1X66289Y60079D2*
G3X66289Y60079I-345J0D1*
G1X66939Y61417D2*
G3X66939Y61417I-522J0D1*
G1X67658Y62150D2*
G3X67219Y62535I-99J330D1*
G1X67658Y62150D2*
G3X67624Y62111I14J-47D1*
G1X67184Y62495D2*
G3X67624Y62111I99J-330D1*
G1X67184Y62495D2*
G3X67219Y62535I-14J47D1*
G1X64360Y39370D2*
G3X64360Y39370I-345J0D1*
G1X62352Y39370D2*
G3X62352Y39370I-345J0D1*
G74*
G1X64852Y40685D2*
G1X64852Y40055D1*
G1X64685Y39888D2*
G75*
G3X64852Y40055I0J167D1*
G74*
G1X64685Y39888D2*
G1X64055Y39888D1*
G1X63912Y39968D2*
G75*
G3X64055Y39888I143J87D1*
G1X63912Y39968D2*
G3X63828Y39968I-42J-26D1*
G1X63685Y39888D2*
G3X63828Y39968I0J167D1*
G74*
G1X63685Y39888D2*
G1X63055Y39888D1*
G1X62912Y39968D2*
G75*
G3X63055Y39888I143J87D1*
G1X62912Y39968D2*
G3X62828Y39968I-42J-26D1*
G1X62685Y39888D2*
G3X62828Y39968I0J167D1*
G74*
G1X62685Y39888D2*
G1X62055Y39888D1*
G1X61912Y39968D2*
G75*
G3X62055Y39888I143J87D1*
G1X61912Y39968D2*
G3X61828Y39968I-42J-26D1*
G1X61685Y39888D2*
G3X61828Y39968I0J167D1*
G74*
G1X61685Y39888D2*
G1X61055Y39888D1*
G1X60912Y39968D2*
G75*
G3X61055Y39888I143J87D1*
G1X60912Y39968D2*
G3X60828Y39968I-42J-26D1*
G1X60685Y39888D2*
G3X60828Y39968I0J167D1*
G74*
G1X60685Y39888D2*
G1X60055Y39888D1*
G1X59912Y39968D2*
G75*
G3X60055Y39888I143J87D1*
G1X59912Y39968D2*
G3X59828Y39968I-42J-26D1*
G1X59685Y39888D2*
G3X59828Y39968I0J167D1*
G74*
G1X59685Y39888D2*
G1X59055Y39888D1*
G1X58888Y40055D2*
G75*
G3X59055Y39888I167J0D1*
G74*
G1X58888Y40055D2*
G1X58888Y40685D1*
G1X59055Y40852D2*
G75*
G3X58888Y40685I0J-167D1*
G74*
G1X59055Y40852D2*
G1X59685Y40852D1*
G1X59828Y40772D2*
G75*
G3X59685Y40852I-143J-87D1*
G1X59828Y40772D2*
G3X59912Y40772I42J26D1*
G1X60055Y40852D2*
G3X59912Y40772I0J-167D1*
G74*
G1X60055Y40852D2*
G1X60685Y40852D1*
G1X60828Y40772D2*
G75*
G3X60685Y40852I-143J-87D1*
G1X60828Y40772D2*
G3X60912Y40772I42J26D1*
G1X61055Y40852D2*
G3X60912Y40772I0J-167D1*
G74*
G1X61055Y40852D2*
G1X61685Y40852D1*
G1X61828Y40772D2*
G75*
G3X61685Y40852I-143J-87D1*
G1X61828Y40772D2*
G3X61912Y40772I42J26D1*
G1X62055Y40852D2*
G3X61912Y40772I0J-167D1*
G74*
G1X62055Y40852D2*
G1X62685Y40852D1*
G1X62828Y40772D2*
G75*
G3X62685Y40852I-143J-87D1*
G1X62828Y40772D2*
G3X62912Y40772I42J26D1*
G1X63055Y40852D2*
G3X62912Y40772I0J-167D1*
G74*
G1X63055Y40852D2*
G1X63685Y40852D1*
G1X63828Y40772D2*
G75*
G3X63685Y40852I-143J-87D1*
G1X63828Y40772D2*
G3X63912Y40772I42J26D1*
G1X64055Y40852D2*
G3X63912Y40772I0J-167D1*
G74*
G1X64055Y40852D2*
G1X64685Y40852D1*
G1X64852Y40685D2*
G75*
G3X64685Y40852I-167J0D1*
G1X65069Y41850D2*
G3X65069Y41850I-345J0D1*
G1X65226Y58268D2*
G3X65226Y58268I-345J0D1*
G1X64321Y41339D2*
G3X64321Y41339I-345J0D1*
G1X63713Y46077D2*
G3X64069Y46657I224J262D1*
G1X63713Y46077D2*
G3X63649Y46077I-32J-37D1*
G1X63219Y46063D2*
G3X63649Y46077I207J276D1*
G1X63219Y46063D2*
G3X63159Y46063I-30J-39D1*
G1X62816Y46655D2*
G3X63159Y46063I137J-316D1*
G1X62816Y46655D2*
G3X62846Y46704I-20J45D1*
G1X63393Y47010D2*
G3X62846Y46704I-204J-278D1*
G1X63393Y47010D2*
G3X63457Y47015I29J40D1*
G1X64040Y46711D2*
G3X63457Y47015I-339J61D1*
G1X64040Y46711D2*
G3X64069Y46657I48J-9D1*
G1X61703Y41339D2*
G3X62047Y41683I344J0D1*
G1X61703Y41339D2*
G3X61654Y41388I-49J0D1*
G1X61998Y41732D2*
G3X61654Y41388I-345J0D1*
G1X61998Y41732D2*
G3X62047Y41683I49J0D1*
G1X63572Y50145D2*
G3X63564Y50802I-108J327D1*
G1X63572Y50145D2*
G3X63572Y50052I15J-47D1*
G1X63241Y49463D2*
G3X63572Y50052I224J262D1*
G1X63241Y49463D2*
G3X63177Y49463I-32J-37D1*
G1X62623Y49625D2*
G3X63177Y49463I330J99D1*
G1X62623Y49625D2*
G3X62583Y49660I-47J-14D1*
G1X62577Y50339D2*
G3X62583Y49660I61J-339D1*
G1X62577Y50339D2*
G3X62616Y50398I-9J48D1*
G1X62613Y50418D2*
G3X62616Y50398I340J54D1*
G1X62613Y50418D2*
G3X62578Y50458I-49J-8D1*
G1X62901Y51049D2*
G3X62578Y50457I-224J-262D1*
G1X62901Y51049D2*
G3X62965Y51049I32J37D1*
G1X63529Y50842D2*
G3X62965Y51049I-340J-54D1*
G1X63529Y50842D2*
G3X63564Y50802I49J8D1*
G1X64124Y53976D2*
G3X64124Y53976I-345J0D1*
G74*
G1X64852Y59685D2*
G1X64852Y59055D1*
G1X64685Y58888D2*
G75*
G3X64852Y59055I0J167D1*
G74*
G1X64685Y58888D2*
G1X64148Y58888D1*
G75*
G3X64102Y58821I0J-49D1*
G1X63457Y58821D2*
G3X64102Y58821I323J-121D1*
G1X63457Y58821D2*
G3X63411Y58888I-46J17D1*
G74*
G1X63055Y58888D1*
G1X62912Y58968D2*
G75*
G3X63055Y58888I143J87D1*
G1X62912Y58968D2*
G3X62828Y58968I-42J-26D1*
G1X62766Y58909D2*
G3X62828Y58968I-81J146D1*
G1X62766Y58909D2*
G3X62751Y58835I24J-43D1*
G1X62817Y58693D2*
G3X62751Y58835I-337J-71D1*
G1X62817Y58693D2*
G3X62886Y58659I48J10D1*
G1X62695Y58275D2*
G3X62886Y58659I337J71D1*
G1X62695Y58275D2*
G3X62626Y58310I-48J-10D1*
G1X62308Y58324D2*
G3X62626Y58310I172J298D1*
G1X62308Y58324D2*
G3X62259Y58324I-25J-43D1*
G1X62126Y58280D2*
G3X62259Y58324I-39J342D1*
G1X62126Y58280D2*
G3X62086Y58211I6J-49D1*
G1X61735Y57728D2*
G3X62086Y58211I37J342D1*
G1X61735Y57728D2*
G3X61700Y57640I-5J-49D1*
G1X61305Y57649D2*
G3X61700Y57640I191J-287D1*
G1X61305Y57649D2*
G3X61291Y57738I-27J41D1*
G1X61189Y57783D2*
G3X61291Y57738I190J288D1*
G1X61189Y57783D2*
G3X61134Y57783I-27J-41D1*
G1X61134Y58359D2*
G3X61134Y57783I-190J-288D1*
G1X61134Y58359D2*
G3X61189Y58359I27J41D1*
G1X61550Y58369D2*
G3X61189Y58359I-172J-298D1*
G1X61550Y58369D2*
G3X61599Y58369I25J43D1*
G1X61733Y58413D2*
G3X61599Y58369I39J-342D1*
G1X61733Y58413D2*
G3X61772Y58482I-6J49D1*
G1X61810Y58827D2*
G3X61772Y58482I277J-205D1*
G1X61810Y58827D2*
G3X61751Y58901I-40J29D1*
G1X61685Y58888D2*
G3X61751Y58901I0J167D1*
G74*
G1X61685Y58888D2*
G1X61055Y58888D1*
G1X60912Y58968D2*
G75*
G3X61055Y58888I143J87D1*
G1X60912Y58968D2*
G3X60828Y58968I-42J-26D1*
G1X60685Y58888D2*
G3X60828Y58968I0J167D1*
G74*
G1X60685Y58888D2*
G1X60055Y58888D1*
G1X59912Y58968D2*
G75*
G3X60055Y58888I143J87D1*
G1X59912Y58968D2*
G3X59828Y58968I-42J-26D1*
G1X59685Y58888D2*
G3X59828Y58968I0J167D1*
G74*
G1X59685Y58888D2*
G1X59055Y58888D1*
G1X58912Y58968D2*
G75*
G3X59055Y58888I143J87D1*
G1X58912Y58968D2*
G3X58828Y58968I-42J-26D1*
G1X58685Y58888D2*
G3X58828Y58968I0J167D1*
G74*
G1X58685Y58888D2*
G1X58055Y58888D1*
G1X57912Y58968D2*
G75*
G3X58055Y58888I143J87D1*
G1X57912Y58968D2*
G3X57828Y58968I-42J-26D1*
G1X57685Y58888D2*
G3X57828Y58968I0J167D1*
G74*
G1X57685Y58888D2*
G1X57055Y58888D1*
G1X56888Y59055D2*
G75*
G3X57055Y58888I167J0D1*
G74*
G1X56888Y59055D2*
G1X56888Y59685D1*
G1X57055Y59852D2*
G75*
G3X56888Y59685I0J-167D1*
G74*
G1X57055Y59852D2*
G1X57685Y59852D1*
G1X57828Y59772D2*
G75*
G3X57685Y59852I-143J-87D1*
G1X57828Y59772D2*
G3X57912Y59772I42J26D1*
G1X58055Y59852D2*
G3X57912Y59772I0J-167D1*
G74*
G1X58055Y59852D2*
G1X58685Y59852D1*
G1X58828Y59772D2*
G75*
G3X58685Y59852I-143J-87D1*
G1X58828Y59772D2*
G3X58912Y59772I42J26D1*
G1X59055Y59852D2*
G3X58912Y59772I0J-167D1*
G74*
G1X59055Y59852D2*
G1X59685Y59852D1*
G1X59828Y59772D2*
G75*
G3X59685Y59852I-143J-87D1*
G1X59828Y59772D2*
G3X59912Y59772I42J26D1*
G1X60055Y59852D2*
G3X59912Y59772I0J-167D1*
G74*
G1X60055Y59852D2*
G1X60685Y59852D1*
G1X60828Y59772D2*
G75*
G3X60685Y59852I-143J-87D1*
G1X60828Y59772D2*
G3X60912Y59772I42J26D1*
G1X61055Y59852D2*
G3X60912Y59772I0J-167D1*
G74*
G1X61055Y59852D2*
G1X61685Y59852D1*
G1X61828Y59772D2*
G75*
G3X61685Y59852I-143J-87D1*
G1X61828Y59772D2*
G3X61912Y59772I42J26D1*
G1X62055Y59852D2*
G3X61912Y59772I0J-167D1*
G74*
G1X62055Y59852D2*
G1X62685Y59852D1*
G1X62828Y59772D2*
G75*
G3X62685Y59852I-143J-87D1*
G1X62828Y59772D2*
G3X62912Y59772I42J26D1*
G1X63055Y59852D2*
G3X62912Y59772I0J-167D1*
G74*
G1X63055Y59852D2*
G1X63685Y59852D1*
G1X63828Y59772D2*
G75*
G3X63685Y59852I-143J-87D1*
G1X63828Y59772D2*
G3X63912Y59772I42J26D1*
G1X64055Y59852D2*
G3X63912Y59772I0J-167D1*
G74*
G1X64055Y59852D2*
G1X64685Y59852D1*
G1X64852Y59685D2*
G75*
G3X64685Y59852I-167J0D1*
G1X55935Y42756D2*
G3X55935Y42756I-344J0D1*
G1X56447Y50197D2*
G3X56447Y50197I-345J0D1*
G1X55935Y57913D2*
G3X55935Y57913I-344J0D1*
G1X55030Y41417D2*
G3X55030Y41417I-345J0D1*
G1X54990Y42756D2*
G3X54990Y42756I-345J0D1*
G1X53675Y43649D2*
G3X54050Y43751I262J-224D1*
G1X53675Y43649D2*
G3X53638Y43730I-37J32D1*
G74*
G1X53244Y43730D1*
G1X53077Y43898D2*
G75*
G3X53244Y43730I167J0D1*
G74*
G1X53077Y43898D2*
G1X53077Y44007D1*
G75*
G3X52983Y44026I-49J0D1*
G1X52983Y44399D2*
G3X52983Y44026I-423J-186D1*
G1X52983Y44399D2*
G3X53077Y44419I45J20D1*
G74*
G1X53077Y44528D1*
G1X53244Y44695D2*
G75*
G3X53077Y44528I0J-167D1*
G74*
G1X53244Y44695D2*
G1X53874Y44695D1*
G1X54041Y44528D2*
G75*
G3X53874Y44695I-167J0D1*
G74*
G1X54041Y44528D2*
G1X54041Y43898D1*
G1X54022Y43820D2*
G75*
G3X54041Y43898I-148J77D1*
G1X54022Y43820D2*
G3X54050Y43751I44J-23D1*
G1X54793Y50236D2*
G3X54793Y50236I-345J0D1*
G1X53494Y48228D2*
G3X53494Y48228I-345J0D1*
G1X53534Y50158D2*
G3X53534Y50158I-345J0D1*
G1X53534Y52165D2*
G3X53534Y52165I-345J0D1*
G1X53415Y54449D2*
G3X53415Y54449I-345J0D1*
G1X51919Y46929D2*
G3X51850Y47411I207J276D1*
G1X51919Y46929D2*
G3X51850Y46919I-30J-39D1*
G1X51782Y47402D2*
G3X51850Y46919I-207J-276D1*
G1X51782Y47402D2*
G3X51850Y47411I30J39D1*
G1X52619Y56161D2*
G3X52489Y56615I176J296D1*
G1X52619Y56161D2*
G3X52550Y56141I-25J-42D1*
G1X52420Y56595D2*
G3X52550Y56141I-176J-296D1*
G1X52420Y56595D2*
G3X52489Y56615I25J42D1*
G1X53140Y58268D2*
G3X53140Y58268I-345J0D1*
G1X50541Y41339D2*
G3X50541Y41339I-344J0D1*
G1X49518Y40354D2*
G3X49518Y40354I-345J0D1*
G1X48573Y39370D2*
G3X48573Y39370I-345J0D1*
G1X48258Y40158D2*
G3X48258Y40158I-345J0D1*
G1X51485Y41227D2*
G3X51438Y41505I287J191D1*
G1X51485Y41227D2*
G3X51396Y41212I-41J-27D1*
G1X51350Y41490D2*
G3X51396Y41212I-287J-191D1*
G1X51350Y41490D2*
G3X51438Y41505I41J27D1*
G1X58770Y40354D2*
G3X58770Y40354I-345J0D1*
G1X59119Y47221D2*
G3X59119Y47818I172J298D1*
G1X59119Y47221D2*
G3X59070Y47221I-25J-43D1*
G1X59070Y47818D2*
G3X59070Y47221I-172J-298D1*
G1X59070Y47818D2*
G3X59119Y47818I25J43D1*
G1X60226Y50421D2*
G3X59877Y50994I-108J327D1*
G1X60226Y50421D2*
G3X60226Y50327I15J-47D1*
G1X60247Y49681D2*
G3X60226Y50327I-129J320D1*
G1X60247Y49681D2*
G3X60217Y49646I18J-46D1*
G1X59606Y49518D2*
G3X60217Y49646I276J207D1*
G1X59606Y49518D2*
G3X59528Y49518I-39J-30D1*
G1X59144Y50052D2*
G3X59528Y49518I108J-327D1*
G1X59144Y50052D2*
G3X59144Y50145I-15J47D1*
G1X59198Y50813D2*
G3X59144Y50145I54J-340D1*
G1X59198Y50813D2*
G3X59237Y50847I-8J49D1*
G1X59808Y50994D2*
G3X59237Y50847I-241J-246D1*
G1X59808Y50994D2*
G3X59877Y50994I34J35D1*
G1X60169Y53043D2*
G3X59881Y53522I28J343D1*
G1X60169Y53043D2*
G3X60119Y53013I-4J-49D1*
G1X59631Y52851D2*
G3X60119Y53013I172J298D1*
G1X59631Y52851D2*
G3X59582Y52851I-25J-43D1*
G1X59220Y52862D2*
G3X59582Y52851I189J288D1*
G1X59220Y52862D2*
G3X59166Y52862I-27J-41D1*
G1X58869Y53477D2*
G3X59166Y52862I108J-327D1*
G1X58869Y53477D2*
G3X58869Y53570I-15J47D1*
G1X59314Y53964D2*
G3X58869Y53570I-338J-67D1*
G1X59314Y53964D2*
G3X59369Y53925I48J9D1*
G1X59752Y53548D2*
G3X59369Y53925I-343J34D1*
G1X59752Y53548D2*
G3X59801Y53494I49J-5D1*
G1X59831Y53493D2*
G3X59801Y53494I-29J-343D1*
G1X59831Y53493D2*
G3X59881Y53523I4J49D1*
G1X60226Y57756D2*
G3X60226Y57756I-345J0D1*
G74*
G1X57852Y40685D2*
G1X57852Y40055D1*
G1X57685Y39888D2*
G75*
G3X57852Y40055I0J167D1*
G74*
G1X57685Y39888D2*
G1X57055Y39888D1*
G1X56912Y39968D2*
G75*
G3X57055Y39888I143J87D1*
G1X56912Y39968D2*
G3X56828Y39968I-42J-26D1*
G1X56685Y39888D2*
G3X56828Y39968I0J167D1*
G74*
G1X56685Y39888D2*
G1X56055Y39888D1*
G1X55912Y39968D2*
G75*
G3X56055Y39888I143J87D1*
G1X55912Y39968D2*
G3X55828Y39968I-42J-26D1*
G1X55685Y39888D2*
G3X55828Y39968I0J167D1*
G74*
G1X55685Y39888D2*
G1X55055Y39888D1*
G1X54912Y39968D2*
G75*
G3X55055Y39888I143J87D1*
G1X54912Y39968D2*
G3X54828Y39968I-42J-26D1*
G1X54685Y39888D2*
G3X54828Y39968I0J167D1*
G74*
G1X54685Y39888D2*
G1X54055Y39888D1*
G1X53912Y39968D2*
G75*
G3X54055Y39888I143J87D1*
G1X53912Y39968D2*
G3X53828Y39968I-42J-26D1*
G1X53685Y39888D2*
G3X53828Y39968I0J167D1*
G74*
G1X53685Y39888D2*
G1X53055Y39888D1*
G1X52912Y39968D2*
G75*
G3X53055Y39888I143J87D1*
G1X52912Y39968D2*
G3X52828Y39968I-42J-26D1*
G1X52685Y39888D2*
G3X52828Y39968I0J167D1*
G74*
G1X52685Y39888D2*
G1X52055Y39888D1*
G1X51912Y39968D2*
G75*
G3X52055Y39888I143J87D1*
G1X51912Y39968D2*
G3X51828Y39968I-42J-26D1*
G1X51685Y39888D2*
G3X51828Y39968I0J167D1*
G74*
G1X51685Y39888D2*
G1X51055Y39888D1*
G1X50912Y39968D2*
G75*
G3X51055Y39888I143J87D1*
G1X50912Y39968D2*
G3X50828Y39968I-42J-26D1*
G1X50685Y39888D2*
G3X50828Y39968I0J167D1*
G74*
G1X50685Y39888D2*
G1X50055Y39888D1*
G1X49888Y40055D2*
G75*
G3X50055Y39888I167J0D1*
G74*
G1X49888Y40055D2*
G1X49888Y40685D1*
G1X50055Y40852D2*
G75*
G3X49888Y40685I0J-167D1*
G74*
G1X50055Y40852D2*
G1X50685Y40852D1*
G1X50828Y40772D2*
G75*
G3X50685Y40852I-143J-87D1*
G1X50828Y40772D2*
G3X50912Y40772I42J26D1*
G1X51055Y40852D2*
G3X50912Y40772I0J-167D1*
G74*
G1X51055Y40852D2*
G1X51685Y40852D1*
G1X51828Y40772D2*
G75*
G3X51685Y40852I-143J-87D1*
G1X51828Y40772D2*
G3X51912Y40772I42J26D1*
G1X52055Y40852D2*
G3X51912Y40772I0J-167D1*
G74*
G1X52055Y40852D2*
G1X52685Y40852D1*
G1X52828Y40772D2*
G75*
G3X52685Y40852I-143J-87D1*
G1X52828Y40772D2*
G3X52912Y40772I42J26D1*
G1X53055Y40852D2*
G3X52912Y40772I0J-167D1*
G74*
G1X53055Y40852D2*
G1X53685Y40852D1*
G1X53828Y40772D2*
G75*
G3X53685Y40852I-143J-87D1*
G1X53828Y40772D2*
G3X53912Y40772I42J26D1*
G1X54055Y40852D2*
G3X53912Y40772I0J-167D1*
G74*
G1X54055Y40852D2*
G1X54685Y40852D1*
G1X54828Y40772D2*
G75*
G3X54685Y40852I-143J-87D1*
G1X54828Y40772D2*
G3X54912Y40772I42J26D1*
G1X55055Y40852D2*
G3X54912Y40772I0J-167D1*
G74*
G1X55055Y40852D2*
G1X55517Y40852D1*
G75*
G3X55546Y40941I0J49D1*
G1X55828Y40885D2*
G3X55546Y40941I-80J335D1*
G1X55828Y40885D2*
G3X55804Y40803I11J-48D1*
G1X55828Y40772D2*
G3X55804Y40803I-143J-87D1*
G1X55828Y40772D2*
G3X55912Y40772I42J26D1*
G1X56055Y40852D2*
G3X55912Y40772I0J-167D1*
G74*
G1X56055Y40852D2*
G1X56685Y40852D1*
G1X56828Y40772D2*
G75*
G3X56685Y40852I-143J-87D1*
G1X56828Y40772D2*
G3X56912Y40772I42J26D1*
G1X57055Y40852D2*
G3X56912Y40772I0J-167D1*
G74*
G1X57055Y40852D2*
G1X57685Y40852D1*
G1X57852Y40685D2*
G75*
G3X57685Y40852I-167J0D1*
G1X57313Y50236D2*
G3X57313Y50236I-345J0D1*
G1X61722Y47559D2*
G3X61722Y47559I-344J0D1*
G1X62070Y50970D2*
G3X61617Y51449I-298J172D1*
G1X62070Y50970D2*
G3X62070Y50920I43J-25D1*
G1X62047Y50541D2*
G3X62070Y50920I-275J207D1*
G1X62047Y50541D2*
G3X62047Y50482I39J-30D1*
G1X62059Y50086D2*
G3X62047Y50482I-288J189D1*
G1X62059Y50086D2*
G3X62059Y50032I41J-27D1*
G1X62018Y49601D2*
G3X62059Y50032I-246J241D1*
G1X62018Y49601D2*
G3X62018Y49533I35J-34D1*
G1X61617Y48984D2*
G3X62018Y49533I155J308D1*
G1X61617Y48984D2*
G3X61572Y48984I-22J-44D1*
G1X61245Y48993D2*
G3X61572Y48984I172J298D1*
G1X61245Y48993D2*
G3X61196Y48993I-25J-43D1*
G1X60778Y49533D2*
G3X61196Y48993I246J-241D1*
G1X60778Y49533D2*
G3X60778Y49601I-35J34D1*
G1X60736Y50032D2*
G3X60778Y49601I288J-189D1*
G1X60736Y50032D2*
G3X60736Y50086I-41J27D1*
G1X60748Y50482D2*
G3X60736Y50086I276J-207D1*
G1X60748Y50482D2*
G3X60748Y50541I-39J30D1*
G1X60725Y50920D2*
G3X60748Y50541I298J-172D1*
G1X60725Y50920D2*
G3X60725Y50970I-43J25D1*
G1X61196Y51440D2*
G3X60725Y50970I-172J-298D1*
G1X61196Y51440D2*
G3X61245Y51440I25J43D1*
G1X61572Y51449D2*
G3X61245Y51440I-155J-308D1*
G1X61572Y51449D2*
G3X61617Y51449I22J44D1*
G1X62902Y53160D2*
G3X62885Y53847I12J344D1*
G1X62902Y53160D2*
G3X62858Y53135I-2J-49D1*
G1X62731Y53009D2*
G3X62858Y53135I-172J298D1*
G1X62731Y53009D2*
G3X62707Y52964I25J-43D1*
G1X62190Y53251D2*
G3X62706Y52964I172J-298D1*
G1X62190Y53251D2*
G3X62215Y53296I-25J43D1*
G1X62256Y53471D2*
G3X62215Y53296I303J-163D1*
G1X62256Y53471D2*
G3X62251Y53525I-43J23D1*
G1X62836Y53877D2*
G3X62251Y53525I-316J-137D1*
G1X62836Y53877D2*
G3X62885Y53847I45J20D1*
G1X69439Y37559D2*
G3X69439Y37559I-345J0D1*
G1X69597Y38819D2*
G3X69597Y38819I-345J0D1*
G1X69951Y39882D2*
G3X69951Y39882I-345J0D1*
G1X70226Y53189D2*
G3X70226Y53189I-345J0D1*
G74*
G1X59516Y36890D2*
G1X60161Y36890D1*
G1X59684Y36978D2*
G1X60056Y36978D1*
G1X59770Y37067D2*
G1X59970Y37067D1*
G1X59824Y37155D2*
G1X59916Y37155D1*
G1X58244Y36801D2*
G1X59879Y36801D1*
G1X58339Y36713D2*
G1X59771Y36713D1*
G1X58391Y36624D2*
G1X59720Y36624D1*
G1X58410Y36358D2*
G1X59700Y36358D1*
G1X58412Y36447D2*
G1X59698Y36447D1*
G1X58413Y36535D2*
G1X59697Y36535D1*
G1X58516Y36890D2*
G1X59225Y36890D1*
G1X58684Y36978D2*
G1X59056Y36978D1*
G1X58770Y37067D2*
G1X58970Y37067D1*
G1X58824Y37155D2*
G1X58916Y37155D1*
G1X57516Y36890D2*
G1X58151Y36890D1*
G1X57684Y36978D2*
G1X58056Y36978D1*
G1X57770Y37067D2*
G1X57970Y37067D1*
G1X57824Y37155D2*
G1X57916Y37155D1*
G1X56280Y36801D2*
G1X57911Y36801D1*
G1X56370Y36713D2*
G1X57803Y36713D1*
G1X56422Y36624D2*
G1X57751Y36624D1*
G1X56442Y36358D2*
G1X57732Y36358D1*
G1X56443Y36447D2*
G1X57730Y36447D1*
G1X56445Y36535D2*
G1X57729Y36535D1*
G1X56516Y36890D2*
G1X57225Y36890D1*
G1X56684Y36978D2*
G1X57056Y36978D1*
G1X56770Y37067D2*
G1X56970Y37067D1*
G1X56824Y37155D2*
G1X56916Y37155D1*
G1X50404Y55226D2*
G1X75305Y55226D1*
G1X50404Y55138D2*
G1X75305Y55138D1*
G1X50404Y55049D2*
G1X75305Y55049D1*
G1X50404Y54961D2*
G1X75305Y54961D1*
G1X50404Y54872D2*
G1X75305Y54872D1*
G1X53153Y54783D2*
G1X75305Y54783D1*
G1X53312Y54695D2*
G1X75305Y54695D1*
G1X53377Y54606D2*
G1X75305Y54606D1*
G1X53408Y54518D2*
G1X75305Y54518D1*
G1X53415Y54429D2*
G1X75305Y54429D1*
G1X74026Y54340D2*
G1X75305Y54340D1*
G1X74155Y54252D2*
G1X75305Y54252D1*
G1X74239Y54163D2*
G1X75305Y54163D1*
G1X74298Y54075D2*
G1X75305Y54075D1*
G1X74338Y53986D2*
G1X75305Y53986D1*
G1X74365Y53898D2*
G1X75305Y53898D1*
G1X74378Y53809D2*
G1X75305Y53809D1*
G1X74379Y53720D2*
G1X75305Y53720D1*
G1X74368Y53632D2*
G1X75305Y53632D1*
G1X74345Y53543D2*
G1X75305Y53543D1*
G1X74307Y53455D2*
G1X75305Y53455D1*
G1X74252Y53366D2*
G1X75305Y53366D1*
G1X74174Y53277D2*
G1X75305Y53277D1*
G1X74057Y53189D2*
G1X75305Y53189D1*
G1X73791Y53100D2*
G1X75305Y53100D1*
G1X70177Y53012D2*
G1X75305Y53012D1*
G1X70101Y52923D2*
G1X75305Y52923D1*
G1X74037Y52835D2*
G1X75305Y52835D1*
G1X74162Y52746D2*
G1X75305Y52746D1*
G1X74244Y52657D2*
G1X75305Y52657D1*
G1X74301Y52569D2*
G1X75305Y52569D1*
G1X74341Y52480D2*
G1X75305Y52480D1*
G1X74366Y52392D2*
G1X75305Y52392D1*
G1X74378Y52303D2*
G1X75305Y52303D1*
G1X74379Y52214D2*
G1X75305Y52214D1*
G1X74367Y52126D2*
G1X75305Y52126D1*
G1X74343Y52037D2*
G1X75305Y52037D1*
G1X74304Y51949D2*
G1X75305Y51949D1*
G1X74248Y51860D2*
G1X75305Y51860D1*
G1X74168Y51772D2*
G1X75305Y51772D1*
G1X74047Y51683D2*
G1X75305Y51683D1*
G1X50404Y51594D2*
G1X75305Y51594D1*
G1X50404Y51506D2*
G1X75305Y51506D1*
G1X61979Y51417D2*
G1X75305Y51417D1*
G1X73958Y51329D2*
G1X75305Y51329D1*
G1X74108Y51240D2*
G1X75305Y51240D1*
G1X74198Y51151D2*
G1X75305Y51151D1*
G1X74259Y51063D2*
G1X75305Y51063D1*
G1X74301Y50974D2*
G1X75305Y50974D1*
G1X74327Y50886D2*
G1X75305Y50886D1*
G1X74339Y50797D2*
G1X75305Y50797D1*
G1X74339Y50709D2*
G1X75305Y50709D1*
G1X74326Y50620D2*
G1X75305Y50620D1*
G1X74299Y50531D2*
G1X75305Y50531D1*
G1X74256Y50443D2*
G1X75305Y50443D1*
G1X74193Y50354D2*
G1X75305Y50354D1*
G1X74100Y50266D2*
G1X75305Y50266D1*
G1X73943Y50177D2*
G1X75305Y50177D1*
G1X68421Y50089D2*
G1X75305Y50089D1*
G1X74510Y50000D2*
G1X75305Y50000D1*
G1X74630Y49911D2*
G1X75305Y49911D1*
G1X74686Y49823D2*
G1X75305Y49823D1*
G1X74711Y49734D2*
G1X75305Y49734D1*
G1X74712Y49646D2*
G1X75305Y49646D1*
G1X74690Y49557D2*
G1X75305Y49557D1*
G1X74638Y49468D2*
G1X75305Y49468D1*
G1X74530Y49380D2*
G1X75305Y49380D1*
G1X74379Y49291D2*
G1X75305Y49291D1*
G1X74378Y49203D2*
G1X75305Y49203D1*
G1X74508Y49114D2*
G1X75305Y49114D1*
G1X74606Y49026D2*
G1X75305Y49026D1*
G1X74654Y48937D2*
G1X75305Y48937D1*
G1X74674Y48848D2*
G1X75305Y48848D1*
G1X74670Y48760D2*
G1X75305Y48760D1*
G1X74642Y48671D2*
G1X75305Y48671D1*
G1X74581Y48583D2*
G1X75305Y48583D1*
G1X74445Y48494D2*
G1X75305Y48494D1*
G1X73835Y48405D2*
G1X75305Y48405D1*
G1X74067Y48317D2*
G1X75305Y48317D1*
G1X74181Y48228D2*
G1X75305Y48228D1*
G1X74257Y48140D2*
G1X75305Y48140D1*
G1X74310Y48051D2*
G1X75305Y48051D1*
G1X74347Y47963D2*
G1X75305Y47963D1*
G1X74369Y47874D2*
G1X75305Y47874D1*
G1X74379Y47785D2*
G1X75305Y47785D1*
G1X74377Y47697D2*
G1X75305Y47697D1*
G1X74363Y47608D2*
G1X75305Y47608D1*
G1X74336Y47520D2*
G1X75305Y47520D1*
G1X74294Y47431D2*
G1X75305Y47431D1*
G1X74234Y47342D2*
G1X75305Y47342D1*
G1X74148Y47254D2*
G1X75305Y47254D1*
G1X74014Y47165D2*
G1X75305Y47165D1*
G1X68683Y47077D2*
G1X75305Y47077D1*
G1X68830Y46988D2*
G1X75305Y46988D1*
G1X73864Y46900D2*
G1X75305Y46900D1*
G1X74077Y46811D2*
G1X75305Y46811D1*
G1X74187Y46722D2*
G1X75305Y46722D1*
G1X74261Y46634D2*
G1X75305Y46634D1*
G1X74313Y46545D2*
G1X75305Y46545D1*
G1X74349Y46457D2*
G1X75305Y46457D1*
G1X74370Y46368D2*
G1X75305Y46368D1*
G1X74380Y46279D2*
G1X75305Y46279D1*
G1X74377Y46191D2*
G1X75305Y46191D1*
G1X74362Y46102D2*
G1X75305Y46102D1*
G1X74334Y46014D2*
G1X75305Y46014D1*
G1X74291Y45925D2*
G1X75305Y45925D1*
G1X74229Y45837D2*
G1X75305Y45837D1*
G1X74141Y45748D2*
G1X75305Y45748D1*
G1X74002Y45659D2*
G1X75305Y45659D1*
G1X50404Y45571D2*
G1X75305Y45571D1*
G1X50404Y45482D2*
G1X75305Y45482D1*
G1X50404Y45394D2*
G1X75305Y45394D1*
G1X50404Y45305D2*
G1X75305Y45305D1*
G1X50404Y45216D2*
G1X75305Y45216D1*
G1X50404Y45128D2*
G1X75305Y45128D1*
G1X50404Y45039D2*
G1X75305Y45039D1*
G1X50404Y44951D2*
G1X75305Y44951D1*
G1X50404Y44862D2*
G1X75305Y44862D1*
G1X50404Y44774D2*
G1X75305Y44774D1*
G1X53931Y44685D2*
G1X75305Y44685D1*
G1X54027Y44596D2*
G1X75305Y44596D1*
G1X54041Y44508D2*
G1X75305Y44508D1*
G1X54041Y44419D2*
G1X75295Y44419D1*
G1X50404Y55315D2*
G1X75285Y55315D1*
G1X54041Y44331D2*
G1X75208Y44331D1*
G1X50404Y55403D2*
G1X75196Y55403D1*
G1X54041Y44242D2*
G1X75121Y44242D1*
G1X50404Y55492D2*
G1X75108Y55492D1*
G1X54041Y44153D2*
G1X75034Y44153D1*
G1X50404Y55581D2*
G1X75019Y55581D1*
G1X54041Y44065D2*
G1X74947Y44065D1*
G1X50404Y55669D2*
G1X74931Y55669D1*
G1X54041Y43976D2*
G1X74860Y43976D1*
G1X50404Y55758D2*
G1X74842Y55758D1*
G1X54041Y43888D2*
G1X74773Y43888D1*
G1X50404Y55846D2*
G1X74753Y55846D1*
G1X54017Y43799D2*
G1X74686Y43799D1*
G1X50823Y55935D2*
G1X74665Y55935D1*
G1X54130Y43711D2*
G1X74599Y43711D1*
G1X52451Y56024D2*
G1X74576Y56024D1*
G1X54220Y43622D2*
G1X74512Y43622D1*
G1X52533Y56112D2*
G1X74488Y56112D1*
G1X54264Y43533D2*
G1X74425Y43533D1*
G1X53026Y56201D2*
G1X74399Y56201D1*
G1X54281Y43445D2*
G1X74337Y43445D1*
G1X53096Y56289D2*
G1X74311Y56289D1*
G1X73278Y50000D2*
G1X74230Y50000D1*
G1X53369Y48494D2*
G1X74216Y48494D1*
G1X73794Y49911D2*
G1X74110Y49911D1*
G1X73238Y48583D2*
G1X74080Y48583D1*
G1X70215Y53100D2*
G1X73650Y53100D1*
G1X73360Y49911D2*
G1X73647Y49911D1*
G1X53445Y48405D2*
G1X73606Y48405D1*
G1X68914Y46900D2*
G1X73577Y46900D1*
G1X68450Y50177D2*
G1X73498Y50177D1*
G1X62061Y51329D2*
G1X73483Y51329D1*
G1X50404Y45659D2*
G1X73440Y45659D1*
G1X52468Y47165D2*
G1X73427Y47165D1*
G1X73321Y48671D2*
G1X73416Y48671D1*
G1X53398Y54340D2*
G1X73415Y54340D1*
G1X62686Y52835D2*
G1X73404Y52835D1*
G1X50404Y51683D2*
G1X73394Y51683D1*
G1X70226Y53189D2*
G1X73384Y53189D1*
G1X53483Y48317D2*
G1X73374Y48317D1*
G1X68968Y46811D2*
G1X73364Y46811D1*
G1X68454Y50266D2*
G1X73341Y50266D1*
G1X62102Y51240D2*
G1X73333Y51240D1*
G1X50404Y45748D2*
G1X73300Y45748D1*
G1X61538Y47254D2*
G1X73293Y47254D1*
G1X63986Y54252D2*
G1X73286Y54252D1*
G1X62638Y52746D2*
G1X73279Y52746D1*
G1X50404Y51772D2*
G1X73273Y51772D1*
G1X70215Y53277D2*
G1X73267Y53277D1*
G1X53494Y48228D2*
G1X73260Y48228D1*
G1X69001Y46722D2*
G1X73254Y46722D1*
G1X68434Y50354D2*
G1X73248Y50354D1*
G1X62116Y51151D2*
G1X73243Y51151D1*
G1X50404Y45837D2*
G1X73212Y45837D1*
G1X61646Y47342D2*
G1X73207Y47342D1*
G1X64069Y54163D2*
G1X73202Y54163D1*
G1X62539Y52657D2*
G1X73197Y52657D1*
G1X53349Y51860D2*
G1X73193Y51860D1*
G1X70177Y53366D2*
G1X73189Y53366D1*
G1X68386Y50443D2*
G1X73185Y50443D1*
G1X53483Y48140D2*
G1X73184Y48140D1*
G1X63396Y51063D2*
G1X73182Y51063D1*
G1X69018Y46634D2*
G1X73180Y46634D1*
G1X50404Y45925D2*
G1X73150Y45925D1*
G1X61698Y47431D2*
G1X73147Y47431D1*
G1X68584Y54075D2*
G1X73143Y54075D1*
G1X68288Y50531D2*
G1X73143Y50531D1*
G1X63478Y50974D2*
G1X73140Y50974D1*
G1X50404Y52569D2*
G1X73140Y52569D1*
G1X53457Y51949D2*
G1X73137Y51949D1*
G1X70101Y53455D2*
G1X73134Y53455D1*
G1X53445Y48051D2*
G1X73131Y48051D1*
G1X69021Y46545D2*
G1X73128Y46545D1*
G1X63776Y50620D2*
G1X73116Y50620D1*
G1X63519Y50886D2*
G1X73114Y50886D1*
G1X64051Y46014D2*
G1X73107Y46014D1*
G1X61720Y47520D2*
G1X73105Y47520D1*
G1X68792Y53986D2*
G1X73103Y53986D1*
G1X63715Y50709D2*
G1X73102Y50709D1*
G1X63580Y50797D2*
G1X73102Y50797D1*
G1X53329Y52480D2*
G1X73100Y52480D1*
G1X53509Y52037D2*
G1X73098Y52037D1*
G1X69022Y53543D2*
G1X73096Y53543D1*
G1X53369Y47963D2*
G1X73094Y47963D1*
G1X69009Y46457D2*
G1X73092Y46457D1*
G1X68744Y46102D2*
G1X73079Y46102D1*
G1X61719Y47608D2*
G1X73078Y47608D1*
G1X68890Y53898D2*
G1X73076Y53898D1*
G1X53449Y52392D2*
G1X73075Y52392D1*
G1X53531Y52126D2*
G1X73074Y52126D1*
G1X69014Y53632D2*
G1X73073Y53632D1*
G1X61518Y47874D2*
G1X73072Y47874D1*
G1X68981Y46368D2*
G1X73071Y46368D1*
G1X68862Y46191D2*
G1X73064Y46191D1*
G1X61694Y47697D2*
G1X73064Y47697D1*
G1X68952Y53809D2*
G1X73063Y53809D1*
G1X53505Y52303D2*
G1X73063Y52303D1*
G1X53530Y52214D2*
G1X73062Y52214D1*
G1X68992Y53720D2*
G1X73062Y53720D1*
G1X61638Y47785D2*
G1X73062Y47785D1*
G1X68934Y46279D2*
G1X73061Y46279D1*
G1X68361Y50000D2*
G1X72864Y50000D1*
G1X50404Y48583D2*
G1X72825Y48583D1*
G1X68225Y49911D2*
G1X72782Y49911D1*
G1X50404Y48671D2*
G1X72742Y48671D1*
G1X63795Y49823D2*
G1X72741Y49823D1*
G1X63809Y49734D2*
G1X72727Y49734D1*
G1X63800Y49646D2*
G1X72712Y49646D1*
G1X50404Y48760D2*
G1X72701Y48760D1*
G1X50404Y48848D2*
G1X72687Y48848D1*
G1X50404Y48937D2*
G1X72670Y48937D1*
G1X61991Y49026D2*
G1X72419Y49026D1*
G1X63766Y49557D2*
G1X72418Y49557D1*
G1X62067Y49114D2*
G1X72342Y49114D1*
G1X63695Y49468D2*
G1X72342Y49468D1*
G1X62105Y49203D2*
G1X72305Y49203D1*
G1X62105Y49380D2*
G1X72305Y49380D1*
G1X62116Y49291D2*
G1X72293Y49291D1*
G1X53131Y56378D2*
G1X71584Y56378D1*
G1X53140Y56466D2*
G1X71497Y56466D1*
G1X54275Y43356D2*
G1X71495Y43356D1*
G1X53125Y56555D2*
G1X71410Y56555D1*
G1X54243Y43268D2*
G1X71408Y43268D1*
G1X53085Y56644D2*
G1X71322Y56644D1*
G1X54178Y43179D2*
G1X71320Y43179D1*
G1X53002Y56732D2*
G1X71235Y56732D1*
G1X55673Y43090D2*
G1X71233Y43090D1*
G1X50404Y56821D2*
G1X71148Y56821D1*
G1X55832Y43002D2*
G1X71145Y43002D1*
G1X50404Y56909D2*
G1X71061Y56909D1*
G1X55897Y42913D2*
G1X71058Y42913D1*
G1X50355Y56998D2*
G1X70973Y56998D1*
G1X55928Y42825D2*
G1X70970Y42825D1*
G1X61703Y57087D2*
G1X70886Y57087D1*
G1X55935Y42736D2*
G1X70883Y42736D1*
G1X61785Y57175D2*
G1X70799Y57175D1*
G1X55918Y42648D2*
G1X70795Y42648D1*
G1X61826Y57264D2*
G1X70712Y57264D1*
G1X55873Y42559D2*
G1X70708Y42559D1*
G1X61840Y57352D2*
G1X70624Y57352D1*
G1X55783Y42470D2*
G1X70620Y42470D1*
G1X61832Y57441D2*
G1X70537Y57441D1*
G1X49978Y42382D2*
G1X70533Y42382D1*
G1X61797Y57529D2*
G1X70449Y57529D1*
G1X49890Y42293D2*
G1X70445Y42293D1*
G1X61727Y57618D2*
G1X70361Y57618D1*
G1X49803Y42205D2*
G1X70358Y42205D1*
G1X61688Y57707D2*
G1X70285Y57707D1*
G1X66873Y42116D2*
G1X70285Y42116D1*
G1X66949Y42027D2*
G1X70285Y42027D1*
G1X67107Y63287D2*
G1X70285Y63287D1*
G1X67205Y63199D2*
G1X70285Y63199D1*
G1X67253Y63110D2*
G1X70285Y63110D1*
G1X67272Y63022D2*
G1X70285Y63022D1*
G1X67269Y62933D2*
G1X70285Y62933D1*
G1X67240Y62844D2*
G1X70285Y62844D1*
G1X67766Y62756D2*
G1X70285Y62756D1*
G1X67849Y62667D2*
G1X70285Y62667D1*
G1X67889Y62579D2*
G1X70285Y62579D1*
G1X67903Y62490D2*
G1X70285Y62490D1*
G1X67894Y62401D2*
G1X70285Y62401D1*
G1X67860Y62313D2*
G1X70285Y62313D1*
G1X67790Y62224D2*
G1X70285Y62224D1*
G1X67635Y62136D2*
G1X70285Y62136D1*
G1X67607Y62047D2*
G1X70285Y62047D1*
G1X67559Y61959D2*
G1X70285Y61959D1*
G1X67461Y61870D2*
G1X70285Y61870D1*
G1X66791Y61781D2*
G1X70285Y61781D1*
G1X66860Y61693D2*
G1X70285Y61693D1*
G1X66904Y61604D2*
G1X70285Y61604D1*
G1X66930Y61516D2*
G1X70285Y61516D1*
G1X66939Y61427D2*
G1X70285Y61427D1*
G1X69026Y61339D2*
G1X70285Y61339D1*
G1X69108Y61250D2*
G1X70285Y61250D1*
G1X69149Y61161D2*
G1X70285Y61161D1*
G1X69163Y61073D2*
G1X70285Y61073D1*
G1X69154Y60984D2*
G1X70285Y60984D1*
G1X69120Y60896D2*
G1X70285Y60896D1*
G1X69049Y60807D2*
G1X70285Y60807D1*
G1X45915Y60718D2*
G1X70285Y60718D1*
G1X45915Y60630D2*
G1X70285Y60630D1*
G1X67214Y60541D2*
G1X70285Y60541D1*
G1X67436Y60453D2*
G1X70285Y60453D1*
G1X67506Y60364D2*
G1X70285Y60364D1*
G1X67540Y60276D2*
G1X70285Y60276D1*
G1X67549Y60187D2*
G1X70285Y60187D1*
G1X67535Y60098D2*
G1X70285Y60098D1*
G1X67494Y60010D2*
G1X70285Y60010D1*
G1X67411Y59921D2*
G1X70285Y59921D1*
G1X66186Y59833D2*
G1X70285Y59833D1*
G1X66026Y59744D2*
G1X70285Y59744D1*
G1X64852Y59655D2*
G1X70285Y59655D1*
G1X64852Y59567D2*
G1X70285Y59567D1*
G1X65830Y59478D2*
G1X70285Y59478D1*
G1X67146Y59390D2*
G1X70285Y59390D1*
G1X67244Y59301D2*
G1X70285Y59301D1*
G1X67292Y59213D2*
G1X70285Y59213D1*
G1X67312Y59124D2*
G1X70285Y59124D1*
G1X67308Y59035D2*
G1X70285Y59035D1*
G1X70115Y58947D2*
G1X70285Y58947D1*
G1X67154Y58238D2*
G1X70285Y58238D1*
G1X67135Y58150D2*
G1X70285Y58150D1*
G1X67087Y58061D2*
G1X70285Y58061D1*
G1X66988Y57972D2*
G1X70285Y57972D1*
G1X62061Y57884D2*
G1X70285Y57884D1*
G1X61978Y57795D2*
G1X70285Y57795D1*
G1X66987Y41939D2*
G1X70285Y41939D1*
G1X68014Y41850D2*
G1X70285Y41850D1*
G1X68134Y41762D2*
G1X70285Y41762D1*
G1X68190Y41673D2*
G1X70285Y41673D1*
G1X68215Y41585D2*
G1X70285Y41585D1*
G1X70128Y41496D2*
G1X70285Y41496D1*
G1X70152Y40964D2*
G1X70285Y40964D1*
G1X65906Y40876D2*
G1X70285Y40876D1*
G1X65954Y40787D2*
G1X70285Y40787D1*
G1X65973Y40699D2*
G1X70285Y40699D1*
G1X65969Y40610D2*
G1X70285Y40610D1*
G1X65941Y40522D2*
G1X70285Y40522D1*
G1X65881Y40433D2*
G1X70285Y40433D1*
G1X65744Y40344D2*
G1X70285Y40344D1*
G1X64852Y40256D2*
G1X70285Y40256D1*
G1X69799Y40167D2*
G1X70285Y40167D1*
G1X69889Y40079D2*
G1X70285Y40079D1*
G1X69933Y39990D2*
G1X70285Y39990D1*
G1X69950Y39901D2*
G1X70285Y39901D1*
G1X69944Y39813D2*
G1X70285Y39813D1*
G1X69913Y39724D2*
G1X70285Y39724D1*
G1X69847Y39636D2*
G1X70285Y39636D1*
G1X69688Y39547D2*
G1X70285Y39547D1*
G1X65924Y39459D2*
G1X70285Y39459D1*
G1X65935Y39370D2*
G1X70285Y39370D1*
G1X65923Y39281D2*
G1X70285Y39281D1*
G1X65886Y39193D2*
G1X70285Y39193D1*
G1X69445Y39104D2*
G1X70285Y39104D1*
G1X69535Y39016D2*
G1X70285Y39016D1*
G1X69579Y38927D2*
G1X70285Y38927D1*
G1X69596Y38839D2*
G1X70285Y38839D1*
G1X69590Y38750D2*
G1X70285Y38750D1*
G1X69558Y38661D2*
G1X70285Y38661D1*
G1X69493Y38573D2*
G1X70285Y38573D1*
G1X69333Y38484D2*
G1X70285Y38484D1*
G1X65832Y38396D2*
G1X70285Y38396D1*
G1X65897Y38307D2*
G1X70285Y38307D1*
G1X65928Y38218D2*
G1X70285Y38218D1*
G1X65935Y38130D2*
G1X70285Y38130D1*
G1X65918Y38041D2*
G1X70285Y38041D1*
G1X65873Y37953D2*
G1X70285Y37953D1*
G1X69255Y37864D2*
G1X70285Y37864D1*
G1X69363Y37776D2*
G1X70285Y37776D1*
G1X69414Y37687D2*
G1X70285Y37687D1*
G1X69437Y37598D2*
G1X70285Y37598D1*
G1X69435Y37510D2*
G1X70285Y37510D1*
G1X69410Y37421D2*
G1X70285Y37421D1*
G1X69354Y37333D2*
G1X70285Y37333D1*
G1X69234Y37244D2*
G1X70285Y37244D1*
G1X65880Y37155D2*
G1X70285Y37155D1*
G1X65921Y37067D2*
G1X70285Y37067D1*
G1X65935Y36978D2*
G1X70285Y36978D1*
G1X65926Y36890D2*
G1X70285Y36890D1*
G1X69852Y36801D2*
G1X70285Y36801D1*
G1X70073Y36713D2*
G1X70285Y36713D1*
G1X70144Y36624D2*
G1X70285Y36624D1*
G1X70178Y36535D2*
G1X70285Y36535D1*
G1X70187Y36447D2*
G1X70285Y36447D1*
G1X67004Y63376D2*
G1X70285Y63376D1*
G1X70177Y58327D2*
G1X70281Y58327D1*
G1X70191Y36358D2*
G1X70276Y36358D1*
G1X68107Y58947D2*
G1X69885Y58947D1*
G1X67687Y36801D2*
G1X69833Y36801D1*
G1X67995Y58327D2*
G1X69823Y58327D1*
G1X68196Y58858D2*
G1X69749Y58858D1*
G1X68154Y58415D2*
G1X69725Y58415D1*
G1X68216Y41496D2*
G1X69714Y41496D1*
G1X65808Y40964D2*
G1X69691Y40964D1*
G1X68241Y58770D2*
G1X69689Y58770D1*
G1X68220Y58504D2*
G1X69676Y58504D1*
G1X68054Y52923D2*
G1X69663Y52923D1*
G1X69014Y53455D2*
G1X69663Y53455D1*
G1X68257Y58681D2*
G1X69661Y58681D1*
G1X68251Y58592D2*
G1X69657Y58592D1*
G1X68194Y41407D2*
G1X69632Y41407D1*
G1X64169Y41053D2*
G1X69620Y41053D1*
G1X67908Y36713D2*
G1X69612Y36713D1*
G1X68142Y41319D2*
G1X69591Y41319D1*
G1X68582Y53012D2*
G1X69587Y53012D1*
G1X68992Y53366D2*
G1X69586Y53366D1*
G1X65887Y41142D2*
G1X69586Y41142D1*
G1X68034Y41230D2*
G1X69577Y41230D1*
G1X68791Y53100D2*
G1X69549Y53100D1*
G1X68952Y53277D2*
G1X69549Y53277D1*
G1X67978Y36624D2*
G1X69541Y36624D1*
G1X68890Y53189D2*
G1X69537Y53189D1*
G1X65886Y39547D2*
G1X69525Y39547D1*
G1X68013Y36535D2*
G1X69507Y36535D1*
G1X68022Y36447D2*
G1X69498Y36447D1*
G1X68026Y36358D2*
G1X69494Y36358D1*
G1X64852Y40167D2*
G1X69413Y40167D1*
G1X65810Y39636D2*
G1X69365Y39636D1*
G1X64852Y40079D2*
G1X69324Y40079D1*
G1X45915Y39724D2*
G1X69300Y39724D1*
G1X64839Y39990D2*
G1X69279Y39990D1*
G1X45915Y39813D2*
G1X69269Y39813D1*
G1X64751Y39901D2*
G1X69262Y39901D1*
G1X65673Y38484D2*
G1X69171Y38484D1*
G1X65810Y39104D2*
G1X69059Y39104D1*
G1X64829Y38573D2*
G1X69011Y38573D1*
G1X60296Y39016D2*
G1X68969Y39016D1*
G1X65797Y37244D2*
G1X68955Y37244D1*
G1X64779Y38661D2*
G1X68946Y38661D1*
G1X65783Y37864D2*
G1X68934Y37864D1*
G1X60305Y38927D2*
G1X68925Y38927D1*
G1X64698Y38750D2*
G1X68915Y38750D1*
G1X64551Y38839D2*
G1X68908Y38839D1*
G1X64871Y37333D2*
G1X68835Y37333D1*
G1X64666Y37776D2*
G1X68827Y37776D1*
G1X64869Y37421D2*
G1X68779Y37421D1*
G1X64760Y37687D2*
G1X68775Y37687D1*
G1X64852Y37510D2*
G1X68754Y37510D1*
G1X64817Y37598D2*
G1X68752Y37598D1*
G1X66933Y61339D2*
G1X68612Y61339D1*
G1X45915Y60807D2*
G1X68588Y60807D1*
G1X66911Y61250D2*
G1X68530Y61250D1*
G1X64534Y60896D2*
G1X68518Y60896D1*
G1X66872Y61161D2*
G1X68489Y61161D1*
G1X66708Y60984D2*
G1X68484Y60984D1*
G1X66809Y61073D2*
G1X68475Y61073D1*
G1X68130Y53012D2*
G1X68378Y53012D1*
G1X64110Y54075D2*
G1X68377Y54075D1*
G1X66860Y47077D2*
G1X68277Y47077D1*
G1X66936Y46102D2*
G1X68216Y46102D1*
G1X66962Y53986D2*
G1X68169Y53986D1*
G1X66976Y46988D2*
G1X68131Y46988D1*
G1X66982Y46191D2*
G1X68099Y46191D1*
G1X66982Y53898D2*
G1X68071Y53898D1*
G1X66982Y46900D2*
G1X68047Y46900D1*
G1X66982Y46279D2*
G1X68027Y46279D1*
G1X66982Y53809D2*
G1X68009Y53809D1*
G1X66847Y49911D2*
G1X67996Y49911D1*
G1X66982Y46811D2*
G1X67993Y46811D1*
G1X66982Y46368D2*
G1X67980Y46368D1*
G1X66982Y53720D2*
G1X67969Y53720D1*
G1X66982Y46722D2*
G1X67960Y46722D1*
G1X66982Y46457D2*
G1X67952Y46457D1*
G1X66982Y53632D2*
G1X67946Y53632D1*
G1X66982Y46634D2*
G1X67942Y46634D1*
G1X66982Y46545D2*
G1X67940Y46545D1*
G1X66910Y50531D2*
G1X67933Y50531D1*
G1X66982Y53543D2*
G1X67925Y53543D1*
G1X66983Y50000D2*
G1X67860Y50000D1*
G1X67008Y50443D2*
G1X67835Y50443D1*
G1X67150Y58327D2*
G1X67832Y58327D1*
G1X67044Y50089D2*
G1X67799Y50089D1*
G1X67056Y50354D2*
G1X67787Y50354D1*
G1X67072Y50177D2*
G1X67771Y50177D1*
G1X67076Y50266D2*
G1X67767Y50266D1*
G1X66998Y41850D2*
G1X67734Y41850D1*
G1X67280Y58947D2*
G1X67720Y58947D1*
G1X66008Y41230D2*
G1X67714Y41230D1*
G1X67122Y58415D2*
G1X67672Y58415D1*
G1X65892Y36801D2*
G1X67668Y36801D1*
G1X67219Y58858D2*
G1X67631Y58858D1*
G1X62705Y52923D2*
G1X67616Y52923D1*
G1X66982Y53455D2*
G1X67615Y53455D1*
G1X66986Y41762D2*
G1X67614Y41762D1*
G1X67062Y58504D2*
G1X67607Y58504D1*
G1X66064Y41319D2*
G1X67606Y41319D1*
G1X67083Y58770D2*
G1X67586Y58770D1*
G1X66926Y58592D2*
G1X67576Y58592D1*
G1X64123Y58681D2*
G1X67570Y58681D1*
G1X66949Y41673D2*
G1X67558Y41673D1*
G1X66089Y41407D2*
G1X67554Y41407D1*
G1X62736Y53012D2*
G1X67539Y53012D1*
G1X66982Y53366D2*
G1X67539Y53366D1*
G1X66873Y41585D2*
G1X67533Y41585D1*
G1X66090Y41496D2*
G1X67532Y41496D1*
G1X66962Y53100D2*
G1X67502Y53100D1*
G1X66982Y53277D2*
G1X67502Y53277D1*
G1X66982Y53189D2*
G1X67490Y53189D1*
G1X65821Y36713D2*
G1X67446Y36713D1*
G1X64296Y36624D2*
G1X67376Y36624D1*
G1X67180Y62756D2*
G1X67352Y62756D1*
G1X64319Y36535D2*
G1X67342Y36535D1*
G1X64317Y36447D2*
G1X67333Y36447D1*
G1X64316Y36358D2*
G1X67329Y36358D1*
G1X67044Y62667D2*
G1X67270Y62667D1*
G1X64827Y62579D2*
G1X67229Y62579D1*
G1X45915Y60541D2*
G1X67195Y60541D1*
G1X64858Y62490D2*
G1X67168Y62490D1*
G1X66677Y61870D2*
G1X67106Y61870D1*
G1X64871Y62401D2*
G1X67033Y62401D1*
G1X64658Y61959D2*
G1X67008Y61959D1*
G1X66251Y59921D2*
G1X66998Y59921D1*
G1X45915Y60453D2*
G1X66974Y60453D1*
G1X64869Y62313D2*
G1X66972Y62313D1*
G1X64754Y62047D2*
G1X66960Y62047D1*
G1X64850Y62224D2*
G1X66944Y62224D1*
G1X64814Y62136D2*
G1X66940Y62136D1*
G1X66282Y60010D2*
G1X66916Y60010D1*
G1X66138Y60364D2*
G1X66904Y60364D1*
G1X66289Y60098D2*
G1X66875Y60098D1*
G1X66228Y60276D2*
G1X66869Y60276D1*
G1X66272Y60187D2*
G1X66860Y60187D1*
G1X65199Y63376D2*
G1X66854Y63376D1*
G1X64117Y58770D2*
G1X66854Y58770D1*
G1X64775Y62667D2*
G1X66815Y62667D1*
G1X65937Y59390D2*
G1X66791Y59390D1*
G1X65270Y63287D2*
G1X66752Y63287D1*
G1X65809Y58858D2*
G1X66718Y58858D1*
G1X64997Y58592D2*
G1X66696Y58592D1*
G1X65989Y59301D2*
G1X66693Y59301D1*
G1X65246Y62756D2*
G1X66679Y62756D1*
G1X65929Y58947D2*
G1X66657Y58947D1*
G1X65341Y63199D2*
G1X66653Y63199D1*
G1X66012Y59213D2*
G1X66645Y59213D1*
G1X65059Y57972D2*
G1X66634Y57972D1*
G1X65985Y59035D2*
G1X66629Y59035D1*
G1X66010Y59124D2*
G1X66625Y59124D1*
G1X65329Y62844D2*
G1X66618Y62844D1*
G1X65862Y49911D2*
G1X66618Y49911D1*
G1X65375Y63110D2*
G1X66606Y63110D1*
G1X65370Y62933D2*
G1X66590Y62933D1*
G1X65384Y63022D2*
G1X66586Y63022D1*
G1X65133Y58504D2*
G1X66560Y58504D1*
G1X65926Y50531D2*
G1X66555Y50531D1*
G1X65157Y58061D2*
G1X66536Y58061D1*
G1X65193Y58415D2*
G1X66500Y58415D1*
G1X65206Y58150D2*
G1X66488Y58150D1*
G1X65999Y50000D2*
G1X66482Y50000D1*
G1X65221Y58327D2*
G1X66472Y58327D1*
G1X65225Y58238D2*
G1X66468Y58238D1*
G1X66024Y50443D2*
G1X66457Y50443D1*
G1X66068Y41585D2*
G1X66435Y41585D1*
G1X64944Y42116D2*
G1X66434Y42116D1*
G1X66059Y50089D2*
G1X66421Y50089D1*
G1X66072Y50354D2*
G1X66409Y50354D1*
G1X66087Y50177D2*
G1X66393Y50177D1*
G1X66091Y50266D2*
G1X66389Y50266D1*
G1X66016Y41673D2*
G1X66358Y41673D1*
G1X65020Y42027D2*
G1X66358Y42027D1*
G1X65908Y41762D2*
G1X66321Y41762D1*
G1X65057Y41939D2*
G1X66321Y41939D1*
G1X65069Y41850D2*
G1X66309Y41850D1*
G1X64553Y61870D2*
G1X66158Y61870D1*
G1X64691Y60984D2*
G1X66127Y60984D1*
G1X63861Y47077D2*
G1X66101Y47077D1*
G1X64658Y61781D2*
G1X66044Y61781D1*
G1X64775Y61073D2*
G1X66026Y61073D1*
G1X64188Y46102D2*
G1X66025Y46102D1*
G1X62835Y53100D2*
G1X65999Y53100D1*
G1X64124Y53986D2*
G1X65998Y53986D1*
G1X63969Y46988D2*
G1X65985Y46988D1*
G1X64248Y46191D2*
G1X65979Y46191D1*
G1X64115Y53898D2*
G1X65978Y53898D1*
G1X64081Y53809D2*
G1X65978Y53809D1*
G1X64010Y53720D2*
G1X65978Y53720D1*
G1X63233Y53632D2*
G1X65978Y53632D1*
G1X63256Y53543D2*
G1X65978Y53543D1*
G1X63254Y53455D2*
G1X65978Y53455D1*
G1X63229Y53366D2*
G1X65978Y53366D1*
G1X63173Y53277D2*
G1X65978Y53277D1*
G1X63053Y53189D2*
G1X65978Y53189D1*
G1X64021Y46900D2*
G1X65978Y46900D1*
G1X64043Y46811D2*
G1X65978Y46811D1*
G1X64042Y46722D2*
G1X65978Y46722D1*
G1X64115Y46634D2*
G1X65978Y46634D1*
G1X64213Y46545D2*
G1X65978Y46545D1*
G1X64261Y46457D2*
G1X65978Y46457D1*
G1X64280Y46368D2*
G1X65978Y46368D1*
G1X64276Y46279D2*
G1X65978Y46279D1*
G1X64755Y61693D2*
G1X65974Y61693D1*
G1X64827Y61161D2*
G1X65963Y61161D1*
G1X64814Y61604D2*
G1X65930Y61604D1*
G1X64857Y61250D2*
G1X65923Y61250D1*
G1X64851Y61516D2*
G1X65905Y61516D1*
G1X64871Y61339D2*
G1X65902Y61339D1*
G1X64869Y61427D2*
G1X65896Y61427D1*
G1X64842Y59744D2*
G1X65864Y59744D1*
G1X46296Y60364D2*
G1X65752Y60364D1*
G1X64764Y59833D2*
G1X65704Y59833D1*
G1X46432Y60276D2*
G1X65662Y60276D1*
G1X46505Y59921D2*
G1X65639Y59921D1*
G1X63754Y49911D2*
G1X65634Y49911D1*
G1X46492Y60187D2*
G1X65618Y60187D1*
G1X64259Y41142D2*
G1X65609Y41142D1*
G1X46524Y60010D2*
G1X65607Y60010D1*
G1X46521Y60098D2*
G1X65601Y60098D1*
G1X65057Y41762D2*
G1X65588Y41762D1*
G1X63804Y50531D2*
G1X65570Y50531D1*
G1X64103Y58858D2*
G1X65530Y58858D1*
G1X64852Y40344D2*
G1X65516Y40344D1*
G1X64852Y59478D2*
G1X65509Y59478D1*
G1X64859Y38484D2*
G1X65508Y38484D1*
G1X63671Y50000D2*
G1X65497Y50000D1*
G1X64303Y41230D2*
G1X65489Y41230D1*
G1X65020Y41673D2*
G1X65480Y41673D1*
G1X63808Y50443D2*
G1X65472Y50443D1*
G1X55979Y40964D2*
G1X65452Y40964D1*
G1X63539Y50089D2*
G1X65437Y50089D1*
G1X64320Y41319D2*
G1X65432Y41319D1*
G1X64944Y41585D2*
G1X65428Y41585D1*
G1X63788Y50354D2*
G1X65424Y50354D1*
G1X64813Y58947D2*
G1X65410Y58947D1*
G1X63642Y50177D2*
G1X65409Y50177D1*
G1X64314Y41407D2*
G1X65407Y41407D1*
G1X64283Y41496D2*
G1X65406Y41496D1*
G1X63740Y50266D2*
G1X65405Y50266D1*
G1X64852Y59390D2*
G1X65401Y59390D1*
G1X64553Y37864D2*
G1X65398Y37864D1*
G1X64856Y37244D2*
G1X65384Y37244D1*
G1X64852Y40433D2*
G1X65379Y40433D1*
G1X64235Y39104D2*
G1X65372Y39104D1*
G1X64235Y39636D2*
G1X65371Y39636D1*
G1X64244Y36713D2*
G1X65360Y36713D1*
G1X55808Y40876D2*
G1X65354Y40876D1*
G1X64851Y59035D2*
G1X65354Y59035D1*
G1X64852Y59301D2*
G1X65349Y59301D1*
G1X64871Y38396D2*
G1X65349Y38396D1*
G1X64852Y59124D2*
G1X65328Y59124D1*
G1X64852Y59213D2*
G1X65327Y59213D1*
G1X64852Y40522D2*
G1X65319Y40522D1*
G1X64649Y37953D2*
G1X65308Y37953D1*
G1X64818Y40787D2*
G1X65306Y40787D1*
G1X64824Y37155D2*
G1X65301Y37155D1*
G1X64311Y39193D2*
G1X65295Y39193D1*
G1X64311Y39547D2*
G1X65295Y39547D1*
G1X64852Y40610D2*
G1X65291Y40610D1*
G1X64137Y36801D2*
G1X65290Y36801D1*
G1X64852Y40699D2*
G1X65287Y40699D1*
G1X64868Y38307D2*
G1X65284Y38307D1*
G1X64749Y38041D2*
G1X65264Y38041D1*
G1X64770Y37067D2*
G1X65260Y37067D1*
G1X64349Y39281D2*
G1X65258Y39281D1*
G1X64349Y39459D2*
G1X65258Y39459D1*
G1X64516Y36890D2*
G1X65255Y36890D1*
G1X64849Y38218D2*
G1X65253Y38218D1*
G1X64811Y38130D2*
G1X65247Y38130D1*
G1X64684Y36978D2*
G1X65246Y36978D1*
G1X64360Y39370D2*
G1X65246Y39370D1*
G1X63033Y63376D2*
G1X64880Y63376D1*
G1X64691Y62756D2*
G1X64833Y62756D1*
G1X63105Y63287D2*
G1X64809Y63287D1*
G1X64107Y58592D2*
G1X64767Y58592D1*
G1X64535Y62844D2*
G1X64750Y62844D1*
G1X63175Y63199D2*
G1X64738Y63199D1*
G1X63204Y62933D2*
G1X64709Y62933D1*
G1X62102Y57972D2*
G1X64705Y57972D1*
G1X63209Y63110D2*
G1X64704Y63110D1*
G1X63218Y63022D2*
G1X64695Y63022D1*
G1X64062Y58504D2*
G1X64631Y58504D1*
G1X63224Y58061D2*
G1X64606Y58061D1*
G1X63972Y58415D2*
G1X64571Y58415D1*
G1X63314Y58150D2*
G1X64558Y58150D1*
G1X63375Y58327D2*
G1X64543Y58327D1*
G1X63359Y58238D2*
G1X64539Y58238D1*
G1X64218Y41585D2*
G1X64505Y41585D1*
G1X49716Y42116D2*
G1X64505Y42116D1*
G1X64059Y41673D2*
G1X64429Y41673D1*
G1X61831Y42027D2*
G1X64429Y42027D1*
G1X61997Y41762D2*
G1X64392Y41762D1*
G1X61929Y41939D2*
G1X64392Y41939D1*
G1X61977Y41850D2*
G1X64380Y41850D1*
G1X63516Y36890D2*
G1X64225Y36890D1*
G1X63534Y60896D2*
G1X64206Y60896D1*
G1X63535Y62844D2*
G1X64206Y62844D1*
G1X63551Y38839D2*
G1X64190Y38839D1*
G1X63684Y36978D2*
G1X64056Y36978D1*
G1X63691Y60984D2*
G1X64049Y60984D1*
G1X63691Y62756D2*
G1X64049Y62756D1*
G1X63698Y38750D2*
G1X64042Y38750D1*
G1X63751Y39901D2*
G1X63989Y39901D1*
G1X63764Y59833D2*
G1X63976Y59833D1*
G1X63770Y37067D2*
G1X63970Y37067D1*
G1X63775Y61073D2*
G1X63966Y61073D1*
G1X63775Y62667D2*
G1X63966Y62667D1*
G1X63779Y38661D2*
G1X63961Y38661D1*
G1X63818Y40787D2*
G1X63923Y40787D1*
G1X63824Y37155D2*
G1X63916Y37155D1*
G1X63827Y61161D2*
G1X63914Y61161D1*
G1X63827Y62579D2*
G1X63913Y62579D1*
G1X63831Y38573D2*
G1X63910Y38573D1*
G1X62130Y41673D2*
G1X63894Y41673D1*
G1X63857Y39990D2*
G1X63883Y39990D1*
G1X63540Y46014D2*
G1X63823Y46014D1*
G1X62168Y36801D2*
G1X63816Y36801D1*
G1X62227Y39104D2*
G1X63797Y39104D1*
G1X62227Y39636D2*
G1X63796Y39636D1*
G1X62240Y41053D2*
G1X63784Y41053D1*
G1X62289Y41585D2*
G1X63735Y41585D1*
G1X62303Y39193D2*
G1X63720Y39193D1*
G1X62303Y39547D2*
G1X63720Y39547D1*
G1X62276Y36713D2*
G1X63708Y36713D1*
G1X62330Y41142D2*
G1X63694Y41142D1*
G1X62341Y39281D2*
G1X63683Y39281D1*
G1X62341Y39459D2*
G1X63683Y39459D1*
G1X62352Y39370D2*
G1X63671Y39370D1*
G1X62354Y41496D2*
G1X63670Y41496D1*
G1X62328Y36624D2*
G1X63657Y36624D1*
G1X62374Y41230D2*
G1X63649Y41230D1*
G1X62385Y41407D2*
G1X63639Y41407D1*
G1X62347Y36358D2*
G1X63637Y36358D1*
G1X62349Y36447D2*
G1X63635Y36447D1*
G1X62350Y36535D2*
G1X63634Y36535D1*
G1X62391Y41319D2*
G1X63633Y41319D1*
G1X63369Y58415D2*
G1X63587Y58415D1*
G1X53354Y54252D2*
G1X63573Y54252D1*
G1X63181Y53720D2*
G1X63549Y53720D1*
G1X63199Y47077D2*
G1X63541Y47077D1*
G1X63338Y58504D2*
G1X63497Y58504D1*
G1X59196Y54163D2*
G1X63490Y54163D1*
G1X63074Y53809D2*
G1X63479Y53809D1*
G1X62741Y58858D2*
G1X63456Y58858D1*
G1X63273Y58592D2*
G1X63453Y58592D1*
G1X62602Y54075D2*
G1X63449Y54075D1*
G1X62826Y53898D2*
G1X63444Y53898D1*
G1X62792Y58770D2*
G1X63442Y58770D1*
G1X63114Y58681D2*
G1X63436Y58681D1*
G1X62761Y53986D2*
G1X63435Y53986D1*
G1X63067Y46014D2*
G1X63311Y46014D1*
G1X63185Y49468D2*
G1X63232Y49468D1*
G1X62516Y36890D2*
G1X63225Y36890D1*
G1X62534Y60896D2*
G1X63206Y60896D1*
G1X62551Y38839D2*
G1X63190Y38839D1*
G1X52446Y47077D2*
G1X63179Y47077D1*
G1X62684Y36978D2*
G1X63056Y36978D1*
G1X62691Y60984D2*
G1X63049Y60984D1*
G1X62698Y38750D2*
G1X63042Y38750D1*
G1X62751Y39901D2*
G1X62989Y39901D1*
G1X62884Y51063D2*
G1X62982Y51063D1*
G1X62764Y59833D2*
G1X62976Y59833D1*
G1X62770Y37067D2*
G1X62970Y37067D1*
G1X62775Y61073D2*
G1X62966Y61073D1*
G1X62779Y38661D2*
G1X62961Y38661D1*
G1X52394Y46988D2*
G1X62958Y46988D1*
G1X62822Y58681D2*
G1X62949Y58681D1*
G1X62813Y58947D2*
G1X62928Y58947D1*
G1X62818Y40787D2*
G1X62923Y40787D1*
G1X62824Y37155D2*
G1X62916Y37155D1*
G1X62827Y61161D2*
G1X62914Y61161D1*
G1X62831Y38573D2*
G1X62910Y38573D1*
G1X52286Y46900D2*
G1X62888Y46900D1*
G1X62857Y39990D2*
G1X62883Y39990D1*
G1X51714Y46811D2*
G1X62854Y46811D1*
G1X50404Y46722D2*
G1X62845Y46722D1*
G1X62116Y58061D2*
G1X62839Y58061D1*
G1X50404Y46014D2*
G1X62838Y46014D1*
G1X50404Y46634D2*
G1X62775Y46634D1*
G1X62107Y58150D2*
G1X62749Y58150D1*
G1X62067Y49468D2*
G1X62722Y49468D1*
G1X62083Y58238D2*
G1X62705Y58238D1*
G1X50404Y46102D2*
G1X62702Y46102D1*
G1X50404Y46545D2*
G1X62677Y46545D1*
G1X62005Y49557D2*
G1X62652Y49557D1*
G1X50404Y46191D2*
G1X62642Y46191D1*
G1X50404Y46457D2*
G1X62629Y46457D1*
G1X50404Y46279D2*
G1X62613Y46279D1*
G1X62054Y49646D2*
G1X62611Y49646D1*
G1X50404Y46368D2*
G1X62610Y46368D1*
G1X62107Y50354D2*
G1X62605Y50354D1*
G1X62073Y50443D2*
G1X62601Y50443D1*
G1X62107Y51063D2*
G1X62470Y51063D1*
G1X62042Y50531D2*
G1X62447Y50531D1*
G1X59272Y54075D2*
G1X62437Y54075D1*
G1X62099Y49734D2*
G1X62419Y49734D1*
G1X62116Y50266D2*
G1X62418Y50266D1*
G1X62073Y50974D2*
G1X62388Y50974D1*
G1X62091Y50620D2*
G1X62376Y50620D1*
G1X62087Y50886D2*
G1X62347Y50886D1*
G1X62116Y49823D2*
G1X62342Y49823D1*
G1X62102Y50177D2*
G1X62342Y50177D1*
G1X62114Y50709D2*
G1X62342Y50709D1*
G1X62113Y50797D2*
G1X62333Y50797D1*
G1X62109Y49911D2*
G1X62305Y49911D1*
G1X62061Y50089D2*
G1X62305Y50089D1*
G1X62265Y58327D2*
G1X62302Y58327D1*
G1X62078Y50000D2*
G1X62293Y50000D1*
G1X59309Y53986D2*
G1X62279Y53986D1*
G1X60534Y53455D2*
G1X62248Y53455D1*
G1X60503Y53543D2*
G1X62237Y53543D1*
G1X61516Y36890D2*
G1X62225Y36890D1*
G1X60541Y53366D2*
G1X62220Y53366D1*
G1X59549Y53898D2*
G1X62213Y53898D1*
G1X60524Y53277D2*
G1X62212Y53277D1*
G1X61534Y60896D2*
G1X62206Y60896D1*
G1X60438Y53632D2*
G1X62193Y53632D1*
G1X61551Y38839D2*
G1X62190Y38839D1*
G1X50404Y52657D2*
G1X62185Y52657D1*
G1X59669Y53809D2*
G1X62182Y53809D1*
G1X60279Y53720D2*
G1X62176Y53720D1*
G1X60480Y53189D2*
G1X62111Y53189D1*
G1X50404Y52746D2*
G1X62087Y52746D1*
G1X61684Y36978D2*
G1X62056Y36978D1*
G1X60390Y53100D2*
G1X62051Y53100D1*
G1X61691Y60984D2*
G1X62049Y60984D1*
G1X61698Y38750D2*
G1X62042Y38750D1*
G1X59942Y52835D2*
G1X62039Y52835D1*
G1X60119Y53012D2*
G1X62023Y53012D1*
G1X60063Y52923D2*
G1X62019Y52923D1*
G1X61751Y39901D2*
G1X61989Y39901D1*
G1X61764Y59833D2*
G1X61976Y59833D1*
G1X61770Y37067D2*
G1X61970Y37067D1*
G1X61775Y61073D2*
G1X61966Y61073D1*
G1X61779Y38661D2*
G1X61961Y38661D1*
G1X61818Y40787D2*
G1X61923Y40787D1*
G1X61824Y37155D2*
G1X61916Y37155D1*
G1X61827Y61161D2*
G1X61914Y61161D1*
G1X61831Y38573D2*
G1X61910Y38573D1*
G1X61857Y39990D2*
G1X61883Y39990D1*
G1X56049Y41053D2*
G1X61855Y41053D1*
G1X60205Y36801D2*
G1X61848Y36801D1*
G1X49200Y58858D2*
G1X61819Y58858D1*
G1X60262Y39104D2*
G1X61789Y39104D1*
G1X48448Y39636D2*
G1X61789Y39636D1*
G1X49315Y58770D2*
G1X61775Y58770D1*
G1X56083Y41142D2*
G1X61765Y41142D1*
G1X53046Y58504D2*
G1X61763Y58504D1*
G1X49371Y58681D2*
G1X61747Y58681D1*
G1X52910Y58592D2*
G1X61743Y58592D1*
G1X61388Y58415D2*
G1X61742Y58415D1*
G1X60307Y36713D2*
G1X61740Y36713D1*
G1X56092Y41230D2*
G1X61720Y41230D1*
G1X60191Y39193D2*
G1X61713Y39193D1*
G1X48524Y39547D2*
G1X61712Y39547D1*
G1X56078Y41319D2*
G1X61703Y41319D1*
G1X60359Y36624D2*
G1X61688Y36624D1*
G1X59970Y39281D2*
G1X61675Y39281D1*
G1X48561Y39459D2*
G1X61675Y39459D1*
G1X60379Y36358D2*
G1X61669Y36358D1*
G1X60380Y36447D2*
G1X61667Y36447D1*
G1X60382Y36535D2*
G1X61666Y36535D1*
G1X48573Y39370D2*
G1X61663Y39370D1*
G1X56037Y41407D2*
G1X61539Y41407D1*
G1X49629Y42027D2*
G1X61476Y42027D1*
G1X55955Y41496D2*
G1X61403Y41496D1*
G1X49541Y41939D2*
G1X61378Y41939D1*
G1X60955Y58415D2*
G1X61368Y58415D1*
G1X54986Y41585D2*
G1X61342Y41585D1*
G1X49454Y41850D2*
G1X61330Y41850D1*
G1X60223Y57707D2*
G1X61324Y57707D1*
G1X54916Y41673D2*
G1X61314Y41673D1*
G1X54695Y41762D2*
G1X61310Y41762D1*
G1X50267Y57087D2*
G1X61290Y57087D1*
G1X60198Y57618D2*
G1X61265Y57618D1*
G1X50836Y47874D2*
G1X61238Y47874D1*
G1X60516Y36890D2*
G1X61225Y36890D1*
G1X59510Y47254D2*
G1X61218Y47254D1*
G1X50178Y57175D2*
G1X61207Y57175D1*
G1X60534Y60896D2*
G1X61206Y60896D1*
G1X60141Y57529D2*
G1X61195Y57529D1*
G1X60551Y38839D2*
G1X61190Y38839D1*
G1X50089Y57264D2*
G1X61166Y57264D1*
G1X60021Y57441D2*
G1X61161Y57441D1*
G1X50001Y57352D2*
G1X61152Y57352D1*
G1X59511Y47785D2*
G1X61118Y47785D1*
G1X59587Y47342D2*
G1X61110Y47342D1*
G1X59587Y47697D2*
G1X61062Y47697D1*
G1X59624Y47431D2*
G1X61058Y47431D1*
G1X60684Y36978D2*
G1X61056Y36978D1*
G1X60691Y60984D2*
G1X61049Y60984D1*
G1X60698Y38750D2*
G1X61042Y38750D1*
G1X59624Y47608D2*
G1X61037Y47608D1*
G1X59636Y47520D2*
G1X61036Y47520D1*
G1X60751Y39901D2*
G1X60989Y39901D1*
G1X60764Y59833D2*
G1X60976Y59833D1*
G1X60770Y37067D2*
G1X60970Y37067D1*
G1X60775Y61073D2*
G1X60966Y61073D1*
G1X60779Y38661D2*
G1X60961Y38661D1*
G1X53107Y58415D2*
G1X60935Y58415D1*
G1X60813Y58947D2*
G1X60928Y58947D1*
G1X60818Y40787D2*
G1X60923Y40787D1*
G1X60824Y37155D2*
G1X60916Y37155D1*
G1X60827Y61161D2*
G1X60914Y61161D1*
G1X60831Y38573D2*
G1X60910Y38573D1*
G1X60857Y39990D2*
G1X60883Y39990D1*
G1X50404Y51417D2*
G1X60817Y51417D1*
G1X50404Y49026D2*
G1X60805Y49026D1*
G1X60183Y49557D2*
G1X60791Y49557D1*
G1X60386Y50531D2*
G1X60754Y50531D1*
G1X60217Y49646D2*
G1X60741Y49646D1*
G1X60224Y57795D2*
G1X60738Y57795D1*
G1X60451Y50089D2*
G1X60734Y50089D1*
G1X50404Y51329D2*
G1X60734Y51329D1*
G1X50404Y49114D2*
G1X60728Y49114D1*
G1X60112Y49468D2*
G1X60728Y49468D1*
G1X60378Y50974D2*
G1X60723Y50974D1*
G1X60278Y50443D2*
G1X60722Y50443D1*
G1X60463Y50000D2*
G1X60717Y50000D1*
G1X53135Y58327D2*
G1X60714Y58327D1*
G1X60434Y50886D2*
G1X60708Y50886D1*
G1X60438Y50620D2*
G1X60704Y50620D1*
G1X60337Y49734D2*
G1X60697Y49734D1*
G1X60414Y50177D2*
G1X60694Y50177D1*
G1X50404Y51240D2*
G1X60694Y51240D1*
G1X50404Y49203D2*
G1X60691Y49203D1*
G1X50404Y49380D2*
G1X60691Y49380D1*
G1X60258Y51063D2*
G1X60688Y51063D1*
G1X60196Y50354D2*
G1X60688Y50354D1*
G1X60451Y49911D2*
G1X60686Y49911D1*
G1X60459Y50797D2*
G1X60683Y50797D1*
G1X60460Y50709D2*
G1X60681Y50709D1*
G1X60414Y49823D2*
G1X60680Y49823D1*
G1X60338Y50266D2*
G1X60679Y50266D1*
G1X50404Y51151D2*
G1X60679Y51151D1*
G1X50404Y49291D2*
G1X60679Y49291D1*
G1X60202Y57884D2*
G1X60656Y57884D1*
G1X55706Y58238D2*
G1X60644Y58238D1*
G1X60150Y57972D2*
G1X60615Y57972D1*
G1X55841Y58150D2*
G1X60610Y58150D1*
G1X60042Y58061D2*
G1X60601Y58061D1*
G1X59534Y60896D2*
G1X60206Y60896D1*
G1X59725Y53720D2*
G1X60115Y53720D1*
G1X59691Y60984D2*
G1X60049Y60984D1*
G1X59751Y39901D2*
G1X59989Y39901D1*
G1X59707Y51063D2*
G1X59978Y51063D1*
G1X59764Y59833D2*
G1X59976Y59833D1*
G1X59775Y61073D2*
G1X59966Y61073D1*
G1X59750Y53632D2*
G1X59956Y53632D1*
G1X57962Y39281D2*
G1X59951Y39281D1*
G1X59813Y58947D2*
G1X59928Y58947D1*
G1X59818Y40787D2*
G1X59923Y40787D1*
G1X59827Y61161D2*
G1X59914Y61161D1*
G1X59752Y53543D2*
G1X59890Y53543D1*
G1X59857Y39990D2*
G1X59883Y39990D1*
G1X49912Y57441D2*
G1X59743Y57441D1*
G1X58184Y39193D2*
G1X59730Y39193D1*
G1X55902Y58061D2*
G1X59722Y58061D1*
G1X59549Y52835D2*
G1X59664Y52835D1*
G1X58254Y39104D2*
G1X59659Y39104D1*
G1X59482Y49468D2*
G1X59651Y49468D1*
G1X58288Y39016D2*
G1X59625Y39016D1*
G1X49824Y57529D2*
G1X59622Y57529D1*
G1X58297Y38927D2*
G1X59616Y38927D1*
G1X55930Y57972D2*
G1X59614Y57972D1*
G1X59551Y38839D2*
G1X59590Y38839D1*
G1X55768Y57618D2*
G1X59566Y57618D1*
G1X55934Y57884D2*
G1X59562Y57884D1*
G1X55866Y57707D2*
G1X59541Y57707D1*
G1X55914Y57795D2*
G1X59540Y57795D1*
G1X50404Y51063D2*
G1X59427Y51063D1*
G1X50404Y50974D2*
G1X59307Y50974D1*
G1X59116Y52835D2*
G1X59270Y52835D1*
G1X50404Y50886D2*
G1X59251Y50886D1*
G1X58534Y60896D2*
G1X59206Y60896D1*
G1X58551Y38839D2*
G1X59190Y38839D1*
G1X57280Y50089D2*
G1X59177Y50089D1*
G1X50404Y50797D2*
G1X59137Y50797D1*
G1X57308Y50177D2*
G1X59075Y50177D1*
G1X58691Y60984D2*
G1X59049Y60984D1*
G1X57219Y50000D2*
G1X59045Y50000D1*
G1X58698Y38750D2*
G1X59042Y38750D1*
G1X50404Y49468D2*
G1X59022Y49468D1*
G1X50404Y50709D2*
G1X59001Y50709D1*
G1X57751Y39901D2*
G1X58989Y39901D1*
G1X57312Y50266D2*
G1X58977Y50266D1*
G1X58764Y59833D2*
G1X58976Y59833D1*
G1X58775Y61073D2*
G1X58966Y61073D1*
G1X57083Y49911D2*
G1X58963Y49911D1*
G1X58779Y38661D2*
G1X58961Y38661D1*
G1X50404Y49557D2*
G1X58951Y49557D1*
G1X50404Y50620D2*
G1X58941Y50620D1*
G1X57292Y50354D2*
G1X58928Y50354D1*
G1X58813Y58947D2*
G1X58928Y58947D1*
G1X57818Y40787D2*
G1X58923Y40787D1*
G1X53270Y49823D2*
G1X58922Y49823D1*
G1X50404Y49646D2*
G1X58917Y49646D1*
G1X58827Y61161D2*
G1X58914Y61161D1*
G1X57146Y50531D2*
G1X58913Y50531D1*
G1X58831Y38573D2*
G1X58910Y38573D1*
G1X57244Y50443D2*
G1X58909Y50443D1*
G1X50404Y49734D2*
G1X58908Y49734D1*
G1X57839Y39990D2*
G1X58901Y39990D1*
G1X50404Y53543D2*
G1X58899Y53543D1*
G1X58435Y40699D2*
G1X58888Y40699D1*
G1X58656Y40610D2*
G1X58888Y40610D1*
G1X58726Y40522D2*
G1X58888Y40522D1*
G1X58761Y40433D2*
G1X58888Y40433D1*
G1X58770Y40344D2*
G1X58888Y40344D1*
G1X58755Y40256D2*
G1X58888Y40256D1*
G1X58714Y40167D2*
G1X58888Y40167D1*
G1X58632Y40079D2*
G1X58888Y40079D1*
G1X50404Y52835D2*
G1X58837Y52835D1*
G1X50404Y53455D2*
G1X58816Y53455D1*
G1X50404Y53632D2*
G1X58757Y53632D1*
G1X53264Y54163D2*
G1X58757Y54163D1*
G1X50404Y52923D2*
G1X58717Y52923D1*
G1X50404Y53366D2*
G1X58708Y53366D1*
G1X50404Y53720D2*
G1X58681Y53720D1*
G1X50969Y54075D2*
G1X58681Y54075D1*
G1X52467Y47254D2*
G1X58679Y47254D1*
G1X50404Y47785D2*
G1X58678Y47785D1*
G1X50404Y53012D2*
G1X58661Y53012D1*
G1X50404Y53277D2*
G1X58657Y53277D1*
G1X50744Y53809D2*
G1X58644Y53809D1*
G1X50941Y53986D2*
G1X58643Y53986D1*
G1X50404Y53100D2*
G1X58635Y53100D1*
G1X50404Y53189D2*
G1X58634Y53189D1*
G1X50881Y53898D2*
G1X58632Y53898D1*
G1X52442Y47342D2*
G1X58602Y47342D1*
G1X50404Y47697D2*
G1X58602Y47697D1*
G1X52386Y47431D2*
G1X58565Y47431D1*
G1X50404Y47608D2*
G1X58565Y47608D1*
G1X52266Y47520D2*
G1X58553Y47520D1*
G1X57852Y40699D2*
G1X58416Y40699D1*
G1X57852Y40079D2*
G1X58219Y40079D1*
G1X57534Y60896D2*
G1X58206Y60896D1*
G1X57852Y40610D2*
G1X58194Y40610D1*
G1X57852Y40167D2*
G1X58136Y40167D1*
G1X57852Y40522D2*
G1X58124Y40522D1*
G1X57852Y40256D2*
G1X58095Y40256D1*
G1X57852Y40433D2*
G1X58090Y40433D1*
G1X57852Y40344D2*
G1X58081Y40344D1*
G1X57691Y60984D2*
G1X58049Y60984D1*
G1X57764Y59833D2*
G1X57976Y59833D1*
G1X57775Y61073D2*
G1X57966Y61073D1*
G1X56066Y39281D2*
G1X57943Y39281D1*
G1X57813Y58947D2*
G1X57928Y58947D1*
G1X57827Y61161D2*
G1X57914Y61161D1*
G1X56174Y39193D2*
G1X57722Y39193D1*
G1X56225Y39104D2*
G1X57652Y39104D1*
G1X56248Y39016D2*
G1X57617Y39016D1*
G1X56246Y38927D2*
G1X57608Y38927D1*
G1X57552Y38839D2*
G1X57572Y38839D1*
G1X56534Y60896D2*
G1X57206Y60896D1*
G1X56551Y38839D2*
G1X57190Y38839D1*
G1X56691Y60984D2*
G1X57049Y60984D1*
G1X56698Y38750D2*
G1X57042Y38750D1*
G1X56751Y39901D2*
G1X56989Y39901D1*
G1X56166Y59833D2*
G1X56976Y59833D1*
G1X56775Y61073D2*
G1X56966Y61073D1*
G1X56779Y38661D2*
G1X56961Y38661D1*
G1X56214Y58947D2*
G1X56928Y58947D1*
G1X56818Y40787D2*
G1X56923Y40787D1*
G1X56827Y61161D2*
G1X56914Y61161D1*
G1X56831Y38573D2*
G1X56910Y38573D1*
G1X56243Y59744D2*
G1X56899Y59744D1*
G1X56253Y59035D2*
G1X56889Y59035D1*
G1X56254Y59655D2*
G1X56888Y59655D1*
G1X56254Y59567D2*
G1X56888Y59567D1*
G1X56254Y59478D2*
G1X56888Y59478D1*
G1X56254Y59390D2*
G1X56888Y59390D1*
G1X56254Y59301D2*
G1X56888Y59301D1*
G1X56254Y59213D2*
G1X56888Y59213D1*
G1X56254Y59124D2*
G1X56888Y59124D1*
G1X56857Y39990D2*
G1X56883Y39990D1*
G1X56295Y49911D2*
G1X56854Y49911D1*
G1X56185Y50531D2*
G1X56791Y50531D1*
G1X56385Y50000D2*
G1X56718Y50000D1*
G1X56344Y50443D2*
G1X56693Y50443D1*
G1X56429Y50089D2*
G1X56657Y50089D1*
G1X56409Y50354D2*
G1X56645Y50354D1*
G1X56446Y50177D2*
G1X56629Y50177D1*
G1X56440Y50266D2*
G1X56625Y50266D1*
G1X55534Y60896D2*
G1X56206Y60896D1*
G1X55691Y60984D2*
G1X56049Y60984D1*
G1X54627Y50531D2*
G1X56020Y50531D1*
G1X55751Y39901D2*
G1X55989Y39901D1*
G1X55775Y61073D2*
G1X55966Y61073D1*
G1X55818Y40787D2*
G1X55923Y40787D1*
G1X55827Y61161D2*
G1X55914Y61161D1*
G1X54563Y49911D2*
G1X55910Y49911D1*
G1X55857Y39990D2*
G1X55883Y39990D1*
G1X54725Y50443D2*
G1X55861Y50443D1*
G1X54699Y50000D2*
G1X55820Y50000D1*
G1X54773Y50354D2*
G1X55796Y50354D1*
G1X54760Y50089D2*
G1X55775Y50089D1*
G1X54792Y50266D2*
G1X55765Y50266D1*
G1X54788Y50177D2*
G1X55758Y50177D1*
G1X53947Y39281D2*
G1X55745Y39281D1*
G1X54168Y39193D2*
G1X55638Y39193D1*
G1X54238Y39104D2*
G1X55586Y39104D1*
G1X54281Y38927D2*
G1X55565Y38927D1*
G1X54272Y39016D2*
G1X55563Y39016D1*
G1X46387Y40876D2*
G1X55559Y40876D1*
G1X55020Y41496D2*
G1X55541Y41496D1*
G1X51144Y40964D2*
G1X55518Y40964D1*
G1X54728Y43090D2*
G1X55508Y43090D1*
G1X53139Y58238D2*
G1X55475Y58238D1*
G1X55029Y41407D2*
G1X55459Y41407D1*
G1X51304Y41053D2*
G1X55447Y41053D1*
G1X55015Y41319D2*
G1X55418Y41319D1*
G1X49735Y57618D2*
G1X55413Y57618D1*
G1X54892Y41142D2*
G1X55413Y41142D1*
G1X54974Y41230D2*
G1X55404Y41230D1*
G1X54838Y42470D2*
G1X55398Y42470D1*
G1X55166Y59833D2*
G1X55378Y59833D1*
G1X54887Y43002D2*
G1X55349Y43002D1*
G1X53119Y58150D2*
G1X55340Y58150D1*
G1X55214Y58947D2*
G1X55329Y58947D1*
G1X49647Y57707D2*
G1X55315Y57707D1*
G1X54928Y42559D2*
G1X55308Y42559D1*
G1X54952Y42913D2*
G1X55284Y42913D1*
G1X53071Y58061D2*
G1X55279Y58061D1*
G1X49558Y57795D2*
G1X55267Y57795D1*
G1X54973Y42648D2*
G1X55264Y42648D1*
G1X54983Y42825D2*
G1X55253Y42825D1*
G1X52973Y57972D2*
G1X55251Y57972D1*
G1X49469Y57884D2*
G1X55247Y57884D1*
G1X54990Y42736D2*
G1X55247Y42736D1*
G1X54534Y60896D2*
G1X55206Y60896D1*
G1X54551Y38839D2*
G1X55190Y38839D1*
G1X54691Y60984D2*
G1X55049Y60984D1*
G1X54698Y38750D2*
G1X55042Y38750D1*
G1X54751Y39901D2*
G1X54989Y39901D1*
G1X54775Y61073D2*
G1X54966Y61073D1*
G1X54779Y38661D2*
G1X54961Y38661D1*
G1X54818Y40787D2*
G1X54923Y40787D1*
G1X54827Y61161D2*
G1X54914Y61161D1*
G1X54831Y38573D2*
G1X54910Y38573D1*
G1X54857Y39990D2*
G1X54883Y39990D1*
G1X51781Y41762D2*
G1X54676Y41762D1*
G1X54018Y43090D2*
G1X54563Y43090D1*
G1X51978Y41142D2*
G1X54479Y41142D1*
G1X52002Y41673D2*
G1X54454Y41673D1*
G1X50065Y42470D2*
G1X54453Y42470D1*
G1X50404Y43002D2*
G1X54404Y43002D1*
G1X52061Y41230D2*
G1X54396Y41230D1*
G1X52073Y41585D2*
G1X54384Y41585D1*
G1X54166Y59833D2*
G1X54378Y59833D1*
G1X50152Y42559D2*
G1X54363Y42559D1*
G1X52102Y41319D2*
G1X54355Y41319D1*
G1X52107Y41496D2*
G1X54350Y41496D1*
G1X52116Y41407D2*
G1X54341Y41407D1*
G1X50404Y42913D2*
G1X54339Y42913D1*
G1X53430Y49911D2*
G1X54334Y49911D1*
G1X54214Y58947D2*
G1X54329Y58947D1*
G1X50239Y42648D2*
G1X54319Y42648D1*
G1X50404Y42825D2*
G1X54308Y42825D1*
G1X50326Y42736D2*
G1X54302Y42736D1*
G1X50404Y50531D2*
G1X54271Y50531D1*
G1X53534Y60896D2*
G1X54206Y60896D1*
G1X53495Y50000D2*
G1X54198Y50000D1*
G1X53382Y50443D2*
G1X54173Y50443D1*
G1X53527Y50089D2*
G1X54138Y50089D1*
G1X53472Y50354D2*
G1X54125Y50354D1*
G1X53533Y50177D2*
G1X54110Y50177D1*
G1X53516Y50266D2*
G1X54106Y50266D1*
G1X53691Y60984D2*
G1X54049Y60984D1*
G1X53751Y39901D2*
G1X53989Y39901D1*
G1X53775Y61073D2*
G1X53966Y61073D1*
G1X51899Y39281D2*
G1X53927Y39281D1*
G1X53818Y40787D2*
G1X53923Y40787D1*
G1X53827Y61161D2*
G1X53914Y61161D1*
G1X53857Y39990D2*
G1X53883Y39990D1*
G1X50404Y43090D2*
G1X53856Y43090D1*
G1X52121Y39193D2*
G1X53706Y39193D1*
G1X50404Y43179D2*
G1X53696Y43179D1*
G1X50404Y43711D2*
G1X53677Y43711D1*
G1X50404Y43622D2*
G1X53654Y43622D1*
G1X52191Y39104D2*
G1X53636Y39104D1*
G1X50404Y43268D2*
G1X53631Y43268D1*
G1X50404Y43533D2*
G1X53610Y43533D1*
G1X52225Y39016D2*
G1X53602Y39016D1*
G1X50404Y43356D2*
G1X53600Y43356D1*
G1X50404Y43445D2*
G1X53593Y43445D1*
G1X52234Y38927D2*
G1X53593Y38927D1*
G1X53166Y59833D2*
G1X53378Y59833D1*
G1X53214Y58947D2*
G1X53329Y58947D1*
G1X52534Y60896D2*
G1X53206Y60896D1*
G1X52551Y38839D2*
G1X53190Y38839D1*
G1X50404Y44685D2*
G1X53187Y44685D1*
G1X52766Y43799D2*
G1X53109Y43799D1*
G1X50711Y49823D2*
G1X53108Y49823D1*
G1X52817Y44596D2*
G1X53092Y44596D1*
G1X52888Y43888D2*
G1X53077Y43888D1*
G1X52915Y44508D2*
G1X53077Y44508D1*
G1X52973Y44419D2*
G1X53077Y44419D1*
G1X52957Y43976D2*
G1X53077Y43976D1*
G1X50404Y52480D2*
G1X53049Y52480D1*
G1X52691Y60984D2*
G1X53049Y60984D1*
G1X52698Y38750D2*
G1X53042Y38750D1*
G1X50849Y51860D2*
G1X53029Y51860D1*
G1X50823Y50443D2*
G1X52996Y50443D1*
G1X52751Y39901D2*
G1X52989Y39901D1*
G1X50404Y54783D2*
G1X52989Y54783D1*
G1X52775Y61073D2*
G1X52966Y61073D1*
G1X52779Y38661D2*
G1X52961Y38661D1*
G1X50871Y49911D2*
G1X52948Y49911D1*
G1X50919Y47963D2*
G1X52931Y47963D1*
G1X50640Y48494D2*
G1X52930Y48494D1*
G1X50849Y52392D2*
G1X52929Y52392D1*
G1X52818Y40787D2*
G1X52923Y40787D1*
G1X50925Y51949D2*
G1X52921Y51949D1*
G1X52827Y61161D2*
G1X52914Y61161D1*
G1X52831Y38573D2*
G1X52910Y38573D1*
G1X50913Y50354D2*
G1X52906Y50354D1*
G1X52857Y39990D2*
G1X52883Y39990D1*
G1X50936Y50000D2*
G1X52883Y50000D1*
G1X50973Y54163D2*
G1X52878Y54163D1*
G1X50925Y52303D2*
G1X52873Y52303D1*
G1X50963Y52037D2*
G1X52869Y52037D1*
G1X50957Y50266D2*
G1X52862Y50266D1*
G1X50960Y48051D2*
G1X52854Y48051D1*
G1X50861Y48405D2*
G1X52854Y48405D1*
G1X50967Y50089D2*
G1X52852Y50089D1*
G1X50963Y52214D2*
G1X52848Y52214D1*
G1X50974Y52126D2*
G1X52847Y52126D1*
G1X50974Y50177D2*
G1X52845Y50177D1*
G1X50404Y54695D2*
G1X52830Y54695D1*
G1X50974Y48140D2*
G1X52817Y48140D1*
G1X50931Y48317D2*
G1X52817Y48317D1*
G1X50965Y48228D2*
G1X52805Y48228D1*
G1X50954Y54252D2*
G1X52788Y54252D1*
G1X50404Y54606D2*
G1X52764Y54606D1*
G1X50906Y54340D2*
G1X52744Y54340D1*
G1X50404Y54518D2*
G1X52733Y54518D1*
G1X50808Y54429D2*
G1X52727Y54429D1*
G1X49396Y58592D2*
G1X52680Y58592D1*
G1X49381Y57972D2*
G1X52618Y57972D1*
G1X50404Y56732D2*
G1X52588Y56732D1*
G1X49397Y58504D2*
G1X52544Y58504D1*
G1X49292Y58061D2*
G1X52520Y58061D1*
G1X52254Y56644D2*
G1X52506Y56644D1*
G1X49375Y58415D2*
G1X52484Y58415D1*
G1X49204Y58150D2*
G1X52472Y58150D1*
G1X49323Y58327D2*
G1X52456Y58327D1*
G1X49215Y58238D2*
G1X52452Y58238D1*
G1X52166Y59833D2*
G1X52378Y59833D1*
G1X50404Y43799D2*
G1X52352Y43799D1*
G1X52214Y58947D2*
G1X52329Y58947D1*
G1X50751Y44596D2*
G1X52301Y44596D1*
G1X50404Y56644D2*
G1X52235Y56644D1*
G1X50404Y43888D2*
G1X52230Y43888D1*
G1X51534Y60896D2*
G1X52206Y60896D1*
G1X50859Y44508D2*
G1X52203Y44508D1*
G1X50730Y43976D2*
G1X52161Y43976D1*
G1X50910Y44419D2*
G1X52145Y44419D1*
G1X50850Y44065D2*
G1X52121Y44065D1*
G1X50933Y44331D2*
G1X52112Y44331D1*
G1X50906Y44153D2*
G1X52100Y44153D1*
G1X50932Y44242D2*
G1X52097Y44242D1*
G1X51691Y60984D2*
G1X52049Y60984D1*
G1X50913Y56024D2*
G1X52038Y56024D1*
G1X50712Y56555D2*
G1X52013Y56555D1*
G1X51751Y39901D2*
G1X51989Y39901D1*
G1X50404Y47520D2*
G1X51986Y47520D1*
G1X51834Y46900D2*
G1X51966Y46900D1*
G1X51775Y61073D2*
G1X51966Y61073D1*
G1X50957Y56112D2*
G1X51955Y56112D1*
G1X50871Y56466D2*
G1X51943Y56466D1*
G1X51818Y40787D2*
G1X51923Y40787D1*
G1X50974Y56201D2*
G1X51914Y56201D1*
G1X51827Y61161D2*
G1X51914Y61161D1*
G1X50936Y56378D2*
G1X51909Y56378D1*
G1X50968Y56289D2*
G1X51900Y56289D1*
G1X51857Y39990D2*
G1X51883Y39990D1*
G1X49931Y39281D2*
G1X51880Y39281D1*
G1X51735Y47431D2*
G1X51866Y47431D1*
G1X49367Y41762D2*
G1X51762Y41762D1*
G1X50152Y39193D2*
G1X51659Y39193D1*
G1X50223Y39104D2*
G1X51589Y39104D1*
G1X51369Y41142D2*
G1X51565Y41142D1*
G1X50257Y39016D2*
G1X51554Y39016D1*
G1X50266Y38927D2*
G1X51545Y38927D1*
G1X50279Y41673D2*
G1X51541Y41673D1*
G1X51406Y41230D2*
G1X51482Y41230D1*
G1X51256Y41585D2*
G1X51471Y41585D1*
G1X50404Y46811D2*
G1X51436Y46811D1*
G1X51346Y41496D2*
G1X51435Y41496D1*
G1X50404Y47431D2*
G1X51415Y47431D1*
G1X51166Y59833D2*
G1X51378Y59833D1*
G1X51214Y58947D2*
G1X51329Y58947D1*
G1X50404Y46900D2*
G1X51315Y46900D1*
G1X50404Y47342D2*
G1X51307Y47342D1*
G1X50404Y46988D2*
G1X51259Y46988D1*
G1X50404Y47254D2*
G1X51255Y47254D1*
G1X50404Y47077D2*
G1X51234Y47077D1*
G1X50404Y47165D2*
G1X51233Y47165D1*
G1X50534Y60896D2*
G1X51206Y60896D1*
G1X50551Y38839D2*
G1X51190Y38839D1*
G1X50691Y60984D2*
G1X51049Y60984D1*
G1X50698Y38750D2*
G1X51042Y38750D1*
G1X50751Y39901D2*
G1X50989Y39901D1*
G1X46477Y40964D2*
G1X50982Y40964D1*
G1X50775Y61073D2*
G1X50966Y61073D1*
G1X50779Y38661D2*
G1X50961Y38661D1*
G1X50818Y40787D2*
G1X50923Y40787D1*
G1X50827Y61161D2*
G1X50914Y61161D1*
G1X50831Y38573D2*
G1X50910Y38573D1*
G1X50857Y39990D2*
G1X50883Y39990D1*
G1X50438Y41585D2*
G1X50870Y41585D1*
G1X50390Y41053D2*
G1X50822Y41053D1*
G1X50503Y41496D2*
G1X50780Y41496D1*
G1X50480Y41142D2*
G1X50757Y41142D1*
G1X50534Y41407D2*
G1X50736Y41407D1*
G1X50524Y41230D2*
G1X50726Y41230D1*
G1X50541Y41319D2*
G1X50719Y41319D1*
G1X50404Y48494D2*
G1X50620Y48494D1*
G1X50407Y49823D2*
G1X50549Y49823D1*
G1X50407Y56555D2*
G1X50548Y56555D1*
G1X50411Y53809D2*
G1X50516Y53809D1*
G1X50166Y59833D2*
G1X50378Y59833D1*
G1X50214Y58947D2*
G1X50329Y58947D1*
G1X49534Y60896D2*
G1X50206Y60896D1*
G1X49280Y41673D2*
G1X50115Y41673D1*
G1X49691Y60984D2*
G1X50049Y60984D1*
G1X48421Y41053D2*
G1X50004Y41053D1*
G1X48144Y39901D2*
G1X49989Y39901D1*
G1X49775Y61073D2*
G1X49966Y61073D1*
G1X49193Y41585D2*
G1X49956Y41585D1*
G1X46297Y40787D2*
G1X49923Y40787D1*
G1X48511Y41142D2*
G1X49914Y41142D1*
G1X49827Y61161D2*
G1X49914Y61161D1*
G1X48561Y39281D2*
G1X49912Y39281D1*
G1X48214Y39990D2*
G1X49901Y39990D1*
G1X48574Y41496D2*
G1X49890Y41496D1*
G1X49183Y40699D2*
G1X49888Y40699D1*
G1X49404Y40610D2*
G1X49888Y40610D1*
G1X49474Y40522D2*
G1X49888Y40522D1*
G1X49509Y40433D2*
G1X49888Y40433D1*
G1X49518Y40344D2*
G1X49888Y40344D1*
G1X49503Y40256D2*
G1X49888Y40256D1*
G1X49463Y40167D2*
G1X49888Y40167D1*
G1X49380Y40079D2*
G1X49888Y40079D1*
G1X48555Y41230D2*
G1X49870Y41230D1*
G1X48566Y41407D2*
G1X49859Y41407D1*
G1X48572Y41319D2*
G1X49853Y41319D1*
G1X48524Y39193D2*
G1X49691Y39193D1*
G1X48447Y39104D2*
G1X49620Y39104D1*
G1X45915Y39016D2*
G1X49586Y39016D1*
G1X45915Y38927D2*
G1X49577Y38927D1*
G1X49166Y59833D2*
G1X49378Y59833D1*
G1X49214Y58947D2*
G1X49329Y58947D1*
G1X48534Y60896D2*
G1X49206Y60896D1*
G1X48551Y38839D2*
G1X49190Y38839D1*
G1X46301Y40699D2*
G1X49164Y40699D1*
G1X48691Y60984D2*
G1X49049Y60984D1*
G1X48698Y38750D2*
G1X49042Y38750D1*
G1X48249Y40079D2*
G1X48967Y40079D1*
G1X48775Y61073D2*
G1X48966Y61073D1*
G1X48779Y38661D2*
G1X48961Y38661D1*
G1X46491Y40610D2*
G1X48943Y40610D1*
G1X48827Y61161D2*
G1X48914Y61161D1*
G1X48831Y38573D2*
G1X48910Y38573D1*
G1X48258Y40167D2*
G1X48884Y40167D1*
G1X46561Y40522D2*
G1X48872Y40522D1*
G1X48244Y40256D2*
G1X48843Y40256D1*
G1X48120Y40433D2*
G1X48838Y40433D1*
G1X48203Y40344D2*
G1X48829Y40344D1*
G1X48166Y59833D2*
G1X48378Y59833D1*
G1X47534Y60896D2*
G1X48206Y60896D1*
G1X47551Y38839D2*
G1X48190Y38839D1*
G1X47691Y60984D2*
G1X48049Y60984D1*
G1X47698Y38750D2*
G1X48042Y38750D1*
G1X46567Y41053D2*
G1X48036Y41053D1*
G1X45915Y39104D2*
G1X48009Y39104D1*
G1X45915Y39636D2*
G1X48009Y39636D1*
G1X47775Y61073D2*
G1X47966Y61073D1*
G1X47779Y38661D2*
G1X47961Y38661D1*
G1X46657Y41142D2*
G1X47946Y41142D1*
G1X45915Y39193D2*
G1X47933Y39193D1*
G1X45915Y39547D2*
G1X47933Y39547D1*
G1X47827Y61161D2*
G1X47914Y61161D1*
G1X47831Y38573D2*
G1X47910Y38573D1*
G1X46747Y41230D2*
G1X47901Y41230D1*
G1X45915Y39281D2*
G1X47896Y39281D1*
G1X45915Y39459D2*
G1X47895Y39459D1*
G1X46928Y41407D2*
G1X47891Y41407D1*
G1X46838Y41319D2*
G1X47884Y41319D1*
G1X45915Y39370D2*
G1X47884Y39370D1*
G1X47018Y41496D2*
G1X47883Y41496D1*
G1X46595Y40433D2*
G1X47707Y40433D1*
G1X45915Y39901D2*
G1X47683Y39901D1*
G1X46604Y40344D2*
G1X47624Y40344D1*
G1X45915Y39990D2*
G1X47612Y39990D1*
G1X46590Y40256D2*
G1X47583Y40256D1*
G1X46466Y40079D2*
G1X47578Y40079D1*
G1X46549Y40167D2*
G1X47569Y40167D1*
G1X47166Y59833D2*
G1X47378Y59833D1*
G1X46797Y60896D2*
G1X47206Y60896D1*
G1X46551Y38839D2*
G1X47190Y38839D1*
G1X46864Y60984D2*
G1X47049Y60984D1*
G1X46698Y38750D2*
G1X47042Y38750D1*
G1X46878Y61073D2*
G1X46966Y61073D1*
G1X46779Y38661D2*
G1X46961Y38661D1*
G1X46831Y38573D2*
G1X46910Y38573D1*
G1X45915Y38839D2*
G1X46190Y38839D1*
G1X45916Y60364D2*
G1X46066Y60364D1*
G1X45915Y40079D2*
G1X46053Y40079D1*
G1X45915Y38750D2*
G1X46042Y38750D1*
M2*
