*
%LPD*%
%LNbottom*%
%FSLAX24Y24*%
%MOIN*%
%AD*%
%ADD82C,0.01*%
%ADD131C,0.01181*%
%ADD132C,0.01969*%
%ADD142C,0.03937*%
%ADD148C,0.00787*%
%ADD149C,0.00591*%
%ADD151C,0.02756*%
%ADD153C,0.00984*%
%ADD227C,0.05906*%
%ADD235R,0.06299X0.06299*%
%ADD237R,0.06693X0.06693*%
%ADD339C,0.07087*%
%ADD343R,0.09843X0.09843*%
%ADD344C,0.09843*%
%ADD349C,0.0748*%
%ADD360C,0.06693*%
%ADD370R,0.0748X0.0748*%
G54D82*
%SRX1Y1I0.0J0.0*%
G1X65228Y65298D2*
G1X65228Y64708D1*
G1X64955Y64708D1*
G1X64569Y65298D2*
G1X64751Y64708D1*
G1X64569Y65298D2*
G1X64387Y64708D1*
G1X64683Y64904D2*
G1X64455Y64904D1*
G1X64183Y65298D2*
G1X64001Y65017D1*
G1X64001Y64708D1*
G1X63819Y65298D2*
G1X64001Y65017D1*
G1X63614Y65298D2*
G1X63614Y64708D1*
G1X63614Y65298D2*
G1X63319Y65298D1*
G1X63614Y65017D2*
G1X63433Y65017D1*
G1X63614Y64708D2*
G1X63319Y64708D1*
G1X63114Y65298D2*
G1X63114Y64708D1*
G1X63114Y65298D2*
G1X62910Y65298D1*
G1X62842Y65270D1*
G1X62819Y65242D1*
G1X62796Y65186D1*
G1X62796Y65129D1*
G1X62819Y65073D1*
G1X62842Y65045D1*
G1X62910Y65017D1*
G1X63114Y65017D1*
G1X62955Y65017D2*
G1X62796Y64708D1*
G1X62069Y65298D2*
G1X62069Y64708D1*
G1X62069Y65298D2*
G1X61864Y65298D1*
G1X61796Y65270D1*
G1X61774Y65242D1*
G1X61751Y65186D1*
G1X61751Y65129D1*
G1X61774Y65073D1*
G1X61796Y65045D1*
G1X61864Y65017D1*
G1X62069Y65017D2*
G1X61864Y65017D1*
G1X61796Y64989D1*
G1X61774Y64961D1*
G1X61751Y64904D1*
G1X61751Y64820D1*
G1X61774Y64764D1*
G1X61796Y64736D1*
G1X61864Y64708D1*
G1X62069Y64708D1*
G1X61410Y65298D2*
G1X61455Y65270D1*
G1X61501Y65214D1*
G1X61524Y65158D1*
G1X61546Y65073D1*
G1X61546Y64933D1*
G1X61524Y64848D1*
G1X61501Y64792D1*
G1X61455Y64736D1*
G1X61410Y64708D1*
G1X61319Y64708D1*
G1X61274Y64736D1*
G1X61228Y64792D1*
G1X61205Y64848D1*
G1X61183Y64933D1*
G1X61183Y65073D1*
G1X61205Y65158D1*
G1X61228Y65214D1*
G1X61274Y65270D1*
G1X61319Y65298D1*
G1X61410Y65298D1*
G1X60819Y65298D2*
G1X60819Y64708D1*
G1X60978Y65298D2*
G1X60660Y65298D1*
G1X60296Y65298D2*
G1X60296Y64708D1*
G1X60455Y65298D2*
G1X60137Y65298D1*
G1X59796Y65298D2*
G1X59842Y65270D1*
G1X59887Y65214D1*
G1X59910Y65158D1*
G1X59933Y65073D1*
G1X59933Y64933D1*
G1X59910Y64848D1*
G1X59887Y64792D1*
G1X59842Y64736D1*
G1X59796Y64708D1*
G1X59705Y64708D1*
G1X59660Y64736D1*
G1X59614Y64792D1*
G1X59592Y64848D1*
G1X59569Y64933D1*
G1X59569Y65073D1*
G1X59592Y65158D1*
G1X59614Y65214D1*
G1X59660Y65270D1*
G1X59705Y65298D1*
G1X59796Y65298D1*
G1X59364Y65298D2*
G1X59364Y64708D1*
G1X59364Y65298D2*
G1X59183Y64708D1*
G1X59001Y65298D2*
G1X59183Y64708D1*
G1X59001Y65298D2*
G1X59001Y64708D1*
G1X74159Y50317D2*
G54D131*
G1X74069Y50408D1*
G1X74159Y51194D2*
G1X74069Y51104D1*
G1X73282Y51194D2*
G1X73373Y51104D1*
G1X73282Y50317D2*
G1X73373Y50408D1*
G1X66982Y53543D2*
G1X66854Y53543D1*
G1X66480Y54045D2*
G1X66480Y53917D1*
G1X65978Y53543D2*
G1X66106Y53543D1*
G1X66480Y53041D2*
G1X66480Y53169D1*
G1X66982Y46575D2*
G1X66854Y46575D1*
G1X65978Y46575D2*
G1X66106Y46575D1*
G1X50370Y38370D2*
G54D132*
G1X50370Y40370D1*
G1X51370Y38370D2*
G1X51370Y40370D1*
G1X52370Y38370D2*
G1X52370Y40370D1*
G1X53370Y38370D2*
G1X53370Y40370D1*
G1X54370Y38370D2*
G1X54370Y40370D1*
G1X55370Y38370D2*
G1X55370Y40370D1*
G1X56370Y38370D2*
G1X56370Y40370D1*
G1X57370Y38370D2*
G1X57370Y40370D1*
G1X59370Y38370D2*
G1X59370Y40370D1*
G1X60370Y38370D2*
G1X60370Y40370D1*
G1X61370Y38370D2*
G1X61370Y40370D1*
G1X64370Y38370D2*
G1X64370Y40370D1*
G1X63370Y38370D2*
G1X63370Y40370D1*
G1X62370Y38370D2*
G1X62370Y40370D1*
G1X46772Y59370D2*
G1X46772Y60000D1*
G1X47370Y60598D1*
G1X47370Y61370D1*
G1X47772Y59370D2*
G1X47772Y60016D1*
G1X48370Y60614D1*
G1X48370Y61370D1*
G1X48772Y59370D2*
G1X48819Y59417D1*
G1X48819Y60118D1*
G1X49370Y60669D1*
G1X49370Y61370D1*
G1X49772Y59370D2*
G1X49772Y60158D1*
G1X50370Y60724D1*
G1X50370Y61370D1*
G1X50772Y59370D2*
G1X50748Y59409D1*
G1X50748Y60205D1*
G1X51370Y60827D1*
G1X51370Y61370D1*
G1X51772Y59370D2*
G1X51772Y60000D1*
G1X52370Y60598D1*
G1X52370Y61370D1*
G1X52772Y59370D2*
G1X52772Y60016D1*
G1X53370Y60614D1*
G1X53370Y61370D1*
G1X53772Y59370D2*
G1X53772Y60071D1*
G1X54370Y60669D1*
G1X54370Y61370D1*
G1X54772Y59370D2*
G1X54772Y60047D1*
G1X55370Y60646D1*
G1X55370Y61370D1*
G1X55772Y59370D2*
G1X55772Y60063D1*
G1X56370Y60661D1*
G1X56370Y61370D1*
G1X57370Y59370D2*
G1X57370Y61370D1*
G1X58370Y59370D2*
G1X58370Y61370D1*
G1X59370Y59370D2*
G1X59370Y61370D1*
G1X60370Y59370D2*
G1X60370Y61370D1*
G1X61370Y59370D2*
G1X61370Y61370D1*
G1X62370Y59370D2*
G1X62370Y61370D1*
G1X63370Y59370D2*
G1X63370Y61370D1*
G1X64370Y59370D2*
G1X64370Y61370D1*
G54D142*
G1X69744Y62874D3*
G1X46457Y39764D3*
G1X51181Y53701D3*
G1X59252Y50472D2*
G54D148*
G1X59252Y50787D1*
G1X59163Y50787D1*
G1X56772Y50787D1*
G1X56772Y53780D1*
G1X65845Y49449D2*
G1X63612Y49449D1*
G1X63593Y51050D2*
G1X63612Y51063D1*
G1X63465Y49724D2*
G1X63593Y49724D1*
G1X63612Y49449D1*
G1X63612Y51063D2*
G1X70906Y51063D1*
G1X72008Y52165D1*
G1X73630Y52165D1*
G1X73721Y52256D1*
G1X63189Y50787D2*
G1X63593Y51050D1*
G1X73721Y46256D2*
G1X72110Y44646D1*
G1X58032Y44646D1*
G1X56929Y45748D1*
G1X56929Y49291D1*
G1X58967Y49291D1*
G1X59163Y49488D1*
G1X73721Y47756D2*
G1X72520Y47756D1*
G1X70827Y49449D1*
G1X65845Y49449D1*
G1X56772Y53780D2*
G1X58819Y55827D1*
G1X71650Y55827D1*
G1X73721Y53756D2*
G1X71650Y55827D1*
G1X60620Y48534D2*
G54D149*
G1X60620Y51939D1*
G1X62175Y51939D1*
G1X62175Y48534D1*
G1X60620Y48534D1*
G1X59163Y50128D2*
G1X59163Y49045D1*
G1X60246Y49045D1*
G1X60246Y50128D1*
G1X59163Y50128D1*
G1X62510Y51467D2*
G1X62510Y50345D1*
G1X63593Y50345D1*
G1X63593Y51467D1*
G1X62510Y51467D1*
G1X62510Y49006D2*
G1X63593Y49006D1*
G1X63593Y50128D1*
G1X62510Y50128D1*
G1X62510Y49006D1*
G1X63612Y50345D2*
G1X63612Y51443D1*
G1X65168Y52766D1*
G1X67009Y52766D1*
G1X67836Y52845D1*
G1X74319Y52845D1*
G1X74656Y52508D1*
G1X74656Y51823D1*
G1X74476Y51644D1*
G1X72584Y51644D1*
G1X71797Y50659D1*
G1X65558Y50659D1*
G1X65282Y50345D1*
G1X63612Y50345D1*
G1X63612Y50128D2*
G1X65281Y50128D1*
G1X65515Y49813D1*
G1X71755Y49813D1*
G1X72582Y48474D1*
G1X74082Y48474D1*
G1X74498Y48059D1*
G1X74498Y47650D1*
G1X74161Y47313D1*
G1X65845Y47313D1*
G1X63324Y49222D1*
G1X63612Y49222D1*
G1X63612Y50128D1*
G1X59163Y51191D2*
G1X59163Y50345D1*
G1X60246Y50345D1*
G1X60246Y51191D1*
G1X59163Y51191D1*
G1X70800Y53297D2*
G1X74358Y53297D1*
G1X74656Y53595D1*
G1X74656Y55498D1*
G1X74124Y55915D1*
G1X71397Y55915D1*
G1X69713Y57372D1*
G1X62305Y57372D1*
G1X62110Y56742D1*
G1X61001Y56742D1*
G1X60844Y57333D1*
G1X55487Y57333D1*
G1X53730Y55892D1*
G1X53730Y50698D1*
G1X57271Y50648D1*
G1X57546Y50345D1*
G1X60246Y50345D1*
G1X60246Y51427D1*
G1X58553Y51427D1*
G1X58553Y54360D1*
G1X69816Y54360D1*
G1X70800Y53297D1*
G1X75010Y46742D2*
G1X70289Y46742D1*
G1X69541Y45876D1*
G1X59910Y45876D1*
G1X58553Y47034D1*
G1X58553Y49045D1*
G1X60246Y49045D1*
G1X60246Y50128D1*
G1X57533Y50128D1*
G1X57022Y49813D1*
G1X54282Y49813D1*
G1X54282Y44698D1*
G1X56936Y42271D1*
G1X69674Y42271D1*
G1X71245Y43612D1*
G1X74279Y43612D1*
G1X75010Y44343D1*
G1X75010Y46742D1*
G1X60620Y51900D2*
G1X62175Y51900D1*
G1X60620Y51841D2*
G1X62175Y51841D1*
G1X60620Y51782D2*
G1X62175Y51782D1*
G1X60620Y51722D2*
G1X62175Y51722D1*
G1X60620Y51663D2*
G1X62175Y51663D1*
G1X60620Y51604D2*
G1X62175Y51604D1*
G1X60620Y51545D2*
G1X62175Y51545D1*
G1X60620Y51486D2*
G1X62175Y51486D1*
G1X60620Y51427D2*
G1X62175Y51427D1*
G1X60620Y51368D2*
G1X62175Y51368D1*
G1X60620Y51309D2*
G1X62175Y51309D1*
G1X60620Y51250D2*
G1X62175Y51250D1*
G1X60620Y51191D2*
G1X62175Y51191D1*
G1X60620Y51132D2*
G1X62175Y51132D1*
G1X60620Y51073D2*
G1X62175Y51073D1*
G1X60620Y51014D2*
G1X62175Y51014D1*
G1X60620Y50955D2*
G1X62175Y50955D1*
G1X60620Y50896D2*
G1X62175Y50896D1*
G1X60620Y50837D2*
G1X62175Y50837D1*
G1X60620Y50778D2*
G1X62175Y50778D1*
G1X60620Y50719D2*
G1X62175Y50719D1*
G1X60620Y50659D2*
G1X62175Y50659D1*
G1X60620Y50600D2*
G1X62175Y50600D1*
G1X60620Y50541D2*
G1X62175Y50541D1*
G1X60620Y50482D2*
G1X62175Y50482D1*
G1X60620Y50423D2*
G1X62175Y50423D1*
G1X60620Y50364D2*
G1X62175Y50364D1*
G1X60620Y50305D2*
G1X62175Y50305D1*
G1X60620Y50246D2*
G1X62175Y50246D1*
G1X60620Y50187D2*
G1X62175Y50187D1*
G1X60620Y50128D2*
G1X62175Y50128D1*
G1X60620Y50069D2*
G1X62175Y50069D1*
G1X60620Y50010D2*
G1X62175Y50010D1*
G1X60620Y49951D2*
G1X62175Y49951D1*
G1X60620Y49892D2*
G1X62175Y49892D1*
G1X60620Y49833D2*
G1X62175Y49833D1*
G1X60620Y49774D2*
G1X62175Y49774D1*
G1X60620Y49715D2*
G1X62175Y49715D1*
G1X60620Y49656D2*
G1X62175Y49656D1*
G1X60620Y49597D2*
G1X62175Y49597D1*
G1X60620Y49537D2*
G1X62175Y49537D1*
G1X60620Y49478D2*
G1X62175Y49478D1*
G1X60620Y49419D2*
G1X62175Y49419D1*
G1X60620Y49360D2*
G1X62175Y49360D1*
G1X60620Y49301D2*
G1X62175Y49301D1*
G1X60620Y49242D2*
G1X62175Y49242D1*
G1X60620Y49183D2*
G1X62175Y49183D1*
G1X60620Y49124D2*
G1X62175Y49124D1*
G1X60620Y49065D2*
G1X62175Y49065D1*
G1X60620Y49006D2*
G1X62175Y49006D1*
G1X60620Y48947D2*
G1X62175Y48947D1*
G1X60620Y48888D2*
G1X62175Y48888D1*
G1X60620Y48829D2*
G1X62175Y48829D1*
G1X60620Y48770D2*
G1X62175Y48770D1*
G1X60620Y48711D2*
G1X62175Y48711D1*
G1X60620Y48652D2*
G1X62175Y48652D1*
G1X60620Y48593D2*
G1X62175Y48593D1*
G1X60620Y48534D2*
G1X60620Y51939D1*
G1X60679Y48534D2*
G1X60679Y51939D1*
G1X60738Y48534D2*
G1X60738Y51939D1*
G1X60797Y48534D2*
G1X60797Y51939D1*
G1X60856Y48534D2*
G1X60856Y51939D1*
G1X60915Y48534D2*
G1X60915Y51939D1*
G1X60974Y48534D2*
G1X60974Y51939D1*
G1X61034Y48534D2*
G1X61034Y51939D1*
G1X61093Y48534D2*
G1X61093Y51939D1*
G1X61152Y48534D2*
G1X61152Y51939D1*
G1X61211Y48534D2*
G1X61211Y51939D1*
G1X61270Y48534D2*
G1X61270Y51939D1*
G1X61329Y48534D2*
G1X61329Y51939D1*
G1X61388Y48534D2*
G1X61388Y51939D1*
G1X61447Y48534D2*
G1X61447Y51939D1*
G1X61506Y48534D2*
G1X61506Y51939D1*
G1X61565Y48534D2*
G1X61565Y51939D1*
G1X61624Y48534D2*
G1X61624Y51939D1*
G1X61683Y48534D2*
G1X61683Y51939D1*
G1X61742Y48534D2*
G1X61742Y51939D1*
G1X61801Y48534D2*
G1X61801Y51939D1*
G1X61860Y48534D2*
G1X61860Y51939D1*
G1X61919Y48534D2*
G1X61919Y51939D1*
G1X61978Y48534D2*
G1X61978Y51939D1*
G1X62037Y48534D2*
G1X62037Y51939D1*
G1X62097Y48534D2*
G1X62097Y51939D1*
G1X62156Y48534D2*
G1X62156Y51939D1*
G1X59163Y50128D2*
G1X60246Y50128D1*
G1X59163Y50069D2*
G1X60246Y50069D1*
G1X59163Y50010D2*
G1X60246Y50010D1*
G1X59163Y49951D2*
G1X60246Y49951D1*
G1X59163Y49892D2*
G1X60246Y49892D1*
G1X59163Y49833D2*
G1X60246Y49833D1*
G1X59163Y49774D2*
G1X60246Y49774D1*
G1X59163Y49715D2*
G1X60246Y49715D1*
G1X59163Y49656D2*
G1X60246Y49656D1*
G1X59163Y49597D2*
G1X60246Y49597D1*
G1X59163Y49537D2*
G1X60246Y49537D1*
G1X59163Y49478D2*
G1X60246Y49478D1*
G1X59163Y49419D2*
G1X60246Y49419D1*
G1X59163Y49360D2*
G1X60246Y49360D1*
G1X59163Y49301D2*
G1X60246Y49301D1*
G1X59163Y49242D2*
G1X60246Y49242D1*
G1X59163Y49183D2*
G1X60246Y49183D1*
G1X59163Y49124D2*
G1X60246Y49124D1*
G1X59163Y49065D2*
G1X60246Y49065D1*
G1X59163Y49045D2*
G1X59163Y50128D1*
G1X59222Y49045D2*
G1X59222Y50128D1*
G1X59282Y49045D2*
G1X59282Y50128D1*
G1X59341Y49045D2*
G1X59341Y50128D1*
G1X59400Y49045D2*
G1X59400Y50128D1*
G1X59459Y49045D2*
G1X59459Y50128D1*
G1X59518Y49045D2*
G1X59518Y50128D1*
G1X59577Y49045D2*
G1X59577Y50128D1*
G1X59636Y49045D2*
G1X59636Y50128D1*
G1X59695Y49045D2*
G1X59695Y50128D1*
G1X59754Y49045D2*
G1X59754Y50128D1*
G1X59813Y49045D2*
G1X59813Y50128D1*
G1X59872Y49045D2*
G1X59872Y50128D1*
G1X59931Y49045D2*
G1X59931Y50128D1*
G1X59990Y49045D2*
G1X59990Y50128D1*
G1X60049Y49045D2*
G1X60049Y50128D1*
G1X60108Y49045D2*
G1X60108Y50128D1*
G1X60167Y49045D2*
G1X60167Y50128D1*
G1X60226Y49045D2*
G1X60226Y50128D1*
G1X62510Y51467D2*
G1X63593Y51467D1*
G1X62510Y51408D2*
G1X63593Y51408D1*
G1X62510Y51348D2*
G1X63593Y51348D1*
G1X62510Y51289D2*
G1X63593Y51289D1*
G1X62510Y51230D2*
G1X63593Y51230D1*
G1X62510Y51171D2*
G1X63593Y51171D1*
G1X62510Y51112D2*
G1X63593Y51112D1*
G1X62510Y51053D2*
G1X63593Y51053D1*
G1X62510Y50994D2*
G1X63593Y50994D1*
G1X62510Y50935D2*
G1X63593Y50935D1*
G1X62510Y50876D2*
G1X63593Y50876D1*
G1X62510Y50817D2*
G1X63593Y50817D1*
G1X62510Y50758D2*
G1X63593Y50758D1*
G1X62510Y50699D2*
G1X63593Y50699D1*
G1X62510Y50640D2*
G1X63593Y50640D1*
G1X62510Y50581D2*
G1X63593Y50581D1*
G1X62510Y50522D2*
G1X63593Y50522D1*
G1X62510Y50463D2*
G1X63593Y50463D1*
G1X62510Y50404D2*
G1X63593Y50404D1*
G1X62510Y50345D2*
G1X62510Y51467D1*
G1X62569Y50345D2*
G1X62569Y51467D1*
G1X62628Y50345D2*
G1X62628Y51467D1*
G1X62687Y50345D2*
G1X62687Y51467D1*
G1X62746Y50345D2*
G1X62746Y51467D1*
G1X62805Y50345D2*
G1X62805Y51467D1*
G1X62864Y50345D2*
G1X62864Y51467D1*
G1X62923Y50345D2*
G1X62923Y51467D1*
G1X62982Y50345D2*
G1X62982Y51467D1*
G1X63041Y50345D2*
G1X63041Y51467D1*
G1X63100Y50345D2*
G1X63100Y51467D1*
G1X63159Y50345D2*
G1X63159Y51467D1*
G1X63219Y50345D2*
G1X63219Y51467D1*
G1X63278Y50345D2*
G1X63278Y51467D1*
G1X63337Y50345D2*
G1X63337Y51467D1*
G1X63396Y50345D2*
G1X63396Y51467D1*
G1X63455Y50345D2*
G1X63455Y51467D1*
G1X63514Y50345D2*
G1X63514Y51467D1*
G1X63573Y50345D2*
G1X63573Y51467D1*
G1X62510Y50128D2*
G1X63593Y50128D1*
G1X62510Y50069D2*
G1X63593Y50069D1*
G1X62510Y50010D2*
G1X63593Y50010D1*
G1X62510Y49951D2*
G1X63593Y49951D1*
G1X62510Y49892D2*
G1X63593Y49892D1*
G1X62510Y49833D2*
G1X63593Y49833D1*
G1X62510Y49774D2*
G1X63593Y49774D1*
G1X62510Y49715D2*
G1X63593Y49715D1*
G1X62510Y49656D2*
G1X63593Y49656D1*
G1X62510Y49597D2*
G1X63593Y49597D1*
G1X62510Y49537D2*
G1X63593Y49537D1*
G1X62510Y49478D2*
G1X63593Y49478D1*
G1X62510Y49419D2*
G1X63593Y49419D1*
G1X62510Y49360D2*
G1X63593Y49360D1*
G1X62510Y49301D2*
G1X63593Y49301D1*
G1X62510Y49242D2*
G1X63593Y49242D1*
G1X62510Y49183D2*
G1X63593Y49183D1*
G1X62510Y49124D2*
G1X63593Y49124D1*
G1X62510Y49065D2*
G1X63593Y49065D1*
G1X62510Y49006D2*
G1X62510Y50128D1*
G1X62569Y49006D2*
G1X62569Y50128D1*
G1X62628Y49006D2*
G1X62628Y50128D1*
G1X62687Y49006D2*
G1X62687Y50128D1*
G1X62746Y49006D2*
G1X62746Y50128D1*
G1X62805Y49006D2*
G1X62805Y50128D1*
G1X62864Y49006D2*
G1X62864Y50128D1*
G1X62923Y49006D2*
G1X62923Y50128D1*
G1X62982Y49006D2*
G1X62982Y50128D1*
G1X63041Y49006D2*
G1X63041Y50128D1*
G1X63100Y49006D2*
G1X63100Y50128D1*
G1X63159Y49006D2*
G1X63159Y50128D1*
G1X63219Y49006D2*
G1X63219Y50128D1*
G1X63278Y49006D2*
G1X63278Y50128D1*
G1X63337Y49006D2*
G1X63337Y50128D1*
G1X63396Y49006D2*
G1X63396Y50128D1*
G1X63455Y49006D2*
G1X63455Y50128D1*
G1X63514Y49006D2*
G1X63514Y50128D1*
G1X63573Y49006D2*
G1X63573Y50128D1*
G1X67629Y52825D2*
G1X74338Y52825D1*
G1X65168Y52766D2*
G1X74397Y52766D1*
G1X65099Y52707D2*
G1X74456Y52707D1*
G1X65029Y52648D2*
G1X74515Y52648D1*
G1X64960Y52589D2*
G1X74574Y52589D1*
G1X64890Y52530D2*
G1X74633Y52530D1*
G1X64821Y52471D2*
G1X74656Y52471D1*
G1X64752Y52411D2*
G1X74656Y52411D1*
G1X64682Y52352D2*
G1X74656Y52352D1*
G1X64613Y52293D2*
G1X74656Y52293D1*
G1X64543Y52234D2*
G1X74656Y52234D1*
G1X64474Y52175D2*
G1X74656Y52175D1*
G1X64404Y52116D2*
G1X74656Y52116D1*
G1X64335Y52057D2*
G1X74656Y52057D1*
G1X64265Y51998D2*
G1X74656Y51998D1*
G1X64196Y51939D2*
G1X74656Y51939D1*
G1X64126Y51880D2*
G1X74656Y51880D1*
G1X64057Y51821D2*
G1X74653Y51821D1*
G1X63987Y51762D2*
G1X74594Y51762D1*
G1X63918Y51703D2*
G1X74535Y51703D1*
G1X63848Y51644D2*
G1X72584Y51644D1*
G1X63779Y51585D2*
G1X72537Y51585D1*
G1X63709Y51526D2*
G1X72490Y51526D1*
G1X63640Y51467D2*
G1X72443Y51467D1*
G1X63612Y51408D2*
G1X72395Y51408D1*
G1X63612Y51348D2*
G1X72348Y51348D1*
G1X63612Y51289D2*
G1X72301Y51289D1*
G1X63612Y51230D2*
G1X72254Y51230D1*
G1X63612Y51171D2*
G1X72206Y51171D1*
G1X63612Y51112D2*
G1X72159Y51112D1*
G1X63612Y51053D2*
G1X72112Y51053D1*
G1X63612Y50994D2*
G1X72065Y50994D1*
G1X63612Y50935D2*
G1X72017Y50935D1*
G1X63612Y50876D2*
G1X71970Y50876D1*
G1X63612Y50817D2*
G1X71923Y50817D1*
G1X63612Y50758D2*
G1X71876Y50758D1*
G1X63612Y50699D2*
G1X71828Y50699D1*
G1X63612Y50640D2*
G1X65540Y50640D1*
G1X63612Y50581D2*
G1X65489Y50581D1*
G1X63612Y50522D2*
G1X65437Y50522D1*
G1X63612Y50463D2*
G1X65385Y50463D1*
G1X63612Y50404D2*
G1X65334Y50404D1*
G1X63612Y50345D2*
G1X63612Y51443D1*
G1X63671Y50345D2*
G1X63671Y51493D1*
G1X63730Y50345D2*
G1X63730Y51543D1*
G1X63789Y50345D2*
G1X63789Y51594D1*
G1X63848Y50345D2*
G1X63848Y51644D1*
G1X63908Y50345D2*
G1X63908Y51694D1*
G1X63967Y50345D2*
G1X63967Y51744D1*
G1X64026Y50345D2*
G1X64026Y51794D1*
G1X64085Y50345D2*
G1X64085Y51845D1*
G1X64144Y50345D2*
G1X64144Y51895D1*
G1X64203Y50345D2*
G1X64203Y51945D1*
G1X64262Y50345D2*
G1X64262Y51995D1*
G1X64321Y50345D2*
G1X64321Y52045D1*
G1X64380Y50345D2*
G1X64380Y52096D1*
G1X64439Y50345D2*
G1X64439Y52146D1*
G1X64498Y50345D2*
G1X64498Y52196D1*
G1X64557Y50345D2*
G1X64557Y52246D1*
G1X64616Y50345D2*
G1X64616Y52296D1*
G1X64675Y50345D2*
G1X64675Y52347D1*
G1X64734Y50345D2*
G1X64734Y52397D1*
G1X64793Y50345D2*
G1X64793Y52447D1*
G1X64852Y50345D2*
G1X64852Y52497D1*
G1X64911Y50345D2*
G1X64911Y52547D1*
G1X64971Y50345D2*
G1X64971Y52598D1*
G1X65030Y50345D2*
G1X65030Y52648D1*
G1X65089Y50345D2*
G1X65089Y52698D1*
G1X65148Y50345D2*
G1X65148Y52748D1*
G1X65207Y50345D2*
G1X65207Y52766D1*
G1X65266Y50345D2*
G1X65266Y52766D1*
G1X65325Y50394D2*
G1X65325Y52766D1*
G1X65384Y50461D2*
G1X65384Y52766D1*
G1X65443Y50529D2*
G1X65443Y52766D1*
G1X65502Y50596D2*
G1X65502Y52766D1*
G1X65561Y50659D2*
G1X65561Y52766D1*
G1X65620Y50659D2*
G1X65620Y52766D1*
G1X65679Y50659D2*
G1X65679Y52766D1*
G1X65738Y50659D2*
G1X65738Y52766D1*
G1X65797Y50659D2*
G1X65797Y52766D1*
G1X65856Y50659D2*
G1X65856Y52766D1*
G1X65915Y50659D2*
G1X65915Y52766D1*
G1X65974Y50659D2*
G1X65974Y52766D1*
G1X66034Y50659D2*
G1X66034Y52766D1*
G1X66093Y50659D2*
G1X66093Y52766D1*
G1X66152Y50659D2*
G1X66152Y52766D1*
G1X66211Y50659D2*
G1X66211Y52766D1*
G1X66270Y50659D2*
G1X66270Y52766D1*
G1X66329Y50659D2*
G1X66329Y52766D1*
G1X66388Y50659D2*
G1X66388Y52766D1*
G1X66447Y50659D2*
G1X66447Y52766D1*
G1X66506Y50659D2*
G1X66506Y52766D1*
G1X66565Y50659D2*
G1X66565Y52766D1*
G1X66624Y50659D2*
G1X66624Y52766D1*
G1X66683Y50659D2*
G1X66683Y52766D1*
G1X66742Y50659D2*
G1X66742Y52766D1*
G1X66801Y50659D2*
G1X66801Y52766D1*
G1X66860Y50659D2*
G1X66860Y52766D1*
G1X66919Y50659D2*
G1X66919Y52766D1*
G1X66978Y50659D2*
G1X66978Y52766D1*
G1X67037Y50659D2*
G1X67037Y52768D1*
G1X67097Y50659D2*
G1X67097Y52774D1*
G1X67156Y50659D2*
G1X67156Y52780D1*
G1X67215Y50659D2*
G1X67215Y52785D1*
G1X67274Y50659D2*
G1X67274Y52791D1*
G1X67333Y50659D2*
G1X67333Y52797D1*
G1X67392Y50659D2*
G1X67392Y52802D1*
G1X67451Y50659D2*
G1X67451Y52808D1*
G1X67510Y50659D2*
G1X67510Y52813D1*
G1X67569Y50659D2*
G1X67569Y52819D1*
G1X67628Y50659D2*
G1X67628Y52825D1*
G1X67687Y50659D2*
G1X67687Y52830D1*
G1X67746Y50659D2*
G1X67746Y52836D1*
G1X67805Y50659D2*
G1X67805Y52842D1*
G1X67864Y50659D2*
G1X67864Y52845D1*
G1X67923Y50659D2*
G1X67923Y52845D1*
G1X67982Y50659D2*
G1X67982Y52845D1*
G1X68041Y50659D2*
G1X68041Y52845D1*
G1X68100Y50659D2*
G1X68100Y52845D1*
G1X68159Y50659D2*
G1X68159Y52845D1*
G1X68219Y50659D2*
G1X68219Y52845D1*
G1X68278Y50659D2*
G1X68278Y52845D1*
G1X68337Y50659D2*
G1X68337Y52845D1*
G1X68396Y50659D2*
G1X68396Y52845D1*
G1X68455Y50659D2*
G1X68455Y52845D1*
G1X68514Y50659D2*
G1X68514Y52845D1*
G1X68573Y50659D2*
G1X68573Y52845D1*
G1X68632Y50659D2*
G1X68632Y52845D1*
G1X68691Y50659D2*
G1X68691Y52845D1*
G1X68750Y50659D2*
G1X68750Y52845D1*
G1X68809Y50659D2*
G1X68809Y52845D1*
G1X68868Y50659D2*
G1X68868Y52845D1*
G1X68927Y50659D2*
G1X68927Y52845D1*
G1X68986Y50659D2*
G1X68986Y52845D1*
G1X69045Y50659D2*
G1X69045Y52845D1*
G1X69104Y50659D2*
G1X69104Y52845D1*
G1X69163Y50659D2*
G1X69163Y52845D1*
G1X69222Y50659D2*
G1X69222Y52845D1*
G1X69282Y50659D2*
G1X69282Y52845D1*
G1X69341Y50659D2*
G1X69341Y52845D1*
G1X69400Y50659D2*
G1X69400Y52845D1*
G1X69459Y50659D2*
G1X69459Y52845D1*
G1X69518Y50659D2*
G1X69518Y52845D1*
G1X69577Y50659D2*
G1X69577Y52845D1*
G1X69636Y50659D2*
G1X69636Y52845D1*
G1X69695Y50659D2*
G1X69695Y52845D1*
G1X69754Y50659D2*
G1X69754Y52845D1*
G1X69813Y50659D2*
G1X69813Y52845D1*
G1X69872Y50659D2*
G1X69872Y52845D1*
G1X69931Y50659D2*
G1X69931Y52845D1*
G1X69990Y50659D2*
G1X69990Y52845D1*
G1X70049Y50659D2*
G1X70049Y52845D1*
G1X70108Y50659D2*
G1X70108Y52845D1*
G1X70167Y50659D2*
G1X70167Y52845D1*
G1X70226Y50659D2*
G1X70226Y52845D1*
G1X70285Y50659D2*
G1X70285Y52845D1*
G1X70345Y50659D2*
G1X70345Y52845D1*
G1X70404Y50659D2*
G1X70404Y52845D1*
G1X70463Y50659D2*
G1X70463Y52845D1*
G1X70522Y50659D2*
G1X70522Y52845D1*
G1X70581Y50659D2*
G1X70581Y52845D1*
G1X70640Y50659D2*
G1X70640Y52845D1*
G1X70699Y50659D2*
G1X70699Y52845D1*
G1X70758Y50659D2*
G1X70758Y52845D1*
G1X70817Y50659D2*
G1X70817Y52845D1*
G1X70876Y50659D2*
G1X70876Y52845D1*
G1X70935Y50659D2*
G1X70935Y52845D1*
G1X70994Y50659D2*
G1X70994Y52845D1*
G1X71053Y50659D2*
G1X71053Y52845D1*
G1X71112Y50659D2*
G1X71112Y52845D1*
G1X71171Y50659D2*
G1X71171Y52845D1*
G1X71230Y50659D2*
G1X71230Y52845D1*
G1X71289Y50659D2*
G1X71289Y52845D1*
G1X71348Y50659D2*
G1X71348Y52845D1*
G1X71408Y50659D2*
G1X71408Y52845D1*
G1X71467Y50659D2*
G1X71467Y52845D1*
G1X71526Y50659D2*
G1X71526Y52845D1*
G1X71585Y50659D2*
G1X71585Y52845D1*
G1X71644Y50659D2*
G1X71644Y52845D1*
G1X71703Y50659D2*
G1X71703Y52845D1*
G1X71762Y50659D2*
G1X71762Y52845D1*
G1X71821Y50690D2*
G1X71821Y52845D1*
G1X71880Y50763D2*
G1X71880Y52845D1*
G1X71939Y50837D2*
G1X71939Y52845D1*
G1X71998Y50911D2*
G1X71998Y52845D1*
G1X72057Y50985D2*
G1X72057Y52845D1*
G1X72116Y51059D2*
G1X72116Y52845D1*
G1X72175Y51132D2*
G1X72175Y52845D1*
G1X72234Y51206D2*
G1X72234Y52845D1*
G1X72293Y51280D2*
G1X72293Y52845D1*
G1X72352Y51354D2*
G1X72352Y52845D1*
G1X72411Y51428D2*
G1X72411Y52845D1*
G1X72471Y51502D2*
G1X72471Y52845D1*
G1X72530Y51575D2*
G1X72530Y52845D1*
G1X72589Y51644D2*
G1X72589Y52845D1*
G1X72648Y51644D2*
G1X72648Y52845D1*
G1X72707Y51644D2*
G1X72707Y52845D1*
G1X72766Y51644D2*
G1X72766Y52845D1*
G1X72825Y51644D2*
G1X72825Y52845D1*
G1X72884Y51644D2*
G1X72884Y52845D1*
G1X72943Y51644D2*
G1X72943Y52845D1*
G1X73002Y51644D2*
G1X73002Y52845D1*
G1X73061Y51644D2*
G1X73061Y52845D1*
G1X73120Y51644D2*
G1X73120Y52845D1*
G1X73179Y51644D2*
G1X73179Y52845D1*
G1X73238Y51644D2*
G1X73238Y52845D1*
G1X73297Y51644D2*
G1X73297Y52845D1*
G1X73356Y51644D2*
G1X73356Y52845D1*
G1X73415Y51644D2*
G1X73415Y52845D1*
G1X73474Y51644D2*
G1X73474Y52845D1*
G1X73534Y51644D2*
G1X73534Y52845D1*
G1X73593Y51644D2*
G1X73593Y52845D1*
G1X73652Y51644D2*
G1X73652Y52845D1*
G1X73711Y51644D2*
G1X73711Y52845D1*
G1X73770Y51644D2*
G1X73770Y52845D1*
G1X73829Y51644D2*
G1X73829Y52845D1*
G1X73888Y51644D2*
G1X73888Y52845D1*
G1X73947Y51644D2*
G1X73947Y52845D1*
G1X74006Y51644D2*
G1X74006Y52845D1*
G1X74065Y51644D2*
G1X74065Y52845D1*
G1X74124Y51644D2*
G1X74124Y52845D1*
G1X74183Y51644D2*
G1X74183Y52845D1*
G1X74242Y51644D2*
G1X74242Y52845D1*
G1X74301Y51644D2*
G1X74301Y52845D1*
G1X74360Y51644D2*
G1X74360Y52803D1*
G1X74419Y51644D2*
G1X74419Y52744D1*
G1X74478Y51646D2*
G1X74478Y52685D1*
G1X74537Y51705D2*
G1X74537Y52626D1*
G1X74597Y51764D2*
G1X74597Y52567D1*
G1X63612Y50128D2*
G1X65281Y50128D1*
G1X63612Y50069D2*
G1X65325Y50069D1*
G1X63612Y50010D2*
G1X65369Y50010D1*
G1X63612Y49951D2*
G1X65412Y49951D1*
G1X63612Y49892D2*
G1X65456Y49892D1*
G1X63612Y49833D2*
G1X65500Y49833D1*
G1X63612Y49774D2*
G1X71779Y49774D1*
G1X63612Y49715D2*
G1X71816Y49715D1*
G1X63612Y49656D2*
G1X71852Y49656D1*
G1X63612Y49597D2*
G1X71889Y49597D1*
G1X63612Y49537D2*
G1X71925Y49537D1*
G1X63612Y49478D2*
G1X71962Y49478D1*
G1X63612Y49419D2*
G1X71998Y49419D1*
G1X63612Y49360D2*
G1X72035Y49360D1*
G1X63612Y49301D2*
G1X72071Y49301D1*
G1X63612Y49242D2*
G1X72108Y49242D1*
G1X63376Y49183D2*
G1X72144Y49183D1*
G1X63454Y49124D2*
G1X72181Y49124D1*
G1X63532Y49065D2*
G1X72217Y49065D1*
G1X63610Y49006D2*
G1X72254Y49006D1*
G1X63688Y48947D2*
G1X72290Y48947D1*
G1X63766Y48888D2*
G1X72327Y48888D1*
G1X63844Y48829D2*
G1X72363Y48829D1*
G1X63922Y48770D2*
G1X72400Y48770D1*
G1X64000Y48711D2*
G1X72436Y48711D1*
G1X64078Y48652D2*
G1X72473Y48652D1*
G1X64156Y48593D2*
G1X72509Y48593D1*
G1X64234Y48534D2*
G1X72546Y48534D1*
G1X64312Y48474D2*
G1X74082Y48474D1*
G1X64390Y48415D2*
G1X74141Y48415D1*
G1X64468Y48356D2*
G1X74200Y48356D1*
G1X64546Y48297D2*
G1X74259Y48297D1*
G1X64624Y48238D2*
G1X74319Y48238D1*
G1X64701Y48179D2*
G1X74378Y48179D1*
G1X64779Y48120D2*
G1X74437Y48120D1*
G1X64857Y48061D2*
G1X74496Y48061D1*
G1X64935Y48002D2*
G1X74498Y48002D1*
G1X65013Y47943D2*
G1X74498Y47943D1*
G1X65091Y47884D2*
G1X74498Y47884D1*
G1X65169Y47825D2*
G1X74498Y47825D1*
G1X65247Y47766D2*
G1X74498Y47766D1*
G1X65325Y47707D2*
G1X74498Y47707D1*
G1X65403Y47648D2*
G1X74496Y47648D1*
G1X65481Y47589D2*
G1X74437Y47589D1*
G1X65559Y47530D2*
G1X74378Y47530D1*
G1X65637Y47471D2*
G1X74319Y47471D1*
G1X65715Y47411D2*
G1X74259Y47411D1*
G1X65793Y47352D2*
G1X74200Y47352D1*
G1X63376Y49183D2*
G1X63376Y49222D1*
G1X63435Y49139D2*
G1X63435Y49222D1*
G1X63494Y49094D2*
G1X63494Y49222D1*
G1X63553Y49049D2*
G1X63553Y49222D1*
G1X63612Y49004D2*
G1X63612Y50128D1*
G1X63671Y48960D2*
G1X63671Y50128D1*
G1X63730Y48915D2*
G1X63730Y50128D1*
G1X63789Y48870D2*
G1X63789Y50128D1*
G1X63848Y48825D2*
G1X63848Y50128D1*
G1X63908Y48781D2*
G1X63908Y50128D1*
G1X63967Y48736D2*
G1X63967Y50128D1*
G1X64026Y48691D2*
G1X64026Y50128D1*
G1X64085Y48646D2*
G1X64085Y50128D1*
G1X64144Y48602D2*
G1X64144Y50128D1*
G1X64203Y48557D2*
G1X64203Y50128D1*
G1X64262Y48512D2*
G1X64262Y50128D1*
G1X64321Y48467D2*
G1X64321Y50128D1*
G1X64380Y48423D2*
G1X64380Y50128D1*
G1X64439Y48378D2*
G1X64439Y50128D1*
G1X64498Y48333D2*
G1X64498Y50128D1*
G1X64557Y48289D2*
G1X64557Y50128D1*
G1X64616Y48244D2*
G1X64616Y50128D1*
G1X64675Y48199D2*
G1X64675Y50128D1*
G1X64734Y48154D2*
G1X64734Y50128D1*
G1X64793Y48110D2*
G1X64793Y50128D1*
G1X64852Y48065D2*
G1X64852Y50128D1*
G1X64911Y48020D2*
G1X64911Y50128D1*
G1X64971Y47975D2*
G1X64971Y50128D1*
G1X65030Y47931D2*
G1X65030Y50128D1*
G1X65089Y47886D2*
G1X65089Y50128D1*
G1X65148Y47841D2*
G1X65148Y50128D1*
G1X65207Y47796D2*
G1X65207Y50128D1*
G1X65266Y47752D2*
G1X65266Y50128D1*
G1X65325Y47707D2*
G1X65325Y50069D1*
G1X65384Y47662D2*
G1X65384Y49989D1*
G1X65443Y47617D2*
G1X65443Y49910D1*
G1X65502Y47573D2*
G1X65502Y49830D1*
G1X65561Y47528D2*
G1X65561Y49813D1*
G1X65620Y47483D2*
G1X65620Y49813D1*
G1X65679Y47438D2*
G1X65679Y49813D1*
G1X65738Y47394D2*
G1X65738Y49813D1*
G1X65797Y47349D2*
G1X65797Y49813D1*
G1X65856Y47313D2*
G1X65856Y49813D1*
G1X65915Y47313D2*
G1X65915Y49813D1*
G1X65974Y47313D2*
G1X65974Y49813D1*
G1X66034Y47313D2*
G1X66034Y49813D1*
G1X66093Y47313D2*
G1X66093Y49813D1*
G1X66152Y47313D2*
G1X66152Y49813D1*
G1X66211Y47313D2*
G1X66211Y49813D1*
G1X66270Y47313D2*
G1X66270Y49813D1*
G1X66329Y47313D2*
G1X66329Y49813D1*
G1X66388Y47313D2*
G1X66388Y49813D1*
G1X66447Y47313D2*
G1X66447Y49813D1*
G1X66506Y47313D2*
G1X66506Y49813D1*
G1X66565Y47313D2*
G1X66565Y49813D1*
G1X66624Y47313D2*
G1X66624Y49813D1*
G1X66683Y47313D2*
G1X66683Y49813D1*
G1X66742Y47313D2*
G1X66742Y49813D1*
G1X66801Y47313D2*
G1X66801Y49813D1*
G1X66860Y47313D2*
G1X66860Y49813D1*
G1X66919Y47313D2*
G1X66919Y49813D1*
G1X66978Y47313D2*
G1X66978Y49813D1*
G1X67037Y47313D2*
G1X67037Y49813D1*
G1X67097Y47313D2*
G1X67097Y49813D1*
G1X67156Y47313D2*
G1X67156Y49813D1*
G1X67215Y47313D2*
G1X67215Y49813D1*
G1X67274Y47313D2*
G1X67274Y49813D1*
G1X67333Y47313D2*
G1X67333Y49813D1*
G1X67392Y47313D2*
G1X67392Y49813D1*
G1X67451Y47313D2*
G1X67451Y49813D1*
G1X67510Y47313D2*
G1X67510Y49813D1*
G1X67569Y47313D2*
G1X67569Y49813D1*
G1X67628Y47313D2*
G1X67628Y49813D1*
G1X67687Y47313D2*
G1X67687Y49813D1*
G1X67746Y47313D2*
G1X67746Y49813D1*
G1X67805Y47313D2*
G1X67805Y49813D1*
G1X67864Y47313D2*
G1X67864Y49813D1*
G1X67923Y47313D2*
G1X67923Y49813D1*
G1X67982Y47313D2*
G1X67982Y49813D1*
G1X68041Y47313D2*
G1X68041Y49813D1*
G1X68100Y47313D2*
G1X68100Y49813D1*
G1X68159Y47313D2*
G1X68159Y49813D1*
G1X68219Y47313D2*
G1X68219Y49813D1*
G1X68278Y47313D2*
G1X68278Y49813D1*
G1X68337Y47313D2*
G1X68337Y49813D1*
G1X68396Y47313D2*
G1X68396Y49813D1*
G1X68455Y47313D2*
G1X68455Y49813D1*
G1X68514Y47313D2*
G1X68514Y49813D1*
G1X68573Y47313D2*
G1X68573Y49813D1*
G1X68632Y47313D2*
G1X68632Y49813D1*
G1X68691Y47313D2*
G1X68691Y49813D1*
G1X68750Y47313D2*
G1X68750Y49813D1*
G1X68809Y47313D2*
G1X68809Y49813D1*
G1X68868Y47313D2*
G1X68868Y49813D1*
G1X68927Y47313D2*
G1X68927Y49813D1*
G1X68986Y47313D2*
G1X68986Y49813D1*
G1X69045Y47313D2*
G1X69045Y49813D1*
G1X69104Y47313D2*
G1X69104Y49813D1*
G1X69163Y47313D2*
G1X69163Y49813D1*
G1X69222Y47313D2*
G1X69222Y49813D1*
G1X69282Y47313D2*
G1X69282Y49813D1*
G1X69341Y47313D2*
G1X69341Y49813D1*
G1X69400Y47313D2*
G1X69400Y49813D1*
G1X69459Y47313D2*
G1X69459Y49813D1*
G1X69518Y47313D2*
G1X69518Y49813D1*
G1X69577Y47313D2*
G1X69577Y49813D1*
G1X69636Y47313D2*
G1X69636Y49813D1*
G1X69695Y47313D2*
G1X69695Y49813D1*
G1X69754Y47313D2*
G1X69754Y49813D1*
G1X69813Y47313D2*
G1X69813Y49813D1*
G1X69872Y47313D2*
G1X69872Y49813D1*
G1X69931Y47313D2*
G1X69931Y49813D1*
G1X69990Y47313D2*
G1X69990Y49813D1*
G1X70049Y47313D2*
G1X70049Y49813D1*
G1X70108Y47313D2*
G1X70108Y49813D1*
G1X70167Y47313D2*
G1X70167Y49813D1*
G1X70226Y47313D2*
G1X70226Y49813D1*
G1X70285Y47313D2*
G1X70285Y49813D1*
G1X70345Y47313D2*
G1X70345Y49813D1*
G1X70404Y47313D2*
G1X70404Y49813D1*
G1X70463Y47313D2*
G1X70463Y49813D1*
G1X70522Y47313D2*
G1X70522Y49813D1*
G1X70581Y47313D2*
G1X70581Y49813D1*
G1X70640Y47313D2*
G1X70640Y49813D1*
G1X70699Y47313D2*
G1X70699Y49813D1*
G1X70758Y47313D2*
G1X70758Y49813D1*
G1X70817Y47313D2*
G1X70817Y49813D1*
G1X70876Y47313D2*
G1X70876Y49813D1*
G1X70935Y47313D2*
G1X70935Y49813D1*
G1X70994Y47313D2*
G1X70994Y49813D1*
G1X71053Y47313D2*
G1X71053Y49813D1*
G1X71112Y47313D2*
G1X71112Y49813D1*
G1X71171Y47313D2*
G1X71171Y49813D1*
G1X71230Y47313D2*
G1X71230Y49813D1*
G1X71289Y47313D2*
G1X71289Y49813D1*
G1X71348Y47313D2*
G1X71348Y49813D1*
G1X71408Y47313D2*
G1X71408Y49813D1*
G1X71467Y47313D2*
G1X71467Y49813D1*
G1X71526Y47313D2*
G1X71526Y49813D1*
G1X71585Y47313D2*
G1X71585Y49813D1*
G1X71644Y47313D2*
G1X71644Y49813D1*
G1X71703Y47313D2*
G1X71703Y49813D1*
G1X71762Y47313D2*
G1X71762Y49802D1*
G1X71821Y47313D2*
G1X71821Y49706D1*
G1X71880Y47313D2*
G1X71880Y49611D1*
G1X71939Y47313D2*
G1X71939Y49515D1*
G1X71998Y47313D2*
G1X71998Y49420D1*
G1X72057Y47313D2*
G1X72057Y49324D1*
G1X72116Y47313D2*
G1X72116Y49228D1*
G1X72175Y47313D2*
G1X72175Y49133D1*
G1X72234Y47313D2*
G1X72234Y49037D1*
G1X72293Y47313D2*
G1X72293Y48942D1*
G1X72352Y47313D2*
G1X72352Y48846D1*
G1X72411Y47313D2*
G1X72411Y48750D1*
G1X72471Y47313D2*
G1X72471Y48655D1*
G1X72530Y47313D2*
G1X72530Y48559D1*
G1X72589Y47313D2*
G1X72589Y48474D1*
G1X72648Y47313D2*
G1X72648Y48474D1*
G1X72707Y47313D2*
G1X72707Y48474D1*
G1X72766Y47313D2*
G1X72766Y48474D1*
G1X72825Y47313D2*
G1X72825Y48474D1*
G1X72884Y47313D2*
G1X72884Y48474D1*
G1X72943Y47313D2*
G1X72943Y48474D1*
G1X73002Y47313D2*
G1X73002Y48474D1*
G1X73061Y47313D2*
G1X73061Y48474D1*
G1X73120Y47313D2*
G1X73120Y48474D1*
G1X73179Y47313D2*
G1X73179Y48474D1*
G1X73238Y47313D2*
G1X73238Y48474D1*
G1X73297Y47313D2*
G1X73297Y48474D1*
G1X73356Y47313D2*
G1X73356Y48474D1*
G1X73415Y47313D2*
G1X73415Y48474D1*
G1X73474Y47313D2*
G1X73474Y48474D1*
G1X73534Y47313D2*
G1X73534Y48474D1*
G1X73593Y47313D2*
G1X73593Y48474D1*
G1X73652Y47313D2*
G1X73652Y48474D1*
G1X73711Y47313D2*
G1X73711Y48474D1*
G1X73770Y47313D2*
G1X73770Y48474D1*
G1X73829Y47313D2*
G1X73829Y48474D1*
G1X73888Y47313D2*
G1X73888Y48474D1*
G1X73947Y47313D2*
G1X73947Y48474D1*
G1X74006Y47313D2*
G1X74006Y48474D1*
G1X74065Y47313D2*
G1X74065Y48474D1*
G1X74124Y47313D2*
G1X74124Y48433D1*
G1X74183Y47335D2*
G1X74183Y48374D1*
G1X74242Y47394D2*
G1X74242Y48315D1*
G1X74301Y47453D2*
G1X74301Y48256D1*
G1X74360Y47512D2*
G1X74360Y48196D1*
G1X74419Y47571D2*
G1X74419Y48137D1*
G1X74478Y47630D2*
G1X74478Y48078D1*
G1X59163Y51191D2*
G1X60246Y51191D1*
G1X59163Y51132D2*
G1X60246Y51132D1*
G1X59163Y51073D2*
G1X60246Y51073D1*
G1X59163Y51014D2*
G1X60246Y51014D1*
G1X59163Y50955D2*
G1X60246Y50955D1*
G1X59163Y50896D2*
G1X60246Y50896D1*
G1X59163Y50837D2*
G1X60246Y50837D1*
G1X59163Y50778D2*
G1X60246Y50778D1*
G1X59163Y50719D2*
G1X60246Y50719D1*
G1X59163Y50659D2*
G1X60246Y50659D1*
G1X59163Y50600D2*
G1X60246Y50600D1*
G1X59163Y50541D2*
G1X60246Y50541D1*
G1X59163Y50482D2*
G1X60246Y50482D1*
G1X59163Y50423D2*
G1X60246Y50423D1*
G1X59163Y50364D2*
G1X60246Y50364D1*
G1X59163Y50345D2*
G1X59163Y51191D1*
G1X59222Y50345D2*
G1X59222Y51191D1*
G1X59282Y50345D2*
G1X59282Y51191D1*
G1X59341Y50345D2*
G1X59341Y51191D1*
G1X59400Y50345D2*
G1X59400Y51191D1*
G1X59459Y50345D2*
G1X59459Y51191D1*
G1X59518Y50345D2*
G1X59518Y51191D1*
G1X59577Y50345D2*
G1X59577Y51191D1*
G1X59636Y50345D2*
G1X59636Y51191D1*
G1X59695Y50345D2*
G1X59695Y51191D1*
G1X59754Y50345D2*
G1X59754Y51191D1*
G1X59813Y50345D2*
G1X59813Y51191D1*
G1X59872Y50345D2*
G1X59872Y51191D1*
G1X59931Y50345D2*
G1X59931Y51191D1*
G1X59990Y50345D2*
G1X59990Y51191D1*
G1X60049Y50345D2*
G1X60049Y51191D1*
G1X60108Y50345D2*
G1X60108Y51191D1*
G1X60167Y50345D2*
G1X60167Y51191D1*
G1X60226Y50345D2*
G1X60226Y51191D1*
G1X62305Y57372D2*
G1X69713Y57372D1*
G1X55463Y57313D2*
G1X60849Y57313D1*
G1X62287Y57313D2*
G1X69782Y57313D1*
G1X55391Y57254D2*
G1X60865Y57254D1*
G1X62269Y57254D2*
G1X69850Y57254D1*
G1X55319Y57195D2*
G1X60880Y57195D1*
G1X62250Y57195D2*
G1X69918Y57195D1*
G1X55247Y57136D2*
G1X60896Y57136D1*
G1X62232Y57136D2*
G1X69986Y57136D1*
G1X55175Y57077D2*
G1X60912Y57077D1*
G1X62214Y57077D2*
G1X70055Y57077D1*
G1X55103Y57018D2*
G1X60927Y57018D1*
G1X62195Y57018D2*
G1X70123Y57018D1*
G1X55031Y56959D2*
G1X60943Y56959D1*
G1X62177Y56959D2*
G1X70191Y56959D1*
G1X54959Y56900D2*
G1X60959Y56900D1*
G1X62158Y56900D2*
G1X70259Y56900D1*
G1X54887Y56841D2*
G1X60975Y56841D1*
G1X62140Y56841D2*
G1X70328Y56841D1*
G1X54815Y56782D2*
G1X60990Y56782D1*
G1X62122Y56782D2*
G1X70396Y56782D1*
G1X54743Y56722D2*
G1X70464Y56722D1*
G1X54671Y56663D2*
G1X70532Y56663D1*
G1X54599Y56604D2*
G1X70600Y56604D1*
G1X54527Y56545D2*
G1X70669Y56545D1*
G1X54455Y56486D2*
G1X70737Y56486D1*
G1X54383Y56427D2*
G1X70805Y56427D1*
G1X54311Y56368D2*
G1X70873Y56368D1*
G1X54239Y56309D2*
G1X70942Y56309D1*
G1X54167Y56250D2*
G1X71010Y56250D1*
G1X54095Y56191D2*
G1X71078Y56191D1*
G1X54023Y56132D2*
G1X71146Y56132D1*
G1X53951Y56073D2*
G1X71215Y56073D1*
G1X53879Y56014D2*
G1X71283Y56014D1*
G1X53807Y55955D2*
G1X71351Y55955D1*
G1X53735Y55896D2*
G1X74149Y55896D1*
G1X53730Y55837D2*
G1X74224Y55837D1*
G1X53730Y55778D2*
G1X74299Y55778D1*
G1X53730Y55719D2*
G1X74374Y55719D1*
G1X53730Y55659D2*
G1X74449Y55659D1*
G1X53730Y55600D2*
G1X74525Y55600D1*
G1X53730Y55541D2*
G1X74600Y55541D1*
G1X53730Y55482D2*
G1X74656Y55482D1*
G1X53730Y55423D2*
G1X74656Y55423D1*
G1X53730Y55364D2*
G1X74656Y55364D1*
G1X53730Y55305D2*
G1X74656Y55305D1*
G1X53730Y55246D2*
G1X74656Y55246D1*
G1X53730Y55187D2*
G1X74656Y55187D1*
G1X53730Y55128D2*
G1X74656Y55128D1*
G1X53730Y55069D2*
G1X74656Y55069D1*
G1X53730Y55010D2*
G1X74656Y55010D1*
G1X53730Y54951D2*
G1X74656Y54951D1*
G1X53730Y54892D2*
G1X74656Y54892D1*
G1X53730Y54833D2*
G1X74656Y54833D1*
G1X53730Y54774D2*
G1X74656Y54774D1*
G1X53730Y54715D2*
G1X74656Y54715D1*
G1X53730Y54656D2*
G1X74656Y54656D1*
G1X53730Y54597D2*
G1X74656Y54597D1*
G1X53730Y54537D2*
G1X74656Y54537D1*
G1X53730Y54478D2*
G1X74656Y54478D1*
G1X53730Y54419D2*
G1X74656Y54419D1*
G1X53730Y54360D2*
G1X58553Y54360D1*
G1X69816Y54360D2*
G1X74656Y54360D1*
G1X53730Y54301D2*
G1X58553Y54301D1*
G1X69871Y54301D2*
G1X74656Y54301D1*
G1X53730Y54242D2*
G1X58553Y54242D1*
G1X69925Y54242D2*
G1X74656Y54242D1*
G1X53730Y54183D2*
G1X58553Y54183D1*
G1X69980Y54183D2*
G1X74656Y54183D1*
G1X53730Y54124D2*
G1X58553Y54124D1*
G1X70035Y54124D2*
G1X74656Y54124D1*
G1X53730Y54065D2*
G1X58553Y54065D1*
G1X70090Y54065D2*
G1X74656Y54065D1*
G1X53730Y54006D2*
G1X58553Y54006D1*
G1X70144Y54006D2*
G1X74656Y54006D1*
G1X53730Y53947D2*
G1X58553Y53947D1*
G1X70199Y53947D2*
G1X74656Y53947D1*
G1X53730Y53888D2*
G1X58553Y53888D1*
G1X70254Y53888D2*
G1X74656Y53888D1*
G1X53730Y53829D2*
G1X58553Y53829D1*
G1X70308Y53829D2*
G1X74656Y53829D1*
G1X53730Y53770D2*
G1X58553Y53770D1*
G1X70363Y53770D2*
G1X74656Y53770D1*
G1X53730Y53711D2*
G1X58553Y53711D1*
G1X70418Y53711D2*
G1X74656Y53711D1*
G1X53730Y53652D2*
G1X58553Y53652D1*
G1X70472Y53652D2*
G1X74656Y53652D1*
G1X53730Y53593D2*
G1X58553Y53593D1*
G1X70527Y53593D2*
G1X74653Y53593D1*
G1X53730Y53534D2*
G1X58553Y53534D1*
G1X70582Y53534D2*
G1X74594Y53534D1*
G1X53730Y53474D2*
G1X58553Y53474D1*
G1X70636Y53474D2*
G1X74535Y53474D1*
G1X53730Y53415D2*
G1X58553Y53415D1*
G1X70691Y53415D2*
G1X74476Y53415D1*
G1X53730Y53356D2*
G1X58553Y53356D1*
G1X70746Y53356D2*
G1X74417Y53356D1*
G1X53730Y53297D2*
G1X58553Y53297D1*
G1X53730Y53238D2*
G1X58553Y53238D1*
G1X53730Y53179D2*
G1X58553Y53179D1*
G1X53730Y53120D2*
G1X58553Y53120D1*
G1X53730Y53061D2*
G1X58553Y53061D1*
G1X53730Y53002D2*
G1X58553Y53002D1*
G1X53730Y52943D2*
G1X58553Y52943D1*
G1X53730Y52884D2*
G1X58553Y52884D1*
G1X53730Y52825D2*
G1X58553Y52825D1*
G1X53730Y52766D2*
G1X58553Y52766D1*
G1X53730Y52707D2*
G1X58553Y52707D1*
G1X53730Y52648D2*
G1X58553Y52648D1*
G1X53730Y52589D2*
G1X58553Y52589D1*
G1X53730Y52530D2*
G1X58553Y52530D1*
G1X53730Y52471D2*
G1X58553Y52471D1*
G1X53730Y52411D2*
G1X58553Y52411D1*
G1X53730Y52352D2*
G1X58553Y52352D1*
G1X53730Y52293D2*
G1X58553Y52293D1*
G1X53730Y52234D2*
G1X58553Y52234D1*
G1X53730Y52175D2*
G1X58553Y52175D1*
G1X53730Y52116D2*
G1X58553Y52116D1*
G1X53730Y52057D2*
G1X58553Y52057D1*
G1X53730Y51998D2*
G1X58553Y51998D1*
G1X53730Y51939D2*
G1X58553Y51939D1*
G1X53730Y51880D2*
G1X58553Y51880D1*
G1X53730Y51821D2*
G1X58553Y51821D1*
G1X53730Y51762D2*
G1X58553Y51762D1*
G1X53730Y51703D2*
G1X58553Y51703D1*
G1X53730Y51644D2*
G1X58553Y51644D1*
G1X53730Y51585D2*
G1X58553Y51585D1*
G1X53730Y51526D2*
G1X58553Y51526D1*
G1X53730Y51467D2*
G1X58553Y51467D1*
G1X53730Y51408D2*
G1X60246Y51408D1*
G1X53730Y51348D2*
G1X60246Y51348D1*
G1X53730Y51289D2*
G1X60246Y51289D1*
G1X53730Y51230D2*
G1X60246Y51230D1*
G1X53730Y51171D2*
G1X60246Y51171D1*
G1X53730Y51112D2*
G1X60246Y51112D1*
G1X53730Y51053D2*
G1X60246Y51053D1*
G1X53730Y50994D2*
G1X60246Y50994D1*
G1X53730Y50935D2*
G1X60246Y50935D1*
G1X53730Y50876D2*
G1X60246Y50876D1*
G1X53730Y50817D2*
G1X60246Y50817D1*
G1X53730Y50758D2*
G1X60246Y50758D1*
G1X53730Y50699D2*
G1X60246Y50699D1*
G1X57279Y50640D2*
G1X60246Y50640D1*
G1X57332Y50581D2*
G1X60246Y50581D1*
G1X57386Y50522D2*
G1X60246Y50522D1*
G1X57439Y50463D2*
G1X60246Y50463D1*
G1X57493Y50404D2*
G1X60246Y50404D1*
G1X53733Y50698D2*
G1X53733Y55894D1*
G1X53792Y50698D2*
G1X53792Y55943D1*
G1X53852Y50697D2*
G1X53852Y55991D1*
G1X53911Y50696D2*
G1X53911Y56039D1*
G1X53970Y50695D2*
G1X53970Y56088D1*
G1X54029Y50694D2*
G1X54029Y56136D1*
G1X54088Y50693D2*
G1X54088Y56185D1*
G1X54147Y50693D2*
G1X54147Y56233D1*
G1X54206Y50692D2*
G1X54206Y56282D1*
G1X54265Y50691D2*
G1X54265Y56330D1*
G1X54324Y50690D2*
G1X54324Y56379D1*
G1X54383Y50689D2*
G1X54383Y56427D1*
G1X54442Y50688D2*
G1X54442Y56476D1*
G1X54501Y50688D2*
G1X54501Y56524D1*
G1X54560Y50687D2*
G1X54560Y56572D1*
G1X54619Y50686D2*
G1X54619Y56621D1*
G1X54678Y50685D2*
G1X54678Y56669D1*
G1X54737Y50684D2*
G1X54737Y56718D1*
G1X54796Y50683D2*
G1X54796Y56766D1*
G1X54855Y50682D2*
G1X54855Y56815D1*
G1X54915Y50682D2*
G1X54915Y56863D1*
G1X54974Y50681D2*
G1X54974Y56912D1*
G1X55033Y50680D2*
G1X55033Y56960D1*
G1X55092Y50679D2*
G1X55092Y57008D1*
G1X55151Y50678D2*
G1X55151Y57057D1*
G1X55210Y50677D2*
G1X55210Y57105D1*
G1X55269Y50677D2*
G1X55269Y57154D1*
G1X55328Y50676D2*
G1X55328Y57202D1*
G1X55387Y50675D2*
G1X55387Y57251D1*
G1X55446Y50674D2*
G1X55446Y57299D1*
G1X55505Y50673D2*
G1X55505Y57333D1*
G1X55564Y50672D2*
G1X55564Y57333D1*
G1X55623Y50672D2*
G1X55623Y57333D1*
G1X55682Y50671D2*
G1X55682Y57333D1*
G1X55741Y50670D2*
G1X55741Y57333D1*
G1X55800Y50669D2*
G1X55800Y57333D1*
G1X55859Y50668D2*
G1X55859Y57333D1*
G1X55918Y50667D2*
G1X55918Y57333D1*
G1X55978Y50667D2*
G1X55978Y57333D1*
G1X56037Y50666D2*
G1X56037Y57333D1*
G1X56096Y50665D2*
G1X56096Y57333D1*
G1X56155Y50664D2*
G1X56155Y57333D1*
G1X56214Y50663D2*
G1X56214Y57333D1*
G1X56273Y50662D2*
G1X56273Y57333D1*
G1X56332Y50662D2*
G1X56332Y57333D1*
G1X56391Y50661D2*
G1X56391Y57333D1*
G1X56450Y50660D2*
G1X56450Y57333D1*
G1X56509Y50659D2*
G1X56509Y57333D1*
G1X56568Y50658D2*
G1X56568Y57333D1*
G1X56627Y50657D2*
G1X56627Y57333D1*
G1X56686Y50657D2*
G1X56686Y57333D1*
G1X56745Y50656D2*
G1X56745Y57333D1*
G1X56804Y50655D2*
G1X56804Y57333D1*
G1X56863Y50654D2*
G1X56863Y57333D1*
G1X56922Y50653D2*
G1X56922Y57333D1*
G1X56981Y50652D2*
G1X56981Y57333D1*
G1X57041Y50651D2*
G1X57041Y57333D1*
G1X57100Y50651D2*
G1X57100Y57333D1*
G1X57159Y50650D2*
G1X57159Y57333D1*
G1X57218Y50649D2*
G1X57218Y57333D1*
G1X57277Y50642D2*
G1X57277Y57333D1*
G1X57336Y50577D2*
G1X57336Y57333D1*
G1X57395Y50512D2*
G1X57395Y57333D1*
G1X57454Y50447D2*
G1X57454Y57333D1*
G1X57513Y50381D2*
G1X57513Y57333D1*
G1X57572Y50345D2*
G1X57572Y57333D1*
G1X57631Y50345D2*
G1X57631Y57333D1*
G1X57690Y50345D2*
G1X57690Y57333D1*
G1X57749Y50345D2*
G1X57749Y57333D1*
G1X57808Y50345D2*
G1X57808Y57333D1*
G1X57867Y50345D2*
G1X57867Y57333D1*
G1X57926Y50345D2*
G1X57926Y57333D1*
G1X57985Y50345D2*
G1X57985Y57333D1*
G1X58044Y50345D2*
G1X58044Y57333D1*
G1X58104Y50345D2*
G1X58104Y57333D1*
G1X58163Y50345D2*
G1X58163Y57333D1*
G1X58222Y50345D2*
G1X58222Y57333D1*
G1X58281Y50345D2*
G1X58281Y57333D1*
G1X58340Y50345D2*
G1X58340Y57333D1*
G1X58399Y50345D2*
G1X58399Y57333D1*
G1X58458Y50345D2*
G1X58458Y57333D1*
G1X58517Y50345D2*
G1X58517Y57333D1*
G1X58576Y50345D2*
G1X58576Y51427D1*
G1X58576Y54360D2*
G1X58576Y57333D1*
G1X58635Y50345D2*
G1X58635Y51427D1*
G1X58635Y54360D2*
G1X58635Y57333D1*
G1X58694Y50345D2*
G1X58694Y51427D1*
G1X58694Y54360D2*
G1X58694Y57333D1*
G1X58753Y50345D2*
G1X58753Y51427D1*
G1X58753Y54360D2*
G1X58753Y57333D1*
G1X58812Y50345D2*
G1X58812Y51427D1*
G1X58812Y54360D2*
G1X58812Y57333D1*
G1X58871Y50345D2*
G1X58871Y51427D1*
G1X58871Y54360D2*
G1X58871Y57333D1*
G1X58930Y50345D2*
G1X58930Y51427D1*
G1X58930Y54360D2*
G1X58930Y57333D1*
G1X58989Y50345D2*
G1X58989Y51427D1*
G1X58989Y54360D2*
G1X58989Y57333D1*
G1X59048Y50345D2*
G1X59048Y51427D1*
G1X59048Y54360D2*
G1X59048Y57333D1*
G1X59107Y50345D2*
G1X59107Y51427D1*
G1X59107Y54360D2*
G1X59107Y57333D1*
G1X59166Y50345D2*
G1X59166Y51427D1*
G1X59166Y54360D2*
G1X59166Y57333D1*
G1X59226Y50345D2*
G1X59226Y51427D1*
G1X59226Y54360D2*
G1X59226Y57333D1*
G1X59285Y50345D2*
G1X59285Y51427D1*
G1X59285Y54360D2*
G1X59285Y57333D1*
G1X59344Y50345D2*
G1X59344Y51427D1*
G1X59344Y54360D2*
G1X59344Y57333D1*
G1X59403Y50345D2*
G1X59403Y51427D1*
G1X59403Y54360D2*
G1X59403Y57333D1*
G1X59462Y50345D2*
G1X59462Y51427D1*
G1X59462Y54360D2*
G1X59462Y57333D1*
G1X59521Y50345D2*
G1X59521Y51427D1*
G1X59521Y54360D2*
G1X59521Y57333D1*
G1X59580Y50345D2*
G1X59580Y51427D1*
G1X59580Y54360D2*
G1X59580Y57333D1*
G1X59639Y50345D2*
G1X59639Y51427D1*
G1X59639Y54360D2*
G1X59639Y57333D1*
G1X59698Y50345D2*
G1X59698Y51427D1*
G1X59698Y54360D2*
G1X59698Y57333D1*
G1X59757Y50345D2*
G1X59757Y51427D1*
G1X59757Y54360D2*
G1X59757Y57333D1*
G1X59816Y50345D2*
G1X59816Y51427D1*
G1X59816Y54360D2*
G1X59816Y57333D1*
G1X59875Y50345D2*
G1X59875Y51427D1*
G1X59875Y54360D2*
G1X59875Y57333D1*
G1X59934Y50345D2*
G1X59934Y51427D1*
G1X59934Y54360D2*
G1X59934Y57333D1*
G1X59993Y50345D2*
G1X59993Y51427D1*
G1X59993Y54360D2*
G1X59993Y57333D1*
G1X60052Y50345D2*
G1X60052Y51427D1*
G1X60052Y54360D2*
G1X60052Y57333D1*
G1X60111Y50345D2*
G1X60111Y51427D1*
G1X60111Y54360D2*
G1X60111Y57333D1*
G1X60170Y50345D2*
G1X60170Y51427D1*
G1X60170Y54360D2*
G1X60170Y57333D1*
G1X60229Y50345D2*
G1X60229Y51427D1*
G1X60229Y54360D2*
G1X60229Y57333D1*
G1X60289Y54360D2*
G1X60289Y57333D1*
G1X60348Y54360D2*
G1X60348Y57333D1*
G1X60407Y54360D2*
G1X60407Y57333D1*
G1X60466Y54360D2*
G1X60466Y57333D1*
G1X60525Y54360D2*
G1X60525Y57333D1*
G1X60584Y54360D2*
G1X60584Y57333D1*
G1X60643Y54360D2*
G1X60643Y57333D1*
G1X60702Y54360D2*
G1X60702Y57333D1*
G1X60761Y54360D2*
G1X60761Y57333D1*
G1X60820Y54360D2*
G1X60820Y57333D1*
G1X60879Y54360D2*
G1X60879Y57199D1*
G1X60938Y54360D2*
G1X60938Y56978D1*
G1X60997Y54360D2*
G1X60997Y56756D1*
G1X61056Y54360D2*
G1X61056Y56742D1*
G1X61115Y54360D2*
G1X61115Y56742D1*
G1X61174Y54360D2*
G1X61174Y56742D1*
G1X61233Y54360D2*
G1X61233Y56742D1*
G1X61292Y54360D2*
G1X61292Y56742D1*
G1X61352Y54360D2*
G1X61352Y56742D1*
G1X61411Y54360D2*
G1X61411Y56742D1*
G1X61470Y54360D2*
G1X61470Y56742D1*
G1X61529Y54360D2*
G1X61529Y56742D1*
G1X61588Y54360D2*
G1X61588Y56742D1*
G1X61647Y54360D2*
G1X61647Y56742D1*
G1X61706Y54360D2*
G1X61706Y56742D1*
G1X61765Y54360D2*
G1X61765Y56742D1*
G1X61824Y54360D2*
G1X61824Y56742D1*
G1X61883Y54360D2*
G1X61883Y56742D1*
G1X61942Y54360D2*
G1X61942Y56742D1*
G1X62001Y54360D2*
G1X62001Y56742D1*
G1X62060Y54360D2*
G1X62060Y56742D1*
G1X62119Y54360D2*
G1X62119Y56773D1*
G1X62178Y54360D2*
G1X62178Y56963D1*
G1X62237Y54360D2*
G1X62237Y57154D1*
G1X62296Y54360D2*
G1X62296Y57344D1*
G1X62355Y54360D2*
G1X62355Y57372D1*
G1X62415Y54360D2*
G1X62415Y57372D1*
G1X62474Y54360D2*
G1X62474Y57372D1*
G1X62533Y54360D2*
G1X62533Y57372D1*
G1X62592Y54360D2*
G1X62592Y57372D1*
G1X62651Y54360D2*
G1X62651Y57372D1*
G1X62710Y54360D2*
G1X62710Y57372D1*
G1X62769Y54360D2*
G1X62769Y57372D1*
G1X62828Y54360D2*
G1X62828Y57372D1*
G1X62887Y54360D2*
G1X62887Y57372D1*
G1X62946Y54360D2*
G1X62946Y57372D1*
G1X63005Y54360D2*
G1X63005Y57372D1*
G1X63064Y54360D2*
G1X63064Y57372D1*
G1X63123Y54360D2*
G1X63123Y57372D1*
G1X63182Y54360D2*
G1X63182Y57372D1*
G1X63241Y54360D2*
G1X63241Y57372D1*
G1X63300Y54360D2*
G1X63300Y57372D1*
G1X63359Y54360D2*
G1X63359Y57372D1*
G1X63418Y54360D2*
G1X63418Y57372D1*
G1X63478Y54360D2*
G1X63478Y57372D1*
G1X63537Y54360D2*
G1X63537Y57372D1*
G1X63596Y54360D2*
G1X63596Y57372D1*
G1X63655Y54360D2*
G1X63655Y57372D1*
G1X63714Y54360D2*
G1X63714Y57372D1*
G1X63773Y54360D2*
G1X63773Y57372D1*
G1X63832Y54360D2*
G1X63832Y57372D1*
G1X63891Y54360D2*
G1X63891Y57372D1*
G1X63950Y54360D2*
G1X63950Y57372D1*
G1X64009Y54360D2*
G1X64009Y57372D1*
G1X64068Y54360D2*
G1X64068Y57372D1*
G1X64127Y54360D2*
G1X64127Y57372D1*
G1X64186Y54360D2*
G1X64186Y57372D1*
G1X64245Y54360D2*
G1X64245Y57372D1*
G1X64304Y54360D2*
G1X64304Y57372D1*
G1X64363Y54360D2*
G1X64363Y57372D1*
G1X64422Y54360D2*
G1X64422Y57372D1*
G1X64481Y54360D2*
G1X64481Y57372D1*
G1X64541Y54360D2*
G1X64541Y57372D1*
G1X64600Y54360D2*
G1X64600Y57372D1*
G1X64659Y54360D2*
G1X64659Y57372D1*
G1X64718Y54360D2*
G1X64718Y57372D1*
G1X64777Y54360D2*
G1X64777Y57372D1*
G1X64836Y54360D2*
G1X64836Y57372D1*
G1X64895Y54360D2*
G1X64895Y57372D1*
G1X64954Y54360D2*
G1X64954Y57372D1*
G1X65013Y54360D2*
G1X65013Y57372D1*
G1X65072Y54360D2*
G1X65072Y57372D1*
G1X65131Y54360D2*
G1X65131Y57372D1*
G1X65190Y54360D2*
G1X65190Y57372D1*
G1X65249Y54360D2*
G1X65249Y57372D1*
G1X65308Y54360D2*
G1X65308Y57372D1*
G1X65367Y54360D2*
G1X65367Y57372D1*
G1X65426Y54360D2*
G1X65426Y57372D1*
G1X65485Y54360D2*
G1X65485Y57372D1*
G1X65544Y54360D2*
G1X65544Y57372D1*
G1X65604Y54360D2*
G1X65604Y57372D1*
G1X65663Y54360D2*
G1X65663Y57372D1*
G1X65722Y54360D2*
G1X65722Y57372D1*
G1X65781Y54360D2*
G1X65781Y57372D1*
G1X65840Y54360D2*
G1X65840Y57372D1*
G1X65899Y54360D2*
G1X65899Y57372D1*
G1X65958Y54360D2*
G1X65958Y57372D1*
G1X66017Y54360D2*
G1X66017Y57372D1*
G1X66076Y54360D2*
G1X66076Y57372D1*
G1X66135Y54360D2*
G1X66135Y57372D1*
G1X66194Y54360D2*
G1X66194Y57372D1*
G1X66253Y54360D2*
G1X66253Y57372D1*
G1X66312Y54360D2*
G1X66312Y57372D1*
G1X66371Y54360D2*
G1X66371Y57372D1*
G1X66430Y54360D2*
G1X66430Y57372D1*
G1X66489Y54360D2*
G1X66489Y57372D1*
G1X66548Y54360D2*
G1X66548Y57372D1*
G1X66607Y54360D2*
G1X66607Y57372D1*
G1X66666Y54360D2*
G1X66666Y57372D1*
G1X66726Y54360D2*
G1X66726Y57372D1*
G1X66785Y54360D2*
G1X66785Y57372D1*
G1X66844Y54360D2*
G1X66844Y57372D1*
G1X66903Y54360D2*
G1X66903Y57372D1*
G1X66962Y54360D2*
G1X66962Y57372D1*
G1X67021Y54360D2*
G1X67021Y57372D1*
G1X67080Y54360D2*
G1X67080Y57372D1*
G1X67139Y54360D2*
G1X67139Y57372D1*
G1X67198Y54360D2*
G1X67198Y57372D1*
G1X67257Y54360D2*
G1X67257Y57372D1*
G1X67316Y54360D2*
G1X67316Y57372D1*
G1X67375Y54360D2*
G1X67375Y57372D1*
G1X67434Y54360D2*
G1X67434Y57372D1*
G1X67493Y54360D2*
G1X67493Y57372D1*
G1X67552Y54360D2*
G1X67552Y57372D1*
G1X67611Y54360D2*
G1X67611Y57372D1*
G1X67670Y54360D2*
G1X67670Y57372D1*
G1X67729Y54360D2*
G1X67729Y57372D1*
G1X67789Y54360D2*
G1X67789Y57372D1*
G1X67848Y54360D2*
G1X67848Y57372D1*
G1X67907Y54360D2*
G1X67907Y57372D1*
G1X67966Y54360D2*
G1X67966Y57372D1*
G1X68025Y54360D2*
G1X68025Y57372D1*
G1X68084Y54360D2*
G1X68084Y57372D1*
G1X68143Y54360D2*
G1X68143Y57372D1*
G1X68202Y54360D2*
G1X68202Y57372D1*
G1X68261Y54360D2*
G1X68261Y57372D1*
G1X68320Y54360D2*
G1X68320Y57372D1*
G1X68379Y54360D2*
G1X68379Y57372D1*
G1X68438Y54360D2*
G1X68438Y57372D1*
G1X68497Y54360D2*
G1X68497Y57372D1*
G1X68556Y54360D2*
G1X68556Y57372D1*
G1X68615Y54360D2*
G1X68615Y57372D1*
G1X68674Y54360D2*
G1X68674Y57372D1*
G1X68733Y54360D2*
G1X68733Y57372D1*
G1X68792Y54360D2*
G1X68792Y57372D1*
G1X68852Y54360D2*
G1X68852Y57372D1*
G1X68911Y54360D2*
G1X68911Y57372D1*
G1X68970Y54360D2*
G1X68970Y57372D1*
G1X69029Y54360D2*
G1X69029Y57372D1*
G1X69088Y54360D2*
G1X69088Y57372D1*
G1X69147Y54360D2*
G1X69147Y57372D1*
G1X69206Y54360D2*
G1X69206Y57372D1*
G1X69265Y54360D2*
G1X69265Y57372D1*
G1X69324Y54360D2*
G1X69324Y57372D1*
G1X69383Y54360D2*
G1X69383Y57372D1*
G1X69442Y54360D2*
G1X69442Y57372D1*
G1X69501Y54360D2*
G1X69501Y57372D1*
G1X69560Y54360D2*
G1X69560Y57372D1*
G1X69619Y54360D2*
G1X69619Y57372D1*
G1X69678Y54360D2*
G1X69678Y57372D1*
G1X69737Y54360D2*
G1X69737Y57351D1*
G1X69796Y54360D2*
G1X69796Y57300D1*
G1X69855Y54318D2*
G1X69855Y57249D1*
G1X69915Y54254D2*
G1X69915Y57198D1*
G1X69974Y54190D2*
G1X69974Y57147D1*
G1X70033Y54126D2*
G1X70033Y57096D1*
G1X70092Y54063D2*
G1X70092Y57045D1*
G1X70151Y53999D2*
G1X70151Y56994D1*
G1X70210Y53935D2*
G1X70210Y56943D1*
G1X70269Y53871D2*
G1X70269Y56891D1*
G1X70328Y53808D2*
G1X70328Y56840D1*
G1X70387Y53744D2*
G1X70387Y56789D1*
G1X70446Y53680D2*
G1X70446Y56738D1*
G1X70505Y53616D2*
G1X70505Y56687D1*
G1X70564Y53552D2*
G1X70564Y56636D1*
G1X70623Y53489D2*
G1X70623Y56585D1*
G1X70682Y53425D2*
G1X70682Y56534D1*
G1X70741Y53361D2*
G1X70741Y56482D1*
G1X70800Y53297D2*
G1X70800Y56431D1*
G1X70859Y53297D2*
G1X70859Y56380D1*
G1X70918Y53297D2*
G1X70918Y56329D1*
G1X70978Y53297D2*
G1X70978Y56278D1*
G1X71037Y53297D2*
G1X71037Y56227D1*
G1X71096Y53297D2*
G1X71096Y56176D1*
G1X71155Y53297D2*
G1X71155Y56125D1*
G1X71214Y53297D2*
G1X71214Y56074D1*
G1X71273Y53297D2*
G1X71273Y56022D1*
G1X71332Y53297D2*
G1X71332Y55971D1*
G1X71391Y53297D2*
G1X71391Y55920D1*
G1X71450Y53297D2*
G1X71450Y55915D1*
G1X71509Y53297D2*
G1X71509Y55915D1*
G1X71568Y53297D2*
G1X71568Y55915D1*
G1X71627Y53297D2*
G1X71627Y55915D1*
G1X71686Y53297D2*
G1X71686Y55915D1*
G1X71745Y53297D2*
G1X71745Y55915D1*
G1X71804Y53297D2*
G1X71804Y55915D1*
G1X71863Y53297D2*
G1X71863Y55915D1*
G1X71922Y53297D2*
G1X71922Y55915D1*
G1X71981Y53297D2*
G1X71981Y55915D1*
G1X72041Y53297D2*
G1X72041Y55915D1*
G1X72100Y53297D2*
G1X72100Y55915D1*
G1X72159Y53297D2*
G1X72159Y55915D1*
G1X72218Y53297D2*
G1X72218Y55915D1*
G1X72277Y53297D2*
G1X72277Y55915D1*
G1X72336Y53297D2*
G1X72336Y55915D1*
G1X72395Y53297D2*
G1X72395Y55915D1*
G1X72454Y53297D2*
G1X72454Y55915D1*
G1X72513Y53297D2*
G1X72513Y55915D1*
G1X72572Y53297D2*
G1X72572Y55915D1*
G1X72631Y53297D2*
G1X72631Y55915D1*
G1X72690Y53297D2*
G1X72690Y55915D1*
G1X72749Y53297D2*
G1X72749Y55915D1*
G1X72808Y53297D2*
G1X72808Y55915D1*
G1X72867Y53297D2*
G1X72867Y55915D1*
G1X72926Y53297D2*
G1X72926Y55915D1*
G1X72985Y53297D2*
G1X72985Y55915D1*
G1X73044Y53297D2*
G1X73044Y55915D1*
G1X73104Y53297D2*
G1X73104Y55915D1*
G1X73163Y53297D2*
G1X73163Y55915D1*
G1X73222Y53297D2*
G1X73222Y55915D1*
G1X73281Y53297D2*
G1X73281Y55915D1*
G1X73340Y53297D2*
G1X73340Y55915D1*
G1X73399Y53297D2*
G1X73399Y55915D1*
G1X73458Y53297D2*
G1X73458Y55915D1*
G1X73517Y53297D2*
G1X73517Y55915D1*
G1X73576Y53297D2*
G1X73576Y55915D1*
G1X73635Y53297D2*
G1X73635Y55915D1*
G1X73694Y53297D2*
G1X73694Y55915D1*
G1X73753Y53297D2*
G1X73753Y55915D1*
G1X73812Y53297D2*
G1X73812Y55915D1*
G1X73871Y53297D2*
G1X73871Y55915D1*
G1X73930Y53297D2*
G1X73930Y55915D1*
G1X73989Y53297D2*
G1X73989Y55915D1*
G1X74048Y53297D2*
G1X74048Y55915D1*
G1X74107Y53297D2*
G1X74107Y55915D1*
G1X74166Y53297D2*
G1X74166Y55882D1*
G1X74226Y53297D2*
G1X74226Y55835D1*
G1X74285Y53297D2*
G1X74285Y55789D1*
G1X74344Y53297D2*
G1X74344Y55743D1*
G1X74403Y53342D2*
G1X74403Y55696D1*
G1X74462Y53401D2*
G1X74462Y55650D1*
G1X74521Y53460D2*
G1X74521Y55603D1*
G1X74580Y53519D2*
G1X74580Y55557D1*
G1X74639Y53578D2*
G1X74639Y55511D1*
G1X57502Y50108D2*
G1X60246Y50108D1*
G1X57406Y50049D2*
G1X60246Y50049D1*
G1X57310Y49990D2*
G1X60246Y49990D1*
G1X57214Y49931D2*
G1X60246Y49931D1*
G1X57118Y49872D2*
G1X60246Y49872D1*
G1X54282Y49813D2*
G1X60246Y49813D1*
G1X54282Y49754D2*
G1X60246Y49754D1*
G1X54282Y49695D2*
G1X60246Y49695D1*
G1X54282Y49636D2*
G1X60246Y49636D1*
G1X54282Y49577D2*
G1X60246Y49577D1*
G1X54282Y49518D2*
G1X60246Y49518D1*
G1X54282Y49459D2*
G1X60246Y49459D1*
G1X54282Y49400D2*
G1X60246Y49400D1*
G1X54282Y49341D2*
G1X60246Y49341D1*
G1X54282Y49282D2*
G1X60246Y49282D1*
G1X54282Y49222D2*
G1X60246Y49222D1*
G1X54282Y49163D2*
G1X60246Y49163D1*
G1X54282Y49104D2*
G1X60246Y49104D1*
G1X54282Y49045D2*
G1X58553Y49045D1*
G1X54282Y48986D2*
G1X58553Y48986D1*
G1X54282Y48927D2*
G1X58553Y48927D1*
G1X54282Y48868D2*
G1X58553Y48868D1*
G1X54282Y48809D2*
G1X58553Y48809D1*
G1X54282Y48750D2*
G1X58553Y48750D1*
G1X54282Y48691D2*
G1X58553Y48691D1*
G1X54282Y48632D2*
G1X58553Y48632D1*
G1X54282Y48573D2*
G1X58553Y48573D1*
G1X54282Y48514D2*
G1X58553Y48514D1*
G1X54282Y48455D2*
G1X58553Y48455D1*
G1X54282Y48396D2*
G1X58553Y48396D1*
G1X54282Y48337D2*
G1X58553Y48337D1*
G1X54282Y48278D2*
G1X58553Y48278D1*
G1X54282Y48219D2*
G1X58553Y48219D1*
G1X54282Y48159D2*
G1X58553Y48159D1*
G1X54282Y48100D2*
G1X58553Y48100D1*
G1X54282Y48041D2*
G1X58553Y48041D1*
G1X54282Y47982D2*
G1X58553Y47982D1*
G1X54282Y47923D2*
G1X58553Y47923D1*
G1X54282Y47864D2*
G1X58553Y47864D1*
G1X54282Y47805D2*
G1X58553Y47805D1*
G1X54282Y47746D2*
G1X58553Y47746D1*
G1X54282Y47687D2*
G1X58553Y47687D1*
G1X54282Y47628D2*
G1X58553Y47628D1*
G1X54282Y47569D2*
G1X58553Y47569D1*
G1X54282Y47510D2*
G1X58553Y47510D1*
G1X54282Y47451D2*
G1X58553Y47451D1*
G1X54282Y47392D2*
G1X58553Y47392D1*
G1X54282Y47333D2*
G1X58553Y47333D1*
G1X54282Y47274D2*
G1X58553Y47274D1*
G1X54282Y47215D2*
G1X58553Y47215D1*
G1X54282Y47156D2*
G1X58553Y47156D1*
G1X54282Y47097D2*
G1X58553Y47097D1*
G1X54282Y47037D2*
G1X58553Y47037D1*
G1X54282Y46978D2*
G1X58618Y46978D1*
G1X54282Y46919D2*
G1X58687Y46919D1*
G1X54282Y46860D2*
G1X58756Y46860D1*
G1X54282Y46801D2*
G1X58826Y46801D1*
G1X54282Y46742D2*
G1X58895Y46742D1*
G1X70289Y46742D2*
G1X75010Y46742D1*
G1X54282Y46683D2*
G1X58964Y46683D1*
G1X70238Y46683D2*
G1X75010Y46683D1*
G1X54282Y46624D2*
G1X59033Y46624D1*
G1X70187Y46624D2*
G1X75010Y46624D1*
G1X54282Y46565D2*
G1X59103Y46565D1*
G1X70136Y46565D2*
G1X75010Y46565D1*
G1X54282Y46506D2*
G1X59172Y46506D1*
G1X70085Y46506D2*
G1X75010Y46506D1*
G1X54282Y46447D2*
G1X59241Y46447D1*
G1X70034Y46447D2*
G1X75010Y46447D1*
G1X54282Y46388D2*
G1X59310Y46388D1*
G1X69983Y46388D2*
G1X75010Y46388D1*
G1X54282Y46329D2*
G1X59380Y46329D1*
G1X69932Y46329D2*
G1X75010Y46329D1*
G1X54282Y46270D2*
G1X59449Y46270D1*
G1X69881Y46270D2*
G1X75010Y46270D1*
G1X54282Y46211D2*
G1X59518Y46211D1*
G1X69830Y46211D2*
G1X75010Y46211D1*
G1X54282Y46152D2*
G1X59587Y46152D1*
G1X69779Y46152D2*
G1X75010Y46152D1*
G1X54282Y46093D2*
G1X59657Y46093D1*
G1X69728Y46093D2*
G1X75010Y46093D1*
G1X54282Y46034D2*
G1X59726Y46034D1*
G1X69677Y46034D2*
G1X75010Y46034D1*
G1X54282Y45974D2*
G1X59795Y45974D1*
G1X69626Y45974D2*
G1X75010Y45974D1*
G1X54282Y45915D2*
G1X59864Y45915D1*
G1X69575Y45915D2*
G1X75010Y45915D1*
G1X54282Y45856D2*
G1X75010Y45856D1*
G1X54282Y45797D2*
G1X75010Y45797D1*
G1X54282Y45738D2*
G1X75010Y45738D1*
G1X54282Y45679D2*
G1X75010Y45679D1*
G1X54282Y45620D2*
G1X75010Y45620D1*
G1X54282Y45561D2*
G1X75010Y45561D1*
G1X54282Y45502D2*
G1X75010Y45502D1*
G1X54282Y45443D2*
G1X75010Y45443D1*
G1X54282Y45384D2*
G1X75010Y45384D1*
G1X54282Y45325D2*
G1X75010Y45325D1*
G1X54282Y45266D2*
G1X75010Y45266D1*
G1X54282Y45207D2*
G1X75010Y45207D1*
G1X54282Y45148D2*
G1X75010Y45148D1*
G1X54282Y45089D2*
G1X75010Y45089D1*
G1X54282Y45030D2*
G1X75010Y45030D1*
G1X54282Y44971D2*
G1X75010Y44971D1*
G1X54282Y44911D2*
G1X75010Y44911D1*
G1X54282Y44852D2*
G1X75010Y44852D1*
G1X54282Y44793D2*
G1X75010Y44793D1*
G1X54282Y44734D2*
G1X75010Y44734D1*
G1X54307Y44675D2*
G1X75010Y44675D1*
G1X54371Y44616D2*
G1X75010Y44616D1*
G1X54436Y44557D2*
G1X75010Y44557D1*
G1X54500Y44498D2*
G1X75010Y44498D1*
G1X54565Y44439D2*
G1X75010Y44439D1*
G1X54630Y44380D2*
G1X75010Y44380D1*
G1X54694Y44321D2*
G1X74988Y44321D1*
G1X54759Y44262D2*
G1X74929Y44262D1*
G1X54823Y44203D2*
G1X74870Y44203D1*
G1X54888Y44144D2*
G1X74811Y44144D1*
G1X54953Y44085D2*
G1X74752Y44085D1*
G1X55017Y44026D2*
G1X74693Y44026D1*
G1X55082Y43967D2*
G1X74633Y43967D1*
G1X55146Y43908D2*
G1X74574Y43908D1*
G1X55211Y43848D2*
G1X74515Y43848D1*
G1X55276Y43789D2*
G1X74456Y43789D1*
G1X55340Y43730D2*
G1X74397Y43730D1*
G1X55405Y43671D2*
G1X74338Y43671D1*
G1X55469Y43612D2*
G1X71245Y43612D1*
G1X55534Y43553D2*
G1X71176Y43553D1*
G1X55599Y43494D2*
G1X71107Y43494D1*
G1X55663Y43435D2*
G1X71037Y43435D1*
G1X55728Y43376D2*
G1X70968Y43376D1*
G1X55792Y43317D2*
G1X70899Y43317D1*
G1X55857Y43258D2*
G1X70830Y43258D1*
G1X55922Y43199D2*
G1X70761Y43199D1*
G1X55986Y43140D2*
G1X70692Y43140D1*
G1X56051Y43081D2*
G1X70622Y43081D1*
G1X56115Y43022D2*
G1X70553Y43022D1*
G1X56180Y42963D2*
G1X70484Y42963D1*
G1X56245Y42904D2*
G1X70415Y42904D1*
G1X56309Y42845D2*
G1X70346Y42845D1*
G1X56374Y42785D2*
G1X70277Y42785D1*
G1X56438Y42726D2*
G1X70207Y42726D1*
G1X56503Y42667D2*
G1X70138Y42667D1*
G1X56568Y42608D2*
G1X70069Y42608D1*
G1X56632Y42549D2*
G1X70000Y42549D1*
G1X56697Y42490D2*
G1X69931Y42490D1*
G1X56762Y42431D2*
G1X69861Y42431D1*
G1X56826Y42372D2*
G1X69792Y42372D1*
G1X56891Y42313D2*
G1X69723Y42313D1*
G1X54282Y44698D2*
G1X54282Y49813D1*
G1X54341Y44644D2*
G1X54341Y49813D1*
G1X54400Y44590D2*
G1X54400Y49813D1*
G1X54459Y44536D2*
G1X54459Y49813D1*
G1X54518Y44482D2*
G1X54518Y49813D1*
G1X54577Y44428D2*
G1X54577Y49813D1*
G1X54636Y44374D2*
G1X54636Y49813D1*
G1X54695Y44320D2*
G1X54695Y49813D1*
G1X54754Y44266D2*
G1X54754Y49813D1*
G1X54813Y44212D2*
G1X54813Y49813D1*
G1X54872Y44158D2*
G1X54872Y49813D1*
G1X54931Y44104D2*
G1X54931Y49813D1*
G1X54990Y44050D2*
G1X54990Y49813D1*
G1X55049Y43996D2*
G1X55049Y49813D1*
G1X55108Y43942D2*
G1X55108Y49813D1*
G1X55167Y43888D2*
G1X55167Y49813D1*
G1X55226Y43834D2*
G1X55226Y49813D1*
G1X55285Y43780D2*
G1X55285Y49813D1*
G1X55345Y43726D2*
G1X55345Y49813D1*
G1X55404Y43672D2*
G1X55404Y49813D1*
G1X55463Y43618D2*
G1X55463Y49813D1*
G1X55522Y43564D2*
G1X55522Y49813D1*
G1X55581Y43510D2*
G1X55581Y49813D1*
G1X55640Y43457D2*
G1X55640Y49813D1*
G1X55699Y43403D2*
G1X55699Y49813D1*
G1X55758Y43349D2*
G1X55758Y49813D1*
G1X55817Y43295D2*
G1X55817Y49813D1*
G1X55876Y43241D2*
G1X55876Y49813D1*
G1X55935Y43187D2*
G1X55935Y49813D1*
G1X55994Y43133D2*
G1X55994Y49813D1*
G1X56053Y43079D2*
G1X56053Y49813D1*
G1X56112Y43025D2*
G1X56112Y49813D1*
G1X56171Y42971D2*
G1X56171Y49813D1*
G1X56230Y42917D2*
G1X56230Y49813D1*
G1X56289Y42863D2*
G1X56289Y49813D1*
G1X56348Y42809D2*
G1X56348Y49813D1*
G1X56408Y42755D2*
G1X56408Y49813D1*
G1X56467Y42701D2*
G1X56467Y49813D1*
G1X56526Y42647D2*
G1X56526Y49813D1*
G1X56585Y42593D2*
G1X56585Y49813D1*
G1X56644Y42539D2*
G1X56644Y49813D1*
G1X56703Y42485D2*
G1X56703Y49813D1*
G1X56762Y42431D2*
G1X56762Y49813D1*
G1X56821Y42377D2*
G1X56821Y49813D1*
G1X56880Y42323D2*
G1X56880Y49813D1*
G1X56939Y42271D2*
G1X56939Y49813D1*
G1X56998Y42271D2*
G1X56998Y49813D1*
G1X57057Y42271D2*
G1X57057Y49835D1*
G1X57116Y42271D2*
G1X57116Y49871D1*
G1X57175Y42271D2*
G1X57175Y49908D1*
G1X57234Y42271D2*
G1X57234Y49944D1*
G1X57293Y42271D2*
G1X57293Y49980D1*
G1X57352Y42271D2*
G1X57352Y50017D1*
G1X57411Y42271D2*
G1X57411Y50053D1*
G1X57471Y42271D2*
G1X57471Y50089D1*
G1X57530Y42271D2*
G1X57530Y50126D1*
G1X57589Y42271D2*
G1X57589Y50128D1*
G1X57648Y42271D2*
G1X57648Y50128D1*
G1X57707Y42271D2*
G1X57707Y50128D1*
G1X57766Y42271D2*
G1X57766Y50128D1*
G1X57825Y42271D2*
G1X57825Y50128D1*
G1X57884Y42271D2*
G1X57884Y50128D1*
G1X57943Y42271D2*
G1X57943Y50128D1*
G1X58002Y42271D2*
G1X58002Y50128D1*
G1X58061Y42271D2*
G1X58061Y50128D1*
G1X58120Y42271D2*
G1X58120Y50128D1*
G1X58179Y42271D2*
G1X58179Y50128D1*
G1X58238Y42271D2*
G1X58238Y50128D1*
G1X58297Y42271D2*
G1X58297Y50128D1*
G1X58356Y42271D2*
G1X58356Y50128D1*
G1X58415Y42271D2*
G1X58415Y50128D1*
G1X58474Y42271D2*
G1X58474Y50128D1*
G1X58534Y42271D2*
G1X58534Y50128D1*
G1X58593Y42271D2*
G1X58593Y47000D1*
G1X58593Y49045D2*
G1X58593Y50128D1*
G1X58652Y42271D2*
G1X58652Y46950D1*
G1X58652Y49045D2*
G1X58652Y50128D1*
G1X58711Y42271D2*
G1X58711Y46899D1*
G1X58711Y49045D2*
G1X58711Y50128D1*
G1X58770Y42271D2*
G1X58770Y46849D1*
G1X58770Y49045D2*
G1X58770Y50128D1*
G1X58829Y42271D2*
G1X58829Y46799D1*
G1X58829Y49045D2*
G1X58829Y50128D1*
G1X58888Y42271D2*
G1X58888Y46748D1*
G1X58888Y49045D2*
G1X58888Y50128D1*
G1X58947Y42271D2*
G1X58947Y46698D1*
G1X58947Y49045D2*
G1X58947Y50128D1*
G1X59006Y42271D2*
G1X59006Y46647D1*
G1X59006Y49045D2*
G1X59006Y50128D1*
G1X59065Y42271D2*
G1X59065Y46597D1*
G1X59065Y49045D2*
G1X59065Y50128D1*
G1X59124Y42271D2*
G1X59124Y46547D1*
G1X59124Y49045D2*
G1X59124Y50128D1*
G1X59183Y42271D2*
G1X59183Y46496D1*
G1X59183Y49045D2*
G1X59183Y50128D1*
G1X59242Y42271D2*
G1X59242Y46446D1*
G1X59242Y49045D2*
G1X59242Y50128D1*
G1X59301Y42271D2*
G1X59301Y46396D1*
G1X59301Y49045D2*
G1X59301Y50128D1*
G1X59360Y42271D2*
G1X59360Y46345D1*
G1X59360Y49045D2*
G1X59360Y50128D1*
G1X59419Y42271D2*
G1X59419Y46295D1*
G1X59419Y49045D2*
G1X59419Y50128D1*
G1X59478Y42271D2*
G1X59478Y46245D1*
G1X59478Y49045D2*
G1X59478Y50128D1*
G1X59537Y42271D2*
G1X59537Y46194D1*
G1X59537Y49045D2*
G1X59537Y50128D1*
G1X59597Y42271D2*
G1X59597Y46144D1*
G1X59597Y49045D2*
G1X59597Y50128D1*
G1X59656Y42271D2*
G1X59656Y46093D1*
G1X59656Y49045D2*
G1X59656Y50128D1*
G1X59715Y42271D2*
G1X59715Y46043D1*
G1X59715Y49045D2*
G1X59715Y50128D1*
G1X59774Y42271D2*
G1X59774Y45993D1*
G1X59774Y49045D2*
G1X59774Y50128D1*
G1X59833Y42271D2*
G1X59833Y45942D1*
G1X59833Y49045D2*
G1X59833Y50128D1*
G1X59892Y42271D2*
G1X59892Y45892D1*
G1X59892Y49045D2*
G1X59892Y50128D1*
G1X59951Y42271D2*
G1X59951Y45876D1*
G1X59951Y49045D2*
G1X59951Y50128D1*
G1X60010Y42271D2*
G1X60010Y45876D1*
G1X60010Y49045D2*
G1X60010Y50128D1*
G1X60069Y42271D2*
G1X60069Y45876D1*
G1X60069Y49045D2*
G1X60069Y50128D1*
G1X60128Y42271D2*
G1X60128Y45876D1*
G1X60128Y49045D2*
G1X60128Y50128D1*
G1X60187Y42271D2*
G1X60187Y45876D1*
G1X60187Y49045D2*
G1X60187Y50128D1*
G1X60246Y42271D2*
G1X60246Y45876D1*
G1X60305Y42271D2*
G1X60305Y45876D1*
G1X60364Y42271D2*
G1X60364Y45876D1*
G1X60423Y42271D2*
G1X60423Y45876D1*
G1X60482Y42271D2*
G1X60482Y45876D1*
G1X60541Y42271D2*
G1X60541Y45876D1*
G1X60600Y42271D2*
G1X60600Y45876D1*
G1X60659Y42271D2*
G1X60659Y45876D1*
G1X60719Y42271D2*
G1X60719Y45876D1*
G1X60778Y42271D2*
G1X60778Y45876D1*
G1X60837Y42271D2*
G1X60837Y45876D1*
G1X60896Y42271D2*
G1X60896Y45876D1*
G1X60955Y42271D2*
G1X60955Y45876D1*
G1X61014Y42271D2*
G1X61014Y45876D1*
G1X61073Y42271D2*
G1X61073Y45876D1*
G1X61132Y42271D2*
G1X61132Y45876D1*
G1X61191Y42271D2*
G1X61191Y45876D1*
G1X61250Y42271D2*
G1X61250Y45876D1*
G1X61309Y42271D2*
G1X61309Y45876D1*
G1X61368Y42271D2*
G1X61368Y45876D1*
G1X61427Y42271D2*
G1X61427Y45876D1*
G1X61486Y42271D2*
G1X61486Y45876D1*
G1X61545Y42271D2*
G1X61545Y45876D1*
G1X61604Y42271D2*
G1X61604Y45876D1*
G1X61663Y42271D2*
G1X61663Y45876D1*
G1X61722Y42271D2*
G1X61722Y45876D1*
G1X61782Y42271D2*
G1X61782Y45876D1*
G1X61841Y42271D2*
G1X61841Y45876D1*
G1X61900Y42271D2*
G1X61900Y45876D1*
G1X61959Y42271D2*
G1X61959Y45876D1*
G1X62018Y42271D2*
G1X62018Y45876D1*
G1X62077Y42271D2*
G1X62077Y45876D1*
G1X62136Y42271D2*
G1X62136Y45876D1*
G1X62195Y42271D2*
G1X62195Y45876D1*
G1X62254Y42271D2*
G1X62254Y45876D1*
G1X62313Y42271D2*
G1X62313Y45876D1*
G1X62372Y42271D2*
G1X62372Y45876D1*
G1X62431Y42271D2*
G1X62431Y45876D1*
G1X62490Y42271D2*
G1X62490Y45876D1*
G1X62549Y42271D2*
G1X62549Y45876D1*
G1X62608Y42271D2*
G1X62608Y45876D1*
G1X62667Y42271D2*
G1X62667Y45876D1*
G1X62726Y42271D2*
G1X62726Y45876D1*
G1X62785Y42271D2*
G1X62785Y45876D1*
G1X62845Y42271D2*
G1X62845Y45876D1*
G1X62904Y42271D2*
G1X62904Y45876D1*
G1X62963Y42271D2*
G1X62963Y45876D1*
G1X63022Y42271D2*
G1X63022Y45876D1*
G1X63081Y42271D2*
G1X63081Y45876D1*
G1X63140Y42271D2*
G1X63140Y45876D1*
G1X63199Y42271D2*
G1X63199Y45876D1*
G1X63258Y42271D2*
G1X63258Y45876D1*
G1X63317Y42271D2*
G1X63317Y45876D1*
G1X63376Y42271D2*
G1X63376Y45876D1*
G1X63435Y42271D2*
G1X63435Y45876D1*
G1X63494Y42271D2*
G1X63494Y45876D1*
G1X63553Y42271D2*
G1X63553Y45876D1*
G1X63612Y42271D2*
G1X63612Y45876D1*
G1X63671Y42271D2*
G1X63671Y45876D1*
G1X63730Y42271D2*
G1X63730Y45876D1*
G1X63789Y42271D2*
G1X63789Y45876D1*
G1X63848Y42271D2*
G1X63848Y45876D1*
G1X63908Y42271D2*
G1X63908Y45876D1*
G1X63967Y42271D2*
G1X63967Y45876D1*
G1X64026Y42271D2*
G1X64026Y45876D1*
G1X64085Y42271D2*
G1X64085Y45876D1*
G1X64144Y42271D2*
G1X64144Y45876D1*
G1X64203Y42271D2*
G1X64203Y45876D1*
G1X64262Y42271D2*
G1X64262Y45876D1*
G1X64321Y42271D2*
G1X64321Y45876D1*
G1X64380Y42271D2*
G1X64380Y45876D1*
G1X64439Y42271D2*
G1X64439Y45876D1*
G1X64498Y42271D2*
G1X64498Y45876D1*
G1X64557Y42271D2*
G1X64557Y45876D1*
G1X64616Y42271D2*
G1X64616Y45876D1*
G1X64675Y42271D2*
G1X64675Y45876D1*
G1X64734Y42271D2*
G1X64734Y45876D1*
G1X64793Y42271D2*
G1X64793Y45876D1*
G1X64852Y42271D2*
G1X64852Y45876D1*
G1X64911Y42271D2*
G1X64911Y45876D1*
G1X64971Y42271D2*
G1X64971Y45876D1*
G1X65030Y42271D2*
G1X65030Y45876D1*
G1X65089Y42271D2*
G1X65089Y45876D1*
G1X65148Y42271D2*
G1X65148Y45876D1*
G1X65207Y42271D2*
G1X65207Y45876D1*
G1X65266Y42271D2*
G1X65266Y45876D1*
G1X65325Y42271D2*
G1X65325Y45876D1*
G1X65384Y42271D2*
G1X65384Y45876D1*
G1X65443Y42271D2*
G1X65443Y45876D1*
G1X65502Y42271D2*
G1X65502Y45876D1*
G1X65561Y42271D2*
G1X65561Y45876D1*
G1X65620Y42271D2*
G1X65620Y45876D1*
G1X65679Y42271D2*
G1X65679Y45876D1*
G1X65738Y42271D2*
G1X65738Y45876D1*
G1X65797Y42271D2*
G1X65797Y45876D1*
G1X65856Y42271D2*
G1X65856Y45876D1*
G1X65915Y42271D2*
G1X65915Y45876D1*
G1X65974Y42271D2*
G1X65974Y45876D1*
G1X66034Y42271D2*
G1X66034Y45876D1*
G1X66093Y42271D2*
G1X66093Y45876D1*
G1X66152Y42271D2*
G1X66152Y45876D1*
G1X66211Y42271D2*
G1X66211Y45876D1*
G1X66270Y42271D2*
G1X66270Y45876D1*
G1X66329Y42271D2*
G1X66329Y45876D1*
G1X66388Y42271D2*
G1X66388Y45876D1*
G1X66447Y42271D2*
G1X66447Y45876D1*
G1X66506Y42271D2*
G1X66506Y45876D1*
G1X66565Y42271D2*
G1X66565Y45876D1*
G1X66624Y42271D2*
G1X66624Y45876D1*
G1X66683Y42271D2*
G1X66683Y45876D1*
G1X66742Y42271D2*
G1X66742Y45876D1*
G1X66801Y42271D2*
G1X66801Y45876D1*
G1X66860Y42271D2*
G1X66860Y45876D1*
G1X66919Y42271D2*
G1X66919Y45876D1*
G1X66978Y42271D2*
G1X66978Y45876D1*
G1X67037Y42271D2*
G1X67037Y45876D1*
G1X67097Y42271D2*
G1X67097Y45876D1*
G1X67156Y42271D2*
G1X67156Y45876D1*
G1X67215Y42271D2*
G1X67215Y45876D1*
G1X67274Y42271D2*
G1X67274Y45876D1*
G1X67333Y42271D2*
G1X67333Y45876D1*
G1X67392Y42271D2*
G1X67392Y45876D1*
G1X67451Y42271D2*
G1X67451Y45876D1*
G1X67510Y42271D2*
G1X67510Y45876D1*
G1X67569Y42271D2*
G1X67569Y45876D1*
G1X67628Y42271D2*
G1X67628Y45876D1*
G1X67687Y42271D2*
G1X67687Y45876D1*
G1X67746Y42271D2*
G1X67746Y45876D1*
G1X67805Y42271D2*
G1X67805Y45876D1*
G1X67864Y42271D2*
G1X67864Y45876D1*
G1X67923Y42271D2*
G1X67923Y45876D1*
G1X67982Y42271D2*
G1X67982Y45876D1*
G1X68041Y42271D2*
G1X68041Y45876D1*
G1X68100Y42271D2*
G1X68100Y45876D1*
G1X68159Y42271D2*
G1X68159Y45876D1*
G1X68219Y42271D2*
G1X68219Y45876D1*
G1X68278Y42271D2*
G1X68278Y45876D1*
G1X68337Y42271D2*
G1X68337Y45876D1*
G1X68396Y42271D2*
G1X68396Y45876D1*
G1X68455Y42271D2*
G1X68455Y45876D1*
G1X68514Y42271D2*
G1X68514Y45876D1*
G1X68573Y42271D2*
G1X68573Y45876D1*
G1X68632Y42271D2*
G1X68632Y45876D1*
G1X68691Y42271D2*
G1X68691Y45876D1*
G1X68750Y42271D2*
G1X68750Y45876D1*
G1X68809Y42271D2*
G1X68809Y45876D1*
G1X68868Y42271D2*
G1X68868Y45876D1*
G1X68927Y42271D2*
G1X68927Y45876D1*
G1X68986Y42271D2*
G1X68986Y45876D1*
G1X69045Y42271D2*
G1X69045Y45876D1*
G1X69104Y42271D2*
G1X69104Y45876D1*
G1X69163Y42271D2*
G1X69163Y45876D1*
G1X69222Y42271D2*
G1X69222Y45876D1*
G1X69282Y42271D2*
G1X69282Y45876D1*
G1X69341Y42271D2*
G1X69341Y45876D1*
G1X69400Y42271D2*
G1X69400Y45876D1*
G1X69459Y42271D2*
G1X69459Y45876D1*
G1X69518Y42271D2*
G1X69518Y45876D1*
G1X69577Y42271D2*
G1X69577Y45917D1*
G1X69636Y42271D2*
G1X69636Y45986D1*
G1X69695Y42289D2*
G1X69695Y46054D1*
G1X69754Y42339D2*
G1X69754Y46123D1*
G1X69813Y42390D2*
G1X69813Y46191D1*
G1X69872Y42440D2*
G1X69872Y46259D1*
G1X69931Y42491D2*
G1X69931Y46328D1*
G1X69990Y42541D2*
G1X69990Y46396D1*
G1X70049Y42591D2*
G1X70049Y46464D1*
G1X70108Y42642D2*
G1X70108Y46533D1*
G1X70167Y42692D2*
G1X70167Y46601D1*
G1X70226Y42743D2*
G1X70226Y46670D1*
G1X70285Y42793D2*
G1X70285Y46738D1*
G1X70345Y42844D2*
G1X70345Y46742D1*
G1X70404Y42894D2*
G1X70404Y46742D1*
G1X70463Y42944D2*
G1X70463Y46742D1*
G1X70522Y42995D2*
G1X70522Y46742D1*
G1X70581Y43045D2*
G1X70581Y46742D1*
G1X70640Y43096D2*
G1X70640Y46742D1*
G1X70699Y43146D2*
G1X70699Y46742D1*
G1X70758Y43196D2*
G1X70758Y46742D1*
G1X70817Y43247D2*
G1X70817Y46742D1*
G1X70876Y43297D2*
G1X70876Y46742D1*
G1X70935Y43348D2*
G1X70935Y46742D1*
G1X70994Y43398D2*
G1X70994Y46742D1*
G1X71053Y43449D2*
G1X71053Y46742D1*
G1X71112Y43499D2*
G1X71112Y46742D1*
G1X71171Y43549D2*
G1X71171Y46742D1*
G1X71230Y43600D2*
G1X71230Y46742D1*
G1X71289Y43612D2*
G1X71289Y46742D1*
G1X71348Y43612D2*
G1X71348Y46742D1*
G1X71408Y43612D2*
G1X71408Y46742D1*
G1X71467Y43612D2*
G1X71467Y46742D1*
G1X71526Y43612D2*
G1X71526Y46742D1*
G1X71585Y43612D2*
G1X71585Y46742D1*
G1X71644Y43612D2*
G1X71644Y46742D1*
G1X71703Y43612D2*
G1X71703Y46742D1*
G1X71762Y43612D2*
G1X71762Y46742D1*
G1X71821Y43612D2*
G1X71821Y46742D1*
G1X71880Y43612D2*
G1X71880Y46742D1*
G1X71939Y43612D2*
G1X71939Y46742D1*
G1X71998Y43612D2*
G1X71998Y46742D1*
G1X72057Y43612D2*
G1X72057Y46742D1*
G1X72116Y43612D2*
G1X72116Y46742D1*
G1X72175Y43612D2*
G1X72175Y46742D1*
G1X72234Y43612D2*
G1X72234Y46742D1*
G1X72293Y43612D2*
G1X72293Y46742D1*
G1X72352Y43612D2*
G1X72352Y46742D1*
G1X72411Y43612D2*
G1X72411Y46742D1*
G1X72471Y43612D2*
G1X72471Y46742D1*
G1X72530Y43612D2*
G1X72530Y46742D1*
G1X72589Y43612D2*
G1X72589Y46742D1*
G1X72648Y43612D2*
G1X72648Y46742D1*
G1X72707Y43612D2*
G1X72707Y46742D1*
G1X72766Y43612D2*
G1X72766Y46742D1*
G1X72825Y43612D2*
G1X72825Y46742D1*
G1X72884Y43612D2*
G1X72884Y46742D1*
G1X72943Y43612D2*
G1X72943Y46742D1*
G1X73002Y43612D2*
G1X73002Y46742D1*
G1X73061Y43612D2*
G1X73061Y46742D1*
G1X73120Y43612D2*
G1X73120Y46742D1*
G1X73179Y43612D2*
G1X73179Y46742D1*
G1X73238Y43612D2*
G1X73238Y46742D1*
G1X73297Y43612D2*
G1X73297Y46742D1*
G1X73356Y43612D2*
G1X73356Y46742D1*
G1X73415Y43612D2*
G1X73415Y46742D1*
G1X73474Y43612D2*
G1X73474Y46742D1*
G1X73534Y43612D2*
G1X73534Y46742D1*
G1X73593Y43612D2*
G1X73593Y46742D1*
G1X73652Y43612D2*
G1X73652Y46742D1*
G1X73711Y43612D2*
G1X73711Y46742D1*
G1X73770Y43612D2*
G1X73770Y46742D1*
G1X73829Y43612D2*
G1X73829Y46742D1*
G1X73888Y43612D2*
G1X73888Y46742D1*
G1X73947Y43612D2*
G1X73947Y46742D1*
G1X74006Y43612D2*
G1X74006Y46742D1*
G1X74065Y43612D2*
G1X74065Y46742D1*
G1X74124Y43612D2*
G1X74124Y46742D1*
G1X74183Y43612D2*
G1X74183Y46742D1*
G1X74242Y43612D2*
G1X74242Y46742D1*
G1X74301Y43634D2*
G1X74301Y46742D1*
G1X74360Y43693D2*
G1X74360Y46742D1*
G1X74419Y43752D2*
G1X74419Y46742D1*
G1X74478Y43811D2*
G1X74478Y46742D1*
G1X74537Y43871D2*
G1X74537Y46742D1*
G1X74597Y43930D2*
G1X74597Y46742D1*
G1X74656Y43989D2*
G1X74656Y46742D1*
G1X74715Y44048D2*
G1X74715Y46742D1*
G1X74774Y44107D2*
G1X74774Y46742D1*
G1X74833Y44166D2*
G1X74833Y46742D1*
G1X74892Y44225D2*
G1X74892Y46742D1*
G1X74951Y44284D2*
G1X74951Y46742D1*
G54D151*
G1X46102Y36457D3*
G1X47047Y36575D3*
G1X48228Y36457D3*
G1X50197Y36496D3*
G1X52165Y36496D3*
G1X54134Y36496D3*
G1X56102Y36496D3*
G1X58071Y36496D3*
G1X60039Y36496D3*
G1X48228Y39370D3*
G1X49921Y38937D3*
G1X51890Y38937D3*
G1X53937Y38937D3*
G1X55906Y38976D3*
G1X57953Y38937D3*
G1X59961Y38937D3*
G1X46260Y40354D3*
G1X47913Y40158D3*
G1X49173Y40354D3*
G1X58425Y40354D3*
G1X48228Y41339D3*
G1X50197Y41339D3*
G1X51063Y41299D3*
G1X51772Y41417D3*
G1X54685Y41417D3*
G1X55748Y41221D3*
G1X61654Y41732D3*
G1X54646Y42756D3*
G1X53937Y43425D3*
G1X54843Y43465D3*
G1X55591Y42756D3*
G1X50591Y44291D3*
G1X51575Y47126D3*
G1X52126Y47205D3*
G1X58898Y47520D3*
G1X59291Y47520D3*
G1X61378Y47559D3*
G1X50630Y48150D3*
G1X53150Y48228D3*
G1X58976Y48347D3*
G1X59213Y48622D3*
G1X59724Y48622D3*
G1X59449Y48347D3*
G1X61024Y49291D3*
G1X61417Y49291D3*
G1X50630Y50158D3*
G1X53189Y50158D3*
G1X54449Y50236D3*
G1X56102Y50197D3*
G1X56969Y50236D3*
G1X59252Y50472D3*
G1X59252Y49724D3*
G1X59567Y50000D3*
G1X59803Y50472D3*
G1X60118Y50000D3*
G1X59882Y49724D3*
G1X61024Y50276D3*
G1X61024Y49843D3*
G1X61417Y49843D3*
G1X61417Y50276D3*
G1X59567Y50748D3*
G1X60118Y50748D3*
G1X61024Y51142D3*
G1X61417Y50748D3*
G1X61417Y51142D3*
G1X61024Y50748D3*
G1X65591Y36969D3*
G1X65630Y40669D3*
G1X65591Y39370D3*
G1X62008Y39370D3*
G1X62047Y41339D3*
G1X63976Y36496D3*
G1X62008Y36496D3*
G1X66654Y41850D3*
G1X64724Y41850D3*
G1X65748Y41457D3*
G1X63976Y41339D3*
G1X64016Y39370D3*
G1X65591Y38150D3*
G1X69606Y39882D3*
G1X69095Y37559D3*
G1X67677Y36457D3*
G1X69921Y41221D3*
G1X69843Y36457D3*
G1X69252Y38819D3*
G1X67874Y41535D3*
G1X63425Y46339D3*
G1X65748Y50236D3*
G1X66732Y50236D3*
G1X63937Y46339D3*
G1X63189Y50787D3*
G1X62677Y50787D3*
G1X62953Y50472D3*
G1X63465Y50472D3*
G1X63307Y48622D3*
G1X63583Y48347D3*
G1X63032Y48347D3*
G1X63189Y50000D3*
G1X63465Y49724D3*
G1X62638Y50000D3*
G1X62953Y49724D3*
G1X63701Y46772D3*
G1X63189Y46732D3*
G1X62953Y46339D3*
G1X61772Y49291D3*
G1X61772Y49843D3*
G1X61772Y50276D3*
G1X61772Y50748D3*
G1X61772Y51142D3*
G1X74409Y50394D3*
G1X71575Y50236D3*
G1X70906Y50236D3*
G1X72638Y49291D3*
G1X72992Y50394D3*
G1X70197Y50236D3*
G1X73032Y48858D3*
G1X74409Y51142D3*
G1X74331Y48819D3*
G1X68110Y50236D3*
G1X72402Y50433D3*
G1X73071Y49724D3*
G1X74370Y49685D3*
G1X72992Y51142D3*
G1X69528Y50236D3*
G1X47362Y58622D3*
G1X50630Y56221D3*
G1X50630Y54134D3*
G1X50630Y52126D3*
G1X49055Y58543D3*
G1X53189Y52165D3*
G1X58976Y53150D3*
G1X53071Y54449D3*
G1X52795Y58268D3*
G1X52244Y56299D3*
G1X58976Y53898D3*
G1X55591Y57913D3*
G1X59213Y51850D3*
G1X58976Y52126D3*
G1X52795Y56457D3*
G1X59409Y53583D3*
G1X66969Y59095D3*
G1X63032Y58347D3*
G1X65669Y59173D3*
G1X66811Y58268D3*
G1X64882Y58268D3*
G1X63780Y58701D3*
G1X60945Y58071D3*
G1X61378Y58071D3*
G1X62480Y58622D3*
G1X63780Y53976D3*
G1X62087Y58622D3*
G1X63583Y51850D3*
G1X63819Y52126D3*
G1X63307Y52126D3*
G1X63032Y51850D3*
G1X59449Y52126D3*
G1X59685Y51850D3*
G1X62559Y53307D3*
G1X62362Y52953D3*
G1X59409Y53150D3*
G1X61496Y57362D3*
G1X59803Y53150D3*
G1X62520Y53740D3*
G1X60197Y53386D3*
G1X62913Y53504D3*
G1X61772Y58071D3*
G1X59882Y57756D3*
G1X67835Y53189D3*
G1X67913Y58661D3*
G1X70000Y58622D3*
G1X69882Y53189D3*
G1X51181Y62953D3*
G1X47244Y62992D3*
G1X49252Y62992D3*
G1X46181Y60039D3*
G1X55158Y62992D3*
G1X53150Y62992D3*
G1X59095Y62992D3*
G1X57087Y62992D3*
G1X65945Y60079D3*
G1X67205Y60197D3*
G1X65039Y63032D3*
G1X62874Y63032D3*
G1X67284Y62165D3*
G1X60591Y63071D3*
G1X66929Y62992D3*
G1X68819Y61063D3*
G1X67559Y62480D3*
G1X74341Y50756D2*
G75*
G54D153*
G3X74341Y50756I-620J0D1*
G1X69439Y37559D2*
G3X69439Y37559I-345J0D1*
G1X69597Y38819D2*
G3X69597Y38819I-345J0D1*
G1X69951Y39882D2*
G3X69951Y39882I-345J0D1*
G1X68219Y41535D2*
G3X68219Y41535I-345J0D1*
G1X69163Y61063D2*
G3X69163Y61063I-345J0D1*
G1X68258Y58661D2*
G3X68258Y58661I-345J0D1*
G1X67156Y58268D2*
G3X67156Y58268I-345J0D1*
G1X67313Y59095D2*
G3X67313Y59095I-345J0D1*
G1X67549Y60197D2*
G3X67549Y60197I-345J0D1*
G1X66014Y59173D2*
G3X66014Y59173I-345J0D1*
G1X66289Y60079D2*
G3X66289Y60079I-345J0D1*
G1X66939Y61417D2*
G3X66939Y61417I-522J0D1*
G1X65226Y58268D2*
G3X65226Y58268I-345J0D1*
G1X53415Y54449D2*
G3X53415Y54449I-345J0D1*
G1X53140Y58268D2*
G3X53140Y58268I-345J0D1*
G1X50541Y41339D2*
G3X50541Y41339I-344J0D1*
G1X49518Y40354D2*
G3X49518Y40354I-345J0D1*
G1X48573Y39370D2*
G3X48573Y39370I-345J0D1*
G1X48258Y40158D2*
G3X48258Y40158I-345J0D1*
G1X53494Y48228D2*
G3X53494Y48228I-345J0D1*
G1X53534Y50158D2*
G3X53534Y50158I-345J0D1*
G1X55030Y41417D2*
G3X55030Y41417I-345J0D1*
G1X54990Y42756D2*
G3X54990Y42756I-345J0D1*
G1X58770Y40354D2*
G3X58770Y40354I-345J0D1*
G1X64321Y41339D2*
G3X64321Y41339I-345J0D1*
G1X65935Y36969D2*
G3X65935Y36969I-344J0D1*
G1X65935Y38150D2*
G3X65935Y38150I-344J0D1*
G1X65935Y39370D2*
G3X65935Y39370I-344J0D1*
G1X65974Y40669D2*
G3X65974Y40669I-345J0D1*
G1X66093Y41457D2*
G3X66093Y41457I-345J0D1*
G1X61722Y47559D2*
G3X61722Y47559I-344J0D1*
G74*
G1X75305Y44450D2*
G1X75305Y55274D1*
G75*
G3X75291Y55309I-49J0D1*
G74*
G1X74246Y56354D1*
G75*
G3X74211Y56368I-35J-35D1*
G74*
G1X71713Y56368D1*
G1X71712Y56368D2*
G1X71713Y56368D1*
G1X71712Y56368D2*
G1X71712Y56368D1*
G1X71594Y56368D1*
G1X70482Y57497D1*
G1X70482Y57497D1*
G1X70358Y57621D1*
G1X70341Y57640D2*
G75*
G3X70358Y57621I191J155D1*
G1X70341Y57640D2*
G3X70337Y57644I-38J-31D1*
G74*
G1X70285Y57696D1*
G1X70285Y57794D1*
G1X70285Y57794D1*
G1X70285Y57795D2*
G1X70285Y57794D1*
G1X70285Y57795D2*
G1X70285Y58307D1*
G75*
G3X70207Y58347I-49J0D1*
G1X70207Y58898D2*
G3X70207Y58346I-207J-276D1*
G1X70207Y58898D2*
G3X70285Y58937I29J39D1*
G74*
G1X70285Y62626D1*
G75*
G3X70192Y62648I-49J0D1*
G1X69518Y63322D2*
G3X70192Y62648I226J-448D1*
G1X69518Y63322D2*
G3X69496Y63415I-22J44D1*
G74*
G1X67052Y63415D1*
G75*
G3X67037Y63319I0J-49D1*
G1X66822Y63319D2*
G3X67037Y63319I108J-327D1*
G1X66822Y63319D2*
G3X66806Y63415I-15J47D1*
G74*
G1X65247Y63415D1*
G75*
G3X65221Y63324I0J-49D1*
G1X64822Y62764D2*
G3X65221Y63324I218J267D1*
G1X64822Y62764D2*
G3X64779Y62774I-31J-38D1*
G3X64770Y62817I-48J12D1*
G1X64858Y63324D2*
G3X64770Y62817I181J-293D1*
G1X64858Y63324D2*
G3X64832Y63415I-26J42D1*
G74*
G1X63081Y63415D1*
G75*
G3X63056Y63324I0J-49D1*
G1X63201Y62923D2*
G3X63056Y63324I-327J108D1*
G1X63201Y62923D2*
G3X63259Y62860I47J-16D1*
G1X63825Y62581D2*
G3X63259Y62860I-455J-211D1*
G1X63825Y62581D2*
G3X63915Y62581I45J21D1*
G1X64699Y62749D2*
G3X63915Y62581I-329J-379D1*
G1X64699Y62749D2*
G3X64743Y62739I32J37D1*
G3X64753Y62694I48J-13D1*
G1X64581Y61915D2*
G3X64753Y62694I-211J455D1*
G1X64581Y61915D2*
G3X64581Y61825I21J-45D1*
G1X64621Y60935D2*
G3X64581Y61825I-251J435D1*
G1X64621Y60935D2*
G3X64597Y60893I25J-43D1*
G74*
G1X64597Y59902D1*
G75*
G3X64646Y59852I49J0D1*
G74*
G1X64685Y59852D1*
G1X64852Y59685D2*
G75*
G3X64685Y59852I-167J0D1*
G74*
G1X64852Y59685D2*
G1X64852Y59055D1*
G1X64685Y58888D2*
G75*
G3X64852Y59055I0J167D1*
G74*
G1X64685Y58888D2*
G1X64148Y58888D1*
G75*
G3X64102Y58821I0J-49D1*
G1X63457Y58821D2*
G3X64102Y58821I323J-121D1*
G1X63457Y58821D2*
G3X63411Y58888I-46J17D1*
G74*
G1X63055Y58888D1*
G1X62912Y58968D2*
G75*
G3X63055Y58888I143J87D1*
G1X62912Y58968D2*
G3X62828Y58968I-42J-26D1*
G1X62766Y58909D2*
G3X62828Y58968I-81J146D1*
G1X62766Y58909D2*
G3X62751Y58835I24J-43D1*
G1X62817Y58693D2*
G3X62751Y58835I-337J-71D1*
G1X62817Y58693D2*
G3X62886Y58659I48J10D1*
G1X62695Y58275D2*
G3X62886Y58659I337J71D1*
G1X62695Y58275D2*
G3X62626Y58310I-48J-10D1*
G1X62308Y58324D2*
G3X62626Y58310I172J298D1*
G1X62308Y58324D2*
G3X62259Y58324I-25J-43D1*
G1X62126Y58280D2*
G3X62259Y58324I-39J342D1*
G1X62126Y58280D2*
G3X62086Y58211I6J-49D1*
G1X61735Y57728D2*
G3X62086Y58211I37J342D1*
G1X61735Y57728D2*
G3X61700Y57640I-5J-49D1*
G1X61305Y57649D2*
G3X61700Y57640I191J-287D1*
G1X61305Y57649D2*
G3X61291Y57738I-27J41D1*
G1X61189Y57783D2*
G3X61291Y57738I190J288D1*
G1X61189Y57783D2*
G3X61134Y57783I-27J-41D1*
G1X61134Y58359D2*
G3X61134Y57783I-190J-288D1*
G1X61134Y58359D2*
G3X61189Y58359I27J41D1*
G1X61550Y58369D2*
G3X61189Y58359I-172J-298D1*
G1X61550Y58369D2*
G3X61599Y58369I25J43D1*
G1X61733Y58413D2*
G3X61599Y58369I39J-342D1*
G1X61733Y58413D2*
G3X61772Y58482I-6J49D1*
G1X61810Y58827D2*
G3X61772Y58482I277J-205D1*
G1X61810Y58827D2*
G3X61751Y58901I-40J29D1*
G1X61685Y58888D2*
G3X61751Y58901I0J167D1*
G74*
G1X61685Y58888D2*
G1X61055Y58888D1*
G1X60912Y58968D2*
G75*
G3X61055Y58888I143J87D1*
G1X60912Y58968D2*
G3X60828Y58968I-42J-26D1*
G1X60685Y58888D2*
G3X60828Y58968I0J167D1*
G74*
G1X60685Y58888D2*
G1X60055Y58888D1*
G1X59912Y58968D2*
G75*
G3X60055Y58888I143J87D1*
G1X59912Y58968D2*
G3X59828Y58968I-42J-26D1*
G1X59685Y58888D2*
G3X59828Y58968I0J167D1*
G74*
G1X59685Y58888D2*
G1X59055Y58888D1*
G1X58912Y58968D2*
G75*
G3X59055Y58888I143J87D1*
G1X58912Y58968D2*
G3X58828Y58968I-42J-26D1*
G1X58685Y58888D2*
G3X58828Y58968I0J167D1*
G74*
G1X58685Y58888D2*
G1X58055Y58888D1*
G1X57912Y58968D2*
G75*
G3X58055Y58888I143J87D1*
G1X57912Y58968D2*
G3X57828Y58968I-42J-26D1*
G1X57685Y58888D2*
G3X57828Y58968I0J167D1*
G74*
G1X57685Y58888D2*
G1X57055Y58888D1*
G1X56888Y59055D2*
G75*
G3X57055Y58888I167J0D1*
G74*
G1X56888Y59055D2*
G1X56888Y59685D1*
G1X57055Y59852D2*
G75*
G3X56888Y59685I0J-167D1*
G74*
G1X57055Y59852D2*
G1X57095Y59852D1*
G75*
G3X57144Y59902I0J49D1*
G74*
G1X57144Y60893D1*
G75*
G3X57119Y60935I-49J0D1*
G1X56915Y61159D2*
G3X57119Y60935I455J211D1*
G1X56915Y61159D2*
G3X56825Y61159I-45J-21D1*
G1X56621Y60935D2*
G3X56825Y61159I-251J435D1*
G1X56621Y60935D2*
G3X56597Y60893I25J-43D1*
G74*
G1X56597Y60661D1*
G1X56530Y60501D2*
G75*
G3X56597Y60661I-160J160D1*
G74*
G1X56530Y60501D2*
G1X56012Y59984D1*
G75*
G3X55998Y59949I35J-35D1*
G74*
G1X55998Y59902D1*
G75*
G3X56047Y59852I49J0D1*
G74*
G1X56087Y59852D1*
G1X56254Y59685D2*
G75*
G3X56087Y59852I-167J0D1*
G74*
G1X56254Y59685D2*
G1X56254Y59055D1*
G1X56087Y58888D2*
G75*
G3X56254Y59055I0J167D1*
G74*
G1X56087Y58888D2*
G1X55457Y58888D1*
G1X55314Y58968D2*
G75*
G3X55457Y58888I143J87D1*
G1X55314Y58968D2*
G3X55230Y58968I-42J-25D1*
G1X55087Y58888D2*
G3X55230Y58968I0J167D1*
G74*
G1X55087Y58888D2*
G1X54457Y58888D1*
G1X54314Y58968D2*
G75*
G3X54457Y58888I143J87D1*
G1X54314Y58968D2*
G3X54230Y58968I-42J-25D1*
G1X54087Y58888D2*
G3X54230Y58968I0J167D1*
G74*
G1X54087Y58888D2*
G1X53457Y58888D1*
G1X53314Y58968D2*
G75*
G3X53457Y58888I143J87D1*
G1X53314Y58968D2*
G3X53230Y58968I-42J-25D1*
G1X53087Y58888D2*
G3X53230Y58968I0J167D1*
G74*
G1X53087Y58888D2*
G1X52457Y58888D1*
G1X52314Y58968D2*
G75*
G3X52457Y58888I143J87D1*
G1X52314Y58968D2*
G3X52230Y58968I-42J-25D1*
G1X52087Y58888D2*
G3X52230Y58968I0J167D1*
G74*
G1X52087Y58888D2*
G1X51457Y58888D1*
G1X51314Y58968D2*
G75*
G3X51457Y58888I143J87D1*
G1X51314Y58968D2*
G3X51230Y58968I-42J-25D1*
G1X51087Y58888D2*
G3X51230Y58968I0J167D1*
G74*
G1X51087Y58888D2*
G1X50457Y58888D1*
G1X50314Y58968D2*
G75*
G3X50457Y58888I143J87D1*
G1X50314Y58968D2*
G3X50230Y58968I-42J-25D1*
G1X50087Y58888D2*
G3X50230Y58968I0J167D1*
G74*
G1X50087Y58888D2*
G1X49457Y58888D1*
G1X49314Y58968D2*
G75*
G3X49457Y58888I143J87D1*
G1X49314Y58968D2*
G3X49230Y58968I-42J-25D1*
G1X49199Y58931D2*
G3X49230Y58968I-113J124D1*
G1X49199Y58931D2*
G3X49210Y58851I33J-36D1*
G1X49209Y58235D2*
G3X49210Y58851I-154J308D1*
G1X49209Y58235D2*
G3X49197Y58157I22J-44D1*
G74*
G1X50404Y56950D1*
G1X50404Y56572D1*
G75*
G3X50475Y56528I49J0D1*
G1X50475Y55913D2*
G3X50475Y56528I155J308D1*
G1X50475Y55913D2*
G3X50404Y55869I-22J-44D1*
G74*
G1X50404Y54485D1*
G75*
G3X50475Y54442I49J0D1*
G1X50965Y54214D2*
G3X50475Y54442I-335J-80D1*
G1X50965Y54214D2*
G3X51028Y54179I48J11D1*
G1X50680Y53737D2*
G3X51028Y54179I501J-36D1*
G1X50680Y53737D2*
G3X50631Y53789I-49J4D1*
G1X50475Y53826D2*
G3X50631Y53789I155J308D1*
G1X50475Y53826D2*
G3X50404Y53782I-22J-44D1*
G74*
G1X50404Y52478D1*
G75*
G3X50475Y52434I49J0D1*
G1X50475Y51818D2*
G3X50475Y52434I155J308D1*
G1X50475Y51818D2*
G3X50404Y51774I-22J-44D1*
G74*
G1X50404Y50509D1*
G75*
G3X50475Y50465I49J0D1*
G1X50475Y49850D2*
G3X50475Y50465I155J308D1*
G1X50475Y49850D2*
G3X50404Y49806I-22J-44D1*
G74*
G1X50404Y48501D1*
G75*
G3X50475Y48457I49J0D1*
G1X50475Y47842D2*
G3X50475Y48457I155J308D1*
G1X50475Y47842D2*
G3X50404Y47798I-22J-44D1*
G74*
G1X50404Y44660D1*
G75*
G3X50470Y44614I49J0D1*
G1X50470Y43969D2*
G3X50470Y44614I121J323D1*
G1X50470Y43969D2*
G3X50404Y43923I-17J-46D1*
G74*
G1X50404Y42815D1*
G1X49115Y41506D1*
G1X48958Y41506D1*
G1X48958Y41506D1*
G1X48957Y41506D2*
G1X48958Y41506D1*
G1X48957Y41506D2*
G1X48604Y41506D1*
G75*
G3X48557Y41442I0J-49D1*
G1X47900Y41442D2*
G3X48557Y41442I329J-103D1*
G1X47900Y41442D2*
G3X47853Y41506I-47J15D1*
G74*
G1X47049Y41506D1*
G75*
G3X47014Y41491I0J-49D1*
G74*
G1X46309Y40773D1*
G75*
G3X46334Y40691I35J-34D1*
G1X46598Y40290D2*
G3X46334Y40691I-339J64D1*
G1X46598Y40290D2*
G3X46630Y40235I48J-9D1*
G1X46044Y39478D2*
G3X46630Y40235I412J286D1*
G1X46044Y39478D2*
G3X45955Y39449I-40J-28D1*
G74*
G1X45955Y38782D1*
G75*
G3X46037Y38745I49J0D1*
G1X46825Y38581D2*
G3X46037Y38745I-455J-211D1*
G1X46825Y38581D2*
G3X46915Y38581I45J21D1*
G1X47825Y38581D2*
G3X46915Y38581I-455J-211D1*
G1X47825Y38581D2*
G3X47915Y38581I45J21D1*
G1X48825Y38581D2*
G3X47915Y38581I-455J-211D1*
G1X48825Y38581D2*
G3X48915Y38581I45J21D1*
G1X49515Y38851D2*
G3X48915Y38581I-145J-481D1*
G1X49515Y38851D2*
G3X49579Y38903I14J47D1*
G1X50073Y39246D2*
G3X49579Y38903I-152J-309D1*
G1X50073Y39246D2*
G3X50144Y39291I22J44D1*
G74*
G1X50144Y39839D1*
G75*
G3X50095Y39888I-49J0D1*
G74*
G1X50055Y39888D1*
G1X49888Y40055D2*
G75*
G3X50055Y39888I167J0D1*
G74*
G1X49888Y40055D2*
G1X49888Y40685D1*
G1X50055Y40852D2*
G75*
G3X49888Y40685I0J-167D1*
G74*
G1X50055Y40852D2*
G1X50685Y40852D1*
G1X50828Y40772D2*
G75*
G3X50685Y40852I-143J-87D1*
G1X50828Y40772D2*
G3X50912Y40772I42J26D1*
G1X51055Y40852D2*
G3X50912Y40772I0J-167D1*
G74*
G1X51055Y40852D2*
G1X51685Y40852D1*
G1X51828Y40772D2*
G75*
G3X51685Y40852I-143J-87D1*
G1X51828Y40772D2*
G3X51912Y40772I42J26D1*
G1X52055Y40852D2*
G3X51912Y40772I0J-167D1*
G74*
G1X52055Y40852D2*
G1X52685Y40852D1*
G1X52828Y40772D2*
G75*
G3X52685Y40852I-143J-87D1*
G1X52828Y40772D2*
G3X52912Y40772I42J26D1*
G1X53055Y40852D2*
G3X52912Y40772I0J-167D1*
G74*
G1X53055Y40852D2*
G1X53685Y40852D1*
G1X53828Y40772D2*
G75*
G3X53685Y40852I-143J-87D1*
G1X53828Y40772D2*
G3X53912Y40772I42J26D1*
G1X54055Y40852D2*
G3X53912Y40772I0J-167D1*
G74*
G1X54055Y40852D2*
G1X54685Y40852D1*
G1X54828Y40772D2*
G75*
G3X54685Y40852I-143J-87D1*
G1X54828Y40772D2*
G3X54912Y40772I42J26D1*
G1X55055Y40852D2*
G3X54912Y40772I0J-167D1*
G74*
G1X55055Y40852D2*
G1X55517Y40852D1*
G75*
G3X55546Y40941I0J49D1*
G1X55828Y40885D2*
G3X55546Y40941I-80J335D1*
G1X55828Y40885D2*
G3X55804Y40803I11J-48D1*
G1X55828Y40772D2*
G3X55804Y40803I-143J-87D1*
G1X55828Y40772D2*
G3X55912Y40772I42J26D1*
G1X56055Y40852D2*
G3X55912Y40772I0J-167D1*
G74*
G1X56055Y40852D2*
G1X56685Y40852D1*
G1X56828Y40772D2*
G75*
G3X56685Y40852I-143J-87D1*
G1X56828Y40772D2*
G3X56912Y40772I42J26D1*
G1X57055Y40852D2*
G3X56912Y40772I0J-167D1*
G74*
G1X57055Y40852D2*
G1X57685Y40852D1*
G1X57852Y40685D2*
G75*
G3X57685Y40852I-167J0D1*
G74*
G1X57852Y40685D2*
G1X57852Y40055D1*
G1X57685Y39888D2*
G75*
G3X57852Y40055I0J167D1*
G74*
G1X57685Y39888D2*
G1X57646Y39888D1*
G75*
G3X57597Y39839I0J-49D1*
G74*
G1X57597Y39183D1*
G75*
G3X57684Y39153I49J0D1*
G1X58297Y38923D2*
G3X57684Y39153I-344J14D1*
G1X58297Y38923D2*
G3X58348Y38872I49J-2D1*
G1X58825Y38581D2*
G3X58348Y38872I-455J-211D1*
G1X58825Y38581D2*
G3X58915Y38581I45J21D1*
G1X59119Y38805D2*
G3X58915Y38581I251J-435D1*
G1X59119Y38805D2*
G3X59144Y38847I-25J43D1*
G74*
G1X59144Y39839D1*
G75*
G3X59095Y39888I-49J0D1*
G74*
G1X59055Y39888D1*
G1X58888Y40055D2*
G75*
G3X59055Y39888I167J0D1*
G74*
G1X58888Y40055D2*
G1X58888Y40685D1*
G1X59055Y40852D2*
G75*
G3X58888Y40685I0J-167D1*
G74*
G1X59055Y40852D2*
G1X59685Y40852D1*
G1X59828Y40772D2*
G75*
G3X59685Y40852I-143J-87D1*
G1X59828Y40772D2*
G3X59912Y40772I42J26D1*
G1X60055Y40852D2*
G3X59912Y40772I0J-167D1*
G74*
G1X60055Y40852D2*
G1X60685Y40852D1*
G1X60828Y40772D2*
G75*
G3X60685Y40852I-143J-87D1*
G1X60828Y40772D2*
G3X60912Y40772I42J26D1*
G1X61055Y40852D2*
G3X60912Y40772I0J-167D1*
G74*
G1X61055Y40852D2*
G1X61685Y40852D1*
G1X61828Y40772D2*
G75*
G3X61685Y40852I-143J-87D1*
G1X61828Y40772D2*
G3X61912Y40772I42J26D1*
G1X62055Y40852D2*
G3X61912Y40772I0J-167D1*
G74*
G1X62055Y40852D2*
G1X62685Y40852D1*
G1X62828Y40772D2*
G75*
G3X62685Y40852I-143J-87D1*
G1X62828Y40772D2*
G3X62912Y40772I42J26D1*
G1X63055Y40852D2*
G3X62912Y40772I0J-167D1*
G74*
G1X63055Y40852D2*
G1X63685Y40852D1*
G1X63828Y40772D2*
G75*
G3X63685Y40852I-143J-87D1*
G1X63828Y40772D2*
G3X63912Y40772I42J26D1*
G1X64055Y40852D2*
G3X63912Y40772I0J-167D1*
G74*
G1X64055Y40852D2*
G1X64685Y40852D1*
G1X64852Y40685D2*
G75*
G3X64685Y40852I-167J0D1*
G74*
G1X64852Y40685D2*
G1X64852Y40055D1*
G1X64685Y39888D2*
G75*
G3X64852Y40055I0J167D1*
G74*
G1X64685Y39888D2*
G1X64646Y39888D1*
G75*
G3X64597Y39839I0J-49D1*
G74*
G1X64597Y38847D1*
G75*
G3X64621Y38805I49J0D1*
G1X64581Y37915D2*
G3X64621Y38805I-211J455D1*
G1X64581Y37915D2*
G3X64581Y37825I21J-45D1*
G1X63915Y37159D2*
G3X64581Y37826I455J211D1*
G1X63915Y37159D2*
G3X63825Y37159I-45J-21D1*
G1X62915Y37159D2*
G3X63825Y37159I455J211D1*
G1X62915Y37159D2*
G3X62825Y37159I-45J-21D1*
G1X61915Y37159D2*
G3X62825Y37159I455J211D1*
G1X61915Y37159D2*
G3X61825Y37159I-45J-21D1*
G1X60915Y37159D2*
G3X61825Y37159I455J211D1*
G1X60915Y37159D2*
G3X60825Y37159I-45J-21D1*
G1X60253Y36882D2*
G3X60825Y37159I118J488D1*
G1X60253Y36882D2*
G3X60216Y36792I-11J-48D1*
G1X60371Y36401D2*
G3X60216Y36792I-331J95D1*
G1X60371Y36401D2*
G3X60418Y36339I47J-14D1*
G74*
G1X61629Y36339D1*
G75*
G3X61677Y36401I0J49D1*
G1X62339Y36401D2*
G3X61677Y36401I-331J95D1*
G1X62339Y36401D2*
G3X62386Y36339I47J-14D1*
G74*
G1X63598Y36339D1*
G75*
G3X63645Y36401I0J49D1*
G1X64308Y36401D2*
G3X63645Y36401I-331J95D1*
G1X64308Y36401D2*
G3X64355Y36339I47J-14D1*
G74*
G1X67290Y36339D1*
G75*
G3X67338Y36396I0J49D1*
G1X68016Y36396D2*
G3X67338Y36396I-339J60D1*
G1X68016Y36396D2*
G3X68065Y36339I48J-9D1*
G74*
G1X69455Y36339D1*
G75*
G3X69503Y36396I0J49D1*
G1X70187Y36458D2*
G3X69503Y36396I-345J-2D1*
G74*
G1X70187Y36458D2*
G1X70187Y36457D1*
G1X70187Y36455D1*
G1X70182Y36396D2*
G75*
G3X70187Y36455I-339J60D1*
G1X70182Y36396D2*
G3X70230Y36339I48J-9D1*
G74*
G1X70236Y36339D1*
G75*
G3X70285Y36388I0J49D1*
G74*
G1X70285Y36455D1*
G1X70285Y36457D1*
G1X70285Y36459D1*
G1X70285Y40984D1*
G75*
G3X70197Y41014I-49J0D1*
G1X70197Y41427D2*
G3X70197Y41014I-276J-207D1*
G1X70197Y41427D2*
G3X70285Y41457I39J30D1*
G74*
G1X70285Y41949D1*
G1X70285Y41950D2*
G1X70285Y41949D1*
G1X70285Y41950D2*
G1X70285Y41950D1*
G1X70285Y42131D1*
G1X71510Y43371D1*
G75*
G3X71475Y43455I-35J35D1*
G74*
G1X71321Y43455D1*
G75*
G3X71289Y43443I0J-49D1*
G74*
G1X69776Y42151D1*
G1X69674Y42114D2*
G75*
G3X69776Y42151I0J158D1*
G74*
G1X69674Y42114D2*
G1X66984Y42114D1*
G75*
G3X66943Y42038I0J-49D1*
G1X66365Y42038D2*
G3X66943Y42038I289J-187D1*
G1X66365Y42038D2*
G3X66323Y42114I-41J27D1*
G74*
G1X65055Y42114D1*
G75*
G3X65014Y42038I0J-49D1*
G1X64435Y42038D2*
G3X65014Y42038I289J-187D1*
G1X64435Y42038D2*
G3X64394Y42114I-41J27D1*
G74*
G1X61865Y42114D1*
G75*
G3X61838Y42023I0J-49D1*
G1X61998Y41732D2*
G3X61838Y42023I-345J0D1*
G1X61998Y41732D2*
G3X62047Y41683I49J0D1*
G1X61703Y41339D2*
G3X62047Y41683I344J0D1*
G1X61703Y41339D2*
G3X61654Y41388I-49J0D1*
G1X61469Y42023D2*
G3X61654Y41388I185J-291D1*
G1X61469Y42023D2*
G3X61442Y42114I-26J42D1*
G74*
G1X56936Y42114D1*
G1X56830Y42155D2*
G75*
G3X56936Y42114I106J116D1*
G74*
G1X56830Y42155D2*
G1X55998Y42916D1*
G75*
G3X55918Y42864I-33J-36D1*
G1X55669Y43091D2*
G3X55918Y42864I-79J-335D1*
G1X55669Y43091D2*
G3X55714Y43176I11J48D1*
G74*
G1X54175Y44582D1*
G1X54124Y44698D2*
G75*
G3X54175Y44582I158J0D1*
G74*
G1X54124Y44698D2*
G1X54124Y49813D1*
G1X54184Y49937D2*
G75*
G3X54124Y49813I97J-124D1*
G1X54184Y49937D2*
G3X54191Y50008I-30J39D1*
G1X54182Y50455D2*
G3X54191Y50008I266J-218D1*
G1X54182Y50455D2*
G3X54145Y50535I-38J31D1*
G74*
G1X53728Y50541D1*
G1X53573Y50698D2*
G75*
G3X53728Y50541I158J0D1*
G74*
G1X53573Y50698D2*
G1X53573Y51958D1*
G75*
G3X53482Y51984I-49J0D1*
G1X53482Y52347D2*
G3X53482Y51984I-293J-181D1*
G1X53482Y52347D2*
G3X53573Y52373I42J26D1*
G74*
G1X53573Y55892D1*
G1X53630Y56013D2*
G75*
G3X53573Y55892I100J-122D1*
G74*
G1X53630Y56013D2*
G1X55387Y57454D1*
G1X55474Y57490D2*
G75*
G3X55387Y57454I13J-157D1*
G1X55474Y57490D2*
G3X55485Y57586I-4J49D1*
G1X55698Y57586D2*
G3X55485Y57586I-108J327D1*
G1X55698Y57586D2*
G3X55714Y57490I15J-47D1*
G74*
G1X59553Y57490D1*
G75*
G3X59594Y57566I0J49D1*
G1X60170Y57566D2*
G3X59594Y57566I-288J190D1*
G1X60170Y57566D2*
G3X60211Y57490I41J-27D1*
G74*
G1X60844Y57490D1*
G1X60996Y57373D2*
G75*
G3X60844Y57490I-152J-41D1*
G74*
G1X60996Y57373D2*
G1X61112Y56936D1*
G75*
G3X61160Y56900I48J13D1*
G74*
G1X61957Y56900D1*
G75*
G3X62004Y56934I0J49D1*
G74*
G1X62155Y57419D1*
G1X62305Y57530D2*
G75*
G3X62155Y57419I0J-158D1*
G74*
G1X62305Y57530D2*
G1X69713Y57530D1*
G1X69817Y57491D2*
G75*
G3X69713Y57530I-103J-119D1*
G74*
G1X69817Y57491D2*
G1X71441Y56085D1*
G75*
G3X71474Y56073I32J37D1*
G74*
G1X74124Y56073D1*
G1X74221Y56039D2*
G75*
G3X74124Y56073I-97J-124D1*
G74*
G1X74221Y56039D2*
G1X74753Y55621D1*
G1X74813Y55498D2*
G75*
G3X74753Y55621I-157J0D1*
G74*
G1X74813Y55498D2*
G1X74813Y53595D1*
G1X74767Y53484D2*
G75*
G3X74813Y53595I-111J111D1*
G74*
G1X74767Y53484D2*
G1X74469Y53186D1*
G1X74358Y53140D2*
G75*
G3X74469Y53186I0J157D1*
G74*
G1X74358Y53140D2*
G1X74343Y53140D1*
G75*
G3X74313Y53130I0J-49D1*
G1X74244Y53100D2*
G3X74313Y53130I-32J164D1*
G1X74244Y53100D2*
G3X74254Y53002I9J-48D1*
G74*
G1X74319Y53002D1*
G1X74430Y52956D2*
G75*
G3X74319Y53002I-111J-111D1*
G74*
G1X74430Y52956D2*
G1X74767Y52619D1*
G1X74813Y52508D2*
G75*
G3X74767Y52619I-157J0D1*
G74*
G1X74813Y52508D2*
G1X74813Y51823D1*
G1X74767Y51712D2*
G75*
G3X74813Y51823I-111J111D1*
G74*
G1X74767Y51712D2*
G1X74587Y51532D1*
G1X74476Y51486D2*
G75*
G3X74587Y51532I0J157D1*
G74*
G1X74476Y51486D2*
G1X72684Y51486D1*
G75*
G3X72645Y51468I0J-49D1*
G74*
G1X71920Y50561D1*
G1X71797Y50502D2*
G75*
G3X71920Y50561I0J157D1*
G74*
G1X71797Y50502D2*
G1X68439Y50502D1*
G75*
G3X68398Y50426I0J-49D1*
G1X68398Y50046D2*
G3X68398Y50426I-287J190D1*
G1X68398Y50046D2*
G3X68439Y49970I41J-27D1*
G74*
G1X71755Y49970D1*
G1X71889Y49895D2*
G75*
G3X71755Y49970I-134J-83D1*
G74*
G1X71889Y49895D2*
G1X72216Y49367D1*
G75*
G3X72305Y49380I42J26D1*
G1X72674Y49634D2*
G3X72305Y49380I-36J-343D1*
G1X72674Y49634D2*
G3X72728Y49688I5J49D1*
G1X73380Y49878D2*
G3X72728Y49688I-309J-153D1*
G1X73380Y49878D2*
G3X73444Y49855I44J22D1*
G1X74013Y49847D2*
G3X73444Y49855I-292J-591D1*
G1X74013Y49847D2*
G3X74077Y49865I22J44D1*
G1X74421Y49344D2*
G3X74077Y49865I-51J341D1*
G1X74421Y49344D2*
G3X74379Y49293I7J-49D1*
G1X74378Y49205D2*
G3X74379Y49293I-657J52D1*
G1X74378Y49205D2*
G3X74415Y49153I49J-4D1*
G1X74404Y48482D2*
G3X74415Y49153I-74J337D1*
G1X74404Y48482D2*
G3X74380Y48400I10J-48D1*
G74*
G1X74609Y48170D1*
G1X74656Y48059D2*
G75*
G3X74609Y48170I-158J0D1*
G74*
G1X74656Y48059D2*
G1X74656Y47650D1*
G1X74609Y47539D2*
G75*
G3X74656Y47650I-111J111D1*
G74*
G1X74609Y47539D2*
G1X74272Y47202D1*
G1X74161Y47156D2*
G75*
G3X74272Y47202I0J158D1*
G74*
G1X74161Y47156D2*
G1X74004Y47156D1*
G75*
G3X73984Y47151I0J-49D1*
G1X73457Y47151D2*
G3X73984Y47151I264J605D1*
G1X73457Y47151D2*
G3X73437Y47156I-20J-45D1*
G74*
G1X68738Y47156D1*
G75*
G3X68716Y47062I0J-49D1*
G1X68780Y46124D2*
G3X68716Y47062I-299J451D1*
G1X68780Y46124D2*
G3X68807Y46034I27J-41D1*
G74*
G1X69447Y46034D1*
G75*
G3X69484Y46051I0J49D1*
G74*
G1X70170Y46845D1*
G1X70289Y46900D2*
G75*
G3X70170Y46845I0J-158D1*
G74*
G1X70289Y46900D2*
G1X73572Y46900D1*
G75*
G3X73582Y46901I0J49D1*
G1X73859Y46901D2*
G3X73582Y46901I-138J-645D1*
G1X73859Y46901D2*
G3X73869Y46900I10J48D1*
G74*
G1X75010Y46900D1*
G1X75167Y46742D2*
G75*
G3X75010Y46900I-158J0D1*
G74*
G1X75167Y46742D2*
G1X75167Y44410D1*
G75*
G3X75252Y44375I49J0D1*
G74*
G1X75291Y44415D1*
G75*
G3X75305Y44450I-35J34D1*
G1X58098Y36840D2*
G3X58126Y36932I4J49D1*
G1X57915Y37159D2*
G3X58126Y36932I455J211D1*
G1X57915Y37159D2*
G3X57825Y37159I-45J-21D1*
G1X56915Y37159D2*
G3X57825Y37159I455J211D1*
G1X56915Y37159D2*
G3X56825Y37159I-45J-21D1*
G1X56329Y36870D2*
G3X56825Y37159I41J500D1*
G1X56329Y36870D2*
G3X56297Y36780I-4J-49D1*
G1X56434Y36401D2*
G3X56297Y36780I-331J95D1*
G1X56434Y36401D2*
G3X56481Y36339I47J-14D1*
G74*
G1X57692Y36339D1*
G75*
G3X57740Y36401I0J49D1*
G1X58098Y36840D2*
G3X57740Y36401I-27J-343D1*
G1X60103Y36835D2*
G3X60135Y36927I9J48D1*
G1X59915Y37159D2*
G3X60135Y36927I455J211D1*
G1X59915Y37159D2*
G3X59825Y37159I-45J-21D1*
G1X58915Y37159D2*
G3X59825Y37159I455J211D1*
G1X58915Y37159D2*
G3X58825Y37159I-45J-21D1*
G1X58294Y36874D2*
G3X58825Y37159I76J496D1*
G1X58294Y36874D2*
G3X58260Y36784I-7J-49D1*
G1X58402Y36401D2*
G3X58260Y36784I-331J95D1*
G1X58402Y36401D2*
G3X58449Y36339I47J-14D1*
G74*
G1X59661Y36339D1*
G75*
G3X59708Y36401I0J49D1*
G1X60103Y36835D2*
G3X59708Y36401I-64J-339D1*
G1X73187Y53002D2*
G3X73197Y53100I0J49D1*
G1X73128Y53130D2*
G3X73197Y53100I100J134D1*
G1X73128Y53130D2*
G3X73098Y53140I-30J-39D1*
G74*
G1X70800Y53140D1*
G1X70685Y53190D2*
G75*
G3X70800Y53140I115J107D1*
G74*
G1X70685Y53190D2*
G1X69762Y54187D1*
G75*
G3X69726Y54203I-36J-34D1*
G74*
G1X64131Y54203D1*
G75*
G3X64087Y54131I0J-49D1*
G1X63472Y54131D2*
G3X64087Y54131I308J-155D1*
G1X63472Y54131D2*
G3X63428Y54203I-44J22D1*
G74*
G1X59276Y54203D1*
G75*
G3X59238Y54122I0J-49D1*
G1X59314Y53964D2*
G3X59238Y54122I-338J-66D1*
G1X59314Y53964D2*
G3X59369Y53925I48J9D1*
G1X59752Y53548D2*
G3X59369Y53925I-343J34D1*
G1X59752Y53548D2*
G3X59801Y53494I49J-5D1*
G1X59831Y53493D2*
G3X59801Y53494I-29J-343D1*
G1X59831Y53493D2*
G3X59881Y53523I4J49D1*
G1X60169Y53043D2*
G3X59881Y53522I28J343D1*
G1X60169Y53043D2*
G3X60119Y53013I-4J-49D1*
G1X59631Y52851D2*
G3X60119Y53013I172J298D1*
G1X59631Y52851D2*
G3X59582Y52851I-25J-43D1*
G1X59220Y52862D2*
G3X59582Y52851I189J288D1*
G1X59220Y52862D2*
G3X59166Y52862I-27J-41D1*
G1X58787Y52862D2*
G3X59166Y52862I189J288D1*
G1X58787Y52862D2*
G3X58711Y52821I-27J-41D1*
G74*
G1X58711Y51634D1*
G75*
G3X58760Y51585I49J0D1*
G74*
G1X60246Y51585D1*
G1X60374Y51520D2*
G75*
G3X60246Y51585I-127J-92D1*
G1X60374Y51520D2*
G3X60463Y51549I40J29D1*
G74*
G1X60463Y51939D1*
G1X60620Y52097D2*
G75*
G3X60463Y51939I0J-158D1*
G74*
G1X60620Y52097D2*
G1X62175Y52097D1*
G1X62333Y51939D2*
G75*
G3X62175Y52097I-158J0D1*
G74*
G1X62333Y51939D2*
G1X62333Y51629D1*
G75*
G3X62412Y51590I49J0D1*
G1X62510Y51624D2*
G3X62412Y51590I0J-157D1*
G74*
G1X62510Y51624D2*
G1X63564Y51624D1*
G75*
G3X63596Y51636I0J49D1*
G74*
G1X65066Y52886D1*
G1X65168Y52923D2*
G75*
G3X65066Y52886I0J-157D1*
G74*
G1X65168Y52923D2*
G1X67000Y52923D1*
G75*
G3X67004Y52924I-1J49D1*
G74*
G1X67485Y52969D1*
G75*
G3X67524Y53040I-5J49D1*
G1X67884Y53530D2*
G3X67524Y53040I-49J-341D1*
G1X67884Y53530D2*
G3X67940Y53576I7J49D1*
G1X68780Y53092D2*
G3X67940Y53576I-299J451D1*
G1X68780Y53092D2*
G3X68807Y53002I27J-41D1*
G74*
G1X69513Y53002D1*
G75*
G3X69559Y53068I0J49D1*
G1X70205Y53068D2*
G3X69559Y53068I-323J121D1*
G1X70205Y53068D2*
G3X70251Y53002I46J-17D1*
G74*
G1X73187Y53002D1*
G1X68244Y47062D2*
G75*
G3X68223Y47156I-21J44D1*
G74*
G1X66936Y47156D1*
G75*
G3X66913Y47063I0J-49D1*
G1X66982Y46949D2*
G3X66913Y47063I-128J0D1*
G74*
G1X66982Y46949D2*
G1X66982Y46201D1*
G1X66950Y46116D2*
G75*
G3X66982Y46201I-95J85D1*
G1X66950Y46116D2*
G3X66986Y46034I37J-33D1*
G74*
G1X68154Y46034D1*
G75*
G3X68181Y46124I0J49D1*
G1X68244Y47062D2*
G3X68181Y46124I236J-487D1*
G1X66048Y47063D2*
G3X66025Y47156I-23J44D1*
G74*
G1X65845Y47156D1*
G1X65750Y47188D2*
G75*
G3X65845Y47156I95J125D1*
G74*
G1X65750Y47188D2*
G1X63570Y48838D1*
G75*
G3X63541Y48848I-30J-39D1*
G74*
G1X62510Y48848D1*
G1X62412Y48882D2*
G75*
G3X62510Y48848I97J124D1*
G1X62412Y48882D2*
G3X62333Y48844I-31J-39D1*
G74*
G1X62333Y48534D1*
G1X62175Y48376D2*
G75*
G3X62333Y48534I0J158D1*
G74*
G1X62175Y48376D2*
G1X60620Y48376D1*
G1X60463Y48534D2*
G75*
G3X60620Y48376I158J0D1*
G74*
G1X60463Y48534D2*
G1X60463Y48924D1*
G75*
G3X60374Y48953I-49J0D1*
G1X60246Y48888D2*
G3X60374Y48953I0J157D1*
G74*
G1X60246Y48888D2*
G1X59163Y48888D1*
G1X58760Y48888D1*
G75*
G3X58711Y48839I0J-49D1*
G74*
G1X58711Y47889D1*
G75*
G3X58777Y47842I49J0D1*
G1X59070Y47818D2*
G3X58777Y47842I-172J-298D1*
G1X59070Y47818D2*
G3X59119Y47818I25J43D1*
G1X59119Y47221D2*
G3X59119Y47818I172J298D1*
G1X59119Y47221D2*
G3X59070Y47221I-25J-43D1*
G1X58777Y47197D2*
G3X59070Y47221I121J323D1*
G1X58777Y47197D2*
G3X58711Y47151I-17J-46D1*
G74*
G1X58711Y47129D1*
G75*
G3X58728Y47092I49J0D1*
G74*
G1X59955Y46045D1*
G75*
G3X59987Y46034I32J38D1*
G74*
G1X62654Y46034D1*
G75*
G3X62691Y46115I0J49D1*
G1X62816Y46655D2*
G3X62691Y46115I137J-316D1*
G1X62816Y46655D2*
G3X62846Y46704I-20J45D1*
G1X63393Y47010D2*
G3X62846Y46704I-204J-278D1*
G1X63393Y47010D2*
G3X63457Y47015I29J40D1*
G1X64040Y46711D2*
G3X63457Y47015I-339J61D1*
G1X64040Y46711D2*
G3X64069Y46657I48J-9D1*
G1X64199Y46115D2*
G3X64069Y46657I-262J224D1*
G1X64199Y46115D2*
G3X64236Y46034I37J-32D1*
G74*
G1X65974Y46034D1*
G75*
G3X66011Y46116I0J49D1*
G1X65978Y46201D2*
G3X66011Y46116I128J0D1*
G74*
G1X65978Y46201D2*
G1X65978Y46949D1*
G1X66048Y47063D2*
G75*
G3X65978Y46949I59J-114D1*
G1X74341Y50756D2*
G3X74341Y50756I-620J0D1*
G1X69439Y37559D2*
G3X69439Y37559I-345J0D1*
G1X69597Y38819D2*
G3X69597Y38819I-345J0D1*
G1X69951Y39882D2*
G3X69951Y39882I-345J0D1*
G1X68219Y41535D2*
G3X68219Y41535I-345J0D1*
G1X69163Y61063D2*
G3X69163Y61063I-345J0D1*
G1X68258Y58661D2*
G3X68258Y58661I-345J0D1*
G1X67156Y58268D2*
G3X67156Y58268I-345J0D1*
G1X67313Y59095D2*
G3X67313Y59095I-345J0D1*
G1X67549Y60197D2*
G3X67549Y60197I-345J0D1*
G1X66014Y59173D2*
G3X66014Y59173I-345J0D1*
G1X66289Y60079D2*
G3X66289Y60079I-345J0D1*
G1X66939Y61417D2*
G3X66939Y61417I-522J0D1*
G1X67658Y62150D2*
G3X67219Y62535I-99J330D1*
G1X67658Y62150D2*
G3X67624Y62111I14J-47D1*
G1X67184Y62495D2*
G3X67624Y62111I99J-330D1*
G1X67184Y62495D2*
G3X67219Y62535I-14J47D1*
G1X65226Y58268D2*
G3X65226Y58268I-345J0D1*
G1X53415Y54449D2*
G3X53415Y54449I-345J0D1*
G1X51919Y46929D2*
G3X51850Y47411I207J276D1*
G1X51919Y46929D2*
G3X51850Y46919I-30J-39D1*
G1X51782Y47402D2*
G3X51850Y46919I-207J-276D1*
G1X51782Y47402D2*
G3X51850Y47411I30J39D1*
G1X52619Y56161D2*
G3X52489Y56615I176J296D1*
G1X52619Y56161D2*
G3X52550Y56141I-25J-42D1*
G1X52420Y56595D2*
G3X52550Y56141I-176J-296D1*
G1X52420Y56595D2*
G3X52489Y56615I25J42D1*
G1X53140Y58268D2*
G3X53140Y58268I-345J0D1*
G1X50541Y41339D2*
G3X50541Y41339I-344J0D1*
G1X49518Y40354D2*
G3X49518Y40354I-345J0D1*
G1X48573Y39370D2*
G3X48573Y39370I-345J0D1*
G1X48258Y40158D2*
G3X48258Y40158I-345J0D1*
G1X51485Y41227D2*
G3X51438Y41505I287J191D1*
G1X51485Y41227D2*
G3X51396Y41212I-41J-27D1*
G1X51350Y41490D2*
G3X51396Y41212I-287J-191D1*
G1X51350Y41490D2*
G3X51438Y41505I41J27D1*
G1X53494Y48228D2*
G3X53494Y48228I-345J0D1*
G1X53534Y50158D2*
G3X53534Y50158I-345J0D1*
G1X55030Y41417D2*
G3X55030Y41417I-345J0D1*
G1X54990Y42756D2*
G3X54990Y42756I-345J0D1*
G1X53675Y43649D2*
G3X54050Y43751I262J-224D1*
G1X53675Y43649D2*
G3X53638Y43730I-37J32D1*
G74*
G1X53244Y43730D1*
G1X53077Y43898D2*
G75*
G3X53244Y43730I167J0D1*
G74*
G1X53077Y43898D2*
G1X53077Y44007D1*
G75*
G3X52983Y44026I-49J0D1*
G1X52983Y44399D2*
G3X52983Y44026I-423J-186D1*
G1X52983Y44399D2*
G3X53077Y44419I45J20D1*
G74*
G1X53077Y44528D1*
G1X53244Y44695D2*
G75*
G3X53077Y44528I0J-167D1*
G74*
G1X53244Y44695D2*
G1X53874Y44695D1*
G1X54041Y44528D2*
G75*
G3X53874Y44695I-167J0D1*
G74*
G1X54041Y44528D2*
G1X54041Y43898D1*
G1X54022Y43820D2*
G75*
G3X54041Y43898I-148J77D1*
G1X54022Y43820D2*
G3X54050Y43751I44J-23D1*
G1X58770Y40354D2*
G3X58770Y40354I-345J0D1*
G1X64321Y41339D2*
G3X64321Y41339I-345J0D1*
G1X65935Y36969D2*
G3X65935Y36969I-344J0D1*
G1X65935Y38150D2*
G3X65935Y38150I-344J0D1*
G1X65935Y39370D2*
G3X65935Y39370I-344J0D1*
G1X65974Y40669D2*
G3X65974Y40669I-345J0D1*
G1X66093Y41457D2*
G3X66093Y41457I-345J0D1*
G74*
G1X66982Y53917D2*
G1X66982Y53169D1*
G1X66854Y53041D2*
G75*
G3X66982Y53169I0J128D1*
G74*
G1X66854Y53041D2*
G1X66106Y53041D1*
G1X65978Y53169D2*
G75*
G3X66106Y53041I128J0D1*
G74*
G1X65978Y53169D2*
G1X65978Y53917D1*
G1X66106Y54045D2*
G75*
G3X65978Y53917I0J-128D1*
G74*
G1X66106Y54045D2*
G1X66854Y54045D1*
G1X66982Y53917D2*
G75*
G3X66854Y54045I-128J0D1*
G1X62902Y53160D2*
G3X62885Y53847I12J344D1*
G1X62902Y53160D2*
G3X62858Y53135I-2J-49D1*
G1X62731Y53009D2*
G3X62858Y53135I-172J298D1*
G1X62731Y53009D2*
G3X62707Y52964I25J-43D1*
G1X62190Y53251D2*
G3X62706Y52964I172J-298D1*
G1X62190Y53251D2*
G3X62215Y53296I-25J43D1*
G1X62256Y53471D2*
G3X62215Y53296I303J-163D1*
G1X62256Y53471D2*
G3X62251Y53525I-43J23D1*
G1X62836Y53877D2*
G3X62251Y53525I-316J-137D1*
G1X62836Y53877D2*
G3X62885Y53847I45J20D1*
G1X61722Y47559D2*
G3X61722Y47559I-344J0D1*
G74*
G1X63861Y47077D2*
G1X66064Y47077D1*
G1X64191Y46102D2*
G1X66019Y46102D1*
G1X63969Y46988D2*
G1X65985Y46988D1*
G1X64248Y46191D2*
G1X65979Y46191D1*
G1X64021Y46900D2*
G1X65978Y46900D1*
G1X64043Y46811D2*
G1X65978Y46811D1*
G1X64042Y46722D2*
G1X65978Y46722D1*
G1X64115Y46634D2*
G1X65978Y46634D1*
G1X64213Y46545D2*
G1X65978Y46545D1*
G1X64261Y46457D2*
G1X65978Y46457D1*
G1X64280Y46368D2*
G1X65978Y46368D1*
G1X64276Y46279D2*
G1X65978Y46279D1*
G1X58713Y47165D2*
G1X65790Y47165D1*
G1X61538Y47254D2*
G1X65662Y47254D1*
G1X61646Y47342D2*
G1X65545Y47342D1*
G1X61698Y47431D2*
G1X65428Y47431D1*
G1X61720Y47520D2*
G1X65311Y47520D1*
G1X61719Y47608D2*
G1X65194Y47608D1*
G1X61694Y47697D2*
G1X65077Y47697D1*
G1X61638Y47785D2*
G1X64961Y47785D1*
G1X61518Y47874D2*
G1X64844Y47874D1*
G1X58711Y47963D2*
G1X64727Y47963D1*
G1X58711Y48051D2*
G1X64610Y48051D1*
G1X58711Y48140D2*
G1X64493Y48140D1*
G1X58711Y48228D2*
G1X64376Y48228D1*
G1X58711Y48317D2*
G1X64259Y48317D1*
G1X62267Y48405D2*
G1X64142Y48405D1*
G1X62328Y48494D2*
G1X64025Y48494D1*
G1X62333Y48583D2*
G1X63908Y48583D1*
G1X62333Y48671D2*
G1X63791Y48671D1*
G1X62333Y48760D2*
G1X63674Y48760D1*
G1X62333Y48848D2*
G1X63544Y48848D1*
G1X63199Y47077D2*
G1X63541Y47077D1*
G1X58745Y47077D2*
G1X63179Y47077D1*
G1X58849Y46988D2*
G1X62958Y46988D1*
G1X58953Y46900D2*
G1X62888Y46900D1*
G1X59057Y46811D2*
G1X62854Y46811D1*
G1X59161Y46722D2*
G1X62845Y46722D1*
G1X59265Y46634D2*
G1X62775Y46634D1*
G1X59888Y46102D2*
G1X62699Y46102D1*
G1X59369Y46545D2*
G1X62677Y46545D1*
G1X59784Y46191D2*
G1X62642Y46191D1*
G1X59472Y46457D2*
G1X62629Y46457D1*
G1X59680Y46279D2*
G1X62613Y46279D1*
G1X59576Y46368D2*
G1X62610Y46368D1*
G1X58713Y47874D2*
G1X61238Y47874D1*
G1X59510Y47254D2*
G1X61218Y47254D1*
G1X59511Y47785D2*
G1X61118Y47785D1*
G1X59587Y47342D2*
G1X61110Y47342D1*
G1X59587Y47697D2*
G1X61062Y47697D1*
G1X59624Y47431D2*
G1X61058Y47431D1*
G1X59624Y47608D2*
G1X61037Y47608D1*
G1X59636Y47520D2*
G1X61036Y47520D1*
G1X58711Y48405D2*
G1X60529Y48405D1*
G1X58711Y48494D2*
G1X60468Y48494D1*
G1X58712Y48848D2*
G1X60463Y48848D1*
G1X58711Y48760D2*
G1X60463Y48760D1*
G1X58711Y48671D2*
G1X60463Y48671D1*
G1X58711Y48583D2*
G1X60463Y48583D1*
G1X60360Y48937D2*
G1X60461Y48937D1*
G1X66896Y47077D2*
G1X68262Y47077D1*
G1X66941Y46102D2*
G1X68199Y46102D1*
G1X66976Y46988D2*
G1X68131Y46988D1*
G1X66982Y46191D2*
G1X68099Y46191D1*
G1X66982Y46900D2*
G1X68047Y46900D1*
G1X66982Y46279D2*
G1X68027Y46279D1*
G1X66982Y46811D2*
G1X67993Y46811D1*
G1X66982Y46368D2*
G1X67980Y46368D1*
G1X66982Y46722D2*
G1X67960Y46722D1*
G1X66982Y46457D2*
G1X67952Y46457D1*
G1X66982Y46634D2*
G1X67942Y46634D1*
G1X66982Y46545D2*
G1X67940Y46545D1*
G1X70221Y53012D2*
G1X73217Y53012D1*
G1X70215Y53100D2*
G1X73193Y53100D1*
G1X70226Y53189D2*
G1X70686Y53189D1*
G1X70215Y53277D2*
G1X70604Y53277D1*
G1X70177Y53366D2*
G1X70522Y53366D1*
G1X70101Y53455D2*
G1X70440Y53455D1*
G1X69022Y53543D2*
G1X70358Y53543D1*
G1X69014Y53632D2*
G1X70276Y53632D1*
G1X68992Y53720D2*
G1X70194Y53720D1*
G1X68952Y53809D2*
G1X70112Y53809D1*
G1X68890Y53898D2*
G1X70030Y53898D1*
G1X68792Y53986D2*
G1X69948Y53986D1*
G1X68584Y54075D2*
G1X69866Y54075D1*
G1X64083Y54163D2*
G1X69784Y54163D1*
G1X69014Y53455D2*
G1X69663Y53455D1*
G1X68992Y53366D2*
G1X69586Y53366D1*
G1X68791Y53100D2*
G1X69549Y53100D1*
G1X68952Y53277D2*
G1X69549Y53277D1*
G1X68777Y53012D2*
G1X69542Y53012D1*
G1X68890Y53189D2*
G1X69537Y53189D1*
G1X64110Y54075D2*
G1X68377Y54075D1*
G1X66962Y53986D2*
G1X68169Y53986D1*
G1X66982Y53898D2*
G1X68071Y53898D1*
G1X66982Y53809D2*
G1X68009Y53809D1*
G1X66982Y53720D2*
G1X67969Y53720D1*
G1X66982Y53632D2*
G1X67946Y53632D1*
G1X66982Y53543D2*
G1X67925Y53543D1*
G1X66982Y53455D2*
G1X67615Y53455D1*
G1X66982Y53366D2*
G1X67539Y53366D1*
G1X62736Y53012D2*
G1X67529Y53012D1*
G1X66962Y53100D2*
G1X67502Y53100D1*
G1X66982Y53277D2*
G1X67502Y53277D1*
G1X66982Y53189D2*
G1X67490Y53189D1*
G1X62835Y53100D2*
G1X65999Y53100D1*
G1X64124Y53986D2*
G1X65998Y53986D1*
G1X64115Y53898D2*
G1X65978Y53898D1*
G1X64081Y53809D2*
G1X65978Y53809D1*
G1X64010Y53720D2*
G1X65978Y53720D1*
G1X63233Y53632D2*
G1X65978Y53632D1*
G1X63256Y53543D2*
G1X65978Y53543D1*
G1X63254Y53455D2*
G1X65978Y53455D1*
G1X63229Y53366D2*
G1X65978Y53366D1*
G1X63173Y53277D2*
G1X65978Y53277D1*
G1X63053Y53189D2*
G1X65978Y53189D1*
G1X62705Y52923D2*
G1X65162Y52923D1*
G1X62686Y52835D2*
G1X65006Y52835D1*
G1X62638Y52746D2*
G1X64902Y52746D1*
G1X62539Y52657D2*
G1X64798Y52657D1*
G1X58711Y52569D2*
G1X64693Y52569D1*
G1X58711Y52480D2*
G1X64589Y52480D1*
G1X58711Y52392D2*
G1X64485Y52392D1*
G1X58711Y52303D2*
G1X64381Y52303D1*
G1X58711Y52214D2*
G1X64277Y52214D1*
G1X58711Y52126D2*
G1X64172Y52126D1*
G1X62298Y52037D2*
G1X64068Y52037D1*
G1X62332Y51949D2*
G1X63964Y51949D1*
G1X62333Y51860D2*
G1X63860Y51860D1*
G1X62333Y51772D2*
G1X63756Y51772D1*
G1X62333Y51683D2*
G1X63651Y51683D1*
G1X63181Y53720D2*
G1X63549Y53720D1*
G1X63074Y53809D2*
G1X63479Y53809D1*
G1X59227Y54163D2*
G1X63476Y54163D1*
G1X62602Y54075D2*
G1X63449Y54075D1*
G1X62826Y53898D2*
G1X63444Y53898D1*
G1X62761Y53986D2*
G1X63435Y53986D1*
G1X59272Y54075D2*
G1X62437Y54075D1*
G1X62347Y51594D2*
G1X62418Y51594D1*
G1X59309Y53986D2*
G1X62279Y53986D1*
G1X60534Y53455D2*
G1X62248Y53455D1*
G1X60503Y53543D2*
G1X62237Y53543D1*
G1X60541Y53366D2*
G1X62220Y53366D1*
G1X59549Y53898D2*
G1X62213Y53898D1*
G1X60524Y53277D2*
G1X62212Y53277D1*
G1X60438Y53632D2*
G1X62193Y53632D1*
G1X58711Y52657D2*
G1X62185Y52657D1*
G1X59669Y53809D2*
G1X62182Y53809D1*
G1X60279Y53720D2*
G1X62176Y53720D1*
G1X60480Y53189D2*
G1X62111Y53189D1*
G1X58711Y52746D2*
G1X62087Y52746D1*
G1X60390Y53100D2*
G1X62051Y53100D1*
G1X59942Y52835D2*
G1X62039Y52835D1*
G1X60119Y53012D2*
G1X62023Y53012D1*
G1X60063Y52923D2*
G1X62019Y52923D1*
G1X58711Y52037D2*
G1X60497Y52037D1*
G1X58711Y51949D2*
G1X60463Y51949D1*
G1X58711Y51860D2*
G1X60463Y51860D1*
G1X58711Y51772D2*
G1X60463Y51772D1*
G1X58711Y51683D2*
G1X60463Y51683D1*
G1X58731Y51594D2*
G1X60463Y51594D1*
G1X60389Y51506D2*
G1X60438Y51506D1*
G1X59725Y53720D2*
G1X60115Y53720D1*
G1X59750Y53632D2*
G1X59956Y53632D1*
G1X59752Y53543D2*
G1X59890Y53543D1*
G1X59549Y52835D2*
G1X59664Y52835D1*
G1X59116Y52835D2*
G1X59270Y52835D1*
G1X58713Y52835D2*
G1X58837Y52835D1*
G1X59516Y36890D2*
G1X60161Y36890D1*
G1X59684Y36978D2*
G1X60056Y36978D1*
G1X59770Y37067D2*
G1X59970Y37067D1*
G1X59824Y37155D2*
G1X59916Y37155D1*
G1X58244Y36801D2*
G1X59879Y36801D1*
G1X58339Y36713D2*
G1X59771Y36713D1*
G1X58391Y36624D2*
G1X59720Y36624D1*
G1X58410Y36358D2*
G1X59700Y36358D1*
G1X58412Y36447D2*
G1X59698Y36447D1*
G1X58413Y36535D2*
G1X59697Y36535D1*
G1X58516Y36890D2*
G1X59225Y36890D1*
G1X58684Y36978D2*
G1X59056Y36978D1*
G1X58770Y37067D2*
G1X58970Y37067D1*
G1X58824Y37155D2*
G1X58916Y37155D1*
G1X57516Y36890D2*
G1X58151Y36890D1*
G1X57684Y36978D2*
G1X58056Y36978D1*
G1X57770Y37067D2*
G1X57970Y37067D1*
G1X57824Y37155D2*
G1X57916Y37155D1*
G1X56280Y36801D2*
G1X57911Y36801D1*
G1X56370Y36713D2*
G1X57803Y36713D1*
G1X56422Y36624D2*
G1X57751Y36624D1*
G1X56442Y36358D2*
G1X57732Y36358D1*
G1X56443Y36447D2*
G1X57730Y36447D1*
G1X56445Y36535D2*
G1X57729Y36535D1*
G1X56516Y36890D2*
G1X57225Y36890D1*
G1X56684Y36978D2*
G1X57056Y36978D1*
G1X56770Y37067D2*
G1X56970Y37067D1*
G1X56824Y37155D2*
G1X56916Y37155D1*
G1X74813Y55226D2*
G1X75305Y55226D1*
G1X74813Y55138D2*
G1X75305Y55138D1*
G1X74813Y55049D2*
G1X75305Y55049D1*
G1X74813Y54961D2*
G1X75305Y54961D1*
G1X74813Y54872D2*
G1X75305Y54872D1*
G1X74813Y54783D2*
G1X75305Y54783D1*
G1X74813Y54695D2*
G1X75305Y54695D1*
G1X74813Y54606D2*
G1X75305Y54606D1*
G1X74813Y54518D2*
G1X75305Y54518D1*
G1X74813Y54429D2*
G1X75305Y54429D1*
G1X74813Y54340D2*
G1X75305Y54340D1*
G1X74813Y54252D2*
G1X75305Y54252D1*
G1X74813Y54163D2*
G1X75305Y54163D1*
G1X74813Y54075D2*
G1X75305Y54075D1*
G1X74813Y53986D2*
G1X75305Y53986D1*
G1X74813Y53898D2*
G1X75305Y53898D1*
G1X74813Y53809D2*
G1X75305Y53809D1*
G1X74813Y53720D2*
G1X75305Y53720D1*
G1X74813Y53632D2*
G1X75305Y53632D1*
G1X74804Y53543D2*
G1X75305Y53543D1*
G1X74738Y53455D2*
G1X75305Y53455D1*
G1X74649Y53366D2*
G1X75305Y53366D1*
G1X74561Y53277D2*
G1X75305Y53277D1*
G1X74472Y53189D2*
G1X75305Y53189D1*
G1X74248Y53100D2*
G1X75305Y53100D1*
G1X74224Y53012D2*
G1X75305Y53012D1*
G1X74463Y52923D2*
G1X75305Y52923D1*
G1X74551Y52835D2*
G1X75305Y52835D1*
G1X74640Y52746D2*
G1X75305Y52746D1*
G1X74728Y52657D2*
G1X75305Y52657D1*
G1X74801Y52569D2*
G1X75305Y52569D1*
G1X74813Y52480D2*
G1X75305Y52480D1*
G1X74813Y52392D2*
G1X75305Y52392D1*
G1X74813Y52303D2*
G1X75305Y52303D1*
G1X74813Y52214D2*
G1X75305Y52214D1*
G1X74813Y52126D2*
G1X75305Y52126D1*
G1X74813Y52037D2*
G1X75305Y52037D1*
G1X74813Y51949D2*
G1X75305Y51949D1*
G1X74813Y51860D2*
G1X75305Y51860D1*
G1X74804Y51772D2*
G1X75305Y51772D1*
G1X74738Y51683D2*
G1X75305Y51683D1*
G1X74649Y51594D2*
G1X75305Y51594D1*
G1X74552Y51506D2*
G1X75305Y51506D1*
G1X72605Y51417D2*
G1X75305Y51417D1*
G1X73958Y51329D2*
G1X75305Y51329D1*
G1X74108Y51240D2*
G1X75305Y51240D1*
G1X74198Y51151D2*
G1X75305Y51151D1*
G1X74259Y51063D2*
G1X75305Y51063D1*
G1X74301Y50974D2*
G1X75305Y50974D1*
G1X74327Y50886D2*
G1X75305Y50886D1*
G1X74339Y50797D2*
G1X75305Y50797D1*
G1X74339Y50709D2*
G1X75305Y50709D1*
G1X74326Y50620D2*
G1X75305Y50620D1*
G1X74299Y50531D2*
G1X75305Y50531D1*
G1X74256Y50443D2*
G1X75305Y50443D1*
G1X74193Y50354D2*
G1X75305Y50354D1*
G1X74100Y50266D2*
G1X75305Y50266D1*
G1X73943Y50177D2*
G1X75305Y50177D1*
G1X68421Y50089D2*
G1X75305Y50089D1*
G1X74510Y50000D2*
G1X75305Y50000D1*
G1X74630Y49911D2*
G1X75305Y49911D1*
G1X74686Y49823D2*
G1X75305Y49823D1*
G1X74711Y49734D2*
G1X75305Y49734D1*
G1X74712Y49646D2*
G1X75305Y49646D1*
G1X74690Y49557D2*
G1X75305Y49557D1*
G1X74638Y49468D2*
G1X75305Y49468D1*
G1X74530Y49380D2*
G1X75305Y49380D1*
G1X74379Y49291D2*
G1X75305Y49291D1*
G1X74378Y49203D2*
G1X75305Y49203D1*
G1X74508Y49114D2*
G1X75305Y49114D1*
G1X74606Y49026D2*
G1X75305Y49026D1*
G1X74654Y48937D2*
G1X75305Y48937D1*
G1X74674Y48848D2*
G1X75305Y48848D1*
G1X74670Y48760D2*
G1X75305Y48760D1*
G1X74642Y48671D2*
G1X75305Y48671D1*
G1X74581Y48583D2*
G1X75305Y48583D1*
G1X74445Y48494D2*
G1X75305Y48494D1*
G1X74375Y48405D2*
G1X75305Y48405D1*
G1X74463Y48317D2*
G1X75305Y48317D1*
G1X74551Y48228D2*
G1X75305Y48228D1*
G1X74633Y48140D2*
G1X75305Y48140D1*
G1X74656Y48051D2*
G1X75305Y48051D1*
G1X74656Y47963D2*
G1X75305Y47963D1*
G1X74656Y47874D2*
G1X75305Y47874D1*
G1X74656Y47785D2*
G1X75305Y47785D1*
G1X74656Y47697D2*
G1X75305Y47697D1*
G1X74650Y47608D2*
G1X75305Y47608D1*
G1X74590Y47520D2*
G1X75305Y47520D1*
G1X74502Y47431D2*
G1X75305Y47431D1*
G1X74413Y47342D2*
G1X75305Y47342D1*
G1X74325Y47254D2*
G1X75305Y47254D1*
G1X74215Y47165D2*
G1X75305Y47165D1*
G1X68699Y47077D2*
G1X75305Y47077D1*
G1X68830Y46988D2*
G1X75305Y46988D1*
G1X75016Y46900D2*
G1X75305Y46900D1*
G1X75152Y46811D2*
G1X75305Y46811D1*
G1X75167Y46722D2*
G1X75305Y46722D1*
G1X75167Y46634D2*
G1X75305Y46634D1*
G1X75167Y46545D2*
G1X75305Y46545D1*
G1X75167Y46457D2*
G1X75305Y46457D1*
G1X75167Y46368D2*
G1X75305Y46368D1*
G1X75167Y46279D2*
G1X75305Y46279D1*
G1X75167Y46191D2*
G1X75305Y46191D1*
G1X75167Y46102D2*
G1X75305Y46102D1*
G1X75167Y46014D2*
G1X75305Y46014D1*
G1X75167Y45925D2*
G1X75305Y45925D1*
G1X75167Y45837D2*
G1X75305Y45837D1*
G1X75167Y45748D2*
G1X75305Y45748D1*
G1X75167Y45659D2*
G1X75305Y45659D1*
G1X75167Y45571D2*
G1X75305Y45571D1*
G1X75167Y45482D2*
G1X75305Y45482D1*
G1X75167Y45394D2*
G1X75305Y45394D1*
G1X75167Y45305D2*
G1X75305Y45305D1*
G1X75167Y45216D2*
G1X75305Y45216D1*
G1X75167Y45128D2*
G1X75305Y45128D1*
G1X75167Y45039D2*
G1X75305Y45039D1*
G1X75167Y44951D2*
G1X75305Y44951D1*
G1X75167Y44862D2*
G1X75305Y44862D1*
G1X75167Y44774D2*
G1X75305Y44774D1*
G1X75167Y44685D2*
G1X75305Y44685D1*
G1X75167Y44596D2*
G1X75305Y44596D1*
G1X75167Y44508D2*
G1X75305Y44508D1*
G1X75167Y44419D2*
G1X75295Y44419D1*
G1X74813Y55315D2*
G1X75285Y55315D1*
G1X74813Y55403D2*
G1X75196Y55403D1*
G1X74813Y55492D2*
G1X75108Y55492D1*
G1X74789Y55581D2*
G1X75019Y55581D1*
G1X74692Y55669D2*
G1X74931Y55669D1*
G1X74579Y55758D2*
G1X74842Y55758D1*
G1X74466Y55846D2*
G1X74753Y55846D1*
G1X74354Y55935D2*
G1X74665Y55935D1*
G1X74241Y56024D2*
G1X74576Y56024D1*
G1X71410Y56112D2*
G1X74488Y56112D1*
G1X71308Y56201D2*
G1X74399Y56201D1*
G1X71205Y56289D2*
G1X74311Y56289D1*
G1X73278Y50000D2*
G1X74230Y50000D1*
G1X73794Y49911D2*
G1X74110Y49911D1*
G1X73360Y49911D2*
G1X73647Y49911D1*
G1X68450Y50177D2*
G1X73498Y50177D1*
G1X72534Y51329D2*
G1X73483Y51329D1*
G1X68454Y50266D2*
G1X73341Y50266D1*
G1X72463Y51240D2*
G1X73333Y51240D1*
G1X68434Y50354D2*
G1X73248Y50354D1*
G1X72392Y51151D2*
G1X73243Y51151D1*
G1X68391Y50443D2*
G1X73185Y50443D1*
G1X72321Y51063D2*
G1X73182Y51063D1*
G1X71889Y50531D2*
G1X73143Y50531D1*
G1X72250Y50974D2*
G1X73140Y50974D1*
G1X71967Y50620D2*
G1X73116Y50620D1*
G1X72180Y50886D2*
G1X73114Y50886D1*
G1X72038Y50709D2*
G1X73102Y50709D1*
G1X72109Y50797D2*
G1X73102Y50797D1*
G1X68394Y50000D2*
G1X72864Y50000D1*
G1X71878Y49911D2*
G1X72782Y49911D1*
G1X71934Y49823D2*
G1X72741Y49823D1*
G1X71989Y49734D2*
G1X72727Y49734D1*
G1X72044Y49646D2*
G1X72712Y49646D1*
G1X72098Y49557D2*
G1X72418Y49557D1*
G1X72153Y49468D2*
G1X72342Y49468D1*
G1X72208Y49380D2*
G1X72305Y49380D1*
G1X71103Y56378D2*
G1X71584Y56378D1*
G1X71291Y43445D2*
G1X71505Y43445D1*
G1X71000Y56466D2*
G1X71497Y56466D1*
G1X71188Y43356D2*
G1X71495Y43356D1*
G1X70898Y56555D2*
G1X71410Y56555D1*
G1X71084Y43268D2*
G1X71408Y43268D1*
G1X70796Y56644D2*
G1X71322Y56644D1*
G1X70980Y43179D2*
G1X71320Y43179D1*
G1X70693Y56732D2*
G1X71235Y56732D1*
G1X70876Y43090D2*
G1X71233Y43090D1*
G1X70591Y56821D2*
G1X71148Y56821D1*
G1X70773Y43002D2*
G1X71145Y43002D1*
G1X70489Y56909D2*
G1X71061Y56909D1*
G1X70669Y42913D2*
G1X71058Y42913D1*
G1X70386Y56998D2*
G1X70973Y56998D1*
G1X70565Y42825D2*
G1X70970Y42825D1*
G1X70284Y57087D2*
G1X70886Y57087D1*
G1X70461Y42736D2*
G1X70883Y42736D1*
G1X70182Y57175D2*
G1X70799Y57175D1*
G1X70358Y42648D2*
G1X70795Y42648D1*
G1X70079Y57264D2*
G1X70712Y57264D1*
G1X70254Y42559D2*
G1X70708Y42559D1*
G1X69977Y57352D2*
G1X70624Y57352D1*
G1X70150Y42470D2*
G1X70620Y42470D1*
G1X69875Y57441D2*
G1X70537Y57441D1*
G1X70046Y42382D2*
G1X70533Y42382D1*
G1X69720Y57529D2*
G1X70449Y57529D1*
G1X69942Y42293D2*
G1X70445Y42293D1*
G1X61727Y57618D2*
G1X70361Y57618D1*
G1X69839Y42205D2*
G1X70358Y42205D1*
G1X61688Y57707D2*
G1X70285Y57707D1*
G1X69701Y42116D2*
G1X70285Y42116D1*
G1X66949Y42027D2*
G1X70285Y42027D1*
G1X70150Y62579D2*
G1X70285Y62579D1*
G1X70067Y62490D2*
G1X70285Y62490D1*
G1X69913Y62401D2*
G1X70285Y62401D1*
G1X67860Y62313D2*
G1X70285Y62313D1*
G1X67790Y62224D2*
G1X70285Y62224D1*
G1X67635Y62136D2*
G1X70285Y62136D1*
G1X67607Y62047D2*
G1X70285Y62047D1*
G1X67559Y61959D2*
G1X70285Y61959D1*
G1X67461Y61870D2*
G1X70285Y61870D1*
G1X66791Y61781D2*
G1X70285Y61781D1*
G1X66860Y61693D2*
G1X70285Y61693D1*
G1X66904Y61604D2*
G1X70285Y61604D1*
G1X66930Y61516D2*
G1X70285Y61516D1*
G1X66939Y61427D2*
G1X70285Y61427D1*
G1X69026Y61339D2*
G1X70285Y61339D1*
G1X69108Y61250D2*
G1X70285Y61250D1*
G1X69149Y61161D2*
G1X70285Y61161D1*
G1X69163Y61073D2*
G1X70285Y61073D1*
G1X69154Y60984D2*
G1X70285Y60984D1*
G1X69120Y60896D2*
G1X70285Y60896D1*
G1X69049Y60807D2*
G1X70285Y60807D1*
G1X64597Y60718D2*
G1X70285Y60718D1*
G1X64597Y60630D2*
G1X70285Y60630D1*
G1X67214Y60541D2*
G1X70285Y60541D1*
G1X67436Y60453D2*
G1X70285Y60453D1*
G1X67506Y60364D2*
G1X70285Y60364D1*
G1X67540Y60276D2*
G1X70285Y60276D1*
G1X67549Y60187D2*
G1X70285Y60187D1*
G1X67535Y60098D2*
G1X70285Y60098D1*
G1X67494Y60010D2*
G1X70285Y60010D1*
G1X67411Y59921D2*
G1X70285Y59921D1*
G1X66186Y59833D2*
G1X70285Y59833D1*
G1X66026Y59744D2*
G1X70285Y59744D1*
G1X64852Y59655D2*
G1X70285Y59655D1*
G1X64852Y59567D2*
G1X70285Y59567D1*
G1X65830Y59478D2*
G1X70285Y59478D1*
G1X67146Y59390D2*
G1X70285Y59390D1*
G1X67244Y59301D2*
G1X70285Y59301D1*
G1X67292Y59213D2*
G1X70285Y59213D1*
G1X67312Y59124D2*
G1X70285Y59124D1*
G1X67308Y59035D2*
G1X70285Y59035D1*
G1X70115Y58947D2*
G1X70285Y58947D1*
G1X67154Y58238D2*
G1X70285Y58238D1*
G1X67135Y58150D2*
G1X70285Y58150D1*
G1X67087Y58061D2*
G1X70285Y58061D1*
G1X66988Y57972D2*
G1X70285Y57972D1*
G1X62061Y57884D2*
G1X70285Y57884D1*
G1X61978Y57795D2*
G1X70285Y57795D1*
G1X66987Y41939D2*
G1X70285Y41939D1*
G1X68014Y41850D2*
G1X70285Y41850D1*
G1X68134Y41762D2*
G1X70285Y41762D1*
G1X68190Y41673D2*
G1X70285Y41673D1*
G1X68215Y41585D2*
G1X70285Y41585D1*
G1X70128Y41496D2*
G1X70285Y41496D1*
G1X70152Y40964D2*
G1X70285Y40964D1*
G1X65906Y40876D2*
G1X70285Y40876D1*
G1X65954Y40787D2*
G1X70285Y40787D1*
G1X65973Y40699D2*
G1X70285Y40699D1*
G1X65969Y40610D2*
G1X70285Y40610D1*
G1X65941Y40522D2*
G1X70285Y40522D1*
G1X65881Y40433D2*
G1X70285Y40433D1*
G1X65744Y40344D2*
G1X70285Y40344D1*
G1X64852Y40256D2*
G1X70285Y40256D1*
G1X69799Y40167D2*
G1X70285Y40167D1*
G1X69889Y40079D2*
G1X70285Y40079D1*
G1X69933Y39990D2*
G1X70285Y39990D1*
G1X69950Y39901D2*
G1X70285Y39901D1*
G1X69944Y39813D2*
G1X70285Y39813D1*
G1X69913Y39724D2*
G1X70285Y39724D1*
G1X69847Y39636D2*
G1X70285Y39636D1*
G1X69688Y39547D2*
G1X70285Y39547D1*
G1X65924Y39459D2*
G1X70285Y39459D1*
G1X65935Y39370D2*
G1X70285Y39370D1*
G1X65923Y39281D2*
G1X70285Y39281D1*
G1X65886Y39193D2*
G1X70285Y39193D1*
G1X69445Y39104D2*
G1X70285Y39104D1*
G1X69535Y39016D2*
G1X70285Y39016D1*
G1X69579Y38927D2*
G1X70285Y38927D1*
G1X69596Y38839D2*
G1X70285Y38839D1*
G1X69590Y38750D2*
G1X70285Y38750D1*
G1X69558Y38661D2*
G1X70285Y38661D1*
G1X69493Y38573D2*
G1X70285Y38573D1*
G1X69333Y38484D2*
G1X70285Y38484D1*
G1X65832Y38396D2*
G1X70285Y38396D1*
G1X65897Y38307D2*
G1X70285Y38307D1*
G1X65928Y38218D2*
G1X70285Y38218D1*
G1X65935Y38130D2*
G1X70285Y38130D1*
G1X65918Y38041D2*
G1X70285Y38041D1*
G1X65873Y37953D2*
G1X70285Y37953D1*
G1X69255Y37864D2*
G1X70285Y37864D1*
G1X69363Y37776D2*
G1X70285Y37776D1*
G1X69414Y37687D2*
G1X70285Y37687D1*
G1X69437Y37598D2*
G1X70285Y37598D1*
G1X69435Y37510D2*
G1X70285Y37510D1*
G1X69410Y37421D2*
G1X70285Y37421D1*
G1X69354Y37333D2*
G1X70285Y37333D1*
G1X69234Y37244D2*
G1X70285Y37244D1*
G1X65880Y37155D2*
G1X70285Y37155D1*
G1X65921Y37067D2*
G1X70285Y37067D1*
G1X65935Y36978D2*
G1X70285Y36978D1*
G1X65926Y36890D2*
G1X70285Y36890D1*
G1X69852Y36801D2*
G1X70285Y36801D1*
G1X70073Y36713D2*
G1X70285Y36713D1*
G1X70144Y36624D2*
G1X70285Y36624D1*
G1X70178Y36535D2*
G1X70285Y36535D1*
G1X70187Y36447D2*
G1X70285Y36447D1*
G1X68914Y46900D2*
G1X70283Y46900D1*
G1X70177Y58327D2*
G1X70281Y58327D1*
G1X70191Y36358D2*
G1X70276Y36358D1*
G1X70210Y62667D2*
G1X70263Y62667D1*
G1X68968Y46811D2*
G1X70140Y46811D1*
G1X69001Y46722D2*
G1X70064Y46722D1*
G1X69018Y46634D2*
G1X69987Y46634D1*
G1X69021Y46545D2*
G1X69911Y46545D1*
G1X68107Y58947D2*
G1X69885Y58947D1*
G1X69009Y46457D2*
G1X69834Y46457D1*
G1X67687Y36801D2*
G1X69833Y36801D1*
G1X67995Y58327D2*
G1X69823Y58327D1*
G1X68981Y46368D2*
G1X69758Y46368D1*
G1X68196Y58858D2*
G1X69749Y58858D1*
G1X68154Y58415D2*
G1X69725Y58415D1*
G1X68216Y41496D2*
G1X69714Y41496D1*
G1X65808Y40964D2*
G1X69691Y40964D1*
G1X68241Y58770D2*
G1X69689Y58770D1*
G1X68934Y46279D2*
G1X69681Y46279D1*
G1X68220Y58504D2*
G1X69676Y58504D1*
G1X68257Y58681D2*
G1X69661Y58681D1*
G1X68251Y58592D2*
G1X69657Y58592D1*
G1X68194Y41407D2*
G1X69632Y41407D1*
G1X64169Y41053D2*
G1X69620Y41053D1*
G1X67908Y36713D2*
G1X69612Y36713D1*
G1X68862Y46191D2*
G1X69605Y46191D1*
G1X68142Y41319D2*
G1X69591Y41319D1*
G1X65887Y41142D2*
G1X69586Y41142D1*
G1X68034Y41230D2*
G1X69577Y41230D1*
G1X67894Y62401D2*
G1X69575Y62401D1*
G1X67004Y63376D2*
G1X69544Y63376D1*
G1X67978Y36624D2*
G1X69541Y36624D1*
G1X68762Y46102D2*
G1X69528Y46102D1*
G1X65886Y39547D2*
G1X69525Y39547D1*
G1X68013Y36535D2*
G1X69507Y36535D1*
G1X68022Y36447D2*
G1X69498Y36447D1*
G1X68026Y36358D2*
G1X69494Y36358D1*
G1X67107Y63287D2*
G1X69459Y63287D1*
G1X67903Y62490D2*
G1X69421Y62490D1*
G1X64852Y40167D2*
G1X69413Y40167D1*
G1X65810Y39636D2*
G1X69365Y39636D1*
G1X67205Y63199D2*
G1X69361Y63199D1*
G1X67889Y62579D2*
G1X69338Y62579D1*
G1X64852Y40079D2*
G1X69324Y40079D1*
G1X67253Y63110D2*
G1X69301Y63110D1*
G1X64597Y39724D2*
G1X69300Y39724D1*
G1X67849Y62667D2*
G1X69287Y62667D1*
G1X64839Y39990D2*
G1X69279Y39990D1*
G1X64597Y39813D2*
G1X69269Y39813D1*
G1X67272Y63022D2*
G1X69264Y63022D1*
G1X64751Y39901D2*
G1X69262Y39901D1*
G1X67766Y62756D2*
G1X69256Y62756D1*
G1X67269Y62933D2*
G1X69246Y62933D1*
G1X67240Y62844D2*
G1X69243Y62844D1*
G1X65673Y38484D2*
G1X69171Y38484D1*
G1X65810Y39104D2*
G1X69059Y39104D1*
G1X64829Y38573D2*
G1X69011Y38573D1*
G1X64597Y39016D2*
G1X68969Y39016D1*
G1X65797Y37244D2*
G1X68955Y37244D1*
G1X64779Y38661D2*
G1X68946Y38661D1*
G1X65783Y37864D2*
G1X68934Y37864D1*
G1X64597Y38927D2*
G1X68925Y38927D1*
G1X64698Y38750D2*
G1X68915Y38750D1*
G1X64597Y38839D2*
G1X68908Y38839D1*
G1X64871Y37333D2*
G1X68835Y37333D1*
G1X64666Y37776D2*
G1X68827Y37776D1*
G1X64869Y37421D2*
G1X68779Y37421D1*
G1X64760Y37687D2*
G1X68775Y37687D1*
G1X64852Y37510D2*
G1X68754Y37510D1*
G1X64817Y37598D2*
G1X68752Y37598D1*
G1X66933Y61339D2*
G1X68612Y61339D1*
G1X64597Y60807D2*
G1X68588Y60807D1*
G1X66911Y61250D2*
G1X68530Y61250D1*
G1X64597Y60896D2*
G1X68518Y60896D1*
G1X66872Y61161D2*
G1X68489Y61161D1*
G1X66708Y60984D2*
G1X68484Y60984D1*
G1X66809Y61073D2*
G1X68475Y61073D1*
G1X67150Y58327D2*
G1X67832Y58327D1*
G1X66998Y41850D2*
G1X67734Y41850D1*
G1X67280Y58947D2*
G1X67720Y58947D1*
G1X66008Y41230D2*
G1X67714Y41230D1*
G1X67122Y58415D2*
G1X67672Y58415D1*
G1X65892Y36801D2*
G1X67668Y36801D1*
G1X67219Y58858D2*
G1X67631Y58858D1*
G1X66986Y41762D2*
G1X67614Y41762D1*
G1X67062Y58504D2*
G1X67607Y58504D1*
G1X66064Y41319D2*
G1X67606Y41319D1*
G1X67083Y58770D2*
G1X67586Y58770D1*
G1X66926Y58592D2*
G1X67576Y58592D1*
G1X64123Y58681D2*
G1X67570Y58681D1*
G1X66949Y41673D2*
G1X67558Y41673D1*
G1X66089Y41407D2*
G1X67554Y41407D1*
G1X66873Y41585D2*
G1X67533Y41585D1*
G1X66090Y41496D2*
G1X67532Y41496D1*
G1X65821Y36713D2*
G1X67446Y36713D1*
G1X64296Y36624D2*
G1X67376Y36624D1*
G1X67180Y62756D2*
G1X67352Y62756D1*
G1X64319Y36535D2*
G1X67342Y36535D1*
G1X64317Y36447D2*
G1X67333Y36447D1*
G1X64316Y36358D2*
G1X67329Y36358D1*
G1X67044Y62667D2*
G1X67270Y62667D1*
G1X64827Y62579D2*
G1X67229Y62579D1*
G1X64597Y60541D2*
G1X67195Y60541D1*
G1X64858Y62490D2*
G1X67168Y62490D1*
G1X66677Y61870D2*
G1X67106Y61870D1*
G1X64871Y62401D2*
G1X67033Y62401D1*
G1X64658Y61959D2*
G1X67008Y61959D1*
G1X66251Y59921D2*
G1X66998Y59921D1*
G1X64597Y60453D2*
G1X66974Y60453D1*
G1X64869Y62313D2*
G1X66972Y62313D1*
G1X64754Y62047D2*
G1X66960Y62047D1*
G1X64850Y62224D2*
G1X66944Y62224D1*
G1X64814Y62136D2*
G1X66940Y62136D1*
G1X66282Y60010D2*
G1X66916Y60010D1*
G1X66138Y60364D2*
G1X66904Y60364D1*
G1X66289Y60098D2*
G1X66875Y60098D1*
G1X66228Y60276D2*
G1X66869Y60276D1*
G1X66272Y60187D2*
G1X66860Y60187D1*
G1X65199Y63376D2*
G1X66854Y63376D1*
G1X64117Y58770D2*
G1X66854Y58770D1*
G1X64775Y62667D2*
G1X66815Y62667D1*
G1X65937Y59390D2*
G1X66791Y59390D1*
G1X65270Y63287D2*
G1X66752Y63287D1*
G1X65809Y58858D2*
G1X66718Y58858D1*
G1X64997Y58592D2*
G1X66696Y58592D1*
G1X65989Y59301D2*
G1X66693Y59301D1*
G1X65246Y62756D2*
G1X66679Y62756D1*
G1X65929Y58947D2*
G1X66657Y58947D1*
G1X65341Y63199D2*
G1X66653Y63199D1*
G1X66012Y59213D2*
G1X66645Y59213D1*
G1X65059Y57972D2*
G1X66634Y57972D1*
G1X65985Y59035D2*
G1X66629Y59035D1*
G1X66010Y59124D2*
G1X66625Y59124D1*
G1X65329Y62844D2*
G1X66618Y62844D1*
G1X65375Y63110D2*
G1X66606Y63110D1*
G1X65370Y62933D2*
G1X66590Y62933D1*
G1X65384Y63022D2*
G1X66586Y63022D1*
G1X65133Y58504D2*
G1X66560Y58504D1*
G1X65157Y58061D2*
G1X66536Y58061D1*
G1X65193Y58415D2*
G1X66500Y58415D1*
G1X65206Y58150D2*
G1X66488Y58150D1*
G1X65221Y58327D2*
G1X66472Y58327D1*
G1X65225Y58238D2*
G1X66468Y58238D1*
G1X66068Y41585D2*
G1X66435Y41585D1*
G1X66016Y41673D2*
G1X66358Y41673D1*
G1X65020Y42027D2*
G1X66358Y42027D1*
G1X65908Y41762D2*
G1X66321Y41762D1*
G1X65057Y41939D2*
G1X66321Y41939D1*
G1X65069Y41850D2*
G1X66309Y41850D1*
G1X64553Y61870D2*
G1X66158Y61870D1*
G1X64691Y60984D2*
G1X66127Y60984D1*
G1X64658Y61781D2*
G1X66044Y61781D1*
G1X64775Y61073D2*
G1X66026Y61073D1*
G1X64755Y61693D2*
G1X65974Y61693D1*
G1X64827Y61161D2*
G1X65963Y61161D1*
G1X64814Y61604D2*
G1X65930Y61604D1*
G1X64857Y61250D2*
G1X65923Y61250D1*
G1X64851Y61516D2*
G1X65905Y61516D1*
G1X64871Y61339D2*
G1X65902Y61339D1*
G1X64869Y61427D2*
G1X65896Y61427D1*
G1X64842Y59744D2*
G1X65864Y59744D1*
G1X64597Y60364D2*
G1X65752Y60364D1*
G1X64764Y59833D2*
G1X65704Y59833D1*
G1X64597Y60276D2*
G1X65662Y60276D1*
G1X64597Y59921D2*
G1X65639Y59921D1*
G1X64597Y60187D2*
G1X65618Y60187D1*
G1X64259Y41142D2*
G1X65609Y41142D1*
G1X64597Y60010D2*
G1X65607Y60010D1*
G1X64597Y60098D2*
G1X65601Y60098D1*
G1X65057Y41762D2*
G1X65588Y41762D1*
G1X64103Y58858D2*
G1X65530Y58858D1*
G1X64852Y40344D2*
G1X65516Y40344D1*
G1X64852Y59478D2*
G1X65509Y59478D1*
G1X64859Y38484D2*
G1X65508Y38484D1*
G1X64303Y41230D2*
G1X65489Y41230D1*
G1X65020Y41673D2*
G1X65480Y41673D1*
G1X55979Y40964D2*
G1X65452Y40964D1*
G1X64320Y41319D2*
G1X65432Y41319D1*
G1X64944Y41585D2*
G1X65428Y41585D1*
G1X64813Y58947D2*
G1X65410Y58947D1*
G1X64314Y41407D2*
G1X65407Y41407D1*
G1X64283Y41496D2*
G1X65406Y41496D1*
G1X64852Y59390D2*
G1X65401Y59390D1*
G1X64553Y37864D2*
G1X65398Y37864D1*
G1X64856Y37244D2*
G1X65384Y37244D1*
G1X64852Y40433D2*
G1X65379Y40433D1*
G1X64597Y39104D2*
G1X65372Y39104D1*
G1X64597Y39636D2*
G1X65371Y39636D1*
G1X64244Y36713D2*
G1X65360Y36713D1*
G1X55808Y40876D2*
G1X65354Y40876D1*
G1X64851Y59035D2*
G1X65354Y59035D1*
G1X64852Y59301D2*
G1X65349Y59301D1*
G1X64871Y38396D2*
G1X65349Y38396D1*
G1X64852Y59124D2*
G1X65328Y59124D1*
G1X64852Y59213D2*
G1X65327Y59213D1*
G1X64852Y40522D2*
G1X65319Y40522D1*
G1X64649Y37953D2*
G1X65308Y37953D1*
G1X64818Y40787D2*
G1X65306Y40787D1*
G1X64824Y37155D2*
G1X65301Y37155D1*
G1X64597Y39193D2*
G1X65295Y39193D1*
G1X64597Y39547D2*
G1X65295Y39547D1*
G1X64852Y40610D2*
G1X65291Y40610D1*
G1X64137Y36801D2*
G1X65290Y36801D1*
G1X64852Y40699D2*
G1X65287Y40699D1*
G1X64868Y38307D2*
G1X65284Y38307D1*
G1X64749Y38041D2*
G1X65264Y38041D1*
G1X64770Y37067D2*
G1X65260Y37067D1*
G1X64597Y39281D2*
G1X65258Y39281D1*
G1X64597Y39459D2*
G1X65258Y39459D1*
G1X64516Y36890D2*
G1X65255Y36890D1*
G1X64849Y38218D2*
G1X65253Y38218D1*
G1X64811Y38130D2*
G1X65247Y38130D1*
G1X64684Y36978D2*
G1X65246Y36978D1*
G1X64597Y39370D2*
G1X65246Y39370D1*
G1X63033Y63376D2*
G1X64880Y63376D1*
G1X64691Y62756D2*
G1X64833Y62756D1*
G1X63105Y63287D2*
G1X64809Y63287D1*
G1X64107Y58592D2*
G1X64767Y58592D1*
G1X64535Y62844D2*
G1X64750Y62844D1*
G1X63175Y63199D2*
G1X64738Y63199D1*
G1X63204Y62933D2*
G1X64709Y62933D1*
G1X62102Y57972D2*
G1X64705Y57972D1*
G1X63209Y63110D2*
G1X64704Y63110D1*
G1X63218Y63022D2*
G1X64695Y63022D1*
G1X64062Y58504D2*
G1X64631Y58504D1*
G1X63224Y58061D2*
G1X64606Y58061D1*
G1X63972Y58415D2*
G1X64571Y58415D1*
G1X63314Y58150D2*
G1X64558Y58150D1*
G1X63375Y58327D2*
G1X64543Y58327D1*
G1X63359Y58238D2*
G1X64539Y58238D1*
G1X64218Y41585D2*
G1X64505Y41585D1*
G1X64059Y41673D2*
G1X64429Y41673D1*
G1X61832Y42027D2*
G1X64429Y42027D1*
G1X61997Y41762D2*
G1X64392Y41762D1*
G1X61929Y41939D2*
G1X64392Y41939D1*
G1X61977Y41850D2*
G1X64380Y41850D1*
G1X63516Y36890D2*
G1X64225Y36890D1*
G1X63535Y62844D2*
G1X64206Y62844D1*
G1X63684Y36978D2*
G1X64056Y36978D1*
G1X63691Y62756D2*
G1X64049Y62756D1*
G1X63770Y37067D2*
G1X63970Y37067D1*
G1X63775Y62667D2*
G1X63966Y62667D1*
G1X63818Y40787D2*
G1X63923Y40787D1*
G1X63824Y37155D2*
G1X63916Y37155D1*
G1X63827Y62579D2*
G1X63913Y62579D1*
G1X62130Y41673D2*
G1X63894Y41673D1*
G1X62168Y36801D2*
G1X63816Y36801D1*
G1X62240Y41053D2*
G1X63784Y41053D1*
G1X62289Y41585D2*
G1X63735Y41585D1*
G1X62276Y36713D2*
G1X63708Y36713D1*
G1X62330Y41142D2*
G1X63694Y41142D1*
G1X62354Y41496D2*
G1X63670Y41496D1*
G1X62328Y36624D2*
G1X63657Y36624D1*
G1X62374Y41230D2*
G1X63649Y41230D1*
G1X62385Y41407D2*
G1X63639Y41407D1*
G1X62347Y36358D2*
G1X63637Y36358D1*
G1X62349Y36447D2*
G1X63635Y36447D1*
G1X62350Y36535D2*
G1X63634Y36535D1*
G1X62391Y41319D2*
G1X63633Y41319D1*
G1X63369Y58415D2*
G1X63587Y58415D1*
G1X63338Y58504D2*
G1X63497Y58504D1*
G1X62741Y58858D2*
G1X63456Y58858D1*
G1X63273Y58592D2*
G1X63453Y58592D1*
G1X62792Y58770D2*
G1X63442Y58770D1*
G1X63114Y58681D2*
G1X63436Y58681D1*
G1X62516Y36890D2*
G1X63225Y36890D1*
G1X62684Y36978D2*
G1X63056Y36978D1*
G1X62770Y37067D2*
G1X62970Y37067D1*
G1X62822Y58681D2*
G1X62949Y58681D1*
G1X62813Y58947D2*
G1X62928Y58947D1*
G1X62818Y40787D2*
G1X62923Y40787D1*
G1X62824Y37155D2*
G1X62916Y37155D1*
G1X62116Y58061D2*
G1X62839Y58061D1*
G1X62107Y58150D2*
G1X62749Y58150D1*
G1X62083Y58238D2*
G1X62705Y58238D1*
G1X62265Y58327D2*
G1X62302Y58327D1*
G1X61797Y57529D2*
G1X62299Y57529D1*
G1X61516Y36890D2*
G1X62225Y36890D1*
G1X61832Y57441D2*
G1X62164Y57441D1*
G1X61840Y57352D2*
G1X62134Y57352D1*
G1X61826Y57264D2*
G1X62107Y57264D1*
G1X61785Y57175D2*
G1X62079Y57175D1*
G1X61684Y36978D2*
G1X62056Y36978D1*
G1X61703Y57087D2*
G1X62052Y57087D1*
G1X61096Y56998D2*
G1X62024Y56998D1*
G1X61130Y56909D2*
G1X61987Y56909D1*
G1X61770Y37067D2*
G1X61970Y37067D1*
G1X61818Y40787D2*
G1X61923Y40787D1*
G1X61824Y37155D2*
G1X61916Y37155D1*
G1X56049Y41053D2*
G1X61855Y41053D1*
G1X60205Y36801D2*
G1X61848Y36801D1*
G1X49200Y58858D2*
G1X61819Y58858D1*
G1X49315Y58770D2*
G1X61775Y58770D1*
G1X56083Y41142D2*
G1X61765Y41142D1*
G1X53046Y58504D2*
G1X61763Y58504D1*
G1X49371Y58681D2*
G1X61747Y58681D1*
G1X52910Y58592D2*
G1X61743Y58592D1*
G1X61388Y58415D2*
G1X61742Y58415D1*
G1X60307Y36713D2*
G1X61740Y36713D1*
G1X56092Y41230D2*
G1X61720Y41230D1*
G1X56078Y41319D2*
G1X61703Y41319D1*
G1X60359Y36624D2*
G1X61688Y36624D1*
G1X60379Y36358D2*
G1X61669Y36358D1*
G1X60380Y36447D2*
G1X61667Y36447D1*
G1X60382Y36535D2*
G1X61666Y36535D1*
G1X56037Y41407D2*
G1X61539Y41407D1*
G1X49629Y42027D2*
G1X61475Y42027D1*
G1X55955Y41496D2*
G1X61403Y41496D1*
G1X49541Y41939D2*
G1X61378Y41939D1*
G1X60955Y58415D2*
G1X61368Y58415D1*
G1X54986Y41585D2*
G1X61342Y41585D1*
G1X49454Y41850D2*
G1X61330Y41850D1*
G1X60223Y57707D2*
G1X61324Y57707D1*
G1X54916Y41673D2*
G1X61314Y41673D1*
G1X54695Y41762D2*
G1X61310Y41762D1*
G1X61072Y57087D2*
G1X61290Y57087D1*
G1X60198Y57618D2*
G1X61265Y57618D1*
G1X60516Y36890D2*
G1X61225Y36890D1*
G1X61049Y57175D2*
G1X61207Y57175D1*
G1X60163Y57529D2*
G1X61195Y57529D1*
G1X61025Y57264D2*
G1X61166Y57264D1*
G1X60958Y57441D2*
G1X61161Y57441D1*
G1X61001Y57352D2*
G1X61152Y57352D1*
G1X60684Y36978D2*
G1X61056Y36978D1*
G1X60770Y37067D2*
G1X60970Y37067D1*
G1X53107Y58415D2*
G1X60935Y58415D1*
G1X60813Y58947D2*
G1X60928Y58947D1*
G1X60818Y40787D2*
G1X60923Y40787D1*
G1X60824Y37155D2*
G1X60916Y37155D1*
G1X60224Y57795D2*
G1X60738Y57795D1*
G1X53135Y58327D2*
G1X60714Y58327D1*
G1X60202Y57884D2*
G1X60656Y57884D1*
G1X55706Y58238D2*
G1X60644Y58238D1*
G1X60150Y57972D2*
G1X60615Y57972D1*
G1X55841Y58150D2*
G1X60610Y58150D1*
G1X60042Y58061D2*
G1X60601Y58061D1*
G1X59813Y58947D2*
G1X59928Y58947D1*
G1X59818Y40787D2*
G1X59923Y40787D1*
G1X55902Y58061D2*
G1X59722Y58061D1*
G1X55930Y57972D2*
G1X59614Y57972D1*
G1X55665Y57529D2*
G1X59601Y57529D1*
G1X55768Y57618D2*
G1X59566Y57618D1*
G1X55934Y57884D2*
G1X59562Y57884D1*
G1X55866Y57707D2*
G1X59541Y57707D1*
G1X55914Y57795D2*
G1X59540Y57795D1*
G1X57597Y39813D2*
G1X59144Y39813D1*
G1X57597Y39724D2*
G1X59144Y39724D1*
G1X57597Y39636D2*
G1X59144Y39636D1*
G1X57597Y39547D2*
G1X59144Y39547D1*
G1X57597Y39459D2*
G1X59144Y39459D1*
G1X57597Y39370D2*
G1X59144Y39370D1*
G1X57962Y39281D2*
G1X59144Y39281D1*
G1X58184Y39193D2*
G1X59144Y39193D1*
G1X58254Y39104D2*
G1X59144Y39104D1*
G1X58288Y39016D2*
G1X59144Y39016D1*
G1X58297Y38927D2*
G1X59144Y38927D1*
G1X58551Y38839D2*
G1X59143Y38839D1*
G1X58698Y38750D2*
G1X59042Y38750D1*
G1X57751Y39901D2*
G1X58989Y39901D1*
G1X58779Y38661D2*
G1X58961Y38661D1*
G1X58813Y58947D2*
G1X58928Y58947D1*
G1X57818Y40787D2*
G1X58923Y40787D1*
G1X58831Y38573D2*
G1X58910Y38573D1*
G1X57839Y39990D2*
G1X58901Y39990D1*
G1X58435Y40699D2*
G1X58888Y40699D1*
G1X58656Y40610D2*
G1X58888Y40610D1*
G1X58726Y40522D2*
G1X58888Y40522D1*
G1X58761Y40433D2*
G1X58888Y40433D1*
G1X58770Y40344D2*
G1X58888Y40344D1*
G1X58755Y40256D2*
G1X58888Y40256D1*
G1X58714Y40167D2*
G1X58888Y40167D1*
G1X58632Y40079D2*
G1X58888Y40079D1*
G1X57852Y40699D2*
G1X58416Y40699D1*
G1X57852Y40079D2*
G1X58219Y40079D1*
G1X57852Y40610D2*
G1X58194Y40610D1*
G1X57852Y40167D2*
G1X58136Y40167D1*
G1X57852Y40522D2*
G1X58124Y40522D1*
G1X57852Y40256D2*
G1X58095Y40256D1*
G1X57852Y40433D2*
G1X58090Y40433D1*
G1X57852Y40344D2*
G1X58081Y40344D1*
G1X57597Y39281D2*
G1X57943Y39281D1*
G1X57813Y58947D2*
G1X57928Y58947D1*
G1X57597Y39193D2*
G1X57722Y39193D1*
G1X56597Y60807D2*
G1X57144Y60807D1*
G1X56597Y60718D2*
G1X57144Y60718D1*
G1X56594Y60630D2*
G1X57144Y60630D1*
G1X56562Y60541D2*
G1X57144Y60541D1*
G1X56481Y60453D2*
G1X57144Y60453D1*
G1X56393Y60364D2*
G1X57144Y60364D1*
G1X56304Y60276D2*
G1X57144Y60276D1*
G1X56216Y60187D2*
G1X57144Y60187D1*
G1X56127Y60098D2*
G1X57144Y60098D1*
G1X56039Y60010D2*
G1X57144Y60010D1*
G1X55998Y59921D2*
G1X57144Y59921D1*
G1X56597Y60896D2*
G1X57144Y60896D1*
G1X56691Y60984D2*
G1X57049Y60984D1*
G1X56166Y59833D2*
G1X56976Y59833D1*
G1X56775Y61073D2*
G1X56966Y61073D1*
G1X56214Y58947D2*
G1X56928Y58947D1*
G1X56818Y40787D2*
G1X56923Y40787D1*
G1X56827Y61161D2*
G1X56914Y61161D1*
G1X49716Y42116D2*
G1X56910Y42116D1*
G1X56243Y59744D2*
G1X56899Y59744D1*
G1X56253Y59035D2*
G1X56889Y59035D1*
G1X56254Y59655D2*
G1X56888Y59655D1*
G1X56254Y59567D2*
G1X56888Y59567D1*
G1X56254Y59478D2*
G1X56888Y59478D1*
G1X56254Y59390D2*
G1X56888Y59390D1*
G1X56254Y59301D2*
G1X56888Y59301D1*
G1X56254Y59213D2*
G1X56888Y59213D1*
G1X56254Y59124D2*
G1X56888Y59124D1*
G1X49803Y42205D2*
G1X56776Y42205D1*
G1X49890Y42293D2*
G1X56679Y42293D1*
G1X49978Y42382D2*
G1X56582Y42382D1*
G1X55783Y42470D2*
G1X56485Y42470D1*
G1X55873Y42559D2*
G1X56388Y42559D1*
G1X55918Y42648D2*
G1X56291Y42648D1*
G1X55935Y42736D2*
G1X56194Y42736D1*
G1X55928Y42825D2*
G1X56098Y42825D1*
G1X55928Y42913D2*
G1X56001Y42913D1*
G1X55818Y40787D2*
G1X55923Y40787D1*
G1X54178Y43179D2*
G1X55710Y43179D1*
G1X55674Y43090D2*
G1X55687Y43090D1*
G1X54243Y43268D2*
G1X55613Y43268D1*
G1X46410Y40876D2*
G1X55559Y40876D1*
G1X55020Y41496D2*
G1X55541Y41496D1*
G1X49824Y57529D2*
G1X55518Y57529D1*
G1X51144Y40964D2*
G1X55518Y40964D1*
G1X54275Y43356D2*
G1X55516Y43356D1*
G1X54728Y43090D2*
G1X55508Y43090D1*
G1X53139Y58238D2*
G1X55475Y58238D1*
G1X55029Y41407D2*
G1X55459Y41407D1*
G1X51304Y41053D2*
G1X55447Y41053D1*
G1X54281Y43445D2*
G1X55419Y43445D1*
G1X55015Y41319D2*
G1X55418Y41319D1*
G1X49735Y57618D2*
G1X55413Y57618D1*
G1X54892Y41142D2*
G1X55413Y41142D1*
G1X54974Y41230D2*
G1X55404Y41230D1*
G1X54838Y42470D2*
G1X55398Y42470D1*
G1X49912Y57441D2*
G1X55370Y57441D1*
G1X54887Y43002D2*
G1X55349Y43002D1*
G1X53119Y58150D2*
G1X55340Y58150D1*
G1X55214Y58947D2*
G1X55329Y58947D1*
G1X54264Y43533D2*
G1X55322Y43533D1*
G1X49647Y57707D2*
G1X55315Y57707D1*
G1X54928Y42559D2*
G1X55308Y42559D1*
G1X54952Y42913D2*
G1X55284Y42913D1*
G1X53071Y58061D2*
G1X55279Y58061D1*
G1X49558Y57795D2*
G1X55267Y57795D1*
G1X54973Y42648D2*
G1X55264Y42648D1*
G1X50001Y57352D2*
G1X55262Y57352D1*
G1X54983Y42825D2*
G1X55253Y42825D1*
G1X52973Y57972D2*
G1X55251Y57972D1*
G1X49469Y57884D2*
G1X55247Y57884D1*
G1X54990Y42736D2*
G1X55247Y42736D1*
G1X54220Y43622D2*
G1X55225Y43622D1*
G1X50089Y57264D2*
G1X55154Y57264D1*
G1X54130Y43711D2*
G1X55128Y43711D1*
G1X50178Y57175D2*
G1X55046Y57175D1*
G1X54017Y43799D2*
G1X55032Y43799D1*
G1X50267Y57087D2*
G1X54939Y57087D1*
G1X54041Y43888D2*
G1X54935Y43888D1*
G1X54818Y40787D2*
G1X54923Y40787D1*
G1X54041Y43976D2*
G1X54838Y43976D1*
G1X50355Y56998D2*
G1X54831Y56998D1*
G1X54041Y44065D2*
G1X54741Y44065D1*
G1X50404Y56909D2*
G1X54723Y56909D1*
G1X51781Y41762D2*
G1X54676Y41762D1*
G1X54041Y44153D2*
G1X54644Y44153D1*
G1X50404Y56821D2*
G1X54615Y56821D1*
G1X54018Y43090D2*
G1X54563Y43090D1*
G1X54041Y44242D2*
G1X54547Y44242D1*
G1X53002Y56732D2*
G1X54507Y56732D1*
G1X51978Y41142D2*
G1X54479Y41142D1*
G1X52002Y41673D2*
G1X54454Y41673D1*
G1X50065Y42470D2*
G1X54453Y42470D1*
G1X54041Y44331D2*
G1X54450Y44331D1*
G1X50404Y43002D2*
G1X54404Y43002D1*
G1X53085Y56644D2*
G1X54399Y56644D1*
G1X52061Y41230D2*
G1X54396Y41230D1*
G1X52073Y41585D2*
G1X54384Y41585D1*
G1X50152Y42559D2*
G1X54363Y42559D1*
G1X52102Y41319D2*
G1X54355Y41319D1*
G1X54041Y44419D2*
G1X54353Y44419D1*
G1X52107Y41496D2*
G1X54350Y41496D1*
G1X52116Y41407D2*
G1X54341Y41407D1*
G1X50404Y42913D2*
G1X54339Y42913D1*
G1X54214Y58947D2*
G1X54329Y58947D1*
G1X50239Y42648D2*
G1X54319Y42648D1*
G1X50404Y42825D2*
G1X54308Y42825D1*
G1X50326Y42736D2*
G1X54302Y42736D1*
G1X53125Y56555D2*
G1X54291Y56555D1*
G1X54041Y44508D2*
G1X54256Y44508D1*
G1X53495Y50000D2*
G1X54197Y50000D1*
G1X53140Y56466D2*
G1X54183Y56466D1*
G1X53382Y50443D2*
G1X54173Y50443D1*
G1X50404Y50531D2*
G1X54163Y50531D1*
G1X54027Y44596D2*
G1X54161Y44596D1*
G1X53430Y49911D2*
G1X54159Y49911D1*
G1X53527Y50089D2*
G1X54138Y50089D1*
G1X53472Y50354D2*
G1X54125Y50354D1*
G1X53931Y44685D2*
G1X54125Y44685D1*
G1X53270Y49823D2*
G1X54124Y49823D1*
G1X50404Y49734D2*
G1X54124Y49734D1*
G1X50404Y49646D2*
G1X54124Y49646D1*
G1X50404Y49557D2*
G1X54124Y49557D1*
G1X50404Y49468D2*
G1X54124Y49468D1*
G1X50404Y49380D2*
G1X54124Y49380D1*
G1X50404Y49291D2*
G1X54124Y49291D1*
G1X50404Y49203D2*
G1X54124Y49203D1*
G1X50404Y49114D2*
G1X54124Y49114D1*
G1X50404Y49026D2*
G1X54124Y49026D1*
G1X50404Y48937D2*
G1X54124Y48937D1*
G1X50404Y48848D2*
G1X54124Y48848D1*
G1X50404Y48760D2*
G1X54124Y48760D1*
G1X50404Y48671D2*
G1X54124Y48671D1*
G1X50404Y48583D2*
G1X54124Y48583D1*
G1X53369Y48494D2*
G1X54124Y48494D1*
G1X53445Y48405D2*
G1X54124Y48405D1*
G1X53483Y48317D2*
G1X54124Y48317D1*
G1X53494Y48228D2*
G1X54124Y48228D1*
G1X53483Y48140D2*
G1X54124Y48140D1*
G1X53445Y48051D2*
G1X54124Y48051D1*
G1X53369Y47963D2*
G1X54124Y47963D1*
G1X50836Y47874D2*
G1X54124Y47874D1*
G1X50404Y47785D2*
G1X54124Y47785D1*
G1X50404Y47697D2*
G1X54124Y47697D1*
G1X50404Y47608D2*
G1X54124Y47608D1*
G1X52266Y47520D2*
G1X54124Y47520D1*
G1X52386Y47431D2*
G1X54124Y47431D1*
G1X52442Y47342D2*
G1X54124Y47342D1*
G1X52467Y47254D2*
G1X54124Y47254D1*
G1X52468Y47165D2*
G1X54124Y47165D1*
G1X52446Y47077D2*
G1X54124Y47077D1*
G1X52394Y46988D2*
G1X54124Y46988D1*
G1X52286Y46900D2*
G1X54124Y46900D1*
G1X51714Y46811D2*
G1X54124Y46811D1*
G1X50404Y46722D2*
G1X54124Y46722D1*
G1X50404Y46634D2*
G1X54124Y46634D1*
G1X50404Y46545D2*
G1X54124Y46545D1*
G1X50404Y46457D2*
G1X54124Y46457D1*
G1X50404Y46368D2*
G1X54124Y46368D1*
G1X50404Y46279D2*
G1X54124Y46279D1*
G1X50404Y46191D2*
G1X54124Y46191D1*
G1X50404Y46102D2*
G1X54124Y46102D1*
G1X50404Y46014D2*
G1X54124Y46014D1*
G1X50404Y45925D2*
G1X54124Y45925D1*
G1X50404Y45837D2*
G1X54124Y45837D1*
G1X50404Y45748D2*
G1X54124Y45748D1*
G1X50404Y45659D2*
G1X54124Y45659D1*
G1X50404Y45571D2*
G1X54124Y45571D1*
G1X50404Y45482D2*
G1X54124Y45482D1*
G1X50404Y45394D2*
G1X54124Y45394D1*
G1X50404Y45305D2*
G1X54124Y45305D1*
G1X50404Y45216D2*
G1X54124Y45216D1*
G1X50404Y45128D2*
G1X54124Y45128D1*
G1X50404Y45039D2*
G1X54124Y45039D1*
G1X50404Y44951D2*
G1X54124Y44951D1*
G1X50404Y44862D2*
G1X54124Y44862D1*
G1X50404Y44774D2*
G1X54124Y44774D1*
G1X53533Y50177D2*
G1X54110Y50177D1*
G1X53516Y50266D2*
G1X54106Y50266D1*
G1X53131Y56378D2*
G1X54075Y56378D1*
G1X53096Y56289D2*
G1X53967Y56289D1*
G1X53818Y40787D2*
G1X53923Y40787D1*
G1X53026Y56201D2*
G1X53859Y56201D1*
G1X50404Y43090D2*
G1X53856Y43090D1*
G1X52533Y56112D2*
G1X53751Y56112D1*
G1X50404Y43179D2*
G1X53696Y43179D1*
G1X50404Y43711D2*
G1X53677Y43711D1*
G1X50404Y43622D2*
G1X53654Y43622D1*
G1X52451Y56024D2*
G1X53643Y56024D1*
G1X50404Y43268D2*
G1X53631Y43268D1*
G1X50404Y43533D2*
G1X53610Y43533D1*
G1X50404Y43356D2*
G1X53600Y43356D1*
G1X50404Y50620D2*
G1X53594Y50620D1*
G1X50404Y43445D2*
G1X53593Y43445D1*
G1X50823Y55935D2*
G1X53579Y55935D1*
G1X50404Y55846D2*
G1X53573Y55846D1*
G1X50404Y55758D2*
G1X53573Y55758D1*
G1X50404Y55669D2*
G1X53573Y55669D1*
G1X50404Y55581D2*
G1X53573Y55581D1*
G1X50404Y55492D2*
G1X53573Y55492D1*
G1X50404Y55403D2*
G1X53573Y55403D1*
G1X50404Y55315D2*
G1X53573Y55315D1*
G1X50404Y55226D2*
G1X53573Y55226D1*
G1X50404Y55138D2*
G1X53573Y55138D1*
G1X50404Y55049D2*
G1X53573Y55049D1*
G1X50404Y54961D2*
G1X53573Y54961D1*
G1X50404Y54872D2*
G1X53573Y54872D1*
G1X53153Y54783D2*
G1X53573Y54783D1*
G1X53312Y54695D2*
G1X53573Y54695D1*
G1X53377Y54606D2*
G1X53573Y54606D1*
G1X53408Y54518D2*
G1X53573Y54518D1*
G1X53415Y54429D2*
G1X53573Y54429D1*
G1X53398Y54340D2*
G1X53573Y54340D1*
G1X53354Y54252D2*
G1X53573Y54252D1*
G1X53264Y54163D2*
G1X53573Y54163D1*
G1X51516Y54075D2*
G1X53573Y54075D1*
G1X51594Y53986D2*
G1X53573Y53986D1*
G1X51643Y53898D2*
G1X53573Y53898D1*
G1X51671Y53809D2*
G1X53573Y53809D1*
G1X51683Y53720D2*
G1X53573Y53720D1*
G1X51678Y53632D2*
G1X53573Y53632D1*
G1X51658Y53543D2*
G1X53573Y53543D1*
G1X51619Y53455D2*
G1X53573Y53455D1*
G1X51555Y53366D2*
G1X53573Y53366D1*
G1X51451Y53277D2*
G1X53573Y53277D1*
G1X50404Y53189D2*
G1X53573Y53189D1*
G1X50404Y53100D2*
G1X53573Y53100D1*
G1X50404Y53012D2*
G1X53573Y53012D1*
G1X50404Y52923D2*
G1X53573Y52923D1*
G1X50404Y52835D2*
G1X53573Y52835D1*
G1X50404Y52746D2*
G1X53573Y52746D1*
G1X50404Y52657D2*
G1X53573Y52657D1*
G1X50404Y52569D2*
G1X53573Y52569D1*
G1X53329Y52480D2*
G1X53573Y52480D1*
G1X53449Y52392D2*
G1X53573Y52392D1*
G1X53457Y51949D2*
G1X53573Y51949D1*
G1X53349Y51860D2*
G1X53573Y51860D1*
G1X50404Y51772D2*
G1X53573Y51772D1*
G1X50404Y51683D2*
G1X53573Y51683D1*
G1X50404Y51594D2*
G1X53573Y51594D1*
G1X50404Y51506D2*
G1X53573Y51506D1*
G1X50404Y51417D2*
G1X53573Y51417D1*
G1X50404Y51329D2*
G1X53573Y51329D1*
G1X50404Y51240D2*
G1X53573Y51240D1*
G1X50404Y51151D2*
G1X53573Y51151D1*
G1X50404Y51063D2*
G1X53573Y51063D1*
G1X50404Y50974D2*
G1X53573Y50974D1*
G1X50404Y50886D2*
G1X53573Y50886D1*
G1X50404Y50797D2*
G1X53573Y50797D1*
G1X50404Y50709D2*
G1X53573Y50709D1*
G1X53214Y58947D2*
G1X53329Y58947D1*
G1X50404Y44685D2*
G1X53187Y44685D1*
G1X52766Y43799D2*
G1X53109Y43799D1*
G1X50711Y49823D2*
G1X53108Y49823D1*
G1X52817Y44596D2*
G1X53092Y44596D1*
G1X52888Y43888D2*
G1X53077Y43888D1*
G1X52915Y44508D2*
G1X53077Y44508D1*
G1X52973Y44419D2*
G1X53077Y44419D1*
G1X52957Y43976D2*
G1X53077Y43976D1*
G1X50404Y52480D2*
G1X53049Y52480D1*
G1X50849Y51860D2*
G1X53029Y51860D1*
G1X50823Y50443D2*
G1X52996Y50443D1*
G1X50404Y54783D2*
G1X52989Y54783D1*
G1X50871Y49911D2*
G1X52948Y49911D1*
G1X50919Y47963D2*
G1X52931Y47963D1*
G1X50640Y48494D2*
G1X52930Y48494D1*
G1X50849Y52392D2*
G1X52929Y52392D1*
G1X52818Y40787D2*
G1X52923Y40787D1*
G1X50925Y51949D2*
G1X52921Y51949D1*
G1X50913Y50354D2*
G1X52906Y50354D1*
G1X50936Y50000D2*
G1X52883Y50000D1*
G1X51376Y54163D2*
G1X52878Y54163D1*
G1X50925Y52303D2*
G1X52873Y52303D1*
G1X50963Y52037D2*
G1X52869Y52037D1*
G1X50957Y50266D2*
G1X52862Y50266D1*
G1X50960Y48051D2*
G1X52854Y48051D1*
G1X50861Y48405D2*
G1X52854Y48405D1*
G1X50967Y50089D2*
G1X52852Y50089D1*
G1X50963Y52214D2*
G1X52848Y52214D1*
G1X50974Y52126D2*
G1X52847Y52126D1*
G1X50974Y50177D2*
G1X52845Y50177D1*
G1X50404Y54695D2*
G1X52830Y54695D1*
G1X50974Y48140D2*
G1X52817Y48140D1*
G1X50931Y48317D2*
G1X52817Y48317D1*
G1X50965Y48228D2*
G1X52805Y48228D1*
G1X50954Y54252D2*
G1X52788Y54252D1*
G1X50404Y54606D2*
G1X52764Y54606D1*
G1X50906Y54340D2*
G1X52744Y54340D1*
G1X50404Y54518D2*
G1X52733Y54518D1*
G1X50808Y54429D2*
G1X52727Y54429D1*
G1X49396Y58592D2*
G1X52680Y58592D1*
G1X49381Y57972D2*
G1X52618Y57972D1*
G1X50404Y56732D2*
G1X52588Y56732D1*
G1X49397Y58504D2*
G1X52544Y58504D1*
G1X49292Y58061D2*
G1X52520Y58061D1*
G1X52254Y56644D2*
G1X52506Y56644D1*
G1X49375Y58415D2*
G1X52484Y58415D1*
G1X49204Y58150D2*
G1X52472Y58150D1*
G1X49323Y58327D2*
G1X52456Y58327D1*
G1X49215Y58238D2*
G1X52452Y58238D1*
G1X50404Y43799D2*
G1X52352Y43799D1*
G1X52214Y58947D2*
G1X52329Y58947D1*
G1X50751Y44596D2*
G1X52301Y44596D1*
G1X50404Y56644D2*
G1X52235Y56644D1*
G1X50404Y43888D2*
G1X52230Y43888D1*
G1X50859Y44508D2*
G1X52203Y44508D1*
G1X50730Y43976D2*
G1X52161Y43976D1*
G1X50910Y44419D2*
G1X52145Y44419D1*
G1X50850Y44065D2*
G1X52121Y44065D1*
G1X50933Y44331D2*
G1X52112Y44331D1*
G1X50906Y44153D2*
G1X52100Y44153D1*
G1X50932Y44242D2*
G1X52097Y44242D1*
G1X50913Y56024D2*
G1X52038Y56024D1*
G1X50712Y56555D2*
G1X52013Y56555D1*
G1X50404Y47520D2*
G1X51986Y47520D1*
G1X51834Y46900D2*
G1X51966Y46900D1*
G1X50957Y56112D2*
G1X51955Y56112D1*
G1X50871Y56466D2*
G1X51943Y56466D1*
G1X51818Y40787D2*
G1X51923Y40787D1*
G1X50974Y56201D2*
G1X51914Y56201D1*
G1X50936Y56378D2*
G1X51909Y56378D1*
G1X50968Y56289D2*
G1X51900Y56289D1*
G1X51735Y47431D2*
G1X51866Y47431D1*
G1X49367Y41762D2*
G1X51762Y41762D1*
G1X51369Y41142D2*
G1X51565Y41142D1*
G1X50279Y41673D2*
G1X51541Y41673D1*
G1X51406Y41230D2*
G1X51482Y41230D1*
G1X51256Y41585D2*
G1X51471Y41585D1*
G1X50404Y46811D2*
G1X51436Y46811D1*
G1X51346Y41496D2*
G1X51435Y41496D1*
G1X50404Y47431D2*
G1X51415Y47431D1*
G1X51214Y58947D2*
G1X51329Y58947D1*
G1X50404Y46900D2*
G1X51315Y46900D1*
G1X50404Y47342D2*
G1X51307Y47342D1*
G1X50404Y46988D2*
G1X51259Y46988D1*
G1X50404Y47254D2*
G1X51255Y47254D1*
G1X50404Y47077D2*
G1X51234Y47077D1*
G1X50404Y47165D2*
G1X51233Y47165D1*
G1X46497Y40964D2*
G1X50982Y40964D1*
G1X50818Y40787D2*
G1X50923Y40787D1*
G1X50404Y53277D2*
G1X50911Y53277D1*
G1X50438Y41585D2*
G1X50870Y41585D1*
G1X50390Y41053D2*
G1X50822Y41053D1*
G1X50404Y53366D2*
G1X50807Y53366D1*
G1X50503Y41496D2*
G1X50780Y41496D1*
G1X50480Y41142D2*
G1X50757Y41142D1*
G1X50404Y53455D2*
G1X50744Y53455D1*
G1X50534Y41407D2*
G1X50736Y41407D1*
G1X50524Y41230D2*
G1X50726Y41230D1*
G1X50541Y41319D2*
G1X50719Y41319D1*
G1X50404Y53543D2*
G1X50705Y53543D1*
G1X50404Y53632D2*
G1X50684Y53632D1*
G1X50404Y53720D2*
G1X50680Y53720D1*
G1X50404Y48494D2*
G1X50620Y48494D1*
G1X50407Y49823D2*
G1X50549Y49823D1*
G1X50407Y56555D2*
G1X50548Y56555D1*
G1X50411Y53809D2*
G1X50516Y53809D1*
G1X50214Y58947D2*
G1X50329Y58947D1*
G1X46956Y39813D2*
G1X50144Y39813D1*
G1X46957Y39724D2*
G1X50144Y39724D1*
G1X48448Y39636D2*
G1X50144Y39636D1*
G1X48524Y39547D2*
G1X50144Y39547D1*
G1X48561Y39459D2*
G1X50144Y39459D1*
G1X48573Y39370D2*
G1X50144Y39370D1*
G1X49931Y39281D2*
G1X50143Y39281D1*
G1X49280Y41673D2*
G1X50115Y41673D1*
G1X48421Y41053D2*
G1X50004Y41053D1*
G1X48144Y39901D2*
G1X49989Y39901D1*
G1X49193Y41585D2*
G1X49956Y41585D1*
G1X46323Y40787D2*
G1X49923Y40787D1*
G1X48511Y41142D2*
G1X49914Y41142D1*
G1X48561Y39281D2*
G1X49912Y39281D1*
G1X48214Y39990D2*
G1X49901Y39990D1*
G1X48574Y41496D2*
G1X49890Y41496D1*
G1X49183Y40699D2*
G1X49888Y40699D1*
G1X49404Y40610D2*
G1X49888Y40610D1*
G1X49474Y40522D2*
G1X49888Y40522D1*
G1X49509Y40433D2*
G1X49888Y40433D1*
G1X49518Y40344D2*
G1X49888Y40344D1*
G1X49503Y40256D2*
G1X49888Y40256D1*
G1X49463Y40167D2*
G1X49888Y40167D1*
G1X49380Y40079D2*
G1X49888Y40079D1*
G1X48555Y41230D2*
G1X49870Y41230D1*
G1X48566Y41407D2*
G1X49859Y41407D1*
G1X48572Y41319D2*
G1X49853Y41319D1*
G1X48524Y39193D2*
G1X49691Y39193D1*
G1X48447Y39104D2*
G1X49620Y39104D1*
G1X45955Y39016D2*
G1X49586Y39016D1*
G1X45955Y38927D2*
G1X49577Y38927D1*
G1X49214Y58947D2*
G1X49329Y58947D1*
G1X48551Y38839D2*
G1X49190Y38839D1*
G1X46316Y40699D2*
G1X49164Y40699D1*
G1X48698Y38750D2*
G1X49042Y38750D1*
G1X48249Y40079D2*
G1X48967Y40079D1*
G1X48779Y38661D2*
G1X48961Y38661D1*
G1X46491Y40610D2*
G1X48943Y40610D1*
G1X48831Y38573D2*
G1X48910Y38573D1*
G1X48258Y40167D2*
G1X48884Y40167D1*
G1X46561Y40522D2*
G1X48872Y40522D1*
G1X48244Y40256D2*
G1X48843Y40256D1*
G1X48120Y40433D2*
G1X48838Y40433D1*
G1X48203Y40344D2*
G1X48829Y40344D1*
G1X47551Y38839D2*
G1X48190Y38839D1*
G1X47698Y38750D2*
G1X48042Y38750D1*
G1X46584Y41053D2*
G1X48036Y41053D1*
G1X45955Y39104D2*
G1X48009Y39104D1*
G1X46942Y39636D2*
G1X48009Y39636D1*
G1X47779Y38661D2*
G1X47961Y38661D1*
G1X46671Y41142D2*
G1X47946Y41142D1*
G1X45955Y39193D2*
G1X47933Y39193D1*
G1X46910Y39547D2*
G1X47933Y39547D1*
G1X47831Y38573D2*
G1X47910Y38573D1*
G1X46758Y41230D2*
G1X47901Y41230D1*
G1X46595Y39281D2*
G1X47896Y39281D1*
G1X46855Y39459D2*
G1X47895Y39459D1*
G1X46932Y41407D2*
G1X47891Y41407D1*
G1X46845Y41319D2*
G1X47884Y41319D1*
G1X46768Y39370D2*
G1X47884Y39370D1*
G1X47020Y41496D2*
G1X47883Y41496D1*
G1X46595Y40433D2*
G1X47707Y40433D1*
G1X46939Y39901D2*
G1X47683Y39901D1*
G1X46604Y40344D2*
G1X47624Y40344D1*
G1X46905Y39990D2*
G1X47612Y39990D1*
G1X46605Y40256D2*
G1X47583Y40256D1*
G1X46848Y40079D2*
G1X47578Y40079D1*
G1X46755Y40167D2*
G1X47569Y40167D1*
G1X46551Y38839D2*
G1X47190Y38839D1*
G1X46698Y38750D2*
G1X47042Y38750D1*
G1X46779Y38661D2*
G1X46961Y38661D1*
G1X46831Y38573D2*
G1X46910Y38573D1*
G1X45955Y39281D2*
G1X46318Y39281D1*
G1X45955Y38839D2*
G1X46190Y38839D1*
G1X45955Y39370D2*
G1X46146Y39370D1*
G1X45956Y39459D2*
G1X46058Y39459D1*
G1X45967Y38750D2*
G1X46042Y38750D1*
G54D227*
G1X52559Y44213D3*
G54D235*
G1X50370Y40370D3*
G1X51370Y40370D3*
G1X52370Y40370D3*
G1X53370Y40370D3*
G1X54370Y40370D3*
G1X55370Y40370D3*
G1X56370Y40370D3*
G1X57370Y40370D3*
G1X53559Y44213D3*
G1X59370Y40370D3*
G1X60370Y40370D3*
G1X61370Y40370D3*
G1X62370Y40370D3*
G1X63370Y40370D3*
G1X64370Y40370D3*
G1X64370Y59370D3*
G1X63370Y59370D3*
G1X62370Y59370D3*
G1X61370Y59370D3*
G1X60370Y59370D3*
G1X59370Y59370D3*
G1X58370Y59370D3*
G1X57370Y59370D3*
G1X55772Y59370D3*
G1X54772Y59370D3*
G1X53772Y59370D3*
G1X52772Y59370D3*
G1X51772Y59370D3*
G1X50772Y59370D3*
G1X49772Y59370D3*
G1X48772Y59370D3*
G1X47772Y59370D3*
G1X46772Y59370D3*
G54D237*
G1X46370Y61370D3*
G1X46370Y37370D3*
G54D339*
G1X66417Y61417D3*
G54D343*
G1X73721Y53756D3*
G54D344*
G1X73721Y52256D3*
G1X73721Y50756D3*
G1X73721Y49256D3*
G1X73721Y47756D3*
G1X73721Y46256D3*
G54D349*
G1X68480Y53543D3*
G1X68480Y46575D3*
G54D360*
G1X46370Y62370D3*
G1X47370Y61370D3*
G1X47370Y62370D3*
G1X48370Y61370D3*
G1X48370Y62370D3*
G1X49370Y61370D3*
G1X49370Y62370D3*
G1X50370Y61370D3*
G1X50370Y62370D3*
G1X51370Y61370D3*
G1X51370Y62370D3*
G1X52370Y61370D3*
G1X52370Y62370D3*
G1X53370Y61370D3*
G1X53370Y62370D3*
G1X54370Y61370D3*
G1X54370Y62370D3*
G1X55370Y61370D3*
G1X55370Y62370D3*
G1X56370Y61370D3*
G1X56370Y62370D3*
G1X57370Y61370D3*
G1X57370Y62370D3*
G1X58370Y61370D3*
G1X58370Y62370D3*
G1X59370Y61370D3*
G1X59370Y62370D3*
G1X60370Y61370D3*
G1X60370Y62370D3*
G1X61370Y61370D3*
G1X61370Y62370D3*
G1X62370Y61370D3*
G1X62370Y62370D3*
G1X63370Y61370D3*
G1X63370Y62370D3*
G1X64370Y61370D3*
G1X64370Y62370D3*
G1X46370Y38370D3*
G1X47370Y37370D3*
G1X47370Y38370D3*
G1X48370Y37370D3*
G1X48370Y38370D3*
G1X49370Y37370D3*
G1X49370Y38370D3*
G1X50370Y37370D3*
G1X50370Y38370D3*
G1X51370Y37370D3*
G1X51370Y38370D3*
G1X52370Y37370D3*
G1X52370Y38370D3*
G1X53370Y37370D3*
G1X53370Y38370D3*
G1X54370Y37370D3*
G1X54370Y38370D3*
G1X55370Y37370D3*
G1X55370Y38370D3*
G1X56370Y37370D3*
G1X56370Y38370D3*
G1X57370Y37370D3*
G1X57370Y38370D3*
G1X58370Y37370D3*
G1X58370Y38370D3*
G1X59370Y37370D3*
G1X59370Y38370D3*
G1X60370Y37370D3*
G1X60370Y38370D3*
G1X61370Y37370D3*
G1X61370Y38370D3*
G1X62370Y37370D3*
G1X62370Y38370D3*
G1X63370Y37370D3*
G1X63370Y38370D3*
G1X64370Y37370D3*
G1X64370Y38370D3*
G54D370*
G1X66480Y53543D3*
G1X66480Y46575D3*
M2*
