*
%LPD*%
%LNpaste_top*%
%FSLAX24Y24*%
%MOIN*%
%AD*%
%ADD82C,0.01*%
%ADD134R,0.05118X0.05118*%
%ADD142C,0.03937*%
%ADD337R,0.0315X0.0315*%
%ADD340R,0.05X0.05*%
%ADD341R,0.06102X0.05*%
%ADD348R,0.04961X0.02402*%
%ADD367R,0.07008X0.12008*%
%ADD368R,0.02559X0.03937*%
%ADD369R,0.07087X0.22047*%
%ADD383R,0.00787X0.02756*%
%ADD384R,0.02756X0.00787*%
%ADD385R,0.10827X0.08071*%
%ADD386R,0.11535X0.0874*%
%ADD387R,0.1811X0.2126*%
%ADD388R,0.02362X0.04331*%
G54D82*
%SRX1Y1I0.0J0.0*%
G1X79502Y54525D2*
G1X79457Y54581D1*
G1X79388Y54609D1*
G1X79298Y54609D1*
G1X79229Y54581D1*
G1X79184Y54525D1*
G1X79184Y54469D1*
G1X79207Y54412D1*
G1X79229Y54384D1*
G1X79275Y54356D1*
G1X79411Y54300D1*
G1X79457Y54272D1*
G1X79479Y54244D1*
G1X79502Y54187D1*
G1X79502Y54103D1*
G1X79457Y54047D1*
G1X79388Y54019D1*
G1X79298Y54019D1*
G1X79229Y54047D1*
G1X79184Y54103D1*
G1X79843Y54609D2*
G1X79798Y54581D1*
G1X79752Y54525D1*
G1X79729Y54469D1*
G1X79707Y54384D1*
G1X79707Y54244D1*
G1X79729Y54159D1*
G1X79752Y54103D1*
G1X79798Y54047D1*
G1X79843Y54019D1*
G1X79934Y54019D1*
G1X79979Y54047D1*
G1X80025Y54103D1*
G1X80048Y54159D1*
G1X80070Y54244D1*
G1X80070Y54384D1*
G1X80048Y54469D1*
G1X80025Y54525D1*
G1X79979Y54581D1*
G1X79934Y54609D1*
G1X79843Y54609D1*
G1X80275Y54609D2*
G1X80275Y54019D1*
G1X80548Y54019D1*
G1X80752Y54609D2*
G1X80752Y54019D1*
G1X80752Y54609D2*
G1X80911Y54609D1*
G1X80979Y54581D1*
G1X81025Y54525D1*
G1X81048Y54469D1*
G1X81070Y54384D1*
G1X81070Y54244D1*
G1X81048Y54159D1*
G1X81025Y54103D1*
G1X80979Y54047D1*
G1X80911Y54019D1*
G1X80752Y54019D1*
G1X81275Y54609D2*
G1X81275Y54019D1*
G1X81275Y54609D2*
G1X81570Y54609D1*
G1X81275Y54328D2*
G1X81457Y54328D1*
G1X81275Y54019D2*
G1X81570Y54019D1*
G1X81775Y54609D2*
G1X81775Y54019D1*
G1X81775Y54609D2*
G1X81979Y54609D1*
G1X82048Y54581D1*
G1X82070Y54553D1*
G1X82093Y54497D1*
G1X82093Y54440D1*
G1X82070Y54384D1*
G1X82048Y54356D1*
G1X81979Y54328D1*
G1X81775Y54328D1*
G1X81934Y54328D2*
G1X82093Y54019D1*
G1X82820Y54609D2*
G1X82820Y54019D1*
G1X82820Y54609D2*
G1X83025Y54609D1*
G1X83093Y54581D1*
G1X83116Y54553D1*
G1X83138Y54497D1*
G1X83138Y54412D1*
G1X83116Y54356D1*
G1X83093Y54328D1*
G1X83025Y54300D1*
G1X82820Y54300D1*
G1X83525Y54609D2*
G1X83343Y54019D1*
G1X83525Y54609D2*
G1X83707Y54019D1*
G1X83411Y54215D2*
G1X83638Y54215D1*
G1X84229Y54525D2*
G1X84184Y54581D1*
G1X84116Y54609D1*
G1X84025Y54609D1*
G1X83957Y54581D1*
G1X83911Y54525D1*
G1X83911Y54469D1*
G1X83934Y54412D1*
G1X83957Y54384D1*
G1X84002Y54356D1*
G1X84138Y54300D1*
G1X84184Y54272D1*
G1X84207Y54244D1*
G1X84229Y54187D1*
G1X84229Y54103D1*
G1X84184Y54047D1*
G1X84116Y54019D1*
G1X84025Y54019D1*
G1X83957Y54047D1*
G1X83911Y54103D1*
G1X84593Y54609D2*
G1X84593Y54019D1*
G1X84434Y54609D2*
G1X84752Y54609D1*
G1X84957Y54609D2*
G1X84957Y54019D1*
G1X84957Y54609D2*
G1X85252Y54609D1*
G1X84957Y54328D2*
G1X85138Y54328D1*
G1X84957Y54019D2*
G1X85252Y54019D1*
G1X86138Y54609D2*
G1X86138Y54019D1*
G1X85979Y54609D2*
G1X86298Y54609D1*
G1X86638Y54609D2*
G1X86593Y54581D1*
G1X86548Y54525D1*
G1X86525Y54469D1*
G1X86502Y54384D1*
G1X86502Y54244D1*
G1X86525Y54159D1*
G1X86548Y54103D1*
G1X86593Y54047D1*
G1X86638Y54019D1*
G1X86729Y54019D1*
G1X86775Y54047D1*
G1X86820Y54103D1*
G1X86843Y54159D1*
G1X86866Y54244D1*
G1X86866Y54384D1*
G1X86843Y54469D1*
G1X86820Y54525D1*
G1X86775Y54581D1*
G1X86729Y54609D1*
G1X86638Y54609D1*
G1X87070Y54609D2*
G1X87070Y54019D1*
G1X87070Y54609D2*
G1X87275Y54609D1*
G1X87343Y54581D1*
G1X87366Y54553D1*
G1X87388Y54497D1*
G1X87388Y54412D1*
G1X87366Y54356D1*
G1X87343Y54328D1*
G1X87275Y54300D1*
G1X87070Y54300D1*
G54D134*
G1X51378Y46516D3*
G1X51378Y45689D3*
G1X53740Y41909D3*
G1X53740Y42736D3*
G1X66122Y36969D3*
G1X66949Y36969D3*
G1X66122Y40669D3*
G1X66949Y40669D3*
G1X66122Y38189D3*
G1X66949Y38189D3*
G1X66122Y39409D3*
G1X66949Y39409D3*
G1X54213Y57776D3*
G1X54213Y56949D3*
G1X52559Y45689D3*
G1X52559Y46516D3*
G1X51378Y42736D3*
G1X51378Y41909D3*
G1X53740Y45689D3*
G1X53740Y46516D3*
G1X52559Y42736D3*
G1X52559Y41909D3*
G1X51260Y57776D3*
G1X51260Y56949D3*
G1X52244Y57776D3*
G1X52244Y56949D3*
G1X57815Y52008D3*
G1X56988Y52008D3*
G1X64843Y52382D3*
G1X64843Y51555D3*
G1X64803Y48169D3*
G1X64803Y48996D3*
G1X59843Y45217D3*
G1X59843Y46043D3*
G1X62362Y42500D3*
G1X62362Y43327D3*
G1X53189Y56949D3*
G1X53189Y57776D3*
G1X57815Y48504D3*
G1X56988Y48504D3*
G54D142*
G1X69744Y62874D3*
G1X46457Y39764D3*
G1X51181Y53701D3*
G54D337*
G1X56535Y46403D3*
G1X56535Y46983D3*
G1X57284Y45497D3*
G1X57284Y46077D3*
G1X54961Y41797D3*
G1X54961Y42377D3*
G1X61496Y55211D3*
G1X61496Y54631D3*
G1X59356Y54055D3*
G1X59936Y54055D3*
G1X61654Y46432D3*
G1X61654Y45852D3*
G1X60709Y46471D3*
G1X60709Y45891D3*
G1X69198Y60669D3*
G1X69778Y60669D3*
G1X69198Y61339D3*
G1X69778Y61339D3*
G1X60054Y41575D3*
G1X59474Y41575D3*
G1X69198Y59961D3*
G1X69778Y59961D3*
G1X56024Y44306D3*
G1X56024Y43726D3*
G1X58282Y42008D3*
G1X57702Y42008D3*
G1X55079Y57810D3*
G1X55079Y57230D3*
G1X57677Y44041D3*
G1X57677Y44621D3*
G1X69198Y62047D3*
G1X69778Y62047D3*
G1X55866Y46403D3*
G1X55866Y46983D3*
G1X56511Y45551D3*
G1X55931Y45551D3*
G1X57087Y41944D3*
G1X57087Y41364D3*
G1X57663Y41339D3*
G1X58243Y41339D3*
G54D340*
G1X68150Y60532D3*
G1X68150Y59705D3*
G1X68248Y36969D3*
G1X69075Y36969D3*
G1X68248Y40669D3*
G1X69075Y40669D3*
G1X68248Y38189D3*
G1X69075Y38189D3*
G1X68248Y39409D3*
G1X69075Y39409D3*
G1X60866Y42658D3*
G1X60866Y41831D3*
G1X68150Y62658D3*
G1X68150Y61831D3*
G54D341*
G1X58949Y42598D3*
G1X59949Y42598D3*
G54D348*
G1X58034Y46201D3*
G1X58034Y45453D3*
G1X58817Y45827D3*
G54D367*
G1X67439Y50276D3*
G1X65239Y50276D3*
G1X55317Y50197D3*
G1X57517Y50197D3*
G54D368*
G1X56850Y43331D3*
G1X56850Y44701D3*
G1X58858Y43331D3*
G1X58858Y44701D3*
G54D369*
G1X65709Y53740D3*
G1X65709Y57677D3*
G1X65709Y46811D3*
G1X65709Y42874D3*
G54D383*
G1X63866Y52402D3*
G1X63709Y52402D3*
G1X63551Y52402D3*
G1X63394Y52402D3*
G1X63236Y52402D3*
G1X63091Y52402D3*
G1X62658Y52402D3*
G1X62421Y52402D3*
G1X62248Y52402D3*
G1X62091Y52402D3*
G1X61933Y52402D3*
G1X61776Y52402D3*
G1X61618Y52402D3*
G1X61461Y52402D3*
G1X61295Y52402D3*
G1X61138Y52402D3*
G1X60980Y52402D3*
G1X60823Y52402D3*
G1X60665Y52402D3*
G1X60508Y52402D3*
G1X60335Y52402D3*
G1X60098Y52402D3*
G1X59677Y52402D3*
G1X59520Y52402D3*
G1X59362Y52402D3*
G1X59205Y52402D3*
G1X59047Y52402D3*
G1X58866Y52402D3*
G1X58890Y48071D3*
G1X59047Y48071D3*
G1X59205Y48071D3*
G1X59362Y48071D3*
G1X59520Y48071D3*
G1X59677Y48071D3*
G1X60098Y48071D3*
G1X60335Y48071D3*
G1X60622Y48071D3*
G1X60780Y48071D3*
G1X61063Y48071D3*
G1X61221Y48071D3*
G1X61378Y48071D3*
G1X61535Y48071D3*
G1X61819Y48071D3*
G1X62106Y48071D3*
G1X62264Y48071D3*
G1X62421Y48071D3*
G1X62658Y48071D3*
G1X63079Y48071D3*
G1X63236Y48071D3*
G1X63394Y48071D3*
G1X63551Y48071D3*
G1X63709Y48071D3*
G1X63866Y48071D3*
G54D384*
G1X58622Y52177D3*
G1X58622Y51992D3*
G1X58622Y51835D3*
G1X58622Y51677D3*
G1X58622Y51224D3*
G1X58622Y50937D3*
G1X58622Y50780D3*
G1X58622Y50622D3*
G1X58622Y50358D3*
G1X58622Y50114D3*
G1X58622Y49850D3*
G1X58622Y49693D3*
G1X58622Y49535D3*
G1X58622Y49248D3*
G1X58622Y48795D3*
G1X58622Y48638D3*
G1X58622Y48480D3*
G1X58622Y48295D3*
G1X64134Y48295D3*
G1X64134Y48480D3*
G1X64134Y48638D3*
G1X64134Y48795D3*
G1X64134Y49248D3*
G1X64134Y49535D3*
G1X64134Y49693D3*
G1X64134Y49850D3*
G1X64134Y50114D3*
G1X64134Y50358D3*
G1X64134Y50622D3*
G1X64134Y50780D3*
G1X64134Y50937D3*
G1X64134Y51224D3*
G1X64134Y51677D3*
G1X64134Y51835D3*
G1X64134Y51992D3*
G1X64134Y52177D3*
G54D385*
G1X63445Y51850D3*
G1X59311Y51850D3*
G1X59311Y48602D3*
G1X63445Y48602D3*
G54D386*
G1X59701Y50772D3*
G1X59701Y49701D3*
G1X63055Y49701D3*
G1X63055Y50772D3*
G54D387*
G1X61378Y50234D3*
G54D388*
G1X58803Y50791D3*
G1X58803Y49677D3*
G1X63953Y50791D3*
G1X63953Y49677D3*
M2*
