M48
INCH,TZ
FMAT,2
ICI,OFF
T01C.01181F095S3
T02C.03543F197S55
T03C.03937F197S55
T04C.04724F139S55
T05C.05118F107S55
%
T01
G05
X46102Y36457
X48228Y36457
X50197Y36496
X47047Y36575
X49921Y38937
X48228Y39370
X47913Y40157
X46260Y40354
X49173Y40354
X51063Y41299
X50197Y41339
X48228Y41339
X50591Y44291
X50630Y48150
X50630Y50157
X50630Y52126
X50630Y54134
X50630Y56220
X49055Y58543
X47362Y58622
X46181Y60039
X49252Y62992
X47244Y62992
X53150Y62992
X51181Y62953
X52795Y58268
X52795Y56457
X52244Y56299
X53071Y54449
X53189Y52165
X53189Y50157
X53150Y48228
X52126Y47205
X51575Y47126
X51772Y41417
X51890Y38937
X52165Y36496
X54134Y36496
X53937Y38937
X55906Y38976
X55748Y41220
X54685Y41417
X55591Y42756
X54646Y42756
X53937Y43425
X54843Y43465
X54449Y50236
X55591Y57913
X55157Y62992
X60591Y63071
X57087Y62992
X59094Y62992
X60945Y58071
X59882Y57756
X58976Y53898
X59409Y53583
X60197Y53386
X58976Y53150
X59409Y53150
X59803Y53150
X58976Y52126
X59449Y52126
X59213Y51850
X59685Y51850
X61024Y51142
X61024Y50748
X59567Y50748
X60118Y50748
X59803Y50472
X59252Y50472
X61024Y50276
X56969Y50236
X56102Y50197
X59567Y50000
X60118Y50000
X61024Y49843
X59252Y49724
X59882Y49724
X61024Y49291
X59213Y48622
X59724Y48622
X59449Y48346
X58976Y48346
X59291Y47520
X58898Y47520
X58425Y40354
X57953Y38937
X59961Y38937
X60039Y36496
X56102Y36496
X58071Y36496
X62008Y36496
X62008Y39370
X62047Y41339
X61654Y41732
X62953Y46339
X63425Y46339
X63189Y46732
X61378Y47559
X63583Y48346
X63031Y48346
X63307Y48622
X61772Y49291
X61417Y49291
X62953Y49724
X63465Y49724
X61417Y49843
X61772Y49843
X62638Y50000
X63189Y50000
X61417Y50276
X61772Y50276
X62953Y50472
X63465Y50472
X61772Y50748
X61417Y50748
X62677Y50787
X63189Y50787
X61772Y51142
X61417Y51142
X63583Y51850
X63031Y51850
X63307Y52126
X62362Y52953
X62559Y53307
X62913Y53504
X62520Y53740
X61496Y57362
X61772Y58071
X61378Y58071
X63031Y58346
X62087Y58622
X62480Y58622
X62874Y63031
X65039Y63031
X65945Y60079
X65669Y59173
X63780Y58701
X64882Y58268
X63780Y53976
X63819Y52126
X65748Y50236
X63701Y46772
X63937Y46339
X64724Y41850
X65748Y41457
X63976Y41339
X65630Y40669
X65591Y39370
X64016Y39370
X65591Y38150
X65591Y36969
X63976Y36496
X67677Y36457
X67874Y41535
X66654Y41850
X68110Y50236
X66732Y50236
X67835Y53189
X66811Y58268
X67913Y58661
X66969Y59094
X67205Y60197
X67283Y62165
X67559Y62480
X66929Y62992
X68819Y61063
X70000Y58622
X69882Y53189
X69528Y50236
X70197Y50236
X70906Y50236
X69921Y41220
X69606Y39882
X69252Y38819
X69094Y37559
X69843Y36457
X74331Y48819
X73031Y48858
X72638Y49291
X74370Y49685
X73071Y49724
X71575Y50236
X72992Y50394
X74409Y50394
X72402Y50433
X72992Y51142
X74409Y51142
T02
X47370Y37370
X48370Y37370
X49370Y37370
X50370Y37370
X47370Y38370
X48370Y38370
X49370Y38370
X50370Y38370
X46772Y59370
X50772Y59370
X49772Y59370
X48772Y59370
X47772Y59370
X50370Y61370
X49370Y61370
X47370Y61370
X48370Y61370
X48370Y62370
X49370Y62370
X47370Y62370
X50370Y62370
X52370Y62370
X53370Y62370
X51370Y62370
X51370Y61370
X53370Y61370
X52370Y61370
X52772Y59370
X51772Y59370
X51370Y38370
X52370Y38370
X53370Y38370
X51370Y37370
X53370Y37370
X52370Y37370
X54370Y37370
X55370Y37370
X54370Y38370
X55370Y38370
X55772Y59370
X53772Y59370
X54772Y59370
X54370Y61370
X55370Y61370
X54370Y62370
X55370Y62370
X56370Y62370
X57370Y62370
X58370Y62370
X56370Y61370
X58370Y61370
X57370Y61370
X56370Y38370
X57370Y38370
X58370Y38370
X56370Y37370
X58370Y37370
X57370Y37370
X59370Y37370
X60370Y37370
X61370Y37370
X62370Y37370
X63370Y37370
X59370Y38370
X60370Y38370
X61370Y38370
X62370Y38370
X63370Y38370
X61370Y61370
X62370Y61370
X60370Y61370
X63370Y61370
X59370Y61370
X59370Y62370
X60370Y62370
X61370Y62370
X62370Y62370
X63370Y62370
X64370Y62370
X64370Y61370
X64370Y38370
X64370Y37370
T03
X46370Y37370
X46370Y38370
X50370Y40370
X51370Y40370
X52370Y40370
X53370Y40370
X52559Y44213
X53559Y44213
X46370Y61370
X46370Y62370
X58370Y59370
X57370Y59370
X54370Y40370
X55370Y40370
X57370Y40370
X56370Y40370
X59370Y40370
X60370Y40370
X61370Y40370
X62370Y40370
X63370Y40370
X60370Y59370
X59370Y59370
X62370Y59370
X63370Y59370
X61370Y59370
X64370Y59370
X64370Y40370
T04
X66480Y46575
X68480Y46575
X68480Y53543
X66480Y53543
X66417Y61417
T05
X73720Y46256
X73720Y47756
X73720Y49256
X73720Y50756
X73720Y52256
X73720Y53756
M30
