G04 #@! TF.FileFunction,Legend,Top*
%FSLAX46Y46*%
G04 Gerber Fmt 4.6, Leading zero omitted, Abs format (unit mm)*
G04 Created by KiCad (PCBNEW 4.0.2-stable) date 25/07/2016 02:37:25 p.m.*
%MOMM*%
G01*
G04 APERTURE LIST*
%ADD10C,0.100000*%
%ADD11C,0.200000*%
%ADD12C,0.150000*%
%ADD13C,0.203200*%
%ADD14C,0.127000*%
%ADD15C,0.152400*%
%ADD16C,0.114300*%
G04 APERTURE END LIST*
D10*
D11*
X122428000Y-93599000D02*
X121158000Y-92329000D01*
X123825000Y-93599000D02*
X122428000Y-93599000D01*
X125222000Y-94996000D02*
X123825000Y-93599000D01*
X121158000Y-81026000D02*
X121285000Y-81026000D01*
X121158000Y-92329000D02*
X121158000Y-81026000D01*
X129032000Y-98806000D02*
X129032000Y-98679000D01*
X132461000Y-98806000D02*
X129032000Y-98806000D01*
X125222000Y-94996000D02*
X129032000Y-98806000D01*
X122047000Y-76708000D02*
X121920000Y-76708000D01*
X122047000Y-80137000D02*
X122047000Y-76708000D01*
X121158000Y-81026000D02*
X122047000Y-80137000D01*
X125095000Y-76708000D02*
X124968000Y-76708000D01*
X125095000Y-80137000D02*
X125095000Y-76708000D01*
X125984000Y-81026000D02*
X125095000Y-80137000D01*
X125984000Y-90678000D02*
X125984000Y-81026000D01*
X129921000Y-94615000D02*
X125984000Y-90678000D01*
X133477000Y-94615000D02*
X129921000Y-94615000D01*
X133985000Y-95123000D02*
X133477000Y-94615000D01*
X136271000Y-97409000D02*
X133985000Y-95123000D01*
X136271000Y-119761000D02*
X136271000Y-97409000D01*
X136271000Y-99187000D02*
X136271000Y-119761000D01*
X133223000Y-104394000D02*
X133223000Y-119761000D01*
X133223000Y-102743000D02*
X133223000Y-104394000D01*
X133223000Y-99568000D02*
X133223000Y-102743000D01*
X132461000Y-98806000D02*
X133223000Y-99568000D01*
X125984000Y-77724000D02*
X125476000Y-77724000D01*
D12*
X166878000Y-97028000D02*
X167640000Y-97028000D01*
X167640000Y-97028000D02*
X167640000Y-88392000D01*
X167640000Y-88392000D02*
X166878000Y-88392000D01*
X163830000Y-97028000D02*
X163830000Y-88392000D01*
X154178000Y-97028000D02*
X154178000Y-88392000D01*
X166878000Y-88392000D02*
X154178000Y-88392000D01*
X166878000Y-97028000D02*
X154178000Y-97028000D01*
X153032880Y-103250140D02*
X167129880Y-103250140D01*
X167129880Y-118236140D02*
X153032880Y-118236140D01*
X153032880Y-103250140D02*
X153032880Y-118236140D01*
X167129880Y-103250140D02*
X167129880Y-118236140D01*
X115351000Y-97886000D02*
X115351000Y-97186000D01*
X116551000Y-97186000D02*
X116551000Y-97886000D01*
X117256000Y-97886000D02*
X117256000Y-97186000D01*
X118456000Y-97186000D02*
X118456000Y-97886000D01*
X125257000Y-118460000D02*
X125257000Y-117760000D01*
X126457000Y-117760000D02*
X126457000Y-118460000D01*
X123606000Y-118460000D02*
X123606000Y-117760000D01*
X124806000Y-117760000D02*
X124806000Y-118460000D01*
X115579000Y-84058000D02*
X115579000Y-82058000D01*
X113529000Y-82058000D02*
X113529000Y-84058000D01*
X115579000Y-91678000D02*
X115579000Y-89678000D01*
X113529000Y-89678000D02*
X113529000Y-91678000D01*
X117440000Y-82708000D02*
X117440000Y-83408000D01*
X116240000Y-83408000D02*
X116240000Y-82708000D01*
X117440000Y-89312000D02*
X117440000Y-90012000D01*
X116240000Y-90012000D02*
X116240000Y-89312000D01*
X121644000Y-79957000D02*
X125244000Y-79957000D01*
X125244000Y-76507000D02*
X121644000Y-76507000D01*
X132820000Y-102563000D02*
X136420000Y-102563000D01*
X136420000Y-99113000D02*
X132820000Y-99113000D01*
X130902000Y-82708000D02*
X130902000Y-83408000D01*
X129702000Y-83408000D02*
X129702000Y-82708000D01*
X130648000Y-89820000D02*
X130648000Y-90520000D01*
X129448000Y-90520000D02*
X129448000Y-89820000D01*
X133359000Y-83042000D02*
X133359000Y-81042000D01*
X131309000Y-81042000D02*
X131309000Y-83042000D01*
X133105000Y-91932000D02*
X133105000Y-89932000D01*
X131055000Y-89932000D02*
X131055000Y-91932000D01*
X145161000Y-77978000D02*
X145161000Y-77724000D01*
X145161000Y-77724000D02*
X142875000Y-77724000D01*
X142875000Y-77724000D02*
X142875000Y-77978000D01*
X145161000Y-77978000D02*
X142875000Y-77978000D01*
X142875000Y-77978000D02*
X142875000Y-79629000D01*
X145161000Y-81407000D02*
X145161000Y-83058000D01*
X145161000Y-83058000D02*
X142875000Y-83058000D01*
X142875000Y-83058000D02*
X142875000Y-81407000D01*
X145161000Y-79629000D02*
X145161000Y-77978000D01*
X151542000Y-82712000D02*
X152242000Y-82712000D01*
X152242000Y-83912000D02*
X151542000Y-83912000D01*
X156052000Y-83912000D02*
X155352000Y-83912000D01*
X155352000Y-82712000D02*
X156052000Y-82712000D01*
X146974000Y-118714000D02*
X146974000Y-118014000D01*
X148174000Y-118014000D02*
X148174000Y-118714000D01*
X154721000Y-99791000D02*
X154721000Y-99091000D01*
X155921000Y-99091000D02*
X155921000Y-99791000D01*
X144942000Y-94584000D02*
X144942000Y-93884000D01*
X146142000Y-93884000D02*
X146142000Y-94584000D01*
X143672000Y-118714000D02*
X143672000Y-118014000D01*
X144872000Y-118014000D02*
X144872000Y-118714000D01*
X125638000Y-107284000D02*
X125638000Y-106584000D01*
X126838000Y-106584000D02*
X126838000Y-107284000D01*
X127416000Y-105760000D02*
X127416000Y-105060000D01*
X128616000Y-105060000D02*
X128616000Y-105760000D01*
X140624000Y-105760000D02*
X140624000Y-105060000D01*
X141824000Y-105060000D02*
X141824000Y-105760000D01*
X142148000Y-107538000D02*
X142148000Y-106838000D01*
X143348000Y-106838000D02*
X143348000Y-107538000D01*
X113018000Y-97612000D02*
X113018000Y-94912000D01*
X111518000Y-97612000D02*
X111518000Y-94912000D01*
X112418000Y-96112000D02*
X112168000Y-96112000D01*
X112168000Y-96112000D02*
X112318000Y-96262000D01*
X111918000Y-96362000D02*
X112618000Y-96362000D01*
X112268000Y-96012000D02*
X112268000Y-95662000D01*
X112268000Y-96362000D02*
X111918000Y-96012000D01*
X111918000Y-96012000D02*
X112618000Y-96012000D01*
X112618000Y-96012000D02*
X112268000Y-96362000D01*
X146062000Y-87046000D02*
X146062000Y-89746000D01*
X147562000Y-87046000D02*
X147562000Y-89746000D01*
X146662000Y-88546000D02*
X146912000Y-88546000D01*
X146912000Y-88546000D02*
X146762000Y-88396000D01*
X147162000Y-88296000D02*
X146462000Y-88296000D01*
X146812000Y-88646000D02*
X146812000Y-88996000D01*
X146812000Y-88296000D02*
X147162000Y-88646000D01*
X147162000Y-88646000D02*
X146462000Y-88646000D01*
X146462000Y-88646000D02*
X146812000Y-88296000D01*
X113888000Y-119980000D02*
X113188000Y-119980000D01*
X113188000Y-118780000D02*
X113888000Y-118780000D01*
X112934000Y-105318000D02*
X113634000Y-105318000D01*
X113634000Y-106518000D02*
X112934000Y-106518000D01*
X150018000Y-114208000D02*
X150718000Y-114208000D01*
X150718000Y-115408000D02*
X150018000Y-115408000D01*
X150718000Y-107026000D02*
X150018000Y-107026000D01*
X150018000Y-105826000D02*
X150718000Y-105826000D01*
X166370000Y-76708000D02*
X166370000Y-86868000D01*
X167640000Y-76708000D02*
X160020000Y-76708000D01*
X160020000Y-76708000D02*
X160020000Y-86868000D01*
X160020000Y-86868000D02*
X167640000Y-86868000D01*
X167640000Y-86868000D02*
X167640000Y-76708000D01*
X111593000Y-101338000D02*
X111593000Y-100338000D01*
X112943000Y-100338000D02*
X112943000Y-101338000D01*
X122690000Y-111593000D02*
X123690000Y-111593000D01*
X123690000Y-112943000D02*
X122690000Y-112943000D01*
X122690000Y-113625000D02*
X123690000Y-113625000D01*
X123690000Y-114975000D02*
X122690000Y-114975000D01*
X131072000Y-85685000D02*
X132072000Y-85685000D01*
X132072000Y-87035000D02*
X131072000Y-87035000D01*
X142756000Y-111085000D02*
X143756000Y-111085000D01*
X143756000Y-112435000D02*
X142756000Y-112435000D01*
X142756000Y-112863000D02*
X143756000Y-112863000D01*
X143756000Y-114213000D02*
X142756000Y-114213000D01*
X145201000Y-85606000D02*
X145201000Y-86606000D01*
X143851000Y-86606000D02*
X143851000Y-85606000D01*
X121658000Y-108879000D02*
X120658000Y-108879000D01*
X120658000Y-107529000D02*
X121658000Y-107529000D01*
X124881000Y-106434000D02*
X124881000Y-107434000D01*
X123531000Y-107434000D02*
X123531000Y-106434000D01*
X126992000Y-110403000D02*
X125992000Y-110403000D01*
X125992000Y-109053000D02*
X126992000Y-109053000D01*
X143851000Y-107434000D02*
X143851000Y-106434000D01*
X145201000Y-106434000D02*
X145201000Y-107434000D01*
X145534000Y-110657000D02*
X144534000Y-110657000D01*
X144534000Y-109307000D02*
X145534000Y-109307000D01*
X145629000Y-107434000D02*
X145629000Y-106434000D01*
X146979000Y-106434000D02*
X146979000Y-107434000D01*
X119569000Y-81035000D02*
X119569000Y-81390000D01*
X127319000Y-81035000D02*
X127319000Y-81390000D01*
X127319000Y-91685000D02*
X127319000Y-91330000D01*
X119569000Y-91685000D02*
X119569000Y-91330000D01*
X119569000Y-81035000D02*
X127319000Y-81035000D01*
X119569000Y-91685000D02*
X127319000Y-91685000D01*
X119569000Y-81390000D02*
X118044000Y-81390000D01*
X149098000Y-80137000D02*
X149098000Y-76708000D01*
X158750000Y-80137000D02*
X158750000Y-76708000D01*
X148590000Y-81280000D02*
X159258000Y-81280000D01*
X152146000Y-80264000D02*
X152146000Y-81534000D01*
X155702000Y-80264000D02*
X155702000Y-81534000D01*
X159258000Y-80137000D02*
X148590000Y-80137000D01*
X148590000Y-76708000D02*
X159258000Y-76708000D01*
X159258000Y-81534000D02*
X159258000Y-76708000D01*
X148590000Y-81534000D02*
X148590000Y-76708000D01*
X148590000Y-81534000D02*
X159258000Y-81534000D01*
D13*
X138811000Y-82931000D02*
G75*
G03X138811000Y-82931000I-127000J0D01*
G01*
D14*
X137414000Y-83566000D02*
X139954000Y-83566000D01*
X139954000Y-83566000D02*
X139954000Y-91186000D01*
X139954000Y-91186000D02*
X137414000Y-91186000D01*
X137414000Y-91186000D02*
X137414000Y-83566000D01*
D13*
X127762000Y-100838000D02*
G75*
G03X127762000Y-100838000I-127000J0D01*
G01*
D14*
X127000000Y-99568000D02*
X127000000Y-102108000D01*
X127000000Y-102108000D02*
X119380000Y-102108000D01*
X119380000Y-102108000D02*
X119380000Y-99568000D01*
X119380000Y-99568000D02*
X127000000Y-99568000D01*
D13*
X150622000Y-100838000D02*
G75*
G03X150622000Y-100838000I-127000J0D01*
G01*
D14*
X149860000Y-99568000D02*
X149860000Y-102108000D01*
X149860000Y-102108000D02*
X142240000Y-102108000D01*
X142240000Y-102108000D02*
X142240000Y-99568000D01*
X142240000Y-99568000D02*
X149860000Y-99568000D01*
D12*
X130745000Y-104403000D02*
X130745000Y-104758000D01*
X138495000Y-104403000D02*
X138495000Y-104758000D01*
X138495000Y-115053000D02*
X138495000Y-114698000D01*
X130745000Y-115053000D02*
X130745000Y-114698000D01*
X130745000Y-104403000D02*
X138495000Y-104403000D01*
X130745000Y-115053000D02*
X138495000Y-115053000D01*
X130745000Y-104758000D02*
X129220000Y-104758000D01*
D14*
X111753000Y-116526000D02*
X111453000Y-116526000D01*
X111453000Y-109026000D02*
X111753000Y-109026000D01*
D13*
X116703711Y-111476000D02*
G75*
G03X116703711Y-111476000I-70711J0D01*
G01*
D14*
X115753000Y-114376000D02*
X115753000Y-114726000D01*
X115753000Y-110826000D02*
X115753000Y-111176000D01*
X114503000Y-109026000D02*
X114003000Y-109026000D01*
X114503000Y-116526000D02*
X114003000Y-116526000D01*
X111453000Y-109026000D02*
X111453000Y-116526000D01*
X148112000Y-81372000D02*
X145512000Y-81372000D01*
X145512000Y-81272000D02*
X148112000Y-81272000D01*
X148112000Y-81422000D02*
X145512000Y-81422000D01*
X145512000Y-82922000D02*
X145512000Y-78622000D01*
X145512000Y-78622000D02*
X145862000Y-78622000D01*
X145512000Y-82922000D02*
X145862000Y-82922000D01*
X148112000Y-78622000D02*
X148112000Y-82922000D01*
X148112000Y-82922000D02*
X147762000Y-82922000D01*
X148112000Y-78622000D02*
X147762000Y-78622000D01*
X117690900Y-113665000D02*
G75*
G03X117690900Y-113665000I-38100J0D01*
G01*
X120154700Y-113080800D02*
X120154700Y-113233200D01*
X118097300Y-113080800D02*
X118097300Y-113233200D01*
X118783100Y-113792000D02*
X119468900Y-113792000D01*
X118783100Y-112522000D02*
X119468900Y-112522000D01*
X148577300Y-112141000D02*
G75*
G03X148577300Y-112141000I-38100J0D01*
G01*
X146037300Y-112725200D02*
X146037300Y-112572800D01*
X148094700Y-112725200D02*
X148094700Y-112572800D01*
X147408900Y-112014000D02*
X146723100Y-112014000D01*
X147408900Y-113284000D02*
X146723100Y-113284000D01*
X120022000Y-119202000D02*
G75*
G03X120022000Y-119202000I-50000J0D01*
G01*
X118222000Y-116102000D02*
X118222000Y-116252000D01*
X118222000Y-116102000D02*
X119522000Y-116102000D01*
X119522000Y-116102000D02*
X119522000Y-116252000D01*
X118222000Y-119102000D02*
X118222000Y-118952000D01*
X118222000Y-119102000D02*
X119522000Y-119102000D01*
X119522000Y-119102000D02*
X119522000Y-118952000D01*
X119522000Y-117752000D02*
X119522000Y-117052000D01*
X118222000Y-118152000D02*
X118222000Y-117052000D01*
X149064000Y-107493000D02*
G75*
G03X149064000Y-107493000I-50000J0D01*
G01*
X150764000Y-110593000D02*
X150764000Y-110443000D01*
X150764000Y-110593000D02*
X149464000Y-110593000D01*
X149464000Y-110593000D02*
X149464000Y-110443000D01*
X150764000Y-107593000D02*
X150764000Y-107743000D01*
X150764000Y-107593000D02*
X149464000Y-107593000D01*
X149464000Y-107593000D02*
X149464000Y-107743000D01*
X149464000Y-108943000D02*
X149464000Y-109643000D01*
X150764000Y-108543000D02*
X150764000Y-109643000D01*
D15*
X151247929Y-89226571D02*
X151217691Y-89270114D01*
X151126976Y-89313657D01*
X151066500Y-89313657D01*
X150975786Y-89270114D01*
X150915310Y-89183029D01*
X150885071Y-89095943D01*
X150854833Y-88921771D01*
X150854833Y-88791143D01*
X150885071Y-88616971D01*
X150915310Y-88529886D01*
X150975786Y-88442800D01*
X151066500Y-88399257D01*
X151126976Y-88399257D01*
X151217691Y-88442800D01*
X151247929Y-88486343D01*
X151641024Y-88399257D02*
X151761976Y-88399257D01*
X151822452Y-88442800D01*
X151882929Y-88529886D01*
X151913167Y-88704057D01*
X151913167Y-89008857D01*
X151882929Y-89183029D01*
X151822452Y-89270114D01*
X151761976Y-89313657D01*
X151641024Y-89313657D01*
X151580548Y-89270114D01*
X151520071Y-89183029D01*
X151489833Y-89008857D01*
X151489833Y-88704057D01*
X151520071Y-88529886D01*
X151580548Y-88442800D01*
X151641024Y-88399257D01*
X152185309Y-89313657D02*
X152185309Y-88399257D01*
X152548167Y-89313657D01*
X152548167Y-88399257D01*
X153183167Y-89313657D02*
X152820309Y-89313657D01*
X153001738Y-89313657D02*
X153001738Y-88399257D01*
X152941262Y-88529886D01*
X152880786Y-88616971D01*
X152820309Y-88660514D01*
X154471309Y-102775657D02*
X154471309Y-101861257D01*
X154713214Y-101861257D01*
X154773690Y-101904800D01*
X154803929Y-101948343D01*
X154834167Y-102035429D01*
X154834167Y-102166057D01*
X154803929Y-102253143D01*
X154773690Y-102296686D01*
X154713214Y-102340229D01*
X154471309Y-102340229D01*
X155438929Y-102775657D02*
X155076071Y-102775657D01*
X155257500Y-102775657D02*
X155257500Y-101861257D01*
X155197024Y-101991886D01*
X155136548Y-102078971D01*
X155076071Y-102122514D01*
X116404571Y-100054833D02*
X116448114Y-100085071D01*
X116491657Y-100175786D01*
X116491657Y-100236262D01*
X116448114Y-100326976D01*
X116361029Y-100387452D01*
X116273943Y-100417691D01*
X116099771Y-100447929D01*
X115969143Y-100447929D01*
X115794971Y-100417691D01*
X115707886Y-100387452D01*
X115620800Y-100326976D01*
X115577257Y-100236262D01*
X115577257Y-100175786D01*
X115620800Y-100085071D01*
X115664343Y-100054833D01*
X116491657Y-99450071D02*
X116491657Y-99812929D01*
X116491657Y-99631500D02*
X115577257Y-99631500D01*
X115707886Y-99691976D01*
X115794971Y-99752452D01*
X115838514Y-99812929D01*
X118182571Y-100054833D02*
X118226114Y-100085071D01*
X118269657Y-100175786D01*
X118269657Y-100236262D01*
X118226114Y-100326976D01*
X118139029Y-100387452D01*
X118051943Y-100417691D01*
X117877771Y-100447929D01*
X117747143Y-100447929D01*
X117572971Y-100417691D01*
X117485886Y-100387452D01*
X117398800Y-100326976D01*
X117355257Y-100236262D01*
X117355257Y-100175786D01*
X117398800Y-100085071D01*
X117442343Y-100054833D01*
X117442343Y-99812929D02*
X117398800Y-99782691D01*
X117355257Y-99722214D01*
X117355257Y-99571024D01*
X117398800Y-99510548D01*
X117442343Y-99480310D01*
X117529429Y-99450071D01*
X117616514Y-99450071D01*
X117747143Y-99480310D01*
X118269657Y-99843167D01*
X118269657Y-99450071D01*
X127707571Y-118342833D02*
X127751114Y-118373071D01*
X127794657Y-118463786D01*
X127794657Y-118524262D01*
X127751114Y-118614976D01*
X127664029Y-118675452D01*
X127576943Y-118705691D01*
X127402771Y-118735929D01*
X127272143Y-118735929D01*
X127097971Y-118705691D01*
X127010886Y-118675452D01*
X126923800Y-118614976D01*
X126880257Y-118524262D01*
X126880257Y-118463786D01*
X126923800Y-118373071D01*
X126967343Y-118342833D01*
X126880257Y-118131167D02*
X126880257Y-117738071D01*
X127228600Y-117949738D01*
X127228600Y-117859024D01*
X127272143Y-117798548D01*
X127315686Y-117768310D01*
X127402771Y-117738071D01*
X127620486Y-117738071D01*
X127707571Y-117768310D01*
X127751114Y-117798548D01*
X127794657Y-117859024D01*
X127794657Y-118040452D01*
X127751114Y-118100929D01*
X127707571Y-118131167D01*
X123135571Y-119358833D02*
X123179114Y-119389071D01*
X123222657Y-119479786D01*
X123222657Y-119540262D01*
X123179114Y-119630976D01*
X123092029Y-119691452D01*
X123004943Y-119721691D01*
X122830771Y-119751929D01*
X122700143Y-119751929D01*
X122525971Y-119721691D01*
X122438886Y-119691452D01*
X122351800Y-119630976D01*
X122308257Y-119540262D01*
X122308257Y-119479786D01*
X122351800Y-119389071D01*
X122395343Y-119358833D01*
X122613057Y-118814548D02*
X123222657Y-118814548D01*
X122264714Y-118965738D02*
X122917857Y-119116929D01*
X122917857Y-118723833D01*
X116023571Y-87100833D02*
X116067114Y-87131071D01*
X116110657Y-87221786D01*
X116110657Y-87282262D01*
X116067114Y-87372976D01*
X115980029Y-87433452D01*
X115892943Y-87463691D01*
X115718771Y-87493929D01*
X115588143Y-87493929D01*
X115413971Y-87463691D01*
X115326886Y-87433452D01*
X115239800Y-87372976D01*
X115196257Y-87282262D01*
X115196257Y-87221786D01*
X115239800Y-87131071D01*
X115283343Y-87100833D01*
X115196257Y-86526310D02*
X115196257Y-86828691D01*
X115631686Y-86858929D01*
X115588143Y-86828691D01*
X115544600Y-86768214D01*
X115544600Y-86617024D01*
X115588143Y-86556548D01*
X115631686Y-86526310D01*
X115718771Y-86496071D01*
X115936486Y-86496071D01*
X116023571Y-86526310D01*
X116067114Y-86556548D01*
X116110657Y-86617024D01*
X116110657Y-86768214D01*
X116067114Y-86828691D01*
X116023571Y-86858929D01*
X112975571Y-91672833D02*
X113019114Y-91703071D01*
X113062657Y-91793786D01*
X113062657Y-91854262D01*
X113019114Y-91944976D01*
X112932029Y-92005452D01*
X112844943Y-92035691D01*
X112670771Y-92065929D01*
X112540143Y-92065929D01*
X112365971Y-92035691D01*
X112278886Y-92005452D01*
X112191800Y-91944976D01*
X112148257Y-91854262D01*
X112148257Y-91793786D01*
X112191800Y-91703071D01*
X112235343Y-91672833D01*
X112148257Y-91128548D02*
X112148257Y-91249500D01*
X112191800Y-91309976D01*
X112235343Y-91340214D01*
X112365971Y-91400691D01*
X112540143Y-91430929D01*
X112888486Y-91430929D01*
X112975571Y-91400691D01*
X113019114Y-91370452D01*
X113062657Y-91309976D01*
X113062657Y-91189024D01*
X113019114Y-91128548D01*
X112975571Y-91098310D01*
X112888486Y-91068071D01*
X112670771Y-91068071D01*
X112583686Y-91098310D01*
X112540143Y-91128548D01*
X112496600Y-91189024D01*
X112496600Y-91309976D01*
X112540143Y-91370452D01*
X112583686Y-91400691D01*
X112670771Y-91430929D01*
X117293571Y-85830833D02*
X117337114Y-85861071D01*
X117380657Y-85951786D01*
X117380657Y-86012262D01*
X117337114Y-86102976D01*
X117250029Y-86163452D01*
X117162943Y-86193691D01*
X116988771Y-86223929D01*
X116858143Y-86223929D01*
X116683971Y-86193691D01*
X116596886Y-86163452D01*
X116509800Y-86102976D01*
X116466257Y-86012262D01*
X116466257Y-85951786D01*
X116509800Y-85861071D01*
X116553343Y-85830833D01*
X116466257Y-85619167D02*
X116466257Y-85195833D01*
X117380657Y-85467976D01*
X116734167Y-92401571D02*
X116703929Y-92445114D01*
X116613214Y-92488657D01*
X116552738Y-92488657D01*
X116462024Y-92445114D01*
X116401548Y-92358029D01*
X116371309Y-92270943D01*
X116341071Y-92096771D01*
X116341071Y-91966143D01*
X116371309Y-91791971D01*
X116401548Y-91704886D01*
X116462024Y-91617800D01*
X116552738Y-91574257D01*
X116613214Y-91574257D01*
X116703929Y-91617800D01*
X116734167Y-91661343D01*
X117097024Y-91966143D02*
X117036548Y-91922600D01*
X117006309Y-91879057D01*
X116976071Y-91791971D01*
X116976071Y-91748429D01*
X117006309Y-91661343D01*
X117036548Y-91617800D01*
X117097024Y-91574257D01*
X117217976Y-91574257D01*
X117278452Y-91617800D01*
X117308690Y-91661343D01*
X117338929Y-91748429D01*
X117338929Y-91791971D01*
X117308690Y-91879057D01*
X117278452Y-91922600D01*
X117217976Y-91966143D01*
X117097024Y-91966143D01*
X117036548Y-92009686D01*
X117006309Y-92053229D01*
X116976071Y-92140314D01*
X116976071Y-92314486D01*
X117006309Y-92401571D01*
X117036548Y-92445114D01*
X117097024Y-92488657D01*
X117217976Y-92488657D01*
X117278452Y-92445114D01*
X117308690Y-92401571D01*
X117338929Y-92314486D01*
X117338929Y-92140314D01*
X117308690Y-92053229D01*
X117278452Y-92009686D01*
X117217976Y-91966143D01*
X128418167Y-78050571D02*
X128387929Y-78094114D01*
X128297214Y-78137657D01*
X128236738Y-78137657D01*
X128146024Y-78094114D01*
X128085548Y-78007029D01*
X128055309Y-77919943D01*
X128025071Y-77745771D01*
X128025071Y-77615143D01*
X128055309Y-77440971D01*
X128085548Y-77353886D01*
X128146024Y-77266800D01*
X128236738Y-77223257D01*
X128297214Y-77223257D01*
X128387929Y-77266800D01*
X128418167Y-77310343D01*
X128720548Y-78137657D02*
X128841500Y-78137657D01*
X128901976Y-78094114D01*
X128932214Y-78050571D01*
X128992690Y-77919943D01*
X129022929Y-77745771D01*
X129022929Y-77397429D01*
X128992690Y-77310343D01*
X128962452Y-77266800D01*
X128901976Y-77223257D01*
X128781024Y-77223257D01*
X128720548Y-77266800D01*
X128690309Y-77310343D01*
X128660071Y-77397429D01*
X128660071Y-77615143D01*
X128690309Y-77702229D01*
X128720548Y-77745771D01*
X128781024Y-77789314D01*
X128901976Y-77789314D01*
X128962452Y-77745771D01*
X128992690Y-77702229D01*
X129022929Y-77615143D01*
X133703786Y-98497571D02*
X133673548Y-98541114D01*
X133582833Y-98584657D01*
X133522357Y-98584657D01*
X133431643Y-98541114D01*
X133371167Y-98454029D01*
X133340928Y-98366943D01*
X133310690Y-98192771D01*
X133310690Y-98062143D01*
X133340928Y-97887971D01*
X133371167Y-97800886D01*
X133431643Y-97713800D01*
X133522357Y-97670257D01*
X133582833Y-97670257D01*
X133673548Y-97713800D01*
X133703786Y-97757343D01*
X134308548Y-98584657D02*
X133945690Y-98584657D01*
X134127119Y-98584657D02*
X134127119Y-97670257D01*
X134066643Y-97800886D01*
X134006167Y-97887971D01*
X133945690Y-97931514D01*
X134701643Y-97670257D02*
X134762119Y-97670257D01*
X134822595Y-97713800D01*
X134852833Y-97757343D01*
X134883071Y-97844429D01*
X134913310Y-98018600D01*
X134913310Y-98236314D01*
X134883071Y-98410486D01*
X134852833Y-98497571D01*
X134822595Y-98541114D01*
X134762119Y-98584657D01*
X134701643Y-98584657D01*
X134641167Y-98541114D01*
X134610929Y-98497571D01*
X134580690Y-98410486D01*
X134550452Y-98236314D01*
X134550452Y-98018600D01*
X134580690Y-97844429D01*
X134610929Y-97757343D01*
X134641167Y-97713800D01*
X134701643Y-97670257D01*
X130628571Y-80545214D02*
X130672114Y-80575452D01*
X130715657Y-80666167D01*
X130715657Y-80726643D01*
X130672114Y-80817357D01*
X130585029Y-80877833D01*
X130497943Y-80908072D01*
X130323771Y-80938310D01*
X130193143Y-80938310D01*
X130018971Y-80908072D01*
X129931886Y-80877833D01*
X129844800Y-80817357D01*
X129801257Y-80726643D01*
X129801257Y-80666167D01*
X129844800Y-80575452D01*
X129888343Y-80545214D01*
X130715657Y-79940452D02*
X130715657Y-80303310D01*
X130715657Y-80121881D02*
X129801257Y-80121881D01*
X129931886Y-80182357D01*
X130018971Y-80242833D01*
X130062514Y-80303310D01*
X130715657Y-79335690D02*
X130715657Y-79698548D01*
X130715657Y-79517119D02*
X129801257Y-79517119D01*
X129931886Y-79577595D01*
X130018971Y-79638071D01*
X130062514Y-79698548D01*
X129104571Y-92737214D02*
X129148114Y-92767452D01*
X129191657Y-92858167D01*
X129191657Y-92918643D01*
X129148114Y-93009357D01*
X129061029Y-93069833D01*
X128973943Y-93100072D01*
X128799771Y-93130310D01*
X128669143Y-93130310D01*
X128494971Y-93100072D01*
X128407886Y-93069833D01*
X128320800Y-93009357D01*
X128277257Y-92918643D01*
X128277257Y-92858167D01*
X128320800Y-92767452D01*
X128364343Y-92737214D01*
X129191657Y-92132452D02*
X129191657Y-92495310D01*
X129191657Y-92313881D02*
X128277257Y-92313881D01*
X128407886Y-92374357D01*
X128494971Y-92434833D01*
X128538514Y-92495310D01*
X128364343Y-91890548D02*
X128320800Y-91860310D01*
X128277257Y-91799833D01*
X128277257Y-91648643D01*
X128320800Y-91588167D01*
X128364343Y-91557929D01*
X128451429Y-91527690D01*
X128538514Y-91527690D01*
X128669143Y-91557929D01*
X129191657Y-91920786D01*
X129191657Y-91527690D01*
X134565571Y-80418214D02*
X134609114Y-80448452D01*
X134652657Y-80539167D01*
X134652657Y-80599643D01*
X134609114Y-80690357D01*
X134522029Y-80750833D01*
X134434943Y-80781072D01*
X134260771Y-80811310D01*
X134130143Y-80811310D01*
X133955971Y-80781072D01*
X133868886Y-80750833D01*
X133781800Y-80690357D01*
X133738257Y-80599643D01*
X133738257Y-80539167D01*
X133781800Y-80448452D01*
X133825343Y-80418214D01*
X134652657Y-79813452D02*
X134652657Y-80176310D01*
X134652657Y-79994881D02*
X133738257Y-79994881D01*
X133868886Y-80055357D01*
X133955971Y-80115833D01*
X133999514Y-80176310D01*
X133738257Y-79601786D02*
X133738257Y-79208690D01*
X134086600Y-79420357D01*
X134086600Y-79329643D01*
X134130143Y-79269167D01*
X134173686Y-79238929D01*
X134260771Y-79208690D01*
X134478486Y-79208690D01*
X134565571Y-79238929D01*
X134609114Y-79269167D01*
X134652657Y-79329643D01*
X134652657Y-79511071D01*
X134609114Y-79571548D01*
X134565571Y-79601786D01*
X134565571Y-90578214D02*
X134609114Y-90608452D01*
X134652657Y-90699167D01*
X134652657Y-90759643D01*
X134609114Y-90850357D01*
X134522029Y-90910833D01*
X134434943Y-90941072D01*
X134260771Y-90971310D01*
X134130143Y-90971310D01*
X133955971Y-90941072D01*
X133868886Y-90910833D01*
X133781800Y-90850357D01*
X133738257Y-90759643D01*
X133738257Y-90699167D01*
X133781800Y-90608452D01*
X133825343Y-90578214D01*
X134652657Y-89973452D02*
X134652657Y-90336310D01*
X134652657Y-90154881D02*
X133738257Y-90154881D01*
X133868886Y-90215357D01*
X133955971Y-90275833D01*
X133999514Y-90336310D01*
X134043057Y-89429167D02*
X134652657Y-89429167D01*
X133694714Y-89580357D02*
X134347857Y-89731548D01*
X134347857Y-89338452D01*
X142185571Y-79148214D02*
X142229114Y-79178452D01*
X142272657Y-79269167D01*
X142272657Y-79329643D01*
X142229114Y-79420357D01*
X142142029Y-79480833D01*
X142054943Y-79511072D01*
X141880771Y-79541310D01*
X141750143Y-79541310D01*
X141575971Y-79511072D01*
X141488886Y-79480833D01*
X141401800Y-79420357D01*
X141358257Y-79329643D01*
X141358257Y-79269167D01*
X141401800Y-79178452D01*
X141445343Y-79148214D01*
X142272657Y-78543452D02*
X142272657Y-78906310D01*
X142272657Y-78724881D02*
X141358257Y-78724881D01*
X141488886Y-78785357D01*
X141575971Y-78845833D01*
X141619514Y-78906310D01*
X141358257Y-77968929D02*
X141358257Y-78271310D01*
X141793686Y-78301548D01*
X141750143Y-78271310D01*
X141706600Y-78210833D01*
X141706600Y-78059643D01*
X141750143Y-77999167D01*
X141793686Y-77968929D01*
X141880771Y-77938690D01*
X142098486Y-77938690D01*
X142185571Y-77968929D01*
X142229114Y-77999167D01*
X142272657Y-78059643D01*
X142272657Y-78210833D01*
X142229114Y-78271310D01*
X142185571Y-78301548D01*
X151356786Y-85035571D02*
X151326548Y-85079114D01*
X151235833Y-85122657D01*
X151175357Y-85122657D01*
X151084643Y-85079114D01*
X151024167Y-84992029D01*
X150993928Y-84904943D01*
X150963690Y-84730771D01*
X150963690Y-84600143D01*
X150993928Y-84425971D01*
X151024167Y-84338886D01*
X151084643Y-84251800D01*
X151175357Y-84208257D01*
X151235833Y-84208257D01*
X151326548Y-84251800D01*
X151356786Y-84295343D01*
X151961548Y-85122657D02*
X151598690Y-85122657D01*
X151780119Y-85122657D02*
X151780119Y-84208257D01*
X151719643Y-84338886D01*
X151659167Y-84425971D01*
X151598690Y-84469514D01*
X152505833Y-84208257D02*
X152384881Y-84208257D01*
X152324405Y-84251800D01*
X152294167Y-84295343D01*
X152233690Y-84425971D01*
X152203452Y-84600143D01*
X152203452Y-84948486D01*
X152233690Y-85035571D01*
X152263929Y-85079114D01*
X152324405Y-85122657D01*
X152445357Y-85122657D01*
X152505833Y-85079114D01*
X152536071Y-85035571D01*
X152566310Y-84948486D01*
X152566310Y-84730771D01*
X152536071Y-84643686D01*
X152505833Y-84600143D01*
X152445357Y-84556600D01*
X152324405Y-84556600D01*
X152263929Y-84600143D01*
X152233690Y-84643686D01*
X152203452Y-84730771D01*
X154658786Y-85035571D02*
X154628548Y-85079114D01*
X154537833Y-85122657D01*
X154477357Y-85122657D01*
X154386643Y-85079114D01*
X154326167Y-84992029D01*
X154295928Y-84904943D01*
X154265690Y-84730771D01*
X154265690Y-84600143D01*
X154295928Y-84425971D01*
X154326167Y-84338886D01*
X154386643Y-84251800D01*
X154477357Y-84208257D01*
X154537833Y-84208257D01*
X154628548Y-84251800D01*
X154658786Y-84295343D01*
X155263548Y-85122657D02*
X154900690Y-85122657D01*
X155082119Y-85122657D02*
X155082119Y-84208257D01*
X155021643Y-84338886D01*
X154961167Y-84425971D01*
X154900690Y-84469514D01*
X155475214Y-84208257D02*
X155898548Y-84208257D01*
X155626405Y-85122657D01*
X146376571Y-118772214D02*
X146420114Y-118802452D01*
X146463657Y-118893167D01*
X146463657Y-118953643D01*
X146420114Y-119044357D01*
X146333029Y-119104833D01*
X146245943Y-119135072D01*
X146071771Y-119165310D01*
X145941143Y-119165310D01*
X145766971Y-119135072D01*
X145679886Y-119104833D01*
X145592800Y-119044357D01*
X145549257Y-118953643D01*
X145549257Y-118893167D01*
X145592800Y-118802452D01*
X145636343Y-118772214D01*
X146463657Y-118167452D02*
X146463657Y-118530310D01*
X146463657Y-118348881D02*
X145549257Y-118348881D01*
X145679886Y-118409357D01*
X145766971Y-118469833D01*
X145810514Y-118530310D01*
X145941143Y-117804595D02*
X145897600Y-117865071D01*
X145854057Y-117895310D01*
X145766971Y-117925548D01*
X145723429Y-117925548D01*
X145636343Y-117895310D01*
X145592800Y-117865071D01*
X145549257Y-117804595D01*
X145549257Y-117683643D01*
X145592800Y-117623167D01*
X145636343Y-117592929D01*
X145723429Y-117562690D01*
X145766971Y-117562690D01*
X145854057Y-117592929D01*
X145897600Y-117623167D01*
X145941143Y-117683643D01*
X145941143Y-117804595D01*
X145984686Y-117865071D01*
X146028229Y-117895310D01*
X146115314Y-117925548D01*
X146289486Y-117925548D01*
X146376571Y-117895310D01*
X146420114Y-117865071D01*
X146463657Y-117804595D01*
X146463657Y-117683643D01*
X146420114Y-117623167D01*
X146376571Y-117592929D01*
X146289486Y-117562690D01*
X146115314Y-117562690D01*
X146028229Y-117592929D01*
X145984686Y-117623167D01*
X145941143Y-117683643D01*
X154123571Y-99722214D02*
X154167114Y-99752452D01*
X154210657Y-99843167D01*
X154210657Y-99903643D01*
X154167114Y-99994357D01*
X154080029Y-100054833D01*
X153992943Y-100085072D01*
X153818771Y-100115310D01*
X153688143Y-100115310D01*
X153513971Y-100085072D01*
X153426886Y-100054833D01*
X153339800Y-99994357D01*
X153296257Y-99903643D01*
X153296257Y-99843167D01*
X153339800Y-99752452D01*
X153383343Y-99722214D01*
X154210657Y-99117452D02*
X154210657Y-99480310D01*
X154210657Y-99298881D02*
X153296257Y-99298881D01*
X153426886Y-99359357D01*
X153513971Y-99419833D01*
X153557514Y-99480310D01*
X154210657Y-98815071D02*
X154210657Y-98694119D01*
X154167114Y-98633643D01*
X154123571Y-98603405D01*
X153992943Y-98542929D01*
X153818771Y-98512690D01*
X153470429Y-98512690D01*
X153383343Y-98542929D01*
X153339800Y-98573167D01*
X153296257Y-98633643D01*
X153296257Y-98754595D01*
X153339800Y-98815071D01*
X153383343Y-98845310D01*
X153470429Y-98875548D01*
X153688143Y-98875548D01*
X153775229Y-98845310D01*
X153818771Y-98815071D01*
X153862314Y-98754595D01*
X153862314Y-98633643D01*
X153818771Y-98573167D01*
X153775229Y-98542929D01*
X153688143Y-98512690D01*
X144344571Y-94769214D02*
X144388114Y-94799452D01*
X144431657Y-94890167D01*
X144431657Y-94950643D01*
X144388114Y-95041357D01*
X144301029Y-95101833D01*
X144213943Y-95132072D01*
X144039771Y-95162310D01*
X143909143Y-95162310D01*
X143734971Y-95132072D01*
X143647886Y-95101833D01*
X143560800Y-95041357D01*
X143517257Y-94950643D01*
X143517257Y-94890167D01*
X143560800Y-94799452D01*
X143604343Y-94769214D01*
X143604343Y-94527310D02*
X143560800Y-94497072D01*
X143517257Y-94436595D01*
X143517257Y-94285405D01*
X143560800Y-94224929D01*
X143604343Y-94194691D01*
X143691429Y-94164452D01*
X143778514Y-94164452D01*
X143909143Y-94194691D01*
X144431657Y-94557548D01*
X144431657Y-94164452D01*
X143517257Y-93771357D02*
X143517257Y-93710881D01*
X143560800Y-93650405D01*
X143604343Y-93620167D01*
X143691429Y-93589929D01*
X143865600Y-93559690D01*
X144083314Y-93559690D01*
X144257486Y-93589929D01*
X144344571Y-93620167D01*
X144388114Y-93650405D01*
X144431657Y-93710881D01*
X144431657Y-93771357D01*
X144388114Y-93831833D01*
X144344571Y-93862071D01*
X144257486Y-93892310D01*
X144083314Y-93922548D01*
X143865600Y-93922548D01*
X143691429Y-93892310D01*
X143604343Y-93862071D01*
X143560800Y-93831833D01*
X143517257Y-93771357D01*
X143201571Y-118772214D02*
X143245114Y-118802452D01*
X143288657Y-118893167D01*
X143288657Y-118953643D01*
X143245114Y-119044357D01*
X143158029Y-119104833D01*
X143070943Y-119135072D01*
X142896771Y-119165310D01*
X142766143Y-119165310D01*
X142591971Y-119135072D01*
X142504886Y-119104833D01*
X142417800Y-119044357D01*
X142374257Y-118953643D01*
X142374257Y-118893167D01*
X142417800Y-118802452D01*
X142461343Y-118772214D01*
X142461343Y-118530310D02*
X142417800Y-118500072D01*
X142374257Y-118439595D01*
X142374257Y-118288405D01*
X142417800Y-118227929D01*
X142461343Y-118197691D01*
X142548429Y-118167452D01*
X142635514Y-118167452D01*
X142766143Y-118197691D01*
X143288657Y-118560548D01*
X143288657Y-118167452D01*
X143288657Y-117562690D02*
X143288657Y-117925548D01*
X143288657Y-117744119D02*
X142374257Y-117744119D01*
X142504886Y-117804595D01*
X142591971Y-117865071D01*
X142635514Y-117925548D01*
X126691571Y-104421214D02*
X126735114Y-104451452D01*
X126778657Y-104542167D01*
X126778657Y-104602643D01*
X126735114Y-104693357D01*
X126648029Y-104753833D01*
X126560943Y-104784072D01*
X126386771Y-104814310D01*
X126256143Y-104814310D01*
X126081971Y-104784072D01*
X125994886Y-104753833D01*
X125907800Y-104693357D01*
X125864257Y-104602643D01*
X125864257Y-104542167D01*
X125907800Y-104451452D01*
X125951343Y-104421214D01*
X125951343Y-104179310D02*
X125907800Y-104149072D01*
X125864257Y-104088595D01*
X125864257Y-103937405D01*
X125907800Y-103876929D01*
X125951343Y-103846691D01*
X126038429Y-103816452D01*
X126125514Y-103816452D01*
X126256143Y-103846691D01*
X126778657Y-104209548D01*
X126778657Y-103816452D01*
X125951343Y-103574548D02*
X125907800Y-103544310D01*
X125864257Y-103483833D01*
X125864257Y-103332643D01*
X125907800Y-103272167D01*
X125951343Y-103241929D01*
X126038429Y-103211690D01*
X126125514Y-103211690D01*
X126256143Y-103241929D01*
X126778657Y-103604786D01*
X126778657Y-103211690D01*
X128596571Y-103151214D02*
X128640114Y-103181452D01*
X128683657Y-103272167D01*
X128683657Y-103332643D01*
X128640114Y-103423357D01*
X128553029Y-103483833D01*
X128465943Y-103514072D01*
X128291771Y-103544310D01*
X128161143Y-103544310D01*
X127986971Y-103514072D01*
X127899886Y-103483833D01*
X127812800Y-103423357D01*
X127769257Y-103332643D01*
X127769257Y-103272167D01*
X127812800Y-103181452D01*
X127856343Y-103151214D01*
X127856343Y-102909310D02*
X127812800Y-102879072D01*
X127769257Y-102818595D01*
X127769257Y-102667405D01*
X127812800Y-102606929D01*
X127856343Y-102576691D01*
X127943429Y-102546452D01*
X128030514Y-102546452D01*
X128161143Y-102576691D01*
X128683657Y-102939548D01*
X128683657Y-102546452D01*
X127769257Y-102334786D02*
X127769257Y-101941690D01*
X128117600Y-102153357D01*
X128117600Y-102062643D01*
X128161143Y-102002167D01*
X128204686Y-101971929D01*
X128291771Y-101941690D01*
X128509486Y-101941690D01*
X128596571Y-101971929D01*
X128640114Y-102002167D01*
X128683657Y-102062643D01*
X128683657Y-102244071D01*
X128640114Y-102304548D01*
X128596571Y-102334786D01*
X140280571Y-103151214D02*
X140324114Y-103181452D01*
X140367657Y-103272167D01*
X140367657Y-103332643D01*
X140324114Y-103423357D01*
X140237029Y-103483833D01*
X140149943Y-103514072D01*
X139975771Y-103544310D01*
X139845143Y-103544310D01*
X139670971Y-103514072D01*
X139583886Y-103483833D01*
X139496800Y-103423357D01*
X139453257Y-103332643D01*
X139453257Y-103272167D01*
X139496800Y-103181452D01*
X139540343Y-103151214D01*
X139540343Y-102909310D02*
X139496800Y-102879072D01*
X139453257Y-102818595D01*
X139453257Y-102667405D01*
X139496800Y-102606929D01*
X139540343Y-102576691D01*
X139627429Y-102546452D01*
X139714514Y-102546452D01*
X139845143Y-102576691D01*
X140367657Y-102939548D01*
X140367657Y-102546452D01*
X139758057Y-102002167D02*
X140367657Y-102002167D01*
X139409714Y-102153357D02*
X140062857Y-102304548D01*
X140062857Y-101911452D01*
X142339786Y-103704571D02*
X142309548Y-103748114D01*
X142218833Y-103791657D01*
X142158357Y-103791657D01*
X142067643Y-103748114D01*
X142007167Y-103661029D01*
X141976928Y-103573943D01*
X141946690Y-103399771D01*
X141946690Y-103269143D01*
X141976928Y-103094971D01*
X142007167Y-103007886D01*
X142067643Y-102920800D01*
X142158357Y-102877257D01*
X142218833Y-102877257D01*
X142309548Y-102920800D01*
X142339786Y-102964343D01*
X142581690Y-102964343D02*
X142611928Y-102920800D01*
X142672405Y-102877257D01*
X142823595Y-102877257D01*
X142884071Y-102920800D01*
X142914309Y-102964343D01*
X142944548Y-103051429D01*
X142944548Y-103138514D01*
X142914309Y-103269143D01*
X142551452Y-103791657D01*
X142944548Y-103791657D01*
X143519071Y-102877257D02*
X143216690Y-102877257D01*
X143186452Y-103312686D01*
X143216690Y-103269143D01*
X143277167Y-103225600D01*
X143428357Y-103225600D01*
X143488833Y-103269143D01*
X143519071Y-103312686D01*
X143549310Y-103399771D01*
X143549310Y-103617486D01*
X143519071Y-103704571D01*
X143488833Y-103748114D01*
X143428357Y-103791657D01*
X143277167Y-103791657D01*
X143216690Y-103748114D01*
X143186452Y-103704571D01*
X114332657Y-96480691D02*
X113418257Y-96480691D01*
X113418257Y-96329500D01*
X113461800Y-96238786D01*
X113548886Y-96178310D01*
X113635971Y-96148071D01*
X113810143Y-96117833D01*
X113940771Y-96117833D01*
X114114943Y-96148071D01*
X114202029Y-96178310D01*
X114289114Y-96238786D01*
X114332657Y-96329500D01*
X114332657Y-96480691D01*
X114332657Y-95513071D02*
X114332657Y-95875929D01*
X114332657Y-95694500D02*
X113418257Y-95694500D01*
X113548886Y-95754976D01*
X113635971Y-95815452D01*
X113679514Y-95875929D01*
X145574657Y-89241691D02*
X144660257Y-89241691D01*
X144660257Y-89090500D01*
X144703800Y-88999786D01*
X144790886Y-88939310D01*
X144877971Y-88909071D01*
X145052143Y-88878833D01*
X145182771Y-88878833D01*
X145356943Y-88909071D01*
X145444029Y-88939310D01*
X145531114Y-88999786D01*
X145574657Y-89090500D01*
X145574657Y-89241691D01*
X144660257Y-88667167D02*
X144660257Y-88274071D01*
X145008600Y-88485738D01*
X145008600Y-88395024D01*
X145052143Y-88334548D01*
X145095686Y-88304310D01*
X145182771Y-88274071D01*
X145400486Y-88274071D01*
X145487571Y-88304310D01*
X145531114Y-88334548D01*
X145574657Y-88395024D01*
X145574657Y-88576452D01*
X145531114Y-88636929D01*
X145487571Y-88667167D01*
X115675833Y-119822686D02*
X115464166Y-119822686D01*
X115464166Y-120301657D02*
X115464166Y-119387257D01*
X115766547Y-119387257D01*
X116220119Y-119822686D02*
X116310833Y-119866229D01*
X116341072Y-119909771D01*
X116371310Y-119996857D01*
X116371310Y-120127486D01*
X116341072Y-120214571D01*
X116310833Y-120258114D01*
X116250357Y-120301657D01*
X116008452Y-120301657D01*
X116008452Y-119387257D01*
X116220119Y-119387257D01*
X116280595Y-119430800D01*
X116310833Y-119474343D01*
X116341072Y-119561429D01*
X116341072Y-119648514D01*
X116310833Y-119735600D01*
X116280595Y-119779143D01*
X116220119Y-119822686D01*
X116008452Y-119822686D01*
X116976072Y-120301657D02*
X116613214Y-120301657D01*
X116794643Y-120301657D02*
X116794643Y-119387257D01*
X116734167Y-119517886D01*
X116673691Y-119604971D01*
X116613214Y-119648514D01*
X111738833Y-104455686D02*
X111527166Y-104455686D01*
X111527166Y-104934657D02*
X111527166Y-104020257D01*
X111829547Y-104020257D01*
X112283119Y-104455686D02*
X112373833Y-104499229D01*
X112404072Y-104542771D01*
X112434310Y-104629857D01*
X112434310Y-104760486D01*
X112404072Y-104847571D01*
X112373833Y-104891114D01*
X112313357Y-104934657D01*
X112071452Y-104934657D01*
X112071452Y-104020257D01*
X112283119Y-104020257D01*
X112343595Y-104063800D01*
X112373833Y-104107343D01*
X112404072Y-104194429D01*
X112404072Y-104281514D01*
X112373833Y-104368600D01*
X112343595Y-104412143D01*
X112283119Y-104455686D01*
X112071452Y-104455686D01*
X112676214Y-104107343D02*
X112706452Y-104063800D01*
X112766929Y-104020257D01*
X112918119Y-104020257D01*
X112978595Y-104063800D01*
X113008833Y-104107343D01*
X113039072Y-104194429D01*
X113039072Y-104281514D01*
X113008833Y-104412143D01*
X112645976Y-104934657D01*
X113039072Y-104934657D01*
X148822833Y-113345686D02*
X148611166Y-113345686D01*
X148611166Y-113824657D02*
X148611166Y-112910257D01*
X148913547Y-112910257D01*
X149367119Y-113345686D02*
X149457833Y-113389229D01*
X149488072Y-113432771D01*
X149518310Y-113519857D01*
X149518310Y-113650486D01*
X149488072Y-113737571D01*
X149457833Y-113781114D01*
X149397357Y-113824657D01*
X149155452Y-113824657D01*
X149155452Y-112910257D01*
X149367119Y-112910257D01*
X149427595Y-112953800D01*
X149457833Y-112997343D01*
X149488072Y-113084429D01*
X149488072Y-113171514D01*
X149457833Y-113258600D01*
X149427595Y-113302143D01*
X149367119Y-113345686D01*
X149155452Y-113345686D01*
X149729976Y-112910257D02*
X150123072Y-112910257D01*
X149911405Y-113258600D01*
X150002119Y-113258600D01*
X150062595Y-113302143D01*
X150092833Y-113345686D01*
X150123072Y-113432771D01*
X150123072Y-113650486D01*
X150092833Y-113737571D01*
X150062595Y-113781114D01*
X150002119Y-113824657D01*
X149820691Y-113824657D01*
X149760214Y-113781114D01*
X149729976Y-113737571D01*
X149330833Y-104963686D02*
X149119166Y-104963686D01*
X149119166Y-105442657D02*
X149119166Y-104528257D01*
X149421547Y-104528257D01*
X149875119Y-104963686D02*
X149965833Y-105007229D01*
X149996072Y-105050771D01*
X150026310Y-105137857D01*
X150026310Y-105268486D01*
X149996072Y-105355571D01*
X149965833Y-105399114D01*
X149905357Y-105442657D01*
X149663452Y-105442657D01*
X149663452Y-104528257D01*
X149875119Y-104528257D01*
X149935595Y-104571800D01*
X149965833Y-104615343D01*
X149996072Y-104702429D01*
X149996072Y-104789514D01*
X149965833Y-104876600D01*
X149935595Y-104920143D01*
X149875119Y-104963686D01*
X149663452Y-104963686D01*
X150570595Y-104833057D02*
X150570595Y-105442657D01*
X150419405Y-104484714D02*
X150268214Y-105137857D01*
X150661310Y-105137857D01*
X163491333Y-87129257D02*
X163491333Y-87782400D01*
X163461095Y-87913029D01*
X163400619Y-88000114D01*
X163309904Y-88043657D01*
X163249428Y-88043657D01*
X163763476Y-87216343D02*
X163793714Y-87172800D01*
X163854191Y-87129257D01*
X164005381Y-87129257D01*
X164065857Y-87172800D01*
X164096095Y-87216343D01*
X164126334Y-87303429D01*
X164126334Y-87390514D01*
X164096095Y-87521143D01*
X163733238Y-88043657D01*
X164126334Y-88043657D01*
X114459657Y-100689833D02*
X114024229Y-100901500D01*
X114459657Y-101052691D02*
X113545257Y-101052691D01*
X113545257Y-100810786D01*
X113588800Y-100750310D01*
X113632343Y-100720071D01*
X113719429Y-100689833D01*
X113850057Y-100689833D01*
X113937143Y-100720071D01*
X113980686Y-100750310D01*
X114024229Y-100810786D01*
X114024229Y-101052691D01*
X114459657Y-100085071D02*
X114459657Y-100447929D01*
X114459657Y-100266500D02*
X113545257Y-100266500D01*
X113675886Y-100326976D01*
X113762971Y-100387452D01*
X113806514Y-100447929D01*
X122957167Y-111157657D02*
X122745500Y-110722229D01*
X122594309Y-111157657D02*
X122594309Y-110243257D01*
X122836214Y-110243257D01*
X122896690Y-110286800D01*
X122926929Y-110330343D01*
X122957167Y-110417429D01*
X122957167Y-110548057D01*
X122926929Y-110635143D01*
X122896690Y-110678686D01*
X122836214Y-110722229D01*
X122594309Y-110722229D01*
X123199071Y-110330343D02*
X123229309Y-110286800D01*
X123289786Y-110243257D01*
X123440976Y-110243257D01*
X123501452Y-110286800D01*
X123531690Y-110330343D01*
X123561929Y-110417429D01*
X123561929Y-110504514D01*
X123531690Y-110635143D01*
X123168833Y-111157657D01*
X123561929Y-111157657D01*
X122703167Y-116364657D02*
X122491500Y-115929229D01*
X122340309Y-116364657D02*
X122340309Y-115450257D01*
X122582214Y-115450257D01*
X122642690Y-115493800D01*
X122672929Y-115537343D01*
X122703167Y-115624429D01*
X122703167Y-115755057D01*
X122672929Y-115842143D01*
X122642690Y-115885686D01*
X122582214Y-115929229D01*
X122340309Y-115929229D01*
X122914833Y-115450257D02*
X123307929Y-115450257D01*
X123096262Y-115798600D01*
X123186976Y-115798600D01*
X123247452Y-115842143D01*
X123277690Y-115885686D01*
X123307929Y-115972771D01*
X123307929Y-116190486D01*
X123277690Y-116277571D01*
X123247452Y-116321114D01*
X123186976Y-116364657D01*
X123005548Y-116364657D01*
X122945071Y-116321114D01*
X122914833Y-116277571D01*
X133879167Y-88043657D02*
X133667500Y-87608229D01*
X133516309Y-88043657D02*
X133516309Y-87129257D01*
X133758214Y-87129257D01*
X133818690Y-87172800D01*
X133848929Y-87216343D01*
X133879167Y-87303429D01*
X133879167Y-87434057D01*
X133848929Y-87521143D01*
X133818690Y-87564686D01*
X133758214Y-87608229D01*
X133516309Y-87608229D01*
X134423452Y-87434057D02*
X134423452Y-88043657D01*
X134272262Y-87085714D02*
X134121071Y-87738857D01*
X134514167Y-87738857D01*
X142261167Y-110649657D02*
X142049500Y-110214229D01*
X141898309Y-110649657D02*
X141898309Y-109735257D01*
X142140214Y-109735257D01*
X142200690Y-109778800D01*
X142230929Y-109822343D01*
X142261167Y-109909429D01*
X142261167Y-110040057D01*
X142230929Y-110127143D01*
X142200690Y-110170686D01*
X142140214Y-110214229D01*
X141898309Y-110214229D01*
X142835690Y-109735257D02*
X142533309Y-109735257D01*
X142503071Y-110170686D01*
X142533309Y-110127143D01*
X142593786Y-110083600D01*
X142744976Y-110083600D01*
X142805452Y-110127143D01*
X142835690Y-110170686D01*
X142865929Y-110257771D01*
X142865929Y-110475486D01*
X142835690Y-110562571D01*
X142805452Y-110606114D01*
X142744976Y-110649657D01*
X142593786Y-110649657D01*
X142533309Y-110606114D01*
X142503071Y-110562571D01*
X144166167Y-115602657D02*
X143954500Y-115167229D01*
X143803309Y-115602657D02*
X143803309Y-114688257D01*
X144045214Y-114688257D01*
X144105690Y-114731800D01*
X144135929Y-114775343D01*
X144166167Y-114862429D01*
X144166167Y-114993057D01*
X144135929Y-115080143D01*
X144105690Y-115123686D01*
X144045214Y-115167229D01*
X143803309Y-115167229D01*
X144710452Y-114688257D02*
X144589500Y-114688257D01*
X144529024Y-114731800D01*
X144498786Y-114775343D01*
X144438309Y-114905971D01*
X144408071Y-115080143D01*
X144408071Y-115428486D01*
X144438309Y-115515571D01*
X144468548Y-115559114D01*
X144529024Y-115602657D01*
X144649976Y-115602657D01*
X144710452Y-115559114D01*
X144740690Y-115515571D01*
X144770929Y-115428486D01*
X144770929Y-115210771D01*
X144740690Y-115123686D01*
X144710452Y-115080143D01*
X144649976Y-115036600D01*
X144529024Y-115036600D01*
X144468548Y-115080143D01*
X144438309Y-115123686D01*
X144408071Y-115210771D01*
X143288657Y-85957833D02*
X142853229Y-86169500D01*
X143288657Y-86320691D02*
X142374257Y-86320691D01*
X142374257Y-86078786D01*
X142417800Y-86018310D01*
X142461343Y-85988071D01*
X142548429Y-85957833D01*
X142679057Y-85957833D01*
X142766143Y-85988071D01*
X142809686Y-86018310D01*
X142853229Y-86078786D01*
X142853229Y-86320691D01*
X142374257Y-85746167D02*
X142374257Y-85322833D01*
X143288657Y-85594976D01*
X120290167Y-110141657D02*
X120078500Y-109706229D01*
X119927309Y-110141657D02*
X119927309Y-109227257D01*
X120169214Y-109227257D01*
X120229690Y-109270800D01*
X120259929Y-109314343D01*
X120290167Y-109401429D01*
X120290167Y-109532057D01*
X120259929Y-109619143D01*
X120229690Y-109662686D01*
X120169214Y-109706229D01*
X119927309Y-109706229D01*
X120653024Y-109619143D02*
X120592548Y-109575600D01*
X120562309Y-109532057D01*
X120532071Y-109444971D01*
X120532071Y-109401429D01*
X120562309Y-109314343D01*
X120592548Y-109270800D01*
X120653024Y-109227257D01*
X120773976Y-109227257D01*
X120834452Y-109270800D01*
X120864690Y-109314343D01*
X120894929Y-109401429D01*
X120894929Y-109444971D01*
X120864690Y-109532057D01*
X120834452Y-109575600D01*
X120773976Y-109619143D01*
X120653024Y-109619143D01*
X120592548Y-109662686D01*
X120562309Y-109706229D01*
X120532071Y-109793314D01*
X120532071Y-109967486D01*
X120562309Y-110054571D01*
X120592548Y-110098114D01*
X120653024Y-110141657D01*
X120773976Y-110141657D01*
X120834452Y-110098114D01*
X120864690Y-110054571D01*
X120894929Y-109967486D01*
X120894929Y-109793314D01*
X120864690Y-109706229D01*
X120834452Y-109662686D01*
X120773976Y-109619143D01*
X123222657Y-106785833D02*
X122787229Y-106997500D01*
X123222657Y-107148691D02*
X122308257Y-107148691D01*
X122308257Y-106906786D01*
X122351800Y-106846310D01*
X122395343Y-106816071D01*
X122482429Y-106785833D01*
X122613057Y-106785833D01*
X122700143Y-106816071D01*
X122743686Y-106846310D01*
X122787229Y-106906786D01*
X122787229Y-107148691D01*
X123222657Y-106483452D02*
X123222657Y-106362500D01*
X123179114Y-106302024D01*
X123135571Y-106271786D01*
X123004943Y-106211310D01*
X122830771Y-106181071D01*
X122482429Y-106181071D01*
X122395343Y-106211310D01*
X122351800Y-106241548D01*
X122308257Y-106302024D01*
X122308257Y-106422976D01*
X122351800Y-106483452D01*
X122395343Y-106513691D01*
X122482429Y-106543929D01*
X122700143Y-106543929D01*
X122787229Y-106513691D01*
X122830771Y-106483452D01*
X122874314Y-106422976D01*
X122874314Y-106302024D01*
X122830771Y-106241548D01*
X122787229Y-106211310D01*
X122700143Y-106181071D01*
X126464786Y-111919657D02*
X126253119Y-111484229D01*
X126101928Y-111919657D02*
X126101928Y-111005257D01*
X126343833Y-111005257D01*
X126404309Y-111048800D01*
X126434548Y-111092343D01*
X126464786Y-111179429D01*
X126464786Y-111310057D01*
X126434548Y-111397143D01*
X126404309Y-111440686D01*
X126343833Y-111484229D01*
X126101928Y-111484229D01*
X127069548Y-111919657D02*
X126706690Y-111919657D01*
X126888119Y-111919657D02*
X126888119Y-111005257D01*
X126827643Y-111135886D01*
X126767167Y-111222971D01*
X126706690Y-111266514D01*
X127462643Y-111005257D02*
X127523119Y-111005257D01*
X127583595Y-111048800D01*
X127613833Y-111092343D01*
X127644071Y-111179429D01*
X127674310Y-111353600D01*
X127674310Y-111571314D01*
X127644071Y-111745486D01*
X127613833Y-111832571D01*
X127583595Y-111876114D01*
X127523119Y-111919657D01*
X127462643Y-111919657D01*
X127402167Y-111876114D01*
X127371929Y-111832571D01*
X127341690Y-111745486D01*
X127311452Y-111571314D01*
X127311452Y-111353600D01*
X127341690Y-111179429D01*
X127371929Y-111092343D01*
X127402167Y-111048800D01*
X127462643Y-111005257D01*
X144939657Y-104294214D02*
X144504229Y-104505881D01*
X144939657Y-104657072D02*
X144025257Y-104657072D01*
X144025257Y-104415167D01*
X144068800Y-104354691D01*
X144112343Y-104324452D01*
X144199429Y-104294214D01*
X144330057Y-104294214D01*
X144417143Y-104324452D01*
X144460686Y-104354691D01*
X144504229Y-104415167D01*
X144504229Y-104657072D01*
X144939657Y-103689452D02*
X144939657Y-104052310D01*
X144939657Y-103870881D02*
X144025257Y-103870881D01*
X144155886Y-103931357D01*
X144242971Y-103991833D01*
X144286514Y-104052310D01*
X144939657Y-103084690D02*
X144939657Y-103447548D01*
X144939657Y-103266119D02*
X144025257Y-103266119D01*
X144155886Y-103326595D01*
X144242971Y-103387071D01*
X144286514Y-103447548D01*
X147419786Y-111284657D02*
X147208119Y-110849229D01*
X147056928Y-111284657D02*
X147056928Y-110370257D01*
X147298833Y-110370257D01*
X147359309Y-110413800D01*
X147389548Y-110457343D01*
X147419786Y-110544429D01*
X147419786Y-110675057D01*
X147389548Y-110762143D01*
X147359309Y-110805686D01*
X147298833Y-110849229D01*
X147056928Y-110849229D01*
X148024548Y-111284657D02*
X147661690Y-111284657D01*
X147843119Y-111284657D02*
X147843119Y-110370257D01*
X147782643Y-110500886D01*
X147722167Y-110587971D01*
X147661690Y-110631514D01*
X148266452Y-110457343D02*
X148296690Y-110413800D01*
X148357167Y-110370257D01*
X148508357Y-110370257D01*
X148568833Y-110413800D01*
X148599071Y-110457343D01*
X148629310Y-110544429D01*
X148629310Y-110631514D01*
X148599071Y-110762143D01*
X148236214Y-111284657D01*
X148629310Y-111284657D01*
X148241657Y-107215214D02*
X147806229Y-107426881D01*
X148241657Y-107578072D02*
X147327257Y-107578072D01*
X147327257Y-107336167D01*
X147370800Y-107275691D01*
X147414343Y-107245452D01*
X147501429Y-107215214D01*
X147632057Y-107215214D01*
X147719143Y-107245452D01*
X147762686Y-107275691D01*
X147806229Y-107336167D01*
X147806229Y-107578072D01*
X148241657Y-106610452D02*
X148241657Y-106973310D01*
X148241657Y-106791881D02*
X147327257Y-106791881D01*
X147457886Y-106852357D01*
X147544971Y-106912833D01*
X147588514Y-106973310D01*
X147327257Y-106398786D02*
X147327257Y-106005690D01*
X147675600Y-106217357D01*
X147675600Y-106126643D01*
X147719143Y-106066167D01*
X147762686Y-106035929D01*
X147849771Y-106005690D01*
X148067486Y-106005690D01*
X148154571Y-106035929D01*
X148198114Y-106066167D01*
X148241657Y-106126643D01*
X148241657Y-106308071D01*
X148198114Y-106368548D01*
X148154571Y-106398786D01*
X128040190Y-79382257D02*
X128040190Y-80122486D01*
X128070429Y-80209571D01*
X128100667Y-80253114D01*
X128161143Y-80296657D01*
X128282095Y-80296657D01*
X128342571Y-80253114D01*
X128372810Y-80209571D01*
X128403048Y-80122486D01*
X128403048Y-79382257D01*
X128675190Y-79469343D02*
X128705428Y-79425800D01*
X128765905Y-79382257D01*
X128917095Y-79382257D01*
X128977571Y-79425800D01*
X129007809Y-79469343D01*
X129038048Y-79556429D01*
X129038048Y-79643514D01*
X129007809Y-79774143D01*
X128644952Y-80296657D01*
X129038048Y-80296657D01*
X157885190Y-81922257D02*
X157885190Y-82662486D01*
X157915429Y-82749571D01*
X157945667Y-82793114D01*
X158006143Y-82836657D01*
X158127095Y-82836657D01*
X158187571Y-82793114D01*
X158217810Y-82749571D01*
X158248048Y-82662486D01*
X158248048Y-81922257D01*
X158489952Y-81922257D02*
X158883048Y-81922257D01*
X158671381Y-82270600D01*
X158762095Y-82270600D01*
X158822571Y-82314143D01*
X158852809Y-82357686D01*
X158883048Y-82444771D01*
X158883048Y-82662486D01*
X158852809Y-82749571D01*
X158822571Y-82793114D01*
X158762095Y-82836657D01*
X158580667Y-82836657D01*
X158520190Y-82793114D01*
X158489952Y-82749571D01*
D16*
X140326533Y-87630000D02*
X140834533Y-87630000D01*
X140936133Y-87651772D01*
X141003867Y-87695315D01*
X141037733Y-87760629D01*
X141037733Y-87804172D01*
X141037733Y-87412286D02*
X140326533Y-87412286D01*
X140326533Y-87238114D01*
X140360400Y-87194572D01*
X140394267Y-87172800D01*
X140462000Y-87151029D01*
X140563600Y-87151029D01*
X140631333Y-87172800D01*
X140665200Y-87194572D01*
X140699067Y-87238114D01*
X140699067Y-87412286D01*
X141037733Y-86715600D02*
X141037733Y-86976857D01*
X141037733Y-86846229D02*
X140326533Y-86846229D01*
X140428133Y-86889772D01*
X140495867Y-86933314D01*
X140529733Y-86976857D01*
X120650000Y-102607533D02*
X120650000Y-103115533D01*
X120628228Y-103217133D01*
X120584685Y-103284867D01*
X120519371Y-103318733D01*
X120475828Y-103318733D01*
X120867714Y-103318733D02*
X120867714Y-102607533D01*
X121041886Y-102607533D01*
X121085428Y-102641400D01*
X121107200Y-102675267D01*
X121128971Y-102743000D01*
X121128971Y-102844600D01*
X121107200Y-102912333D01*
X121085428Y-102946200D01*
X121041886Y-102980067D01*
X120867714Y-102980067D01*
X121303143Y-102675267D02*
X121324914Y-102641400D01*
X121368457Y-102607533D01*
X121477314Y-102607533D01*
X121520857Y-102641400D01*
X121542628Y-102675267D01*
X121564400Y-102743000D01*
X121564400Y-102810733D01*
X121542628Y-102912333D01*
X121281371Y-103318733D01*
X121564400Y-103318733D01*
X145669000Y-102988533D02*
X145669000Y-103496533D01*
X145647228Y-103598133D01*
X145603685Y-103665867D01*
X145538371Y-103699733D01*
X145494828Y-103699733D01*
X145886714Y-103699733D02*
X145886714Y-102988533D01*
X146060886Y-102988533D01*
X146104428Y-103022400D01*
X146126200Y-103056267D01*
X146147971Y-103124000D01*
X146147971Y-103225600D01*
X146126200Y-103293333D01*
X146104428Y-103327200D01*
X146060886Y-103361067D01*
X145886714Y-103361067D01*
X146300371Y-102988533D02*
X146583400Y-102988533D01*
X146431000Y-103259467D01*
X146496314Y-103259467D01*
X146539857Y-103293333D01*
X146561628Y-103327200D01*
X146583400Y-103394933D01*
X146583400Y-103564267D01*
X146561628Y-103632000D01*
X146539857Y-103665867D01*
X146496314Y-103699733D01*
X146365686Y-103699733D01*
X146322143Y-103665867D01*
X146300371Y-103632000D01*
D15*
X134136190Y-103131257D02*
X134136190Y-103871486D01*
X134166429Y-103958571D01*
X134196667Y-104002114D01*
X134257143Y-104045657D01*
X134378095Y-104045657D01*
X134438571Y-104002114D01*
X134468810Y-103958571D01*
X134499048Y-103871486D01*
X134499048Y-103131257D01*
X135103809Y-103131257D02*
X134801428Y-103131257D01*
X134771190Y-103566686D01*
X134801428Y-103523143D01*
X134861905Y-103479600D01*
X135013095Y-103479600D01*
X135073571Y-103523143D01*
X135103809Y-103566686D01*
X135134048Y-103653771D01*
X135134048Y-103871486D01*
X135103809Y-103958571D01*
X135073571Y-104002114D01*
X135013095Y-104045657D01*
X134861905Y-104045657D01*
X134801428Y-104002114D01*
X134771190Y-103958571D01*
D16*
X112750600Y-106925533D02*
X112750600Y-107433533D01*
X112728828Y-107535133D01*
X112685285Y-107602867D01*
X112619971Y-107636733D01*
X112576428Y-107636733D01*
X113207800Y-107636733D02*
X112946543Y-107636733D01*
X113077171Y-107636733D02*
X113077171Y-106925533D01*
X113033628Y-107027133D01*
X112990086Y-107094867D01*
X112946543Y-107128733D01*
X149165733Y-81109457D02*
X148454533Y-81109457D01*
X148454533Y-81000600D01*
X148488400Y-80935285D01*
X148556133Y-80891743D01*
X148623867Y-80869971D01*
X148759333Y-80848200D01*
X148860933Y-80848200D01*
X148996400Y-80869971D01*
X149064133Y-80891743D01*
X149131867Y-80935285D01*
X149165733Y-81000600D01*
X149165733Y-81109457D01*
X148522267Y-80674028D02*
X148488400Y-80652257D01*
X148454533Y-80608714D01*
X148454533Y-80499857D01*
X148488400Y-80456314D01*
X148522267Y-80434543D01*
X148590000Y-80412771D01*
X148657733Y-80412771D01*
X148759333Y-80434543D01*
X149165733Y-80695800D01*
X149165733Y-80412771D01*
D14*
X151006714Y-83974857D02*
X150244714Y-83974857D01*
X150244714Y-83793429D01*
X150281000Y-83684572D01*
X150353571Y-83612000D01*
X150426143Y-83575715D01*
X150571286Y-83539429D01*
X150680143Y-83539429D01*
X150825286Y-83575715D01*
X150897857Y-83612000D01*
X150970429Y-83684572D01*
X151006714Y-83793429D01*
X151006714Y-83974857D01*
X151079286Y-83394286D02*
X151079286Y-82813715D01*
X150970429Y-82668572D02*
X151006714Y-82559715D01*
X151006714Y-82378286D01*
X150970429Y-82305715D01*
X150934143Y-82269429D01*
X150861571Y-82233144D01*
X150789000Y-82233144D01*
X150716429Y-82269429D01*
X150680143Y-82305715D01*
X150643857Y-82378286D01*
X150607571Y-82523429D01*
X150571286Y-82596001D01*
X150535000Y-82632286D01*
X150462429Y-82668572D01*
X150389857Y-82668572D01*
X150317286Y-82632286D01*
X150281000Y-82596001D01*
X150244714Y-82523429D01*
X150244714Y-82342001D01*
X150281000Y-82233144D01*
X150970429Y-81580001D02*
X151006714Y-81652572D01*
X151006714Y-81797715D01*
X150970429Y-81870287D01*
X150934143Y-81906572D01*
X150861571Y-81942858D01*
X150643857Y-81942858D01*
X150571286Y-81906572D01*
X150535000Y-81870287D01*
X150498714Y-81797715D01*
X150498714Y-81652572D01*
X150535000Y-81580001D01*
X151006714Y-81253429D02*
X150244714Y-81253429D01*
X151006714Y-80926858D02*
X150607571Y-80926858D01*
X150535000Y-80963144D01*
X150498714Y-81035715D01*
X150498714Y-81144572D01*
X150535000Y-81217144D01*
X150571286Y-81253429D01*
X151006714Y-80455143D02*
X150970429Y-80527715D01*
X150934143Y-80564000D01*
X150861571Y-80600286D01*
X150643857Y-80600286D01*
X150571286Y-80564000D01*
X150535000Y-80527715D01*
X150498714Y-80455143D01*
X150498714Y-80346286D01*
X150535000Y-80273715D01*
X150571286Y-80237429D01*
X150643857Y-80201143D01*
X150861571Y-80201143D01*
X150934143Y-80237429D01*
X150970429Y-80273715D01*
X151006714Y-80346286D01*
X151006714Y-80455143D01*
X150498714Y-79983429D02*
X150498714Y-79693143D01*
X150244714Y-79874571D02*
X150897857Y-79874571D01*
X150970429Y-79838286D01*
X151006714Y-79765714D01*
X151006714Y-79693143D01*
X150498714Y-79548000D02*
X150498714Y-79257714D01*
X150244714Y-79439142D02*
X150897857Y-79439142D01*
X150970429Y-79402857D01*
X151006714Y-79330285D01*
X151006714Y-79257714D01*
X151006714Y-79003713D02*
X150244714Y-79003713D01*
X150716429Y-78931142D02*
X151006714Y-78713428D01*
X150498714Y-78713428D02*
X150789000Y-79003713D01*
X150498714Y-78459428D02*
X151006714Y-78277999D01*
X150498714Y-78096571D02*
X151006714Y-78277999D01*
X151188143Y-78350571D01*
X151224429Y-78386856D01*
X151260714Y-78459428D01*
D12*
X126492095Y-99131381D02*
X126492095Y-98131381D01*
X126492095Y-98607571D02*
X127063524Y-98607571D01*
X127063524Y-99131381D02*
X127063524Y-98131381D01*
X128063524Y-99131381D02*
X127492095Y-99131381D01*
X127777809Y-99131381D02*
X127777809Y-98131381D01*
X127682571Y-98274238D01*
X127587333Y-98369476D01*
X127492095Y-98417095D01*
X142240095Y-119959381D02*
X142240095Y-118959381D01*
X142240095Y-119435571D02*
X142811524Y-119435571D01*
X142811524Y-119959381D02*
X142811524Y-118959381D01*
X143240095Y-119054619D02*
X143287714Y-119007000D01*
X143382952Y-118959381D01*
X143621048Y-118959381D01*
X143716286Y-119007000D01*
X143763905Y-119054619D01*
X143811524Y-119149857D01*
X143811524Y-119245095D01*
X143763905Y-119387952D01*
X143192476Y-119959381D01*
X143811524Y-119959381D01*
X163068095Y-102179381D02*
X163068095Y-101179381D01*
X163068095Y-101655571D02*
X163639524Y-101655571D01*
X163639524Y-102179381D02*
X163639524Y-101179381D01*
X164020476Y-101179381D02*
X164639524Y-101179381D01*
X164306190Y-101560333D01*
X164449048Y-101560333D01*
X164544286Y-101607952D01*
X164591905Y-101655571D01*
X164639524Y-101750810D01*
X164639524Y-101988905D01*
X164591905Y-102084143D01*
X164544286Y-102131762D01*
X164449048Y-102179381D01*
X164163333Y-102179381D01*
X164068095Y-102131762D01*
X164020476Y-102084143D01*
D15*
X118578690Y-110116257D02*
X118941547Y-110116257D01*
X118760119Y-111030657D02*
X118760119Y-110116257D01*
X119516072Y-111030657D02*
X119304405Y-110595229D01*
X119153214Y-111030657D02*
X119153214Y-110116257D01*
X119395119Y-110116257D01*
X119455595Y-110159800D01*
X119485834Y-110203343D01*
X119516072Y-110290429D01*
X119516072Y-110421057D01*
X119485834Y-110508143D01*
X119455595Y-110551686D01*
X119395119Y-110595229D01*
X119153214Y-110595229D01*
X120120834Y-111030657D02*
X119757976Y-111030657D01*
X119939405Y-111030657D02*
X119939405Y-110116257D01*
X119878929Y-110246886D01*
X119818453Y-110333971D01*
X119757976Y-110377514D01*
X146010690Y-114688257D02*
X146373547Y-114688257D01*
X146192119Y-115602657D02*
X146192119Y-114688257D01*
X146948072Y-115602657D02*
X146736405Y-115167229D01*
X146585214Y-115602657D02*
X146585214Y-114688257D01*
X146827119Y-114688257D01*
X146887595Y-114731800D01*
X146917834Y-114775343D01*
X146948072Y-114862429D01*
X146948072Y-114993057D01*
X146917834Y-115080143D01*
X146887595Y-115123686D01*
X146827119Y-115167229D01*
X146585214Y-115167229D01*
X147189976Y-114775343D02*
X147220214Y-114731800D01*
X147280691Y-114688257D01*
X147431881Y-114688257D01*
X147492357Y-114731800D01*
X147522595Y-114775343D01*
X147552834Y-114862429D01*
X147552834Y-114949514D01*
X147522595Y-115080143D01*
X147159738Y-115602657D01*
X147552834Y-115602657D01*
X120657257Y-118085810D02*
X121397486Y-118085810D01*
X121484571Y-118055571D01*
X121528114Y-118025333D01*
X121571657Y-117964857D01*
X121571657Y-117843905D01*
X121528114Y-117783429D01*
X121484571Y-117753190D01*
X121397486Y-117722952D01*
X120657257Y-117722952D01*
X121571657Y-117087952D02*
X121571657Y-117450810D01*
X121571657Y-117269381D02*
X120657257Y-117269381D01*
X120787886Y-117329857D01*
X120874971Y-117390333D01*
X120918514Y-117450810D01*
X147327257Y-109576810D02*
X148067486Y-109576810D01*
X148154571Y-109546571D01*
X148198114Y-109516333D01*
X148241657Y-109455857D01*
X148241657Y-109334905D01*
X148198114Y-109274429D01*
X148154571Y-109244190D01*
X148067486Y-109213952D01*
X147327257Y-109213952D01*
X147632057Y-108639429D02*
X148241657Y-108639429D01*
X147283714Y-108790619D02*
X147936857Y-108941810D01*
X147936857Y-108548714D01*
M02*
