G04 #@! TF.FileFunction,Legend,Bot*
%FSLAX46Y46*%
G04 Gerber Fmt 4.6, Leading zero omitted, Abs format (unit mm)*
G04 Created by KiCad (PCBNEW 4.0.2-stable) date 25/07/2016 02:37:25 p.m.*
%MOMM*%
G01*
G04 APERTURE LIST*
%ADD10C,0.100000*%
%ADD11C,0.257500*%
%ADD12C,0.002540*%
G04 APERTURE END LIST*
D10*
D11*
X129242214Y-99890429D02*
X129313643Y-99841381D01*
X129385071Y-99694238D01*
X129385071Y-99596143D01*
X129313643Y-99449000D01*
X129170786Y-99350905D01*
X129027929Y-99301857D01*
X128742214Y-99252809D01*
X128527929Y-99252809D01*
X128242214Y-99301857D01*
X128099357Y-99350905D01*
X127956500Y-99449000D01*
X127885071Y-99596143D01*
X127885071Y-99694238D01*
X127956500Y-99841381D01*
X128027929Y-99890429D01*
X128599357Y-100331857D02*
X128599357Y-100675190D01*
X129385071Y-100822333D02*
X129385071Y-100331857D01*
X127885071Y-100331857D01*
X127885071Y-100822333D01*
X129313643Y-101214714D02*
X129385071Y-101361857D01*
X129385071Y-101607095D01*
X129313643Y-101705191D01*
X129242214Y-101754238D01*
X129099357Y-101803286D01*
X128956500Y-101803286D01*
X128813643Y-101754238D01*
X128742214Y-101705191D01*
X128670786Y-101607095D01*
X128599357Y-101410905D01*
X128527929Y-101312810D01*
X128456500Y-101263762D01*
X128313643Y-101214714D01*
X128170786Y-101214714D01*
X128027929Y-101263762D01*
X127956500Y-101312810D01*
X127885071Y-101410905D01*
X127885071Y-101656143D01*
X127956500Y-101803286D01*
X128599357Y-102244714D02*
X128599357Y-102588047D01*
X129385071Y-102735190D02*
X129385071Y-102244714D01*
X127885071Y-102244714D01*
X127885071Y-102735190D01*
X128813643Y-104746143D02*
X128813643Y-105530905D01*
X128956500Y-106757095D02*
X128956500Y-107247572D01*
X129385071Y-106659000D02*
X127885071Y-107002334D01*
X129385071Y-107345667D01*
X129385071Y-107689000D02*
X128385071Y-107689000D01*
X127885071Y-107689000D02*
X127956500Y-107639952D01*
X128027929Y-107689000D01*
X127956500Y-107738048D01*
X127885071Y-107689000D01*
X128027929Y-107689000D01*
X129313643Y-108130428D02*
X129385071Y-108228524D01*
X129385071Y-108424714D01*
X129313643Y-108522809D01*
X129170786Y-108571857D01*
X129099357Y-108571857D01*
X128956500Y-108522809D01*
X128885071Y-108424714D01*
X128885071Y-108277571D01*
X128813643Y-108179476D01*
X128670786Y-108130428D01*
X128599357Y-108130428D01*
X128456500Y-108179476D01*
X128385071Y-108277571D01*
X128385071Y-108424714D01*
X128456500Y-108522809D01*
X129385071Y-109160429D02*
X129313643Y-109062334D01*
X129170786Y-109013286D01*
X127885071Y-109013286D01*
X129385071Y-109994239D02*
X128599357Y-109994239D01*
X128456500Y-109945191D01*
X128385071Y-109847096D01*
X128385071Y-109650905D01*
X128456500Y-109552810D01*
X129313643Y-109994239D02*
X129385071Y-109896143D01*
X129385071Y-109650905D01*
X129313643Y-109552810D01*
X129170786Y-109503762D01*
X129027929Y-109503762D01*
X128885071Y-109552810D01*
X128813643Y-109650905D01*
X128813643Y-109896143D01*
X128742214Y-109994239D01*
X129313643Y-110926144D02*
X129385071Y-110828048D01*
X129385071Y-110631858D01*
X129313643Y-110533763D01*
X129242214Y-110484715D01*
X129099357Y-110435667D01*
X128670786Y-110435667D01*
X128527929Y-110484715D01*
X128456500Y-110533763D01*
X128385071Y-110631858D01*
X128385071Y-110828048D01*
X128456500Y-110926144D01*
X129385071Y-111367572D02*
X128385071Y-111367572D01*
X127885071Y-111367572D02*
X127956500Y-111318524D01*
X128027929Y-111367572D01*
X127956500Y-111416620D01*
X127885071Y-111367572D01*
X128027929Y-111367572D01*
X129385071Y-112005191D02*
X129313643Y-111907096D01*
X129242214Y-111858048D01*
X129099357Y-111809000D01*
X128670786Y-111809000D01*
X128527929Y-111858048D01*
X128456500Y-111907096D01*
X128385071Y-112005191D01*
X128385071Y-112152334D01*
X128456500Y-112250429D01*
X128527929Y-112299477D01*
X128670786Y-112348524D01*
X129099357Y-112348524D01*
X129242214Y-112299477D01*
X129313643Y-112250429D01*
X129385071Y-112152334D01*
X129385071Y-112005191D01*
X128385071Y-112789953D02*
X129385071Y-112789953D01*
X128527929Y-112789953D02*
X128456500Y-112839001D01*
X128385071Y-112937096D01*
X128385071Y-113084239D01*
X128456500Y-113182334D01*
X128599357Y-113231382D01*
X129385071Y-113231382D01*
X127885071Y-114506620D02*
X129099357Y-114506620D01*
X129242214Y-114555668D01*
X129313643Y-114604715D01*
X129385071Y-114702811D01*
X129385071Y-114899001D01*
X129313643Y-114997096D01*
X129242214Y-115046144D01*
X129099357Y-115095192D01*
X127885071Y-115095192D01*
X129313643Y-115536620D02*
X129385071Y-115683763D01*
X129385071Y-115929001D01*
X129313643Y-116027097D01*
X129242214Y-116076144D01*
X129099357Y-116125192D01*
X128956500Y-116125192D01*
X128813643Y-116076144D01*
X128742214Y-116027097D01*
X128670786Y-115929001D01*
X128599357Y-115732811D01*
X128527929Y-115634716D01*
X128456500Y-115585668D01*
X128313643Y-115536620D01*
X128170786Y-115536620D01*
X128027929Y-115585668D01*
X127956500Y-115634716D01*
X127885071Y-115732811D01*
X127885071Y-115978049D01*
X127956500Y-116125192D01*
X128599357Y-116909953D02*
X128670786Y-117057096D01*
X128742214Y-117106144D01*
X128885071Y-117155192D01*
X129099357Y-117155192D01*
X129242214Y-117106144D01*
X129313643Y-117057096D01*
X129385071Y-116959001D01*
X129385071Y-116566620D01*
X127885071Y-116566620D01*
X127885071Y-116909953D01*
X127956500Y-117008049D01*
X128027929Y-117057096D01*
X128170786Y-117106144D01*
X128313643Y-117106144D01*
X128456500Y-117057096D01*
X128527929Y-117008049D01*
X128599357Y-116909953D01*
X128599357Y-116566620D01*
X131742571Y-96947571D02*
X130242571Y-96947571D01*
X130242571Y-97192809D01*
X130314000Y-97339952D01*
X130456857Y-97438047D01*
X130599714Y-97487095D01*
X130885429Y-97536143D01*
X131099714Y-97536143D01*
X131385429Y-97487095D01*
X131528286Y-97438047D01*
X131671143Y-97339952D01*
X131742571Y-97192809D01*
X131742571Y-96947571D01*
X131742571Y-97977571D02*
X130742571Y-97977571D01*
X130242571Y-97977571D02*
X130314000Y-97928523D01*
X130385429Y-97977571D01*
X130314000Y-98026619D01*
X130242571Y-97977571D01*
X130385429Y-97977571D01*
X131671143Y-98418999D02*
X131742571Y-98517095D01*
X131742571Y-98713285D01*
X131671143Y-98811380D01*
X131528286Y-98860428D01*
X131456857Y-98860428D01*
X131314000Y-98811380D01*
X131242571Y-98713285D01*
X131242571Y-98566142D01*
X131171143Y-98468047D01*
X131028286Y-98418999D01*
X130956857Y-98418999D01*
X130814000Y-98468047D01*
X130742571Y-98566142D01*
X130742571Y-98713285D01*
X130814000Y-98811380D01*
X131671143Y-99694238D02*
X131742571Y-99596143D01*
X131742571Y-99399952D01*
X131671143Y-99301857D01*
X131528286Y-99252809D01*
X130956857Y-99252809D01*
X130814000Y-99301857D01*
X130742571Y-99399952D01*
X130742571Y-99596143D01*
X130814000Y-99694238D01*
X130956857Y-99743286D01*
X131099714Y-99743286D01*
X131242571Y-99252809D01*
X130742571Y-100184714D02*
X131742571Y-100184714D01*
X130885429Y-100184714D02*
X130814000Y-100233762D01*
X130742571Y-100331857D01*
X130742571Y-100479000D01*
X130814000Y-100577095D01*
X130956857Y-100626143D01*
X131742571Y-100626143D01*
X130385429Y-100135666D02*
X130314000Y-100184714D01*
X130242571Y-100282809D01*
X130385429Y-100479000D01*
X130314000Y-100577095D01*
X130242571Y-100626143D01*
X131742571Y-101263762D02*
X131671143Y-101165667D01*
X131599714Y-101116619D01*
X131456857Y-101067571D01*
X131028286Y-101067571D01*
X130885429Y-101116619D01*
X130814000Y-101165667D01*
X130742571Y-101263762D01*
X130742571Y-101410905D01*
X130814000Y-101509000D01*
X130885429Y-101558048D01*
X131028286Y-101607095D01*
X131456857Y-101607095D01*
X131599714Y-101558048D01*
X131671143Y-101509000D01*
X131742571Y-101410905D01*
X131742571Y-101263762D01*
X131742571Y-103274715D02*
X130242571Y-103274715D01*
X131671143Y-103274715D02*
X131742571Y-103176619D01*
X131742571Y-102980429D01*
X131671143Y-102882334D01*
X131599714Y-102833286D01*
X131456857Y-102784238D01*
X131028286Y-102784238D01*
X130885429Y-102833286D01*
X130814000Y-102882334D01*
X130742571Y-102980429D01*
X130742571Y-103176619D01*
X130814000Y-103274715D01*
X131671143Y-104157572D02*
X131742571Y-104059477D01*
X131742571Y-103863286D01*
X131671143Y-103765191D01*
X131528286Y-103716143D01*
X130956857Y-103716143D01*
X130814000Y-103765191D01*
X130742571Y-103863286D01*
X130742571Y-104059477D01*
X130814000Y-104157572D01*
X130956857Y-104206620D01*
X131099714Y-104206620D01*
X131242571Y-103716143D01*
X131599714Y-106021382D02*
X131671143Y-105972334D01*
X131742571Y-105825191D01*
X131742571Y-105727096D01*
X131671143Y-105579953D01*
X131528286Y-105481858D01*
X131385429Y-105432810D01*
X131099714Y-105383762D01*
X130885429Y-105383762D01*
X130599714Y-105432810D01*
X130456857Y-105481858D01*
X130314000Y-105579953D01*
X130242571Y-105727096D01*
X130242571Y-105825191D01*
X130314000Y-105972334D01*
X130385429Y-106021382D01*
X131742571Y-106462810D02*
X130742571Y-106462810D01*
X130242571Y-106462810D02*
X130314000Y-106413762D01*
X130385429Y-106462810D01*
X130314000Y-106511858D01*
X130242571Y-106462810D01*
X130385429Y-106462810D01*
X131742571Y-106953286D02*
X130742571Y-106953286D01*
X131028286Y-106953286D02*
X130885429Y-107002334D01*
X130814000Y-107051381D01*
X130742571Y-107149477D01*
X130742571Y-107247572D01*
X131671143Y-108032334D02*
X131742571Y-107934238D01*
X131742571Y-107738048D01*
X131671143Y-107639953D01*
X131599714Y-107590905D01*
X131456857Y-107541857D01*
X131028286Y-107541857D01*
X130885429Y-107590905D01*
X130814000Y-107639953D01*
X130742571Y-107738048D01*
X130742571Y-107934238D01*
X130814000Y-108032334D01*
X130742571Y-108915191D02*
X131742571Y-108915191D01*
X130742571Y-108473762D02*
X131528286Y-108473762D01*
X131671143Y-108522810D01*
X131742571Y-108620905D01*
X131742571Y-108768048D01*
X131671143Y-108866143D01*
X131599714Y-108915191D01*
X131742571Y-109405667D02*
X130742571Y-109405667D01*
X130242571Y-109405667D02*
X130314000Y-109356619D01*
X130385429Y-109405667D01*
X130314000Y-109454715D01*
X130242571Y-109405667D01*
X130385429Y-109405667D01*
X130742571Y-109749000D02*
X130742571Y-110141381D01*
X130242571Y-109896143D02*
X131528286Y-109896143D01*
X131671143Y-109945191D01*
X131742571Y-110043286D01*
X131742571Y-110141381D01*
X131742571Y-110631857D02*
X131671143Y-110533762D01*
X131599714Y-110484714D01*
X131456857Y-110435666D01*
X131028286Y-110435666D01*
X130885429Y-110484714D01*
X130814000Y-110533762D01*
X130742571Y-110631857D01*
X130742571Y-110779000D01*
X130814000Y-110877095D01*
X130885429Y-110926143D01*
X131028286Y-110975190D01*
X131456857Y-110975190D01*
X131599714Y-110926143D01*
X131671143Y-110877095D01*
X131742571Y-110779000D01*
X131742571Y-110631857D01*
X131671143Y-111367571D02*
X131742571Y-111465667D01*
X131742571Y-111661857D01*
X131671143Y-111759952D01*
X131528286Y-111809000D01*
X131456857Y-111809000D01*
X131314000Y-111759952D01*
X131242571Y-111661857D01*
X131242571Y-111514714D01*
X131171143Y-111416619D01*
X131028286Y-111367571D01*
X130956857Y-111367571D01*
X130814000Y-111416619D01*
X130742571Y-111514714D01*
X130742571Y-111661857D01*
X130814000Y-111759952D01*
X131742571Y-113035191D02*
X130242571Y-113035191D01*
X131742571Y-113525667D02*
X130742571Y-113525667D01*
X130885429Y-113525667D02*
X130814000Y-113574715D01*
X130742571Y-113672810D01*
X130742571Y-113819953D01*
X130814000Y-113918048D01*
X130956857Y-113967096D01*
X131742571Y-113967096D01*
X130956857Y-113967096D02*
X130814000Y-114016143D01*
X130742571Y-114114239D01*
X130742571Y-114261381D01*
X130814000Y-114359477D01*
X130956857Y-114408524D01*
X131742571Y-114408524D01*
X130742571Y-114899000D02*
X132242571Y-114899000D01*
X130814000Y-114899000D02*
X130742571Y-114997095D01*
X130742571Y-115193286D01*
X130814000Y-115291381D01*
X130885429Y-115340429D01*
X131028286Y-115389476D01*
X131456857Y-115389476D01*
X131599714Y-115340429D01*
X131671143Y-115291381D01*
X131742571Y-115193286D01*
X131742571Y-114997095D01*
X131671143Y-114899000D01*
X131742571Y-115830905D02*
X130742571Y-115830905D01*
X131028286Y-115830905D02*
X130885429Y-115879953D01*
X130814000Y-115929000D01*
X130742571Y-116027096D01*
X130742571Y-116125191D01*
X131671143Y-116860905D02*
X131742571Y-116762810D01*
X131742571Y-116566619D01*
X131671143Y-116468524D01*
X131528286Y-116419476D01*
X130956857Y-116419476D01*
X130814000Y-116468524D01*
X130742571Y-116566619D01*
X130742571Y-116762810D01*
X130814000Y-116860905D01*
X130956857Y-116909953D01*
X131099714Y-116909953D01*
X131242571Y-116419476D01*
X131671143Y-117302333D02*
X131742571Y-117400429D01*
X131742571Y-117596619D01*
X131671143Y-117694714D01*
X131528286Y-117743762D01*
X131456857Y-117743762D01*
X131314000Y-117694714D01*
X131242571Y-117596619D01*
X131242571Y-117449476D01*
X131171143Y-117351381D01*
X131028286Y-117302333D01*
X130956857Y-117302333D01*
X130814000Y-117351381D01*
X130742571Y-117449476D01*
X130742571Y-117596619D01*
X130814000Y-117694714D01*
X131742571Y-118332334D02*
X131671143Y-118234239D01*
X131599714Y-118185191D01*
X131456857Y-118136143D01*
X131028286Y-118136143D01*
X130885429Y-118185191D01*
X130814000Y-118234239D01*
X130742571Y-118332334D01*
X130742571Y-118479477D01*
X130814000Y-118577572D01*
X130885429Y-118626620D01*
X131028286Y-118675667D01*
X131456857Y-118675667D01*
X131599714Y-118626620D01*
X131671143Y-118577572D01*
X131742571Y-118479477D01*
X131742571Y-118332334D01*
X131671143Y-119068048D02*
X131742571Y-119166144D01*
X131742571Y-119362334D01*
X131671143Y-119460429D01*
X131528286Y-119509477D01*
X131456857Y-119509477D01*
X131314000Y-119460429D01*
X131242571Y-119362334D01*
X131242571Y-119215191D01*
X131171143Y-119117096D01*
X131028286Y-119068048D01*
X130956857Y-119068048D01*
X130814000Y-119117096D01*
X130742571Y-119215191D01*
X130742571Y-119362334D01*
X130814000Y-119460429D01*
X134100071Y-99056619D02*
X132600071Y-99056619D01*
X133671500Y-99399952D01*
X132600071Y-99743286D01*
X134100071Y-99743286D01*
X134100071Y-100675191D02*
X133314357Y-100675191D01*
X133171500Y-100626143D01*
X133100071Y-100528048D01*
X133100071Y-100331857D01*
X133171500Y-100233762D01*
X134028643Y-100675191D02*
X134100071Y-100577095D01*
X134100071Y-100331857D01*
X134028643Y-100233762D01*
X133885786Y-100184714D01*
X133742929Y-100184714D01*
X133600071Y-100233762D01*
X133528643Y-100331857D01*
X133528643Y-100577095D01*
X133457214Y-100675191D01*
X134100071Y-101165667D02*
X133100071Y-101165667D01*
X133385786Y-101165667D02*
X133242929Y-101214715D01*
X133171500Y-101263762D01*
X133100071Y-101361858D01*
X133100071Y-101459953D01*
X134028643Y-102244715D02*
X134100071Y-102146619D01*
X134100071Y-101950429D01*
X134028643Y-101852334D01*
X133957214Y-101803286D01*
X133814357Y-101754238D01*
X133385786Y-101754238D01*
X133242929Y-101803286D01*
X133171500Y-101852334D01*
X133100071Y-101950429D01*
X133100071Y-102146619D01*
X133171500Y-102244715D01*
X134100071Y-102833286D02*
X134028643Y-102735191D01*
X133957214Y-102686143D01*
X133814357Y-102637095D01*
X133385786Y-102637095D01*
X133242929Y-102686143D01*
X133171500Y-102735191D01*
X133100071Y-102833286D01*
X133100071Y-102980429D01*
X133171500Y-103078524D01*
X133242929Y-103127572D01*
X133385786Y-103176619D01*
X133814357Y-103176619D01*
X133957214Y-103127572D01*
X134028643Y-103078524D01*
X134100071Y-102980429D01*
X134100071Y-102833286D01*
X134028643Y-103569000D02*
X134100071Y-103667096D01*
X134100071Y-103863286D01*
X134028643Y-103961381D01*
X133885786Y-104010429D01*
X133814357Y-104010429D01*
X133671500Y-103961381D01*
X133600071Y-103863286D01*
X133600071Y-103716143D01*
X133528643Y-103618048D01*
X133385786Y-103569000D01*
X133314357Y-103569000D01*
X133171500Y-103618048D01*
X133100071Y-103716143D01*
X133100071Y-103863286D01*
X133171500Y-103961381D01*
X134100071Y-105236620D02*
X132600071Y-105236620D01*
X132600071Y-105481858D01*
X132671500Y-105629001D01*
X132814357Y-105727096D01*
X132957214Y-105776144D01*
X133242929Y-105825192D01*
X133457214Y-105825192D01*
X133742929Y-105776144D01*
X133885786Y-105727096D01*
X134028643Y-105629001D01*
X134100071Y-105481858D01*
X134100071Y-105236620D01*
X134100071Y-106708049D02*
X133314357Y-106708049D01*
X133171500Y-106659001D01*
X133100071Y-106560906D01*
X133100071Y-106364715D01*
X133171500Y-106266620D01*
X134028643Y-106708049D02*
X134100071Y-106609953D01*
X134100071Y-106364715D01*
X134028643Y-106266620D01*
X133885786Y-106217572D01*
X133742929Y-106217572D01*
X133600071Y-106266620D01*
X133528643Y-106364715D01*
X133528643Y-106609953D01*
X133457214Y-106708049D01*
X134100071Y-107198525D02*
X133100071Y-107198525D01*
X133385786Y-107198525D02*
X133242929Y-107247573D01*
X133171500Y-107296620D01*
X133100071Y-107394716D01*
X133100071Y-107492811D01*
X134100071Y-107836144D02*
X133100071Y-107836144D01*
X132600071Y-107836144D02*
X132671500Y-107787096D01*
X132742929Y-107836144D01*
X132671500Y-107885192D01*
X132600071Y-107836144D01*
X132742929Y-107836144D01*
X133100071Y-108326620D02*
X134100071Y-108326620D01*
X133242929Y-108326620D02*
X133171500Y-108375668D01*
X133100071Y-108473763D01*
X133100071Y-108620906D01*
X133171500Y-108719001D01*
X133314357Y-108768049D01*
X134100071Y-108768049D01*
X134100071Y-109405668D02*
X134028643Y-109307573D01*
X133957214Y-109258525D01*
X133814357Y-109209477D01*
X133385786Y-109209477D01*
X133242929Y-109258525D01*
X133171500Y-109307573D01*
X133100071Y-109405668D01*
X133100071Y-109552811D01*
X133171500Y-109650906D01*
X133242929Y-109699954D01*
X133385786Y-109749001D01*
X133814357Y-109749001D01*
X133957214Y-109699954D01*
X134028643Y-109650906D01*
X134100071Y-109552811D01*
X134100071Y-109405668D01*
X133528643Y-110975192D02*
X133528643Y-111759954D01*
X134100071Y-113623764D02*
X133385786Y-113280430D01*
X134100071Y-113035192D02*
X132600071Y-113035192D01*
X132600071Y-113427573D01*
X132671500Y-113525668D01*
X132742929Y-113574716D01*
X132885786Y-113623764D01*
X133100071Y-113623764D01*
X133242929Y-113574716D01*
X133314357Y-113525668D01*
X133385786Y-113427573D01*
X133385786Y-113035192D01*
X133314357Y-114065192D02*
X133314357Y-114408525D01*
X134100071Y-114555668D02*
X134100071Y-114065192D01*
X132600071Y-114065192D01*
X132600071Y-114555668D01*
X132600071Y-114849954D02*
X134100071Y-115193288D01*
X132600071Y-115536621D01*
X132600071Y-116076145D02*
X132600071Y-116174240D01*
X132671500Y-116272335D01*
X132742929Y-116321383D01*
X132885786Y-116370430D01*
X133171500Y-116419478D01*
X133528643Y-116419478D01*
X133814357Y-116370430D01*
X133957214Y-116321383D01*
X134028643Y-116272335D01*
X134100071Y-116174240D01*
X134100071Y-116076145D01*
X134028643Y-115978049D01*
X133957214Y-115929002D01*
X133814357Y-115879954D01*
X133528643Y-115830906D01*
X133171500Y-115830906D01*
X132885786Y-115879954D01*
X132742929Y-115929002D01*
X132671500Y-115978049D01*
X132600071Y-116076145D01*
X132600071Y-117057097D02*
X132600071Y-117155192D01*
X132671500Y-117253287D01*
X132742929Y-117302335D01*
X132885786Y-117351382D01*
X133171500Y-117400430D01*
X133528643Y-117400430D01*
X133814357Y-117351382D01*
X133957214Y-117302335D01*
X134028643Y-117253287D01*
X134100071Y-117155192D01*
X134100071Y-117057097D01*
X134028643Y-116959001D01*
X133957214Y-116909954D01*
X133814357Y-116860906D01*
X133528643Y-116811858D01*
X133171500Y-116811858D01*
X132885786Y-116860906D01*
X132742929Y-116909954D01*
X132671500Y-116959001D01*
X132600071Y-117057097D01*
D12*
G36*
X150911560Y-106796840D02*
X150891240Y-106837480D01*
X150832820Y-106931460D01*
X150743920Y-107066080D01*
X150639780Y-107223560D01*
X150530560Y-107381040D01*
X150444200Y-107510580D01*
X150385780Y-107602020D01*
X150365460Y-107640120D01*
X150370540Y-107660440D01*
X150408640Y-107736640D01*
X150464520Y-107845860D01*
X150497540Y-107909360D01*
X150540720Y-108008420D01*
X150550880Y-108059220D01*
X150535640Y-108066840D01*
X150459440Y-108104940D01*
X150327360Y-108160820D01*
X150154640Y-108237020D01*
X149951440Y-108323380D01*
X149733000Y-108417360D01*
X149509480Y-108508800D01*
X149296120Y-108597700D01*
X149105620Y-108676440D01*
X148950680Y-108739940D01*
X148841460Y-108780580D01*
X148795740Y-108795820D01*
X148785580Y-108790740D01*
X148737320Y-108739940D01*
X148671280Y-108653580D01*
X148516340Y-108463080D01*
X148282660Y-108277660D01*
X148018500Y-108163360D01*
X147723860Y-108125260D01*
X147452080Y-108158280D01*
X147190460Y-108264960D01*
X146954240Y-108447840D01*
X146778980Y-108668820D01*
X146667220Y-108927900D01*
X146631660Y-109220000D01*
X146662140Y-109499400D01*
X146768820Y-109766100D01*
X146949160Y-110002320D01*
X147063460Y-110101380D01*
X147302220Y-110238540D01*
X147558760Y-110317280D01*
X147622260Y-110324900D01*
X147904200Y-110314740D01*
X148173440Y-110230920D01*
X148414740Y-110083600D01*
X148610320Y-109877860D01*
X148630640Y-109849920D01*
X148701760Y-109755940D01*
X148750020Y-109692440D01*
X148790660Y-109641640D01*
X149651720Y-109999780D01*
X149788880Y-110055660D01*
X150025100Y-110154720D01*
X150228300Y-110241080D01*
X150388320Y-110309660D01*
X150497540Y-110357920D01*
X150540720Y-110378240D01*
X150543260Y-110380780D01*
X150548340Y-110411260D01*
X150522940Y-110477300D01*
X150464520Y-110596680D01*
X150423880Y-110677960D01*
X150380700Y-110769400D01*
X150365460Y-110810040D01*
X150383240Y-110845600D01*
X150441660Y-110931960D01*
X150525480Y-111061500D01*
X150629620Y-111213900D01*
X150731220Y-111361220D01*
X150820120Y-111495840D01*
X150881080Y-111594900D01*
X150909020Y-111643160D01*
X150909020Y-111650780D01*
X150883620Y-111691420D01*
X150820120Y-111770160D01*
X150708360Y-111887000D01*
X150545800Y-112052100D01*
X150520400Y-112077500D01*
X150380700Y-112214660D01*
X150263860Y-112326420D01*
X150182580Y-112400080D01*
X150144480Y-112425480D01*
X150144480Y-112425480D01*
X150096220Y-112402620D01*
X149999700Y-112339120D01*
X149862540Y-112250220D01*
X149702520Y-112141000D01*
X149288500Y-111856520D01*
X148897340Y-112014000D01*
X148777960Y-112062260D01*
X148633180Y-112123220D01*
X148529040Y-112166400D01*
X148483320Y-112191800D01*
X148468080Y-112232440D01*
X148442680Y-112341660D01*
X148409660Y-112496600D01*
X148376640Y-112679480D01*
X148343620Y-112857280D01*
X148313140Y-113017300D01*
X148290280Y-113131600D01*
X148280120Y-113182400D01*
X148272500Y-113195100D01*
X148247100Y-113205260D01*
X148193760Y-113212880D01*
X148097240Y-113215420D01*
X147944840Y-113217960D01*
X147723860Y-113217960D01*
X147701000Y-113217960D01*
X147490180Y-113215420D01*
X147322540Y-113212880D01*
X147213320Y-113207800D01*
X147170140Y-113200180D01*
X147170140Y-113200180D01*
X147157440Y-113149380D01*
X147134580Y-113037620D01*
X147101560Y-112877600D01*
X147066000Y-112687100D01*
X147063460Y-112676940D01*
X147027900Y-112486440D01*
X146994880Y-112328960D01*
X146969480Y-112217200D01*
X146954240Y-112171480D01*
X146941540Y-112161320D01*
X146867880Y-112123220D01*
X146751040Y-112067340D01*
X146606260Y-112006380D01*
X146458940Y-111942880D01*
X146324320Y-111889540D01*
X146225260Y-111853980D01*
X146179540Y-111843820D01*
X146179540Y-111843820D01*
X146133820Y-111871760D01*
X146034760Y-111937800D01*
X145900140Y-112029240D01*
X145737580Y-112141000D01*
X145724880Y-112148620D01*
X145564860Y-112257840D01*
X145430240Y-112346740D01*
X145333720Y-112405160D01*
X145290540Y-112425480D01*
X145288000Y-112425480D01*
X145239740Y-112389920D01*
X145150840Y-112308640D01*
X145028920Y-112191800D01*
X144886680Y-112052100D01*
X144843500Y-112006380D01*
X144691100Y-111851440D01*
X144592040Y-111744760D01*
X144538700Y-111676180D01*
X144526000Y-111643160D01*
X144528540Y-111643160D01*
X144556480Y-111594900D01*
X144622520Y-111493300D01*
X144716500Y-111356140D01*
X144825720Y-111193580D01*
X144833340Y-111183420D01*
X144942560Y-111023400D01*
X145031460Y-110891320D01*
X145094960Y-110794800D01*
X145120360Y-110754160D01*
X145120360Y-110746540D01*
X145100040Y-110683040D01*
X145061940Y-110568740D01*
X145006060Y-110429040D01*
X144947640Y-110281720D01*
X144891760Y-110147100D01*
X144843500Y-110045500D01*
X144818100Y-109997240D01*
X144815560Y-109997240D01*
X144757140Y-109979460D01*
X144637760Y-109951520D01*
X144472660Y-109918500D01*
X144277080Y-109880400D01*
X144246600Y-109875320D01*
X144056100Y-109839760D01*
X143898620Y-109809280D01*
X143789400Y-109786420D01*
X143743680Y-109773720D01*
X143738600Y-109748320D01*
X143730980Y-109654340D01*
X143728440Y-109512100D01*
X143725900Y-109339380D01*
X143728440Y-109159040D01*
X143730980Y-108983780D01*
X143736060Y-108831380D01*
X143743680Y-108724700D01*
X143753840Y-108678980D01*
X143756380Y-108676440D01*
X143814800Y-108661200D01*
X143934180Y-108635800D01*
X144099280Y-108600240D01*
X144297400Y-108562140D01*
X144330420Y-108557060D01*
X144520920Y-108521500D01*
X144675860Y-108488480D01*
X144785080Y-108465620D01*
X144825720Y-108452920D01*
X144835880Y-108437680D01*
X144868900Y-108358940D01*
X144922240Y-108231940D01*
X144985740Y-108071920D01*
X145135600Y-107706160D01*
X144825720Y-107259120D01*
X144797780Y-107215940D01*
X144688560Y-107055920D01*
X144599660Y-106921300D01*
X144541240Y-106829860D01*
X144518380Y-106791760D01*
X144520920Y-106789220D01*
X144559020Y-106743500D01*
X144642840Y-106654600D01*
X144762220Y-106532680D01*
X144901920Y-106392980D01*
X145006060Y-106288840D01*
X145133060Y-106164380D01*
X145216880Y-106085640D01*
X145272760Y-106042460D01*
X145305780Y-106027220D01*
X145326100Y-106032300D01*
X145371820Y-106060240D01*
X145470880Y-106126280D01*
X145608040Y-106217720D01*
X145765520Y-106326940D01*
X145900140Y-106418380D01*
X146050000Y-106514900D01*
X146156680Y-106578400D01*
X146210020Y-106601260D01*
X146232880Y-106596180D01*
X146319240Y-106563160D01*
X146453860Y-106509820D01*
X146611340Y-106443780D01*
X146966940Y-106286300D01*
X147010120Y-106052620D01*
X147038060Y-105912920D01*
X147076160Y-105714800D01*
X147111720Y-105526840D01*
X147170140Y-105232200D01*
X148252180Y-105222040D01*
X148272500Y-105267760D01*
X148285200Y-105310940D01*
X148308060Y-105420160D01*
X148338540Y-105575100D01*
X148374100Y-105760520D01*
X148404580Y-105915460D01*
X148432520Y-106075480D01*
X148455380Y-106187240D01*
X148465540Y-106238040D01*
X148483320Y-106250740D01*
X148559520Y-106291380D01*
X148681440Y-106347260D01*
X148828760Y-106408220D01*
X148978620Y-106471720D01*
X149118320Y-106527600D01*
X149225000Y-106568240D01*
X149280880Y-106580940D01*
X149324060Y-106560620D01*
X149415500Y-106499660D01*
X149547580Y-106413300D01*
X149705060Y-106306620D01*
X149862540Y-106197400D01*
X149997160Y-106108500D01*
X150093680Y-106045000D01*
X150136860Y-106019600D01*
X150167340Y-106032300D01*
X150243540Y-106093260D01*
X150365460Y-106212640D01*
X150540720Y-106387900D01*
X150568660Y-106418380D01*
X150703280Y-106558080D01*
X150812500Y-106677460D01*
X150886160Y-106758740D01*
X150911560Y-106796840D01*
X150911560Y-106796840D01*
G37*
X150911560Y-106796840D02*
X150891240Y-106837480D01*
X150832820Y-106931460D01*
X150743920Y-107066080D01*
X150639780Y-107223560D01*
X150530560Y-107381040D01*
X150444200Y-107510580D01*
X150385780Y-107602020D01*
X150365460Y-107640120D01*
X150370540Y-107660440D01*
X150408640Y-107736640D01*
X150464520Y-107845860D01*
X150497540Y-107909360D01*
X150540720Y-108008420D01*
X150550880Y-108059220D01*
X150535640Y-108066840D01*
X150459440Y-108104940D01*
X150327360Y-108160820D01*
X150154640Y-108237020D01*
X149951440Y-108323380D01*
X149733000Y-108417360D01*
X149509480Y-108508800D01*
X149296120Y-108597700D01*
X149105620Y-108676440D01*
X148950680Y-108739940D01*
X148841460Y-108780580D01*
X148795740Y-108795820D01*
X148785580Y-108790740D01*
X148737320Y-108739940D01*
X148671280Y-108653580D01*
X148516340Y-108463080D01*
X148282660Y-108277660D01*
X148018500Y-108163360D01*
X147723860Y-108125260D01*
X147452080Y-108158280D01*
X147190460Y-108264960D01*
X146954240Y-108447840D01*
X146778980Y-108668820D01*
X146667220Y-108927900D01*
X146631660Y-109220000D01*
X146662140Y-109499400D01*
X146768820Y-109766100D01*
X146949160Y-110002320D01*
X147063460Y-110101380D01*
X147302220Y-110238540D01*
X147558760Y-110317280D01*
X147622260Y-110324900D01*
X147904200Y-110314740D01*
X148173440Y-110230920D01*
X148414740Y-110083600D01*
X148610320Y-109877860D01*
X148630640Y-109849920D01*
X148701760Y-109755940D01*
X148750020Y-109692440D01*
X148790660Y-109641640D01*
X149651720Y-109999780D01*
X149788880Y-110055660D01*
X150025100Y-110154720D01*
X150228300Y-110241080D01*
X150388320Y-110309660D01*
X150497540Y-110357920D01*
X150540720Y-110378240D01*
X150543260Y-110380780D01*
X150548340Y-110411260D01*
X150522940Y-110477300D01*
X150464520Y-110596680D01*
X150423880Y-110677960D01*
X150380700Y-110769400D01*
X150365460Y-110810040D01*
X150383240Y-110845600D01*
X150441660Y-110931960D01*
X150525480Y-111061500D01*
X150629620Y-111213900D01*
X150731220Y-111361220D01*
X150820120Y-111495840D01*
X150881080Y-111594900D01*
X150909020Y-111643160D01*
X150909020Y-111650780D01*
X150883620Y-111691420D01*
X150820120Y-111770160D01*
X150708360Y-111887000D01*
X150545800Y-112052100D01*
X150520400Y-112077500D01*
X150380700Y-112214660D01*
X150263860Y-112326420D01*
X150182580Y-112400080D01*
X150144480Y-112425480D01*
X150144480Y-112425480D01*
X150096220Y-112402620D01*
X149999700Y-112339120D01*
X149862540Y-112250220D01*
X149702520Y-112141000D01*
X149288500Y-111856520D01*
X148897340Y-112014000D01*
X148777960Y-112062260D01*
X148633180Y-112123220D01*
X148529040Y-112166400D01*
X148483320Y-112191800D01*
X148468080Y-112232440D01*
X148442680Y-112341660D01*
X148409660Y-112496600D01*
X148376640Y-112679480D01*
X148343620Y-112857280D01*
X148313140Y-113017300D01*
X148290280Y-113131600D01*
X148280120Y-113182400D01*
X148272500Y-113195100D01*
X148247100Y-113205260D01*
X148193760Y-113212880D01*
X148097240Y-113215420D01*
X147944840Y-113217960D01*
X147723860Y-113217960D01*
X147701000Y-113217960D01*
X147490180Y-113215420D01*
X147322540Y-113212880D01*
X147213320Y-113207800D01*
X147170140Y-113200180D01*
X147170140Y-113200180D01*
X147157440Y-113149380D01*
X147134580Y-113037620D01*
X147101560Y-112877600D01*
X147066000Y-112687100D01*
X147063460Y-112676940D01*
X147027900Y-112486440D01*
X146994880Y-112328960D01*
X146969480Y-112217200D01*
X146954240Y-112171480D01*
X146941540Y-112161320D01*
X146867880Y-112123220D01*
X146751040Y-112067340D01*
X146606260Y-112006380D01*
X146458940Y-111942880D01*
X146324320Y-111889540D01*
X146225260Y-111853980D01*
X146179540Y-111843820D01*
X146179540Y-111843820D01*
X146133820Y-111871760D01*
X146034760Y-111937800D01*
X145900140Y-112029240D01*
X145737580Y-112141000D01*
X145724880Y-112148620D01*
X145564860Y-112257840D01*
X145430240Y-112346740D01*
X145333720Y-112405160D01*
X145290540Y-112425480D01*
X145288000Y-112425480D01*
X145239740Y-112389920D01*
X145150840Y-112308640D01*
X145028920Y-112191800D01*
X144886680Y-112052100D01*
X144843500Y-112006380D01*
X144691100Y-111851440D01*
X144592040Y-111744760D01*
X144538700Y-111676180D01*
X144526000Y-111643160D01*
X144528540Y-111643160D01*
X144556480Y-111594900D01*
X144622520Y-111493300D01*
X144716500Y-111356140D01*
X144825720Y-111193580D01*
X144833340Y-111183420D01*
X144942560Y-111023400D01*
X145031460Y-110891320D01*
X145094960Y-110794800D01*
X145120360Y-110754160D01*
X145120360Y-110746540D01*
X145100040Y-110683040D01*
X145061940Y-110568740D01*
X145006060Y-110429040D01*
X144947640Y-110281720D01*
X144891760Y-110147100D01*
X144843500Y-110045500D01*
X144818100Y-109997240D01*
X144815560Y-109997240D01*
X144757140Y-109979460D01*
X144637760Y-109951520D01*
X144472660Y-109918500D01*
X144277080Y-109880400D01*
X144246600Y-109875320D01*
X144056100Y-109839760D01*
X143898620Y-109809280D01*
X143789400Y-109786420D01*
X143743680Y-109773720D01*
X143738600Y-109748320D01*
X143730980Y-109654340D01*
X143728440Y-109512100D01*
X143725900Y-109339380D01*
X143728440Y-109159040D01*
X143730980Y-108983780D01*
X143736060Y-108831380D01*
X143743680Y-108724700D01*
X143753840Y-108678980D01*
X143756380Y-108676440D01*
X143814800Y-108661200D01*
X143934180Y-108635800D01*
X144099280Y-108600240D01*
X144297400Y-108562140D01*
X144330420Y-108557060D01*
X144520920Y-108521500D01*
X144675860Y-108488480D01*
X144785080Y-108465620D01*
X144825720Y-108452920D01*
X144835880Y-108437680D01*
X144868900Y-108358940D01*
X144922240Y-108231940D01*
X144985740Y-108071920D01*
X145135600Y-107706160D01*
X144825720Y-107259120D01*
X144797780Y-107215940D01*
X144688560Y-107055920D01*
X144599660Y-106921300D01*
X144541240Y-106829860D01*
X144518380Y-106791760D01*
X144520920Y-106789220D01*
X144559020Y-106743500D01*
X144642840Y-106654600D01*
X144762220Y-106532680D01*
X144901920Y-106392980D01*
X145006060Y-106288840D01*
X145133060Y-106164380D01*
X145216880Y-106085640D01*
X145272760Y-106042460D01*
X145305780Y-106027220D01*
X145326100Y-106032300D01*
X145371820Y-106060240D01*
X145470880Y-106126280D01*
X145608040Y-106217720D01*
X145765520Y-106326940D01*
X145900140Y-106418380D01*
X146050000Y-106514900D01*
X146156680Y-106578400D01*
X146210020Y-106601260D01*
X146232880Y-106596180D01*
X146319240Y-106563160D01*
X146453860Y-106509820D01*
X146611340Y-106443780D01*
X146966940Y-106286300D01*
X147010120Y-106052620D01*
X147038060Y-105912920D01*
X147076160Y-105714800D01*
X147111720Y-105526840D01*
X147170140Y-105232200D01*
X148252180Y-105222040D01*
X148272500Y-105267760D01*
X148285200Y-105310940D01*
X148308060Y-105420160D01*
X148338540Y-105575100D01*
X148374100Y-105760520D01*
X148404580Y-105915460D01*
X148432520Y-106075480D01*
X148455380Y-106187240D01*
X148465540Y-106238040D01*
X148483320Y-106250740D01*
X148559520Y-106291380D01*
X148681440Y-106347260D01*
X148828760Y-106408220D01*
X148978620Y-106471720D01*
X149118320Y-106527600D01*
X149225000Y-106568240D01*
X149280880Y-106580940D01*
X149324060Y-106560620D01*
X149415500Y-106499660D01*
X149547580Y-106413300D01*
X149705060Y-106306620D01*
X149862540Y-106197400D01*
X149997160Y-106108500D01*
X150093680Y-106045000D01*
X150136860Y-106019600D01*
X150167340Y-106032300D01*
X150243540Y-106093260D01*
X150365460Y-106212640D01*
X150540720Y-106387900D01*
X150568660Y-106418380D01*
X150703280Y-106558080D01*
X150812500Y-106677460D01*
X150886160Y-106758740D01*
X150911560Y-106796840D01*
M02*
