G04 #@! TF.FileFunction,Drawing*
%FSLAX46Y46*%
G04 Gerber Fmt 4.6, Leading zero omitted, Abs format (unit mm)*
G04 Created by KiCad (PCBNEW 4.0.2-stable) date 26/07/2016 20:14:39*
%MOMM*%
G01*
G04 APERTURE LIST*
%ADD10C,0.100000*%
%ADD11C,0.375000*%
%ADD12C,0.127000*%
G04 APERTURE END LIST*
D10*
D11*
X132140572Y-50784571D02*
X132140572Y-49284571D01*
X132640572Y-50356000D01*
X133140572Y-49284571D01*
X133140572Y-50784571D01*
X134497715Y-50784571D02*
X134497715Y-49998857D01*
X134426286Y-49856000D01*
X134283429Y-49784571D01*
X133997715Y-49784571D01*
X133854858Y-49856000D01*
X134497715Y-50713143D02*
X134354858Y-50784571D01*
X133997715Y-50784571D01*
X133854858Y-50713143D01*
X133783429Y-50570286D01*
X133783429Y-50427429D01*
X133854858Y-50284571D01*
X133997715Y-50213143D01*
X134354858Y-50213143D01*
X134497715Y-50141714D01*
X134997715Y-49784571D02*
X135569144Y-49784571D01*
X135212001Y-49284571D02*
X135212001Y-50570286D01*
X135283429Y-50713143D01*
X135426287Y-50784571D01*
X135569144Y-50784571D01*
X136640572Y-50713143D02*
X136497715Y-50784571D01*
X136212001Y-50784571D01*
X136069144Y-50713143D01*
X135997715Y-50570286D01*
X135997715Y-49998857D01*
X136069144Y-49856000D01*
X136212001Y-49784571D01*
X136497715Y-49784571D01*
X136640572Y-49856000D01*
X136712001Y-49998857D01*
X136712001Y-50141714D01*
X135997715Y-50284571D01*
X137354858Y-50784571D02*
X137354858Y-49784571D01*
X137354858Y-50070286D02*
X137426286Y-49927429D01*
X137497715Y-49856000D01*
X137640572Y-49784571D01*
X137783429Y-49784571D01*
X138283429Y-50784571D02*
X138283429Y-49784571D01*
X138283429Y-49284571D02*
X138212000Y-49356000D01*
X138283429Y-49427429D01*
X138354857Y-49356000D01*
X138283429Y-49284571D01*
X138283429Y-49427429D01*
X139640572Y-50784571D02*
X139640572Y-49998857D01*
X139569143Y-49856000D01*
X139426286Y-49784571D01*
X139140572Y-49784571D01*
X138997715Y-49856000D01*
X139640572Y-50713143D02*
X139497715Y-50784571D01*
X139140572Y-50784571D01*
X138997715Y-50713143D01*
X138926286Y-50570286D01*
X138926286Y-50427429D01*
X138997715Y-50284571D01*
X139140572Y-50213143D01*
X139497715Y-50213143D01*
X139640572Y-50141714D01*
X140569144Y-50784571D02*
X140426286Y-50713143D01*
X140354858Y-50570286D01*
X140354858Y-49284571D01*
X142283429Y-49998857D02*
X143426286Y-49998857D01*
X143426286Y-50427429D02*
X142283429Y-50427429D01*
X145783429Y-49998857D02*
X145283429Y-49998857D01*
X145283429Y-50784571D02*
X145283429Y-49284571D01*
X145997715Y-49284571D01*
X147426286Y-50784571D02*
X146926286Y-50070286D01*
X146569143Y-50784571D02*
X146569143Y-49284571D01*
X147140571Y-49284571D01*
X147283429Y-49356000D01*
X147354857Y-49427429D01*
X147426286Y-49570286D01*
X147426286Y-49784571D01*
X147354857Y-49927429D01*
X147283429Y-49998857D01*
X147140571Y-50070286D01*
X146569143Y-50070286D01*
X148712000Y-49784571D02*
X148712000Y-50784571D01*
X148354857Y-49213143D02*
X147997714Y-50284571D01*
X148926286Y-50284571D01*
X132426287Y-53259571D02*
X131712001Y-53259571D01*
X131712001Y-51759571D01*
X133569144Y-53259571D02*
X133569144Y-52473857D01*
X133497715Y-52331000D01*
X133354858Y-52259571D01*
X133069144Y-52259571D01*
X132926287Y-52331000D01*
X133569144Y-53188143D02*
X133426287Y-53259571D01*
X133069144Y-53259571D01*
X132926287Y-53188143D01*
X132854858Y-53045286D01*
X132854858Y-52902429D01*
X132926287Y-52759571D01*
X133069144Y-52688143D01*
X133426287Y-52688143D01*
X133569144Y-52616714D01*
X134140573Y-52259571D02*
X134497716Y-53259571D01*
X134854858Y-52259571D02*
X134497716Y-53259571D01*
X134354858Y-53616714D01*
X134283430Y-53688143D01*
X134140573Y-53759571D01*
X135997715Y-53188143D02*
X135854858Y-53259571D01*
X135569144Y-53259571D01*
X135426287Y-53188143D01*
X135354858Y-53045286D01*
X135354858Y-52473857D01*
X135426287Y-52331000D01*
X135569144Y-52259571D01*
X135854858Y-52259571D01*
X135997715Y-52331000D01*
X136069144Y-52473857D01*
X136069144Y-52616714D01*
X135354858Y-52759571D01*
X136712001Y-53259571D02*
X136712001Y-52259571D01*
X136712001Y-52545286D02*
X136783429Y-52402429D01*
X136854858Y-52331000D01*
X136997715Y-52259571D01*
X137140572Y-52259571D01*
X138783429Y-52473857D02*
X139926286Y-52473857D01*
X139926286Y-52902429D02*
X138783429Y-52902429D01*
X141712000Y-51902429D02*
X141783429Y-51831000D01*
X141926286Y-51759571D01*
X142283429Y-51759571D01*
X142426286Y-51831000D01*
X142497715Y-51902429D01*
X142569143Y-52045286D01*
X142569143Y-52188143D01*
X142497715Y-52402429D01*
X141640572Y-53259571D01*
X142569143Y-53259571D01*
X144783428Y-53831000D02*
X144712000Y-53759571D01*
X144569143Y-53545286D01*
X144497714Y-53402429D01*
X144426285Y-53188143D01*
X144354857Y-52831000D01*
X144354857Y-52545286D01*
X144426285Y-52188143D01*
X144497714Y-51973857D01*
X144569143Y-51831000D01*
X144712000Y-51616714D01*
X144783428Y-51545286D01*
X145354857Y-52259571D02*
X145354857Y-53759571D01*
X145354857Y-52331000D02*
X145497714Y-52259571D01*
X145783428Y-52259571D01*
X145926285Y-52331000D01*
X145997714Y-52402429D01*
X146069143Y-52545286D01*
X146069143Y-52973857D01*
X145997714Y-53116714D01*
X145926285Y-53188143D01*
X145783428Y-53259571D01*
X145497714Y-53259571D01*
X145354857Y-53188143D01*
X146497714Y-52259571D02*
X147069143Y-52259571D01*
X146712000Y-51759571D02*
X146712000Y-53045286D01*
X146783428Y-53188143D01*
X146926286Y-53259571D01*
X147069143Y-53259571D01*
X147569143Y-53259571D02*
X147569143Y-51759571D01*
X148212000Y-53259571D02*
X148212000Y-52473857D01*
X148140571Y-52331000D01*
X147997714Y-52259571D01*
X147783429Y-52259571D01*
X147640571Y-52331000D01*
X147569143Y-52402429D01*
X148783429Y-53831000D02*
X148854857Y-53759571D01*
X148997714Y-53545286D01*
X149069143Y-53402429D01*
X149140572Y-53188143D01*
X149212000Y-52831000D01*
X149212000Y-52545286D01*
X149140572Y-52188143D01*
X149069143Y-51973857D01*
X148997714Y-51831000D01*
X148854857Y-51616714D01*
X148783429Y-51545286D01*
X129354857Y-54234571D02*
X130212000Y-54234571D01*
X129783429Y-55734571D02*
X129783429Y-54234571D01*
X130712000Y-55734571D02*
X130712000Y-54234571D01*
X131354857Y-55734571D02*
X131354857Y-54948857D01*
X131283428Y-54806000D01*
X131140571Y-54734571D01*
X130926286Y-54734571D01*
X130783428Y-54806000D01*
X130712000Y-54877429D01*
X132069143Y-55734571D02*
X132069143Y-54734571D01*
X132069143Y-54234571D02*
X131997714Y-54306000D01*
X132069143Y-54377429D01*
X132140571Y-54306000D01*
X132069143Y-54234571D01*
X132069143Y-54377429D01*
X133426286Y-55663143D02*
X133283429Y-55734571D01*
X132997715Y-55734571D01*
X132854857Y-55663143D01*
X132783429Y-55591714D01*
X132712000Y-55448857D01*
X132712000Y-55020286D01*
X132783429Y-54877429D01*
X132854857Y-54806000D01*
X132997715Y-54734571D01*
X133283429Y-54734571D01*
X133426286Y-54806000D01*
X134069143Y-55734571D02*
X134069143Y-54234571D01*
X134212000Y-55163143D02*
X134640571Y-55734571D01*
X134640571Y-54734571D02*
X134069143Y-55306000D01*
X135283429Y-54734571D02*
X135283429Y-55734571D01*
X135283429Y-54877429D02*
X135354857Y-54806000D01*
X135497715Y-54734571D01*
X135712000Y-54734571D01*
X135854857Y-54806000D01*
X135926286Y-54948857D01*
X135926286Y-55734571D01*
X137212000Y-55663143D02*
X137069143Y-55734571D01*
X136783429Y-55734571D01*
X136640572Y-55663143D01*
X136569143Y-55520286D01*
X136569143Y-54948857D01*
X136640572Y-54806000D01*
X136783429Y-54734571D01*
X137069143Y-54734571D01*
X137212000Y-54806000D01*
X137283429Y-54948857D01*
X137283429Y-55091714D01*
X136569143Y-55234571D01*
X137854857Y-55663143D02*
X137997714Y-55734571D01*
X138283429Y-55734571D01*
X138426286Y-55663143D01*
X138497714Y-55520286D01*
X138497714Y-55448857D01*
X138426286Y-55306000D01*
X138283429Y-55234571D01*
X138069143Y-55234571D01*
X137926286Y-55163143D01*
X137854857Y-55020286D01*
X137854857Y-54948857D01*
X137926286Y-54806000D01*
X138069143Y-54734571D01*
X138283429Y-54734571D01*
X138426286Y-54806000D01*
X139069143Y-55663143D02*
X139212000Y-55734571D01*
X139497715Y-55734571D01*
X139640572Y-55663143D01*
X139712000Y-55520286D01*
X139712000Y-55448857D01*
X139640572Y-55306000D01*
X139497715Y-55234571D01*
X139283429Y-55234571D01*
X139140572Y-55163143D01*
X139069143Y-55020286D01*
X139069143Y-54948857D01*
X139140572Y-54806000D01*
X139283429Y-54734571D01*
X139497715Y-54734571D01*
X139640572Y-54806000D01*
X141497715Y-54948857D02*
X142640572Y-54948857D01*
X142640572Y-55377429D02*
X141497715Y-55377429D01*
X145283429Y-55734571D02*
X144426286Y-55734571D01*
X144854858Y-55734571D02*
X144854858Y-54234571D01*
X144712001Y-54448857D01*
X144569143Y-54591714D01*
X144426286Y-54663143D01*
X145926286Y-55591714D02*
X145997714Y-55663143D01*
X145926286Y-55734571D01*
X145854857Y-55663143D01*
X145926286Y-55591714D01*
X145926286Y-55734571D01*
X147283429Y-54234571D02*
X146997715Y-54234571D01*
X146854858Y-54306000D01*
X146783429Y-54377429D01*
X146640572Y-54591714D01*
X146569143Y-54877429D01*
X146569143Y-55448857D01*
X146640572Y-55591714D01*
X146712000Y-55663143D01*
X146854858Y-55734571D01*
X147140572Y-55734571D01*
X147283429Y-55663143D01*
X147354858Y-55591714D01*
X147426286Y-55448857D01*
X147426286Y-55091714D01*
X147354858Y-54948857D01*
X147283429Y-54877429D01*
X147140572Y-54806000D01*
X146854858Y-54806000D01*
X146712000Y-54877429D01*
X146640572Y-54948857D01*
X146569143Y-55091714D01*
X148069143Y-55734571D02*
X148069143Y-54734571D01*
X148069143Y-54877429D02*
X148140571Y-54806000D01*
X148283429Y-54734571D01*
X148497714Y-54734571D01*
X148640571Y-54806000D01*
X148712000Y-54948857D01*
X148712000Y-55734571D01*
X148712000Y-54948857D02*
X148783429Y-54806000D01*
X148926286Y-54734571D01*
X149140571Y-54734571D01*
X149283429Y-54806000D01*
X149354857Y-54948857D01*
X149354857Y-55734571D01*
X150069143Y-55734571D02*
X150069143Y-54734571D01*
X150069143Y-54877429D02*
X150140571Y-54806000D01*
X150283429Y-54734571D01*
X150497714Y-54734571D01*
X150640571Y-54806000D01*
X150712000Y-54948857D01*
X150712000Y-55734571D01*
X150712000Y-54948857D02*
X150783429Y-54806000D01*
X150926286Y-54734571D01*
X151140571Y-54734571D01*
X151283429Y-54806000D01*
X151354857Y-54948857D01*
X151354857Y-55734571D01*
X127069143Y-58066714D02*
X126997714Y-58138143D01*
X126783428Y-58209571D01*
X126640571Y-58209571D01*
X126426286Y-58138143D01*
X126283428Y-57995286D01*
X126212000Y-57852429D01*
X126140571Y-57566714D01*
X126140571Y-57352429D01*
X126212000Y-57066714D01*
X126283428Y-56923857D01*
X126426286Y-56781000D01*
X126640571Y-56709571D01*
X126783428Y-56709571D01*
X126997714Y-56781000D01*
X127069143Y-56852429D01*
X127926286Y-58209571D02*
X127783428Y-58138143D01*
X127712000Y-58066714D01*
X127640571Y-57923857D01*
X127640571Y-57495286D01*
X127712000Y-57352429D01*
X127783428Y-57281000D01*
X127926286Y-57209571D01*
X128140571Y-57209571D01*
X128283428Y-57281000D01*
X128354857Y-57352429D01*
X128426286Y-57495286D01*
X128426286Y-57923857D01*
X128354857Y-58066714D01*
X128283428Y-58138143D01*
X128140571Y-58209571D01*
X127926286Y-58209571D01*
X129283429Y-58209571D02*
X129140571Y-58138143D01*
X129069143Y-58066714D01*
X128997714Y-57923857D01*
X128997714Y-57495286D01*
X129069143Y-57352429D01*
X129140571Y-57281000D01*
X129283429Y-57209571D01*
X129497714Y-57209571D01*
X129640571Y-57281000D01*
X129712000Y-57352429D01*
X129783429Y-57495286D01*
X129783429Y-57923857D01*
X129712000Y-58066714D01*
X129640571Y-58138143D01*
X129497714Y-58209571D01*
X129283429Y-58209571D01*
X130426286Y-57209571D02*
X130426286Y-58709571D01*
X130426286Y-57281000D02*
X130569143Y-57209571D01*
X130854857Y-57209571D01*
X130997714Y-57281000D01*
X131069143Y-57352429D01*
X131140572Y-57495286D01*
X131140572Y-57923857D01*
X131069143Y-58066714D01*
X130997714Y-58138143D01*
X130854857Y-58209571D01*
X130569143Y-58209571D01*
X130426286Y-58138143D01*
X132354857Y-58138143D02*
X132212000Y-58209571D01*
X131926286Y-58209571D01*
X131783429Y-58138143D01*
X131712000Y-57995286D01*
X131712000Y-57423857D01*
X131783429Y-57281000D01*
X131926286Y-57209571D01*
X132212000Y-57209571D01*
X132354857Y-57281000D01*
X132426286Y-57423857D01*
X132426286Y-57566714D01*
X131712000Y-57709571D01*
X133069143Y-58209571D02*
X133069143Y-57209571D01*
X133069143Y-57495286D02*
X133140571Y-57352429D01*
X133212000Y-57281000D01*
X133354857Y-57209571D01*
X133497714Y-57209571D01*
X134926285Y-56709571D02*
X135783428Y-56709571D01*
X135354857Y-58209571D02*
X135354857Y-56709571D01*
X136283428Y-58209571D02*
X136283428Y-56709571D01*
X136926285Y-58209571D02*
X136926285Y-57423857D01*
X136854856Y-57281000D01*
X136711999Y-57209571D01*
X136497714Y-57209571D01*
X136354856Y-57281000D01*
X136283428Y-57352429D01*
X137640571Y-58209571D02*
X137640571Y-57209571D01*
X137640571Y-56709571D02*
X137569142Y-56781000D01*
X137640571Y-56852429D01*
X137711999Y-56781000D01*
X137640571Y-56709571D01*
X137640571Y-56852429D01*
X138997714Y-58138143D02*
X138854857Y-58209571D01*
X138569143Y-58209571D01*
X138426285Y-58138143D01*
X138354857Y-58066714D01*
X138283428Y-57923857D01*
X138283428Y-57495286D01*
X138354857Y-57352429D01*
X138426285Y-57281000D01*
X138569143Y-57209571D01*
X138854857Y-57209571D01*
X138997714Y-57281000D01*
X139640571Y-58209571D02*
X139640571Y-56709571D01*
X139783428Y-57638143D02*
X140211999Y-58209571D01*
X140211999Y-57209571D02*
X139640571Y-57781000D01*
X140854857Y-57209571D02*
X140854857Y-58209571D01*
X140854857Y-57352429D02*
X140926285Y-57281000D01*
X141069143Y-57209571D01*
X141283428Y-57209571D01*
X141426285Y-57281000D01*
X141497714Y-57423857D01*
X141497714Y-58209571D01*
X142783428Y-58138143D02*
X142640571Y-58209571D01*
X142354857Y-58209571D01*
X142212000Y-58138143D01*
X142140571Y-57995286D01*
X142140571Y-57423857D01*
X142212000Y-57281000D01*
X142354857Y-57209571D01*
X142640571Y-57209571D01*
X142783428Y-57281000D01*
X142854857Y-57423857D01*
X142854857Y-57566714D01*
X142140571Y-57709571D01*
X143426285Y-58138143D02*
X143569142Y-58209571D01*
X143854857Y-58209571D01*
X143997714Y-58138143D01*
X144069142Y-57995286D01*
X144069142Y-57923857D01*
X143997714Y-57781000D01*
X143854857Y-57709571D01*
X143640571Y-57709571D01*
X143497714Y-57638143D01*
X143426285Y-57495286D01*
X143426285Y-57423857D01*
X143497714Y-57281000D01*
X143640571Y-57209571D01*
X143854857Y-57209571D01*
X143997714Y-57281000D01*
X144640571Y-58138143D02*
X144783428Y-58209571D01*
X145069143Y-58209571D01*
X145212000Y-58138143D01*
X145283428Y-57995286D01*
X145283428Y-57923857D01*
X145212000Y-57781000D01*
X145069143Y-57709571D01*
X144854857Y-57709571D01*
X144712000Y-57638143D01*
X144640571Y-57495286D01*
X144640571Y-57423857D01*
X144712000Y-57281000D01*
X144854857Y-57209571D01*
X145069143Y-57209571D01*
X145212000Y-57281000D01*
X147069143Y-57423857D02*
X148212000Y-57423857D01*
X148212000Y-57852429D02*
X147069143Y-57852429D01*
X150854857Y-58209571D02*
X149997714Y-58209571D01*
X150426286Y-58209571D02*
X150426286Y-56709571D01*
X150283429Y-56923857D01*
X150140571Y-57066714D01*
X149997714Y-57138143D01*
X152926285Y-56709571D02*
X153211999Y-56709571D01*
X153354857Y-56781000D01*
X153497714Y-56923857D01*
X153569142Y-57209571D01*
X153569142Y-57709571D01*
X153497714Y-57995286D01*
X153354857Y-58138143D01*
X153211999Y-58209571D01*
X152926285Y-58209571D01*
X152783428Y-58138143D01*
X152640571Y-57995286D01*
X152569142Y-57709571D01*
X152569142Y-57209571D01*
X152640571Y-56923857D01*
X152783428Y-56781000D01*
X152926285Y-56709571D01*
X154069143Y-57209571D02*
X154854857Y-57209571D01*
X154069143Y-58209571D01*
X154854857Y-58209571D01*
X133176286Y-59898857D02*
X132676286Y-59898857D01*
X132676286Y-60684571D02*
X132676286Y-59184571D01*
X133390572Y-59184571D01*
X133962000Y-60684571D02*
X133962000Y-59684571D01*
X133962000Y-59184571D02*
X133890571Y-59256000D01*
X133962000Y-59327429D01*
X134033428Y-59256000D01*
X133962000Y-59184571D01*
X133962000Y-59327429D01*
X134676286Y-59684571D02*
X134676286Y-60684571D01*
X134676286Y-59827429D02*
X134747714Y-59756000D01*
X134890572Y-59684571D01*
X135104857Y-59684571D01*
X135247714Y-59756000D01*
X135319143Y-59898857D01*
X135319143Y-60684571D01*
X136033429Y-60684571D02*
X136033429Y-59684571D01*
X136033429Y-59184571D02*
X135962000Y-59256000D01*
X136033429Y-59327429D01*
X136104857Y-59256000D01*
X136033429Y-59184571D01*
X136033429Y-59327429D01*
X136676286Y-60613143D02*
X136819143Y-60684571D01*
X137104858Y-60684571D01*
X137247715Y-60613143D01*
X137319143Y-60470286D01*
X137319143Y-60398857D01*
X137247715Y-60256000D01*
X137104858Y-60184571D01*
X136890572Y-60184571D01*
X136747715Y-60113143D01*
X136676286Y-59970286D01*
X136676286Y-59898857D01*
X136747715Y-59756000D01*
X136890572Y-59684571D01*
X137104858Y-59684571D01*
X137247715Y-59756000D01*
X137962001Y-60684571D02*
X137962001Y-59184571D01*
X138604858Y-60684571D02*
X138604858Y-59898857D01*
X138533429Y-59756000D01*
X138390572Y-59684571D01*
X138176287Y-59684571D01*
X138033429Y-59756000D01*
X137962001Y-59827429D01*
X140462001Y-59898857D02*
X141604858Y-59898857D01*
X141604858Y-60327429D02*
X140462001Y-60327429D01*
X143462001Y-60684571D02*
X143462001Y-59184571D01*
X143462001Y-59898857D02*
X144319144Y-59898857D01*
X144319144Y-60684571D02*
X144319144Y-59184571D01*
X144962001Y-60256000D02*
X145676287Y-60256000D01*
X144819144Y-60684571D02*
X145319144Y-59184571D01*
X145819144Y-60684571D01*
X146247715Y-60613143D02*
X146462001Y-60684571D01*
X146819144Y-60684571D01*
X146962001Y-60613143D01*
X147033430Y-60541714D01*
X147104858Y-60398857D01*
X147104858Y-60256000D01*
X147033430Y-60113143D01*
X146962001Y-60041714D01*
X146819144Y-59970286D01*
X146533430Y-59898857D01*
X146390572Y-59827429D01*
X146319144Y-59756000D01*
X146247715Y-59613143D01*
X146247715Y-59470286D01*
X146319144Y-59327429D01*
X146390572Y-59256000D01*
X146533430Y-59184571D01*
X146890572Y-59184571D01*
X147104858Y-59256000D01*
X148462001Y-60684571D02*
X147747715Y-60684571D01*
X147747715Y-59184571D01*
X115640571Y-63088143D02*
X115854857Y-63159571D01*
X116212000Y-63159571D01*
X116354857Y-63088143D01*
X116426286Y-63016714D01*
X116497714Y-62873857D01*
X116497714Y-62731000D01*
X116426286Y-62588143D01*
X116354857Y-62516714D01*
X116212000Y-62445286D01*
X115926286Y-62373857D01*
X115783428Y-62302429D01*
X115712000Y-62231000D01*
X115640571Y-62088143D01*
X115640571Y-61945286D01*
X115712000Y-61802429D01*
X115783428Y-61731000D01*
X115926286Y-61659571D01*
X116283428Y-61659571D01*
X116497714Y-61731000D01*
X117354857Y-63159571D02*
X117211999Y-63088143D01*
X117140571Y-63016714D01*
X117069142Y-62873857D01*
X117069142Y-62445286D01*
X117140571Y-62302429D01*
X117211999Y-62231000D01*
X117354857Y-62159571D01*
X117569142Y-62159571D01*
X117711999Y-62231000D01*
X117783428Y-62302429D01*
X117854857Y-62445286D01*
X117854857Y-62873857D01*
X117783428Y-63016714D01*
X117711999Y-63088143D01*
X117569142Y-63159571D01*
X117354857Y-63159571D01*
X118712000Y-63159571D02*
X118569142Y-63088143D01*
X118497714Y-62945286D01*
X118497714Y-61659571D01*
X119926285Y-63159571D02*
X119926285Y-61659571D01*
X119926285Y-63088143D02*
X119783428Y-63159571D01*
X119497714Y-63159571D01*
X119354856Y-63088143D01*
X119283428Y-63016714D01*
X119211999Y-62873857D01*
X119211999Y-62445286D01*
X119283428Y-62302429D01*
X119354856Y-62231000D01*
X119497714Y-62159571D01*
X119783428Y-62159571D01*
X119926285Y-62231000D01*
X121211999Y-63088143D02*
X121069142Y-63159571D01*
X120783428Y-63159571D01*
X120640571Y-63088143D01*
X120569142Y-62945286D01*
X120569142Y-62373857D01*
X120640571Y-62231000D01*
X120783428Y-62159571D01*
X121069142Y-62159571D01*
X121211999Y-62231000D01*
X121283428Y-62373857D01*
X121283428Y-62516714D01*
X120569142Y-62659571D01*
X121926285Y-63159571D02*
X121926285Y-62159571D01*
X121926285Y-62445286D02*
X121997713Y-62302429D01*
X122069142Y-62231000D01*
X122211999Y-62159571D01*
X122354856Y-62159571D01*
X123997713Y-63159571D02*
X123997713Y-62159571D01*
X123997713Y-62445286D02*
X124069141Y-62302429D01*
X124140570Y-62231000D01*
X124283427Y-62159571D01*
X124426284Y-62159571D01*
X125497712Y-63088143D02*
X125354855Y-63159571D01*
X125069141Y-63159571D01*
X124926284Y-63088143D01*
X124854855Y-62945286D01*
X124854855Y-62373857D01*
X124926284Y-62231000D01*
X125069141Y-62159571D01*
X125354855Y-62159571D01*
X125497712Y-62231000D01*
X125569141Y-62373857D01*
X125569141Y-62516714D01*
X124854855Y-62659571D01*
X126140569Y-63088143D02*
X126283426Y-63159571D01*
X126569141Y-63159571D01*
X126711998Y-63088143D01*
X126783426Y-62945286D01*
X126783426Y-62873857D01*
X126711998Y-62731000D01*
X126569141Y-62659571D01*
X126354855Y-62659571D01*
X126211998Y-62588143D01*
X126140569Y-62445286D01*
X126140569Y-62373857D01*
X126211998Y-62231000D01*
X126354855Y-62159571D01*
X126569141Y-62159571D01*
X126711998Y-62231000D01*
X127426284Y-63159571D02*
X127426284Y-62159571D01*
X127426284Y-61659571D02*
X127354855Y-61731000D01*
X127426284Y-61802429D01*
X127497712Y-61731000D01*
X127426284Y-61659571D01*
X127426284Y-61802429D01*
X128069141Y-63088143D02*
X128211998Y-63159571D01*
X128497713Y-63159571D01*
X128640570Y-63088143D01*
X128711998Y-62945286D01*
X128711998Y-62873857D01*
X128640570Y-62731000D01*
X128497713Y-62659571D01*
X128283427Y-62659571D01*
X128140570Y-62588143D01*
X128069141Y-62445286D01*
X128069141Y-62373857D01*
X128140570Y-62231000D01*
X128283427Y-62159571D01*
X128497713Y-62159571D01*
X128640570Y-62231000D01*
X129140570Y-62159571D02*
X129711999Y-62159571D01*
X129354856Y-61659571D02*
X129354856Y-62945286D01*
X129426284Y-63088143D01*
X129569142Y-63159571D01*
X129711999Y-63159571D01*
X130211999Y-62588143D02*
X131354856Y-62588143D01*
X132069142Y-63159571D02*
X132069142Y-62159571D01*
X132069142Y-62302429D02*
X132140570Y-62231000D01*
X132283428Y-62159571D01*
X132497713Y-62159571D01*
X132640570Y-62231000D01*
X132711999Y-62373857D01*
X132711999Y-63159571D01*
X132711999Y-62373857D02*
X132783428Y-62231000D01*
X132926285Y-62159571D01*
X133140570Y-62159571D01*
X133283428Y-62231000D01*
X133354856Y-62373857D01*
X133354856Y-63159571D01*
X134711999Y-63159571D02*
X134711999Y-62373857D01*
X134640570Y-62231000D01*
X134497713Y-62159571D01*
X134211999Y-62159571D01*
X134069142Y-62231000D01*
X134711999Y-63088143D02*
X134569142Y-63159571D01*
X134211999Y-63159571D01*
X134069142Y-63088143D01*
X133997713Y-62945286D01*
X133997713Y-62802429D01*
X134069142Y-62659571D01*
X134211999Y-62588143D01*
X134569142Y-62588143D01*
X134711999Y-62516714D01*
X135354856Y-63088143D02*
X135497713Y-63159571D01*
X135783428Y-63159571D01*
X135926285Y-63088143D01*
X135997713Y-62945286D01*
X135997713Y-62873857D01*
X135926285Y-62731000D01*
X135783428Y-62659571D01*
X135569142Y-62659571D01*
X135426285Y-62588143D01*
X135354856Y-62445286D01*
X135354856Y-62373857D01*
X135426285Y-62231000D01*
X135569142Y-62159571D01*
X135783428Y-62159571D01*
X135926285Y-62231000D01*
X136640571Y-63159571D02*
X136640571Y-61659571D01*
X136783428Y-62588143D02*
X137211999Y-63159571D01*
X137211999Y-62159571D02*
X136640571Y-62731000D01*
X138997714Y-62159571D02*
X138997714Y-63659571D01*
X138997714Y-62231000D02*
X139140571Y-62159571D01*
X139426285Y-62159571D01*
X139569142Y-62231000D01*
X139640571Y-62302429D01*
X139712000Y-62445286D01*
X139712000Y-62873857D01*
X139640571Y-63016714D01*
X139569142Y-63088143D01*
X139426285Y-63159571D01*
X139140571Y-63159571D01*
X138997714Y-63088143D01*
X140354857Y-63159571D02*
X140354857Y-62159571D01*
X140354857Y-62445286D02*
X140426285Y-62302429D01*
X140497714Y-62231000D01*
X140640571Y-62159571D01*
X140783428Y-62159571D01*
X141283428Y-63159571D02*
X141283428Y-62159571D01*
X141283428Y-61659571D02*
X141211999Y-61731000D01*
X141283428Y-61802429D01*
X141354856Y-61731000D01*
X141283428Y-61659571D01*
X141283428Y-61802429D01*
X141997714Y-62159571D02*
X141997714Y-63159571D01*
X141997714Y-62302429D02*
X142069142Y-62231000D01*
X142212000Y-62159571D01*
X142426285Y-62159571D01*
X142569142Y-62231000D01*
X142640571Y-62373857D01*
X142640571Y-63159571D01*
X143140571Y-62159571D02*
X143712000Y-62159571D01*
X143354857Y-61659571D02*
X143354857Y-62945286D01*
X143426285Y-63088143D01*
X143569143Y-63159571D01*
X143712000Y-63159571D01*
X144783428Y-63088143D02*
X144640571Y-63159571D01*
X144354857Y-63159571D01*
X144212000Y-63088143D01*
X144140571Y-62945286D01*
X144140571Y-62373857D01*
X144212000Y-62231000D01*
X144354857Y-62159571D01*
X144640571Y-62159571D01*
X144783428Y-62231000D01*
X144854857Y-62373857D01*
X144854857Y-62516714D01*
X144140571Y-62659571D01*
X146140571Y-63159571D02*
X146140571Y-61659571D01*
X146140571Y-63088143D02*
X145997714Y-63159571D01*
X145712000Y-63159571D01*
X145569142Y-63088143D01*
X145497714Y-63016714D01*
X145426285Y-62873857D01*
X145426285Y-62445286D01*
X145497714Y-62302429D01*
X145569142Y-62231000D01*
X145712000Y-62159571D01*
X145997714Y-62159571D01*
X146140571Y-62231000D01*
X148426285Y-63731000D02*
X148354857Y-63659571D01*
X148212000Y-63445286D01*
X148140571Y-63302429D01*
X148069142Y-63088143D01*
X147997714Y-62731000D01*
X147997714Y-62445286D01*
X148069142Y-62088143D01*
X148140571Y-61873857D01*
X148212000Y-61731000D01*
X148354857Y-61516714D01*
X148426285Y-61445286D01*
X148783428Y-61659571D02*
X149640571Y-61659571D01*
X149212000Y-63159571D02*
X149212000Y-61659571D01*
X150354857Y-63159571D02*
X150211999Y-63088143D01*
X150140571Y-63016714D01*
X150069142Y-62873857D01*
X150069142Y-62445286D01*
X150140571Y-62302429D01*
X150211999Y-62231000D01*
X150354857Y-62159571D01*
X150569142Y-62159571D01*
X150711999Y-62231000D01*
X150783428Y-62302429D01*
X150854857Y-62445286D01*
X150854857Y-62873857D01*
X150783428Y-63016714D01*
X150711999Y-63088143D01*
X150569142Y-63159571D01*
X150354857Y-63159571D01*
X151497714Y-62159571D02*
X151497714Y-63659571D01*
X151497714Y-62231000D02*
X151640571Y-62159571D01*
X151926285Y-62159571D01*
X152069142Y-62231000D01*
X152140571Y-62302429D01*
X152212000Y-62445286D01*
X152212000Y-62873857D01*
X152140571Y-63016714D01*
X152069142Y-63088143D01*
X151926285Y-63159571D01*
X151640571Y-63159571D01*
X151497714Y-63088143D01*
X155212000Y-63159571D02*
X155140571Y-63159571D01*
X154997714Y-63088143D01*
X154783428Y-62873857D01*
X154426285Y-62445286D01*
X154283428Y-62231000D01*
X154212000Y-62016714D01*
X154212000Y-61873857D01*
X154283428Y-61731000D01*
X154426285Y-61659571D01*
X154497714Y-61659571D01*
X154640571Y-61731000D01*
X154712000Y-61873857D01*
X154712000Y-61945286D01*
X154640571Y-62088143D01*
X154569142Y-62159571D01*
X154140571Y-62445286D01*
X154069142Y-62516714D01*
X153997714Y-62659571D01*
X153997714Y-62873857D01*
X154069142Y-63016714D01*
X154140571Y-63088143D01*
X154283428Y-63159571D01*
X154497714Y-63159571D01*
X154640571Y-63088143D01*
X154712000Y-63016714D01*
X154926285Y-62731000D01*
X154997714Y-62516714D01*
X154997714Y-62373857D01*
X157497714Y-62373857D02*
X157712000Y-62445286D01*
X157783428Y-62516714D01*
X157854857Y-62659571D01*
X157854857Y-62873857D01*
X157783428Y-63016714D01*
X157712000Y-63088143D01*
X157569142Y-63159571D01*
X156997714Y-63159571D01*
X156997714Y-61659571D01*
X157497714Y-61659571D01*
X157640571Y-61731000D01*
X157712000Y-61802429D01*
X157783428Y-61945286D01*
X157783428Y-62088143D01*
X157712000Y-62231000D01*
X157640571Y-62302429D01*
X157497714Y-62373857D01*
X156997714Y-62373857D01*
X158712000Y-63159571D02*
X158569142Y-63088143D01*
X158497714Y-63016714D01*
X158426285Y-62873857D01*
X158426285Y-62445286D01*
X158497714Y-62302429D01*
X158569142Y-62231000D01*
X158712000Y-62159571D01*
X158926285Y-62159571D01*
X159069142Y-62231000D01*
X159140571Y-62302429D01*
X159212000Y-62445286D01*
X159212000Y-62873857D01*
X159140571Y-63016714D01*
X159069142Y-63088143D01*
X158926285Y-63159571D01*
X158712000Y-63159571D01*
X159640571Y-62159571D02*
X160212000Y-62159571D01*
X159854857Y-61659571D02*
X159854857Y-62945286D01*
X159926285Y-63088143D01*
X160069143Y-63159571D01*
X160212000Y-63159571D01*
X160497714Y-62159571D02*
X161069143Y-62159571D01*
X160712000Y-61659571D02*
X160712000Y-62945286D01*
X160783428Y-63088143D01*
X160926286Y-63159571D01*
X161069143Y-63159571D01*
X161783429Y-63159571D02*
X161640571Y-63088143D01*
X161569143Y-63016714D01*
X161497714Y-62873857D01*
X161497714Y-62445286D01*
X161569143Y-62302429D01*
X161640571Y-62231000D01*
X161783429Y-62159571D01*
X161997714Y-62159571D01*
X162140571Y-62231000D01*
X162212000Y-62302429D01*
X162283429Y-62445286D01*
X162283429Y-62873857D01*
X162212000Y-63016714D01*
X162140571Y-63088143D01*
X161997714Y-63159571D01*
X161783429Y-63159571D01*
X162926286Y-63159571D02*
X162926286Y-62159571D01*
X162926286Y-62302429D02*
X162997714Y-62231000D01*
X163140572Y-62159571D01*
X163354857Y-62159571D01*
X163497714Y-62231000D01*
X163569143Y-62373857D01*
X163569143Y-63159571D01*
X163569143Y-62373857D02*
X163640572Y-62231000D01*
X163783429Y-62159571D01*
X163997714Y-62159571D01*
X164140572Y-62231000D01*
X164212000Y-62373857D01*
X164212000Y-63159571D01*
X164783429Y-63731000D02*
X164854857Y-63659571D01*
X164997714Y-63445286D01*
X165069143Y-63302429D01*
X165140572Y-63088143D01*
X165212000Y-62731000D01*
X165212000Y-62445286D01*
X165140572Y-62088143D01*
X165069143Y-61873857D01*
X164997714Y-61731000D01*
X164854857Y-61516714D01*
X164783429Y-61445286D01*
X117962000Y-65491714D02*
X117890571Y-65563143D01*
X117676285Y-65634571D01*
X117533428Y-65634571D01*
X117319143Y-65563143D01*
X117176285Y-65420286D01*
X117104857Y-65277429D01*
X117033428Y-64991714D01*
X117033428Y-64777429D01*
X117104857Y-64491714D01*
X117176285Y-64348857D01*
X117319143Y-64206000D01*
X117533428Y-64134571D01*
X117676285Y-64134571D01*
X117890571Y-64206000D01*
X117962000Y-64277429D01*
X118819143Y-65634571D02*
X118676285Y-65563143D01*
X118604857Y-65491714D01*
X118533428Y-65348857D01*
X118533428Y-64920286D01*
X118604857Y-64777429D01*
X118676285Y-64706000D01*
X118819143Y-64634571D01*
X119033428Y-64634571D01*
X119176285Y-64706000D01*
X119247714Y-64777429D01*
X119319143Y-64920286D01*
X119319143Y-65348857D01*
X119247714Y-65491714D01*
X119176285Y-65563143D01*
X119033428Y-65634571D01*
X118819143Y-65634571D01*
X119962000Y-65634571D02*
X119962000Y-64634571D01*
X119962000Y-64777429D02*
X120033428Y-64706000D01*
X120176286Y-64634571D01*
X120390571Y-64634571D01*
X120533428Y-64706000D01*
X120604857Y-64848857D01*
X120604857Y-65634571D01*
X120604857Y-64848857D02*
X120676286Y-64706000D01*
X120819143Y-64634571D01*
X121033428Y-64634571D01*
X121176286Y-64706000D01*
X121247714Y-64848857D01*
X121247714Y-65634571D01*
X121962000Y-64634571D02*
X121962000Y-66134571D01*
X121962000Y-64706000D02*
X122104857Y-64634571D01*
X122390571Y-64634571D01*
X122533428Y-64706000D01*
X122604857Y-64777429D01*
X122676286Y-64920286D01*
X122676286Y-65348857D01*
X122604857Y-65491714D01*
X122533428Y-65563143D01*
X122390571Y-65634571D01*
X122104857Y-65634571D01*
X121962000Y-65563143D01*
X123533429Y-65634571D02*
X123390571Y-65563143D01*
X123319143Y-65491714D01*
X123247714Y-65348857D01*
X123247714Y-64920286D01*
X123319143Y-64777429D01*
X123390571Y-64706000D01*
X123533429Y-64634571D01*
X123747714Y-64634571D01*
X123890571Y-64706000D01*
X123962000Y-64777429D01*
X124033429Y-64920286D01*
X124033429Y-65348857D01*
X123962000Y-65491714D01*
X123890571Y-65563143D01*
X123747714Y-65634571D01*
X123533429Y-65634571D01*
X124676286Y-64634571D02*
X124676286Y-65634571D01*
X124676286Y-64777429D02*
X124747714Y-64706000D01*
X124890572Y-64634571D01*
X125104857Y-64634571D01*
X125247714Y-64706000D01*
X125319143Y-64848857D01*
X125319143Y-65634571D01*
X126604857Y-65563143D02*
X126462000Y-65634571D01*
X126176286Y-65634571D01*
X126033429Y-65563143D01*
X125962000Y-65420286D01*
X125962000Y-64848857D01*
X126033429Y-64706000D01*
X126176286Y-64634571D01*
X126462000Y-64634571D01*
X126604857Y-64706000D01*
X126676286Y-64848857D01*
X126676286Y-64991714D01*
X125962000Y-65134571D01*
X127319143Y-64634571D02*
X127319143Y-65634571D01*
X127319143Y-64777429D02*
X127390571Y-64706000D01*
X127533429Y-64634571D01*
X127747714Y-64634571D01*
X127890571Y-64706000D01*
X127962000Y-64848857D01*
X127962000Y-65634571D01*
X128462000Y-64634571D02*
X129033429Y-64634571D01*
X128676286Y-64134571D02*
X128676286Y-65420286D01*
X128747714Y-65563143D01*
X128890572Y-65634571D01*
X129033429Y-65634571D01*
X130676286Y-65634571D02*
X130676286Y-64634571D01*
X130676286Y-64777429D02*
X130747714Y-64706000D01*
X130890572Y-64634571D01*
X131104857Y-64634571D01*
X131247714Y-64706000D01*
X131319143Y-64848857D01*
X131319143Y-65634571D01*
X131319143Y-64848857D02*
X131390572Y-64706000D01*
X131533429Y-64634571D01*
X131747714Y-64634571D01*
X131890572Y-64706000D01*
X131962000Y-64848857D01*
X131962000Y-65634571D01*
X133319143Y-65634571D02*
X133319143Y-64848857D01*
X133247714Y-64706000D01*
X133104857Y-64634571D01*
X132819143Y-64634571D01*
X132676286Y-64706000D01*
X133319143Y-65563143D02*
X133176286Y-65634571D01*
X132819143Y-65634571D01*
X132676286Y-65563143D01*
X132604857Y-65420286D01*
X132604857Y-65277429D01*
X132676286Y-65134571D01*
X132819143Y-65063143D01*
X133176286Y-65063143D01*
X133319143Y-64991714D01*
X133962000Y-65563143D02*
X134104857Y-65634571D01*
X134390572Y-65634571D01*
X134533429Y-65563143D01*
X134604857Y-65420286D01*
X134604857Y-65348857D01*
X134533429Y-65206000D01*
X134390572Y-65134571D01*
X134176286Y-65134571D01*
X134033429Y-65063143D01*
X133962000Y-64920286D01*
X133962000Y-64848857D01*
X134033429Y-64706000D01*
X134176286Y-64634571D01*
X134390572Y-64634571D01*
X134533429Y-64706000D01*
X135247715Y-65634571D02*
X135247715Y-64134571D01*
X135390572Y-65063143D02*
X135819143Y-65634571D01*
X135819143Y-64634571D02*
X135247715Y-65206000D01*
X137604858Y-64634571D02*
X137604858Y-66134571D01*
X137604858Y-64706000D02*
X137747715Y-64634571D01*
X138033429Y-64634571D01*
X138176286Y-64706000D01*
X138247715Y-64777429D01*
X138319144Y-64920286D01*
X138319144Y-65348857D01*
X138247715Y-65491714D01*
X138176286Y-65563143D01*
X138033429Y-65634571D01*
X137747715Y-65634571D01*
X137604858Y-65563143D01*
X138962001Y-65634571D02*
X138962001Y-64634571D01*
X138962001Y-64920286D02*
X139033429Y-64777429D01*
X139104858Y-64706000D01*
X139247715Y-64634571D01*
X139390572Y-64634571D01*
X139890572Y-65634571D02*
X139890572Y-64634571D01*
X139890572Y-64134571D02*
X139819143Y-64206000D01*
X139890572Y-64277429D01*
X139962000Y-64206000D01*
X139890572Y-64134571D01*
X139890572Y-64277429D01*
X140604858Y-64634571D02*
X140604858Y-65634571D01*
X140604858Y-64777429D02*
X140676286Y-64706000D01*
X140819144Y-64634571D01*
X141033429Y-64634571D01*
X141176286Y-64706000D01*
X141247715Y-64848857D01*
X141247715Y-65634571D01*
X141747715Y-64634571D02*
X142319144Y-64634571D01*
X141962001Y-64134571D02*
X141962001Y-65420286D01*
X142033429Y-65563143D01*
X142176287Y-65634571D01*
X142319144Y-65634571D01*
X143390572Y-65563143D02*
X143247715Y-65634571D01*
X142962001Y-65634571D01*
X142819144Y-65563143D01*
X142747715Y-65420286D01*
X142747715Y-64848857D01*
X142819144Y-64706000D01*
X142962001Y-64634571D01*
X143247715Y-64634571D01*
X143390572Y-64706000D01*
X143462001Y-64848857D01*
X143462001Y-64991714D01*
X142747715Y-65134571D01*
X144747715Y-65634571D02*
X144747715Y-64134571D01*
X144747715Y-65563143D02*
X144604858Y-65634571D01*
X144319144Y-65634571D01*
X144176286Y-65563143D01*
X144104858Y-65491714D01*
X144033429Y-65348857D01*
X144033429Y-64920286D01*
X144104858Y-64777429D01*
X144176286Y-64706000D01*
X144319144Y-64634571D01*
X144604858Y-64634571D01*
X144747715Y-64706000D01*
X147033429Y-66206000D02*
X146962001Y-66134571D01*
X146819144Y-65920286D01*
X146747715Y-65777429D01*
X146676286Y-65563143D01*
X146604858Y-65206000D01*
X146604858Y-64920286D01*
X146676286Y-64563143D01*
X146747715Y-64348857D01*
X146819144Y-64206000D01*
X146962001Y-63991714D01*
X147033429Y-63920286D01*
X147390572Y-64134571D02*
X148247715Y-64134571D01*
X147819144Y-65634571D02*
X147819144Y-64134571D01*
X148962001Y-65634571D02*
X148819143Y-65563143D01*
X148747715Y-65491714D01*
X148676286Y-65348857D01*
X148676286Y-64920286D01*
X148747715Y-64777429D01*
X148819143Y-64706000D01*
X148962001Y-64634571D01*
X149176286Y-64634571D01*
X149319143Y-64706000D01*
X149390572Y-64777429D01*
X149462001Y-64920286D01*
X149462001Y-65348857D01*
X149390572Y-65491714D01*
X149319143Y-65563143D01*
X149176286Y-65634571D01*
X148962001Y-65634571D01*
X150104858Y-64634571D02*
X150104858Y-66134571D01*
X150104858Y-64706000D02*
X150247715Y-64634571D01*
X150533429Y-64634571D01*
X150676286Y-64706000D01*
X150747715Y-64777429D01*
X150819144Y-64920286D01*
X150819144Y-65348857D01*
X150747715Y-65491714D01*
X150676286Y-65563143D01*
X150533429Y-65634571D01*
X150247715Y-65634571D01*
X150104858Y-65563143D01*
X153819144Y-65634571D02*
X153747715Y-65634571D01*
X153604858Y-65563143D01*
X153390572Y-65348857D01*
X153033429Y-64920286D01*
X152890572Y-64706000D01*
X152819144Y-64491714D01*
X152819144Y-64348857D01*
X152890572Y-64206000D01*
X153033429Y-64134571D01*
X153104858Y-64134571D01*
X153247715Y-64206000D01*
X153319144Y-64348857D01*
X153319144Y-64420286D01*
X153247715Y-64563143D01*
X153176286Y-64634571D01*
X152747715Y-64920286D01*
X152676286Y-64991714D01*
X152604858Y-65134571D01*
X152604858Y-65348857D01*
X152676286Y-65491714D01*
X152747715Y-65563143D01*
X152890572Y-65634571D01*
X153104858Y-65634571D01*
X153247715Y-65563143D01*
X153319144Y-65491714D01*
X153533429Y-65206000D01*
X153604858Y-64991714D01*
X153604858Y-64848857D01*
X156104858Y-64848857D02*
X156319144Y-64920286D01*
X156390572Y-64991714D01*
X156462001Y-65134571D01*
X156462001Y-65348857D01*
X156390572Y-65491714D01*
X156319144Y-65563143D01*
X156176286Y-65634571D01*
X155604858Y-65634571D01*
X155604858Y-64134571D01*
X156104858Y-64134571D01*
X156247715Y-64206000D01*
X156319144Y-64277429D01*
X156390572Y-64420286D01*
X156390572Y-64563143D01*
X156319144Y-64706000D01*
X156247715Y-64777429D01*
X156104858Y-64848857D01*
X155604858Y-64848857D01*
X157319144Y-65634571D02*
X157176286Y-65563143D01*
X157104858Y-65491714D01*
X157033429Y-65348857D01*
X157033429Y-64920286D01*
X157104858Y-64777429D01*
X157176286Y-64706000D01*
X157319144Y-64634571D01*
X157533429Y-64634571D01*
X157676286Y-64706000D01*
X157747715Y-64777429D01*
X157819144Y-64920286D01*
X157819144Y-65348857D01*
X157747715Y-65491714D01*
X157676286Y-65563143D01*
X157533429Y-65634571D01*
X157319144Y-65634571D01*
X158247715Y-64634571D02*
X158819144Y-64634571D01*
X158462001Y-64134571D02*
X158462001Y-65420286D01*
X158533429Y-65563143D01*
X158676287Y-65634571D01*
X158819144Y-65634571D01*
X159104858Y-64634571D02*
X159676287Y-64634571D01*
X159319144Y-64134571D02*
X159319144Y-65420286D01*
X159390572Y-65563143D01*
X159533430Y-65634571D01*
X159676287Y-65634571D01*
X160390573Y-65634571D02*
X160247715Y-65563143D01*
X160176287Y-65491714D01*
X160104858Y-65348857D01*
X160104858Y-64920286D01*
X160176287Y-64777429D01*
X160247715Y-64706000D01*
X160390573Y-64634571D01*
X160604858Y-64634571D01*
X160747715Y-64706000D01*
X160819144Y-64777429D01*
X160890573Y-64920286D01*
X160890573Y-65348857D01*
X160819144Y-65491714D01*
X160747715Y-65563143D01*
X160604858Y-65634571D01*
X160390573Y-65634571D01*
X161533430Y-65634571D02*
X161533430Y-64634571D01*
X161533430Y-64777429D02*
X161604858Y-64706000D01*
X161747716Y-64634571D01*
X161962001Y-64634571D01*
X162104858Y-64706000D01*
X162176287Y-64848857D01*
X162176287Y-65634571D01*
X162176287Y-64848857D02*
X162247716Y-64706000D01*
X162390573Y-64634571D01*
X162604858Y-64634571D01*
X162747716Y-64706000D01*
X162819144Y-64848857D01*
X162819144Y-65634571D01*
X163390573Y-66206000D02*
X163462001Y-66134571D01*
X163604858Y-65920286D01*
X163676287Y-65777429D01*
X163747716Y-65563143D01*
X163819144Y-65206000D01*
X163819144Y-64920286D01*
X163747716Y-64563143D01*
X163676287Y-64348857D01*
X163604858Y-64206000D01*
X163462001Y-63991714D01*
X163390573Y-63920286D01*
X134334859Y-131615571D02*
X133620573Y-131615571D01*
X133549144Y-132329857D01*
X133620573Y-132258429D01*
X133763430Y-132187000D01*
X134120573Y-132187000D01*
X134263430Y-132258429D01*
X134334859Y-132329857D01*
X134406287Y-132472714D01*
X134406287Y-132829857D01*
X134334859Y-132972714D01*
X134263430Y-133044143D01*
X134120573Y-133115571D01*
X133763430Y-133115571D01*
X133620573Y-133044143D01*
X133549144Y-132972714D01*
X134906287Y-131615571D02*
X135906287Y-131615571D01*
X135263430Y-133115571D01*
X136549143Y-133044143D02*
X136549143Y-133115571D01*
X136477715Y-133258429D01*
X136406286Y-133329857D01*
X137834858Y-132115571D02*
X137834858Y-133115571D01*
X137477715Y-131544143D02*
X137120572Y-132615571D01*
X138049144Y-132615571D01*
X138906286Y-131615571D02*
X139049143Y-131615571D01*
X139192000Y-131687000D01*
X139263429Y-131758429D01*
X139334858Y-131901286D01*
X139406286Y-132187000D01*
X139406286Y-132544143D01*
X139334858Y-132829857D01*
X139263429Y-132972714D01*
X139192000Y-133044143D01*
X139049143Y-133115571D01*
X138906286Y-133115571D01*
X138763429Y-133044143D01*
X138692000Y-132972714D01*
X138620572Y-132829857D01*
X138549143Y-132544143D01*
X138549143Y-132187000D01*
X138620572Y-131901286D01*
X138692000Y-131758429D01*
X138763429Y-131687000D01*
X138906286Y-131615571D01*
X140692000Y-132115571D02*
X140692000Y-133115571D01*
X140334857Y-131544143D02*
X139977714Y-132615571D01*
X140906286Y-132615571D01*
X141477714Y-133115571D02*
X141477714Y-132115571D01*
X141477714Y-132258429D02*
X141549142Y-132187000D01*
X141692000Y-132115571D01*
X141906285Y-132115571D01*
X142049142Y-132187000D01*
X142120571Y-132329857D01*
X142120571Y-133115571D01*
X142120571Y-132329857D02*
X142192000Y-132187000D01*
X142334857Y-132115571D01*
X142549142Y-132115571D01*
X142692000Y-132187000D01*
X142763428Y-132329857D01*
X142763428Y-133115571D01*
X143477714Y-133115571D02*
X143477714Y-132115571D01*
X143477714Y-132258429D02*
X143549142Y-132187000D01*
X143692000Y-132115571D01*
X143906285Y-132115571D01*
X144049142Y-132187000D01*
X144120571Y-132329857D01*
X144120571Y-133115571D01*
X144120571Y-132329857D02*
X144192000Y-132187000D01*
X144334857Y-132115571D01*
X144549142Y-132115571D01*
X144692000Y-132187000D01*
X144763428Y-132329857D01*
X144763428Y-133115571D01*
X167894000Y-130937000D02*
X110490000Y-130937000D01*
X167894000Y-120904000D02*
X167894000Y-133937000D01*
X110490000Y-120904000D02*
X110490000Y-133937000D01*
X110490000Y-130937000D02*
X111616504Y-130350579D01*
X110490000Y-130937000D02*
X111616504Y-131523421D01*
X167894000Y-130937000D02*
X166767496Y-130350579D01*
X167894000Y-130937000D02*
X166767496Y-131523421D01*
X180129429Y-93496430D02*
X179129429Y-93496430D01*
X180700857Y-93139287D02*
X179629429Y-92782144D01*
X179629429Y-93710716D01*
X180129429Y-94925001D02*
X179129429Y-94925001D01*
X180700857Y-94567858D02*
X179629429Y-94210715D01*
X179629429Y-95139287D01*
X179200857Y-95782143D02*
X179129429Y-95782143D01*
X178986571Y-95710715D01*
X178915143Y-95639286D01*
X179129429Y-96496429D02*
X179129429Y-96782144D01*
X179200857Y-96925001D01*
X179272286Y-96996429D01*
X179486571Y-97139287D01*
X179772286Y-97210715D01*
X180343714Y-97210715D01*
X180486571Y-97139287D01*
X180558000Y-97067858D01*
X180629429Y-96925001D01*
X180629429Y-96639287D01*
X180558000Y-96496429D01*
X180486571Y-96425001D01*
X180343714Y-96353572D01*
X179986571Y-96353572D01*
X179843714Y-96425001D01*
X179772286Y-96496429D01*
X179700857Y-96639287D01*
X179700857Y-96925001D01*
X179772286Y-97067858D01*
X179843714Y-97139287D01*
X179986571Y-97210715D01*
X180629429Y-98567858D02*
X180629429Y-97853572D01*
X179915143Y-97782143D01*
X179986571Y-97853572D01*
X180058000Y-97996429D01*
X180058000Y-98353572D01*
X179986571Y-98496429D01*
X179915143Y-98567858D01*
X179772286Y-98639286D01*
X179415143Y-98639286D01*
X179272286Y-98567858D01*
X179200857Y-98496429D01*
X179129429Y-98353572D01*
X179129429Y-97996429D01*
X179200857Y-97853572D01*
X179272286Y-97782143D01*
X179986571Y-99496429D02*
X180058000Y-99353571D01*
X180129429Y-99282143D01*
X180272286Y-99210714D01*
X180343714Y-99210714D01*
X180486571Y-99282143D01*
X180558000Y-99353571D01*
X180629429Y-99496429D01*
X180629429Y-99782143D01*
X180558000Y-99925000D01*
X180486571Y-99996429D01*
X180343714Y-100067857D01*
X180272286Y-100067857D01*
X180129429Y-99996429D01*
X180058000Y-99925000D01*
X179986571Y-99782143D01*
X179986571Y-99496429D01*
X179915143Y-99353571D01*
X179843714Y-99282143D01*
X179700857Y-99210714D01*
X179415143Y-99210714D01*
X179272286Y-99282143D01*
X179200857Y-99353571D01*
X179129429Y-99496429D01*
X179129429Y-99782143D01*
X179200857Y-99925000D01*
X179272286Y-99996429D01*
X179415143Y-100067857D01*
X179700857Y-100067857D01*
X179843714Y-99996429D01*
X179915143Y-99925000D01*
X179986571Y-99782143D01*
X179129429Y-100710714D02*
X180129429Y-100710714D01*
X179986571Y-100710714D02*
X180058000Y-100782142D01*
X180129429Y-100925000D01*
X180129429Y-101139285D01*
X180058000Y-101282142D01*
X179915143Y-101353571D01*
X179129429Y-101353571D01*
X179915143Y-101353571D02*
X180058000Y-101425000D01*
X180129429Y-101567857D01*
X180129429Y-101782142D01*
X180058000Y-101925000D01*
X179915143Y-101996428D01*
X179129429Y-101996428D01*
X179129429Y-102710714D02*
X180129429Y-102710714D01*
X179986571Y-102710714D02*
X180058000Y-102782142D01*
X180129429Y-102925000D01*
X180129429Y-103139285D01*
X180058000Y-103282142D01*
X179915143Y-103353571D01*
X179129429Y-103353571D01*
X179915143Y-103353571D02*
X180058000Y-103425000D01*
X180129429Y-103567857D01*
X180129429Y-103782142D01*
X180058000Y-103925000D01*
X179915143Y-103996428D01*
X179129429Y-103996428D01*
X178308000Y-75946000D02*
X178308000Y-120904000D01*
X167894000Y-75946000D02*
X181308000Y-75946000D01*
X167894000Y-120904000D02*
X181308000Y-120904000D01*
X178308000Y-120904000D02*
X177721579Y-119777496D01*
X178308000Y-120904000D02*
X178894421Y-119777496D01*
X178308000Y-75946000D02*
X177721579Y-77072504D01*
X178308000Y-75946000D02*
X178894421Y-77072504D01*
D12*
X111453000Y-116526000D02*
X110753000Y-116526000D01*
X111453000Y-109026000D02*
X110753000Y-109026000D01*
X110753000Y-109026000D02*
X110753000Y-116526000D01*
M02*
