M48
;DRILL file {KiCad 4.0.2-stable} date 25/07/2016 02:37:33 p.m.
;FORMAT={-:-/ absolute / inch / decimal}
FMAT,2
INCH,TZ
T1C0.016
T2C0.039
T3C0.040
T4C0.045
T5C0.060
T6C0.091
T7C0.106
%
G90
G05
M72
T1
X4.41Y-3.07
X4.41Y-3.125
X4.41Y-3.185
X4.41Y-3.245
X4.41Y-3.31
X4.41Y-3.37
X4.41Y-3.425
X4.41Y-3.485
X4.4974Y-4.0926
X4.51Y-3.575
X4.54Y-4.64
X4.5404Y-4.2304
X4.58Y-3.655
X4.58Y-3.71
X4.61Y-4.105
X4.62Y-4.36
X4.62Y-4.54
X4.63Y-3.655
X4.64Y-4.29
X4.6416Y-4.7184
X4.69Y-3.655
X4.9174Y-4.1126
X5.115Y-3.66
X5.27Y-3.62
X5.27Y-3.68
X5.28Y-3.215
X5.28Y-3.265
X5.28Y-3.32
X5.32Y-3.62
X5.4142Y-3.83
X5.415Y-3.77
X5.54Y-4.52
X5.56Y-4.3
X5.59Y-3.185
X5.59Y-3.235
X5.59Y-3.285
X5.62Y-4.12
X5.73Y-3.81
X5.795Y-3.75
X5.88Y-4.58
X5.94Y-4.46
X5.95Y-4.09
X5.99Y-4.27
X6.025Y-3.995
T2
X6.0699Y-4.22
X6.0699Y-4.32
X6.0699Y-4.4
X6.0699Y-4.5
T3
X4.75Y-3.97
X4.85Y-3.97
X4.95Y-3.97
X5.46Y-3.34
X5.46Y-3.44
X5.46Y-3.54
X5.65Y-3.97
X5.75Y-3.97
X5.85Y-3.97
T4
X5.96Y-3.09
X6.06Y-3.09
X6.16Y-3.09
T5
X6.45Y-3.12
X6.45Y-3.32
T6
X6.1749Y-4.1
X6.1749Y-4.64
T7
X4.86Y-3.82
X5.48Y-4.64
X6.3Y-3.94
T3
X6.05Y-3.68G85X6.05Y-3.62
G05
X6.23Y-3.45G85X6.17Y-3.45
G05
X6.29Y-3.68G85X6.29Y-3.62
G05
T0
M30
