G04 #@! TF.FileFunction,Legend,Bot*
%FSLAX46Y46*%
G04 Gerber Fmt 4.6, Leading zero omitted, Abs format (unit mm)*
G04 Created by KiCad (PCBNEW 4.0.2-stable) date 26/07/2016 20:14:39*
%MOMM*%
G01*
G04 APERTURE LIST*
%ADD10C,0.100000*%
%ADD11C,0.257500*%
G04 APERTURE END LIST*
D10*
D11*
X129242214Y-99890429D02*
X129313643Y-99841381D01*
X129385071Y-99694238D01*
X129385071Y-99596143D01*
X129313643Y-99449000D01*
X129170786Y-99350905D01*
X129027929Y-99301857D01*
X128742214Y-99252809D01*
X128527929Y-99252809D01*
X128242214Y-99301857D01*
X128099357Y-99350905D01*
X127956500Y-99449000D01*
X127885071Y-99596143D01*
X127885071Y-99694238D01*
X127956500Y-99841381D01*
X128027929Y-99890429D01*
X128599357Y-100331857D02*
X128599357Y-100675190D01*
X129385071Y-100822333D02*
X129385071Y-100331857D01*
X127885071Y-100331857D01*
X127885071Y-100822333D01*
X129313643Y-101214714D02*
X129385071Y-101361857D01*
X129385071Y-101607095D01*
X129313643Y-101705191D01*
X129242214Y-101754238D01*
X129099357Y-101803286D01*
X128956500Y-101803286D01*
X128813643Y-101754238D01*
X128742214Y-101705191D01*
X128670786Y-101607095D01*
X128599357Y-101410905D01*
X128527929Y-101312810D01*
X128456500Y-101263762D01*
X128313643Y-101214714D01*
X128170786Y-101214714D01*
X128027929Y-101263762D01*
X127956500Y-101312810D01*
X127885071Y-101410905D01*
X127885071Y-101656143D01*
X127956500Y-101803286D01*
X128599357Y-102244714D02*
X128599357Y-102588047D01*
X129385071Y-102735190D02*
X129385071Y-102244714D01*
X127885071Y-102244714D01*
X127885071Y-102735190D01*
X128813643Y-104746143D02*
X128813643Y-105530905D01*
X128956500Y-106757095D02*
X128956500Y-107247572D01*
X129385071Y-106659000D02*
X127885071Y-107002334D01*
X129385071Y-107345667D01*
X129385071Y-107689000D02*
X128385071Y-107689000D01*
X127885071Y-107689000D02*
X127956500Y-107639952D01*
X128027929Y-107689000D01*
X127956500Y-107738048D01*
X127885071Y-107689000D01*
X128027929Y-107689000D01*
X129313643Y-108130428D02*
X129385071Y-108228524D01*
X129385071Y-108424714D01*
X129313643Y-108522809D01*
X129170786Y-108571857D01*
X129099357Y-108571857D01*
X128956500Y-108522809D01*
X128885071Y-108424714D01*
X128885071Y-108277571D01*
X128813643Y-108179476D01*
X128670786Y-108130428D01*
X128599357Y-108130428D01*
X128456500Y-108179476D01*
X128385071Y-108277571D01*
X128385071Y-108424714D01*
X128456500Y-108522809D01*
X129385071Y-109160429D02*
X129313643Y-109062334D01*
X129170786Y-109013286D01*
X127885071Y-109013286D01*
X129385071Y-109994239D02*
X128599357Y-109994239D01*
X128456500Y-109945191D01*
X128385071Y-109847096D01*
X128385071Y-109650905D01*
X128456500Y-109552810D01*
X129313643Y-109994239D02*
X129385071Y-109896143D01*
X129385071Y-109650905D01*
X129313643Y-109552810D01*
X129170786Y-109503762D01*
X129027929Y-109503762D01*
X128885071Y-109552810D01*
X128813643Y-109650905D01*
X128813643Y-109896143D01*
X128742214Y-109994239D01*
X129313643Y-110926144D02*
X129385071Y-110828048D01*
X129385071Y-110631858D01*
X129313643Y-110533763D01*
X129242214Y-110484715D01*
X129099357Y-110435667D01*
X128670786Y-110435667D01*
X128527929Y-110484715D01*
X128456500Y-110533763D01*
X128385071Y-110631858D01*
X128385071Y-110828048D01*
X128456500Y-110926144D01*
X129385071Y-111367572D02*
X128385071Y-111367572D01*
X127885071Y-111367572D02*
X127956500Y-111318524D01*
X128027929Y-111367572D01*
X127956500Y-111416620D01*
X127885071Y-111367572D01*
X128027929Y-111367572D01*
X129385071Y-112005191D02*
X129313643Y-111907096D01*
X129242214Y-111858048D01*
X129099357Y-111809000D01*
X128670786Y-111809000D01*
X128527929Y-111858048D01*
X128456500Y-111907096D01*
X128385071Y-112005191D01*
X128385071Y-112152334D01*
X128456500Y-112250429D01*
X128527929Y-112299477D01*
X128670786Y-112348524D01*
X129099357Y-112348524D01*
X129242214Y-112299477D01*
X129313643Y-112250429D01*
X129385071Y-112152334D01*
X129385071Y-112005191D01*
X128385071Y-112789953D02*
X129385071Y-112789953D01*
X128527929Y-112789953D02*
X128456500Y-112839001D01*
X128385071Y-112937096D01*
X128385071Y-113084239D01*
X128456500Y-113182334D01*
X128599357Y-113231382D01*
X129385071Y-113231382D01*
X127885071Y-114506620D02*
X129099357Y-114506620D01*
X129242214Y-114555668D01*
X129313643Y-114604715D01*
X129385071Y-114702811D01*
X129385071Y-114899001D01*
X129313643Y-114997096D01*
X129242214Y-115046144D01*
X129099357Y-115095192D01*
X127885071Y-115095192D01*
X129313643Y-115536620D02*
X129385071Y-115683763D01*
X129385071Y-115929001D01*
X129313643Y-116027097D01*
X129242214Y-116076144D01*
X129099357Y-116125192D01*
X128956500Y-116125192D01*
X128813643Y-116076144D01*
X128742214Y-116027097D01*
X128670786Y-115929001D01*
X128599357Y-115732811D01*
X128527929Y-115634716D01*
X128456500Y-115585668D01*
X128313643Y-115536620D01*
X128170786Y-115536620D01*
X128027929Y-115585668D01*
X127956500Y-115634716D01*
X127885071Y-115732811D01*
X127885071Y-115978049D01*
X127956500Y-116125192D01*
X128599357Y-116909953D02*
X128670786Y-117057096D01*
X128742214Y-117106144D01*
X128885071Y-117155192D01*
X129099357Y-117155192D01*
X129242214Y-117106144D01*
X129313643Y-117057096D01*
X129385071Y-116959001D01*
X129385071Y-116566620D01*
X127885071Y-116566620D01*
X127885071Y-116909953D01*
X127956500Y-117008049D01*
X128027929Y-117057096D01*
X128170786Y-117106144D01*
X128313643Y-117106144D01*
X128456500Y-117057096D01*
X128527929Y-117008049D01*
X128599357Y-116909953D01*
X128599357Y-116566620D01*
X131742571Y-96947571D02*
X130242571Y-96947571D01*
X130242571Y-97192809D01*
X130314000Y-97339952D01*
X130456857Y-97438047D01*
X130599714Y-97487095D01*
X130885429Y-97536143D01*
X131099714Y-97536143D01*
X131385429Y-97487095D01*
X131528286Y-97438047D01*
X131671143Y-97339952D01*
X131742571Y-97192809D01*
X131742571Y-96947571D01*
X131742571Y-97977571D02*
X130742571Y-97977571D01*
X130242571Y-97977571D02*
X130314000Y-97928523D01*
X130385429Y-97977571D01*
X130314000Y-98026619D01*
X130242571Y-97977571D01*
X130385429Y-97977571D01*
X131671143Y-98418999D02*
X131742571Y-98517095D01*
X131742571Y-98713285D01*
X131671143Y-98811380D01*
X131528286Y-98860428D01*
X131456857Y-98860428D01*
X131314000Y-98811380D01*
X131242571Y-98713285D01*
X131242571Y-98566142D01*
X131171143Y-98468047D01*
X131028286Y-98418999D01*
X130956857Y-98418999D01*
X130814000Y-98468047D01*
X130742571Y-98566142D01*
X130742571Y-98713285D01*
X130814000Y-98811380D01*
X131671143Y-99694238D02*
X131742571Y-99596143D01*
X131742571Y-99399952D01*
X131671143Y-99301857D01*
X131528286Y-99252809D01*
X130956857Y-99252809D01*
X130814000Y-99301857D01*
X130742571Y-99399952D01*
X130742571Y-99596143D01*
X130814000Y-99694238D01*
X130956857Y-99743286D01*
X131099714Y-99743286D01*
X131242571Y-99252809D01*
X130742571Y-100184714D02*
X131742571Y-100184714D01*
X130885429Y-100184714D02*
X130814000Y-100233762D01*
X130742571Y-100331857D01*
X130742571Y-100479000D01*
X130814000Y-100577095D01*
X130956857Y-100626143D01*
X131742571Y-100626143D01*
X130385429Y-100135666D02*
X130314000Y-100184714D01*
X130242571Y-100282809D01*
X130385429Y-100479000D01*
X130314000Y-100577095D01*
X130242571Y-100626143D01*
X131742571Y-101263762D02*
X131671143Y-101165667D01*
X131599714Y-101116619D01*
X131456857Y-101067571D01*
X131028286Y-101067571D01*
X130885429Y-101116619D01*
X130814000Y-101165667D01*
X130742571Y-101263762D01*
X130742571Y-101410905D01*
X130814000Y-101509000D01*
X130885429Y-101558048D01*
X131028286Y-101607095D01*
X131456857Y-101607095D01*
X131599714Y-101558048D01*
X131671143Y-101509000D01*
X131742571Y-101410905D01*
X131742571Y-101263762D01*
X131742571Y-103274715D02*
X130242571Y-103274715D01*
X131671143Y-103274715D02*
X131742571Y-103176619D01*
X131742571Y-102980429D01*
X131671143Y-102882334D01*
X131599714Y-102833286D01*
X131456857Y-102784238D01*
X131028286Y-102784238D01*
X130885429Y-102833286D01*
X130814000Y-102882334D01*
X130742571Y-102980429D01*
X130742571Y-103176619D01*
X130814000Y-103274715D01*
X131671143Y-104157572D02*
X131742571Y-104059477D01*
X131742571Y-103863286D01*
X131671143Y-103765191D01*
X131528286Y-103716143D01*
X130956857Y-103716143D01*
X130814000Y-103765191D01*
X130742571Y-103863286D01*
X130742571Y-104059477D01*
X130814000Y-104157572D01*
X130956857Y-104206620D01*
X131099714Y-104206620D01*
X131242571Y-103716143D01*
X131599714Y-106021382D02*
X131671143Y-105972334D01*
X131742571Y-105825191D01*
X131742571Y-105727096D01*
X131671143Y-105579953D01*
X131528286Y-105481858D01*
X131385429Y-105432810D01*
X131099714Y-105383762D01*
X130885429Y-105383762D01*
X130599714Y-105432810D01*
X130456857Y-105481858D01*
X130314000Y-105579953D01*
X130242571Y-105727096D01*
X130242571Y-105825191D01*
X130314000Y-105972334D01*
X130385429Y-106021382D01*
X131742571Y-106462810D02*
X130742571Y-106462810D01*
X130242571Y-106462810D02*
X130314000Y-106413762D01*
X130385429Y-106462810D01*
X130314000Y-106511858D01*
X130242571Y-106462810D01*
X130385429Y-106462810D01*
X131742571Y-106953286D02*
X130742571Y-106953286D01*
X131028286Y-106953286D02*
X130885429Y-107002334D01*
X130814000Y-107051381D01*
X130742571Y-107149477D01*
X130742571Y-107247572D01*
X131671143Y-108032334D02*
X131742571Y-107934238D01*
X131742571Y-107738048D01*
X131671143Y-107639953D01*
X131599714Y-107590905D01*
X131456857Y-107541857D01*
X131028286Y-107541857D01*
X130885429Y-107590905D01*
X130814000Y-107639953D01*
X130742571Y-107738048D01*
X130742571Y-107934238D01*
X130814000Y-108032334D01*
X130742571Y-108915191D02*
X131742571Y-108915191D01*
X130742571Y-108473762D02*
X131528286Y-108473762D01*
X131671143Y-108522810D01*
X131742571Y-108620905D01*
X131742571Y-108768048D01*
X131671143Y-108866143D01*
X131599714Y-108915191D01*
X131742571Y-109405667D02*
X130742571Y-109405667D01*
X130242571Y-109405667D02*
X130314000Y-109356619D01*
X130385429Y-109405667D01*
X130314000Y-109454715D01*
X130242571Y-109405667D01*
X130385429Y-109405667D01*
X130742571Y-109749000D02*
X130742571Y-110141381D01*
X130242571Y-109896143D02*
X131528286Y-109896143D01*
X131671143Y-109945191D01*
X131742571Y-110043286D01*
X131742571Y-110141381D01*
X131742571Y-110631857D02*
X131671143Y-110533762D01*
X131599714Y-110484714D01*
X131456857Y-110435666D01*
X131028286Y-110435666D01*
X130885429Y-110484714D01*
X130814000Y-110533762D01*
X130742571Y-110631857D01*
X130742571Y-110779000D01*
X130814000Y-110877095D01*
X130885429Y-110926143D01*
X131028286Y-110975190D01*
X131456857Y-110975190D01*
X131599714Y-110926143D01*
X131671143Y-110877095D01*
X131742571Y-110779000D01*
X131742571Y-110631857D01*
X131671143Y-111367571D02*
X131742571Y-111465667D01*
X131742571Y-111661857D01*
X131671143Y-111759952D01*
X131528286Y-111809000D01*
X131456857Y-111809000D01*
X131314000Y-111759952D01*
X131242571Y-111661857D01*
X131242571Y-111514714D01*
X131171143Y-111416619D01*
X131028286Y-111367571D01*
X130956857Y-111367571D01*
X130814000Y-111416619D01*
X130742571Y-111514714D01*
X130742571Y-111661857D01*
X130814000Y-111759952D01*
X131742571Y-113035191D02*
X130242571Y-113035191D01*
X131742571Y-113525667D02*
X130742571Y-113525667D01*
X130885429Y-113525667D02*
X130814000Y-113574715D01*
X130742571Y-113672810D01*
X130742571Y-113819953D01*
X130814000Y-113918048D01*
X130956857Y-113967096D01*
X131742571Y-113967096D01*
X130956857Y-113967096D02*
X130814000Y-114016143D01*
X130742571Y-114114239D01*
X130742571Y-114261381D01*
X130814000Y-114359477D01*
X130956857Y-114408524D01*
X131742571Y-114408524D01*
X130742571Y-114899000D02*
X132242571Y-114899000D01*
X130814000Y-114899000D02*
X130742571Y-114997095D01*
X130742571Y-115193286D01*
X130814000Y-115291381D01*
X130885429Y-115340429D01*
X131028286Y-115389476D01*
X131456857Y-115389476D01*
X131599714Y-115340429D01*
X131671143Y-115291381D01*
X131742571Y-115193286D01*
X131742571Y-114997095D01*
X131671143Y-114899000D01*
X131742571Y-115830905D02*
X130742571Y-115830905D01*
X131028286Y-115830905D02*
X130885429Y-115879953D01*
X130814000Y-115929000D01*
X130742571Y-116027096D01*
X130742571Y-116125191D01*
X131671143Y-116860905D02*
X131742571Y-116762810D01*
X131742571Y-116566619D01*
X131671143Y-116468524D01*
X131528286Y-116419476D01*
X130956857Y-116419476D01*
X130814000Y-116468524D01*
X130742571Y-116566619D01*
X130742571Y-116762810D01*
X130814000Y-116860905D01*
X130956857Y-116909953D01*
X131099714Y-116909953D01*
X131242571Y-116419476D01*
X131671143Y-117302333D02*
X131742571Y-117400429D01*
X131742571Y-117596619D01*
X131671143Y-117694714D01*
X131528286Y-117743762D01*
X131456857Y-117743762D01*
X131314000Y-117694714D01*
X131242571Y-117596619D01*
X131242571Y-117449476D01*
X131171143Y-117351381D01*
X131028286Y-117302333D01*
X130956857Y-117302333D01*
X130814000Y-117351381D01*
X130742571Y-117449476D01*
X130742571Y-117596619D01*
X130814000Y-117694714D01*
X131742571Y-118332334D02*
X131671143Y-118234239D01*
X131599714Y-118185191D01*
X131456857Y-118136143D01*
X131028286Y-118136143D01*
X130885429Y-118185191D01*
X130814000Y-118234239D01*
X130742571Y-118332334D01*
X130742571Y-118479477D01*
X130814000Y-118577572D01*
X130885429Y-118626620D01*
X131028286Y-118675667D01*
X131456857Y-118675667D01*
X131599714Y-118626620D01*
X131671143Y-118577572D01*
X131742571Y-118479477D01*
X131742571Y-118332334D01*
X131671143Y-119068048D02*
X131742571Y-119166144D01*
X131742571Y-119362334D01*
X131671143Y-119460429D01*
X131528286Y-119509477D01*
X131456857Y-119509477D01*
X131314000Y-119460429D01*
X131242571Y-119362334D01*
X131242571Y-119215191D01*
X131171143Y-119117096D01*
X131028286Y-119068048D01*
X130956857Y-119068048D01*
X130814000Y-119117096D01*
X130742571Y-119215191D01*
X130742571Y-119362334D01*
X130814000Y-119460429D01*
X134100071Y-99056619D02*
X132600071Y-99056619D01*
X133671500Y-99399952D01*
X132600071Y-99743286D01*
X134100071Y-99743286D01*
X134100071Y-100675191D02*
X133314357Y-100675191D01*
X133171500Y-100626143D01*
X133100071Y-100528048D01*
X133100071Y-100331857D01*
X133171500Y-100233762D01*
X134028643Y-100675191D02*
X134100071Y-100577095D01*
X134100071Y-100331857D01*
X134028643Y-100233762D01*
X133885786Y-100184714D01*
X133742929Y-100184714D01*
X133600071Y-100233762D01*
X133528643Y-100331857D01*
X133528643Y-100577095D01*
X133457214Y-100675191D01*
X134100071Y-101165667D02*
X133100071Y-101165667D01*
X133385786Y-101165667D02*
X133242929Y-101214715D01*
X133171500Y-101263762D01*
X133100071Y-101361858D01*
X133100071Y-101459953D01*
X134028643Y-102244715D02*
X134100071Y-102146619D01*
X134100071Y-101950429D01*
X134028643Y-101852334D01*
X133957214Y-101803286D01*
X133814357Y-101754238D01*
X133385786Y-101754238D01*
X133242929Y-101803286D01*
X133171500Y-101852334D01*
X133100071Y-101950429D01*
X133100071Y-102146619D01*
X133171500Y-102244715D01*
X134100071Y-102833286D02*
X134028643Y-102735191D01*
X133957214Y-102686143D01*
X133814357Y-102637095D01*
X133385786Y-102637095D01*
X133242929Y-102686143D01*
X133171500Y-102735191D01*
X133100071Y-102833286D01*
X133100071Y-102980429D01*
X133171500Y-103078524D01*
X133242929Y-103127572D01*
X133385786Y-103176619D01*
X133814357Y-103176619D01*
X133957214Y-103127572D01*
X134028643Y-103078524D01*
X134100071Y-102980429D01*
X134100071Y-102833286D01*
X134028643Y-103569000D02*
X134100071Y-103667096D01*
X134100071Y-103863286D01*
X134028643Y-103961381D01*
X133885786Y-104010429D01*
X133814357Y-104010429D01*
X133671500Y-103961381D01*
X133600071Y-103863286D01*
X133600071Y-103716143D01*
X133528643Y-103618048D01*
X133385786Y-103569000D01*
X133314357Y-103569000D01*
X133171500Y-103618048D01*
X133100071Y-103716143D01*
X133100071Y-103863286D01*
X133171500Y-103961381D01*
X134100071Y-105236620D02*
X132600071Y-105236620D01*
X132600071Y-105481858D01*
X132671500Y-105629001D01*
X132814357Y-105727096D01*
X132957214Y-105776144D01*
X133242929Y-105825192D01*
X133457214Y-105825192D01*
X133742929Y-105776144D01*
X133885786Y-105727096D01*
X134028643Y-105629001D01*
X134100071Y-105481858D01*
X134100071Y-105236620D01*
X134100071Y-106708049D02*
X133314357Y-106708049D01*
X133171500Y-106659001D01*
X133100071Y-106560906D01*
X133100071Y-106364715D01*
X133171500Y-106266620D01*
X134028643Y-106708049D02*
X134100071Y-106609953D01*
X134100071Y-106364715D01*
X134028643Y-106266620D01*
X133885786Y-106217572D01*
X133742929Y-106217572D01*
X133600071Y-106266620D01*
X133528643Y-106364715D01*
X133528643Y-106609953D01*
X133457214Y-106708049D01*
X134100071Y-107198525D02*
X133100071Y-107198525D01*
X133385786Y-107198525D02*
X133242929Y-107247573D01*
X133171500Y-107296620D01*
X133100071Y-107394716D01*
X133100071Y-107492811D01*
X134100071Y-107836144D02*
X133100071Y-107836144D01*
X132600071Y-107836144D02*
X132671500Y-107787096D01*
X132742929Y-107836144D01*
X132671500Y-107885192D01*
X132600071Y-107836144D01*
X132742929Y-107836144D01*
X133100071Y-108326620D02*
X134100071Y-108326620D01*
X133242929Y-108326620D02*
X133171500Y-108375668D01*
X133100071Y-108473763D01*
X133100071Y-108620906D01*
X133171500Y-108719001D01*
X133314357Y-108768049D01*
X134100071Y-108768049D01*
X134100071Y-109405668D02*
X134028643Y-109307573D01*
X133957214Y-109258525D01*
X133814357Y-109209477D01*
X133385786Y-109209477D01*
X133242929Y-109258525D01*
X133171500Y-109307573D01*
X133100071Y-109405668D01*
X133100071Y-109552811D01*
X133171500Y-109650906D01*
X133242929Y-109699954D01*
X133385786Y-109749001D01*
X133814357Y-109749001D01*
X133957214Y-109699954D01*
X134028643Y-109650906D01*
X134100071Y-109552811D01*
X134100071Y-109405668D01*
X133528643Y-110975192D02*
X133528643Y-111759954D01*
X134100071Y-113623764D02*
X133385786Y-113280430D01*
X134100071Y-113035192D02*
X132600071Y-113035192D01*
X132600071Y-113427573D01*
X132671500Y-113525668D01*
X132742929Y-113574716D01*
X132885786Y-113623764D01*
X133100071Y-113623764D01*
X133242929Y-113574716D01*
X133314357Y-113525668D01*
X133385786Y-113427573D01*
X133385786Y-113035192D01*
X133314357Y-114065192D02*
X133314357Y-114408525D01*
X134100071Y-114555668D02*
X134100071Y-114065192D01*
X132600071Y-114065192D01*
X132600071Y-114555668D01*
X132600071Y-114849954D02*
X134100071Y-115193288D01*
X132600071Y-115536621D01*
X132600071Y-116076145D02*
X132600071Y-116174240D01*
X132671500Y-116272335D01*
X132742929Y-116321383D01*
X132885786Y-116370430D01*
X133171500Y-116419478D01*
X133528643Y-116419478D01*
X133814357Y-116370430D01*
X133957214Y-116321383D01*
X134028643Y-116272335D01*
X134100071Y-116174240D01*
X134100071Y-116076145D01*
X134028643Y-115978049D01*
X133957214Y-115929002D01*
X133814357Y-115879954D01*
X133528643Y-115830906D01*
X133171500Y-115830906D01*
X132885786Y-115879954D01*
X132742929Y-115929002D01*
X132671500Y-115978049D01*
X132600071Y-116076145D01*
X134100071Y-117400430D02*
X134100071Y-116811858D01*
X134100071Y-117106144D02*
X132600071Y-117106144D01*
X132814357Y-117008049D01*
X132957214Y-116909954D01*
X133028643Y-116811858D01*
M02*
