G04 #@! TF.FileFunction,Soldermask,Top*
%FSLAX46Y46*%
G04 Gerber Fmt 4.6, Leading zero omitted, Abs format (unit mm)*
G04 Created by KiCad (PCBNEW 4.0.2-stable) date 25/07/2016 02:37:25 p.m.*
%MOMM*%
G01*
G04 APERTURE LIST*
%ADD10C,0.100000*%
%ADD11C,4.800600*%
%ADD12R,4.800600X4.800600*%
%ADD13C,1.501140*%
%ADD14C,2.999740*%
%ADD15C,4.000000*%
%ADD16R,0.750000X1.200000*%
%ADD17R,1.600000X2.000000*%
%ADD18R,2.200000X3.000000*%
%ADD19R,2.032000X1.524000*%
%ADD20R,1.200000X0.750000*%
%ADD21R,1.198880X1.198880*%
%ADD22R,2.540000X2.540000*%
%ADD23C,2.540000*%
%ADD24R,0.900000X1.200000*%
%ADD25R,1.200000X0.900000*%
%ADD26R,1.500000X0.600000*%
%ADD27O,2.032000X2.540000*%
%ADD28R,1.651000X1.651000*%
%ADD29C,1.651000*%
%ADD30R,1.350000X0.400000*%
%ADD31R,1.600000X2.100000*%
%ADD32R,1.900000X1.800000*%
%ADD33R,1.900000X1.900000*%
%ADD34R,1.700000X2.500000*%
%ADD35C,4.700000*%
%ADD36R,1.100000X0.787400*%
%ADD37R,1.000000X0.960000*%
%ADD38R,1.000000X0.540000*%
G04 APERTURE END LIST*
D10*
D11*
X159766000Y-92710000D03*
D12*
X153670000Y-92710000D03*
D11*
X157480000Y-87630000D03*
D13*
X154175880Y-107187140D03*
X154175880Y-109727140D03*
X154175880Y-111759140D03*
X154175880Y-114299140D03*
D14*
X156842880Y-104139140D03*
X156842880Y-117855140D03*
D15*
X131064000Y-118745000D03*
X116967000Y-78232000D03*
X150622000Y-118618000D03*
X164846000Y-99695000D03*
D16*
X115951000Y-98486000D03*
X115951000Y-96586000D03*
X117856000Y-98486000D03*
X117856000Y-96586000D03*
X125857000Y-119060000D03*
X125857000Y-117160000D03*
X124206000Y-119060000D03*
X124206000Y-117160000D03*
D17*
X114554000Y-81058000D03*
X114554000Y-85058000D03*
X114554000Y-88678000D03*
X114554000Y-92678000D03*
D16*
X116840000Y-82108000D03*
X116840000Y-84008000D03*
X116840000Y-88712000D03*
X116840000Y-90612000D03*
D18*
X126344000Y-78232000D03*
X120544000Y-78232000D03*
X137520000Y-100838000D03*
X131720000Y-100838000D03*
D16*
X130302000Y-82108000D03*
X130302000Y-84008000D03*
X130048000Y-89220000D03*
X130048000Y-91120000D03*
D17*
X132334000Y-80042000D03*
X132334000Y-84042000D03*
X132080000Y-88932000D03*
X132080000Y-92932000D03*
D19*
X144018000Y-78867000D03*
X144018000Y-82169000D03*
D20*
X150942000Y-83312000D03*
X152842000Y-83312000D03*
X156652000Y-83312000D03*
X154752000Y-83312000D03*
D16*
X147574000Y-119314000D03*
X147574000Y-117414000D03*
X155321000Y-100391000D03*
X155321000Y-98491000D03*
X145542000Y-95184000D03*
X145542000Y-93284000D03*
X144272000Y-119314000D03*
X144272000Y-117414000D03*
X126238000Y-107884000D03*
X126238000Y-105984000D03*
X128016000Y-106360000D03*
X128016000Y-104460000D03*
X141224000Y-106360000D03*
X141224000Y-104460000D03*
X142748000Y-108138000D03*
X142748000Y-106238000D03*
D21*
X112268000Y-94962980D03*
X112268000Y-97061020D03*
X146812000Y-89695020D03*
X146812000Y-87596980D03*
D20*
X114488000Y-119380000D03*
X112588000Y-119380000D03*
X112334000Y-105918000D03*
X114234000Y-105918000D03*
X149418000Y-114808000D03*
X151318000Y-114808000D03*
X151318000Y-106426000D03*
X149418000Y-106426000D03*
D22*
X163830000Y-84328000D03*
D23*
X163830000Y-79248000D03*
D24*
X112268000Y-99738000D03*
X112268000Y-101938000D03*
D25*
X124290000Y-112268000D03*
X122090000Y-112268000D03*
X124290000Y-114300000D03*
X122090000Y-114300000D03*
X132672000Y-86360000D03*
X130472000Y-86360000D03*
X144356000Y-111760000D03*
X142156000Y-111760000D03*
X144356000Y-113538000D03*
X142156000Y-113538000D03*
D24*
X144526000Y-87206000D03*
X144526000Y-85006000D03*
D25*
X120058000Y-108204000D03*
X122258000Y-108204000D03*
D24*
X124206000Y-108034000D03*
X124206000Y-105834000D03*
D25*
X125392000Y-109728000D03*
X127592000Y-109728000D03*
D24*
X144526000Y-105834000D03*
X144526000Y-108034000D03*
D25*
X143934000Y-109982000D03*
X146134000Y-109982000D03*
D24*
X146304000Y-105834000D03*
X146304000Y-108034000D03*
D26*
X118794000Y-81915000D03*
X118794000Y-83185000D03*
X118794000Y-84455000D03*
X118794000Y-85725000D03*
X118794000Y-86995000D03*
X118794000Y-88265000D03*
X118794000Y-89535000D03*
X118794000Y-90805000D03*
X128094000Y-90805000D03*
X128094000Y-89535000D03*
X128094000Y-88265000D03*
X128094000Y-86995000D03*
X128094000Y-85725000D03*
X128094000Y-84455000D03*
X128094000Y-83185000D03*
X128094000Y-81915000D03*
D27*
X153924000Y-78486000D03*
X151384000Y-78486000D03*
X156464000Y-78486000D03*
D28*
X138684000Y-84836000D03*
D29*
X138684000Y-87376000D03*
X138684000Y-89916000D03*
D28*
X125730000Y-100838000D03*
D29*
X123190000Y-100838000D03*
X120650000Y-100838000D03*
D28*
X148590000Y-100838000D03*
D29*
X146050000Y-100838000D03*
X143510000Y-100838000D03*
D26*
X129970000Y-105283000D03*
X129970000Y-106553000D03*
X129970000Y-107823000D03*
X129970000Y-109093000D03*
X129970000Y-110363000D03*
X129970000Y-111633000D03*
X129970000Y-112903000D03*
X129970000Y-114173000D03*
X139270000Y-114173000D03*
X139270000Y-112903000D03*
X139270000Y-111633000D03*
X139270000Y-110363000D03*
X139270000Y-109093000D03*
X139270000Y-107823000D03*
X139270000Y-106553000D03*
X139270000Y-105283000D03*
D30*
X115578000Y-112776000D03*
X115578000Y-112126000D03*
X115578000Y-113426000D03*
X115578000Y-111476000D03*
X115578000Y-114076000D03*
D31*
X115453000Y-109676000D03*
X115453000Y-115876000D03*
D32*
X112903000Y-108776000D03*
X112903000Y-116776000D03*
D33*
X112903000Y-111576000D03*
X112903000Y-113976000D03*
D34*
X146812000Y-82772000D03*
X146812000Y-78772000D03*
D35*
X123444000Y-97028000D03*
X139192000Y-117856000D03*
X160020000Y-100076000D03*
D36*
X118275100Y-113690400D03*
X118275100Y-112623600D03*
X119976900Y-113690400D03*
X119976900Y-112623600D03*
X147916900Y-112115600D03*
X147916900Y-113182400D03*
X146215100Y-112115600D03*
X146215100Y-113182400D03*
D37*
X119847000Y-118362000D03*
D38*
X117897000Y-116642000D03*
X119847000Y-116642000D03*
X117897000Y-118562000D03*
D37*
X149139000Y-108333000D03*
D38*
X151089000Y-110053000D03*
X149139000Y-110053000D03*
X151089000Y-108133000D03*
M02*
