G04 #@! TF.FileFunction,Copper,L1,Top,Signal*
%FSLAX46Y46*%
G04 Gerber Fmt 4.6, Leading zero omitted, Abs format (unit mm)*
G04 Created by KiCad (PCBNEW 4.0.7-e2-6376~58~ubuntu16.04.1) date Tue Nov 13 23:08:23 2018*
%MOMM*%
%LPD*%
G01*
G04 APERTURE LIST*
%ADD10C,0.100000*%
%ADD11R,2.000000X1.524000*%
%ADD12O,2.000000X1.524000*%
%ADD13C,7.000000*%
%ADD14O,1.500000X3.500000*%
%ADD15R,4.500000X2.000000*%
%ADD16R,1.600000X3.500000*%
%ADD17R,1.600000X2.000000*%
%ADD18R,2.000000X2.000000*%
%ADD19C,2.000000*%
%ADD20R,1.600000X3.000000*%
%ADD21R,1.600000X1.600000*%
%ADD22C,1.600000*%
%ADD23R,2.000000X1.600000*%
%ADD24R,3.000000X1.600000*%
%ADD25R,1.700000X2.000000*%
%ADD26R,1.700000X1.700000*%
%ADD27O,1.700000X1.700000*%
%ADD28C,1.000000*%
%ADD29R,1.000000X1.000000*%
%ADD30R,2.500000X2.400000*%
%ADD31C,1.440000*%
%ADD32R,2.000000X1.700000*%
%ADD33R,1.550000X0.600000*%
%ADD34R,1.450000X0.450000*%
%ADD35C,2.500000*%
%ADD36R,2.500000X2.500000*%
%ADD37R,2.400000X2.500000*%
%ADD38C,5.000000*%
%ADD39R,1.800000X1.800000*%
%ADD40O,1.800000X1.800000*%
%ADD41O,1.600000X1.600000*%
%ADD42C,0.900000*%
%ADD43C,0.750000*%
%ADD44C,0.750000*%
%ADD45C,0.500000*%
%ADD46C,1.000000*%
%ADD47C,0.300000*%
%ADD48C,0.250000*%
%ADD49C,0.400000*%
G04 APERTURE END LIST*
D10*
D11*
X143001761Y-93671721D03*
D12*
X145541761Y-93671721D03*
X143001761Y-106371721D03*
X145541761Y-96211721D03*
X143001761Y-108911721D03*
X145541761Y-98751721D03*
X143001761Y-111451721D03*
X145541761Y-101291721D03*
X143001761Y-113991721D03*
X145541761Y-103831721D03*
X143001761Y-116531721D03*
X145541761Y-106371721D03*
X143001761Y-119071721D03*
X145541761Y-108911721D03*
X143001761Y-121611721D03*
X145541761Y-111451721D03*
X143001761Y-124151721D03*
X145541761Y-113991721D03*
X143001761Y-126691721D03*
X145541761Y-116531721D03*
X143001761Y-129231721D03*
X145541761Y-119071721D03*
X143001761Y-131771721D03*
X145541761Y-121611721D03*
X145541761Y-124151721D03*
X143001761Y-134311721D03*
X145541761Y-126691721D03*
X145541761Y-131771721D03*
X145541761Y-134311721D03*
X145541761Y-136851721D03*
X145541761Y-139391721D03*
X143001761Y-136851721D03*
X143001761Y-139391721D03*
X143001761Y-96211721D03*
X143001761Y-98751721D03*
X143001761Y-101291721D03*
X143001761Y-103831721D03*
X143001761Y-141931721D03*
X145541761Y-141931721D03*
X145541761Y-129231721D03*
D11*
X71881761Y-93671721D03*
D12*
X74421761Y-93671721D03*
X71881761Y-96211721D03*
X74421761Y-96211721D03*
X71881761Y-98751721D03*
X74421761Y-98751721D03*
X71881761Y-101291721D03*
X74421761Y-101291721D03*
X71881761Y-103831721D03*
X74421761Y-103831721D03*
X71881761Y-106371721D03*
X74421761Y-106371721D03*
X71881761Y-108911721D03*
X74421761Y-108911721D03*
X71881761Y-111451721D03*
X74421761Y-111451721D03*
X71881761Y-113991721D03*
X74421761Y-113991721D03*
X71881761Y-116531721D03*
X74421761Y-116531721D03*
X71881761Y-119071721D03*
X74421761Y-119071721D03*
X71881761Y-121611721D03*
X74421761Y-121611721D03*
X71881761Y-124151721D03*
X74421761Y-124151721D03*
X71881761Y-126691721D03*
X74421761Y-126691721D03*
X71881761Y-129231721D03*
X74421761Y-129231721D03*
X71881761Y-131771721D03*
X74421761Y-131771721D03*
X71881761Y-134311721D03*
X74421761Y-134311721D03*
X71881761Y-136851721D03*
X74421761Y-136851721D03*
X71881761Y-139391721D03*
X74421761Y-139391721D03*
X71881761Y-141931721D03*
X74421761Y-141931721D03*
D13*
X69976761Y-162505721D03*
X146303761Y-162505721D03*
X69976761Y-35124721D03*
X146303761Y-34997721D03*
D14*
X114500000Y-42000000D03*
X124500000Y-42000000D03*
D15*
X119500000Y-36500000D03*
D16*
X119000000Y-51300000D03*
X119000000Y-56700000D03*
X130000000Y-51300000D03*
X130000000Y-56700000D03*
D17*
X97000000Y-93000000D03*
X97000000Y-89000000D03*
D18*
X87000000Y-93000000D03*
D19*
X87000000Y-88000000D03*
D17*
X138000000Y-63000000D03*
X138000000Y-67000000D03*
X97000000Y-80000000D03*
X97000000Y-84000000D03*
D20*
X130000000Y-62800000D03*
X130000000Y-67200000D03*
D18*
X87000000Y-80000000D03*
D19*
X87000000Y-75000000D03*
D16*
X103000000Y-51300000D03*
X103000000Y-56700000D03*
X93000000Y-51300000D03*
X93000000Y-56700000D03*
D17*
X76000000Y-67000000D03*
X76000000Y-63000000D03*
D20*
X82000000Y-67200000D03*
X82000000Y-62800000D03*
D17*
X138000000Y-98000000D03*
X138000000Y-94000000D03*
D20*
X132000000Y-98200000D03*
X132000000Y-93800000D03*
D21*
X110000000Y-103000000D03*
D22*
X110000000Y-105500000D03*
D23*
X120000000Y-107000000D03*
X124000000Y-107000000D03*
D24*
X100200000Y-105000000D03*
X95800000Y-105000000D03*
D21*
X110000000Y-96000000D03*
D22*
X110000000Y-98500000D03*
D24*
X119800000Y-114000000D03*
X124200000Y-114000000D03*
X124200000Y-91000000D03*
X119800000Y-91000000D03*
D23*
X124000000Y-85000000D03*
X120000000Y-85000000D03*
D20*
X77000000Y-153800000D03*
X77000000Y-158200000D03*
D17*
X112000000Y-158000000D03*
X112000000Y-154000000D03*
X133000000Y-154000000D03*
X133000000Y-158000000D03*
D23*
X113000000Y-91000000D03*
X109000000Y-91000000D03*
D24*
X113200000Y-85000000D03*
X108800000Y-85000000D03*
D25*
X107000000Y-137000000D03*
X107000000Y-133000000D03*
X95000000Y-133000000D03*
X95000000Y-137000000D03*
X119000000Y-133000000D03*
X119000000Y-137000000D03*
D26*
X132000000Y-84000000D03*
D27*
X132000000Y-86540000D03*
D26*
X139000000Y-84000000D03*
D27*
X139000000Y-86540000D03*
D26*
X85000000Y-103000000D03*
D27*
X82460000Y-103000000D03*
X85000000Y-105540000D03*
X82460000Y-105540000D03*
X85000000Y-108080000D03*
X82460000Y-108080000D03*
X85000000Y-110620000D03*
X82460000Y-110620000D03*
X85000000Y-113160000D03*
X82460000Y-113160000D03*
D26*
X133000000Y-106000000D03*
D27*
X130460000Y-106000000D03*
X133000000Y-108540000D03*
X130460000Y-108540000D03*
X133000000Y-111080000D03*
X130460000Y-111080000D03*
X133000000Y-113620000D03*
X130460000Y-113620000D03*
X133000000Y-116160000D03*
X130460000Y-116160000D03*
D26*
X146000000Y-84000000D03*
D27*
X146000000Y-86540000D03*
D28*
X110270000Y-121730000D03*
X111540000Y-123000000D03*
D29*
X109000000Y-123000000D03*
D28*
X94270000Y-121730000D03*
X95540000Y-123000000D03*
D29*
X93000000Y-123000000D03*
D28*
X126270000Y-121730000D03*
X127540000Y-123000000D03*
D29*
X125000000Y-123000000D03*
D25*
X106000000Y-63000000D03*
X106000000Y-67000000D03*
X112000000Y-63000000D03*
X112000000Y-67000000D03*
X138000000Y-56000000D03*
X138000000Y-52000000D03*
X146000000Y-44000000D03*
X146000000Y-48000000D03*
D30*
X108000000Y-43150000D03*
X108000000Y-36850000D03*
X132000000Y-43150000D03*
X132000000Y-36850000D03*
X111000000Y-50850000D03*
X111000000Y-57150000D03*
X138000000Y-43150000D03*
X138000000Y-36850000D03*
D31*
X125500000Y-74000000D03*
X128040000Y-74000000D03*
X130580000Y-74000000D03*
X145000000Y-74000000D03*
X145000000Y-71460000D03*
X145000000Y-68920000D03*
D25*
X71000000Y-67000000D03*
X71000000Y-63000000D03*
X71000000Y-43000000D03*
X71000000Y-47000000D03*
D31*
X98000000Y-74000000D03*
X100540000Y-74000000D03*
X103080000Y-74000000D03*
D25*
X118000000Y-123000000D03*
X118000000Y-127000000D03*
D32*
X96000000Y-112000000D03*
X100000000Y-112000000D03*
D25*
X102000000Y-123000000D03*
X102000000Y-127000000D03*
X146000000Y-147000000D03*
X146000000Y-151000000D03*
X133000000Y-123000000D03*
X133000000Y-127000000D03*
D33*
X117300000Y-63095000D03*
X117300000Y-64365000D03*
X117300000Y-65635000D03*
X117300000Y-66905000D03*
X122700000Y-66905000D03*
X122700000Y-65635000D03*
X122700000Y-64365000D03*
X122700000Y-63095000D03*
X93700000Y-66905000D03*
X93700000Y-65635000D03*
X93700000Y-64365000D03*
X93700000Y-63095000D03*
X88300000Y-63095000D03*
X88300000Y-64365000D03*
X88300000Y-65635000D03*
X88300000Y-66905000D03*
D34*
X119050000Y-96075000D03*
X119050000Y-96725000D03*
X119050000Y-97375000D03*
X119050000Y-98025000D03*
X119050000Y-98675000D03*
X119050000Y-99325000D03*
X119050000Y-99975000D03*
X119050000Y-100625000D03*
X119050000Y-101275000D03*
X119050000Y-101925000D03*
X124950000Y-101925000D03*
X124950000Y-101275000D03*
X124950000Y-100625000D03*
X124950000Y-99975000D03*
X124950000Y-99325000D03*
X124950000Y-98675000D03*
X124950000Y-98025000D03*
X124950000Y-97375000D03*
X124950000Y-96725000D03*
X124950000Y-96075000D03*
D31*
X111000000Y-74000000D03*
X113540000Y-74000000D03*
X116080000Y-74000000D03*
X145000000Y-60000000D03*
X145000000Y-57460000D03*
X145000000Y-54920000D03*
X71000000Y-58000000D03*
X71000000Y-55460000D03*
X71000000Y-52920000D03*
D35*
X74000000Y-75000000D03*
D36*
X74000000Y-85000000D03*
D35*
X74000000Y-80000000D03*
D30*
X84000000Y-56150000D03*
X84000000Y-49850000D03*
X84000000Y-43150000D03*
X84000000Y-36850000D03*
X78000000Y-56150000D03*
X78000000Y-49850000D03*
X78000000Y-43150000D03*
X78000000Y-36850000D03*
D37*
X79850000Y-127000000D03*
X86150000Y-127000000D03*
X79850000Y-120000000D03*
X86150000Y-120000000D03*
X113150000Y-112000000D03*
X106850000Y-112000000D03*
X79850000Y-134000000D03*
X86150000Y-134000000D03*
D30*
X103000000Y-82850000D03*
X103000000Y-89150000D03*
X137500000Y-72350000D03*
X137500000Y-78650000D03*
X99000000Y-61850000D03*
X99000000Y-68150000D03*
X84000000Y-159150000D03*
X84000000Y-152850000D03*
D38*
X90000000Y-143000000D03*
X101000000Y-143000000D03*
X113000000Y-143000000D03*
X125000000Y-143000000D03*
D39*
X97100000Y-117000000D03*
D40*
X107260000Y-117000000D03*
D22*
X105800000Y-160200000D03*
D41*
X105800000Y-150040000D03*
D22*
X137100000Y-153400000D03*
D41*
X137100000Y-143240000D03*
D14*
X126500000Y-155500000D03*
X116500000Y-155500000D03*
D15*
X121500000Y-161000000D03*
D14*
X99500000Y-155500000D03*
X89500000Y-155500000D03*
D15*
X94500000Y-161000000D03*
D14*
X91000000Y-42000000D03*
X101000000Y-42000000D03*
D15*
X96000000Y-36500000D03*
D42*
X135500000Y-123200000D03*
D43*
X138500000Y-120200000D03*
D42*
X138500000Y-111000000D03*
X99000000Y-123000000D03*
X112000000Y-125000000D03*
X123250000Y-126150000D03*
X120000000Y-126100000D03*
X93000000Y-93000000D03*
X93000000Y-112000000D03*
X117700000Y-69500000D03*
X134300000Y-57460000D03*
X124400000Y-61200000D03*
X124400000Y-67600000D03*
X104700000Y-119500000D03*
X124200000Y-111900000D03*
X119000000Y-103400000D03*
X125000000Y-103500000D03*
X125800000Y-107000000D03*
X142750000Y-147000000D03*
X112000000Y-148750000D03*
X95000000Y-101000000D03*
D43*
X95000000Y-89000000D03*
D42*
X102500000Y-109500000D03*
X98500000Y-109500000D03*
X89500000Y-118000000D03*
D43*
X82500000Y-97500000D03*
D42*
X109000000Y-63000000D03*
X122500000Y-55500000D03*
X99000000Y-80000000D03*
X117020000Y-114060000D03*
X117040000Y-107010000D03*
X116350000Y-94400000D03*
X116350000Y-90750000D03*
X124000000Y-82000000D03*
X113000000Y-82000000D03*
X104000000Y-70000000D03*
X91000000Y-70000000D03*
X146300000Y-77300000D03*
X134500000Y-77300000D03*
X119760000Y-93170000D03*
X121560000Y-96920000D03*
X90000000Y-61000000D03*
X94000000Y-61000000D03*
X75000000Y-60000000D03*
X75000000Y-53000000D03*
X142000000Y-44000000D03*
X135000000Y-67000000D03*
X115000000Y-67000000D03*
X88000000Y-54500000D03*
X98000000Y-54500000D03*
D43*
X127580000Y-98240000D03*
D42*
X107530000Y-94410000D03*
D43*
X140000000Y-120500000D03*
D42*
X77000000Y-150000000D03*
X95000000Y-129750000D03*
D43*
X74500000Y-147000000D03*
X82500000Y-147000000D03*
D42*
X94500000Y-117000000D03*
X84000000Y-47000000D03*
X119800000Y-63100000D03*
X126000000Y-64600000D03*
X89500000Y-114500000D03*
X79500000Y-98500000D03*
X68000000Y-131500000D03*
X77500000Y-97750000D03*
X76750000Y-91250000D03*
D43*
X79500000Y-112500000D03*
X79000000Y-146000000D03*
D42*
X88000000Y-115500000D03*
X99000000Y-127000000D03*
X90000000Y-134000000D03*
X117000000Y-100000000D03*
D43*
X114500000Y-128500000D03*
D42*
X130300000Y-139900000D03*
X127400000Y-105000000D03*
X127250000Y-101550000D03*
D43*
X85350000Y-142650000D03*
D42*
X67275000Y-146875000D03*
X129000000Y-100500000D03*
X89500000Y-101500000D03*
X102250000Y-99750000D03*
D43*
X81700000Y-96350000D03*
D42*
X91500000Y-98050000D03*
X105550000Y-100200000D03*
D43*
X127250000Y-99350000D03*
D42*
X105250000Y-78250000D03*
D44*
X96000000Y-112000000D02*
X96000000Y-113700000D01*
X102000000Y-116200000D02*
X102000000Y-123000000D01*
X100100000Y-114300000D02*
X102000000Y-116200000D01*
X96600000Y-114300000D02*
X100100000Y-114300000D01*
X96000000Y-113700000D02*
X96600000Y-114300000D01*
X135300000Y-123000000D02*
X133000000Y-123000000D01*
D45*
X135500000Y-123200000D02*
X135300000Y-123000000D01*
D44*
X138500000Y-111000000D02*
X138500000Y-120200000D01*
X102000000Y-123000000D02*
X99000000Y-123000000D01*
X112000000Y-125000000D02*
X114000000Y-123000000D01*
X114000000Y-123000000D02*
X118000000Y-123000000D01*
D45*
X118000000Y-123000000D02*
X118100000Y-123100000D01*
D44*
X118100000Y-123100000D02*
X119350000Y-123100000D01*
X130550000Y-123250000D02*
X132750000Y-123250000D01*
X127650000Y-126150000D02*
X130550000Y-123250000D01*
X123250000Y-126150000D02*
X127650000Y-126150000D01*
D45*
X119950000Y-126100000D02*
X120000000Y-126100000D01*
D44*
X119950000Y-123700000D02*
X119950000Y-126100000D01*
X119350000Y-123100000D02*
X119950000Y-123700000D01*
D45*
X132750000Y-123250000D02*
X133000000Y-123000000D01*
X117750000Y-123250000D02*
X118000000Y-123000000D01*
X96000000Y-112000000D02*
X93000000Y-112000000D01*
X93000000Y-93000000D02*
X97000000Y-93000000D01*
X130460000Y-106000000D02*
X133000000Y-106000000D01*
D44*
X85000000Y-113160000D02*
X90840000Y-113160000D01*
X92000000Y-112000000D02*
X96000000Y-112000000D01*
X90840000Y-113160000D02*
X92000000Y-112000000D01*
D46*
X74421761Y-93671721D02*
X78671721Y-93671721D01*
X85000000Y-95000000D02*
X87000000Y-93000000D01*
X80000000Y-95000000D02*
X85000000Y-95000000D01*
X78671721Y-93671721D02*
X80000000Y-95000000D01*
X87000000Y-93000000D02*
X93000000Y-93000000D01*
X93000000Y-93000000D02*
X97000000Y-93000000D01*
X74000000Y-85000000D02*
X75000000Y-85000000D01*
X75000000Y-85000000D02*
X79000000Y-89000000D01*
X79000000Y-89000000D02*
X79000000Y-91000000D01*
X79000000Y-91000000D02*
X81000000Y-93000000D01*
X81000000Y-93000000D02*
X87000000Y-93000000D01*
D44*
X111000000Y-50850000D02*
X118550000Y-50850000D01*
D45*
X118550000Y-50850000D02*
X119000000Y-51300000D01*
D46*
X108000000Y-43150000D02*
X108000000Y-45800000D01*
X111000000Y-48800000D02*
X111000000Y-50850000D01*
X108000000Y-45800000D02*
X111000000Y-48800000D01*
D45*
X117300000Y-65635000D02*
X115635000Y-65635000D01*
X119000000Y-59500000D02*
X119000000Y-56700000D01*
X118400000Y-60100000D02*
X119000000Y-59500000D01*
X116000000Y-60100000D02*
X118400000Y-60100000D01*
X115100000Y-61000000D02*
X116000000Y-60100000D01*
X115100000Y-65100000D02*
X115100000Y-61000000D01*
X115635000Y-65635000D02*
X115100000Y-65100000D01*
X118535000Y-65635000D02*
X119300000Y-66400000D01*
X119300000Y-66400000D02*
X119300000Y-67900000D01*
X119300000Y-67900000D02*
X117700000Y-69500000D01*
X117300000Y-65635000D02*
X118535000Y-65635000D01*
D46*
X132000000Y-43150000D02*
X138000000Y-43150000D01*
D44*
X130000000Y-51300000D02*
X130000000Y-49500000D01*
X132000000Y-47500000D02*
X132000000Y-43150000D01*
X130000000Y-49500000D02*
X132000000Y-47500000D01*
X130000000Y-56700000D02*
X133540000Y-56700000D01*
X133540000Y-56700000D02*
X134300000Y-57460000D01*
D45*
X123705000Y-66905000D02*
X124400000Y-67600000D01*
X122700000Y-66905000D02*
X123705000Y-66905000D01*
D44*
X130000000Y-59200000D02*
X130000000Y-56700000D01*
X129200000Y-60000000D02*
X130000000Y-59200000D01*
X125600000Y-60000000D02*
X129200000Y-60000000D01*
X124400000Y-61200000D02*
X125600000Y-60000000D01*
X104700000Y-112500000D02*
X104700000Y-112300000D01*
X104700000Y-112300000D02*
X105000000Y-112000000D01*
X104700000Y-113600000D02*
X104700000Y-112500000D01*
X104700000Y-113600000D02*
X104700000Y-119500000D01*
X124175000Y-118575000D02*
X124375000Y-118575000D01*
X124375000Y-118575000D02*
X125300000Y-119500000D01*
X123450000Y-119500000D02*
X123450000Y-119300000D01*
X123450000Y-119300000D02*
X124175000Y-118575000D01*
X124175000Y-118575000D02*
X124250000Y-118500000D01*
D47*
X72565000Y-112785000D02*
X72660000Y-112690000D01*
X81700000Y-113920000D02*
X82460000Y-113160000D01*
X79700000Y-113920000D02*
X81700000Y-113920000D01*
X78470000Y-112690000D02*
X79700000Y-113920000D01*
X78430000Y-112690000D02*
X78470000Y-112690000D01*
X72660000Y-112690000D02*
X78430000Y-112690000D01*
X71881761Y-113991721D02*
X71930000Y-113943482D01*
X71930000Y-113943482D02*
X71930000Y-113530000D01*
X71930000Y-113530000D02*
X71930000Y-113420000D01*
D45*
X71930000Y-113420000D02*
X72565000Y-112785000D01*
D47*
X72565000Y-112785000D02*
X72590000Y-112760000D01*
D45*
X71881761Y-113991721D02*
X70000000Y-112109960D01*
X70000000Y-110000000D02*
X71000000Y-109000000D01*
X70000000Y-112109960D02*
X70000000Y-110000000D01*
D48*
X71000000Y-109000000D02*
X71793482Y-109000000D01*
X71793482Y-109000000D02*
X71881761Y-108911721D01*
D44*
X71881761Y-113991721D02*
X71881761Y-116531721D01*
D48*
X71881761Y-96211721D02*
X71881761Y-98751721D01*
X138000000Y-94000000D02*
X138050000Y-94050000D01*
D44*
X138050000Y-94050000D02*
X139400000Y-94050000D01*
D48*
X133850000Y-111100000D02*
X133800000Y-111100000D01*
D44*
X133850000Y-111100000D02*
X140500000Y-104450000D01*
X140500000Y-95150000D02*
X140500000Y-104450000D01*
X139400000Y-94050000D02*
X140500000Y-95150000D01*
D48*
X133000000Y-111080000D02*
X133020000Y-111100000D01*
X133020000Y-111100000D02*
X133800000Y-111100000D01*
D44*
X124200000Y-114000000D02*
X124200000Y-111900000D01*
D47*
X123500000Y-98800000D02*
X123600000Y-98700000D01*
D48*
X123600000Y-98700000D02*
X123900000Y-98700000D01*
D47*
X123900000Y-98700000D02*
X123500000Y-98300000D01*
D48*
X123500000Y-98300000D02*
X123600000Y-98400000D01*
X123600000Y-98400000D02*
X123500000Y-98400000D01*
D47*
X123500000Y-99100000D02*
X123500000Y-98800000D01*
X123500000Y-98800000D02*
X123500000Y-98400000D01*
X123500000Y-98400000D02*
X123500000Y-97900000D01*
X123500000Y-97900000D02*
X123500000Y-97300000D01*
X123500000Y-97300000D02*
X124000000Y-96800000D01*
X124000000Y-96800000D02*
X124875000Y-96800000D01*
D48*
X124875000Y-96800000D02*
X124950000Y-96725000D01*
X124875000Y-96800000D02*
X124950000Y-96725000D01*
X119050000Y-101925000D02*
X119000000Y-101975000D01*
D47*
X119000000Y-101975000D02*
X119000000Y-103400000D01*
D44*
X124000000Y-107000000D02*
X125800000Y-107000000D01*
D47*
X125000000Y-103500000D02*
X125000000Y-101975000D01*
D48*
X125000000Y-101975000D02*
X124950000Y-101925000D01*
X124950000Y-101275000D02*
X124950000Y-101925000D01*
X124950000Y-98675000D02*
X124925000Y-98700000D01*
D47*
X124925000Y-98700000D02*
X124000000Y-98700000D01*
X124000000Y-98700000D02*
X123900000Y-98700000D01*
D48*
X123900000Y-98700000D02*
X123500000Y-99100000D01*
D47*
X123500000Y-99100000D02*
X123500000Y-100800000D01*
X123500000Y-100800000D02*
X123500000Y-100900000D01*
X123500000Y-100900000D02*
X123500000Y-101100000D01*
X123500000Y-101100000D02*
X123800000Y-101400000D01*
X123800000Y-101400000D02*
X124825000Y-101400000D01*
D48*
X124825000Y-101400000D02*
X124950000Y-101275000D01*
D47*
X132000000Y-93800000D02*
X129000000Y-93800000D01*
X126100000Y-96700000D02*
X124975000Y-96700000D01*
X126400000Y-96400000D02*
X126100000Y-96700000D01*
X129000000Y-93800000D02*
X126400000Y-96400000D01*
D48*
X124975000Y-96700000D02*
X124950000Y-96725000D01*
X124950000Y-96725000D02*
X124975000Y-96700000D01*
X124950000Y-96725000D02*
X124955000Y-96730000D01*
X131900000Y-93900000D02*
X132000000Y-93800000D01*
X124950000Y-96725000D02*
X124975000Y-96750000D01*
D46*
X112000000Y-154000000D02*
X112000000Y-148750000D01*
D44*
X142750000Y-147000000D02*
X146000000Y-147000000D01*
X124200000Y-114000000D02*
X126250000Y-114000000D01*
X129000000Y-111250000D02*
X130290000Y-111250000D01*
X126250000Y-114000000D02*
X129000000Y-111250000D01*
D45*
X130290000Y-111250000D02*
X130460000Y-111080000D01*
X124750000Y-119500000D02*
X124250000Y-119000000D01*
X123750000Y-119500000D02*
X124250000Y-119000000D01*
X124200000Y-114000000D02*
X124250000Y-114050000D01*
D44*
X124250000Y-114050000D02*
X124250000Y-118500000D01*
X124250000Y-118500000D02*
X124250000Y-119000000D01*
X124250000Y-119000000D02*
X124250000Y-119500000D01*
X132000000Y-93800000D02*
X137800000Y-93800000D01*
D45*
X137800000Y-93800000D02*
X138000000Y-94000000D01*
X145541761Y-119071721D02*
X145541761Y-124151721D01*
X145541761Y-116531721D02*
X145541761Y-119071721D01*
X145541761Y-119071721D02*
X145541761Y-121611721D01*
X97000000Y-89000000D02*
X95000000Y-89000000D01*
D44*
X95500000Y-101500000D02*
X95500000Y-104700000D01*
X95000000Y-101000000D02*
X95500000Y-101500000D01*
D45*
X95500000Y-104700000D02*
X95800000Y-105000000D01*
D44*
X146000000Y-147000000D02*
X146000000Y-145000000D01*
X145541761Y-144541761D02*
X145541761Y-141931721D01*
X146000000Y-145000000D02*
X145541761Y-144541761D01*
X111540000Y-123000000D02*
X111540000Y-122960000D01*
X111540000Y-122960000D02*
X115000000Y-119500000D01*
X128500000Y-122040000D02*
X127540000Y-123000000D01*
X125300000Y-119500000D02*
X127500000Y-119500000D01*
X128500000Y-120500000D02*
X128500000Y-122040000D01*
X127500000Y-119500000D02*
X128500000Y-120500000D01*
X115000000Y-119500000D02*
X123450000Y-119500000D01*
X123450000Y-119500000D02*
X123750000Y-119500000D01*
X123750000Y-119500000D02*
X124250000Y-119500000D01*
X124250000Y-119500000D02*
X124750000Y-119500000D01*
X124750000Y-119500000D02*
X125300000Y-119500000D01*
X95800000Y-105000000D02*
X95800000Y-108800000D01*
X105000000Y-112000000D02*
X106850000Y-112000000D01*
X102500000Y-109500000D02*
X105000000Y-112000000D01*
X96500000Y-109500000D02*
X98500000Y-109500000D01*
X95800000Y-108800000D02*
X96500000Y-109500000D01*
D45*
X96000000Y-122540000D02*
X95540000Y-123000000D01*
X96000000Y-120000000D02*
X96000000Y-122540000D01*
X94000000Y-118000000D02*
X96000000Y-120000000D01*
X93000000Y-118000000D02*
X94000000Y-118000000D01*
X89500000Y-118000000D02*
X93000000Y-118000000D01*
X71881761Y-101291721D02*
X70291721Y-101291721D01*
X70371721Y-106371721D02*
X71881761Y-106371721D01*
X70000000Y-106000000D02*
X70371721Y-106371721D01*
X70000000Y-101583442D02*
X70000000Y-106000000D01*
X70291721Y-101291721D02*
X70000000Y-101583442D01*
X71881761Y-106371721D02*
X71881761Y-108911721D01*
X71881761Y-96211721D02*
X71881761Y-101291721D01*
X145541761Y-131771721D02*
X146771721Y-131771721D01*
D44*
X147000000Y-139000000D02*
X145933482Y-139000000D01*
X148000000Y-138000000D02*
X147000000Y-139000000D01*
X148000000Y-133000000D02*
X148000000Y-138000000D01*
X147000000Y-132000000D02*
X148000000Y-133000000D01*
D45*
X146771721Y-131771721D02*
X147000000Y-132000000D01*
X145933482Y-139000000D02*
X145541761Y-139391721D01*
D44*
X145541761Y-131771721D02*
X145541761Y-129231721D01*
X145541761Y-126691721D02*
X145541761Y-116531721D01*
X145541761Y-126691721D02*
X145541761Y-129231721D01*
D45*
X145541761Y-141931721D02*
X145541761Y-139391721D01*
D44*
X130460000Y-111080000D02*
X133000000Y-111080000D01*
X97000000Y-84000000D02*
X97000000Y-89000000D01*
D46*
X87000000Y-88000000D02*
X92000000Y-88000000D01*
X92000000Y-88000000D02*
X93000000Y-89000000D01*
X93000000Y-89000000D02*
X97000000Y-89000000D01*
X74000000Y-75000000D02*
X87000000Y-75000000D01*
D45*
X82460000Y-103000000D02*
X82460000Y-97540000D01*
D47*
X82460000Y-97540000D02*
X82500000Y-97500000D01*
X122700000Y-63095000D02*
X122700000Y-55700000D01*
D44*
X109000000Y-63000000D02*
X106000000Y-63000000D01*
D47*
X122700000Y-55700000D02*
X122500000Y-55500000D01*
D44*
X97000000Y-80000000D02*
X99000000Y-80000000D01*
D45*
X119980000Y-108860000D02*
X120000000Y-108840000D01*
D44*
X127910000Y-109790000D02*
X121080000Y-109790000D01*
D45*
X121080000Y-109790000D02*
X121050000Y-109790000D01*
X121050000Y-109790000D02*
X120910000Y-109790000D01*
D44*
X120910000Y-109790000D02*
X119980000Y-108860000D01*
X130310000Y-108690000D02*
X129110000Y-108690000D01*
X129030000Y-108690000D02*
X127920000Y-109800000D01*
D45*
X129050000Y-108690000D02*
X129030000Y-108690000D01*
X129110000Y-108690000D02*
X129050000Y-108690000D01*
X127920000Y-109800000D02*
X127910000Y-109790000D01*
D44*
X120000000Y-108840000D02*
X120000000Y-107000000D01*
D45*
X130460000Y-108540000D02*
X130310000Y-108690000D01*
X120000000Y-107000000D02*
X120030000Y-107030000D01*
X119800000Y-114000000D02*
X119740000Y-114060000D01*
D44*
X119740000Y-114060000D02*
X117020000Y-114060000D01*
X117040000Y-107010000D02*
X119990000Y-107010000D01*
D45*
X119990000Y-107010000D02*
X120000000Y-107000000D01*
D47*
X118000000Y-96050000D02*
X116350000Y-94400000D01*
X119025000Y-96050000D02*
X118000000Y-96050000D01*
D44*
X116350000Y-90750000D02*
X113250000Y-90750000D01*
D48*
X113250000Y-90750000D02*
X113000000Y-91000000D01*
X119050000Y-96075000D02*
X119025000Y-96050000D01*
X118975000Y-96000000D02*
X119050000Y-96075000D01*
X120000000Y-107000000D02*
X119900000Y-107100000D01*
X120000000Y-107000000D02*
X120000000Y-105100000D01*
X120300000Y-100600000D02*
X119075000Y-100600000D01*
X120300000Y-100600000D02*
X121100000Y-101400000D01*
X121100000Y-101400000D02*
X121100000Y-103800000D01*
X121100000Y-103800000D02*
X121100000Y-104000000D01*
X121100000Y-104000000D02*
X120000000Y-105100000D01*
X119050000Y-100625000D02*
X119075000Y-100600000D01*
X122900000Y-96100000D02*
X123200000Y-95800000D01*
X123200000Y-95800000D02*
X123100000Y-95800000D01*
X123100000Y-95800000D02*
X123200000Y-95800000D01*
X122600000Y-96100000D02*
X123100000Y-95600000D01*
X123100000Y-95600000D02*
X123200000Y-95600000D01*
X123350000Y-95750000D02*
X123300000Y-95800000D01*
X123300000Y-96100000D02*
X123200000Y-96100000D01*
X123300000Y-95800000D02*
X123300000Y-96100000D01*
X123200000Y-95600000D02*
X123200000Y-95800000D01*
X123200000Y-95800000D02*
X123200000Y-96100000D01*
X123200000Y-96100000D02*
X123200000Y-96100000D01*
X119050000Y-96075000D02*
X119075000Y-96100000D01*
D47*
X119075000Y-96100000D02*
X122600000Y-96100000D01*
D48*
X122600000Y-96100000D02*
X122900000Y-96100000D01*
X122900000Y-96100000D02*
X123200000Y-96100000D01*
X123200000Y-96100000D02*
X123900000Y-96100000D01*
X124950000Y-96075000D02*
X124925000Y-96100000D01*
X124925000Y-96100000D02*
X123900000Y-96100000D01*
X123900000Y-96100000D02*
X123700000Y-96100000D01*
D45*
X124100000Y-92500000D02*
X124100000Y-91100000D01*
X123200000Y-95600000D02*
X123200000Y-93600000D01*
D48*
X123200000Y-93600000D02*
X123200000Y-93400000D01*
D45*
X123200000Y-93400000D02*
X124100000Y-92500000D01*
D48*
X123700000Y-96100000D02*
X123350000Y-95750000D01*
X123350000Y-95750000D02*
X123200000Y-95600000D01*
X124100000Y-91100000D02*
X124200000Y-91000000D01*
X124975000Y-96100000D02*
X124950000Y-96075000D01*
D44*
X130460000Y-108540000D02*
X133000000Y-108540000D01*
X113200000Y-85000000D02*
X113200000Y-90800000D01*
D45*
X113200000Y-90800000D02*
X113000000Y-91000000D01*
D44*
X124000000Y-85000000D02*
X124000000Y-90800000D01*
D45*
X124000000Y-90800000D02*
X124200000Y-91000000D01*
D44*
X124000000Y-82000000D02*
X124000000Y-85000000D01*
X113200000Y-82200000D02*
X113200000Y-85000000D01*
X113000000Y-82000000D02*
X113200000Y-82200000D01*
X105000000Y-63000000D02*
X106000000Y-63000000D01*
X104000000Y-64000000D02*
X105000000Y-63000000D01*
X104000000Y-65000000D02*
X104000000Y-64000000D01*
X104000000Y-70000000D02*
X104000000Y-65000000D01*
X88300000Y-66905000D02*
X89905000Y-66905000D01*
X89905000Y-66905000D02*
X91000000Y-68000000D01*
X91000000Y-68000000D02*
X91000000Y-70000000D01*
X97000000Y-80000000D02*
X97000000Y-78000000D01*
D45*
X91000000Y-68000000D02*
X89905000Y-66905000D01*
D44*
X91000000Y-72000000D02*
X91000000Y-70000000D01*
D45*
X91000000Y-70000000D02*
X91000000Y-68000000D01*
D44*
X97000000Y-78000000D02*
X91000000Y-72000000D01*
X130000000Y-62800000D02*
X137800000Y-62800000D01*
D45*
X137800000Y-62800000D02*
X138000000Y-63000000D01*
X122700000Y-63095000D02*
X129705000Y-63095000D01*
X129705000Y-63095000D02*
X130000000Y-62800000D01*
D44*
X138000000Y-56000000D02*
X138000000Y-63000000D01*
X82000000Y-67200000D02*
X85900000Y-67200000D01*
X85900000Y-67200000D02*
X86195000Y-66905000D01*
X86195000Y-66905000D02*
X88300000Y-66905000D01*
D45*
X76000000Y-67000000D02*
X81800000Y-67000000D01*
X81800000Y-67000000D02*
X82000000Y-67200000D01*
X71000000Y-67000000D02*
X76000000Y-67000000D01*
D46*
X87000000Y-80000000D02*
X97000000Y-80000000D01*
X74000000Y-80000000D02*
X87000000Y-80000000D01*
X96000000Y-34500000D02*
X95000000Y-33500000D01*
X96000000Y-34500000D02*
X97000000Y-33500000D01*
D44*
X97000000Y-33500000D02*
X96500000Y-33500000D01*
D46*
X119500000Y-34500000D02*
X118500000Y-33500000D01*
D44*
X118500000Y-33500000D02*
X119000000Y-33500000D01*
D46*
X119500000Y-34500000D02*
X120500000Y-33500000D01*
X119500000Y-36500000D02*
X119500000Y-34500000D01*
D44*
X119500000Y-34500000D02*
X119500000Y-33500000D01*
D46*
X96000000Y-36500000D02*
X96000000Y-34500000D01*
D44*
X96000000Y-34500000D02*
X96000000Y-33500000D01*
D46*
X78000000Y-36850000D02*
X78000000Y-35000000D01*
X78000000Y-35000000D02*
X79500000Y-33500000D01*
X79500000Y-33500000D02*
X95000000Y-33500000D01*
D44*
X95000000Y-33500000D02*
X96000000Y-33500000D01*
X96000000Y-33500000D02*
X96500000Y-33500000D01*
D46*
X96500000Y-33500000D02*
X119000000Y-33500000D01*
D44*
X119000000Y-33500000D02*
X119500000Y-33500000D01*
X119500000Y-33500000D02*
X120500000Y-33500000D01*
D46*
X120500000Y-33500000D02*
X136500000Y-33500000D01*
X138000000Y-35000000D02*
X138000000Y-36850000D01*
X136500000Y-33500000D02*
X138000000Y-35000000D01*
X94500000Y-161000000D02*
X99000000Y-161000000D01*
X99000000Y-161000000D02*
X101500000Y-163500000D01*
X101500000Y-163500000D02*
X110000000Y-163500000D01*
X110000000Y-163500000D02*
X112500000Y-161000000D01*
X112500000Y-161000000D02*
X121500000Y-161000000D01*
D44*
X132000000Y-160500000D02*
X132500000Y-160500000D01*
X134000000Y-160500000D02*
X132000000Y-160500000D01*
X132500000Y-160500000D02*
X132500000Y-160000000D01*
X133000000Y-160500000D02*
X134000000Y-160500000D01*
D46*
X133000000Y-159750000D02*
X133000000Y-160500000D01*
D44*
X133500000Y-160500000D02*
X133500000Y-160000000D01*
X134000000Y-160500000D02*
X133500000Y-160500000D01*
D46*
X133000000Y-158000000D02*
X133000000Y-159750000D01*
X133000000Y-159750000D02*
X133000000Y-159500000D01*
X133000000Y-159500000D02*
X132500000Y-160000000D01*
X132500000Y-160000000D02*
X131500000Y-161000000D01*
X121500000Y-161000000D02*
X131500000Y-161000000D01*
X131500000Y-161000000D02*
X134500000Y-161000000D01*
D44*
X84000000Y-159150000D02*
X84000000Y-159500000D01*
D46*
X84000000Y-159500000D02*
X85500000Y-161000000D01*
X85500000Y-161000000D02*
X94500000Y-161000000D01*
D44*
X110925000Y-61925000D02*
X110925000Y-58975000D01*
X110925000Y-58975000D02*
X110925000Y-57225000D01*
X110925000Y-57225000D02*
X111000000Y-57150000D01*
X148100000Y-77300000D02*
X148100000Y-77400000D01*
X148100000Y-77400000D02*
X149000000Y-78300000D01*
X148100000Y-77300000D02*
X148100000Y-77100000D01*
X148100000Y-77100000D02*
X149000000Y-76200000D01*
X137500000Y-78650000D02*
X135850000Y-78650000D01*
X149000000Y-77300000D02*
X149000000Y-77500000D01*
X146300000Y-77300000D02*
X148100000Y-77300000D01*
X148100000Y-77300000D02*
X149000000Y-77300000D01*
X135850000Y-78650000D02*
X134500000Y-77300000D01*
X110500000Y-60500000D02*
X109500000Y-60500000D01*
X109500000Y-60500000D02*
X109400000Y-60400000D01*
X110500000Y-61500000D02*
X110500000Y-60500000D01*
X110500000Y-60500000D02*
X110500000Y-59400000D01*
X110500000Y-59400000D02*
X110500000Y-59500000D01*
X110500000Y-59500000D02*
X110500000Y-59400000D01*
X74850000Y-43000000D02*
X73700000Y-43000000D01*
D46*
X74850000Y-44150000D02*
X74850000Y-43000000D01*
X74850000Y-43000000D02*
X74850000Y-41850000D01*
D44*
X74850000Y-41850000D02*
X75000000Y-41700000D01*
D45*
X96300000Y-62300000D02*
X96300000Y-61300000D01*
D46*
X142000000Y-44000000D02*
X142000000Y-39000000D01*
X139850000Y-36850000D02*
X138000000Y-36850000D01*
X142000000Y-39000000D02*
X139850000Y-36850000D01*
D44*
X109400000Y-60400000D02*
X110500000Y-61500000D01*
X110500000Y-61500000D02*
X110925000Y-61925000D01*
X110925000Y-61925000D02*
X112000000Y-63000000D01*
D45*
X109400000Y-60400000D02*
X109500000Y-60400000D01*
D44*
X109500000Y-60400000D02*
X110500000Y-59400000D01*
X101850000Y-61850000D02*
X103300000Y-60400000D01*
X99000000Y-61850000D02*
X101850000Y-61850000D01*
X103300000Y-60400000D02*
X109400000Y-60400000D01*
X111000000Y-58900000D02*
X111000000Y-57150000D01*
X110500000Y-59400000D02*
X111000000Y-58900000D01*
D49*
X119050000Y-97375000D02*
X119055000Y-97380000D01*
X119055000Y-97380000D02*
X121100000Y-97380000D01*
X119760000Y-93170000D02*
X119760000Y-91040000D01*
X121100000Y-97380000D02*
X121560000Y-96920000D01*
X119760000Y-91040000D02*
X119800000Y-91000000D01*
D44*
X119800000Y-93200000D02*
X110350000Y-93200000D01*
X108800000Y-92550000D02*
X108800000Y-91200000D01*
X109450000Y-93200000D02*
X108800000Y-92550000D01*
X110350000Y-93200000D02*
X109450000Y-93200000D01*
D48*
X108800000Y-91200000D02*
X109000000Y-91000000D01*
D47*
X116300000Y-103800000D02*
X116300000Y-102500000D01*
X114500000Y-105600000D02*
X116300000Y-103800000D01*
X114300000Y-105600000D02*
X114500000Y-105600000D01*
X114200000Y-105600000D02*
X114300000Y-105600000D01*
X110100000Y-105600000D02*
X114200000Y-105600000D01*
X117400000Y-101200000D02*
X118975000Y-101200000D01*
X117200000Y-101400000D02*
X117400000Y-101200000D01*
X116300000Y-102300000D02*
X117200000Y-101400000D01*
X116300000Y-102400000D02*
X116300000Y-102300000D01*
X116300000Y-102500000D02*
X116300000Y-102400000D01*
D48*
X118975000Y-101200000D02*
X119050000Y-101275000D01*
X110000000Y-105500000D02*
X110100000Y-105600000D01*
D45*
X119800000Y-93200000D02*
X119800000Y-91000000D01*
D48*
X119050000Y-97375000D02*
X119075000Y-97400000D01*
D44*
X145541761Y-103831721D02*
X145541761Y-106371721D01*
X145541761Y-111451721D02*
X145541761Y-108911721D01*
X145541761Y-108911721D02*
X145541761Y-106371721D01*
X145541761Y-101291721D02*
X145541761Y-103831721D01*
D45*
X145541761Y-113991721D02*
X146491721Y-113991721D01*
D44*
X146491721Y-113991721D02*
X149500000Y-117000000D01*
X148000000Y-151000000D02*
X146000000Y-151000000D01*
X149500000Y-149500000D02*
X148000000Y-151000000D01*
X149500000Y-117000000D02*
X149500000Y-149500000D01*
D46*
X133000000Y-159500000D02*
X133500000Y-160000000D01*
X133500000Y-160000000D02*
X134500000Y-161000000D01*
X146000000Y-155000000D02*
X146000000Y-151000000D01*
X134500000Y-161000000D02*
X140000000Y-161000000D01*
X140000000Y-161000000D02*
X146000000Y-155000000D01*
D44*
X108800000Y-85000000D02*
X108800000Y-90800000D01*
D45*
X108800000Y-90800000D02*
X109000000Y-91000000D01*
D44*
X120000000Y-85000000D02*
X120000000Y-90800000D01*
D45*
X120000000Y-90800000D02*
X119800000Y-91000000D01*
D44*
X103000000Y-82850000D02*
X104850000Y-82850000D01*
X107000000Y-85000000D02*
X108800000Y-85000000D01*
X104850000Y-82850000D02*
X107000000Y-85000000D01*
X138000000Y-67000000D02*
X147000000Y-67000000D01*
X147000000Y-67000000D02*
X149000000Y-69000000D01*
X149000000Y-69000000D02*
X149000000Y-76200000D01*
X149000000Y-76200000D02*
X149000000Y-77500000D01*
X149000000Y-77500000D02*
X149000000Y-78300000D01*
X149000000Y-100000000D02*
X149000000Y-81000000D01*
X149000000Y-78300000D02*
X149000000Y-79400000D01*
X149000000Y-79400000D02*
X149000000Y-80300000D01*
X149000000Y-80300000D02*
X149000000Y-81000000D01*
X145541761Y-101291721D02*
X147708279Y-101291721D01*
X147708279Y-101291721D02*
X149000000Y-100000000D01*
X82000000Y-62800000D02*
X83800000Y-62800000D01*
X83800000Y-62800000D02*
X85600000Y-61000000D01*
X85600000Y-61000000D02*
X89000000Y-61000000D01*
X89000000Y-61000000D02*
X90000000Y-61000000D01*
X94000000Y-61000000D02*
X96000000Y-61000000D01*
X96000000Y-61000000D02*
X96300000Y-61300000D01*
X96300000Y-61300000D02*
X96850000Y-61850000D01*
D45*
X96850000Y-61850000D02*
X97000000Y-61850000D01*
D44*
X78000000Y-49850000D02*
X76150000Y-49850000D01*
X76000000Y-61000000D02*
X76000000Y-63000000D01*
X75000000Y-60000000D02*
X76000000Y-61000000D01*
X75000000Y-51000000D02*
X75000000Y-53000000D01*
X76150000Y-49850000D02*
X75000000Y-51000000D01*
X76000000Y-63000000D02*
X81800000Y-63000000D01*
D45*
X81800000Y-63000000D02*
X82000000Y-62800000D01*
D44*
X142000000Y-44000000D02*
X146000000Y-44000000D01*
D46*
X71000000Y-43000000D02*
X73700000Y-43000000D01*
X73700000Y-43000000D02*
X74850000Y-44150000D01*
X74850000Y-44150000D02*
X78000000Y-47300000D01*
X78000000Y-47300000D02*
X78000000Y-49850000D01*
D44*
X115000000Y-67000000D02*
X115000000Y-68000000D01*
X120000000Y-74000000D02*
X120000000Y-85000000D01*
X116000000Y-70000000D02*
X120000000Y-74000000D01*
X115000000Y-69000000D02*
X116000000Y-70000000D01*
X115000000Y-68000000D02*
X115000000Y-69000000D01*
D45*
X137850000Y-79000000D02*
X137500000Y-78650000D01*
D44*
X145541761Y-101291721D02*
X145541761Y-113991721D01*
D45*
X117300000Y-66905000D02*
X115095000Y-66905000D01*
X134800000Y-67200000D02*
X130000000Y-67200000D01*
X135000000Y-67000000D02*
X134800000Y-67200000D01*
X115095000Y-66905000D02*
X115000000Y-67000000D01*
X117300000Y-66905000D02*
X115305000Y-66905000D01*
X115305000Y-66905000D02*
X113800000Y-65400000D01*
X113800000Y-65400000D02*
X113800000Y-63800000D01*
X113800000Y-63800000D02*
X113000000Y-63000000D01*
X113000000Y-63000000D02*
X112000000Y-63000000D01*
D46*
X78000000Y-36850000D02*
X78000000Y-38700000D01*
X78000000Y-38700000D02*
X76850000Y-39850000D01*
X76850000Y-39850000D02*
X75000000Y-41700000D01*
X75000000Y-41700000D02*
X73700000Y-43000000D01*
D44*
X138000000Y-67000000D02*
X130200000Y-67000000D01*
D45*
X130200000Y-67000000D02*
X130000000Y-67200000D01*
X93700000Y-63095000D02*
X95505000Y-63095000D01*
X95505000Y-63095000D02*
X96300000Y-62300000D01*
X96300000Y-62300000D02*
X96750000Y-61850000D01*
X96750000Y-61850000D02*
X97000000Y-61850000D01*
D44*
X97000000Y-61850000D02*
X99000000Y-61850000D01*
X102800000Y-51500000D02*
X99000000Y-51500000D01*
X86350000Y-56150000D02*
X88000000Y-54500000D01*
X98000000Y-54500000D02*
X98000000Y-52500000D01*
X98000000Y-52500000D02*
X98500000Y-52000000D01*
X98500000Y-52000000D02*
X99000000Y-51500000D01*
X86350000Y-56150000D02*
X84000000Y-56150000D01*
X102800000Y-51500000D02*
X103000000Y-51300000D01*
X78000000Y-56150000D02*
X84000000Y-56150000D01*
X71000000Y-55460000D02*
X73560000Y-55460000D01*
X88600000Y-56700000D02*
X93000000Y-56700000D01*
X86700000Y-58600000D02*
X88600000Y-56700000D01*
X75800000Y-58600000D02*
X86700000Y-58600000D01*
X74800000Y-57600000D02*
X75800000Y-58600000D01*
X74800000Y-56700000D02*
X74800000Y-57600000D01*
X73560000Y-55460000D02*
X74800000Y-56700000D01*
X93000000Y-56700000D02*
X103000000Y-56700000D01*
D45*
X93700000Y-64365000D02*
X92065000Y-64365000D01*
X93000000Y-59200000D02*
X93000000Y-56700000D01*
X91600000Y-60600000D02*
X93000000Y-59200000D01*
X91600000Y-63900000D02*
X91600000Y-60600000D01*
X92065000Y-64365000D02*
X91600000Y-63900000D01*
D46*
X84000000Y-43150000D02*
X87650000Y-43150000D01*
X93000000Y-48500000D02*
X93000000Y-51300000D01*
X87650000Y-43150000D02*
X93000000Y-48500000D01*
X78000000Y-43150000D02*
X84000000Y-43150000D01*
D47*
X119050000Y-98675000D02*
X113325000Y-98675000D01*
D45*
X110000000Y-102000000D02*
X110000000Y-103000000D01*
D47*
X113325000Y-98675000D02*
X110000000Y-102000000D01*
D44*
X107260000Y-117000000D02*
X110600000Y-117000000D01*
X113150000Y-114450000D02*
X113150000Y-112000000D01*
X110600000Y-117000000D02*
X113150000Y-114450000D01*
X105000000Y-106000000D02*
X105000000Y-103900000D01*
D45*
X105000000Y-105200000D02*
X104200000Y-105200000D01*
X104500000Y-105200000D02*
X104500000Y-105500000D01*
X104200000Y-105200000D02*
X104500000Y-105200000D01*
X105000000Y-104900000D02*
X103970000Y-104900000D01*
X103970000Y-104900000D02*
X103900000Y-104970000D01*
X105000000Y-106000000D02*
X105000000Y-105200000D01*
X105000000Y-105200000D02*
X105000000Y-104900000D01*
X105000000Y-104900000D02*
X105000000Y-103900000D01*
X105200000Y-103700000D02*
X105200000Y-103670000D01*
X105000000Y-103900000D02*
X105200000Y-103700000D01*
D47*
X127580000Y-98240000D02*
X127365000Y-98025000D01*
X127365000Y-98025000D02*
X124950000Y-98025000D01*
D44*
X105200000Y-103670000D02*
X105810000Y-103060000D01*
D49*
X107410000Y-101460000D02*
X107530000Y-101340000D01*
D44*
X105810000Y-103060000D02*
X107410000Y-101460000D01*
X107530000Y-101340000D02*
X107530000Y-94410000D01*
D49*
X103900000Y-104990000D02*
X103900000Y-104970000D01*
D44*
X100210000Y-104990000D02*
X103900000Y-104990000D01*
X103900000Y-104970000D02*
X105200000Y-103670000D01*
D47*
X127470000Y-98240000D02*
X127260000Y-98030000D01*
X127580000Y-98240000D02*
X127470000Y-98240000D01*
D49*
X100200000Y-105000000D02*
X100210000Y-104990000D01*
X100200000Y-105000000D02*
X100230000Y-104970000D01*
X124965000Y-98010000D02*
X124950000Y-98025000D01*
D47*
X113150000Y-112000000D02*
X113160000Y-112010000D01*
X124950000Y-98025000D02*
X124965000Y-98010000D01*
D48*
X124950000Y-98025000D02*
X124975000Y-98050000D01*
X113250000Y-112100000D02*
X113150000Y-112000000D01*
X125025000Y-98100000D02*
X124950000Y-98025000D01*
D47*
X124975000Y-98000000D02*
X124950000Y-98025000D01*
D45*
X100200000Y-105000000D02*
X104000000Y-105000000D01*
D44*
X104000000Y-105000000D02*
X104500000Y-105500000D01*
X104500000Y-105500000D02*
X105000000Y-106000000D01*
X105000000Y-106000000D02*
X105000000Y-108000000D01*
X105000000Y-108000000D02*
X106000000Y-109000000D01*
X106000000Y-109000000D02*
X112000000Y-109000000D01*
X112000000Y-109000000D02*
X113150000Y-110150000D01*
X113150000Y-110150000D02*
X113150000Y-112000000D01*
X100200000Y-105000000D02*
X100200000Y-111800000D01*
D45*
X100200000Y-111800000D02*
X100000000Y-112000000D01*
D47*
X119050000Y-96725000D02*
X115725000Y-96725000D01*
X115000000Y-96000000D02*
X110000000Y-96000000D01*
X115725000Y-96725000D02*
X115000000Y-96000000D01*
X119050000Y-98025000D02*
X110475000Y-98025000D01*
X110475000Y-98025000D02*
X110000000Y-98500000D01*
D44*
X141048279Y-111451721D02*
X140000000Y-112500000D01*
X140000000Y-112500000D02*
X140000000Y-120500000D01*
X143001761Y-111451721D02*
X141048279Y-111451721D01*
D46*
X77000000Y-150000000D02*
X77000000Y-153800000D01*
X89500000Y-155500000D02*
X99500000Y-155500000D01*
X84000000Y-152850000D02*
X88850000Y-152850000D01*
X89500000Y-153500000D02*
X89500000Y-155500000D01*
X88850000Y-152850000D02*
X89500000Y-153500000D01*
X77000000Y-158200000D02*
X79800000Y-158200000D01*
X81650000Y-152850000D02*
X84000000Y-152850000D01*
X81000000Y-153500000D02*
X81650000Y-152850000D01*
X81000000Y-157000000D02*
X81000000Y-153500000D01*
X79800000Y-158200000D02*
X81000000Y-157000000D01*
D44*
X112000000Y-158000000D02*
X115500000Y-158000000D01*
X115500000Y-158000000D02*
X116500000Y-157000000D01*
X116500000Y-157000000D02*
X116500000Y-155500000D01*
X105800000Y-160200000D02*
X107700000Y-160200000D01*
X109900000Y-158000000D02*
X112000000Y-158000000D01*
X107700000Y-160200000D02*
X109900000Y-158000000D01*
D46*
X126500000Y-155500000D02*
X126500000Y-152500000D01*
X133000000Y-152000000D02*
X133000000Y-154000000D01*
X132000000Y-151000000D02*
X133000000Y-152000000D01*
X128000000Y-151000000D02*
X132000000Y-151000000D01*
X126500000Y-152500000D02*
X128000000Y-151000000D01*
X133000000Y-154000000D02*
X136500000Y-154000000D01*
X136500000Y-154000000D02*
X137100000Y-153400000D01*
D44*
X107000000Y-137000000D02*
X105000000Y-137000000D01*
X109290000Y-120750000D02*
X110270000Y-121730000D01*
X106000000Y-120750000D02*
X109290000Y-120750000D01*
X104250000Y-122500000D02*
X106000000Y-120750000D01*
X104250000Y-136250000D02*
X104250000Y-122500000D01*
X105000000Y-137000000D02*
X104250000Y-136250000D01*
D45*
X106750000Y-137250000D02*
X107000000Y-137000000D01*
D44*
X118000000Y-127000000D02*
X110500000Y-127000000D01*
X107000000Y-130500000D02*
X107000000Y-133000000D01*
X110500000Y-127000000D02*
X107000000Y-130500000D01*
X95000000Y-129750000D02*
X95000000Y-133000000D01*
X102000000Y-127000000D02*
X102000000Y-134500000D01*
X99500000Y-137000000D02*
X95000000Y-137000000D01*
X102000000Y-134500000D02*
X99500000Y-137000000D01*
X94500000Y-117000000D02*
X97100000Y-117000000D01*
D45*
X74500000Y-147000000D02*
X82500000Y-147000000D01*
D44*
X94500000Y-117000000D02*
X96500000Y-117000000D01*
X126270000Y-121730000D02*
X123770000Y-121730000D01*
X119000000Y-130500000D02*
X119000000Y-133000000D01*
X121500000Y-128000000D02*
X119000000Y-130500000D01*
X121500000Y-124000000D02*
X121500000Y-128000000D01*
X123770000Y-121730000D02*
X121500000Y-124000000D01*
X119000000Y-137000000D02*
X125500000Y-137000000D01*
X133000000Y-129500000D02*
X133000000Y-127000000D01*
X125500000Y-137000000D02*
X133000000Y-129500000D01*
D46*
X108000000Y-36850000D02*
X111850000Y-36850000D01*
X114500000Y-39500000D02*
X114500000Y-42000000D01*
X111850000Y-36850000D02*
X114500000Y-39500000D01*
X132000000Y-36850000D02*
X127650000Y-36850000D01*
X124500000Y-40000000D02*
X124500000Y-42000000D01*
X127650000Y-36850000D02*
X124500000Y-40000000D01*
X84000000Y-47000000D02*
X84000000Y-49850000D01*
X84000000Y-36850000D02*
X90350000Y-36850000D01*
X95500000Y-42000000D02*
X101000000Y-42000000D01*
X90350000Y-36850000D02*
X95500000Y-42000000D01*
D45*
X119795000Y-63095000D02*
X117300000Y-63095000D01*
X119800000Y-63100000D02*
X119795000Y-63095000D01*
D44*
X128040000Y-74000000D02*
X128040000Y-75740000D01*
X132000000Y-79700000D02*
X132000000Y-84000000D01*
X128040000Y-75740000D02*
X132000000Y-79700000D01*
D45*
X126000000Y-64600000D02*
X125765000Y-64365000D01*
X125765000Y-64365000D02*
X122700000Y-64365000D01*
D44*
X145000000Y-71460000D02*
X143340000Y-71460000D01*
X139100000Y-82300000D02*
X139100000Y-83900000D01*
X141500000Y-79900000D02*
X139100000Y-82300000D01*
X141500000Y-73300000D02*
X141500000Y-79900000D01*
X143340000Y-71460000D02*
X141500000Y-73300000D01*
D45*
X139100000Y-83900000D02*
X139000000Y-84000000D01*
X74421761Y-113991721D02*
X78491721Y-113991721D01*
X87500000Y-114500000D02*
X89500000Y-114500000D01*
X86500000Y-115500000D02*
X87500000Y-114500000D01*
X80000000Y-115500000D02*
X86500000Y-115500000D01*
X78491721Y-113991721D02*
X80000000Y-115500000D01*
X71881761Y-129231721D02*
X70231721Y-129231721D01*
X80040000Y-105540000D02*
X82460000Y-105540000D01*
X79500000Y-105000000D02*
X80040000Y-105540000D01*
X79500000Y-98500000D02*
X79500000Y-105000000D01*
X68000000Y-131463442D02*
X68000000Y-131500000D01*
X70231721Y-129231721D02*
X68000000Y-131463442D01*
D48*
X85000000Y-108080000D02*
X85000000Y-107900000D01*
X85000000Y-107900000D02*
X83900000Y-106800000D01*
X83900000Y-106800000D02*
X79050000Y-106800000D01*
X79050000Y-106800000D02*
X79000000Y-106750000D01*
D45*
X71881761Y-119071721D02*
X70821721Y-119071721D01*
X77500000Y-105250000D02*
X79000000Y-106750000D01*
X77500000Y-97750000D02*
X77500000Y-105250000D01*
X70500000Y-91250000D02*
X76750000Y-91250000D01*
X68500000Y-93250000D02*
X70500000Y-91250000D01*
X68500000Y-116750000D02*
X68500000Y-93250000D01*
X70821721Y-119071721D02*
X68500000Y-116750000D01*
X71881761Y-131771721D02*
X70228279Y-131771721D01*
X80500000Y-108000000D02*
X82380000Y-108000000D01*
X79500000Y-109000000D02*
X80500000Y-108000000D01*
X79500000Y-112500000D02*
X79500000Y-109000000D01*
X77500000Y-146000000D02*
X79000000Y-146000000D01*
X69000000Y-146000000D02*
X77500000Y-146000000D01*
X67000000Y-144000000D02*
X69000000Y-146000000D01*
X67000000Y-135000000D02*
X67000000Y-144000000D01*
X67500000Y-134500000D02*
X67000000Y-135000000D01*
X70228279Y-131771721D02*
X67500000Y-134500000D01*
X82380000Y-108000000D02*
X82460000Y-108080000D01*
X86968279Y-116531721D02*
X88000000Y-115500000D01*
X74421761Y-116531721D02*
X86968279Y-116531721D01*
D44*
X133000000Y-113620000D02*
X134620000Y-113620000D01*
X138111721Y-121611721D02*
X143001761Y-121611721D01*
X135500000Y-119000000D02*
X138111721Y-121611721D01*
X135500000Y-114500000D02*
X135500000Y-119000000D01*
X134620000Y-113620000D02*
X135500000Y-114500000D01*
X133000000Y-116160000D02*
X133000000Y-118500000D01*
X138651721Y-124151721D02*
X143001761Y-124151721D01*
X133000000Y-118500000D02*
X138651721Y-124151721D01*
D45*
X93700000Y-66905000D02*
X94995000Y-66905000D01*
X100540000Y-72940000D02*
X100540000Y-74000000D01*
X99600000Y-72000000D02*
X100540000Y-72940000D01*
X98000000Y-72000000D02*
X99600000Y-72000000D01*
X95900000Y-69900000D02*
X98000000Y-72000000D01*
X95900000Y-67810000D02*
X95900000Y-69900000D01*
X94995000Y-66905000D02*
X95900000Y-67810000D01*
D44*
X86150000Y-127000000D02*
X99000000Y-127000000D01*
X86150000Y-120000000D02*
X88000000Y-120000000D01*
X91000000Y-123000000D02*
X93000000Y-123000000D01*
X88000000Y-120000000D02*
X91000000Y-123000000D01*
X90000000Y-134000000D02*
X86150000Y-134000000D01*
X111000000Y-74000000D02*
X111000000Y-72200000D01*
X106000000Y-69300000D02*
X106000000Y-67000000D01*
X107500000Y-70800000D02*
X106000000Y-69300000D01*
X109600000Y-70800000D02*
X107500000Y-70800000D01*
X111000000Y-72200000D02*
X109600000Y-70800000D01*
X112000000Y-67000000D02*
X112000000Y-70000000D01*
X116080000Y-72080000D02*
X116080000Y-74000000D01*
X115000000Y-71000000D02*
X116080000Y-72080000D01*
X113000000Y-71000000D02*
X115000000Y-71000000D01*
X112000000Y-70000000D02*
X113000000Y-71000000D01*
X138000000Y-52000000D02*
X140200000Y-52000000D01*
X142600000Y-60000000D02*
X145000000Y-60000000D01*
X141200000Y-58600000D02*
X142600000Y-60000000D01*
X141200000Y-53000000D02*
X141200000Y-58600000D01*
X140200000Y-52000000D02*
X141200000Y-53000000D01*
X146000000Y-48000000D02*
X146000000Y-51000000D01*
X145000000Y-52000000D02*
X145000000Y-54920000D01*
X146000000Y-51000000D02*
X145000000Y-52000000D01*
X71000000Y-58000000D02*
X71000000Y-63000000D01*
D46*
X71000000Y-47000000D02*
X71000000Y-52920000D01*
D45*
X71881761Y-134311721D02*
X70188279Y-134311721D01*
X82500000Y-128500000D02*
X81000000Y-127000000D01*
X82500000Y-139500000D02*
X82500000Y-128500000D01*
X77000000Y-145000000D02*
X82500000Y-139500000D01*
X70000000Y-145000000D02*
X77000000Y-145000000D01*
X68500000Y-143500000D02*
X70000000Y-145000000D01*
X68500000Y-136000000D02*
X68500000Y-143500000D01*
X70188279Y-134311721D02*
X68500000Y-136000000D01*
X81000000Y-127000000D02*
X79850000Y-127000000D01*
X74421761Y-136851721D02*
X76148279Y-136851721D01*
X78000000Y-120000000D02*
X79850000Y-120000000D01*
X77000000Y-121000000D02*
X78000000Y-120000000D01*
X77000000Y-136000000D02*
X77000000Y-121000000D01*
X76148279Y-136851721D02*
X77000000Y-136000000D01*
X71881761Y-136851721D02*
X70648279Y-136851721D01*
X79850000Y-140650000D02*
X79850000Y-134000000D01*
X76500000Y-144000000D02*
X79850000Y-140650000D01*
X70500000Y-144000000D02*
X76500000Y-144000000D01*
X70000000Y-143500000D02*
X70500000Y-144000000D01*
X70000000Y-137500000D02*
X70000000Y-143500000D01*
X70648279Y-136851721D02*
X70000000Y-137500000D01*
D44*
X114500000Y-128500000D02*
X114500000Y-134500000D01*
X114500000Y-134500000D02*
X105800000Y-143200000D01*
X105800000Y-143200000D02*
X105800000Y-150040000D01*
D47*
X117000000Y-100000000D02*
X119025000Y-100000000D01*
X119025000Y-100000000D02*
X119050000Y-99975000D01*
D48*
X119025000Y-100000000D02*
X119050000Y-99975000D01*
X119050000Y-99975000D02*
X119025000Y-99950000D01*
X119050000Y-99975000D02*
X119025000Y-100000000D01*
D44*
X130300000Y-139900000D02*
X134900000Y-139900000D01*
X137100000Y-142100000D02*
X137100000Y-143240000D01*
X134900000Y-139900000D02*
X137100000Y-142100000D01*
D47*
X122400000Y-103900000D02*
X122500000Y-103900000D01*
X121125000Y-99325000D02*
X122400000Y-100600000D01*
X122400000Y-100600000D02*
X122400000Y-103900000D01*
X119050000Y-99325000D02*
X121125000Y-99325000D01*
X123600000Y-105000000D02*
X127200000Y-105000000D01*
X122500000Y-103900000D02*
X123600000Y-105000000D01*
X127400000Y-105000000D02*
X127200000Y-105000000D01*
X119050000Y-99325000D02*
X119075000Y-99350000D01*
D48*
X126350000Y-100650000D02*
X127250000Y-101550000D01*
X124975000Y-100650000D02*
X126350000Y-100650000D01*
D45*
X68850000Y-148450000D02*
X67275000Y-146875000D01*
X82800000Y-148450000D02*
X68850000Y-148450000D01*
X85350000Y-145900000D02*
X82800000Y-148450000D01*
D48*
X85350000Y-145850000D02*
X85350000Y-145900000D01*
D45*
X85350000Y-142650000D02*
X85350000Y-145850000D01*
D48*
X67275000Y-146875000D02*
X67250000Y-146850000D01*
X124950000Y-100625000D02*
X124975000Y-100650000D01*
D47*
X126725000Y-99975000D02*
X127250000Y-100500000D01*
X127250000Y-100500000D02*
X128250000Y-100500000D01*
X124950000Y-99975000D02*
X126725000Y-99975000D01*
D44*
X89500000Y-101500000D02*
X92000000Y-101500000D01*
X92000000Y-101500000D02*
X93750000Y-99750000D01*
X93750000Y-99750000D02*
X102250000Y-99750000D01*
D47*
X129000000Y-100500000D02*
X128250000Y-100500000D01*
D48*
X124975000Y-99950000D02*
X124950000Y-99975000D01*
X74421761Y-96211721D02*
X74510040Y-96300000D01*
D44*
X74510040Y-96300000D02*
X81650000Y-96300000D01*
D48*
X81650000Y-96300000D02*
X81700000Y-96350000D01*
D44*
X91500000Y-98050000D02*
X103400000Y-98050000D01*
X103400000Y-98050000D02*
X105550000Y-100200000D01*
D48*
X127250000Y-99350000D02*
X124975000Y-99350000D01*
X124975000Y-99350000D02*
X124950000Y-99325000D01*
D44*
X101150000Y-89150000D02*
X103000000Y-89150000D01*
X100000000Y-88000000D02*
X101150000Y-89150000D01*
X100000000Y-81500000D02*
X100000000Y-88000000D01*
X103250000Y-78250000D02*
X100000000Y-81500000D01*
X105250000Y-78250000D02*
X103250000Y-78250000D01*
D45*
X117300000Y-64365000D02*
X119765000Y-64365000D01*
X130580000Y-72780000D02*
X130580000Y-74000000D01*
X129800000Y-72000000D02*
X130580000Y-72780000D01*
X123500000Y-72000000D02*
X129800000Y-72000000D01*
X120600000Y-69100000D02*
X123500000Y-72000000D01*
X120600000Y-65200000D02*
X120600000Y-69100000D01*
X119765000Y-64365000D02*
X120600000Y-65200000D01*
D44*
X137500000Y-72350000D02*
X139650000Y-72350000D01*
X143080000Y-68920000D02*
X145000000Y-68920000D01*
X139650000Y-72350000D02*
X143080000Y-68920000D01*
D45*
X137500000Y-72350000D02*
X137500000Y-70600000D01*
X125335000Y-65635000D02*
X122700000Y-65635000D01*
X126100000Y-66400000D02*
X125335000Y-65635000D01*
X126100000Y-68700000D02*
X126100000Y-66400000D01*
X127400000Y-70000000D02*
X126100000Y-68700000D01*
X136900000Y-70000000D02*
X127400000Y-70000000D01*
X137500000Y-70600000D02*
X136900000Y-70000000D01*
D44*
X99000000Y-68150000D02*
X99000000Y-69800000D01*
X103080000Y-71880000D02*
X103080000Y-74000000D01*
X101800000Y-70600000D02*
X103080000Y-71880000D01*
X99800000Y-70600000D02*
X101800000Y-70600000D01*
X99000000Y-69800000D02*
X99800000Y-70600000D01*
D45*
X93700000Y-65635000D02*
X98135000Y-65635000D01*
X99000000Y-66500000D02*
X99000000Y-68150000D01*
X98135000Y-65635000D02*
X99000000Y-66500000D01*
D44*
X132000000Y-98200000D02*
X137800000Y-98200000D01*
D47*
X137800000Y-98200000D02*
X138000000Y-98000000D01*
X124950000Y-97375000D02*
X127875000Y-97375000D01*
X128700000Y-98200000D02*
X132000000Y-98200000D01*
X127875000Y-97375000D02*
X128700000Y-98200000D01*
M02*
