G04 #@! TF.FileFunction,Profile,NP*
%FSLAX46Y46*%
G04 Gerber Fmt 4.6, Leading zero omitted, Abs format (unit mm)*
G04 Created by KiCad (PCBNEW 4.0.7-e2-6376~58~ubuntu16.04.1) date Tue Nov 13 23:08:23 2018*
%MOMM*%
%LPD*%
G01*
G04 APERTURE LIST*
%ADD10C,0.100000*%
%ADD11C,0.150000*%
G04 APERTURE END LIST*
D10*
D11*
X122900000Y-30300000D02*
X151200000Y-30300000D01*
X122900000Y-33300000D02*
X122900000Y-30300000D01*
X117000000Y-33300000D02*
X122900000Y-33300000D01*
X117000000Y-30300000D02*
X117000000Y-33300000D01*
X99400000Y-30300000D02*
X117000000Y-30300000D01*
X99400000Y-33400000D02*
X99400000Y-30300000D01*
X93500000Y-33400000D02*
X99400000Y-33400000D01*
X93500000Y-30300000D02*
X93500000Y-33400000D01*
X65300000Y-30300000D02*
X93500000Y-30300000D01*
X123900000Y-167300000D02*
X151200000Y-167300000D01*
X123900000Y-164100000D02*
X123900000Y-167300000D01*
X118000000Y-164100000D02*
X123900000Y-164100000D01*
X118000000Y-167300000D02*
X118000000Y-164100000D01*
X96900000Y-167300000D02*
X118000000Y-167300000D01*
X96900000Y-164100000D02*
X96900000Y-167300000D01*
X91000000Y-164100000D02*
X96900000Y-164100000D01*
X91000000Y-167300000D02*
X91000000Y-164100000D01*
X65300000Y-167300000D02*
X91000000Y-167300000D01*
X65300000Y-30300000D02*
X65300000Y-167300000D01*
X151200000Y-167300000D02*
X151200000Y-30300000D01*
M02*
