G04 #@! TF.FileFunction,Copper,L2,Bot,Signal*
%FSLAX46Y46*%
G04 Gerber Fmt 4.6, Leading zero omitted, Abs format (unit mm)*
G04 Created by KiCad (PCBNEW 4.0.7-e2-6376~58~ubuntu16.04.1) date Tue Nov 13 23:08:23 2018*
%MOMM*%
%LPD*%
G01*
G04 APERTURE LIST*
%ADD10C,0.100000*%
%ADD11R,2.000000X1.524000*%
%ADD12O,2.000000X1.524000*%
%ADD13C,7.000000*%
%ADD14O,1.500000X3.500000*%
%ADD15R,4.500000X2.000000*%
%ADD16R,2.000000X2.000000*%
%ADD17C,2.000000*%
%ADD18R,1.600000X1.600000*%
%ADD19C,1.600000*%
%ADD20R,1.700000X1.700000*%
%ADD21O,1.700000X1.700000*%
%ADD22C,1.000000*%
%ADD23R,1.000000X1.000000*%
%ADD24C,1.440000*%
%ADD25C,2.500000*%
%ADD26R,2.500000X2.500000*%
%ADD27C,5.000000*%
%ADD28R,1.800000X1.800000*%
%ADD29O,1.800000X1.800000*%
%ADD30O,1.600000X1.600000*%
%ADD31C,0.900000*%
%ADD32C,0.750000*%
%ADD33C,0.750000*%
%ADD34C,0.500000*%
%ADD35C,0.250000*%
%ADD36C,0.300000*%
%ADD37C,1.000000*%
%ADD38C,0.400000*%
G04 APERTURE END LIST*
D10*
D11*
X143001761Y-93671721D03*
D12*
X145541761Y-93671721D03*
X143001761Y-106371721D03*
X145541761Y-96211721D03*
X143001761Y-108911721D03*
X145541761Y-98751721D03*
X143001761Y-111451721D03*
X145541761Y-101291721D03*
X143001761Y-113991721D03*
X145541761Y-103831721D03*
X143001761Y-116531721D03*
X145541761Y-106371721D03*
X143001761Y-119071721D03*
X145541761Y-108911721D03*
X143001761Y-121611721D03*
X145541761Y-111451721D03*
X143001761Y-124151721D03*
X145541761Y-113991721D03*
X143001761Y-126691721D03*
X145541761Y-116531721D03*
X143001761Y-129231721D03*
X145541761Y-119071721D03*
X143001761Y-131771721D03*
X145541761Y-121611721D03*
X145541761Y-124151721D03*
X143001761Y-134311721D03*
X145541761Y-126691721D03*
X145541761Y-131771721D03*
X145541761Y-134311721D03*
X145541761Y-136851721D03*
X145541761Y-139391721D03*
X143001761Y-136851721D03*
X143001761Y-139391721D03*
X143001761Y-96211721D03*
X143001761Y-98751721D03*
X143001761Y-101291721D03*
X143001761Y-103831721D03*
X143001761Y-141931721D03*
X145541761Y-141931721D03*
X145541761Y-129231721D03*
D11*
X71881761Y-93671721D03*
D12*
X74421761Y-93671721D03*
X71881761Y-96211721D03*
X74421761Y-96211721D03*
X71881761Y-98751721D03*
X74421761Y-98751721D03*
X71881761Y-101291721D03*
X74421761Y-101291721D03*
X71881761Y-103831721D03*
X74421761Y-103831721D03*
X71881761Y-106371721D03*
X74421761Y-106371721D03*
X71881761Y-108911721D03*
X74421761Y-108911721D03*
X71881761Y-111451721D03*
X74421761Y-111451721D03*
X71881761Y-113991721D03*
X74421761Y-113991721D03*
X71881761Y-116531721D03*
X74421761Y-116531721D03*
X71881761Y-119071721D03*
X74421761Y-119071721D03*
X71881761Y-121611721D03*
X74421761Y-121611721D03*
X71881761Y-124151721D03*
X74421761Y-124151721D03*
X71881761Y-126691721D03*
X74421761Y-126691721D03*
X71881761Y-129231721D03*
X74421761Y-129231721D03*
X71881761Y-131771721D03*
X74421761Y-131771721D03*
X71881761Y-134311721D03*
X74421761Y-134311721D03*
X71881761Y-136851721D03*
X74421761Y-136851721D03*
X71881761Y-139391721D03*
X74421761Y-139391721D03*
X71881761Y-141931721D03*
X74421761Y-141931721D03*
D13*
X69976761Y-162505721D03*
X146303761Y-162505721D03*
X69976761Y-35124721D03*
X146303761Y-34997721D03*
D14*
X114500000Y-42000000D03*
X124500000Y-42000000D03*
D15*
X119500000Y-36500000D03*
D16*
X87000000Y-93000000D03*
D17*
X87000000Y-88000000D03*
D16*
X87000000Y-80000000D03*
D17*
X87000000Y-75000000D03*
D18*
X110000000Y-103000000D03*
D19*
X110000000Y-105500000D03*
D18*
X110000000Y-96000000D03*
D19*
X110000000Y-98500000D03*
D20*
X132000000Y-84000000D03*
D21*
X132000000Y-86540000D03*
D20*
X139000000Y-84000000D03*
D21*
X139000000Y-86540000D03*
D20*
X85000000Y-103000000D03*
D21*
X82460000Y-103000000D03*
X85000000Y-105540000D03*
X82460000Y-105540000D03*
X85000000Y-108080000D03*
X82460000Y-108080000D03*
X85000000Y-110620000D03*
X82460000Y-110620000D03*
X85000000Y-113160000D03*
X82460000Y-113160000D03*
D20*
X133000000Y-106000000D03*
D21*
X130460000Y-106000000D03*
X133000000Y-108540000D03*
X130460000Y-108540000D03*
X133000000Y-111080000D03*
X130460000Y-111080000D03*
X133000000Y-113620000D03*
X130460000Y-113620000D03*
X133000000Y-116160000D03*
X130460000Y-116160000D03*
D20*
X146000000Y-84000000D03*
D21*
X146000000Y-86540000D03*
D22*
X110270000Y-121730000D03*
X111540000Y-123000000D03*
D23*
X109000000Y-123000000D03*
D22*
X94270000Y-121730000D03*
X95540000Y-123000000D03*
D23*
X93000000Y-123000000D03*
D22*
X126270000Y-121730000D03*
X127540000Y-123000000D03*
D23*
X125000000Y-123000000D03*
D24*
X125500000Y-74000000D03*
X128040000Y-74000000D03*
X130580000Y-74000000D03*
X145000000Y-74000000D03*
X145000000Y-71460000D03*
X145000000Y-68920000D03*
X98000000Y-74000000D03*
X100540000Y-74000000D03*
X103080000Y-74000000D03*
X111000000Y-74000000D03*
X113540000Y-74000000D03*
X116080000Y-74000000D03*
X145000000Y-60000000D03*
X145000000Y-57460000D03*
X145000000Y-54920000D03*
X71000000Y-58000000D03*
X71000000Y-55460000D03*
X71000000Y-52920000D03*
D25*
X74000000Y-75000000D03*
D26*
X74000000Y-85000000D03*
D25*
X74000000Y-80000000D03*
D27*
X90000000Y-143000000D03*
X101000000Y-143000000D03*
X113000000Y-143000000D03*
X125000000Y-143000000D03*
D28*
X97100000Y-117000000D03*
D29*
X107260000Y-117000000D03*
D19*
X105800000Y-160200000D03*
D30*
X105800000Y-150040000D03*
D19*
X137100000Y-153400000D03*
D30*
X137100000Y-143240000D03*
D14*
X126500000Y-155500000D03*
X116500000Y-155500000D03*
D15*
X121500000Y-161000000D03*
D14*
X99500000Y-155500000D03*
X89500000Y-155500000D03*
D15*
X94500000Y-161000000D03*
D14*
X91000000Y-42000000D03*
X101000000Y-42000000D03*
D15*
X96000000Y-36500000D03*
D31*
X135500000Y-123200000D03*
D32*
X138500000Y-120200000D03*
D31*
X138500000Y-111000000D03*
X99000000Y-123000000D03*
X112000000Y-125000000D03*
X123250000Y-126150000D03*
X120000000Y-126100000D03*
X93000000Y-93000000D03*
X93000000Y-112000000D03*
X117700000Y-69500000D03*
X134300000Y-57460000D03*
X124400000Y-61200000D03*
X124400000Y-67600000D03*
X104700000Y-119500000D03*
X124200000Y-111900000D03*
X119000000Y-103400000D03*
X125000000Y-103500000D03*
X125800000Y-107000000D03*
X142750000Y-147000000D03*
X112000000Y-148750000D03*
X95000000Y-101000000D03*
D32*
X95000000Y-89000000D03*
D31*
X102500000Y-109500000D03*
X98500000Y-109500000D03*
X89500000Y-118000000D03*
D32*
X82500000Y-97500000D03*
D31*
X109000000Y-63000000D03*
X122500000Y-55500000D03*
X99000000Y-80000000D03*
X117020000Y-114060000D03*
X117040000Y-107010000D03*
X116350000Y-94400000D03*
X116350000Y-90750000D03*
X124000000Y-82000000D03*
X113000000Y-82000000D03*
X104000000Y-70000000D03*
X91000000Y-70000000D03*
X146300000Y-77300000D03*
X134500000Y-77300000D03*
X119760000Y-93170000D03*
X121560000Y-96920000D03*
X90000000Y-61000000D03*
X94000000Y-61000000D03*
X75000000Y-60000000D03*
X75000000Y-53000000D03*
X142000000Y-44000000D03*
X135000000Y-67000000D03*
X115000000Y-67000000D03*
X88000000Y-54500000D03*
X98000000Y-54500000D03*
D32*
X127580000Y-98240000D03*
D31*
X107530000Y-94410000D03*
D32*
X140000000Y-120500000D03*
D31*
X77000000Y-150000000D03*
X95000000Y-129750000D03*
D32*
X74500000Y-147000000D03*
X82500000Y-147000000D03*
D31*
X94500000Y-117000000D03*
X84000000Y-47000000D03*
X119800000Y-63100000D03*
X126000000Y-64600000D03*
X89500000Y-114500000D03*
X79500000Y-98500000D03*
X68000000Y-131500000D03*
X77500000Y-97750000D03*
X76750000Y-91250000D03*
D32*
X79500000Y-112500000D03*
X79000000Y-146000000D03*
D31*
X88000000Y-115500000D03*
X99000000Y-127000000D03*
X90000000Y-134000000D03*
X117000000Y-100000000D03*
D32*
X114500000Y-128500000D03*
D31*
X130300000Y-139900000D03*
X127400000Y-105000000D03*
X127250000Y-101550000D03*
D32*
X85350000Y-142650000D03*
D31*
X67275000Y-146875000D03*
X129000000Y-100500000D03*
X89500000Y-101500000D03*
X102250000Y-99750000D03*
D32*
X81700000Y-96350000D03*
D31*
X91500000Y-98050000D03*
X105550000Y-100200000D03*
D32*
X127250000Y-99350000D03*
D31*
X105250000Y-78250000D03*
D33*
X133000000Y-106000000D02*
X134900000Y-106000000D01*
X138500000Y-120200000D02*
X135500000Y-123200000D01*
X138500000Y-109600000D02*
X138500000Y-111000000D01*
X134900000Y-106000000D02*
X138500000Y-109600000D01*
X99000000Y-123000000D02*
X96500000Y-125500000D01*
X96500000Y-125500000D02*
X96500000Y-127500000D01*
X96500000Y-127500000D02*
X98000000Y-129000000D01*
X98000000Y-129000000D02*
X108000000Y-129000000D01*
X108000000Y-129000000D02*
X112000000Y-125000000D01*
D34*
X123200000Y-126100000D02*
X123250000Y-126150000D01*
D33*
X120000000Y-126100000D02*
X123200000Y-126100000D01*
D34*
X93000000Y-112000000D02*
X93000000Y-93000000D01*
D33*
X113540000Y-71560000D02*
X113540000Y-74000000D01*
X115600000Y-69500000D02*
X113540000Y-71560000D01*
X116000000Y-69500000D02*
X115600000Y-69500000D01*
X117100000Y-69500000D02*
X116000000Y-69500000D01*
X117700000Y-69500000D02*
X117100000Y-69500000D01*
X145000000Y-57460000D02*
X134300000Y-57460000D01*
D34*
X134300000Y-57460000D02*
X134240000Y-57460000D01*
X134240000Y-57460000D02*
X134200000Y-57500000D01*
D33*
X124400000Y-67600000D02*
X124400000Y-64900000D01*
X124400000Y-64900000D02*
X124400000Y-62200000D01*
X124400000Y-62200000D02*
X124400000Y-61200000D01*
X69500000Y-124800000D02*
X69700000Y-124800000D01*
X70151721Y-124348279D02*
X70151721Y-124151721D01*
X69700000Y-124800000D02*
X70151721Y-124348279D01*
X71881761Y-139391721D02*
X71881761Y-141931721D01*
X69500000Y-123500000D02*
X69500000Y-124800000D01*
X69500000Y-124800000D02*
X69500000Y-138100000D01*
X70791721Y-139391721D02*
X71881761Y-139391721D01*
X69500000Y-138100000D02*
X70791721Y-139391721D01*
X71881761Y-124151721D02*
X71881761Y-126691721D01*
X71881761Y-116531721D02*
X70168279Y-116531721D01*
X70151721Y-124151721D02*
X71881761Y-124151721D01*
X69500000Y-123500000D02*
X70151721Y-124151721D01*
X69500000Y-117200000D02*
X69500000Y-123500000D01*
X70168279Y-116531721D02*
X69500000Y-117200000D01*
D35*
X71881761Y-139391721D02*
X71490040Y-139000000D01*
X71881761Y-113991721D02*
X71873482Y-114000000D01*
X71730040Y-124000000D02*
X71881761Y-124151721D01*
D34*
X136260000Y-111750000D02*
X135590000Y-111080000D01*
X135590000Y-111080000D02*
X133000000Y-111080000D01*
D36*
X145541761Y-116531721D02*
X144270040Y-115260000D01*
D34*
X139750000Y-115240000D02*
X136260000Y-111750000D01*
D36*
X136260000Y-111750000D02*
X136250000Y-111740000D01*
X139750000Y-115260000D02*
X139750000Y-115240000D01*
X139800000Y-115260000D02*
X139750000Y-115260000D01*
X144270040Y-115260000D02*
X139800000Y-115260000D01*
D35*
X125700000Y-107100000D02*
X125800000Y-107000000D01*
D33*
X125700000Y-108000000D02*
X125700000Y-107100000D01*
X125300000Y-108400000D02*
X125700000Y-108000000D01*
X124200000Y-109500000D02*
X125300000Y-108400000D01*
D35*
X124200000Y-109600000D02*
X124200000Y-109500000D01*
D33*
X124200000Y-111900000D02*
X124200000Y-109600000D01*
X119000000Y-103400000D02*
X124900000Y-103400000D01*
D35*
X124900000Y-103400000D02*
X125000000Y-103500000D01*
D33*
X125800000Y-107000000D02*
X125800000Y-104300000D01*
X125800000Y-104300000D02*
X125000000Y-103500000D01*
X141000000Y-148750000D02*
X142750000Y-147000000D01*
X112000000Y-148750000D02*
X141000000Y-148750000D01*
X95000000Y-89000000D02*
X95000000Y-101000000D01*
D34*
X95540000Y-123000000D02*
X95540000Y-122960000D01*
D33*
X95540000Y-122960000D02*
X99000000Y-119500000D01*
X99000000Y-119500000D02*
X104700000Y-119500000D01*
X112000000Y-122540000D02*
X111540000Y-123000000D01*
X104700000Y-119500000D02*
X111000000Y-119500000D01*
X111000000Y-119500000D02*
X112000000Y-120500000D01*
X112000000Y-120500000D02*
X112000000Y-122540000D01*
X98500000Y-109500000D02*
X102500000Y-109500000D01*
D34*
X82460000Y-113160000D02*
X82460000Y-116460000D01*
X84000000Y-118000000D02*
X89500000Y-118000000D01*
X82460000Y-116460000D02*
X84000000Y-118000000D01*
X87000000Y-75000000D02*
X90000000Y-75000000D01*
X90000000Y-88000000D02*
X87000000Y-88000000D01*
X91000000Y-87000000D02*
X90000000Y-88000000D01*
D37*
X91000000Y-76000000D02*
X91000000Y-87000000D01*
D34*
X90000000Y-75000000D02*
X91000000Y-76000000D01*
X80000000Y-96500000D02*
X80000000Y-86000000D01*
X81000000Y-97500000D02*
X80000000Y-96500000D01*
X81250000Y-97500000D02*
X81000000Y-97500000D01*
X82500000Y-97500000D02*
X81250000Y-97500000D01*
D36*
X80000000Y-86000000D02*
X79750000Y-85750000D01*
X79750000Y-85750000D02*
X79750000Y-86250000D01*
D33*
X110500000Y-63000000D02*
X109000000Y-63000000D01*
X118000000Y-55500000D02*
X110500000Y-63000000D01*
X119000000Y-55500000D02*
X118000000Y-55500000D01*
X122500000Y-55500000D02*
X119000000Y-55500000D01*
X100000000Y-82000000D02*
X113000000Y-82000000D01*
X99000000Y-81000000D02*
X100000000Y-82000000D01*
X99000000Y-80000000D02*
X99000000Y-81000000D01*
X117020000Y-114060000D02*
X117020000Y-107030000D01*
D34*
X117020000Y-107030000D02*
X117040000Y-107010000D01*
X116350000Y-94400000D02*
X116350000Y-90750000D01*
D33*
X113000000Y-82000000D02*
X124000000Y-82000000D01*
X91000000Y-70000000D02*
X96000000Y-70000000D01*
X96000000Y-70000000D02*
X102000000Y-70000000D01*
X104000000Y-70000000D02*
X102000000Y-70000000D01*
D37*
X87000000Y-80000000D02*
X82000000Y-80000000D01*
X71881761Y-91118239D02*
X71881761Y-93671721D01*
X74000000Y-89000000D02*
X71881761Y-91118239D01*
X77000000Y-89000000D02*
X74000000Y-89000000D01*
X80000000Y-86000000D02*
X79750000Y-86250000D01*
X79750000Y-86250000D02*
X77000000Y-89000000D01*
X80000000Y-82000000D02*
X80000000Y-86000000D01*
X82000000Y-80000000D02*
X80000000Y-82000000D01*
D33*
X144300000Y-77300000D02*
X146300000Y-77300000D01*
X142300000Y-77300000D02*
X144300000Y-77300000D01*
X134500000Y-77300000D02*
X142300000Y-77300000D01*
D38*
X121560000Y-94970000D02*
X119760000Y-93170000D01*
X121560000Y-96920000D02*
X121560000Y-94970000D01*
D33*
X90000000Y-61000000D02*
X94000000Y-61000000D01*
X75000000Y-53000000D02*
X75000000Y-60000000D01*
X124000000Y-59000000D02*
X125000000Y-58000000D01*
X126000000Y-59000000D02*
X125000000Y-58000000D01*
X125000000Y-49000000D02*
X127000000Y-47000000D01*
X127000000Y-47000000D02*
X139000000Y-47000000D01*
X139000000Y-47000000D02*
X142000000Y-44000000D01*
X125000000Y-58000000D02*
X125000000Y-49000000D01*
X125000000Y-59000000D02*
X125000000Y-58000000D01*
X135000000Y-62000000D02*
X135000000Y-67000000D01*
X132000000Y-59000000D02*
X135000000Y-62000000D01*
X117000000Y-59000000D02*
X124000000Y-59000000D01*
X124000000Y-59000000D02*
X125000000Y-59000000D01*
X125000000Y-59000000D02*
X126000000Y-59000000D01*
X126000000Y-59000000D02*
X132000000Y-59000000D01*
X116000000Y-60000000D02*
X117000000Y-59000000D01*
X115000000Y-61000000D02*
X116000000Y-60000000D01*
X115000000Y-67000000D02*
X115000000Y-61000000D01*
X88000000Y-54500000D02*
X98000000Y-54500000D01*
D38*
X107530000Y-94410000D02*
X114320000Y-94410000D01*
X114320000Y-94410000D02*
X117790000Y-97880000D01*
X117790000Y-97880000D02*
X127220000Y-97880000D01*
X127220000Y-97880000D02*
X127580000Y-98240000D01*
D33*
X89000000Y-147000000D02*
X85000000Y-147000000D01*
X140000000Y-120500000D02*
X140000000Y-135500000D01*
X140000000Y-135500000D02*
X140000000Y-144500000D01*
X140000000Y-144500000D02*
X137500000Y-147000000D01*
X137500000Y-147000000D02*
X89000000Y-147000000D01*
X82000000Y-150000000D02*
X77000000Y-150000000D01*
X85000000Y-147000000D02*
X82000000Y-150000000D01*
D34*
X94270000Y-121730000D02*
X94040000Y-121500000D01*
D33*
X94040000Y-121500000D02*
X91750000Y-121500000D01*
X91750000Y-121500000D02*
X90500000Y-122750000D01*
X90500000Y-122750000D02*
X90500000Y-126250000D01*
X90500000Y-126250000D02*
X90500000Y-128250000D01*
X90500000Y-128250000D02*
X91750000Y-129500000D01*
X91750000Y-129500000D02*
X94750000Y-129500000D01*
D34*
X94750000Y-129500000D02*
X95000000Y-129750000D01*
D33*
X74421761Y-141931721D02*
X74421761Y-146921761D01*
D34*
X74421761Y-146921761D02*
X74500000Y-147000000D01*
X82500000Y-147000000D02*
X82500000Y-125500000D01*
X82500000Y-125500000D02*
X82500000Y-125000000D01*
X82500000Y-125000000D02*
X83500000Y-124000000D01*
X83500000Y-124000000D02*
X87500000Y-124000000D01*
X87500000Y-124000000D02*
X94500000Y-117000000D01*
D37*
X91000000Y-42000000D02*
X91000000Y-45000000D01*
X89000000Y-47000000D02*
X84000000Y-47000000D01*
X91000000Y-45000000D02*
X89000000Y-47000000D01*
D33*
X128040000Y-74000000D02*
X128040000Y-72940000D01*
X119800000Y-69600000D02*
X119800000Y-63100000D01*
X122100000Y-71900000D02*
X119800000Y-69600000D01*
X127000000Y-71900000D02*
X122100000Y-71900000D01*
X128040000Y-72940000D02*
X127000000Y-71900000D01*
X132000000Y-86540000D02*
X132000000Y-88000000D01*
X140911721Y-108911721D02*
X143001761Y-108911721D01*
X136000000Y-104000000D02*
X140911721Y-108911721D01*
X136000000Y-92000000D02*
X136000000Y-104000000D01*
X132000000Y-88000000D02*
X136000000Y-92000000D01*
X145000000Y-71460000D02*
X142560000Y-71460000D01*
X126000000Y-68400000D02*
X126000000Y-64600000D01*
X127500000Y-69900000D02*
X126000000Y-68400000D01*
X141000000Y-69900000D02*
X127500000Y-69900000D01*
X142560000Y-71460000D02*
X141000000Y-69900000D01*
X143001761Y-106371721D02*
X141371721Y-106371721D01*
X138000000Y-87540000D02*
X139000000Y-86540000D01*
X138000000Y-103000000D02*
X138000000Y-87540000D01*
X141371721Y-106371721D02*
X138000000Y-103000000D01*
D34*
X77750000Y-102000000D02*
X78000000Y-101750000D01*
X75728279Y-131771721D02*
X76750000Y-130750000D01*
X76750000Y-130750000D02*
X76750000Y-103000000D01*
X76750000Y-103000000D02*
X77750000Y-102000000D01*
X74421761Y-131771721D02*
X75728279Y-131771721D01*
X85000000Y-101500000D02*
X85000000Y-103000000D01*
X84500000Y-101000000D02*
X85000000Y-101500000D01*
X78750000Y-101000000D02*
X84500000Y-101000000D01*
X78000000Y-101750000D02*
X78750000Y-101000000D01*
X74421761Y-131771721D02*
X75228279Y-131771721D01*
X88500000Y-105500000D02*
X85040000Y-105500000D01*
X89500000Y-106500000D02*
X88500000Y-105500000D01*
X89500000Y-114500000D02*
X89500000Y-106500000D01*
X85040000Y-105500000D02*
X85000000Y-105540000D01*
X89000000Y-98500000D02*
X79500000Y-98500000D01*
X91500000Y-101000000D02*
X89000000Y-98500000D01*
X91500000Y-118500000D02*
X91500000Y-101000000D01*
X87000000Y-123000000D02*
X91500000Y-118500000D01*
X83000000Y-123000000D02*
X87000000Y-123000000D01*
X81500000Y-124500000D02*
X83000000Y-123000000D01*
X81500000Y-146500000D02*
X81500000Y-124500000D01*
X80000000Y-148000000D02*
X81500000Y-146500000D01*
X71000000Y-148000000D02*
X80000000Y-148000000D01*
X68000000Y-145000000D02*
X71000000Y-148000000D01*
X68000000Y-131500000D02*
X68000000Y-145000000D01*
X77500000Y-92000000D02*
X77500000Y-97750000D01*
X76750000Y-91250000D02*
X77500000Y-92000000D01*
X79000000Y-113000000D02*
X79500000Y-112500000D01*
X79000000Y-146000000D02*
X79000000Y-113000000D01*
X87000000Y-110500000D02*
X85120000Y-110500000D01*
X88000000Y-111500000D02*
X87000000Y-110500000D01*
X88000000Y-115500000D02*
X88000000Y-111500000D01*
X85120000Y-110500000D02*
X85000000Y-110620000D01*
X74421761Y-134311721D02*
X76688279Y-134311721D01*
X79380000Y-110620000D02*
X82460000Y-110620000D01*
X78000000Y-112000000D02*
X79380000Y-110620000D01*
X78000000Y-133000000D02*
X78000000Y-112000000D01*
X76688279Y-134311721D02*
X78000000Y-133000000D01*
D33*
X130460000Y-113620000D02*
X129380000Y-113620000D01*
X136928279Y-119071721D02*
X143001761Y-119071721D01*
X136500000Y-119500000D02*
X136928279Y-119071721D01*
X130000000Y-119500000D02*
X136500000Y-119500000D01*
X128500000Y-118000000D02*
X130000000Y-119500000D01*
X128500000Y-114500000D02*
X128500000Y-118000000D01*
X129380000Y-113620000D02*
X128500000Y-114500000D01*
X132000000Y-118000000D02*
X135500000Y-118000000D01*
X130460000Y-117460000D02*
X131000000Y-118000000D01*
X131000000Y-118000000D02*
X132000000Y-118000000D01*
X130460000Y-116160000D02*
X130460000Y-117460000D01*
X136968279Y-116531721D02*
X143001761Y-116531721D01*
X135500000Y-118000000D02*
X136968279Y-116531721D01*
X100540000Y-74000000D02*
X100540000Y-77540000D01*
X146000000Y-82000000D02*
X146000000Y-84000000D01*
X144000000Y-80000000D02*
X146000000Y-82000000D01*
X103000000Y-80000000D02*
X144000000Y-80000000D01*
X100540000Y-77540000D02*
X103000000Y-80000000D01*
X143001761Y-103831721D02*
X140831721Y-103831721D01*
X146000000Y-89000000D02*
X146000000Y-86540000D01*
X144000000Y-91000000D02*
X146000000Y-89000000D01*
D34*
X142000000Y-91000000D02*
X144000000Y-91000000D01*
D33*
X140000000Y-93000000D02*
X142000000Y-91000000D01*
X140000000Y-103000000D02*
X140000000Y-93000000D01*
X140831721Y-103831721D02*
X140000000Y-103000000D01*
X109000000Y-124500000D02*
X109000000Y-123000000D01*
X106500000Y-127000000D02*
X109000000Y-124500000D01*
X105500000Y-127000000D02*
X106500000Y-127000000D01*
X99000000Y-127000000D02*
X105500000Y-127000000D01*
X125000000Y-123000000D02*
X125000000Y-128250000D01*
X120250000Y-134000000D02*
X90000000Y-134000000D01*
X125000000Y-129250000D02*
X120250000Y-134000000D01*
X125000000Y-128250000D02*
X125000000Y-129250000D01*
D34*
X71733482Y-137000000D02*
X71881761Y-136851721D01*
X114500000Y-102500000D02*
X117000000Y-100000000D01*
X114500000Y-128500000D02*
X114500000Y-102500000D01*
D33*
X130300000Y-123000000D02*
X130300000Y-139900000D01*
X126900000Y-119600000D02*
X130300000Y-123000000D01*
X126900000Y-113200000D02*
X126900000Y-119600000D01*
X127400000Y-112700000D02*
X126900000Y-113200000D01*
X127400000Y-105000000D02*
X127400000Y-112700000D01*
D34*
X85350000Y-135150000D02*
X85350000Y-142650000D01*
X86450000Y-134050000D02*
X85350000Y-135150000D01*
X87350000Y-133150000D02*
X86450000Y-134050000D01*
X87650000Y-132850000D02*
X87350000Y-133150000D01*
X89550000Y-130950000D02*
X87650000Y-132850000D01*
D35*
X89600000Y-130950000D02*
X89550000Y-130950000D01*
D34*
X114500000Y-130950000D02*
X89600000Y-130950000D01*
X115550000Y-129900000D02*
X114500000Y-130950000D01*
X115550000Y-104650000D02*
X115550000Y-129900000D01*
X115700000Y-104500000D02*
X115550000Y-104650000D01*
X115950000Y-104250000D02*
X115700000Y-104500000D01*
X118650000Y-101550000D02*
X115950000Y-104250000D01*
X127250000Y-101550000D02*
X118650000Y-101550000D01*
D33*
X71683482Y-111650000D02*
X69250000Y-111650000D01*
X66200000Y-114700000D02*
X69250000Y-111650000D01*
D35*
X66200000Y-114750000D02*
X66200000Y-114700000D01*
D33*
X66200000Y-145800000D02*
X66200000Y-114750000D01*
X67225000Y-146825000D02*
X66200000Y-145800000D01*
D35*
X67275000Y-146825000D02*
X67225000Y-146825000D01*
X67275000Y-146825000D02*
X67275000Y-146875000D01*
X71683482Y-111650000D02*
X71881761Y-111451721D01*
D34*
X76251721Y-98751721D02*
X77500000Y-100000000D01*
X77500000Y-100000000D02*
X88000000Y-100000000D01*
X88000000Y-100000000D02*
X89500000Y-101500000D01*
X102250000Y-99750000D02*
X102250000Y-94000000D01*
X102250000Y-94000000D02*
X107750000Y-88500000D01*
X107750000Y-88500000D02*
X126250000Y-88500000D01*
X126250000Y-88500000D02*
X130000000Y-92250000D01*
X130000000Y-92250000D02*
X130000000Y-99500000D01*
X130000000Y-99500000D02*
X129000000Y-100500000D01*
X76251721Y-98751721D02*
X74421761Y-98751721D01*
D35*
X74421761Y-98751721D02*
X74423482Y-98750000D01*
D33*
X81700000Y-96350000D02*
X89800000Y-96350000D01*
X89800000Y-96350000D02*
X91500000Y-98050000D01*
D38*
X105550000Y-100200000D02*
X110600000Y-100200000D01*
X110600000Y-100200000D02*
X112050000Y-98750000D01*
X112050000Y-98750000D02*
X126650000Y-98750000D01*
X126650000Y-98750000D02*
X127250000Y-99350000D01*
D33*
X130580000Y-74000000D02*
X130580000Y-75670000D01*
X128000000Y-78250000D02*
X105250000Y-78250000D01*
X130580000Y-75670000D02*
X128000000Y-78250000D01*
M02*
