solid SOT23-5
facet normal 0 0 -1
  outer loop
    vertex -15.2684708490936 37.40157 57
    vertex -13.7237340324585 37.7088372571754 57
    vertex -13.6934708490936 37.40157 57
  endloop
endfacet
facet normal 0 0 -1
  outer loop
    vertex -15.2684708490936 37.40157 57
    vertex -13.8133605853883 38.004296405975 57
    vertex -13.7237340324585 37.7088372571754 57
  endloop
endfacet
facet normal 0 0 -1
  outer loop
    vertex -15.2684708490936 37.40157 57
    vertex -13.9589062097171 38.2765931170059 57
    vertex -13.8133605853883 38.004296405975 57
  endloop
endfacet
facet normal 0 0 -1
  outer loop
    vertex -15.2684708490936 37.40157 57
    vertex -14.1547776687248 38.5152631803688 57
    vertex -13.9589062097171 38.2765931170059 57
  endloop
endfacet
facet normal 0 0 -1
  outer loop
    vertex -15.2684708490936 37.40157 57
    vertex -14.3934477320877 38.7111346393765 57
    vertex -14.1547776687248 38.5152631803688 57
  endloop
endfacet
facet normal 0 0 -1
  outer loop
    vertex -15.2684708490936 37.40157 57
    vertex -14.6657444431185 38.8566802637053 57
    vertex -14.3934477320877 38.7111346393765 57
  endloop
endfacet
facet normal 0 0 -1
  outer loop
    vertex -15.2684708490936 37.40157 57
    vertex -14.9612035919182 38.9463068166351 57
    vertex -14.6657444431185 38.8566802637053 57
  endloop
endfacet
facet normal 0 0 -1
  outer loop
    vertex -15.2684708490936 37.40157 57
    vertex -15.2684708490936 38.97657 57
    vertex -14.9612035919182 38.9463068166351 57
  endloop
endfacet
facet normal 0 0 -1
  outer loop
    vertex -15.2684708490936 37.40157 57
    vertex -15.575738106269 38.9463068166351 57
    vertex -15.2684708490936 38.97657 57
  endloop
endfacet
facet normal 0 0 -1
  outer loop
    vertex -15.2684708490936 37.40157 57
    vertex -15.8711972550686 38.8566802637053 57
    vertex -15.575738106269 38.9463068166351 57
  endloop
endfacet
facet normal 0 0 -1
  outer loop
    vertex -15.2684708490936 37.40157 57
    vertex -16.1434939660994 38.7111346393765 57
    vertex -15.8711972550686 38.8566802637053 57
  endloop
endfacet
facet normal 0 0 -1
  outer loop
    vertex -15.2684708490936 37.40157 57
    vertex -16.3821640294624 38.5152631803688 57
    vertex -16.1434939660994 38.7111346393765 57
  endloop
endfacet
facet normal 0 0 -1
  outer loop
    vertex -15.2684708490936 37.40157 57
    vertex -16.5780354884701 38.2765931170059 57
    vertex -16.3821640294624 38.5152631803688 57
  endloop
endfacet
facet normal 0 0 -1
  outer loop
    vertex -15.2684708490936 37.40157 57
    vertex -16.7235811127988 38.004296405975 57
    vertex -16.5780354884701 38.2765931170059 57
  endloop
endfacet
facet normal 0 0 -1
  outer loop
    vertex -15.2684708490936 37.40157 57
    vertex -16.8132076657287 37.7088372571754 57
    vertex -16.7235811127988 38.004296405975 57
  endloop
endfacet
facet normal 0 0 -1
  outer loop
    vertex -15.2684708490936 37.40157 57
    vertex -16.8434708490936 37.40157 57
    vertex -16.8132076657287 37.7088372571754 57
  endloop
endfacet
facet normal 0 0 -1
  outer loop
    vertex -15.2684708490936 37.40157 57
    vertex -16.8132076657287 37.0943027428246 57
    vertex -16.8434708490936 37.40157 57
  endloop
endfacet
facet normal 0 0 -1
  outer loop
    vertex -15.2684708490936 37.40157 57
    vertex -16.7235811127988 36.798843594025 57
    vertex -16.8132076657287 37.0943027428246 57
  endloop
endfacet
facet normal 0 0 -1
  outer loop
    vertex -15.2684708490936 37.40157 57
    vertex -16.5780354884701 36.5265468829941 57
    vertex -16.7235811127988 36.798843594025 57
  endloop
endfacet
facet normal 0 0 -1
  outer loop
    vertex -15.2684708490936 37.40157 57
    vertex -16.3821640294624 36.2878768196312 57
    vertex -16.5780354884701 36.5265468829941 57
  endloop
endfacet
facet normal 0 0 -1
  outer loop
    vertex -15.2684708490936 37.40157 57
    vertex -16.1434939660994 36.0920053606235 57
    vertex -16.3821640294624 36.2878768196312 57
  endloop
endfacet
facet normal 0 0 -1
  outer loop
    vertex -15.2684708490936 37.40157 57
    vertex -15.8711972550686 35.9464597362947 57
    vertex -16.1434939660994 36.0920053606235 57
  endloop
endfacet
facet normal 0 0 -1
  outer loop
    vertex -15.2684708490936 37.40157 57
    vertex -15.575738106269 35.8568331833649 57
    vertex -15.8711972550686 35.9464597362947 57
  endloop
endfacet
facet normal 0 0 -1
  outer loop
    vertex -15.2684708490936 37.40157 57
    vertex -15.2684708490936 35.82657 57
    vertex -15.575738106269 35.8568331833649 57
  endloop
endfacet
facet normal 0 0 -1
  outer loop
    vertex -15.2684708490936 37.40157 57
    vertex -14.9612035919182 35.8568331833649 57
    vertex -15.2684708490936 35.82657 57
  endloop
endfacet
facet normal 0 0 -1
  outer loop
    vertex -15.2684708490936 37.40157 57
    vertex -14.6657444431185 35.9464597362947 57
    vertex -14.9612035919182 35.8568331833649 57
  endloop
endfacet
facet normal 0 0 -1
  outer loop
    vertex -15.2684708490936 37.40157 57
    vertex -14.3934477320877 36.0920053606235 57
    vertex -14.6657444431185 35.9464597362947 57
  endloop
endfacet
facet normal 0 0 -1
  outer loop
    vertex -15.2684708490936 37.40157 57
    vertex -14.1547776687248 36.2878768196312 57
    vertex -14.3934477320877 36.0920053606235 57
  endloop
endfacet
facet normal 0 0 -1
  outer loop
    vertex -15.2684708490936 37.40157 57
    vertex -13.9589062097171 36.5265468829941 57
    vertex -14.1547776687248 36.2878768196312 57
  endloop
endfacet
facet normal 0 0 -1
  outer loop
    vertex -15.2684708490936 37.40157 57
    vertex -13.8133605853883 36.798843594025 57
    vertex -13.9589062097171 36.5265468829941 57
  endloop
endfacet
facet normal 0 0 -1
  outer loop
    vertex -15.2684708490936 37.40157 57
    vertex -13.7237340324585 37.0943027428246 57
    vertex -13.8133605853883 36.798843594025 57
  endloop
endfacet
facet normal 0 0 -1
  outer loop
    vertex -15.2684708490936 37.40157 57
    vertex -13.6934708490936 37.40157 57
    vertex -13.7237340324585 37.0943027428246 57
  endloop
endfacet
facet normal 0 0 1
  outer loop
    vertex -15.2684708490936 37.40157 57.1
    vertex -13.6934708490936 37.40157 57.1
    vertex -13.7237340324585 37.7088372571754 57.1
  endloop
endfacet
facet normal 0 0 1
  outer loop
    vertex -15.2684708490936 37.40157 57.1
    vertex -13.7237340324585 37.7088372571754 57.1
    vertex -13.8133605853883 38.004296405975 57.1
  endloop
endfacet
facet normal 0 0 1
  outer loop
    vertex -15.2684708490936 37.40157 57.1
    vertex -13.8133605853883 38.004296405975 57.1
    vertex -13.9589062097171 38.2765931170059 57.1
  endloop
endfacet
facet normal 0 0 1
  outer loop
    vertex -15.2684708490936 37.40157 57.1
    vertex -13.9589062097171 38.2765931170059 57.1
    vertex -14.1547776687248 38.5152631803688 57.1
  endloop
endfacet
facet normal 0 0 1
  outer loop
    vertex -15.2684708490936 37.40157 57.1
    vertex -14.1547776687248 38.5152631803688 57.1
    vertex -14.3934477320877 38.7111346393765 57.1
  endloop
endfacet
facet normal 0 0 1
  outer loop
    vertex -15.2684708490936 37.40157 57.1
    vertex -14.3934477320877 38.7111346393765 57.1
    vertex -14.6657444431185 38.8566802637053 57.1
  endloop
endfacet
facet normal 0 0 1
  outer loop
    vertex -15.2684708490936 37.40157 57.1
    vertex -14.6657444431185 38.8566802637053 57.1
    vertex -14.9612035919182 38.9463068166351 57.1
  endloop
endfacet
facet normal 0 0 1
  outer loop
    vertex -15.2684708490936 37.40157 57.1
    vertex -14.9612035919182 38.9463068166351 57.1
    vertex -15.2684708490936 38.97657 57.1
  endloop
endfacet
facet normal 0 0 1
  outer loop
    vertex -15.2684708490936 37.40157 57.1
    vertex -15.2684708490936 38.97657 57.1
    vertex -15.575738106269 38.9463068166351 57.1
  endloop
endfacet
facet normal 0 0 1
  outer loop
    vertex -15.2684708490936 37.40157 57.1
    vertex -15.575738106269 38.9463068166351 57.1
    vertex -15.8711972550686 38.8566802637053 57.1
  endloop
endfacet
facet normal 0 0 1
  outer loop
    vertex -15.2684708490936 37.40157 57.1
    vertex -15.8711972550686 38.8566802637053 57.1
    vertex -16.1434939660994 38.7111346393765 57.1
  endloop
endfacet
facet normal 0 0 1
  outer loop
    vertex -15.2684708490936 37.40157 57.1
    vertex -16.1434939660994 38.7111346393765 57.1
    vertex -16.3821640294624 38.5152631803688 57.1
  endloop
endfacet
facet normal 0 0 1
  outer loop
    vertex -15.2684708490936 37.40157 57.1
    vertex -16.3821640294624 38.5152631803688 57.1
    vertex -16.5780354884701 38.2765931170059 57.1
  endloop
endfacet
facet normal 0 0 1
  outer loop
    vertex -15.2684708490936 37.40157 57.1
    vertex -16.5780354884701 38.2765931170059 57.1
    vertex -16.7235811127988 38.004296405975 57.1
  endloop
endfacet
facet normal 0 0 1
  outer loop
    vertex -15.2684708490936 37.40157 57.1
    vertex -16.7235811127988 38.004296405975 57.1
    vertex -16.8132076657287 37.7088372571754 57.1
  endloop
endfacet
facet normal 0 0 1
  outer loop
    vertex -15.2684708490936 37.40157 57.1
    vertex -16.8132076657287 37.7088372571754 57.1
    vertex -16.8434708490936 37.40157 57.1
  endloop
endfacet
facet normal 0 0 1
  outer loop
    vertex -15.2684708490936 37.40157 57.1
    vertex -16.8434708490936 37.40157 57.1
    vertex -16.8132076657287 37.0943027428246 57.1
  endloop
endfacet
facet normal 0 0 1
  outer loop
    vertex -15.2684708490936 37.40157 57.1
    vertex -16.8132076657287 37.0943027428246 57.1
    vertex -16.7235811127988 36.798843594025 57.1
  endloop
endfacet
facet normal 0 0 1
  outer loop
    vertex -15.2684708490936 37.40157 57.1
    vertex -16.7235811127988 36.798843594025 57.1
    vertex -16.5780354884701 36.5265468829941 57.1
  endloop
endfacet
facet normal 0 0 1
  outer loop
    vertex -15.2684708490936 37.40157 57.1
    vertex -16.5780354884701 36.5265468829941 57.1
    vertex -16.3821640294624 36.2878768196312 57.1
  endloop
endfacet
facet normal 0 0 1
  outer loop
    vertex -15.2684708490936 37.40157 57.1
    vertex -16.3821640294624 36.2878768196312 57.1
    vertex -16.1434939660994 36.0920053606235 57.1
  endloop
endfacet
facet normal 0 0 1
  outer loop
    vertex -15.2684708490936 37.40157 57.1
    vertex -16.1434939660994 36.0920053606235 57.1
    vertex -15.8711972550686 35.9464597362947 57.1
  endloop
endfacet
facet normal 0 0 1
  outer loop
    vertex -15.2684708490936 37.40157 57.1
    vertex -15.8711972550686 35.9464597362947 57.1
    vertex -15.575738106269 35.8568331833649 57.1
  endloop
endfacet
facet normal 0 0 1
  outer loop
    vertex -15.2684708490936 37.40157 57.1
    vertex -15.575738106269 35.8568331833649 57.1
    vertex -15.2684708490936 35.82657 57.1
  endloop
endfacet
facet normal 0 0 1
  outer loop
    vertex -15.2684708490936 37.40157 57.1
    vertex -15.2684708490936 35.82657 57.1
    vertex -14.9612035919182 35.8568331833649 57.1
  endloop
endfacet
facet normal 0 0 1
  outer loop
    vertex -15.2684708490936 37.40157 57.1
    vertex -14.9612035919182 35.8568331833649 57.1
    vertex -14.6657444431185 35.9464597362947 57.1
  endloop
endfacet
facet normal 0 0 1
  outer loop
    vertex -15.2684708490936 37.40157 57.1
    vertex -14.6657444431185 35.9464597362947 57.1
    vertex -14.3934477320877 36.0920053606235 57.1
  endloop
endfacet
facet normal 0 0 1
  outer loop
    vertex -15.2684708490936 37.40157 57.1
    vertex -14.3934477320877 36.0920053606235 57.1
    vertex -14.1547776687248 36.2878768196312 57.1
  endloop
endfacet
facet normal 0 0 1
  outer loop
    vertex -15.2684708490936 37.40157 57.1
    vertex -14.1547776687248 36.2878768196312 57.1
    vertex -13.9589062097171 36.5265468829941 57.1
  endloop
endfacet
facet normal 0 0 1
  outer loop
    vertex -15.2684708490936 37.40157 57.1
    vertex -13.9589062097171 36.5265468829941 57.1
    vertex -13.8133605853883 36.798843594025 57.1
  endloop
endfacet
facet normal 0 0 1
  outer loop
    vertex -15.2684708490936 37.40157 57.1
    vertex -13.8133605853883 36.798843594025 57.1
    vertex -13.7237340324585 37.0943027428246 57.1
  endloop
endfacet
facet normal 0 0 1
  outer loop
    vertex -15.2684708490936 37.40157 57.1
    vertex -13.7237340324585 37.0943027428246 57.1
    vertex -13.6934708490936 37.40157 57.1
  endloop
endfacet
facet normal .995184726672201 9.80171403295231E-02 0
  outer loop
    vertex -13.6934708490936 37.40157 57
    vertex -13.7237340324585 37.7088372571754 57.1
    vertex -13.6934708490936 37.40157 57.1
  endloop
endfacet
facet normal .956940335732215 .290284677254442 0
  outer loop
    vertex -13.7237340324585 37.7088372571754 57
    vertex -13.8133605853883 38.004296405975 57.1
    vertex -13.7237340324585 37.7088372571754 57.1
  endloop
endfacet
facet normal .881921264348348 .471396736826012 0
  outer loop
    vertex -13.8133605853883 38.004296405975 57
    vertex -13.9589062097171 38.2765931170059 57.1
    vertex -13.8133605853883 38.004296405975 57.1
  endloop
endfacet
facet normal .773010453362676 .63439328416372 0
  outer loop
    vertex -13.9589062097171 38.2765931170059 57
    vertex -14.1547776687248 38.5152631803688 57.1
    vertex -13.9589062097171 38.2765931170059 57.1
  endloop
endfacet
facet normal .634393284163722 .773010453362674 0
  outer loop
    vertex -14.1547776687248 38.5152631803688 57
    vertex -14.3934477320877 38.7111346393765 57.1
    vertex -14.1547776687248 38.5152631803688 57.1
  endloop
endfacet
facet normal .471396736826148 .881921264348275 0
  outer loop
    vertex -14.3934477320877 38.7111346393765 57
    vertex -14.6657444431185 38.8566802637053 57.1
    vertex -14.3934477320877 38.7111346393765 57.1
  endloop
endfacet
facet normal .290284677254355 .956940335732242 0
  outer loop
    vertex -14.6657444431185 38.8566802637053 57
    vertex -14.9612035919182 38.9463068166351 57.1
    vertex -14.6657444431185 38.8566802637053 57.1
  endloop
endfacet
facet normal 9.80171403295277E-02 .9951847266722 0
  outer loop
    vertex -14.9612035919182 38.9463068166351 57
    vertex -15.2684708490936 38.97657 57.1
    vertex -14.9612035919182 38.9463068166351 57.1
  endloop
endfacet
facet normal -9.80171403295277E-02 .9951847266722 0
  outer loop
    vertex -15.2684708490936 38.97657 57
    vertex -15.575738106269 38.9463068166351 57.1
    vertex -15.2684708490936 38.97657 57.1
  endloop
endfacet
facet normal -.290284677254444 .956940335732214 0
  outer loop
    vertex -15.575738106269 38.9463068166351 57
    vertex -15.8711972550686 38.8566802637053 57.1
    vertex -15.575738106269 38.9463068166351 57.1
  endloop
endfacet
facet normal -.471396736826148 .881921264348275 0
  outer loop
    vertex -15.8711972550686 38.8566802637053 57
    vertex -16.1434939660994 38.7111346393765 57.1
    vertex -15.8711972550686 38.8566802637053 57.1
  endloop
endfacet
facet normal -.634393284163566 .773010453362802 0
  outer loop
    vertex -16.1434939660994 38.7111346393765 57
    vertex -16.3821640294624 38.5152631803688 57.1
    vertex -16.1434939660994 38.7111346393765 57.1
  endloop
endfacet
facet normal -.773010453362673 .634393284163723 0
  outer loop
    vertex -16.3821640294624 38.5152631803688 57
    vertex -16.5780354884701 38.2765931170059 57.1
    vertex -16.3821640294624 38.5152631803688 57.1
  endloop
endfacet
facet normal -.881921264348479 .471396736825766 0
  outer loop
    vertex -16.5780354884701 38.2765931170059 57
    vertex -16.7235811127988 38.004296405975 57.1
    vertex -16.5780354884701 38.2765931170059 57.1
  endloop
endfacet
facet normal -.956940335732125 .290284677254737 0
  outer loop
    vertex -16.7235811127988 38.004296405975 57
    vertex -16.8132076657287 37.7088372571754 57.1
    vertex -16.7235811127988 38.004296405975 57.1
  endloop
endfacet
facet normal -.995184726672201 9.80171403295174E-02 0
  outer loop
    vertex -16.8132076657287 37.7088372571754 57
    vertex -16.8434708490936 37.40157 57.1
    vertex -16.8132076657287 37.7088372571754 57.1
  endloop
endfacet
facet normal -.995184726672201 -9.80171403295174E-02 0
  outer loop
    vertex -16.8434708490936 37.40157 57
    vertex -16.8132076657287 37.0943027428246 57.1
    vertex -16.8434708490936 37.40157 57.1
  endloop
endfacet
facet normal -.956940335732125 -.290284677254737 0
  outer loop
    vertex -16.8132076657287 37.0943027428246 57
    vertex -16.7235811127988 36.798843594025 57.1
    vertex -16.8132076657287 37.0943027428246 57.1
  endloop
endfacet
facet normal -.881921264348479 -.471396736825766 0
  outer loop
    vertex -16.7235811127988 36.798843594025 57
    vertex -16.5780354884701 36.5265468829941 57.1
    vertex -16.7235811127988 36.798843594025 57.1
  endloop
endfacet
facet normal -.773010453362673 -.634393284163723 0
  outer loop
    vertex -16.5780354884701 36.5265468829941 57
    vertex -16.3821640294624 36.2878768196312 57.1
    vertex -16.5780354884701 36.5265468829941 57.1
  endloop
endfacet
facet normal -.634393284163553 -.773010453362813 0
  outer loop
    vertex -16.3821640294624 36.2878768196312 57
    vertex -16.1434939660994 36.0920053606235 57.1
    vertex -16.3821640294624 36.2878768196312 57.1
  endloop
endfacet
facet normal -.471396736826166 -.881921264348265 0
  outer loop
    vertex -16.1434939660994 36.0920053606235 57
    vertex -15.8711972550686 35.9464597362947 57.1
    vertex -16.1434939660994 36.0920053606235 57.1
  endloop
endfacet
facet normal -.290284677254444 -.956940335732214 0
  outer loop
    vertex -15.8711972550686 35.9464597362947 57
    vertex -15.575738106269 35.8568331833649 57.1
    vertex -15.8711972550686 35.9464597362947 57.1
  endloop
endfacet
facet normal -9.80171403295277E-02 -.9951847266722 0
  outer loop
    vertex -15.575738106269 35.8568331833649 57
    vertex -15.2684708490936 35.82657 57.1
    vertex -15.575738106269 35.8568331833649 57.1
  endloop
endfacet
facet normal 9.80171403295277E-02 -.9951847266722 0
  outer loop
    vertex -15.2684708490936 35.82657 57
    vertex -14.9612035919182 35.8568331833649 57.1
    vertex -15.2684708490936 35.82657 57.1
  endloop
endfacet
facet normal .290284677254355 -.956940335732242 0
  outer loop
    vertex -14.9612035919182 35.8568331833649 57
    vertex -14.6657444431185 35.9464597362947 57.1
    vertex -14.9612035919182 35.8568331833649 57.1
  endloop
endfacet
facet normal .471396736826166 -.881921264348265 0
  outer loop
    vertex -14.6657444431185 35.9464597362947 57
    vertex -14.3934477320877 36.0920053606235 57.1
    vertex -14.6657444431185 35.9464597362947 57.1
  endloop
endfacet
facet normal .634393284163708 -.773010453362686 0
  outer loop
    vertex -14.3934477320877 36.0920053606235 57
    vertex -14.1547776687248 36.2878768196312 57.1
    vertex -14.3934477320877 36.0920053606235 57.1
  endloop
endfacet
facet normal .773010453362676 -.63439328416372 0
  outer loop
    vertex -14.1547776687248 36.2878768196312 57
    vertex -13.9589062097171 36.5265468829941 57.1
    vertex -14.1547776687248 36.2878768196312 57.1
  endloop
endfacet
facet normal .881921264348348 -.471396736826012 0
  outer loop
    vertex -13.9589062097171 36.5265468829941 57
    vertex -13.8133605853883 36.798843594025 57.1
    vertex -13.9589062097171 36.5265468829941 57.1
  endloop
endfacet
facet normal .956940335732215 -.290284677254442 0
  outer loop
    vertex -13.8133605853883 36.798843594025 57
    vertex -13.7237340324585 37.0943027428246 57.1
    vertex -13.8133605853883 36.798843594025 57.1
  endloop
endfacet
facet normal .995184726672201 -9.80171403295231E-02 0
  outer loop
    vertex -13.7237340324585 37.0943027428246 57
    vertex -13.6934708490936 37.40157 57.1
    vertex -13.7237340324585 37.0943027428246 57.1
  endloop
endfacet
facet normal .995184726672201 9.80171403295231E-02 0
  outer loop
    vertex -13.7237340324585 37.7088372571754 57
    vertex -13.7237340324585 37.7088372571754 57.1
    vertex -13.6934708490936 37.40157 57
  endloop
endfacet
facet normal .956940335732215 .290284677254442 0
  outer loop
    vertex -13.8133605853883 38.004296405975 57
    vertex -13.8133605853883 38.004296405975 57.1
    vertex -13.7237340324585 37.7088372571754 57
  endloop
endfacet
facet normal .881921264348348 .471396736826012 0
  outer loop
    vertex -13.9589062097171 38.2765931170059 57
    vertex -13.9589062097171 38.2765931170059 57.1
    vertex -13.8133605853883 38.004296405975 57
  endloop
endfacet
facet normal .773010453362676 .63439328416372 0
  outer loop
    vertex -14.1547776687248 38.5152631803688 57
    vertex -14.1547776687248 38.5152631803688 57.1
    vertex -13.9589062097171 38.2765931170059 57
  endloop
endfacet
facet normal .634393284163722 .773010453362674 0
  outer loop
    vertex -14.3934477320877 38.7111346393765 57
    vertex -14.3934477320877 38.7111346393765 57.1
    vertex -14.1547776687248 38.5152631803688 57
  endloop
endfacet
facet normal .471396736826148 .881921264348275 0
  outer loop
    vertex -14.6657444431185 38.8566802637053 57
    vertex -14.6657444431185 38.8566802637053 57.1
    vertex -14.3934477320877 38.7111346393765 57
  endloop
endfacet
facet normal .290284677254355 .956940335732242 0
  outer loop
    vertex -14.9612035919182 38.9463068166351 57
    vertex -14.9612035919182 38.9463068166351 57.1
    vertex -14.6657444431185 38.8566802637053 57
  endloop
endfacet
facet normal 9.80171403295277E-02 .9951847266722 0
  outer loop
    vertex -15.2684708490936 38.97657 57
    vertex -15.2684708490936 38.97657 57.1
    vertex -14.9612035919182 38.9463068166351 57
  endloop
endfacet
facet normal -9.80171403295277E-02 .9951847266722 0
  outer loop
    vertex -15.575738106269 38.9463068166351 57
    vertex -15.575738106269 38.9463068166351 57.1
    vertex -15.2684708490936 38.97657 57
  endloop
endfacet
facet normal -.290284677254444 .956940335732214 0
  outer loop
    vertex -15.8711972550686 38.8566802637053 57
    vertex -15.8711972550686 38.8566802637053 57.1
    vertex -15.575738106269 38.9463068166351 57
  endloop
endfacet
facet normal -.471396736826148 .881921264348275 0
  outer loop
    vertex -16.1434939660994 38.7111346393765 57
    vertex -16.1434939660994 38.7111346393765 57.1
    vertex -15.8711972550686 38.8566802637053 57
  endloop
endfacet
facet normal -.634393284163566 .773010453362802 0
  outer loop
    vertex -16.3821640294624 38.5152631803688 57
    vertex -16.3821640294624 38.5152631803688 57.1
    vertex -16.1434939660994 38.7111346393765 57
  endloop
endfacet
facet normal -.773010453362673 .634393284163723 0
  outer loop
    vertex -16.5780354884701 38.2765931170059 57
    vertex -16.5780354884701 38.2765931170059 57.1
    vertex -16.3821640294624 38.5152631803688 57
  endloop
endfacet
facet normal -.881921264348479 .471396736825766 0
  outer loop
    vertex -16.7235811127988 38.004296405975 57
    vertex -16.7235811127988 38.004296405975 57.1
    vertex -16.5780354884701 38.2765931170059 57
  endloop
endfacet
facet normal -.956940335732125 .290284677254737 0
  outer loop
    vertex -16.8132076657287 37.7088372571754 57
    vertex -16.8132076657287 37.7088372571754 57.1
    vertex -16.7235811127988 38.004296405975 57
  endloop
endfacet
facet normal -.995184726672201 9.80171403295174E-02 0
  outer loop
    vertex -16.8434708490936 37.40157 57
    vertex -16.8434708490936 37.40157 57.1
    vertex -16.8132076657287 37.7088372571754 57
  endloop
endfacet
facet normal -.995184726672201 -9.80171403295174E-02 0
  outer loop
    vertex -16.8132076657287 37.0943027428246 57
    vertex -16.8132076657287 37.0943027428246 57.1
    vertex -16.8434708490936 37.40157 57
  endloop
endfacet
facet normal -.956940335732125 -.290284677254737 0
  outer loop
    vertex -16.7235811127988 36.798843594025 57
    vertex -16.7235811127988 36.798843594025 57.1
    vertex -16.8132076657287 37.0943027428246 57
  endloop
endfacet
facet normal -.881921264348479 -.471396736825766 0
  outer loop
    vertex -16.5780354884701 36.5265468829941 57
    vertex -16.5780354884701 36.5265468829941 57.1
    vertex -16.7235811127988 36.798843594025 57
  endloop
endfacet
facet normal -.773010453362673 -.634393284163723 0
  outer loop
    vertex -16.3821640294624 36.2878768196312 57
    vertex -16.3821640294624 36.2878768196312 57.1
    vertex -16.5780354884701 36.5265468829941 57
  endloop
endfacet
facet normal -.634393284163553 -.773010453362813 0
  outer loop
    vertex -16.1434939660994 36.0920053606235 57
    vertex -16.1434939660994 36.0920053606235 57.1
    vertex -16.3821640294624 36.2878768196312 57
  endloop
endfacet
facet normal -.471396736826166 -.881921264348265 0
  outer loop
    vertex -15.8711972550686 35.9464597362947 57
    vertex -15.8711972550686 35.9464597362947 57.1
    vertex -16.1434939660994 36.0920053606235 57
  endloop
endfacet
facet normal -.290284677254444 -.956940335732214 0
  outer loop
    vertex -15.575738106269 35.8568331833649 57
    vertex -15.575738106269 35.8568331833649 57.1
    vertex -15.8711972550686 35.9464597362947 57
  endloop
endfacet
facet normal -9.80171403295277E-02 -.9951847266722 0
  outer loop
    vertex -15.2684708490936 35.82657 57
    vertex -15.2684708490936 35.82657 57.1
    vertex -15.575738106269 35.8568331833649 57
  endloop
endfacet
facet normal 9.80171403295277E-02 -.9951847266722 0
  outer loop
    vertex -14.9612035919182 35.8568331833649 57
    vertex -14.9612035919182 35.8568331833649 57.1
    vertex -15.2684708490936 35.82657 57
  endloop
endfacet
facet normal .290284677254355 -.956940335732242 0
  outer loop
    vertex -14.6657444431185 35.9464597362947 57
    vertex -14.6657444431185 35.9464597362947 57.1
    vertex -14.9612035919182 35.8568331833649 57
  endloop
endfacet
facet normal .471396736826166 -.881921264348265 0
  outer loop
    vertex -14.3934477320877 36.0920053606235 57
    vertex -14.3934477320877 36.0920053606235 57.1
    vertex -14.6657444431185 35.9464597362947 57
  endloop
endfacet
facet normal .634393284163708 -.773010453362686 0
  outer loop
    vertex -14.1547776687248 36.2878768196312 57
    vertex -14.1547776687248 36.2878768196312 57.1
    vertex -14.3934477320877 36.0920053606235 57
  endloop
endfacet
facet normal .773010453362676 -.63439328416372 0
  outer loop
    vertex -13.9589062097171 36.5265468829941 57
    vertex -13.9589062097171 36.5265468829941 57.1
    vertex -14.1547776687248 36.2878768196312 57
  endloop
endfacet
facet normal .881921264348348 -.471396736826012 0
  outer loop
    vertex -13.8133605853883 36.798843594025 57
    vertex -13.8133605853883 36.798843594025 57.1
    vertex -13.9589062097171 36.5265468829941 57
  endloop
endfacet
facet normal .956940335732215 -.290284677254442 0
  outer loop
    vertex -13.7237340324585 37.0943027428246 57
    vertex -13.7237340324585 37.0943027428246 57.1
    vertex -13.8133605853883 36.798843594025 57
  endloop
endfacet
facet normal .995184726672201 -9.80171403295231E-02 0
  outer loop
    vertex -13.6934708490936 37.40157 57
    vertex -13.6934708490936 37.40157 57.1
    vertex -13.7237340324585 37.0943027428246 57
  endloop
endfacet
facet normal 0 0 1
  outer loop
    vertex 21.9910891108343 55.0389957881777 57
    vertex 12 55.0389957881777 57
    vertex 21.9910891108343 -55.0389957881777 57
  endloop
endfacet
facet normal 0 0 1
  outer loop
    vertex 12 55.0389957881777 57
    vertex 11.7694233648388 52.6979119239842 57
    vertex 21.9910891108343 -55.0389957881777 57
  endloop
endfacet
facet normal 0 0 1
  outer loop
    vertex 11.7694233648388 52.6979119239842 57
    vertex 11.0865543901354 50.4467945997966 57
    vertex 21.9910891108343 -55.0389957881777 57
  endloop
endfacet
facet normal 0 0 1
  outer loop
    vertex 11.0865543901354 50.4467945997966 57
    vertex 9.97763534763054 48.3721529919425 57
    vertex 21.9910891108343 -55.0389957881777 57
  endloop
endfacet
facet normal 0 0 1
  outer loop
    vertex 9.97763534763054 48.3721529919425 57
    vertex 8.48528137423857 46.5537144139391 57
    vertex 21.9910891108343 -55.0389957881777 57
  endloop
endfacet
facet normal 0 0 1
  outer loop
    vertex 8.48528137423857 46.5537144139391 57
    vertex 6.66684279623523 45.0613604405471 57
    vertex 21.9910891108343 -55.0389957881777 57
  endloop
endfacet
facet normal 0 0 1
  outer loop
    vertex 6.66684279623523 45.0613604405471 57
    vertex 4.59220118838108 43.9524413980423 57
    vertex 21.9910891108343 -55.0389957881777 57
  endloop
endfacet
facet normal 0 0 1
  outer loop
    vertex 4.59220118838108 43.9524413980423 57
    vertex 2.34108386419354 43.2695724233389 57
    vertex 21.9910891108343 -55.0389957881777 57
  endloop
endfacet
facet normal 0 0 1
  outer loop
    vertex 2.34108386419354 43.2695724233389 57
    vertex 7.34788079488412E-16 43.0389957881777 57
    vertex 21.9910891108343 -55.0389957881777 57
  endloop
endfacet
facet normal 0 0 1
  outer loop
    vertex 7.34788079488412E-16 43.0389957881777 57
    vertex -21.9910891108343 -55.0389957881777 57
    vertex 21.9910891108343 -55.0389957881777 57
  endloop
endfacet
facet normal 0 0 1
  outer loop
    vertex 7.34788079488412E-16 43.0389957881777 57
    vertex -2.34108386419354 43.2695724233389 57
    vertex -21.9910891108343 -55.0389957881777 57
  endloop
endfacet
facet normal 0 0 1
  outer loop
    vertex -2.34108386419354 43.2695724233389 57
    vertex -4.59220118838108 43.9524413980423 57
    vertex -21.9910891108343 -55.0389957881777 57
  endloop
endfacet
facet normal 0 0 1
  outer loop
    vertex -4.59220118838108 43.9524413980423 57
    vertex -6.66684279623523 45.0613604405471 57
    vertex -21.9910891108343 -55.0389957881777 57
  endloop
endfacet
facet normal 0 0 1
  outer loop
    vertex -6.66684279623523 45.0613604405471 57
    vertex -8.48528137423857 46.5537144139391 57
    vertex -21.9910891108343 -55.0389957881777 57
  endloop
endfacet
facet normal 0 0 1
  outer loop
    vertex -8.48528137423857 46.5537144139391 57
    vertex -9.97763534763054 48.3721529919425 57
    vertex -21.9910891108343 -55.0389957881777 57
  endloop
endfacet
facet normal 0 0 1
  outer loop
    vertex -9.97763534763054 48.3721529919425 57
    vertex -11.0865543901354 50.4467945997966 57
    vertex -21.9910891108343 -55.0389957881777 57
  endloop
endfacet
facet normal 0 0 1
  outer loop
    vertex -11.0865543901354 50.4467945997966 57
    vertex -11.7694233648388 52.6979119239842 57
    vertex -21.9910891108343 -55.0389957881777 57
  endloop
endfacet
facet normal 0 0 1
  outer loop
    vertex -11.7694233648388 52.6979119239842 57
    vertex -12 55.0389957881777 57
    vertex -21.9910891108343 -55.0389957881777 57
  endloop
endfacet
facet normal 0 0 1
  outer loop
    vertex -21.9910891108343 55.0389957881777 57
    vertex -21.9910891108343 -55.0389957881777 57
    vertex -12 55.0389957881777 57
  endloop
endfacet
facet normal 0 0 -1
  outer loop
    vertex -29.5389957881777 -55.0389957881777 0
    vertex 29.5389957881777 55.0389957881777 0
    vertex 29.5389957881777 -55.0389957881777 0
  endloop
endfacet
facet normal 0 0 -1
  outer loop
    vertex 29.5389957881777 55.0389957881777 0
    vertex -29.5389957881777 -55.0389957881777 0
    vertex -29.5389957881777 55.0389957881777 0
  endloop
endfacet
facet normal 1 0 0
  outer loop
    vertex -12 55.0389957881777 57
    vertex -12 55.0389957881777 51.3
    vertex -12 55.5376811702755 51.3
  endloop
endfacet
facet normal .995184726672198 9.80171403295474E-02 0
  outer loop
    vertex -11.7694233648388 52.6979119239842 57
    vertex -11.7694233648388 52.6979119239842 51.3
    vertex -12 55.0389957881777 51.3
  endloop
endfacet
facet normal .956940335732202 .290284677254485 0
  outer loop
    vertex -11.0865543901354 50.4467945997966 57
    vertex -11.0865543901354 50.4467945997966 51.3
    vertex -11.7694233648388 52.6979119239842 51.3
  endloop
endfacet
facet normal .881921264348357 .471396736825994 0
  outer loop
    vertex -9.97763534763054 48.3721529919425 57
    vertex -9.97763534763054 48.3721529919425 51.3
    vertex -11.0865543901354 50.4467945997966 51.3
  endloop
endfacet
facet normal .773010453362747 .634393284163633 0
  outer loop
    vertex -8.48528137423857 46.5537144139391 57
    vertex -8.48528137423857 46.5537144139391 51.3
    vertex -9.97763534763054 48.3721529919425 51.3
  endloop
endfacet
facet normal .634393284163653 .773010453362731 0
  outer loop
    vertex -6.66684279623523 45.0613604405471 57
    vertex -6.66684279623523 45.0613604405471 51.3
    vertex -8.48528137423857 46.5537144139391 51.3
  endloop
endfacet
facet normal .471396736825963 .881921264348373 0
  outer loop
    vertex -4.59220118838108 43.9524413980423 57
    vertex -4.59220118838108 43.9524413980423 51.3
    vertex -6.66684279623523 45.0613604405471 51.3
  endloop
endfacet
facet normal .290284677254493 .9569403357322 0
  outer loop
    vertex -2.34108386419354 43.2695724233389 57
    vertex -2.34108386419354 43.2695724233389 51.3
    vertex -4.59220118838108 43.9524413980423 51.3
  endloop
endfacet
facet normal 9.80171403295457E-02 .995184726672198 0
  outer loop
    vertex 7.34788079488412E-16 43.0389957881777 57
    vertex 7.34788079488412E-16 43.0389957881777 51.3
    vertex -2.34108386419354 43.2695724233389 51.3
  endloop
endfacet
facet normal -9.80171403295457E-02 .995184726672198 0
  outer loop
    vertex 2.34108386419354 43.2695724233389 57
    vertex 2.34108386419354 43.2695724233389 51.3
    vertex 7.34788079488412E-16 43.0389957881777 51.3
  endloop
endfacet
facet normal -.290284677254493 .9569403357322 0
  outer loop
    vertex 4.59220118838108 43.9524413980423 57
    vertex 4.59220118838108 43.9524413980423 51.3
    vertex 2.34108386419354 43.2695724233389 51.3
  endloop
endfacet
facet normal -.471396736825963 .881921264348373 0
  outer loop
    vertex 6.66684279623523 45.0613604405471 57
    vertex 6.66684279623523 45.0613604405471 51.3
    vertex 4.59220118838108 43.9524413980423 51.3
  endloop
endfacet
facet normal -.634393284163653 .773010453362731 0
  outer loop
    vertex 8.48528137423857 46.5537144139391 57
    vertex 8.48528137423857 46.5537144139391 51.3
    vertex 6.66684279623523 45.0613604405471 51.3
  endloop
endfacet
facet normal -.773010453362747 .634393284163633 0
  outer loop
    vertex 9.97763534763054 48.3721529919425 57
    vertex 9.97763534763054 48.3721529919425 51.3
    vertex 8.48528137423857 46.5537144139391 51.3
  endloop
endfacet
facet normal -.881921264348357 .471396736825994 0
  outer loop
    vertex 11.0865543901354 50.4467945997966 57
    vertex 11.0865543901354 50.4467945997966 51.3
    vertex 9.97763534763054 48.3721529919425 51.3
  endloop
endfacet
facet normal -.956940335732202 .290284677254485 0
  outer loop
    vertex 11.7694233648388 52.6979119239842 57
    vertex 11.7694233648388 52.6979119239842 51.3
    vertex 11.0865543901354 50.4467945997966 51.3
  endloop
endfacet
facet normal -.995184726672198 9.80171403295474E-02 0
  outer loop
    vertex 12 55.0389957881777 57
    vertex 12 55.0389957881777 51.3
    vertex 11.7694233648388 52.6979119239842 51.3
  endloop
endfacet
facet normal .995184726672198 9.80171403295474E-02 0
  outer loop
    vertex -11.7694233648388 52.6979119239842 57
    vertex -12 55.0389957881777 51.3
    vertex -12 55.0389957881777 57
  endloop
endfacet
facet normal .956940335732202 .290284677254485 0
  outer loop
    vertex -11.0865543901354 50.4467945997966 57
    vertex -11.7694233648388 52.6979119239842 51.3
    vertex -11.7694233648388 52.6979119239842 57
  endloop
endfacet
facet normal .881921264348357 .471396736825994 0
  outer loop
    vertex -9.97763534763054 48.3721529919425 57
    vertex -11.0865543901354 50.4467945997966 51.3
    vertex -11.0865543901354 50.4467945997966 57
  endloop
endfacet
facet normal .773010453362747 .634393284163633 0
  outer loop
    vertex -8.48528137423857 46.5537144139391 57
    vertex -9.97763534763054 48.3721529919425 51.3
    vertex -9.97763534763054 48.3721529919425 57
  endloop
endfacet
facet normal .634393284163653 .773010453362731 0
  outer loop
    vertex -6.66684279623523 45.0613604405471 57
    vertex -8.48528137423857 46.5537144139391 51.3
    vertex -8.48528137423857 46.5537144139391 57
  endloop
endfacet
facet normal .471396736825963 .881921264348373 0
  outer loop
    vertex -4.59220118838108 43.9524413980423 57
    vertex -6.66684279623523 45.0613604405471 51.3
    vertex -6.66684279623523 45.0613604405471 57
  endloop
endfacet
facet normal .290284677254493 .9569403357322 0
  outer loop
    vertex -2.34108386419354 43.2695724233389 57
    vertex -4.59220118838108 43.9524413980423 51.3
    vertex -4.59220118838108 43.9524413980423 57
  endloop
endfacet
facet normal 9.80171403295457E-02 .995184726672198 0
  outer loop
    vertex 7.34788079488412E-16 43.0389957881777 57
    vertex -2.34108386419354 43.2695724233389 51.3
    vertex -2.34108386419354 43.2695724233389 57
  endloop
endfacet
facet normal -9.80171403295457E-02 .995184726672198 0
  outer loop
    vertex 2.34108386419354 43.2695724233389 57
    vertex 7.34788079488412E-16 43.0389957881777 51.3
    vertex 7.34788079488412E-16 43.0389957881777 57
  endloop
endfacet
facet normal -.290284677254493 .9569403357322 0
  outer loop
    vertex 4.59220118838108 43.9524413980423 57
    vertex 2.34108386419354 43.2695724233389 51.3
    vertex 2.34108386419354 43.2695724233389 57
  endloop
endfacet
facet normal -.471396736825963 .881921264348373 0
  outer loop
    vertex 6.66684279623523 45.0613604405471 57
    vertex 4.59220118838108 43.9524413980423 51.3
    vertex 4.59220118838108 43.9524413980423 57
  endloop
endfacet
facet normal -.634393284163653 .773010453362731 0
  outer loop
    vertex 8.48528137423857 46.5537144139391 57
    vertex 6.66684279623523 45.0613604405471 51.3
    vertex 6.66684279623523 45.0613604405471 57
  endloop
endfacet
facet normal -.773010453362747 .634393284163633 0
  outer loop
    vertex 9.97763534763054 48.3721529919425 57
    vertex 8.48528137423857 46.5537144139391 51.3
    vertex 8.48528137423857 46.5537144139391 57
  endloop
endfacet
facet normal -.881921264348357 .471396736825994 0
  outer loop
    vertex 11.0865543901354 50.4467945997966 57
    vertex 9.97763534763054 48.3721529919425 51.3
    vertex 9.97763534763054 48.3721529919425 57
  endloop
endfacet
facet normal -.956940335732202 .290284677254485 0
  outer loop
    vertex 11.7694233648388 52.6979119239842 57
    vertex 11.0865543901354 50.4467945997966 51.3
    vertex 11.0865543901354 50.4467945997966 57
  endloop
endfacet
facet normal -.995184726672198 9.80171403295474E-02 0
  outer loop
    vertex 12 55.0389957881777 57
    vertex 11.7694233648388 52.6979119239842 51.3
    vertex 11.7694233648388 52.6979119239842 57
  endloop
endfacet
facet normal -1 0 0
  outer loop
    vertex 12 55.0389957881777 57
    vertex 12 55.5376811702755 51.3
    vertex 12 55.0389957881777 51.3
  endloop
endfacet
facet normal 0 0 1
  outer loop
    vertex -12 55.5376811702755 51.3
    vertex -12 55.0389957881777 51.3
    vertex 0 55.5376811702755 51.3
  endloop
endfacet
facet normal 0 0 1
  outer loop
    vertex -12 55.0389957881777 51.3
    vertex -11.7694233648388 52.6979119239842 51.3
    vertex 0 55.5376811702755 51.3
  endloop
endfacet
facet normal 0 0 1
  outer loop
    vertex -11.7694233648388 52.6979119239842 51.3
    vertex -11.0865543901354 50.4467945997966 51.3
    vertex 0 55.5376811702755 51.3
  endloop
endfacet
facet normal 0 0 1
  outer loop
    vertex -11.0865543901354 50.4467945997966 51.3
    vertex -9.97763534763054 48.3721529919425 51.3
    vertex 0 55.5376811702755 51.3
  endloop
endfacet
facet normal 0 0 1
  outer loop
    vertex -9.97763534763054 48.3721529919425 51.3
    vertex -8.48528137423857 46.5537144139391 51.3
    vertex 0 55.5376811702755 51.3
  endloop
endfacet
facet normal 0 0 1
  outer loop
    vertex -8.48528137423857 46.5537144139391 51.3
    vertex -6.66684279623523 45.0613604405471 51.3
    vertex 0 55.5376811702755 51.3
  endloop
endfacet
facet normal 0 0 1
  outer loop
    vertex -6.66684279623523 45.0613604405471 51.3
    vertex -4.59220118838108 43.9524413980423 51.3
    vertex 0 55.5376811702755 51.3
  endloop
endfacet
facet normal 0 0 1
  outer loop
    vertex -4.59220118838108 43.9524413980423 51.3
    vertex -2.34108386419354 43.2695724233389 51.3
    vertex 0 55.5376811702755 51.3
  endloop
endfacet
facet normal 0 0 1
  outer loop
    vertex -2.34108386419354 43.2695724233389 51.3
    vertex 7.34788079488412E-16 43.0389957881777 51.3
    vertex 0 55.5376811702755 51.3
  endloop
endfacet
facet normal 0 0 1
  outer loop
    vertex 7.34788079488412E-16 43.0389957881777 51.3
    vertex 2.34108386419354 43.2695724233389 51.3
    vertex 0 55.5376811702755 51.3
  endloop
endfacet
facet normal 0 0 1
  outer loop
    vertex 2.34108386419354 43.2695724233389 51.3
    vertex 4.59220118838108 43.9524413980423 51.3
    vertex 0 55.5376811702755 51.3
  endloop
endfacet
facet normal 0 0 1
  outer loop
    vertex 4.59220118838108 43.9524413980423 51.3
    vertex 6.66684279623523 45.0613604405471 51.3
    vertex 0 55.5376811702755 51.3
  endloop
endfacet
facet normal 0 0 1
  outer loop
    vertex 6.66684279623523 45.0613604405471 51.3
    vertex 8.48528137423857 46.5537144139391 51.3
    vertex 0 55.5376811702755 51.3
  endloop
endfacet
facet normal 0 0 1
  outer loop
    vertex 8.48528137423857 46.5537144139391 51.3
    vertex 9.97763534763054 48.3721529919425 51.3
    vertex 0 55.5376811702755 51.3
  endloop
endfacet
facet normal 0 0 1
  outer loop
    vertex 9.97763534763054 48.3721529919425 51.3
    vertex 11.0865543901354 50.4467945997966 51.3
    vertex 0 55.5376811702755 51.3
  endloop
endfacet
facet normal 0 0 1
  outer loop
    vertex 11.0865543901354 50.4467945997966 51.3
    vertex 11.7694233648388 52.6979119239842 51.3
    vertex 0 55.5376811702755 51.3
  endloop
endfacet
facet normal 0 0 1
  outer loop
    vertex 11.7694233648388 52.6979119239842 51.3
    vertex 12 55.0389957881777 51.3
    vertex 0 55.5376811702755 51.3
  endloop
endfacet
facet normal 0 0 1
  outer loop
    vertex 12 55.0389957881777 51.3
    vertex 12 55.5376811702755 51.3
    vertex 0 55.5376811702755 51.3
  endloop
endfacet
facet normal .921118787038767 0 .389281620635024
  outer loop
    vertex 21.9910891108343 55.0389957881777 57
    vertex 31.5 -57 34.5
    vertex 31.5 57 34.5
  endloop
endfacet
facet normal 0 -.996223440096615 8.68265938642472E-02
  outer loop
    vertex 21.9910891108343 -55.0389957881777 57
    vertex -31.5 -57 34.5
    vertex 31.5 -57 34.5
  endloop
endfacet
facet normal -.921118787038767 0 .389281620635024
  outer loop
    vertex -21.9910891108343 -55.0389957881777 57
    vertex -31.5 57 34.5
    vertex -31.5 -57 34.5
  endloop
endfacet
facet normal 1 0 0
  outer loop
    vertex 31.5 57 34.5
    vertex 31.5 -57 22.5
    vertex 31.5 57 22.5
  endloop
endfacet
facet normal 0 -1 0
  outer loop
    vertex 31.5 -57 34.5
    vertex -31.5 -57 22.5
    vertex 31.5 -57 22.5
  endloop
endfacet
facet normal -1 0 0
  outer loop
    vertex -31.5 -57 34.5
    vertex -31.5 57 22.5
    vertex -31.5 -57 22.5
  endloop
endfacet
facet normal .996223440096615 0 -8.68265938642472E-02
  outer loop
    vertex 31.5 57 22.5
    vertex 29.5389957881777 -55.0389957881777 0
    vertex 29.5389957881777 55.0389957881777 0
  endloop
endfacet
facet normal 0 -.996223440096615 -8.68265938642472E-02
  outer loop
    vertex 31.5 -57 22.5
    vertex -29.5389957881777 -55.0389957881777 0
    vertex 29.5389957881777 -55.0389957881777 0
  endloop
endfacet
facet normal -.996223440096615 0 -8.68265938642472E-02
  outer loop
    vertex -31.5 -57 22.5
    vertex -29.5389957881777 55.0389957881777 0
    vertex -29.5389957881777 -55.0389957881777 0
  endloop
endfacet
facet normal .921118787038767 0 .389281620635024
  outer loop
    vertex 21.9910891108343 -55.0389957881777 57
    vertex 31.5 -57 34.5
    vertex 21.9910891108343 55.0389957881777 57
  endloop
endfacet
facet normal 0 -.996223440096615 8.68265938642472E-02
  outer loop
    vertex -21.9910891108343 -55.0389957881777 57
    vertex -31.5 -57 34.5
    vertex 21.9910891108343 -55.0389957881777 57
  endloop
endfacet
facet normal -.921118787038767 0 .389281620635024
  outer loop
    vertex -21.9910891108343 55.0389957881777 57
    vertex -31.5 57 34.5
    vertex -21.9910891108343 -55.0389957881777 57
  endloop
endfacet
facet normal 1 0 0
  outer loop
    vertex 31.5 -57 34.5
    vertex 31.5 -57 22.5
    vertex 31.5 57 34.5
  endloop
endfacet
facet normal 0 -1 0
  outer loop
    vertex -31.5 -57 34.5
    vertex -31.5 -57 22.5
    vertex 31.5 -57 34.5
  endloop
endfacet
facet normal -1 0 0
  outer loop
    vertex -31.5 57 34.5
    vertex -31.5 57 22.5
    vertex -31.5 -57 34.5
  endloop
endfacet
facet normal .996223440096614 0 -8.68265938642472E-02
  outer loop
    vertex 31.5 -57 22.5
    vertex 29.5389957881777 -55.0389957881777 0
    vertex 31.5 57 22.5
  endloop
endfacet
facet normal 0 -.996223440096615 -8.68265938642472E-02
  outer loop
    vertex -31.5 -57 22.5
    vertex -29.5389957881777 -55.0389957881777 0
    vertex 31.5 -57 22.5
  endloop
endfacet
facet normal -.996223440096614 0 -8.68265938642472E-02
  outer loop
    vertex -31.5 57 22.5
    vertex -29.5389957881777 55.0389957881777 0
    vertex -31.5 -57 22.5
  endloop
endfacet
facet normal 0 .996223440096615 -8.68265938642472E-02
  outer loop
    vertex 31.5 57 22.5
    vertex 29.5389957881777 55.0389957881777 0
    vertex -31.5 57 22.5
  endloop
endfacet
facet normal 0 .996223440096615 -8.68265938642472E-02
  outer loop
    vertex 29.5389957881777 55.0389957881777 0
    vertex -29.5389957881777 55.0389957881777 0
    vertex -31.5 57 22.5
  endloop
endfacet
facet normal 0 1 0
  outer loop
    vertex 31.5 57 34.5
    vertex 31.5 57 22.5
    vertex -31.5 57 34.5
  endloop
endfacet
facet normal 0 1 0
  outer loop
    vertex -31.5 57 34.5
    vertex 31.5 57 22.5
    vertex -31.5 57 22.5
  endloop
endfacet
facet normal 0 .996223440096615 8.68265938642472E-02
  outer loop
    vertex 31.5 57 34.5
    vertex 12 55.0389957881777 57
    vertex 21.9910891108343 55.0389957881777 57
  endloop
endfacet
facet normal 3.82677565286086E-04 .996194625149311 8.71557363660273E-02
  outer loop
    vertex 12 55.0389957881777 57
    vertex 31.5 57 34.5
    vertex 12 55.5376811702755 51.3
  endloop
endfacet
facet normal 0 .996233167514979 8.67149118841214E-02
  outer loop
    vertex 31.5 57 34.5
    vertex -12 55.5376811702755 51.3
    vertex 12 55.5376811702755 51.3
  endloop
endfacet
facet normal 0 .996233167514979 8.67149118841214E-02
  outer loop
    vertex 31.5 57 34.5
    vertex -31.5 57 34.5
    vertex -12 55.5376811702755 51.3
  endloop
endfacet
facet normal -1.52457196647763E-04 .996217853252771 8.68905381341595E-02
  outer loop
    vertex -21.9910891108343 55.0389957881777 57
    vertex -12 55.5376811702755 51.3
    vertex -31.5 57 34.5
  endloop
endfacet
facet normal 0 .996194698091745 8.71557427476634E-02
  outer loop
    vertex -21.9910891108343 55.0389957881777 57
    vertex -12 55.0389957881777 57
    vertex -12 55.5376811702755 51.3
  endloop
endfacet
facet normal -1 0 0
  outer loop
    vertex -55 47.40157 10
    vertex -55 47.40157 0
    vertex -55 27.40157 0
  endloop
endfacet
facet normal -1 0 0
  outer loop
    vertex -55 47.40157 10
    vertex -55 27.40157 0
    vertex -55 27.40157 10
  endloop
endfacet
facet normal 1 0 0
  outer loop
    vertex -31.5 27.40157 33.5
    vertex -31.5 27.40157 23.5
    vertex -31.5 47.40157 23.5
  endloop
endfacet
facet normal 1 0 0
  outer loop
    vertex -31.5 27.40157 33.5
    vertex -31.5 47.40157 23.5
    vertex -31.5 47.40157 33.5
  endloop
endfacet
facet normal 0 1 0
  outer loop
    vertex -31.5 47.40157 23.5
    vertex -34.3371390436737 47.40157 23.5
    vertex -39.3371390436737 47.40157 33.5
  endloop
endfacet
facet normal 0 1 0
  outer loop
    vertex -34.3371390436737 47.40157 23.5
    vertex -45.8875 47.40157 0
    vertex -50.8875 47.40157 10
  endloop
endfacet
facet normal 0 1 0
  outer loop
    vertex -45.8875 47.40157 0
    vertex -55 47.40157 0
    vertex -55 47.40157 10
  endloop
endfacet
facet normal 0 1 0
  outer loop
    vertex -31.5 47.40157 23.5
    vertex -39.3371390436737 47.40157 33.5
    vertex -31.5 47.40157 33.5
  endloop
endfacet
facet normal 0 1 0
  outer loop
    vertex -34.3371390436737 47.40157 23.5
    vertex -50.8875 47.40157 10
    vertex -39.3371390436737 47.40157 33.5
  endloop
endfacet
facet normal 0 1 0
  outer loop
    vertex -45.8875 47.40157 0
    vertex -55 47.40157 10
    vertex -50.8875 47.40157 10
  endloop
endfacet
facet normal 0 -1 0
  outer loop
    vertex -31.5 27.40157 23.5
    vertex -39.3371390436737 27.40157 33.5
    vertex -34.3371390436737 27.40157 23.5
  endloop
endfacet
facet normal 0 -1 0
  outer loop
    vertex -34.3371390436737 27.40157 23.5
    vertex -50.8875 27.40157 10
    vertex -45.8875 27.40157 0
  endloop
endfacet
facet normal 0 -1 0
  outer loop
    vertex -45.8875 27.40157 0
    vertex -55 27.40157 10
    vertex -55 27.40157 0
  endloop
endfacet
facet normal 0 -1 0
  outer loop
    vertex -31.5 27.40157 23.5
    vertex -31.5 27.40157 33.5
    vertex -39.3371390436737 27.40157 33.5
  endloop
endfacet
facet normal 0 -1 0
  outer loop
    vertex -34.3371390436737 27.40157 23.5
    vertex -39.3371390436737 27.40157 33.5
    vertex -50.8875 27.40157 10
  endloop
endfacet
facet normal 0 -1 0
  outer loop
    vertex -45.8875 27.40157 0
    vertex -50.8875 27.40157 10
    vertex -55 27.40157 10
  endloop
endfacet
facet normal 0 0 1
  outer loop
    vertex -31.5 47.40157 33.5
    vertex -39.3371390436737 47.40157 33.5
    vertex -39.3371390436737 27.40157 33.5
  endloop
endfacet
facet normal -.897456050051125 0 .441103885979972
  outer loop
    vertex -39.3371390436737 47.40157 33.5
    vertex -50.8875 47.40157 10
    vertex -50.8875 27.40157 10
  endloop
endfacet
facet normal 0 0 1
  outer loop
    vertex -50.8875 47.40157 10
    vertex -55 47.40157 10
    vertex -55 27.40157 10
  endloop
endfacet
facet normal 0 0 1
  outer loop
    vertex -31.5 47.40157 33.5
    vertex -39.3371390436737 27.40157 33.5
    vertex -31.5 27.40157 33.5
  endloop
endfacet
facet normal -.897456050051125 0 .441103885979972
  outer loop
    vertex -39.3371390436737 47.40157 33.5
    vertex -50.8875 27.40157 10
    vertex -39.3371390436737 27.40157 33.5
  endloop
endfacet
facet normal 0 0 1
  outer loop
    vertex -50.8875 47.40157 10
    vertex -55 27.40157 10
    vertex -50.8875 27.40157 10
  endloop
endfacet
facet normal 0 0 -1
  outer loop
    vertex -31.5 47.40157 23.5
    vertex -34.3371390436737 27.40157 23.5
    vertex -34.3371390436737 47.40157 23.5
  endloop
endfacet
facet normal .897456050051125 0 -.441103885979972
  outer loop
    vertex -34.3371390436737 47.40157 23.5
    vertex -45.8875 27.40157 0
    vertex -45.8875 47.40157 0
  endloop
endfacet
facet normal 0 0 -1
  outer loop
    vertex -45.8875 47.40157 0
    vertex -55 27.40157 0
    vertex -55 47.40157 0
  endloop
endfacet
facet normal 0 0 -1
  outer loop
    vertex -31.5 47.40157 23.5
    vertex -31.5 27.40157 23.5
    vertex -34.3371390436737 27.40157 23.5
  endloop
endfacet
facet normal .897456050051125 0 -.441103885979972
  outer loop
    vertex -34.3371390436737 47.40157 23.5
    vertex -34.3371390436737 27.40157 23.5
    vertex -45.8875 27.40157 0
  endloop
endfacet
facet normal 0 0 -1
  outer loop
    vertex -45.8875 47.40157 0
    vertex -45.8875 27.40157 0
    vertex -55 27.40157 0
  endloop
endfacet
facet normal -1 0 0
  outer loop
    vertex -55 10 10
    vertex -55 10 0
    vertex -55 -10 0
  endloop
endfacet
facet normal -1 0 0
  outer loop
    vertex -55 10 10
    vertex -55 -10 0
    vertex -55 -10 10
  endloop
endfacet
facet normal 1 0 0
  outer loop
    vertex -31.5 -10 33.5
    vertex -31.5 -10 23.5
    vertex -31.5 9.99999999999999 23.5
  endloop
endfacet
facet normal 1 0 0
  outer loop
    vertex -31.5 -10 33.5
    vertex -31.5 9.99999999999999 23.5
    vertex -31.5 9.99999999999999 33.5
  endloop
endfacet
facet normal -3.13054244444099E-15 1 -3.51926374556077E-15
  outer loop
    vertex -31.5 9.99999999999999 23.5
    vertex -34.3371390436737 9.99999999999998 23.5
    vertex -39.3371390436737 10 33.5
  endloop
endfacet
facet normal 8.38610409084562E-16 1 4.19305204542281E-16
  outer loop
    vertex -34.3371390436737 9.99999999999998 23.5
    vertex -45.8875 10 0
    vertex -50.8875 10 10
  endloop
endfacet
facet normal 0 1 0
  outer loop
    vertex -45.8875 10 0
    vertex -55 10 0
    vertex -55 10 10
  endloop
endfacet
facet normal 1.35995303605146E-15 1 0
  outer loop
    vertex -31.5 9.99999999999999 23.5
    vertex -39.3371390436737 10 33.5
    vertex -31.5 9.99999999999999 33.5
  endloop
endfacet
facet normal 1.97073446134872E-15 1 -9.68625292665915E-16
  outer loop
    vertex -34.3371390436737 9.99999999999998 23.5
    vertex -50.8875 10 10
    vertex -39.3371390436737 10 33.5
  endloop
endfacet
facet normal 0 1 0
  outer loop
    vertex -45.8875 10 0
    vertex -55 10 10
    vertex -50.8875 10 10
  endloop
endfacet
facet normal -3.75665093332919E-15 -1 -2.94413957030475E-15
  outer loop
    vertex -31.5 -10 23.5
    vertex -39.3371390436737 -10 33.5
    vertex -34.3371390436737 -9.99999999999999 23.5
  endloop
endfacet
facet normal 4.5742385950067E-16 -1 2.28711929750335E-16
  outer loop
    vertex -34.3371390436737 -9.99999999999999 23.5
    vertex -50.8875 -10 10
    vertex -45.8875 -10 0
  endloop
endfacet
facet normal 0 -1 0
  outer loop
    vertex -45.8875 -10 0
    vertex -55 -10 10
    vertex -55 -10 0
  endloop
endfacet
facet normal 0 -1 0
  outer loop
    vertex -31.5 -10 23.5
    vertex -31.5 -10 33.5
    vertex -39.3371390436737 -10 33.5
  endloop
endfacet
facet normal 1.07494606982657E-15 -1 -5.28341068726863E-16
  outer loop
    vertex -34.3371390436737 -9.99999999999999 23.5
    vertex -39.3371390436737 -10 33.5
    vertex -50.8875 -10 10
  endloop
endfacet
facet normal 0 -1 0
  outer loop
    vertex -45.8875 -10 0
    vertex -50.8875 -10 10
    vertex -55 -10 10
  endloop
endfacet
facet normal 0 0 1
  outer loop
    vertex -31.5 9.99999999999999 33.5
    vertex -39.3371390436737 10 33.5
    vertex -39.3371390436737 -10 33.5
  endloop
endfacet
facet normal -.897456050051125 0 .441103885979972
  outer loop
    vertex -39.3371390436737 10 33.5
    vertex -50.8875 10 10
    vertex -50.8875 -10 10
  endloop
endfacet
facet normal 0 0 1
  outer loop
    vertex -50.8875 10 10
    vertex -55 10 10
    vertex -55 -10 10
  endloop
endfacet
facet normal 0 0 1
  outer loop
    vertex -31.5 9.99999999999999 33.5
    vertex -39.3371390436737 -10 33.5
    vertex -31.5 -10 33.5
  endloop
endfacet
facet normal -.897456050051125 0 .441103885979972
  outer loop
    vertex -39.3371390436737 10 33.5
    vertex -50.8875 -10 10
    vertex -39.3371390436737 -10 33.5
  endloop
endfacet
facet normal 0 0 1
  outer loop
    vertex -50.8875 10 10
    vertex -55 -10 10
    vertex -50.8875 -10 10
  endloop
endfacet
facet normal 0 0 -1
  outer loop
    vertex -31.5 9.99999999999999 23.5
    vertex -34.3371390436737 -9.99999999999999 23.5
    vertex -34.3371390436737 9.99999999999998 23.5
  endloop
endfacet
facet normal .897456050051125 0 -.441103885979972
  outer loop
    vertex -34.3371390436737 9.99999999999998 23.5
    vertex -45.8875 -10 0
    vertex -45.8875 10 0
  endloop
endfacet
facet normal 0 0 -1
  outer loop
    vertex -45.8875 10 0
    vertex -55 -10 0
    vertex -55 10 0
  endloop
endfacet
facet normal 0 0 -1
  outer loop
    vertex -31.5 9.99999999999999 23.5
    vertex -31.5 -10 23.5
    vertex -34.3371390436737 -9.99999999999999 23.5
  endloop
endfacet
facet normal .897456050051125 0 -.441103885979972
  outer loop
    vertex -34.3371390436737 9.99999999999998 23.5
    vertex -34.3371390436737 -9.99999999999999 23.5
    vertex -45.8875 -10 0
  endloop
endfacet
facet normal 0 0 -1
  outer loop
    vertex -45.8875 10 0
    vertex -45.8875 -10 0
    vertex -55 -10 0
  endloop
endfacet
facet normal -1 0 0
  outer loop
    vertex -55 -27.40157 10
    vertex -55 -27.40157 0
    vertex -55 -47.40157 0
  endloop
endfacet
facet normal -1 0 0
  outer loop
    vertex -55 -27.40157 10
    vertex -55 -47.40157 0
    vertex -55 -47.40157 10
  endloop
endfacet
facet normal 1 0 0
  outer loop
    vertex -31.5 -47.40157 33.5
    vertex -31.5 -47.40157 23.5
    vertex -31.5 -27.40157 23.5
  endloop
endfacet
facet normal 1 0 0
  outer loop
    vertex -31.5 -47.40157 33.5
    vertex -31.5 -27.40157 23.5
    vertex -31.5 -27.40157 33.5
  endloop
endfacet
facet normal 0 1 0
  outer loop
    vertex -31.5 -27.40157 23.5
    vertex -34.3371390436737 -27.40157 23.5
    vertex -39.3371390436737 -27.40157 33.5
  endloop
endfacet
facet normal 0 1 0
  outer loop
    vertex -34.3371390436737 -27.40157 23.5
    vertex -45.8875 -27.40157 0
    vertex -50.8875 -27.40157 10
  endloop
endfacet
facet normal 0 1 0
  outer loop
    vertex -45.8875 -27.40157 0
    vertex -55 -27.40157 0
    vertex -55 -27.40157 10
  endloop
endfacet
facet normal 0 1 0
  outer loop
    vertex -31.5 -27.40157 23.5
    vertex -39.3371390436737 -27.40157 33.5
    vertex -31.5 -27.40157 33.5
  endloop
endfacet
facet normal 0 1 0
  outer loop
    vertex -34.3371390436737 -27.40157 23.5
    vertex -50.8875 -27.40157 10
    vertex -39.3371390436737 -27.40157 33.5
  endloop
endfacet
facet normal 0 1 0
  outer loop
    vertex -45.8875 -27.40157 0
    vertex -55 -27.40157 10
    vertex -50.8875 -27.40157 10
  endloop
endfacet
facet normal 0 -1 0
  outer loop
    vertex -31.5 -47.40157 23.5
    vertex -39.3371390436737 -47.40157 33.5
    vertex -34.3371390436737 -47.40157 23.5
  endloop
endfacet
facet normal 0 -1 0
  outer loop
    vertex -34.3371390436737 -47.40157 23.5
    vertex -50.8875 -47.40157 10
    vertex -45.8875 -47.40157 0
  endloop
endfacet
facet normal 0 -1 0
  outer loop
    vertex -45.8875 -47.40157 0
    vertex -55 -47.40157 10
    vertex -55 -47.40157 0
  endloop
endfacet
facet normal 0 -1 0
  outer loop
    vertex -31.5 -47.40157 23.5
    vertex -31.5 -47.40157 33.5
    vertex -39.3371390436737 -47.40157 33.5
  endloop
endfacet
facet normal 0 -1 0
  outer loop
    vertex -34.3371390436737 -47.40157 23.5
    vertex -39.3371390436737 -47.40157 33.5
    vertex -50.8875 -47.40157 10
  endloop
endfacet
facet normal 0 -1 0
  outer loop
    vertex -45.8875 -47.40157 0
    vertex -50.8875 -47.40157 10
    vertex -55 -47.40157 10
  endloop
endfacet
facet normal 0 0 1
  outer loop
    vertex -31.5 -27.40157 33.5
    vertex -39.3371390436737 -27.40157 33.5
    vertex -39.3371390436737 -47.40157 33.5
  endloop
endfacet
facet normal -.897456050051125 0 .441103885979972
  outer loop
    vertex -39.3371390436737 -27.40157 33.5
    vertex -50.8875 -27.40157 10
    vertex -50.8875 -47.40157 10
  endloop
endfacet
facet normal 0 0 1
  outer loop
    vertex -50.8875 -27.40157 10
    vertex -55 -27.40157 10
    vertex -55 -47.40157 10
  endloop
endfacet
facet normal 0 0 1
  outer loop
    vertex -31.5 -27.40157 33.5
    vertex -39.3371390436737 -47.40157 33.5
    vertex -31.5 -47.40157 33.5
  endloop
endfacet
facet normal -.897456050051125 0 .441103885979972
  outer loop
    vertex -39.3371390436737 -27.40157 33.5
    vertex -50.8875 -47.40157 10
    vertex -39.3371390436737 -47.40157 33.5
  endloop
endfacet
facet normal 0 0 1
  outer loop
    vertex -50.8875 -27.40157 10
    vertex -55 -47.40157 10
    vertex -50.8875 -47.40157 10
  endloop
endfacet
facet normal 0 0 -1
  outer loop
    vertex -31.5 -27.40157 23.5
    vertex -34.3371390436737 -47.40157 23.5
    vertex -34.3371390436737 -27.40157 23.5
  endloop
endfacet
facet normal .897456050051125 0 -.441103885979972
  outer loop
    vertex -34.3371390436737 -27.40157 23.5
    vertex -45.8875 -47.40157 0
    vertex -45.8875 -27.40157 0
  endloop
endfacet
facet normal 0 0 -1
  outer loop
    vertex -45.8875 -27.40157 0
    vertex -55 -47.40157 0
    vertex -55 -27.40157 0
  endloop
endfacet
facet normal 0 0 -1
  outer loop
    vertex -31.5 -27.40157 23.5
    vertex -31.5 -47.40157 23.5
    vertex -34.3371390436737 -47.40157 23.5
  endloop
endfacet
facet normal .897456050051125 0 -.441103885979972
  outer loop
    vertex -34.3371390436737 -27.40157 23.5
    vertex -34.3371390436737 -47.40157 23.5
    vertex -45.8875 -47.40157 0
  endloop
endfacet
facet normal 0 0 -1
  outer loop
    vertex -45.8875 -27.40157 0
    vertex -45.8875 -47.40157 0
    vertex -55 -47.40157 0
  endloop
endfacet
facet normal 1 0 0
  outer loop
    vertex 55 -47.40157 10
    vertex 55 -47.40157 0
    vertex 55 -27.40157 0
  endloop
endfacet
facet normal 1 0 0
  outer loop
    vertex 55 -47.40157 10
    vertex 55 -27.40157 0
    vertex 55 -27.40157 10
  endloop
endfacet
facet normal -1 0 0
  outer loop
    vertex 31.5 -27.40157 33.5
    vertex 31.5 -27.40157 23.5
    vertex 31.5 -47.40157 23.5
  endloop
endfacet
facet normal -1 0 0
  outer loop
    vertex 31.5 -27.40157 33.5
    vertex 31.5 -47.40157 23.5
    vertex 31.5 -47.40157 33.5
  endloop
endfacet
facet normal 0 -1 0
  outer loop
    vertex 31.5 -47.40157 23.5
    vertex 34.3371390436737 -47.40157 23.5
    vertex 39.3371390436737 -47.40157 33.5
  endloop
endfacet
facet normal 0 -1 0
  outer loop
    vertex 34.3371390436737 -47.40157 23.5
    vertex 45.8875 -47.40157 0
    vertex 50.8875 -47.40157 10
  endloop
endfacet
facet normal 0 -1 0
  outer loop
    vertex 45.8875 -47.40157 0
    vertex 55 -47.40157 0
    vertex 55 -47.40157 10
  endloop
endfacet
facet normal 0 -1 0
  outer loop
    vertex 31.5 -47.40157 23.5
    vertex 39.3371390436737 -47.40157 33.5
    vertex 31.5 -47.40157 33.5
  endloop
endfacet
facet normal 0 -1 0
  outer loop
    vertex 34.3371390436737 -47.40157 23.5
    vertex 50.8875 -47.40157 10
    vertex 39.3371390436737 -47.40157 33.5
  endloop
endfacet
facet normal 0 -1 0
  outer loop
    vertex 45.8875 -47.40157 0
    vertex 55 -47.40157 10
    vertex 50.8875 -47.40157 10
  endloop
endfacet
facet normal 0 1 0
  outer loop
    vertex 31.5 -27.40157 23.5
    vertex 39.3371390436737 -27.40157 33.5
    vertex 34.3371390436737 -27.40157 23.5
  endloop
endfacet
facet normal 0 1 0
  outer loop
    vertex 34.3371390436737 -27.40157 23.5
    vertex 50.8875 -27.40157 10
    vertex 45.8875 -27.40157 0
  endloop
endfacet
facet normal 0 1 0
  outer loop
    vertex 45.8875 -27.40157 0
    vertex 55 -27.40157 10
    vertex 55 -27.40157 0
  endloop
endfacet
facet normal 0 1 0
  outer loop
    vertex 31.5 -27.40157 23.5
    vertex 31.5 -27.40157 33.5
    vertex 39.3371390436737 -27.40157 33.5
  endloop
endfacet
facet normal 0 1 0
  outer loop
    vertex 34.3371390436737 -27.40157 23.5
    vertex 39.3371390436737 -27.40157 33.5
    vertex 50.8875 -27.40157 10
  endloop
endfacet
facet normal 0 1 0
  outer loop
    vertex 45.8875 -27.40157 0
    vertex 50.8875 -27.40157 10
    vertex 55 -27.40157 10
  endloop
endfacet
facet normal 0 0 1
  outer loop
    vertex 31.5 -47.40157 33.5
    vertex 39.3371390436737 -47.40157 33.5
    vertex 39.3371390436737 -27.40157 33.5
  endloop
endfacet
facet normal .897456050051125 0 .441103885979972
  outer loop
    vertex 39.3371390436737 -47.40157 33.5
    vertex 50.8875 -47.40157 10
    vertex 50.8875 -27.40157 10
  endloop
endfacet
facet normal 0 0 1
  outer loop
    vertex 50.8875 -47.40157 10
    vertex 55 -47.40157 10
    vertex 55 -27.40157 10
  endloop
endfacet
facet normal 0 0 1
  outer loop
    vertex 31.5 -47.40157 33.5
    vertex 39.3371390436737 -27.40157 33.5
    vertex 31.5 -27.40157 33.5
  endloop
endfacet
facet normal .897456050051125 0 .441103885979972
  outer loop
    vertex 39.3371390436737 -47.40157 33.5
    vertex 50.8875 -27.40157 10
    vertex 39.3371390436737 -27.40157 33.5
  endloop
endfacet
facet normal 0 0 1
  outer loop
    vertex 50.8875 -47.40157 10
    vertex 55 -27.40157 10
    vertex 50.8875 -27.40157 10
  endloop
endfacet
facet normal 0 0 -1
  outer loop
    vertex 31.5 -47.40157 23.5
    vertex 34.3371390436737 -27.40157 23.5
    vertex 34.3371390436737 -47.40157 23.5
  endloop
endfacet
facet normal -.897456050051125 0 -.441103885979972
  outer loop
    vertex 34.3371390436737 -47.40157 23.5
    vertex 45.8875 -27.40157 0
    vertex 45.8875 -47.40157 0
  endloop
endfacet
facet normal 0 0 -1
  outer loop
    vertex 45.8875 -47.40157 0
    vertex 55 -27.40157 0
    vertex 55 -47.40157 0
  endloop
endfacet
facet normal 0 0 -1
  outer loop
    vertex 31.5 -47.40157 23.5
    vertex 31.5 -27.40157 23.5
    vertex 34.3371390436737 -27.40157 23.5
  endloop
endfacet
facet normal -.897456050051125 0 -.441103885979972
  outer loop
    vertex 34.3371390436737 -47.40157 23.5
    vertex 34.3371390436737 -27.40157 23.5
    vertex 45.8875 -27.40157 0
  endloop
endfacet
facet normal 0 0 -1
  outer loop
    vertex 45.8875 -47.40157 0
    vertex 45.8875 -27.40157 0
    vertex 55 -27.40157 0
  endloop
endfacet
facet normal 1 0 0
  outer loop
    vertex 55 -10 10
    vertex 55 -10 0
    vertex 55 10 0
  endloop
endfacet
facet normal 1 0 0
  outer loop
    vertex 55 -10 10
    vertex 55 10 0
    vertex 55 10 10
  endloop
endfacet
facet normal -1 0 0
  outer loop
    vertex 31.5 10 33.5
    vertex 31.5 10 23.5
    vertex 31.5 -10 23.5
  endloop
endfacet
facet normal -1 0 0
  outer loop
    vertex 31.5 10 33.5
    vertex 31.5 -10 23.5
    vertex 31.5 -10 33.5
  endloop
endfacet
facet normal 0 -1 0
  outer loop
    vertex 31.5 -10 23.5
    vertex 34.3371390436737 -10 23.5
    vertex 39.3371390436737 -10 33.5
  endloop
endfacet
facet normal 0 -1 0
  outer loop
    vertex 34.3371390436737 -10 23.5
    vertex 45.8875 -10 0
    vertex 50.8875 -10 10
  endloop
endfacet
facet normal 0 -1 0
  outer loop
    vertex 45.8875 -10 0
    vertex 55 -10 0
    vertex 55 -10 10
  endloop
endfacet
facet normal 0 -1 0
  outer loop
    vertex 31.5 -10 23.5
    vertex 39.3371390436737 -10 33.5
    vertex 31.5 -10 33.5
  endloop
endfacet
facet normal 0 -1 0
  outer loop
    vertex 34.3371390436737 -10 23.5
    vertex 50.8875 -10 10
    vertex 39.3371390436737 -10 33.5
  endloop
endfacet
facet normal 0 -1 0
  outer loop
    vertex 45.8875 -10 0
    vertex 55 -10 10
    vertex 50.8875 -10 10
  endloop
endfacet
facet normal 0 1 0
  outer loop
    vertex 31.5 10 23.5
    vertex 39.3371390436737 10 33.5
    vertex 34.3371390436737 10 23.5
  endloop
endfacet
facet normal 0 1 0
  outer loop
    vertex 34.3371390436737 10 23.5
    vertex 50.8875 10 10
    vertex 45.8875 10 0
  endloop
endfacet
facet normal 0 1 0
  outer loop
    vertex 45.8875 10 0
    vertex 55 10 10
    vertex 55 10 0
  endloop
endfacet
facet normal 0 1 0
  outer loop
    vertex 31.5 10 23.5
    vertex 31.5 10 33.5
    vertex 39.3371390436737 10 33.5
  endloop
endfacet
facet normal 0 1 0
  outer loop
    vertex 34.3371390436737 10 23.5
    vertex 39.3371390436737 10 33.5
    vertex 50.8875 10 10
  endloop
endfacet
facet normal 0 1 0
  outer loop
    vertex 45.8875 10 0
    vertex 50.8875 10 10
    vertex 55 10 10
  endloop
endfacet
facet normal 0 0 1
  outer loop
    vertex 31.5 -10 33.5
    vertex 39.3371390436737 -10 33.5
    vertex 39.3371390436737 10 33.5
  endloop
endfacet
facet normal .897456050051125 0 .441103885979972
  outer loop
    vertex 39.3371390436737 -10 33.5
    vertex 50.8875 -10 10
    vertex 50.8875 10 10
  endloop
endfacet
facet normal 0 0 1
  outer loop
    vertex 50.8875 -10 10
    vertex 55 -10 10
    vertex 55 10 10
  endloop
endfacet
facet normal 0 0 1
  outer loop
    vertex 31.5 -10 33.5
    vertex 39.3371390436737 10 33.5
    vertex 31.5 10 33.5
  endloop
endfacet
facet normal .897456050051125 0 .441103885979972
  outer loop
    vertex 39.3371390436737 -10 33.5
    vertex 50.8875 10 10
    vertex 39.3371390436737 10 33.5
  endloop
endfacet
facet normal 0 0 1
  outer loop
    vertex 50.8875 -10 10
    vertex 55 10 10
    vertex 50.8875 10 10
  endloop
endfacet
facet normal 0 0 -1
  outer loop
    vertex 31.5 -10 23.5
    vertex 34.3371390436737 10 23.5
    vertex 34.3371390436737 -10 23.5
  endloop
endfacet
facet normal -.897456050051125 0 -.441103885979972
  outer loop
    vertex 34.3371390436737 -10 23.5
    vertex 45.8875 10 0
    vertex 45.8875 -10 0
  endloop
endfacet
facet normal 0 0 -1
  outer loop
    vertex 45.8875 -10 0
    vertex 55 10 0
    vertex 55 -10 0
  endloop
endfacet
facet normal 0 0 -1
  outer loop
    vertex 31.5 -10 23.5
    vertex 31.5 10 23.5
    vertex 34.3371390436737 10 23.5
  endloop
endfacet
facet normal -.897456050051125 0 -.441103885979972
  outer loop
    vertex 34.3371390436737 -10 23.5
    vertex 34.3371390436737 10 23.5
    vertex 45.8875 10 0
  endloop
endfacet
facet normal 0 0 -1
  outer loop
    vertex 45.8875 -10 0
    vertex 45.8875 10 0
    vertex 55 10 0
  endloop
endfacet
facet normal 1 0 0
  outer loop
    vertex 55 27.40157 10
    vertex 55 27.40157 0
    vertex 55 47.40157 0
  endloop
endfacet
facet normal 1 0 0
  outer loop
    vertex 55 27.40157 10
    vertex 55 47.40157 0
    vertex 55 47.40157 10
  endloop
endfacet
facet normal -1 0 0
  outer loop
    vertex 31.5 47.40157 33.5
    vertex 31.5 47.40157 23.5
    vertex 31.5 27.40157 23.5
  endloop
endfacet
facet normal -1 0 0
  outer loop
    vertex 31.5 47.40157 33.5
    vertex 31.5 27.40157 23.5
    vertex 31.5 27.40157 33.5
  endloop
endfacet
facet normal 0 -1 0
  outer loop
    vertex 31.5 27.40157 23.5
    vertex 34.3371390436737 27.40157 23.5
    vertex 39.3371390436737 27.40157 33.5
  endloop
endfacet
facet normal 0 -1 0
  outer loop
    vertex 34.3371390436737 27.40157 23.5
    vertex 45.8875 27.40157 0
    vertex 50.8875 27.40157 10
  endloop
endfacet
facet normal 0 -1 0
  outer loop
    vertex 45.8875 27.40157 0
    vertex 55 27.40157 0
    vertex 55 27.40157 10
  endloop
endfacet
facet normal 0 -1 0
  outer loop
    vertex 31.5 27.40157 23.5
    vertex 39.3371390436737 27.40157 33.5
    vertex 31.5 27.40157 33.5
  endloop
endfacet
facet normal 0 -1 0
  outer loop
    vertex 34.3371390436737 27.40157 23.5
    vertex 50.8875 27.40157 10
    vertex 39.3371390436737 27.40157 33.5
  endloop
endfacet
facet normal 0 -1 0
  outer loop
    vertex 45.8875 27.40157 0
    vertex 55 27.40157 10
    vertex 50.8875 27.40157 10
  endloop
endfacet
facet normal 0 1 0
  outer loop
    vertex 31.5 47.40157 23.5
    vertex 39.3371390436737 47.40157 33.5
    vertex 34.3371390436737 47.40157 23.5
  endloop
endfacet
facet normal 0 1 0
  outer loop
    vertex 34.3371390436737 47.40157 23.5
    vertex 50.8875 47.40157 10
    vertex 45.8875 47.40157 0
  endloop
endfacet
facet normal 0 1 0
  outer loop
    vertex 45.8875 47.40157 0
    vertex 55 47.40157 10
    vertex 55 47.40157 0
  endloop
endfacet
facet normal 0 1 0
  outer loop
    vertex 31.5 47.40157 23.5
    vertex 31.5 47.40157 33.5
    vertex 39.3371390436737 47.40157 33.5
  endloop
endfacet
facet normal 0 1 0
  outer loop
    vertex 34.3371390436737 47.40157 23.5
    vertex 39.3371390436737 47.40157 33.5
    vertex 50.8875 47.40157 10
  endloop
endfacet
facet normal 0 1 0
  outer loop
    vertex 45.8875 47.40157 0
    vertex 50.8875 47.40157 10
    vertex 55 47.40157 10
  endloop
endfacet
facet normal 0 0 1
  outer loop
    vertex 31.5 27.40157 33.5
    vertex 39.3371390436737 27.40157 33.5
    vertex 39.3371390436737 47.40157 33.5
  endloop
endfacet
facet normal .897456050051125 0 .441103885979972
  outer loop
    vertex 39.3371390436737 27.40157 33.5
    vertex 50.8875 27.40157 10
    vertex 50.8875 47.40157 10
  endloop
endfacet
facet normal 0 0 1
  outer loop
    vertex 50.8875 27.40157 10
    vertex 55 27.40157 10
    vertex 55 47.40157 10
  endloop
endfacet
facet normal 0 0 1
  outer loop
    vertex 31.5 27.40157 33.5
    vertex 39.3371390436737 47.40157 33.5
    vertex 31.5 47.40157 33.5
  endloop
endfacet
facet normal .897456050051125 0 .441103885979972
  outer loop
    vertex 39.3371390436737 27.40157 33.5
    vertex 50.8875 47.40157 10
    vertex 39.3371390436737 47.40157 33.5
  endloop
endfacet
facet normal 0 0 1
  outer loop
    vertex 50.8875 27.40157 10
    vertex 55 47.40157 10
    vertex 50.8875 47.40157 10
  endloop
endfacet
facet normal 0 0 -1
  outer loop
    vertex 31.5 27.40157 23.5
    vertex 34.3371390436737 47.40157 23.5
    vertex 34.3371390436737 27.40157 23.5
  endloop
endfacet
facet normal -.897456050051125 0 -.441103885979972
  outer loop
    vertex 34.3371390436737 27.40157 23.5
    vertex 45.8875 47.40157 0
    vertex 45.8875 27.40157 0
  endloop
endfacet
facet normal 0 0 -1
  outer loop
    vertex 45.8875 27.40157 0
    vertex 55 47.40157 0
    vertex 55 27.40157 0
  endloop
endfacet
facet normal 0 0 -1
  outer loop
    vertex 31.5 27.40157 23.5
    vertex 31.5 47.40157 23.5
    vertex 34.3371390436737 47.40157 23.5
  endloop
endfacet
facet normal -.897456050051125 0 -.441103885979972
  outer loop
    vertex 34.3371390436737 27.40157 23.5
    vertex 34.3371390436737 47.40157 23.5
    vertex 45.8875 47.40157 0
  endloop
endfacet
facet normal 0 0 -1
  outer loop
    vertex 45.8875 27.40157 0
    vertex 45.8875 47.40157 0
    vertex 55 47.40157 0
  endloop
endfacet
endsolid SOT23-5
