G04 #@! TF.FileFunction,Copper,L2,Bot,Signal*
%FSLAX46Y46*%
G04 Gerber Fmt 4.6, Leading zero omitted, Abs format (unit mm)*
G04 Created by KiCad (PCBNEW 4.0.7) date Mon Nov 12 23:25:46 2018*
%MOMM*%
%LPD*%
G01*
G04 APERTURE LIST*
%ADD10C,0.100000*%
%ADD11R,1.700000X1.700000*%
%ADD12O,1.700000X1.700000*%
%ADD13C,2.000000*%
%ADD14C,1.000000*%
%ADD15C,1.524000*%
%ADD16C,1.200000*%
%ADD17C,0.600000*%
%ADD18C,0.250000*%
%ADD19C,0.200000*%
G04 APERTURE END LIST*
D10*
D11*
X125133000Y-49564000D03*
D12*
X125133000Y-52104000D03*
X125133000Y-54644000D03*
X125133000Y-57184000D03*
X125133000Y-59724000D03*
X125133000Y-62264000D03*
X125133000Y-64804000D03*
X125133000Y-67344000D03*
X125133000Y-69884000D03*
D13*
X114000000Y-33500000D03*
X109500000Y-33500000D03*
X114000000Y-27000000D03*
X109500000Y-27000000D03*
D14*
X169500000Y-153000000D03*
X128439000Y-28032000D03*
D15*
X115100000Y-144560000D03*
X117640000Y-144560000D03*
X115100000Y-147100000D03*
X117640000Y-147100000D03*
X115100000Y-149640000D03*
X117640000Y-149640000D03*
X115100000Y-152180000D03*
X117640000Y-152180000D03*
X115100000Y-154720000D03*
X117640000Y-154720000D03*
X159550000Y-144560000D03*
X159550000Y-147100000D03*
X159550000Y-149640000D03*
X159550000Y-152180000D03*
X159550000Y-154720000D03*
X162090000Y-149640000D03*
X162090000Y-147100000D03*
X162090000Y-144560000D03*
X162090000Y-152180000D03*
X162090000Y-154720000D03*
D11*
X117263000Y-65751000D03*
D12*
X114723000Y-65751000D03*
X117263000Y-68291000D03*
X114723000Y-68291000D03*
X117263000Y-70831000D03*
X114723000Y-70831000D03*
X117263000Y-73371000D03*
X114723000Y-73371000D03*
X117263000Y-75911000D03*
X114723000Y-75911000D03*
X117263000Y-78451000D03*
X114723000Y-78451000D03*
X117263000Y-80991000D03*
X114723000Y-80991000D03*
X117263000Y-83531000D03*
X114723000Y-83531000D03*
D11*
X117263000Y-88611000D03*
D12*
X114723000Y-88611000D03*
X117263000Y-91151000D03*
X114723000Y-91151000D03*
X117263000Y-93691000D03*
X114723000Y-93691000D03*
X117263000Y-96231000D03*
X114723000Y-96231000D03*
X117263000Y-98771000D03*
X114723000Y-98771000D03*
X117263000Y-101311000D03*
X114723000Y-101311000D03*
X117263000Y-103851000D03*
X114723000Y-103851000D03*
X117263000Y-106391000D03*
X114723000Y-106391000D03*
X117263000Y-108931000D03*
X114723000Y-108931000D03*
X117263000Y-111471000D03*
X114723000Y-111471000D03*
X117263000Y-114011000D03*
X114723000Y-114011000D03*
X117263000Y-116551000D03*
X114723000Y-116551000D03*
X117263000Y-119091000D03*
X114723000Y-119091000D03*
X117263000Y-121631000D03*
X114723000Y-121631000D03*
X117263000Y-124171000D03*
X114723000Y-124171000D03*
D11*
X162983000Y-56734000D03*
D12*
X160443000Y-56734000D03*
X162983000Y-59274000D03*
X160443000Y-59274000D03*
X162983000Y-61814000D03*
X160443000Y-61814000D03*
X162983000Y-64354000D03*
X160443000Y-64354000D03*
X162983000Y-66894000D03*
X160443000Y-66894000D03*
X162983000Y-69434000D03*
X160443000Y-69434000D03*
X162983000Y-71974000D03*
X160443000Y-71974000D03*
X162983000Y-74514000D03*
X160443000Y-74514000D03*
X162983000Y-77054000D03*
X160443000Y-77054000D03*
X162983000Y-79594000D03*
X160443000Y-79594000D03*
D11*
X162983000Y-83531000D03*
D12*
X160443000Y-83531000D03*
X162983000Y-86071000D03*
X160443000Y-86071000D03*
X162983000Y-88611000D03*
X160443000Y-88611000D03*
X162983000Y-91151000D03*
X160443000Y-91151000D03*
X162983000Y-93691000D03*
X160443000Y-93691000D03*
X162983000Y-96231000D03*
X160443000Y-96231000D03*
X162983000Y-98771000D03*
X160443000Y-98771000D03*
X162983000Y-101311000D03*
X160443000Y-101311000D03*
X162983000Y-103851000D03*
X160443000Y-103851000D03*
X162983000Y-106391000D03*
X160443000Y-106391000D03*
X162983000Y-108931000D03*
X160443000Y-108931000D03*
X162983000Y-111471000D03*
X160443000Y-111471000D03*
X162983000Y-114011000D03*
X160443000Y-114011000D03*
X162983000Y-116551000D03*
X160443000Y-116551000D03*
X162983000Y-119091000D03*
X160443000Y-119091000D03*
X162983000Y-121631000D03*
X160443000Y-121631000D03*
X162983000Y-124171000D03*
X160443000Y-124171000D03*
D11*
X126280000Y-95215000D03*
D12*
X126280000Y-97755000D03*
X126280000Y-100295000D03*
X126280000Y-102835000D03*
X126280000Y-105375000D03*
X126280000Y-107915000D03*
X126280000Y-110455000D03*
X126280000Y-112995000D03*
X126280000Y-115535000D03*
X126280000Y-118075000D03*
X126280000Y-120615000D03*
X126280000Y-123155000D03*
X126280000Y-125695000D03*
X126280000Y-128235000D03*
X126280000Y-130775000D03*
X154220000Y-130775000D03*
X154220000Y-128235000D03*
X154220000Y-125695000D03*
X154220000Y-123155000D03*
X154220000Y-120615000D03*
X154220000Y-118075000D03*
X154220000Y-115535000D03*
X154220000Y-112995000D03*
X154220000Y-110455000D03*
X154220000Y-107915000D03*
X154220000Y-105375000D03*
X154220000Y-102835000D03*
X154220000Y-100295000D03*
X154220000Y-97755000D03*
X154220000Y-95215000D03*
D16*
X146727000Y-128235000D03*
X119993500Y-36223500D03*
X130975000Y-58454000D03*
X143044000Y-52416000D03*
X127419000Y-69122000D03*
X129074000Y-72228000D03*
X154220000Y-133950000D03*
X154220000Y-139665000D03*
X122597000Y-57940500D03*
X158280000Y-135670000D03*
X115000000Y-43500000D03*
X115100000Y-47405000D03*
D17*
X130975000Y-58454000D02*
X130975000Y-55849000D01*
X130975000Y-55849000D02*
X134408000Y-52416000D01*
X134408000Y-52416000D02*
X143044000Y-52416000D01*
X127419000Y-69116500D02*
X127419000Y-69122000D01*
X125133000Y-62264000D02*
X126022000Y-62264000D01*
X127419000Y-63661000D02*
X126022000Y-62264000D01*
X127419000Y-69116500D02*
X127419000Y-63661000D01*
X127419000Y-57184000D02*
X125133000Y-57184000D01*
X129070000Y-58835000D02*
X127419000Y-57184000D01*
X129070000Y-72170000D02*
X129070000Y-58835000D01*
X129074000Y-72228000D02*
X129070000Y-72224000D01*
X129070000Y-72224000D02*
X129070000Y-72170000D01*
X117274240Y-70900000D02*
X118910000Y-70900000D01*
D18*
X117274240Y-70900000D02*
X118112440Y-70900000D01*
D17*
X118910000Y-70900000D02*
X120180000Y-69630000D01*
X122466000Y-49564000D02*
X125133000Y-49564000D01*
X120180000Y-51850000D02*
X122466000Y-49564000D01*
X120180000Y-69630000D02*
X120180000Y-51850000D01*
X121450000Y-56422000D02*
X121428502Y-56422000D01*
X121450000Y-56422000D02*
X123228000Y-54644000D01*
X125133000Y-54644000D02*
X123228000Y-54644000D01*
X121428502Y-56422000D02*
X121200000Y-56650502D01*
X121200000Y-56650502D02*
X121200000Y-71150000D01*
X121200000Y-71150000D02*
X118910000Y-73440000D01*
X118910000Y-73440000D02*
X117274240Y-73440000D01*
X154220000Y-139665000D02*
X154220000Y-133950000D01*
X122597000Y-57940500D02*
X122597000Y-72293000D01*
X118910000Y-75980000D02*
X117274240Y-75980000D01*
X122597000Y-72293000D02*
X118910000Y-75980000D01*
X122597000Y-57940500D02*
X122550002Y-57987498D01*
X158280000Y-135670000D02*
X163360000Y-135670000D01*
X163360000Y-135670000D02*
X167170000Y-131860000D01*
X167170000Y-131860000D02*
X167170000Y-91220000D01*
X167170000Y-91220000D02*
X167170000Y-89950000D01*
X167170000Y-89950000D02*
X165900000Y-88680000D01*
X162994240Y-88680000D02*
X165900000Y-88680000D01*
X155745000Y-112995000D02*
X154220000Y-112995000D01*
X156750000Y-114000000D02*
X155745000Y-112995000D01*
X156750000Y-131500000D02*
X156750000Y-114000000D01*
X158500000Y-133250000D02*
X156750000Y-131500000D01*
X164250000Y-133250000D02*
X158500000Y-133250000D01*
X166169998Y-131330002D02*
X164250000Y-133250000D01*
X166169998Y-115669998D02*
X166169998Y-131330002D01*
X164580000Y-114080000D02*
X166169998Y-115669998D01*
X162994240Y-114080000D02*
X164580000Y-114080000D01*
X110655000Y-51654000D02*
X110655000Y-71589000D01*
X110655000Y-71589000D02*
X112437000Y-73371000D01*
X112437000Y-73371000D02*
X114723000Y-73371000D01*
X115000000Y-43500000D02*
X110655000Y-47845000D01*
X110655000Y-51850000D02*
X110655000Y-51654000D01*
X110655000Y-51654000D02*
X110655000Y-47845000D01*
X115100000Y-47405000D02*
X110655000Y-51850000D01*
D19*
G36*
X173850000Y-157350000D02*
X104150000Y-157350000D01*
X104150000Y-147369730D01*
X113737764Y-147369730D01*
X113944679Y-147870503D01*
X114327482Y-148253974D01*
X114606972Y-148370029D01*
X114329497Y-148484679D01*
X113946026Y-148867482D01*
X113738237Y-149367893D01*
X113737764Y-149909730D01*
X113944679Y-150410503D01*
X114327482Y-150793974D01*
X114606972Y-150910029D01*
X114329497Y-151024679D01*
X113946026Y-151407482D01*
X113738237Y-151907893D01*
X113737764Y-152449730D01*
X113944679Y-152950503D01*
X114327482Y-153333974D01*
X114606972Y-153450029D01*
X114329497Y-153564679D01*
X113946026Y-153947482D01*
X113738237Y-154447893D01*
X113737764Y-154989730D01*
X113944679Y-155490503D01*
X114327482Y-155873974D01*
X114827893Y-156081763D01*
X115369730Y-156082236D01*
X115870503Y-155875321D01*
X116253974Y-155492518D01*
X116370029Y-155213028D01*
X116484679Y-155490503D01*
X116867482Y-155873974D01*
X117367893Y-156081763D01*
X117909730Y-156082236D01*
X118410503Y-155875321D01*
X118793974Y-155492518D01*
X119001763Y-154992107D01*
X119002236Y-154450270D01*
X118795321Y-153949497D01*
X118412518Y-153566026D01*
X118133028Y-153449971D01*
X118410503Y-153335321D01*
X118793974Y-152952518D01*
X119001763Y-152452107D01*
X119002236Y-151910270D01*
X118795321Y-151409497D01*
X118412518Y-151026026D01*
X118133028Y-150909971D01*
X118410503Y-150795321D01*
X118793974Y-150412518D01*
X119001763Y-149912107D01*
X119002236Y-149370270D01*
X118795321Y-148869497D01*
X118412518Y-148486026D01*
X118133028Y-148369971D01*
X118410503Y-148255321D01*
X118793974Y-147872518D01*
X119001763Y-147372107D01*
X119002236Y-146830270D01*
X118795321Y-146329497D01*
X118412518Y-145946026D01*
X118133028Y-145829971D01*
X118410503Y-145715321D01*
X118793974Y-145332518D01*
X119001763Y-144832107D01*
X119001765Y-144829730D01*
X158187764Y-144829730D01*
X158394679Y-145330503D01*
X158777482Y-145713974D01*
X159056972Y-145830029D01*
X158779497Y-145944679D01*
X158396026Y-146327482D01*
X158188237Y-146827893D01*
X158187764Y-147369730D01*
X158394679Y-147870503D01*
X158777482Y-148253974D01*
X159056972Y-148370029D01*
X158779497Y-148484679D01*
X158396026Y-148867482D01*
X158188237Y-149367893D01*
X158187764Y-149909730D01*
X158394679Y-150410503D01*
X158777482Y-150793974D01*
X159056972Y-150910029D01*
X158779497Y-151024679D01*
X158396026Y-151407482D01*
X158188237Y-151907893D01*
X158187764Y-152449730D01*
X158394679Y-152950503D01*
X158777482Y-153333974D01*
X159056972Y-153450029D01*
X158779497Y-153564679D01*
X158396026Y-153947482D01*
X158188237Y-154447893D01*
X158187764Y-154989730D01*
X158394679Y-155490503D01*
X158777482Y-155873974D01*
X159277893Y-156081763D01*
X159819730Y-156082236D01*
X160320503Y-155875321D01*
X160703974Y-155492518D01*
X160820029Y-155213028D01*
X160934679Y-155490503D01*
X161317482Y-155873974D01*
X161817893Y-156081763D01*
X162359730Y-156082236D01*
X162860503Y-155875321D01*
X163243974Y-155492518D01*
X163451763Y-154992107D01*
X163452236Y-154450270D01*
X163245321Y-153949497D01*
X162862518Y-153566026D01*
X162583028Y-153449971D01*
X162860503Y-153335321D01*
X162924621Y-153271314D01*
X168129763Y-153271314D01*
X168337893Y-153775029D01*
X168722944Y-154160752D01*
X169226295Y-154369762D01*
X169771314Y-154370237D01*
X170275029Y-154162107D01*
X170660752Y-153777056D01*
X170869762Y-153273705D01*
X170870237Y-152728686D01*
X170662107Y-152224971D01*
X170277056Y-151839248D01*
X169773705Y-151630238D01*
X169228686Y-151629763D01*
X168724971Y-151837893D01*
X168339248Y-152222944D01*
X168130238Y-152726295D01*
X168129763Y-153271314D01*
X162924621Y-153271314D01*
X163243974Y-152952518D01*
X163451763Y-152452107D01*
X163452236Y-151910270D01*
X163245321Y-151409497D01*
X162862518Y-151026026D01*
X162583028Y-150909971D01*
X162860503Y-150795321D01*
X163243974Y-150412518D01*
X163451763Y-149912107D01*
X163452236Y-149370270D01*
X163245321Y-148869497D01*
X162862518Y-148486026D01*
X162583028Y-148369971D01*
X162860503Y-148255321D01*
X163243974Y-147872518D01*
X163451763Y-147372107D01*
X163452236Y-146830270D01*
X163245321Y-146329497D01*
X162862518Y-145946026D01*
X162583028Y-145829971D01*
X162860503Y-145715321D01*
X163243974Y-145332518D01*
X163451763Y-144832107D01*
X163452236Y-144290270D01*
X163245321Y-143789497D01*
X162862518Y-143406026D01*
X162362107Y-143198237D01*
X161820270Y-143197764D01*
X161319497Y-143404679D01*
X160936026Y-143787482D01*
X160819971Y-144066972D01*
X160705321Y-143789497D01*
X160322518Y-143406026D01*
X159822107Y-143198237D01*
X159280270Y-143197764D01*
X158779497Y-143404679D01*
X158396026Y-143787482D01*
X158188237Y-144287893D01*
X158187764Y-144829730D01*
X119001765Y-144829730D01*
X119002236Y-144290270D01*
X118795321Y-143789497D01*
X118412518Y-143406026D01*
X117912107Y-143198237D01*
X117370270Y-143197764D01*
X116869497Y-143404679D01*
X116486026Y-143787482D01*
X116432652Y-143916020D01*
X116390021Y-143813099D01*
X116132799Y-143744990D01*
X115317789Y-144560000D01*
X116132799Y-145375010D01*
X116390021Y-145306901D01*
X116428399Y-145194295D01*
X116484679Y-145330503D01*
X116867482Y-145713974D01*
X117146972Y-145830029D01*
X116869497Y-145944679D01*
X116486026Y-146327482D01*
X116369971Y-146606972D01*
X116255321Y-146329497D01*
X115872518Y-145946026D01*
X115743980Y-145892652D01*
X115846901Y-145850021D01*
X115915010Y-145592799D01*
X115100000Y-144777789D01*
X114284990Y-145592799D01*
X114353099Y-145850021D01*
X114465705Y-145888399D01*
X114329497Y-145944679D01*
X113946026Y-146327482D01*
X113738237Y-146827893D01*
X113737764Y-147369730D01*
X104150000Y-147369730D01*
X104150000Y-144363623D01*
X113622350Y-144363623D01*
X113659679Y-144944044D01*
X113809979Y-145306901D01*
X114067201Y-145375010D01*
X114882211Y-144560000D01*
X114067201Y-143744990D01*
X113809979Y-143813099D01*
X113622350Y-144363623D01*
X104150000Y-144363623D01*
X104150000Y-143527201D01*
X114284990Y-143527201D01*
X115100000Y-144342211D01*
X115915010Y-143527201D01*
X115846901Y-143269979D01*
X115296377Y-143082350D01*
X114715956Y-143119679D01*
X114353099Y-143269979D01*
X114284990Y-143527201D01*
X104150000Y-143527201D01*
X104150000Y-134187647D01*
X153019793Y-134187647D01*
X153202097Y-134628857D01*
X153320000Y-134746966D01*
X153320000Y-138867854D01*
X153203283Y-138984367D01*
X153020209Y-139425258D01*
X153019793Y-139902647D01*
X153202097Y-140343857D01*
X153539367Y-140681717D01*
X153980258Y-140864791D01*
X154457647Y-140865207D01*
X154898857Y-140682903D01*
X155236717Y-140345633D01*
X155419791Y-139904742D01*
X155420207Y-139427353D01*
X155237903Y-138986143D01*
X155120000Y-138868034D01*
X155120000Y-134747146D01*
X155236717Y-134630633D01*
X155419791Y-134189742D01*
X155420207Y-133712353D01*
X155237903Y-133271143D01*
X154900633Y-132933283D01*
X154459742Y-132750209D01*
X153982353Y-132749793D01*
X153541143Y-132932097D01*
X153203283Y-133269367D01*
X153020209Y-133710258D01*
X153019793Y-134187647D01*
X104150000Y-134187647D01*
X104150000Y-129485197D01*
X113549576Y-129485197D01*
X113921780Y-130386000D01*
X114610375Y-131075798D01*
X115510527Y-131449573D01*
X116485197Y-131450424D01*
X117386000Y-131078220D01*
X118075798Y-130389625D01*
X118449573Y-129489473D01*
X118450424Y-128514803D01*
X118078220Y-127614000D01*
X117389625Y-126924202D01*
X116489473Y-126550427D01*
X115514803Y-126549576D01*
X114614000Y-126921780D01*
X113924202Y-127610375D01*
X113550427Y-128510527D01*
X113549576Y-129485197D01*
X104150000Y-129485197D01*
X104150000Y-88611000D01*
X113244593Y-88611000D01*
X113354968Y-89165891D01*
X113669288Y-89636305D01*
X114035501Y-89881000D01*
X113669288Y-90125695D01*
X113354968Y-90596109D01*
X113244593Y-91151000D01*
X113354968Y-91705891D01*
X113669288Y-92176305D01*
X114035501Y-92421000D01*
X113669288Y-92665695D01*
X113354968Y-93136109D01*
X113244593Y-93691000D01*
X113354968Y-94245891D01*
X113669288Y-94716305D01*
X114035501Y-94961000D01*
X113669288Y-95205695D01*
X113354968Y-95676109D01*
X113244593Y-96231000D01*
X113354968Y-96785891D01*
X113669288Y-97256305D01*
X114035501Y-97501000D01*
X113669288Y-97745695D01*
X113354968Y-98216109D01*
X113244593Y-98771000D01*
X113354968Y-99325891D01*
X113669288Y-99796305D01*
X114035501Y-100041000D01*
X113669288Y-100285695D01*
X113354968Y-100756109D01*
X113244593Y-101311000D01*
X113354968Y-101865891D01*
X113669288Y-102336305D01*
X114035501Y-102581000D01*
X113669288Y-102825695D01*
X113354968Y-103296109D01*
X113244593Y-103851000D01*
X113354968Y-104405891D01*
X113669288Y-104876305D01*
X114035501Y-105121000D01*
X113669288Y-105365695D01*
X113354968Y-105836109D01*
X113244593Y-106391000D01*
X113354968Y-106945891D01*
X113669288Y-107416305D01*
X114035501Y-107661000D01*
X113669288Y-107905695D01*
X113354968Y-108376109D01*
X113244593Y-108931000D01*
X113354968Y-109485891D01*
X113669288Y-109956305D01*
X114035501Y-110201000D01*
X113669288Y-110445695D01*
X113354968Y-110916109D01*
X113244593Y-111471000D01*
X113354968Y-112025891D01*
X113669288Y-112496305D01*
X114035501Y-112741000D01*
X113669288Y-112985695D01*
X113354968Y-113456109D01*
X113244593Y-114011000D01*
X113354968Y-114565891D01*
X113669288Y-115036305D01*
X114035501Y-115281000D01*
X113669288Y-115525695D01*
X113354968Y-115996109D01*
X113244593Y-116551000D01*
X113354968Y-117105891D01*
X113669288Y-117576305D01*
X114035501Y-117821000D01*
X113669288Y-118065695D01*
X113354968Y-118536109D01*
X113244593Y-119091000D01*
X113354968Y-119645891D01*
X113669288Y-120116305D01*
X114035501Y-120361000D01*
X113669288Y-120605695D01*
X113354968Y-121076109D01*
X113244593Y-121631000D01*
X113354968Y-122185891D01*
X113669288Y-122656305D01*
X114035501Y-122901000D01*
X113669288Y-123145695D01*
X113354968Y-123616109D01*
X113244593Y-124171000D01*
X113354968Y-124725891D01*
X113669288Y-125196305D01*
X114139702Y-125510625D01*
X114694593Y-125621000D01*
X114751407Y-125621000D01*
X115306298Y-125510625D01*
X115776712Y-125196305D01*
X115993000Y-124872607D01*
X116209288Y-125196305D01*
X116679702Y-125510625D01*
X117234593Y-125621000D01*
X117291407Y-125621000D01*
X117846298Y-125510625D01*
X118316712Y-125196305D01*
X118631032Y-124725891D01*
X118741407Y-124171000D01*
X118631032Y-123616109D01*
X118316712Y-123145695D01*
X117950499Y-122901000D01*
X118316712Y-122656305D01*
X118631032Y-122185891D01*
X118741407Y-121631000D01*
X118631032Y-121076109D01*
X118316712Y-120605695D01*
X117950499Y-120361000D01*
X118316712Y-120116305D01*
X118631032Y-119645891D01*
X118741407Y-119091000D01*
X118631032Y-118536109D01*
X118316712Y-118065695D01*
X117950499Y-117821000D01*
X118316712Y-117576305D01*
X118631032Y-117105891D01*
X118741407Y-116551000D01*
X118631032Y-115996109D01*
X118316712Y-115525695D01*
X117950499Y-115281000D01*
X118316712Y-115036305D01*
X118631032Y-114565891D01*
X118741407Y-114011000D01*
X118631032Y-113456109D01*
X118316712Y-112985695D01*
X117950499Y-112741000D01*
X118316712Y-112496305D01*
X118631032Y-112025891D01*
X118741407Y-111471000D01*
X118631032Y-110916109D01*
X118316712Y-110445695D01*
X117950499Y-110201000D01*
X118316712Y-109956305D01*
X118631032Y-109485891D01*
X118741407Y-108931000D01*
X118631032Y-108376109D01*
X118316712Y-107905695D01*
X117950499Y-107661000D01*
X118316712Y-107416305D01*
X118631032Y-106945891D01*
X118741407Y-106391000D01*
X118631032Y-105836109D01*
X118316712Y-105365695D01*
X117950499Y-105121000D01*
X118316712Y-104876305D01*
X118631032Y-104405891D01*
X118741407Y-103851000D01*
X118631032Y-103296109D01*
X118316712Y-102825695D01*
X118025066Y-102630824D01*
X118200178Y-102545598D01*
X118601300Y-102092977D01*
X118762251Y-101704378D01*
X118629349Y-101465000D01*
X117417000Y-101465000D01*
X117417000Y-101485000D01*
X117109000Y-101485000D01*
X117109000Y-101465000D01*
X117089000Y-101465000D01*
X117089000Y-101157000D01*
X117109000Y-101157000D01*
X117109000Y-101137000D01*
X117417000Y-101137000D01*
X117417000Y-101157000D01*
X118629349Y-101157000D01*
X118762251Y-100917622D01*
X118601300Y-100529023D01*
X118200178Y-100076402D01*
X118025066Y-99991176D01*
X118316712Y-99796305D01*
X118631032Y-99325891D01*
X118741407Y-98771000D01*
X118631032Y-98216109D01*
X118322930Y-97755000D01*
X124801593Y-97755000D01*
X124911968Y-98309891D01*
X125226288Y-98780305D01*
X125592501Y-99025000D01*
X125226288Y-99269695D01*
X124911968Y-99740109D01*
X124801593Y-100295000D01*
X124911968Y-100849891D01*
X125226288Y-101320305D01*
X125592501Y-101565000D01*
X125226288Y-101809695D01*
X124911968Y-102280109D01*
X124801593Y-102835000D01*
X124911968Y-103389891D01*
X125226288Y-103860305D01*
X125592501Y-104105000D01*
X125226288Y-104349695D01*
X124911968Y-104820109D01*
X124801593Y-105375000D01*
X124911968Y-105929891D01*
X125226288Y-106400305D01*
X125592501Y-106645000D01*
X125226288Y-106889695D01*
X124911968Y-107360109D01*
X124801593Y-107915000D01*
X124911968Y-108469891D01*
X125226288Y-108940305D01*
X125592501Y-109185000D01*
X125226288Y-109429695D01*
X124911968Y-109900109D01*
X124801593Y-110455000D01*
X124911968Y-111009891D01*
X125226288Y-111480305D01*
X125592501Y-111725000D01*
X125226288Y-111969695D01*
X124911968Y-112440109D01*
X124801593Y-112995000D01*
X124911968Y-113549891D01*
X125226288Y-114020305D01*
X125592501Y-114265000D01*
X125226288Y-114509695D01*
X124911968Y-114980109D01*
X124801593Y-115535000D01*
X124911968Y-116089891D01*
X125226288Y-116560305D01*
X125592501Y-116805000D01*
X125226288Y-117049695D01*
X124911968Y-117520109D01*
X124801593Y-118075000D01*
X124911968Y-118629891D01*
X125226288Y-119100305D01*
X125592501Y-119345000D01*
X125226288Y-119589695D01*
X124911968Y-120060109D01*
X124801593Y-120615000D01*
X124911968Y-121169891D01*
X125226288Y-121640305D01*
X125592501Y-121885000D01*
X125226288Y-122129695D01*
X124911968Y-122600109D01*
X124801593Y-123155000D01*
X124911968Y-123709891D01*
X125226288Y-124180305D01*
X125592501Y-124425000D01*
X125226288Y-124669695D01*
X124911968Y-125140109D01*
X124801593Y-125695000D01*
X124911968Y-126249891D01*
X125226288Y-126720305D01*
X125592501Y-126965000D01*
X125226288Y-127209695D01*
X124911968Y-127680109D01*
X124801593Y-128235000D01*
X124911968Y-128789891D01*
X125226288Y-129260305D01*
X125592501Y-129505000D01*
X125226288Y-129749695D01*
X124911968Y-130220109D01*
X124801593Y-130775000D01*
X124911968Y-131329891D01*
X125226288Y-131800305D01*
X125696702Y-132114625D01*
X126251593Y-132225000D01*
X126308407Y-132225000D01*
X126863298Y-132114625D01*
X127333712Y-131800305D01*
X127648032Y-131329891D01*
X127758407Y-130775000D01*
X127648032Y-130220109D01*
X127333712Y-129749695D01*
X126967499Y-129505000D01*
X127333712Y-129260305D01*
X127648032Y-128789891D01*
X127680159Y-128628378D01*
X152720749Y-128628378D01*
X152881700Y-129016977D01*
X153282822Y-129469598D01*
X153457934Y-129554824D01*
X153166288Y-129749695D01*
X152851968Y-130220109D01*
X152741593Y-130775000D01*
X152851968Y-131329891D01*
X153166288Y-131800305D01*
X153636702Y-132114625D01*
X154191593Y-132225000D01*
X154248407Y-132225000D01*
X154803298Y-132114625D01*
X155273712Y-131800305D01*
X155588032Y-131329891D01*
X155698407Y-130775000D01*
X155588032Y-130220109D01*
X155273712Y-129749695D01*
X154982066Y-129554824D01*
X155157178Y-129469598D01*
X155558300Y-129016977D01*
X155719251Y-128628378D01*
X155586349Y-128389000D01*
X154374000Y-128389000D01*
X154374000Y-128409000D01*
X154066000Y-128409000D01*
X154066000Y-128389000D01*
X152853651Y-128389000D01*
X152720749Y-128628378D01*
X127680159Y-128628378D01*
X127758407Y-128235000D01*
X127680160Y-127841622D01*
X152720749Y-127841622D01*
X152853651Y-128081000D01*
X154066000Y-128081000D01*
X154066000Y-128061000D01*
X154374000Y-128061000D01*
X154374000Y-128081000D01*
X155586349Y-128081000D01*
X155719251Y-127841622D01*
X155558300Y-127453023D01*
X155157178Y-127000402D01*
X154982066Y-126915176D01*
X155273712Y-126720305D01*
X155588032Y-126249891D01*
X155698407Y-125695000D01*
X155588032Y-125140109D01*
X155273712Y-124669695D01*
X154907499Y-124425000D01*
X155273712Y-124180305D01*
X155588032Y-123709891D01*
X155698407Y-123155000D01*
X155588032Y-122600109D01*
X155273712Y-122129695D01*
X154907499Y-121885000D01*
X155273712Y-121640305D01*
X155588032Y-121169891D01*
X155698407Y-120615000D01*
X155588032Y-120060109D01*
X155273712Y-119589695D01*
X154907499Y-119345000D01*
X155273712Y-119100305D01*
X155588032Y-118629891D01*
X155698407Y-118075000D01*
X155588032Y-117520109D01*
X155273712Y-117049695D01*
X154907499Y-116805000D01*
X155273712Y-116560305D01*
X155588032Y-116089891D01*
X155698407Y-115535000D01*
X155588032Y-114980109D01*
X155273712Y-114509695D01*
X154907499Y-114265000D01*
X155273712Y-114020305D01*
X155357438Y-113895000D01*
X155372208Y-113895000D01*
X155850000Y-114372792D01*
X155850000Y-131500000D01*
X155918508Y-131844415D01*
X156113604Y-132136396D01*
X157863604Y-133886396D01*
X158155585Y-134081492D01*
X158500000Y-134150000D01*
X163607208Y-134150000D01*
X162987208Y-134770000D01*
X159077146Y-134770000D01*
X158960633Y-134653283D01*
X158519742Y-134470209D01*
X158042353Y-134469793D01*
X157601143Y-134652097D01*
X157263283Y-134989367D01*
X157080209Y-135430258D01*
X157079793Y-135907647D01*
X157262097Y-136348857D01*
X157599367Y-136686717D01*
X158040258Y-136869791D01*
X158517647Y-136870207D01*
X158958857Y-136687903D01*
X159076966Y-136570000D01*
X163360000Y-136570000D01*
X163704415Y-136501492D01*
X163996396Y-136306396D01*
X167806396Y-132496396D01*
X168001492Y-132204415D01*
X168070000Y-131860000D01*
X168070000Y-89950000D01*
X168001492Y-89605585D01*
X168001492Y-89605584D01*
X167806396Y-89313604D01*
X166536396Y-88043604D01*
X166244415Y-87848508D01*
X165900000Y-87780000D01*
X164166542Y-87780000D01*
X164036712Y-87585695D01*
X163670499Y-87341000D01*
X164036712Y-87096305D01*
X164351032Y-86625891D01*
X164461407Y-86071000D01*
X164351032Y-85516109D01*
X164036712Y-85045695D01*
X163930128Y-84974478D01*
X164055346Y-84950917D01*
X164259558Y-84819510D01*
X164396556Y-84619007D01*
X164444754Y-84381000D01*
X164444754Y-82681000D01*
X164402917Y-82458654D01*
X164271510Y-82254442D01*
X164071007Y-82117444D01*
X163833000Y-82069246D01*
X162133000Y-82069246D01*
X161910654Y-82111083D01*
X161706442Y-82242490D01*
X161569444Y-82442993D01*
X161542783Y-82574646D01*
X161496712Y-82505695D01*
X161026298Y-82191375D01*
X160471407Y-82081000D01*
X160414593Y-82081000D01*
X159859702Y-82191375D01*
X159389288Y-82505695D01*
X159074968Y-82976109D01*
X158964593Y-83531000D01*
X159074968Y-84085891D01*
X159389288Y-84556305D01*
X159755501Y-84801000D01*
X159389288Y-85045695D01*
X159074968Y-85516109D01*
X158964593Y-86071000D01*
X159074968Y-86625891D01*
X159389288Y-87096305D01*
X159755501Y-87341000D01*
X159389288Y-87585695D01*
X159074968Y-88056109D01*
X158964593Y-88611000D01*
X159074968Y-89165891D01*
X159389288Y-89636305D01*
X159755501Y-89881000D01*
X159389288Y-90125695D01*
X159074968Y-90596109D01*
X158964593Y-91151000D01*
X159074968Y-91705891D01*
X159389288Y-92176305D01*
X159755501Y-92421000D01*
X159389288Y-92665695D01*
X159074968Y-93136109D01*
X158964593Y-93691000D01*
X159074968Y-94245891D01*
X159389288Y-94716305D01*
X159755501Y-94961000D01*
X159389288Y-95205695D01*
X159074968Y-95676109D01*
X158964593Y-96231000D01*
X159074968Y-96785891D01*
X159389288Y-97256305D01*
X159755501Y-97501000D01*
X159389288Y-97745695D01*
X159074968Y-98216109D01*
X158964593Y-98771000D01*
X159074968Y-99325891D01*
X159389288Y-99796305D01*
X159755501Y-100041000D01*
X159389288Y-100285695D01*
X159074968Y-100756109D01*
X158964593Y-101311000D01*
X159074968Y-101865891D01*
X159389288Y-102336305D01*
X159755501Y-102581000D01*
X159389288Y-102825695D01*
X159074968Y-103296109D01*
X158964593Y-103851000D01*
X159074968Y-104405891D01*
X159389288Y-104876305D01*
X159755501Y-105121000D01*
X159389288Y-105365695D01*
X159074968Y-105836109D01*
X158964593Y-106391000D01*
X159074968Y-106945891D01*
X159389288Y-107416305D01*
X159755501Y-107661000D01*
X159389288Y-107905695D01*
X159074968Y-108376109D01*
X158964593Y-108931000D01*
X159074968Y-109485891D01*
X159389288Y-109956305D01*
X159755501Y-110201000D01*
X159389288Y-110445695D01*
X159074968Y-110916109D01*
X158964593Y-111471000D01*
X159074968Y-112025891D01*
X159389288Y-112496305D01*
X159755501Y-112741000D01*
X159389288Y-112985695D01*
X159074968Y-113456109D01*
X158964593Y-114011000D01*
X159074968Y-114565891D01*
X159389288Y-115036305D01*
X159755501Y-115281000D01*
X159389288Y-115525695D01*
X159074968Y-115996109D01*
X158964593Y-116551000D01*
X159074968Y-117105891D01*
X159389288Y-117576305D01*
X159755501Y-117821000D01*
X159389288Y-118065695D01*
X159074968Y-118536109D01*
X158964593Y-119091000D01*
X159074968Y-119645891D01*
X159389288Y-120116305D01*
X159755501Y-120361000D01*
X159389288Y-120605695D01*
X159074968Y-121076109D01*
X158964593Y-121631000D01*
X159074968Y-122185891D01*
X159389288Y-122656305D01*
X159755501Y-122901000D01*
X159389288Y-123145695D01*
X159074968Y-123616109D01*
X158964593Y-124171000D01*
X159074968Y-124725891D01*
X159389288Y-125196305D01*
X159859702Y-125510625D01*
X160414593Y-125621000D01*
X160471407Y-125621000D01*
X161026298Y-125510625D01*
X161496712Y-125196305D01*
X161713000Y-124872607D01*
X161929288Y-125196305D01*
X162399702Y-125510625D01*
X162954593Y-125621000D01*
X163011407Y-125621000D01*
X163566298Y-125510625D01*
X164036712Y-125196305D01*
X164351032Y-124725891D01*
X164461407Y-124171000D01*
X164351032Y-123616109D01*
X164036712Y-123145695D01*
X163670499Y-122901000D01*
X164036712Y-122656305D01*
X164351032Y-122185891D01*
X164461407Y-121631000D01*
X164351032Y-121076109D01*
X164036712Y-120605695D01*
X163670499Y-120361000D01*
X164036712Y-120116305D01*
X164351032Y-119645891D01*
X164461407Y-119091000D01*
X164351032Y-118536109D01*
X164036712Y-118065695D01*
X163670499Y-117821000D01*
X164036712Y-117576305D01*
X164351032Y-117105891D01*
X164461407Y-116551000D01*
X164351032Y-115996109D01*
X164036712Y-115525695D01*
X163670499Y-115281000D01*
X164036712Y-115036305D01*
X164074334Y-114980000D01*
X164207208Y-114980000D01*
X165269998Y-116042790D01*
X165269998Y-130957210D01*
X163877208Y-132350000D01*
X158872792Y-132350000D01*
X157650000Y-131127208D01*
X157650000Y-128985197D01*
X159299576Y-128985197D01*
X159671780Y-129886000D01*
X160360375Y-130575798D01*
X161260527Y-130949573D01*
X162235197Y-130950424D01*
X163136000Y-130578220D01*
X163825798Y-129889625D01*
X164199573Y-128989473D01*
X164200424Y-128014803D01*
X163828220Y-127114000D01*
X163139625Y-126424202D01*
X162239473Y-126050427D01*
X161264803Y-126049576D01*
X160364000Y-126421780D01*
X159674202Y-127110375D01*
X159300427Y-128010527D01*
X159299576Y-128985197D01*
X157650000Y-128985197D01*
X157650000Y-114000000D01*
X157581492Y-113655585D01*
X157386396Y-113363604D01*
X156381396Y-112358604D01*
X156089415Y-112163508D01*
X155745000Y-112095000D01*
X155357438Y-112095000D01*
X155273712Y-111969695D01*
X154907499Y-111725000D01*
X155273712Y-111480305D01*
X155588032Y-111009891D01*
X155698407Y-110455000D01*
X155588032Y-109900109D01*
X155273712Y-109429695D01*
X154907499Y-109185000D01*
X155273712Y-108940305D01*
X155588032Y-108469891D01*
X155698407Y-107915000D01*
X155588032Y-107360109D01*
X155273712Y-106889695D01*
X154907499Y-106645000D01*
X155273712Y-106400305D01*
X155588032Y-105929891D01*
X155698407Y-105375000D01*
X155588032Y-104820109D01*
X155273712Y-104349695D01*
X154907499Y-104105000D01*
X155273712Y-103860305D01*
X155588032Y-103389891D01*
X155698407Y-102835000D01*
X155588032Y-102280109D01*
X155273712Y-101809695D01*
X154907499Y-101565000D01*
X155273712Y-101320305D01*
X155588032Y-100849891D01*
X155698407Y-100295000D01*
X155588032Y-99740109D01*
X155273712Y-99269695D01*
X154907499Y-99025000D01*
X155273712Y-98780305D01*
X155588032Y-98309891D01*
X155698407Y-97755000D01*
X155588032Y-97200109D01*
X155273712Y-96729695D01*
X154907499Y-96485000D01*
X155273712Y-96240305D01*
X155588032Y-95769891D01*
X155698407Y-95215000D01*
X155588032Y-94660109D01*
X155273712Y-94189695D01*
X154803298Y-93875375D01*
X154248407Y-93765000D01*
X154191593Y-93765000D01*
X153636702Y-93875375D01*
X153166288Y-94189695D01*
X152851968Y-94660109D01*
X152741593Y-95215000D01*
X152851968Y-95769891D01*
X153166288Y-96240305D01*
X153532501Y-96485000D01*
X153166288Y-96729695D01*
X152851968Y-97200109D01*
X152741593Y-97755000D01*
X152851968Y-98309891D01*
X153166288Y-98780305D01*
X153532501Y-99025000D01*
X153166288Y-99269695D01*
X152851968Y-99740109D01*
X152741593Y-100295000D01*
X152851968Y-100849891D01*
X153166288Y-101320305D01*
X153532501Y-101565000D01*
X153166288Y-101809695D01*
X152851968Y-102280109D01*
X152741593Y-102835000D01*
X152851968Y-103389891D01*
X153166288Y-103860305D01*
X153532501Y-104105000D01*
X153166288Y-104349695D01*
X152851968Y-104820109D01*
X152741593Y-105375000D01*
X152851968Y-105929891D01*
X153166288Y-106400305D01*
X153532501Y-106645000D01*
X153166288Y-106889695D01*
X152851968Y-107360109D01*
X152741593Y-107915000D01*
X152851968Y-108469891D01*
X153166288Y-108940305D01*
X153532501Y-109185000D01*
X153166288Y-109429695D01*
X152851968Y-109900109D01*
X152741593Y-110455000D01*
X152851968Y-111009891D01*
X153166288Y-111480305D01*
X153532501Y-111725000D01*
X153166288Y-111969695D01*
X152851968Y-112440109D01*
X152741593Y-112995000D01*
X152851968Y-113549891D01*
X153166288Y-114020305D01*
X153532501Y-114265000D01*
X153166288Y-114509695D01*
X152851968Y-114980109D01*
X152741593Y-115535000D01*
X152851968Y-116089891D01*
X153166288Y-116560305D01*
X153532501Y-116805000D01*
X153166288Y-117049695D01*
X152851968Y-117520109D01*
X152741593Y-118075000D01*
X152851968Y-118629891D01*
X153166288Y-119100305D01*
X153532501Y-119345000D01*
X153166288Y-119589695D01*
X152851968Y-120060109D01*
X152741593Y-120615000D01*
X152851968Y-121169891D01*
X153166288Y-121640305D01*
X153532501Y-121885000D01*
X153166288Y-122129695D01*
X152851968Y-122600109D01*
X152741593Y-123155000D01*
X152851968Y-123709891D01*
X153166288Y-124180305D01*
X153532501Y-124425000D01*
X153166288Y-124669695D01*
X152851968Y-125140109D01*
X152741593Y-125695000D01*
X152851968Y-126249891D01*
X153166288Y-126720305D01*
X153457934Y-126915176D01*
X153282822Y-127000402D01*
X152881700Y-127453023D01*
X152720749Y-127841622D01*
X127680160Y-127841622D01*
X127648032Y-127680109D01*
X127333712Y-127209695D01*
X126967499Y-126965000D01*
X127333712Y-126720305D01*
X127648032Y-126249891D01*
X127758407Y-125695000D01*
X127648032Y-125140109D01*
X127333712Y-124669695D01*
X126967499Y-124425000D01*
X127333712Y-124180305D01*
X127648032Y-123709891D01*
X127758407Y-123155000D01*
X127648032Y-122600109D01*
X127333712Y-122129695D01*
X126967499Y-121885000D01*
X127333712Y-121640305D01*
X127648032Y-121169891D01*
X127758407Y-120615000D01*
X127648032Y-120060109D01*
X127333712Y-119589695D01*
X126967499Y-119345000D01*
X127333712Y-119100305D01*
X127648032Y-118629891D01*
X127758407Y-118075000D01*
X127648032Y-117520109D01*
X127333712Y-117049695D01*
X126967499Y-116805000D01*
X127333712Y-116560305D01*
X127648032Y-116089891D01*
X127758407Y-115535000D01*
X127648032Y-114980109D01*
X127333712Y-114509695D01*
X126967499Y-114265000D01*
X127333712Y-114020305D01*
X127648032Y-113549891D01*
X127758407Y-112995000D01*
X127648032Y-112440109D01*
X127333712Y-111969695D01*
X126967499Y-111725000D01*
X127333712Y-111480305D01*
X127648032Y-111009891D01*
X127758407Y-110455000D01*
X127648032Y-109900109D01*
X127333712Y-109429695D01*
X126967499Y-109185000D01*
X127333712Y-108940305D01*
X127648032Y-108469891D01*
X127758407Y-107915000D01*
X127648032Y-107360109D01*
X127333712Y-106889695D01*
X126967499Y-106645000D01*
X127333712Y-106400305D01*
X127648032Y-105929891D01*
X127758407Y-105375000D01*
X127648032Y-104820109D01*
X127333712Y-104349695D01*
X126967499Y-104105000D01*
X127333712Y-103860305D01*
X127648032Y-103389891D01*
X127758407Y-102835000D01*
X127648032Y-102280109D01*
X127333712Y-101809695D01*
X126967499Y-101565000D01*
X127333712Y-101320305D01*
X127648032Y-100849891D01*
X127758407Y-100295000D01*
X127648032Y-99740109D01*
X127333712Y-99269695D01*
X126967499Y-99025000D01*
X127333712Y-98780305D01*
X127648032Y-98309891D01*
X127758407Y-97755000D01*
X127648032Y-97200109D01*
X127333712Y-96729695D01*
X127227128Y-96658478D01*
X127352346Y-96634917D01*
X127556558Y-96503510D01*
X127693556Y-96303007D01*
X127741754Y-96065000D01*
X127741754Y-94365000D01*
X127699917Y-94142654D01*
X127568510Y-93938442D01*
X127368007Y-93801444D01*
X127130000Y-93753246D01*
X125430000Y-93753246D01*
X125207654Y-93795083D01*
X125003442Y-93926490D01*
X124866444Y-94126993D01*
X124818246Y-94365000D01*
X124818246Y-96065000D01*
X124860083Y-96287346D01*
X124991490Y-96491558D01*
X125191993Y-96628556D01*
X125334472Y-96657409D01*
X125226288Y-96729695D01*
X124911968Y-97200109D01*
X124801593Y-97755000D01*
X118322930Y-97755000D01*
X118316712Y-97745695D01*
X117950499Y-97501000D01*
X118316712Y-97256305D01*
X118631032Y-96785891D01*
X118741407Y-96231000D01*
X118631032Y-95676109D01*
X118316712Y-95205695D01*
X117950499Y-94961000D01*
X118316712Y-94716305D01*
X118631032Y-94245891D01*
X118741407Y-93691000D01*
X118631032Y-93136109D01*
X118316712Y-92665695D01*
X117950499Y-92421000D01*
X118316712Y-92176305D01*
X118631032Y-91705891D01*
X118741407Y-91151000D01*
X118631032Y-90596109D01*
X118316712Y-90125695D01*
X118210128Y-90054478D01*
X118335346Y-90030917D01*
X118539558Y-89899510D01*
X118676556Y-89699007D01*
X118724754Y-89461000D01*
X118724754Y-87761000D01*
X118682917Y-87538654D01*
X118551510Y-87334442D01*
X118351007Y-87197444D01*
X118113000Y-87149246D01*
X116413000Y-87149246D01*
X116190654Y-87191083D01*
X115986442Y-87322490D01*
X115849444Y-87522993D01*
X115822783Y-87654646D01*
X115776712Y-87585695D01*
X115306298Y-87271375D01*
X114751407Y-87161000D01*
X114694593Y-87161000D01*
X114139702Y-87271375D01*
X113669288Y-87585695D01*
X113354968Y-88056109D01*
X113244593Y-88611000D01*
X104150000Y-88611000D01*
X104150000Y-78844378D01*
X113223749Y-78844378D01*
X113384700Y-79232977D01*
X113785822Y-79685598D01*
X113858562Y-79721000D01*
X113785822Y-79756402D01*
X113384700Y-80209023D01*
X113223749Y-80597622D01*
X113356651Y-80837000D01*
X114569000Y-80837000D01*
X114569000Y-78605000D01*
X113356651Y-78605000D01*
X113223749Y-78844378D01*
X104150000Y-78844378D01*
X104150000Y-47845000D01*
X109755000Y-47845000D01*
X109755000Y-71589000D01*
X109823508Y-71933415D01*
X110018604Y-72225396D01*
X111800604Y-74007396D01*
X112092585Y-74202492D01*
X112437000Y-74271000D01*
X113585562Y-74271000D01*
X113669288Y-74396305D01*
X114035501Y-74641000D01*
X113669288Y-74885695D01*
X113354968Y-75356109D01*
X113244593Y-75911000D01*
X113354968Y-76465891D01*
X113669288Y-76936305D01*
X113960934Y-77131176D01*
X113785822Y-77216402D01*
X113384700Y-77669023D01*
X113223749Y-78057622D01*
X113356651Y-78297000D01*
X114569000Y-78297000D01*
X114569000Y-78277000D01*
X114877000Y-78277000D01*
X114877000Y-78297000D01*
X114897000Y-78297000D01*
X114897000Y-78605000D01*
X114877000Y-78605000D01*
X114877000Y-80837000D01*
X114897000Y-80837000D01*
X114897000Y-81145000D01*
X114877000Y-81145000D01*
X114877000Y-81165000D01*
X114569000Y-81165000D01*
X114569000Y-81145000D01*
X113356651Y-81145000D01*
X113223749Y-81384378D01*
X113384700Y-81772977D01*
X113785822Y-82225598D01*
X113960934Y-82310824D01*
X113669288Y-82505695D01*
X113354968Y-82976109D01*
X113244593Y-83531000D01*
X113354968Y-84085891D01*
X113669288Y-84556305D01*
X114139702Y-84870625D01*
X114694593Y-84981000D01*
X114751407Y-84981000D01*
X115306298Y-84870625D01*
X115776712Y-84556305D01*
X115993000Y-84232607D01*
X116209288Y-84556305D01*
X116679702Y-84870625D01*
X117234593Y-84981000D01*
X117291407Y-84981000D01*
X117846298Y-84870625D01*
X118316712Y-84556305D01*
X118631032Y-84085891D01*
X118741407Y-83531000D01*
X118631032Y-82976109D01*
X118316712Y-82505695D01*
X117950499Y-82261000D01*
X118316712Y-82016305D01*
X118631032Y-81545891D01*
X118741407Y-80991000D01*
X118631032Y-80436109D01*
X118316712Y-79965695D01*
X117950499Y-79721000D01*
X118316712Y-79476305D01*
X118631032Y-79005891D01*
X118741407Y-78451000D01*
X118631032Y-77896109D01*
X118492647Y-77689000D01*
X129990000Y-77689000D01*
X129990000Y-114773000D01*
X129997879Y-114811906D01*
X130020273Y-114844681D01*
X130053654Y-114866161D01*
X130090000Y-114873000D01*
X150410000Y-114873000D01*
X150448906Y-114865121D01*
X150481681Y-114842727D01*
X150503161Y-114809346D01*
X150510000Y-114773000D01*
X150510000Y-77689000D01*
X150502121Y-77650094D01*
X150479727Y-77617319D01*
X150446346Y-77595839D01*
X150410000Y-77589000D01*
X130090000Y-77589000D01*
X130051094Y-77596879D01*
X130018319Y-77619273D01*
X129996839Y-77652654D01*
X129990000Y-77689000D01*
X118492647Y-77689000D01*
X118316712Y-77425695D01*
X117950499Y-77181000D01*
X118316712Y-76936305D01*
X118354334Y-76880000D01*
X118910000Y-76880000D01*
X119254415Y-76811492D01*
X119546396Y-76616396D01*
X123233396Y-72929396D01*
X123428492Y-72637416D01*
X123497000Y-72293000D01*
X123497000Y-70277378D01*
X123633749Y-70277378D01*
X123794700Y-70665977D01*
X124195822Y-71118598D01*
X124739621Y-71383262D01*
X124979000Y-71251342D01*
X124979000Y-70038000D01*
X123766651Y-70038000D01*
X123633749Y-70277378D01*
X123497000Y-70277378D01*
X123497000Y-58737646D01*
X123613717Y-58621133D01*
X123796791Y-58180242D01*
X123797134Y-57787030D01*
X124079288Y-58209305D01*
X124445501Y-58454000D01*
X124079288Y-58698695D01*
X123764968Y-59169109D01*
X123654593Y-59724000D01*
X123764968Y-60278891D01*
X124079288Y-60749305D01*
X124445501Y-60994000D01*
X124079288Y-61238695D01*
X123764968Y-61709109D01*
X123654593Y-62264000D01*
X123764968Y-62818891D01*
X124079288Y-63289305D01*
X124445501Y-63534000D01*
X124079288Y-63778695D01*
X123764968Y-64249109D01*
X123654593Y-64804000D01*
X123764968Y-65358891D01*
X124079288Y-65829305D01*
X124445501Y-66074000D01*
X124079288Y-66318695D01*
X123764968Y-66789109D01*
X123654593Y-67344000D01*
X123764968Y-67898891D01*
X124079288Y-68369305D01*
X124370934Y-68564176D01*
X124195822Y-68649402D01*
X123794700Y-69102023D01*
X123633749Y-69490622D01*
X123766651Y-69730000D01*
X124979000Y-69730000D01*
X124979000Y-69710000D01*
X125287000Y-69710000D01*
X125287000Y-69730000D01*
X125307000Y-69730000D01*
X125307000Y-70038000D01*
X125287000Y-70038000D01*
X125287000Y-71251342D01*
X125526379Y-71383262D01*
X126070178Y-71118598D01*
X126471300Y-70665977D01*
X126632251Y-70277378D01*
X126499350Y-70038002D01*
X126637828Y-70038002D01*
X126738367Y-70138717D01*
X127179258Y-70321791D01*
X127656647Y-70322207D01*
X128097857Y-70139903D01*
X128170000Y-70067886D01*
X128170000Y-71434847D01*
X128057283Y-71547367D01*
X127874209Y-71988258D01*
X127873793Y-72465647D01*
X128056097Y-72906857D01*
X128393367Y-73244717D01*
X128834258Y-73427791D01*
X129311647Y-73428207D01*
X129752857Y-73245903D01*
X130090717Y-72908633D01*
X130273791Y-72467742D01*
X130274207Y-71990353D01*
X130091903Y-71549143D01*
X129970000Y-71427027D01*
X129970000Y-59145783D01*
X130294367Y-59470717D01*
X130735258Y-59653791D01*
X131212647Y-59654207D01*
X131653857Y-59471903D01*
X131991717Y-59134633D01*
X132174791Y-58693742D01*
X132175207Y-58216353D01*
X131992903Y-57775143D01*
X131875000Y-57657034D01*
X131875000Y-56734000D01*
X158964593Y-56734000D01*
X159074968Y-57288891D01*
X159389288Y-57759305D01*
X159755501Y-58004000D01*
X159389288Y-58248695D01*
X159074968Y-58719109D01*
X158964593Y-59274000D01*
X159074968Y-59828891D01*
X159389288Y-60299305D01*
X159755501Y-60544000D01*
X159389288Y-60788695D01*
X159074968Y-61259109D01*
X158964593Y-61814000D01*
X159074968Y-62368891D01*
X159389288Y-62839305D01*
X159755501Y-63084000D01*
X159389288Y-63328695D01*
X159074968Y-63799109D01*
X158964593Y-64354000D01*
X159074968Y-64908891D01*
X159389288Y-65379305D01*
X159755501Y-65624000D01*
X159389288Y-65868695D01*
X159074968Y-66339109D01*
X158964593Y-66894000D01*
X159074968Y-67448891D01*
X159389288Y-67919305D01*
X159755501Y-68164000D01*
X159389288Y-68408695D01*
X159074968Y-68879109D01*
X158964593Y-69434000D01*
X159074968Y-69988891D01*
X159389288Y-70459305D01*
X159755501Y-70704000D01*
X159389288Y-70948695D01*
X159074968Y-71419109D01*
X158964593Y-71974000D01*
X159074968Y-72528891D01*
X159389288Y-72999305D01*
X159755501Y-73244000D01*
X159389288Y-73488695D01*
X159074968Y-73959109D01*
X158964593Y-74514000D01*
X159074968Y-75068891D01*
X159389288Y-75539305D01*
X159755501Y-75784000D01*
X159389288Y-76028695D01*
X159074968Y-76499109D01*
X158964593Y-77054000D01*
X159074968Y-77608891D01*
X159389288Y-78079305D01*
X159755501Y-78324000D01*
X159389288Y-78568695D01*
X159074968Y-79039109D01*
X158964593Y-79594000D01*
X159074968Y-80148891D01*
X159389288Y-80619305D01*
X159859702Y-80933625D01*
X160414593Y-81044000D01*
X160471407Y-81044000D01*
X161026298Y-80933625D01*
X161496712Y-80619305D01*
X161713000Y-80295607D01*
X161929288Y-80619305D01*
X162399702Y-80933625D01*
X162954593Y-81044000D01*
X163011407Y-81044000D01*
X163566298Y-80933625D01*
X164036712Y-80619305D01*
X164351032Y-80148891D01*
X164461407Y-79594000D01*
X164351032Y-79039109D01*
X164036712Y-78568695D01*
X163670499Y-78324000D01*
X164036712Y-78079305D01*
X164351032Y-77608891D01*
X164461407Y-77054000D01*
X164351032Y-76499109D01*
X164036712Y-76028695D01*
X163670499Y-75784000D01*
X164036712Y-75539305D01*
X164351032Y-75068891D01*
X164461407Y-74514000D01*
X164351032Y-73959109D01*
X164036712Y-73488695D01*
X163670499Y-73244000D01*
X164036712Y-72999305D01*
X164351032Y-72528891D01*
X164461407Y-71974000D01*
X164351032Y-71419109D01*
X164036712Y-70948695D01*
X163670499Y-70704000D01*
X164036712Y-70459305D01*
X164351032Y-69988891D01*
X164461407Y-69434000D01*
X164351032Y-68879109D01*
X164036712Y-68408695D01*
X163670499Y-68164000D01*
X164036712Y-67919305D01*
X164351032Y-67448891D01*
X164461407Y-66894000D01*
X164351032Y-66339109D01*
X164036712Y-65868695D01*
X163670499Y-65624000D01*
X164036712Y-65379305D01*
X164351032Y-64908891D01*
X164461407Y-64354000D01*
X164351032Y-63799109D01*
X164036712Y-63328695D01*
X163670499Y-63084000D01*
X164036712Y-62839305D01*
X164351032Y-62368891D01*
X164461407Y-61814000D01*
X164351032Y-61259109D01*
X164036712Y-60788695D01*
X163670499Y-60544000D01*
X164036712Y-60299305D01*
X164351032Y-59828891D01*
X164461407Y-59274000D01*
X164351032Y-58719109D01*
X164036712Y-58248695D01*
X163930128Y-58177478D01*
X164055346Y-58153917D01*
X164259558Y-58022510D01*
X164396556Y-57822007D01*
X164444754Y-57584000D01*
X164444754Y-55884000D01*
X164402917Y-55661654D01*
X164271510Y-55457442D01*
X164071007Y-55320444D01*
X163833000Y-55272246D01*
X162133000Y-55272246D01*
X161910654Y-55314083D01*
X161706442Y-55445490D01*
X161569444Y-55645993D01*
X161542783Y-55777646D01*
X161496712Y-55708695D01*
X161026298Y-55394375D01*
X160471407Y-55284000D01*
X160414593Y-55284000D01*
X159859702Y-55394375D01*
X159389288Y-55708695D01*
X159074968Y-56179109D01*
X158964593Y-56734000D01*
X131875000Y-56734000D01*
X131875000Y-56221792D01*
X134780792Y-53316000D01*
X142246854Y-53316000D01*
X142363367Y-53432717D01*
X142804258Y-53615791D01*
X143281647Y-53616207D01*
X143722857Y-53433903D01*
X144060717Y-53096633D01*
X144243791Y-52655742D01*
X144244207Y-52178353D01*
X144061903Y-51737143D01*
X143724633Y-51399283D01*
X143283742Y-51216209D01*
X142806353Y-51215793D01*
X142365143Y-51398097D01*
X142247034Y-51516000D01*
X134408000Y-51516000D01*
X134063584Y-51584508D01*
X133771604Y-51779604D01*
X130338604Y-55212604D01*
X130143508Y-55504585D01*
X130075000Y-55849000D01*
X130075000Y-57656854D01*
X129958283Y-57773367D01*
X129775209Y-58214258D01*
X129775133Y-58301476D01*
X129706396Y-58198604D01*
X128055396Y-56547604D01*
X127763415Y-56352508D01*
X127419000Y-56284000D01*
X126270438Y-56284000D01*
X126186712Y-56158695D01*
X125820499Y-55914000D01*
X126186712Y-55669305D01*
X126501032Y-55198891D01*
X126611407Y-54644000D01*
X126501032Y-54089109D01*
X126186712Y-53618695D01*
X125820499Y-53374000D01*
X126186712Y-53129305D01*
X126501032Y-52658891D01*
X126611407Y-52104000D01*
X126501032Y-51549109D01*
X126186712Y-51078695D01*
X126080128Y-51007478D01*
X126205346Y-50983917D01*
X126409558Y-50852510D01*
X126546556Y-50652007D01*
X126594754Y-50414000D01*
X126594754Y-48714000D01*
X126552917Y-48491654D01*
X126421510Y-48287442D01*
X126221007Y-48150444D01*
X125983000Y-48102246D01*
X124283000Y-48102246D01*
X124060654Y-48144083D01*
X123856442Y-48275490D01*
X123719444Y-48475993D01*
X123681371Y-48664000D01*
X122466000Y-48664000D01*
X122121584Y-48732508D01*
X121829604Y-48927604D01*
X119543604Y-51213604D01*
X119348508Y-51505585D01*
X119280000Y-51850000D01*
X119280000Y-69257208D01*
X118537208Y-70000000D01*
X118446542Y-70000000D01*
X118316712Y-69805695D01*
X117950499Y-69561000D01*
X118316712Y-69316305D01*
X118631032Y-68845891D01*
X118741407Y-68291000D01*
X118631032Y-67736109D01*
X118316712Y-67265695D01*
X118210128Y-67194478D01*
X118335346Y-67170917D01*
X118539558Y-67039510D01*
X118676556Y-66839007D01*
X118724754Y-66601000D01*
X118724754Y-64901000D01*
X118682917Y-64678654D01*
X118551510Y-64474442D01*
X118351007Y-64337444D01*
X118113000Y-64289246D01*
X116413000Y-64289246D01*
X116190654Y-64331083D01*
X115986442Y-64462490D01*
X115849444Y-64662993D01*
X115822783Y-64794646D01*
X115776712Y-64725695D01*
X115306298Y-64411375D01*
X114751407Y-64301000D01*
X114694593Y-64301000D01*
X114139702Y-64411375D01*
X113669288Y-64725695D01*
X113354968Y-65196109D01*
X113244593Y-65751000D01*
X113354968Y-66305891D01*
X113669288Y-66776305D01*
X114035501Y-67021000D01*
X113669288Y-67265695D01*
X113354968Y-67736109D01*
X113244593Y-68291000D01*
X113354968Y-68845891D01*
X113669288Y-69316305D01*
X114035501Y-69561000D01*
X113669288Y-69805695D01*
X113354968Y-70276109D01*
X113244593Y-70831000D01*
X113354968Y-71385891D01*
X113669288Y-71856305D01*
X114035501Y-72101000D01*
X113669288Y-72345695D01*
X113585562Y-72471000D01*
X112809792Y-72471000D01*
X111555000Y-71216208D01*
X111555000Y-52222792D01*
X115172729Y-48605063D01*
X115337647Y-48605207D01*
X115778857Y-48422903D01*
X116116717Y-48085633D01*
X116299791Y-47644742D01*
X116300207Y-47167353D01*
X116117903Y-46726143D01*
X115780633Y-46388283D01*
X115339742Y-46205209D01*
X114862353Y-46204793D01*
X114421143Y-46387097D01*
X114083283Y-46724367D01*
X113900209Y-47165258D01*
X113900064Y-47332144D01*
X111555000Y-49677208D01*
X111555000Y-48217792D01*
X115072729Y-44700063D01*
X115237647Y-44700207D01*
X115678857Y-44517903D01*
X116016717Y-44180633D01*
X116199791Y-43739742D01*
X116200207Y-43262353D01*
X116017903Y-42821143D01*
X115680633Y-42483283D01*
X115239742Y-42300209D01*
X114762353Y-42299793D01*
X114321143Y-42482097D01*
X113983283Y-42819367D01*
X113800209Y-43260258D01*
X113800064Y-43427144D01*
X110018604Y-47208604D01*
X109823508Y-47500585D01*
X109755000Y-47845000D01*
X104150000Y-47845000D01*
X104150000Y-33816863D01*
X107899723Y-33816863D01*
X108142795Y-34405143D01*
X108592489Y-34855623D01*
X109180344Y-35099722D01*
X109816863Y-35100277D01*
X110405143Y-34857205D01*
X110557224Y-34705389D01*
X113012400Y-34705389D01*
X113109806Y-34987246D01*
X113746713Y-35214699D01*
X114422180Y-35181103D01*
X114890194Y-34987246D01*
X114987600Y-34705389D01*
X114000000Y-33717789D01*
X113012400Y-34705389D01*
X110557224Y-34705389D01*
X110855623Y-34407511D01*
X111099722Y-33819656D01*
X111100221Y-33246713D01*
X112285301Y-33246713D01*
X112318897Y-33922180D01*
X112512754Y-34390194D01*
X112794611Y-34487600D01*
X113782211Y-33500000D01*
X114217789Y-33500000D01*
X115205389Y-34487600D01*
X115487246Y-34390194D01*
X115714699Y-33753287D01*
X115681103Y-33077820D01*
X115487246Y-32609806D01*
X115205389Y-32512400D01*
X114217789Y-33500000D01*
X113782211Y-33500000D01*
X112794611Y-32512400D01*
X112512754Y-32609806D01*
X112285301Y-33246713D01*
X111100221Y-33246713D01*
X111100277Y-33183137D01*
X110857205Y-32594857D01*
X110557483Y-32294611D01*
X113012400Y-32294611D01*
X114000000Y-33282211D01*
X114987600Y-32294611D01*
X114890194Y-32012754D01*
X114253287Y-31785301D01*
X113577820Y-31818897D01*
X113109806Y-32012754D01*
X113012400Y-32294611D01*
X110557483Y-32294611D01*
X110407511Y-32144377D01*
X109819656Y-31900278D01*
X109183137Y-31899723D01*
X108594857Y-32142795D01*
X108144377Y-32592489D01*
X107900278Y-33180344D01*
X107899723Y-33816863D01*
X104150000Y-33816863D01*
X104150000Y-27316863D01*
X107899723Y-27316863D01*
X108142795Y-27905143D01*
X108592489Y-28355623D01*
X109180344Y-28599722D01*
X109816863Y-28600277D01*
X110405143Y-28357205D01*
X110557224Y-28205389D01*
X113012400Y-28205389D01*
X113109806Y-28487246D01*
X113746713Y-28714699D01*
X114422180Y-28681103D01*
X114890194Y-28487246D01*
X114953758Y-28303314D01*
X127068763Y-28303314D01*
X127276893Y-28807029D01*
X127661944Y-29192752D01*
X128165295Y-29401762D01*
X128710314Y-29402237D01*
X129214029Y-29194107D01*
X129599752Y-28809056D01*
X129808762Y-28305705D01*
X129809237Y-27760686D01*
X129601107Y-27256971D01*
X129216056Y-26871248D01*
X128712705Y-26662238D01*
X128167686Y-26661763D01*
X127663971Y-26869893D01*
X127278248Y-27254944D01*
X127069238Y-27758295D01*
X127068763Y-28303314D01*
X114953758Y-28303314D01*
X114987600Y-28205389D01*
X114000000Y-27217789D01*
X113012400Y-28205389D01*
X110557224Y-28205389D01*
X110855623Y-27907511D01*
X111099722Y-27319656D01*
X111100221Y-26746713D01*
X112285301Y-26746713D01*
X112318897Y-27422180D01*
X112512754Y-27890194D01*
X112794611Y-27987600D01*
X113782211Y-27000000D01*
X114217789Y-27000000D01*
X115205389Y-27987600D01*
X115487246Y-27890194D01*
X115714699Y-27253287D01*
X115681103Y-26577820D01*
X115487246Y-26109806D01*
X115205389Y-26012400D01*
X114217789Y-27000000D01*
X113782211Y-27000000D01*
X112794611Y-26012400D01*
X112512754Y-26109806D01*
X112285301Y-26746713D01*
X111100221Y-26746713D01*
X111100277Y-26683137D01*
X110857205Y-26094857D01*
X110557483Y-25794611D01*
X113012400Y-25794611D01*
X114000000Y-26782211D01*
X114987600Y-25794611D01*
X114890194Y-25512754D01*
X114253287Y-25285301D01*
X113577820Y-25318897D01*
X113109806Y-25512754D01*
X113012400Y-25794611D01*
X110557483Y-25794611D01*
X110407511Y-25644377D01*
X109819656Y-25400278D01*
X109183137Y-25399723D01*
X108594857Y-25642795D01*
X108144377Y-26092489D01*
X107900278Y-26680344D01*
X107899723Y-27316863D01*
X104150000Y-27316863D01*
X104150000Y-23650000D01*
X173850000Y-23650000D01*
X173850000Y-157350000D01*
X173850000Y-157350000D01*
G37*
X173850000Y-157350000D02*
X104150000Y-157350000D01*
X104150000Y-147369730D01*
X113737764Y-147369730D01*
X113944679Y-147870503D01*
X114327482Y-148253974D01*
X114606972Y-148370029D01*
X114329497Y-148484679D01*
X113946026Y-148867482D01*
X113738237Y-149367893D01*
X113737764Y-149909730D01*
X113944679Y-150410503D01*
X114327482Y-150793974D01*
X114606972Y-150910029D01*
X114329497Y-151024679D01*
X113946026Y-151407482D01*
X113738237Y-151907893D01*
X113737764Y-152449730D01*
X113944679Y-152950503D01*
X114327482Y-153333974D01*
X114606972Y-153450029D01*
X114329497Y-153564679D01*
X113946026Y-153947482D01*
X113738237Y-154447893D01*
X113737764Y-154989730D01*
X113944679Y-155490503D01*
X114327482Y-155873974D01*
X114827893Y-156081763D01*
X115369730Y-156082236D01*
X115870503Y-155875321D01*
X116253974Y-155492518D01*
X116370029Y-155213028D01*
X116484679Y-155490503D01*
X116867482Y-155873974D01*
X117367893Y-156081763D01*
X117909730Y-156082236D01*
X118410503Y-155875321D01*
X118793974Y-155492518D01*
X119001763Y-154992107D01*
X119002236Y-154450270D01*
X118795321Y-153949497D01*
X118412518Y-153566026D01*
X118133028Y-153449971D01*
X118410503Y-153335321D01*
X118793974Y-152952518D01*
X119001763Y-152452107D01*
X119002236Y-151910270D01*
X118795321Y-151409497D01*
X118412518Y-151026026D01*
X118133028Y-150909971D01*
X118410503Y-150795321D01*
X118793974Y-150412518D01*
X119001763Y-149912107D01*
X119002236Y-149370270D01*
X118795321Y-148869497D01*
X118412518Y-148486026D01*
X118133028Y-148369971D01*
X118410503Y-148255321D01*
X118793974Y-147872518D01*
X119001763Y-147372107D01*
X119002236Y-146830270D01*
X118795321Y-146329497D01*
X118412518Y-145946026D01*
X118133028Y-145829971D01*
X118410503Y-145715321D01*
X118793974Y-145332518D01*
X119001763Y-144832107D01*
X119001765Y-144829730D01*
X158187764Y-144829730D01*
X158394679Y-145330503D01*
X158777482Y-145713974D01*
X159056972Y-145830029D01*
X158779497Y-145944679D01*
X158396026Y-146327482D01*
X158188237Y-146827893D01*
X158187764Y-147369730D01*
X158394679Y-147870503D01*
X158777482Y-148253974D01*
X159056972Y-148370029D01*
X158779497Y-148484679D01*
X158396026Y-148867482D01*
X158188237Y-149367893D01*
X158187764Y-149909730D01*
X158394679Y-150410503D01*
X158777482Y-150793974D01*
X159056972Y-150910029D01*
X158779497Y-151024679D01*
X158396026Y-151407482D01*
X158188237Y-151907893D01*
X158187764Y-152449730D01*
X158394679Y-152950503D01*
X158777482Y-153333974D01*
X159056972Y-153450029D01*
X158779497Y-153564679D01*
X158396026Y-153947482D01*
X158188237Y-154447893D01*
X158187764Y-154989730D01*
X158394679Y-155490503D01*
X158777482Y-155873974D01*
X159277893Y-156081763D01*
X159819730Y-156082236D01*
X160320503Y-155875321D01*
X160703974Y-155492518D01*
X160820029Y-155213028D01*
X160934679Y-155490503D01*
X161317482Y-155873974D01*
X161817893Y-156081763D01*
X162359730Y-156082236D01*
X162860503Y-155875321D01*
X163243974Y-155492518D01*
X163451763Y-154992107D01*
X163452236Y-154450270D01*
X163245321Y-153949497D01*
X162862518Y-153566026D01*
X162583028Y-153449971D01*
X162860503Y-153335321D01*
X162924621Y-153271314D01*
X168129763Y-153271314D01*
X168337893Y-153775029D01*
X168722944Y-154160752D01*
X169226295Y-154369762D01*
X169771314Y-154370237D01*
X170275029Y-154162107D01*
X170660752Y-153777056D01*
X170869762Y-153273705D01*
X170870237Y-152728686D01*
X170662107Y-152224971D01*
X170277056Y-151839248D01*
X169773705Y-151630238D01*
X169228686Y-151629763D01*
X168724971Y-151837893D01*
X168339248Y-152222944D01*
X168130238Y-152726295D01*
X168129763Y-153271314D01*
X162924621Y-153271314D01*
X163243974Y-152952518D01*
X163451763Y-152452107D01*
X163452236Y-151910270D01*
X163245321Y-151409497D01*
X162862518Y-151026026D01*
X162583028Y-150909971D01*
X162860503Y-150795321D01*
X163243974Y-150412518D01*
X163451763Y-149912107D01*
X163452236Y-149370270D01*
X163245321Y-148869497D01*
X162862518Y-148486026D01*
X162583028Y-148369971D01*
X162860503Y-148255321D01*
X163243974Y-147872518D01*
X163451763Y-147372107D01*
X163452236Y-146830270D01*
X163245321Y-146329497D01*
X162862518Y-145946026D01*
X162583028Y-145829971D01*
X162860503Y-145715321D01*
X163243974Y-145332518D01*
X163451763Y-144832107D01*
X163452236Y-144290270D01*
X163245321Y-143789497D01*
X162862518Y-143406026D01*
X162362107Y-143198237D01*
X161820270Y-143197764D01*
X161319497Y-143404679D01*
X160936026Y-143787482D01*
X160819971Y-144066972D01*
X160705321Y-143789497D01*
X160322518Y-143406026D01*
X159822107Y-143198237D01*
X159280270Y-143197764D01*
X158779497Y-143404679D01*
X158396026Y-143787482D01*
X158188237Y-144287893D01*
X158187764Y-144829730D01*
X119001765Y-144829730D01*
X119002236Y-144290270D01*
X118795321Y-143789497D01*
X118412518Y-143406026D01*
X117912107Y-143198237D01*
X117370270Y-143197764D01*
X116869497Y-143404679D01*
X116486026Y-143787482D01*
X116432652Y-143916020D01*
X116390021Y-143813099D01*
X116132799Y-143744990D01*
X115317789Y-144560000D01*
X116132799Y-145375010D01*
X116390021Y-145306901D01*
X116428399Y-145194295D01*
X116484679Y-145330503D01*
X116867482Y-145713974D01*
X117146972Y-145830029D01*
X116869497Y-145944679D01*
X116486026Y-146327482D01*
X116369971Y-146606972D01*
X116255321Y-146329497D01*
X115872518Y-145946026D01*
X115743980Y-145892652D01*
X115846901Y-145850021D01*
X115915010Y-145592799D01*
X115100000Y-144777789D01*
X114284990Y-145592799D01*
X114353099Y-145850021D01*
X114465705Y-145888399D01*
X114329497Y-145944679D01*
X113946026Y-146327482D01*
X113738237Y-146827893D01*
X113737764Y-147369730D01*
X104150000Y-147369730D01*
X104150000Y-144363623D01*
X113622350Y-144363623D01*
X113659679Y-144944044D01*
X113809979Y-145306901D01*
X114067201Y-145375010D01*
X114882211Y-144560000D01*
X114067201Y-143744990D01*
X113809979Y-143813099D01*
X113622350Y-144363623D01*
X104150000Y-144363623D01*
X104150000Y-143527201D01*
X114284990Y-143527201D01*
X115100000Y-144342211D01*
X115915010Y-143527201D01*
X115846901Y-143269979D01*
X115296377Y-143082350D01*
X114715956Y-143119679D01*
X114353099Y-143269979D01*
X114284990Y-143527201D01*
X104150000Y-143527201D01*
X104150000Y-134187647D01*
X153019793Y-134187647D01*
X153202097Y-134628857D01*
X153320000Y-134746966D01*
X153320000Y-138867854D01*
X153203283Y-138984367D01*
X153020209Y-139425258D01*
X153019793Y-139902647D01*
X153202097Y-140343857D01*
X153539367Y-140681717D01*
X153980258Y-140864791D01*
X154457647Y-140865207D01*
X154898857Y-140682903D01*
X155236717Y-140345633D01*
X155419791Y-139904742D01*
X155420207Y-139427353D01*
X155237903Y-138986143D01*
X155120000Y-138868034D01*
X155120000Y-134747146D01*
X155236717Y-134630633D01*
X155419791Y-134189742D01*
X155420207Y-133712353D01*
X155237903Y-133271143D01*
X154900633Y-132933283D01*
X154459742Y-132750209D01*
X153982353Y-132749793D01*
X153541143Y-132932097D01*
X153203283Y-133269367D01*
X153020209Y-133710258D01*
X153019793Y-134187647D01*
X104150000Y-134187647D01*
X104150000Y-129485197D01*
X113549576Y-129485197D01*
X113921780Y-130386000D01*
X114610375Y-131075798D01*
X115510527Y-131449573D01*
X116485197Y-131450424D01*
X117386000Y-131078220D01*
X118075798Y-130389625D01*
X118449573Y-129489473D01*
X118450424Y-128514803D01*
X118078220Y-127614000D01*
X117389625Y-126924202D01*
X116489473Y-126550427D01*
X115514803Y-126549576D01*
X114614000Y-126921780D01*
X113924202Y-127610375D01*
X113550427Y-128510527D01*
X113549576Y-129485197D01*
X104150000Y-129485197D01*
X104150000Y-88611000D01*
X113244593Y-88611000D01*
X113354968Y-89165891D01*
X113669288Y-89636305D01*
X114035501Y-89881000D01*
X113669288Y-90125695D01*
X113354968Y-90596109D01*
X113244593Y-91151000D01*
X113354968Y-91705891D01*
X113669288Y-92176305D01*
X114035501Y-92421000D01*
X113669288Y-92665695D01*
X113354968Y-93136109D01*
X113244593Y-93691000D01*
X113354968Y-94245891D01*
X113669288Y-94716305D01*
X114035501Y-94961000D01*
X113669288Y-95205695D01*
X113354968Y-95676109D01*
X113244593Y-96231000D01*
X113354968Y-96785891D01*
X113669288Y-97256305D01*
X114035501Y-97501000D01*
X113669288Y-97745695D01*
X113354968Y-98216109D01*
X113244593Y-98771000D01*
X113354968Y-99325891D01*
X113669288Y-99796305D01*
X114035501Y-100041000D01*
X113669288Y-100285695D01*
X113354968Y-100756109D01*
X113244593Y-101311000D01*
X113354968Y-101865891D01*
X113669288Y-102336305D01*
X114035501Y-102581000D01*
X113669288Y-102825695D01*
X113354968Y-103296109D01*
X113244593Y-103851000D01*
X113354968Y-104405891D01*
X113669288Y-104876305D01*
X114035501Y-105121000D01*
X113669288Y-105365695D01*
X113354968Y-105836109D01*
X113244593Y-106391000D01*
X113354968Y-106945891D01*
X113669288Y-107416305D01*
X114035501Y-107661000D01*
X113669288Y-107905695D01*
X113354968Y-108376109D01*
X113244593Y-108931000D01*
X113354968Y-109485891D01*
X113669288Y-109956305D01*
X114035501Y-110201000D01*
X113669288Y-110445695D01*
X113354968Y-110916109D01*
X113244593Y-111471000D01*
X113354968Y-112025891D01*
X113669288Y-112496305D01*
X114035501Y-112741000D01*
X113669288Y-112985695D01*
X113354968Y-113456109D01*
X113244593Y-114011000D01*
X113354968Y-114565891D01*
X113669288Y-115036305D01*
X114035501Y-115281000D01*
X113669288Y-115525695D01*
X113354968Y-115996109D01*
X113244593Y-116551000D01*
X113354968Y-117105891D01*
X113669288Y-117576305D01*
X114035501Y-117821000D01*
X113669288Y-118065695D01*
X113354968Y-118536109D01*
X113244593Y-119091000D01*
X113354968Y-119645891D01*
X113669288Y-120116305D01*
X114035501Y-120361000D01*
X113669288Y-120605695D01*
X113354968Y-121076109D01*
X113244593Y-121631000D01*
X113354968Y-122185891D01*
X113669288Y-122656305D01*
X114035501Y-122901000D01*
X113669288Y-123145695D01*
X113354968Y-123616109D01*
X113244593Y-124171000D01*
X113354968Y-124725891D01*
X113669288Y-125196305D01*
X114139702Y-125510625D01*
X114694593Y-125621000D01*
X114751407Y-125621000D01*
X115306298Y-125510625D01*
X115776712Y-125196305D01*
X115993000Y-124872607D01*
X116209288Y-125196305D01*
X116679702Y-125510625D01*
X117234593Y-125621000D01*
X117291407Y-125621000D01*
X117846298Y-125510625D01*
X118316712Y-125196305D01*
X118631032Y-124725891D01*
X118741407Y-124171000D01*
X118631032Y-123616109D01*
X118316712Y-123145695D01*
X117950499Y-122901000D01*
X118316712Y-122656305D01*
X118631032Y-122185891D01*
X118741407Y-121631000D01*
X118631032Y-121076109D01*
X118316712Y-120605695D01*
X117950499Y-120361000D01*
X118316712Y-120116305D01*
X118631032Y-119645891D01*
X118741407Y-119091000D01*
X118631032Y-118536109D01*
X118316712Y-118065695D01*
X117950499Y-117821000D01*
X118316712Y-117576305D01*
X118631032Y-117105891D01*
X118741407Y-116551000D01*
X118631032Y-115996109D01*
X118316712Y-115525695D01*
X117950499Y-115281000D01*
X118316712Y-115036305D01*
X118631032Y-114565891D01*
X118741407Y-114011000D01*
X118631032Y-113456109D01*
X118316712Y-112985695D01*
X117950499Y-112741000D01*
X118316712Y-112496305D01*
X118631032Y-112025891D01*
X118741407Y-111471000D01*
X118631032Y-110916109D01*
X118316712Y-110445695D01*
X117950499Y-110201000D01*
X118316712Y-109956305D01*
X118631032Y-109485891D01*
X118741407Y-108931000D01*
X118631032Y-108376109D01*
X118316712Y-107905695D01*
X117950499Y-107661000D01*
X118316712Y-107416305D01*
X118631032Y-106945891D01*
X118741407Y-106391000D01*
X118631032Y-105836109D01*
X118316712Y-105365695D01*
X117950499Y-105121000D01*
X118316712Y-104876305D01*
X118631032Y-104405891D01*
X118741407Y-103851000D01*
X118631032Y-103296109D01*
X118316712Y-102825695D01*
X118025066Y-102630824D01*
X118200178Y-102545598D01*
X118601300Y-102092977D01*
X118762251Y-101704378D01*
X118629349Y-101465000D01*
X117417000Y-101465000D01*
X117417000Y-101485000D01*
X117109000Y-101485000D01*
X117109000Y-101465000D01*
X117089000Y-101465000D01*
X117089000Y-101157000D01*
X117109000Y-101157000D01*
X117109000Y-101137000D01*
X117417000Y-101137000D01*
X117417000Y-101157000D01*
X118629349Y-101157000D01*
X118762251Y-100917622D01*
X118601300Y-100529023D01*
X118200178Y-100076402D01*
X118025066Y-99991176D01*
X118316712Y-99796305D01*
X118631032Y-99325891D01*
X118741407Y-98771000D01*
X118631032Y-98216109D01*
X118322930Y-97755000D01*
X124801593Y-97755000D01*
X124911968Y-98309891D01*
X125226288Y-98780305D01*
X125592501Y-99025000D01*
X125226288Y-99269695D01*
X124911968Y-99740109D01*
X124801593Y-100295000D01*
X124911968Y-100849891D01*
X125226288Y-101320305D01*
X125592501Y-101565000D01*
X125226288Y-101809695D01*
X124911968Y-102280109D01*
X124801593Y-102835000D01*
X124911968Y-103389891D01*
X125226288Y-103860305D01*
X125592501Y-104105000D01*
X125226288Y-104349695D01*
X124911968Y-104820109D01*
X124801593Y-105375000D01*
X124911968Y-105929891D01*
X125226288Y-106400305D01*
X125592501Y-106645000D01*
X125226288Y-106889695D01*
X124911968Y-107360109D01*
X124801593Y-107915000D01*
X124911968Y-108469891D01*
X125226288Y-108940305D01*
X125592501Y-109185000D01*
X125226288Y-109429695D01*
X124911968Y-109900109D01*
X124801593Y-110455000D01*
X124911968Y-111009891D01*
X125226288Y-111480305D01*
X125592501Y-111725000D01*
X125226288Y-111969695D01*
X124911968Y-112440109D01*
X124801593Y-112995000D01*
X124911968Y-113549891D01*
X125226288Y-114020305D01*
X125592501Y-114265000D01*
X125226288Y-114509695D01*
X124911968Y-114980109D01*
X124801593Y-115535000D01*
X124911968Y-116089891D01*
X125226288Y-116560305D01*
X125592501Y-116805000D01*
X125226288Y-117049695D01*
X124911968Y-117520109D01*
X124801593Y-118075000D01*
X124911968Y-118629891D01*
X125226288Y-119100305D01*
X125592501Y-119345000D01*
X125226288Y-119589695D01*
X124911968Y-120060109D01*
X124801593Y-120615000D01*
X124911968Y-121169891D01*
X125226288Y-121640305D01*
X125592501Y-121885000D01*
X125226288Y-122129695D01*
X124911968Y-122600109D01*
X124801593Y-123155000D01*
X124911968Y-123709891D01*
X125226288Y-124180305D01*
X125592501Y-124425000D01*
X125226288Y-124669695D01*
X124911968Y-125140109D01*
X124801593Y-125695000D01*
X124911968Y-126249891D01*
X125226288Y-126720305D01*
X125592501Y-126965000D01*
X125226288Y-127209695D01*
X124911968Y-127680109D01*
X124801593Y-128235000D01*
X124911968Y-128789891D01*
X125226288Y-129260305D01*
X125592501Y-129505000D01*
X125226288Y-129749695D01*
X124911968Y-130220109D01*
X124801593Y-130775000D01*
X124911968Y-131329891D01*
X125226288Y-131800305D01*
X125696702Y-132114625D01*
X126251593Y-132225000D01*
X126308407Y-132225000D01*
X126863298Y-132114625D01*
X127333712Y-131800305D01*
X127648032Y-131329891D01*
X127758407Y-130775000D01*
X127648032Y-130220109D01*
X127333712Y-129749695D01*
X126967499Y-129505000D01*
X127333712Y-129260305D01*
X127648032Y-128789891D01*
X127680159Y-128628378D01*
X152720749Y-128628378D01*
X152881700Y-129016977D01*
X153282822Y-129469598D01*
X153457934Y-129554824D01*
X153166288Y-129749695D01*
X152851968Y-130220109D01*
X152741593Y-130775000D01*
X152851968Y-131329891D01*
X153166288Y-131800305D01*
X153636702Y-132114625D01*
X154191593Y-132225000D01*
X154248407Y-132225000D01*
X154803298Y-132114625D01*
X155273712Y-131800305D01*
X155588032Y-131329891D01*
X155698407Y-130775000D01*
X155588032Y-130220109D01*
X155273712Y-129749695D01*
X154982066Y-129554824D01*
X155157178Y-129469598D01*
X155558300Y-129016977D01*
X155719251Y-128628378D01*
X155586349Y-128389000D01*
X154374000Y-128389000D01*
X154374000Y-128409000D01*
X154066000Y-128409000D01*
X154066000Y-128389000D01*
X152853651Y-128389000D01*
X152720749Y-128628378D01*
X127680159Y-128628378D01*
X127758407Y-128235000D01*
X127680160Y-127841622D01*
X152720749Y-127841622D01*
X152853651Y-128081000D01*
X154066000Y-128081000D01*
X154066000Y-128061000D01*
X154374000Y-128061000D01*
X154374000Y-128081000D01*
X155586349Y-128081000D01*
X155719251Y-127841622D01*
X155558300Y-127453023D01*
X155157178Y-127000402D01*
X154982066Y-126915176D01*
X155273712Y-126720305D01*
X155588032Y-126249891D01*
X155698407Y-125695000D01*
X155588032Y-125140109D01*
X155273712Y-124669695D01*
X154907499Y-124425000D01*
X155273712Y-124180305D01*
X155588032Y-123709891D01*
X155698407Y-123155000D01*
X155588032Y-122600109D01*
X155273712Y-122129695D01*
X154907499Y-121885000D01*
X155273712Y-121640305D01*
X155588032Y-121169891D01*
X155698407Y-120615000D01*
X155588032Y-120060109D01*
X155273712Y-119589695D01*
X154907499Y-119345000D01*
X155273712Y-119100305D01*
X155588032Y-118629891D01*
X155698407Y-118075000D01*
X155588032Y-117520109D01*
X155273712Y-117049695D01*
X154907499Y-116805000D01*
X155273712Y-116560305D01*
X155588032Y-116089891D01*
X155698407Y-115535000D01*
X155588032Y-114980109D01*
X155273712Y-114509695D01*
X154907499Y-114265000D01*
X155273712Y-114020305D01*
X155357438Y-113895000D01*
X155372208Y-113895000D01*
X155850000Y-114372792D01*
X155850000Y-131500000D01*
X155918508Y-131844415D01*
X156113604Y-132136396D01*
X157863604Y-133886396D01*
X158155585Y-134081492D01*
X158500000Y-134150000D01*
X163607208Y-134150000D01*
X162987208Y-134770000D01*
X159077146Y-134770000D01*
X158960633Y-134653283D01*
X158519742Y-134470209D01*
X158042353Y-134469793D01*
X157601143Y-134652097D01*
X157263283Y-134989367D01*
X157080209Y-135430258D01*
X157079793Y-135907647D01*
X157262097Y-136348857D01*
X157599367Y-136686717D01*
X158040258Y-136869791D01*
X158517647Y-136870207D01*
X158958857Y-136687903D01*
X159076966Y-136570000D01*
X163360000Y-136570000D01*
X163704415Y-136501492D01*
X163996396Y-136306396D01*
X167806396Y-132496396D01*
X168001492Y-132204415D01*
X168070000Y-131860000D01*
X168070000Y-89950000D01*
X168001492Y-89605585D01*
X168001492Y-89605584D01*
X167806396Y-89313604D01*
X166536396Y-88043604D01*
X166244415Y-87848508D01*
X165900000Y-87780000D01*
X164166542Y-87780000D01*
X164036712Y-87585695D01*
X163670499Y-87341000D01*
X164036712Y-87096305D01*
X164351032Y-86625891D01*
X164461407Y-86071000D01*
X164351032Y-85516109D01*
X164036712Y-85045695D01*
X163930128Y-84974478D01*
X164055346Y-84950917D01*
X164259558Y-84819510D01*
X164396556Y-84619007D01*
X164444754Y-84381000D01*
X164444754Y-82681000D01*
X164402917Y-82458654D01*
X164271510Y-82254442D01*
X164071007Y-82117444D01*
X163833000Y-82069246D01*
X162133000Y-82069246D01*
X161910654Y-82111083D01*
X161706442Y-82242490D01*
X161569444Y-82442993D01*
X161542783Y-82574646D01*
X161496712Y-82505695D01*
X161026298Y-82191375D01*
X160471407Y-82081000D01*
X160414593Y-82081000D01*
X159859702Y-82191375D01*
X159389288Y-82505695D01*
X159074968Y-82976109D01*
X158964593Y-83531000D01*
X159074968Y-84085891D01*
X159389288Y-84556305D01*
X159755501Y-84801000D01*
X159389288Y-85045695D01*
X159074968Y-85516109D01*
X158964593Y-86071000D01*
X159074968Y-86625891D01*
X159389288Y-87096305D01*
X159755501Y-87341000D01*
X159389288Y-87585695D01*
X159074968Y-88056109D01*
X158964593Y-88611000D01*
X159074968Y-89165891D01*
X159389288Y-89636305D01*
X159755501Y-89881000D01*
X159389288Y-90125695D01*
X159074968Y-90596109D01*
X158964593Y-91151000D01*
X159074968Y-91705891D01*
X159389288Y-92176305D01*
X159755501Y-92421000D01*
X159389288Y-92665695D01*
X159074968Y-93136109D01*
X158964593Y-93691000D01*
X159074968Y-94245891D01*
X159389288Y-94716305D01*
X159755501Y-94961000D01*
X159389288Y-95205695D01*
X159074968Y-95676109D01*
X158964593Y-96231000D01*
X159074968Y-96785891D01*
X159389288Y-97256305D01*
X159755501Y-97501000D01*
X159389288Y-97745695D01*
X159074968Y-98216109D01*
X158964593Y-98771000D01*
X159074968Y-99325891D01*
X159389288Y-99796305D01*
X159755501Y-100041000D01*
X159389288Y-100285695D01*
X159074968Y-100756109D01*
X158964593Y-101311000D01*
X159074968Y-101865891D01*
X159389288Y-102336305D01*
X159755501Y-102581000D01*
X159389288Y-102825695D01*
X159074968Y-103296109D01*
X158964593Y-103851000D01*
X159074968Y-104405891D01*
X159389288Y-104876305D01*
X159755501Y-105121000D01*
X159389288Y-105365695D01*
X159074968Y-105836109D01*
X158964593Y-106391000D01*
X159074968Y-106945891D01*
X159389288Y-107416305D01*
X159755501Y-107661000D01*
X159389288Y-107905695D01*
X159074968Y-108376109D01*
X158964593Y-108931000D01*
X159074968Y-109485891D01*
X159389288Y-109956305D01*
X159755501Y-110201000D01*
X159389288Y-110445695D01*
X159074968Y-110916109D01*
X158964593Y-111471000D01*
X159074968Y-112025891D01*
X159389288Y-112496305D01*
X159755501Y-112741000D01*
X159389288Y-112985695D01*
X159074968Y-113456109D01*
X158964593Y-114011000D01*
X159074968Y-114565891D01*
X159389288Y-115036305D01*
X159755501Y-115281000D01*
X159389288Y-115525695D01*
X159074968Y-115996109D01*
X158964593Y-116551000D01*
X159074968Y-117105891D01*
X159389288Y-117576305D01*
X159755501Y-117821000D01*
X159389288Y-118065695D01*
X159074968Y-118536109D01*
X158964593Y-119091000D01*
X159074968Y-119645891D01*
X159389288Y-120116305D01*
X159755501Y-120361000D01*
X159389288Y-120605695D01*
X159074968Y-121076109D01*
X158964593Y-121631000D01*
X159074968Y-122185891D01*
X159389288Y-122656305D01*
X159755501Y-122901000D01*
X159389288Y-123145695D01*
X159074968Y-123616109D01*
X158964593Y-124171000D01*
X159074968Y-124725891D01*
X159389288Y-125196305D01*
X159859702Y-125510625D01*
X160414593Y-125621000D01*
X160471407Y-125621000D01*
X161026298Y-125510625D01*
X161496712Y-125196305D01*
X161713000Y-124872607D01*
X161929288Y-125196305D01*
X162399702Y-125510625D01*
X162954593Y-125621000D01*
X163011407Y-125621000D01*
X163566298Y-125510625D01*
X164036712Y-125196305D01*
X164351032Y-124725891D01*
X164461407Y-124171000D01*
X164351032Y-123616109D01*
X164036712Y-123145695D01*
X163670499Y-122901000D01*
X164036712Y-122656305D01*
X164351032Y-122185891D01*
X164461407Y-121631000D01*
X164351032Y-121076109D01*
X164036712Y-120605695D01*
X163670499Y-120361000D01*
X164036712Y-120116305D01*
X164351032Y-119645891D01*
X164461407Y-119091000D01*
X164351032Y-118536109D01*
X164036712Y-118065695D01*
X163670499Y-117821000D01*
X164036712Y-117576305D01*
X164351032Y-117105891D01*
X164461407Y-116551000D01*
X164351032Y-115996109D01*
X164036712Y-115525695D01*
X163670499Y-115281000D01*
X164036712Y-115036305D01*
X164074334Y-114980000D01*
X164207208Y-114980000D01*
X165269998Y-116042790D01*
X165269998Y-130957210D01*
X163877208Y-132350000D01*
X158872792Y-132350000D01*
X157650000Y-131127208D01*
X157650000Y-128985197D01*
X159299576Y-128985197D01*
X159671780Y-129886000D01*
X160360375Y-130575798D01*
X161260527Y-130949573D01*
X162235197Y-130950424D01*
X163136000Y-130578220D01*
X163825798Y-129889625D01*
X164199573Y-128989473D01*
X164200424Y-128014803D01*
X163828220Y-127114000D01*
X163139625Y-126424202D01*
X162239473Y-126050427D01*
X161264803Y-126049576D01*
X160364000Y-126421780D01*
X159674202Y-127110375D01*
X159300427Y-128010527D01*
X159299576Y-128985197D01*
X157650000Y-128985197D01*
X157650000Y-114000000D01*
X157581492Y-113655585D01*
X157386396Y-113363604D01*
X156381396Y-112358604D01*
X156089415Y-112163508D01*
X155745000Y-112095000D01*
X155357438Y-112095000D01*
X155273712Y-111969695D01*
X154907499Y-111725000D01*
X155273712Y-111480305D01*
X155588032Y-111009891D01*
X155698407Y-110455000D01*
X155588032Y-109900109D01*
X155273712Y-109429695D01*
X154907499Y-109185000D01*
X155273712Y-108940305D01*
X155588032Y-108469891D01*
X155698407Y-107915000D01*
X155588032Y-107360109D01*
X155273712Y-106889695D01*
X154907499Y-106645000D01*
X155273712Y-106400305D01*
X155588032Y-105929891D01*
X155698407Y-105375000D01*
X155588032Y-104820109D01*
X155273712Y-104349695D01*
X154907499Y-104105000D01*
X155273712Y-103860305D01*
X155588032Y-103389891D01*
X155698407Y-102835000D01*
X155588032Y-102280109D01*
X155273712Y-101809695D01*
X154907499Y-101565000D01*
X155273712Y-101320305D01*
X155588032Y-100849891D01*
X155698407Y-100295000D01*
X155588032Y-99740109D01*
X155273712Y-99269695D01*
X154907499Y-99025000D01*
X155273712Y-98780305D01*
X155588032Y-98309891D01*
X155698407Y-97755000D01*
X155588032Y-97200109D01*
X155273712Y-96729695D01*
X154907499Y-96485000D01*
X155273712Y-96240305D01*
X155588032Y-95769891D01*
X155698407Y-95215000D01*
X155588032Y-94660109D01*
X155273712Y-94189695D01*
X154803298Y-93875375D01*
X154248407Y-93765000D01*
X154191593Y-93765000D01*
X153636702Y-93875375D01*
X153166288Y-94189695D01*
X152851968Y-94660109D01*
X152741593Y-95215000D01*
X152851968Y-95769891D01*
X153166288Y-96240305D01*
X153532501Y-96485000D01*
X153166288Y-96729695D01*
X152851968Y-97200109D01*
X152741593Y-97755000D01*
X152851968Y-98309891D01*
X153166288Y-98780305D01*
X153532501Y-99025000D01*
X153166288Y-99269695D01*
X152851968Y-99740109D01*
X152741593Y-100295000D01*
X152851968Y-100849891D01*
X153166288Y-101320305D01*
X153532501Y-101565000D01*
X153166288Y-101809695D01*
X152851968Y-102280109D01*
X152741593Y-102835000D01*
X152851968Y-103389891D01*
X153166288Y-103860305D01*
X153532501Y-104105000D01*
X153166288Y-104349695D01*
X152851968Y-104820109D01*
X152741593Y-105375000D01*
X152851968Y-105929891D01*
X153166288Y-106400305D01*
X153532501Y-106645000D01*
X153166288Y-106889695D01*
X152851968Y-107360109D01*
X152741593Y-107915000D01*
X152851968Y-108469891D01*
X153166288Y-108940305D01*
X153532501Y-109185000D01*
X153166288Y-109429695D01*
X152851968Y-109900109D01*
X152741593Y-110455000D01*
X152851968Y-111009891D01*
X153166288Y-111480305D01*
X153532501Y-111725000D01*
X153166288Y-111969695D01*
X152851968Y-112440109D01*
X152741593Y-112995000D01*
X152851968Y-113549891D01*
X153166288Y-114020305D01*
X153532501Y-114265000D01*
X153166288Y-114509695D01*
X152851968Y-114980109D01*
X152741593Y-115535000D01*
X152851968Y-116089891D01*
X153166288Y-116560305D01*
X153532501Y-116805000D01*
X153166288Y-117049695D01*
X152851968Y-117520109D01*
X152741593Y-118075000D01*
X152851968Y-118629891D01*
X153166288Y-119100305D01*
X153532501Y-119345000D01*
X153166288Y-119589695D01*
X152851968Y-120060109D01*
X152741593Y-120615000D01*
X152851968Y-121169891D01*
X153166288Y-121640305D01*
X153532501Y-121885000D01*
X153166288Y-122129695D01*
X152851968Y-122600109D01*
X152741593Y-123155000D01*
X152851968Y-123709891D01*
X153166288Y-124180305D01*
X153532501Y-124425000D01*
X153166288Y-124669695D01*
X152851968Y-125140109D01*
X152741593Y-125695000D01*
X152851968Y-126249891D01*
X153166288Y-126720305D01*
X153457934Y-126915176D01*
X153282822Y-127000402D01*
X152881700Y-127453023D01*
X152720749Y-127841622D01*
X127680160Y-127841622D01*
X127648032Y-127680109D01*
X127333712Y-127209695D01*
X126967499Y-126965000D01*
X127333712Y-126720305D01*
X127648032Y-126249891D01*
X127758407Y-125695000D01*
X127648032Y-125140109D01*
X127333712Y-124669695D01*
X126967499Y-124425000D01*
X127333712Y-124180305D01*
X127648032Y-123709891D01*
X127758407Y-123155000D01*
X127648032Y-122600109D01*
X127333712Y-122129695D01*
X126967499Y-121885000D01*
X127333712Y-121640305D01*
X127648032Y-121169891D01*
X127758407Y-120615000D01*
X127648032Y-120060109D01*
X127333712Y-119589695D01*
X126967499Y-119345000D01*
X127333712Y-119100305D01*
X127648032Y-118629891D01*
X127758407Y-118075000D01*
X127648032Y-117520109D01*
X127333712Y-117049695D01*
X126967499Y-116805000D01*
X127333712Y-116560305D01*
X127648032Y-116089891D01*
X127758407Y-115535000D01*
X127648032Y-114980109D01*
X127333712Y-114509695D01*
X126967499Y-114265000D01*
X127333712Y-114020305D01*
X127648032Y-113549891D01*
X127758407Y-112995000D01*
X127648032Y-112440109D01*
X127333712Y-111969695D01*
X126967499Y-111725000D01*
X127333712Y-111480305D01*
X127648032Y-111009891D01*
X127758407Y-110455000D01*
X127648032Y-109900109D01*
X127333712Y-109429695D01*
X126967499Y-109185000D01*
X127333712Y-108940305D01*
X127648032Y-108469891D01*
X127758407Y-107915000D01*
X127648032Y-107360109D01*
X127333712Y-106889695D01*
X126967499Y-106645000D01*
X127333712Y-106400305D01*
X127648032Y-105929891D01*
X127758407Y-105375000D01*
X127648032Y-104820109D01*
X127333712Y-104349695D01*
X126967499Y-104105000D01*
X127333712Y-103860305D01*
X127648032Y-103389891D01*
X127758407Y-102835000D01*
X127648032Y-102280109D01*
X127333712Y-101809695D01*
X126967499Y-101565000D01*
X127333712Y-101320305D01*
X127648032Y-100849891D01*
X127758407Y-100295000D01*
X127648032Y-99740109D01*
X127333712Y-99269695D01*
X126967499Y-99025000D01*
X127333712Y-98780305D01*
X127648032Y-98309891D01*
X127758407Y-97755000D01*
X127648032Y-97200109D01*
X127333712Y-96729695D01*
X127227128Y-96658478D01*
X127352346Y-96634917D01*
X127556558Y-96503510D01*
X127693556Y-96303007D01*
X127741754Y-96065000D01*
X127741754Y-94365000D01*
X127699917Y-94142654D01*
X127568510Y-93938442D01*
X127368007Y-93801444D01*
X127130000Y-93753246D01*
X125430000Y-93753246D01*
X125207654Y-93795083D01*
X125003442Y-93926490D01*
X124866444Y-94126993D01*
X124818246Y-94365000D01*
X124818246Y-96065000D01*
X124860083Y-96287346D01*
X124991490Y-96491558D01*
X125191993Y-96628556D01*
X125334472Y-96657409D01*
X125226288Y-96729695D01*
X124911968Y-97200109D01*
X124801593Y-97755000D01*
X118322930Y-97755000D01*
X118316712Y-97745695D01*
X117950499Y-97501000D01*
X118316712Y-97256305D01*
X118631032Y-96785891D01*
X118741407Y-96231000D01*
X118631032Y-95676109D01*
X118316712Y-95205695D01*
X117950499Y-94961000D01*
X118316712Y-94716305D01*
X118631032Y-94245891D01*
X118741407Y-93691000D01*
X118631032Y-93136109D01*
X118316712Y-92665695D01*
X117950499Y-92421000D01*
X118316712Y-92176305D01*
X118631032Y-91705891D01*
X118741407Y-91151000D01*
X118631032Y-90596109D01*
X118316712Y-90125695D01*
X118210128Y-90054478D01*
X118335346Y-90030917D01*
X118539558Y-89899510D01*
X118676556Y-89699007D01*
X118724754Y-89461000D01*
X118724754Y-87761000D01*
X118682917Y-87538654D01*
X118551510Y-87334442D01*
X118351007Y-87197444D01*
X118113000Y-87149246D01*
X116413000Y-87149246D01*
X116190654Y-87191083D01*
X115986442Y-87322490D01*
X115849444Y-87522993D01*
X115822783Y-87654646D01*
X115776712Y-87585695D01*
X115306298Y-87271375D01*
X114751407Y-87161000D01*
X114694593Y-87161000D01*
X114139702Y-87271375D01*
X113669288Y-87585695D01*
X113354968Y-88056109D01*
X113244593Y-88611000D01*
X104150000Y-88611000D01*
X104150000Y-78844378D01*
X113223749Y-78844378D01*
X113384700Y-79232977D01*
X113785822Y-79685598D01*
X113858562Y-79721000D01*
X113785822Y-79756402D01*
X113384700Y-80209023D01*
X113223749Y-80597622D01*
X113356651Y-80837000D01*
X114569000Y-80837000D01*
X114569000Y-78605000D01*
X113356651Y-78605000D01*
X113223749Y-78844378D01*
X104150000Y-78844378D01*
X104150000Y-47845000D01*
X109755000Y-47845000D01*
X109755000Y-71589000D01*
X109823508Y-71933415D01*
X110018604Y-72225396D01*
X111800604Y-74007396D01*
X112092585Y-74202492D01*
X112437000Y-74271000D01*
X113585562Y-74271000D01*
X113669288Y-74396305D01*
X114035501Y-74641000D01*
X113669288Y-74885695D01*
X113354968Y-75356109D01*
X113244593Y-75911000D01*
X113354968Y-76465891D01*
X113669288Y-76936305D01*
X113960934Y-77131176D01*
X113785822Y-77216402D01*
X113384700Y-77669023D01*
X113223749Y-78057622D01*
X113356651Y-78297000D01*
X114569000Y-78297000D01*
X114569000Y-78277000D01*
X114877000Y-78277000D01*
X114877000Y-78297000D01*
X114897000Y-78297000D01*
X114897000Y-78605000D01*
X114877000Y-78605000D01*
X114877000Y-80837000D01*
X114897000Y-80837000D01*
X114897000Y-81145000D01*
X114877000Y-81145000D01*
X114877000Y-81165000D01*
X114569000Y-81165000D01*
X114569000Y-81145000D01*
X113356651Y-81145000D01*
X113223749Y-81384378D01*
X113384700Y-81772977D01*
X113785822Y-82225598D01*
X113960934Y-82310824D01*
X113669288Y-82505695D01*
X113354968Y-82976109D01*
X113244593Y-83531000D01*
X113354968Y-84085891D01*
X113669288Y-84556305D01*
X114139702Y-84870625D01*
X114694593Y-84981000D01*
X114751407Y-84981000D01*
X115306298Y-84870625D01*
X115776712Y-84556305D01*
X115993000Y-84232607D01*
X116209288Y-84556305D01*
X116679702Y-84870625D01*
X117234593Y-84981000D01*
X117291407Y-84981000D01*
X117846298Y-84870625D01*
X118316712Y-84556305D01*
X118631032Y-84085891D01*
X118741407Y-83531000D01*
X118631032Y-82976109D01*
X118316712Y-82505695D01*
X117950499Y-82261000D01*
X118316712Y-82016305D01*
X118631032Y-81545891D01*
X118741407Y-80991000D01*
X118631032Y-80436109D01*
X118316712Y-79965695D01*
X117950499Y-79721000D01*
X118316712Y-79476305D01*
X118631032Y-79005891D01*
X118741407Y-78451000D01*
X118631032Y-77896109D01*
X118492647Y-77689000D01*
X129990000Y-77689000D01*
X129990000Y-114773000D01*
X129997879Y-114811906D01*
X130020273Y-114844681D01*
X130053654Y-114866161D01*
X130090000Y-114873000D01*
X150410000Y-114873000D01*
X150448906Y-114865121D01*
X150481681Y-114842727D01*
X150503161Y-114809346D01*
X150510000Y-114773000D01*
X150510000Y-77689000D01*
X150502121Y-77650094D01*
X150479727Y-77617319D01*
X150446346Y-77595839D01*
X150410000Y-77589000D01*
X130090000Y-77589000D01*
X130051094Y-77596879D01*
X130018319Y-77619273D01*
X129996839Y-77652654D01*
X129990000Y-77689000D01*
X118492647Y-77689000D01*
X118316712Y-77425695D01*
X117950499Y-77181000D01*
X118316712Y-76936305D01*
X118354334Y-76880000D01*
X118910000Y-76880000D01*
X119254415Y-76811492D01*
X119546396Y-76616396D01*
X123233396Y-72929396D01*
X123428492Y-72637416D01*
X123497000Y-72293000D01*
X123497000Y-70277378D01*
X123633749Y-70277378D01*
X123794700Y-70665977D01*
X124195822Y-71118598D01*
X124739621Y-71383262D01*
X124979000Y-71251342D01*
X124979000Y-70038000D01*
X123766651Y-70038000D01*
X123633749Y-70277378D01*
X123497000Y-70277378D01*
X123497000Y-58737646D01*
X123613717Y-58621133D01*
X123796791Y-58180242D01*
X123797134Y-57787030D01*
X124079288Y-58209305D01*
X124445501Y-58454000D01*
X124079288Y-58698695D01*
X123764968Y-59169109D01*
X123654593Y-59724000D01*
X123764968Y-60278891D01*
X124079288Y-60749305D01*
X124445501Y-60994000D01*
X124079288Y-61238695D01*
X123764968Y-61709109D01*
X123654593Y-62264000D01*
X123764968Y-62818891D01*
X124079288Y-63289305D01*
X124445501Y-63534000D01*
X124079288Y-63778695D01*
X123764968Y-64249109D01*
X123654593Y-64804000D01*
X123764968Y-65358891D01*
X124079288Y-65829305D01*
X124445501Y-66074000D01*
X124079288Y-66318695D01*
X123764968Y-66789109D01*
X123654593Y-67344000D01*
X123764968Y-67898891D01*
X124079288Y-68369305D01*
X124370934Y-68564176D01*
X124195822Y-68649402D01*
X123794700Y-69102023D01*
X123633749Y-69490622D01*
X123766651Y-69730000D01*
X124979000Y-69730000D01*
X124979000Y-69710000D01*
X125287000Y-69710000D01*
X125287000Y-69730000D01*
X125307000Y-69730000D01*
X125307000Y-70038000D01*
X125287000Y-70038000D01*
X125287000Y-71251342D01*
X125526379Y-71383262D01*
X126070178Y-71118598D01*
X126471300Y-70665977D01*
X126632251Y-70277378D01*
X126499350Y-70038002D01*
X126637828Y-70038002D01*
X126738367Y-70138717D01*
X127179258Y-70321791D01*
X127656647Y-70322207D01*
X128097857Y-70139903D01*
X128170000Y-70067886D01*
X128170000Y-71434847D01*
X128057283Y-71547367D01*
X127874209Y-71988258D01*
X127873793Y-72465647D01*
X128056097Y-72906857D01*
X128393367Y-73244717D01*
X128834258Y-73427791D01*
X129311647Y-73428207D01*
X129752857Y-73245903D01*
X130090717Y-72908633D01*
X130273791Y-72467742D01*
X130274207Y-71990353D01*
X130091903Y-71549143D01*
X129970000Y-71427027D01*
X129970000Y-59145783D01*
X130294367Y-59470717D01*
X130735258Y-59653791D01*
X131212647Y-59654207D01*
X131653857Y-59471903D01*
X131991717Y-59134633D01*
X132174791Y-58693742D01*
X132175207Y-58216353D01*
X131992903Y-57775143D01*
X131875000Y-57657034D01*
X131875000Y-56734000D01*
X158964593Y-56734000D01*
X159074968Y-57288891D01*
X159389288Y-57759305D01*
X159755501Y-58004000D01*
X159389288Y-58248695D01*
X159074968Y-58719109D01*
X158964593Y-59274000D01*
X159074968Y-59828891D01*
X159389288Y-60299305D01*
X159755501Y-60544000D01*
X159389288Y-60788695D01*
X159074968Y-61259109D01*
X158964593Y-61814000D01*
X159074968Y-62368891D01*
X159389288Y-62839305D01*
X159755501Y-63084000D01*
X159389288Y-63328695D01*
X159074968Y-63799109D01*
X158964593Y-64354000D01*
X159074968Y-64908891D01*
X159389288Y-65379305D01*
X159755501Y-65624000D01*
X159389288Y-65868695D01*
X159074968Y-66339109D01*
X158964593Y-66894000D01*
X159074968Y-67448891D01*
X159389288Y-67919305D01*
X159755501Y-68164000D01*
X159389288Y-68408695D01*
X159074968Y-68879109D01*
X158964593Y-69434000D01*
X159074968Y-69988891D01*
X159389288Y-70459305D01*
X159755501Y-70704000D01*
X159389288Y-70948695D01*
X159074968Y-71419109D01*
X158964593Y-71974000D01*
X159074968Y-72528891D01*
X159389288Y-72999305D01*
X159755501Y-73244000D01*
X159389288Y-73488695D01*
X159074968Y-73959109D01*
X158964593Y-74514000D01*
X159074968Y-75068891D01*
X159389288Y-75539305D01*
X159755501Y-75784000D01*
X159389288Y-76028695D01*
X159074968Y-76499109D01*
X158964593Y-77054000D01*
X159074968Y-77608891D01*
X159389288Y-78079305D01*
X159755501Y-78324000D01*
X159389288Y-78568695D01*
X159074968Y-79039109D01*
X158964593Y-79594000D01*
X159074968Y-80148891D01*
X159389288Y-80619305D01*
X159859702Y-80933625D01*
X160414593Y-81044000D01*
X160471407Y-81044000D01*
X161026298Y-80933625D01*
X161496712Y-80619305D01*
X161713000Y-80295607D01*
X161929288Y-80619305D01*
X162399702Y-80933625D01*
X162954593Y-81044000D01*
X163011407Y-81044000D01*
X163566298Y-80933625D01*
X164036712Y-80619305D01*
X164351032Y-80148891D01*
X164461407Y-79594000D01*
X164351032Y-79039109D01*
X164036712Y-78568695D01*
X163670499Y-78324000D01*
X164036712Y-78079305D01*
X164351032Y-77608891D01*
X164461407Y-77054000D01*
X164351032Y-76499109D01*
X164036712Y-76028695D01*
X163670499Y-75784000D01*
X164036712Y-75539305D01*
X164351032Y-75068891D01*
X164461407Y-74514000D01*
X164351032Y-73959109D01*
X164036712Y-73488695D01*
X163670499Y-73244000D01*
X164036712Y-72999305D01*
X164351032Y-72528891D01*
X164461407Y-71974000D01*
X164351032Y-71419109D01*
X164036712Y-70948695D01*
X163670499Y-70704000D01*
X164036712Y-70459305D01*
X164351032Y-69988891D01*
X164461407Y-69434000D01*
X164351032Y-68879109D01*
X164036712Y-68408695D01*
X163670499Y-68164000D01*
X164036712Y-67919305D01*
X164351032Y-67448891D01*
X164461407Y-66894000D01*
X164351032Y-66339109D01*
X164036712Y-65868695D01*
X163670499Y-65624000D01*
X164036712Y-65379305D01*
X164351032Y-64908891D01*
X164461407Y-64354000D01*
X164351032Y-63799109D01*
X164036712Y-63328695D01*
X163670499Y-63084000D01*
X164036712Y-62839305D01*
X164351032Y-62368891D01*
X164461407Y-61814000D01*
X164351032Y-61259109D01*
X164036712Y-60788695D01*
X163670499Y-60544000D01*
X164036712Y-60299305D01*
X164351032Y-59828891D01*
X164461407Y-59274000D01*
X164351032Y-58719109D01*
X164036712Y-58248695D01*
X163930128Y-58177478D01*
X164055346Y-58153917D01*
X164259558Y-58022510D01*
X164396556Y-57822007D01*
X164444754Y-57584000D01*
X164444754Y-55884000D01*
X164402917Y-55661654D01*
X164271510Y-55457442D01*
X164071007Y-55320444D01*
X163833000Y-55272246D01*
X162133000Y-55272246D01*
X161910654Y-55314083D01*
X161706442Y-55445490D01*
X161569444Y-55645993D01*
X161542783Y-55777646D01*
X161496712Y-55708695D01*
X161026298Y-55394375D01*
X160471407Y-55284000D01*
X160414593Y-55284000D01*
X159859702Y-55394375D01*
X159389288Y-55708695D01*
X159074968Y-56179109D01*
X158964593Y-56734000D01*
X131875000Y-56734000D01*
X131875000Y-56221792D01*
X134780792Y-53316000D01*
X142246854Y-53316000D01*
X142363367Y-53432717D01*
X142804258Y-53615791D01*
X143281647Y-53616207D01*
X143722857Y-53433903D01*
X144060717Y-53096633D01*
X144243791Y-52655742D01*
X144244207Y-52178353D01*
X144061903Y-51737143D01*
X143724633Y-51399283D01*
X143283742Y-51216209D01*
X142806353Y-51215793D01*
X142365143Y-51398097D01*
X142247034Y-51516000D01*
X134408000Y-51516000D01*
X134063584Y-51584508D01*
X133771604Y-51779604D01*
X130338604Y-55212604D01*
X130143508Y-55504585D01*
X130075000Y-55849000D01*
X130075000Y-57656854D01*
X129958283Y-57773367D01*
X129775209Y-58214258D01*
X129775133Y-58301476D01*
X129706396Y-58198604D01*
X128055396Y-56547604D01*
X127763415Y-56352508D01*
X127419000Y-56284000D01*
X126270438Y-56284000D01*
X126186712Y-56158695D01*
X125820499Y-55914000D01*
X126186712Y-55669305D01*
X126501032Y-55198891D01*
X126611407Y-54644000D01*
X126501032Y-54089109D01*
X126186712Y-53618695D01*
X125820499Y-53374000D01*
X126186712Y-53129305D01*
X126501032Y-52658891D01*
X126611407Y-52104000D01*
X126501032Y-51549109D01*
X126186712Y-51078695D01*
X126080128Y-51007478D01*
X126205346Y-50983917D01*
X126409558Y-50852510D01*
X126546556Y-50652007D01*
X126594754Y-50414000D01*
X126594754Y-48714000D01*
X126552917Y-48491654D01*
X126421510Y-48287442D01*
X126221007Y-48150444D01*
X125983000Y-48102246D01*
X124283000Y-48102246D01*
X124060654Y-48144083D01*
X123856442Y-48275490D01*
X123719444Y-48475993D01*
X123681371Y-48664000D01*
X122466000Y-48664000D01*
X122121584Y-48732508D01*
X121829604Y-48927604D01*
X119543604Y-51213604D01*
X119348508Y-51505585D01*
X119280000Y-51850000D01*
X119280000Y-69257208D01*
X118537208Y-70000000D01*
X118446542Y-70000000D01*
X118316712Y-69805695D01*
X117950499Y-69561000D01*
X118316712Y-69316305D01*
X118631032Y-68845891D01*
X118741407Y-68291000D01*
X118631032Y-67736109D01*
X118316712Y-67265695D01*
X118210128Y-67194478D01*
X118335346Y-67170917D01*
X118539558Y-67039510D01*
X118676556Y-66839007D01*
X118724754Y-66601000D01*
X118724754Y-64901000D01*
X118682917Y-64678654D01*
X118551510Y-64474442D01*
X118351007Y-64337444D01*
X118113000Y-64289246D01*
X116413000Y-64289246D01*
X116190654Y-64331083D01*
X115986442Y-64462490D01*
X115849444Y-64662993D01*
X115822783Y-64794646D01*
X115776712Y-64725695D01*
X115306298Y-64411375D01*
X114751407Y-64301000D01*
X114694593Y-64301000D01*
X114139702Y-64411375D01*
X113669288Y-64725695D01*
X113354968Y-65196109D01*
X113244593Y-65751000D01*
X113354968Y-66305891D01*
X113669288Y-66776305D01*
X114035501Y-67021000D01*
X113669288Y-67265695D01*
X113354968Y-67736109D01*
X113244593Y-68291000D01*
X113354968Y-68845891D01*
X113669288Y-69316305D01*
X114035501Y-69561000D01*
X113669288Y-69805695D01*
X113354968Y-70276109D01*
X113244593Y-70831000D01*
X113354968Y-71385891D01*
X113669288Y-71856305D01*
X114035501Y-72101000D01*
X113669288Y-72345695D01*
X113585562Y-72471000D01*
X112809792Y-72471000D01*
X111555000Y-71216208D01*
X111555000Y-52222792D01*
X115172729Y-48605063D01*
X115337647Y-48605207D01*
X115778857Y-48422903D01*
X116116717Y-48085633D01*
X116299791Y-47644742D01*
X116300207Y-47167353D01*
X116117903Y-46726143D01*
X115780633Y-46388283D01*
X115339742Y-46205209D01*
X114862353Y-46204793D01*
X114421143Y-46387097D01*
X114083283Y-46724367D01*
X113900209Y-47165258D01*
X113900064Y-47332144D01*
X111555000Y-49677208D01*
X111555000Y-48217792D01*
X115072729Y-44700063D01*
X115237647Y-44700207D01*
X115678857Y-44517903D01*
X116016717Y-44180633D01*
X116199791Y-43739742D01*
X116200207Y-43262353D01*
X116017903Y-42821143D01*
X115680633Y-42483283D01*
X115239742Y-42300209D01*
X114762353Y-42299793D01*
X114321143Y-42482097D01*
X113983283Y-42819367D01*
X113800209Y-43260258D01*
X113800064Y-43427144D01*
X110018604Y-47208604D01*
X109823508Y-47500585D01*
X109755000Y-47845000D01*
X104150000Y-47845000D01*
X104150000Y-33816863D01*
X107899723Y-33816863D01*
X108142795Y-34405143D01*
X108592489Y-34855623D01*
X109180344Y-35099722D01*
X109816863Y-35100277D01*
X110405143Y-34857205D01*
X110557224Y-34705389D01*
X113012400Y-34705389D01*
X113109806Y-34987246D01*
X113746713Y-35214699D01*
X114422180Y-35181103D01*
X114890194Y-34987246D01*
X114987600Y-34705389D01*
X114000000Y-33717789D01*
X113012400Y-34705389D01*
X110557224Y-34705389D01*
X110855623Y-34407511D01*
X111099722Y-33819656D01*
X111100221Y-33246713D01*
X112285301Y-33246713D01*
X112318897Y-33922180D01*
X112512754Y-34390194D01*
X112794611Y-34487600D01*
X113782211Y-33500000D01*
X114217789Y-33500000D01*
X115205389Y-34487600D01*
X115487246Y-34390194D01*
X115714699Y-33753287D01*
X115681103Y-33077820D01*
X115487246Y-32609806D01*
X115205389Y-32512400D01*
X114217789Y-33500000D01*
X113782211Y-33500000D01*
X112794611Y-32512400D01*
X112512754Y-32609806D01*
X112285301Y-33246713D01*
X111100221Y-33246713D01*
X111100277Y-33183137D01*
X110857205Y-32594857D01*
X110557483Y-32294611D01*
X113012400Y-32294611D01*
X114000000Y-33282211D01*
X114987600Y-32294611D01*
X114890194Y-32012754D01*
X114253287Y-31785301D01*
X113577820Y-31818897D01*
X113109806Y-32012754D01*
X113012400Y-32294611D01*
X110557483Y-32294611D01*
X110407511Y-32144377D01*
X109819656Y-31900278D01*
X109183137Y-31899723D01*
X108594857Y-32142795D01*
X108144377Y-32592489D01*
X107900278Y-33180344D01*
X107899723Y-33816863D01*
X104150000Y-33816863D01*
X104150000Y-27316863D01*
X107899723Y-27316863D01*
X108142795Y-27905143D01*
X108592489Y-28355623D01*
X109180344Y-28599722D01*
X109816863Y-28600277D01*
X110405143Y-28357205D01*
X110557224Y-28205389D01*
X113012400Y-28205389D01*
X113109806Y-28487246D01*
X113746713Y-28714699D01*
X114422180Y-28681103D01*
X114890194Y-28487246D01*
X114953758Y-28303314D01*
X127068763Y-28303314D01*
X127276893Y-28807029D01*
X127661944Y-29192752D01*
X128165295Y-29401762D01*
X128710314Y-29402237D01*
X129214029Y-29194107D01*
X129599752Y-28809056D01*
X129808762Y-28305705D01*
X129809237Y-27760686D01*
X129601107Y-27256971D01*
X129216056Y-26871248D01*
X128712705Y-26662238D01*
X128167686Y-26661763D01*
X127663971Y-26869893D01*
X127278248Y-27254944D01*
X127069238Y-27758295D01*
X127068763Y-28303314D01*
X114953758Y-28303314D01*
X114987600Y-28205389D01*
X114000000Y-27217789D01*
X113012400Y-28205389D01*
X110557224Y-28205389D01*
X110855623Y-27907511D01*
X111099722Y-27319656D01*
X111100221Y-26746713D01*
X112285301Y-26746713D01*
X112318897Y-27422180D01*
X112512754Y-27890194D01*
X112794611Y-27987600D01*
X113782211Y-27000000D01*
X114217789Y-27000000D01*
X115205389Y-27987600D01*
X115487246Y-27890194D01*
X115714699Y-27253287D01*
X115681103Y-26577820D01*
X115487246Y-26109806D01*
X115205389Y-26012400D01*
X114217789Y-27000000D01*
X113782211Y-27000000D01*
X112794611Y-26012400D01*
X112512754Y-26109806D01*
X112285301Y-26746713D01*
X111100221Y-26746713D01*
X111100277Y-26683137D01*
X110857205Y-26094857D01*
X110557483Y-25794611D01*
X113012400Y-25794611D01*
X114000000Y-26782211D01*
X114987600Y-25794611D01*
X114890194Y-25512754D01*
X114253287Y-25285301D01*
X113577820Y-25318897D01*
X113109806Y-25512754D01*
X113012400Y-25794611D01*
X110557483Y-25794611D01*
X110407511Y-25644377D01*
X109819656Y-25400278D01*
X109183137Y-25399723D01*
X108594857Y-25642795D01*
X108144377Y-26092489D01*
X107900278Y-26680344D01*
X107899723Y-27316863D01*
X104150000Y-27316863D01*
X104150000Y-23650000D01*
X173850000Y-23650000D01*
X173850000Y-157350000D01*
M02*
