G04 #@! TF.FileFunction,Other,Fab,Bot*
%FSLAX46Y46*%
G04 Gerber Fmt 4.6, Leading zero omitted, Abs format (unit mm)*
G04 Created by KiCad (PCBNEW 4.0.7) date Mon Nov 12 23:25:46 2018*
%MOMM*%
%LPD*%
G01*
G04 APERTURE LIST*
%ADD10C,0.100000*%
%ADD11C,0.150000*%
G04 APERTURE END LIST*
D10*
X117263000Y-64481000D02*
X113453000Y-64481000D01*
X113453000Y-64481000D02*
X113453000Y-84801000D01*
X113453000Y-84801000D02*
X118533000Y-84801000D01*
X118533000Y-84801000D02*
X118533000Y-65751000D01*
X118533000Y-65751000D02*
X117263000Y-64481000D01*
X117263000Y-87341000D02*
X113453000Y-87341000D01*
X113453000Y-87341000D02*
X113453000Y-125441000D01*
X113453000Y-125441000D02*
X118533000Y-125441000D01*
X118533000Y-125441000D02*
X118533000Y-88611000D01*
X118533000Y-88611000D02*
X117263000Y-87341000D01*
X162983000Y-55464000D02*
X159173000Y-55464000D01*
X159173000Y-55464000D02*
X159173000Y-80864000D01*
X159173000Y-80864000D02*
X164253000Y-80864000D01*
X164253000Y-80864000D02*
X164253000Y-56734000D01*
X164253000Y-56734000D02*
X162983000Y-55464000D01*
X162983000Y-82261000D02*
X159173000Y-82261000D01*
X159173000Y-82261000D02*
X159173000Y-125441000D01*
X159173000Y-125441000D02*
X164253000Y-125441000D01*
X164253000Y-125441000D02*
X164253000Y-83531000D01*
X164253000Y-83531000D02*
X162983000Y-82261000D01*
D11*
X112286143Y-67252142D02*
X112333762Y-67204523D01*
X112381381Y-67061666D01*
X112381381Y-66966428D01*
X112333762Y-66823570D01*
X112238524Y-66728332D01*
X112143286Y-66680713D01*
X111952810Y-66633094D01*
X111809952Y-66633094D01*
X111619476Y-66680713D01*
X111524238Y-66728332D01*
X111429000Y-66823570D01*
X111381381Y-66966428D01*
X111381381Y-67061666D01*
X111429000Y-67204523D01*
X111476619Y-67252142D01*
X112381381Y-67823570D02*
X112333762Y-67728332D01*
X112286143Y-67680713D01*
X112190905Y-67633094D01*
X111905190Y-67633094D01*
X111809952Y-67680713D01*
X111762333Y-67728332D01*
X111714714Y-67823570D01*
X111714714Y-67966428D01*
X111762333Y-68061666D01*
X111809952Y-68109285D01*
X111905190Y-68156904D01*
X112190905Y-68156904D01*
X112286143Y-68109285D01*
X112333762Y-68061666D01*
X112381381Y-67966428D01*
X112381381Y-67823570D01*
X111714714Y-68585475D02*
X112381381Y-68585475D01*
X111809952Y-68585475D02*
X111762333Y-68633094D01*
X111714714Y-68728332D01*
X111714714Y-68871190D01*
X111762333Y-68966428D01*
X111857571Y-69014047D01*
X112381381Y-69014047D01*
X111714714Y-69490237D02*
X112381381Y-69490237D01*
X111809952Y-69490237D02*
X111762333Y-69537856D01*
X111714714Y-69633094D01*
X111714714Y-69775952D01*
X111762333Y-69871190D01*
X111857571Y-69918809D01*
X112381381Y-69918809D01*
X112476619Y-70156904D02*
X112476619Y-70918809D01*
X111381381Y-71347380D02*
X111381381Y-71442619D01*
X111429000Y-71537857D01*
X111476619Y-71585476D01*
X111571857Y-71633095D01*
X111762333Y-71680714D01*
X112000429Y-71680714D01*
X112190905Y-71633095D01*
X112286143Y-71585476D01*
X112333762Y-71537857D01*
X112381381Y-71442619D01*
X112381381Y-71347380D01*
X112333762Y-71252142D01*
X112286143Y-71204523D01*
X112190905Y-71156904D01*
X112000429Y-71109285D01*
X111762333Y-71109285D01*
X111571857Y-71156904D01*
X111476619Y-71204523D01*
X111429000Y-71252142D01*
X111381381Y-71347380D01*
X111476619Y-72061666D02*
X111429000Y-72109285D01*
X111381381Y-72204523D01*
X111381381Y-72442619D01*
X111429000Y-72537857D01*
X111476619Y-72585476D01*
X111571857Y-72633095D01*
X111667095Y-72633095D01*
X111809952Y-72585476D01*
X112381381Y-72014047D01*
X112381381Y-72633095D01*
X112381381Y-72966428D02*
X111714714Y-73490238D01*
X111714714Y-72966428D02*
X112381381Y-73490238D01*
X111381381Y-74061666D02*
X111381381Y-74156905D01*
X111429000Y-74252143D01*
X111476619Y-74299762D01*
X111571857Y-74347381D01*
X111762333Y-74395000D01*
X112000429Y-74395000D01*
X112190905Y-74347381D01*
X112286143Y-74299762D01*
X112333762Y-74252143D01*
X112381381Y-74156905D01*
X112381381Y-74061666D01*
X112333762Y-73966428D01*
X112286143Y-73918809D01*
X112190905Y-73871190D01*
X112000429Y-73823571D01*
X111762333Y-73823571D01*
X111571857Y-73871190D01*
X111476619Y-73918809D01*
X111429000Y-73966428D01*
X111381381Y-74061666D01*
X111809952Y-74966428D02*
X111762333Y-74871190D01*
X111714714Y-74823571D01*
X111619476Y-74775952D01*
X111571857Y-74775952D01*
X111476619Y-74823571D01*
X111429000Y-74871190D01*
X111381381Y-74966428D01*
X111381381Y-75156905D01*
X111429000Y-75252143D01*
X111476619Y-75299762D01*
X111571857Y-75347381D01*
X111619476Y-75347381D01*
X111714714Y-75299762D01*
X111762333Y-75252143D01*
X111809952Y-75156905D01*
X111809952Y-74966428D01*
X111857571Y-74871190D01*
X111905190Y-74823571D01*
X112000429Y-74775952D01*
X112190905Y-74775952D01*
X112286143Y-74823571D01*
X112333762Y-74871190D01*
X112381381Y-74966428D01*
X112381381Y-75156905D01*
X112333762Y-75252143D01*
X112286143Y-75299762D01*
X112190905Y-75347381D01*
X112000429Y-75347381D01*
X111905190Y-75299762D01*
X111857571Y-75252143D01*
X111809952Y-75156905D01*
X112476619Y-75537857D02*
X112476619Y-76299762D01*
X111381381Y-76728333D02*
X111381381Y-76918810D01*
X111429000Y-77014048D01*
X111524238Y-77109286D01*
X111714714Y-77156905D01*
X112048048Y-77156905D01*
X112238524Y-77109286D01*
X112333762Y-77014048D01*
X112381381Y-76918810D01*
X112381381Y-76728333D01*
X112333762Y-76633095D01*
X112238524Y-76537857D01*
X112048048Y-76490238D01*
X111714714Y-76490238D01*
X111524238Y-76537857D01*
X111429000Y-76633095D01*
X111381381Y-76728333D01*
X112381381Y-78014048D02*
X111381381Y-78014048D01*
X112333762Y-78014048D02*
X112381381Y-77918810D01*
X112381381Y-77728333D01*
X112333762Y-77633095D01*
X112286143Y-77585476D01*
X112190905Y-77537857D01*
X111905190Y-77537857D01*
X111809952Y-77585476D01*
X111762333Y-77633095D01*
X111714714Y-77728333D01*
X111714714Y-77918810D01*
X111762333Y-78014048D01*
X112381381Y-78918810D02*
X111381381Y-78918810D01*
X112333762Y-78918810D02*
X112381381Y-78823572D01*
X112381381Y-78633095D01*
X112333762Y-78537857D01*
X112286143Y-78490238D01*
X112190905Y-78442619D01*
X111905190Y-78442619D01*
X111809952Y-78490238D01*
X111762333Y-78537857D01*
X111714714Y-78633095D01*
X111714714Y-78823572D01*
X111762333Y-78918810D01*
X112476619Y-79156905D02*
X112476619Y-79918810D01*
X111857571Y-80156905D02*
X111857571Y-80490239D01*
X112381381Y-80633096D02*
X112381381Y-80156905D01*
X111381381Y-80156905D01*
X111381381Y-80633096D01*
X111714714Y-80966429D02*
X112381381Y-81204524D01*
X111714714Y-81442620D01*
X112333762Y-82204525D02*
X112381381Y-82109287D01*
X112381381Y-81918810D01*
X112333762Y-81823572D01*
X112238524Y-81775953D01*
X111857571Y-81775953D01*
X111762333Y-81823572D01*
X111714714Y-81918810D01*
X111714714Y-82109287D01*
X111762333Y-82204525D01*
X111857571Y-82252144D01*
X111952810Y-82252144D01*
X112048048Y-81775953D01*
X111714714Y-82680715D02*
X112381381Y-82680715D01*
X111809952Y-82680715D02*
X111762333Y-82728334D01*
X111714714Y-82823572D01*
X111714714Y-82966430D01*
X111762333Y-83061668D01*
X111857571Y-83109287D01*
X112381381Y-83109287D01*
X116350143Y-73950524D02*
X116397762Y-73902905D01*
X116445381Y-73760048D01*
X116445381Y-73664810D01*
X116397762Y-73521952D01*
X116302524Y-73426714D01*
X116207286Y-73379095D01*
X116016810Y-73331476D01*
X115873952Y-73331476D01*
X115683476Y-73379095D01*
X115588238Y-73426714D01*
X115493000Y-73521952D01*
X115445381Y-73664810D01*
X115445381Y-73760048D01*
X115493000Y-73902905D01*
X115540619Y-73950524D01*
X116445381Y-74379095D02*
X115445381Y-74379095D01*
X116445381Y-74950524D01*
X115445381Y-74950524D01*
X115873952Y-75569571D02*
X115826333Y-75474333D01*
X115778714Y-75426714D01*
X115683476Y-75379095D01*
X115635857Y-75379095D01*
X115540619Y-75426714D01*
X115493000Y-75474333D01*
X115445381Y-75569571D01*
X115445381Y-75760048D01*
X115493000Y-75855286D01*
X115540619Y-75902905D01*
X115635857Y-75950524D01*
X115683476Y-75950524D01*
X115778714Y-75902905D01*
X115826333Y-75855286D01*
X115873952Y-75760048D01*
X115873952Y-75569571D01*
X115921571Y-75474333D01*
X115969190Y-75426714D01*
X116064429Y-75379095D01*
X116254905Y-75379095D01*
X116350143Y-75426714D01*
X116397762Y-75474333D01*
X116445381Y-75569571D01*
X116445381Y-75760048D01*
X116397762Y-75855286D01*
X116350143Y-75902905D01*
X116254905Y-75950524D01*
X116064429Y-75950524D01*
X115969190Y-75902905D01*
X115921571Y-75855286D01*
X115873952Y-75760048D01*
X112286143Y-97986142D02*
X112333762Y-97938523D01*
X112381381Y-97795666D01*
X112381381Y-97700428D01*
X112333762Y-97557570D01*
X112238524Y-97462332D01*
X112143286Y-97414713D01*
X111952810Y-97367094D01*
X111809952Y-97367094D01*
X111619476Y-97414713D01*
X111524238Y-97462332D01*
X111429000Y-97557570D01*
X111381381Y-97700428D01*
X111381381Y-97795666D01*
X111429000Y-97938523D01*
X111476619Y-97986142D01*
X112381381Y-98557570D02*
X112333762Y-98462332D01*
X112286143Y-98414713D01*
X112190905Y-98367094D01*
X111905190Y-98367094D01*
X111809952Y-98414713D01*
X111762333Y-98462332D01*
X111714714Y-98557570D01*
X111714714Y-98700428D01*
X111762333Y-98795666D01*
X111809952Y-98843285D01*
X111905190Y-98890904D01*
X112190905Y-98890904D01*
X112286143Y-98843285D01*
X112333762Y-98795666D01*
X112381381Y-98700428D01*
X112381381Y-98557570D01*
X111714714Y-99319475D02*
X112381381Y-99319475D01*
X111809952Y-99319475D02*
X111762333Y-99367094D01*
X111714714Y-99462332D01*
X111714714Y-99605190D01*
X111762333Y-99700428D01*
X111857571Y-99748047D01*
X112381381Y-99748047D01*
X111714714Y-100224237D02*
X112381381Y-100224237D01*
X111809952Y-100224237D02*
X111762333Y-100271856D01*
X111714714Y-100367094D01*
X111714714Y-100509952D01*
X111762333Y-100605190D01*
X111857571Y-100652809D01*
X112381381Y-100652809D01*
X112476619Y-100890904D02*
X112476619Y-101652809D01*
X111381381Y-102081380D02*
X111381381Y-102176619D01*
X111429000Y-102271857D01*
X111476619Y-102319476D01*
X111571857Y-102367095D01*
X111762333Y-102414714D01*
X112000429Y-102414714D01*
X112190905Y-102367095D01*
X112286143Y-102319476D01*
X112333762Y-102271857D01*
X112381381Y-102176619D01*
X112381381Y-102081380D01*
X112333762Y-101986142D01*
X112286143Y-101938523D01*
X112190905Y-101890904D01*
X112000429Y-101843285D01*
X111762333Y-101843285D01*
X111571857Y-101890904D01*
X111476619Y-101938523D01*
X111429000Y-101986142D01*
X111381381Y-102081380D01*
X111476619Y-102795666D02*
X111429000Y-102843285D01*
X111381381Y-102938523D01*
X111381381Y-103176619D01*
X111429000Y-103271857D01*
X111476619Y-103319476D01*
X111571857Y-103367095D01*
X111667095Y-103367095D01*
X111809952Y-103319476D01*
X112381381Y-102748047D01*
X112381381Y-103367095D01*
X112381381Y-103700428D02*
X111714714Y-104224238D01*
X111714714Y-103700428D02*
X112381381Y-104224238D01*
X112381381Y-105129000D02*
X112381381Y-104557571D01*
X112381381Y-104843285D02*
X111381381Y-104843285D01*
X111524238Y-104748047D01*
X111619476Y-104652809D01*
X111667095Y-104557571D01*
X111381381Y-106033762D02*
X111381381Y-105557571D01*
X111857571Y-105509952D01*
X111809952Y-105557571D01*
X111762333Y-105652809D01*
X111762333Y-105890905D01*
X111809952Y-105986143D01*
X111857571Y-106033762D01*
X111952810Y-106081381D01*
X112190905Y-106081381D01*
X112286143Y-106033762D01*
X112333762Y-105986143D01*
X112381381Y-105890905D01*
X112381381Y-105652809D01*
X112333762Y-105557571D01*
X112286143Y-105509952D01*
X112476619Y-106271857D02*
X112476619Y-107033762D01*
X111381381Y-107462333D02*
X111381381Y-107652810D01*
X111429000Y-107748048D01*
X111524238Y-107843286D01*
X111714714Y-107890905D01*
X112048048Y-107890905D01*
X112238524Y-107843286D01*
X112333762Y-107748048D01*
X112381381Y-107652810D01*
X112381381Y-107462333D01*
X112333762Y-107367095D01*
X112238524Y-107271857D01*
X112048048Y-107224238D01*
X111714714Y-107224238D01*
X111524238Y-107271857D01*
X111429000Y-107367095D01*
X111381381Y-107462333D01*
X112381381Y-108748048D02*
X111381381Y-108748048D01*
X112333762Y-108748048D02*
X112381381Y-108652810D01*
X112381381Y-108462333D01*
X112333762Y-108367095D01*
X112286143Y-108319476D01*
X112190905Y-108271857D01*
X111905190Y-108271857D01*
X111809952Y-108319476D01*
X111762333Y-108367095D01*
X111714714Y-108462333D01*
X111714714Y-108652810D01*
X111762333Y-108748048D01*
X112381381Y-109652810D02*
X111381381Y-109652810D01*
X112333762Y-109652810D02*
X112381381Y-109557572D01*
X112381381Y-109367095D01*
X112333762Y-109271857D01*
X112286143Y-109224238D01*
X112190905Y-109176619D01*
X111905190Y-109176619D01*
X111809952Y-109224238D01*
X111762333Y-109271857D01*
X111714714Y-109367095D01*
X111714714Y-109557572D01*
X111762333Y-109652810D01*
X112476619Y-109890905D02*
X112476619Y-110652810D01*
X111857571Y-110890905D02*
X111857571Y-111224239D01*
X112381381Y-111367096D02*
X112381381Y-110890905D01*
X111381381Y-110890905D01*
X111381381Y-111367096D01*
X111714714Y-111700429D02*
X112381381Y-111938524D01*
X111714714Y-112176620D01*
X112333762Y-112938525D02*
X112381381Y-112843287D01*
X112381381Y-112652810D01*
X112333762Y-112557572D01*
X112238524Y-112509953D01*
X111857571Y-112509953D01*
X111762333Y-112557572D01*
X111714714Y-112652810D01*
X111714714Y-112843287D01*
X111762333Y-112938525D01*
X111857571Y-112986144D01*
X111952810Y-112986144D01*
X112048048Y-112509953D01*
X111714714Y-113414715D02*
X112381381Y-113414715D01*
X111809952Y-113414715D02*
X111762333Y-113462334D01*
X111714714Y-113557572D01*
X111714714Y-113700430D01*
X111762333Y-113795668D01*
X111857571Y-113843287D01*
X112381381Y-113843287D01*
X116350143Y-105700524D02*
X116397762Y-105652905D01*
X116445381Y-105510048D01*
X116445381Y-105414810D01*
X116397762Y-105271952D01*
X116302524Y-105176714D01*
X116207286Y-105129095D01*
X116016810Y-105081476D01*
X115873952Y-105081476D01*
X115683476Y-105129095D01*
X115588238Y-105176714D01*
X115493000Y-105271952D01*
X115445381Y-105414810D01*
X115445381Y-105510048D01*
X115493000Y-105652905D01*
X115540619Y-105700524D01*
X116445381Y-106129095D02*
X115445381Y-106129095D01*
X116445381Y-106700524D01*
X115445381Y-106700524D01*
X116445381Y-107224333D02*
X116445381Y-107414809D01*
X116397762Y-107510048D01*
X116350143Y-107557667D01*
X116207286Y-107652905D01*
X116016810Y-107700524D01*
X115635857Y-107700524D01*
X115540619Y-107652905D01*
X115493000Y-107605286D01*
X115445381Y-107510048D01*
X115445381Y-107319571D01*
X115493000Y-107224333D01*
X115540619Y-107176714D01*
X115635857Y-107129095D01*
X115873952Y-107129095D01*
X115969190Y-107176714D01*
X116016810Y-107224333D01*
X116064429Y-107319571D01*
X116064429Y-107510048D01*
X116016810Y-107605286D01*
X115969190Y-107652905D01*
X115873952Y-107700524D01*
X158006143Y-59886142D02*
X158053762Y-59838523D01*
X158101381Y-59695666D01*
X158101381Y-59600428D01*
X158053762Y-59457570D01*
X157958524Y-59362332D01*
X157863286Y-59314713D01*
X157672810Y-59267094D01*
X157529952Y-59267094D01*
X157339476Y-59314713D01*
X157244238Y-59362332D01*
X157149000Y-59457570D01*
X157101381Y-59600428D01*
X157101381Y-59695666D01*
X157149000Y-59838523D01*
X157196619Y-59886142D01*
X158101381Y-60457570D02*
X158053762Y-60362332D01*
X158006143Y-60314713D01*
X157910905Y-60267094D01*
X157625190Y-60267094D01*
X157529952Y-60314713D01*
X157482333Y-60362332D01*
X157434714Y-60457570D01*
X157434714Y-60600428D01*
X157482333Y-60695666D01*
X157529952Y-60743285D01*
X157625190Y-60790904D01*
X157910905Y-60790904D01*
X158006143Y-60743285D01*
X158053762Y-60695666D01*
X158101381Y-60600428D01*
X158101381Y-60457570D01*
X157434714Y-61219475D02*
X158101381Y-61219475D01*
X157529952Y-61219475D02*
X157482333Y-61267094D01*
X157434714Y-61362332D01*
X157434714Y-61505190D01*
X157482333Y-61600428D01*
X157577571Y-61648047D01*
X158101381Y-61648047D01*
X157434714Y-62124237D02*
X158101381Y-62124237D01*
X157529952Y-62124237D02*
X157482333Y-62171856D01*
X157434714Y-62267094D01*
X157434714Y-62409952D01*
X157482333Y-62505190D01*
X157577571Y-62552809D01*
X158101381Y-62552809D01*
X158196619Y-62790904D02*
X158196619Y-63552809D01*
X157101381Y-63981380D02*
X157101381Y-64076619D01*
X157149000Y-64171857D01*
X157196619Y-64219476D01*
X157291857Y-64267095D01*
X157482333Y-64314714D01*
X157720429Y-64314714D01*
X157910905Y-64267095D01*
X158006143Y-64219476D01*
X158053762Y-64171857D01*
X158101381Y-64076619D01*
X158101381Y-63981380D01*
X158053762Y-63886142D01*
X158006143Y-63838523D01*
X157910905Y-63790904D01*
X157720429Y-63743285D01*
X157482333Y-63743285D01*
X157291857Y-63790904D01*
X157196619Y-63838523D01*
X157149000Y-63886142D01*
X157101381Y-63981380D01*
X157196619Y-64695666D02*
X157149000Y-64743285D01*
X157101381Y-64838523D01*
X157101381Y-65076619D01*
X157149000Y-65171857D01*
X157196619Y-65219476D01*
X157291857Y-65267095D01*
X157387095Y-65267095D01*
X157529952Y-65219476D01*
X158101381Y-64648047D01*
X158101381Y-65267095D01*
X158101381Y-65600428D02*
X157434714Y-66124238D01*
X157434714Y-65600428D02*
X158101381Y-66124238D01*
X158101381Y-67029000D02*
X158101381Y-66457571D01*
X158101381Y-66743285D02*
X157101381Y-66743285D01*
X157244238Y-66648047D01*
X157339476Y-66552809D01*
X157387095Y-66457571D01*
X157101381Y-67648047D02*
X157101381Y-67743286D01*
X157149000Y-67838524D01*
X157196619Y-67886143D01*
X157291857Y-67933762D01*
X157482333Y-67981381D01*
X157720429Y-67981381D01*
X157910905Y-67933762D01*
X158006143Y-67886143D01*
X158053762Y-67838524D01*
X158101381Y-67743286D01*
X158101381Y-67648047D01*
X158053762Y-67552809D01*
X158006143Y-67505190D01*
X157910905Y-67457571D01*
X157720429Y-67409952D01*
X157482333Y-67409952D01*
X157291857Y-67457571D01*
X157196619Y-67505190D01*
X157149000Y-67552809D01*
X157101381Y-67648047D01*
X158196619Y-68171857D02*
X158196619Y-68933762D01*
X157101381Y-69362333D02*
X157101381Y-69552810D01*
X157149000Y-69648048D01*
X157244238Y-69743286D01*
X157434714Y-69790905D01*
X157768048Y-69790905D01*
X157958524Y-69743286D01*
X158053762Y-69648048D01*
X158101381Y-69552810D01*
X158101381Y-69362333D01*
X158053762Y-69267095D01*
X157958524Y-69171857D01*
X157768048Y-69124238D01*
X157434714Y-69124238D01*
X157244238Y-69171857D01*
X157149000Y-69267095D01*
X157101381Y-69362333D01*
X158101381Y-70648048D02*
X157101381Y-70648048D01*
X158053762Y-70648048D02*
X158101381Y-70552810D01*
X158101381Y-70362333D01*
X158053762Y-70267095D01*
X158006143Y-70219476D01*
X157910905Y-70171857D01*
X157625190Y-70171857D01*
X157529952Y-70219476D01*
X157482333Y-70267095D01*
X157434714Y-70362333D01*
X157434714Y-70552810D01*
X157482333Y-70648048D01*
X158101381Y-71552810D02*
X157101381Y-71552810D01*
X158053762Y-71552810D02*
X158101381Y-71457572D01*
X158101381Y-71267095D01*
X158053762Y-71171857D01*
X158006143Y-71124238D01*
X157910905Y-71076619D01*
X157625190Y-71076619D01*
X157529952Y-71124238D01*
X157482333Y-71171857D01*
X157434714Y-71267095D01*
X157434714Y-71457572D01*
X157482333Y-71552810D01*
X158196619Y-71790905D02*
X158196619Y-72552810D01*
X157577571Y-72790905D02*
X157577571Y-73124239D01*
X158101381Y-73267096D02*
X158101381Y-72790905D01*
X157101381Y-72790905D01*
X157101381Y-73267096D01*
X157434714Y-73600429D02*
X158101381Y-73838524D01*
X157434714Y-74076620D01*
X158053762Y-74838525D02*
X158101381Y-74743287D01*
X158101381Y-74552810D01*
X158053762Y-74457572D01*
X157958524Y-74409953D01*
X157577571Y-74409953D01*
X157482333Y-74457572D01*
X157434714Y-74552810D01*
X157434714Y-74743287D01*
X157482333Y-74838525D01*
X157577571Y-74886144D01*
X157672810Y-74886144D01*
X157768048Y-74409953D01*
X157434714Y-75314715D02*
X158101381Y-75314715D01*
X157529952Y-75314715D02*
X157482333Y-75362334D01*
X157434714Y-75457572D01*
X157434714Y-75600430D01*
X157482333Y-75695668D01*
X157577571Y-75743287D01*
X158101381Y-75743287D01*
X162070143Y-67473524D02*
X162117762Y-67425905D01*
X162165381Y-67283048D01*
X162165381Y-67187810D01*
X162117762Y-67044952D01*
X162022524Y-66949714D01*
X161927286Y-66902095D01*
X161736810Y-66854476D01*
X161593952Y-66854476D01*
X161403476Y-66902095D01*
X161308238Y-66949714D01*
X161213000Y-67044952D01*
X161165381Y-67187810D01*
X161165381Y-67283048D01*
X161213000Y-67425905D01*
X161260619Y-67473524D01*
X162165381Y-67902095D02*
X161165381Y-67902095D01*
X162165381Y-68473524D01*
X161165381Y-68473524D01*
X161165381Y-68854476D02*
X161165381Y-69521143D01*
X162165381Y-69092571D01*
X158006143Y-90620142D02*
X158053762Y-90572523D01*
X158101381Y-90429666D01*
X158101381Y-90334428D01*
X158053762Y-90191570D01*
X157958524Y-90096332D01*
X157863286Y-90048713D01*
X157672810Y-90001094D01*
X157529952Y-90001094D01*
X157339476Y-90048713D01*
X157244238Y-90096332D01*
X157149000Y-90191570D01*
X157101381Y-90334428D01*
X157101381Y-90429666D01*
X157149000Y-90572523D01*
X157196619Y-90620142D01*
X158101381Y-91191570D02*
X158053762Y-91096332D01*
X158006143Y-91048713D01*
X157910905Y-91001094D01*
X157625190Y-91001094D01*
X157529952Y-91048713D01*
X157482333Y-91096332D01*
X157434714Y-91191570D01*
X157434714Y-91334428D01*
X157482333Y-91429666D01*
X157529952Y-91477285D01*
X157625190Y-91524904D01*
X157910905Y-91524904D01*
X158006143Y-91477285D01*
X158053762Y-91429666D01*
X158101381Y-91334428D01*
X158101381Y-91191570D01*
X157434714Y-91953475D02*
X158101381Y-91953475D01*
X157529952Y-91953475D02*
X157482333Y-92001094D01*
X157434714Y-92096332D01*
X157434714Y-92239190D01*
X157482333Y-92334428D01*
X157577571Y-92382047D01*
X158101381Y-92382047D01*
X157434714Y-92858237D02*
X158101381Y-92858237D01*
X157529952Y-92858237D02*
X157482333Y-92905856D01*
X157434714Y-93001094D01*
X157434714Y-93143952D01*
X157482333Y-93239190D01*
X157577571Y-93286809D01*
X158101381Y-93286809D01*
X158196619Y-93524904D02*
X158196619Y-94286809D01*
X157101381Y-94715380D02*
X157101381Y-94810619D01*
X157149000Y-94905857D01*
X157196619Y-94953476D01*
X157291857Y-95001095D01*
X157482333Y-95048714D01*
X157720429Y-95048714D01*
X157910905Y-95001095D01*
X158006143Y-94953476D01*
X158053762Y-94905857D01*
X158101381Y-94810619D01*
X158101381Y-94715380D01*
X158053762Y-94620142D01*
X158006143Y-94572523D01*
X157910905Y-94524904D01*
X157720429Y-94477285D01*
X157482333Y-94477285D01*
X157291857Y-94524904D01*
X157196619Y-94572523D01*
X157149000Y-94620142D01*
X157101381Y-94715380D01*
X157196619Y-95429666D02*
X157149000Y-95477285D01*
X157101381Y-95572523D01*
X157101381Y-95810619D01*
X157149000Y-95905857D01*
X157196619Y-95953476D01*
X157291857Y-96001095D01*
X157387095Y-96001095D01*
X157529952Y-95953476D01*
X158101381Y-95382047D01*
X158101381Y-96001095D01*
X158101381Y-96334428D02*
X157434714Y-96858238D01*
X157434714Y-96334428D02*
X158101381Y-96858238D01*
X158101381Y-97763000D02*
X158101381Y-97191571D01*
X158101381Y-97477285D02*
X157101381Y-97477285D01*
X157244238Y-97382047D01*
X157339476Y-97286809D01*
X157387095Y-97191571D01*
X157101381Y-98096333D02*
X157101381Y-98763000D01*
X158101381Y-98334428D01*
X158196619Y-98905857D02*
X158196619Y-99667762D01*
X157101381Y-100096333D02*
X157101381Y-100286810D01*
X157149000Y-100382048D01*
X157244238Y-100477286D01*
X157434714Y-100524905D01*
X157768048Y-100524905D01*
X157958524Y-100477286D01*
X158053762Y-100382048D01*
X158101381Y-100286810D01*
X158101381Y-100096333D01*
X158053762Y-100001095D01*
X157958524Y-99905857D01*
X157768048Y-99858238D01*
X157434714Y-99858238D01*
X157244238Y-99905857D01*
X157149000Y-100001095D01*
X157101381Y-100096333D01*
X158101381Y-101382048D02*
X157101381Y-101382048D01*
X158053762Y-101382048D02*
X158101381Y-101286810D01*
X158101381Y-101096333D01*
X158053762Y-101001095D01*
X158006143Y-100953476D01*
X157910905Y-100905857D01*
X157625190Y-100905857D01*
X157529952Y-100953476D01*
X157482333Y-101001095D01*
X157434714Y-101096333D01*
X157434714Y-101286810D01*
X157482333Y-101382048D01*
X158101381Y-102286810D02*
X157101381Y-102286810D01*
X158053762Y-102286810D02*
X158101381Y-102191572D01*
X158101381Y-102001095D01*
X158053762Y-101905857D01*
X158006143Y-101858238D01*
X157910905Y-101810619D01*
X157625190Y-101810619D01*
X157529952Y-101858238D01*
X157482333Y-101905857D01*
X157434714Y-102001095D01*
X157434714Y-102191572D01*
X157482333Y-102286810D01*
X158196619Y-102524905D02*
X158196619Y-103286810D01*
X157577571Y-103524905D02*
X157577571Y-103858239D01*
X158101381Y-104001096D02*
X158101381Y-103524905D01*
X157101381Y-103524905D01*
X157101381Y-104001096D01*
X157434714Y-104334429D02*
X158101381Y-104572524D01*
X157434714Y-104810620D01*
X158053762Y-105572525D02*
X158101381Y-105477287D01*
X158101381Y-105286810D01*
X158053762Y-105191572D01*
X157958524Y-105143953D01*
X157577571Y-105143953D01*
X157482333Y-105191572D01*
X157434714Y-105286810D01*
X157434714Y-105477287D01*
X157482333Y-105572525D01*
X157577571Y-105620144D01*
X157672810Y-105620144D01*
X157768048Y-105143953D01*
X157434714Y-106048715D02*
X158101381Y-106048715D01*
X157529952Y-106048715D02*
X157482333Y-106096334D01*
X157434714Y-106191572D01*
X157434714Y-106334430D01*
X157482333Y-106429668D01*
X157577571Y-106477287D01*
X158101381Y-106477287D01*
X162070143Y-102684334D02*
X162117762Y-102636715D01*
X162165381Y-102493858D01*
X162165381Y-102398620D01*
X162117762Y-102255762D01*
X162022524Y-102160524D01*
X161927286Y-102112905D01*
X161736810Y-102065286D01*
X161593952Y-102065286D01*
X161403476Y-102112905D01*
X161308238Y-102160524D01*
X161213000Y-102255762D01*
X161165381Y-102398620D01*
X161165381Y-102493858D01*
X161213000Y-102636715D01*
X161260619Y-102684334D01*
X162165381Y-103112905D02*
X161165381Y-103112905D01*
X162165381Y-103684334D01*
X161165381Y-103684334D01*
X162165381Y-104684334D02*
X162165381Y-104112905D01*
X162165381Y-104398619D02*
X161165381Y-104398619D01*
X161308238Y-104303381D01*
X161403476Y-104208143D01*
X161451095Y-104112905D01*
X161165381Y-105303381D02*
X161165381Y-105398620D01*
X161213000Y-105493858D01*
X161260619Y-105541477D01*
X161355857Y-105589096D01*
X161546333Y-105636715D01*
X161784429Y-105636715D01*
X161974905Y-105589096D01*
X162070143Y-105541477D01*
X162117762Y-105493858D01*
X162165381Y-105398620D01*
X162165381Y-105303381D01*
X162117762Y-105208143D01*
X162070143Y-105160524D01*
X161974905Y-105112905D01*
X161784429Y-105065286D01*
X161546333Y-105065286D01*
X161355857Y-105112905D01*
X161260619Y-105160524D01*
X161213000Y-105208143D01*
X161165381Y-105303381D01*
M02*
