M48
;DRILL file {KiCad 4.0.7} date Wed Oct 24 19:45:20 2018
;FORMAT={-:-/ absolute / inch / decimal}
FMAT,2
INCH,TZ
T1C0.016
T2C0.030
T3C0.039
T4C0.043
%
G90
G05
M72
T1
X4.5276Y-1.7126
X4.5315Y-1.8663
X4.7242Y-1.4261
X4.8267Y-2.2811
X5.0165Y-2.7213
X5.0817Y-2.8436
X5.1565Y-2.3013
X5.6317Y-2.0636
X6.0717Y-5.2736
X6.0717Y-5.4986
X6.2315Y-5.3413
T2
X4.5315Y-5.6913
X4.5315Y-5.7913
X4.5315Y-5.8913
X4.5315Y-5.9913
X4.5315Y-6.0913
X4.6315Y-5.6913
X4.6315Y-5.7913
X4.6315Y-5.8913
X4.6315Y-5.9913
X4.6315Y-6.0913
X6.2815Y-5.6913
X6.2815Y-5.7913
X6.2815Y-5.8913
X6.2815Y-5.9913
X6.2815Y-6.0913
X6.3815Y-5.6913
X6.3815Y-5.7913
X6.3815Y-5.8913
X6.3815Y-5.9913
X6.3815Y-6.0913
T3
X4.5167Y-2.5886
X4.5167Y-2.6886
X4.5167Y-2.7886
X4.5167Y-2.8886
X4.5167Y-2.9886
X4.5167Y-3.0886
X4.5167Y-3.1886
X4.5167Y-3.2886
X4.5167Y-3.4886
X4.5167Y-3.5886
X4.5167Y-3.6886
X4.5167Y-3.7886
X4.5167Y-3.8886
X4.5167Y-3.9886
X4.5167Y-4.0886
X4.5167Y-4.1886
X4.5167Y-4.2886
X4.5167Y-4.3886
X4.5167Y-4.4886
X4.5167Y-4.5886
X4.5167Y-4.6886
X4.5167Y-4.7886
X4.5167Y-4.8886
X4.6167Y-2.5886
X4.6167Y-2.6886
X4.6167Y-2.7886
X4.6167Y-2.8886
X4.6167Y-2.9886
X4.6167Y-3.0886
X4.6167Y-3.1886
X4.6167Y-3.2886
X4.6167Y-3.4886
X4.6167Y-3.5886
X4.6167Y-3.6886
X4.6167Y-3.7886
X4.6167Y-3.8886
X4.6167Y-3.9886
X4.6167Y-4.0886
X4.6167Y-4.1886
X4.6167Y-4.2886
X4.6167Y-4.3886
X4.6167Y-4.4886
X4.6167Y-4.5886
X4.6167Y-4.6886
X4.6167Y-4.7886
X4.6167Y-4.8886
X4.9265Y-1.9513
X4.9265Y-2.0513
X4.9265Y-2.1513
X4.9265Y-2.2513
X4.9265Y-2.3513
X4.9265Y-2.4513
X4.9265Y-2.5513
X4.9265Y-2.6513
X4.9265Y-2.7513
X4.9717Y-3.7486
X4.9717Y-3.8486
X4.9717Y-3.9486
X4.9717Y-4.0486
X4.9717Y-4.1486
X4.9717Y-4.2486
X4.9717Y-4.3486
X4.9717Y-4.4486
X4.9717Y-4.5486
X4.9717Y-4.6486
X4.9717Y-4.7486
X4.9717Y-4.8486
X4.9717Y-4.9486
X4.9717Y-5.0486
X4.9717Y-5.1486
X6.0717Y-3.7486
X6.0717Y-3.8486
X6.0717Y-3.9486
X6.0717Y-4.0486
X6.0717Y-4.1486
X6.0717Y-4.2486
X6.0717Y-4.3486
X6.0717Y-4.4486
X6.0717Y-4.5486
X6.0717Y-4.6486
X6.0717Y-4.7486
X6.0717Y-4.8486
X6.0717Y-4.9486
X6.0717Y-5.0486
X6.0717Y-5.1486
X6.3167Y-2.2336
X6.3167Y-2.3336
X6.3167Y-2.4336
X6.3167Y-2.5336
X6.3167Y-2.6336
X6.3167Y-2.7336
X6.3167Y-2.8336
X6.3167Y-2.9336
X6.3167Y-3.0336
X6.3167Y-3.1336
X6.3167Y-3.2886
X6.3167Y-3.3886
X6.3167Y-3.4886
X6.3167Y-3.5886
X6.3167Y-3.6886
X6.3167Y-3.7886
X6.3167Y-3.8886
X6.3167Y-3.9886
X6.3167Y-4.0886
X6.3167Y-4.1886
X6.3167Y-4.2886
X6.3167Y-4.3886
X6.3167Y-4.4886
X6.3167Y-4.5886
X6.3167Y-4.6886
X6.3167Y-4.7886
X6.3167Y-4.8886
X6.4167Y-2.2336
X6.4167Y-2.3336
X6.4167Y-2.4336
X6.4167Y-2.5336
X6.4167Y-2.6336
X6.4167Y-2.7336
X6.4167Y-2.8336
X6.4167Y-2.9336
X6.4167Y-3.0336
X6.4167Y-3.1336
X6.4167Y-3.2886
X6.4167Y-3.3886
X6.4167Y-3.4886
X6.4167Y-3.5886
X6.4167Y-3.6886
X6.4167Y-3.7886
X6.4167Y-3.8886
X6.4167Y-3.9886
X6.4167Y-4.0886
X6.4167Y-4.1886
X6.4167Y-4.2886
X6.4167Y-4.3886
X6.4167Y-4.4886
X6.4167Y-4.5886
X6.4167Y-4.6886
X6.4167Y-4.7886
X6.4167Y-4.8886
T4
X4.311Y-1.063
X4.311Y-1.3189
X4.4882Y-1.063
X4.4882Y-1.3189
T0
M30
