G04 #@! TF.FileFunction,Legend,Top*
%FSLAX46Y46*%
G04 Gerber Fmt 4.6, Leading zero omitted, Abs format (unit mm)*
G04 Created by KiCad (PCBNEW 4.0.7) date Mon Nov 12 23:25:46 2018*
%MOMM*%
%LPD*%
G01*
G04 APERTURE LIST*
%ADD10C,0.100000*%
%ADD11C,0.200000*%
%ADD12C,0.300000*%
%ADD13C,0.150000*%
%ADD14C,0.120000*%
%ADD15C,0.800000*%
G04 APERTURE END LIST*
D10*
D11*
X159109500Y-125504500D02*
X159109500Y-82197500D01*
X164316500Y-125504500D02*
X159109500Y-125504500D01*
X164316500Y-84801000D02*
X164316500Y-125504500D01*
X161713000Y-84801000D02*
X164316500Y-84801000D01*
X161713000Y-82197500D02*
X161713000Y-84801000D01*
X159109500Y-82197500D02*
X161713000Y-82197500D01*
X159109500Y-80927500D02*
X159109500Y-55400500D01*
X164316500Y-80927500D02*
X159109500Y-80927500D01*
X164316500Y-58004000D02*
X164316500Y-80927500D01*
X161713000Y-58004000D02*
X164316500Y-58004000D01*
X161713000Y-55400500D02*
X161713000Y-58004000D01*
X159109500Y-55400500D02*
X161713000Y-55400500D01*
X164316500Y-55400500D02*
X164316500Y-56734000D01*
X162983000Y-55400500D02*
X164316500Y-55400500D01*
X113389500Y-125504500D02*
X113389500Y-87277500D01*
X113453000Y-125504500D02*
X113389500Y-125504500D01*
X118596500Y-125504500D02*
X113453000Y-125504500D01*
X118596500Y-89881000D02*
X118596500Y-125504500D01*
X115993000Y-89881000D02*
X118596500Y-89881000D01*
X115993000Y-87277500D02*
X115993000Y-89881000D01*
X113389500Y-87277500D02*
X115993000Y-87277500D01*
X118596500Y-87277500D02*
X118596500Y-88611000D01*
X117263000Y-87277500D02*
X118596500Y-87277500D01*
X118596500Y-64417500D02*
X118596500Y-65687500D01*
X117263000Y-64417500D02*
X118596500Y-64417500D01*
X113389500Y-84864500D02*
X113389500Y-64417500D01*
X118596500Y-84864500D02*
X113389500Y-84864500D01*
X118596500Y-67021000D02*
X118596500Y-84864500D01*
X115993000Y-67021000D02*
X118596500Y-67021000D01*
X115993000Y-64417500D02*
X115993000Y-67021000D01*
X113389500Y-64417500D02*
X115993000Y-64417500D01*
D12*
X169903571Y-147785714D02*
X169189286Y-148285714D01*
X169903571Y-148642857D02*
X168403571Y-148642857D01*
X168403571Y-148071429D01*
X168475000Y-147928571D01*
X168546429Y-147857143D01*
X168689286Y-147785714D01*
X168903571Y-147785714D01*
X169046429Y-147857143D01*
X169117857Y-147928571D01*
X169189286Y-148071429D01*
X169189286Y-148642857D01*
X169832143Y-146571429D02*
X169903571Y-146714286D01*
X169903571Y-147000000D01*
X169832143Y-147142857D01*
X169689286Y-147214286D01*
X169117857Y-147214286D01*
X168975000Y-147142857D01*
X168903571Y-147000000D01*
X168903571Y-146714286D01*
X168975000Y-146571429D01*
X169117857Y-146500000D01*
X169260714Y-146500000D01*
X169403571Y-147214286D01*
X168903571Y-146000000D02*
X169903571Y-145642857D01*
X168903571Y-145285715D01*
X169760714Y-144714286D02*
X169832143Y-144642858D01*
X169903571Y-144714286D01*
X169832143Y-144785715D01*
X169760714Y-144714286D01*
X169903571Y-144714286D01*
X168975000Y-144714286D02*
X169046429Y-144642858D01*
X169117857Y-144714286D01*
X169046429Y-144785715D01*
X168975000Y-144714286D01*
X169117857Y-144714286D01*
X169903571Y-142071429D02*
X169903571Y-142928572D01*
X169903571Y-142500000D02*
X168403571Y-142500000D01*
X168617857Y-142642857D01*
X168760714Y-142785715D01*
X168832143Y-142928572D01*
X169760714Y-141428572D02*
X169832143Y-141357144D01*
X169903571Y-141428572D01*
X169832143Y-141500001D01*
X169760714Y-141428572D01*
X169903571Y-141428572D01*
X168403571Y-140428572D02*
X168403571Y-140285715D01*
X168475000Y-140142858D01*
X168546429Y-140071429D01*
X168689286Y-140000000D01*
X168975000Y-139928572D01*
X169332143Y-139928572D01*
X169617857Y-140000000D01*
X169760714Y-140071429D01*
X169832143Y-140142858D01*
X169903571Y-140285715D01*
X169903571Y-140428572D01*
X169832143Y-140571429D01*
X169760714Y-140642858D01*
X169617857Y-140714286D01*
X169332143Y-140785715D01*
X168975000Y-140785715D01*
X168689286Y-140714286D01*
X168546429Y-140642858D01*
X168475000Y-140571429D01*
X168403571Y-140428572D01*
X171667857Y-148142857D02*
X171667857Y-148642857D01*
X172453571Y-148642857D02*
X170953571Y-148642857D01*
X170953571Y-147928571D01*
X172382143Y-146785715D02*
X172453571Y-146928572D01*
X172453571Y-147214286D01*
X172382143Y-147357143D01*
X172239286Y-147428572D01*
X171667857Y-147428572D01*
X171525000Y-147357143D01*
X171453571Y-147214286D01*
X171453571Y-146928572D01*
X171525000Y-146785715D01*
X171667857Y-146714286D01*
X171810714Y-146714286D01*
X171953571Y-147428572D01*
X172382143Y-145428572D02*
X172453571Y-145571429D01*
X172453571Y-145857143D01*
X172382143Y-146000001D01*
X172310714Y-146071429D01*
X172167857Y-146142858D01*
X171739286Y-146142858D01*
X171596429Y-146071429D01*
X171525000Y-146000001D01*
X171453571Y-145857143D01*
X171453571Y-145571429D01*
X171525000Y-145428572D01*
X172453571Y-144785715D02*
X170953571Y-144785715D01*
X172453571Y-144142858D02*
X171667857Y-144142858D01*
X171525000Y-144214287D01*
X171453571Y-144357144D01*
X171453571Y-144571429D01*
X171525000Y-144714287D01*
X171596429Y-144785715D01*
X172453571Y-142785715D02*
X171667857Y-142785715D01*
X171525000Y-142857144D01*
X171453571Y-143000001D01*
X171453571Y-143285715D01*
X171525000Y-143428572D01*
X172382143Y-142785715D02*
X172453571Y-142928572D01*
X172453571Y-143285715D01*
X172382143Y-143428572D01*
X172239286Y-143500001D01*
X172096429Y-143500001D01*
X171953571Y-143428572D01*
X171882143Y-143285715D01*
X171882143Y-142928572D01*
X171810714Y-142785715D01*
X172310714Y-142071429D02*
X172382143Y-142000001D01*
X172453571Y-142071429D01*
X172382143Y-142142858D01*
X172310714Y-142071429D01*
X172453571Y-142071429D01*
X171525000Y-142071429D02*
X171596429Y-142000001D01*
X171667857Y-142071429D01*
X171596429Y-142142858D01*
X171525000Y-142071429D01*
X171667857Y-142071429D01*
X171096429Y-140285715D02*
X171025000Y-140214286D01*
X170953571Y-140071429D01*
X170953571Y-139714286D01*
X171025000Y-139571429D01*
X171096429Y-139500000D01*
X171239286Y-139428572D01*
X171382143Y-139428572D01*
X171596429Y-139500000D01*
X172453571Y-140357143D01*
X172453571Y-139428572D01*
X170953571Y-138500001D02*
X170953571Y-138357144D01*
X171025000Y-138214287D01*
X171096429Y-138142858D01*
X171239286Y-138071429D01*
X171525000Y-138000001D01*
X171882143Y-138000001D01*
X172167857Y-138071429D01*
X172310714Y-138142858D01*
X172382143Y-138214287D01*
X172453571Y-138357144D01*
X172453571Y-138500001D01*
X172382143Y-138642858D01*
X172310714Y-138714287D01*
X172167857Y-138785715D01*
X171882143Y-138857144D01*
X171525000Y-138857144D01*
X171239286Y-138785715D01*
X171096429Y-138714287D01*
X171025000Y-138642858D01*
X170953571Y-138500001D01*
X172453571Y-136571430D02*
X172453571Y-137428573D01*
X172453571Y-137000001D02*
X170953571Y-137000001D01*
X171167857Y-137142858D01*
X171310714Y-137285716D01*
X171382143Y-137428573D01*
X171596429Y-135714287D02*
X171525000Y-135857145D01*
X171453571Y-135928573D01*
X171310714Y-136000002D01*
X171239286Y-136000002D01*
X171096429Y-135928573D01*
X171025000Y-135857145D01*
X170953571Y-135714287D01*
X170953571Y-135428573D01*
X171025000Y-135285716D01*
X171096429Y-135214287D01*
X171239286Y-135142859D01*
X171310714Y-135142859D01*
X171453571Y-135214287D01*
X171525000Y-135285716D01*
X171596429Y-135428573D01*
X171596429Y-135714287D01*
X171667857Y-135857145D01*
X171739286Y-135928573D01*
X171882143Y-136000002D01*
X172167857Y-136000002D01*
X172310714Y-135928573D01*
X172382143Y-135857145D01*
X172453571Y-135714287D01*
X172453571Y-135428573D01*
X172382143Y-135285716D01*
X172310714Y-135214287D01*
X172167857Y-135142859D01*
X171882143Y-135142859D01*
X171739286Y-135214287D01*
X171667857Y-135285716D01*
X171596429Y-135428573D01*
X171882143Y-134500002D02*
X171882143Y-133357145D01*
X172453571Y-131857145D02*
X172453571Y-132714288D01*
X172453571Y-132285716D02*
X170953571Y-132285716D01*
X171167857Y-132428573D01*
X171310714Y-132571431D01*
X171382143Y-132714288D01*
X170953571Y-130928574D02*
X170953571Y-130785717D01*
X171025000Y-130642860D01*
X171096429Y-130571431D01*
X171239286Y-130500002D01*
X171525000Y-130428574D01*
X171882143Y-130428574D01*
X172167857Y-130500002D01*
X172310714Y-130571431D01*
X172382143Y-130642860D01*
X172453571Y-130785717D01*
X172453571Y-130928574D01*
X172382143Y-131071431D01*
X172310714Y-131142860D01*
X172167857Y-131214288D01*
X171882143Y-131285717D01*
X171525000Y-131285717D01*
X171239286Y-131214288D01*
X171096429Y-131142860D01*
X171025000Y-131071431D01*
X170953571Y-130928574D01*
X104678571Y-60785714D02*
X106178571Y-60428571D01*
X105107143Y-60142857D01*
X106178571Y-59857143D01*
X104678571Y-59500000D01*
X106107143Y-58357143D02*
X106178571Y-58500000D01*
X106178571Y-58785714D01*
X106107143Y-58928571D01*
X105964286Y-59000000D01*
X105392857Y-59000000D01*
X105250000Y-58928571D01*
X105178571Y-58785714D01*
X105178571Y-58500000D01*
X105250000Y-58357143D01*
X105392857Y-58285714D01*
X105535714Y-58285714D01*
X105678571Y-59000000D01*
X106178571Y-57642857D02*
X104678571Y-57642857D01*
X105250000Y-57642857D02*
X105178571Y-57500000D01*
X105178571Y-57214286D01*
X105250000Y-57071429D01*
X105321429Y-57000000D01*
X105464286Y-56928571D01*
X105892857Y-56928571D01*
X106035714Y-57000000D01*
X106107143Y-57071429D01*
X106178571Y-57214286D01*
X106178571Y-57500000D01*
X106107143Y-57642857D01*
X106035714Y-56285714D02*
X106107143Y-56214286D01*
X106178571Y-56285714D01*
X106107143Y-56357143D01*
X106035714Y-56285714D01*
X106178571Y-56285714D01*
X105250000Y-56285714D02*
X105321429Y-56214286D01*
X105392857Y-56285714D01*
X105321429Y-56357143D01*
X105250000Y-56285714D01*
X105392857Y-56285714D01*
X106178571Y-54428571D02*
X104678571Y-54428571D01*
X106178571Y-53785714D02*
X105392857Y-53785714D01*
X105250000Y-53857143D01*
X105178571Y-54000000D01*
X105178571Y-54214285D01*
X105250000Y-54357143D01*
X105321429Y-54428571D01*
X105178571Y-53285714D02*
X105178571Y-52714285D01*
X104678571Y-53071428D02*
X105964286Y-53071428D01*
X106107143Y-53000000D01*
X106178571Y-52857142D01*
X106178571Y-52714285D01*
X105178571Y-52428571D02*
X105178571Y-51857142D01*
X104678571Y-52214285D02*
X105964286Y-52214285D01*
X106107143Y-52142857D01*
X106178571Y-51999999D01*
X106178571Y-51857142D01*
X105178571Y-51357142D02*
X106678571Y-51357142D01*
X105250000Y-51357142D02*
X105178571Y-51214285D01*
X105178571Y-50928571D01*
X105250000Y-50785714D01*
X105321429Y-50714285D01*
X105464286Y-50642856D01*
X105892857Y-50642856D01*
X106035714Y-50714285D01*
X106107143Y-50785714D01*
X106178571Y-50928571D01*
X106178571Y-51214285D01*
X106107143Y-51357142D01*
X106107143Y-50071428D02*
X106178571Y-49928571D01*
X106178571Y-49642856D01*
X106107143Y-49499999D01*
X105964286Y-49428571D01*
X105892857Y-49428571D01*
X105750000Y-49499999D01*
X105678571Y-49642856D01*
X105678571Y-49857142D01*
X105607143Y-49999999D01*
X105464286Y-50071428D01*
X105392857Y-50071428D01*
X105250000Y-49999999D01*
X105178571Y-49857142D01*
X105178571Y-49642856D01*
X105250000Y-49499999D01*
X106035714Y-48785713D02*
X106107143Y-48714285D01*
X106178571Y-48785713D01*
X106107143Y-48857142D01*
X106035714Y-48785713D01*
X106178571Y-48785713D01*
X105250000Y-48785713D02*
X105321429Y-48714285D01*
X105392857Y-48785713D01*
X105321429Y-48857142D01*
X105250000Y-48785713D01*
X105392857Y-48785713D01*
X104607143Y-46999999D02*
X106535714Y-48285713D01*
X104607143Y-45428570D02*
X106535714Y-46714284D01*
X105178571Y-45071426D02*
X106178571Y-44785712D01*
X105464286Y-44499998D01*
X106178571Y-44214283D01*
X105178571Y-43928569D01*
X105178571Y-43499997D02*
X106178571Y-43214283D01*
X105464286Y-42928569D01*
X106178571Y-42642854D01*
X105178571Y-42357140D01*
X105178571Y-41928568D02*
X106178571Y-41642854D01*
X105464286Y-41357140D01*
X106178571Y-41071425D01*
X105178571Y-40785711D01*
X106035714Y-40214282D02*
X106107143Y-40142854D01*
X106178571Y-40214282D01*
X106107143Y-40285711D01*
X106035714Y-40214282D01*
X106178571Y-40214282D01*
X106107143Y-38928568D02*
X106178571Y-39071425D01*
X106178571Y-39357139D01*
X106107143Y-39499996D01*
X105964286Y-39571425D01*
X105392857Y-39571425D01*
X105250000Y-39499996D01*
X105178571Y-39357139D01*
X105178571Y-39071425D01*
X105250000Y-38928568D01*
X105392857Y-38857139D01*
X105535714Y-38857139D01*
X105678571Y-39571425D01*
X106178571Y-38214282D02*
X105178571Y-38214282D01*
X105464286Y-38214282D02*
X105321429Y-38142854D01*
X105250000Y-38071425D01*
X105178571Y-37928568D01*
X105178571Y-37785711D01*
X106178571Y-37285711D02*
X105178571Y-37285711D01*
X104678571Y-37285711D02*
X104750000Y-37357140D01*
X104821429Y-37285711D01*
X104750000Y-37214283D01*
X104678571Y-37285711D01*
X104821429Y-37285711D01*
X106107143Y-35928568D02*
X106178571Y-36071425D01*
X106178571Y-36357139D01*
X106107143Y-36499997D01*
X106035714Y-36571425D01*
X105892857Y-36642854D01*
X105464286Y-36642854D01*
X105321429Y-36571425D01*
X105250000Y-36499997D01*
X105178571Y-36357139D01*
X105178571Y-36071425D01*
X105250000Y-35928568D01*
X106107143Y-35357140D02*
X106178571Y-35214283D01*
X106178571Y-34928568D01*
X106107143Y-34785711D01*
X105964286Y-34714283D01*
X105892857Y-34714283D01*
X105750000Y-34785711D01*
X105678571Y-34928568D01*
X105678571Y-35142854D01*
X105607143Y-35285711D01*
X105464286Y-35357140D01*
X105392857Y-35357140D01*
X105250000Y-35285711D01*
X105178571Y-35142854D01*
X105178571Y-34928568D01*
X105250000Y-34785711D01*
X106178571Y-33857139D02*
X106107143Y-33999997D01*
X106035714Y-34071425D01*
X105892857Y-34142854D01*
X105464286Y-34142854D01*
X105321429Y-34071425D01*
X105250000Y-33999997D01*
X105178571Y-33857139D01*
X105178571Y-33642854D01*
X105250000Y-33499997D01*
X105321429Y-33428568D01*
X105464286Y-33357139D01*
X105892857Y-33357139D01*
X106035714Y-33428568D01*
X106107143Y-33499997D01*
X106178571Y-33642854D01*
X106178571Y-33857139D01*
X105178571Y-32714282D02*
X106178571Y-32714282D01*
X105321429Y-32714282D02*
X105250000Y-32642854D01*
X105178571Y-32499996D01*
X105178571Y-32285711D01*
X105250000Y-32142854D01*
X105392857Y-32071425D01*
X106178571Y-32071425D01*
X105178571Y-31357139D02*
X106464286Y-31357139D01*
X106607143Y-31428568D01*
X106678571Y-31571425D01*
X106678571Y-31642853D01*
X104678571Y-31357139D02*
X104750000Y-31428568D01*
X104821429Y-31357139D01*
X104750000Y-31285711D01*
X104678571Y-31357139D01*
X104821429Y-31357139D01*
X106035714Y-30642853D02*
X106107143Y-30571425D01*
X106178571Y-30642853D01*
X106107143Y-30714282D01*
X106035714Y-30642853D01*
X106178571Y-30642853D01*
X105178571Y-29928567D02*
X106178571Y-29928567D01*
X105321429Y-29928567D02*
X105250000Y-29857139D01*
X105178571Y-29714281D01*
X105178571Y-29499996D01*
X105250000Y-29357139D01*
X105392857Y-29285710D01*
X106178571Y-29285710D01*
X106107143Y-27999996D02*
X106178571Y-28142853D01*
X106178571Y-28428567D01*
X106107143Y-28571424D01*
X105964286Y-28642853D01*
X105392857Y-28642853D01*
X105250000Y-28571424D01*
X105178571Y-28428567D01*
X105178571Y-28142853D01*
X105250000Y-27999996D01*
X105392857Y-27928567D01*
X105535714Y-27928567D01*
X105678571Y-28642853D01*
X105178571Y-27499996D02*
X105178571Y-26928567D01*
X104678571Y-27285710D02*
X105964286Y-27285710D01*
X106107143Y-27214282D01*
X106178571Y-27071424D01*
X106178571Y-26928567D01*
X105475000Y-99714286D02*
X105475000Y-99000000D01*
X105903571Y-99857143D02*
X104403571Y-99357143D01*
X105903571Y-98857143D01*
X104903571Y-97714286D02*
X105903571Y-97714286D01*
X104903571Y-98357143D02*
X105689286Y-98357143D01*
X105832143Y-98285715D01*
X105903571Y-98142857D01*
X105903571Y-97928572D01*
X105832143Y-97785715D01*
X105760714Y-97714286D01*
X104903571Y-97214286D02*
X104903571Y-96642857D01*
X104403571Y-97000000D02*
X105689286Y-97000000D01*
X105832143Y-96928572D01*
X105903571Y-96785714D01*
X105903571Y-96642857D01*
X105903571Y-95928571D02*
X105832143Y-96071429D01*
X105760714Y-96142857D01*
X105617857Y-96214286D01*
X105189286Y-96214286D01*
X105046429Y-96142857D01*
X104975000Y-96071429D01*
X104903571Y-95928571D01*
X104903571Y-95714286D01*
X104975000Y-95571429D01*
X105046429Y-95500000D01*
X105189286Y-95428571D01*
X105617857Y-95428571D01*
X105760714Y-95500000D01*
X105832143Y-95571429D01*
X105903571Y-95714286D01*
X105903571Y-95928571D01*
X105903571Y-94785714D02*
X104903571Y-94785714D01*
X105189286Y-94785714D02*
X105046429Y-94714286D01*
X104975000Y-94642857D01*
X104903571Y-94500000D01*
X104903571Y-94357143D01*
X105760714Y-93857143D02*
X105832143Y-93785715D01*
X105903571Y-93857143D01*
X105832143Y-93928572D01*
X105760714Y-93857143D01*
X105903571Y-93857143D01*
X104975000Y-93857143D02*
X105046429Y-93785715D01*
X105117857Y-93857143D01*
X105046429Y-93928572D01*
X104975000Y-93857143D01*
X105117857Y-93857143D01*
X105117857Y-92000000D02*
X105117857Y-91500000D01*
X105903571Y-91285714D02*
X105903571Y-92000000D01*
X104403571Y-92000000D01*
X104403571Y-91285714D01*
X105903571Y-90642857D02*
X104903571Y-90642857D01*
X105189286Y-90642857D02*
X105046429Y-90571429D01*
X104975000Y-90500000D01*
X104903571Y-90357143D01*
X104903571Y-90214286D01*
X105903571Y-89714286D02*
X104903571Y-89714286D01*
X104403571Y-89714286D02*
X104475000Y-89785715D01*
X104546429Y-89714286D01*
X104475000Y-89642858D01*
X104403571Y-89714286D01*
X104546429Y-89714286D01*
X105832143Y-88357143D02*
X105903571Y-88500000D01*
X105903571Y-88785714D01*
X105832143Y-88928572D01*
X105760714Y-89000000D01*
X105617857Y-89071429D01*
X105189286Y-89071429D01*
X105046429Y-89000000D01*
X104975000Y-88928572D01*
X104903571Y-88785714D01*
X104903571Y-88500000D01*
X104975000Y-88357143D01*
X105832143Y-87785715D02*
X105903571Y-87642858D01*
X105903571Y-87357143D01*
X105832143Y-87214286D01*
X105689286Y-87142858D01*
X105617857Y-87142858D01*
X105475000Y-87214286D01*
X105403571Y-87357143D01*
X105403571Y-87571429D01*
X105332143Y-87714286D01*
X105189286Y-87785715D01*
X105117857Y-87785715D01*
X104975000Y-87714286D01*
X104903571Y-87571429D01*
X104903571Y-87357143D01*
X104975000Y-87214286D01*
X105903571Y-86285714D02*
X105832143Y-86428572D01*
X105760714Y-86500000D01*
X105617857Y-86571429D01*
X105189286Y-86571429D01*
X105046429Y-86500000D01*
X104975000Y-86428572D01*
X104903571Y-86285714D01*
X104903571Y-86071429D01*
X104975000Y-85928572D01*
X105046429Y-85857143D01*
X105189286Y-85785714D01*
X105617857Y-85785714D01*
X105760714Y-85857143D01*
X105832143Y-85928572D01*
X105903571Y-86071429D01*
X105903571Y-86285714D01*
X104903571Y-85142857D02*
X105903571Y-85142857D01*
X105046429Y-85142857D02*
X104975000Y-85071429D01*
X104903571Y-84928571D01*
X104903571Y-84714286D01*
X104975000Y-84571429D01*
X105117857Y-84500000D01*
X105903571Y-84500000D01*
X104403571Y-82214286D02*
X105475000Y-82214286D01*
X105689286Y-82285714D01*
X105832143Y-82428571D01*
X105903571Y-82642857D01*
X105903571Y-82785714D01*
X105760714Y-81500000D02*
X105832143Y-81428572D01*
X105903571Y-81500000D01*
X105832143Y-81571429D01*
X105760714Y-81500000D01*
X105903571Y-81500000D01*
X105117857Y-79642857D02*
X105117857Y-79142857D01*
X105903571Y-78928571D02*
X105903571Y-79642857D01*
X104403571Y-79642857D01*
X104403571Y-78928571D01*
X105832143Y-78357143D02*
X105903571Y-78214286D01*
X105903571Y-77928571D01*
X105832143Y-77785714D01*
X105689286Y-77714286D01*
X105617857Y-77714286D01*
X105475000Y-77785714D01*
X105403571Y-77928571D01*
X105403571Y-78142857D01*
X105332143Y-78285714D01*
X105189286Y-78357143D01*
X105117857Y-78357143D01*
X104975000Y-78285714D01*
X104903571Y-78142857D01*
X104903571Y-77928571D01*
X104975000Y-77785714D01*
X104903571Y-77285714D02*
X104903571Y-76714285D01*
X104403571Y-77071428D02*
X105689286Y-77071428D01*
X105832143Y-77000000D01*
X105903571Y-76857142D01*
X105903571Y-76714285D01*
X104903571Y-75571428D02*
X105903571Y-75571428D01*
X104903571Y-76214285D02*
X105689286Y-76214285D01*
X105832143Y-76142857D01*
X105903571Y-75999999D01*
X105903571Y-75785714D01*
X105832143Y-75642857D01*
X105760714Y-75571428D01*
X104903571Y-74857142D02*
X106403571Y-74857142D01*
X104975000Y-74857142D02*
X104903571Y-74714285D01*
X104903571Y-74428571D01*
X104975000Y-74285714D01*
X105046429Y-74214285D01*
X105189286Y-74142856D01*
X105617857Y-74142856D01*
X105760714Y-74214285D01*
X105832143Y-74285714D01*
X105903571Y-74428571D01*
X105903571Y-74714285D01*
X105832143Y-74857142D01*
X105903571Y-73499999D02*
X104903571Y-73499999D01*
X104403571Y-73499999D02*
X104475000Y-73571428D01*
X104546429Y-73499999D01*
X104475000Y-73428571D01*
X104403571Y-73499999D01*
X104546429Y-73499999D01*
X104903571Y-72785713D02*
X105903571Y-72785713D01*
X105046429Y-72785713D02*
X104975000Y-72714285D01*
X104903571Y-72571427D01*
X104903571Y-72357142D01*
X104975000Y-72214285D01*
X105117857Y-72142856D01*
X105903571Y-72142856D01*
X104546429Y-72857142D02*
X104475000Y-72785713D01*
X104403571Y-72642856D01*
X104546429Y-72357142D01*
X104475000Y-72214285D01*
X104403571Y-72142856D01*
X105903571Y-70785713D02*
X105117857Y-70785713D01*
X104975000Y-70857142D01*
X104903571Y-70999999D01*
X104903571Y-71285713D01*
X104975000Y-71428570D01*
X105832143Y-70785713D02*
X105903571Y-70928570D01*
X105903571Y-71285713D01*
X105832143Y-71428570D01*
X105689286Y-71499999D01*
X105546429Y-71499999D01*
X105403571Y-71428570D01*
X105332143Y-71285713D01*
X105332143Y-70928570D01*
X105260714Y-70785713D01*
X104903571Y-70071427D02*
X105903571Y-70071427D01*
X105046429Y-70071427D02*
X104975000Y-69999999D01*
X104903571Y-69857141D01*
X104903571Y-69642856D01*
X104975000Y-69499999D01*
X105117857Y-69428570D01*
X105903571Y-69428570D01*
X107667857Y-99642857D02*
X107667857Y-99142857D01*
X108453571Y-98928571D02*
X108453571Y-99642857D01*
X106953571Y-99642857D01*
X106953571Y-98928571D01*
X108453571Y-98285714D02*
X107453571Y-98285714D01*
X107596429Y-98285714D02*
X107525000Y-98214286D01*
X107453571Y-98071428D01*
X107453571Y-97857143D01*
X107525000Y-97714286D01*
X107667857Y-97642857D01*
X108453571Y-97642857D01*
X107667857Y-97642857D02*
X107525000Y-97571428D01*
X107453571Y-97428571D01*
X107453571Y-97214286D01*
X107525000Y-97071428D01*
X107667857Y-97000000D01*
X108453571Y-97000000D01*
X108453571Y-95642857D02*
X107667857Y-95642857D01*
X107525000Y-95714286D01*
X107453571Y-95857143D01*
X107453571Y-96142857D01*
X107525000Y-96285714D01*
X108382143Y-95642857D02*
X108453571Y-95785714D01*
X108453571Y-96142857D01*
X108382143Y-96285714D01*
X108239286Y-96357143D01*
X108096429Y-96357143D01*
X107953571Y-96285714D01*
X107882143Y-96142857D01*
X107882143Y-95785714D01*
X107810714Y-95642857D01*
X108453571Y-94928571D02*
X107453571Y-94928571D01*
X106953571Y-94928571D02*
X107025000Y-95000000D01*
X107096429Y-94928571D01*
X107025000Y-94857143D01*
X106953571Y-94928571D01*
X107096429Y-94928571D01*
X108453571Y-93999999D02*
X108382143Y-94142857D01*
X108239286Y-94214285D01*
X106953571Y-94214285D01*
X108310714Y-93428571D02*
X108382143Y-93357143D01*
X108453571Y-93428571D01*
X108382143Y-93500000D01*
X108310714Y-93428571D01*
X108453571Y-93428571D01*
X107525000Y-93428571D02*
X107596429Y-93357143D01*
X107667857Y-93428571D01*
X107596429Y-93500000D01*
X107525000Y-93428571D01*
X107667857Y-93428571D01*
X108382143Y-91000000D02*
X108453571Y-91142857D01*
X108453571Y-91428571D01*
X108382143Y-91571428D01*
X108239286Y-91642857D01*
X107667857Y-91642857D01*
X107525000Y-91571428D01*
X107453571Y-91428571D01*
X107453571Y-91142857D01*
X107525000Y-91000000D01*
X107667857Y-90928571D01*
X107810714Y-90928571D01*
X107953571Y-91642857D01*
X108453571Y-90285714D02*
X107453571Y-90285714D01*
X107739286Y-90285714D02*
X107596429Y-90214286D01*
X107525000Y-90142857D01*
X107453571Y-90000000D01*
X107453571Y-89857143D01*
X108453571Y-89357143D02*
X107453571Y-89357143D01*
X106953571Y-89357143D02*
X107025000Y-89428572D01*
X107096429Y-89357143D01*
X107025000Y-89285715D01*
X106953571Y-89357143D01*
X107096429Y-89357143D01*
X108382143Y-88000000D02*
X108453571Y-88142857D01*
X108453571Y-88428571D01*
X108382143Y-88571429D01*
X108310714Y-88642857D01*
X108167857Y-88714286D01*
X107739286Y-88714286D01*
X107596429Y-88642857D01*
X107525000Y-88571429D01*
X107453571Y-88428571D01*
X107453571Y-88142857D01*
X107525000Y-88000000D01*
X108382143Y-87428572D02*
X108453571Y-87285715D01*
X108453571Y-87000000D01*
X108382143Y-86857143D01*
X108239286Y-86785715D01*
X108167857Y-86785715D01*
X108025000Y-86857143D01*
X107953571Y-87000000D01*
X107953571Y-87214286D01*
X107882143Y-87357143D01*
X107739286Y-87428572D01*
X107667857Y-87428572D01*
X107525000Y-87357143D01*
X107453571Y-87214286D01*
X107453571Y-87000000D01*
X107525000Y-86857143D01*
X108453571Y-85928571D02*
X108382143Y-86071429D01*
X108310714Y-86142857D01*
X108167857Y-86214286D01*
X107739286Y-86214286D01*
X107596429Y-86142857D01*
X107525000Y-86071429D01*
X107453571Y-85928571D01*
X107453571Y-85714286D01*
X107525000Y-85571429D01*
X107596429Y-85500000D01*
X107739286Y-85428571D01*
X108167857Y-85428571D01*
X108310714Y-85500000D01*
X108382143Y-85571429D01*
X108453571Y-85714286D01*
X108453571Y-85928571D01*
X107453571Y-84785714D02*
X108453571Y-84785714D01*
X107596429Y-84785714D02*
X107525000Y-84714286D01*
X107453571Y-84571428D01*
X107453571Y-84357143D01*
X107525000Y-84214286D01*
X107667857Y-84142857D01*
X108453571Y-84142857D01*
X107453571Y-83428571D02*
X108739286Y-83428571D01*
X108882143Y-83500000D01*
X108953571Y-83642857D01*
X108953571Y-83714285D01*
X106953571Y-83428571D02*
X107025000Y-83500000D01*
X107096429Y-83428571D01*
X107025000Y-83357143D01*
X106953571Y-83428571D01*
X107096429Y-83428571D01*
X108453571Y-82499999D02*
X108382143Y-82642857D01*
X108310714Y-82714285D01*
X108167857Y-82785714D01*
X107739286Y-82785714D01*
X107596429Y-82714285D01*
X107525000Y-82642857D01*
X107453571Y-82499999D01*
X107453571Y-82285714D01*
X107525000Y-82142857D01*
X107596429Y-82071428D01*
X107739286Y-81999999D01*
X108167857Y-81999999D01*
X108310714Y-82071428D01*
X108382143Y-82142857D01*
X108453571Y-82285714D01*
X108453571Y-82499999D01*
X108382143Y-81428571D02*
X108453571Y-81285714D01*
X108453571Y-80999999D01*
X108382143Y-80857142D01*
X108239286Y-80785714D01*
X108167857Y-80785714D01*
X108025000Y-80857142D01*
X107953571Y-80999999D01*
X107953571Y-81214285D01*
X107882143Y-81357142D01*
X107739286Y-81428571D01*
X107667857Y-81428571D01*
X107525000Y-81357142D01*
X107453571Y-81214285D01*
X107453571Y-80999999D01*
X107525000Y-80857142D01*
X108382143Y-79571428D02*
X108453571Y-79714285D01*
X108453571Y-79999999D01*
X108382143Y-80142856D01*
X108239286Y-80214285D01*
X107667857Y-80214285D01*
X107525000Y-80142856D01*
X107453571Y-79999999D01*
X107453571Y-79714285D01*
X107525000Y-79571428D01*
X107667857Y-79499999D01*
X107810714Y-79499999D01*
X107953571Y-80214285D01*
X107453571Y-78857142D02*
X108953571Y-78857142D01*
X107525000Y-78857142D02*
X107453571Y-78714285D01*
X107453571Y-78428571D01*
X107525000Y-78285714D01*
X107596429Y-78214285D01*
X107739286Y-78142856D01*
X108167857Y-78142856D01*
X108310714Y-78214285D01*
X108382143Y-78285714D01*
X108453571Y-78428571D01*
X108453571Y-78714285D01*
X108382143Y-78857142D01*
X108453571Y-77499999D02*
X106953571Y-77499999D01*
X108453571Y-76857142D02*
X107667857Y-76857142D01*
X107525000Y-76928571D01*
X107453571Y-77071428D01*
X107453571Y-77285713D01*
X107525000Y-77428571D01*
X107596429Y-77499999D01*
X107739286Y-75214285D02*
X107667857Y-75285713D01*
X107596429Y-75428570D01*
X107596429Y-75571428D01*
X107667857Y-75714285D01*
X107739286Y-75785713D01*
X107882143Y-75857142D01*
X108025000Y-75857142D01*
X108167857Y-75785713D01*
X108239286Y-75714285D01*
X108310714Y-75571428D01*
X108310714Y-75428570D01*
X108239286Y-75285713D01*
X108167857Y-75214285D01*
X107596429Y-75214285D02*
X108167857Y-75214285D01*
X108239286Y-75142856D01*
X108239286Y-75071428D01*
X108167857Y-74928570D01*
X108025000Y-74857142D01*
X107667857Y-74857142D01*
X107453571Y-74999999D01*
X107310714Y-75214285D01*
X107239286Y-75499999D01*
X107310714Y-75785713D01*
X107453571Y-75999999D01*
X107667857Y-76142856D01*
X107953571Y-76214285D01*
X108239286Y-76142856D01*
X108453571Y-75999999D01*
X108596429Y-75785713D01*
X108667857Y-75499999D01*
X108596429Y-75214285D01*
X108453571Y-74999999D01*
X107453571Y-73571428D02*
X108667857Y-73571428D01*
X108810714Y-73642857D01*
X108882143Y-73714285D01*
X108953571Y-73857142D01*
X108953571Y-74071428D01*
X108882143Y-74214285D01*
X108382143Y-73571428D02*
X108453571Y-73714285D01*
X108453571Y-73999999D01*
X108382143Y-74142857D01*
X108310714Y-74214285D01*
X108167857Y-74285714D01*
X107739286Y-74285714D01*
X107596429Y-74214285D01*
X107525000Y-74142857D01*
X107453571Y-73999999D01*
X107453571Y-73714285D01*
X107525000Y-73571428D01*
X108453571Y-72857142D02*
X107453571Y-72857142D01*
X107596429Y-72857142D02*
X107525000Y-72785714D01*
X107453571Y-72642856D01*
X107453571Y-72428571D01*
X107525000Y-72285714D01*
X107667857Y-72214285D01*
X108453571Y-72214285D01*
X107667857Y-72214285D02*
X107525000Y-72142856D01*
X107453571Y-71999999D01*
X107453571Y-71785714D01*
X107525000Y-71642856D01*
X107667857Y-71571428D01*
X108453571Y-71571428D01*
X108453571Y-70214285D02*
X107667857Y-70214285D01*
X107525000Y-70285714D01*
X107453571Y-70428571D01*
X107453571Y-70714285D01*
X107525000Y-70857142D01*
X108382143Y-70214285D02*
X108453571Y-70357142D01*
X108453571Y-70714285D01*
X108382143Y-70857142D01*
X108239286Y-70928571D01*
X108096429Y-70928571D01*
X107953571Y-70857142D01*
X107882143Y-70714285D01*
X107882143Y-70357142D01*
X107810714Y-70214285D01*
X108453571Y-69499999D02*
X107453571Y-69499999D01*
X106953571Y-69499999D02*
X107025000Y-69571428D01*
X107096429Y-69499999D01*
X107025000Y-69428571D01*
X106953571Y-69499999D01*
X107096429Y-69499999D01*
X108453571Y-68571427D02*
X108382143Y-68714285D01*
X108239286Y-68785713D01*
X106953571Y-68785713D01*
X108310714Y-67999999D02*
X108382143Y-67928571D01*
X108453571Y-67999999D01*
X108382143Y-68071428D01*
X108310714Y-67999999D01*
X108453571Y-67999999D01*
X108382143Y-66642856D02*
X108453571Y-66785713D01*
X108453571Y-67071427D01*
X108382143Y-67214285D01*
X108310714Y-67285713D01*
X108167857Y-67357142D01*
X107739286Y-67357142D01*
X107596429Y-67285713D01*
X107525000Y-67214285D01*
X107453571Y-67071427D01*
X107453571Y-66785713D01*
X107525000Y-66642856D01*
X108453571Y-65785713D02*
X108382143Y-65928571D01*
X108310714Y-65999999D01*
X108167857Y-66071428D01*
X107739286Y-66071428D01*
X107596429Y-65999999D01*
X107525000Y-65928571D01*
X107453571Y-65785713D01*
X107453571Y-65571428D01*
X107525000Y-65428571D01*
X107596429Y-65357142D01*
X107739286Y-65285713D01*
X108167857Y-65285713D01*
X108310714Y-65357142D01*
X108382143Y-65428571D01*
X108453571Y-65571428D01*
X108453571Y-65785713D01*
X108453571Y-64642856D02*
X107453571Y-64642856D01*
X107596429Y-64642856D02*
X107525000Y-64571428D01*
X107453571Y-64428570D01*
X107453571Y-64214285D01*
X107525000Y-64071428D01*
X107667857Y-63999999D01*
X108453571Y-63999999D01*
X107667857Y-63999999D02*
X107525000Y-63928570D01*
X107453571Y-63785713D01*
X107453571Y-63571428D01*
X107525000Y-63428570D01*
X107667857Y-63357142D01*
X108453571Y-63357142D01*
X104403571Y-148642857D02*
X105617857Y-148642857D01*
X105760714Y-148571429D01*
X105832143Y-148500000D01*
X105903571Y-148357143D01*
X105903571Y-148071429D01*
X105832143Y-147928571D01*
X105760714Y-147857143D01*
X105617857Y-147785714D01*
X104403571Y-147785714D01*
X105117857Y-146571428D02*
X105189286Y-146357142D01*
X105260714Y-146285714D01*
X105403571Y-146214285D01*
X105617857Y-146214285D01*
X105760714Y-146285714D01*
X105832143Y-146357142D01*
X105903571Y-146500000D01*
X105903571Y-147071428D01*
X104403571Y-147071428D01*
X104403571Y-146571428D01*
X104475000Y-146428571D01*
X104546429Y-146357142D01*
X104689286Y-146285714D01*
X104832143Y-146285714D01*
X104975000Y-146357142D01*
X105046429Y-146428571D01*
X105117857Y-146571428D01*
X105117857Y-147071428D01*
X105475000Y-145642857D02*
X105475000Y-144928571D01*
X105903571Y-145785714D02*
X104403571Y-145285714D01*
X105903571Y-144785714D01*
X105332143Y-143142857D02*
X105332143Y-142000000D01*
X105760714Y-139285714D02*
X105832143Y-139357143D01*
X105903571Y-139571429D01*
X105903571Y-139714286D01*
X105832143Y-139928571D01*
X105689286Y-140071429D01*
X105546429Y-140142857D01*
X105260714Y-140214286D01*
X105046429Y-140214286D01*
X104760714Y-140142857D01*
X104617857Y-140071429D01*
X104475000Y-139928571D01*
X104403571Y-139714286D01*
X104403571Y-139571429D01*
X104475000Y-139357143D01*
X104546429Y-139285714D01*
X105117857Y-138642857D02*
X105117857Y-138142857D01*
X105903571Y-137928571D02*
X105903571Y-138642857D01*
X104403571Y-138642857D01*
X104403571Y-137928571D01*
X105832143Y-137357143D02*
X105903571Y-137142857D01*
X105903571Y-136785714D01*
X105832143Y-136642857D01*
X105760714Y-136571428D01*
X105617857Y-136500000D01*
X105475000Y-136500000D01*
X105332143Y-136571428D01*
X105260714Y-136642857D01*
X105189286Y-136785714D01*
X105117857Y-137071428D01*
X105046429Y-137214286D01*
X104975000Y-137285714D01*
X104832143Y-137357143D01*
X104689286Y-137357143D01*
X104546429Y-137285714D01*
X104475000Y-137214286D01*
X104403571Y-137071428D01*
X104403571Y-136714286D01*
X104475000Y-136500000D01*
X105117857Y-135857143D02*
X105117857Y-135357143D01*
X105903571Y-135142857D02*
X105903571Y-135857143D01*
X104403571Y-135857143D01*
X104403571Y-135142857D01*
X104546429Y-133428572D02*
X104475000Y-133357143D01*
X104403571Y-133214286D01*
X104403571Y-132857143D01*
X104475000Y-132714286D01*
X104546429Y-132642857D01*
X104689286Y-132571429D01*
X104832143Y-132571429D01*
X105046429Y-132642857D01*
X105903571Y-133500000D01*
X105903571Y-132571429D01*
X104403571Y-131642858D02*
X104403571Y-131500001D01*
X104475000Y-131357144D01*
X104546429Y-131285715D01*
X104689286Y-131214286D01*
X104975000Y-131142858D01*
X105332143Y-131142858D01*
X105617857Y-131214286D01*
X105760714Y-131285715D01*
X105832143Y-131357144D01*
X105903571Y-131500001D01*
X105903571Y-131642858D01*
X105832143Y-131785715D01*
X105760714Y-131857144D01*
X105617857Y-131928572D01*
X105332143Y-132000001D01*
X104975000Y-132000001D01*
X104689286Y-131928572D01*
X104546429Y-131857144D01*
X104475000Y-131785715D01*
X104403571Y-131642858D01*
X105903571Y-129714287D02*
X105903571Y-130571430D01*
X105903571Y-130142858D02*
X104403571Y-130142858D01*
X104617857Y-130285715D01*
X104760714Y-130428573D01*
X104832143Y-130571430D01*
X105046429Y-128857144D02*
X104975000Y-129000002D01*
X104903571Y-129071430D01*
X104760714Y-129142859D01*
X104689286Y-129142859D01*
X104546429Y-129071430D01*
X104475000Y-129000002D01*
X104403571Y-128857144D01*
X104403571Y-128571430D01*
X104475000Y-128428573D01*
X104546429Y-128357144D01*
X104689286Y-128285716D01*
X104760714Y-128285716D01*
X104903571Y-128357144D01*
X104975000Y-128428573D01*
X105046429Y-128571430D01*
X105046429Y-128857144D01*
X105117857Y-129000002D01*
X105189286Y-129071430D01*
X105332143Y-129142859D01*
X105617857Y-129142859D01*
X105760714Y-129071430D01*
X105832143Y-129000002D01*
X105903571Y-128857144D01*
X105903571Y-128571430D01*
X105832143Y-128428573D01*
X105760714Y-128357144D01*
X105617857Y-128285716D01*
X105332143Y-128285716D01*
X105189286Y-128357144D01*
X105117857Y-128428573D01*
X105046429Y-128571430D01*
X106953571Y-148857143D02*
X106953571Y-148000000D01*
X108453571Y-148428571D02*
X106953571Y-148428571D01*
X108453571Y-147500000D02*
X107453571Y-147500000D01*
X106953571Y-147500000D02*
X107025000Y-147571429D01*
X107096429Y-147500000D01*
X107025000Y-147428572D01*
X106953571Y-147500000D01*
X107096429Y-147500000D01*
X107453571Y-147000000D02*
X107453571Y-146428571D01*
X106953571Y-146785714D02*
X108239286Y-146785714D01*
X108382143Y-146714286D01*
X108453571Y-146571428D01*
X108453571Y-146428571D01*
X107453571Y-145285714D02*
X108453571Y-145285714D01*
X107453571Y-145928571D02*
X108239286Y-145928571D01*
X108382143Y-145857143D01*
X108453571Y-145714285D01*
X108453571Y-145500000D01*
X108382143Y-145357143D01*
X108310714Y-145285714D01*
X108453571Y-144357142D02*
X108382143Y-144500000D01*
X108239286Y-144571428D01*
X106953571Y-144571428D01*
X108453571Y-143571428D02*
X108382143Y-143714286D01*
X108310714Y-143785714D01*
X108167857Y-143857143D01*
X107739286Y-143857143D01*
X107596429Y-143785714D01*
X107525000Y-143714286D01*
X107453571Y-143571428D01*
X107453571Y-143357143D01*
X107525000Y-143214286D01*
X107596429Y-143142857D01*
X107739286Y-143071428D01*
X108167857Y-143071428D01*
X108310714Y-143142857D01*
X108382143Y-143214286D01*
X108453571Y-143357143D01*
X108453571Y-143571428D01*
X108310714Y-142428571D02*
X108382143Y-142357143D01*
X108453571Y-142428571D01*
X108382143Y-142500000D01*
X108310714Y-142428571D01*
X108453571Y-142428571D01*
X107525000Y-142428571D02*
X107596429Y-142357143D01*
X107667857Y-142428571D01*
X107596429Y-142500000D01*
X107525000Y-142428571D01*
X107667857Y-142428571D01*
X108382143Y-140642857D02*
X108453571Y-140428571D01*
X108453571Y-140071428D01*
X108382143Y-139928571D01*
X108310714Y-139857142D01*
X108167857Y-139785714D01*
X108025000Y-139785714D01*
X107882143Y-139857142D01*
X107810714Y-139928571D01*
X107739286Y-140071428D01*
X107667857Y-140357142D01*
X107596429Y-140500000D01*
X107525000Y-140571428D01*
X107382143Y-140642857D01*
X107239286Y-140642857D01*
X107096429Y-140571428D01*
X107025000Y-140500000D01*
X106953571Y-140357142D01*
X106953571Y-140000000D01*
X107025000Y-139785714D01*
X108453571Y-139142857D02*
X106953571Y-139142857D01*
X107667857Y-139142857D02*
X107667857Y-138285714D01*
X108453571Y-138285714D02*
X106953571Y-138285714D01*
X108453571Y-137571428D02*
X106953571Y-137571428D01*
X107667857Y-136857142D02*
X107667857Y-136357142D01*
X108453571Y-136142856D02*
X108453571Y-136857142D01*
X106953571Y-136857142D01*
X106953571Y-136142856D01*
X108453571Y-134785713D02*
X108453571Y-135499999D01*
X106953571Y-135499999D01*
X108453571Y-134285713D02*
X106953571Y-134285713D01*
X106953571Y-133928570D01*
X107025000Y-133714285D01*
X107167857Y-133571427D01*
X107310714Y-133499999D01*
X107596429Y-133428570D01*
X107810714Y-133428570D01*
X108096429Y-133499999D01*
X108239286Y-133571427D01*
X108382143Y-133714285D01*
X108453571Y-133928570D01*
X108453571Y-134285713D01*
X106953571Y-131857142D02*
X108453571Y-131357142D01*
X106953571Y-130857142D01*
X108453571Y-130142856D02*
X108382143Y-130285714D01*
X108310714Y-130357142D01*
X108167857Y-130428571D01*
X107739286Y-130428571D01*
X107596429Y-130357142D01*
X107525000Y-130285714D01*
X107453571Y-130142856D01*
X107453571Y-129928571D01*
X107525000Y-129785714D01*
X107596429Y-129714285D01*
X107739286Y-129642856D01*
X108167857Y-129642856D01*
X108310714Y-129714285D01*
X108382143Y-129785714D01*
X108453571Y-129928571D01*
X108453571Y-130142856D01*
X108453571Y-128999999D02*
X106953571Y-128999999D01*
X108453571Y-128285713D02*
X106953571Y-128285713D01*
X106953571Y-127714285D01*
X107025000Y-127571427D01*
X107096429Y-127499999D01*
X107239286Y-127428570D01*
X107453571Y-127428570D01*
X107596429Y-127499999D01*
X107667857Y-127571427D01*
X107739286Y-127714285D01*
X107739286Y-128285713D01*
X107453571Y-125642856D02*
X108953571Y-125642856D01*
X107525000Y-125642856D02*
X107453571Y-125499999D01*
X107453571Y-125214285D01*
X107525000Y-125071428D01*
X107596429Y-124999999D01*
X107739286Y-124928570D01*
X108167857Y-124928570D01*
X108310714Y-124999999D01*
X108382143Y-125071428D01*
X108453571Y-125214285D01*
X108453571Y-125499999D01*
X108382143Y-125642856D01*
X108453571Y-123642856D02*
X107667857Y-123642856D01*
X107525000Y-123714285D01*
X107453571Y-123857142D01*
X107453571Y-124142856D01*
X107525000Y-124285713D01*
X108382143Y-123642856D02*
X108453571Y-123785713D01*
X108453571Y-124142856D01*
X108382143Y-124285713D01*
X108239286Y-124357142D01*
X108096429Y-124357142D01*
X107953571Y-124285713D01*
X107882143Y-124142856D01*
X107882143Y-123785713D01*
X107810714Y-123642856D01*
X108453571Y-122928570D02*
X107453571Y-122928570D01*
X107739286Y-122928570D02*
X107596429Y-122857142D01*
X107525000Y-122785713D01*
X107453571Y-122642856D01*
X107453571Y-122499999D01*
X108453571Y-121357142D02*
X107667857Y-121357142D01*
X107525000Y-121428571D01*
X107453571Y-121571428D01*
X107453571Y-121857142D01*
X107525000Y-121999999D01*
X108382143Y-121357142D02*
X108453571Y-121499999D01*
X108453571Y-121857142D01*
X108382143Y-121999999D01*
X108239286Y-122071428D01*
X108096429Y-122071428D01*
X107953571Y-121999999D01*
X107882143Y-121857142D01*
X107882143Y-121499999D01*
X107810714Y-121357142D01*
X108453571Y-119499999D02*
X106953571Y-119499999D01*
X108453571Y-118642856D01*
X106953571Y-118642856D01*
X106953571Y-117928570D02*
X108167857Y-117928570D01*
X108310714Y-117857142D01*
X108382143Y-117785713D01*
X108453571Y-117642856D01*
X108453571Y-117357142D01*
X108382143Y-117214284D01*
X108310714Y-117142856D01*
X108167857Y-117071427D01*
X106953571Y-117071427D01*
X108310714Y-115499998D02*
X108382143Y-115571427D01*
X108453571Y-115785713D01*
X108453571Y-115928570D01*
X108382143Y-116142855D01*
X108239286Y-116285713D01*
X108096429Y-116357141D01*
X107810714Y-116428570D01*
X107596429Y-116428570D01*
X107310714Y-116357141D01*
X107167857Y-116285713D01*
X107025000Y-116142855D01*
X106953571Y-115928570D01*
X106953571Y-115785713D01*
X107025000Y-115571427D01*
X107096429Y-115499998D01*
X108453571Y-114142855D02*
X108453571Y-114857141D01*
X106953571Y-114857141D01*
X107667857Y-113642855D02*
X107667857Y-113142855D01*
X108453571Y-112928569D02*
X108453571Y-113642855D01*
X106953571Y-113642855D01*
X106953571Y-112928569D01*
X106953571Y-111999998D02*
X106953571Y-111714284D01*
X107025000Y-111571426D01*
X107167857Y-111428569D01*
X107453571Y-111357141D01*
X107953571Y-111357141D01*
X108239286Y-111428569D01*
X108382143Y-111571426D01*
X108453571Y-111714284D01*
X108453571Y-111999998D01*
X108382143Y-112142855D01*
X108239286Y-112285712D01*
X107953571Y-112357141D01*
X107453571Y-112357141D01*
X107167857Y-112285712D01*
X107025000Y-112142855D01*
X106953571Y-111999998D01*
X107882143Y-110714283D02*
X107882143Y-109571426D01*
X107667857Y-108357140D02*
X107667857Y-108857140D01*
X108453571Y-108857140D02*
X106953571Y-108857140D01*
X106953571Y-108142854D01*
X106953571Y-107714283D02*
X106953571Y-106714283D01*
X108453571Y-107357140D01*
X106953571Y-105499998D02*
X106953571Y-105785712D01*
X107025000Y-105928569D01*
X107096429Y-105999998D01*
X107310714Y-106142855D01*
X107596429Y-106214284D01*
X108167857Y-106214284D01*
X108310714Y-106142855D01*
X108382143Y-106071427D01*
X108453571Y-105928569D01*
X108453571Y-105642855D01*
X108382143Y-105499998D01*
X108310714Y-105428569D01*
X108167857Y-105357141D01*
X107810714Y-105357141D01*
X107667857Y-105428569D01*
X107596429Y-105499998D01*
X107525000Y-105642855D01*
X107525000Y-105928569D01*
X107596429Y-106071427D01*
X107667857Y-106142855D01*
X107810714Y-106214284D01*
X106953571Y-104857141D02*
X106953571Y-103857141D01*
X108453571Y-104499998D01*
X106953571Y-103428570D02*
X106953571Y-102428570D01*
X108453571Y-103428570D01*
X108453571Y-102428570D01*
X108453571Y-101857142D02*
X106953571Y-101857142D01*
D13*
X123609000Y-69884000D02*
X123609000Y-34070000D01*
X135293000Y-32800000D02*
X124879000Y-32800000D01*
X123609000Y-80806000D02*
X123609000Y-69884000D01*
X124879000Y-82076000D02*
X163487000Y-82076000D01*
X164757000Y-34070000D02*
X164757000Y-80806000D01*
X124879000Y-32800000D02*
G75*
G03X123609000Y-34070000I0J-1270000D01*
G01*
X123609000Y-80806000D02*
G75*
G03X124879000Y-82076000I1270000J0D01*
G01*
X163487000Y-82076000D02*
G75*
G03X164757000Y-80806000I0J1270000D01*
G01*
X154089000Y-32800000D02*
X163487000Y-32800000D01*
X164757000Y-34070000D02*
G75*
G03X163487000Y-32800000I-1270000J0D01*
G01*
X139865000Y-32800000D02*
X149517000Y-32800000D01*
X154089000Y-29244000D02*
X154089000Y-32800000D01*
X149517000Y-29244000D02*
X149517000Y-32800000D01*
X139865000Y-29244000D02*
X139865000Y-32800000D01*
X135293000Y-32800000D02*
X135293000Y-29244000D01*
X135293000Y-29244000D02*
X139865000Y-29244000D01*
X149517000Y-29244000D02*
X154089000Y-29244000D01*
D14*
X119150000Y-40000000D02*
X119150000Y-41000000D01*
X120850000Y-41000000D02*
X120850000Y-40000000D01*
X120250000Y-30000000D02*
X120250000Y-26800000D01*
X121750000Y-26800000D02*
X121750000Y-30000000D01*
X121750000Y-26800000D02*
X120250000Y-26800000D01*
X115430000Y-40500000D02*
X115430000Y-38500000D01*
X117570000Y-38500000D02*
X117570000Y-40500000D01*
X111930000Y-40500000D02*
X111930000Y-38500000D01*
X114070000Y-38500000D02*
X114070000Y-40500000D01*
X110570000Y-38500000D02*
X110570000Y-40500000D01*
X108430000Y-40500000D02*
X108430000Y-38500000D01*
X115000000Y-32500000D02*
X115000000Y-28000000D01*
X111000000Y-33750000D02*
X112500000Y-33750000D01*
X108500000Y-28000000D02*
X108500000Y-32500000D01*
X112500000Y-26750000D02*
X111000000Y-26750000D01*
X132430000Y-66000000D02*
X132430000Y-64000000D01*
X134570000Y-64000000D02*
X134570000Y-66000000D01*
D13*
X117005000Y-172500000D02*
X117005000Y-157895000D01*
X117005000Y-157895000D02*
X131610000Y-157895000D01*
X131610000Y-157895000D02*
X131610000Y-172500000D01*
X147485000Y-166150000D02*
X147485000Y-170595000D01*
X147485000Y-170595000D02*
X151930000Y-170595000D01*
X151930000Y-170595000D02*
X151930000Y-166150000D01*
X151930000Y-166150000D02*
X147485000Y-166150000D01*
X153835000Y-172500000D02*
X153835000Y-164245000D01*
X153835000Y-164245000D02*
X145580000Y-164245000D01*
X145580000Y-164245000D02*
X145580000Y-172500000D01*
X163360000Y-169325000D02*
X154470000Y-169325000D01*
X154470000Y-172500000D02*
X154470000Y-157895000D01*
X154470000Y-157895000D02*
X163360000Y-157895000D01*
X163360000Y-157895000D02*
X163360000Y-169960000D01*
X163360000Y-172500000D02*
X163360000Y-169960000D01*
X164630000Y-172500000D02*
X165265000Y-172500000D01*
X155740000Y-144560000D02*
X156375000Y-144560000D01*
X165265000Y-154720000D02*
X165265000Y-172500000D01*
X163360000Y-172500000D02*
X164630000Y-172500000D01*
X115100000Y-172500000D02*
X163360000Y-172500000D01*
X111925000Y-154720000D02*
X111925000Y-172500000D01*
X111925000Y-172500000D02*
X112560000Y-172500000D01*
X112560000Y-172500000D02*
X115100000Y-172500000D01*
X165265000Y-144560000D02*
X165265000Y-154720000D01*
X165265000Y-144560000D02*
X162090000Y-141385000D01*
X159550000Y-141385000D02*
X162090000Y-141385000D01*
X159550000Y-141385000D02*
X156375000Y-144560000D01*
X111925000Y-144560000D02*
X111925000Y-154720000D01*
X111925000Y-144560000D02*
X115100000Y-141385000D01*
X117640000Y-141385000D02*
X115100000Y-141385000D01*
X117640000Y-141385000D02*
X120815000Y-144560000D01*
X120815000Y-144560000D02*
X155740000Y-144560000D01*
X145330000Y-142205000D02*
X145330000Y-143475000D01*
X135170000Y-142205000D02*
X135170000Y-143475000D01*
X135170000Y-143475000D02*
X145330000Y-143475000D01*
X145330000Y-142205000D02*
X155490000Y-142205000D01*
X130090000Y-142205000D02*
X135170000Y-142205000D01*
X145330000Y-137760000D02*
X135170000Y-137760000D01*
X135170000Y-137760000D02*
X135170000Y-139665000D01*
X145330000Y-137760000D02*
X145330000Y-139665000D01*
X135170000Y-142205000D02*
X135170000Y-139665000D01*
X145330000Y-142205000D02*
X145330000Y-139665000D01*
X148505000Y-109185000D02*
X148505000Y-83785000D01*
X131995000Y-83785000D02*
X131995000Y-109185000D01*
D15*
X142155000Y-84420000D02*
X146600000Y-84420000D01*
X134535000Y-90135000D02*
X142155000Y-90135000D01*
X134535000Y-85055000D02*
X134535000Y-84420000D01*
X134535000Y-84420000D02*
X135805000Y-84420000D01*
X135805000Y-84420000D02*
X135805000Y-88230000D01*
X135805000Y-88230000D02*
X137075000Y-88230000D01*
X137075000Y-88230000D02*
X137075000Y-84420000D01*
X137075000Y-84420000D02*
X138345000Y-84420000D01*
X138345000Y-84420000D02*
X138345000Y-88230000D01*
X138345000Y-88230000D02*
X139615000Y-88230000D01*
X139615000Y-88230000D02*
X139615000Y-84420000D01*
X139615000Y-84420000D02*
X140885000Y-84420000D01*
X140885000Y-84420000D02*
X140885000Y-88230000D01*
X140885000Y-88230000D02*
X142155000Y-88230000D01*
X142155000Y-88230000D02*
X142155000Y-84420000D01*
X134535000Y-90135000D02*
X134535000Y-85055000D01*
D13*
X134535000Y-85055000D02*
X134535000Y-84420000D01*
X131995000Y-90770000D02*
X148505000Y-90770000D01*
X131995000Y-109185000D02*
X148505000Y-109185000D01*
X130090000Y-142205000D02*
X125010000Y-142205000D01*
X125010000Y-142205000D02*
X125010000Y-132045000D01*
X155490000Y-132045000D02*
X155490000Y-142205000D01*
X125010000Y-96485000D02*
X125010000Y-83785000D01*
X125010000Y-83785000D02*
X130090000Y-83785000D01*
X155490000Y-93945000D02*
X155490000Y-83785000D01*
X125010000Y-96485000D02*
X125010000Y-132045000D01*
X155490000Y-132045000D02*
X155490000Y-93945000D01*
X155490000Y-83785000D02*
X130090000Y-83785000D01*
D14*
X145657000Y-123012000D02*
X145657000Y-121012000D01*
X147797000Y-121012000D02*
X147797000Y-123012000D01*
D13*
X124545667Y-31363381D02*
X124545667Y-32077667D01*
X124498047Y-32220524D01*
X124402809Y-32315762D01*
X124259952Y-32363381D01*
X124164714Y-32363381D01*
X125545667Y-32363381D02*
X124974238Y-32363381D01*
X125259952Y-32363381D02*
X125259952Y-31363381D01*
X125164714Y-31506238D01*
X125069476Y-31601476D01*
X124974238Y-31649095D01*
X127738096Y-69865000D02*
X127642858Y-69804524D01*
X127500001Y-69804524D01*
X127357143Y-69865000D01*
X127261905Y-69985952D01*
X127214286Y-70106905D01*
X127166667Y-70348810D01*
X127166667Y-70530238D01*
X127214286Y-70772143D01*
X127261905Y-70893095D01*
X127357143Y-71014048D01*
X127500001Y-71074524D01*
X127595239Y-71074524D01*
X127738096Y-71014048D01*
X127785715Y-70953571D01*
X127785715Y-70530238D01*
X127595239Y-70530238D01*
X128214286Y-71074524D02*
X128214286Y-69804524D01*
X128785715Y-71074524D01*
X128785715Y-69804524D01*
X129261905Y-71074524D02*
X129261905Y-69804524D01*
X129500000Y-69804524D01*
X129642858Y-69865000D01*
X129738096Y-69985952D01*
X129785715Y-70106905D01*
X129833334Y-70348810D01*
X129833334Y-70530238D01*
X129785715Y-70772143D01*
X129738096Y-70893095D01*
X129642858Y-71014048D01*
X129500000Y-71074524D01*
X129261905Y-71074524D01*
X127212810Y-66648524D02*
X127831858Y-66648524D01*
X127498524Y-67132333D01*
X127641382Y-67132333D01*
X127736620Y-67192810D01*
X127784239Y-67253286D01*
X127831858Y-67374238D01*
X127831858Y-67676619D01*
X127784239Y-67797571D01*
X127736620Y-67858048D01*
X127641382Y-67918524D01*
X127355667Y-67918524D01*
X127260429Y-67858048D01*
X127212810Y-67797571D01*
X128260429Y-67797571D02*
X128308048Y-67858048D01*
X128260429Y-67918524D01*
X128212810Y-67858048D01*
X128260429Y-67797571D01*
X128260429Y-67918524D01*
X128641381Y-66648524D02*
X129260429Y-66648524D01*
X128927095Y-67132333D01*
X129069953Y-67132333D01*
X129165191Y-67192810D01*
X129212810Y-67253286D01*
X129260429Y-67374238D01*
X129260429Y-67676619D01*
X129212810Y-67797571D01*
X129165191Y-67858048D01*
X129069953Y-67918524D01*
X128784238Y-67918524D01*
X128689000Y-67858048D01*
X128641381Y-67797571D01*
X129546143Y-66648524D02*
X129879476Y-67918524D01*
X130212810Y-66648524D01*
X127244524Y-65318048D02*
X127387381Y-65378524D01*
X127625477Y-65378524D01*
X127720715Y-65318048D01*
X127768334Y-65257571D01*
X127815953Y-65136619D01*
X127815953Y-65015667D01*
X127768334Y-64894714D01*
X127720715Y-64834238D01*
X127625477Y-64773762D01*
X127435000Y-64713286D01*
X127339762Y-64652810D01*
X127292143Y-64592333D01*
X127244524Y-64471381D01*
X127244524Y-64350429D01*
X127292143Y-64229476D01*
X127339762Y-64169000D01*
X127435000Y-64108524D01*
X127673096Y-64108524D01*
X127815953Y-64169000D01*
X128815953Y-65257571D02*
X128768334Y-65318048D01*
X128625477Y-65378524D01*
X128530239Y-65378524D01*
X128387381Y-65318048D01*
X128292143Y-65197095D01*
X128244524Y-65076143D01*
X128196905Y-64834238D01*
X128196905Y-64652810D01*
X128244524Y-64410905D01*
X128292143Y-64289952D01*
X128387381Y-64169000D01*
X128530239Y-64108524D01*
X128625477Y-64108524D01*
X128768334Y-64169000D01*
X128815953Y-64229476D01*
X129720715Y-65378524D02*
X129244524Y-65378524D01*
X129244524Y-64108524D01*
X127220714Y-62778048D02*
X127363571Y-62838524D01*
X127601667Y-62838524D01*
X127696905Y-62778048D01*
X127744524Y-62717571D01*
X127792143Y-62596619D01*
X127792143Y-62475667D01*
X127744524Y-62354714D01*
X127696905Y-62294238D01*
X127601667Y-62233762D01*
X127411190Y-62173286D01*
X127315952Y-62112810D01*
X127268333Y-62052333D01*
X127220714Y-61931381D01*
X127220714Y-61810429D01*
X127268333Y-61689476D01*
X127315952Y-61629000D01*
X127411190Y-61568524D01*
X127649286Y-61568524D01*
X127792143Y-61629000D01*
X128220714Y-62838524D02*
X128220714Y-61568524D01*
X128458809Y-61568524D01*
X128601667Y-61629000D01*
X128696905Y-61749952D01*
X128744524Y-61870905D01*
X128792143Y-62112810D01*
X128792143Y-62294238D01*
X128744524Y-62536143D01*
X128696905Y-62657095D01*
X128601667Y-62778048D01*
X128458809Y-62838524D01*
X128220714Y-62838524D01*
X129173095Y-62475667D02*
X129649286Y-62475667D01*
X129077857Y-62838524D02*
X129411190Y-61568524D01*
X129744524Y-62838524D01*
X127093762Y-60298524D02*
X127093762Y-59028524D01*
X127331857Y-59028524D01*
X127474715Y-59089000D01*
X127569953Y-59209952D01*
X127617572Y-59330905D01*
X127665191Y-59572810D01*
X127665191Y-59754238D01*
X127617572Y-59996143D01*
X127569953Y-60117095D01*
X127474715Y-60238048D01*
X127331857Y-60298524D01*
X127093762Y-60298524D01*
X128046143Y-59935667D02*
X128522334Y-59935667D01*
X127950905Y-60298524D02*
X128284238Y-59028524D01*
X128617572Y-60298524D01*
X129522334Y-60177571D02*
X129474715Y-60238048D01*
X129331858Y-60298524D01*
X129236620Y-60298524D01*
X129093762Y-60238048D01*
X128998524Y-60117095D01*
X128950905Y-59996143D01*
X128903286Y-59754238D01*
X128903286Y-59572810D01*
X128950905Y-59330905D01*
X128998524Y-59209952D01*
X129093762Y-59089000D01*
X129236620Y-59028524D01*
X129331858Y-59028524D01*
X129474715Y-59089000D01*
X129522334Y-59149476D01*
X130427096Y-60298524D02*
X129950905Y-60298524D01*
X129950905Y-59028524D01*
X127300143Y-57395667D02*
X127776334Y-57395667D01*
X127204905Y-57758524D02*
X127538238Y-56488524D01*
X127871572Y-57758524D01*
X128204905Y-57758524D02*
X128204905Y-56488524D01*
X128443000Y-56488524D01*
X128585858Y-56549000D01*
X128681096Y-56669952D01*
X128728715Y-56790905D01*
X128776334Y-57032810D01*
X128776334Y-57214238D01*
X128728715Y-57456143D01*
X128681096Y-57577095D01*
X128585858Y-57698048D01*
X128443000Y-57758524D01*
X128204905Y-57758524D01*
X129776334Y-57637571D02*
X129728715Y-57698048D01*
X129585858Y-57758524D01*
X129490620Y-57758524D01*
X129347762Y-57698048D01*
X129252524Y-57577095D01*
X129204905Y-57456143D01*
X129157286Y-57214238D01*
X129157286Y-57032810D01*
X129204905Y-56790905D01*
X129252524Y-56669952D01*
X129347762Y-56549000D01*
X129490620Y-56488524D01*
X129585858Y-56488524D01*
X129728715Y-56549000D01*
X129776334Y-56609476D01*
X130681096Y-57758524D02*
X130204905Y-57758524D01*
X130204905Y-56488524D01*
X127117572Y-55218524D02*
X127117572Y-53948524D01*
X127450906Y-54855667D01*
X127784239Y-53948524D01*
X127784239Y-55218524D01*
X128450905Y-53948524D02*
X128641382Y-53948524D01*
X128736620Y-54009000D01*
X128831858Y-54129952D01*
X128879477Y-54371857D01*
X128879477Y-54795190D01*
X128831858Y-55037095D01*
X128736620Y-55158048D01*
X128641382Y-55218524D01*
X128450905Y-55218524D01*
X128355667Y-55158048D01*
X128260429Y-55037095D01*
X128212810Y-54795190D01*
X128212810Y-54371857D01*
X128260429Y-54129952D01*
X128355667Y-54009000D01*
X128450905Y-53948524D01*
X129260429Y-55158048D02*
X129403286Y-55218524D01*
X129641382Y-55218524D01*
X129736620Y-55158048D01*
X129784239Y-55097571D01*
X129831858Y-54976619D01*
X129831858Y-54855667D01*
X129784239Y-54734714D01*
X129736620Y-54674238D01*
X129641382Y-54613762D01*
X129450905Y-54553286D01*
X129355667Y-54492810D01*
X129308048Y-54432333D01*
X129260429Y-54311381D01*
X129260429Y-54190429D01*
X129308048Y-54069476D01*
X129355667Y-54009000D01*
X129450905Y-53948524D01*
X129689001Y-53948524D01*
X129831858Y-54009000D01*
X130260429Y-55218524D02*
X130260429Y-53948524D01*
X127117572Y-52678524D02*
X127117572Y-51408524D01*
X127450906Y-52315667D01*
X127784239Y-51408524D01*
X127784239Y-52678524D01*
X128260429Y-52678524D02*
X128260429Y-51408524D01*
X128689000Y-52618048D02*
X128831857Y-52678524D01*
X129069953Y-52678524D01*
X129165191Y-52618048D01*
X129212810Y-52557571D01*
X129260429Y-52436619D01*
X129260429Y-52315667D01*
X129212810Y-52194714D01*
X129165191Y-52134238D01*
X129069953Y-52073762D01*
X128879476Y-52013286D01*
X128784238Y-51952810D01*
X128736619Y-51892333D01*
X128689000Y-51771381D01*
X128689000Y-51650429D01*
X128736619Y-51529476D01*
X128784238Y-51469000D01*
X128879476Y-51408524D01*
X129117572Y-51408524D01*
X129260429Y-51469000D01*
X129879476Y-51408524D02*
X130069953Y-51408524D01*
X130165191Y-51469000D01*
X130260429Y-51589952D01*
X130308048Y-51831857D01*
X130308048Y-52255190D01*
X130260429Y-52497095D01*
X130165191Y-52618048D01*
X130069953Y-52678524D01*
X129879476Y-52678524D01*
X129784238Y-52618048D01*
X129689000Y-52497095D01*
X129641381Y-52255190D01*
X129641381Y-51831857D01*
X129689000Y-51589952D01*
X129784238Y-51469000D01*
X129879476Y-51408524D01*
X127149286Y-50078048D02*
X127292143Y-50138524D01*
X127530239Y-50138524D01*
X127625477Y-50078048D01*
X127673096Y-50017571D01*
X127720715Y-49896619D01*
X127720715Y-49775667D01*
X127673096Y-49654714D01*
X127625477Y-49594238D01*
X127530239Y-49533762D01*
X127339762Y-49473286D01*
X127244524Y-49412810D01*
X127196905Y-49352333D01*
X127149286Y-49231381D01*
X127149286Y-49110429D01*
X127196905Y-48989476D01*
X127244524Y-48929000D01*
X127339762Y-48868524D01*
X127577858Y-48868524D01*
X127720715Y-48929000D01*
X128720715Y-50017571D02*
X128673096Y-50078048D01*
X128530239Y-50138524D01*
X128435001Y-50138524D01*
X128292143Y-50078048D01*
X128196905Y-49957095D01*
X128149286Y-49836143D01*
X128101667Y-49594238D01*
X128101667Y-49412810D01*
X128149286Y-49170905D01*
X128196905Y-49049952D01*
X128292143Y-48929000D01*
X128435001Y-48868524D01*
X128530239Y-48868524D01*
X128673096Y-48929000D01*
X128720715Y-48989476D01*
X129149286Y-50138524D02*
X129149286Y-48868524D01*
X129720715Y-50138524D02*
X129292143Y-49412810D01*
X129720715Y-48868524D02*
X129149286Y-49594238D01*
X136690476Y-60666667D02*
X137166667Y-60666667D01*
X136595238Y-60952381D02*
X136928571Y-59952381D01*
X137261905Y-60952381D01*
X137595238Y-59952381D02*
X137595238Y-60761905D01*
X137642857Y-60857143D01*
X137690476Y-60904762D01*
X137785714Y-60952381D01*
X137976191Y-60952381D01*
X138071429Y-60904762D01*
X138119048Y-60857143D01*
X138166667Y-60761905D01*
X138166667Y-59952381D01*
X138642857Y-60952381D02*
X138642857Y-59952381D01*
X138880952Y-59952381D01*
X139023810Y-60000000D01*
X139119048Y-60095238D01*
X139166667Y-60190476D01*
X139214286Y-60380952D01*
X139214286Y-60523810D01*
X139166667Y-60714286D01*
X139119048Y-60809524D01*
X139023810Y-60904762D01*
X138880952Y-60952381D01*
X138642857Y-60952381D01*
X139642857Y-60952381D02*
X139642857Y-59952381D01*
X140309523Y-59952381D02*
X140500000Y-59952381D01*
X140595238Y-60000000D01*
X140690476Y-60095238D01*
X140738095Y-60285714D01*
X140738095Y-60619048D01*
X140690476Y-60809524D01*
X140595238Y-60904762D01*
X140500000Y-60952381D01*
X140309523Y-60952381D01*
X140214285Y-60904762D01*
X140119047Y-60809524D01*
X140071428Y-60619048D01*
X140071428Y-60285714D01*
X140119047Y-60095238D01*
X140214285Y-60000000D01*
X140309523Y-59952381D01*
X140928571Y-61047619D02*
X141690476Y-61047619D01*
X142500000Y-60857143D02*
X142452381Y-60904762D01*
X142309524Y-60952381D01*
X142214286Y-60952381D01*
X142071428Y-60904762D01*
X141976190Y-60809524D01*
X141928571Y-60714286D01*
X141880952Y-60523810D01*
X141880952Y-60380952D01*
X141928571Y-60190476D01*
X141976190Y-60095238D01*
X142071428Y-60000000D01*
X142214286Y-59952381D01*
X142309524Y-59952381D01*
X142452381Y-60000000D01*
X142500000Y-60047619D01*
X143119047Y-59952381D02*
X143309524Y-59952381D01*
X143404762Y-60000000D01*
X143500000Y-60095238D01*
X143547619Y-60285714D01*
X143547619Y-60619048D01*
X143500000Y-60809524D01*
X143404762Y-60904762D01*
X143309524Y-60952381D01*
X143119047Y-60952381D01*
X143023809Y-60904762D01*
X142928571Y-60809524D01*
X142880952Y-60619048D01*
X142880952Y-60285714D01*
X142928571Y-60095238D01*
X143023809Y-60000000D01*
X143119047Y-59952381D01*
X143976190Y-60952381D02*
X143976190Y-59952381D01*
X144214285Y-59952381D01*
X144357143Y-60000000D01*
X144452381Y-60095238D01*
X144500000Y-60190476D01*
X144547619Y-60380952D01*
X144547619Y-60523810D01*
X144500000Y-60714286D01*
X144452381Y-60809524D01*
X144357143Y-60904762D01*
X144214285Y-60952381D01*
X143976190Y-60952381D01*
X144976190Y-60428571D02*
X145309524Y-60428571D01*
X145452381Y-60952381D02*
X144976190Y-60952381D01*
X144976190Y-59952381D01*
X145452381Y-59952381D01*
X146452381Y-60857143D02*
X146404762Y-60904762D01*
X146261905Y-60952381D01*
X146166667Y-60952381D01*
X146023809Y-60904762D01*
X145928571Y-60809524D01*
X145880952Y-60714286D01*
X145833333Y-60523810D01*
X145833333Y-60380952D01*
X145880952Y-60190476D01*
X145928571Y-60095238D01*
X146023809Y-60000000D01*
X146166667Y-59952381D01*
X146261905Y-59952381D01*
X146404762Y-60000000D01*
X146452381Y-60047619D01*
X146642857Y-61047619D02*
X147404762Y-61047619D01*
X147547619Y-59952381D02*
X147785714Y-60952381D01*
X147976191Y-60238095D01*
X148166667Y-60952381D01*
X148404762Y-59952381D01*
X148785714Y-60952381D02*
X148785714Y-59952381D01*
X149119048Y-60666667D01*
X149452381Y-59952381D01*
X149452381Y-60952381D01*
X150071428Y-60380952D02*
X149976190Y-60333333D01*
X149928571Y-60285714D01*
X149880952Y-60190476D01*
X149880952Y-60142857D01*
X149928571Y-60047619D01*
X149976190Y-60000000D01*
X150071428Y-59952381D01*
X150261905Y-59952381D01*
X150357143Y-60000000D01*
X150404762Y-60047619D01*
X150452381Y-60142857D01*
X150452381Y-60190476D01*
X150404762Y-60285714D01*
X150357143Y-60333333D01*
X150261905Y-60380952D01*
X150071428Y-60380952D01*
X149976190Y-60428571D01*
X149928571Y-60476190D01*
X149880952Y-60571429D01*
X149880952Y-60761905D01*
X149928571Y-60857143D01*
X149976190Y-60904762D01*
X150071428Y-60952381D01*
X150261905Y-60952381D01*
X150357143Y-60904762D01*
X150404762Y-60857143D01*
X150452381Y-60761905D01*
X150452381Y-60571429D01*
X150404762Y-60476190D01*
X150357143Y-60428571D01*
X150261905Y-60380952D01*
X150785714Y-59952381D02*
X151452381Y-59952381D01*
X151023809Y-60952381D01*
X151738095Y-59952381D02*
X152357143Y-59952381D01*
X152023809Y-60333333D01*
X152166667Y-60333333D01*
X152261905Y-60380952D01*
X152309524Y-60428571D01*
X152357143Y-60523810D01*
X152357143Y-60761905D01*
X152309524Y-60857143D01*
X152261905Y-60904762D01*
X152166667Y-60952381D01*
X151880952Y-60952381D01*
X151785714Y-60904762D01*
X151738095Y-60857143D01*
X153309524Y-60952381D02*
X152738095Y-60952381D01*
X153023809Y-60952381D02*
X153023809Y-59952381D01*
X152928571Y-60095238D01*
X152833333Y-60190476D01*
X152738095Y-60238095D01*
X120357143Y-44166666D02*
X120404762Y-44214285D01*
X120452381Y-44357142D01*
X120452381Y-44452380D01*
X120404762Y-44595238D01*
X120309524Y-44690476D01*
X120214286Y-44738095D01*
X120023810Y-44785714D01*
X119880952Y-44785714D01*
X119690476Y-44738095D01*
X119595238Y-44690476D01*
X119500000Y-44595238D01*
X119452381Y-44452380D01*
X119452381Y-44357142D01*
X119500000Y-44214285D01*
X119547619Y-44166666D01*
X120452381Y-43214285D02*
X120452381Y-43785714D01*
X120452381Y-43500000D02*
X119452381Y-43500000D01*
X119595238Y-43595238D01*
X119690476Y-43690476D01*
X119738095Y-43785714D01*
X121452381Y-33238095D02*
X120452381Y-33238095D01*
X120452381Y-33000000D01*
X120500000Y-32857142D01*
X120595238Y-32761904D01*
X120690476Y-32714285D01*
X120880952Y-32666666D01*
X121023810Y-32666666D01*
X121214286Y-32714285D01*
X121309524Y-32761904D01*
X121404762Y-32857142D01*
X121452381Y-33000000D01*
X121452381Y-33238095D01*
X121452381Y-31714285D02*
X121452381Y-32285714D01*
X121452381Y-32000000D02*
X120452381Y-32000000D01*
X120595238Y-32095238D01*
X120690476Y-32190476D01*
X120738095Y-32285714D01*
X116952381Y-44166666D02*
X116476190Y-44500000D01*
X116952381Y-44738095D02*
X115952381Y-44738095D01*
X115952381Y-44357142D01*
X116000000Y-44261904D01*
X116047619Y-44214285D01*
X116142857Y-44166666D01*
X116285714Y-44166666D01*
X116380952Y-44214285D01*
X116428571Y-44261904D01*
X116476190Y-44357142D01*
X116476190Y-44738095D01*
X116047619Y-43785714D02*
X116000000Y-43738095D01*
X115952381Y-43642857D01*
X115952381Y-43404761D01*
X116000000Y-43309523D01*
X116047619Y-43261904D01*
X116142857Y-43214285D01*
X116238095Y-43214285D01*
X116380952Y-43261904D01*
X116952381Y-43833333D01*
X116952381Y-43214285D01*
X113452381Y-44166666D02*
X112976190Y-44500000D01*
X113452381Y-44738095D02*
X112452381Y-44738095D01*
X112452381Y-44357142D01*
X112500000Y-44261904D01*
X112547619Y-44214285D01*
X112642857Y-44166666D01*
X112785714Y-44166666D01*
X112880952Y-44214285D01*
X112928571Y-44261904D01*
X112976190Y-44357142D01*
X112976190Y-44738095D01*
X112452381Y-43833333D02*
X112452381Y-43214285D01*
X112833333Y-43547619D01*
X112833333Y-43404761D01*
X112880952Y-43309523D01*
X112928571Y-43261904D01*
X113023810Y-43214285D01*
X113261905Y-43214285D01*
X113357143Y-43261904D01*
X113404762Y-43309523D01*
X113452381Y-43404761D01*
X113452381Y-43690476D01*
X113404762Y-43785714D01*
X113357143Y-43833333D01*
X109952381Y-44166666D02*
X109476190Y-44500000D01*
X109952381Y-44738095D02*
X108952381Y-44738095D01*
X108952381Y-44357142D01*
X109000000Y-44261904D01*
X109047619Y-44214285D01*
X109142857Y-44166666D01*
X109285714Y-44166666D01*
X109380952Y-44214285D01*
X109428571Y-44261904D01*
X109476190Y-44357142D01*
X109476190Y-44738095D01*
X109285714Y-43309523D02*
X109952381Y-43309523D01*
X108904762Y-43547619D02*
X109619048Y-43785714D01*
X109619048Y-43166666D01*
X116404762Y-31333333D02*
X116452381Y-31190476D01*
X116452381Y-30952380D01*
X116404762Y-30857142D01*
X116357143Y-30809523D01*
X116261905Y-30761904D01*
X116166667Y-30761904D01*
X116071429Y-30809523D01*
X116023810Y-30857142D01*
X115976190Y-30952380D01*
X115928571Y-31142857D01*
X115880952Y-31238095D01*
X115833333Y-31285714D01*
X115738095Y-31333333D01*
X115642857Y-31333333D01*
X115547619Y-31285714D01*
X115500000Y-31238095D01*
X115452381Y-31142857D01*
X115452381Y-30904761D01*
X115500000Y-30761904D01*
X115452381Y-30428571D02*
X116452381Y-30190476D01*
X115738095Y-29999999D01*
X116452381Y-29809523D01*
X115452381Y-29571428D01*
X116452381Y-28666666D02*
X116452381Y-29238095D01*
X116452381Y-28952381D02*
X115452381Y-28952381D01*
X115595238Y-29047619D01*
X115690476Y-29142857D01*
X115738095Y-29238095D01*
X135802381Y-65166666D02*
X135326190Y-65500000D01*
X135802381Y-65738095D02*
X134802381Y-65738095D01*
X134802381Y-65357142D01*
X134850000Y-65261904D01*
X134897619Y-65214285D01*
X134992857Y-65166666D01*
X135135714Y-65166666D01*
X135230952Y-65214285D01*
X135278571Y-65261904D01*
X135326190Y-65357142D01*
X135326190Y-65738095D01*
X135802381Y-64214285D02*
X135802381Y-64785714D01*
X135802381Y-64500000D02*
X134802381Y-64500000D01*
X134945238Y-64595238D01*
X135040476Y-64690476D01*
X135088095Y-64785714D01*
X115690476Y-140952381D02*
X115690476Y-139952381D01*
X116023810Y-140666667D01*
X116357143Y-139952381D01*
X116357143Y-140952381D01*
X117357143Y-140952381D02*
X116785714Y-140952381D01*
X117071428Y-140952381D02*
X117071428Y-139952381D01*
X116976190Y-140095238D01*
X116880952Y-140190476D01*
X116785714Y-140238095D01*
X132277381Y-151997381D02*
X132277381Y-150997381D01*
X132658334Y-150997381D01*
X132753572Y-151045000D01*
X132801191Y-151092619D01*
X132848810Y-151187857D01*
X132848810Y-151330714D01*
X132801191Y-151425952D01*
X132753572Y-151473571D01*
X132658334Y-151521190D01*
X132277381Y-151521190D01*
X133467857Y-150997381D02*
X133658334Y-150997381D01*
X133753572Y-151045000D01*
X133848810Y-151140238D01*
X133896429Y-151330714D01*
X133896429Y-151664048D01*
X133848810Y-151854524D01*
X133753572Y-151949762D01*
X133658334Y-151997381D01*
X133467857Y-151997381D01*
X133372619Y-151949762D01*
X133277381Y-151854524D01*
X133229762Y-151664048D01*
X133229762Y-151330714D01*
X133277381Y-151140238D01*
X133372619Y-151045000D01*
X133467857Y-150997381D01*
X134229762Y-150997381D02*
X134467857Y-151997381D01*
X134658334Y-151283095D01*
X134848810Y-151997381D01*
X135086905Y-150997381D01*
X135467857Y-151473571D02*
X135801191Y-151473571D01*
X135944048Y-151997381D02*
X135467857Y-151997381D01*
X135467857Y-150997381D01*
X135944048Y-150997381D01*
X136944048Y-151997381D02*
X136610714Y-151521190D01*
X136372619Y-151997381D02*
X136372619Y-150997381D01*
X136753572Y-150997381D01*
X136848810Y-151045000D01*
X136896429Y-151092619D01*
X136944048Y-151187857D01*
X136944048Y-151330714D01*
X136896429Y-151425952D01*
X136848810Y-151473571D01*
X136753572Y-151521190D01*
X136372619Y-151521190D01*
X137134524Y-152092619D02*
X137896429Y-152092619D01*
X138134524Y-151997381D02*
X138134524Y-150997381D01*
X138467858Y-151711667D01*
X138801191Y-150997381D01*
X138801191Y-151997381D01*
X139610715Y-151473571D02*
X139753572Y-151521190D01*
X139801191Y-151568810D01*
X139848810Y-151664048D01*
X139848810Y-151806905D01*
X139801191Y-151902143D01*
X139753572Y-151949762D01*
X139658334Y-151997381D01*
X139277381Y-151997381D01*
X139277381Y-150997381D01*
X139610715Y-150997381D01*
X139705953Y-151045000D01*
X139753572Y-151092619D01*
X139801191Y-151187857D01*
X139801191Y-151283095D01*
X139753572Y-151378333D01*
X139705953Y-151425952D01*
X139610715Y-151473571D01*
X139277381Y-151473571D01*
X140039286Y-152092619D02*
X140801191Y-152092619D01*
X140896429Y-150997381D02*
X141229762Y-151997381D01*
X141563096Y-150997381D01*
X141848810Y-151092619D02*
X141896429Y-151045000D01*
X141991667Y-150997381D01*
X142229763Y-150997381D01*
X142325001Y-151045000D01*
X142372620Y-151092619D01*
X142420239Y-151187857D01*
X142420239Y-151283095D01*
X142372620Y-151425952D01*
X141801191Y-151997381D01*
X142420239Y-151997381D01*
X121553571Y-164967381D02*
X121553571Y-165776905D01*
X121601190Y-165872143D01*
X121648809Y-165919762D01*
X121744047Y-165967381D01*
X121934524Y-165967381D01*
X122029762Y-165919762D01*
X122077381Y-165872143D01*
X122125000Y-165776905D01*
X122125000Y-164967381D01*
X122553571Y-165919762D02*
X122696428Y-165967381D01*
X122934524Y-165967381D01*
X123029762Y-165919762D01*
X123077381Y-165872143D01*
X123125000Y-165776905D01*
X123125000Y-165681667D01*
X123077381Y-165586429D01*
X123029762Y-165538810D01*
X122934524Y-165491190D01*
X122744047Y-165443571D01*
X122648809Y-165395952D01*
X122601190Y-165348333D01*
X122553571Y-165253095D01*
X122553571Y-165157857D01*
X122601190Y-165062619D01*
X122648809Y-165015000D01*
X122744047Y-164967381D01*
X122982143Y-164967381D01*
X123125000Y-165015000D01*
X123886905Y-165443571D02*
X124029762Y-165491190D01*
X124077381Y-165538810D01*
X124125000Y-165634048D01*
X124125000Y-165776905D01*
X124077381Y-165872143D01*
X124029762Y-165919762D01*
X123934524Y-165967381D01*
X123553571Y-165967381D01*
X123553571Y-164967381D01*
X123886905Y-164967381D01*
X123982143Y-165015000D01*
X124029762Y-165062619D01*
X124077381Y-165157857D01*
X124077381Y-165253095D01*
X124029762Y-165348333D01*
X123982143Y-165395952D01*
X123886905Y-165443571D01*
X123553571Y-165443571D01*
X124553571Y-165586429D02*
X125315476Y-165586429D01*
X125934523Y-165967381D02*
X125839285Y-165919762D01*
X125791666Y-165872143D01*
X125744047Y-165776905D01*
X125744047Y-165491190D01*
X125791666Y-165395952D01*
X125839285Y-165348333D01*
X125934523Y-165300714D01*
X126077381Y-165300714D01*
X126172619Y-165348333D01*
X126220238Y-165395952D01*
X126267857Y-165491190D01*
X126267857Y-165776905D01*
X126220238Y-165872143D01*
X126172619Y-165919762D01*
X126077381Y-165967381D01*
X125934523Y-165967381D01*
X127125000Y-165300714D02*
X127125000Y-165967381D01*
X126696428Y-165300714D02*
X126696428Y-165824524D01*
X126744047Y-165919762D01*
X126839285Y-165967381D01*
X126982143Y-165967381D01*
X127077381Y-165919762D01*
X127125000Y-165872143D01*
X127458333Y-165300714D02*
X127839285Y-165300714D01*
X127601190Y-164967381D02*
X127601190Y-165824524D01*
X127648809Y-165919762D01*
X127744047Y-165967381D01*
X127839285Y-165967381D01*
X156843572Y-164062381D02*
X156843572Y-163062381D01*
X157081667Y-163062381D01*
X157224525Y-163110000D01*
X157319763Y-163205238D01*
X157367382Y-163300476D01*
X157415001Y-163490952D01*
X157415001Y-163633810D01*
X157367382Y-163824286D01*
X157319763Y-163919524D01*
X157224525Y-164014762D01*
X157081667Y-164062381D01*
X156843572Y-164062381D01*
X158415001Y-163967143D02*
X158367382Y-164014762D01*
X158224525Y-164062381D01*
X158129287Y-164062381D01*
X157986429Y-164014762D01*
X157891191Y-163919524D01*
X157843572Y-163824286D01*
X157795953Y-163633810D01*
X157795953Y-163490952D01*
X157843572Y-163300476D01*
X157891191Y-163205238D01*
X157986429Y-163110000D01*
X158129287Y-163062381D01*
X158224525Y-163062381D01*
X158367382Y-163110000D01*
X158415001Y-163157619D01*
X158843572Y-163681429D02*
X159605477Y-163681429D01*
X160081667Y-164062381D02*
X160081667Y-163395714D01*
X160081667Y-163062381D02*
X160034048Y-163110000D01*
X160081667Y-163157619D01*
X160129286Y-163110000D01*
X160081667Y-163062381D01*
X160081667Y-163157619D01*
X160557857Y-163395714D02*
X160557857Y-164062381D01*
X160557857Y-163490952D02*
X160605476Y-163443333D01*
X160700714Y-163395714D01*
X160843572Y-163395714D01*
X160938810Y-163443333D01*
X160986429Y-163538571D01*
X160986429Y-164062381D01*
X164119048Y-154571429D02*
X164880953Y-154571429D01*
X164500001Y-154952381D02*
X164500001Y-154190476D01*
X157119048Y-154571429D02*
X157880953Y-154571429D01*
X112619048Y-154571429D02*
X113380953Y-154571429D01*
X119619048Y-154571429D02*
X120380953Y-154571429D01*
X120000001Y-154952381D02*
X120000001Y-154190476D01*
X115302524Y-63778143D02*
X115254905Y-63825762D01*
X115112048Y-63873381D01*
X115016810Y-63873381D01*
X114873952Y-63825762D01*
X114778714Y-63730524D01*
X114731095Y-63635286D01*
X114683476Y-63444810D01*
X114683476Y-63301952D01*
X114731095Y-63111476D01*
X114778714Y-63016238D01*
X114873952Y-62921000D01*
X115016810Y-62873381D01*
X115112048Y-62873381D01*
X115254905Y-62921000D01*
X115302524Y-62968619D01*
X115731095Y-63873381D02*
X115731095Y-62873381D01*
X116302524Y-63873381D01*
X116302524Y-62873381D01*
X116921571Y-63301952D02*
X116826333Y-63254333D01*
X116778714Y-63206714D01*
X116731095Y-63111476D01*
X116731095Y-63063857D01*
X116778714Y-62968619D01*
X116826333Y-62921000D01*
X116921571Y-62873381D01*
X117112048Y-62873381D01*
X117207286Y-62921000D01*
X117254905Y-62968619D01*
X117302524Y-63063857D01*
X117302524Y-63111476D01*
X117254905Y-63206714D01*
X117207286Y-63254333D01*
X117112048Y-63301952D01*
X116921571Y-63301952D01*
X116826333Y-63349571D01*
X116778714Y-63397190D01*
X116731095Y-63492429D01*
X116731095Y-63682905D01*
X116778714Y-63778143D01*
X116826333Y-63825762D01*
X116921571Y-63873381D01*
X117112048Y-63873381D01*
X117207286Y-63825762D01*
X117254905Y-63778143D01*
X117302524Y-63682905D01*
X117302524Y-63492429D01*
X117254905Y-63397190D01*
X117207286Y-63349571D01*
X117112048Y-63301952D01*
X120065024Y-124591643D02*
X120017405Y-124639262D01*
X119874548Y-124686881D01*
X119779310Y-124686881D01*
X119636452Y-124639262D01*
X119541214Y-124544024D01*
X119493595Y-124448786D01*
X119445976Y-124258310D01*
X119445976Y-124115452D01*
X119493595Y-123924976D01*
X119541214Y-123829738D01*
X119636452Y-123734500D01*
X119779310Y-123686881D01*
X119874548Y-123686881D01*
X120017405Y-123734500D01*
X120065024Y-123782119D01*
X120493595Y-124686881D02*
X120493595Y-123686881D01*
X121065024Y-124686881D01*
X121065024Y-123686881D01*
X121588833Y-124686881D02*
X121779309Y-124686881D01*
X121874548Y-124639262D01*
X121922167Y-124591643D01*
X122017405Y-124448786D01*
X122065024Y-124258310D01*
X122065024Y-123877357D01*
X122017405Y-123782119D01*
X121969786Y-123734500D01*
X121874548Y-123686881D01*
X121684071Y-123686881D01*
X121588833Y-123734500D01*
X121541214Y-123782119D01*
X121493595Y-123877357D01*
X121493595Y-124115452D01*
X121541214Y-124210690D01*
X121588833Y-124258310D01*
X121684071Y-124305929D01*
X121874548Y-124305929D01*
X121969786Y-124258310D01*
X122017405Y-124210690D01*
X122065024Y-124115452D01*
X161022524Y-54761143D02*
X160974905Y-54808762D01*
X160832048Y-54856381D01*
X160736810Y-54856381D01*
X160593952Y-54808762D01*
X160498714Y-54713524D01*
X160451095Y-54618286D01*
X160403476Y-54427810D01*
X160403476Y-54284952D01*
X160451095Y-54094476D01*
X160498714Y-53999238D01*
X160593952Y-53904000D01*
X160736810Y-53856381D01*
X160832048Y-53856381D01*
X160974905Y-53904000D01*
X161022524Y-53951619D01*
X161451095Y-54856381D02*
X161451095Y-53856381D01*
X162022524Y-54856381D01*
X162022524Y-53856381D01*
X162403476Y-53856381D02*
X163070143Y-53856381D01*
X162641571Y-54856381D01*
X165943834Y-124528143D02*
X165896215Y-124575762D01*
X165753358Y-124623381D01*
X165658120Y-124623381D01*
X165515262Y-124575762D01*
X165420024Y-124480524D01*
X165372405Y-124385286D01*
X165324786Y-124194810D01*
X165324786Y-124051952D01*
X165372405Y-123861476D01*
X165420024Y-123766238D01*
X165515262Y-123671000D01*
X165658120Y-123623381D01*
X165753358Y-123623381D01*
X165896215Y-123671000D01*
X165943834Y-123718619D01*
X166372405Y-124623381D02*
X166372405Y-123623381D01*
X166943834Y-124623381D01*
X166943834Y-123623381D01*
X167943834Y-124623381D02*
X167372405Y-124623381D01*
X167658119Y-124623381D02*
X167658119Y-123623381D01*
X167562881Y-123766238D01*
X167467643Y-123861476D01*
X167372405Y-123909095D01*
X168562881Y-123623381D02*
X168658120Y-123623381D01*
X168753358Y-123671000D01*
X168800977Y-123718619D01*
X168848596Y-123813857D01*
X168896215Y-124004333D01*
X168896215Y-124242429D01*
X168848596Y-124432905D01*
X168800977Y-124528143D01*
X168753358Y-124575762D01*
X168658120Y-124623381D01*
X168562881Y-124623381D01*
X168467643Y-124575762D01*
X168420024Y-124528143D01*
X168372405Y-124432905D01*
X168324786Y-124242429D01*
X168324786Y-124004333D01*
X168372405Y-123813857D01*
X168420024Y-123718619D01*
X168467643Y-123671000D01*
X168562881Y-123623381D01*
X122978095Y-83872381D02*
X122978095Y-84681905D01*
X123025714Y-84777143D01*
X123073333Y-84824762D01*
X123168571Y-84872381D01*
X123359048Y-84872381D01*
X123454286Y-84824762D01*
X123501905Y-84777143D01*
X123549524Y-84681905D01*
X123549524Y-83872381D01*
X124549524Y-84872381D02*
X123978095Y-84872381D01*
X124263809Y-84872381D02*
X124263809Y-83872381D01*
X124168571Y-84015238D01*
X124073333Y-84110476D01*
X123978095Y-84158095D01*
X135400952Y-112177381D02*
X135400952Y-111177381D01*
X135972381Y-112177381D01*
X135972381Y-111177381D01*
X136639047Y-111177381D02*
X136829524Y-111177381D01*
X136924762Y-111225000D01*
X137020000Y-111320238D01*
X137067619Y-111510714D01*
X137067619Y-111844048D01*
X137020000Y-112034524D01*
X136924762Y-112129762D01*
X136829524Y-112177381D01*
X136639047Y-112177381D01*
X136543809Y-112129762D01*
X136448571Y-112034524D01*
X136400952Y-111844048D01*
X136400952Y-111510714D01*
X136448571Y-111320238D01*
X136543809Y-111225000D01*
X136639047Y-111177381D01*
X137496190Y-112177381D02*
X137496190Y-111177381D01*
X137734285Y-111177381D01*
X137877143Y-111225000D01*
X137972381Y-111320238D01*
X138020000Y-111415476D01*
X138067619Y-111605952D01*
X138067619Y-111748810D01*
X138020000Y-111939286D01*
X137972381Y-112034524D01*
X137877143Y-112129762D01*
X137734285Y-112177381D01*
X137496190Y-112177381D01*
X138496190Y-111653571D02*
X138829524Y-111653571D01*
X138972381Y-112177381D02*
X138496190Y-112177381D01*
X138496190Y-111177381D01*
X138972381Y-111177381D01*
X139400952Y-112177381D02*
X139400952Y-111177381D01*
X139734286Y-111891667D01*
X140067619Y-111177381D01*
X140067619Y-112177381D01*
X141115238Y-112082143D02*
X141067619Y-112129762D01*
X140924762Y-112177381D01*
X140829524Y-112177381D01*
X140686666Y-112129762D01*
X140591428Y-112034524D01*
X140543809Y-111939286D01*
X140496190Y-111748810D01*
X140496190Y-111605952D01*
X140543809Y-111415476D01*
X140591428Y-111320238D01*
X140686666Y-111225000D01*
X140829524Y-111177381D01*
X140924762Y-111177381D01*
X141067619Y-111225000D01*
X141115238Y-111272619D01*
X141543809Y-111177381D02*
X141543809Y-111986905D01*
X141591428Y-112082143D01*
X141639047Y-112129762D01*
X141734285Y-112177381D01*
X141924762Y-112177381D01*
X142020000Y-112129762D01*
X142067619Y-112082143D01*
X142115238Y-111986905D01*
X142115238Y-111177381D01*
X142353333Y-112272619D02*
X143115238Y-112272619D01*
X143353333Y-111653571D02*
X143686667Y-111653571D01*
X143829524Y-112177381D02*
X143353333Y-112177381D01*
X143353333Y-111177381D01*
X143829524Y-111177381D01*
X144210476Y-112129762D02*
X144353333Y-112177381D01*
X144591429Y-112177381D01*
X144686667Y-112129762D01*
X144734286Y-112082143D01*
X144781905Y-111986905D01*
X144781905Y-111891667D01*
X144734286Y-111796429D01*
X144686667Y-111748810D01*
X144591429Y-111701190D01*
X144400952Y-111653571D01*
X144305714Y-111605952D01*
X144258095Y-111558333D01*
X144210476Y-111463095D01*
X144210476Y-111367857D01*
X144258095Y-111272619D01*
X144305714Y-111225000D01*
X144400952Y-111177381D01*
X144639048Y-111177381D01*
X144781905Y-111225000D01*
X145210476Y-112177381D02*
X145210476Y-111177381D01*
X145591429Y-111177381D01*
X145686667Y-111225000D01*
X145734286Y-111272619D01*
X145781905Y-111367857D01*
X145781905Y-111510714D01*
X145734286Y-111605952D01*
X145686667Y-111653571D01*
X145591429Y-111701190D01*
X145210476Y-111701190D01*
X146734286Y-112177381D02*
X146162857Y-112177381D01*
X146448571Y-112177381D02*
X146448571Y-111177381D01*
X146353333Y-111320238D01*
X146258095Y-111415476D01*
X146162857Y-111463095D01*
X147115238Y-111272619D02*
X147162857Y-111225000D01*
X147258095Y-111177381D01*
X147496191Y-111177381D01*
X147591429Y-111225000D01*
X147639048Y-111272619D01*
X147686667Y-111367857D01*
X147686667Y-111463095D01*
X147639048Y-111605952D01*
X147067619Y-112177381D01*
X147686667Y-112177381D01*
X136892857Y-140117381D02*
X136892857Y-139450714D01*
X136892857Y-139545952D02*
X136940476Y-139498333D01*
X137035714Y-139450714D01*
X137178572Y-139450714D01*
X137273810Y-139498333D01*
X137321429Y-139593571D01*
X137321429Y-140117381D01*
X137321429Y-139593571D02*
X137369048Y-139498333D01*
X137464286Y-139450714D01*
X137607143Y-139450714D01*
X137702381Y-139498333D01*
X137750000Y-139593571D01*
X137750000Y-140117381D01*
X138226190Y-140117381D02*
X138226190Y-139450714D01*
X138226190Y-139117381D02*
X138178571Y-139165000D01*
X138226190Y-139212619D01*
X138273809Y-139165000D01*
X138226190Y-139117381D01*
X138226190Y-139212619D01*
X139130952Y-140069762D02*
X139035714Y-140117381D01*
X138845237Y-140117381D01*
X138749999Y-140069762D01*
X138702380Y-140022143D01*
X138654761Y-139926905D01*
X138654761Y-139641190D01*
X138702380Y-139545952D01*
X138749999Y-139498333D01*
X138845237Y-139450714D01*
X139035714Y-139450714D01*
X139130952Y-139498333D01*
X139559523Y-140117381D02*
X139559523Y-139450714D01*
X139559523Y-139641190D02*
X139607142Y-139545952D01*
X139654761Y-139498333D01*
X139749999Y-139450714D01*
X139845238Y-139450714D01*
X140321428Y-140117381D02*
X140226190Y-140069762D01*
X140178571Y-140022143D01*
X140130952Y-139926905D01*
X140130952Y-139641190D01*
X140178571Y-139545952D01*
X140226190Y-139498333D01*
X140321428Y-139450714D01*
X140464286Y-139450714D01*
X140559524Y-139498333D01*
X140607143Y-139545952D01*
X140654762Y-139641190D01*
X140654762Y-139926905D01*
X140607143Y-140022143D01*
X140559524Y-140069762D01*
X140464286Y-140117381D01*
X140321428Y-140117381D01*
X141083333Y-139117381D02*
X141083333Y-139926905D01*
X141130952Y-140022143D01*
X141178571Y-140069762D01*
X141273809Y-140117381D01*
X141464286Y-140117381D01*
X141559524Y-140069762D01*
X141607143Y-140022143D01*
X141654762Y-139926905D01*
X141654762Y-139117381D01*
X142083333Y-140069762D02*
X142226190Y-140117381D01*
X142464286Y-140117381D01*
X142559524Y-140069762D01*
X142607143Y-140022143D01*
X142654762Y-139926905D01*
X142654762Y-139831667D01*
X142607143Y-139736429D01*
X142559524Y-139688810D01*
X142464286Y-139641190D01*
X142273809Y-139593571D01*
X142178571Y-139545952D01*
X142130952Y-139498333D01*
X142083333Y-139403095D01*
X142083333Y-139307857D01*
X142130952Y-139212619D01*
X142178571Y-139165000D01*
X142273809Y-139117381D01*
X142511905Y-139117381D01*
X142654762Y-139165000D01*
X143416667Y-139593571D02*
X143559524Y-139641190D01*
X143607143Y-139688810D01*
X143654762Y-139784048D01*
X143654762Y-139926905D01*
X143607143Y-140022143D01*
X143559524Y-140069762D01*
X143464286Y-140117381D01*
X143083333Y-140117381D01*
X143083333Y-139117381D01*
X143416667Y-139117381D01*
X143511905Y-139165000D01*
X143559524Y-139212619D01*
X143607143Y-139307857D01*
X143607143Y-139403095D01*
X143559524Y-139498333D01*
X143511905Y-139545952D01*
X143416667Y-139593571D01*
X143083333Y-139593571D01*
X151195905Y-95540381D02*
X151195905Y-94540381D01*
X151434000Y-94540381D01*
X151576858Y-94588000D01*
X151672096Y-94683238D01*
X151719715Y-94778476D01*
X151767334Y-94968952D01*
X151767334Y-95111810D01*
X151719715Y-95302286D01*
X151672096Y-95397524D01*
X151576858Y-95492762D01*
X151434000Y-95540381D01*
X151195905Y-95540381D01*
X152386381Y-94540381D02*
X152481620Y-94540381D01*
X152576858Y-94588000D01*
X152624477Y-94635619D01*
X152672096Y-94730857D01*
X152719715Y-94921333D01*
X152719715Y-95159429D01*
X152672096Y-95349905D01*
X152624477Y-95445143D01*
X152576858Y-95492762D01*
X152481620Y-95540381D01*
X152386381Y-95540381D01*
X152291143Y-95492762D01*
X152243524Y-95445143D01*
X152195905Y-95349905D01*
X152148286Y-95159429D01*
X152148286Y-94921333D01*
X152195905Y-94730857D01*
X152243524Y-94635619D01*
X152291143Y-94588000D01*
X152386381Y-94540381D01*
X151068905Y-98080381D02*
X151068905Y-97080381D01*
X151307000Y-97080381D01*
X151449858Y-97128000D01*
X151545096Y-97223238D01*
X151592715Y-97318476D01*
X151640334Y-97508952D01*
X151640334Y-97651810D01*
X151592715Y-97842286D01*
X151545096Y-97937524D01*
X151449858Y-98032762D01*
X151307000Y-98080381D01*
X151068905Y-98080381D01*
X152592715Y-98080381D02*
X152021286Y-98080381D01*
X152307000Y-98080381D02*
X152307000Y-97080381D01*
X152211762Y-97223238D01*
X152116524Y-97318476D01*
X152021286Y-97366095D01*
X151068905Y-100620381D02*
X151068905Y-99620381D01*
X151307000Y-99620381D01*
X151449858Y-99668000D01*
X151545096Y-99763238D01*
X151592715Y-99858476D01*
X151640334Y-100048952D01*
X151640334Y-100191810D01*
X151592715Y-100382286D01*
X151545096Y-100477524D01*
X151449858Y-100572762D01*
X151307000Y-100620381D01*
X151068905Y-100620381D01*
X152021286Y-99715619D02*
X152068905Y-99668000D01*
X152164143Y-99620381D01*
X152402239Y-99620381D01*
X152497477Y-99668000D01*
X152545096Y-99715619D01*
X152592715Y-99810857D01*
X152592715Y-99906095D01*
X152545096Y-100048952D01*
X151973667Y-100620381D01*
X152592715Y-100620381D01*
X151068905Y-103160381D02*
X151068905Y-102160381D01*
X151307000Y-102160381D01*
X151449858Y-102208000D01*
X151545096Y-102303238D01*
X151592715Y-102398476D01*
X151640334Y-102588952D01*
X151640334Y-102731810D01*
X151592715Y-102922286D01*
X151545096Y-103017524D01*
X151449858Y-103112762D01*
X151307000Y-103160381D01*
X151068905Y-103160381D01*
X151973667Y-102160381D02*
X152592715Y-102160381D01*
X152259381Y-102541333D01*
X152402239Y-102541333D01*
X152497477Y-102588952D01*
X152545096Y-102636571D01*
X152592715Y-102731810D01*
X152592715Y-102969905D01*
X152545096Y-103065143D01*
X152497477Y-103112762D01*
X152402239Y-103160381D01*
X152116524Y-103160381D01*
X152021286Y-103112762D01*
X151973667Y-103065143D01*
X150941905Y-105700381D02*
X150941905Y-104700381D01*
X151180000Y-104700381D01*
X151322858Y-104748000D01*
X151418096Y-104843238D01*
X151465715Y-104938476D01*
X151513334Y-105128952D01*
X151513334Y-105271810D01*
X151465715Y-105462286D01*
X151418096Y-105557524D01*
X151322858Y-105652762D01*
X151180000Y-105700381D01*
X150941905Y-105700381D01*
X152370477Y-105033714D02*
X152370477Y-105700381D01*
X152132381Y-104652762D02*
X151894286Y-105367048D01*
X152513334Y-105367048D01*
X150918095Y-107240381D02*
X151537143Y-107240381D01*
X151203809Y-107621333D01*
X151346667Y-107621333D01*
X151441905Y-107668952D01*
X151489524Y-107716571D01*
X151537143Y-107811810D01*
X151537143Y-108049905D01*
X151489524Y-108145143D01*
X151441905Y-108192762D01*
X151346667Y-108240381D01*
X151060952Y-108240381D01*
X150965714Y-108192762D01*
X150918095Y-108145143D01*
X151822857Y-107240381D02*
X152156190Y-108240381D01*
X152489524Y-107240381D01*
X152449905Y-109828000D02*
X152354667Y-109780381D01*
X152211810Y-109780381D01*
X152068952Y-109828000D01*
X151973714Y-109923238D01*
X151926095Y-110018476D01*
X151878476Y-110208952D01*
X151878476Y-110351810D01*
X151926095Y-110542286D01*
X151973714Y-110637524D01*
X152068952Y-110732762D01*
X152211810Y-110780381D01*
X152307048Y-110780381D01*
X152449905Y-110732762D01*
X152497524Y-110685143D01*
X152497524Y-110351810D01*
X152307048Y-110351810D01*
X150941905Y-113320381D02*
X150941905Y-112320381D01*
X151180000Y-112320381D01*
X151322858Y-112368000D01*
X151418096Y-112463238D01*
X151465715Y-112558476D01*
X151513334Y-112748952D01*
X151513334Y-112891810D01*
X151465715Y-113082286D01*
X151418096Y-113177524D01*
X151322858Y-113272762D01*
X151180000Y-113320381D01*
X150941905Y-113320381D01*
X152418096Y-112320381D02*
X151941905Y-112320381D01*
X151894286Y-112796571D01*
X151941905Y-112748952D01*
X152037143Y-112701333D01*
X152275239Y-112701333D01*
X152370477Y-112748952D01*
X152418096Y-112796571D01*
X152465715Y-112891810D01*
X152465715Y-113129905D01*
X152418096Y-113225143D01*
X152370477Y-113272762D01*
X152275239Y-113320381D01*
X152037143Y-113320381D01*
X151941905Y-113272762D01*
X151894286Y-113225143D01*
X150941905Y-115860381D02*
X150941905Y-114860381D01*
X151180000Y-114860381D01*
X151322858Y-114908000D01*
X151418096Y-115003238D01*
X151465715Y-115098476D01*
X151513334Y-115288952D01*
X151513334Y-115431810D01*
X151465715Y-115622286D01*
X151418096Y-115717524D01*
X151322858Y-115812762D01*
X151180000Y-115860381D01*
X150941905Y-115860381D01*
X152370477Y-114860381D02*
X152180000Y-114860381D01*
X152084762Y-114908000D01*
X152037143Y-114955619D01*
X151941905Y-115098476D01*
X151894286Y-115288952D01*
X151894286Y-115669905D01*
X151941905Y-115765143D01*
X151989524Y-115812762D01*
X152084762Y-115860381D01*
X152275239Y-115860381D01*
X152370477Y-115812762D01*
X152418096Y-115765143D01*
X152465715Y-115669905D01*
X152465715Y-115431810D01*
X152418096Y-115336571D01*
X152370477Y-115288952D01*
X152275239Y-115241333D01*
X152084762Y-115241333D01*
X151989524Y-115288952D01*
X151941905Y-115336571D01*
X151894286Y-115431810D01*
X150941905Y-118400381D02*
X150941905Y-117400381D01*
X151180000Y-117400381D01*
X151322858Y-117448000D01*
X151418096Y-117543238D01*
X151465715Y-117638476D01*
X151513334Y-117828952D01*
X151513334Y-117971810D01*
X151465715Y-118162286D01*
X151418096Y-118257524D01*
X151322858Y-118352762D01*
X151180000Y-118400381D01*
X150941905Y-118400381D01*
X151846667Y-117400381D02*
X152513334Y-117400381D01*
X152084762Y-118400381D01*
X150941905Y-120940381D02*
X150941905Y-119940381D01*
X151180000Y-119940381D01*
X151322858Y-119988000D01*
X151418096Y-120083238D01*
X151465715Y-120178476D01*
X151513334Y-120368952D01*
X151513334Y-120511810D01*
X151465715Y-120702286D01*
X151418096Y-120797524D01*
X151322858Y-120892762D01*
X151180000Y-120940381D01*
X150941905Y-120940381D01*
X152084762Y-120368952D02*
X151989524Y-120321333D01*
X151941905Y-120273714D01*
X151894286Y-120178476D01*
X151894286Y-120130857D01*
X151941905Y-120035619D01*
X151989524Y-119988000D01*
X152084762Y-119940381D01*
X152275239Y-119940381D01*
X152370477Y-119988000D01*
X152418096Y-120035619D01*
X152465715Y-120130857D01*
X152465715Y-120178476D01*
X152418096Y-120273714D01*
X152370477Y-120321333D01*
X152275239Y-120368952D01*
X152084762Y-120368952D01*
X151989524Y-120416571D01*
X151941905Y-120464190D01*
X151894286Y-120559429D01*
X151894286Y-120749905D01*
X151941905Y-120845143D01*
X151989524Y-120892762D01*
X152084762Y-120940381D01*
X152275239Y-120940381D01*
X152370477Y-120892762D01*
X152418096Y-120845143D01*
X152465715Y-120749905D01*
X152465715Y-120559429D01*
X152418096Y-120464190D01*
X152370477Y-120416571D01*
X152275239Y-120368952D01*
X151513334Y-123480381D02*
X151180000Y-123004190D01*
X150941905Y-123480381D02*
X150941905Y-122480381D01*
X151322858Y-122480381D01*
X151418096Y-122528000D01*
X151465715Y-122575619D01*
X151513334Y-122670857D01*
X151513334Y-122813714D01*
X151465715Y-122908952D01*
X151418096Y-122956571D01*
X151322858Y-123004190D01*
X150941905Y-123004190D01*
X151846667Y-122480381D02*
X152513334Y-123480381D01*
X152513334Y-122480381D02*
X151846667Y-123480381D01*
X150918095Y-125020381D02*
X151489524Y-125020381D01*
X151203809Y-126020381D02*
X151203809Y-125020381D01*
X151727619Y-125020381D02*
X152394286Y-126020381D01*
X152394286Y-125020381D02*
X151727619Y-126020381D01*
X152322905Y-127735000D02*
X152227667Y-127687381D01*
X152084810Y-127687381D01*
X151941952Y-127735000D01*
X151846714Y-127830238D01*
X151799095Y-127925476D01*
X151751476Y-128115952D01*
X151751476Y-128258810D01*
X151799095Y-128449286D01*
X151846714Y-128544524D01*
X151941952Y-128639762D01*
X152084810Y-128687381D01*
X152180048Y-128687381D01*
X152322905Y-128639762D01*
X152370524Y-128592143D01*
X152370524Y-128258810D01*
X152180048Y-128258810D01*
X150791095Y-130100381D02*
X151410143Y-130100381D01*
X151076809Y-130481333D01*
X151219667Y-130481333D01*
X151314905Y-130528952D01*
X151362524Y-130576571D01*
X151410143Y-130671810D01*
X151410143Y-130909905D01*
X151362524Y-131005143D01*
X151314905Y-131052762D01*
X151219667Y-131100381D01*
X150933952Y-131100381D01*
X150838714Y-131052762D01*
X150791095Y-131005143D01*
X151695857Y-130100381D02*
X152029190Y-131100381D01*
X152362524Y-130100381D01*
X128105762Y-130100381D02*
X128439095Y-131100381D01*
X128772429Y-130100381D01*
X129105762Y-131100381D02*
X129105762Y-130100381D01*
X129581952Y-131100381D02*
X129581952Y-130100381D01*
X130153381Y-131100381D01*
X130153381Y-130100381D01*
X128700905Y-127608000D02*
X128605667Y-127560381D01*
X128462810Y-127560381D01*
X128319952Y-127608000D01*
X128224714Y-127703238D01*
X128177095Y-127798476D01*
X128129476Y-127988952D01*
X128129476Y-128131810D01*
X128177095Y-128322286D01*
X128224714Y-128417524D01*
X128319952Y-128512762D01*
X128462810Y-128560381D01*
X128558048Y-128560381D01*
X128700905Y-128512762D01*
X128748524Y-128465143D01*
X128748524Y-128131810D01*
X128558048Y-128131810D01*
X128653381Y-126020381D02*
X128320047Y-125544190D01*
X128081952Y-126020381D02*
X128081952Y-125020381D01*
X128462905Y-125020381D01*
X128558143Y-125068000D01*
X128605762Y-125115619D01*
X128653381Y-125210857D01*
X128653381Y-125353714D01*
X128605762Y-125448952D01*
X128558143Y-125496571D01*
X128462905Y-125544190D01*
X128081952Y-125544190D01*
X129034333Y-125972762D02*
X129177190Y-126020381D01*
X129415286Y-126020381D01*
X129510524Y-125972762D01*
X129558143Y-125925143D01*
X129605762Y-125829905D01*
X129605762Y-125734667D01*
X129558143Y-125639429D01*
X129510524Y-125591810D01*
X129415286Y-125544190D01*
X129224809Y-125496571D01*
X129129571Y-125448952D01*
X129081952Y-125401333D01*
X129034333Y-125306095D01*
X129034333Y-125210857D01*
X129081952Y-125115619D01*
X129129571Y-125068000D01*
X129224809Y-125020381D01*
X129462905Y-125020381D01*
X129605762Y-125068000D01*
X129891476Y-125020381D02*
X130462905Y-125020381D01*
X130177190Y-126020381D02*
X130177190Y-125020381D01*
X128081905Y-122956571D02*
X128415239Y-122956571D01*
X128558096Y-123480381D02*
X128081905Y-123480381D01*
X128081905Y-122480381D01*
X128558096Y-122480381D01*
X128986667Y-123480381D02*
X128986667Y-122480381D01*
X129558096Y-123480381D01*
X129558096Y-122480381D01*
X128058095Y-119940381D02*
X128677143Y-119940381D01*
X128343809Y-120321333D01*
X128486667Y-120321333D01*
X128581905Y-120368952D01*
X128629524Y-120416571D01*
X128677143Y-120511810D01*
X128677143Y-120749905D01*
X128629524Y-120845143D01*
X128581905Y-120892762D01*
X128486667Y-120940381D01*
X128200952Y-120940381D01*
X128105714Y-120892762D01*
X128058095Y-120845143D01*
X128962857Y-119940381D02*
X129296190Y-120940381D01*
X129629524Y-119940381D01*
X128573905Y-117829000D02*
X128478667Y-117781381D01*
X128335810Y-117781381D01*
X128192952Y-117829000D01*
X128097714Y-117924238D01*
X128050095Y-118019476D01*
X128002476Y-118209952D01*
X128002476Y-118352810D01*
X128050095Y-118543286D01*
X128097714Y-118638524D01*
X128192952Y-118733762D01*
X128335810Y-118781381D01*
X128431048Y-118781381D01*
X128573905Y-118733762D01*
X128621524Y-118686143D01*
X128621524Y-118352810D01*
X128431048Y-118352810D01*
X128034286Y-115812762D02*
X128177143Y-115860381D01*
X128415239Y-115860381D01*
X128510477Y-115812762D01*
X128558096Y-115765143D01*
X128605715Y-115669905D01*
X128605715Y-115574667D01*
X128558096Y-115479429D01*
X128510477Y-115431810D01*
X128415239Y-115384190D01*
X128224762Y-115336571D01*
X128129524Y-115288952D01*
X128081905Y-115241333D01*
X128034286Y-115146095D01*
X128034286Y-115050857D01*
X128081905Y-114955619D01*
X128129524Y-114908000D01*
X128224762Y-114860381D01*
X128462858Y-114860381D01*
X128605715Y-114908000D01*
X129034286Y-115860381D02*
X129034286Y-114860381D01*
X129605715Y-115860381D02*
X129177143Y-115288952D01*
X129605715Y-114860381D02*
X129034286Y-115431810D01*
X128137476Y-113272762D02*
X128280333Y-113320381D01*
X128518429Y-113320381D01*
X128613667Y-113272762D01*
X128661286Y-113225143D01*
X128708905Y-113129905D01*
X128708905Y-113034667D01*
X128661286Y-112939429D01*
X128613667Y-112891810D01*
X128518429Y-112844190D01*
X128327952Y-112796571D01*
X128232714Y-112748952D01*
X128185095Y-112701333D01*
X128137476Y-112606095D01*
X128137476Y-112510857D01*
X128185095Y-112415619D01*
X128232714Y-112368000D01*
X128327952Y-112320381D01*
X128566048Y-112320381D01*
X128708905Y-112368000D01*
X129327952Y-112320381D02*
X129518429Y-112320381D01*
X129613667Y-112368000D01*
X129708905Y-112463238D01*
X129756524Y-112653714D01*
X129756524Y-112987048D01*
X129708905Y-113177524D01*
X129613667Y-113272762D01*
X129518429Y-113320381D01*
X129327952Y-113320381D01*
X129232714Y-113272762D01*
X129137476Y-113177524D01*
X129089857Y-112987048D01*
X129089857Y-112653714D01*
X129137476Y-112463238D01*
X129232714Y-112368000D01*
X129327952Y-112320381D01*
X128161286Y-110732762D02*
X128304143Y-110780381D01*
X128542239Y-110780381D01*
X128637477Y-110732762D01*
X128685096Y-110685143D01*
X128732715Y-110589905D01*
X128732715Y-110494667D01*
X128685096Y-110399429D01*
X128637477Y-110351810D01*
X128542239Y-110304190D01*
X128351762Y-110256571D01*
X128256524Y-110208952D01*
X128208905Y-110161333D01*
X128161286Y-110066095D01*
X128161286Y-109970857D01*
X128208905Y-109875619D01*
X128256524Y-109828000D01*
X128351762Y-109780381D01*
X128589858Y-109780381D01*
X128732715Y-109828000D01*
X129732715Y-110685143D02*
X129685096Y-110732762D01*
X129542239Y-110780381D01*
X129447001Y-110780381D01*
X129304143Y-110732762D01*
X129208905Y-110637524D01*
X129161286Y-110542286D01*
X129113667Y-110351810D01*
X129113667Y-110208952D01*
X129161286Y-110018476D01*
X129208905Y-109923238D01*
X129304143Y-109828000D01*
X129447001Y-109780381D01*
X129542239Y-109780381D01*
X129685096Y-109828000D01*
X129732715Y-109875619D01*
X128185095Y-108319762D02*
X128327952Y-108367381D01*
X128566048Y-108367381D01*
X128661286Y-108319762D01*
X128708905Y-108272143D01*
X128756524Y-108176905D01*
X128756524Y-108081667D01*
X128708905Y-107986429D01*
X128661286Y-107938810D01*
X128566048Y-107891190D01*
X128375571Y-107843571D01*
X128280333Y-107795952D01*
X128232714Y-107748333D01*
X128185095Y-107653095D01*
X128185095Y-107557857D01*
X128232714Y-107462619D01*
X128280333Y-107415000D01*
X128375571Y-107367381D01*
X128613667Y-107367381D01*
X128756524Y-107415000D01*
X129708905Y-108367381D02*
X129137476Y-108367381D01*
X129423190Y-108367381D02*
X129423190Y-107367381D01*
X129327952Y-107510238D01*
X129232714Y-107605476D01*
X129137476Y-107653095D01*
X128185095Y-105779762D02*
X128327952Y-105827381D01*
X128566048Y-105827381D01*
X128661286Y-105779762D01*
X128708905Y-105732143D01*
X128756524Y-105636905D01*
X128756524Y-105541667D01*
X128708905Y-105446429D01*
X128661286Y-105398810D01*
X128566048Y-105351190D01*
X128375571Y-105303571D01*
X128280333Y-105255952D01*
X128232714Y-105208333D01*
X128185095Y-105113095D01*
X128185095Y-105017857D01*
X128232714Y-104922619D01*
X128280333Y-104875000D01*
X128375571Y-104827381D01*
X128613667Y-104827381D01*
X128756524Y-104875000D01*
X129137476Y-104922619D02*
X129185095Y-104875000D01*
X129280333Y-104827381D01*
X129518429Y-104827381D01*
X129613667Y-104875000D01*
X129661286Y-104922619D01*
X129708905Y-105017857D01*
X129708905Y-105113095D01*
X129661286Y-105255952D01*
X129089857Y-105827381D01*
X129708905Y-105827381D01*
X128185095Y-103349048D02*
X128327952Y-103409524D01*
X128566048Y-103409524D01*
X128661286Y-103349048D01*
X128708905Y-103288571D01*
X128756524Y-103167619D01*
X128756524Y-103046667D01*
X128708905Y-102925714D01*
X128661286Y-102865238D01*
X128566048Y-102804762D01*
X128375571Y-102744286D01*
X128280333Y-102683810D01*
X128232714Y-102623333D01*
X128185095Y-102502381D01*
X128185095Y-102381429D01*
X128232714Y-102260476D01*
X128280333Y-102200000D01*
X128375571Y-102139524D01*
X128613667Y-102139524D01*
X128756524Y-102200000D01*
X129089857Y-102139524D02*
X129708905Y-102139524D01*
X129375571Y-102623333D01*
X129518429Y-102623333D01*
X129613667Y-102683810D01*
X129661286Y-102744286D01*
X129708905Y-102865238D01*
X129708905Y-103167619D01*
X129661286Y-103288571D01*
X129613667Y-103349048D01*
X129518429Y-103409524D01*
X129232714Y-103409524D01*
X129137476Y-103349048D01*
X129089857Y-103288571D01*
X128185095Y-99599524D02*
X128518428Y-100869524D01*
X128851762Y-99599524D01*
X129042238Y-99599524D02*
X129375571Y-100869524D01*
X129708905Y-99599524D01*
X128827905Y-97120000D02*
X128732667Y-97059524D01*
X128589810Y-97059524D01*
X128446952Y-97120000D01*
X128351714Y-97240952D01*
X128304095Y-97361905D01*
X128256476Y-97603810D01*
X128256476Y-97785238D01*
X128304095Y-98027143D01*
X128351714Y-98148095D01*
X128446952Y-98269048D01*
X128589810Y-98329524D01*
X128685048Y-98329524D01*
X128827905Y-98269048D01*
X128875524Y-98208571D01*
X128875524Y-97785238D01*
X128685048Y-97785238D01*
X128420858Y-95381667D02*
X129025620Y-95381667D01*
X128299905Y-95667381D02*
X128723239Y-94667381D01*
X129146572Y-95667381D01*
X129811810Y-94667381D02*
X129932762Y-94667381D01*
X130053714Y-94715000D01*
X130114191Y-94762619D01*
X130174667Y-94857857D01*
X130235143Y-95048333D01*
X130235143Y-95286429D01*
X130174667Y-95476905D01*
X130114191Y-95572143D01*
X130053714Y-95619762D01*
X129932762Y-95667381D01*
X129811810Y-95667381D01*
X129690857Y-95619762D01*
X129630381Y-95572143D01*
X129569905Y-95476905D01*
X129509429Y-95286429D01*
X129509429Y-95048333D01*
X129569905Y-94857857D01*
X129630381Y-94762619D01*
X129690857Y-94715000D01*
X129811810Y-94667381D01*
X147052381Y-117606666D02*
X146576190Y-117940000D01*
X147052381Y-118178095D02*
X146052381Y-118178095D01*
X146052381Y-117797142D01*
X146100000Y-117701904D01*
X146147619Y-117654285D01*
X146242857Y-117606666D01*
X146385714Y-117606666D01*
X146480952Y-117654285D01*
X146528571Y-117701904D01*
X146576190Y-117797142D01*
X146576190Y-118178095D01*
X146052381Y-116701904D02*
X146052381Y-117178095D01*
X146528571Y-117225714D01*
X146480952Y-117178095D01*
X146433333Y-117082857D01*
X146433333Y-116844761D01*
X146480952Y-116749523D01*
X146528571Y-116701904D01*
X146623810Y-116654285D01*
X146861905Y-116654285D01*
X146957143Y-116701904D01*
X147004762Y-116749523D01*
X147052381Y-116844761D01*
X147052381Y-117082857D01*
X147004762Y-117178095D01*
X146957143Y-117225714D01*
M02*
