G04 #@! TF.FileFunction,Legend,Bot*
%FSLAX46Y46*%
G04 Gerber Fmt 4.6, Leading zero omitted, Abs format (unit mm)*
G04 Created by KiCad (PCBNEW 4.0.7) date Mon Nov 12 23:25:46 2018*
%MOMM*%
%LPD*%
G01*
G04 APERTURE LIST*
%ADD10C,0.100000*%
%ADD11C,0.120000*%
G04 APERTURE END LIST*
D10*
D11*
X118593000Y-84861000D02*
X113393000Y-84861000D01*
X118593000Y-67021000D02*
X118593000Y-84861000D01*
X113393000Y-64421000D02*
X113393000Y-84861000D01*
X118593000Y-67021000D02*
X115993000Y-67021000D01*
X115993000Y-67021000D02*
X115993000Y-64421000D01*
X115993000Y-64421000D02*
X113393000Y-64421000D01*
X118593000Y-65751000D02*
X118593000Y-64421000D01*
X118593000Y-64421000D02*
X117263000Y-64421000D01*
X118593000Y-125501000D02*
X113393000Y-125501000D01*
X118593000Y-89881000D02*
X118593000Y-125501000D01*
X113393000Y-87281000D02*
X113393000Y-125501000D01*
X118593000Y-89881000D02*
X115993000Y-89881000D01*
X115993000Y-89881000D02*
X115993000Y-87281000D01*
X115993000Y-87281000D02*
X113393000Y-87281000D01*
X118593000Y-88611000D02*
X118593000Y-87281000D01*
X118593000Y-87281000D02*
X117263000Y-87281000D01*
X164313000Y-80924000D02*
X159113000Y-80924000D01*
X164313000Y-58004000D02*
X164313000Y-80924000D01*
X159113000Y-55404000D02*
X159113000Y-80924000D01*
X164313000Y-58004000D02*
X161713000Y-58004000D01*
X161713000Y-58004000D02*
X161713000Y-55404000D01*
X161713000Y-55404000D02*
X159113000Y-55404000D01*
X164313000Y-56734000D02*
X164313000Y-55404000D01*
X164313000Y-55404000D02*
X162983000Y-55404000D01*
X164313000Y-125501000D02*
X159113000Y-125501000D01*
X164313000Y-84801000D02*
X164313000Y-125501000D01*
X159113000Y-82201000D02*
X159113000Y-125501000D01*
X164313000Y-84801000D02*
X161713000Y-84801000D01*
X161713000Y-84801000D02*
X161713000Y-82201000D01*
X161713000Y-82201000D02*
X159113000Y-82201000D01*
X164313000Y-83531000D02*
X164313000Y-82201000D01*
X164313000Y-82201000D02*
X162983000Y-82201000D01*
M02*
