G04 #@! TF.FileFunction,Drawing*
%FSLAX46Y46*%
G04 Gerber Fmt 4.6, Leading zero omitted, Abs format (unit mm)*
G04 Created by KiCad (PCBNEW 4.0.7) date Mon Nov 12 23:25:46 2018*
%MOMM*%
%LPD*%
G01*
G04 APERTURE LIST*
%ADD10C,0.100000*%
%ADD11C,0.300000*%
G04 APERTURE END LIST*
D10*
D11*
X177627643Y-24680071D02*
X177627643Y-23180071D01*
X178127643Y-24251500D01*
X178627643Y-23180071D01*
X178627643Y-24680071D01*
X179341929Y-24680071D02*
X179341929Y-23680071D01*
X179341929Y-23180071D02*
X179270500Y-23251500D01*
X179341929Y-23322929D01*
X179413357Y-23251500D01*
X179341929Y-23180071D01*
X179341929Y-23322929D01*
X180056215Y-23680071D02*
X180056215Y-24680071D01*
X180056215Y-23822929D02*
X180127643Y-23751500D01*
X180270501Y-23680071D01*
X180484786Y-23680071D01*
X180627643Y-23751500D01*
X180699072Y-23894357D01*
X180699072Y-24680071D01*
X181413358Y-24680071D02*
X181413358Y-23680071D01*
X181413358Y-23180071D02*
X181341929Y-23251500D01*
X181413358Y-23322929D01*
X181484786Y-23251500D01*
X181413358Y-23180071D01*
X181413358Y-23322929D01*
X182127644Y-24680071D02*
X182127644Y-23680071D01*
X182127644Y-23822929D02*
X182199072Y-23751500D01*
X182341930Y-23680071D01*
X182556215Y-23680071D01*
X182699072Y-23751500D01*
X182770501Y-23894357D01*
X182770501Y-24680071D01*
X182770501Y-23894357D02*
X182841930Y-23751500D01*
X182984787Y-23680071D01*
X183199072Y-23680071D01*
X183341930Y-23751500D01*
X183413358Y-23894357D01*
X183413358Y-24680071D01*
X184341930Y-24680071D02*
X184199072Y-24608643D01*
X184127644Y-24537214D01*
X184056215Y-24394357D01*
X184056215Y-23965786D01*
X184127644Y-23822929D01*
X184199072Y-23751500D01*
X184341930Y-23680071D01*
X184556215Y-23680071D01*
X184699072Y-23751500D01*
X184770501Y-23822929D01*
X184841930Y-23965786D01*
X184841930Y-24394357D01*
X184770501Y-24537214D01*
X184699072Y-24608643D01*
X184556215Y-24680071D01*
X184341930Y-24680071D01*
X185413358Y-24608643D02*
X185556215Y-24680071D01*
X185841930Y-24680071D01*
X185984787Y-24608643D01*
X186056215Y-24465786D01*
X186056215Y-24394357D01*
X185984787Y-24251500D01*
X185841930Y-24180071D01*
X185627644Y-24180071D01*
X185484787Y-24108643D01*
X185413358Y-23965786D01*
X185413358Y-23894357D01*
X185484787Y-23751500D01*
X185627644Y-23680071D01*
X185841930Y-23680071D01*
X185984787Y-23751500D01*
X188270501Y-25251500D02*
X188199073Y-25180071D01*
X188056216Y-24965786D01*
X187984787Y-24822929D01*
X187913358Y-24608643D01*
X187841930Y-24251500D01*
X187841930Y-23965786D01*
X187913358Y-23608643D01*
X187984787Y-23394357D01*
X188056216Y-23251500D01*
X188199073Y-23037214D01*
X188270501Y-22965786D01*
X188841930Y-24680071D02*
X188841930Y-23180071D01*
X189341930Y-24251500D01*
X189841930Y-23180071D01*
X189841930Y-24680071D01*
X191199073Y-24680071D02*
X191199073Y-23894357D01*
X191127644Y-23751500D01*
X190984787Y-23680071D01*
X190699073Y-23680071D01*
X190556216Y-23751500D01*
X191199073Y-24608643D02*
X191056216Y-24680071D01*
X190699073Y-24680071D01*
X190556216Y-24608643D01*
X190484787Y-24465786D01*
X190484787Y-24322929D01*
X190556216Y-24180071D01*
X190699073Y-24108643D01*
X191056216Y-24108643D01*
X191199073Y-24037214D01*
X191770502Y-23680071D02*
X192127645Y-24680071D01*
X192484787Y-23680071D02*
X192127645Y-24680071D01*
X191984787Y-25037214D01*
X191913359Y-25108643D01*
X191770502Y-25180071D01*
X193627644Y-24608643D02*
X193484787Y-24680071D01*
X193199073Y-24680071D01*
X193056216Y-24608643D01*
X192984787Y-24465786D01*
X192984787Y-23894357D01*
X193056216Y-23751500D01*
X193199073Y-23680071D01*
X193484787Y-23680071D01*
X193627644Y-23751500D01*
X193699073Y-23894357D01*
X193699073Y-24037214D01*
X192984787Y-24180071D01*
X194341930Y-24680071D02*
X194341930Y-23680071D01*
X194341930Y-23965786D02*
X194413358Y-23822929D01*
X194484787Y-23751500D01*
X194627644Y-23680071D01*
X194770501Y-23680071D01*
X197127644Y-23180071D02*
X196413358Y-23180071D01*
X196341929Y-23894357D01*
X196413358Y-23822929D01*
X196556215Y-23751500D01*
X196913358Y-23751500D01*
X197056215Y-23822929D01*
X197127644Y-23894357D01*
X197199072Y-24037214D01*
X197199072Y-24394357D01*
X197127644Y-24537214D01*
X197056215Y-24608643D01*
X196913358Y-24680071D01*
X196556215Y-24680071D01*
X196413358Y-24608643D01*
X196341929Y-24537214D01*
X198984786Y-24680071D02*
X198984786Y-23680071D01*
X198984786Y-23822929D02*
X199056214Y-23751500D01*
X199199072Y-23680071D01*
X199413357Y-23680071D01*
X199556214Y-23751500D01*
X199627643Y-23894357D01*
X199627643Y-24680071D01*
X199627643Y-23894357D02*
X199699072Y-23751500D01*
X199841929Y-23680071D01*
X200056214Y-23680071D01*
X200199072Y-23751500D01*
X200270500Y-23894357D01*
X200270500Y-24680071D01*
X200984786Y-24680071D02*
X200984786Y-23680071D01*
X200984786Y-23180071D02*
X200913357Y-23251500D01*
X200984786Y-23322929D01*
X201056214Y-23251500D01*
X200984786Y-23180071D01*
X200984786Y-23322929D01*
X201913358Y-24680071D02*
X201770500Y-24608643D01*
X201699072Y-24465786D01*
X201699072Y-23180071D01*
X202413357Y-24608643D02*
X202556214Y-24680071D01*
X202841929Y-24680071D01*
X202984786Y-24608643D01*
X203056214Y-24465786D01*
X203056214Y-24394357D01*
X202984786Y-24251500D01*
X202841929Y-24180071D01*
X202627643Y-24180071D01*
X202484786Y-24108643D01*
X202413357Y-23965786D01*
X202413357Y-23894357D01*
X202484786Y-23751500D01*
X202627643Y-23680071D01*
X202841929Y-23680071D01*
X202984786Y-23751500D01*
X203556215Y-25251500D02*
X203627643Y-25180071D01*
X203770500Y-24965786D01*
X203841929Y-24822929D01*
X203913358Y-24608643D01*
X203984786Y-24251500D01*
X203984786Y-23965786D01*
X203913358Y-23608643D01*
X203841929Y-23394357D01*
X203770500Y-23251500D01*
X203627643Y-23037214D01*
X203556215Y-22965786D01*
X204699072Y-24537214D02*
X204770500Y-24608643D01*
X204699072Y-24680071D01*
X204627643Y-24608643D01*
X204699072Y-24537214D01*
X204699072Y-24680071D01*
X204699072Y-23751500D02*
X204770500Y-23822929D01*
X204699072Y-23894357D01*
X204627643Y-23822929D01*
X204699072Y-23751500D01*
X204699072Y-23894357D01*
X178413357Y-25801500D02*
X178270500Y-25730071D01*
X178056214Y-25730071D01*
X177841929Y-25801500D01*
X177699071Y-25944357D01*
X177627643Y-26087214D01*
X177556214Y-26372929D01*
X177556214Y-26587214D01*
X177627643Y-26872929D01*
X177699071Y-27015786D01*
X177841929Y-27158643D01*
X178056214Y-27230071D01*
X178199071Y-27230071D01*
X178413357Y-27158643D01*
X178484786Y-27087214D01*
X178484786Y-26587214D01*
X178199071Y-26587214D01*
X179127643Y-27230071D02*
X179127643Y-26230071D01*
X179127643Y-26515786D02*
X179199071Y-26372929D01*
X179270500Y-26301500D01*
X179413357Y-26230071D01*
X179556214Y-26230071D01*
X180056214Y-27230071D02*
X180056214Y-26230071D01*
X180056214Y-25730071D02*
X179984785Y-25801500D01*
X180056214Y-25872929D01*
X180127642Y-25801500D01*
X180056214Y-25730071D01*
X180056214Y-25872929D01*
X180984786Y-27230071D02*
X180841928Y-27158643D01*
X180770500Y-27015786D01*
X180770500Y-25730071D01*
X181770500Y-27230071D02*
X181627642Y-27158643D01*
X181556214Y-27015786D01*
X181556214Y-25730071D01*
X182984785Y-27230071D02*
X182984785Y-26444357D01*
X182913356Y-26301500D01*
X182770499Y-26230071D01*
X182484785Y-26230071D01*
X182341928Y-26301500D01*
X182984785Y-27158643D02*
X182841928Y-27230071D01*
X182484785Y-27230071D01*
X182341928Y-27158643D01*
X182270499Y-27015786D01*
X182270499Y-26872929D01*
X182341928Y-26730071D01*
X182484785Y-26658643D01*
X182841928Y-26658643D01*
X182984785Y-26587214D01*
X183627642Y-27158643D02*
X183770499Y-27230071D01*
X184056214Y-27230071D01*
X184199071Y-27158643D01*
X184270499Y-27015786D01*
X184270499Y-26944357D01*
X184199071Y-26801500D01*
X184056214Y-26730071D01*
X183841928Y-26730071D01*
X183699071Y-26658643D01*
X183627642Y-26515786D01*
X183627642Y-26444357D01*
X183699071Y-26301500D01*
X183841928Y-26230071D01*
X184056214Y-26230071D01*
X184199071Y-26301500D01*
X184913357Y-27087214D02*
X184984785Y-27158643D01*
X184913357Y-27230071D01*
X184841928Y-27158643D01*
X184913357Y-27087214D01*
X184913357Y-27230071D01*
X184913357Y-26301500D02*
X184984785Y-26372929D01*
X184913357Y-26444357D01*
X184841928Y-26372929D01*
X184913357Y-26301500D01*
X184913357Y-26444357D01*
X187056214Y-25730071D02*
X187199071Y-25730071D01*
X187341928Y-25801500D01*
X187413357Y-25872929D01*
X187484786Y-26015786D01*
X187556214Y-26301500D01*
X187556214Y-26658643D01*
X187484786Y-26944357D01*
X187413357Y-27087214D01*
X187341928Y-27158643D01*
X187199071Y-27230071D01*
X187056214Y-27230071D01*
X186913357Y-27158643D01*
X186841928Y-27087214D01*
X186770500Y-26944357D01*
X186699071Y-26658643D01*
X186699071Y-26301500D01*
X186770500Y-26015786D01*
X186841928Y-25872929D01*
X186913357Y-25801500D01*
X187056214Y-25730071D01*
X188199071Y-27087214D02*
X188270499Y-27158643D01*
X188199071Y-27230071D01*
X188127642Y-27158643D01*
X188199071Y-27087214D01*
X188199071Y-27230071D01*
X189699071Y-27230071D02*
X188841928Y-27230071D01*
X189270500Y-27230071D02*
X189270500Y-25730071D01*
X189127643Y-25944357D01*
X188984785Y-26087214D01*
X188841928Y-26158643D01*
X190270499Y-25872929D02*
X190341928Y-25801500D01*
X190484785Y-25730071D01*
X190841928Y-25730071D01*
X190984785Y-25801500D01*
X191056214Y-25872929D01*
X191127642Y-26015786D01*
X191127642Y-26158643D01*
X191056214Y-26372929D01*
X190199071Y-27230071D01*
X191127642Y-27230071D01*
X191627642Y-25730071D02*
X192627642Y-25730071D01*
X191984785Y-27230071D01*
X193484784Y-25730071D02*
X193627641Y-25730071D01*
X193770498Y-25801500D01*
X193841927Y-25872929D01*
X193913356Y-26015786D01*
X193984784Y-26301500D01*
X193984784Y-26658643D01*
X193913356Y-26944357D01*
X193841927Y-27087214D01*
X193770498Y-27158643D01*
X193627641Y-27230071D01*
X193484784Y-27230071D01*
X193341927Y-27158643D01*
X193270498Y-27087214D01*
X193199070Y-26944357D01*
X193127641Y-26658643D01*
X193127641Y-26301500D01*
X193199070Y-26015786D01*
X193270498Y-25872929D01*
X193341927Y-25801500D01*
X193484784Y-25730071D01*
X194627641Y-27230071D02*
X194627641Y-26230071D01*
X194627641Y-26372929D02*
X194699069Y-26301500D01*
X194841927Y-26230071D01*
X195056212Y-26230071D01*
X195199069Y-26301500D01*
X195270498Y-26444357D01*
X195270498Y-27230071D01*
X195270498Y-26444357D02*
X195341927Y-26301500D01*
X195484784Y-26230071D01*
X195699069Y-26230071D01*
X195841927Y-26301500D01*
X195913355Y-26444357D01*
X195913355Y-27230071D01*
X196627641Y-27230071D02*
X196627641Y-26230071D01*
X196627641Y-26372929D02*
X196699069Y-26301500D01*
X196841927Y-26230071D01*
X197056212Y-26230071D01*
X197199069Y-26301500D01*
X197270498Y-26444357D01*
X197270498Y-27230071D01*
X197270498Y-26444357D02*
X197341927Y-26301500D01*
X197484784Y-26230071D01*
X197699069Y-26230071D01*
X197841927Y-26301500D01*
X197913355Y-26444357D01*
X197913355Y-27230071D01*
X198699069Y-27158643D02*
X198699069Y-27230071D01*
X198627641Y-27372929D01*
X198556212Y-27444357D01*
X200770498Y-25730071D02*
X200913355Y-25730071D01*
X201056212Y-25801500D01*
X201127641Y-25872929D01*
X201199070Y-26015786D01*
X201270498Y-26301500D01*
X201270498Y-26658643D01*
X201199070Y-26944357D01*
X201127641Y-27087214D01*
X201056212Y-27158643D01*
X200913355Y-27230071D01*
X200770498Y-27230071D01*
X200627641Y-27158643D01*
X200556212Y-27087214D01*
X200484784Y-26944357D01*
X200413355Y-26658643D01*
X200413355Y-26301500D01*
X200484784Y-26015786D01*
X200556212Y-25872929D01*
X200627641Y-25801500D01*
X200770498Y-25730071D01*
X201913355Y-27087214D02*
X201984783Y-27158643D01*
X201913355Y-27230071D01*
X201841926Y-27158643D01*
X201913355Y-27087214D01*
X201913355Y-27230071D01*
X203341927Y-25730071D02*
X202627641Y-25730071D01*
X202556212Y-26444357D01*
X202627641Y-26372929D01*
X202770498Y-26301500D01*
X203127641Y-26301500D01*
X203270498Y-26372929D01*
X203341927Y-26444357D01*
X203413355Y-26587214D01*
X203413355Y-26944357D01*
X203341927Y-27087214D01*
X203270498Y-27158643D01*
X203127641Y-27230071D01*
X202770498Y-27230071D01*
X202627641Y-27158643D01*
X202556212Y-27087214D01*
X204056212Y-27230071D02*
X204056212Y-26230071D01*
X204056212Y-26372929D02*
X204127640Y-26301500D01*
X204270498Y-26230071D01*
X204484783Y-26230071D01*
X204627640Y-26301500D01*
X204699069Y-26444357D01*
X204699069Y-27230071D01*
X204699069Y-26444357D02*
X204770498Y-26301500D01*
X204913355Y-26230071D01*
X205127640Y-26230071D01*
X205270498Y-26301500D01*
X205341926Y-26444357D01*
X205341926Y-27230071D01*
X206056212Y-27230071D02*
X206056212Y-26230071D01*
X206056212Y-26372929D02*
X206127640Y-26301500D01*
X206270498Y-26230071D01*
X206484783Y-26230071D01*
X206627640Y-26301500D01*
X206699069Y-26444357D01*
X206699069Y-27230071D01*
X206699069Y-26444357D02*
X206770498Y-26301500D01*
X206913355Y-26230071D01*
X207127640Y-26230071D01*
X207270498Y-26301500D01*
X207341926Y-26444357D01*
X207341926Y-27230071D01*
X208127640Y-27158643D02*
X208127640Y-27230071D01*
X208056212Y-27372929D01*
X207984783Y-27444357D01*
X210199069Y-25730071D02*
X210341926Y-25730071D01*
X210484783Y-25801500D01*
X210556212Y-25872929D01*
X210627641Y-26015786D01*
X210699069Y-26301500D01*
X210699069Y-26658643D01*
X210627641Y-26944357D01*
X210556212Y-27087214D01*
X210484783Y-27158643D01*
X210341926Y-27230071D01*
X210199069Y-27230071D01*
X210056212Y-27158643D01*
X209984783Y-27087214D01*
X209913355Y-26944357D01*
X209841926Y-26658643D01*
X209841926Y-26301500D01*
X209913355Y-26015786D01*
X209984783Y-25872929D01*
X210056212Y-25801500D01*
X210199069Y-25730071D01*
X211341926Y-27087214D02*
X211413354Y-27158643D01*
X211341926Y-27230071D01*
X211270497Y-27158643D01*
X211341926Y-27087214D01*
X211341926Y-27230071D01*
X212699069Y-25730071D02*
X212413355Y-25730071D01*
X212270498Y-25801500D01*
X212199069Y-25872929D01*
X212056212Y-26087214D01*
X211984783Y-26372929D01*
X211984783Y-26944357D01*
X212056212Y-27087214D01*
X212127640Y-27158643D01*
X212270498Y-27230071D01*
X212556212Y-27230071D01*
X212699069Y-27158643D01*
X212770498Y-27087214D01*
X212841926Y-26944357D01*
X212841926Y-26587214D01*
X212770498Y-26444357D01*
X212699069Y-26372929D01*
X212556212Y-26301500D01*
X212270498Y-26301500D01*
X212127640Y-26372929D01*
X212056212Y-26444357D01*
X211984783Y-26587214D01*
X213341926Y-25730071D02*
X214270497Y-25730071D01*
X213770497Y-26301500D01*
X213984783Y-26301500D01*
X214127640Y-26372929D01*
X214199069Y-26444357D01*
X214270497Y-26587214D01*
X214270497Y-26944357D01*
X214199069Y-27087214D01*
X214127640Y-27158643D01*
X213984783Y-27230071D01*
X213556211Y-27230071D01*
X213413354Y-27158643D01*
X213341926Y-27087214D01*
X215627640Y-25730071D02*
X214913354Y-25730071D01*
X214841925Y-26444357D01*
X214913354Y-26372929D01*
X215056211Y-26301500D01*
X215413354Y-26301500D01*
X215556211Y-26372929D01*
X215627640Y-26444357D01*
X215699068Y-26587214D01*
X215699068Y-26944357D01*
X215627640Y-27087214D01*
X215556211Y-27158643D01*
X215413354Y-27230071D01*
X215056211Y-27230071D01*
X214913354Y-27158643D01*
X214841925Y-27087214D01*
X216627639Y-25730071D02*
X216770496Y-25730071D01*
X216913353Y-25801500D01*
X216984782Y-25872929D01*
X217056211Y-26015786D01*
X217127639Y-26301500D01*
X217127639Y-26658643D01*
X217056211Y-26944357D01*
X216984782Y-27087214D01*
X216913353Y-27158643D01*
X216770496Y-27230071D01*
X216627639Y-27230071D01*
X216484782Y-27158643D01*
X216413353Y-27087214D01*
X216341925Y-26944357D01*
X216270496Y-26658643D01*
X216270496Y-26301500D01*
X216341925Y-26015786D01*
X216413353Y-25872929D01*
X216484782Y-25801500D01*
X216627639Y-25730071D01*
X217770496Y-27230071D02*
X217770496Y-26230071D01*
X217770496Y-26372929D02*
X217841924Y-26301500D01*
X217984782Y-26230071D01*
X218199067Y-26230071D01*
X218341924Y-26301500D01*
X218413353Y-26444357D01*
X218413353Y-27230071D01*
X218413353Y-26444357D02*
X218484782Y-26301500D01*
X218627639Y-26230071D01*
X218841924Y-26230071D01*
X218984782Y-26301500D01*
X219056210Y-26444357D01*
X219056210Y-27230071D01*
X219770496Y-27230071D02*
X219770496Y-26230071D01*
X219770496Y-26372929D02*
X219841924Y-26301500D01*
X219984782Y-26230071D01*
X220199067Y-26230071D01*
X220341924Y-26301500D01*
X220413353Y-26444357D01*
X220413353Y-27230071D01*
X220413353Y-26444357D02*
X220484782Y-26301500D01*
X220627639Y-26230071D01*
X220841924Y-26230071D01*
X220984782Y-26301500D01*
X221056210Y-26444357D01*
X221056210Y-27230071D01*
X221841924Y-27158643D02*
X221841924Y-27230071D01*
X221770496Y-27372929D01*
X221699067Y-27444357D01*
X223556210Y-25872929D02*
X223627639Y-25801500D01*
X223770496Y-25730071D01*
X224127639Y-25730071D01*
X224270496Y-25801500D01*
X224341925Y-25872929D01*
X224413353Y-26015786D01*
X224413353Y-26158643D01*
X224341925Y-26372929D01*
X223484782Y-27230071D01*
X224413353Y-27230071D01*
X225056210Y-27087214D02*
X225127638Y-27158643D01*
X225056210Y-27230071D01*
X224984781Y-27158643D01*
X225056210Y-27087214D01*
X225056210Y-27230071D01*
X226484782Y-25730071D02*
X225770496Y-25730071D01*
X225699067Y-26444357D01*
X225770496Y-26372929D01*
X225913353Y-26301500D01*
X226270496Y-26301500D01*
X226413353Y-26372929D01*
X226484782Y-26444357D01*
X226556210Y-26587214D01*
X226556210Y-26944357D01*
X226484782Y-27087214D01*
X226413353Y-27158643D01*
X226270496Y-27230071D01*
X225913353Y-27230071D01*
X225770496Y-27158643D01*
X225699067Y-27087214D01*
X227841924Y-26230071D02*
X227841924Y-27230071D01*
X227484781Y-25658643D02*
X227127638Y-26730071D01*
X228056210Y-26730071D01*
X228627638Y-27230071D02*
X228627638Y-26230071D01*
X228627638Y-26372929D02*
X228699066Y-26301500D01*
X228841924Y-26230071D01*
X229056209Y-26230071D01*
X229199066Y-26301500D01*
X229270495Y-26444357D01*
X229270495Y-27230071D01*
X229270495Y-26444357D02*
X229341924Y-26301500D01*
X229484781Y-26230071D01*
X229699066Y-26230071D01*
X229841924Y-26301500D01*
X229913352Y-26444357D01*
X229913352Y-27230071D01*
X230627638Y-27230071D02*
X230627638Y-26230071D01*
X230627638Y-26372929D02*
X230699066Y-26301500D01*
X230841924Y-26230071D01*
X231056209Y-26230071D01*
X231199066Y-26301500D01*
X231270495Y-26444357D01*
X231270495Y-27230071D01*
X231270495Y-26444357D02*
X231341924Y-26301500D01*
X231484781Y-26230071D01*
X231699066Y-26230071D01*
X231841924Y-26301500D01*
X231913352Y-26444357D01*
X231913352Y-27230071D01*
X177413357Y-28280071D02*
X177913357Y-29780071D01*
X178413357Y-28280071D01*
X178913357Y-29780071D02*
X178913357Y-28780071D01*
X178913357Y-28280071D02*
X178841928Y-28351500D01*
X178913357Y-28422929D01*
X178984785Y-28351500D01*
X178913357Y-28280071D01*
X178913357Y-28422929D01*
X180270500Y-29780071D02*
X180270500Y-28994357D01*
X180199071Y-28851500D01*
X180056214Y-28780071D01*
X179770500Y-28780071D01*
X179627643Y-28851500D01*
X180270500Y-29708643D02*
X180127643Y-29780071D01*
X179770500Y-29780071D01*
X179627643Y-29708643D01*
X179556214Y-29565786D01*
X179556214Y-29422929D01*
X179627643Y-29280071D01*
X179770500Y-29208643D01*
X180127643Y-29208643D01*
X180270500Y-29137214D01*
X182913357Y-29780071D02*
X182056214Y-29780071D01*
X182484786Y-29780071D02*
X182484786Y-28280071D01*
X182341929Y-28494357D01*
X182199071Y-28637214D01*
X182056214Y-28708643D01*
X183556214Y-29637214D02*
X183627642Y-29708643D01*
X183556214Y-29780071D01*
X183484785Y-29708643D01*
X183556214Y-29637214D01*
X183556214Y-29780071D01*
X184199071Y-28422929D02*
X184270500Y-28351500D01*
X184413357Y-28280071D01*
X184770500Y-28280071D01*
X184913357Y-28351500D01*
X184984786Y-28422929D01*
X185056214Y-28565786D01*
X185056214Y-28708643D01*
X184984786Y-28922929D01*
X184127643Y-29780071D01*
X185056214Y-29780071D01*
X185699071Y-29780071D02*
X185699071Y-28780071D01*
X185699071Y-28922929D02*
X185770499Y-28851500D01*
X185913357Y-28780071D01*
X186127642Y-28780071D01*
X186270499Y-28851500D01*
X186341928Y-28994357D01*
X186341928Y-29780071D01*
X186341928Y-28994357D02*
X186413357Y-28851500D01*
X186556214Y-28780071D01*
X186770499Y-28780071D01*
X186913357Y-28851500D01*
X186984785Y-28994357D01*
X186984785Y-29780071D01*
X187699071Y-29780071D02*
X187699071Y-28780071D01*
X187699071Y-28922929D02*
X187770499Y-28851500D01*
X187913357Y-28780071D01*
X188127642Y-28780071D01*
X188270499Y-28851500D01*
X188341928Y-28994357D01*
X188341928Y-29780071D01*
X188341928Y-28994357D02*
X188413357Y-28851500D01*
X188556214Y-28780071D01*
X188770499Y-28780071D01*
X188913357Y-28851500D01*
X188984785Y-28994357D01*
X188984785Y-29780071D01*
X189770499Y-29708643D02*
X189770499Y-29780071D01*
X189699071Y-29922929D01*
X189627642Y-29994357D01*
X191841928Y-28280071D02*
X191984785Y-28280071D01*
X192127642Y-28351500D01*
X192199071Y-28422929D01*
X192270500Y-28565786D01*
X192341928Y-28851500D01*
X192341928Y-29208643D01*
X192270500Y-29494357D01*
X192199071Y-29637214D01*
X192127642Y-29708643D01*
X191984785Y-29780071D01*
X191841928Y-29780071D01*
X191699071Y-29708643D01*
X191627642Y-29637214D01*
X191556214Y-29494357D01*
X191484785Y-29208643D01*
X191484785Y-28851500D01*
X191556214Y-28565786D01*
X191627642Y-28422929D01*
X191699071Y-28351500D01*
X191841928Y-28280071D01*
X192984785Y-29637214D02*
X193056213Y-29708643D01*
X192984785Y-29780071D01*
X192913356Y-29708643D01*
X192984785Y-29637214D01*
X192984785Y-29780071D01*
X194341928Y-28280071D02*
X194056214Y-28280071D01*
X193913357Y-28351500D01*
X193841928Y-28422929D01*
X193699071Y-28637214D01*
X193627642Y-28922929D01*
X193627642Y-29494357D01*
X193699071Y-29637214D01*
X193770499Y-29708643D01*
X193913357Y-29780071D01*
X194199071Y-29780071D01*
X194341928Y-29708643D01*
X194413357Y-29637214D01*
X194484785Y-29494357D01*
X194484785Y-29137214D01*
X194413357Y-28994357D01*
X194341928Y-28922929D01*
X194199071Y-28851500D01*
X193913357Y-28851500D01*
X193770499Y-28922929D01*
X193699071Y-28994357D01*
X193627642Y-29137214D01*
X195127642Y-29780071D02*
X195127642Y-28780071D01*
X195127642Y-28922929D02*
X195199070Y-28851500D01*
X195341928Y-28780071D01*
X195556213Y-28780071D01*
X195699070Y-28851500D01*
X195770499Y-28994357D01*
X195770499Y-29780071D01*
X195770499Y-28994357D02*
X195841928Y-28851500D01*
X195984785Y-28780071D01*
X196199070Y-28780071D01*
X196341928Y-28851500D01*
X196413356Y-28994357D01*
X196413356Y-29780071D01*
X197127642Y-29780071D02*
X197127642Y-28780071D01*
X197127642Y-28922929D02*
X197199070Y-28851500D01*
X197341928Y-28780071D01*
X197556213Y-28780071D01*
X197699070Y-28851500D01*
X197770499Y-28994357D01*
X197770499Y-29780071D01*
X197770499Y-28994357D02*
X197841928Y-28851500D01*
X197984785Y-28780071D01*
X198199070Y-28780071D01*
X198341928Y-28851500D01*
X198413356Y-28994357D01*
X198413356Y-29780071D01*
X199127642Y-29637214D02*
X199199070Y-29708643D01*
X199127642Y-29780071D01*
X199056213Y-29708643D01*
X199127642Y-29637214D01*
X199127642Y-29780071D01*
X199127642Y-28851500D02*
X199199070Y-28922929D01*
X199127642Y-28994357D01*
X199056213Y-28922929D01*
X199127642Y-28851500D01*
X199127642Y-28994357D01*
X177627643Y-32330071D02*
X177627643Y-30830071D01*
X178127643Y-31901500D01*
X178627643Y-30830071D01*
X178627643Y-32330071D01*
X179984786Y-32330071D02*
X179984786Y-31544357D01*
X179913357Y-31401500D01*
X179770500Y-31330071D01*
X179484786Y-31330071D01*
X179341929Y-31401500D01*
X179984786Y-32258643D02*
X179841929Y-32330071D01*
X179484786Y-32330071D01*
X179341929Y-32258643D01*
X179270500Y-32115786D01*
X179270500Y-31972929D01*
X179341929Y-31830071D01*
X179484786Y-31758643D01*
X179841929Y-31758643D01*
X179984786Y-31687214D01*
X180699072Y-32330071D02*
X180699072Y-31330071D01*
X180699072Y-31615786D02*
X180770500Y-31472929D01*
X180841929Y-31401500D01*
X180984786Y-31330071D01*
X181127643Y-31330071D01*
X182270500Y-31330071D02*
X182270500Y-32544357D01*
X182199071Y-32687214D01*
X182127643Y-32758643D01*
X181984786Y-32830071D01*
X181770500Y-32830071D01*
X181627643Y-32758643D01*
X182270500Y-32258643D02*
X182127643Y-32330071D01*
X181841929Y-32330071D01*
X181699071Y-32258643D01*
X181627643Y-32187214D01*
X181556214Y-32044357D01*
X181556214Y-31615786D01*
X181627643Y-31472929D01*
X181699071Y-31401500D01*
X181841929Y-31330071D01*
X182127643Y-31330071D01*
X182270500Y-31401500D01*
X183556214Y-32258643D02*
X183413357Y-32330071D01*
X183127643Y-32330071D01*
X182984786Y-32258643D01*
X182913357Y-32115786D01*
X182913357Y-31544357D01*
X182984786Y-31401500D01*
X183127643Y-31330071D01*
X183413357Y-31330071D01*
X183556214Y-31401500D01*
X183627643Y-31544357D01*
X183627643Y-31687214D01*
X182913357Y-31830071D01*
X184270500Y-31330071D02*
X184270500Y-32330071D01*
X184270500Y-31472929D02*
X184341928Y-31401500D01*
X184484786Y-31330071D01*
X184699071Y-31330071D01*
X184841928Y-31401500D01*
X184913357Y-31544357D01*
X184913357Y-32330071D01*
X185627643Y-32187214D02*
X185699071Y-32258643D01*
X185627643Y-32330071D01*
X185556214Y-32258643D01*
X185627643Y-32187214D01*
X185627643Y-32330071D01*
X185627643Y-31401500D02*
X185699071Y-31472929D01*
X185627643Y-31544357D01*
X185556214Y-31472929D01*
X185627643Y-31401500D01*
X185627643Y-31544357D01*
X187770500Y-30830071D02*
X187913357Y-30830071D01*
X188056214Y-30901500D01*
X188127643Y-30972929D01*
X188199072Y-31115786D01*
X188270500Y-31401500D01*
X188270500Y-31758643D01*
X188199072Y-32044357D01*
X188127643Y-32187214D01*
X188056214Y-32258643D01*
X187913357Y-32330071D01*
X187770500Y-32330071D01*
X187627643Y-32258643D01*
X187556214Y-32187214D01*
X187484786Y-32044357D01*
X187413357Y-31758643D01*
X187413357Y-31401500D01*
X187484786Y-31115786D01*
X187556214Y-30972929D01*
X187627643Y-30901500D01*
X187770500Y-30830071D01*
X188913357Y-32187214D02*
X188984785Y-32258643D01*
X188913357Y-32330071D01*
X188841928Y-32258643D01*
X188913357Y-32187214D01*
X188913357Y-32330071D01*
X190270500Y-31330071D02*
X190270500Y-32330071D01*
X189913357Y-30758643D02*
X189556214Y-31830071D01*
X190484786Y-31830071D01*
X191056214Y-32330071D02*
X191056214Y-31330071D01*
X191056214Y-31472929D02*
X191127642Y-31401500D01*
X191270500Y-31330071D01*
X191484785Y-31330071D01*
X191627642Y-31401500D01*
X191699071Y-31544357D01*
X191699071Y-32330071D01*
X191699071Y-31544357D02*
X191770500Y-31401500D01*
X191913357Y-31330071D01*
X192127642Y-31330071D01*
X192270500Y-31401500D01*
X192341928Y-31544357D01*
X192341928Y-32330071D01*
X193056214Y-32330071D02*
X193056214Y-31330071D01*
X193056214Y-31472929D02*
X193127642Y-31401500D01*
X193270500Y-31330071D01*
X193484785Y-31330071D01*
X193627642Y-31401500D01*
X193699071Y-31544357D01*
X193699071Y-32330071D01*
X193699071Y-31544357D02*
X193770500Y-31401500D01*
X193913357Y-31330071D01*
X194127642Y-31330071D01*
X194270500Y-31401500D01*
X194341928Y-31544357D01*
X194341928Y-32330071D01*
X177627643Y-34880071D02*
X177627643Y-33380071D01*
X178199071Y-33380071D01*
X178341929Y-33451500D01*
X178413357Y-33522929D01*
X178484786Y-33665786D01*
X178484786Y-33880071D01*
X178413357Y-34022929D01*
X178341929Y-34094357D01*
X178199071Y-34165786D01*
X177627643Y-34165786D01*
X179127643Y-34880071D02*
X179127643Y-33880071D01*
X179127643Y-33380071D02*
X179056214Y-33451500D01*
X179127643Y-33522929D01*
X179199071Y-33451500D01*
X179127643Y-33380071D01*
X179127643Y-33522929D01*
X179770500Y-34808643D02*
X179913357Y-34880071D01*
X180199072Y-34880071D01*
X180341929Y-34808643D01*
X180413357Y-34665786D01*
X180413357Y-34594357D01*
X180341929Y-34451500D01*
X180199072Y-34380071D01*
X179984786Y-34380071D01*
X179841929Y-34308643D01*
X179770500Y-34165786D01*
X179770500Y-34094357D01*
X179841929Y-33951500D01*
X179984786Y-33880071D01*
X180199072Y-33880071D01*
X180341929Y-33951500D01*
X180841929Y-33880071D02*
X181413358Y-33880071D01*
X181056215Y-33380071D02*
X181056215Y-34665786D01*
X181127643Y-34808643D01*
X181270501Y-34880071D01*
X181413358Y-34880071D01*
X182556215Y-34880071D02*
X182556215Y-34094357D01*
X182484786Y-33951500D01*
X182341929Y-33880071D01*
X182056215Y-33880071D01*
X181913358Y-33951500D01*
X182556215Y-34808643D02*
X182413358Y-34880071D01*
X182056215Y-34880071D01*
X181913358Y-34808643D01*
X181841929Y-34665786D01*
X181841929Y-34522929D01*
X181913358Y-34380071D01*
X182056215Y-34308643D01*
X182413358Y-34308643D01*
X182556215Y-34237214D01*
X183270501Y-34737214D02*
X183341929Y-34808643D01*
X183270501Y-34880071D01*
X183199072Y-34808643D01*
X183270501Y-34737214D01*
X183270501Y-34880071D01*
X183270501Y-33951500D02*
X183341929Y-34022929D01*
X183270501Y-34094357D01*
X183199072Y-34022929D01*
X183270501Y-33951500D01*
X183270501Y-34094357D01*
X185413358Y-33380071D02*
X185556215Y-33380071D01*
X185699072Y-33451500D01*
X185770501Y-33522929D01*
X185841930Y-33665786D01*
X185913358Y-33951500D01*
X185913358Y-34308643D01*
X185841930Y-34594357D01*
X185770501Y-34737214D01*
X185699072Y-34808643D01*
X185556215Y-34880071D01*
X185413358Y-34880071D01*
X185270501Y-34808643D01*
X185199072Y-34737214D01*
X185127644Y-34594357D01*
X185056215Y-34308643D01*
X185056215Y-33951500D01*
X185127644Y-33665786D01*
X185199072Y-33522929D01*
X185270501Y-33451500D01*
X185413358Y-33380071D01*
X186556215Y-34737214D02*
X186627643Y-34808643D01*
X186556215Y-34880071D01*
X186484786Y-34808643D01*
X186556215Y-34737214D01*
X186556215Y-34880071D01*
X187913358Y-33380071D02*
X187627644Y-33380071D01*
X187484787Y-33451500D01*
X187413358Y-33522929D01*
X187270501Y-33737214D01*
X187199072Y-34022929D01*
X187199072Y-34594357D01*
X187270501Y-34737214D01*
X187341929Y-34808643D01*
X187484787Y-34880071D01*
X187770501Y-34880071D01*
X187913358Y-34808643D01*
X187984787Y-34737214D01*
X188056215Y-34594357D01*
X188056215Y-34237214D01*
X187984787Y-34094357D01*
X187913358Y-34022929D01*
X187770501Y-33951500D01*
X187484787Y-33951500D01*
X187341929Y-34022929D01*
X187270501Y-34094357D01*
X187199072Y-34237214D01*
X188699072Y-34880071D02*
X188699072Y-33880071D01*
X188699072Y-34022929D02*
X188770500Y-33951500D01*
X188913358Y-33880071D01*
X189127643Y-33880071D01*
X189270500Y-33951500D01*
X189341929Y-34094357D01*
X189341929Y-34880071D01*
X189341929Y-34094357D02*
X189413358Y-33951500D01*
X189556215Y-33880071D01*
X189770500Y-33880071D01*
X189913358Y-33951500D01*
X189984786Y-34094357D01*
X189984786Y-34880071D01*
X190699072Y-34880071D02*
X190699072Y-33880071D01*
X190699072Y-34022929D02*
X190770500Y-33951500D01*
X190913358Y-33880071D01*
X191127643Y-33880071D01*
X191270500Y-33951500D01*
X191341929Y-34094357D01*
X191341929Y-34880071D01*
X191341929Y-34094357D02*
X191413358Y-33951500D01*
X191556215Y-33880071D01*
X191770500Y-33880071D01*
X191913358Y-33951500D01*
X191984786Y-34094357D01*
X191984786Y-34880071D01*
X177627643Y-37430071D02*
X177627643Y-35930071D01*
X177984786Y-35930071D01*
X178199071Y-36001500D01*
X178341929Y-36144357D01*
X178413357Y-36287214D01*
X178484786Y-36572929D01*
X178484786Y-36787214D01*
X178413357Y-37072929D01*
X178341929Y-37215786D01*
X178199071Y-37358643D01*
X177984786Y-37430071D01*
X177627643Y-37430071D01*
X179127643Y-37430071D02*
X179127643Y-36430071D01*
X179127643Y-35930071D02*
X179056214Y-36001500D01*
X179127643Y-36072929D01*
X179199071Y-36001500D01*
X179127643Y-35930071D01*
X179127643Y-36072929D01*
X179770500Y-37358643D02*
X179913357Y-37430071D01*
X180199072Y-37430071D01*
X180341929Y-37358643D01*
X180413357Y-37215786D01*
X180413357Y-37144357D01*
X180341929Y-37001500D01*
X180199072Y-36930071D01*
X179984786Y-36930071D01*
X179841929Y-36858643D01*
X179770500Y-36715786D01*
X179770500Y-36644357D01*
X179841929Y-36501500D01*
X179984786Y-36430071D01*
X180199072Y-36430071D01*
X180341929Y-36501500D01*
X180841929Y-36430071D02*
X181413358Y-36430071D01*
X181056215Y-35930071D02*
X181056215Y-37215786D01*
X181127643Y-37358643D01*
X181270501Y-37430071D01*
X181413358Y-37430071D01*
X181913358Y-37287214D02*
X181984786Y-37358643D01*
X181913358Y-37430071D01*
X181841929Y-37358643D01*
X181913358Y-37287214D01*
X181913358Y-37430071D01*
X184413358Y-37430071D02*
X184413358Y-36644357D01*
X184341929Y-36501500D01*
X184199072Y-36430071D01*
X183913358Y-36430071D01*
X183770501Y-36501500D01*
X184413358Y-37358643D02*
X184270501Y-37430071D01*
X183913358Y-37430071D01*
X183770501Y-37358643D01*
X183699072Y-37215786D01*
X183699072Y-37072929D01*
X183770501Y-36930071D01*
X183913358Y-36858643D01*
X184270501Y-36858643D01*
X184413358Y-36787214D01*
X186270501Y-37430071D02*
X186270501Y-35930071D01*
X186270501Y-36501500D02*
X186413358Y-36430071D01*
X186699072Y-36430071D01*
X186841929Y-36501500D01*
X186913358Y-36572929D01*
X186984787Y-36715786D01*
X186984787Y-37144357D01*
X186913358Y-37287214D01*
X186841929Y-37358643D01*
X186699072Y-37430071D01*
X186413358Y-37430071D01*
X186270501Y-37358643D01*
X187841930Y-37430071D02*
X187699072Y-37358643D01*
X187627644Y-37287214D01*
X187556215Y-37144357D01*
X187556215Y-36715786D01*
X187627644Y-36572929D01*
X187699072Y-36501500D01*
X187841930Y-36430071D01*
X188056215Y-36430071D01*
X188199072Y-36501500D01*
X188270501Y-36572929D01*
X188341930Y-36715786D01*
X188341930Y-37144357D01*
X188270501Y-37287214D01*
X188199072Y-37358643D01*
X188056215Y-37430071D01*
X187841930Y-37430071D01*
X188984787Y-37430071D02*
X188984787Y-36430071D01*
X188984787Y-36715786D02*
X189056215Y-36572929D01*
X189127644Y-36501500D01*
X189270501Y-36430071D01*
X189413358Y-36430071D01*
X190556215Y-37430071D02*
X190556215Y-35930071D01*
X190556215Y-37358643D02*
X190413358Y-37430071D01*
X190127644Y-37430071D01*
X189984786Y-37358643D01*
X189913358Y-37287214D01*
X189841929Y-37144357D01*
X189841929Y-36715786D01*
X189913358Y-36572929D01*
X189984786Y-36501500D01*
X190127644Y-36430071D01*
X190413358Y-36430071D01*
X190556215Y-36501500D01*
X191841929Y-37358643D02*
X191699072Y-37430071D01*
X191413358Y-37430071D01*
X191270501Y-37358643D01*
X191199072Y-37215786D01*
X191199072Y-36644357D01*
X191270501Y-36501500D01*
X191413358Y-36430071D01*
X191699072Y-36430071D01*
X191841929Y-36501500D01*
X191913358Y-36644357D01*
X191913358Y-36787214D01*
X191199072Y-36930071D01*
X192556215Y-37287214D02*
X192627643Y-37358643D01*
X192556215Y-37430071D01*
X192484786Y-37358643D01*
X192556215Y-37287214D01*
X192556215Y-37430071D01*
X192556215Y-36501500D02*
X192627643Y-36572929D01*
X192556215Y-36644357D01*
X192484786Y-36572929D01*
X192556215Y-36501500D01*
X192556215Y-36644357D01*
X194699072Y-35930071D02*
X194841929Y-35930071D01*
X194984786Y-36001500D01*
X195056215Y-36072929D01*
X195127644Y-36215786D01*
X195199072Y-36501500D01*
X195199072Y-36858643D01*
X195127644Y-37144357D01*
X195056215Y-37287214D01*
X194984786Y-37358643D01*
X194841929Y-37430071D01*
X194699072Y-37430071D01*
X194556215Y-37358643D01*
X194484786Y-37287214D01*
X194413358Y-37144357D01*
X194341929Y-36858643D01*
X194341929Y-36501500D01*
X194413358Y-36215786D01*
X194484786Y-36072929D01*
X194556215Y-36001500D01*
X194699072Y-35930071D01*
X195841929Y-37287214D02*
X195913357Y-37358643D01*
X195841929Y-37430071D01*
X195770500Y-37358643D01*
X195841929Y-37287214D01*
X195841929Y-37430071D01*
X197199072Y-35930071D02*
X196913358Y-35930071D01*
X196770501Y-36001500D01*
X196699072Y-36072929D01*
X196556215Y-36287214D01*
X196484786Y-36572929D01*
X196484786Y-37144357D01*
X196556215Y-37287214D01*
X196627643Y-37358643D01*
X196770501Y-37430071D01*
X197056215Y-37430071D01*
X197199072Y-37358643D01*
X197270501Y-37287214D01*
X197341929Y-37144357D01*
X197341929Y-36787214D01*
X197270501Y-36644357D01*
X197199072Y-36572929D01*
X197056215Y-36501500D01*
X196770501Y-36501500D01*
X196627643Y-36572929D01*
X196556215Y-36644357D01*
X196484786Y-36787214D01*
X197984786Y-37430071D02*
X197984786Y-36430071D01*
X197984786Y-36572929D02*
X198056214Y-36501500D01*
X198199072Y-36430071D01*
X198413357Y-36430071D01*
X198556214Y-36501500D01*
X198627643Y-36644357D01*
X198627643Y-37430071D01*
X198627643Y-36644357D02*
X198699072Y-36501500D01*
X198841929Y-36430071D01*
X199056214Y-36430071D01*
X199199072Y-36501500D01*
X199270500Y-36644357D01*
X199270500Y-37430071D01*
X199984786Y-37430071D02*
X199984786Y-36430071D01*
X199984786Y-36572929D02*
X200056214Y-36501500D01*
X200199072Y-36430071D01*
X200413357Y-36430071D01*
X200556214Y-36501500D01*
X200627643Y-36644357D01*
X200627643Y-37430071D01*
X200627643Y-36644357D02*
X200699072Y-36501500D01*
X200841929Y-36430071D01*
X201056214Y-36430071D01*
X201199072Y-36501500D01*
X201270500Y-36644357D01*
X201270500Y-37430071D01*
X177413357Y-38480071D02*
X178270500Y-38480071D01*
X177841929Y-39980071D02*
X177841929Y-38480071D01*
X179341928Y-39908643D02*
X179199071Y-39980071D01*
X178913357Y-39980071D01*
X178770500Y-39908643D01*
X178699071Y-39765786D01*
X178699071Y-39194357D01*
X178770500Y-39051500D01*
X178913357Y-38980071D01*
X179199071Y-38980071D01*
X179341928Y-39051500D01*
X179413357Y-39194357D01*
X179413357Y-39337214D01*
X178699071Y-39480071D01*
X180056214Y-39980071D02*
X180056214Y-38980071D01*
X180056214Y-39265786D02*
X180127642Y-39122929D01*
X180199071Y-39051500D01*
X180341928Y-38980071D01*
X180484785Y-38980071D01*
X180984785Y-39980071D02*
X180984785Y-38980071D01*
X180984785Y-39122929D02*
X181056213Y-39051500D01*
X181199071Y-38980071D01*
X181413356Y-38980071D01*
X181556213Y-39051500D01*
X181627642Y-39194357D01*
X181627642Y-39980071D01*
X181627642Y-39194357D02*
X181699071Y-39051500D01*
X181841928Y-38980071D01*
X182056213Y-38980071D01*
X182199071Y-39051500D01*
X182270499Y-39194357D01*
X182270499Y-39980071D01*
X182984785Y-39980071D02*
X182984785Y-38980071D01*
X182984785Y-38480071D02*
X182913356Y-38551500D01*
X182984785Y-38622929D01*
X183056213Y-38551500D01*
X182984785Y-38480071D01*
X182984785Y-38622929D01*
X183699071Y-38980071D02*
X183699071Y-39980071D01*
X183699071Y-39122929D02*
X183770499Y-39051500D01*
X183913357Y-38980071D01*
X184127642Y-38980071D01*
X184270499Y-39051500D01*
X184341928Y-39194357D01*
X184341928Y-39980071D01*
X185699071Y-39980071D02*
X185699071Y-39194357D01*
X185627642Y-39051500D01*
X185484785Y-38980071D01*
X185199071Y-38980071D01*
X185056214Y-39051500D01*
X185699071Y-39908643D02*
X185556214Y-39980071D01*
X185199071Y-39980071D01*
X185056214Y-39908643D01*
X184984785Y-39765786D01*
X184984785Y-39622929D01*
X185056214Y-39480071D01*
X185199071Y-39408643D01*
X185556214Y-39408643D01*
X185699071Y-39337214D01*
X187056214Y-39908643D02*
X186913357Y-39980071D01*
X186627643Y-39980071D01*
X186484785Y-39908643D01*
X186413357Y-39837214D01*
X186341928Y-39694357D01*
X186341928Y-39265786D01*
X186413357Y-39122929D01*
X186484785Y-39051500D01*
X186627643Y-38980071D01*
X186913357Y-38980071D01*
X187056214Y-39051500D01*
X187699071Y-39980071D02*
X187699071Y-38980071D01*
X187699071Y-38480071D02*
X187627642Y-38551500D01*
X187699071Y-38622929D01*
X187770499Y-38551500D01*
X187699071Y-38480071D01*
X187699071Y-38622929D01*
X188627643Y-39980071D02*
X188484785Y-39908643D01*
X188413357Y-39837214D01*
X188341928Y-39694357D01*
X188341928Y-39265786D01*
X188413357Y-39122929D01*
X188484785Y-39051500D01*
X188627643Y-38980071D01*
X188841928Y-38980071D01*
X188984785Y-39051500D01*
X189056214Y-39122929D01*
X189127643Y-39265786D01*
X189127643Y-39694357D01*
X189056214Y-39837214D01*
X188984785Y-39908643D01*
X188841928Y-39980071D01*
X188627643Y-39980071D01*
X188913357Y-38408643D02*
X188699071Y-38622929D01*
X189770500Y-38980071D02*
X189770500Y-39980071D01*
X189770500Y-39122929D02*
X189841928Y-39051500D01*
X189984786Y-38980071D01*
X190199071Y-38980071D01*
X190341928Y-39051500D01*
X190413357Y-39194357D01*
X190413357Y-39980071D01*
X191127643Y-39837214D02*
X191199071Y-39908643D01*
X191127643Y-39980071D01*
X191056214Y-39908643D01*
X191127643Y-39837214D01*
X191127643Y-39980071D01*
X191127643Y-39051500D02*
X191199071Y-39122929D01*
X191127643Y-39194357D01*
X191056214Y-39122929D01*
X191127643Y-39051500D01*
X191127643Y-39194357D01*
X192984786Y-39980071D02*
X192984786Y-38480071D01*
X192984786Y-39194357D02*
X193841929Y-39194357D01*
X193841929Y-39980071D02*
X193841929Y-38480071D01*
X194484786Y-39551500D02*
X195199072Y-39551500D01*
X194341929Y-39980071D02*
X194841929Y-38480071D01*
X195341929Y-39980071D01*
X195770500Y-39908643D02*
X195984786Y-39980071D01*
X196341929Y-39980071D01*
X196484786Y-39908643D01*
X196556215Y-39837214D01*
X196627643Y-39694357D01*
X196627643Y-39551500D01*
X196556215Y-39408643D01*
X196484786Y-39337214D01*
X196341929Y-39265786D01*
X196056215Y-39194357D01*
X195913357Y-39122929D01*
X195841929Y-39051500D01*
X195770500Y-38908643D01*
X195770500Y-38765786D01*
X195841929Y-38622929D01*
X195913357Y-38551500D01*
X196056215Y-38480071D01*
X196413357Y-38480071D01*
X196627643Y-38551500D01*
X197984786Y-39980071D02*
X197270500Y-39980071D01*
X197270500Y-38480071D01*
X94971429Y-84428573D02*
X94971429Y-83571430D01*
X94971429Y-84000002D02*
X96471429Y-84000002D01*
X96257143Y-83857145D01*
X96114286Y-83714287D01*
X96042857Y-83571430D01*
X96471429Y-84928573D02*
X96471429Y-85857144D01*
X95900000Y-85357144D01*
X95900000Y-85571430D01*
X95828571Y-85714287D01*
X95757143Y-85785716D01*
X95614286Y-85857144D01*
X95257143Y-85857144D01*
X95114286Y-85785716D01*
X95042857Y-85714287D01*
X94971429Y-85571430D01*
X94971429Y-85142858D01*
X95042857Y-85000001D01*
X95114286Y-84928573D01*
X96471429Y-87214287D02*
X96471429Y-86500001D01*
X95757143Y-86428572D01*
X95828571Y-86500001D01*
X95900000Y-86642858D01*
X95900000Y-87000001D01*
X95828571Y-87142858D01*
X95757143Y-87214287D01*
X95614286Y-87285715D01*
X95257143Y-87285715D01*
X95114286Y-87214287D01*
X95042857Y-87142858D01*
X94971429Y-87000001D01*
X94971429Y-86642858D01*
X95042857Y-86500001D01*
X95114286Y-86428572D01*
X95114286Y-87928572D02*
X95042857Y-88000000D01*
X94971429Y-87928572D01*
X95042857Y-87857143D01*
X95114286Y-87928572D01*
X94971429Y-87928572D01*
X96471429Y-88928572D02*
X96471429Y-89071429D01*
X96400000Y-89214286D01*
X96328571Y-89285715D01*
X96185714Y-89357144D01*
X95900000Y-89428572D01*
X95542857Y-89428572D01*
X95257143Y-89357144D01*
X95114286Y-89285715D01*
X95042857Y-89214286D01*
X94971429Y-89071429D01*
X94971429Y-88928572D01*
X95042857Y-88785715D01*
X95114286Y-88714286D01*
X95257143Y-88642858D01*
X95542857Y-88571429D01*
X95900000Y-88571429D01*
X96185714Y-88642858D01*
X96328571Y-88714286D01*
X96400000Y-88785715D01*
X96471429Y-88928572D01*
X96471429Y-90357143D02*
X96471429Y-90500000D01*
X96400000Y-90642857D01*
X96328571Y-90714286D01*
X96185714Y-90785715D01*
X95900000Y-90857143D01*
X95542857Y-90857143D01*
X95257143Y-90785715D01*
X95114286Y-90714286D01*
X95042857Y-90642857D01*
X94971429Y-90500000D01*
X94971429Y-90357143D01*
X95042857Y-90214286D01*
X95114286Y-90142857D01*
X95257143Y-90071429D01*
X95542857Y-90000000D01*
X95900000Y-90000000D01*
X96185714Y-90071429D01*
X96328571Y-90142857D01*
X96400000Y-90214286D01*
X96471429Y-90357143D01*
X96471429Y-91785714D02*
X96471429Y-91928571D01*
X96400000Y-92071428D01*
X96328571Y-92142857D01*
X96185714Y-92214286D01*
X95900000Y-92285714D01*
X95542857Y-92285714D01*
X95257143Y-92214286D01*
X95114286Y-92142857D01*
X95042857Y-92071428D01*
X94971429Y-91928571D01*
X94971429Y-91785714D01*
X95042857Y-91642857D01*
X95114286Y-91571428D01*
X95257143Y-91500000D01*
X95542857Y-91428571D01*
X95900000Y-91428571D01*
X96185714Y-91500000D01*
X96328571Y-91571428D01*
X96400000Y-91642857D01*
X96471429Y-91785714D01*
X94971429Y-94071428D02*
X95971429Y-94071428D01*
X95828571Y-94071428D02*
X95900000Y-94142856D01*
X95971429Y-94285714D01*
X95971429Y-94499999D01*
X95900000Y-94642856D01*
X95757143Y-94714285D01*
X94971429Y-94714285D01*
X95757143Y-94714285D02*
X95900000Y-94785714D01*
X95971429Y-94928571D01*
X95971429Y-95142856D01*
X95900000Y-95285714D01*
X95757143Y-95357142D01*
X94971429Y-95357142D01*
X94971429Y-96071428D02*
X95971429Y-96071428D01*
X95828571Y-96071428D02*
X95900000Y-96142856D01*
X95971429Y-96285714D01*
X95971429Y-96499999D01*
X95900000Y-96642856D01*
X95757143Y-96714285D01*
X94971429Y-96714285D01*
X95757143Y-96714285D02*
X95900000Y-96785714D01*
X95971429Y-96928571D01*
X95971429Y-97142856D01*
X95900000Y-97285714D01*
X95757143Y-97357142D01*
X94971429Y-97357142D01*
X97000000Y-23000000D02*
X97000000Y-158000000D01*
X103500000Y-23000000D02*
X94300000Y-23000000D01*
X103500000Y-158000000D02*
X94300000Y-158000000D01*
X97000000Y-158000000D02*
X96413579Y-156873496D01*
X97000000Y-158000000D02*
X97586421Y-156873496D01*
X97000000Y-23000000D02*
X96413579Y-24126504D01*
X97000000Y-23000000D02*
X97586421Y-24126504D01*
X132714287Y-174528571D02*
X133714287Y-174528571D01*
X133071430Y-176028571D01*
X135071429Y-176028571D02*
X134214286Y-176028571D01*
X134642858Y-176028571D02*
X134642858Y-174528571D01*
X134500001Y-174742857D01*
X134357143Y-174885714D01*
X134214286Y-174957143D01*
X135714286Y-175885714D02*
X135785714Y-175957143D01*
X135714286Y-176028571D01*
X135642857Y-175957143D01*
X135714286Y-175885714D01*
X135714286Y-176028571D01*
X136714286Y-174528571D02*
X136857143Y-174528571D01*
X137000000Y-174600000D01*
X137071429Y-174671429D01*
X137142858Y-174814286D01*
X137214286Y-175100000D01*
X137214286Y-175457143D01*
X137142858Y-175742857D01*
X137071429Y-175885714D01*
X137000000Y-175957143D01*
X136857143Y-176028571D01*
X136714286Y-176028571D01*
X136571429Y-175957143D01*
X136500000Y-175885714D01*
X136428572Y-175742857D01*
X136357143Y-175457143D01*
X136357143Y-175100000D01*
X136428572Y-174814286D01*
X136500000Y-174671429D01*
X136571429Y-174600000D01*
X136714286Y-174528571D01*
X138142857Y-174528571D02*
X138285714Y-174528571D01*
X138428571Y-174600000D01*
X138500000Y-174671429D01*
X138571429Y-174814286D01*
X138642857Y-175100000D01*
X138642857Y-175457143D01*
X138571429Y-175742857D01*
X138500000Y-175885714D01*
X138428571Y-175957143D01*
X138285714Y-176028571D01*
X138142857Y-176028571D01*
X138000000Y-175957143D01*
X137928571Y-175885714D01*
X137857143Y-175742857D01*
X137785714Y-175457143D01*
X137785714Y-175100000D01*
X137857143Y-174814286D01*
X137928571Y-174671429D01*
X138000000Y-174600000D01*
X138142857Y-174528571D01*
X139571428Y-174528571D02*
X139714285Y-174528571D01*
X139857142Y-174600000D01*
X139928571Y-174671429D01*
X140000000Y-174814286D01*
X140071428Y-175100000D01*
X140071428Y-175457143D01*
X140000000Y-175742857D01*
X139928571Y-175885714D01*
X139857142Y-175957143D01*
X139714285Y-176028571D01*
X139571428Y-176028571D01*
X139428571Y-175957143D01*
X139357142Y-175885714D01*
X139285714Y-175742857D01*
X139214285Y-175457143D01*
X139214285Y-175100000D01*
X139285714Y-174814286D01*
X139357142Y-174671429D01*
X139428571Y-174600000D01*
X139571428Y-174528571D01*
X141857142Y-176028571D02*
X141857142Y-175028571D01*
X141857142Y-175171429D02*
X141928570Y-175100000D01*
X142071428Y-175028571D01*
X142285713Y-175028571D01*
X142428570Y-175100000D01*
X142499999Y-175242857D01*
X142499999Y-176028571D01*
X142499999Y-175242857D02*
X142571428Y-175100000D01*
X142714285Y-175028571D01*
X142928570Y-175028571D01*
X143071428Y-175100000D01*
X143142856Y-175242857D01*
X143142856Y-176028571D01*
X143857142Y-176028571D02*
X143857142Y-175028571D01*
X143857142Y-175171429D02*
X143928570Y-175100000D01*
X144071428Y-175028571D01*
X144285713Y-175028571D01*
X144428570Y-175100000D01*
X144499999Y-175242857D01*
X144499999Y-176028571D01*
X144499999Y-175242857D02*
X144571428Y-175100000D01*
X144714285Y-175028571D01*
X144928570Y-175028571D01*
X145071428Y-175100000D01*
X145142856Y-175242857D01*
X145142856Y-176028571D01*
X103500000Y-174000000D02*
X174500000Y-174000000D01*
X103500000Y-158000000D02*
X103500000Y-176700000D01*
X174500000Y-158000000D02*
X174500000Y-176700000D01*
X174500000Y-174000000D02*
X173373496Y-174586421D01*
X174500000Y-174000000D02*
X173373496Y-173413579D01*
X103500000Y-174000000D02*
X104626504Y-174586421D01*
X103500000Y-174000000D02*
X104626504Y-173413579D01*
M02*
