M48
INCH,TZ
T1C0.015
T2C0.025
T3C0.032
T4C0.040
%
G90
G05
T1
X3.275Y-1.850
X3.663Y-2.066
X3.700Y-2.025
X4.000Y-1.900
X4.075Y-2.050
X4.200Y-2.025
X4.325Y-1.825
X4.325Y-2.200
X4.350Y-2.300
X4.375Y-2.325
X4.475Y-2.175
X4.550Y-2.225
T2
X4.200Y-1.825
X4.200Y-2.475
X4.275Y-1.750
X4.500Y-1.925
X4.600Y-1.600
X4.650Y-1.375
T3
X3.800Y-2.300
X3.800Y-2.500
X4.100Y-2.300
X4.100Y-2.500
T4
X1.750Y-2.550
X1.850Y-2.550
X1.950Y-1.350
X1.950Y-2.550
X2.050Y-1.600
X2.050Y-2.200
X2.050Y-2.550
X2.150Y-1.600
X2.150Y-2.200
X2.150Y-2.550
X2.250Y-1.250
X2.250Y-1.600
X2.250Y-2.200
X2.250Y-2.550
X2.350Y-1.250
X2.350Y-1.600
X2.350Y-2.200
X2.450Y-1.250
X2.450Y-1.600
X2.450Y-2.200
X2.450Y-2.550
X2.550Y-1.250
X2.550Y-1.600
X2.550Y-2.200
X2.550Y-2.550
X2.650Y-1.250
X2.650Y-1.600
X2.650Y-2.200
X2.650Y-2.550
X2.750Y-1.250
X2.750Y-1.600
X2.750Y-2.200
X2.750Y-2.550
X2.850Y-1.600
X2.850Y-2.200
X2.850Y-2.550
X2.950Y-1.600
X2.950Y-2.200
X2.950Y-2.550
X3.050Y-1.250
X3.050Y-1.600
X3.050Y-2.200
X3.150Y-1.250
X3.150Y-1.600
X3.150Y-2.200
X3.250Y-1.250
X3.250Y-1.600
X3.250Y-2.200
X3.250Y-2.450
X3.350Y-1.250
X3.350Y-1.600
X3.350Y-2.200
X3.800Y-1.675
X3.800Y-1.775
X3.800Y-1.875
X3.800Y-1.975
X3.900Y-1.675
X3.900Y-1.775
X3.900Y-1.875
X3.900Y-1.975
X4.050Y-1.250
X4.150Y-1.250
X4.250Y-1.250
X4.350Y-1.250
X4.450Y-1.250
X4.550Y-1.250
X4.650Y-1.250
X4.750Y-1.250
X4.850Y-1.250
X4.950Y-1.250
X4.950Y-1.350
X4.950Y-1.450
X4.950Y-1.550
X4.950Y-1.650
X4.950Y-1.750
X4.950Y-1.850
X4.950Y-1.950
T0
M30
