G04 #@! TF.GenerationSoftware,KiCad,Pcbnew,(5.0.1)-3*
G04 #@! TF.CreationDate,2018-11-23T05:02:51-03:00*
G04 #@! TF.ProjectId,MMA7361,4D4D41373336312E6B696361645F7063,1.1*
G04 #@! TF.SameCoordinates,PX6f94740PY4c4b400*
G04 #@! TF.FileFunction,Soldermask,Bot*
G04 #@! TF.FilePolarity,Negative*
%FSLAX46Y46*%
G04 Gerber Fmt 4.6, Leading zero omitted, Abs format (unit mm)*
G04 Created by KiCad (PCBNEW (5.0.1)-3) date 23/11/2018 05:02:51*
%MOMM*%
%LPD*%
G01*
G04 APERTURE LIST*
%ADD10C,0.100000*%
G04 APERTURE END LIST*
D10*
X35500000Y0D02*
X0Y0D01*
X35500000Y-22000000D02*
X35500000Y0D01*
X0Y-22000000D02*
X35500000Y-22000000D01*
X0Y0D02*
X0Y-22000000D01*
G36*
X32628707Y-15117597D02*
X32705836Y-15125193D01*
X32837787Y-15165220D01*
X32903763Y-15185233D01*
X33086172Y-15282733D01*
X33246054Y-15413946D01*
X33377267Y-15573828D01*
X33474767Y-15756237D01*
X33474767Y-15756238D01*
X33534807Y-15954164D01*
X33555080Y-16160000D01*
X33534807Y-16365836D01*
X33494780Y-16497787D01*
X33474767Y-16563763D01*
X33377267Y-16746172D01*
X33246054Y-16906054D01*
X33086172Y-17037267D01*
X32903763Y-17134767D01*
X32837787Y-17154780D01*
X32705836Y-17194807D01*
X32628707Y-17202404D01*
X32551580Y-17210000D01*
X32448420Y-17210000D01*
X32371293Y-17202404D01*
X32294164Y-17194807D01*
X32162213Y-17154780D01*
X32096237Y-17134767D01*
X31913828Y-17037267D01*
X31753946Y-16906054D01*
X31622733Y-16746172D01*
X31525233Y-16563763D01*
X31505220Y-16497787D01*
X31465193Y-16365836D01*
X31444920Y-16160000D01*
X31465193Y-15954164D01*
X31525233Y-15756238D01*
X31525233Y-15756237D01*
X31622733Y-15573828D01*
X31753946Y-15413946D01*
X31913828Y-15282733D01*
X32096237Y-15185233D01*
X32162213Y-15165220D01*
X32294164Y-15125193D01*
X32371293Y-15117597D01*
X32448420Y-15110000D01*
X32551580Y-15110000D01*
X32628707Y-15117597D01*
X32628707Y-15117597D01*
G37*
G36*
X2128707Y-15117597D02*
X2205836Y-15125193D01*
X2337787Y-15165220D01*
X2403763Y-15185233D01*
X2586172Y-15282733D01*
X2746054Y-15413946D01*
X2877267Y-15573828D01*
X2974767Y-15756237D01*
X2974767Y-15756238D01*
X3034807Y-15954164D01*
X3055080Y-16160000D01*
X3034807Y-16365836D01*
X2994780Y-16497787D01*
X2974767Y-16563763D01*
X2877267Y-16746172D01*
X2746054Y-16906054D01*
X2586172Y-17037267D01*
X2403763Y-17134767D01*
X2337787Y-17154780D01*
X2205836Y-17194807D01*
X2128707Y-17202404D01*
X2051580Y-17210000D01*
X1948420Y-17210000D01*
X1871293Y-17202404D01*
X1794164Y-17194807D01*
X1662213Y-17154780D01*
X1596237Y-17134767D01*
X1413828Y-17037267D01*
X1253946Y-16906054D01*
X1122733Y-16746172D01*
X1025233Y-16563763D01*
X1005220Y-16497787D01*
X965193Y-16365836D01*
X944920Y-16160000D01*
X965193Y-15954164D01*
X1025233Y-15756238D01*
X1025233Y-15756237D01*
X1122733Y-15573828D01*
X1253946Y-15413946D01*
X1413828Y-15282733D01*
X1596237Y-15185233D01*
X1662213Y-15165220D01*
X1794164Y-15125193D01*
X1871293Y-15117597D01*
X1948420Y-15110000D01*
X2051580Y-15110000D01*
X2128707Y-15117597D01*
X2128707Y-15117597D01*
G37*
G36*
X32628707Y-12577596D02*
X32705836Y-12585193D01*
X32837787Y-12625220D01*
X32903763Y-12645233D01*
X33086172Y-12742733D01*
X33246054Y-12873946D01*
X33377267Y-13033828D01*
X33474767Y-13216237D01*
X33474767Y-13216238D01*
X33534807Y-13414164D01*
X33555080Y-13620000D01*
X33534807Y-13825836D01*
X33494780Y-13957787D01*
X33474767Y-14023763D01*
X33377267Y-14206172D01*
X33246054Y-14366054D01*
X33086172Y-14497267D01*
X32903763Y-14594767D01*
X32837787Y-14614780D01*
X32705836Y-14654807D01*
X32628707Y-14662404D01*
X32551580Y-14670000D01*
X32448420Y-14670000D01*
X32371293Y-14662403D01*
X32294164Y-14654807D01*
X32162213Y-14614780D01*
X32096237Y-14594767D01*
X31913828Y-14497267D01*
X31753946Y-14366054D01*
X31622733Y-14206172D01*
X31525233Y-14023763D01*
X31505220Y-13957787D01*
X31465193Y-13825836D01*
X31444920Y-13620000D01*
X31465193Y-13414164D01*
X31525233Y-13216238D01*
X31525233Y-13216237D01*
X31622733Y-13033828D01*
X31753946Y-12873946D01*
X31913828Y-12742733D01*
X32096237Y-12645233D01*
X32162213Y-12625220D01*
X32294164Y-12585193D01*
X32371293Y-12577597D01*
X32448420Y-12570000D01*
X32551580Y-12570000D01*
X32628707Y-12577596D01*
X32628707Y-12577596D01*
G37*
G36*
X2128707Y-12577596D02*
X2205836Y-12585193D01*
X2337787Y-12625220D01*
X2403763Y-12645233D01*
X2586172Y-12742733D01*
X2746054Y-12873946D01*
X2877267Y-13033828D01*
X2974767Y-13216237D01*
X2974767Y-13216238D01*
X3034807Y-13414164D01*
X3055080Y-13620000D01*
X3034807Y-13825836D01*
X2994780Y-13957787D01*
X2974767Y-14023763D01*
X2877267Y-14206172D01*
X2746054Y-14366054D01*
X2586172Y-14497267D01*
X2403763Y-14594767D01*
X2337787Y-14614780D01*
X2205836Y-14654807D01*
X2128707Y-14662404D01*
X2051580Y-14670000D01*
X1948420Y-14670000D01*
X1871293Y-14662403D01*
X1794164Y-14654807D01*
X1662213Y-14614780D01*
X1596237Y-14594767D01*
X1413828Y-14497267D01*
X1253946Y-14366054D01*
X1122733Y-14206172D01*
X1025233Y-14023763D01*
X1005220Y-13957787D01*
X965193Y-13825836D01*
X944920Y-13620000D01*
X965193Y-13414164D01*
X1025233Y-13216238D01*
X1025233Y-13216237D01*
X1122733Y-13033828D01*
X1253946Y-12873946D01*
X1413828Y-12742733D01*
X1596237Y-12645233D01*
X1662213Y-12625220D01*
X1794164Y-12585193D01*
X1871293Y-12577596D01*
X1948420Y-12570000D01*
X2051580Y-12570000D01*
X2128707Y-12577596D01*
X2128707Y-12577596D01*
G37*
G36*
X32628707Y-10037597D02*
X32705836Y-10045193D01*
X32837787Y-10085220D01*
X32903763Y-10105233D01*
X33086172Y-10202733D01*
X33246054Y-10333946D01*
X33377267Y-10493828D01*
X33474767Y-10676237D01*
X33474767Y-10676238D01*
X33534807Y-10874164D01*
X33555080Y-11080000D01*
X33534807Y-11285836D01*
X33494780Y-11417787D01*
X33474767Y-11483763D01*
X33377267Y-11666172D01*
X33246054Y-11826054D01*
X33086172Y-11957267D01*
X32903763Y-12054767D01*
X32837787Y-12074780D01*
X32705836Y-12114807D01*
X32628707Y-12122403D01*
X32551580Y-12130000D01*
X32448420Y-12130000D01*
X32371293Y-12122404D01*
X32294164Y-12114807D01*
X32162213Y-12074780D01*
X32096237Y-12054767D01*
X31913828Y-11957267D01*
X31753946Y-11826054D01*
X31622733Y-11666172D01*
X31525233Y-11483763D01*
X31505220Y-11417787D01*
X31465193Y-11285836D01*
X31444920Y-11080000D01*
X31465193Y-10874164D01*
X31525233Y-10676238D01*
X31525233Y-10676237D01*
X31622733Y-10493828D01*
X31753946Y-10333946D01*
X31913828Y-10202733D01*
X32096237Y-10105233D01*
X32162213Y-10085220D01*
X32294164Y-10045193D01*
X32371293Y-10037597D01*
X32448420Y-10030000D01*
X32551580Y-10030000D01*
X32628707Y-10037597D01*
X32628707Y-10037597D01*
G37*
G36*
X2128707Y-10037597D02*
X2205836Y-10045193D01*
X2337787Y-10085220D01*
X2403763Y-10105233D01*
X2586172Y-10202733D01*
X2746054Y-10333946D01*
X2877267Y-10493828D01*
X2974767Y-10676237D01*
X2974767Y-10676238D01*
X3034807Y-10874164D01*
X3055080Y-11080000D01*
X3034807Y-11285836D01*
X2994780Y-11417787D01*
X2974767Y-11483763D01*
X2877267Y-11666172D01*
X2746054Y-11826054D01*
X2586172Y-11957267D01*
X2403763Y-12054767D01*
X2337787Y-12074780D01*
X2205836Y-12114807D01*
X2128707Y-12122404D01*
X2051580Y-12130000D01*
X1948420Y-12130000D01*
X1871293Y-12122404D01*
X1794164Y-12114807D01*
X1662213Y-12074780D01*
X1596237Y-12054767D01*
X1413828Y-11957267D01*
X1253946Y-11826054D01*
X1122733Y-11666172D01*
X1025233Y-11483763D01*
X1005220Y-11417787D01*
X965193Y-11285836D01*
X944920Y-11080000D01*
X965193Y-10874164D01*
X1025233Y-10676238D01*
X1025233Y-10676237D01*
X1122733Y-10493828D01*
X1253946Y-10333946D01*
X1413828Y-10202733D01*
X1596237Y-10105233D01*
X1662213Y-10085220D01*
X1794164Y-10045193D01*
X1871293Y-10037597D01*
X1948420Y-10030000D01*
X2051580Y-10030000D01*
X2128707Y-10037597D01*
X2128707Y-10037597D01*
G37*
G36*
X2128707Y-7497597D02*
X2205836Y-7505193D01*
X2337787Y-7545220D01*
X2403763Y-7565233D01*
X2586172Y-7662733D01*
X2746054Y-7793946D01*
X2877267Y-7953828D01*
X2974767Y-8136237D01*
X2974767Y-8136238D01*
X3034807Y-8334164D01*
X3055080Y-8540000D01*
X3034807Y-8745836D01*
X2994780Y-8877787D01*
X2974767Y-8943763D01*
X2877267Y-9126172D01*
X2746054Y-9286054D01*
X2586172Y-9417267D01*
X2403763Y-9514767D01*
X2337787Y-9534780D01*
X2205836Y-9574807D01*
X2128707Y-9582403D01*
X2051580Y-9590000D01*
X1948420Y-9590000D01*
X1871293Y-9582403D01*
X1794164Y-9574807D01*
X1662213Y-9534780D01*
X1596237Y-9514767D01*
X1413828Y-9417267D01*
X1253946Y-9286054D01*
X1122733Y-9126172D01*
X1025233Y-8943763D01*
X1005220Y-8877787D01*
X965193Y-8745836D01*
X944920Y-8540000D01*
X965193Y-8334164D01*
X1025233Y-8136238D01*
X1025233Y-8136237D01*
X1122733Y-7953828D01*
X1253946Y-7793946D01*
X1413828Y-7662733D01*
X1596237Y-7565233D01*
X1662213Y-7545220D01*
X1794164Y-7505193D01*
X1871293Y-7497597D01*
X1948420Y-7490000D01*
X2051580Y-7490000D01*
X2128707Y-7497597D01*
X2128707Y-7497597D01*
G37*
G36*
X32628707Y-7497597D02*
X32705836Y-7505193D01*
X32837787Y-7545220D01*
X32903763Y-7565233D01*
X33086172Y-7662733D01*
X33246054Y-7793946D01*
X33377267Y-7953828D01*
X33474767Y-8136237D01*
X33474767Y-8136238D01*
X33534807Y-8334164D01*
X33555080Y-8540000D01*
X33534807Y-8745836D01*
X33494780Y-8877787D01*
X33474767Y-8943763D01*
X33377267Y-9126172D01*
X33246054Y-9286054D01*
X33086172Y-9417267D01*
X32903763Y-9514767D01*
X32837787Y-9534780D01*
X32705836Y-9574807D01*
X32628707Y-9582403D01*
X32551580Y-9590000D01*
X32448420Y-9590000D01*
X32371293Y-9582403D01*
X32294164Y-9574807D01*
X32162213Y-9534780D01*
X32096237Y-9514767D01*
X31913828Y-9417267D01*
X31753946Y-9286054D01*
X31622733Y-9126172D01*
X31525233Y-8943763D01*
X31505220Y-8877787D01*
X31465193Y-8745836D01*
X31444920Y-8540000D01*
X31465193Y-8334164D01*
X31525233Y-8136238D01*
X31525233Y-8136237D01*
X31622733Y-7953828D01*
X31753946Y-7793946D01*
X31913828Y-7662733D01*
X32096237Y-7565233D01*
X32162213Y-7545220D01*
X32294164Y-7505193D01*
X32371293Y-7497597D01*
X32448420Y-7490000D01*
X32551580Y-7490000D01*
X32628707Y-7497597D01*
X32628707Y-7497597D01*
G37*
G36*
X33550000Y-7050000D02*
X31450000Y-7050000D01*
X31450000Y-4950000D01*
X33550000Y-4950000D01*
X33550000Y-7050000D01*
X33550000Y-7050000D01*
G37*
G36*
X3050000Y-7050000D02*
X950000Y-7050000D01*
X950000Y-4950000D01*
X3050000Y-4950000D01*
X3050000Y-7050000D01*
X3050000Y-7050000D01*
G37*
M02*
