G04 #@! TF.GenerationSoftware,KiCad,Pcbnew,(5.0.1)-3*
G04 #@! TF.CreationDate,2018-11-23T05:02:51-03:00*
G04 #@! TF.ProjectId,MMA7361,4D4D41373336312E6B696361645F7063,1.1*
G04 #@! TF.SameCoordinates,PX6f94740PY4c4b400*
G04 #@! TF.FileFunction,Legend,Top*
G04 #@! TF.FilePolarity,Positive*
%FSLAX46Y46*%
G04 Gerber Fmt 4.6, Leading zero omitted, Abs format (unit mm)*
G04 Created by KiCad (PCBNEW (5.0.1)-3) date 23/11/2018 05:02:51*
%MOMM*%
%LPD*%
G01*
G04 APERTURE LIST*
%ADD10C,0.150000*%
%ADD11C,0.200000*%
%ADD12C,0.100000*%
%ADD13C,0.120000*%
G04 APERTURE END LIST*
D10*
X28161904Y-8052380D02*
X28780952Y-8052380D01*
X28447619Y-8433333D01*
X28590476Y-8433333D01*
X28685714Y-8480952D01*
X28733333Y-8528571D01*
X28780952Y-8623809D01*
X28780952Y-8861904D01*
X28733333Y-8957142D01*
X28685714Y-9004761D01*
X28590476Y-9052380D01*
X28304761Y-9052380D01*
X28209523Y-9004761D01*
X28161904Y-8957142D01*
X29066666Y-8052380D02*
X29400000Y-9052380D01*
X29733333Y-8052380D01*
X29971428Y-8052380D02*
X30590476Y-8052380D01*
X30257142Y-8433333D01*
X30400000Y-8433333D01*
X30495238Y-8480952D01*
X30542857Y-8528571D01*
X30590476Y-8623809D01*
X30590476Y-8861904D01*
X30542857Y-8957142D01*
X30495238Y-9004761D01*
X30400000Y-9052380D01*
X30114285Y-9052380D01*
X30019047Y-9004761D01*
X29971428Y-8957142D01*
X29033333Y-16604761D02*
X29176190Y-16652380D01*
X29414285Y-16652380D01*
X29509523Y-16604761D01*
X29557142Y-16557142D01*
X29604761Y-16461904D01*
X29604761Y-16366666D01*
X29557142Y-16271428D01*
X29509523Y-16223809D01*
X29414285Y-16176190D01*
X29223809Y-16128571D01*
X29128571Y-16080952D01*
X29080952Y-16033333D01*
X29033333Y-15938095D01*
X29033333Y-15842857D01*
X29080952Y-15747619D01*
X29128571Y-15700000D01*
X29223809Y-15652380D01*
X29461904Y-15652380D01*
X29604761Y-15700000D01*
X29890476Y-15652380D02*
X30461904Y-15652380D01*
X30176190Y-16652380D02*
X30176190Y-15652380D01*
X29485714Y-13100000D02*
X29390476Y-13052380D01*
X29247619Y-13052380D01*
X29104761Y-13100000D01*
X29009523Y-13195238D01*
X28961904Y-13290476D01*
X28914285Y-13480952D01*
X28914285Y-13623809D01*
X28961904Y-13814285D01*
X29009523Y-13909523D01*
X29104761Y-14004761D01*
X29247619Y-14052380D01*
X29342857Y-14052380D01*
X29485714Y-14004761D01*
X29533333Y-13957142D01*
X29533333Y-13623809D01*
X29342857Y-13623809D01*
X29914285Y-14004761D02*
X30057142Y-14052380D01*
X30295238Y-14052380D01*
X30390476Y-14004761D01*
X30438095Y-13957142D01*
X30485714Y-13861904D01*
X30485714Y-13766666D01*
X30438095Y-13671428D01*
X30390476Y-13623809D01*
X30295238Y-13576190D01*
X30104761Y-13528571D01*
X30009523Y-13480952D01*
X29961904Y-13433333D01*
X29914285Y-13338095D01*
X29914285Y-13242857D01*
X29961904Y-13147619D01*
X30009523Y-13100000D01*
X30104761Y-13052380D01*
X30342857Y-13052380D01*
X30485714Y-13100000D01*
X29600000Y-11861904D02*
X29552380Y-11957142D01*
X29552380Y-12100000D01*
X29600000Y-12242857D01*
X29695238Y-12338095D01*
X29790476Y-12385714D01*
X29980952Y-12433333D01*
X30123809Y-12433333D01*
X30314285Y-12385714D01*
X30409523Y-12338095D01*
X30504761Y-12242857D01*
X30552380Y-12100000D01*
X30552380Y-12004761D01*
X30504761Y-11861904D01*
X30457142Y-11814285D01*
X30123809Y-11814285D01*
X30123809Y-12004761D01*
X30552380Y-11385714D02*
X29552380Y-11385714D01*
X30552380Y-10814285D01*
X29552380Y-10814285D01*
X30552380Y-10338095D02*
X29552380Y-10338095D01*
X29552380Y-10100000D01*
X29600000Y-9957142D01*
X29695238Y-9861904D01*
X29790476Y-9814285D01*
X29980952Y-9766666D01*
X30123809Y-9766666D01*
X30314285Y-9814285D01*
X30409523Y-9861904D01*
X30504761Y-9957142D01*
X30552380Y-10100000D01*
X30552380Y-10338095D01*
X29509523Y-5452380D02*
X29033333Y-5452380D01*
X28985714Y-5928571D01*
X29033333Y-5880952D01*
X29128571Y-5833333D01*
X29366666Y-5833333D01*
X29461904Y-5880952D01*
X29509523Y-5928571D01*
X29557142Y-6023809D01*
X29557142Y-6261904D01*
X29509523Y-6357142D01*
X29461904Y-6404761D01*
X29366666Y-6452380D01*
X29128571Y-6452380D01*
X29033333Y-6404761D01*
X28985714Y-6357142D01*
X29842857Y-5452380D02*
X30176190Y-6452380D01*
X30509523Y-5452380D01*
D11*
X11300000Y-750000D02*
X11800000Y-1250000D01*
X11300000Y-750000D02*
X10800000Y-1250000D01*
X8500000Y-3750000D02*
X9000000Y-4250000D01*
X9000000Y-3250000D02*
X8500000Y-3750000D01*
X11300000Y-3750000D02*
X8550000Y-3750000D01*
X11300000Y-750000D02*
X11300000Y-3750000D01*
X9300000Y-2976190D02*
X9300000Y-3452380D01*
X8966666Y-2452380D02*
X9300000Y-2976190D01*
X9633333Y-2452380D01*
X11916666Y-702380D02*
X12583333Y-1702380D01*
X12583333Y-702380D02*
X11916666Y-1702380D01*
D10*
X4304761Y-15652380D02*
X4495238Y-15652380D01*
X4590476Y-15700000D01*
X4685714Y-15795238D01*
X4733333Y-15985714D01*
X4733333Y-16319047D01*
X4685714Y-16509523D01*
X4590476Y-16604761D01*
X4495238Y-16652380D01*
X4304761Y-16652380D01*
X4209523Y-16604761D01*
X4114285Y-16509523D01*
X4066666Y-16319047D01*
X4066666Y-15985714D01*
X4114285Y-15795238D01*
X4209523Y-15700000D01*
X4304761Y-15652380D01*
X5161904Y-16652380D02*
X5161904Y-15652380D01*
X5400000Y-15652380D01*
X5542857Y-15700000D01*
X5638095Y-15795238D01*
X5685714Y-15890476D01*
X5733333Y-16080952D01*
X5733333Y-16223809D01*
X5685714Y-16414285D01*
X5638095Y-16509523D01*
X5542857Y-16604761D01*
X5400000Y-16652380D01*
X5161904Y-16652380D01*
X4009523Y-14004761D02*
X4152380Y-14052380D01*
X4390476Y-14052380D01*
X4485714Y-14004761D01*
X4533333Y-13957142D01*
X4580952Y-13861904D01*
X4580952Y-13766666D01*
X4533333Y-13671428D01*
X4485714Y-13623809D01*
X4390476Y-13576190D01*
X4200000Y-13528571D01*
X4104761Y-13480952D01*
X4057142Y-13433333D01*
X4009523Y-13338095D01*
X4009523Y-13242857D01*
X4057142Y-13147619D01*
X4104761Y-13100000D01*
X4200000Y-13052380D01*
X4438095Y-13052380D01*
X4580952Y-13100000D01*
X5485714Y-14052380D02*
X5009523Y-14052380D01*
X5009523Y-13052380D01*
X4066666Y-10552380D02*
X4733333Y-10552380D01*
X4066666Y-11552380D01*
X4733333Y-11552380D01*
X4400000Y-8476190D02*
X4400000Y-8952380D01*
X4066666Y-7952380D02*
X4400000Y-8476190D01*
X4733333Y-7952380D01*
X4733333Y-6547619D02*
X4066666Y-5547619D01*
X4066666Y-6547619D02*
X4733333Y-5547619D01*
D12*
X35500000Y0D02*
X0Y0D01*
X35500000Y-22000000D02*
X35500000Y0D01*
X0Y-22000000D02*
X35500000Y-22000000D01*
X0Y0D02*
X0Y-22000000D01*
D11*
X25271428Y-19292857D02*
X25271428Y-18092857D01*
X25842857Y-19292857D02*
X25842857Y-18092857D01*
X26528571Y-19292857D01*
X26528571Y-18092857D01*
X27100000Y-19292857D02*
X27100000Y-18092857D01*
X27385714Y-18092857D01*
X27557142Y-18150000D01*
X27671428Y-18264285D01*
X27728571Y-18378571D01*
X27785714Y-18607142D01*
X27785714Y-18778571D01*
X27728571Y-19007142D01*
X27671428Y-19121428D01*
X27557142Y-19235714D01*
X27385714Y-19292857D01*
X27100000Y-19292857D01*
X25014285Y-20950000D02*
X25585714Y-20950000D01*
X24900000Y-21292857D02*
X25300000Y-20092857D01*
X25700000Y-21292857D01*
X26785714Y-21292857D02*
X26385714Y-20721428D01*
X26100000Y-21292857D02*
X26100000Y-20092857D01*
X26557142Y-20092857D01*
X26671428Y-20150000D01*
X26728571Y-20207142D01*
X26785714Y-20321428D01*
X26785714Y-20492857D01*
X26728571Y-20607142D01*
X26671428Y-20664285D01*
X26557142Y-20721428D01*
X26100000Y-20721428D01*
X27928571Y-20150000D02*
X27814285Y-20092857D01*
X27642857Y-20092857D01*
X27471428Y-20150000D01*
X27357142Y-20264285D01*
X27300000Y-20378571D01*
X27242857Y-20607142D01*
X27242857Y-20778571D01*
X27300000Y-21007142D01*
X27357142Y-21121428D01*
X27471428Y-21235714D01*
X27642857Y-21292857D01*
X27757142Y-21292857D01*
X27928571Y-21235714D01*
X27985714Y-21178571D01*
X27985714Y-20778571D01*
X27757142Y-20778571D01*
X23785714Y-1035714D02*
X24023809Y-1702380D01*
X24261904Y-1035714D01*
X25166666Y-1702380D02*
X24595238Y-1702380D01*
X24880952Y-1702380D02*
X24880952Y-702380D01*
X24785714Y-845238D01*
X24690476Y-940476D01*
X24595238Y-988095D01*
X25595238Y-1607142D02*
X25642857Y-1654761D01*
X25595238Y-1702380D01*
X25547619Y-1654761D01*
X25595238Y-1607142D01*
X25595238Y-1702380D01*
X26595238Y-1702380D02*
X26023809Y-1702380D01*
X26309523Y-1702380D02*
X26309523Y-702380D01*
X26214285Y-845238D01*
X26119047Y-940476D01*
X26023809Y-988095D01*
X27738095Y-797619D02*
X27785714Y-750000D01*
X27880952Y-702380D01*
X28119047Y-702380D01*
X28214285Y-750000D01*
X28261904Y-797619D01*
X28309523Y-892857D01*
X28309523Y-988095D01*
X28261904Y-1130952D01*
X27690476Y-1702380D01*
X28309523Y-1702380D01*
X28928571Y-702380D02*
X29023809Y-702380D01*
X29119047Y-750000D01*
X29166666Y-797619D01*
X29214285Y-892857D01*
X29261904Y-1083333D01*
X29261904Y-1321428D01*
X29214285Y-1511904D01*
X29166666Y-1607142D01*
X29119047Y-1654761D01*
X29023809Y-1702380D01*
X28928571Y-1702380D01*
X28833333Y-1654761D01*
X28785714Y-1607142D01*
X28738095Y-1511904D01*
X28690476Y-1321428D01*
X28690476Y-1083333D01*
X28738095Y-892857D01*
X28785714Y-797619D01*
X28833333Y-750000D01*
X28928571Y-702380D01*
X30214285Y-1702380D02*
X29642857Y-1702380D01*
X29928571Y-1702380D02*
X29928571Y-702380D01*
X29833333Y-845238D01*
X29738095Y-940476D01*
X29642857Y-988095D01*
X30785714Y-1130952D02*
X30690476Y-1083333D01*
X30642857Y-1035714D01*
X30595238Y-940476D01*
X30595238Y-892857D01*
X30642857Y-797619D01*
X30690476Y-750000D01*
X30785714Y-702380D01*
X30976190Y-702380D01*
X31071428Y-750000D01*
X31119047Y-797619D01*
X31166666Y-892857D01*
X31166666Y-940476D01*
X31119047Y-1035714D01*
X31071428Y-1083333D01*
X30976190Y-1130952D01*
X30785714Y-1130952D01*
X30690476Y-1178571D01*
X30642857Y-1226190D01*
X30595238Y-1321428D01*
X30595238Y-1511904D01*
X30642857Y-1607142D01*
X30690476Y-1654761D01*
X30785714Y-1702380D01*
X30976190Y-1702380D01*
X31071428Y-1654761D01*
X31119047Y-1607142D01*
X31166666Y-1511904D01*
X31166666Y-1321428D01*
X31119047Y-1226190D01*
X31071428Y-1178571D01*
X30976190Y-1130952D01*
X5142857Y-21178571D02*
X5142857Y-19678571D01*
X5642857Y-20750000D01*
X6142857Y-19678571D01*
X6142857Y-21178571D01*
X6857142Y-21178571D02*
X6857142Y-19678571D01*
X7357142Y-20750000D01*
X7857142Y-19678571D01*
X7857142Y-21178571D01*
X8500000Y-20750000D02*
X9214285Y-20750000D01*
X8357142Y-21178571D02*
X8857142Y-19678571D01*
X9357142Y-21178571D01*
X9714285Y-19678571D02*
X10714285Y-19678571D01*
X10071428Y-21178571D01*
X11142857Y-19678571D02*
X12071428Y-19678571D01*
X11571428Y-20250000D01*
X11785714Y-20250000D01*
X11928571Y-20321428D01*
X12000000Y-20392857D01*
X12071428Y-20535714D01*
X12071428Y-20892857D01*
X12000000Y-21035714D01*
X11928571Y-21107142D01*
X11785714Y-21178571D01*
X11357142Y-21178571D01*
X11214285Y-21107142D01*
X11142857Y-21035714D01*
X13357142Y-19678571D02*
X13071428Y-19678571D01*
X12928571Y-19750000D01*
X12857142Y-19821428D01*
X12714285Y-20035714D01*
X12642857Y-20321428D01*
X12642857Y-20892857D01*
X12714285Y-21035714D01*
X12785714Y-21107142D01*
X12928571Y-21178571D01*
X13214285Y-21178571D01*
X13357142Y-21107142D01*
X13428571Y-21035714D01*
X13500000Y-20892857D01*
X13500000Y-20535714D01*
X13428571Y-20392857D01*
X13357142Y-20321428D01*
X13214285Y-20250000D01*
X12928571Y-20250000D01*
X12785714Y-20321428D01*
X12714285Y-20392857D01*
X12642857Y-20535714D01*
X14928571Y-21178571D02*
X14071428Y-21178571D01*
X14500000Y-21178571D02*
X14500000Y-19678571D01*
X14357142Y-19892857D01*
X14214285Y-20035714D01*
X14071428Y-20107142D01*
D13*
G04 #@! TO.C,C1*
X27710000Y-5261252D02*
X27710000Y-4738748D01*
X26290000Y-5261252D02*
X26290000Y-4738748D01*
G04 #@! TO.C,C2*
X27710000Y-9738748D02*
X27710000Y-10261252D01*
X26290000Y-9738748D02*
X26290000Y-10261252D01*
G04 #@! TO.C,C3*
X23710000Y-15238748D02*
X23710000Y-15761252D01*
X22290000Y-15238748D02*
X22290000Y-15761252D01*
G04 #@! TO.C,C4*
X13710000Y-12238748D02*
X13710000Y-12761252D01*
X12290000Y-12238748D02*
X12290000Y-12761252D01*
G04 #@! TO.C,C5*
X7238748Y-4790000D02*
X7761252Y-4790000D01*
X7238748Y-6210000D02*
X7761252Y-6210000D01*
G04 #@! TO.C,C6*
X7238748Y-9210000D02*
X7761252Y-9210000D01*
X7238748Y-7790000D02*
X7761252Y-7790000D01*
G04 #@! TO.C,C7*
X7238748Y-12210000D02*
X7761252Y-12210000D01*
X7238748Y-10790000D02*
X7761252Y-10790000D01*
G04 #@! TO.C,D1*
X11000000Y-16540000D02*
X8140000Y-16540000D01*
X8140000Y-16540000D02*
X8140000Y-18460000D01*
X8140000Y-18460000D02*
X11000000Y-18460000D01*
G04 #@! TO.C,J1*
X31170000Y-4670000D02*
X32500000Y-4670000D01*
X31170000Y-6000000D02*
X31170000Y-4670000D01*
X31170000Y-7270000D02*
X33830000Y-7270000D01*
X33830000Y-7270000D02*
X33830000Y-17490000D01*
X31170000Y-7270000D02*
X31170000Y-17490000D01*
X31170000Y-17490000D02*
X33830000Y-17490000D01*
G04 #@! TO.C,J2*
X670000Y-17490000D02*
X3330000Y-17490000D01*
X670000Y-7270000D02*
X670000Y-17490000D01*
X3330000Y-7270000D02*
X3330000Y-17490000D01*
X670000Y-7270000D02*
X3330000Y-7270000D01*
X670000Y-6000000D02*
X670000Y-4670000D01*
X670000Y-4670000D02*
X2000000Y-4670000D01*
G04 #@! TO.C,R1*
X18790000Y-15761252D02*
X18790000Y-15238748D01*
X20210000Y-15761252D02*
X20210000Y-15238748D01*
G04 #@! TO.C,U1*
X22700000Y-5720000D02*
X23900000Y-5720000D01*
X23900000Y-5720000D02*
X23900000Y-8420000D01*
X19100000Y-9720000D02*
X19100000Y-5720000D01*
X19100000Y-5720000D02*
X20300000Y-5720000D01*
G04 #@! TO.C,U2*
X15060000Y-3390000D02*
X16110000Y-3390000D01*
X16110000Y-3390000D02*
X16110000Y-3440000D01*
X15060000Y-8610000D02*
X16110000Y-8610000D01*
X16110000Y-8610000D02*
X16110000Y-8560000D01*
X13940000Y-8610000D02*
X12890000Y-8610000D01*
X12890000Y-8610000D02*
X12890000Y-8560000D01*
G04 #@! TD*
G04 #@! TO.C,C1*
D10*
X24833333Y-6357142D02*
X24785714Y-6404761D01*
X24642857Y-6452380D01*
X24547619Y-6452380D01*
X24404761Y-6404761D01*
X24309523Y-6309523D01*
X24261904Y-6214285D01*
X24214285Y-6023809D01*
X24214285Y-5880952D01*
X24261904Y-5690476D01*
X24309523Y-5595238D01*
X24404761Y-5500000D01*
X24547619Y-5452380D01*
X24642857Y-5452380D01*
X24785714Y-5500000D01*
X24833333Y-5547619D01*
X25785714Y-6452380D02*
X25214285Y-6452380D01*
X25500000Y-6452380D02*
X25500000Y-5452380D01*
X25404761Y-5595238D01*
X25309523Y-5690476D01*
X25214285Y-5738095D01*
G04 #@! TO.C,C2*
X24833333Y-9357142D02*
X24785714Y-9404761D01*
X24642857Y-9452380D01*
X24547619Y-9452380D01*
X24404761Y-9404761D01*
X24309523Y-9309523D01*
X24261904Y-9214285D01*
X24214285Y-9023809D01*
X24214285Y-8880952D01*
X24261904Y-8690476D01*
X24309523Y-8595238D01*
X24404761Y-8500000D01*
X24547619Y-8452380D01*
X24642857Y-8452380D01*
X24785714Y-8500000D01*
X24833333Y-8547619D01*
X25214285Y-8547619D02*
X25261904Y-8500000D01*
X25357142Y-8452380D01*
X25595238Y-8452380D01*
X25690476Y-8500000D01*
X25738095Y-8547619D01*
X25785714Y-8642857D01*
X25785714Y-8738095D01*
X25738095Y-8880952D01*
X25166666Y-9452380D01*
X25785714Y-9452380D01*
G04 #@! TO.C,C3*
X22833333Y-13357142D02*
X22785714Y-13404761D01*
X22642857Y-13452380D01*
X22547619Y-13452380D01*
X22404761Y-13404761D01*
X22309523Y-13309523D01*
X22261904Y-13214285D01*
X22214285Y-13023809D01*
X22214285Y-12880952D01*
X22261904Y-12690476D01*
X22309523Y-12595238D01*
X22404761Y-12500000D01*
X22547619Y-12452380D01*
X22642857Y-12452380D01*
X22785714Y-12500000D01*
X22833333Y-12547619D01*
X23166666Y-12452380D02*
X23785714Y-12452380D01*
X23452380Y-12833333D01*
X23595238Y-12833333D01*
X23690476Y-12880952D01*
X23738095Y-12928571D01*
X23785714Y-13023809D01*
X23785714Y-13261904D01*
X23738095Y-13357142D01*
X23690476Y-13404761D01*
X23595238Y-13452380D01*
X23309523Y-13452380D01*
X23214285Y-13404761D01*
X23166666Y-13357142D01*
G04 #@! TO.C,C4*
X12833333Y-10357142D02*
X12785714Y-10404761D01*
X12642857Y-10452380D01*
X12547619Y-10452380D01*
X12404761Y-10404761D01*
X12309523Y-10309523D01*
X12261904Y-10214285D01*
X12214285Y-10023809D01*
X12214285Y-9880952D01*
X12261904Y-9690476D01*
X12309523Y-9595238D01*
X12404761Y-9500000D01*
X12547619Y-9452380D01*
X12642857Y-9452380D01*
X12785714Y-9500000D01*
X12833333Y-9547619D01*
X13690476Y-9785714D02*
X13690476Y-10452380D01*
X13452380Y-9404761D02*
X13214285Y-10119047D01*
X13833333Y-10119047D01*
G04 #@! TO.C,C5*
X6333333Y-1607142D02*
X6285714Y-1654761D01*
X6142857Y-1702380D01*
X6047619Y-1702380D01*
X5904761Y-1654761D01*
X5809523Y-1559523D01*
X5761904Y-1464285D01*
X5714285Y-1273809D01*
X5714285Y-1130952D01*
X5761904Y-940476D01*
X5809523Y-845238D01*
X5904761Y-750000D01*
X6047619Y-702380D01*
X6142857Y-702380D01*
X6285714Y-750000D01*
X6333333Y-797619D01*
X7238095Y-702380D02*
X6761904Y-702380D01*
X6714285Y-1178571D01*
X6761904Y-1130952D01*
X6857142Y-1083333D01*
X7095238Y-1083333D01*
X7190476Y-1130952D01*
X7238095Y-1178571D01*
X7285714Y-1273809D01*
X7285714Y-1511904D01*
X7238095Y-1607142D01*
X7190476Y-1654761D01*
X7095238Y-1702380D01*
X6857142Y-1702380D01*
X6761904Y-1654761D01*
X6714285Y-1607142D01*
G04 #@! TO.C,C6*
X6333333Y-2857142D02*
X6285714Y-2904761D01*
X6142857Y-2952380D01*
X6047619Y-2952380D01*
X5904761Y-2904761D01*
X5809523Y-2809523D01*
X5761904Y-2714285D01*
X5714285Y-2523809D01*
X5714285Y-2380952D01*
X5761904Y-2190476D01*
X5809523Y-2095238D01*
X5904761Y-2000000D01*
X6047619Y-1952380D01*
X6142857Y-1952380D01*
X6285714Y-2000000D01*
X6333333Y-2047619D01*
X7190476Y-1952380D02*
X7000000Y-1952380D01*
X6904761Y-2000000D01*
X6857142Y-2047619D01*
X6761904Y-2190476D01*
X6714285Y-2380952D01*
X6714285Y-2761904D01*
X6761904Y-2857142D01*
X6809523Y-2904761D01*
X6904761Y-2952380D01*
X7095238Y-2952380D01*
X7190476Y-2904761D01*
X7238095Y-2857142D01*
X7285714Y-2761904D01*
X7285714Y-2523809D01*
X7238095Y-2428571D01*
X7190476Y-2380952D01*
X7095238Y-2333333D01*
X6904761Y-2333333D01*
X6809523Y-2380952D01*
X6761904Y-2428571D01*
X6714285Y-2523809D01*
G04 #@! TO.C,C7*
X6333333Y-4107142D02*
X6285714Y-4154761D01*
X6142857Y-4202380D01*
X6047619Y-4202380D01*
X5904761Y-4154761D01*
X5809523Y-4059523D01*
X5761904Y-3964285D01*
X5714285Y-3773809D01*
X5714285Y-3630952D01*
X5761904Y-3440476D01*
X5809523Y-3345238D01*
X5904761Y-3250000D01*
X6047619Y-3202380D01*
X6142857Y-3202380D01*
X6285714Y-3250000D01*
X6333333Y-3297619D01*
X6666666Y-3202380D02*
X7333333Y-3202380D01*
X6904761Y-4202380D01*
G04 #@! TO.C,D1*
X9261904Y-16302380D02*
X9261904Y-15302380D01*
X9500000Y-15302380D01*
X9642857Y-15350000D01*
X9738095Y-15445238D01*
X9785714Y-15540476D01*
X9833333Y-15730952D01*
X9833333Y-15873809D01*
X9785714Y-16064285D01*
X9738095Y-16159523D01*
X9642857Y-16254761D01*
X9500000Y-16302380D01*
X9261904Y-16302380D01*
X10785714Y-16302380D02*
X10214285Y-16302380D01*
X10500000Y-16302380D02*
X10500000Y-15302380D01*
X10404761Y-15445238D01*
X10309523Y-15540476D01*
X10214285Y-15588095D01*
G04 #@! TO.C,J1*
X32166666Y-2452380D02*
X32166666Y-3166666D01*
X32119047Y-3309523D01*
X32023809Y-3404761D01*
X31880952Y-3452380D01*
X31785714Y-3452380D01*
X33166666Y-3452380D02*
X32595238Y-3452380D01*
X32880952Y-3452380D02*
X32880952Y-2452380D01*
X32785714Y-2595238D01*
X32690476Y-2690476D01*
X32595238Y-2738095D01*
G04 #@! TO.C,J2*
X1666666Y-2452380D02*
X1666666Y-3166666D01*
X1619047Y-3309523D01*
X1523809Y-3404761D01*
X1380952Y-3452380D01*
X1285714Y-3452380D01*
X2095238Y-2547619D02*
X2142857Y-2500000D01*
X2238095Y-2452380D01*
X2476190Y-2452380D01*
X2571428Y-2500000D01*
X2619047Y-2547619D01*
X2666666Y-2642857D01*
X2666666Y-2738095D01*
X2619047Y-2880952D01*
X2047619Y-3452380D01*
X2666666Y-3452380D01*
G04 #@! TO.C,R1*
X19333333Y-13452380D02*
X19000000Y-12976190D01*
X18761904Y-13452380D02*
X18761904Y-12452380D01*
X19142857Y-12452380D01*
X19238095Y-12500000D01*
X19285714Y-12547619D01*
X19333333Y-12642857D01*
X19333333Y-12785714D01*
X19285714Y-12880952D01*
X19238095Y-12928571D01*
X19142857Y-12976190D01*
X18761904Y-12976190D01*
X20285714Y-13452380D02*
X19714285Y-13452380D01*
X20000000Y-13452380D02*
X20000000Y-12452380D01*
X19904761Y-12595238D01*
X19809523Y-12690476D01*
X19714285Y-12738095D01*
G04 #@! TO.C,U1*
X20738095Y-1952380D02*
X20738095Y-2761904D01*
X20785714Y-2857142D01*
X20833333Y-2904761D01*
X20928571Y-2952380D01*
X21119047Y-2952380D01*
X21214285Y-2904761D01*
X21261904Y-2857142D01*
X21309523Y-2761904D01*
X21309523Y-1952380D01*
X22309523Y-2952380D02*
X21738095Y-2952380D01*
X22023809Y-2952380D02*
X22023809Y-1952380D01*
X21928571Y-2095238D01*
X21833333Y-2190476D01*
X21738095Y-2238095D01*
G04 #@! TO.C,U2*
X13738095Y-2002380D02*
X13738095Y-2811904D01*
X13785714Y-2907142D01*
X13833333Y-2954761D01*
X13928571Y-3002380D01*
X14119047Y-3002380D01*
X14214285Y-2954761D01*
X14261904Y-2907142D01*
X14309523Y-2811904D01*
X14309523Y-2002380D01*
X14738095Y-2097619D02*
X14785714Y-2050000D01*
X14880952Y-2002380D01*
X15119047Y-2002380D01*
X15214285Y-2050000D01*
X15261904Y-2097619D01*
X15309523Y-2192857D01*
X15309523Y-2288095D01*
X15261904Y-2430952D01*
X14690476Y-3002380D01*
X15309523Y-3002380D01*
G04 #@! TD*
M02*
