G04 #@! TF.GenerationSoftware,KiCad,Pcbnew,(5.0.1)-3*
G04 #@! TF.CreationDate,2018-11-23T05:02:51-03:00*
G04 #@! TF.ProjectId,MMA7361,4D4D41373336312E6B696361645F7063,1.1*
G04 #@! TF.SameCoordinates,PX6f94740PY4c4b400*
G04 #@! TF.FileFunction,Paste,Top*
G04 #@! TF.FilePolarity,Positive*
%FSLAX46Y46*%
G04 Gerber Fmt 4.6, Leading zero omitted, Abs format (unit mm)*
G04 Created by KiCad (PCBNEW (5.0.1)-3) date 23/11/2018 05:02:51*
%MOMM*%
%LPD*%
G01*
G04 APERTURE LIST*
%ADD10C,0.100000*%
%ADD11C,1.150000*%
%ADD12R,1.000000X2.500000*%
%ADD13R,2.000000X4.000000*%
%ADD14C,0.750000*%
%ADD15R,0.950000X0.600000*%
%ADD16R,0.600000X0.950000*%
G04 APERTURE END LIST*
D10*
X35500000Y0D02*
X0Y0D01*
X35500000Y-22000000D02*
X35500000Y0D01*
X0Y-22000000D02*
X35500000Y-22000000D01*
X0Y0D02*
X0Y-22000000D01*
G04 #@! TO.C,C1*
G36*
X27474505Y-3401204D02*
X27498773Y-3404804D01*
X27522572Y-3410765D01*
X27545671Y-3419030D01*
X27567850Y-3429520D01*
X27588893Y-3442132D01*
X27608599Y-3456747D01*
X27626777Y-3473223D01*
X27643253Y-3491401D01*
X27657868Y-3511107D01*
X27670480Y-3532150D01*
X27680970Y-3554329D01*
X27689235Y-3577428D01*
X27695196Y-3601227D01*
X27698796Y-3625495D01*
X27700000Y-3649999D01*
X27700000Y-4300001D01*
X27698796Y-4324505D01*
X27695196Y-4348773D01*
X27689235Y-4372572D01*
X27680970Y-4395671D01*
X27670480Y-4417850D01*
X27657868Y-4438893D01*
X27643253Y-4458599D01*
X27626777Y-4476777D01*
X27608599Y-4493253D01*
X27588893Y-4507868D01*
X27567850Y-4520480D01*
X27545671Y-4530970D01*
X27522572Y-4539235D01*
X27498773Y-4545196D01*
X27474505Y-4548796D01*
X27450001Y-4550000D01*
X26549999Y-4550000D01*
X26525495Y-4548796D01*
X26501227Y-4545196D01*
X26477428Y-4539235D01*
X26454329Y-4530970D01*
X26432150Y-4520480D01*
X26411107Y-4507868D01*
X26391401Y-4493253D01*
X26373223Y-4476777D01*
X26356747Y-4458599D01*
X26342132Y-4438893D01*
X26329520Y-4417850D01*
X26319030Y-4395671D01*
X26310765Y-4372572D01*
X26304804Y-4348773D01*
X26301204Y-4324505D01*
X26300000Y-4300001D01*
X26300000Y-3649999D01*
X26301204Y-3625495D01*
X26304804Y-3601227D01*
X26310765Y-3577428D01*
X26319030Y-3554329D01*
X26329520Y-3532150D01*
X26342132Y-3511107D01*
X26356747Y-3491401D01*
X26373223Y-3473223D01*
X26391401Y-3456747D01*
X26411107Y-3442132D01*
X26432150Y-3429520D01*
X26454329Y-3419030D01*
X26477428Y-3410765D01*
X26501227Y-3404804D01*
X26525495Y-3401204D01*
X26549999Y-3400000D01*
X27450001Y-3400000D01*
X27474505Y-3401204D01*
X27474505Y-3401204D01*
G37*
D11*
X27000000Y-3975000D03*
D10*
G36*
X27474505Y-5451204D02*
X27498773Y-5454804D01*
X27522572Y-5460765D01*
X27545671Y-5469030D01*
X27567850Y-5479520D01*
X27588893Y-5492132D01*
X27608599Y-5506747D01*
X27626777Y-5523223D01*
X27643253Y-5541401D01*
X27657868Y-5561107D01*
X27670480Y-5582150D01*
X27680970Y-5604329D01*
X27689235Y-5627428D01*
X27695196Y-5651227D01*
X27698796Y-5675495D01*
X27700000Y-5699999D01*
X27700000Y-6350001D01*
X27698796Y-6374505D01*
X27695196Y-6398773D01*
X27689235Y-6422572D01*
X27680970Y-6445671D01*
X27670480Y-6467850D01*
X27657868Y-6488893D01*
X27643253Y-6508599D01*
X27626777Y-6526777D01*
X27608599Y-6543253D01*
X27588893Y-6557868D01*
X27567850Y-6570480D01*
X27545671Y-6580970D01*
X27522572Y-6589235D01*
X27498773Y-6595196D01*
X27474505Y-6598796D01*
X27450001Y-6600000D01*
X26549999Y-6600000D01*
X26525495Y-6598796D01*
X26501227Y-6595196D01*
X26477428Y-6589235D01*
X26454329Y-6580970D01*
X26432150Y-6570480D01*
X26411107Y-6557868D01*
X26391401Y-6543253D01*
X26373223Y-6526777D01*
X26356747Y-6508599D01*
X26342132Y-6488893D01*
X26329520Y-6467850D01*
X26319030Y-6445671D01*
X26310765Y-6422572D01*
X26304804Y-6398773D01*
X26301204Y-6374505D01*
X26300000Y-6350001D01*
X26300000Y-5699999D01*
X26301204Y-5675495D01*
X26304804Y-5651227D01*
X26310765Y-5627428D01*
X26319030Y-5604329D01*
X26329520Y-5582150D01*
X26342132Y-5561107D01*
X26356747Y-5541401D01*
X26373223Y-5523223D01*
X26391401Y-5506747D01*
X26411107Y-5492132D01*
X26432150Y-5479520D01*
X26454329Y-5469030D01*
X26477428Y-5460765D01*
X26501227Y-5454804D01*
X26525495Y-5451204D01*
X26549999Y-5450000D01*
X27450001Y-5450000D01*
X27474505Y-5451204D01*
X27474505Y-5451204D01*
G37*
D11*
X27000000Y-6025000D03*
G04 #@! TD*
D10*
G04 #@! TO.C,C2*
G36*
X27474505Y-8401204D02*
X27498773Y-8404804D01*
X27522572Y-8410765D01*
X27545671Y-8419030D01*
X27567850Y-8429520D01*
X27588893Y-8442132D01*
X27608599Y-8456747D01*
X27626777Y-8473223D01*
X27643253Y-8491401D01*
X27657868Y-8511107D01*
X27670480Y-8532150D01*
X27680970Y-8554329D01*
X27689235Y-8577428D01*
X27695196Y-8601227D01*
X27698796Y-8625495D01*
X27700000Y-8649999D01*
X27700000Y-9300001D01*
X27698796Y-9324505D01*
X27695196Y-9348773D01*
X27689235Y-9372572D01*
X27680970Y-9395671D01*
X27670480Y-9417850D01*
X27657868Y-9438893D01*
X27643253Y-9458599D01*
X27626777Y-9476777D01*
X27608599Y-9493253D01*
X27588893Y-9507868D01*
X27567850Y-9520480D01*
X27545671Y-9530970D01*
X27522572Y-9539235D01*
X27498773Y-9545196D01*
X27474505Y-9548796D01*
X27450001Y-9550000D01*
X26549999Y-9550000D01*
X26525495Y-9548796D01*
X26501227Y-9545196D01*
X26477428Y-9539235D01*
X26454329Y-9530970D01*
X26432150Y-9520480D01*
X26411107Y-9507868D01*
X26391401Y-9493253D01*
X26373223Y-9476777D01*
X26356747Y-9458599D01*
X26342132Y-9438893D01*
X26329520Y-9417850D01*
X26319030Y-9395671D01*
X26310765Y-9372572D01*
X26304804Y-9348773D01*
X26301204Y-9324505D01*
X26300000Y-9300001D01*
X26300000Y-8649999D01*
X26301204Y-8625495D01*
X26304804Y-8601227D01*
X26310765Y-8577428D01*
X26319030Y-8554329D01*
X26329520Y-8532150D01*
X26342132Y-8511107D01*
X26356747Y-8491401D01*
X26373223Y-8473223D01*
X26391401Y-8456747D01*
X26411107Y-8442132D01*
X26432150Y-8429520D01*
X26454329Y-8419030D01*
X26477428Y-8410765D01*
X26501227Y-8404804D01*
X26525495Y-8401204D01*
X26549999Y-8400000D01*
X27450001Y-8400000D01*
X27474505Y-8401204D01*
X27474505Y-8401204D01*
G37*
D11*
X27000000Y-8975000D03*
D10*
G36*
X27474505Y-10451204D02*
X27498773Y-10454804D01*
X27522572Y-10460765D01*
X27545671Y-10469030D01*
X27567850Y-10479520D01*
X27588893Y-10492132D01*
X27608599Y-10506747D01*
X27626777Y-10523223D01*
X27643253Y-10541401D01*
X27657868Y-10561107D01*
X27670480Y-10582150D01*
X27680970Y-10604329D01*
X27689235Y-10627428D01*
X27695196Y-10651227D01*
X27698796Y-10675495D01*
X27700000Y-10699999D01*
X27700000Y-11350001D01*
X27698796Y-11374505D01*
X27695196Y-11398773D01*
X27689235Y-11422572D01*
X27680970Y-11445671D01*
X27670480Y-11467850D01*
X27657868Y-11488893D01*
X27643253Y-11508599D01*
X27626777Y-11526777D01*
X27608599Y-11543253D01*
X27588893Y-11557868D01*
X27567850Y-11570480D01*
X27545671Y-11580970D01*
X27522572Y-11589235D01*
X27498773Y-11595196D01*
X27474505Y-11598796D01*
X27450001Y-11600000D01*
X26549999Y-11600000D01*
X26525495Y-11598796D01*
X26501227Y-11595196D01*
X26477428Y-11589235D01*
X26454329Y-11580970D01*
X26432150Y-11570480D01*
X26411107Y-11557868D01*
X26391401Y-11543253D01*
X26373223Y-11526777D01*
X26356747Y-11508599D01*
X26342132Y-11488893D01*
X26329520Y-11467850D01*
X26319030Y-11445671D01*
X26310765Y-11422572D01*
X26304804Y-11398773D01*
X26301204Y-11374505D01*
X26300000Y-11350001D01*
X26300000Y-10699999D01*
X26301204Y-10675495D01*
X26304804Y-10651227D01*
X26310765Y-10627428D01*
X26319030Y-10604329D01*
X26329520Y-10582150D01*
X26342132Y-10561107D01*
X26356747Y-10541401D01*
X26373223Y-10523223D01*
X26391401Y-10506747D01*
X26411107Y-10492132D01*
X26432150Y-10479520D01*
X26454329Y-10469030D01*
X26477428Y-10460765D01*
X26501227Y-10454804D01*
X26525495Y-10451204D01*
X26549999Y-10450000D01*
X27450001Y-10450000D01*
X27474505Y-10451204D01*
X27474505Y-10451204D01*
G37*
D11*
X27000000Y-11025000D03*
G04 #@! TD*
D10*
G04 #@! TO.C,C3*
G36*
X23474505Y-13901204D02*
X23498773Y-13904804D01*
X23522572Y-13910765D01*
X23545671Y-13919030D01*
X23567850Y-13929520D01*
X23588893Y-13942132D01*
X23608599Y-13956747D01*
X23626777Y-13973223D01*
X23643253Y-13991401D01*
X23657868Y-14011107D01*
X23670480Y-14032150D01*
X23680970Y-14054329D01*
X23689235Y-14077428D01*
X23695196Y-14101227D01*
X23698796Y-14125495D01*
X23700000Y-14149999D01*
X23700000Y-14800001D01*
X23698796Y-14824505D01*
X23695196Y-14848773D01*
X23689235Y-14872572D01*
X23680970Y-14895671D01*
X23670480Y-14917850D01*
X23657868Y-14938893D01*
X23643253Y-14958599D01*
X23626777Y-14976777D01*
X23608599Y-14993253D01*
X23588893Y-15007868D01*
X23567850Y-15020480D01*
X23545671Y-15030970D01*
X23522572Y-15039235D01*
X23498773Y-15045196D01*
X23474505Y-15048796D01*
X23450001Y-15050000D01*
X22549999Y-15050000D01*
X22525495Y-15048796D01*
X22501227Y-15045196D01*
X22477428Y-15039235D01*
X22454329Y-15030970D01*
X22432150Y-15020480D01*
X22411107Y-15007868D01*
X22391401Y-14993253D01*
X22373223Y-14976777D01*
X22356747Y-14958599D01*
X22342132Y-14938893D01*
X22329520Y-14917850D01*
X22319030Y-14895671D01*
X22310765Y-14872572D01*
X22304804Y-14848773D01*
X22301204Y-14824505D01*
X22300000Y-14800001D01*
X22300000Y-14149999D01*
X22301204Y-14125495D01*
X22304804Y-14101227D01*
X22310765Y-14077428D01*
X22319030Y-14054329D01*
X22329520Y-14032150D01*
X22342132Y-14011107D01*
X22356747Y-13991401D01*
X22373223Y-13973223D01*
X22391401Y-13956747D01*
X22411107Y-13942132D01*
X22432150Y-13929520D01*
X22454329Y-13919030D01*
X22477428Y-13910765D01*
X22501227Y-13904804D01*
X22525495Y-13901204D01*
X22549999Y-13900000D01*
X23450001Y-13900000D01*
X23474505Y-13901204D01*
X23474505Y-13901204D01*
G37*
D11*
X23000000Y-14475000D03*
D10*
G36*
X23474505Y-15951204D02*
X23498773Y-15954804D01*
X23522572Y-15960765D01*
X23545671Y-15969030D01*
X23567850Y-15979520D01*
X23588893Y-15992132D01*
X23608599Y-16006747D01*
X23626777Y-16023223D01*
X23643253Y-16041401D01*
X23657868Y-16061107D01*
X23670480Y-16082150D01*
X23680970Y-16104329D01*
X23689235Y-16127428D01*
X23695196Y-16151227D01*
X23698796Y-16175495D01*
X23700000Y-16199999D01*
X23700000Y-16850001D01*
X23698796Y-16874505D01*
X23695196Y-16898773D01*
X23689235Y-16922572D01*
X23680970Y-16945671D01*
X23670480Y-16967850D01*
X23657868Y-16988893D01*
X23643253Y-17008599D01*
X23626777Y-17026777D01*
X23608599Y-17043253D01*
X23588893Y-17057868D01*
X23567850Y-17070480D01*
X23545671Y-17080970D01*
X23522572Y-17089235D01*
X23498773Y-17095196D01*
X23474505Y-17098796D01*
X23450001Y-17100000D01*
X22549999Y-17100000D01*
X22525495Y-17098796D01*
X22501227Y-17095196D01*
X22477428Y-17089235D01*
X22454329Y-17080970D01*
X22432150Y-17070480D01*
X22411107Y-17057868D01*
X22391401Y-17043253D01*
X22373223Y-17026777D01*
X22356747Y-17008599D01*
X22342132Y-16988893D01*
X22329520Y-16967850D01*
X22319030Y-16945671D01*
X22310765Y-16922572D01*
X22304804Y-16898773D01*
X22301204Y-16874505D01*
X22300000Y-16850001D01*
X22300000Y-16199999D01*
X22301204Y-16175495D01*
X22304804Y-16151227D01*
X22310765Y-16127428D01*
X22319030Y-16104329D01*
X22329520Y-16082150D01*
X22342132Y-16061107D01*
X22356747Y-16041401D01*
X22373223Y-16023223D01*
X22391401Y-16006747D01*
X22411107Y-15992132D01*
X22432150Y-15979520D01*
X22454329Y-15969030D01*
X22477428Y-15960765D01*
X22501227Y-15954804D01*
X22525495Y-15951204D01*
X22549999Y-15950000D01*
X23450001Y-15950000D01*
X23474505Y-15951204D01*
X23474505Y-15951204D01*
G37*
D11*
X23000000Y-16525000D03*
G04 #@! TD*
D10*
G04 #@! TO.C,C4*
G36*
X13474505Y-10901204D02*
X13498773Y-10904804D01*
X13522572Y-10910765D01*
X13545671Y-10919030D01*
X13567850Y-10929520D01*
X13588893Y-10942132D01*
X13608599Y-10956747D01*
X13626777Y-10973223D01*
X13643253Y-10991401D01*
X13657868Y-11011107D01*
X13670480Y-11032150D01*
X13680970Y-11054329D01*
X13689235Y-11077428D01*
X13695196Y-11101227D01*
X13698796Y-11125495D01*
X13700000Y-11149999D01*
X13700000Y-11800001D01*
X13698796Y-11824505D01*
X13695196Y-11848773D01*
X13689235Y-11872572D01*
X13680970Y-11895671D01*
X13670480Y-11917850D01*
X13657868Y-11938893D01*
X13643253Y-11958599D01*
X13626777Y-11976777D01*
X13608599Y-11993253D01*
X13588893Y-12007868D01*
X13567850Y-12020480D01*
X13545671Y-12030970D01*
X13522572Y-12039235D01*
X13498773Y-12045196D01*
X13474505Y-12048796D01*
X13450001Y-12050000D01*
X12549999Y-12050000D01*
X12525495Y-12048796D01*
X12501227Y-12045196D01*
X12477428Y-12039235D01*
X12454329Y-12030970D01*
X12432150Y-12020480D01*
X12411107Y-12007868D01*
X12391401Y-11993253D01*
X12373223Y-11976777D01*
X12356747Y-11958599D01*
X12342132Y-11938893D01*
X12329520Y-11917850D01*
X12319030Y-11895671D01*
X12310765Y-11872572D01*
X12304804Y-11848773D01*
X12301204Y-11824505D01*
X12300000Y-11800001D01*
X12300000Y-11149999D01*
X12301204Y-11125495D01*
X12304804Y-11101227D01*
X12310765Y-11077428D01*
X12319030Y-11054329D01*
X12329520Y-11032150D01*
X12342132Y-11011107D01*
X12356747Y-10991401D01*
X12373223Y-10973223D01*
X12391401Y-10956747D01*
X12411107Y-10942132D01*
X12432150Y-10929520D01*
X12454329Y-10919030D01*
X12477428Y-10910765D01*
X12501227Y-10904804D01*
X12525495Y-10901204D01*
X12549999Y-10900000D01*
X13450001Y-10900000D01*
X13474505Y-10901204D01*
X13474505Y-10901204D01*
G37*
D11*
X13000000Y-11475000D03*
D10*
G36*
X13474505Y-12951204D02*
X13498773Y-12954804D01*
X13522572Y-12960765D01*
X13545671Y-12969030D01*
X13567850Y-12979520D01*
X13588893Y-12992132D01*
X13608599Y-13006747D01*
X13626777Y-13023223D01*
X13643253Y-13041401D01*
X13657868Y-13061107D01*
X13670480Y-13082150D01*
X13680970Y-13104329D01*
X13689235Y-13127428D01*
X13695196Y-13151227D01*
X13698796Y-13175495D01*
X13700000Y-13199999D01*
X13700000Y-13850001D01*
X13698796Y-13874505D01*
X13695196Y-13898773D01*
X13689235Y-13922572D01*
X13680970Y-13945671D01*
X13670480Y-13967850D01*
X13657868Y-13988893D01*
X13643253Y-14008599D01*
X13626777Y-14026777D01*
X13608599Y-14043253D01*
X13588893Y-14057868D01*
X13567850Y-14070480D01*
X13545671Y-14080970D01*
X13522572Y-14089235D01*
X13498773Y-14095196D01*
X13474505Y-14098796D01*
X13450001Y-14100000D01*
X12549999Y-14100000D01*
X12525495Y-14098796D01*
X12501227Y-14095196D01*
X12477428Y-14089235D01*
X12454329Y-14080970D01*
X12432150Y-14070480D01*
X12411107Y-14057868D01*
X12391401Y-14043253D01*
X12373223Y-14026777D01*
X12356747Y-14008599D01*
X12342132Y-13988893D01*
X12329520Y-13967850D01*
X12319030Y-13945671D01*
X12310765Y-13922572D01*
X12304804Y-13898773D01*
X12301204Y-13874505D01*
X12300000Y-13850001D01*
X12300000Y-13199999D01*
X12301204Y-13175495D01*
X12304804Y-13151227D01*
X12310765Y-13127428D01*
X12319030Y-13104329D01*
X12329520Y-13082150D01*
X12342132Y-13061107D01*
X12356747Y-13041401D01*
X12373223Y-13023223D01*
X12391401Y-13006747D01*
X12411107Y-12992132D01*
X12432150Y-12979520D01*
X12454329Y-12969030D01*
X12477428Y-12960765D01*
X12501227Y-12954804D01*
X12525495Y-12951204D01*
X12549999Y-12950000D01*
X13450001Y-12950000D01*
X13474505Y-12951204D01*
X13474505Y-12951204D01*
G37*
D11*
X13000000Y-13525000D03*
G04 #@! TD*
D10*
G04 #@! TO.C,C5*
G36*
X6824505Y-4801204D02*
X6848773Y-4804804D01*
X6872572Y-4810765D01*
X6895671Y-4819030D01*
X6917850Y-4829520D01*
X6938893Y-4842132D01*
X6958599Y-4856747D01*
X6976777Y-4873223D01*
X6993253Y-4891401D01*
X7007868Y-4911107D01*
X7020480Y-4932150D01*
X7030970Y-4954329D01*
X7039235Y-4977428D01*
X7045196Y-5001227D01*
X7048796Y-5025495D01*
X7050000Y-5049999D01*
X7050000Y-5950001D01*
X7048796Y-5974505D01*
X7045196Y-5998773D01*
X7039235Y-6022572D01*
X7030970Y-6045671D01*
X7020480Y-6067850D01*
X7007868Y-6088893D01*
X6993253Y-6108599D01*
X6976777Y-6126777D01*
X6958599Y-6143253D01*
X6938893Y-6157868D01*
X6917850Y-6170480D01*
X6895671Y-6180970D01*
X6872572Y-6189235D01*
X6848773Y-6195196D01*
X6824505Y-6198796D01*
X6800001Y-6200000D01*
X6149999Y-6200000D01*
X6125495Y-6198796D01*
X6101227Y-6195196D01*
X6077428Y-6189235D01*
X6054329Y-6180970D01*
X6032150Y-6170480D01*
X6011107Y-6157868D01*
X5991401Y-6143253D01*
X5973223Y-6126777D01*
X5956747Y-6108599D01*
X5942132Y-6088893D01*
X5929520Y-6067850D01*
X5919030Y-6045671D01*
X5910765Y-6022572D01*
X5904804Y-5998773D01*
X5901204Y-5974505D01*
X5900000Y-5950001D01*
X5900000Y-5049999D01*
X5901204Y-5025495D01*
X5904804Y-5001227D01*
X5910765Y-4977428D01*
X5919030Y-4954329D01*
X5929520Y-4932150D01*
X5942132Y-4911107D01*
X5956747Y-4891401D01*
X5973223Y-4873223D01*
X5991401Y-4856747D01*
X6011107Y-4842132D01*
X6032150Y-4829520D01*
X6054329Y-4819030D01*
X6077428Y-4810765D01*
X6101227Y-4804804D01*
X6125495Y-4801204D01*
X6149999Y-4800000D01*
X6800001Y-4800000D01*
X6824505Y-4801204D01*
X6824505Y-4801204D01*
G37*
D11*
X6475000Y-5500000D03*
D10*
G36*
X8874505Y-4801204D02*
X8898773Y-4804804D01*
X8922572Y-4810765D01*
X8945671Y-4819030D01*
X8967850Y-4829520D01*
X8988893Y-4842132D01*
X9008599Y-4856747D01*
X9026777Y-4873223D01*
X9043253Y-4891401D01*
X9057868Y-4911107D01*
X9070480Y-4932150D01*
X9080970Y-4954329D01*
X9089235Y-4977428D01*
X9095196Y-5001227D01*
X9098796Y-5025495D01*
X9100000Y-5049999D01*
X9100000Y-5950001D01*
X9098796Y-5974505D01*
X9095196Y-5998773D01*
X9089235Y-6022572D01*
X9080970Y-6045671D01*
X9070480Y-6067850D01*
X9057868Y-6088893D01*
X9043253Y-6108599D01*
X9026777Y-6126777D01*
X9008599Y-6143253D01*
X8988893Y-6157868D01*
X8967850Y-6170480D01*
X8945671Y-6180970D01*
X8922572Y-6189235D01*
X8898773Y-6195196D01*
X8874505Y-6198796D01*
X8850001Y-6200000D01*
X8199999Y-6200000D01*
X8175495Y-6198796D01*
X8151227Y-6195196D01*
X8127428Y-6189235D01*
X8104329Y-6180970D01*
X8082150Y-6170480D01*
X8061107Y-6157868D01*
X8041401Y-6143253D01*
X8023223Y-6126777D01*
X8006747Y-6108599D01*
X7992132Y-6088893D01*
X7979520Y-6067850D01*
X7969030Y-6045671D01*
X7960765Y-6022572D01*
X7954804Y-5998773D01*
X7951204Y-5974505D01*
X7950000Y-5950001D01*
X7950000Y-5049999D01*
X7951204Y-5025495D01*
X7954804Y-5001227D01*
X7960765Y-4977428D01*
X7969030Y-4954329D01*
X7979520Y-4932150D01*
X7992132Y-4911107D01*
X8006747Y-4891401D01*
X8023223Y-4873223D01*
X8041401Y-4856747D01*
X8061107Y-4842132D01*
X8082150Y-4829520D01*
X8104329Y-4819030D01*
X8127428Y-4810765D01*
X8151227Y-4804804D01*
X8175495Y-4801204D01*
X8199999Y-4800000D01*
X8850001Y-4800000D01*
X8874505Y-4801204D01*
X8874505Y-4801204D01*
G37*
D11*
X8525000Y-5500000D03*
G04 #@! TD*
D10*
G04 #@! TO.C,C6*
G36*
X8874505Y-7801204D02*
X8898773Y-7804804D01*
X8922572Y-7810765D01*
X8945671Y-7819030D01*
X8967850Y-7829520D01*
X8988893Y-7842132D01*
X9008599Y-7856747D01*
X9026777Y-7873223D01*
X9043253Y-7891401D01*
X9057868Y-7911107D01*
X9070480Y-7932150D01*
X9080970Y-7954329D01*
X9089235Y-7977428D01*
X9095196Y-8001227D01*
X9098796Y-8025495D01*
X9100000Y-8049999D01*
X9100000Y-8950001D01*
X9098796Y-8974505D01*
X9095196Y-8998773D01*
X9089235Y-9022572D01*
X9080970Y-9045671D01*
X9070480Y-9067850D01*
X9057868Y-9088893D01*
X9043253Y-9108599D01*
X9026777Y-9126777D01*
X9008599Y-9143253D01*
X8988893Y-9157868D01*
X8967850Y-9170480D01*
X8945671Y-9180970D01*
X8922572Y-9189235D01*
X8898773Y-9195196D01*
X8874505Y-9198796D01*
X8850001Y-9200000D01*
X8199999Y-9200000D01*
X8175495Y-9198796D01*
X8151227Y-9195196D01*
X8127428Y-9189235D01*
X8104329Y-9180970D01*
X8082150Y-9170480D01*
X8061107Y-9157868D01*
X8041401Y-9143253D01*
X8023223Y-9126777D01*
X8006747Y-9108599D01*
X7992132Y-9088893D01*
X7979520Y-9067850D01*
X7969030Y-9045671D01*
X7960765Y-9022572D01*
X7954804Y-8998773D01*
X7951204Y-8974505D01*
X7950000Y-8950001D01*
X7950000Y-8049999D01*
X7951204Y-8025495D01*
X7954804Y-8001227D01*
X7960765Y-7977428D01*
X7969030Y-7954329D01*
X7979520Y-7932150D01*
X7992132Y-7911107D01*
X8006747Y-7891401D01*
X8023223Y-7873223D01*
X8041401Y-7856747D01*
X8061107Y-7842132D01*
X8082150Y-7829520D01*
X8104329Y-7819030D01*
X8127428Y-7810765D01*
X8151227Y-7804804D01*
X8175495Y-7801204D01*
X8199999Y-7800000D01*
X8850001Y-7800000D01*
X8874505Y-7801204D01*
X8874505Y-7801204D01*
G37*
D11*
X8525000Y-8500000D03*
D10*
G36*
X6824505Y-7801204D02*
X6848773Y-7804804D01*
X6872572Y-7810765D01*
X6895671Y-7819030D01*
X6917850Y-7829520D01*
X6938893Y-7842132D01*
X6958599Y-7856747D01*
X6976777Y-7873223D01*
X6993253Y-7891401D01*
X7007868Y-7911107D01*
X7020480Y-7932150D01*
X7030970Y-7954329D01*
X7039235Y-7977428D01*
X7045196Y-8001227D01*
X7048796Y-8025495D01*
X7050000Y-8049999D01*
X7050000Y-8950001D01*
X7048796Y-8974505D01*
X7045196Y-8998773D01*
X7039235Y-9022572D01*
X7030970Y-9045671D01*
X7020480Y-9067850D01*
X7007868Y-9088893D01*
X6993253Y-9108599D01*
X6976777Y-9126777D01*
X6958599Y-9143253D01*
X6938893Y-9157868D01*
X6917850Y-9170480D01*
X6895671Y-9180970D01*
X6872572Y-9189235D01*
X6848773Y-9195196D01*
X6824505Y-9198796D01*
X6800001Y-9200000D01*
X6149999Y-9200000D01*
X6125495Y-9198796D01*
X6101227Y-9195196D01*
X6077428Y-9189235D01*
X6054329Y-9180970D01*
X6032150Y-9170480D01*
X6011107Y-9157868D01*
X5991401Y-9143253D01*
X5973223Y-9126777D01*
X5956747Y-9108599D01*
X5942132Y-9088893D01*
X5929520Y-9067850D01*
X5919030Y-9045671D01*
X5910765Y-9022572D01*
X5904804Y-8998773D01*
X5901204Y-8974505D01*
X5900000Y-8950001D01*
X5900000Y-8049999D01*
X5901204Y-8025495D01*
X5904804Y-8001227D01*
X5910765Y-7977428D01*
X5919030Y-7954329D01*
X5929520Y-7932150D01*
X5942132Y-7911107D01*
X5956747Y-7891401D01*
X5973223Y-7873223D01*
X5991401Y-7856747D01*
X6011107Y-7842132D01*
X6032150Y-7829520D01*
X6054329Y-7819030D01*
X6077428Y-7810765D01*
X6101227Y-7804804D01*
X6125495Y-7801204D01*
X6149999Y-7800000D01*
X6800001Y-7800000D01*
X6824505Y-7801204D01*
X6824505Y-7801204D01*
G37*
D11*
X6475000Y-8500000D03*
G04 #@! TD*
D10*
G04 #@! TO.C,C7*
G36*
X8874505Y-10801204D02*
X8898773Y-10804804D01*
X8922572Y-10810765D01*
X8945671Y-10819030D01*
X8967850Y-10829520D01*
X8988893Y-10842132D01*
X9008599Y-10856747D01*
X9026777Y-10873223D01*
X9043253Y-10891401D01*
X9057868Y-10911107D01*
X9070480Y-10932150D01*
X9080970Y-10954329D01*
X9089235Y-10977428D01*
X9095196Y-11001227D01*
X9098796Y-11025495D01*
X9100000Y-11049999D01*
X9100000Y-11950001D01*
X9098796Y-11974505D01*
X9095196Y-11998773D01*
X9089235Y-12022572D01*
X9080970Y-12045671D01*
X9070480Y-12067850D01*
X9057868Y-12088893D01*
X9043253Y-12108599D01*
X9026777Y-12126777D01*
X9008599Y-12143253D01*
X8988893Y-12157868D01*
X8967850Y-12170480D01*
X8945671Y-12180970D01*
X8922572Y-12189235D01*
X8898773Y-12195196D01*
X8874505Y-12198796D01*
X8850001Y-12200000D01*
X8199999Y-12200000D01*
X8175495Y-12198796D01*
X8151227Y-12195196D01*
X8127428Y-12189235D01*
X8104329Y-12180970D01*
X8082150Y-12170480D01*
X8061107Y-12157868D01*
X8041401Y-12143253D01*
X8023223Y-12126777D01*
X8006747Y-12108599D01*
X7992132Y-12088893D01*
X7979520Y-12067850D01*
X7969030Y-12045671D01*
X7960765Y-12022572D01*
X7954804Y-11998773D01*
X7951204Y-11974505D01*
X7950000Y-11950001D01*
X7950000Y-11049999D01*
X7951204Y-11025495D01*
X7954804Y-11001227D01*
X7960765Y-10977428D01*
X7969030Y-10954329D01*
X7979520Y-10932150D01*
X7992132Y-10911107D01*
X8006747Y-10891401D01*
X8023223Y-10873223D01*
X8041401Y-10856747D01*
X8061107Y-10842132D01*
X8082150Y-10829520D01*
X8104329Y-10819030D01*
X8127428Y-10810765D01*
X8151227Y-10804804D01*
X8175495Y-10801204D01*
X8199999Y-10800000D01*
X8850001Y-10800000D01*
X8874505Y-10801204D01*
X8874505Y-10801204D01*
G37*
D11*
X8525000Y-11500000D03*
D10*
G36*
X6824505Y-10801204D02*
X6848773Y-10804804D01*
X6872572Y-10810765D01*
X6895671Y-10819030D01*
X6917850Y-10829520D01*
X6938893Y-10842132D01*
X6958599Y-10856747D01*
X6976777Y-10873223D01*
X6993253Y-10891401D01*
X7007868Y-10911107D01*
X7020480Y-10932150D01*
X7030970Y-10954329D01*
X7039235Y-10977428D01*
X7045196Y-11001227D01*
X7048796Y-11025495D01*
X7050000Y-11049999D01*
X7050000Y-11950001D01*
X7048796Y-11974505D01*
X7045196Y-11998773D01*
X7039235Y-12022572D01*
X7030970Y-12045671D01*
X7020480Y-12067850D01*
X7007868Y-12088893D01*
X6993253Y-12108599D01*
X6976777Y-12126777D01*
X6958599Y-12143253D01*
X6938893Y-12157868D01*
X6917850Y-12170480D01*
X6895671Y-12180970D01*
X6872572Y-12189235D01*
X6848773Y-12195196D01*
X6824505Y-12198796D01*
X6800001Y-12200000D01*
X6149999Y-12200000D01*
X6125495Y-12198796D01*
X6101227Y-12195196D01*
X6077428Y-12189235D01*
X6054329Y-12180970D01*
X6032150Y-12170480D01*
X6011107Y-12157868D01*
X5991401Y-12143253D01*
X5973223Y-12126777D01*
X5956747Y-12108599D01*
X5942132Y-12088893D01*
X5929520Y-12067850D01*
X5919030Y-12045671D01*
X5910765Y-12022572D01*
X5904804Y-11998773D01*
X5901204Y-11974505D01*
X5900000Y-11950001D01*
X5900000Y-11049999D01*
X5901204Y-11025495D01*
X5904804Y-11001227D01*
X5910765Y-10977428D01*
X5919030Y-10954329D01*
X5929520Y-10932150D01*
X5942132Y-10911107D01*
X5956747Y-10891401D01*
X5973223Y-10873223D01*
X5991401Y-10856747D01*
X6011107Y-10842132D01*
X6032150Y-10829520D01*
X6054329Y-10819030D01*
X6077428Y-10810765D01*
X6101227Y-10804804D01*
X6125495Y-10801204D01*
X6149999Y-10800000D01*
X6800001Y-10800000D01*
X6824505Y-10801204D01*
X6824505Y-10801204D01*
G37*
D11*
X6475000Y-11500000D03*
G04 #@! TD*
D10*
G04 #@! TO.C,D1*
G36*
X9324505Y-16801204D02*
X9348773Y-16804804D01*
X9372572Y-16810765D01*
X9395671Y-16819030D01*
X9417850Y-16829520D01*
X9438893Y-16842132D01*
X9458599Y-16856747D01*
X9476777Y-16873223D01*
X9493253Y-16891401D01*
X9507868Y-16911107D01*
X9520480Y-16932150D01*
X9530970Y-16954329D01*
X9539235Y-16977428D01*
X9545196Y-17001227D01*
X9548796Y-17025495D01*
X9550000Y-17049999D01*
X9550000Y-17950001D01*
X9548796Y-17974505D01*
X9545196Y-17998773D01*
X9539235Y-18022572D01*
X9530970Y-18045671D01*
X9520480Y-18067850D01*
X9507868Y-18088893D01*
X9493253Y-18108599D01*
X9476777Y-18126777D01*
X9458599Y-18143253D01*
X9438893Y-18157868D01*
X9417850Y-18170480D01*
X9395671Y-18180970D01*
X9372572Y-18189235D01*
X9348773Y-18195196D01*
X9324505Y-18198796D01*
X9300001Y-18200000D01*
X8649999Y-18200000D01*
X8625495Y-18198796D01*
X8601227Y-18195196D01*
X8577428Y-18189235D01*
X8554329Y-18180970D01*
X8532150Y-18170480D01*
X8511107Y-18157868D01*
X8491401Y-18143253D01*
X8473223Y-18126777D01*
X8456747Y-18108599D01*
X8442132Y-18088893D01*
X8429520Y-18067850D01*
X8419030Y-18045671D01*
X8410765Y-18022572D01*
X8404804Y-17998773D01*
X8401204Y-17974505D01*
X8400000Y-17950001D01*
X8400000Y-17049999D01*
X8401204Y-17025495D01*
X8404804Y-17001227D01*
X8410765Y-16977428D01*
X8419030Y-16954329D01*
X8429520Y-16932150D01*
X8442132Y-16911107D01*
X8456747Y-16891401D01*
X8473223Y-16873223D01*
X8491401Y-16856747D01*
X8511107Y-16842132D01*
X8532150Y-16829520D01*
X8554329Y-16819030D01*
X8577428Y-16810765D01*
X8601227Y-16804804D01*
X8625495Y-16801204D01*
X8649999Y-16800000D01*
X9300001Y-16800000D01*
X9324505Y-16801204D01*
X9324505Y-16801204D01*
G37*
D11*
X8975000Y-17500000D03*
D10*
G36*
X11374505Y-16801204D02*
X11398773Y-16804804D01*
X11422572Y-16810765D01*
X11445671Y-16819030D01*
X11467850Y-16829520D01*
X11488893Y-16842132D01*
X11508599Y-16856747D01*
X11526777Y-16873223D01*
X11543253Y-16891401D01*
X11557868Y-16911107D01*
X11570480Y-16932150D01*
X11580970Y-16954329D01*
X11589235Y-16977428D01*
X11595196Y-17001227D01*
X11598796Y-17025495D01*
X11600000Y-17049999D01*
X11600000Y-17950001D01*
X11598796Y-17974505D01*
X11595196Y-17998773D01*
X11589235Y-18022572D01*
X11580970Y-18045671D01*
X11570480Y-18067850D01*
X11557868Y-18088893D01*
X11543253Y-18108599D01*
X11526777Y-18126777D01*
X11508599Y-18143253D01*
X11488893Y-18157868D01*
X11467850Y-18170480D01*
X11445671Y-18180970D01*
X11422572Y-18189235D01*
X11398773Y-18195196D01*
X11374505Y-18198796D01*
X11350001Y-18200000D01*
X10699999Y-18200000D01*
X10675495Y-18198796D01*
X10651227Y-18195196D01*
X10627428Y-18189235D01*
X10604329Y-18180970D01*
X10582150Y-18170480D01*
X10561107Y-18157868D01*
X10541401Y-18143253D01*
X10523223Y-18126777D01*
X10506747Y-18108599D01*
X10492132Y-18088893D01*
X10479520Y-18067850D01*
X10469030Y-18045671D01*
X10460765Y-18022572D01*
X10454804Y-17998773D01*
X10451204Y-17974505D01*
X10450000Y-17950001D01*
X10450000Y-17049999D01*
X10451204Y-17025495D01*
X10454804Y-17001227D01*
X10460765Y-16977428D01*
X10469030Y-16954329D01*
X10479520Y-16932150D01*
X10492132Y-16911107D01*
X10506747Y-16891401D01*
X10523223Y-16873223D01*
X10541401Y-16856747D01*
X10561107Y-16842132D01*
X10582150Y-16829520D01*
X10604329Y-16819030D01*
X10627428Y-16810765D01*
X10651227Y-16804804D01*
X10675495Y-16801204D01*
X10699999Y-16800000D01*
X11350001Y-16800000D01*
X11374505Y-16801204D01*
X11374505Y-16801204D01*
G37*
D11*
X11025000Y-17500000D03*
G04 #@! TD*
D10*
G04 #@! TO.C,R1*
G36*
X19974505Y-15951204D02*
X19998773Y-15954804D01*
X20022572Y-15960765D01*
X20045671Y-15969030D01*
X20067850Y-15979520D01*
X20088893Y-15992132D01*
X20108599Y-16006747D01*
X20126777Y-16023223D01*
X20143253Y-16041401D01*
X20157868Y-16061107D01*
X20170480Y-16082150D01*
X20180970Y-16104329D01*
X20189235Y-16127428D01*
X20195196Y-16151227D01*
X20198796Y-16175495D01*
X20200000Y-16199999D01*
X20200000Y-16850001D01*
X20198796Y-16874505D01*
X20195196Y-16898773D01*
X20189235Y-16922572D01*
X20180970Y-16945671D01*
X20170480Y-16967850D01*
X20157868Y-16988893D01*
X20143253Y-17008599D01*
X20126777Y-17026777D01*
X20108599Y-17043253D01*
X20088893Y-17057868D01*
X20067850Y-17070480D01*
X20045671Y-17080970D01*
X20022572Y-17089235D01*
X19998773Y-17095196D01*
X19974505Y-17098796D01*
X19950001Y-17100000D01*
X19049999Y-17100000D01*
X19025495Y-17098796D01*
X19001227Y-17095196D01*
X18977428Y-17089235D01*
X18954329Y-17080970D01*
X18932150Y-17070480D01*
X18911107Y-17057868D01*
X18891401Y-17043253D01*
X18873223Y-17026777D01*
X18856747Y-17008599D01*
X18842132Y-16988893D01*
X18829520Y-16967850D01*
X18819030Y-16945671D01*
X18810765Y-16922572D01*
X18804804Y-16898773D01*
X18801204Y-16874505D01*
X18800000Y-16850001D01*
X18800000Y-16199999D01*
X18801204Y-16175495D01*
X18804804Y-16151227D01*
X18810765Y-16127428D01*
X18819030Y-16104329D01*
X18829520Y-16082150D01*
X18842132Y-16061107D01*
X18856747Y-16041401D01*
X18873223Y-16023223D01*
X18891401Y-16006747D01*
X18911107Y-15992132D01*
X18932150Y-15979520D01*
X18954329Y-15969030D01*
X18977428Y-15960765D01*
X19001227Y-15954804D01*
X19025495Y-15951204D01*
X19049999Y-15950000D01*
X19950001Y-15950000D01*
X19974505Y-15951204D01*
X19974505Y-15951204D01*
G37*
D11*
X19500000Y-16525000D03*
D10*
G36*
X19974505Y-13901204D02*
X19998773Y-13904804D01*
X20022572Y-13910765D01*
X20045671Y-13919030D01*
X20067850Y-13929520D01*
X20088893Y-13942132D01*
X20108599Y-13956747D01*
X20126777Y-13973223D01*
X20143253Y-13991401D01*
X20157868Y-14011107D01*
X20170480Y-14032150D01*
X20180970Y-14054329D01*
X20189235Y-14077428D01*
X20195196Y-14101227D01*
X20198796Y-14125495D01*
X20200000Y-14149999D01*
X20200000Y-14800001D01*
X20198796Y-14824505D01*
X20195196Y-14848773D01*
X20189235Y-14872572D01*
X20180970Y-14895671D01*
X20170480Y-14917850D01*
X20157868Y-14938893D01*
X20143253Y-14958599D01*
X20126777Y-14976777D01*
X20108599Y-14993253D01*
X20088893Y-15007868D01*
X20067850Y-15020480D01*
X20045671Y-15030970D01*
X20022572Y-15039235D01*
X19998773Y-15045196D01*
X19974505Y-15048796D01*
X19950001Y-15050000D01*
X19049999Y-15050000D01*
X19025495Y-15048796D01*
X19001227Y-15045196D01*
X18977428Y-15039235D01*
X18954329Y-15030970D01*
X18932150Y-15020480D01*
X18911107Y-15007868D01*
X18891401Y-14993253D01*
X18873223Y-14976777D01*
X18856747Y-14958599D01*
X18842132Y-14938893D01*
X18829520Y-14917850D01*
X18819030Y-14895671D01*
X18810765Y-14872572D01*
X18804804Y-14848773D01*
X18801204Y-14824505D01*
X18800000Y-14800001D01*
X18800000Y-14149999D01*
X18801204Y-14125495D01*
X18804804Y-14101227D01*
X18810765Y-14077428D01*
X18819030Y-14054329D01*
X18829520Y-14032150D01*
X18842132Y-14011107D01*
X18856747Y-13991401D01*
X18873223Y-13973223D01*
X18891401Y-13956747D01*
X18911107Y-13942132D01*
X18932150Y-13929520D01*
X18954329Y-13919030D01*
X18977428Y-13910765D01*
X19001227Y-13904804D01*
X19025495Y-13901204D01*
X19049999Y-13900000D01*
X19950001Y-13900000D01*
X19974505Y-13901204D01*
X19974505Y-13901204D01*
G37*
D11*
X19500000Y-14475000D03*
G04 #@! TD*
D12*
G04 #@! TO.C,U1*
X20000000Y-9480000D03*
X21500000Y-9480000D03*
X23000000Y-9480000D03*
D13*
X21500000Y-5520000D03*
D14*
X21500000Y-7870000D03*
D10*
G36*
X22500000Y-7495000D02*
X22000000Y-8245000D01*
X21000000Y-8245000D01*
X20500000Y-7495000D01*
X22500000Y-7495000D01*
X22500000Y-7495000D01*
G37*
G04 #@! TD*
D15*
G04 #@! TO.C,U2*
X13500000Y-4000000D03*
X13500000Y-4800000D03*
X13500000Y-5600000D03*
X13500000Y-6400000D03*
X13500000Y-7200000D03*
X13500000Y-8000000D03*
D16*
X14500000Y-8000000D03*
D15*
X15500000Y-8000000D03*
X15500000Y-7200000D03*
X15500000Y-6400000D03*
X15500000Y-5600000D03*
X15500000Y-4800000D03*
X15500000Y-4000000D03*
D16*
X14500000Y-4000000D03*
G04 #@! TD*
M02*
