G04 #@! TF.GenerationSoftware,KiCad,Pcbnew,(5.0.1)-3*
G04 #@! TF.CreationDate,2018-11-23T05:02:51-03:00*
G04 #@! TF.ProjectId,MMA7361,4D4D41373336312E6B696361645F7063,1.1*
G04 #@! TF.SameCoordinates,PX6f94740PY4c4b400*
G04 #@! TF.FileFunction,Soldermask,Top*
G04 #@! TF.FilePolarity,Negative*
%FSLAX46Y46*%
G04 Gerber Fmt 4.6, Leading zero omitted, Abs format (unit mm)*
G04 Created by KiCad (PCBNEW (5.0.1)-3) date 23/11/2018 05:02:51*
%MOMM*%
%LPD*%
G01*
G04 APERTURE LIST*
%ADD10C,0.100000*%
G04 APERTURE END LIST*
D10*
X35500000Y0D02*
X0Y0D01*
X35500000Y-22000000D02*
X35500000Y0D01*
X0Y-22000000D02*
X35500000Y-22000000D01*
X0Y0D02*
X0Y-22000000D01*
G36*
X32675770Y-19015372D02*
X32791689Y-19038429D01*
X32973678Y-19113811D01*
X33137463Y-19223249D01*
X33276751Y-19362537D01*
X33386189Y-19526322D01*
X33461571Y-19708311D01*
X33500000Y-19901509D01*
X33500000Y-20098491D01*
X33461571Y-20291689D01*
X33386189Y-20473678D01*
X33276751Y-20637463D01*
X33137463Y-20776751D01*
X32973678Y-20886189D01*
X32791689Y-20961571D01*
X32675770Y-20984628D01*
X32598493Y-21000000D01*
X32401507Y-21000000D01*
X32324230Y-20984628D01*
X32208311Y-20961571D01*
X32026322Y-20886189D01*
X31862537Y-20776751D01*
X31723249Y-20637463D01*
X31613811Y-20473678D01*
X31538429Y-20291689D01*
X31500000Y-20098491D01*
X31500000Y-19901509D01*
X31538429Y-19708311D01*
X31613811Y-19526322D01*
X31723249Y-19362537D01*
X31862537Y-19223249D01*
X32026322Y-19113811D01*
X32208311Y-19038429D01*
X32324230Y-19015372D01*
X32401507Y-19000000D01*
X32598493Y-19000000D01*
X32675770Y-19015372D01*
X32675770Y-19015372D01*
G37*
G36*
X2175770Y-19015372D02*
X2291689Y-19038429D01*
X2473678Y-19113811D01*
X2637463Y-19223249D01*
X2776751Y-19362537D01*
X2886189Y-19526322D01*
X2961571Y-19708311D01*
X3000000Y-19901509D01*
X3000000Y-20098491D01*
X2961571Y-20291689D01*
X2886189Y-20473678D01*
X2776751Y-20637463D01*
X2637463Y-20776751D01*
X2473678Y-20886189D01*
X2291689Y-20961571D01*
X2175770Y-20984628D01*
X2098493Y-21000000D01*
X1901507Y-21000000D01*
X1824230Y-20984628D01*
X1708311Y-20961571D01*
X1526322Y-20886189D01*
X1362537Y-20776751D01*
X1223249Y-20637463D01*
X1113811Y-20473678D01*
X1038429Y-20291689D01*
X1000000Y-20098491D01*
X1000000Y-19901509D01*
X1038429Y-19708311D01*
X1113811Y-19526322D01*
X1223249Y-19362537D01*
X1362537Y-19223249D01*
X1526322Y-19113811D01*
X1708311Y-19038429D01*
X1824230Y-19015372D01*
X1901507Y-19000000D01*
X2098493Y-19000000D01*
X2175770Y-19015372D01*
X2175770Y-19015372D01*
G37*
G36*
X9535530Y-16605710D02*
X9585379Y-16620831D01*
X9631311Y-16645382D01*
X9671574Y-16678426D01*
X9704618Y-16718689D01*
X9729169Y-16764621D01*
X9744290Y-16814470D01*
X9750000Y-16872444D01*
X9750000Y-18127556D01*
X9744290Y-18185530D01*
X9729169Y-18235379D01*
X9704618Y-18281311D01*
X9671574Y-18321574D01*
X9631311Y-18354618D01*
X9585379Y-18379169D01*
X9535530Y-18394290D01*
X9477556Y-18400000D01*
X8472444Y-18400000D01*
X8414470Y-18394290D01*
X8364621Y-18379169D01*
X8318689Y-18354618D01*
X8278426Y-18321574D01*
X8245382Y-18281311D01*
X8220831Y-18235379D01*
X8205710Y-18185530D01*
X8200000Y-18127556D01*
X8200000Y-16872444D01*
X8205710Y-16814470D01*
X8220831Y-16764621D01*
X8245382Y-16718689D01*
X8278426Y-16678426D01*
X8318689Y-16645382D01*
X8364621Y-16620831D01*
X8414470Y-16605710D01*
X8472444Y-16600000D01*
X9477556Y-16600000D01*
X9535530Y-16605710D01*
X9535530Y-16605710D01*
G37*
G36*
X11585530Y-16605710D02*
X11635379Y-16620831D01*
X11681311Y-16645382D01*
X11721574Y-16678426D01*
X11754618Y-16718689D01*
X11779169Y-16764621D01*
X11794290Y-16814470D01*
X11800000Y-16872444D01*
X11800000Y-18127556D01*
X11794290Y-18185530D01*
X11779169Y-18235379D01*
X11754618Y-18281311D01*
X11721574Y-18321574D01*
X11681311Y-18354618D01*
X11635379Y-18379169D01*
X11585530Y-18394290D01*
X11527556Y-18400000D01*
X10522444Y-18400000D01*
X10464470Y-18394290D01*
X10414621Y-18379169D01*
X10368689Y-18354618D01*
X10328426Y-18321574D01*
X10295382Y-18281311D01*
X10270831Y-18235379D01*
X10255710Y-18185530D01*
X10250000Y-18127556D01*
X10250000Y-16872444D01*
X10255710Y-16814470D01*
X10270831Y-16764621D01*
X10295382Y-16718689D01*
X10328426Y-16678426D01*
X10368689Y-16645382D01*
X10414621Y-16620831D01*
X10464470Y-16605710D01*
X10522444Y-16600000D01*
X11527556Y-16600000D01*
X11585530Y-16605710D01*
X11585530Y-16605710D01*
G37*
G36*
X23685530Y-15755710D02*
X23735379Y-15770831D01*
X23781311Y-15795382D01*
X23821574Y-15828426D01*
X23854618Y-15868689D01*
X23879169Y-15914621D01*
X23894290Y-15964470D01*
X23900000Y-16022444D01*
X23900000Y-17027556D01*
X23894290Y-17085530D01*
X23879169Y-17135379D01*
X23854618Y-17181311D01*
X23821574Y-17221574D01*
X23781311Y-17254618D01*
X23735379Y-17279169D01*
X23685530Y-17294290D01*
X23627556Y-17300000D01*
X22372444Y-17300000D01*
X22314470Y-17294290D01*
X22264621Y-17279169D01*
X22218689Y-17254618D01*
X22178426Y-17221574D01*
X22145382Y-17181311D01*
X22120831Y-17135379D01*
X22105710Y-17085530D01*
X22100000Y-17027556D01*
X22100000Y-16022444D01*
X22105710Y-15964470D01*
X22120831Y-15914621D01*
X22145382Y-15868689D01*
X22178426Y-15828426D01*
X22218689Y-15795382D01*
X22264621Y-15770831D01*
X22314470Y-15755710D01*
X22372444Y-15750000D01*
X23627556Y-15750000D01*
X23685530Y-15755710D01*
X23685530Y-15755710D01*
G37*
G36*
X20185530Y-15755710D02*
X20235379Y-15770831D01*
X20281311Y-15795382D01*
X20321574Y-15828426D01*
X20354618Y-15868689D01*
X20379169Y-15914621D01*
X20394290Y-15964470D01*
X20400000Y-16022444D01*
X20400000Y-17027556D01*
X20394290Y-17085530D01*
X20379169Y-17135379D01*
X20354618Y-17181311D01*
X20321574Y-17221574D01*
X20281311Y-17254618D01*
X20235379Y-17279169D01*
X20185530Y-17294290D01*
X20127556Y-17300000D01*
X18872444Y-17300000D01*
X18814470Y-17294290D01*
X18764621Y-17279169D01*
X18718689Y-17254618D01*
X18678426Y-17221574D01*
X18645382Y-17181311D01*
X18620831Y-17135379D01*
X18605710Y-17085530D01*
X18600000Y-17027556D01*
X18600000Y-16022444D01*
X18605710Y-15964470D01*
X18620831Y-15914621D01*
X18645382Y-15868689D01*
X18678426Y-15828426D01*
X18718689Y-15795382D01*
X18764621Y-15770831D01*
X18814470Y-15755710D01*
X18872444Y-15750000D01*
X20127556Y-15750000D01*
X20185530Y-15755710D01*
X20185530Y-15755710D01*
G37*
G36*
X32628707Y-15117597D02*
X32705836Y-15125193D01*
X32837787Y-15165220D01*
X32903763Y-15185233D01*
X33086172Y-15282733D01*
X33246054Y-15413946D01*
X33377267Y-15573828D01*
X33474767Y-15756237D01*
X33474767Y-15756238D01*
X33534807Y-15954164D01*
X33555080Y-16160000D01*
X33534807Y-16365836D01*
X33494780Y-16497787D01*
X33474767Y-16563763D01*
X33377267Y-16746172D01*
X33246054Y-16906054D01*
X33086172Y-17037267D01*
X32903763Y-17134767D01*
X32852731Y-17150247D01*
X32705836Y-17194807D01*
X32639830Y-17201308D01*
X32551580Y-17210000D01*
X32448420Y-17210000D01*
X32360170Y-17201308D01*
X32294164Y-17194807D01*
X32147269Y-17150247D01*
X32096237Y-17134767D01*
X31913828Y-17037267D01*
X31753946Y-16906054D01*
X31622733Y-16746172D01*
X31525233Y-16563763D01*
X31505220Y-16497787D01*
X31465193Y-16365836D01*
X31444920Y-16160000D01*
X31465193Y-15954164D01*
X31525233Y-15756238D01*
X31525233Y-15756237D01*
X31622733Y-15573828D01*
X31753946Y-15413946D01*
X31913828Y-15282733D01*
X32096237Y-15185233D01*
X32162213Y-15165220D01*
X32294164Y-15125193D01*
X32371293Y-15117597D01*
X32448420Y-15110000D01*
X32551580Y-15110000D01*
X32628707Y-15117597D01*
X32628707Y-15117597D01*
G37*
G36*
X2128707Y-15117597D02*
X2205836Y-15125193D01*
X2337787Y-15165220D01*
X2403763Y-15185233D01*
X2586172Y-15282733D01*
X2746054Y-15413946D01*
X2877267Y-15573828D01*
X2974767Y-15756237D01*
X2974767Y-15756238D01*
X3034807Y-15954164D01*
X3055080Y-16160000D01*
X3034807Y-16365836D01*
X2994780Y-16497787D01*
X2974767Y-16563763D01*
X2877267Y-16746172D01*
X2746054Y-16906054D01*
X2586172Y-17037267D01*
X2403763Y-17134767D01*
X2352731Y-17150247D01*
X2205836Y-17194807D01*
X2139830Y-17201308D01*
X2051580Y-17210000D01*
X1948420Y-17210000D01*
X1860170Y-17201308D01*
X1794164Y-17194807D01*
X1647269Y-17150247D01*
X1596237Y-17134767D01*
X1413828Y-17037267D01*
X1253946Y-16906054D01*
X1122733Y-16746172D01*
X1025233Y-16563763D01*
X1005220Y-16497787D01*
X965193Y-16365836D01*
X944920Y-16160000D01*
X965193Y-15954164D01*
X1025233Y-15756238D01*
X1025233Y-15756237D01*
X1122733Y-15573828D01*
X1253946Y-15413946D01*
X1413828Y-15282733D01*
X1596237Y-15185233D01*
X1662213Y-15165220D01*
X1794164Y-15125193D01*
X1871293Y-15117597D01*
X1948420Y-15110000D01*
X2051580Y-15110000D01*
X2128707Y-15117597D01*
X2128707Y-15117597D01*
G37*
G36*
X20185530Y-13705710D02*
X20235379Y-13720831D01*
X20281311Y-13745382D01*
X20321574Y-13778426D01*
X20354618Y-13818689D01*
X20379169Y-13864621D01*
X20394290Y-13914470D01*
X20400000Y-13972444D01*
X20400000Y-14977556D01*
X20394290Y-15035530D01*
X20379169Y-15085379D01*
X20354618Y-15131311D01*
X20321574Y-15171574D01*
X20281311Y-15204618D01*
X20235379Y-15229169D01*
X20185530Y-15244290D01*
X20127556Y-15250000D01*
X18872444Y-15250000D01*
X18814470Y-15244290D01*
X18764621Y-15229169D01*
X18718689Y-15204618D01*
X18678426Y-15171574D01*
X18645382Y-15131311D01*
X18620831Y-15085379D01*
X18605710Y-15035530D01*
X18600000Y-14977556D01*
X18600000Y-13972444D01*
X18605710Y-13914470D01*
X18620831Y-13864621D01*
X18645382Y-13818689D01*
X18678426Y-13778426D01*
X18718689Y-13745382D01*
X18764621Y-13720831D01*
X18814470Y-13705710D01*
X18872444Y-13700000D01*
X20127556Y-13700000D01*
X20185530Y-13705710D01*
X20185530Y-13705710D01*
G37*
G36*
X23685530Y-13705710D02*
X23735379Y-13720831D01*
X23781311Y-13745382D01*
X23821574Y-13778426D01*
X23854618Y-13818689D01*
X23879169Y-13864621D01*
X23894290Y-13914470D01*
X23900000Y-13972444D01*
X23900000Y-14977556D01*
X23894290Y-15035530D01*
X23879169Y-15085379D01*
X23854618Y-15131311D01*
X23821574Y-15171574D01*
X23781311Y-15204618D01*
X23735379Y-15229169D01*
X23685530Y-15244290D01*
X23627556Y-15250000D01*
X22372444Y-15250000D01*
X22314470Y-15244290D01*
X22264621Y-15229169D01*
X22218689Y-15204618D01*
X22178426Y-15171574D01*
X22145382Y-15131311D01*
X22120831Y-15085379D01*
X22105710Y-15035530D01*
X22100000Y-14977556D01*
X22100000Y-13972444D01*
X22105710Y-13914470D01*
X22120831Y-13864621D01*
X22145382Y-13818689D01*
X22178426Y-13778426D01*
X22218689Y-13745382D01*
X22264621Y-13720831D01*
X22314470Y-13705710D01*
X22372444Y-13700000D01*
X23627556Y-13700000D01*
X23685530Y-13705710D01*
X23685530Y-13705710D01*
G37*
G36*
X32628707Y-12577596D02*
X32705836Y-12585193D01*
X32837787Y-12625220D01*
X32903763Y-12645233D01*
X33086172Y-12742733D01*
X33246054Y-12873946D01*
X33377267Y-13033828D01*
X33474767Y-13216237D01*
X33474767Y-13216238D01*
X33534807Y-13414164D01*
X33555080Y-13620000D01*
X33534807Y-13825836D01*
X33509880Y-13908009D01*
X33474767Y-14023763D01*
X33377267Y-14206172D01*
X33246054Y-14366054D01*
X33086172Y-14497267D01*
X32903763Y-14594767D01*
X32837787Y-14614780D01*
X32705836Y-14654807D01*
X32628707Y-14662404D01*
X32551580Y-14670000D01*
X32448420Y-14670000D01*
X32371293Y-14662403D01*
X32294164Y-14654807D01*
X32162213Y-14614780D01*
X32096237Y-14594767D01*
X31913828Y-14497267D01*
X31753946Y-14366054D01*
X31622733Y-14206172D01*
X31525233Y-14023763D01*
X31490120Y-13908009D01*
X31465193Y-13825836D01*
X31444920Y-13620000D01*
X31465193Y-13414164D01*
X31525233Y-13216238D01*
X31525233Y-13216237D01*
X31622733Y-13033828D01*
X31753946Y-12873946D01*
X31913828Y-12742733D01*
X32096237Y-12645233D01*
X32162213Y-12625220D01*
X32294164Y-12585193D01*
X32371293Y-12577597D01*
X32448420Y-12570000D01*
X32551580Y-12570000D01*
X32628707Y-12577596D01*
X32628707Y-12577596D01*
G37*
G36*
X2128707Y-12577596D02*
X2205836Y-12585193D01*
X2337787Y-12625220D01*
X2403763Y-12645233D01*
X2586172Y-12742733D01*
X2746054Y-12873946D01*
X2877267Y-13033828D01*
X2974767Y-13216237D01*
X2974767Y-13216238D01*
X3034807Y-13414164D01*
X3055080Y-13620000D01*
X3034807Y-13825836D01*
X3009880Y-13908009D01*
X2974767Y-14023763D01*
X2877267Y-14206172D01*
X2746054Y-14366054D01*
X2586172Y-14497267D01*
X2403763Y-14594767D01*
X2337787Y-14614780D01*
X2205836Y-14654807D01*
X2128707Y-14662404D01*
X2051580Y-14670000D01*
X1948420Y-14670000D01*
X1871293Y-14662403D01*
X1794164Y-14654807D01*
X1662213Y-14614780D01*
X1596237Y-14594767D01*
X1413828Y-14497267D01*
X1253946Y-14366054D01*
X1122733Y-14206172D01*
X1025233Y-14023763D01*
X990120Y-13908009D01*
X965193Y-13825836D01*
X944920Y-13620000D01*
X965193Y-13414164D01*
X1025233Y-13216238D01*
X1025233Y-13216237D01*
X1122733Y-13033828D01*
X1253946Y-12873946D01*
X1413828Y-12742733D01*
X1596237Y-12645233D01*
X1662213Y-12625220D01*
X1794164Y-12585193D01*
X1871293Y-12577596D01*
X1948420Y-12570000D01*
X2051580Y-12570000D01*
X2128707Y-12577596D01*
X2128707Y-12577596D01*
G37*
G36*
X13685530Y-12755710D02*
X13735379Y-12770831D01*
X13781311Y-12795382D01*
X13821574Y-12828426D01*
X13854618Y-12868689D01*
X13879169Y-12914621D01*
X13894290Y-12964470D01*
X13900000Y-13022444D01*
X13900000Y-14027556D01*
X13894290Y-14085530D01*
X13879169Y-14135379D01*
X13854618Y-14181311D01*
X13821574Y-14221574D01*
X13781311Y-14254618D01*
X13735379Y-14279169D01*
X13685530Y-14294290D01*
X13627556Y-14300000D01*
X12372444Y-14300000D01*
X12314470Y-14294290D01*
X12264621Y-14279169D01*
X12218689Y-14254618D01*
X12178426Y-14221574D01*
X12145382Y-14181311D01*
X12120831Y-14135379D01*
X12105710Y-14085530D01*
X12100000Y-14027556D01*
X12100000Y-13022444D01*
X12105710Y-12964470D01*
X12120831Y-12914621D01*
X12145382Y-12868689D01*
X12178426Y-12828426D01*
X12218689Y-12795382D01*
X12264621Y-12770831D01*
X12314470Y-12755710D01*
X12372444Y-12750000D01*
X13627556Y-12750000D01*
X13685530Y-12755710D01*
X13685530Y-12755710D01*
G37*
G36*
X7035530Y-10605710D02*
X7085379Y-10620831D01*
X7131311Y-10645382D01*
X7171574Y-10678426D01*
X7204618Y-10718689D01*
X7229169Y-10764621D01*
X7244290Y-10814470D01*
X7250000Y-10872444D01*
X7250000Y-12127556D01*
X7244290Y-12185530D01*
X7229169Y-12235379D01*
X7204618Y-12281311D01*
X7171574Y-12321574D01*
X7131311Y-12354618D01*
X7085379Y-12379169D01*
X7035530Y-12394290D01*
X6977556Y-12400000D01*
X5972444Y-12400000D01*
X5914470Y-12394290D01*
X5864621Y-12379169D01*
X5818689Y-12354618D01*
X5778426Y-12321574D01*
X5745382Y-12281311D01*
X5720831Y-12235379D01*
X5705710Y-12185530D01*
X5700000Y-12127556D01*
X5700000Y-10872444D01*
X5705710Y-10814470D01*
X5720831Y-10764621D01*
X5745382Y-10718689D01*
X5778426Y-10678426D01*
X5818689Y-10645382D01*
X5864621Y-10620831D01*
X5914470Y-10605710D01*
X5972444Y-10600000D01*
X6977556Y-10600000D01*
X7035530Y-10605710D01*
X7035530Y-10605710D01*
G37*
G36*
X9085530Y-10605710D02*
X9135379Y-10620831D01*
X9181311Y-10645382D01*
X9221574Y-10678426D01*
X9254618Y-10718689D01*
X9279169Y-10764621D01*
X9294290Y-10814470D01*
X9300000Y-10872444D01*
X9300000Y-12127556D01*
X9294290Y-12185530D01*
X9279169Y-12235379D01*
X9254618Y-12281311D01*
X9221574Y-12321574D01*
X9181311Y-12354618D01*
X9135379Y-12379169D01*
X9085530Y-12394290D01*
X9027556Y-12400000D01*
X8022444Y-12400000D01*
X7964470Y-12394290D01*
X7914621Y-12379169D01*
X7868689Y-12354618D01*
X7828426Y-12321574D01*
X7795382Y-12281311D01*
X7770831Y-12235379D01*
X7755710Y-12185530D01*
X7750000Y-12127556D01*
X7750000Y-10872444D01*
X7755710Y-10814470D01*
X7770831Y-10764621D01*
X7795382Y-10718689D01*
X7828426Y-10678426D01*
X7868689Y-10645382D01*
X7914621Y-10620831D01*
X7964470Y-10605710D01*
X8022444Y-10600000D01*
X9027556Y-10600000D01*
X9085530Y-10605710D01*
X9085530Y-10605710D01*
G37*
G36*
X13685530Y-10705710D02*
X13735379Y-10720831D01*
X13781311Y-10745382D01*
X13821574Y-10778426D01*
X13854618Y-10818689D01*
X13879169Y-10864621D01*
X13894290Y-10914470D01*
X13900000Y-10972444D01*
X13900000Y-11977556D01*
X13894290Y-12035530D01*
X13879169Y-12085379D01*
X13854618Y-12131311D01*
X13821574Y-12171574D01*
X13781311Y-12204618D01*
X13735379Y-12229169D01*
X13685530Y-12244290D01*
X13627556Y-12250000D01*
X12372444Y-12250000D01*
X12314470Y-12244290D01*
X12264621Y-12229169D01*
X12218689Y-12204618D01*
X12178426Y-12171574D01*
X12145382Y-12131311D01*
X12120831Y-12085379D01*
X12105710Y-12035530D01*
X12100000Y-11977556D01*
X12100000Y-10972444D01*
X12105710Y-10914470D01*
X12120831Y-10864621D01*
X12145382Y-10818689D01*
X12178426Y-10778426D01*
X12218689Y-10745382D01*
X12264621Y-10720831D01*
X12314470Y-10705710D01*
X12372444Y-10700000D01*
X13627556Y-10700000D01*
X13685530Y-10705710D01*
X13685530Y-10705710D01*
G37*
G36*
X2128707Y-10037597D02*
X2205836Y-10045193D01*
X2337787Y-10085220D01*
X2403763Y-10105233D01*
X2586172Y-10202733D01*
X2746054Y-10333946D01*
X2877267Y-10493828D01*
X2974767Y-10676237D01*
X2981975Y-10700000D01*
X3034807Y-10874164D01*
X3055080Y-11080000D01*
X3034807Y-11285836D01*
X2994780Y-11417787D01*
X2974767Y-11483763D01*
X2877267Y-11666172D01*
X2746054Y-11826054D01*
X2586172Y-11957267D01*
X2403763Y-12054767D01*
X2337787Y-12074780D01*
X2205836Y-12114807D01*
X2128707Y-12122404D01*
X2051580Y-12130000D01*
X1948420Y-12130000D01*
X1871293Y-12122404D01*
X1794164Y-12114807D01*
X1662213Y-12074780D01*
X1596237Y-12054767D01*
X1413828Y-11957267D01*
X1253946Y-11826054D01*
X1122733Y-11666172D01*
X1025233Y-11483763D01*
X1005220Y-11417787D01*
X965193Y-11285836D01*
X944920Y-11080000D01*
X965193Y-10874164D01*
X1018025Y-10700000D01*
X1025233Y-10676237D01*
X1122733Y-10493828D01*
X1253946Y-10333946D01*
X1413828Y-10202733D01*
X1596237Y-10105233D01*
X1662213Y-10085220D01*
X1794164Y-10045193D01*
X1871293Y-10037597D01*
X1948420Y-10030000D01*
X2051580Y-10030000D01*
X2128707Y-10037597D01*
X2128707Y-10037597D01*
G37*
G36*
X32628707Y-10037597D02*
X32705836Y-10045193D01*
X32837787Y-10085220D01*
X32903763Y-10105233D01*
X33086172Y-10202733D01*
X33246054Y-10333946D01*
X33377267Y-10493828D01*
X33474767Y-10676237D01*
X33481975Y-10700000D01*
X33534807Y-10874164D01*
X33555080Y-11080000D01*
X33534807Y-11285836D01*
X33494780Y-11417787D01*
X33474767Y-11483763D01*
X33377267Y-11666172D01*
X33246054Y-11826054D01*
X33086172Y-11957267D01*
X32903763Y-12054767D01*
X32837787Y-12074780D01*
X32705836Y-12114807D01*
X32628707Y-12122403D01*
X32551580Y-12130000D01*
X32448420Y-12130000D01*
X32371293Y-12122404D01*
X32294164Y-12114807D01*
X32162213Y-12074780D01*
X32096237Y-12054767D01*
X31913828Y-11957267D01*
X31753946Y-11826054D01*
X31622733Y-11666172D01*
X31525233Y-11483763D01*
X31505220Y-11417787D01*
X31465193Y-11285836D01*
X31444920Y-11080000D01*
X31465193Y-10874164D01*
X31518025Y-10700000D01*
X31525233Y-10676237D01*
X31622733Y-10493828D01*
X31753946Y-10333946D01*
X31913828Y-10202733D01*
X32096237Y-10105233D01*
X32162213Y-10085220D01*
X32294164Y-10045193D01*
X32371293Y-10037597D01*
X32448420Y-10030000D01*
X32551580Y-10030000D01*
X32628707Y-10037597D01*
X32628707Y-10037597D01*
G37*
G36*
X27685530Y-10255710D02*
X27735379Y-10270831D01*
X27781311Y-10295382D01*
X27821574Y-10328426D01*
X27854618Y-10368689D01*
X27879169Y-10414621D01*
X27894290Y-10464470D01*
X27900000Y-10522444D01*
X27900000Y-11527556D01*
X27894290Y-11585530D01*
X27879169Y-11635379D01*
X27854618Y-11681311D01*
X27821574Y-11721574D01*
X27781311Y-11754618D01*
X27735379Y-11779169D01*
X27685530Y-11794290D01*
X27627556Y-11800000D01*
X26372444Y-11800000D01*
X26314470Y-11794290D01*
X26264621Y-11779169D01*
X26218689Y-11754618D01*
X26178426Y-11721574D01*
X26145382Y-11681311D01*
X26120831Y-11635379D01*
X26105710Y-11585530D01*
X26100000Y-11527556D01*
X26100000Y-10522444D01*
X26105710Y-10464470D01*
X26120831Y-10414621D01*
X26145382Y-10368689D01*
X26178426Y-10328426D01*
X26218689Y-10295382D01*
X26264621Y-10270831D01*
X26314470Y-10255710D01*
X26372444Y-10250000D01*
X27627556Y-10250000D01*
X27685530Y-10255710D01*
X27685530Y-10255710D01*
G37*
G36*
X22700000Y-7170000D02*
X22702402Y-7194386D01*
X22709515Y-7217835D01*
X22721066Y-7239446D01*
X22736612Y-7258388D01*
X22755554Y-7273934D01*
X22777165Y-7285485D01*
X22800614Y-7292598D01*
X22825000Y-7295000D01*
X22873703Y-7295000D01*
X22720994Y-7524064D01*
X22709465Y-7545687D01*
X22702376Y-7569144D01*
X22700000Y-7593402D01*
X22700000Y-7720000D01*
X22657268Y-7720000D01*
X22632882Y-7722402D01*
X22609433Y-7729515D01*
X22587822Y-7741066D01*
X22568880Y-7756612D01*
X22553262Y-7775662D01*
X22513262Y-7835662D01*
X22501733Y-7857285D01*
X22494644Y-7880742D01*
X22492268Y-7905131D01*
X22494695Y-7929515D01*
X22501833Y-7952956D01*
X22513407Y-7974555D01*
X22528972Y-7993481D01*
X22547930Y-8009006D01*
X22569553Y-8020535D01*
X22593010Y-8027624D01*
X22617268Y-8030000D01*
X23700000Y-8030000D01*
X23700000Y-10930000D01*
X19300000Y-10930000D01*
X19300000Y-8030000D01*
X20382732Y-8030000D01*
X20407118Y-8027598D01*
X20430567Y-8020485D01*
X20452178Y-8008934D01*
X20471120Y-7993388D01*
X20486666Y-7974446D01*
X20498217Y-7952835D01*
X20505330Y-7929386D01*
X20507732Y-7905000D01*
X20505330Y-7880614D01*
X20498217Y-7857165D01*
X20486738Y-7835662D01*
X20446738Y-7775662D01*
X20431213Y-7756704D01*
X20412287Y-7741139D01*
X20390688Y-7729565D01*
X20367247Y-7722427D01*
X20342732Y-7720000D01*
X20300000Y-7720000D01*
X20300000Y-7593402D01*
X20297598Y-7569016D01*
X20290485Y-7545567D01*
X20279006Y-7524064D01*
X20126297Y-7295000D01*
X20175000Y-7295000D01*
X20199386Y-7292598D01*
X20222835Y-7285485D01*
X20244446Y-7273934D01*
X20263388Y-7258388D01*
X20278934Y-7239446D01*
X20290485Y-7217835D01*
X20297598Y-7194386D01*
X20300000Y-7170000D01*
X20300000Y-3320000D01*
X22700000Y-3320000D01*
X22700000Y-7170000D01*
X22700000Y-7170000D01*
G37*
G36*
X27685530Y-8205710D02*
X27735379Y-8220831D01*
X27781311Y-8245382D01*
X27821574Y-8278426D01*
X27854618Y-8318689D01*
X27879169Y-8364621D01*
X27894290Y-8414470D01*
X27900000Y-8472444D01*
X27900000Y-9477556D01*
X27894290Y-9535530D01*
X27879169Y-9585379D01*
X27854618Y-9631311D01*
X27821574Y-9671574D01*
X27781311Y-9704618D01*
X27735379Y-9729169D01*
X27685530Y-9744290D01*
X27627556Y-9750000D01*
X26372444Y-9750000D01*
X26314470Y-9744290D01*
X26264621Y-9729169D01*
X26218689Y-9704618D01*
X26178426Y-9671574D01*
X26145382Y-9631311D01*
X26120831Y-9585379D01*
X26105710Y-9535530D01*
X26100000Y-9477556D01*
X26100000Y-8472444D01*
X26105710Y-8414470D01*
X26120831Y-8364621D01*
X26145382Y-8318689D01*
X26178426Y-8278426D01*
X26218689Y-8245382D01*
X26264621Y-8220831D01*
X26314470Y-8205710D01*
X26372444Y-8200000D01*
X27627556Y-8200000D01*
X27685530Y-8205710D01*
X27685530Y-8205710D01*
G37*
G36*
X32628707Y-7497597D02*
X32705836Y-7505193D01*
X32837787Y-7545220D01*
X32903763Y-7565233D01*
X33086172Y-7662733D01*
X33246054Y-7793946D01*
X33377267Y-7953828D01*
X33474767Y-8136237D01*
X33474767Y-8136238D01*
X33534807Y-8334164D01*
X33555080Y-8540000D01*
X33534807Y-8745836D01*
X33494780Y-8877787D01*
X33474767Y-8943763D01*
X33377267Y-9126172D01*
X33246054Y-9286054D01*
X33086172Y-9417267D01*
X32903763Y-9514767D01*
X32837787Y-9534780D01*
X32705836Y-9574807D01*
X32628707Y-9582403D01*
X32551580Y-9590000D01*
X32448420Y-9590000D01*
X32371293Y-9582403D01*
X32294164Y-9574807D01*
X32162213Y-9534780D01*
X32096237Y-9514767D01*
X31913828Y-9417267D01*
X31753946Y-9286054D01*
X31622733Y-9126172D01*
X31525233Y-8943763D01*
X31505220Y-8877787D01*
X31465193Y-8745836D01*
X31444920Y-8540000D01*
X31465193Y-8334164D01*
X31525233Y-8136238D01*
X31525233Y-8136237D01*
X31622733Y-7953828D01*
X31753946Y-7793946D01*
X31913828Y-7662733D01*
X32096237Y-7565233D01*
X32162213Y-7545220D01*
X32294164Y-7505193D01*
X32371293Y-7497597D01*
X32448420Y-7490000D01*
X32551580Y-7490000D01*
X32628707Y-7497597D01*
X32628707Y-7497597D01*
G37*
G36*
X2128707Y-7497597D02*
X2205836Y-7505193D01*
X2337787Y-7545220D01*
X2403763Y-7565233D01*
X2586172Y-7662733D01*
X2746054Y-7793946D01*
X2877267Y-7953828D01*
X2974767Y-8136237D01*
X2974767Y-8136238D01*
X3034807Y-8334164D01*
X3055080Y-8540000D01*
X3034807Y-8745836D01*
X2994780Y-8877787D01*
X2974767Y-8943763D01*
X2877267Y-9126172D01*
X2746054Y-9286054D01*
X2586172Y-9417267D01*
X2403763Y-9514767D01*
X2337787Y-9534780D01*
X2205836Y-9574807D01*
X2128707Y-9582403D01*
X2051580Y-9590000D01*
X1948420Y-9590000D01*
X1871293Y-9582403D01*
X1794164Y-9574807D01*
X1662213Y-9534780D01*
X1596237Y-9514767D01*
X1413828Y-9417267D01*
X1253946Y-9286054D01*
X1122733Y-9126172D01*
X1025233Y-8943763D01*
X1005220Y-8877787D01*
X965193Y-8745836D01*
X944920Y-8540000D01*
X965193Y-8334164D01*
X1025233Y-8136238D01*
X1025233Y-8136237D01*
X1122733Y-7953828D01*
X1253946Y-7793946D01*
X1413828Y-7662733D01*
X1596237Y-7565233D01*
X1662213Y-7545220D01*
X1794164Y-7505193D01*
X1871293Y-7497597D01*
X1948420Y-7490000D01*
X2051580Y-7490000D01*
X2128707Y-7497597D01*
X2128707Y-7497597D01*
G37*
G36*
X9085530Y-7605710D02*
X9135379Y-7620831D01*
X9181311Y-7645382D01*
X9221574Y-7678426D01*
X9254618Y-7718689D01*
X9279169Y-7764621D01*
X9294290Y-7814470D01*
X9300000Y-7872444D01*
X9300000Y-9127556D01*
X9294290Y-9185530D01*
X9279169Y-9235379D01*
X9254618Y-9281311D01*
X9221574Y-9321574D01*
X9181311Y-9354618D01*
X9135379Y-9379169D01*
X9085530Y-9394290D01*
X9027556Y-9400000D01*
X8022444Y-9400000D01*
X7964470Y-9394290D01*
X7914621Y-9379169D01*
X7868689Y-9354618D01*
X7828426Y-9321574D01*
X7795382Y-9281311D01*
X7770831Y-9235379D01*
X7755710Y-9185530D01*
X7750000Y-9127556D01*
X7750000Y-7872444D01*
X7755710Y-7814470D01*
X7770831Y-7764621D01*
X7795382Y-7718689D01*
X7828426Y-7678426D01*
X7868689Y-7645382D01*
X7914621Y-7620831D01*
X7964470Y-7605710D01*
X8022444Y-7600000D01*
X9027556Y-7600000D01*
X9085530Y-7605710D01*
X9085530Y-7605710D01*
G37*
G36*
X7035530Y-7605710D02*
X7085379Y-7620831D01*
X7131311Y-7645382D01*
X7171574Y-7678426D01*
X7204618Y-7718689D01*
X7229169Y-7764621D01*
X7244290Y-7814470D01*
X7250000Y-7872444D01*
X7250000Y-9127556D01*
X7244290Y-9185530D01*
X7229169Y-9235379D01*
X7204618Y-9281311D01*
X7171574Y-9321574D01*
X7131311Y-9354618D01*
X7085379Y-9379169D01*
X7035530Y-9394290D01*
X6977556Y-9400000D01*
X5972444Y-9400000D01*
X5914470Y-9394290D01*
X5864621Y-9379169D01*
X5818689Y-9354618D01*
X5778426Y-9321574D01*
X5745382Y-9281311D01*
X5720831Y-9235379D01*
X5705710Y-9185530D01*
X5700000Y-9127556D01*
X5700000Y-7872444D01*
X5705710Y-7814470D01*
X5720831Y-7764621D01*
X5745382Y-7718689D01*
X5778426Y-7678426D01*
X5818689Y-7645382D01*
X5864621Y-7620831D01*
X5914470Y-7605710D01*
X5972444Y-7600000D01*
X6977556Y-7600000D01*
X7035530Y-7605710D01*
X7035530Y-7605710D01*
G37*
G36*
X15000000Y-3375000D02*
X15002402Y-3399386D01*
X15009515Y-3422835D01*
X15021066Y-3444446D01*
X15036612Y-3463388D01*
X15055554Y-3478934D01*
X15077165Y-3490485D01*
X15100614Y-3497598D01*
X15125000Y-3500000D01*
X16175000Y-3500000D01*
X16175000Y-8500000D01*
X15125000Y-8500000D01*
X15100614Y-8502402D01*
X15077165Y-8509515D01*
X15055554Y-8521066D01*
X15036612Y-8536612D01*
X15021066Y-8555554D01*
X15009515Y-8577165D01*
X15002402Y-8600614D01*
X15000000Y-8625000D01*
X15000000Y-8675000D01*
X14000000Y-8675000D01*
X14000000Y-8625000D01*
X13997598Y-8600614D01*
X13990485Y-8577165D01*
X13978934Y-8555554D01*
X13963388Y-8536612D01*
X13944446Y-8521066D01*
X13922835Y-8509515D01*
X13899386Y-8502402D01*
X13875000Y-8500000D01*
X12825000Y-8500000D01*
X12825000Y-4800000D01*
X14175000Y-4800000D01*
X14175000Y-7200000D01*
X14177402Y-7224386D01*
X14184515Y-7247835D01*
X14196066Y-7269446D01*
X14211612Y-7288388D01*
X14230554Y-7303934D01*
X14252165Y-7315485D01*
X14275614Y-7322598D01*
X14300000Y-7325000D01*
X14700000Y-7325000D01*
X14724386Y-7322598D01*
X14747835Y-7315485D01*
X14769446Y-7303934D01*
X14788388Y-7288388D01*
X14803934Y-7269446D01*
X14815485Y-7247835D01*
X14822598Y-7224386D01*
X14825000Y-7200000D01*
X14825000Y-4800000D01*
X14822598Y-4775614D01*
X14815485Y-4752165D01*
X14803934Y-4730554D01*
X14788388Y-4711612D01*
X14769446Y-4696066D01*
X14747835Y-4684515D01*
X14724386Y-4677402D01*
X14700000Y-4675000D01*
X14300000Y-4675000D01*
X14275614Y-4677402D01*
X14252165Y-4684515D01*
X14230554Y-4696066D01*
X14211612Y-4711612D01*
X14196066Y-4730554D01*
X14184515Y-4752165D01*
X14177402Y-4775614D01*
X14175000Y-4800000D01*
X12825000Y-4800000D01*
X12825000Y-3500000D01*
X13875000Y-3500000D01*
X13899386Y-3497598D01*
X13922835Y-3490485D01*
X13944446Y-3478934D01*
X13963388Y-3463388D01*
X13978934Y-3444446D01*
X13990485Y-3422835D01*
X13997598Y-3399386D01*
X14000000Y-3375000D01*
X14000000Y-3325000D01*
X15000000Y-3325000D01*
X15000000Y-3375000D01*
X15000000Y-3375000D01*
G37*
G36*
X33550000Y-7050000D02*
X31450000Y-7050000D01*
X31450000Y-4950000D01*
X33550000Y-4950000D01*
X33550000Y-7050000D01*
X33550000Y-7050000D01*
G37*
G36*
X3050000Y-7050000D02*
X950000Y-7050000D01*
X950000Y-4950000D01*
X3050000Y-4950000D01*
X3050000Y-7050000D01*
X3050000Y-7050000D01*
G37*
G36*
X27685530Y-5255710D02*
X27735379Y-5270831D01*
X27781311Y-5295382D01*
X27821574Y-5328426D01*
X27854618Y-5368689D01*
X27879169Y-5414621D01*
X27894290Y-5464470D01*
X27900000Y-5522444D01*
X27900000Y-6527556D01*
X27894290Y-6585530D01*
X27879169Y-6635379D01*
X27854618Y-6681311D01*
X27821574Y-6721574D01*
X27781311Y-6754618D01*
X27735379Y-6779169D01*
X27685530Y-6794290D01*
X27627556Y-6800000D01*
X26372444Y-6800000D01*
X26314470Y-6794290D01*
X26264621Y-6779169D01*
X26218689Y-6754618D01*
X26178426Y-6721574D01*
X26145382Y-6681311D01*
X26120831Y-6635379D01*
X26105710Y-6585530D01*
X26100000Y-6527556D01*
X26100000Y-5522444D01*
X26105710Y-5464470D01*
X26120831Y-5414621D01*
X26145382Y-5368689D01*
X26178426Y-5328426D01*
X26218689Y-5295382D01*
X26264621Y-5270831D01*
X26314470Y-5255710D01*
X26372444Y-5250000D01*
X27627556Y-5250000D01*
X27685530Y-5255710D01*
X27685530Y-5255710D01*
G37*
G36*
X7035530Y-4605710D02*
X7085379Y-4620831D01*
X7131311Y-4645382D01*
X7171574Y-4678426D01*
X7204618Y-4718689D01*
X7229169Y-4764621D01*
X7244290Y-4814470D01*
X7250000Y-4872444D01*
X7250000Y-6127556D01*
X7244290Y-6185530D01*
X7229169Y-6235379D01*
X7204618Y-6281311D01*
X7171574Y-6321574D01*
X7131311Y-6354618D01*
X7085379Y-6379169D01*
X7035530Y-6394290D01*
X6977556Y-6400000D01*
X5972444Y-6400000D01*
X5914470Y-6394290D01*
X5864621Y-6379169D01*
X5818689Y-6354618D01*
X5778426Y-6321574D01*
X5745382Y-6281311D01*
X5720831Y-6235379D01*
X5705710Y-6185530D01*
X5700000Y-6127556D01*
X5700000Y-4872444D01*
X5705710Y-4814470D01*
X5720831Y-4764621D01*
X5745382Y-4718689D01*
X5778426Y-4678426D01*
X5818689Y-4645382D01*
X5864621Y-4620831D01*
X5914470Y-4605710D01*
X5972444Y-4600000D01*
X6977556Y-4600000D01*
X7035530Y-4605710D01*
X7035530Y-4605710D01*
G37*
G36*
X9085530Y-4605710D02*
X9135379Y-4620831D01*
X9181311Y-4645382D01*
X9221574Y-4678426D01*
X9254618Y-4718689D01*
X9279169Y-4764621D01*
X9294290Y-4814470D01*
X9300000Y-4872444D01*
X9300000Y-6127556D01*
X9294290Y-6185530D01*
X9279169Y-6235379D01*
X9254618Y-6281311D01*
X9221574Y-6321574D01*
X9181311Y-6354618D01*
X9135379Y-6379169D01*
X9085530Y-6394290D01*
X9027556Y-6400000D01*
X8022444Y-6400000D01*
X7964470Y-6394290D01*
X7914621Y-6379169D01*
X7868689Y-6354618D01*
X7828426Y-6321574D01*
X7795382Y-6281311D01*
X7770831Y-6235379D01*
X7755710Y-6185530D01*
X7750000Y-6127556D01*
X7750000Y-4872444D01*
X7755710Y-4814470D01*
X7770831Y-4764621D01*
X7795382Y-4718689D01*
X7828426Y-4678426D01*
X7868689Y-4645382D01*
X7914621Y-4620831D01*
X7964470Y-4605710D01*
X8022444Y-4600000D01*
X9027556Y-4600000D01*
X9085530Y-4605710D01*
X9085530Y-4605710D01*
G37*
G36*
X27685530Y-3205710D02*
X27735379Y-3220831D01*
X27781311Y-3245382D01*
X27821574Y-3278426D01*
X27854618Y-3318689D01*
X27879169Y-3364621D01*
X27894290Y-3414470D01*
X27900000Y-3472444D01*
X27900000Y-4477556D01*
X27894290Y-4535530D01*
X27879169Y-4585379D01*
X27854618Y-4631311D01*
X27821574Y-4671574D01*
X27781311Y-4704618D01*
X27735379Y-4729169D01*
X27685530Y-4744290D01*
X27627556Y-4750000D01*
X26372444Y-4750000D01*
X26314470Y-4744290D01*
X26264621Y-4729169D01*
X26218689Y-4704618D01*
X26178426Y-4671574D01*
X26145382Y-4631311D01*
X26120831Y-4585379D01*
X26105710Y-4535530D01*
X26100000Y-4477556D01*
X26100000Y-3472444D01*
X26105710Y-3414470D01*
X26120831Y-3364621D01*
X26145382Y-3318689D01*
X26178426Y-3278426D01*
X26218689Y-3245382D01*
X26264621Y-3220831D01*
X26314470Y-3205710D01*
X26372444Y-3200000D01*
X27627556Y-3200000D01*
X27685530Y-3205710D01*
X27685530Y-3205710D01*
G37*
G36*
X17675770Y-1015372D02*
X17791689Y-1038429D01*
X17973678Y-1113811D01*
X18137463Y-1223249D01*
X18276751Y-1362537D01*
X18386189Y-1526322D01*
X18461571Y-1708311D01*
X18500000Y-1901509D01*
X18500000Y-2098491D01*
X18461571Y-2291689D01*
X18386189Y-2473678D01*
X18276751Y-2637463D01*
X18137463Y-2776751D01*
X17973678Y-2886189D01*
X17791689Y-2961571D01*
X17675770Y-2984628D01*
X17598493Y-3000000D01*
X17401507Y-3000000D01*
X17324230Y-2984628D01*
X17208311Y-2961571D01*
X17026322Y-2886189D01*
X16862537Y-2776751D01*
X16723249Y-2637463D01*
X16613811Y-2473678D01*
X16538429Y-2291689D01*
X16500000Y-2098491D01*
X16500000Y-1901509D01*
X16538429Y-1708311D01*
X16613811Y-1526322D01*
X16723249Y-1362537D01*
X16862537Y-1223249D01*
X17026322Y-1113811D01*
X17208311Y-1038429D01*
X17324230Y-1015372D01*
X17401507Y-1000000D01*
X17598493Y-1000000D01*
X17675770Y-1015372D01*
X17675770Y-1015372D01*
G37*
M02*
