M48
;DRILL file {KiCad (5.0.1)-3} date 23/11/2018 05:00:43
;FORMAT={-:-/ absolute / metric / decimal}
FMAT,2
METRIC,TZ
T1C0.500
T2C1.000
%
G90
G05
M71
T1
X7.5Y-17.5
X10.Y-5.5
X10.Y-8.5
X10.Y-11.5
X11.Y-13.5
X12.Y-9.5
X15.Y-10.495
X15.Y-12.5
X17.Y-10.495
X17.Y-12.5
X18.5Y-8.
X18.5Y-9.5
X18.5Y-11.
X20.Y-12.
X23.Y-18.5
X25.Y-4.
X25.Y-11.
X29.Y-4.
X29.Y-11.
T2
X32.5Y-6.
X32.5Y-8.54
X32.5Y-11.08
X32.5Y-13.62
X32.5Y-16.16
X2.Y-6.
X2.Y-8.54
X2.Y-11.08
X2.Y-13.62
X2.Y-16.16
T0
M30
