%FSLAX45Y45*%
G04 Gerber Fmt 4.5, Leading zero omitted, Abs format (unit mm)*
G04 Created by KiCad (PCBNEW (5.0.1)-3) date 23/11/2018 05:00:51*
%MOMM*%
%LPD*%
G01*
G04 APERTURE LIST*
%ADD10C,0.100000*%
%ADD11C,0.200000*%
%ADD12C,0.300000*%
G04 APERTURE END LIST*
D10*
X3550000Y0D02*
X0Y0D01*
X3550000Y-2200000D02*
X3550000Y0D01*
X0Y-2200000D02*
X3550000Y-2200000D01*
X0Y0D02*
X0Y-2200000D01*
D11*
D12*
X281428Y-2670714D02*
X281428Y-2370714D01*
X352857Y-2370714D01*
X395714Y-2385000D01*
X424286Y-2413572D01*
X438571Y-2442143D01*
X452857Y-2499286D01*
X452857Y-2542143D01*
X438571Y-2599286D01*
X424286Y-2627857D01*
X395714Y-2656429D01*
X352857Y-2670714D01*
X281428Y-2670714D01*
X581428Y-2670714D02*
X581428Y-2470714D01*
X581428Y-2527857D02*
X595714Y-2499286D01*
X610000Y-2485000D01*
X638571Y-2470714D01*
X667143Y-2470714D01*
X767143Y-2670714D02*
X767143Y-2470714D01*
X767143Y-2370714D02*
X752857Y-2385000D01*
X767143Y-2399286D01*
X781428Y-2385000D01*
X767143Y-2370714D01*
X767143Y-2399286D01*
X952857Y-2670714D02*
X924286Y-2656429D01*
X910000Y-2627857D01*
X910000Y-2370714D01*
X1110000Y-2670714D02*
X1081428Y-2656429D01*
X1067143Y-2627857D01*
X1067143Y-2370714D01*
X1452857Y-2670714D02*
X1452857Y-2370714D01*
X1552857Y-2585000D01*
X1652857Y-2370714D01*
X1652857Y-2670714D01*
X1924286Y-2670714D02*
X1924286Y-2513572D01*
X1910000Y-2485000D01*
X1881428Y-2470714D01*
X1824286Y-2470714D01*
X1795714Y-2485000D01*
X1924286Y-2656429D02*
X1895714Y-2670714D01*
X1824286Y-2670714D01*
X1795714Y-2656429D01*
X1781428Y-2627857D01*
X1781428Y-2599286D01*
X1795714Y-2570714D01*
X1824286Y-2556429D01*
X1895714Y-2556429D01*
X1924286Y-2542143D01*
X2067143Y-2470714D02*
X2067143Y-2770714D01*
X2067143Y-2485000D02*
X2095714Y-2470714D01*
X2152857Y-2470714D01*
X2181428Y-2485000D01*
X2195714Y-2499286D01*
X2210000Y-2527857D01*
X2210000Y-2613572D01*
X2195714Y-2642143D01*
X2181428Y-2656429D01*
X2152857Y-2670714D01*
X2095714Y-2670714D01*
X2067143Y-2656429D01*
X2338571Y-2642143D02*
X2352857Y-2656429D01*
X2338571Y-2670714D01*
X2324286Y-2656429D01*
X2338571Y-2642143D01*
X2338571Y-2670714D01*
X2338571Y-2485000D02*
X2352857Y-2499286D01*
X2338571Y-2513572D01*
X2324286Y-2499286D01*
X2338571Y-2485000D01*
X2338571Y-2513572D01*
M02*
