  0
SECTION
  2
HEADER
  9
$ACADVER
  1
AC1009
  9
$DWGCODEPAGE
  3
ansi_1252
  9
$INSBASE
 10
0.0
 20
0.0
 30
0.0
  9
$EXTMIN
 10
-20.01573970124076
 20
-79.20397365781113
 30
0.0
  9
$EXTMAX
 10
-5.677749500279336
 20
-71.81983203731932
 30
0.0
  9
$LIMMIN
 10
0.0
 20
0.0
  9
$LIMMAX
 10
12.0
 20
9.0
  9
$ORTHOMODE
 70
     0
  9
$REGENMODE
 70
     1
  9
$FILLMODE
 70
     1
  9
$QTEXTMODE
 70
     0
  9
$MIRRTEXT
 70
     1
  9
$DRAGMODE
 70
     2
  9
$LTSCALE
 40
1.0
  9
$OSMODE
 70
    37
  9
$ATTMODE
 70
     1
  9
$TEXTSIZE
 40
0.2
  9
$TRACEWID
 40
0.05
  9
$TEXTSTYLE
  7
STANDARD
  9
$CLAYER
  8
0
  9
$CELTYPE
  6
BYLAYER
  9
$CECOLOR
 62
   256
  9
$DIMSCALE
 40
1.0
  9
$DIMASZ
 40
0.18
  9
$DIMEXO
 40
0.0625
  9
$DIMDLI
 40
0.38
  9
$DIMRND
 40
0.0
  9
$DIMDLE
 40
0.0
  9
$DIMEXE
 40
0.18
  9
$DIMTP
 40
0.0
  9
$DIMTM
 40
0.0
  9
$DIMTXT
 40
0.18
  9
$DIMCEN
 40
0.09
  9
$DIMTSZ
 40
0.0
  9
$DIMTOL
 70
     0
  9
$DIMLIM
 70
     0
  9
$DIMTIH
 70
     1
  9
$DIMTOH
 70
     1
  9
$DIMSE1
 70
     0
  9
$DIMSE2
 70
     0
  9
$DIMTAD
 70
     0
  9
$DIMZIN
 70
     0
  9
$DIMBLK
  1

  9
$DIMASO
 70
     1
  9
$DIMSHO
 70
     1
  9
$DIMPOST
  1

  9
$DIMAPOST
  1

  9
$DIMALT
 70
     0
  9
$DIMALTD
 70
     2
  9
$DIMALTF
 40
25.4
  9
$DIMLFAC
 40
1.0
  9
$DIMTOFL
 70
     0
  9
$DIMTVP
 40
0.0
  9
$DIMTIX
 70
     0
  9
$DIMSOXD
 70
     0
  9
$DIMSAH
 70
     0
  9
$DIMBLK1
  1

  9
$DIMBLK2
  1

  9
$DIMSTYLE
  2
STANDARD
  9
$DIMCLRD
 70
     0
  9
$DIMCLRE
 70
     0
  9
$DIMCLRT
 70
     0
  9
$DIMTFAC
 40
1.0
  9
$DIMGAP
 40
0.09
  9
$LUNITS
 70
     2
  9
$LUPREC
 70
     3
  9
$SKETCHINC
 40
0.1
  9
$FILLETRAD
 40
0.5
  9
$AUNITS
 70
     0
  9
$AUPREC
 70
     0
  9
$MENU
  1
.
  9
$ELEVATION
 40
0.0
  9
$PELEVATION
 40
0.0
  9
$THICKNESS
 40
0.0
  9
$LIMCHECK
 70
     0
  9
$CHAMFERA
 40
0.5
  9
$CHAMFERB
 40
0.5
  9
$SKPOLY
 70
     0
  9
$TDCREATE
 40
2458405.868114757
  9
$TDUPDATE
 40
2458405.868114769
  9
$TDINDWG
 40
0.0000000116
  9
$TDUSRTIMER
 40
0.0000000116
  9
$USRTIMER
 70
     1
  9
$ANGBASE
 50
0.0
  9
$ANGDIR
 70
     0
  9
$PDMODE
 70
     0
  9
$PDSIZE
 40
0.0
  9
$PLINEWID
 40
0.0
  9
$COORDS
 70
     1
  9
$SPLFRAME
 70
     0
  9
$SPLINETYPE
 70
     6
  9
$SPLINESEGS
 70
     8
  9
$ATTDIA
 70
     0
  9
$ATTREQ
 70
     1
  9
$HANDLING
 70
     1
  9
$HANDSEED
  5
723
  9
$SURFTAB1
 70
     6
  9
$SURFTAB2
 70
     6
  9
$SURFTYPE
 70
     6
  9
$SURFU
 70
     6
  9
$SURFV
 70
     6
  9
$UCSNAME
  2

  9
$UCSORG
 10
0.0
 20
0.0
 30
0.0
  9
$UCSXDIR
 10
1.0
 20
0.0
 30
0.0
  9
$UCSYDIR
 10
0.0
 20
1.0
 30
0.0
  9
$PUCSNAME
  2

  9
$PUCSORG
 10
0.0
 20
0.0
 30
0.0
  9
$PUCSXDIR
 10
1.0
 20
0.0
 30
0.0
  9
$PUCSYDIR
 10
0.0
 20
1.0
 30
0.0
  9
$USERI1
 70
     0
  9
$USERI2
 70
     0
  9
$USERI3
 70
     0
  9
$USERI4
 70
     0
  9
$USERI5
 70
     0
  9
$USERR1
 40
0.0
  9
$USERR2
 40
0.0
  9
$USERR3
 40
0.0
  9
$USERR4
 40
0.0
  9
$USERR5
 40
0.0
  9
$WORLDVIEW
 70
     1
  9
$SHADEDGE
 70
     3
  9
$SHADEDIF
 70
    70
  9
$TILEMODE
 70
     1
  9
$MAXACTVP
 70
    64
  9
$PLIMCHECK
 70
     0
  9
$PEXTMIN
 10
1.000000000000000E+20
 20
1.000000000000000E+20
 30
1.000000000000000E+20
  9
$PEXTMAX
 10
-1.000000000000000E+20
 20
-1.000000000000000E+20
 30
-1.000000000000000E+20
  9
$PLIMMIN
 10
0.0
 20
0.0
  9
$PLIMMAX
 10
12.0
 20
9.0
  9
$UNITMODE
 70
     0
  9
$VISRETAIN
 70
     1
  9
$PLINEGEN
 70
     0
  9
$PSLTSCALE
 70
     1
  0
ENDSEC
  0
SECTION
  2
TABLES
  0
TABLE
  2
VPORT
 70
     1
  0
VPORT
  2
*ACTIVE
 70
     0
 10
0.0
 20
0.0
 11
1.0
 21
1.0
 12
-12.84674460076005
 22
-75.51190284756522
 13
0.0
 23
0.0
 14
0.5
 24
0.5
 15
0.5
 25
0.5
 16
0.0
 26
0.0
 36
1.0
 17
0.0
 27
0.0
 37
0.0
 40
7.531824452901654
 41
1.941727412319924
 42
50.0
 43
0.0
 44
0.0
 50
0.0
 51
0.0
 71
     0
 72
   100
 73
     1
 74
     3
 75
     0
 76
     0
 77
     0
 78
     0
  0
ENDTAB
  0
TABLE
  2
LTYPE
 70
     1
  0
LTYPE
  2
CONTINUOUS
 70
     0
  3
Solid line
 72
    65
 73
     0
 40
0.0
  0
ENDTAB
  0
TABLE
  2
LAYER
 70
     3
  0
LAYER
  2
0
 70
     0
 62
     7
  6
CONTINUOUS
  0
LAYER
  2
SUAVIZADO_EXTERNO
 70
     0
 62
     7
  6
CONTINUOUS
  0
LAYER
  2
SUAVIZADA_INTERNA
 70
     0
 62
     7
  6
CONTINUOUS
  0
ENDTAB
  0
TABLE
  2
STYLE
 70
     1
  0
STYLE
  2
STANDARD
 70
     0
 40
0.0
 41
1.0
 50
0.0
 71
     0
 42
0.2
  3
txt
  4

  0
ENDTAB
  0
TABLE
  2
VIEW
 70
     0
  0
ENDTAB
  0
TABLE
  2
UCS
 70
     0
  0
ENDTAB
  0
TABLE
  2
APPID
 70
     1
  0
APPID
  2
ACAD
 70
     0
  0
ENDTAB
  0
TABLE
  2
DIMSTYLE
 70
     1
  0
DIMSTYLE
  2
STANDARD
 70
     0
  3

  4

  5

  6

  7

 40
1.0
 41
0.18
 42
0.0625
 43
0.38
 44
0.18
 45
0.0
 46
0.0
 47
0.0
 48
0.0
140
0.18
141
0.09
142
0.0
143
25.4
144
1.0
145
0.0
146
1.0
147
0.09
 71
     0
 72
     0
 73
     1
 74
     1
 75
     0
 76
     0
 77
     0
 78
     0
170
     0
171
     2
172
     0
173
     0
174
     0
175
     0
176
     0
177
     0
178
     0
  0
ENDTAB
  0
ENDSEC
  0
SECTION
  2
BLOCKS
  0
BLOCK
  8
0
  2
$MODEL_SPACE
 70
     0
 10
0.0
 20
0.0
 30
0.0
  3
$MODEL_SPACE
  1

  0
ENDBLK
  5
21
  8
0
  0
BLOCK
 67
     1
  8
0
  2
$PAPER_SPACE
 70
     0
 10
0.0
 20
0.0
 30
0.0
  3
$PAPER_SPACE
  1

  0
ENDBLK
  5
1D
 67
     1
  8
0
  0
ENDSEC
  0
SECTION
  2
ENTITIES
  0
POLYLINE
  5
3C
  8
SUAVIZADO_EXTERNO
 66
     1
 10
0.0
 20
0.0
 30
0.0
  0
VERTEX
  5
3D
  8
SUAVIZADO_EXTERNO
 10
-10.56167325112868
 20
-75.15354214535843
 30
0.0
  0
VERTEX
  5
3E
  8
SUAVIZADO_EXTERNO
 10
-10.2399995154711
 20
-75.15798790223573
 30
0.0
  0
VERTEX
  5
3F
  8
SUAVIZADO_EXTERNO
 10
-9.894957611636372
 20
-75.15354214535843
 30
0.0
  0
VERTEX
  5
40
  8
SUAVIZADO_EXTERNO
 10
-7.062310527158553
 20
-75.04874127557298
 30
0.0
  0
VERTEX
  5
41
  8
SUAVIZADO_EXTERNO
 10
-7.017199373235795
 20
-75.04620373220769
 30
0.0
  0
VERTEX
  5
42
  8
SUAVIZADO_EXTERNO
 10
-6.972604273309011
 20
-75.04235739726732
 30
0.0
  0
VERTEX
  5
43
  8
SUAVIZADO_EXTERNO
 10
-6.950358927505791
 20
-75.0398386322363
 30
0.0
  0
VERTEX
  5
44
  8
SUAVIZADO_EXTERNO
 10
-6.928073015895582
 20
-75.03686690844728
 30
0.0
  0
VERTEX
  5
45
  8
SUAVIZADO_EXTERNO
 10
-6.89064929283758
 20
-75.03090268011455
 30
0.0
  0
VERTEX
  5
46
  8
SUAVIZADO_EXTERNO
 10
-6.781546026870757
 20
-75.0110244365924
 30
0.0
  0
VERTEX
  5
47
  8
SUAVIZADO_EXTERNO
 10
-6.747834237531255
 20
-75.00584757261859
 30
0.0
  0
VERTEX
  5
48
  8
SUAVIZADO_EXTERNO
 10
-6.731746336187464
 20
-75.00388711192628
 30
0.0
  0
VERTEX
  5
49
  8
SUAVIZADO_EXTERNO
 10
-6.716250430306663
 20
-75.00245085226572
 30
0.0
  0
VERTEX
  5
4A
  8
SUAVIZADO_EXTERNO
 10
-6.708743225644341
 20
-75.00195403692442
 30
0.0
  0
VERTEX
  5
4B
  8
SUAVIZADO_EXTERNO
 10
-6.701406519823117
 20
-75.00161795876355
 30
0.0
  0
VERTEX
  5
4C
  8
SUAVIZADO_EXTERNO
 10
-6.694247812834774
 20
-75.00145251342389
 30
0.0
  0
VERTEX
  5
4D
  8
SUAVIZADO_EXTERNO
 10
-6.687274604671092
 20
-75.00146759654626
 30
0.0
  0
VERTEX
  5
4E
  8
SUAVIZADO_EXTERNO
 10
-6.680494395323858
 20
-75.00167310377151
 30
0.0
  0
VERTEX
  5
4F
  8
SUAVIZADO_EXTERNO
 10
-6.673914684784851
 20
-75.00207893074045
 30
0.0
  0
VERTEX
  5
50
  8
SUAVIZADO_EXTERNO
 10
-6.670702360315866
 20
-75.00236005651655
 30
0.0
  0
VERTEX
  5
51
  8
SUAVIZADO_EXTERNO
 10
-6.667542973045856
 20
-75.00269497309388
 30
0.0
  0
VERTEX
  5
52
  8
SUAVIZADO_EXTERNO
 10
-6.664437460473796
 20
-75.00308491742754
 30
0.0
  0
VERTEX
  5
53
  8
SUAVIZADO_EXTERNO
 10
-6.661386760098658
 20
-75.00353112647265
 30
0.0
  0
VERTEX
  5
54
  8
SUAVIZADO_EXTERNO
 10
-6.657532806154924
 20
-75.00419083593606
 30
0.0
  0
VERTEX
  5
55
  8
SUAVIZADO_EXTERNO
 10
-6.653767465437911
 20
-75.00494283062922
 30
0.0
  0
VERTEX
  5
56
  8
SUAVIZADO_EXTERNO
 10
-6.650086578072582
 20
-75.00578370722475
 30
0.0
  0
VERTEX
  5
57
  8
SUAVIZADO_EXTERNO
 10
-6.646485984183903
 20
-75.00671006239526
 30
0.0
  0
VERTEX
  5
58
  8
SUAVIZADO_EXTERNO
 10
-6.642961523896836
 20
-75.00771849281337
 30
0.0
  0
VERTEX
  5
59
  8
SUAVIZADO_EXTERNO
 10
-6.639509037336347
 20
-75.00880559515168
 30
0.0
  0
VERTEX
  5
5A
  8
SUAVIZADO_EXTERNO
 10
-6.636124364627399
 20
-75.00996796608283
 30
0.0
  0
VERTEX
  5
5B
  8
SUAVIZADO_EXTERNO
 10
-6.632803345894956
 20
-75.01120220227943
 30
0.0
  0
VERTEX
  5
5C
  8
SUAVIZADO_EXTERNO
 10
-6.629541821263985
 20
-75.01250490041411
 30
0.0
  0
VERTEX
  5
5D
  8
SUAVIZADO_EXTERNO
 10
-6.626335630859446
 20
-75.01387265715945
 30
0.0
  0
VERTEX
  5
5E
  8
SUAVIZADO_EXTERNO
 10
-6.623180614806305
 20
-75.01530206918808
 30
0.0
  0
VERTEX
  5
5F
  8
SUAVIZADO_EXTERNO
 10
-6.620072613229526
 20
-75.01678973317263
 30
0.0
  0
VERTEX
  5
60
  8
SUAVIZADO_EXTERNO
 10
-6.617007466254075
 20
-75.01833224578573
 30
0.0
  0
VERTEX
  5
61
  8
SUAVIZADO_EXTERNO
 10
-6.613981014004914
 20
-75.01992620369995
 30
0.0
  0
VERTEX
  5
62
  8
SUAVIZADO_EXTERNO
 10
-6.608027554185319
 20
-75.0232548421223
 30
0.0
  0
VERTEX
  5
63
  8
SUAVIZADO_EXTERNO
 10
-6.602178954770457
 20
-75.02674842182064
 30
0.0
  0
VERTEX
  5
64
  8
SUAVIZADO_EXTERNO
 10
-6.596401936760039
 20
-75.03037971617589
 30
0.0
  0
VERTEX
  5
65
  8
SUAVIZADO_EXTERNO
 10
-6.56137941417481
 20
-75.05353479943459
 30
0.0
  0
VERTEX
  5
66
  8
SUAVIZADO_EXTERNO
 10
-6.554768036438571
 20
-75.05761980490907
 30
0.0
  0
VERTEX
  5
67
  8
SUAVIZADO_EXTERNO
 10
-6.547989765457659
 20
-75.06163279522119
 30
0.0
  0
VERTEX
  5
68
  8
SUAVIZADO_EXTERNO
 10
-6.541060911939628
 20
-75.06556178002248
 30
0.0
  0
VERTEX
  5
69
  8
SUAVIZADO_EXTERNO
 10
-6.533997786592026
 20
-75.06939476896444
 30
0.0
  0
VERTEX
  5
6A
  8
SUAVIZADO_EXTERNO
 10
-6.526816700122411
 20
-75.07311977169863
 30
0.0
  0
VERTEX
  5
6B
  8
SUAVIZADO_EXTERNO
 10
-6.519533963238333
 20
-75.07672479787655
 30
0.0
  0
VERTEX
  5
6C
  8
SUAVIZADO_EXTERNO
 10
-6.512165886647344
 20
-75.08019785714974
 30
0.0
  0
VERTEX
  5
6D
  8
SUAVIZADO_EXTERNO
 10
-6.504728781056997
 20
-75.0835269591697
 30
0.0
  0
VERTEX
  5
6E
  8
SUAVIZADO_EXTERNO
 10
-6.497238957174845
 20
-75.08670011358798
 30
0.0
  0
VERTEX
  5
6F
  8
SUAVIZADO_EXTERNO
 10
-6.489712725708441
 20
-75.08970533005609
 30
0.0
  0
VERTEX
  5
70
  8
SUAVIZADO_EXTERNO
 10
-6.482166397365337
 20
-75.09253061822555
 30
0.0
  0
VERTEX
  5
71
  8
SUAVIZADO_EXTERNO
 10
-6.474616282853084
 20
-75.0951639877479
 30
0.0
  0
VERTEX
  5
72
  8
SUAVIZADO_EXTERNO
 10
-6.467078692879237
 20
-75.09759344827464
 30
0.0
  0
VERTEX
  5
73
  8
SUAVIZADO_EXTERNO
 10
-6.459569938151349
 20
-75.0998070094573
 30
0.0
  0
VERTEX
  5
74
  8
SUAVIZADO_EXTERNO
 10
-6.452106329376971
 20
-75.1017926809474
 30
0.0
  0
VERTEX
  5
75
  8
SUAVIZADO_EXTERNO
 10
-6.444704177263654
 20
-75.10353847239651
 30
0.0
  0
VERTEX
  5
76
  8
SUAVIZADO_EXTERNO
 10
-6.438151584009445
 20
-75.10489203824707
 30
0.0
  0
VERTEX
  5
77
  8
SUAVIZADO_EXTERNO
 10
-6.431657251883757
 20
-75.10607259739092
 30
0.0
  0
VERTEX
  5
78
  8
SUAVIZADO_EXTERNO
 10
-6.418827962523098
 20
-75.10802735014545
 30
0.0
  0
VERTEX
  5
79
  8
SUAVIZADO_EXTERNO
 10
-6.375194413123467
 20
-75.11355932959816
 30
0.0
  0
VERTEX
  5
7A
  8
SUAVIZADO_EXTERNO
 10
-6.369070825478799
 20
-75.11455882224652
 30
0.0
  0
VERTEX
  5
7B
  8
SUAVIZADO_EXTERNO
 10
-6.36296312560181
 20
-75.1156951083025
 30
0.0
  0
VERTEX
  5
7C
  8
SUAVIZADO_EXTERNO
 10
-6.356867461368792
 20
-75.11699635141288
 30
0.0
  0
VERTEX
  5
7D
  8
SUAVIZADO_EXTERNO
 10
-6.350779980656029
 20
-75.1184907152244
 30
0.0
  0
VERTEX
  5
7E
  8
SUAVIZADO_EXTERNO
 10
-6.347738105331083
 20
-75.1193191185327
 30
0.0
  0
VERTEX
  5
7F
  8
SUAVIZADO_EXTERNO
 10
-6.344696831339808
 20
-75.12020636338383
 30
0.0
  0
VERTEX
  5
80
  8
SUAVIZADO_EXTERNO
 10
-6.341503305470191
 20
-75.12120413234626
 30
0.0
  0
VERTEX
  5
81
  8
SUAVIZADO_EXTERNO
 10
-6.338310300291027
 20
-75.12226773616914
 30
0.0
  0
VERTEX
  5
82
  8
SUAVIZADO_EXTERNO
 10
-6.331927406213284
 20
-75.1245806911183
 30
0.0
  0
VERTEX
  5
83
  8
SUAVIZADO_EXTERNO
 10
-6.325551257525029
 20
-75.12712171367548
 30
0.0
  0
VERTEX
  5
84
  8
SUAVIZADO_EXTERNO
 10
-6.319184962644713
 20
-75.12986728928487
 30
0.0
  0
VERTEX
  5
85
  8
SUAVIZADO_EXTERNO
 10
-6.312831629990786
 20
-75.13279390339062
 30
0.0
  0
VERTEX
  5
86
  8
SUAVIZADO_EXTERNO
 10
-6.306494367981699
 20
-75.1358780414369
 30
0.0
  0
VERTEX
  5
87
  8
SUAVIZADO_EXTERNO
 10
-6.293880489571839
 20
-75.14242483112773
 30
0.0
  0
VERTEX
  5
88
  8
SUAVIZADO_EXTERNO
 10
-6.234047161297919
 20
-75.17598837774193
 30
0.0
  0
VERTEX
  5
89
  8
SUAVIZADO_EXTERNO
 10
-6.223533855427641
 20
-75.1813967504261
 30
0.0
  0
VERTEX
  5
8A
  8
SUAVIZADO_EXTERNO
 10
-6.213117186145673
 20
-75.18638994323291
 30
0.0
  0
VERTEX
  5
8B
  8
SUAVIZADO_EXTERNO
 10
-6.207934970956723
 20
-75.18871671869316
 30
0.0
  0
VERTEX
  5
8C
  8
SUAVIZADO_EXTERNO
 10
-6.202764771792554
 20
-75.19092274499707
 30
0.0
  0
VERTEX
  5
8D
  8
SUAVIZADO_EXTERNO
 10
-6.197602540945734
 20
-75.19300237074897
 30
0.0
  0
VERTEX
  5
8E
  8
SUAVIZADO_EXTERNO
 10
-6.192444230708828
 20
-75.1949499445532
 30
0.0
  0
VERTEX
  5
8F
  8
SUAVIZADO_EXTERNO
 10
-6.187285793374407
 20
-75.19675981501412
 30
0.0
  0
VERTEX
  5
90
  8
SUAVIZADO_EXTERNO
 10
-6.182123181235037
 20
-75.19842633073603
 30
0.0
  0
VERTEX
  5
91
  8
SUAVIZADO_EXTERNO
 10
-6.176952346583285
 20
-75.19994384032327
 30
0.0
  0
VERTEX
  5
92
  8
SUAVIZADO_EXTERNO
 10
-6.171769241711721
 20
-75.20130669238019
 30
0.0
  0
VERTEX
  5
93
  8
SUAVIZADO_EXTERNO
 10
-6.166569818912912
 20
-75.2025092355111
 30
0.0
  0
VERTEX
  5
94
  8
SUAVIZADO_EXTERNO
 10
-6.161350030479424
 20
-75.20354581832035
 30
0.0
  0
VERTEX
  5
95
  8
SUAVIZADO_EXTERNO
 10
-6.156297979784994
 20
-75.20438459908718
 30
0.0
  0
VERTEX
  5
96
  8
SUAVIZADO_EXTERNO
 10
-6.151223575728037
 20
-75.20507242473529
 30
0.0
  0
VERTEX
  5
97
  8
SUAVIZADO_EXTERNO
 10
-6.146127132165118
 20
-75.20561767762533
 30
0.0
  0
VERTEX
  5
98
  8
SUAVIZADO_EXTERNO
 10
-6.141008962952807
 20
-75.20602874011799
 30
0.0
  0
VERTEX
  5
99
  8
SUAVIZADO_EXTERNO
 10
-6.135869381947668
 20
-75.20631399457393
 30
0.0
  0
VERTEX
  5
9A
  8
SUAVIZADO_EXTERNO
 10
-6.13070870300627
 20
-75.20648182335384
 30
0.0
  0
VERTEX
  5
9B
  8
SUAVIZADO_EXTERNO
 10
-6.12552723998518
 20
-75.2065406088184
 30
0.0
  0
VERTEX
  5
9C
  8
SUAVIZADO_EXTERNO
 10
-6.120325306740968
 20
-75.20649873332827
 30
0.0
  0
VERTEX
  5
9D
  8
SUAVIZADO_EXTERNO
 10
-6.109861285009439
 20
-75.20614652892671
 30
0.0
  0
VERTEX
  5
9E
  8
SUAVIZADO_EXTERNO
 10
-6.099319148664224
 20
-75.2054922690346
 30
0.0
  0
VERTEX
  5
9F
  8
SUAVIZADO_EXTERNO
 10
-6.078010575542884
 20
-75.20354581832035
 30
0.0
  0
VERTEX
  5
A0
  8
SUAVIZADO_EXTERNO
 10
-6.056289985207515
 20
-75.20101262844416
 30
0.0
  0
VERTEX
  5
A1
  8
SUAVIZADO_EXTERNO
 10
-6.045486420972803
 20
-75.19946465317554
 30
0.0
  0
VERTEX
  5
A2
  8
SUAVIZADO_EXTERNO
 10
-6.034808517742651
 20
-75.19766132281345
 30
0.0
  0
VERTEX
  5
A3
  8
SUAVIZADO_EXTERNO
 10
-6.024322155803995
 20
-75.19555181120302
 30
0.0
  0
VERTEX
  5
A4
  8
SUAVIZADO_EXTERNO
 10
-6.019171390408644
 20
-75.19436635425627
 30
0.0
  0
VERTEX
  5
A5
  8
SUAVIZADO_EXTERNO
 10
-6.014093215443769
 20
-75.19308529218937
 30
0.0
  0
VERTEX
  5
A6
  8
SUAVIZADO_EXTERNO
 10
-6.009095865945234
 20
-75.19170227173295
 30
0.0
  0
VERTEX
  5
A7
  8
SUAVIZADO_EXTERNO
 10
-6.004187576948907
 20
-75.19021093961767
 30
0.0
  0
VERTEX
  5
A8
  8
SUAVIZADO_EXTERNO
 10
-5.999376583490655
 20
-75.18860494257416
 30
0.0
  0
VERTEX
  5
A9
  8
SUAVIZADO_EXTERNO
 10
-5.994671120606345
 20
-75.18687792733304
 30
0.0
  0
VERTEX
  5
AA
  8
SUAVIZADO_EXTERNO
 10
-5.990363880944011
 20
-75.18514794616135
 30
0.0
  0
VERTEX
  5
AB
  8
SUAVIZADO_EXTERNO
 10
-5.986142112654139
 20
-75.18331764896541
 30
0.0
  0
VERTEX
  5
AC
  8
SUAVIZADO_EXTERNO
 10
-5.981991508068787
 20
-75.18139843188752
 30
0.0
  0
VERTEX
  5
AD
  8
SUAVIZADO_EXTERNO
 10
-5.977897759520014
 20
-75.17940169107
 30
0.0
  0
VERTEX
  5
AE
  8
SUAVIZADO_EXTERNO
 10
-5.969823599860437
 20
-75.17522122278511
 30
0.0
  0
VERTEX
  5
AF
  8
SUAVIZADO_EXTERNO
 10
-5.945477668293664
 20
-75.16200444697641
 30
0.0
  0
VERTEX
  5
B0
  8
SUAVIZADO_EXTERNO
 10
-5.936939669096949
 20
-75.15767762851644
 30
0.0
  0
VERTEX
  5
B1
  8
SUAVIZADO_EXTERNO
 10
-5.932527030866392
 20
-75.15558027195354
 30
0.0
  0
VERTEX
  5
B2
  8
SUAVIZADO_EXTERNO
 10
-5.927999556657114
 20
-75.15354214535843
 30
0.0
  0
VERTEX
  5
B3
  8
SUAVIZADO_EXTERNO
 10
-5.922889560331185
 20
-75.15138260916231
 30
0.0
  0
VERTEX
  5
B4
  8
SUAVIZADO_EXTERNO
 10
-5.917649174508032
 20
-75.14929489951363
 30
0.0
  0
VERTEX
  5
B5
  8
SUAVIZADO_EXTERNO
 10
-5.874046471582441
 20
-75.1335927519188
 30
0.0
  0
VERTEX
  5
B6
  8
SUAVIZADO_EXTERNO
 10
-5.868762982369154
 20
-75.13155664640453
 30
0.0
  0
VERTEX
  5
B7
  8
SUAVIZADO_EXTERNO
 10
-5.863600304121951
 20
-75.12946018192824
 30
0.0
  0
VERTEX
  5
B8
  8
SUAVIZADO_EXTERNO
 10
-5.858583556887161
 20
-75.12729013993896
 30
0.0
  0
VERTEX
  5
B9
  8
SUAVIZADO_EXTERNO
 10
-5.853737860711114
 20
-75.12503330188576
 30
0.0
  0
VERTEX
  5
BA
  8
SUAVIZADO_EXTERNO
 10
-5.851387006784599
 20
-75.12386820353802
 30
0.0
  0
VERTEX
  5
BB
  8
SUAVIZADO_EXTERNO
 10
-5.849088335640142
 20
-75.12267644921769
 30
0.0
  0
VERTEX
  5
BC
  8
SUAVIZADO_EXTERNO
 10
-5.846844987283537
 20
-75.12145638660593
 30
0.0
  0
VERTEX
  5
BD
  8
SUAVIZADO_EXTERNO
 10
-5.844660101720574
 20
-75.12020636338382
 30
0.0
  0
VERTEX
  5
BE
  8
SUAVIZADO_EXTERNO
 10
-5.842771516058992
 20
-75.11907056114094
 30
0.0
  0
VERTEX
  5
BF
  8
SUAVIZADO_EXTERNO
 10
-5.84092896321653
 20
-75.1179096138844
 30
0.0
  0
VERTEX
  5
C0
  8
SUAVIZADO_EXTERNO
 10
-5.839129942949221
 20
-75.11672328248625
 30
0.0
  0
VERTEX
  5
C1
  8
SUAVIZADO_EXTERNO
 10
-5.837371955013099
 20
-75.11551132781861
 30
0.0
  0
VERTEX
  5
C2
  8
SUAVIZADO_EXTERNO
 10
-5.835652499164197
 20
-75.11427351075355
 30
0.0
  0
VERTEX
  5
C3
  8
SUAVIZADO_EXTERNO
 10
-5.833969075158548
 20
-75.11300959216321
 30
0.0
  0
VERTEX
  5
C4
  8
SUAVIZADO_EXTERNO
 10
-5.832319182752187
 20
-75.11171933291965
 30
0.0
  0
VERTEX
  5
C5
  8
SUAVIZADO_EXTERNO
 10
-5.830700321701144
 20
-75.110402493895
 30
0.0
  0
VERTEX
  5
C6
  8
SUAVIZADO_EXTERNO
 10
-5.829109991761455
 20
-75.10905883596132
 30
0.0
  0
VERTEX
  5
C7
  8
SUAVIZADO_EXTERNO
 10
-5.827545692689154
 20
-75.10768811999073
 30
0.0
  0
VERTEX
  5
C8
  8
SUAVIZADO_EXTERNO
 10
-5.824485186170842
 20
-75.10486455742718
 30
0.0
  0
VERTEX
  5
C9
  8
SUAVIZADO_EXTERNO
 10
-5.821498800194477
 20
-75.10192989318114
 30
0.0
  0
VERTEX
  5
CA
  8
SUAVIZADO_EXTERNO
 10
-5.818566532808322
 20
-75.09888221422936
 30
0.0
  0
VERTEX
  5
CB
  8
SUAVIZADO_EXTERNO
 10
-5.815668382060645
 20
-75.09571960754863
 30
0.0
  0
VERTEX
  5
CC
  8
SUAVIZADO_EXTERNO
 10
-5.812784345999713
 20
-75.09244016011573
 30
0.0
  0
VERTEX
  5
CD
  8
SUAVIZADO_EXTERNO
 10
-5.806978610131145
 20
-75.08552309090047
 30
0.0
  0
VERTEX
  5
CE
  8
SUAVIZADO_EXTERNO
 10
-5.794656428758648
 20
-75.0702026904219
 30
0.0
  0
VERTEX
  5
CF
  8
SUAVIZADO_EXTERNO
 10
-5.752140143337515
 20
-75.01648881045992
 30
0.0
  0
VERTEX
  5
D0
  8
SUAVIZADO_EXTERNO
 10
-5.741071306027333
 20
-75.00131651025052
 30
0.0
  0
VERTEX
  5
D1
  8
SUAVIZADO_EXTERNO
 10
-5.735664609190679
 20
-74.9935509863964
 30
0.0
  0
VERTEX
  5
D2
  8
SUAVIZADO_EXTERNO
 10
-5.730390014587327
 20
-74.98568580750529
 30
0.0
  0
VERTEX
  5
D3
  8
SUAVIZADO_EXTERNO
 10
-5.725282737983036
 20
-74.9777359191742
 30
0.0
  0
VERTEX
  5
D4
  8
SUAVIZADO_EXTERNO
 10
-5.720377995143563
 20
-74.96971626700008
 30
0.0
  0
VERTEX
  5
D5
  8
SUAVIZADO_EXTERNO
 10
-5.715711001834669
 20
-74.96164179657993
 30
0.0
  0
VERTEX
  5
D6
  8
SUAVIZADO_EXTERNO
 10
-5.71131697382211
 20
-74.95352745351073
 30
0.0
  0
VERTEX
  5
D7
  8
SUAVIZADO_EXTERNO
 10
-5.707306557864209
 20
-74.9455555358907
 30
0.0
  0
VERTEX
  5
D8
  8
SUAVIZADO_EXTERNO
 10
-5.703584771089793
 20
-74.93755542161998
 30
0.0
  0
VERTEX
  5
D9
  8
SUAVIZADO_EXTERNO
 10
-5.7001448195191
 20
-74.92952280918448
 30
0.0
  0
VERTEX
  5
DA
  8
SUAVIZADO_EXTERNO
 10
-5.696979909172368
 20
-74.92145339707008
 30
0.0
  0
VERTEX
  5
DB
  8
SUAVIZADO_EXTERNO
 10
-5.694083246069838
 20
-74.91334288376271
 30
0.0
  0
VERTEX
  5
DC
  8
SUAVIZADO_EXTERNO
 10
-5.691448036231748
 20
-74.90518696774825
 30
0.0
  0
VERTEX
  5
DD
  8
SUAVIZADO_EXTERNO
 10
-5.689067485678335
 20
-74.8969813475126
 30
0.0
  0
VERTEX
  5
DE
  8
SUAVIZADO_EXTERNO
 10
-5.686934800429837
 20
-74.88872172154169
 30
0.0
  0
VERTEX
  5
DF
  8
SUAVIZADO_EXTERNO
 10
-5.685043186506496
 20
-74.88040378832139
 30
0.0
  0
VERTEX
  5
E0
  8
SUAVIZADO_EXTERNO
 10
-5.683385849928548
 20
-74.8720232463376
 30
0.0
  0
VERTEX
  5
E1
  8
SUAVIZADO_EXTERNO
 10
-5.681955996716232
 20
-74.86357579407624
 30
0.0
  0
VERTEX
  5
E2
  8
SUAVIZADO_EXTERNO
 10
-5.680746832889788
 20
-74.85505713002321
 30
0.0
  0
VERTEX
  5
E3
  8
SUAVIZADO_EXTERNO
 10
-5.679751564469454
 20
-74.8464629526644
 30
0.0
  0
VERTEX
  5
E4
  8
SUAVIZADO_EXTERNO
 10
-5.678963397475469
 20
-74.8377889604857
 30
0.0
  0
VERTEX
  5
E5
  8
SUAVIZADO_EXTERNO
 10
-5.678375537928071
 20
-74.82903085197303
 30
0.0
  0
VERTEX
  5
E6
  8
SUAVIZADO_EXTERNO
 10
-5.677981191847498
 20
-74.82018432561227
 30
0.0
  0
VERTEX
  5
E7
  8
SUAVIZADO_EXTERNO
 10
-5.677775500985598
 20
-74.81135119580807
 30
0.0
  0
VERTEX
  5
E8
  8
SUAVIZADO_EXTERNO
 10
-5.677749500279336
 20
-74.80245515774237
 30
0.0
  0
VERTEX
  5
E9
  8
SUAVIZADO_EXTERNO
 10
-5.677900325668176
 20
-74.79352395416579
 30
0.0
  0
VERTEX
  5
EA
  8
SUAVIZADO_EXTERNO
 10
-5.678225113091587
 20
-74.78458532782895
 30
0.0
  0
VERTEX
  5
EB
  8
SUAVIZADO_EXTERNO
 10
-5.678720998489034
 20
-74.77566702148249
 30
0.0
  0
VERTEX
  5
EC
  8
SUAVIZADO_EXTERNO
 10
-5.679385117799985
 20
-74.766796777877
 30
0.0
  0
VERTEX
  5
ED
  8
SUAVIZADO_EXTERNO
 10
-5.680214606963905
 20
-74.75800233976315
 30
0.0
  0
VERTEX
  5
EE
  8
SUAVIZADO_EXTERNO
 10
-5.681206601920262
 20
-74.74931144989152
 30
0.0
  0
VERTEX
  5
EF
  8
SUAVIZADO_EXTERNO
 10
-5.682358238608521
 20
-74.74075185101276
 30
0.0
  0
VERTEX
  5
F0
  8
SUAVIZADO_EXTERNO
 10
-5.683666652968149
 20
-74.73235128587747
 30
0.0
  0
VERTEX
  5
F1
  8
SUAVIZADO_EXTERNO
 10
-5.685128980938614
 20
-74.7241374972363
 30
0.0
  0
VERTEX
  5
F2
  8
SUAVIZADO_EXTERNO
 10
-5.68674235845938
 20
-74.71613822783985
 30
0.0
  0
VERTEX
  5
F3
  8
SUAVIZADO_EXTERNO
 10
-5.688503921469916
 20
-74.70838122043875
 30
0.0
  0
VERTEX
  5
F4
  8
SUAVIZADO_EXTERNO
 10
-5.690410805909688
 20
-74.70089421778363
 30
0.0
  0
VERTEX
  5
F5
  8
SUAVIZADO_EXTERNO
 10
-5.692460147718162
 20
-74.6937049626251
 30
0.0
  0
VERTEX
  5
F6
  8
SUAVIZADO_EXTERNO
 10
-5.694649082834804
 20
-74.68684119771382
 30
0.0
  0
VERTEX
  5
F7
  8
SUAVIZADO_EXTERNO
 10
-5.696367756330186
 20
-74.68195232366627
 30
0.0
  0
VERTEX
  5
F8
  8
SUAVIZADO_EXTERNO
 10
-5.698157473208987
 20
-74.67724179657786
 30
0.0
  0
VERTEX
  5
F9
  8
SUAVIZADO_EXTERNO
 10
-5.700013433114131
 20
-74.67269202499452
 30
0.0
  0
VERTEX
  5
FA
  8
SUAVIZADO_EXTERNO
 10
-5.701930835688545
 20
-74.66828541746214
 30
0.0
  0
VERTEX
  5
FB
  8
SUAVIZADO_EXTERNO
 10
-5.703904880575154
 20
-74.66400438252666
 30
0.0
  0
VERTEX
  5
FC
  8
SUAVIZADO_EXTERNO
 10
-5.705930767416882
 20
-74.659831328734
 30
0.0
  0
VERTEX
  5
FD
  8
SUAVIZADO_EXTERNO
 10
-5.710118865537405
 20
-74.6517387987608
 30
0.0
  0
VERTEX
  5
FE
  8
SUAVIZADO_EXTERNO
 10
-5.749840028563772
 20
-74.57987418411511
 30
0.0
  0
VERTEX
  5
FF
  8
SUAVIZADO_EXTERNO
 10
-5.756038185275292
 20
-74.56919944842831
 30
0.0
  0
VERTEX
  5
100
  8
SUAVIZADO_EXTERNO
 10
-5.762729263859293
 20
-74.55842149259658
 30
0.0
  0
VERTEX
  5
101
  8
SUAVIZADO_EXTERNO
 10
-5.76629077003524
 20
-74.55301523355837
 30
0.0
  0
VERTEX
  5
102
  8
SUAVIZADO_EXTERNO
 10
-5.770012852097425
 20
-74.54760888120235
 30
0.0
  0
VERTEX
  5
103
  8
SUAVIZADO_EXTERNO
 10
-5.773907958518557
 20
-74.5422110061013
 30
0.0
  0
VERTEX
  5
104
  8
SUAVIZADO_EXTERNO
 10
-5.777988537771343
 20
-74.53683017882804
 30
0.0
  0
VERTEX
  5
105
  8
SUAVIZADO_EXTERNO
 10
-5.783396079321746
 20
-74.53009940265783
 30
0.0
  0
VERTEX
  5
106
  8
SUAVIZADO_EXTERNO
 10
-5.789105681997877
 20
-74.5234132861518
 30
0.0
  0
VERTEX
  5
107
  8
SUAVIZADO_EXTERNO
 10
-5.795106465865837
 20
-74.51677598272616
 30
0.0
  0
VERTEX
  5
108
  8
SUAVIZADO_EXTERNO
 10
-5.801387550991729
 20
-74.51019164579722
 30
0.0
  0
VERTEX
  5
109
  8
SUAVIZADO_EXTERNO
 10
-5.807938057441655
 20
-74.5036644287812
 30
0.0
  0
VERTEX
  5
10A
  8
SUAVIZADO_EXTERNO
 10
-5.814747105281719
 20
-74.49719848509434
 30
0.0
  0
VERTEX
  5
10B
  8
SUAVIZADO_EXTERNO
 10
-5.821803814578023
 20
-74.49079796815289
 30
0.0
  0
VERTEX
  5
10C
  8
SUAVIZADO_EXTERNO
 10
-5.829097305396669
 20
-74.48446703137311
 30
0.0
  0
VERTEX
  5
10D
  8
SUAVIZADO_EXTERNO
 10
-5.836616697803761
 20
-74.47820982817123
 30
0.0
  0
VERTEX
  5
10E
  8
SUAVIZADO_EXTERNO
 10
-5.8443511118654
 20
-74.47203051196351
 30
0.0
  0
VERTEX
  5
10F
  8
SUAVIZADO_EXTERNO
 10
-5.852289667647689
 20
-74.4659332361662
 30
0.0
  0
VERTEX
  5
110
  8
SUAVIZADO_EXTERNO
 10
-5.860421485216733
 20
-74.45992215419551
 30
0.0
  0
VERTEX
  5
111
  8
SUAVIZADO_EXTERNO
 10
-5.877221385979492
 20
-74.44817518539908
 30
0.0
  0
VERTEX
  5
112
  8
SUAVIZADO_EXTERNO
 10
-5.894663774682497
 20
-74.4368228329042
 30
0.0
  0
VERTEX
  5
113
  8
SUAVIZADO_EXTERNO
 10
-5.904327177116543
 20
-74.43086625139782
 30
0.0
  0
VERTEX
  5
114
  8
SUAVIZADO_EXTERNO
 10
-5.91414191402778
 20
-74.42505468031169
 30
0.0
  0
VERTEX
  5
115
  8
SUAVIZADO_EXTERNO
 10
-5.924097100297754
 20
-74.4194081776632
 30
0.0
  0
VERTEX
  5
116
  8
SUAVIZADO_EXTERNO
 10
-5.93418185080801
 20
-74.4139468014697
 30
0.0
  0
VERTEX
  5
117
  8
SUAVIZADO_EXTERNO
 10
-5.944385280440093
 20
-74.40869060974856
 30
0.0
  0
VERTEX
  5
118
  8
SUAVIZADO_EXTERNO
 10
-5.954696504075548
 20
-74.40365966051712
 30
0.0
  0
VERTEX
  5
119
  8
SUAVIZADO_EXTERNO
 10
-5.965104636595921
 20
-74.39887401179274
 30
0.0
  0
VERTEX
  5
11A
  8
SUAVIZADO_EXTERNO
 10
-5.975598792882758
 20
-74.39435372159276
 30
0.0
  0
VERTEX
  5
11B
  8
SUAVIZADO_EXTERNO
 10
-5.986168087817604
 20
-74.39011884793456
 30
0.0
  0
VERTEX
  5
11C
  8
SUAVIZADO_EXTERNO
 10
-5.996801636282003
 20
-74.38618944883551
 30
0.0
  0
VERTEX
  5
11D
  8
SUAVIZADO_EXTERNO
 10
-6.007488553157501
 20
-74.38258558231294
 30
0.0
  0
VERTEX
  5
11E
  8
SUAVIZADO_EXTERNO
 10
-6.018217953325645
 20
-74.37932730638423
 30
0.0
  0
VERTEX
  5
11F
  8
SUAVIZADO_EXTERNO
 10
-6.028978951667979
 20
-74.37643467906672
 30
0.0
  0
VERTEX
  5
120
  8
SUAVIZADO_EXTERNO
 10
-6.034367898554949
 20
-74.37513175176758
 30
0.0
  0
VERTEX
  5
121
  8
SUAVIZADO_EXTERNO
 10
-6.039760663066048
 20
-74.37392775837776
 30
0.0
  0
VERTEX
  5
122
  8
SUAVIZADO_EXTERNO
 10
-6.045155884561466
 20
-74.37282520614941
 30
0.0
  0
VERTEX
  5
123
  8
SUAVIZADO_EXTERNO
 10
-6.050552202401398
 20
-74.37182660233472
 30
0.0
  0
VERTEX
  5
124
  8
SUAVIZADO_EXTERNO
 10
-6.055948255946037
 20
-74.37093445418584
 30
0.0
  0
VERTEX
  5
125
  8
SUAVIZADO_EXTERNO
 10
-6.061342684555575
 20
-74.37015126895496
 30
0.0
  0
VERTEX
  5
126
  8
SUAVIZADO_EXTERNO
 10
-6.066803051691295
 20
-74.36947076671979
 30
0.0
  0
VERTEX
  5
127
  8
SUAVIZADO_EXTERNO
 10
-6.072262214364404
 20
-74.3689012349156
 30
0.0
  0
VERTEX
  5
128
  8
SUAVIZADO_EXTERNO
 10
-6.077722029926912
 20
-74.36843932729818
 30
0.0
  0
VERTEX
  5
129
  8
SUAVIZADO_EXTERNO
 10
-6.08318435573083
 20
-74.3680816976233
 30
0.0
  0
VERTEX
  5
12A
  8
SUAVIZADO_EXTERNO
 10
-6.088651049128169
 20
-74.36782499964681
 30
0.0
  0
VERTEX
  5
12B
  8
SUAVIZADO_EXTERNO
 10
-6.094123967470939
 20
-74.36766588712446
 30
0.0
  0
VERTEX
  5
12C
  8
SUAVIZADO_EXTERNO
 10
-6.105095908400815
 20
-74.36762703346542
 30
0.0
  0
VERTEX
  5
12D
  8
SUAVIZADO_EXTERNO
 10
-6.116115037336543
 20
-74.36793836669258
 30
0.0
  0
VERTEX
  5
12E
  8
SUAVIZADO_EXTERNO
 10
-6.127196213094209
 20
-74.3685731168523
 30
0.0
  0
VERTEX
  5
12F
  8
SUAVIZADO_EXTERNO
 10
-6.138354294489893
 20
-74.36950451399096
 30
0.0
  0
VERTEX
  5
130
  8
SUAVIZADO_EXTERNO
 10
-6.149604140339685
 20
-74.37070578815494
 30
0.0
  0
VERTEX
  5
131
  8
SUAVIZADO_EXTERNO
 10
-6.172438560665922
 20
-74.37381088774427
 30
0.0
  0
VERTEX
  5
132
  8
SUAVIZADO_EXTERNO
 10
-6.195818344601596
 20
-74.3776742559913
 30
0.0
  0
VERTEX
  5
133
  8
SUAVIZADO_EXTERNO
 10
-6.306643711187505
 20
-74.39884377093938
 30
0.0
  0
VERTEX
  5
134
  8
SUAVIZADO_EXTERNO
 10
-6.338640409442325
 20
-74.40555854269799
 30
0.0
  0
VERTEX
  5
135
  8
SUAVIZADO_EXTERNO
 10
-6.370846434470469
 20
-74.4129860806233
 30
0.0
  0
VERTEX
  5
136
  8
SUAVIZADO_EXTERNO
 10
-6.402908988667399
 20
-74.42130972621032
 30
0.0
  0
VERTEX
  5
137
  8
SUAVIZADO_EXTERNO
 10
-6.418776214952743
 20
-74.42586488359413
 30
0.0
  0
VERTEX
  5
138
  8
SUAVIZADO_EXTERNO
 10
-6.434475274428584
 20
-74.43071282095403
 30
0.0
  0
VERTEX
  5
139
  8
SUAVIZADO_EXTERNO
 10
-6.449962067394354
 20
-74.43587645597682
 30
0.0
  0
VERTEX
  5
13A
  8
SUAVIZADO_EXTERNO
 10
-6.465192494149488
 20
-74.44137870634944
 30
0.0
  0
VERTEX
  5
13B
  8
SUAVIZADO_EXTERNO
 10
-6.480122454993419
 20
-74.44724248975871
 30
0.0
  0
VERTEX
  5
13C
  8
SUAVIZADO_EXTERNO
 10
-6.49470785022558
 20
-74.4534907238915
 30
0.0
  0
VERTEX
  5
13D
  8
SUAVIZADO_EXTERNO
 10
-6.507932256153607
 20
-74.45965114921987
 30
0.0
  0
VERTEX
  5
13E
  8
SUAVIZADO_EXTERNO
 10
-6.520863019446411
 20
-74.46610362368364
 30
0.0
  0
VERTEX
  5
13F
  8
SUAVIZADO_EXTERNO
 10
-6.533542392449039
 20
-74.47278813771928
 30
0.0
  0
VERTEX
  5
140
  8
SUAVIZADO_EXTERNO
 10
-6.618808272326403
 20
-74.52103604064432
 30
0.0
  0
VERTEX
  5
141
  8
SUAVIZADO_EXTERNO
 10
-6.630997607429291
 20
-74.52741652696773
 30
0.0
  0
VERTEX
  5
142
  8
SUAVIZADO_EXTERNO
 10
-6.64331582334742
 20
-74.53348896679123
 30
0.0
  0
VERTEX
  5
143
  8
SUAVIZADO_EXTERNO
 10
-6.655805172425836
 20
-74.53919335055127
 30
0.0
  0
VERTEX
  5
144
  8
SUAVIZADO_EXTERNO
 10
-6.662127225757979
 20
-74.54188876841891
 30
0.0
  0
VERTEX
  5
145
  8
SUAVIZADO_EXTERNO
 10
-6.668507907009586
 20
-74.54446966868434
 30
0.0
  0
VERTEX
  5
146
  8
SUAVIZADO_EXTERNO
 10
-6.674952497723787
 20
-74.54692855015215
 30
0.0
  0
VERTEX
  5
147
  8
SUAVIZADO_EXTERNO
 10
-6.681466279443715
 20
-74.54925791162688
 30
0.0
  0
VERTEX
  5
148
  8
SUAVIZADO_EXTERNO
 10
-6.6880545337125
 20
-74.55145025191311
 30
0.0
  0
VERTEX
  5
149
  8
SUAVIZADO_EXTERNO
 10
-6.694722542073271
 20
-74.55349806981536
 30
0.0
  0
VERTEX
  5
14A
  8
SUAVIZADO_EXTERNO
 10
-6.70233537788071
 20
-74.55562584604262
 30
0.0
  0
VERTEX
  5
14B
  8
SUAVIZADO_EXTERNO
 10
-6.710053621081732
 20
-74.55756877683844
 30
0.0
  0
VERTEX
  5
14C
  8
SUAVIZADO_EXTERNO
 10
-6.717874743719432
 20
-74.55933497961931
 30
0.0
  0
VERTEX
  5
14D
  8
SUAVIZADO_EXTERNO
 10
-6.725796217836898
 20
-74.56093257180169
 30
0.0
  0
VERTEX
  5
14E
  8
SUAVIZADO_EXTERNO
 10
-6.73381551547722
 20
-74.56236967080206
 30
0.0
  0
VERTEX
  5
14F
  8
SUAVIZADO_EXTERNO
 10
-6.741930108683489
 20
-74.56365439403689
 30
0.0
  0
VERTEX
  5
150
  8
SUAVIZADO_EXTERNO
 10
-6.750137469498796
 20
-74.56479485892265
 30
0.0
  0
VERTEX
  5
151
  8
SUAVIZADO_EXTERNO
 10
-6.758435069966229
 20
-74.56579918287582
 30
0.0
  0
VERTEX
  5
152
  8
SUAVIZADO_EXTERNO
 10
-6.775290878029839
 20
-74.56743187765028
 30
0.0
  0
VERTEX
  5
153
  8
SUAVIZADO_EXTERNO
 10
-6.79247730921904
 20
-74.56861741769202
 30
0.0
  0
VERTEX
  5
154
  8
SUAVIZADO_EXTERNO
 10
-6.809974139878557
 20
-74.56942074233285
 30
0.0
  0
VERTEX
  5
155
  8
SUAVIZADO_EXTERNO
 10
-7.023639501648919
 20
-74.57180117227475
 30
0.0
  0
VERTEX
  5
156
  8
SUAVIZADO_EXTERNO
 10
-7.069817857718955
 20
-74.57464340771861
 30
0.0
  0
VERTEX
  5
157
  8
SUAVIZADO_EXTERNO
 10
-7.828139129210204
 20
-74.6368375247519
 30
0.0
  0
VERTEX
  5
158
  8
SUAVIZADO_EXTERNO
 10
-9.128234626220209
 20
-74.72017697968843
 30
0.0
  0
VERTEX
  5
159
  8
SUAVIZADO_EXTERNO
 10
-9.355322305692464
 20
-74.73135374239729
 30
0.0
  0
VERTEX
  5
15A
  8
SUAVIZADO_EXTERNO
 10
-9.578267682877524
 20
-74.73684487067574
 30
0.0
  0
VERTEX
  5
15B
  8
SUAVIZADO_EXTERNO
 10
-11.23574784156024
 20
-74.73500209302782
 30
0.0
  0
VERTEX
  5
15C
  8
SUAVIZADO_EXTERNO
 10
-11.25741112866282
 20
-74.73566163423317
 30
0.0
  0
VERTEX
  5
15D
  8
SUAVIZADO_EXTERNO
 10
-11.27839256358292
 20
-74.73684487067574
 30
0.0
  0
VERTEX
  5
15E
  8
SUAVIZADO_EXTERNO
 10
-11.29416033615803
 20
-74.73815169567465
 30
0.0
  0
VERTEX
  5
15F
  8
SUAVIZADO_EXTERNO
 10
-11.30963924504126
 20
-74.73977467606235
 30
0.0
  0
VERTEX
  5
160
  8
SUAVIZADO_EXTERNO
 10
-11.32480466951266
 20
-74.74166668576942
 30
0.0
  0
VERTEX
  5
161
  8
SUAVIZADO_EXTERNO
 10
-11.33963198885229
 20
-74.74378059872633
 30
0.0
  0
VERTEX
  5
162
  8
SUAVIZADO_EXTERNO
 10
-11.36817382925643
 20
-74.74848563011183
 30
0.0
  0
VERTEX
  5
163
  8
SUAVIZADO_EXTERNO
 10
-11.44681394228365
 20
-74.76313510781955
 30
0.0
  0
VERTEX
  5
164
  8
SUAVIZADO_EXTERNO
 10
-11.46100709961744
 20
-74.76523014601736
 30
0.0
  0
VERTEX
  5
165
  8
SUAVIZADO_EXTERNO
 10
-11.47634547736316
 20
-74.76712730338599
 30
0.0
  0
VERTEX
  5
166
  8
SUAVIZADO_EXTERNO
 10
-11.49315036134953
 20
-74.76878974917909
 30
0.0
  0
VERTEX
  5
167
  8
SUAVIZADO_EXTERNO
 10
-11.51174303740523
 20
-74.77018065265035
 30
0.0
  0
VERTEX
  5
168
  8
SUAVIZADO_EXTERNO
 10
-11.55208555945721
 20
-74.77200409058409
 30
0.0
  0
VERTEX
  5
169
  8
SUAVIZADO_EXTERNO
 10
-11.59851776267248
 20
-74.77292702547007
 30
0.0
  0
VERTEX
  5
16A
  8
SUAVIZADO_EXTERNO
 10
-12.26179813183408
 20
-74.77018065265034
 30
0.0
  0
VERTEX
  5
16B
  8
SUAVIZADO_EXTERNO
 10
-12.66182751552947
 20
-74.75351276166305
 30
0.0
  0
VERTEX
  5
16C
  8
SUAVIZADO_EXTERNO
 10
-13.24959513625501
 20
-74.72219819152389
 30
0.0
  0
VERTEX
  5
16D
  8
SUAVIZADO_EXTERNO
 10
-13.28104587281729
 20
-74.72084699886454
 30
0.0
  0
VERTEX
  5
16E
  8
SUAVIZADO_EXTERNO
 10
-13.31187526403447
 20
-74.72017697968842
 30
0.0
  0
VERTEX
  5
16F
  8
SUAVIZADO_EXTERNO
 10
-13.47337240698747
 20
-74.72249920280332
 30
0.0
  0
VERTEX
  5
170
  8
SUAVIZADO_EXTERNO
 10
-13.50072191862815
 20
-74.72179457408905
 30
0.0
  0
VERTEX
  5
171
  8
SUAVIZADO_EXTERNO
 10
-13.51457058198877
 20
-74.72111398497007
 30
0.0
  0
VERTEX
  5
172
  8
SUAVIZADO_EXTERNO
 10
-13.52855784686948
 20
-74.72017697968843
 30
0.0
  0
VERTEX
  5
173
  8
SUAVIZADO_EXTERNO
 10
-13.54438880867841
 20
-74.71879991102811
 30
0.0
  0
VERTEX
  5
174
  8
SUAVIZADO_EXTERNO
 10
-13.56039992234951
 20
-74.71708822835694
 30
0.0
  0
VERTEX
  5
175
  8
SUAVIZADO_EXTERNO
 10
-13.59290383844533
 20
-74.71274804317414
 30
0.0
  0
VERTEX
  5
176
  8
SUAVIZADO_EXTERNO
 10
-13.62595206149113
 20
-74.70733046852448
 30
0.0
  0
VERTEX
  5
177
  8
SUAVIZADO_EXTERNO
 10
-13.65942705782108
 20
-74.70100954879231
 30
0.0
  0
VERTEX
  5
178
  8
SUAVIZADO_EXTERNO
 10
-13.72718723567026
 20
-74.68635385161804
 30
0.0
  0
VERTEX
  5
179
  8
SUAVIZADO_EXTERNO
 10
-13.86581513016348
 20
-74.6526987480853
 30
0.0
  0
VERTEX
  5
17A
  8
SUAVIZADO_EXTERNO
 10
-13.93621293784929
 20
-74.63382237832346
 30
0.0
  0
VERTEX
  5
17B
  8
SUAVIZADO_EXTERNO
 10
-13.97151167767418
 20
-74.62346551789355
 30
0.0
  0
VERTEX
  5
17C
  8
SUAVIZADO_EXTERNO
 10
-14.00696486463971
 20
-74.61228660902901
 30
0.0
  0
VERTEX
  5
17D
  8
SUAVIZADO_EXTERNO
 10
-14.04263841611037
 20
-74.60012845317831
 30
0.0
  0
VERTEX
  5
17E
  8
SUAVIZADO_EXTERNO
 10
-14.07859824945063
 20
-74.58683385178996
 30
0.0
  0
VERTEX
  5
17F
  8
SUAVIZADO_EXTERNO
 10
-14.11636873456964
 20
-74.5716550205351
 30
0.0
  0
VERTEX
  5
180
  8
SUAVIZADO_EXTERNO
 10
-14.15417017277224
 20
-74.55519976630129
 30
0.0
  0
VERTEX
  5
181
  8
SUAVIZADO_EXTERNO
 10
-14.1916511994065
 20
-74.53759593684859
 30
0.0
  0
VERTEX
  5
182
  8
SUAVIZADO_EXTERNO
 10
-14.22846044982048
 20
-74.51897137993706
 30
0.0
  0
VERTEX
  5
183
  8
SUAVIZADO_EXTERNO
 10
-14.26424655936225
 20
-74.49945394332678
 30
0.0
  0
VERTEX
  5
184
  8
SUAVIZADO_EXTERNO
 10
-14.29865816337986
 20
-74.47917147477783
 30
0.0
  0
VERTEX
  5
185
  8
SUAVIZADO_EXTERNO
 10
-14.31523872436337
 20
-74.46878330595138
 30
0.0
  0
VERTEX
  5
186
  8
SUAVIZADO_EXTERNO
 10
-14.33134389722137
 20
-74.45825182205027
 30
0.0
  0
VERTEX
  5
187
  8
SUAVIZADO_EXTERNO
 10
-14.34692976137237
 20
-74.44759300404453
 30
0.0
  0
VERTEX
  5
188
  8
SUAVIZADO_EXTERNO
 10
-14.36195239623486
 20
-74.43682283290418
 30
0.0
  0
VERTEX
  5
189
  8
SUAVIZADO_EXTERNO
 10
-14.3734169954186
 20
-74.42823443437948
 30
0.0
  0
VERTEX
  5
18A
  8
SUAVIZADO_EXTERNO
 10
-14.38451943380502
 20
-74.41960285483205
 30
0.0
  0
VERTEX
  5
18B
  8
SUAVIZADO_EXTERNO
 10
-14.40570951909752
 20
-74.40227624532064
 30
0.0
  0
VERTEX
  5
18C
  8
SUAVIZADO_EXTERNO
 10
-14.42566603393556
 20
-74.38497518967313
 30
0.0
  0
VERTEX
  5
18D
  8
SUAVIZADO_EXTERNO
 10
-14.536914239709
 20
-74.28062041298597
 30
0.0
  0
VERTEX
  5
18E
  8
SUAVIZADO_EXTERNO
 10
-14.56149809096167
 20
-74.25942047854994
 30
0.0
  0
VERTEX
  5
18F
  8
SUAVIZADO_EXTERNO
 10
-14.58631644077479
 20
-74.23941529360768
 30
0.0
  0
VERTEX
  5
190
  8
SUAVIZADO_EXTERNO
 10
-14.61197076104448
 20
-74.2201402500692
 30
0.0
  0
VERTEX
  5
191
  8
SUAVIZADO_EXTERNO
 10
-14.62663299545388
 20
-74.20969970506324
 30
0.0
  0
VERTEX
  5
192
  8
SUAVIZADO_EXTERNO
 10
-14.64177562528176
 20
-74.19931481748002
 30
0.0
  0
VERTEX
  5
193
  8
SUAVIZADO_EXTERNO
 10
-14.67368736982912
 20
-74.17861390724426
 30
0.0
  0
VERTEX
  5
194
  8
SUAVIZADO_EXTERNO
 10
-14.70807659195878
 20
-74.15784130468683
 30
0.0
  0
VERTEX
  5
195
  8
SUAVIZADO_EXTERNO
 10
-14.82926350164544
 20
-74.09044154572611
 30
0.0
  0
VERTEX
  5
196
  8
SUAVIZADO_EXTERNO
 10
-14.84402559401502
 20
-74.08152620966942
 30
0.0
  0
VERTEX
  5
197
  8
SUAVIZADO_EXTERNO
 10
-14.85891753350317
 20
-74.07209475360747
 30
0.0
  0
VERTEX
  5
198
  8
SUAVIZADO_EXTERNO
 10
-14.87390546025228
 20
-74.06208100337642
 30
0.0
  0
VERTEX
  5
199
  8
SUAVIZADO_EXTERNO
 10
-14.88895551440477
 20
-74.05141878481241
 30
0.0
  0
VERTEX
  5
19A
  8
SUAVIZADO_EXTERNO
 10
-14.90403383610303
 20
-74.04004192375156
 30
0.0
  0
VERTEX
  5
19B
  8
SUAVIZADO_EXTERNO
 10
-14.91910656548948
 20
-74.02788424603003
 30
0.0
  0
VERTEX
  5
19C
  8
SUAVIZADO_EXTERNO
 10
-14.92663025186027
 20
-74.02149192149528
 30
0.0
  0
VERTEX
  5
19D
  8
SUAVIZADO_EXTERNO
 10
-14.93413984270652
 20
-74.01487957748391
 30
0.0
  0
VERTEX
  5
19E
  8
SUAVIZADO_EXTERNO
 10
-14.94163110554601
 20
-74.00803894222543
 30
0.0
  0
VERTEX
  5
19F
  8
SUAVIZADO_EXTERNO
 10
-14.94909980789656
 20
-74.00096174394938
 30
0.0
  0
VERTEX
  5
1A0
  8
SUAVIZADO_EXTERNO
 10
-14.95654171727595
 20
-73.99363971088522
 30
0.0
  0
VERTEX
  5
1A1
  8
SUAVIZADO_EXTERNO
 10
-14.963952601202
 20
-73.98606457126255
 30
0.0
  0
VERTEX
  5
1A2
  8
SUAVIZADO_EXTERNO
 10
-14.9713282271925
 20
-73.97822805331083
 30
0.0
  0
VERTEX
  5
1A3
  8
SUAVIZADO_EXTERNO
 10
-14.97866436276525
 20
-73.97012188525957
 30
0.0
  0
VERTEX
  5
1A4
  8
SUAVIZADO_EXTERNO
 10
-14.98910234203859
 20
-73.95802537883016
 30
0.0
  0
VERTEX
  5
1A5
  8
SUAVIZADO_EXTERNO
 10
-14.9994432768282
 20
-73.9453830630987
 30
0.0
  0
VERTEX
  5
1A6
  8
SUAVIZADO_EXTERNO
 10
-15.00967993670909
 20
-73.9322200261918
 30
0.0
  0
VERTEX
  5
1A7
  8
SUAVIZADO_EXTERNO
 10
-15.01980509125625
 20
-73.91856135623604
 30
0.0
  0
VERTEX
  5
1A8
  8
SUAVIZADO_EXTERNO
 10
-15.02981151004468
 20
-73.90443214135806
 30
0.0
  0
VERTEX
  5
1A9
  8
SUAVIZADO_EXTERNO
 10
-15.03969196264937
 20
-73.88985746968444
 30
0.0
  0
VERTEX
  5
1AA
  8
SUAVIZADO_EXTERNO
 10
-15.04943921864534
 20
-73.87486242934182
 30
0.0
  0
VERTEX
  5
1AB
  8
SUAVIZADO_EXTERNO
 10
-15.05904604760757
 20
-73.85947210845677
 30
0.0
  0
VERTEX
  5
1AC
  8
SUAVIZADO_EXTERNO
 10
-15.07780950273081
 20
-73.82760597756584
 30
0.0
  0
VERTEX
  5
1AD
  8
SUAVIZADO_EXTERNO
 10
-15.09592448461908
 20
-73.79445978202452
 30
0.0
  0
VERTEX
  5
1AE
  8
SUAVIZADO_EXTERNO
 10
-15.11333314987237
 20
-73.76023422684563
 30
0.0
  0
VERTEX
  5
1AF
  8
SUAVIZADO_EXTERNO
 10
-15.12997765509066
 20
-73.72513001704206
 30
0.0
  0
VERTEX
  5
1B0
  8
SUAVIZADO_EXTERNO
 10
-15.14580015687393
 20
-73.68934785762661
 30
0.0
  0
VERTEX
  5
1B1
  8
SUAVIZADO_EXTERNO
 10
-15.16074281182216
 20
-73.65308845361218
 30
0.0
  0
VERTEX
  5
1B2
  8
SUAVIZADO_EXTERNO
 10
-15.17474777653534
 20
-73.61655251001156
 30
0.0
  0
VERTEX
  5
1B3
  8
SUAVIZADO_EXTERNO
 10
-15.18775720761345
 20
-73.57994073183765
 30
0.0
  0
VERTEX
  5
1B4
  8
SUAVIZADO_EXTERNO
 10
-15.19971326165648
 20
-73.54345382410324
 30
0.0
  0
VERTEX
  5
1B5
  8
SUAVIZADO_EXTERNO
 10
-15.2105580952644
 20
-73.50729249182123
 30
0.0
  0
VERTEX
  5
1B6
  8
SUAVIZADO_EXTERNO
 10
-15.2202338650372
 20
-73.47165744000444
 30
0.0
  0
VERTEX
  5
1B7
  8
SUAVIZADO_EXTERNO
 10
-15.22868272757487
 20
-73.43674937366572
 30
0.0
  0
VERTEX
  5
1B8
  8
SUAVIZADO_EXTERNO
 10
-15.23482213788589
 20
-73.4080254518581
 30
0.0
  0
VERTEX
  5
1B9
  8
SUAVIZADO_EXTERNO
 10
-15.24011528392828
 20
-73.37990675548897
 30
0.0
  0
VERTEX
  5
1BA
  8
SUAVIZADO_EXTERNO
 10
-15.24462762450427
 20
-73.35234017459693
 30
0.0
  0
VERTEX
  5
1BB
  8
SUAVIZADO_EXTERNO
 10
-15.24842461841604
 20
-73.3252725992206
 30
0.0
  0
VERTEX
  5
1BC
  8
SUAVIZADO_EXTERNO
 10
-15.2515717244658
 20
-73.29865091939857
 30
0.0
  0
VERTEX
  5
1BD
  8
SUAVIZADO_EXTERNO
 10
-15.25413440145575
 20
-73.27242202516948
 30
0.0
  0
VERTEX
  5
1BE
  8
SUAVIZADO_EXTERNO
 10
-15.25776830346501
 20
-73.22093015364449
 30
0.0
  0
VERTEX
  5
1BF
  8
SUAVIZADO_EXTERNO
 10
-15.25984999486141
 20
-73.17037210495448
 30
0.0
  0
VERTEX
  5
1C0
  8
SUAVIZADO_EXTERNO
 10
-15.26811871062283
 20
-72.82922818951269
 30
0.0
  0
VERTEX
  5
1C1
  8
SUAVIZADO_EXTERNO
 10
-15.2786864005368
 20
-72.65335849726225
 30
0.0
  0
VERTEX
  5
1C2
  8
SUAVIZADO_EXTERNO
 10
-15.28370006185954
 20
-72.59212627315065
 30
0.0
  0
VERTEX
  5
1C3
  8
SUAVIZADO_EXTERNO
 10
-15.28666146457202
 20
-72.56309609257582
 30
0.0
  0
VERTEX
  5
1C4
  8
SUAVIZADO_EXTERNO
 10
-15.29012618144743
 20
-72.5346633169526
 30
0.0
  0
VERTEX
  5
1C5
  8
SUAVIZADO_EXTERNO
 10
-15.29424441208242
 20
-72.50648303425419
 30
0.0
  0
VERTEX
  5
1C6
  8
SUAVIZADO_EXTERNO
 10
-15.29916635607365
 20
-72.4782103324538
 30
0.0
  0
VERTEX
  5
1C7
  8
SUAVIZADO_EXTERNO
 10
-15.30504221301776
 20
-72.44950029952464
 30
0.0
  0
VERTEX
  5
1C8
  8
SUAVIZADO_EXTERNO
 10
-15.31202218251141
 20
-72.42000802343995
 30
0.0
  0
VERTEX
  5
1C9
  8
SUAVIZADO_EXTERNO
 10
-15.32108481103502
 20
-72.38643145654027
 30
0.0
  0
VERTEX
  5
1CA
  8
SUAVIZADO_EXTERNO
 10
-15.33148528981065
 20
-72.35196985701236
 30
0.0
  0
VERTEX
  5
1CB
  8
SUAVIZADO_EXTERNO
 10
-15.34304587795755
 20
-72.3171001390168
 30
0.0
  0
VERTEX
  5
1CC
  8
SUAVIZADO_EXTERNO
 10
-15.35558883459498
 20
-72.28229921671414
 30
0.0
  0
VERTEX
  5
1CD
  8
SUAVIZADO_EXTERNO
 10
-15.36893641884221
 20
-72.24804400426487
 30
0.0
  0
VERTEX
  5
1CE
  8
SUAVIZADO_EXTERNO
 10
-15.38291088981849
 20
-72.21481141582956
 30
0.0
  0
VERTEX
  5
1CF
  8
SUAVIZADO_EXTERNO
 10
-15.39733450664309
 20
-72.18307836556878
 30
0.0
  0
VERTEX
  5
1D0
  8
SUAVIZADO_EXTERNO
 10
-15.41202952843526
 20
-72.15332176764302
 30
0.0
  0
VERTEX
  5
1D1
  8
SUAVIZADO_EXTERNO
 10
-15.42381951291799
 20
-72.13130190635559
 30
0.0
  0
VERTEX
  5
1D2
  8
SUAVIZADO_EXTERNO
 10
-15.43571673142163
 20
-72.11062864465657
 30
0.0
  0
VERTEX
  5
1D3
  8
SUAVIZADO_EXTERNO
 10
-15.44776912890111
 20
-72.09109560902701
 30
0.0
  0
VERTEX
  5
1D4
  8
SUAVIZADO_EXTERNO
 10
-15.46002465031137
 20
-72.07249642594795
 30
0.0
  0
VERTEX
  5
1D5
  8
SUAVIZADO_EXTERNO
 10
-15.47253124060736
 20
-72.05462472190041
 30
0.0
  0
VERTEX
  5
1D6
  8
SUAVIZADO_EXTERNO
 10
-15.48533684474402
 20
-72.03727412336544
 30
0.0
  0
VERTEX
  5
1D7
  8
SUAVIZADO_EXTERNO
 10
-15.5120368743591
 20
-72.00331074875726
 30
0.0
  0
VERTEX
  5
1D8
  8
SUAVIZADO_EXTERNO
 10
-15.53915145467346
 20
-71.97096325528676
 30
0.0
  0
VERTEX
  5
1D9
  8
SUAVIZADO_EXTERNO
 10
-15.55326949766282
 20
-71.95511956592097
 30
0.0
  0
VERTEX
  5
1DA
  8
SUAVIZADO_EXTERNO
 10
-15.56773620488493
 20
-71.93974370877011
 30
0.0
  0
VERTEX
  5
1DB
  8
SUAVIZADO_EXTERNO
 10
-15.57509440813279
 20
-71.93228929398668
 30
0.0
  0
VERTEX
  5
1DC
  8
SUAVIZADO_EXTERNO
 10
-15.58253269809826
 20
-71.9250215293107
 30
0.0
  0
VERTEX
  5
1DD
  8
SUAVIZADO_EXTERNO
 10
-15.59004871500115
 20
-71.91796364542671
 30
0.0
  0
VERTEX
  5
1DE
  8
SUAVIZADO_EXTERNO
 10
-15.59764009906127
 20
-71.91113887301924
 30
0.0
  0
VERTEX
  5
1DF
  8
SUAVIZADO_EXTERNO
 10
-15.60530449049844
 20
-71.9045704427729
 30
0.0
  0
VERTEX
  5
1E0
  8
SUAVIZADO_EXTERNO
 10
-15.61303952953245
 20
-71.89828158537222
 30
0.0
  0
VERTEX
  5
1E1
  8
SUAVIZADO_EXTERNO
 10
-15.62084285638312
 20
-71.89229553150177
 30
0.0
  0
VERTEX
  5
1E2
  8
SUAVIZADO_EXTERNO
 10
-15.62871211127026
 20
-71.88663551184611
 30
0.0
  0
VERTEX
  5
1E3
  8
SUAVIZADO_EXTERNO
 10
-15.63566681638844
 20
-71.88195341660679
 30
0.0
  0
VERTEX
  5
1E4
  8
SUAVIZADO_EXTERNO
 10
-15.64266973620948
 20
-71.87752922985925
 30
0.0
  0
VERTEX
  5
1E5
  8
SUAVIZADO_EXTERNO
 10
-15.64972018178815
 20
-71.87335216737468
 30
0.0
  0
VERTEX
  5
1E6
  8
SUAVIZADO_EXTERNO
 10
-15.65681746417925
 20
-71.86941144492421
 30
0.0
  0
VERTEX
  5
1E7
  8
SUAVIZADO_EXTERNO
 10
-15.66396089443755
 20
-71.86569627827903
 30
0.0
  0
VERTEX
  5
1E8
  8
SUAVIZADO_EXTERNO
 10
-15.67114978361783
 20
-71.8621958832103
 30
0.0
  0
VERTEX
  5
1E9
  8
SUAVIZADO_EXTERNO
 10
-15.67838344277487
 20
-71.85889947548918
 30
0.0
  0
VERTEX
  5
1EA
  8
SUAVIZADO_EXTERNO
 10
-15.68566118296346
 20
-71.85579627088686
 30
0.0
  0
VERTEX
  5
1EB
  8
SUAVIZADO_EXTERNO
 10
-15.69298231523837
 20
-71.85287548517447
 30
0.0
  0
VERTEX
  5
1EC
  8
SUAVIZADO_EXTERNO
 10
-15.70034615065438
 20
-71.8501263341232
 30
0.0
  0
VERTEX
  5
1ED
  8
SUAVIZADO_EXTERNO
 10
-15.70775200026629
 20
-71.84753803350421
 30
0.0
  0
VERTEX
  5
1EE
  8
SUAVIZADO_EXTERNO
 10
-15.71519917512886
 20
-71.84509979908866
 30
0.0
  0
VERTEX
  5
1EF
  8
SUAVIZADO_EXTERNO
 10
-15.73021474482512
 20
-71.84063039195254
 30
0.0
  0
VERTEX
  5
1F0
  8
SUAVIZADO_EXTERNO
 10
-15.74538734818141
 20
-71.83663183888417
 30
0.0
  0
VERTEX
  5
1F1
  8
SUAVIZADO_EXTERNO
 10
-15.7601410151821
 20
-71.83315882983251
 30
0.0
  0
VERTEX
  5
1F2
  8
SUAVIZADO_EXTERNO
 10
-15.77497235177975
 20
-71.83005620546464
 30
0.0
  0
VERTEX
  5
1F3
  8
SUAVIZADO_EXTERNO
 10
-15.7898183428349
 20
-71.82733727667838
 30
0.0
  0
VERTEX
  5
1F4
  8
SUAVIZADO_EXTERNO
 10
-15.80461597320812
 20
-71.82501535437163
 30
0.0
  0
VERTEX
  5
1F5
  8
SUAVIZADO_EXTERNO
 10
-15.81930222775994
 20
-71.82310374944223
 30
0.0
  0
VERTEX
  5
1F6
  8
SUAVIZADO_EXTERNO
 10
-15.83381409135093
 20
-71.82161577278805
 30
0.0
  0
VERTEX
  5
1F7
  8
SUAVIZADO_EXTERNO
 10
-15.84808854884162
 20
-71.82056473530699
 30
0.0
  0
VERTEX
  5
1F8
  8
SUAVIZADO_EXTERNO
 10
-15.86206258509257
 20
-71.81996394789687
 30
0.0
  0
VERTEX
  5
1F9
  8
SUAVIZADO_EXTERNO
 10
-15.87472304129304
 20
-71.81983203731932
 30
0.0
  0
VERTEX
  5
1FA
  8
SUAVIZADO_EXTERNO
 10
-15.88096384796196
 20
-71.81994001673246
 30
0.0
  0
VERTEX
  5
1FB
  8
SUAVIZADO_EXTERNO
 10
-15.88715987687225
 20
-71.82017696374322
 30
0.0
  0
VERTEX
  5
1FC
  8
SUAVIZADO_EXTERNO
 10
-15.89332225542059
 20
-71.82055263669884
 30
0.0
  0
VERTEX
  5
1FD
  8
SUAVIZADO_EXTERNO
 10
-15.89946211100368
 20
-71.82107679394657
 30
0.0
  0
VERTEX
  5
1FE
  8
SUAVIZADO_EXTERNO
 10
-15.90559057101819
 20
-71.82175919383367
 30
0.0
  0
VERTEX
  5
1FF
  8
SUAVIZADO_EXTERNO
 10
-15.91171876286082
 20
-71.82260959470736
 30
0.0
  0
VERTEX
  5
200
  8
SUAVIZADO_EXTERNO
 10
-15.91785781392825
 20
-71.8236377549149
 30
0.0
  0
VERTEX
  5
201
  8
SUAVIZADO_EXTERNO
 10
-15.92401885161717
 20
-71.82485343280354
 30
0.0
  0
VERTEX
  5
202
  8
SUAVIZADO_EXTERNO
 10
-15.93021300332426
 20
-71.8262663867205
 30
0.0
  0
VERTEX
  5
203
  8
SUAVIZADO_EXTERNO
 10
-15.93645139644622
 20
-71.82788637501307
 30
0.0
  0
VERTEX
  5
204
  8
SUAVIZADO_EXTERNO
 10
-15.94274515837973
 20
-71.82972315602846
 30
0.0
  0
VERTEX
  5
205
  8
SUAVIZADO_EXTERNO
 10
-15.94910541652147
 20
-71.83178648811396
 30
0.0
  0
VERTEX
  5
206
  8
SUAVIZADO_EXTERNO
 10
-15.95554329826814
 20
-71.83408612961676
 30
0.0
  0
VERTEX
  5
207
  8
SUAVIZADO_EXTERNO
 10
-15.96206993101641
 20
-71.83663183888417
 30
0.0
  0
VERTEX
  5
208
  8
SUAVIZADO_EXTERNO
 10
-15.96659350964256
 20
-71.83852079716856
 30
0.0
  0
VERTEX
  5
209
  8
SUAVIZADO_EXTERNO
 10
-15.97116060073818
 20
-71.84052904534255
 30
0.0
  0
VERTEX
  5
20A
  8
SUAVIZADO_EXTERNO
 10
-15.97576791283513
 20
-71.8426559908228
 30
0.0
  0
VERTEX
  5
20B
  8
SUAVIZADO_EXTERNO
 10
-15.98041215446528
 20
-71.84490104102592
 30
0.0
  0
VERTEX
  5
20C
  8
SUAVIZADO_EXTERNO
 10
-15.98979826045254
 20
-71.84974308526745
 30
0.0
  0
VERTEX
  5
20D
  8
SUAVIZADO_EXTERNO
 10
-15.99929258695476
 20
-71.8550504374003
 30
0.0
  0
VERTEX
  5
20E
  8
SUAVIZADO_EXTERNO
 10
-16.00886880222677
 20
-71.86081835675765
 30
0.0
  0
VERTEX
  5
20F
  8
SUAVIZADO_EXTERNO
 10
-16.01850057452339
 20
-71.86704210267271
 30
0.0
  0
VERTEX
  5
210
  8
SUAVIZADO_EXTERNO
 10
-16.02816157209942
 20
-71.87371693447864
 30
0.0
  0
VERTEX
  5
211
  8
SUAVIZADO_EXTERNO
 10
-16.0378254632097
 20
-71.88083811150861
 30
0.0
  0
VERTEX
  5
212
  8
SUAVIZADO_EXTERNO
 10
-16.04746591610902
 20
-71.88840089309579
 30
0.0
  0
VERTEX
  5
213
  8
SUAVIZADO_EXTERNO
 10
-16.0570565990522
 20
-71.89640053857339
 30
0.0
  0
VERTEX
  5
214
  8
SUAVIZADO_EXTERNO
 10
-16.06657118029407
 20
-71.90483230727457
 30
0.0
  0
VERTEX
  5
215
  8
SUAVIZADO_EXTERNO
 10
-16.07598332808944
 20
-71.9136914585325
 30
0.0
  0
VERTEX
  5
216
  8
SUAVIZADO_EXTERNO
 10
-16.08526671069312
 20
-71.92297325168036
 30
0.0
  0
VERTEX
  5
217
  8
SUAVIZADO_EXTERNO
 10
-16.09439499635992
 20
-71.93267294605134
 30
0.0
  0
VERTEX
  5
218
  8
SUAVIZADO_EXTERNO
 10
-16.10334185334467
 20
-71.94278580097861
 30
0.0
  0
VERTEX
  5
219
  8
SUAVIZADO_EXTERNO
 10
-16.11208094990219
 20
-71.95330707579534
 30
0.0
  0
VERTEX
  5
21A
  8
SUAVIZADO_EXTERNO
 10
-16.11737402674295
 20
-71.96001969569471
 30
0.0
  0
VERTEX
  5
21B
  8
SUAVIZADO_EXTERNO
 10
-16.12257595237465
 20
-71.9668823525434
 30
0.0
  0
VERTEX
  5
21C
  8
SUAVIZADO_EXTERNO
 10
-16.12768521626859
 20
-71.9738905028116
 30
0.0
  0
VERTEX
  5
21D
  8
SUAVIZADO_EXTERNO
 10
-16.13270030789609
 20
-71.98103960296947
 30
0.0
  0
VERTEX
  5
21E
  8
SUAVIZADO_EXTERNO
 10
-16.14244193223701
 20
-71.99574247883514
 30
0.0
  0
VERTEX
  5
21F
  8
SUAVIZADO_EXTERNO
 10
-16.15178874116789
 20
-72.01095463190191
 30
0.0
  0
VERTEX
  5
220
  8
SUAVIZADO_EXTERNO
 10
-16.16072865045922
 20
-72.02663971393136
 30
0.0
  0
VERTEX
  5
221
  8
SUAVIZADO_EXTERNO
 10
-16.16924957588149
 20
-72.04276137668501
 30
0.0
  0
VERTEX
  5
222
  8
SUAVIZADO_EXTERNO
 10
-16.17733943320518
 20
-72.0592832719244
 30
0.0
  0
VERTEX
  5
223
  8
SUAVIZADO_EXTERNO
 10
-16.1849861382008
 20
-72.07616905141109
 30
0.0
  0
VERTEX
  5
224
  8
SUAVIZADO_EXTERNO
 10
-16.19217760663881
 20
-72.09338236690661
 30
0.0
  0
VERTEX
  5
225
  8
SUAVIZADO_EXTERNO
 10
-16.19890175428973
 20
-72.1108868701725
 30
0.0
  0
VERTEX
  5
226
  8
SUAVIZADO_EXTERNO
 10
-16.20514649692402
 20
-72.1286462129703
 30
0.0
  0
VERTEX
  5
227
  8
SUAVIZADO_EXTERNO
 10
-16.21089975031219
 20
-72.14662404706158
 30
0.0
  0
VERTEX
  5
228
  8
SUAVIZADO_EXTERNO
 10
-16.21614943022471
 20
-72.16478402420788
 30
0.0
  0
VERTEX
  5
229
  8
SUAVIZADO_EXTERNO
 10
-16.22088345243209
 20
-72.18308979617072
 30
0.0
  0
VERTEX
  5
22A
  8
SUAVIZADO_EXTERNO
 10
-16.2250897327048
 20
-72.20150501471167
 30
0.0
  0
VERTEX
  5
22B
  8
SUAVIZADO_EXTERNO
 10
-16.22875618681334
 20
-72.21999333159225
 30
0.0
  0
VERTEX
  5
22C
  8
SUAVIZADO_EXTERNO
 10
-16.23199944030839
 20
-72.23932353961514
 30
0.0
  0
VERTEX
  5
22D
  8
SUAVIZADO_EXTERNO
 10
-16.23467189895307
 20
-72.25869756587643
 30
0.0
  0
VERTEX
  5
22E
  8
SUAVIZADO_EXTERNO
 10
-16.23680321154402
 20
-72.27811924682572
 30
0.0
  0
VERTEX
  5
22F
  8
SUAVIZADO_EXTERNO
 10
-16.23842302687791
 20
-72.29759241891267
 30
0.0
  0
VERTEX
  5
230
  8
SUAVIZADO_EXTERNO
 10
-16.23956099375138
 20
-72.31712091858685
 30
0.0
  0
VERTEX
  5
231
  8
SUAVIZADO_EXTERNO
 10
-16.24024676096107
 20
-72.33670858229789
 30
0.0
  0
VERTEX
  5
232
  8
SUAVIZADO_EXTERNO
 10
-16.24050997730364
 20
-72.35635924649537
 30
0.0
  0
VERTEX
  5
233
  8
SUAVIZADO_EXTERNO
 10
-16.24038029157574
 20
-72.37607674762897
 30
0.0
  0
VERTEX
  5
234
  8
SUAVIZADO_EXTERNO
 10
-16.23906080909511
 20
-72.41572760650291
 30
0.0
  0
VERTEX
  5
235
  8
SUAVIZADO_EXTERNO
 10
-16.23652550389237
 20
-72.45569185051663
 30
0.0
  0
VERTEX
  5
236
  8
SUAVIZADO_EXTERNO
 10
-16.22875618681334
 20
-72.53668326035111
 30
0.0
  0
VERTEX
  5
237
  8
SUAVIZADO_EXTERNO
 10
-16.20584005168168
 20
-72.71183557883981
 30
0.0
  0
VERTEX
  5
238
  8
SUAVIZADO_EXTERNO
 10
-16.1092353517897
 20
-73.34196446710966
 30
0.0
  0
VERTEX
  5
239
  8
SUAVIZADO_EXTERNO
 10
-16.10138928922651
 20
-73.40783536697812
 30
0.0
  0
VERTEX
  5
23A
  8
SUAVIZADO_EXTERNO
 10
-16.09541305891488
 20
-73.47008515564035
 30
0.0
  0
VERTEX
  5
23B
  8
SUAVIZADO_EXTERNO
 10
-16.0922175218898
 20
-73.51830429365538
 30
0.0
  0
VERTEX
  5
23C
  8
SUAVIZADO_EXTERNO
 10
-16.09131554766464
 20
-73.54152370258126
 30
0.0
  0
VERTEX
  5
23D
  8
SUAVIZADO_EXTERNO
 10
-16.09093241761447
 20
-73.56430676512292
 30
0.0
  0
VERTEX
  5
23E
  8
SUAVIZADO_EXTERNO
 10
-16.09110936772685
 20
-73.58677130153303
 30
0.0
  0
VERTEX
  5
23F
  8
SUAVIZADO_EXTERNO
 10
-16.09188763398934
 20
-73.60903513206428
 30
0.0
  0
VERTEX
  5
240
  8
SUAVIZADO_EXTERNO
 10
-16.0933084523895
 20
-73.6312160769693
 30
0.0
  0
VERTEX
  5
241
  8
SUAVIZADO_EXTERNO
 10
-16.09541305891488
 20
-73.65343195650074
 30
0.0
  0
VERTEX
  5
242
  8
SUAVIZADO_EXTERNO
 10
-16.09817116902141
 20
-73.67518048460181
 30
0.0
  0
VERTEX
  5
243
  8
SUAVIZADO_EXTERNO
 10
-16.09984053265752
 20
-73.68606682236059
 30
0.0
  0
VERTEX
  5
244
  8
SUAVIZADO_EXTERNO
 10
-16.10172063979371
 20
-73.69693865206456
 30
0.0
  0
VERTEX
  5
245
  8
SUAVIZADO_EXTERNO
 10
-16.10382439376361
 20
-73.70777905581849
 30
0.0
  0
VERTEX
  5
246
  8
SUAVIZADO_EXTERNO
 10
-16.10616469790087
 20
-73.71857111572714
 30
0.0
  0
VERTEX
  5
247
  8
SUAVIZADO_EXTERNO
 10
-16.1087544555391
 20
-73.72929791389532
 30
0.0
  0
VERTEX
  5
248
  8
SUAVIZADO_EXTERNO
 10
-16.11160657001194
 20
-73.73994253242775
 30
0.0
  0
VERTEX
  5
249
  8
SUAVIZADO_EXTERNO
 10
-16.11473394465303
 20
-73.75048805342922
 30
0.0
  0
VERTEX
  5
24A
  8
SUAVIZADO_EXTERNO
 10
-16.118149482796
 20
-73.76091755900454
 30
0.0
  0
VERTEX
  5
24B
  8
SUAVIZADO_EXTERNO
 10
-16.12186608777448
 20
-73.77121413125843
 30
0.0
  0
VERTEX
  5
24C
  8
SUAVIZADO_EXTERNO
 10
-16.12589666292211
 20
-73.7813608522957
 30
0.0
  0
VERTEX
  5
24D
  8
SUAVIZADO_EXTERNO
 10
-16.13025411157253
 20
-73.79134080422111
 30
0.0
  0
VERTEX
  5
24E
  8
SUAVIZADO_EXTERNO
 10
-16.13255944575304
 20
-73.7962629549246
 30
0.0
  0
VERTEX
  5
24F
  8
SUAVIZADO_EXTERNO
 10
-16.13495133705936
 20
-73.8011370691394
 30
0.0
  0
VERTEX
  5
250
  8
SUAVIZADO_EXTERNO
 10
-16.13743139840819
 20
-73.80596103212864
 30
0.0
  0
VERTEX
  5
251
  8
SUAVIZADO_EXTERNO
 10
-16.14000124271624
 20
-73.81073272915539
 30
0.0
  0
VERTEX
  5
252
  8
SUAVIZADO_EXTERNO
 10
-16.14266248290021
 20
-73.81545004548275
 30
0.0
  0
VERTEX
  5
253
  8
SUAVIZADO_EXTERNO
 10
-16.1454167318768
 20
-73.82011086637381
 30
0.0
  0
VERTEX
  5
254
  8
SUAVIZADO_EXTERNO
 10
-16.14829135121161
 20
-73.82475474715058
 30
0.0
  0
VERTEX
  5
255
  8
SUAVIZADO_EXTERNO
 10
-16.1512611341909
 20
-73.82933852502927
 30
0.0
  0
VERTEX
  5
256
  8
SUAVIZADO_EXTERNO
 10
-16.15432490221415
 20
-73.8338617730118
 30
0.0
  0
VERTEX
  5
257
  8
SUAVIZADO_EXTERNO
 10
-16.15748147668087
 20
-73.83832406410008
 30
0.0
  0
VERTEX
  5
258
  8
SUAVIZADO_EXTERNO
 10
-16.16072967899058
 20
-73.84272497129602
 30
0.0
  0
VERTEX
  5
259
  8
SUAVIZADO_EXTERNO
 10
-16.16406833054275
 20
-73.84706406760155
 30
0.0
  0
VERTEX
  5
25A
  8
SUAVIZADO_EXTERNO
 10
-16.1674962527369
 20
-73.85134092601857
 30
0.0
  0
VERTEX
  5
25B
  8
SUAVIZADO_EXTERNO
 10
-16.17101226697253
 20
-73.855555119549
 30
0.0
  0
VERTEX
  5
25C
  8
SUAVIZADO_EXTERNO
 10
-16.17461519464914
 20
-73.85970622119476
 30
0.0
  0
VERTEX
  5
25D
  8
SUAVIZADO_EXTERNO
 10
-16.17830385716623
 20
-73.86379380395778
 30
0.0
  0
VERTEX
  5
25E
  8
SUAVIZADO_EXTERNO
 10
-16.18207707592331
 20
-73.86781744083996
 30
0.0
  0
VERTEX
  5
25F
  8
SUAVIZADO_EXTERNO
 10
-16.18593367231987
 20
-73.8717767048432
 30
0.0
  0
VERTEX
  5
260
  8
SUAVIZADO_EXTERNO
 10
-16.18987246775541
 20
-73.87567116896945
 30
0.0
  0
VERTEX
  5
261
  8
SUAVIZADO_EXTERNO
 10
-16.19389228362945
 20
-73.8795004062206
 30
0.0
  0
VERTEX
  5
262
  8
SUAVIZADO_EXTERNO
 10
-16.19799194134147
 20
-73.88326398959857
 30
0.0
  0
VERTEX
  5
263
  8
SUAVIZADO_EXTERNO
 10
-16.20217026229099
 20
-73.8869614921053
 30
0.0
  0
VERTEX
  5
264
  8
SUAVIZADO_EXTERNO
 10
-16.2064260678775
 20
-73.89059248674269
 30
0.0
  0
VERTEX
  5
265
  8
SUAVIZADO_EXTERNO
 10
-16.2107581795005
 20
-73.89415654651263
 30
0.0
  0
VERTEX
  5
266
  8
SUAVIZADO_EXTERNO
 10
-16.2151654185595
 20
-73.89765324441706
 30
0.0
  0
VERTEX
  5
267
  8
SUAVIZADO_EXTERNO
 10
-16.21964660645399
 20
-73.9010821534579
 30
0.0
  0
VERTEX
  5
268
  8
SUAVIZADO_EXTERNO
 10
-16.22882611434748
 20
-73.90773489695647
 30
0.0
  0
VERTEX
  5
269
  8
SUAVIZADO_EXTERNO
 10
-16.23828727437697
 20
-73.91411136102363
 30
0.0
  0
VERTEX
  5
26A
  8
SUAVIZADO_EXTERNO
 10
-16.24802065773849
 20
-73.92020812967473
 30
0.0
  0
VERTEX
  5
26B
  8
SUAVIZADO_EXTERNO
 10
-16.25801683562803
 20
-73.9260217869251
 30
0.0
  0
VERTEX
  5
26C
  8
SUAVIZADO_EXTERNO
 10
-16.26826637924162
 20
-73.93154891679009
 30
0.0
  0
VERTEX
  5
26D
  8
SUAVIZADO_EXTERNO
 10
-16.27875985977526
 20
-73.93678610328497
 30
0.0
  0
VERTEX
  5
26E
  8
SUAVIZADO_EXTERNO
 10
-16.29091071764438
 20
-73.942362747907
 30
0.0
  0
VERTEX
  5
26F
  8
SUAVIZADO_EXTERNO
 10
-16.30334143002817
 20
-73.94759710477993
 30
0.0
  0
VERTEX
  5
270
  8
SUAVIZADO_EXTERNO
 10
-16.31603179391799
 20
-73.9525222449393
 30
0.0
  0
VERTEX
  5
271
  8
SUAVIZADO_EXTERNO
 10
-16.32896160630523
 20
-73.95717123942065
 30
0.0
  0
VERTEX
  5
272
  8
SUAVIZADO_EXTERNO
 10
-16.34211066418125
 20
-73.96157715925945
 30
0.0
  0
VERTEX
  5
273
  8
SUAVIZADO_EXTERNO
 10
-16.35545876453742
 20
-73.96577307549121
 30
0.0
  0
VERTEX
  5
274
  8
SUAVIZADO_EXTERNO
 10
-16.52512021306381
 20
-74.01211904810773
 30
0.0
  0
VERTEX
  5
275
  8
SUAVIZADO_EXTERNO
 10
-16.55468191964709
 20
-74.02139587270678
 30
0.0
  0
VERTEX
  5
276
  8
SUAVIZADO_EXTERNO
 10
-16.61339843395722
 20
-74.041568423341
 30
0.0
  0
VERTEX
  5
277
  8
SUAVIZADO_EXTERNO
 10
-16.67147457104945
 20
-74.06352045965596
 30
0.0
  0
VERTEX
  5
278
  8
SUAVIZADO_EXTERNO
 10
-16.86463873284207
 20
-74.14317569582359
 30
0.0
  0
VERTEX
  5
279
  8
SUAVIZADO_EXTERNO
 10
-16.89157139666411
 20
-74.15309295947709
 30
0.0
  0
VERTEX
  5
27A
  8
SUAVIZADO_EXTERNO
 10
-16.91850551570515
 20
-74.16213960567998
 30
0.0
  0
VERTEX
  5
27B
  8
SUAVIZADO_EXTERNO
 10
-16.93198387383978
 20
-74.16628049182339
 30
0.0
  0
VERTEX
  5
27C
  8
SUAVIZADO_EXTERNO
 10
-16.94547549926758
 20
-74.17013657710727
 30
0.0
  0
VERTEX
  5
27D
  8
SUAVIZADO_EXTERNO
 10
-16.95860345692826
 20
-74.17359624912763
 30
0.0
  0
VERTEX
  5
27E
  8
SUAVIZADO_EXTERNO
 10
-16.9717548349731
 20
-74.17678465001029
 30
0.0
  0
VERTEX
  5
27F
  8
SUAVIZADO_EXTERNO
 10
-16.98493646342742
 20
-74.17972058969485
 30
0.0
  0
VERTEX
  5
280
  8
SUAVIZADO_EXTERNO
 10
-16.99815517231649
 20
-74.18242287812092
 30
0.0
  0
VERTEX
  5
281
  8
SUAVIZADO_EXTERNO
 10
-17.02473115150006
 20
-74.18720174095587
 30
0.0
  0
VERTEX
  5
282
  8
SUAVIZADO_EXTERNO
 10
-17.05153741272616
 20
-74.19127171803193
 30
0.0
  0
VERTEX
  5
283
  8
SUAVIZADO_EXTERNO
 10
-17.10605934211529
 20
-74.19788693297426
 30
0.0
  0
VERTEX
  5
284
  8
SUAVIZADO_EXTERNO
 10
-17.28717237809381
 20
-74.21452958789622
 30
0.0
  0
VERTEX
  5
285
  8
SUAVIZADO_EXTERNO
 10
-17.35025179127014
 20
-74.21840588251887
 30
0.0
  0
VERTEX
  5
286
  8
SUAVIZADO_EXTERNO
 10
-17.38143047632927
 20
-74.21958957501631
 30
0.0
  0
VERTEX
  5
287
  8
SUAVIZADO_EXTERNO
 10
-17.41217644691219
 20
-74.2201402500692
 30
0.0
  0
VERTEX
  5
288
  8
SUAVIZADO_EXTERNO
 10
-17.44032448973366
 20
-74.22001535569105
 30
0.0
  0
VERTEX
  5
289
  8
SUAVIZADO_EXTERNO
 10
-17.46803784962398
 20
-74.21928152205707
 30
0.0
  0
VERTEX
  5
28A
  8
SUAVIZADO_EXTERNO
 10
-17.49538205091056
 20
-74.21796341993874
 30
0.0
  0
VERTEX
  5
28B
  8
SUAVIZADO_EXTERNO
 10
-17.52242261792084
 20
-74.21608572010746
 30
0.0
  0
VERTEX
  5
28C
  8
SUAVIZADO_EXTERNO
 10
-17.54922507498222
 20
-74.2136730933347
 30
0.0
  0
VERTEX
  5
28D
  8
SUAVIZADO_EXTERNO
 10
-17.57585494642213
 20
-74.21075021039191
 30
0.0
  0
VERTEX
  5
28E
  8
SUAVIZADO_EXTERNO
 10
-17.62885902974719
 20
-74.2034723590819
 30
0.0
  0
VERTEX
  5
28F
  8
SUAVIZADO_EXTERNO
 10
-17.68251004670789
 20
-74.19426097891842
 30
0.0
  0
VERTEX
  5
290
  8
SUAVIZADO_EXTERNO
 10
-17.70941891774246
 20
-74.18890930376358
 30
0.0
  0
VERTEX
  5
291
  8
SUAVIZADO_EXTERNO
 10
-17.73640818761734
 20
-74.18301955885538
 30
0.0
  0
VERTEX
  5
292
  8
SUAVIZADO_EXTERNO
 10
-17.76349647418563
 20
-74.17656118441536
 30
0.0
  0
VERTEX
  5
293
  8
SUAVIZADO_EXTERNO
 10
-17.79070239530046
 20
-74.1695036206651
 30
0.0
  0
VERTEX
  5
294
  8
SUAVIZADO_EXTERNO
 10
-17.81804456881495
 20
-74.16181630782611
 30
0.0
  0
VERTEX
  5
295
  8
SUAVIZADO_EXTERNO
 10
-17.8455416125822
 20
-74.15346868611996
 30
0.0
  0
VERTEX
  5
296
  8
SUAVIZADO_EXTERNO
 10
-17.87378435327687
 20
-74.1442521267341
 30
0.0
  0
VERTEX
  5
297
  8
SUAVIZADO_EXTERNO
 10
-17.90203760874396
 20
-74.1344403646306
 30
0.0
  0
VERTEX
  5
298
  8
SUAVIZADO_EXTERNO
 10
-17.95789325282754
 20
-74.11353542485958
 30
0.0
  0
VERTEX
  5
299
  8
SUAVIZADO_EXTERNO
 10
-18.0117437224972
 20
-74.0917622519846
 30
0.0
  0
VERTEX
  5
29A
  8
SUAVIZADO_EXTERNO
 10
-18.0622241954172
 20
-74.07012923118343
 30
0.0
  0
VERTEX
  5
29B
  8
SUAVIZADO_EXTERNO
 10
-18.10221922651307
 20
-74.05203612216461
 30
0.0
  0
VERTEX
  5
29C
  8
SUAVIZADO_EXTERNO
 10
-18.12124897653403
 20
-74.04280603195357
 30
0.0
  0
VERTEX
  5
29D
  8
SUAVIZADO_EXTERNO
 10
-18.1398173876348
 20
-74.0331859030203
 30
0.0
  0
VERTEX
  5
29E
  8
SUAVIZADO_EXTERNO
 10
-18.15806233838872
 20
-74.02297497417388
 30
0.0
  0
VERTEX
  5
29F
  8
SUAVIZADO_EXTERNO
 10
-18.16710660318979
 20
-74.01758522191108
 30
0.0
  0
VERTEX
  5
2A0
  8
SUAVIZADO_EXTERNO
 10
-18.17612170736916
 20
-74.01197248422342
 30
0.0
  0
VERTEX
  5
2A1
  8
SUAVIZADO_EXTERNO
 10
-18.18512488574849
 20
-74.00611166596204
 30
0.0
  0
VERTEX
  5
2A2
  8
SUAVIZADO_EXTERNO
 10
-18.19413337314946
 20
-73.99997767197804
 30
0.0
  0
VERTEX
  5
2A3
  8
SUAVIZADO_EXTERNO
 10
-18.20316440439373
 20
-73.99354540712262
 30
0.0
  0
VERTEX
  5
2A4
  8
SUAVIZADO_EXTERNO
 10
-18.21223521430297
 20
-73.98678977624688
 30
0.0
  0
VERTEX
  5
2A5
  8
SUAVIZADO_EXTERNO
 10
-18.2229320886775
 20
-73.97843946402173
 30
0.0
  0
VERTEX
  5
2A6
  8
SUAVIZADO_EXTERNO
 10
-18.23368688185508
 20
-73.96964633279444
 30
0.0
  0
VERTEX
  5
2A7
  8
SUAVIZADO_EXTERNO
 10
-18.24447919859199
 20
-73.96044621178997
 30
0.0
  0
VERTEX
  5
2A8
  8
SUAVIZADO_EXTERNO
 10
-18.2552886436445
 20
-73.95087493023333
 30
0.0
  0
VERTEX
  5
2A9
  8
SUAVIZADO_EXTERNO
 10
-18.27687733772144
 20
-73.93076220236337
 30
0.0
  0
VERTEX
  5
2AA
  8
SUAVIZADO_EXTERNO
 10
-18.29828980213609
 20
-73.90959478298434
 30
0.0
  0
VERTEX
  5
2AB
  8
SUAVIZADO_EXTERNO
 10
-18.31936287493868
 20
-73.88765930589607
 30
0.0
  0
VERTEX
  5
2AC
  8
SUAVIZADO_EXTERNO
 10
-18.33993339417939
 20
-73.86524240489837
 30
0.0
  0
VERTEX
  5
2AD
  8
SUAVIZADO_EXTERNO
 10
-18.35983819790845
 20
-73.84263071379101
 30
0.0
  0
VERTEX
  5
2AE
  8
SUAVIZADO_EXTERNO
 10
-18.37891412417605
 20
-73.82011086637381
 30
0.0
  0
VERTEX
  5
2AF
  8
SUAVIZADO_EXTERNO
 10
-18.3963289520869
 20
-73.79875379168107
 30
0.0
  0
VERTEX
  5
2B0
  8
SUAVIZADO_EXTERNO
 10
-18.41286447244387
 20
-73.77748065009465
 30
0.0
  0
VERTEX
  5
2B1
  8
SUAVIZADO_EXTERNO
 10
-18.42855599283862
 20
-73.75602643571642
 30
0.0
  0
VERTEX
  5
2B2
  8
SUAVIZADO_EXTERNO
 10
-18.43609628667256
 20
-73.7451486118872
 30
0.0
  0
VERTEX
  5
2B3
  8
SUAVIZADO_EXTERNO
 10
-18.44343882086282
 20
-73.73412614264826
 30
0.0
  0
VERTEX
  5
2B4
  8
SUAVIZADO_EXTERNO
 10
-18.45058800885835
 20
-73.72292590226229
 30
0.0
  0
VERTEX
  5
2B5
  8
SUAVIZADO_EXTERNO
 10
-18.45754826410811
 20
-73.71151476499205
 30
0.0
  0
VERTEX
  5
2B6
  8
SUAVIZADO_EXTERNO
 10
-18.46432400006107
 20
-73.69985960510023
 30
0.0
  0
VERTEX
  5
2B7
  8
SUAVIZADO_EXTERNO
 10
-18.47091963016617
 20
-73.68792729684958
 30
0.0
  0
VERTEX
  5
2B8
  8
SUAVIZADO_EXTERNO
 10
-18.47733956787238
 20
-73.67568471450284
 30
0.0
  0
VERTEX
  5
2B9
  8
SUAVIZADO_EXTERNO
 10
-18.48358822662865
 20
-73.66309873232275
 30
0.0
  0
VERTEX
  5
2BA
  8
SUAVIZADO_EXTERNO
 10
-18.48967001988394
 20
-73.65013622457204
 30
0.0
  0
VERTEX
  5
2BB
  8
SUAVIZADO_EXTERNO
 10
-18.4955893610872
 20
-73.63676406551342
 30
0.0
  0
VERTEX
  5
2BC
  8
SUAVIZADO_EXTERNO
 10
-18.50210994825826
 20
-73.62108520374605
 30
0.0
  0
VERTEX
  5
2BD
  8
SUAVIZADO_EXTERNO
 10
-18.50843233895549
 20
-73.60491426497285
 30
0.0
  0
VERTEX
  5
2BE
  8
SUAVIZADO_EXTERNO
 10
-18.52050248547888
 20
-73.57140490478885
 30
0.0
  0
VERTEX
  5
2BF
  8
SUAVIZADO_EXTERNO
 10
-18.53183970975822
 20
-73.53685348172115
 30
0.0
  0
VERTEX
  5
2C0
  8
SUAVIZADO_EXTERNO
 10
-18.54248392089436
 20
-73.50187749252945
 30
0.0
  0
VERTEX
  5
2C1
  8
SUAVIZADO_EXTERNO
 10
-18.57892881602374
 20
-73.37007780971649
 30
0.0
  0
VERTEX
  5
2C2
  8
SUAVIZADO_EXTERNO
 10
-18.59984866654947
 20
-73.29206195109569
 30
0.0
  0
VERTEX
  5
2C3
  8
SUAVIZADO_EXTERNO
 10
-18.60391244915768
 20
-73.27417890151852
 30
0.0
  0
VERTEX
  5
2C4
  8
SUAVIZADO_EXTERNO
 10
-18.60737971389057
 20
-73.25640007320463
 30
0.0
  0
VERTEX
  5
2C5
  8
SUAVIZADO_EXTERNO
 10
-18.60886933238721
 20
-73.24746471940142
 30
0.0
  0
VERTEX
  5
2C6
  8
SUAVIZADO_EXTERNO
 10
-18.61018543781514
 20
-73.23845339377002
 30
0.0
  0
VERTEX
  5
2C7
  8
SUAVIZADO_EXTERNO
 10
-18.61131990230773
 20
-73.22933208726246
 30
0.0
  0
VERTEX
  5
2C8
  8
SUAVIZADO_EXTERNO
 10
-18.61226459799836
 20
-73.22006679083073
 30
0.0
  0
VERTEX
  5
2C9
  8
SUAVIZADO_EXTERNO
 10
-18.61304276332248
 20
-73.21023734813477
 30
0.0
  0
VERTEX
  5
2CA
  8
SUAVIZADO_EXTERNO
 10
-18.61362584904814
 20
-73.20023507405264
 30
0.0
  0
VERTEX
  5
2CB
  8
SUAVIZADO_EXTERNO
 10
-18.61428505960856
 20
-73.17979297415559
 30
0.0
  0
VERTEX
  5
2CC
  8
SUAVIZADO_EXTERNO
 10
-18.61439878548862
 20
-73.15890237599103
 30
0.0
  0
VERTEX
  5
2CD
  8
SUAVIZADO_EXTERNO
 10
-18.61226459799836
 20
-73.05338788095766
 30
0.0
  0
VERTEX
  5
2CE
  8
SUAVIZADO_EXTERNO
 10
-18.61346051919094
 20
-72.9509540201881
 30
0.0
  0
VERTEX
  5
2CF
  8
SUAVIZADO_EXTERNO
 10
-18.61309081877845
 20
-72.93530063443622
 30
0.0
  0
VERTEX
  5
2D0
  8
SUAVIZADO_EXTERNO
 10
-18.61226459799835
 20
-72.92004475305919
 30
0.0
  0
VERTEX
  5
2D1
  8
SUAVIZADO_EXTERNO
 10
-18.61110685841388
 20
-72.90705548826635
 30
0.0
  0
VERTEX
  5
2D2
  8
SUAVIZADO_EXTERNO
 10
-18.60957366916436
 20
-72.89431272422111
 30
0.0
  0
VERTEX
  5
2D3
  8
SUAVIZADO_EXTERNO
 10
-18.60772050554102
 20
-72.88176297434286
 30
0.0
  0
VERTEX
  5
2D4
  8
SUAVIZADO_EXTERNO
 10
-18.60560284283513
 20
-72.86935275205101
 30
0.0
  0
VERTEX
  5
2D5
  8
SUAVIZADO_EXTERNO
 10
-18.58569359017661
 20
-72.76969881968658
 30
0.0
  0
VERTEX
  5
2D6
  8
SUAVIZADO_EXTERNO
 10
-18.58359363385956
 20
-72.75711272758433
 30
0.0
  0
VERTEX
  5
2D7
  8
SUAVIZADO_EXTERNO
 10
-18.58173564122109
 20
-72.74461094219983
 30
0.0
  0
VERTEX
  5
2D8
  8
SUAVIZADO_EXTERNO
 10
-18.58016542952216
 20
-72.73223590593993
 30
0.0
  0
VERTEX
  5
2D9
  8
SUAVIZADO_EXTERNO
 10
-18.57892881602374
 20
-72.72003006121149
 30
0.0
  0
VERTEX
  5
2DA
  8
SUAVIZADO_EXTERNO
 10
-18.5781241120952
 20
-72.70913813453174
 30
0.0
  0
VERTEX
  5
2DB
  8
SUAVIZADO_EXTERNO
 10
-18.57760396502816
 20
-72.69840737251798
 30
0.0
  0
VERTEX
  5
2DC
  8
SUAVIZADO_EXTERNO
 10
-18.57734105409595
 20
-72.68782497781042
 30
0.0
  0
VERTEX
  5
2DD
  8
SUAVIZADO_EXTERNO
 10
-18.5773080585719
 20
-72.67737815304935
 30
0.0
  0
VERTEX
  5
2DE
  8
SUAVIZADO_EXTERNO
 10
-18.57782253084157
 20
-72.65684002392766
 30
0.0
  0
VERTEX
  5
2DF
  8
SUAVIZADO_EXTERNO
 10
-18.57892881602374
 20
-72.63669060627495
 30
0.0
  0
VERTEX
  5
2E0
  8
SUAVIZADO_EXTERNO
 10
-18.57958918008835
 20
-72.62765206920336
 30
0.0
  0
VERTEX
  5
2E1
  8
SUAVIZADO_EXTERNO
 10
-18.58043637751808
 20
-72.61871998874213
 30
0.0
  0
VERTEX
  5
2E2
  8
SUAVIZADO_EXTERNO
 10
-18.58096437827749
 20
-72.61430869087617
 30
0.0
  0
VERTEX
  5
2E3
  8
SUAVIZADO_EXTERNO
 10
-18.58158029481733
 20
-72.60994179252577
 30
0.0
  0
VERTEX
  5
2E4
  8
SUAVIZADO_EXTERNO
 10
-18.58229786295066
 20
-72.60562522214522
 30
0.0
  0
VERTEX
  5
2E5
  8
SUAVIZADO_EXTERNO
 10
-18.58313081849053
 20
-72.60136490818884
 30
0.0
  0
VERTEX
  5
2E6
  8
SUAVIZADO_EXTERNO
 10
-18.58409289724999
 20
-72.59716677911095
 30
0.0
  0
VERTEX
  5
2E7
  8
SUAVIZADO_EXTERNO
 10
-18.58462665027865
 20
-72.5950928865434
 30
0.0
  0
VERTEX
  5
2E8
  8
SUAVIZADO_EXTERNO
 10
-18.58519783504209
 20
-72.59303676336584
 30
0.0
  0
VERTEX
  5
2E9
  8
SUAVIZADO_EXTERNO
 10
-18.58580816851696
 20
-72.59099915063507
 30
0.0
  0
VERTEX
  5
2EA
  8
SUAVIZADO_EXTERNO
 10
-18.58645936767989
 20
-72.58898078940786
 30
0.0
  0
VERTEX
  5
2EB
  8
SUAVIZADO_EXTERNO
 10
-18.58715314950749
 20
-72.58698242074101
 30
0.0
  0
VERTEX
  5
2EC
  8
SUAVIZADO_EXTERNO
 10
-18.58789123097642
 20
-72.58500478569131
 30
0.0
  0
VERTEX
  5
2ED
  8
SUAVIZADO_EXTERNO
 10
-18.5886753290633
 20
-72.58304862531556
 30
0.0
  0
VERTEX
  5
2EE
  8
SUAVIZADO_EXTERNO
 10
-18.58950716074475
 20
-72.58111468067051
 30
0.0
  0
VERTEX
  5
2EF
  8
SUAVIZADO_EXTERNO
 10
-18.59038844299742
 20
-72.579203692813
 30
0.0
  0
VERTEX
  5
2F0
  8
SUAVIZADO_EXTERNO
 10
-18.59132089279793
 20
-72.57731640279977
 30
0.0
  0
VERTEX
  5
2F1
  8
SUAVIZADO_EXTERNO
 10
-18.59230622712292
 20
-72.57545355168764
 30
0.0
  0
VERTEX
  5
2F2
  8
SUAVIZADO_EXTERNO
 10
-18.59334616294901
 20
-72.5736158805334
 30
0.0
  0
VERTEX
  5
2F3
  8
SUAVIZADO_EXTERNO
 10
-18.59444241725285
 20
-72.57180413039383
 30
0.0
  0
VERTEX
  5
2F4
  8
SUAVIZADO_EXTERNO
 10
-18.59559670701105
 20
-72.57001904232573
 30
0.0
  0
VERTEX
  5
2F5
  8
SUAVIZADO_EXTERNO
 10
-18.59693627471885
 20
-72.56808470144435
 30
0.0
  0
VERTEX
  5
2F6
  8
SUAVIZADO_EXTERNO
 10
-18.59834607873689
 20
-72.56618275093305
 30
0.0
  0
VERTEX
  5
2F7
  8
SUAVIZADO_EXTERNO
 10
-18.59982389490941
 20
-72.56431234998774
 30
0.0
  0
VERTEX
  5
2F8
  8
SUAVIZADO_EXTERNO
 10
-18.60136749908065
 20
-72.56247265780436
 30
0.0
  0
VERTEX
  5
2F9
  8
SUAVIZADO_EXTERNO
 10
-18.60297466709483
 20
-72.56066283357876
 30
0.0
  0
VERTEX
  5
2FA
  8
SUAVIZADO_EXTERNO
 10
-18.60464317479621
 20
-72.55888203650687
 30
0.0
  0
VERTEX
  5
2FB
  8
SUAVIZADO_EXTERNO
 10
-18.60637079802902
 20
-72.55712942578461
 30
0.0
  0
VERTEX
  5
2FC
  8
SUAVIZADO_EXTERNO
 10
-18.6081553126375
 20
-72.55540416060784
 30
0.0
  0
VERTEX
  5
2FD
  8
SUAVIZADO_EXTERNO
 10
-18.60999449446588
 20
-72.55370540017248
 30
0.0
  0
VERTEX
  5
2FE
  8
SUAVIZADO_EXTERNO
 10
-18.6118861193584
 20
-72.55203230367442
 30
0.0
  0
VERTEX
  5
2FF
  8
SUAVIZADO_EXTERNO
 10
-18.61382796315931
 20
-72.5503840303096
 30
0.0
  0
VERTEX
  5
300
  8
SUAVIZADO_EXTERNO
 10
-18.61581780171284
 20
-72.54875973927389
 30
0.0
  0
VERTEX
  5
301
  8
SUAVIZADO_EXTERNO
 10
-18.61993256645471
 20
-72.54557974097342
 30
0.0
  0
VERTEX
  5
302
  8
SUAVIZADO_EXTERNO
 10
-18.62421262033792
 20
-72.54248558234025
 30
0.0
  0
VERTEX
  5
303
  8
SUAVIZADO_EXTERNO
 10
-18.62864017011637
 20
-72.5394705369416
 30
0.0
  0
VERTEX
  5
304
  8
SUAVIZADO_EXTERNO
 10
-18.63319742254397
 20
-72.53652787834469
 30
0.0
  0
VERTEX
  5
305
  8
SUAVIZADO_EXTERNO
 10
-18.63786658437461
 20
-72.53365088011672
 30
0.0
  0
VERTEX
  5
306
  8
SUAVIZADO_EXTERNO
 10
-18.64262986236221
 20
-72.53083281582494
 30
0.0
  0
VERTEX
  5
307
  8
SUAVIZADO_EXTERNO
 10
-18.6523675938239
 20
-72.52534658331872
 30
0.0
  0
VERTEX
  5
308
  8
SUAVIZADO_EXTERNO
 10
-18.66226827096028
 20
-72.5200153693638
 30
0.0
  0
VERTEX
  5
309
  8
SUAVIZADO_EXTERNO
 10
-18.68293545370106
 20
-72.50940002714736
 30
0.0
  0
VERTEX
  5
30A
  8
SUAVIZADO_EXTERNO
 10
-18.69330664511732
 20
-72.50445928315762
 30
0.0
  0
VERTEX
  5
30B
  8
SUAVIZADO_EXTERNO
 10
-18.70370520733881
 20
-72.49987164901336
 30
0.0
  0
VERTEX
  5
30C
  8
SUAVIZADO_EXTERNO
 10
-18.70891529252683
 20
-72.49773567589106
 30
0.0
  0
VERTEX
  5
30D
  8
SUAVIZADO_EXTERNO
 10
-18.71413286844652
 20
-72.4957184935395
 30
0.0
  0
VERTEX
  5
30E
  8
SUAVIZADO_EXTERNO
 10
-18.71935815110802
 20
-72.49383027306175
 30
0.0
  0
VERTEX
  5
30F
  8
SUAVIZADO_EXTERNO
 10
-18.72459135652144
 20
-72.49208118556092
 30
0.0
  0
VERTEX
  5
310
  8
SUAVIZADO_EXTERNO
 10
-18.7298327006969
 20
-72.49048140214015
 30
0.0
  0
VERTEX
  5
311
  8
SUAVIZADO_EXTERNO
 10
-18.73508239964454
 20
-72.48904109390253
 30
0.0
  0
VERTEX
  5
312
  8
SUAVIZADO_EXTERNO
 10
-18.74034066937447
 20
-72.48777043195116
 30
0.0
  0
VERTEX
  5
313
  8
SUAVIZADO_EXTERNO
 10
-18.74560772589682
 20
-72.48667958738919
 30
0.0
  0
VERTEX
  5
314
  8
SUAVIZADO_EXTERNO
 10
-18.74839143586276
 20
-72.48617925831289
 30
0.0
  0
VERTEX
  5
315
  8
SUAVIZADO_EXTERNO
 10
-18.75117942857408
 20
-72.485729972778
 30
0.0
  0
VERTEX
  5
316
  8
SUAVIZADO_EXTERNO
 10
-18.75677536254358
 20
-72.48497702663406
 30
0.0
  0
VERTEX
  5
317
  8
SUAVIZADO_EXTERNO
 10
-18.76240972842677
 20
-72.4844057375604
 30
0.0
  0
VERTEX
  5
318
  8
SUAVIZADO_EXTERNO
 10
-18.76809672684514
 20
-72.48400109416008
 30
0.0
  0
VERTEX
  5
319
  8
SUAVIZADO_EXTERNO
 10
-18.77385055842013
 20
-72.48374808503615
 30
0.0
  0
VERTEX
  5
31A
  8
SUAVIZADO_EXTERNO
 10
-18.77968542377321
 20
-72.48363169879168
 30
0.0
  0
VERTEX
  5
31B
  8
SUAVIZADO_EXTERNO
 10
-18.78561552352583
 20
-72.48363692402972
 30
0.0
  0
VERTEX
  5
31C
  8
SUAVIZADO_EXTERNO
 10
-18.79165505829948
 20
-72.48374874935332
 30
0.0
  0
VERTEX
  5
31D
  8
SUAVIZADO_EXTERNO
 10
-18.94766083072425
 20
-72.49142024975815
 30
0.0
  0
VERTEX
  5
31E
  8
SUAVIZADO_EXTERNO
 10
-18.97593663553524
 20
-72.49329274651491
 30
0.0
  0
VERTEX
  5
31F
  8
SUAVIZADO_EXTERNO
 10
-19.00468057744067
 20
-72.49578863158705
 30
0.0
  0
VERTEX
  5
320
  8
SUAVIZADO_EXTERNO
 10
-19.03357385197074
 20
-72.49908213289933
 30
0.0
  0
VERTEX
  5
321
  8
SUAVIZADO_EXTERNO
 10
-19.04797686257321
 20
-72.50108243587201
 30
0.0
  0
VERTEX
  5
322
  8
SUAVIZADO_EXTERNO
 10
-19.06229765465567
 20
-72.5033474783765
 30
0.0
  0
VERTEX
  5
323
  8
SUAVIZADO_EXTERNO
 10
-19.07730783525601
 20
-72.50604494430333
 30
0.0
  0
VERTEX
  5
324
  8
SUAVIZADO_EXTERNO
 10
-19.0921957367673
 20
-72.50904048316593
 30
0.0
  0
VERTEX
  5
325
  8
SUAVIZADO_EXTERNO
 10
-19.10697539682328
 20
-72.5123122081015
 30
0.0
  0
VERTEX
  5
326
  8
SUAVIZADO_EXTERNO
 10
-19.12166085305771
 20
-72.51583823224723
 30
0.0
  0
VERTEX
  5
327
  8
SUAVIZADO_EXTERNO
 10
-19.15080530459696
 20
-72.52356563071794
 30
0.0
  0
VERTEX
  5
328
  8
SUAVIZADO_EXTERNO
 10
-19.1797413924551
 20
-72.53204758367553
 30
0.0
  0
VERTEX
  5
329
  8
SUAVIZADO_EXTERNO
 10
-19.41533069389275
 20
-72.60940107543698
 30
0.0
  0
VERTEX
  5
32A
  8
SUAVIZADO_EXTERNO
 10
-19.44477184243476
 20
-72.61970559955066
 30
0.0
  0
VERTEX
  5
32B
  8
SUAVIZADO_EXTERNO
 10
-19.47365295597554
 20
-72.63039844091924
 30
0.0
  0
VERTEX
  5
32C
  8
SUAVIZADO_EXTERNO
 10
-19.50178991557681
 20
-72.64158195500302
 30
0.0
  0
VERTEX
  5
32D
  8
SUAVIZADO_EXTERNO
 10
-19.52899860230028
 20
-72.65335849726226
 30
0.0
  0
VERTEX
  5
32E
  8
SUAVIZADO_EXTERNO
 10
-19.55220639130496
 20
-72.6643482551653
 30
0.0
  0
VERTEX
  5
32F
  8
SUAVIZADO_EXTERNO
 10
-19.57460643280344
 20
-72.67584560230338
 30
0.0
  0
VERTEX
  5
330
  8
SUAVIZADO_EXTERNO
 10
-19.59626361122448
 20
-72.68781262410718
 30
0.0
  0
VERTEX
  5
331
  8
SUAVIZADO_EXTERNO
 10
-19.6172428109968
 20
-72.70021140600737
 30
0.0
  0
VERTEX
  5
332
  8
SUAVIZADO_EXTERNO
 10
-19.63760891654911
 20
-72.71300403343467
 30
0.0
  0
VERTEX
  5
333
  8
SUAVIZADO_EXTERNO
 10
-19.65742681231016
 20
-72.72615259181975
 30
0.0
  0
VERTEX
  5
334
  8
SUAVIZADO_EXTERNO
 10
-19.67676138270867
 20
-72.73961916659334
 30
0.0
  0
VERTEX
  5
335
  8
SUAVIZADO_EXTERNO
 10
-19.69567751217336
 20
-72.7533658431861
 30
0.0
  0
VERTEX
  5
336
  8
SUAVIZADO_EXTERNO
 10
-19.71339843725543
 20
-72.76672947708224
 30
0.0
  0
VERTEX
  5
337
  8
SUAVIZADO_EXTERNO
 10
-19.73080422239521
 20
-72.7803565484125
 30
0.0
  0
VERTEX
  5
338
  8
SUAVIZADO_EXTERNO
 10
-19.74790200412174
 20
-72.79428973427665
 30
0.0
  0
VERTEX
  5
339
  8
SUAVIZADO_EXTERNO
 10
-19.76469891896406
 20
-72.80857171177446
 30
0.0
  0
VERTEX
  5
33A
  8
SUAVIZADO_EXTERNO
 10
-19.7812021034512
 20
-72.82324515800568
 30
0.0
  0
VERTEX
  5
33B
  8
SUAVIZADO_EXTERNO
 10
-19.79741869411219
 20
-72.83835275007004
 30
0.0
  0
VERTEX
  5
33C
  8
SUAVIZADO_EXTERNO
 10
-19.81335582747605
 20
-72.85393716506732
 30
0.0
  0
VERTEX
  5
33D
  8
SUAVIZADO_EXTERNO
 10
-19.82902064007183
 20
-72.87004108009727
 30
0.0
  0
VERTEX
  5
33E
  8
SUAVIZADO_EXTERNO
 10
-19.84495758789676
 20
-72.88729473449077
 30
0.0
  0
VERTEX
  5
33F
  8
SUAVIZADO_EXTERNO
 10
-19.86057610000346
 20
-72.90509301835385
 30
0.0
  0
VERTEX
  5
340
  8
SUAVIZADO_EXTERNO
 10
-19.87584217379233
 20
-72.92337757737565
 30
0.0
  0
VERTEX
  5
341
  8
SUAVIZADO_EXTERNO
 10
-19.89072180666376
 20
-72.9420900572452
 30
0.0
  0
VERTEX
  5
342
  8
SUAVIZADO_EXTERNO
 10
-19.90518099601814
 20
-72.96117210365162
 30
0.0
  0
VERTEX
  5
343
  8
SUAVIZADO_EXTERNO
 10
-19.91918573925588
 20
-72.98056536228398
 30
0.0
  0
VERTEX
  5
344
  8
SUAVIZADO_EXTERNO
 10
-19.93270203377736
 20
-73.00021147883143
 30
0.0
  0
VERTEX
  5
345
  8
SUAVIZADO_EXTERNO
 10
-19.94569587698298
 20
-73.02005209898303
 30
0.0
  0
VERTEX
  5
346
  8
SUAVIZADO_EXTERNO
 10
-19.95725434601455
 20
-73.0386196548785
 30
0.0
  0
VERTEX
  5
347
  8
SUAVIZADO_EXTERNO
 10
-19.96818527357346
 20
-73.05728312159883
 30
0.0
  0
VERTEX
  5
348
  8
SUAVIZADO_EXTERNO
 10
-19.97336951071212
 20
-73.06664404176735
 30
0.0
  0
VERTEX
  5
349
  8
SUAVIZADO_EXTERNO
 10
-19.97834178417634
 20
-73.0760208039409
 30
0.0
  0
VERTEX
  5
34A
  8
SUAVIZADO_EXTERNO
 10
-19.98308373453072
 20
-73.0854106962191
 30
0.0
  0
VERTEX
  5
34B
  8
SUAVIZADO_EXTERNO
 10
-19.98757700233982
 20
-73.09481100670159
 30
0.0
  0
VERTEX
  5
34C
  8
SUAVIZADO_EXTERNO
 10
-19.99180322816822
 20
-73.10421902348797
 30
0.0
  0
VERTEX
  5
34D
  8
SUAVIZADO_EXTERNO
 10
-19.99574405258052
 20
-73.11363203467783
 30
0.0
  0
VERTEX
  5
34E
  8
SUAVIZADO_EXTERNO
 10
-19.99938111614127
 20
-73.12304732837082
 30
0.0
  0
VERTEX
  5
34F
  8
SUAVIZADO_EXTERNO
 10
-20.00269605941507
 20
-73.13246219266651
 30
0.0
  0
VERTEX
  5
350
  8
SUAVIZADO_EXTERNO
 10
-20.00567052296648
 20
-73.14187391566455
 30
0.0
  0
VERTEX
  5
351
  8
SUAVIZADO_EXTERNO
 10
-20.00702433752272
 20
-73.14657775170807
 30
0.0
  0
VERTEX
  5
352
  8
SUAVIZADO_EXTERNO
 10
-20.00828614736009
 20
-73.15127978546454
 30
0.0
  0
VERTEX
  5
353
  8
SUAVIZADO_EXTERNO
 10
-20.00945365754915
 20
-73.15597967794639
 30
0.0
  0
VERTEX
  5
354
  8
SUAVIZADO_EXTERNO
 10
-20.01052457316047
 20
-73.16067709016608
 30
0.0
  0
VERTEX
  5
355
  8
SUAVIZADO_EXTERNO
 10
-20.01149659926464
 20
-73.16537168313607
 30
0.0
  0
VERTEX
  5
356
  8
SUAVIZADO_EXTERNO
 10
-20.01236744093222
 20
-73.17006311786879
 30
0.0
  0
VERTEX
  5
357
  8
SUAVIZADO_EXTERNO
 10
-20.01310586074977
 20
-73.17455860865256
 30
0.0
  0
VERTEX
  5
358
  8
SUAVIZADO_EXTERNO
 10
-20.01375040146047
 20
-73.17905230445416
 30
0.0
  0
VERTEX
  5
359
  8
SUAVIZADO_EXTERNO
 10
-20.01430232651428
 20
-73.18354562576248
 30
0.0
  0
VERTEX
  5
35A
  8
SUAVIZADO_EXTERNO
 10
-20.01476289936116
 20
-73.18803999306643
 30
0.0
  0
VERTEX
  5
35B
  8
SUAVIZADO_EXTERNO
 10
-20.0151333834511
 20
-73.19253682685489
 30
0.0
  0
VERTEX
  5
35C
  8
SUAVIZADO_EXTERNO
 10
-20.01541504223405
 20
-73.19703754761682
 30
0.0
  0
VERTEX
  5
35D
  8
SUAVIZADO_EXTERNO
 10
-20.01560913916
 20
-73.20154357584106
 30
0.0
  0
VERTEX
  5
35E
  8
SUAVIZADO_EXTERNO
 10
-20.01571693767892
 20
-73.20605633201654
 30
0.0
  0
VERTEX
  5
35F
  8
SUAVIZADO_EXTERNO
 10
-20.01573970124076
 20
-73.21057723663219
 30
0.0
  0
VERTEX
  5
360
  8
SUAVIZADO_EXTERNO
 10
-20.01567869329551
 20
-73.21510771017688
 30
0.0
  0
VERTEX
  5
361
  8
SUAVIZADO_EXTERNO
 10
-20.01553517729313
 20
-73.21964917313954
 30
0.0
  0
VERTEX
  5
362
  8
SUAVIZADO_EXTERNO
 10
-20.0153104166836
 20
-73.22420304600908
 30
0.0
  0
VERTEX
  5
363
  8
SUAVIZADO_EXTERNO
 10
-20.01462221544294
 20
-73.23335370342434
 30
0.0
  0
VERTEX
  5
364
  8
SUAVIZADO_EXTERNO
 10
-20.01362419717331
 20
-73.24257104633392
 30
0.0
  0
VERTEX
  5
365
  8
SUAVIZADO_EXTERNO
 10
-20.01232646947448
 20
-73.25186643864906
 30
0.0
  0
VERTEX
  5
366
  8
SUAVIZADO_EXTERNO
 10
-20.0107391399462
 20
-73.26125124428098
 30
0.0
  0
VERTEX
  5
367
  8
SUAVIZADO_EXTERNO
 10
-20.00887231618823
 20
-73.27073682714095
 30
0.0
  0
VERTEX
  5
368
  8
SUAVIZADO_EXTERNO
 10
-20.00673610580034
 20
-73.28033455114019
 30
0.0
  0
VERTEX
  5
369
  8
SUAVIZADO_EXTERNO
 10
-20.0043406163823
 20
-73.29005578018993
 30
0.0
  0
VERTEX
  5
36A
  8
SUAVIZADO_EXTERNO
 10
-20.00169595553387
 20
-73.29991187820141
 30
0.0
  0
VERTEX
  5
36B
  8
SUAVIZADO_EXTERNO
 10
-19.99569954994491
 20
-73.32007413675457
 30
0.0
  0
VERTEX
  5
36C
  8
SUAVIZADO_EXTERNO
 10
-19.99140338631246
 20
-73.33328386487766
 30
0.0
  0
VERTEX
  5
36D
  8
SUAVIZADO_EXTERNO
 10
-19.98674286508447
 20
-73.34672830145439
 30
0.0
  0
VERTEX
  5
36E
  8
SUAVIZADO_EXTERNO
 10
-19.98171046178356
 20
-73.36036666419629
 30
0.0
  0
VERTEX
  5
36F
  8
SUAVIZADO_EXTERNO
 10
-19.97629865193238
 20
-73.37415817081481
 30
0.0
  0
VERTEX
  5
370
  8
SUAVIZADO_EXTERNO
 10
-19.97049991105354
 20
-73.38806203902142
 30
0.0
  0
VERTEX
  5
371
  8
SUAVIZADO_EXTERNO
 10
-19.96430671466969
 20
-73.40203748652759
 30
0.0
  0
VERTEX
  5
372
  8
SUAVIZADO_EXTERNO
 10
-19.95771153830344
 20
-73.41604373104481
 30
0.0
  0
VERTEX
  5
373
  8
SUAVIZADO_EXTERNO
 10
-19.95070685747744
 20
-73.43003999028454
 30
0.0
  0
VERTEX
  5
374
  8
SUAVIZADO_EXTERNO
 10
-19.9432851477143
 20
-73.44398548195825
 30
0.0
  0
VERTEX
  5
375
  8
SUAVIZADO_EXTERNO
 10
-19.93543888453667
 20
-73.45783942377741
 30
0.0
  0
VERTEX
  5
376
  8
SUAVIZADO_EXTERNO
 10
-19.92716054346717
 20
-73.47156103345353
 30
0.0
  0
VERTEX
  5
377
  8
SUAVIZADO_EXTERNO
 10
-19.91844260002843
 20
-73.48510952869803
 30
0.0
  0
VERTEX
  5
378
  8
SUAVIZADO_EXTERNO
 10
-19.90927752974309
 20
-73.49844412722241
 30
0.0
  0
VERTEX
  5
379
  8
SUAVIZADO_EXTERNO
 10
-19.89965780813378
 20
-73.51152404673816
 30
0.0
  0
VERTEX
  5
37A
  8
SUAVIZADO_EXTERNO
 10
-19.88957591072312
 20
-73.52430850495672
 30
0.0
  0
VERTEX
  5
37B
  8
SUAVIZADO_EXTERNO
 10
-19.88435929469311
 20
-73.5305771916144
 30
0.0
  0
VERTEX
  5
37C
  8
SUAVIZADO_EXTERNO
 10
-19.87902431303375
 20
-73.53675671958959
 30
0.0
  0
VERTEX
  5
37D
  8
SUAVIZADO_EXTERNO
 10
-19.8728949290718
 20
-73.54358214821427
 30
0.0
  0
VERTEX
  5
37E
  8
SUAVIZADO_EXTERNO
 10
-19.8666190293916
 20
-73.55029319821776
 30
0.0
  0
VERTEX
  5
37F
  8
SUAVIZADO_EXTERNO
 10
-19.86020040304924
 20
-73.55689423751959
 30
0.0
  0
VERTEX
  5
380
  8
SUAVIZADO_EXTERNO
 10
-19.85364283910083
 20
-73.56338963403931
 30
0.0
  0
VERTEX
  5
381
  8
SUAVIZADO_EXTERNO
 10
-19.84012605461017
 20
-73.57608097041071
 30
0.0
  0
VERTEX
  5
382
  8
SUAVIZADO_EXTERNO
 10
-19.82609898836839
 20
-73.58840215068838
 30
0.0
  0
VERTEX
  5
383
  8
SUAVIZADO_EXTERNO
 10
-19.81159195282423
 20
-73.60038811822874
 30
0.0
  0
VERTEX
  5
384
  8
SUAVIZADO_EXTERNO
 10
-19.79663526042645
 20
-73.61207381638823
 30
0.0
  0
VERTEX
  5
385
  8
SUAVIZADO_EXTERNO
 10
-19.78125922362378
 20
-73.6234941885233
 30
0.0
  0
VERTEX
  5
386
  8
SUAVIZADO_EXTERNO
 10
-19.765494154865
 20
-73.63468417799035
 30
0.0
  0
VERTEX
  5
387
  8
SUAVIZADO_EXTERNO
 10
-19.73291817127404
 20
-73.65651278234611
 30
0.0
  0
VERTEX
  5
388
  8
SUAVIZADO_EXTERNO
 10
-19.69914980924358
 20
-73.67783917630702
 30
0.0
  0
VERTEX
  5
389
  8
SUAVIZADO_EXTERNO
 10
-19.46946010871958
 20
-73.8169077463184
 30
0.0
  0
VERTEX
  5
38A
  8
SUAVIZADO_EXTERNO
 10
-19.38987610864224
 20
-73.86771825501327
 30
0.0
  0
VERTEX
  5
38B
  8
SUAVIZADO_EXTERNO
 10
-19.31231601946528
 20
-73.92011821229764
 30
0.0
  0
VERTEX
  5
38C
  8
SUAVIZADO_EXTERNO
 10
-19.11920920080096
 20
-74.0624521163673
 30
0.0
  0
VERTEX
  5
38D
  8
SUAVIZADO_EXTERNO
 10
-19.06229765465566
 20
-74.10346501315804
 30
0.0
  0
VERTEX
  5
38E
  8
SUAVIZADO_EXTERNO
 10
-18.95732727718166
 20
-74.17402905649965
 30
0.0
  0
VERTEX
  5
38F
  8
SUAVIZADO_EXTERNO
 10
-18.93693230226434
 20
-74.18845190559807
 30
0.0
  0
VERTEX
  5
390
  8
SUAVIZADO_EXTERNO
 10
-18.916409570974
 20
-74.20371677821109
 30
0.0
  0
VERTEX
  5
391
  8
SUAVIZADO_EXTERNO
 10
-18.89561874478259
 20
-74.22014025006919
 30
0.0
  0
VERTEX
  5
392
  8
SUAVIZADO_EXTERNO
 10
-18.86851471282924
 20
-74.24308852088271
 30
0.0
  0
VERTEX
  5
393
  8
SUAVIZADO_EXTERNO
 10
-18.71695312285043
 20
-74.37961613077637
 30
0.0
  0
VERTEX
  5
394
  8
SUAVIZADO_EXTERNO
 10
-18.68221672901714
 20
-74.40843968096463
 30
0.0
  0
VERTEX
  5
395
  8
SUAVIZADO_EXTERNO
 10
-18.66415440416245
 20
-74.42271165692047
 30
0.0
  0
VERTEX
  5
396
  8
SUAVIZADO_EXTERNO
 10
-18.64560037997297
 20
-74.4368228329042
 30
0.0
  0
VERTEX
  5
397
  8
SUAVIZADO_EXTERNO
 10
-18.62372254473861
 20
-74.45274925207846
 30
0.0
  0
VERTEX
  5
398
  8
SUAVIZADO_EXTERNO
 10
-18.60126477079089
 20
-74.46841527305139
 30
0.0
  0
VERTEX
  5
399
  8
SUAVIZADO_EXTERNO
 10
-18.55498758109561
 20
-74.49903594575898
 30
0.0
  0
VERTEX
  5
39A
  8
SUAVIZADO_EXTERNO
 10
-18.32095012873712
 20
-74.64245057329892
 30
0.0
  0
VERTEX
  5
39B
  8
SUAVIZADO_EXTERNO
 10
-18.2789067782522
 20
-74.67017330672651
 30
0.0
  0
VERTEX
  5
39C
  8
SUAVIZADO_EXTERNO
 10
-18.24704185932463
 20
-74.69265048077199
 30
0.0
  0
VERTEX
  5
39D
  8
SUAVIZADO_EXTERNO
 10
-18.13209133290628
 20
-74.77944369526081
 30
0.0
  0
VERTEX
  5
39E
  8
SUAVIZADO_EXTERNO
 10
-18.10407799926411
 20
-74.79957471171866
 30
0.0
  0
VERTEX
  5
39F
  8
SUAVIZADO_EXTERNO
 10
-18.08984956610031
 20
-74.80929671957104
 30
0.0
  0
VERTEX
  5
3A0
  8
SUAVIZADO_EXTERNO
 10
-18.07539318906268
 20
-74.81876344661433
 30
0.0
  0
VERTEX
  5
3A1
  8
SUAVIZADO_EXTERNO
 10
-18.06064879341722
 20
-74.82795518243003
 30
0.0
  0
VERTEX
  5
3A2
  8
SUAVIZADO_EXTERNO
 10
-18.04555630442989
 20
-74.8368522165996
 30
0.0
  0
VERTEX
  5
3A3
  8
SUAVIZADO_EXTERNO
 10
-18.03140579872514
 20
-74.84473491347137
 30
0.0
  0
VERTEX
  5
3A4
  8
SUAVIZADO_EXTERNO
 10
-17.94487236291174
 20
-74.88969547684911
 30
0.0
  0
VERTEX
  5
3A5
  8
SUAVIZADO_EXTERNO
 10
-17.93110420430607
 20
-74.89733283650979
 30
0.0
  0
VERTEX
  5
3A6
  8
SUAVIZADO_EXTERNO
 10
-17.91778744426916
 20
-74.90516366317169
 30
0.0
  0
VERTEX
  5
3A7
  8
SUAVIZADO_EXTERNO
 10
-17.91132933696043
 20
-74.90916947937609
 30
0.0
  0
VERTEX
  5
3A8
  8
SUAVIZADO_EXTERNO
 10
-17.90502127718964
 20
-74.91324508562838
 30
0.0
  0
VERTEX
  5
3A9
  8
SUAVIZADO_EXTERNO
 10
-17.89887566425536
 20
-74.91739762302774
 30
0.0
  0
VERTEX
  5
3AA
  8
SUAVIZADO_EXTERNO
 10
-17.89290489745617
 20
-74.9216342326734
 30
0.0
  0
VERTEX
  5
3AB
  8
SUAVIZADO_EXTERNO
 10
-17.88712137609066
 20
-74.92596205566451
 30
0.0
  0
VERTEX
  5
3AC
  8
SUAVIZADO_EXTERNO
 10
-17.88153749945739
 20
-74.9303882331003
 30
0.0
  0
VERTEX
  5
3AD
  8
SUAVIZADO_EXTERNO
 10
-17.87616566685497
 20
-74.93491990607995
 30
0.0
  0
VERTEX
  5
3AE
  8
SUAVIZADO_EXTERNO
 10
-17.87101827758196
 20
-74.93956421570266
 30
0.0
  0
VERTEX
  5
3AF
  8
SUAVIZADO_EXTERNO
 10
-17.86853262397479
 20
-74.94193084084867
 30
0.0
  0
VERTEX
  5
3B0
  8
SUAVIZADO_EXTERNO
 10
-17.86610773093695
 20
-74.94432830306764
 30
0.0
  0
VERTEX
  5
3B1
  8
SUAVIZADO_EXTERNO
 10
-17.86374514838074
 20
-74.94675749499694
 30
0.0
  0
VERTEX
  5
3B2
  8
SUAVIZADO_EXTERNO
 10
-17.86144642621851
 20
-74.94921930927404
 30
0.0
  0
VERTEX
  5
3B3
  8
SUAVIZADO_EXTERNO
 10
-17.85921311436257
 20
-74.95171463853629
 30
0.0
  0
VERTEX
  5
3B4
  8
SUAVIZADO_EXTERNO
 10
-17.85704676272524
 20
-74.9542443754211
 30
0.0
  0
VERTEX
  5
3B5
  8
SUAVIZADO_EXTERNO
 10
-17.85494892121885
 20
-74.95680941256587
 30
0.0
  0
VERTEX
  5
3B6
  8
SUAVIZADO_EXTERNO
 10
-17.85292113975571
 20
-74.95941064260799
 30
0.0
  0
VERTEX
  5
3B7
  8
SUAVIZADO_EXTERNO
 10
-17.85096496824816
 20
-74.96204895818487
 30
0.0
  0
VERTEX
  5
3B8
  8
SUAVIZADO_EXTERNO
 10
-17.8490819566085
 20
-74.9647252519339
 30
0.0
  0
VERTEX
  5
3B9
  8
SUAVIZADO_EXTERNO
 10
-17.84727365474908
 20
-74.96744041649251
 30
0.0
  0
VERTEX
  5
3BA
  8
SUAVIZADO_EXTERNO
 10
-17.8455416125822
 20
-74.97019534449805
 30
0.0
  0
VERTEX
  5
3BB
  8
SUAVIZADO_EXTERNO
 10
-17.84379919400092
 20
-74.97314370782604
 30
0.0
  0
VERTEX
  5
3BC
  8
SUAVIZADO_EXTERNO
 10
-17.84214144539607
 20
-74.97613696276666
 30
0.0
  0
VERTEX
  5
3BD
  8
SUAVIZADO_EXTERNO
 10
-17.84056654630456
 20
-74.979174809049
 30
0.0
  0
VERTEX
  5
3BE
  8
SUAVIZADO_EXTERNO
 10
-17.83907267626329
 20
-74.9822569464021
 30
0.0
  0
VERTEX
  5
3BF
  8
SUAVIZADO_EXTERNO
 10
-17.83765801480918
 20
-74.98538307455505
 30
0.0
  0
VERTEX
  5
3C0
  8
SUAVIZADO_EXTERNO
 10
-17.83632074147913
 20
-74.98855289323691
 30
0.0
  0
VERTEX
  5
3C1
  8
SUAVIZADO_EXTERNO
 10
-17.83505903581005
 20
-74.99176610217674
 30
0.0
  0
VERTEX
  5
3C2
  8
SUAVIZADO_EXTERNO
 10
-17.83387107733886
 20
-74.99502240110358
 30
0.0
  0
VERTEX
  5
3C3
  8
SUAVIZADO_EXTERNO
 10
-17.83275504560244
 20
-74.99832148974653
 30
0.0
  0
VERTEX
  5
3C4
  8
SUAVIZADO_EXTERNO
 10
-17.83170912013772
 20
-75.00166306783463
 30
0.0
  0
VERTEX
  5
3C5
  8
SUAVIZADO_EXTERNO
 10
-17.83073148048161
 20
-75.00504683509695
 30
0.0
  0
VERTEX
  5
3C6
  8
SUAVIZADO_EXTERNO
 10
-17.829820306171
 20
-75.00847249126257
 30
0.0
  0
VERTEX
  5
3C7
  8
SUAVIZADO_EXTERNO
 10
-17.82897377674281
 20
-75.01193973606053
 30
0.0
  0
VERTEX
  5
3C8
  8
SUAVIZADO_EXTERNO
 10
-17.82819007173395
 20
-75.01544826921992
 30
0.0
  0
VERTEX
  5
3C9
  8
SUAVIZADO_EXTERNO
 10
-17.82746737068132
 20
-75.01899779046977
 30
0.0
  0
VERTEX
  5
3CA
  8
SUAVIZADO_EXTERNO
 10
-17.82680385312183
 20
-75.02258799953916
 30
0.0
  0
VERTEX
  5
3CB
  8
SUAVIZADO_EXTERNO
 10
-17.82564708662991
 20
-75.0298892800528
 30
0.0
  0
VERTEX
  5
3CC
  8
SUAVIZADO_EXTERNO
 10
-17.82470520855345
 20
-75.03734970859338
 30
0.0
  0
VERTEX
  5
3CD
  8
SUAVIZADO_EXTERNO
 10
-17.82396365518771
 20
-75.0449668829934
 30
0.0
  0
VERTEX
  5
3CE
  8
SUAVIZADO_EXTERNO
 10
-17.82340786282796
 20
-75.05273840108535
 30
0.0
  0
VERTEX
  5
3CF
  8
SUAVIZADO_EXTERNO
 10
-17.82302326776946
 20
-75.06066186070174
 30
0.0
  0
VERTEX
  5
3D0
  8
SUAVIZADO_EXTERNO
 10
-17.82279530630747
 20
-75.06873485967509
 30
0.0
  0
VERTEX
  5
3D1
  8
SUAVIZADO_EXTERNO
 10
-17.82275102935407
 20
-75.08531986702269
 30
0.0
  0
VERTEX
  5
3D2
  8
SUAVIZADO_EXTERNO
 10
-17.82315852232988
 20
-75.10247420578824
 30
0.0
  0
VERTEX
  5
3D3
  8
SUAVIZADO_EXTERNO
 10
-17.82856610897577
 20
-75.21628002712195
 30
0.0
  0
VERTEX
  5
3D4
  8
SUAVIZADO_EXTERNO
 10
-17.82887372159489
 20
-75.23688160029498
 30
0.0
  0
VERTEX
  5
3D5
  8
SUAVIZADO_EXTERNO
 10
-17.82857855778531
 20
-75.26524364955972
 30
0.0
  0
VERTEX
  5
3D6
  8
SUAVIZADO_EXTERNO
 10
-17.82754986919508
 20
-75.29426868616439
 30
0.0
  0
VERTEX
  5
3D7
  8
SUAVIZADO_EXTERNO
 10
-17.8092158334366
 20
-75.5396260024398
 30
0.0
  0
VERTEX
  5
3D8
  8
SUAVIZADO_EXTERNO
 10
-17.80769880872049
 20
-75.5706014798042
 30
0.0
  0
VERTEX
  5
3D9
  8
SUAVIZADO_EXTERNO
 10
-17.80680678964593
 20
-75.60134740110861
 30
0.0
  0
VERTEX
  5
3DA
  8
SUAVIZADO_EXTERNO
 10
-17.80667562925514
 20
-75.63177451201308
 30
0.0
  0
VERTEX
  5
3DB
  8
SUAVIZADO_EXTERNO
 10
-17.80744118059034
 20
-75.6617935581776
 30
0.0
  0
VERTEX
  5
3DC
  8
SUAVIZADO_EXTERNO
 10
-17.80820267723088
 20
-75.67662216500116
 30
0.0
  0
VERTEX
  5
3DD
  8
SUAVIZADO_EXTERNO
 10
-17.80923929669375
 20
-75.69131528526222
 30
0.0
  0
VERTEX
  5
3DE
  8
SUAVIZADO_EXTERNO
 10
-17.81056802060922
 20
-75.7058617621683
 30
0.0
  0
VERTEX
  5
3DF
  8
SUAVIZADO_EXTERNO
 10
-17.81220583060758
 20
-75.72025043892691
 30
0.0
  0
VERTEX
  5
3E0
  8
SUAVIZADO_EXTERNO
 10
-17.81385970324936
 20
-75.73241404304511
 30
0.0
  0
VERTEX
  5
3E1
  8
SUAVIZADO_EXTERNO
 10
-17.81574172280013
 20
-75.74445524246218
 30
0.0
  0
VERTEX
  5
3E2
  8
SUAVIZADO_EXTERNO
 10
-17.81784192765619
 20
-75.75637501202085
 30
0.0
  0
VERTEX
  5
3E3
  8
SUAVIZADO_EXTERNO
 10
-17.8201503562138
 20
-75.76817432656378
 30
0.0
  0
VERTEX
  5
3E4
  8
SUAVIZADO_EXTERNO
 10
-17.82265704686923
 20
-75.77985416093365
 30
0.0
  0
VERTEX
  5
3E5
  8
SUAVIZADO_EXTERNO
 10
-17.82535203801876
 20
-75.79141548997315
 30
0.0
  0
VERTEX
  5
3E6
  8
SUAVIZADO_EXTERNO
 10
-17.83126707538518
 20
-75.81418653143177
 30
0.0
  0
VERTEX
  5
3E7
  8
SUAVIZADO_EXTERNO
 10
-17.83781577548323
 20
-75.83649524968114
 30
0.0
  0
VERTEX
  5
3E8
  8
SUAVIZADO_EXTERNO
 10
-17.84491844548308
 20
-75.85834944346271
 30
0.0
  0
VERTEX
  5
3E9
  8
SUAVIZADO_EXTERNO
 10
-17.85249539255491
 20
-75.87975691151794
 30
0.0
  0
VERTEX
  5
3EA
  8
SUAVIZADO_EXTERNO
 10
-17.8604669238689
 20
-75.90072545258833
 30
0.0
  0
VERTEX
  5
3EB
  8
SUAVIZADO_EXTERNO
 10
-17.877274967904
 20
-75.94137694874041
 30
0.0
  0
VERTEX
  5
3EC
  8
SUAVIZADO_EXTERNO
 10
-17.92888106751873
 20
-76.05360825867307
 30
0.0
  0
VERTEX
  5
3ED
  8
SUAVIZADO_EXTERNO
 10
-17.98879680039618
 20
-76.18317091859217
 30
0.0
  0
VERTEX
  5
3EE
  8
SUAVIZADO_EXTERNO
 10
-18.00127902578733
 20
-76.20711125177311
 30
0.0
  0
VERTEX
  5
3EF
  8
SUAVIZADO_EXTERNO
 10
-18.0078004620438
 20
-76.21889615918083
 30
0.0
  0
VERTEX
  5
3F0
  8
SUAVIZADO_EXTERNO
 10
-18.01455348605041
 20
-76.23057012778312
 30
0.0
  0
VERTEX
  5
3F1
  8
SUAVIZADO_EXTERNO
 10
-18.02157162683929
 20
-76.24214258306732
 30
0.0
  0
VERTEX
  5
3F2
  8
SUAVIZADO_EXTERNO
 10
-18.02888841344258
 20
-76.25362295052075
 30
0.0
  0
VERTEX
  5
3F3
  8
SUAVIZADO_EXTERNO
 10
-18.03653957688357
 20
-76.2650333663819
 30
0.0
  0
VERTEX
  5
3F4
  8
SUAVIZADO_EXTERNO
 10
-18.04450563196963
 20
-76.27635215420774
 30
0.0
  0
VERTEX
  5
3F5
  8
SUAVIZADO_EXTERNO
 10
-18.05276837406939
 20
-76.287570577606
 30
0.0
  0
VERTEX
  5
3F6
  8
SUAVIZADO_EXTERNO
 10
-18.06130959855146
 20
-76.29867990018442
 30
0.0
  0
VERTEX
  5
3F7
  8
SUAVIZADO_EXTERNO
 10
-18.07011110078442
 20
-76.30967138555076
 30
0.0
  0
VERTEX
  5
3F8
  8
SUAVIZADO_EXTERNO
 10
-18.0791546761369
 20
-76.32053629731271
 30
0.0
  0
VERTEX
  5
3F9
  8
SUAVIZADO_EXTERNO
 10
-18.0884221199775
 20
-76.33126589907805
 30
0.0
  0
VERTEX
  5
3FA
  8
SUAVIZADO_EXTERNO
 10
-18.09789522767483
 20
-76.34185145445448
 30
0.0
  0
VERTEX
  5
3FB
  8
SUAVIZADO_EXTERNO
 10
-18.11738561611408
 20
-76.3625554804716
 30
0.0
  0
VERTEX
  5
3FC
  8
SUAVIZADO_EXTERNO
 10
-18.13748020440351
 20
-76.38257848422595
 30
0.0
  0
VERTEX
  5
3FD
  8
SUAVIZADO_EXTERNO
 10
-18.15803335549199
 20
-76.40185057457938
 30
0.0
  0
VERTEX
  5
3FE
  8
SUAVIZADO_EXTERNO
 10
-18.17889943232835
 20
-76.42030186039382
 30
0.0
  0
VERTEX
  5
3FF
  8
SUAVIZADO_EXTERNO
 10
-18.2000909345308
 20
-76.43800158375967
 30
0.0
  0
VERTEX
  5
400
  8
SUAVIZADO_EXTERNO
 10
-18.22155964983134
 20
-76.45500271481812
 30
0.0
  0
VERTEX
  5
401
  8
SUAVIZADO_EXTERNO
 10
-18.2434136642388
 20
-76.47150714509733
 30
0.0
  0
VERTEX
  5
402
  8
SUAVIZADO_EXTERNO
 10
-18.265761063762
 20
-76.48771676612554
 30
0.0
  0
VERTEX
  5
403
  8
SUAVIZADO_EXTERNO
 10
-18.36224623318874
 20
-76.55364498829229
 30
0.0
  0
VERTEX
  5
404
  8
SUAVIZADO_EXTERNO
 10
-18.54159218327628
 20
-76.6713124541806
 30
0.0
  0
VERTEX
  5
405
  8
SUAVIZADO_EXTERNO
 10
-18.56945233663781
 20
-76.68834774916249
 30
0.0
  0
VERTEX
  5
406
  8
SUAVIZADO_EXTERNO
 10
-18.59559670701105
 20
-76.70365600717805
 30
0.0
  0
VERTEX
  5
407
  8
SUAVIZADO_EXTERNO
 10
-18.61349860537783
 20
-76.71362711675425
 30
0.0
  0
VERTEX
  5
408
  8
SUAVIZADO_EXTERNO
 10
-18.63051569795887
 20
-76.72269040551042
 30
0.0
  0
VERTEX
  5
409
  8
SUAVIZADO_EXTERNO
 10
-18.92895452675721
 20
-76.87033491705114
 30
0.0
  0
VERTEX
  5
40A
  8
SUAVIZADO_EXTERNO
 10
-19.02453511840326
 20
-76.9187962165555
 30
0.0
  0
VERTEX
  5
40B
  8
SUAVIZADO_EXTERNO
 10
-19.04723485818189
 20
-76.93107201207741
 30
0.0
  0
VERTEX
  5
40C
  8
SUAVIZADO_EXTERNO
 10
-19.06943596340971
 20
-76.94366921270536
 30
0.0
  0
VERTEX
  5
40D
  8
SUAVIZADO_EXTERNO
 10
-19.09112819843789
 20
-76.95671642686327
 30
0.0
  0
VERTEX
  5
40E
  8
SUAVIZADO_EXTERNO
 10
-19.11230132761759
 20
-76.970342262975
 30
0.0
  0
VERTEX
  5
40F
  8
SUAVIZADO_EXTERNO
 10
-19.13132417202628
 20
-76.98348813423648
 30
0.0
  0
VERTEX
  5
410
  8
SUAVIZADO_EXTERNO
 10
-19.1498233473712
 20
-76.99717100780109
 30
0.0
  0
VERTEX
  5
411
  8
SUAVIZADO_EXTERNO
 10
-19.16772426626688
 20
-77.01132788728188
 30
0.0
  0
VERTEX
  5
412
  8
SUAVIZADO_EXTERNO
 10
-19.18495234132789
 20
-77.02589577629195
 30
0.0
  0
VERTEX
  5
413
  8
SUAVIZADO_EXTERNO
 10
-19.20143298516876
 20
-77.04081167844433
 30
0.0
  0
VERTEX
  5
414
  8
SUAVIZADO_EXTERNO
 10
-19.2093697118237
 20
-77.04838044807798
 30
0.0
  0
VERTEX
  5
415
  8
SUAVIZADO_EXTERNO
 10
-19.21709161040405
 20
-77.05601259735211
 30
0.0
  0
VERTEX
  5
416
  8
SUAVIZADO_EXTERNO
 10
-19.22458935748665
 20
-77.06370025171834
 30
0.0
  0
VERTEX
  5
417
  8
SUAVIZADO_EXTERNO
 10
-19.2318536296483
 20
-77.07143553662836
 30
0.0
  0
VERTEX
  5
418
  8
SUAVIZADO_EXTERNO
 10
-19.23887510346583
 20
-77.07921057753374
 30
0.0
  0
VERTEX
  5
419
  8
SUAVIZADO_EXTERNO
 10
-19.24564445551605
 20
-77.08701749988613
 30
0.0
  0
VERTEX
  5
41A
  8
SUAVIZADO_EXTERNO
 10
-19.25132800415876
 20
-77.09383841189855
 30
0.0
  0
VERTEX
  5
41B
  8
SUAVIZADO_EXTERNO
 10
-19.2568125720306
 20
-77.10068540761651
 30
0.0
  0
VERTEX
  5
41C
  8
SUAVIZADO_EXTERNO
 10
-19.2620974671283
 20
-77.10756636311153
 30
0.0
  0
VERTEX
  5
41D
  8
SUAVIZADO_EXTERNO
 10
-19.26718199744857
 20
-77.11448915445513
 30
0.0
  0
VERTEX
  5
41E
  8
SUAVIZADO_EXTERNO
 10
-19.27206547098818
 20
-77.12146165771878
 30
0.0
  0
VERTEX
  5
41F
  8
SUAVIZADO_EXTERNO
 10
-19.27674719574384
 20
-77.12849174897406
 30
0.0
  0
VERTEX
  5
420
  8
SUAVIZADO_EXTERNO
 10
-19.2812264797123
 20
-77.13558730429244
 30
0.0
  0
VERTEX
  5
421
  8
SUAVIZADO_EXTERNO
 10
-19.28550263089028
 20
-77.14275619974543
 30
0.0
  0
VERTEX
  5
422
  8
SUAVIZADO_EXTERNO
 10
-19.28957495727453
 20
-77.15000631140455
 30
0.0
  0
VERTEX
  5
423
  8
SUAVIZADO_EXTERNO
 10
-19.29344276686177
 20
-77.15734551534135
 30
0.0
  0
VERTEX
  5
424
  8
SUAVIZADO_EXTERNO
 10
-19.29710536764874
 20
-77.16478168762728
 30
0.0
  0
VERTEX
  5
425
  8
SUAVIZADO_EXTERNO
 10
-19.30056206763218
 20
-77.17232270433388
 30
0.0
  0
VERTEX
  5
426
  8
SUAVIZADO_EXTERNO
 10
-19.30381217480882
 20
-77.17997644153267
 30
0.0
  0
VERTEX
  5
427
  8
SUAVIZADO_EXTERNO
 10
-19.30685499717539
 20
-77.18775077529517
 30
0.0
  0
VERTEX
  5
428
  8
SUAVIZADO_EXTERNO
 10
-19.30968984272864
 20
-77.19565358169288
 30
0.0
  0
VERTEX
  5
429
  8
SUAVIZADO_EXTERNO
 10
-19.31231601946528
 20
-77.2036927367973
 30
0.0
  0
VERTEX
  5
42A
  8
SUAVIZADO_EXTERNO
 10
-19.31487183440934
 20
-77.21236667372551
 30
0.0
  0
VERTEX
  5
42B
  8
SUAVIZADO_EXTERNO
 10
-19.31719837089337
 20
-77.22119052657953
 30
0.0
  0
VERTEX
  5
42C
  8
SUAVIZADO_EXTERNO
 10
-19.31930150082286
 20
-77.23015222056819
 30
0.0
  0
VERTEX
  5
42D
  8
SUAVIZADO_EXTERNO
 10
-19.32118709610333
 20
-77.23923968090031
 30
0.0
  0
VERTEX
  5
42E
  8
SUAVIZADO_EXTERNO
 10
-19.32286102864031
 20
-77.2484408327847
 30
0.0
  0
VERTEX
  5
42F
  8
SUAVIZADO_EXTERNO
 10
-19.3243291703393
 20
-77.25774360143016
 30
0.0
  0
VERTEX
  5
430
  8
SUAVIZADO_EXTERNO
 10
-19.32559739310581
 20
-77.26713591204552
 30
0.0
  0
VERTEX
  5
431
  8
SUAVIZADO_EXTERNO
 10
-19.32667156884536
 20
-77.27660568983958
 30
0.0
  0
VERTEX
  5
432
  8
SUAVIZADO_EXTERNO
 10
-19.32755756946346
 20
-77.28614086002116
 30
0.0
  0
VERTEX
  5
433
  8
SUAVIZADO_EXTERNO
 10
-19.32826126686562
 20
-77.29572934779908
 30
0.0
  0
VERTEX
  5
434
  8
SUAVIZADO_EXTERNO
 10
-19.32878853295735
 20
-77.30535907838214
 30
0.0
  0
VERTEX
  5
435
  8
SUAVIZADO_EXTERNO
 10
-19.32914523964418
 20
-77.31501797697916
 30
0.0
  0
VERTEX
  5
436
  8
SUAVIZADO_EXTERNO
 10
-19.32937046242514
 20
-77.33437497905032
 30
0.0
  0
VERTEX
  5
437
  8
SUAVIZADO_EXTERNO
 10
-19.32898391045259
 20
-77.35370375568307
 30
0.0
  0
VERTEX
  5
438
  8
SUAVIZADO_EXTERNO
 10
-19.32805803786392
 20
-77.37202773178788
 30
0.0
  0
VERTEX
  5
439
  8
SUAVIZADO_EXTERNO
 10
-19.32735934255208
 20
-77.3811096460416
 30
0.0
  0
VERTEX
  5
43A
  8
SUAVIZADO_EXTERNO
 10
-19.32648060241549
 20
-77.39011820568234
 30
0.0
  0
VERTEX
  5
43B
  8
SUAVIZADO_EXTERNO
 10
-19.32540466334436
 20
-77.39903843164974
 30
0.0
  0
VERTEX
  5
43C
  8
SUAVIZADO_EXTERNO
 10
-19.32411437122887
 20
-77.40785534488342
 30
0.0
  0
VERTEX
  5
43D
  8
SUAVIZADO_EXTERNO
 10
-19.32259257195923
 20
-77.41655396632298
 30
0.0
  0
VERTEX
  5
43E
  8
SUAVIZADO_EXTERNO
 10
-19.32082211142564
 20
-77.42511931690805
 30
0.0
  0
VERTEX
  5
43F
  8
SUAVIZADO_EXTERNO
 10
-19.31983827252554
 20
-77.42934733467379
 30
0.0
  0
VERTEX
  5
440
  8
SUAVIZADO_EXTERNO
 10
-19.31878583551828
 20
-77.43353641757827
 30
0.0
  0
VERTEX
  5
441
  8
SUAVIZADO_EXTERNO
 10
-19.31766265614013
 20
-77.43768469323894
 30
0.0
  0
VERTEX
  5
442
  8
SUAVIZADO_EXTERNO
 10
-19.31646659012736
 20
-77.44179028927323
 30
0.0
  0
VERTEX
  5
443
  8
SUAVIZADO_EXTERNO
 10
-19.31519549321625
 20
-77.44585133329862
 30
0.0
  0
VERTEX
  5
444
  8
SUAVIZADO_EXTERNO
 10
-19.31384722114307
 20
-77.44986595293257
 30
0.0
  0
VERTEX
  5
445
  8
SUAVIZADO_EXTERNO
 10
-19.3124196296441
 20
-77.45383227579251
 30
0.0
  0
VERTEX
  5
446
  8
SUAVIZADO_EXTERNO
 10
-19.3109105744556
 20
-77.4577484294959
 30
0.0
  0
VERTEX
  5
447
  8
SUAVIZADO_EXTERNO
 10
-19.30931791131387
 20
-77.46161254166019
 30
0.0
  0
VERTEX
  5
448
  8
SUAVIZADO_EXTERNO
 10
-19.30763949595516
 20
-77.46542273990283
 30
0.0
  0
VERTEX
  5
449
  8
SUAVIZADO_EXTERNO
 10
-19.30587318411577
 20
-77.46917715184131
 30
0.0
  0
VERTEX
  5
44A
  8
SUAVIZADO_EXTERNO
 10
-19.30401683153195
 20
-77.47287390509301
 30
0.0
  0
VERTEX
  5
44B
  8
SUAVIZADO_EXTERNO
 10
-19.30206829393999
 20
-77.47651112727544
 30
0.0
  0
VERTEX
  5
44C
  8
SUAVIZADO_EXTERNO
 10
-19.30002542707616
 20
-77.48008694600603
 30
0.0
  0
VERTEX
  5
44D
  8
SUAVIZADO_EXTERNO
 10
-19.29788608667673
 20
-77.48359948890224
 30
0.0
  0
VERTEX
  5
44E
  8
SUAVIZADO_EXTERNO
 10
-19.29564812847798
 20
-77.48704688358153
 30
0.0
  0
VERTEX
  5
44F
  8
SUAVIZADO_EXTERNO
 10
-19.29325907244447
 20
-77.49049929504865
 30
0.0
  0
VERTEX
  5
450
  8
SUAVIZADO_EXTERNO
 10
-19.29076708599446
 20
-77.49388317359923
 30
0.0
  0
VERTEX
  5
451
  8
SUAVIZADO_EXTERNO
 10
-19.28817435220108
 20
-77.497199901212
 30
0.0
  0
VERTEX
  5
452
  8
SUAVIZADO_EXTERNO
 10
-19.28548305413745
 20
-77.50045085986572
 30
0.0
  0
VERTEX
  5
453
  8
SUAVIZADO_EXTERNO
 10
-19.28269537487673
 20
-77.50363743153915
 30
0.0
  0
VERTEX
  5
454
  8
SUAVIZADO_EXTERNO
 10
-19.27981349749205
 20
-77.50676099821099
 30
0.0
  0
VERTEX
  5
455
  8
SUAVIZADO_EXTERNO
 10
-19.27683960505654
 20
-77.50982294186005
 30
0.0
  0
VERTEX
  5
456
  8
SUAVIZADO_EXTERNO
 10
-19.27377588064333
 20
-77.51282464446504
 30
0.0
  0
VERTEX
  5
457
  8
SUAVIZADO_EXTERNO
 10
-19.27062450732556
 20
-77.51576748800474
 30
0.0
  0
VERTEX
  5
458
  8
SUAVIZADO_EXTERNO
 10
-19.26738766817636
 20
-77.51865285445786
 30
0.0
  0
VERTEX
  5
459
  8
SUAVIZADO_EXTERNO
 10
-19.26406754626887
 20
-77.52148212580317
 30
0.0
  0
VERTEX
  5
45A
  8
SUAVIZADO_EXTERNO
 10
-19.26066632467621
 20
-77.52425668401946
 30
0.0
  0
VERTEX
  5
45B
  8
SUAVIZADO_EXTERNO
 10
-19.25718618647153
 20
-77.52697791108541
 30
0.0
  0
VERTEX
  5
45C
  8
SUAVIZADO_EXTERNO
 10
-19.25362931472796
 20
-77.52964718897982
 30
0.0
  0
VERTEX
  5
45D
  8
SUAVIZADO_EXTERNO
 10
-19.24999789251864
 20
-77.53226589968143
 30
0.0
  0
VERTEX
  5
45E
  8
SUAVIZADO_EXTERNO
 10
-19.2462941029167
 20
-77.53483542516898
 30
0.0
  0
VERTEX
  5
45F
  8
SUAVIZADO_EXTERNO
 10
-19.23867815382748
 20
-77.5398324484169
 30
0.0
  0
VERTEX
  5
460
  8
SUAVIZADO_EXTERNO
 10
-19.2307989320454
 20
-77.54464931455361
 30
0.0
  0
VERTEX
  5
461
  8
SUAVIZADO_EXTERNO
 10
-19.22267390215551
 20
-77.54929707940909
 30
0.0
  0
VERTEX
  5
462
  8
SUAVIZADO_EXTERNO
 10
-19.21432052874291
 20
-77.55378679881333
 30
0.0
  0
VERTEX
  5
463
  8
SUAVIZADO_EXTERNO
 10
-19.20575627639267
 20
-77.55812952859634
 30
0.0
  0
VERTEX
  5
464
  8
SUAVIZADO_EXTERNO
 10
-19.19699860968986
 20
-77.56233632458814
 30
0.0
  0
VERTEX
  5
465
  8
SUAVIZADO_EXTERNO
 10
-19.17897289156682
 20
-77.57038633851806
 30
0.0
  0
VERTEX
  5
466
  8
SUAVIZADO_EXTERNO
 10
-19.16744762386477
 20
-77.57518023732604
 30
0.0
  0
VERTEX
  5
467
  8
SUAVIZADO_EXTERNO
 10
-19.15569477061855
 20
-77.5798036158726
 30
0.0
  0
VERTEX
  5
468
  8
SUAVIZADO_EXTERNO
 10
-19.14370546033835
 20
-77.58424533794954
 30
0.0
  0
VERTEX
  5
469
  8
SUAVIZADO_EXTERNO
 10
-19.13147082153433
 20
-77.58849426734864
 30
0.0
  0
VERTEX
  5
46A
  8
SUAVIZADO_EXTERNO
 10
-19.11898198271667
 20
-77.5925392678617
 30
0.0
  0
VERTEX
  5
46B
  8
SUAVIZADO_EXTERNO
 10
-19.10623007239554
 20
-77.5963692032805
 30
0.0
  0
VERTEX
  5
46C
  8
SUAVIZADO_EXTERNO
 10
-19.09320621908113
 20
-77.59997293739687
 30
0.0
  0
VERTEX
  5
46D
  8
SUAVIZADO_EXTERNO
 10
-19.07990155128359
 20
-77.60333933400258
 30
0.0
  0
VERTEX
  5
46E
  8
SUAVIZADO_EXTERNO
 10
-19.0663071975131
 20
-77.60645725688944
 30
0.0
  0
VERTEX
  5
46F
  8
SUAVIZADO_EXTERNO
 10
-19.05241428627985
 20
-77.60931556984923
 30
0.0
  0
VERTEX
  5
470
  8
SUAVIZADO_EXTERNO
 10
-19.03821394609399
 20
-77.61190313667375
 30
0.0
  0
VERTEX
  5
471
  8
SUAVIZADO_EXTERNO
 10
-19.02369730546571
 20
-77.61420882115479
 30
0.0
  0
VERTEX
  5
472
  8
SUAVIZADO_EXTERNO
 10
-19.00885549290518
 20
-77.61622148708415
 30
0.0
  0
VERTEX
  5
473
  8
SUAVIZADO_EXTERNO
 10
-18.99367963692258
 20
-77.61792999825359
 30
0.0
  0
VERTEX
  5
474
  8
SUAVIZADO_EXTERNO
 10
-18.97816086602806
 20
-77.61932321845492
 30
0.0
  0
VERTEX
  5
475
  8
SUAVIZADO_EXTERNO
 10
-18.96229030873182
 20
-77.62039001147998
 30
0.0
  0
VERTEX
  5
476
  8
SUAVIZADO_EXTERNO
 10
-18.94134968341102
 20
-77.62127327235424
 30
0.0
  0
VERTEX
  5
477
  8
SUAVIZADO_EXTERNO
 10
-18.91987073931174
 20
-77.62162643442528
 30
0.0
  0
VERTEX
  5
478
  8
SUAVIZADO_EXTERNO
 10
-18.89791232403545
 20
-77.62147832608672
 30
0.0
  0
VERTEX
  5
479
  8
SUAVIZADO_EXTERNO
 10
-18.87553328518365
 20
-77.62085777573218
 30
0.0
  0
VERTEX
  5
47A
  8
SUAVIZADO_EXTERNO
 10
-18.82974872715942
 20
-77.61831466254958
 30
0.0
  0
VERTEX
  5
47B
  8
SUAVIZADO_EXTERNO
 10
-18.78298784605089
 20
-77.6142277220264
 30
0.0
  0
VERTEX
  5
47C
  8
SUAVIZADO_EXTERNO
 10
-18.73572142266993
 20
-77.60882758131152
 30
0.0
  0
VERTEX
  5
47D
  8
SUAVIZADO_EXTERNO
 10
-18.6884202378284
 20
-77.60234486755378
 30
0.0
  0
VERTEX
  5
47E
  8
SUAVIZADO_EXTERNO
 10
-18.59559670701105
 20
-77.58705422950537
 30
0.0
  0
VERTEX
  5
47F
  8
SUAVIZADO_EXTERNO
 10
-18.50809418281194
 20
-77.56999964417886
 30
0.0
  0
VERTEX
  5
480
  8
SUAVIZADO_EXTERNO
 10
-18.42274397058702
 20
-77.5508220939429
 30
0.0
  0
VERTEX
  5
481
  8
SUAVIZADO_EXTERNO
 10
-18.33631369889075
 20
-77.52892574775403
 30
0.0
  0
VERTEX
  5
482
  8
SUAVIZADO_EXTERNO
 10
-17.29550121000104
 20
-77.23702851877191
 30
0.0
  0
VERTEX
  5
483
  8
SUAVIZADO_EXTERNO
 10
-17.02849822095936
 20
-77.17098035115697
 30
0.0
  0
VERTEX
  5
484
  8
SUAVIZADO_EXTERNO
 10
-16.94547549926758
 20
-77.15368906383537
 30
0.0
  0
VERTEX
  5
485
  8
SUAVIZADO_EXTERNO
 10
-16.90954540077745
 20
-77.14720729626424
 30
0.0
  0
VERTEX
  5
486
  8
SUAVIZADO_EXTERNO
 10
-16.87410750084761
 20
-77.14147968551435
 30
0.0
  0
VERTEX
  5
487
  8
SUAVIZADO_EXTERNO
 10
-16.83898867593252
 20
-77.13645983814999
 30
0.0
  0
VERTEX
  5
488
  8
SUAVIZADO_EXTERNO
 10
-16.80401580248659
 20
-77.13210136073543
 30
0.0
  0
VERTEX
  5
489
  8
SUAVIZADO_EXTERNO
 10
-16.73381541582
 20
-77.12518294201283
 30
0.0
  0
VERTEX
  5
48A
  8
SUAVIZADO_EXTERNO
 10
-16.66212135248334
 20
-77.12035328186076
 30
0.0
  0
VERTEX
  5
48B
  8
SUAVIZADO_EXTERNO
 10
-16.58851015139505
 20
-77.11734086189279
 30
0.0
  0
VERTEX
  5
48C
  8
SUAVIZADO_EXTERNO
 10
-16.51486443689616
 20
-77.11621574850673
 30
0.0
  0
VERTEX
  5
48D
  8
SUAVIZADO_EXTERNO
 10
-16.4440086434948
 20
-77.1171594017977
 30
0.0
  0
VERTEX
  5
48E
  8
SUAVIZADO_EXTERNO
 10
-16.41050960298949
 20
-77.11846372222678
 30
0.0
  0
VERTEX
  5
48F
  8
SUAVIZADO_EXTERNO
 10
-16.37876720569911
 20
-77.12035328186076
 30
0.0
  0
VERTEX
  5
490
  8
SUAVIZADO_EXTERNO
 10
-16.35447142640769
 20
-77.12234136711439
 30
0.0
  0
VERTEX
  5
491
  8
SUAVIZADO_EXTERNO
 10
-16.33123181655112
 20
-77.12480350551826
 30
0.0
  0
VERTEX
  5
492
  8
SUAVIZADO_EXTERNO
 10
-16.30871706700967
 20
-77.12781394013912
 30
0.0
  0
VERTEX
  5
493
  8
SUAVIZADO_EXTERNO
 10
-16.28659586866362
 20
-77.13144691404375
 30
0.0
  0
VERTEX
  5
494
  8
SUAVIZADO_EXTERNO
 10
-16.26453691239323
 20
-77.13577667029892
 30
0.0
  0
VERTEX
  5
495
  8
SUAVIZADO_EXTERNO
 10
-16.24220888907876
 20
-77.14087745197142
 30
0.0
  0
VERTEX
  5
496
  8
SUAVIZADO_EXTERNO
 10
-16.21928048960051
 20
-77.14682350212797
 30
0.0
  0
VERTEX
  5
497
  8
SUAVIZADO_EXTERNO
 10
-16.19542040483872
 20
-77.15368906383537
 30
0.0
  0
VERTEX
  5
498
  8
SUAVIZADO_EXTERNO
 10
-16.16613544669829
 20
-77.16292163075228
 30
0.0
  0
VERTEX
  5
499
  8
SUAVIZADO_EXTERNO
 10
-16.1357144559766
 20
-77.17336803089509
 30
0.0
  0
VERTEX
  5
49A
  8
SUAVIZADO_EXTERNO
 10
-16.10474204166609
 20
-77.1848882549828
 30
0.0
  0
VERTEX
  5
49B
  8
SUAVIZADO_EXTERNO
 10
-16.0738028127592
 20
-77.19734229373438
 30
0.0
  0
VERTEX
  5
49C
  8
SUAVIZADO_EXTERNO
 10
-16.04348137824836
 20
-77.21059013786882
 30
0.0
  0
VERTEX
  5
49D
  8
SUAVIZADO_EXTERNO
 10
-16.02873502420159
 20
-77.21746798405431
 30
0.0
  0
VERTEX
  5
49E
  8
SUAVIZADO_EXTERNO
 10
-16.01436234712599
 20
-77.22449177810512
 30
0.0
  0
VERTEX
  5
49F
  8
SUAVIZADO_EXTERNO
 10
-16.00043642314562
 20
-77.23164401886115
 30
0.0
  0
VERTEX
  5
4A0
  8
SUAVIZADO_EXTERNO
 10
-15.98703032838453
 20
-77.23890720516226
 30
0.0
  0
VERTEX
  5
4A1
  8
SUAVIZADO_EXTERNO
 10
-15.97421713896678
 20
-77.24626383584832
 30
0.0
  0
VERTEX
  5
4A2
  8
SUAVIZADO_EXTERNO
 10
-15.96206993101642
 20
-77.25369640975923
 30
0.0
  0
VERTEX
  5
4A3
  8
SUAVIZADO_EXTERNO
 10
-15.95279892971376
 20
-77.25973712815511
 30
0.0
  0
VERTEX
  5
4A4
  8
SUAVIZADO_EXTERNO
 10
-15.94397006120625
 20
-77.26583857373298
 30
0.0
  0
VERTEX
  5
4A5
  8
SUAVIZADO_EXTERNO
 10
-15.93554511986625
 20
-77.27202349020845
 30
0.0
  0
VERTEX
  5
4A6
  8
SUAVIZADO_EXTERNO
 10
-15.9274859000661
 20
-77.27831462129711
 30
0.0
  0
VERTEX
  5
4A7
  8
SUAVIZADO_EXTERNO
 10
-15.91975419617814
 20
-77.28473471071459
 30
0.0
  0
VERTEX
  5
4A8
  8
SUAVIZADO_EXTERNO
 10
-15.9123118025747
 20
-77.29130650217648
 30
0.0
  0
VERTEX
  5
4A9
  8
SUAVIZADO_EXTERNO
 10
-15.90512051362815
 20
-77.29805273939837
 30
0.0
  0
VERTEX
  5
4AA
  8
SUAVIZADO_EXTERNO
 10
-15.89814212371081
 20
-77.30499616609588
 30
0.0
  0
VERTEX
  5
4AB
  8
SUAVIZADO_EXTERNO
 10
-15.89133842719504
 20
-77.31215952598458
 30
0.0
  0
VERTEX
  5
4AC
  8
SUAVIZADO_EXTERNO
 10
-15.88467121845317
 20
-77.31956556278014
 30
0.0
  0
VERTEX
  5
4AD
  8
SUAVIZADO_EXTERNO
 10
-15.87810229185755
 20
-77.3272370201981
 30
0.0
  0
VERTEX
  5
4AE
  8
SUAVIZADO_EXTERNO
 10
-15.87159344178053
 20
-77.3351966419541
 30
0.0
  0
VERTEX
  5
4AF
  8
SUAVIZADO_EXTERNO
 10
-15.86510646259445
 20
-77.3434671717637
 30
0.0
  0
VERTEX
  5
4B0
  8
SUAVIZADO_EXTERNO
 10
-15.85860314867165
 20
-77.35207135334257
 30
0.0
  0
VERTEX
  5
4B1
  8
SUAVIZADO_EXTERNO
 10
-15.84539469410526
 20
-77.37037164667038
 30
0.0
  0
VERTEX
  5
4B2
  8
SUAVIZADO_EXTERNO
 10
-15.82770215140957
 20
-77.39631475504345
 30
0.0
  0
VERTEX
  5
4B3
  8
SUAVIZADO_EXTERNO
 10
-15.8097217173269
 20
-77.42455546941216
 30
0.0
  0
VERTEX
  5
4B4
  8
SUAVIZADO_EXTERNO
 10
-15.80080728020902
 20
-77.43941544519501
 30
0.0
  0
VERTEX
  5
4B5
  8
SUAVIZADO_EXTERNO
 10
-15.79204135727671
 20
-77.45470344209697
 30
0.0
  0
VERTEX
  5
4B6
  8
SUAVIZADO_EXTERNO
 10
-15.78349744420738
 20
-77.47037066665808
 30
0.0
  0
VERTEX
  5
4B7
  8
SUAVIZADO_EXTERNO
 10
-15.77524903667846
 20
-77.48636832541841
 30
0.0
  0
VERTEX
  5
4B8
  8
SUAVIZADO_EXTERNO
 10
-15.7673696303674
 20
-77.50264762491801
 30
0.0
  0
VERTEX
  5
4B9
  8
SUAVIZADO_EXTERNO
 10
-15.75993272095162
 20
-77.51915977169695
 30
0.0
  0
VERTEX
  5
4BA
  8
SUAVIZADO_EXTERNO
 10
-15.75301180410856
 20
-77.53585597229528
 30
0.0
  0
VERTEX
  5
4BB
  8
SUAVIZADO_EXTERNO
 10
-15.74668037551564
 20
-77.55268743325306
 30
0.0
  0
VERTEX
  5
4BC
  8
SUAVIZADO_EXTERNO
 10
-15.74375868671219
 20
-77.56113863841051
 30
0.0
  0
VERTEX
  5
4BD
  8
SUAVIZADO_EXTERNO
 10
-15.74101193085031
 20
-77.56960536111035
 30
0.0
  0
VERTEX
  5
4BE
  8
SUAVIZADO_EXTERNO
 10
-15.73844929488968
 20
-77.57808150217011
 30
0.0
  0
VERTEX
  5
4BF
  8
SUAVIZADO_EXTERNO
 10
-15.73607996578998
 20
-77.58656096240723
 30
0.0
  0
VERTEX
  5
4C0
  8
SUAVIZADO_EXTERNO
 10
-15.7339131305109
 20
-77.59503764263928
 30
0.0
  0
VERTEX
  5
4C1
  8
SUAVIZADO_EXTERNO
 10
-15.7319579760121
 20
-77.60350544368376
 30
0.0
  0
VERTEX
  5
4C2
  8
SUAVIZADO_EXTERNO
 10
-15.73022368925328
 20
-77.61195826635816
 30
0.0
  0
VERTEX
  5
4C3
  8
SUAVIZADO_EXTERNO
 10
-15.7287194571941
 20
-77.62039001147998
 30
0.0
  0
VERTEX
  5
4C4
  8
SUAVIZADO_EXTERNO
 10
-15.72754307235344
 20
-77.62813101761321
 30
0.0
  0
VERTEX
  5
4C5
  8
SUAVIZADO_EXTERNO
 10
-15.72656105952041
 20
-77.63584844250789
 30
0.0
  0
VERTEX
  5
4C6
  8
SUAVIZADO_EXTERNO
 10
-15.72576493153578
 20
-77.64354174877928
 30
0.0
  0
VERTEX
  5
4C7
  8
SUAVIZADO_EXTERNO
 10
-15.72514620124028
 20
-77.65121039904275
 30
0.0
  0
VERTEX
  5
4C8
  8
SUAVIZADO_EXTERNO
 10
-15.72469638147466
 20
-77.65885385591355
 30
0.0
  0
VERTEX
  5
4C9
  8
SUAVIZADO_EXTERNO
 10
-15.72440698507966
 20
-77.66647158200699
 30
0.0
  0
VERTEX
  5
4CA
  8
SUAVIZADO_EXTERNO
 10
-15.72426952489603
 20
-77.67406303993837
 30
0.0
  0
VERTEX
  5
4CB
  8
SUAVIZADO_EXTERNO
 10
-15.72427551376452
 20
-77.68162769232299
 30
0.0
  0
VERTEX
  5
4CC
  8
SUAVIZADO_EXTERNO
 10
-15.72468389002084
 20
-77.69667443091313
 30
0.0
  0
VERTEX
  5
4CD
  8
SUAVIZADO_EXTERNO
 10
-15.72556421657456
 20
-77.71160749869982
 30
0.0
  0
VERTEX
  5
4CE
  8
SUAVIZADO_EXTERNO
 10
-15.72684859615165
 20
-77.72642259660543
 30
0.0
  0
VERTEX
  5
4CF
  8
SUAVIZADO_EXTERNO
 10
-15.72846913147809
 20
-77.74111542555237
 30
0.0
  0
VERTEX
  5
4D0
  8
SUAVIZADO_EXTERNO
 10
-15.73244708028283
 20
-77.77011708025977
 30
0.0
  0
VERTEX
  5
4D1
  8
SUAVIZADO_EXTERNO
 10
-15.74538734818141
 20
-77.8537404853023
 30
0.0
  0
VERTEX
  5
4D2
  8
SUAVIZADO_EXTERNO
 10
-15.74807901151782
 20
-77.87741974154495
 30
0.0
  0
VERTEX
  5
4D3
  8
SUAVIZADO_EXTERNO
 10
-15.75662543294752
 20
-77.99159076376478
 30
0.0
  0
VERTEX
  5
4D4
  8
SUAVIZADO_EXTERNO
 10
-15.75896613397065
 20
-78.01425487930015
 30
0.0
  0
VERTEX
  5
4D5
  8
SUAVIZADO_EXTERNO
 10
-15.76040272715686
 20
-78.02564401986115
 30
0.0
  0
VERTEX
  5
4D6
  8
SUAVIZADO_EXTERNO
 10
-15.76205523916872
 20
-78.03708728616267
 30
0.0
  0
VERTEX
  5
4D7
  8
SUAVIZADO_EXTERNO
 10
-15.76406176249618
 20
-78.04926600271415
 30
0.0
  0
VERTEX
  5
4D8
  8
SUAVIZADO_EXTERNO
 10
-15.76632031471091
 20
-78.06151333321421
 30
0.0
  0
VERTEX
  5
4D9
  8
SUAVIZADO_EXTERNO
 10
-15.77150533318253
 20
-78.08619184715435
 30
0.0
  0
VERTEX
  5
4DA
  8
SUAVIZADO_EXTERNO
 10
-15.77743394934429
 20
-78.11107885017157
 30
0.0
  0
VERTEX
  5
4DB
  8
SUAVIZADO_EXTERNO
 10
-15.82489719801997
 20
-78.28709655668673
 30
0.0
  0
VERTEX
  5
4DC
  8
SUAVIZADO_EXTERNO
 10
-15.83052132896185
 20
-78.31205413375298
 30
0.0
  0
VERTEX
  5
4DD
  8
SUAVIZADO_EXTERNO
 10
-15.83543887958394
 20
-78.33700762842105
 30
0.0
  0
VERTEX
  5
4DE
  8
SUAVIZADO_EXTERNO
 10
-15.83759130313804
 20
-78.34948809308618
 30
0.0
  0
VERTEX
  5
4DF
  8
SUAVIZADO_EXTERNO
 10
-15.83951742064777
 20
-78.36197383502827
 30
0.0
  0
VERTEX
  5
4E0
  8
SUAVIZADO_EXTERNO
 10
-15.84120067845833
 20
-78.37446695353947
 30
0.0
  0
VERTEX
  5
4E1
  8
SUAVIZADO_EXTERNO
 10
-15.84262452291491
 20
-78.38696954791195
 30
0.0
  0
VERTEX
  5
4E2
  8
SUAVIZADO_EXTERNO
 10
-15.8437724003627
 20
-78.39948371743787
 30
0.0
  0
VERTEX
  5
4E3
  8
SUAVIZADO_EXTERNO
 10
-15.84462775714689
 20
-78.41201156140944
 30
0.0
  0
VERTEX
  5
4E4
  8
SUAVIZADO_EXTERNO
 10
-15.84517403961268
 20
-78.42455517911878
 30
0.0
  0
VERTEX
  5
4E5
  8
SUAVIZADO_EXTERNO
 10
-15.84539469410526
 20
-78.43711666985807
 30
0.0
  0
VERTEX
  5
4E6
  8
SUAVIZADO_EXTERNO
 10
-15.84529465693775
 20
-78.44910153976016
 30
0.0
  0
VERTEX
  5
4E7
  8
SUAVIZADO_EXTERNO
 10
-15.84491661231212
 20
-78.46108897370414
 30
0.0
  0
VERTEX
  5
4E8
  8
SUAVIZADO_EXTERNO
 10
-15.84429322736884
 20
-78.47306340239967
 30
0.0
  0
VERTEX
  5
4E9
  8
SUAVIZADO_EXTERNO
 10
-15.84345716924841
 20
-78.48500925655641
 30
0.0
  0
VERTEX
  5
4EA
  8
SUAVIZADO_EXTERNO
 10
-15.84127770203796
 20
-78.50875296409198
 30
0.0
  0
VERTEX
  5
4EB
  8
SUAVIZADO_EXTERNO
 10
-15.83058633420494
 20
-78.59947095460963
 30
0.0
  0
VERTEX
  5
4EC
  8
SUAVIZADO_EXTERNO
 10
-15.82872680311795
 20
-78.62046347071846
 30
0.0
  0
VERTEX
  5
4ED
  8
SUAVIZADO_EXTERNO
 10
-15.82632361117137
 20
-78.6673459777968
 30
0.0
  0
VERTEX
  5
4EE
  8
SUAVIZADO_EXTERNO
 10
-15.82526449613341
 20
-78.68201229063513
 30
0.0
  0
VERTEX
  5
4EF
  8
SUAVIZADO_EXTERNO
 10
-15.82452457790754
 20
-78.68919195218913
 30
0.0
  0
VERTEX
  5
4F0
  8
SUAVIZADO_EXTERNO
 10
-15.82359642628182
 20
-78.69627720329083
 30
0.0
  0
VERTEX
  5
4F1
  8
SUAVIZADO_EXTERNO
 10
-15.82305051460138
 20
-78.69978628104496
 30
0.0
  0
VERTEX
  5
4F2
  8
SUAVIZADO_EXTERNO
 10
-15.82244404655982
 20
-78.70327398353353
 30
0.0
  0
VERTEX
  5
4F3
  8
SUAVIZADO_EXTERNO
 10
-15.82177252282009
 20
-78.7067410532057
 30
0.0
  0
VERTEX
  5
4F4
  8
SUAVIZADO_EXTERNO
 10
-15.82103144404513
 20
-78.71018823251063
 30
0.0
  0
VERTEX
  5
4F5
  8
SUAVIZADO_EXTERNO
 10
-15.82021631089788
 20
-78.71361626389749
 30
0.0
  0
VERTEX
  5
4F6
  8
SUAVIZADO_EXTERNO
 10
-15.81932262404129
 20
-78.71702588981545
 30
0.0
  0
VERTEX
  5
4F7
  8
SUAVIZADO_EXTERNO
 10
-15.81834588413831
 20
-78.72041785271367
 30
0.0
  0
VERTEX
  5
4F8
  8
SUAVIZADO_EXTERNO
 10
-15.81728159185189
 20
-78.72379289504131
 30
0.0
  0
VERTEX
  5
4F9
  8
SUAVIZADO_EXTERNO
 10
-15.81612524784496
 20
-78.72715175924758
 30
0.0
  0
VERTEX
  5
4FA
  8
SUAVIZADO_EXTERNO
 10
-15.81487235278048
 20
-78.7304951877816
 30
0.0
  0
VERTEX
  5
4FB
  8
SUAVIZADO_EXTERNO
 10
-15.81351840732139
 20
-78.73382392309256
 30
0.0
  0
VERTEX
  5
4FC
  8
SUAVIZADO_EXTERNO
 10
-15.81205891213064
 20
-78.73713870762961
 30
0.0
  0
VERTEX
  5
4FD
  8
SUAVIZADO_EXTERNO
 10
-15.81025953618768
 20
-78.74090756986064
 30
0.0
  0
VERTEX
  5
4FE
  8
SUAVIZADO_EXTERNO
 10
-15.80832194176746
 20
-78.74466005613219
 30
0.0
  0
VERTEX
  5
4FF
  8
SUAVIZADO_EXTERNO
 10
-15.80625139682338
 20
-78.74839701203327
 30
0.0
  0
VERTEX
  5
500
  8
SUAVIZADO_EXTERNO
 10
-15.80405316930889
 20
-78.75211928315287
 30
0.0
  0
VERTEX
  5
501
  8
SUAVIZADO_EXTERNO
 10
-15.80173252717739
 20
-78.75582771507999
 30
0.0
  0
VERTEX
  5
502
  8
SUAVIZADO_EXTERNO
 10
-15.7992947383823
 20
-78.7595231534036
 30
0.0
  0
VERTEX
  5
503
  8
SUAVIZADO_EXTERNO
 10
-15.79674507087707
 20
-78.76320644371273
 30
0.0
  0
VERTEX
  5
504
  8
SUAVIZADO_EXTERNO
 10
-15.7940887926151
 20
-78.76687843159637
 30
0.0
  0
VERTEX
  5
505
  8
SUAVIZADO_EXTERNO
 10
-15.79133117154981
 20
-78.7705399626435
 30
0.0
  0
VERTEX
  5
506
  8
SUAVIZADO_EXTERNO
 10
-15.78847747563464
 20
-78.7741918824431
 30
0.0
  0
VERTEX
  5
507
  8
SUAVIZADO_EXTERNO
 10
-15.78250293106833
 20
-78.78147027065577
 30
0.0
  0
VERTEX
  5
508
  8
SUAVIZADO_EXTERNO
 10
-15.77620730254353
 20
-78.78872036094636
 30
0.0
  0
VERTEX
  5
509
  8
SUAVIZADO_EXTERNO
 10
-15.76963273368764
 20
-78.7959489180268
 30
0.0
  0
VERTEX
  5
50A
  8
SUAVIZADO_EXTERNO
 10
-15.75581534949209
 20
-78.81036849140511
 30
0.0
  0
VERTEX
  5
50B
  8
SUAVIZADO_EXTERNO
 10
-15.63289393093625
 20
-78.93667604365874
 30
0.0
  0
VERTEX
  5
50C
  8
SUAVIZADO_EXTERNO
 10
-15.61587436659186
 20
-78.95349917553955
 30
0.0
  0
VERTEX
  5
50D
  8
SUAVIZADO_EXTERNO
 10
-15.59789331747858
 20
-78.97033614675469
 30
0.0
  0
VERTEX
  5
50E
  8
SUAVIZADO_EXTERNO
 10
-15.58846650323108
 20
-78.97875048309234
 30
0.0
  0
VERTEX
  5
50F
  8
SUAVIZADO_EXTERNO
 10
-15.57870843830834
 20
-78.98715707243923
 30
0.0
  0
VERTEX
  5
510
  8
SUAVIZADO_EXTERNO
 10
-15.56640074174009
 20
-78.9973359403397
 30
0.0
  0
VERTEX
  5
511
  8
SUAVIZADO_EXTERNO
 10
-15.55360147469798
 20
-79.00748199903826
 30
0.0
  0
VERTEX
  5
512
  8
SUAVIZADO_EXTERNO
 10
-15.54035092491082
 20
-79.01757933110048
 30
0.0
  0
VERTEX
  5
513
  8
SUAVIZADO_EXTERNO
 10
-15.5266893801074
 20
-79.02761201909189
 30
0.0
  0
VERTEX
  5
514
  8
SUAVIZADO_EXTERNO
 10
-15.49829445636707
 20
-79.0474197931245
 30
0.0
  0
VERTEX
  5
515
  8
SUAVIZADO_EXTERNO
 10
-15.46873900530748
 20
-79.06677798166047
 30
0.0
  0
VERTEX
  5
516
  8
SUAVIZADO_EXTERNO
 10
-15.43834532875909
 20
-79.08555924522413
 30
0.0
  0
VERTEX
  5
517
  8
SUAVIZADO_EXTERNO
 10
-15.4074357285524
 20
-79.10363624433987
 30
0.0
  0
VERTEX
  5
518
  8
SUAVIZADO_EXTERNO
 10
-15.37633250651789
 20
-79.12088163953203
 30
0.0
  0
VERTEX
  5
519
  8
SUAVIZADO_EXTERNO
 10
-15.34535796448603
 20
-79.137168091325
 30
0.0
  0
VERTEX
  5
51A
  8
SUAVIZADO_EXTERNO
 10
-15.3186834173182
 20
-79.15046568045938
 30
0.0
  0
VERTEX
  5
51B
  8
SUAVIZADO_EXTERNO
 10
-15.29239667681974
 20
-79.16274015004878
 30
0.0
  0
VERTEX
  5
51C
  8
SUAVIZADO_EXTERNO
 10
-15.27941281386367
 20
-79.16843198620904
 30
0.0
  0
VERTEX
  5
51D
  8
SUAVIZADO_EXTERNO
 10
-15.26654279832551
 20
-79.173793967917
 30
0.0
  0
VERTEX
  5
51E
  8
SUAVIZADO_EXTERNO
 10
-15.25379226212213
 20
-79.17880140365062
 30
0.0
  0
VERTEX
  5
51F
  8
SUAVIZADO_EXTERNO
 10
-15.24116683717038
 20
-79.1834296018879
 30
0.0
  0
VERTEX
  5
520
  8
SUAVIZADO_EXTERNO
 10
-15.22867215538713
 20
-79.18765387110679
 30
0.0
  0
VERTEX
  5
521
  8
SUAVIZADO_EXTERNO
 10
-15.21631384868923
 20
-79.19144951978525
 30
0.0
  0
VERTEX
  5
522
  8
SUAVIZADO_EXTERNO
 10
-15.20409754899354
 20
-79.1947918564013
 30
0.0
  0
VERTEX
  5
523
  8
SUAVIZADO_EXTERNO
 10
-15.19804441174555
 20
-79.19628531658527
 30
0.0
  0
VERTEX
  5
524
  8
SUAVIZADO_EXTERNO
 10
-15.19202888821693
 20
-79.19765618943289
 30
0.0
  0
VERTEX
  5
525
  8
SUAVIZADO_EXTERNO
 10
-15.18605168239729
 20
-79.19890138850388
 30
0.0
  0
VERTEX
  5
526
  8
SUAVIZADO_EXTERNO
 10
-15.18011349827624
 20
-79.20001782735801
 30
0.0
  0
VERTEX
  5
527
  8
SUAVIZADO_EXTERNO
 10
-15.17421503984339
 20
-79.20100241955498
 30
0.0
  0
VERTEX
  5
528
  8
SUAVIZADO_EXTERNO
 10
-15.16835701108834
 20
-79.20185207865461
 30
0.0
  0
VERTEX
  5
529
  8
SUAVIZADO_EXTERNO
 10
-15.1625401160007
 20
-79.2025637182166
 30
0.0
  0
VERTEX
  5
52A
  8
SUAVIZADO_EXTERNO
 10
-15.15676505857008
 20
-79.20313425180069
 30
0.0
  0
VERTEX
  5
52B
  8
SUAVIZADO_EXTERNO
 10
-15.15103254278609
 20
-79.20356059296665
 30
0.0
  0
VERTEX
  5
52C
  8
SUAVIZADO_EXTERNO
 10
-15.14534327263833
 20
-79.20383965527422
 30
0.0
  0
VERTEX
  5
52D
  8
SUAVIZADO_EXTERNO
 10
-15.14052044905627
 20
-79.20395988071297
 30
0.0
  0
VERTEX
  5
52E
  8
SUAVIZADO_EXTERNO
 10
-15.13572753852246
 20
-79.20397365781113
 30
0.0
  0
VERTEX
  5
52F
  8
SUAVIZADO_EXTERNO
 10
-15.13096242056589
 20
-79.20388413483097
 30
0.0
  0
VERTEX
  5
530
  8
SUAVIZADO_EXTERNO
 10
-15.12622297471556
 20
-79.20369446003478
 30
0.0
  0
VERTEX
  5
531
  8
SUAVIZADO_EXTERNO
 10
-15.12150708050047
 20
-79.20340778168485
 30
0.0
  0
VERTEX
  5
532
  8
SUAVIZADO_EXTERNO
 10
-15.1168126174496
 20
-79.20302724804344
 30
0.0
  0
VERTEX
  5
533
  8
SUAVIZADO_EXTERNO
 10
-15.11213746509195
 20
-79.20255600737283
 30
0.0
  0
VERTEX
  5
534
  8
SUAVIZADO_EXTERNO
 10
-15.10747950295652
 20
-79.20199720793535
 30
0.0
  0
VERTEX
  5
535
  8
SUAVIZADO_EXTERNO
 10
-15.10283661057228
 20
-79.20135399799324
 30
0.0
  0
VERTEX
  5
536
  8
SUAVIZADO_EXTERNO
 10
-15.09820666746825
 20
-79.20062952580878
 30
0.0
  0
VERTEX
  5
537
  8
SUAVIZADO_EXTERNO
 10
-15.08897714721677
 20
-79.19894938776199
 30
0.0
  0
VERTEX
  5
538
  8
SUAVIZADO_EXTERNO
 10
-15.079773978434
 20
-79.19698197989325
 30
0.0
  0
VERTEX
  5
539
  8
SUAVIZADO_EXTERNO
 10
-15.07058019735189
 20
-79.19475248830082
 30
0.0
  0
VERTEX
  5
53A
  8
SUAVIZADO_EXTERNO
 10
-15.06137884020239
 20
-79.19228609908296
 30
0.0
  0
VERTEX
  5
53B
  8
SUAVIZADO_EXTERNO
 10
-15.05215294321746
 20
-79.18960799833792
 30
0.0
  0
VERTEX
  5
53C
  8
SUAVIZADO_EXTERNO
 10
-15.03355967466904
 20
-79.18371740665935
 30
0.0
  0
VERTEX
  5
53D
  8
SUAVIZADO_EXTERNO
 10
-14.9492767151024
 20
-79.15414934862231
 30
0.0
  0
VERTEX
  5
53E
  8
SUAVIZADO_EXTERNO
 10
-14.92571293200332
 20
-79.14527282445235
 30
0.0
  0
VERTEX
  5
53F
  8
SUAVIZADO_EXTERNO
 10
-14.90210685885905
 20
-79.13570568683066
 30
0.0
  0
VERTEX
  5
540
  8
SUAVIZADO_EXTERNO
 10
-14.89036180394281
 20
-79.1306105351088
 30
0.0
  0
VERTEX
  5
541
  8
SUAVIZADO_EXTERNO
 10
-14.87869478502269
 20
-79.12527960658406
 30
0.0
  0
VERTEX
  5
542
  8
SUAVIZADO_EXTERNO
 10
-14.86713533826783
 20
-79.1196918601098
 30
0.0
  0
VERTEX
  5
543
  8
SUAVIZADO_EXTERNO
 10
-14.85571299984736
 20
-79.11382625453936
 30
0.0
  0
VERTEX
  5
544
  8
SUAVIZADO_EXTERNO
 10
-14.84445730593042
 20
-79.10766174872612
 30
0.0
  0
VERTEX
  5
545
  8
SUAVIZADO_EXTERNO
 10
-14.83339779268615
 20
-79.10117730152342
 30
0.0
  0
VERTEX
  5
546
  8
SUAVIZADO_EXTERNO
 10
-14.82256399628369
 20
-79.09435187178461
 30
0.0
  0
VERTEX
  5
547
  8
SUAVIZADO_EXTERNO
 10
-14.81724097195099
 20
-79.09080471310585
 30
0.0
  0
VERTEX
  5
548
  8
SUAVIZADO_EXTERNO
 10
-14.81198545289218
 20
-79.08716441836307
 30
0.0
  0
VERTEX
  5
549
  8
SUAVIZADO_EXTERNO
 10
-14.80664868542923
 20
-79.08331737980618
 30
0.0
  0
VERTEX
  5
54A
  8
SUAVIZADO_EXTERNO
 10
-14.80138737769859
 20
-79.07937008389894
 30
0.0
  0
VERTEX
  5
54B
  8
SUAVIZADO_EXTERNO
 10
-14.79620153078972
 20
-79.07532377136103
 30
0.0
  0
VERTEX
  5
54C
  8
SUAVIZADO_EXTERNO
 10
-14.79109114579207
 20
-79.07117968291217
 30
0.0
  0
VERTEX
  5
54D
  8
SUAVIZADO_EXTERNO
 10
-14.78605622379509
 20
-79.06693905927207
 30
0.0
  0
VERTEX
  5
54E
  8
SUAVIZADO_EXTERNO
 10
-14.78109676588825
 20
-79.06260314116042
 30
0.0
  0
VERTEX
  5
54F
  8
SUAVIZADO_EXTERNO
 10
-14.77621277316097
 20
-79.05817316929691
 30
0.0
  0
VERTEX
  5
550
  8
SUAVIZADO_EXTERNO
 10
-14.77140424670274
 20
-79.05365038440128
 30
0.0
  0
VERTEX
  5
551
  8
SUAVIZADO_EXTERNO
 10
-14.76667118760299
 20
-79.04903602719321
 30
0.0
  0
VERTEX
  5
552
  8
SUAVIZADO_EXTERNO
 10
-14.76201359695118
 20
-79.04433133839238
 30
0.0
  0
VERTEX
  5
553
  8
SUAVIZADO_EXTERNO
 10
-14.75292482534919
 20
-79.03465592889134
 30
0.0
  0
VERTEX
  5
554
  8
SUAVIZADO_EXTERNO
 10
-14.7441379406124
 20
-79.02463408165578
 30
0.0
  0
VERTEX
  5
555
  8
SUAVIZADO_EXTERNO
 10
-14.73565295145644
 20
-79.01427572244332
 30
0.0
  0
VERTEX
  5
556
  8
SUAVIZADO_EXTERNO
 10
-14.72746986659694
 20
-79.00359077701158
 30
0.0
  0
VERTEX
  5
557
  8
SUAVIZADO_EXTERNO
 10
-14.71958869474951
 20
-78.9925891711182
 30
0.0
  0
VERTEX
  5
558
  8
SUAVIZADO_EXTERNO
 10
-14.71200944462979
 20
-78.98128083052077
 30
0.0
  0
VERTEX
  5
559
  8
SUAVIZADO_EXTERNO
 10
-14.7047321249534
 20
-78.96967568097693
 30
0.0
  0
VERTEX
  5
55A
  8
SUAVIZADO_EXTERNO
 10
-14.69775674443597
 20
-78.95778364824432
 30
0.0
  0
VERTEX
  5
55B
  8
SUAVIZADO_EXTERNO
 10
-14.69108331179313
 20
-78.94561465808056
 30
0.0
  0
VERTEX
  5
55C
  8
SUAVIZADO_EXTERNO
 10
-14.6847118357405
 20
-78.93317863624324
 30
0.0
  0
VERTEX
  5
55D
  8
SUAVIZADO_EXTERNO
 10
-14.67864232499371
 20
-78.92048550849
 30
0.0
  0
VERTEX
  5
55E
  8
SUAVIZADO_EXTERNO
 10
-14.67230670860264
 20
-78.90622592021049
 30
0.0
  0
VERTEX
  5
55F
  8
SUAVIZADO_EXTERNO
 10
-14.66632358300761
 20
-78.89168741500063
 30
0.0
  0
VERTEX
  5
560
  8
SUAVIZADO_EXTERNO
 10
-14.66067937571358
 20
-78.87689071621634
 30
0.0
  0
VERTEX
  5
561
  8
SUAVIZADO_EXTERNO
 10
-14.65536051422554
 20
-78.86185654721346
 30
0.0
  0
VERTEX
  5
562
  8
SUAVIZADO_EXTERNO
 10
-14.65035342604845
 20
-78.84660563134796
 30
0.0
  0
VERTEX
  5
563
  8
SUAVIZADO_EXTERNO
 10
-14.64564453868727
 20
-78.8311586919757
 30
0.0
  0
VERTEX
  5
564
  8
SUAVIZADO_EXTERNO
 10
-14.64122027964699
 20
-78.81553645245259
 30
0.0
  0
VERTEX
  5
565
  8
SUAVIZADO_EXTERNO
 10
-14.63706707643257
 20
-78.79975963613455
 30
0.0
  0
VERTEX
  5
566
  8
SUAVIZADO_EXTERNO
 10
-14.62951954750118
 20
-78.76782516653722
 30
0.0
  0
VERTEX
  5
567
  8
SUAVIZADO_EXTERNO
 10
-14.62289337193286
 20
-78.73552107003096
 30
0.0
  0
VERTEX
  5
568
  8
SUAVIZADO_EXTERNO
 10
-14.61707996976737
 20
-78.70301313346293
 30
0.0
  0
VERTEX
  5
569
  8
SUAVIZADO_EXTERNO
 10
-14.61197076104448
 20
-78.67046714368038
 30
0.0
  0
VERTEX
  5
56A
  8
SUAVIZADO_EXTERNO
 10
-14.60715614744725
 20
-78.63546021647538
 30
0.0
  0
VERTEX
  5
56B
  8
SUAVIZADO_EXTERNO
 10
-14.60306275319999
 20
-78.6003144802246
 30
0.0
  0
VERTEX
  5
56C
  8
SUAVIZADO_EXTERNO
 10
-14.59972012965968
 20
-78.56474279266286
 30
0.0
  0
VERTEX
  5
56D
  8
SUAVIZADO_EXTERNO
 10
-14.59715782818333
 20
-78.52845801152502
 30
0.0
  0
VERTEX
  5
56E
  8
SUAVIZADO_EXTERNO
 10
-14.59540540012791
 20
-78.49117299454586
 30
0.0
  0
VERTEX
  5
56F
  8
SUAVIZADO_EXTERNO
 10
-14.59449239685042
 20
-78.45260059946023
 30
0.0
  0
VERTEX
  5
570
  8
SUAVIZADO_EXTERNO
 10
-14.59444836970784
 20
-78.41245368400294
 30
0.0
  0
VERTEX
  5
571
  8
SUAVIZADO_EXTERNO
 10
-14.59530287005717
 20
-78.37044510590884
 30
0.0
  0
VERTEX
  5
572
  8
SUAVIZADO_EXTERNO
 10
-14.59779020011869
 20
-78.31300103321676
 30
0.0
  0
VERTEX
  5
573
  8
SUAVIZADO_EXTERNO
 10
-14.60187307351647
 20
-78.25267002464057
 30
0.0
  0
VERTEX
  5
574
  8
SUAVIZADO_EXTERNO
 10
-14.60758894935841
 20
-78.19017261690657
 30
0.0
  0
VERTEX
  5
575
  8
SUAVIZADO_EXTERNO
 10
-14.61497528675238
 20
-78.12622934674104
 30
0.0
  0
VERTEX
  5
576
  8
SUAVIZADO_EXTERNO
 10
-14.62406954480628
 20
-78.0615607508703
 30
0.0
  0
VERTEX
  5
577
  8
SUAVIZADO_EXTERNO
 10
-14.63490918262799
 20
-77.99688736602062
 30
0.0
  0
VERTEX
  5
578
  8
SUAVIZADO_EXTERNO
 10
-14.6475316593254
 20
-77.93292972891828
 30
0.0
  0
VERTEX
  5
579
  8
SUAVIZADO_EXTERNO
 10
-14.6619744340064
 20
-77.8704083762896
 30
0.0
  0
VERTEX
  5
57A
  8
SUAVIZADO_EXTERNO
 10
-14.67737178844558
 20
-77.81245926647384
 30
0.0
  0
VERTEX
  5
57B
  8
SUAVIZADO_EXTERNO
 10
-14.72533265534766
 20
-77.64548232861291
 30
0.0
  0
VERTEX
  5
57C
  8
SUAVIZADO_EXTERNO
 10
-14.73247926666845
 20
-77.6180043099437
 30
0.0
  0
VERTEX
  5
57D
  8
SUAVIZADO_EXTERNO
 10
-14.73910332768391
 20
-77.59046151507488
 30
0.0
  0
VERTEX
  5
57E
  8
SUAVIZADO_EXTERNO
 10
-14.74509961772557
 20
-77.56279199532719
 30
0.0
  0
VERTEX
  5
57F
  8
SUAVIZADO_EXTERNO
 10
-14.75036291612495
 20
-77.5349338020214
 30
0.0
  0
VERTEX
  5
580
  8
SUAVIZADO_EXTERNO
 10
-14.75478800221358
 20
-77.50682498647826
 30
0.0
  0
VERTEX
  5
581
  8
SUAVIZADO_EXTERNO
 10
-14.75665333418247
 20
-77.49265723640542
 30
0.0
  0
VERTEX
  5
582
  8
SUAVIZADO_EXTERNO
 10
-14.75826965532299
 20
-77.47840360001852
 30
0.0
  0
VERTEX
  5
583
  8
SUAVIZADO_EXTERNO
 10
-14.75962381305159
 20
-77.46405633373266
 30
0.0
  0
VERTEX
  5
584
  8
SUAVIZADO_EXTERNO
 10
-14.76070265478471
 20
-77.44960769396295
 30
0.0
  0
VERTEX
  5
585
  8
SUAVIZADO_EXTERNO
 10
-14.76149302793878
 20
-77.43504993712446
 30
0.0
  0
VERTEX
  5
586
  8
SUAVIZADO_EXTERNO
 10
-14.76198177993025
 20
-77.42037531963229
 30
0.0
  0
VERTEX
  5
587
  8
SUAVIZADO_EXTERNO
 10
-14.76216079274529
 20
-77.40407406900573
 30
0.0
  0
VERTEX
  5
588
  8
SUAVIZADO_EXTERNO
 10
-14.76197340835206
 20
-77.38763024499917
 30
0.0
  0
VERTEX
  5
589
  8
SUAVIZADO_EXTERNO
 10
-14.76143494877864
 20
-77.37105237906705
 30
0.0
  0
VERTEX
  5
58A
  8
SUAVIZADO_EXTERNO
 10
-14.76056073605313
 20
-77.35434900266377
 30
0.0
  0
VERTEX
  5
58B
  8
SUAVIZADO_EXTERNO
 10
-14.7593660922036
 20
-77.33752864724374
 30
0.0
  0
VERTEX
  5
58C
  8
SUAVIZADO_EXTERNO
 10
-14.75786633925813
 20
-77.32059984426142
 30
0.0
  0
VERTEX
  5
58D
  8
SUAVIZADO_EXTERNO
 10
-14.75401279419175
 20
-77.28645102142758
 30
0.0
  0
VERTEX
  5
58E
  8
SUAVIZADO_EXTERNO
 10
-14.74912267707864
 20
-77.25197078579762
 30
0.0
  0
VERTEX
  5
58F
  8
SUAVIZADO_EXTERNO
 10
-14.74331856414348
 20
-77.21722738900696
 30
0.0
  0
VERTEX
  5
590
  8
SUAVIZADO_EXTERNO
 10
-14.73672303161093
 20
-77.182289082691
 30
0.0
  0
VERTEX
  5
591
  8
SUAVIZADO_EXTERNO
 10
-14.72945865570567
 20
-77.14722411848516
 30
0.0
  0
VERTEX
  5
592
  8
SUAVIZADO_EXTERNO
 10
-14.63411690814312
 20
-76.7456094513301
 30
0.0
  0
VERTEX
  5
593
  8
SUAVIZADO_EXTERNO
 10
-14.53073693052525
 20
-76.22155437022613
 30
0.0
  0
VERTEX
  5
594
  8
SUAVIZADO_EXTERNO
 10
-14.51288178454812
 20
-76.1458033055556
 30
0.0
  0
VERTEX
  5
595
  8
SUAVIZADO_EXTERNO
 10
-14.49333602028973
 20
-76.07081058591788
 30
0.0
  0
VERTEX
  5
596
  8
SUAVIZADO_EXTERNO
 10
-14.47195170763838
 20
-75.99783454812138
 30
0.0
  0
VERTEX
  5
597
  8
SUAVIZADO_EXTERNO
 10
-14.46052386750543
 20
-75.96249601516621
 30
0.0
  0
VERTEX
  5
598
  8
SUAVIZADO_EXTERNO
 10
-14.44858091648235
 20
-75.92813352897451
 30
0.0
  0
VERTEX
  5
599
  8
SUAVIZADO_EXTERNO
 10
-14.43610436330518
 20
-75.89490438164734
 30
0.0
  0
VERTEX
  5
59A
  8
SUAVIZADO_EXTERNO
 10
-14.42307571670996
 20
-75.86296586528573
 30
0.0
  0
VERTEX
  5
59B
  8
SUAVIZADO_EXTERNO
 10
-14.40947648543271
 20
-75.83247527199075
 30
0.0
  0
VERTEX
  5
59C
  8
SUAVIZADO_EXTERNO
 10
-14.40245712201834
 20
-75.81782210027484
 30
0.0
  0
VERTEX
  5
59D
  8
SUAVIZADO_EXTERNO
 10
-14.39528817820948
 20
-75.80358989386345
 30
0.0
  0
VERTEX
  5
59E
  8
SUAVIZADO_EXTERNO
 10
-14.38427472764701
 20
-75.78309596373172
 30
0.0
  0
VERTEX
  5
59F
  8
SUAVIZADO_EXTERNO
 10
-14.37292152842917
 20
-75.7635295186943
 30
0.0
  0
VERTEX
  5
5A0
  8
SUAVIZADO_EXTERNO
 10
-14.36122912067169
 20
-75.74483089144044
 30
0.0
  0
VERTEX
  5
5A1
  8
SUAVIZADO_EXTERNO
 10
-14.34919804449031
 20
-75.72694041465935
 30
0.0
  0
VERTEX
  5
5A2
  8
SUAVIZADO_EXTERNO
 10
-14.33682884000075
 20
-75.70979842104035
 30
0.0
  0
VERTEX
  5
5A3
  8
SUAVIZADO_EXTERNO
 10
-14.32412204731874
 20
-75.69334524327265
 30
0.0
  0
VERTEX
  5
5A4
  8
SUAVIZADO_EXTERNO
 10
-14.31107820656001
 20
-75.67752121404553
 30
0.0
  0
VERTEX
  5
5A5
  8
SUAVIZADO_EXTERNO
 10
-14.29769785784029
 20
-75.6622666660482
 30
0.0
  0
VERTEX
  5
5A6
  8
SUAVIZADO_EXTERNO
 10
-14.28398154127532
 20
-75.64752193196998
 30
0.0
  0
VERTEX
  5
5A7
  8
SUAVIZADO_EXTERNO
 10
-14.26992979698081
 20
-75.63322734450006
 30
0.0
  0
VERTEX
  5
5A8
  8
SUAVIZADO_EXTERNO
 10
-14.2555431650725
 20
-75.61932323632774
 30
0.0
  0
VERTEX
  5
5A9
  8
SUAVIZADO_EXTERNO
 10
-14.24082218566612
 20
-75.60574994014226
 30
0.0
  0
VERTEX
  5
5AA
  8
SUAVIZADO_EXTERNO
 10
-14.2257673988774
 20
-75.59244778863288
 30
0.0
  0
VERTEX
  5
5AB
  8
SUAVIZADO_EXTERNO
 10
-14.21037934482207
 20
-75.57935711448883
 30
0.0
  0
VERTEX
  5
5AC
  8
SUAVIZADO_EXTERNO
 10
-14.17860559537448
 20
-75.55357152905383
 30
0.0
  0
VERTEX
  5
5AD
  8
SUAVIZADO_EXTERNO
 10
-14.14448526861324
 20
-75.52725349785746
 30
0.0
  0
VERTEX
  5
5AE
  8
SUAVIZADO_EXTERNO
 10
-14.10910291679605
 20
-75.50135128135534
 30
0.0
  0
VERTEX
  5
5AF
  8
SUAVIZADO_EXTERNO
 10
-14.07260634845658
 20
-75.47614264092734
 30
0.0
  0
VERTEX
  5
5B0
  8
SUAVIZADO_EXTERNO
 10
-14.03514337212847
 20
-75.45190533795326
 30
0.0
  0
VERTEX
  5
5B1
  8
SUAVIZADO_EXTERNO
 10
-14.01609567113545
 20
-75.44023773844266
 30
0.0
  0
VERTEX
  5
5B2
  8
SUAVIZADO_EXTERNO
 10
-13.9968617963454
 20
-75.42891713381299
 30
0.0
  0
VERTEX
  5
5B3
  8
SUAVIZADO_EXTERNO
 10
-13.97746022382502
 20
-75.41797824423674
 30
0.0
  0
VERTEX
  5
5B4
  8
SUAVIZADO_EXTERNO
 10
-13.95790942964102
 20
-75.40745578988637
 30
0.0
  0
VERTEX
  5
5B5
  8
SUAVIZADO_EXTERNO
 10
-13.9382278898601
 20
-75.39738449093437
 30
0.0
  0
VERTEX
  5
5B6
  8
SUAVIZADO_EXTERNO
 10
-13.91843408054898
 20
-75.38779906755323
 30
0.0
  0
VERTEX
  5
5B7
  8
SUAVIZADO_EXTERNO
 10
-13.89854647777435
 20
-75.37873423991542
 30
0.0
  0
VERTEX
  5
5B8
  8
SUAVIZADO_EXTERNO
 10
-13.87858355760294
 20
-75.37022472819343
 30
0.0
  0
VERTEX
  5
5B9
  8
SUAVIZADO_EXTERNO
 10
-13.86023827549631
 20
-75.3629320818388
 30
0.0
  0
VERTEX
  5
5BA
  8
SUAVIZADO_EXTERNO
 10
-13.84186862848473
 20
-75.3560966404819
 30
0.0
  0
VERTEX
  5
5BB
  8
SUAVIZADO_EXTERNO
 10
-13.82349799898876
 20
-75.34967997249237
 30
0.0
  0
VERTEX
  5
5BC
  8
SUAVIZADO_EXTERNO
 10
-13.80514976942896
 20
-75.34364364623987
 30
0.0
  0
VERTEX
  5
5BD
  8
SUAVIZADO_EXTERNO
 10
-13.76861403980015
 20
-75.33255829242466
 30
0.0
  0
VERTEX
  5
5BE
  8
SUAVIZADO_EXTERNO
 10
-13.59522941081871
 20
-75.28688527325689
 30
0.0
  0
VERTEX
  5
5BF
  8
SUAVIZADO_EXTERNO
 10
-13.45437487291113
 20
-75.24378578916411
 30
0.0
  0
VERTEX
  5
5C0
  8
SUAVIZADO_EXTERNO
 10
-13.42501029748971
 20
-75.23546888428169
 30
0.0
  0
VERTEX
  5
5C1
  8
SUAVIZADO_EXTERNO
 10
-13.39431200809357
 20
-75.22756670587725
 30
0.0
  0
VERTEX
  5
5C2
  8
SUAVIZADO_EXTERNO
 10
-13.36187893699639
 20
-75.22021370930766
 30
0.0
  0
VERTEX
  5
5C3
  8
SUAVIZADO_EXTERNO
 10
-13.33855682426644
 20
-75.21556602793743
 30
0.0
  0
VERTEX
  5
5C4
  8
SUAVIZADO_EXTERNO
 10
-13.31430120780384
 20
-75.21121677521083
 30
0.0
  0
VERTEX
  5
5C5
  8
SUAVIZADO_EXTERNO
 10
-13.26324047221601
 20
-75.2033317542008
 30
0.0
  0
VERTEX
  5
5C6
  8
SUAVIZADO_EXTERNO
 10
-13.20919874730345
 20
-75.19639504330229
 30
0.0
  0
VERTEX
  5
5C7
  8
SUAVIZADO_EXTERNO
 10
-13.15267805013671
 20
-75.19024303953992
 30
0.0
  0
VERTEX
  5
5C8
  8
SUAVIZADO_EXTERNO
 10
-12.91184588033908
 20
-75.17021003634575
 30
0.0
  0
VERTEX
  5
5C9
  8
SUAVIZADO_EXTERNO
 10
-12.49222578558832
 20
-75.14232482286894
 30
0.0
  0
VERTEX
  5
5CA
  8
SUAVIZADO_EXTERNO
 10
-12.34513758677062
 20
-75.13687425437112
 30
0.0
  0
VERTEX
  5
5CB
  8
SUAVIZADO_EXTERNO
 10
-11.67842194727831
 20
-75.13687425437112
 30
0.0
  0
VERTEX
  5
5CC
  8
SUAVIZADO_EXTERNO
 10
-10.56167325112868
 20
-75.15354214535843
 30
0.0
  0
SEQEND
  5
5CD
  8
SUAVIZADO_EXTERNO
  0
POLYLINE
  5
5CF
  8
SUAVIZADA_INTERNA
 66
     1
 10
0.0
 20
0.0
 30
0.0
  0
VERTEX
  5
5D0
  8
SUAVIZADA_INTERNA
 10
-15.61204422028295
 20
-76.10361193163497
 30
0.0
  0
VERTEX
  5
5D1
  8
SUAVIZADA_INTERNA
 10
-15.57837923319285
 20
-76.08689121856601
 30
0.0
  0
VERTEX
  5
5D2
  8
SUAVIZADA_INTERNA
 10
-15.54408887195958
 20
-76.06870504367049
 30
0.0
  0
VERTEX
  5
5D3
  8
SUAVIZADA_INTERNA
 10
-15.50953285295692
 20
-76.0491984020524
 30
0.0
  0
VERTEX
  5
5D4
  8
SUAVIZADA_INTERNA
 10
-15.47507089255868
 20
-76.02851628881567
 30
0.0
  0
VERTEX
  5
5D5
  8
SUAVIZADA_INTERNA
 10
-15.44106270713868
 20
-76.0068036990643
 30
0.0
  0
VERTEX
  5
5D6
  8
SUAVIZADA_INTERNA
 10
-15.40786801307069
 20
-75.98420562790223
 30
0.0
  0
VERTEX
  5
5D7
  8
SUAVIZADA_INTERNA
 10
-15.37584652672854
 20
-75.96086707043344
 30
0.0
  0
VERTEX
  5
5D8
  8
SUAVIZADA_INTERNA
 10
-15.36038814782147
 20
-75.948965420304
 30
0.0
  0
VERTEX
  5
5D9
  8
SUAVIZADA_INTERNA
 10
-15.34535796448603
 20
-75.93693302176189
 30
0.0
  0
VERTEX
  5
5DA
  8
SUAVIZADA_INTERNA
 10
-15.33240533621976
 20
-75.92615551786591
 30
0.0
  0
VERTEX
  5
5DB
  8
SUAVIZADA_INTERNA
 10
-15.31981937377763
 20
-75.91528889755008
 30
0.0
  0
VERTEX
  5
5DC
  8
SUAVIZADA_INTERNA
 10
-15.30759394009445
 20
-75.90433278087134
 30
0.0
  0
VERTEX
  5
5DD
  8
SUAVIZADA_INTERNA
 10
-15.29572289810502
 20
-75.89328678788655
 30
0.0
  0
VERTEX
  5
5DE
  8
SUAVIZADA_INTERNA
 10
-15.28420011074415
 20
-75.8821505386526
 30
0.0
  0
VERTEX
  5
5DF
  8
SUAVIZADA_INTERNA
 10
-15.27301944094663
 20
-75.87092365322634
 30
0.0
  0
VERTEX
  5
5E0
  8
SUAVIZADA_INTERNA
 10
-15.26217475164728
 20
-75.85960575166467
 30
0.0
  0
VERTEX
  5
5E1
  8
SUAVIZADA_INTERNA
 10
-15.25165990578089
 20
-75.84819645402447
 30
0.0
  0
VERTEX
  5
5E2
  8
SUAVIZADA_INTERNA
 10
-15.24146876628226
 20
-75.83669538036263
 30
0.0
  0
VERTEX
  5
5E3
  8
SUAVIZADA_INTERNA
 10
-15.23159519608621
 20
-75.825102150736
 30
0.0
  0
VERTEX
  5
5E4
  8
SUAVIZADA_INTERNA
 10
-15.22203305812754
 20
-75.81341638520149
 30
0.0
  0
VERTEX
  5
5E5
  8
SUAVIZADA_INTERNA
 10
-15.21277621534105
 20
-75.80163770381598
 30
0.0
  0
VERTEX
  5
5E6
  8
SUAVIZADA_INTERNA
 10
-15.20381853066154
 20
-75.78976572663635
 30
0.0
  0
VERTEX
  5
5E7
  8
SUAVIZADA_INTERNA
 10
-15.19515386702382
 20
-75.77780007371948
 30
0.0
  0
VERTEX
  5
5E8
  8
SUAVIZADA_INTERNA
 10
-15.18677608736268
 20
-75.76574036512223
 30
0.0
  0
VERTEX
  5
5E9
  8
SUAVIZADA_INTERNA
 10
-15.17867905461295
 20
-75.75358622090151
 30
0.0
  0
VERTEX
  5
5EA
  8
SUAVIZADA_INTERNA
 10
-15.17161618573574
 20
-75.7425480433958
 30
0.0
  0
VERTEX
  5
5EB
  8
SUAVIZADA_INTERNA
 10
-15.16478075668487
 20
-75.73143649436902
 30
0.0
  0
VERTEX
  5
5EC
  8
SUAVIZADA_INTERNA
 10
-15.15817700615309
 20
-75.72025526778857
 30
0.0
  0
VERTEX
  5
5ED
  8
SUAVIZADA_INTERNA
 10
-15.15180917283313
 20
-75.70900805762192
 30
0.0
  0
VERTEX
  5
5EE
  8
SUAVIZADA_INTERNA
 10
-15.14568149541775
 20
-75.69769855783647
 30
0.0
  0
VERTEX
  5
5EF
  8
SUAVIZADA_INTERNA
 10
-15.1397982125997
 20
-75.68633046239967
 30
0.0
  0
VERTEX
  5
5F0
  8
SUAVIZADA_INTERNA
 10
-15.13416356307171
 20
-75.67490746527892
 30
0.0
  0
VERTEX
  5
5F1
  8
SUAVIZADA_INTERNA
 10
-15.12878178552655
 20
-75.66343326044165
 30
0.0
  0
VERTEX
  5
5F2
  8
SUAVIZADA_INTERNA
 10
-15.12365711865696
 20
-75.65191154185533
 30
0.0
  0
VERTEX
  5
5F3
  8
SUAVIZADA_INTERNA
 10
-15.11879380115568
 20
-75.64034600348737
 30
0.0
  0
VERTEX
  5
5F4
  8
SUAVIZADA_INTERNA
 10
-15.11419607171545
 20
-75.62874033930518
 30
0.0
  0
VERTEX
  5
5F5
  8
SUAVIZADA_INTERNA
 10
-15.10986816902904
 20
-75.61709824327622
 30
0.0
  0
VERTEX
  5
5F6
  8
SUAVIZADA_INTERNA
 10
-15.10581433178918
 20
-75.60542340936789
 30
0.0
  0
VERTEX
  5
5F7
  8
SUAVIZADA_INTERNA
 10
-15.10203879868862
 20
-75.59371953154766
 30
0.0
  0
VERTEX
  5
5F8
  8
SUAVIZADA_INTERNA
 10
-15.09854580842012
 20
-75.58199030378293
 30
0.0
  0
VERTEX
  5
5F9
  8
SUAVIZADA_INTERNA
 10
-15.09533959967641
 20
-75.57023942004112
 30
0.0
  0
VERTEX
  5
5FA
  8
SUAVIZADA_INTERNA
 10
-15.0925446655907
 20
-75.5589867289497
 30
0.0
  0
VERTEX
  5
5FB
  8
SUAVIZADA_INTERNA
 10
-15.09001006458431
 20
-75.5477156575181
 30
0.0
  0
VERTEX
  5
5FC
  8
SUAVIZADA_INTERNA
 10
-15.08773010216592
 20
-75.53642424484886
 30
0.0
  0
VERTEX
  5
5FD
  8
SUAVIZADA_INTERNA
 10
-15.08569908384423
 20
-75.52511053004457
 30
0.0
  0
VERTEX
  5
5FE
  8
SUAVIZADA_INTERNA
 10
-15.08391131512791
 20
-75.51377255220771
 30
0.0
  0
VERTEX
  5
5FF
  8
SUAVIZADA_INTERNA
 10
-15.08236110152567
 20
-75.50240835044087
 30
0.0
  0
VERTEX
  5
600
  8
SUAVIZADA_INTERNA
 10
-15.0810427485462
 20
-75.49101596384655
 30
0.0
  0
VERTEX
  5
601
  8
SUAVIZADA_INTERNA
 10
-15.07995056169817
 20
-75.4795934315273
 30
0.0
  0
VERTEX
  5
602
  8
SUAVIZADA_INTERNA
 10
-15.07907884649029
 20
-75.46813879258568
 30
0.0
  0
VERTEX
  5
603
  8
SUAVIZADA_INTERNA
 10
-15.07842190843124
 20
-75.4566500861242
 30
0.0
  0
VERTEX
  5
604
  8
SUAVIZADA_INTERNA
 10
-15.07797405302971
 20
-75.44512535124542
 30
0.0
  0
VERTEX
  5
605
  8
SUAVIZADA_INTERNA
 10
-15.0777295857944
 20
-75.43356262705187
 30
0.0
  0
VERTEX
  5
606
  8
SUAVIZADA_INTERNA
 10
-15.07782803785718
 20
-75.41031536713061
 30
0.0
  0
VERTEX
  5
607
  8
SUAVIZADA_INTERNA
 10
-15.0786717086891
 20
-75.38689261918074
 30
0.0
  0
VERTEX
  5
608
  8
SUAVIZADA_INTERNA
 10
-15.08028660246012
 20
-75.3629294039421
 30
0.0
  0
VERTEX
  5
609
  8
SUAVIZADA_INTERNA
 10
-15.08142761883038
 20
-75.35092544623905
 30
0.0
  0
VERTEX
  5
60A
  8
SUAVIZADA_INTERNA
 10
-15.08282447090456
 20
-75.33893413718157
 30
0.0
  0
VERTEX
  5
60B
  8
SUAVIZADA_INTERNA
 10
-15.08450225071826
 20
-75.32697613829566
 30
0.0
  0
VERTEX
  5
60C
  8
SUAVIZADA_INTERNA
 10
-15.08648605030703
 20
-75.31507211110738
 30
0.0
  0
VERTEX
  5
60D
  8
SUAVIZADA_INTERNA
 10
-15.08880096170646
 20
-75.30324271714275
 30
0.0
  0
VERTEX
  5
60E
  8
SUAVIZADA_INTERNA
 10
-15.09147207695213
 20
-75.2915086179278
 30
0.0
  0
VERTEX
  5
60F
  8
SUAVIZADA_INTERNA
 10
-15.09452448807961
 20
-75.27989047498858
 30
0.0
  0
VERTEX
  5
610
  8
SUAVIZADA_INTERNA
 10
-15.09620152086014
 20
-75.27413134384923
 30
0.0
  0
VERTEX
  5
611
  8
SUAVIZADA_INTERNA
 10
-15.09798328712447
 20
-75.26840894985106
 30
0.0
  0
VERTEX
  5
612
  8
SUAVIZADA_INTERNA
 10
-15.09987292337704
 20
-75.26272587568485
 30
0.0
  0
VERTEX
  5
613
  8
SUAVIZADA_INTERNA
 10
-15.1018735661223
 20
-75.25708470404133
 30
0.0
  0
VERTEX
  5
614
  8
SUAVIZADA_INTERNA
 10
-15.10398835186469
 20
-75.25148801761127
 30
0.0
  0
VERTEX
  5
615
  8
SUAVIZADA_INTERNA
 10
-15.10622041710867
 20
-75.2459383990854
 30
0.0
  0
VERTEX
  5
616
  8
SUAVIZADA_INTERNA
 10
-15.10857289835867
 20
-75.2404384311545
 30
0.0
  0
VERTEX
  5
617
  8
SUAVIZADA_INTERNA
 10
-15.11104893211915
 20
-75.23499069650931
 30
0.0
  0
VERTEX
  5
618
  8
SUAVIZADA_INTERNA
 10
-15.11365165489454
 20
-75.22959777784058
 30
0.0
  0
VERTEX
  5
619
  8
SUAVIZADA_INTERNA
 10
-15.11638420318931
 20
-75.22426225783909
 30
0.0
  0
VERTEX
  5
61A
  8
SUAVIZADA_INTERNA
 10
-15.1192497135079
 20
-75.21898671919556
 30
0.0
  0
VERTEX
  5
61B
  8
SUAVIZADA_INTERNA
 10
-15.12225132235475
 20
-75.21377374460076
 30
0.0
  0
VERTEX
  5
61C
  8
SUAVIZADA_INTERNA
 10
-15.12539216623431
 20
-75.20862591674543
 30
0.0
  0
VERTEX
  5
61D
  8
SUAVIZADA_INTERNA
 10
-15.12867538165102
 20
-75.20354581832035
 30
0.0
  0
VERTEX
  5
61E
  8
SUAVIZADA_INTERNA
 10
-15.13231227021998
 20
-75.19823812250603
 30
0.0
  0
VERTEX
  5
61F
  8
SUAVIZADA_INTERNA
 10
-15.13610695231386
 20
-75.19300891108523
 30
0.0
  0
VERTEX
  5
620
  8
SUAVIZADA_INTERNA
 10
-15.14005378940187
 20
-75.18785769512228
 30
0.0
  0
VERTEX
  5
621
  8
SUAVIZADA_INTERNA
 10
-15.14414714295323
 20
-75.18278398568147
 30
0.0
  0
VERTEX
  5
622
  8
SUAVIZADA_INTERNA
 10
-15.14838137443716
 20
-75.17778729382712
 30
0.0
  0
VERTEX
  5
623
  8
SUAVIZADA_INTERNA
 10
-15.15275084532287
 20
-75.17286713062353
 30
0.0
  0
VERTEX
  5
624
  8
SUAVIZADA_INTERNA
 10
-15.15724991707957
 20
-75.16802300713502
 30
0.0
  0
VERTEX
  5
625
  8
SUAVIZADA_INTERNA
 10
-15.16187295117648
 20
-75.16325443442588
 30
0.0
  0
VERTEX
  5
626
  8
SUAVIZADA_INTERNA
 10
-15.16661430908281
 20
-75.15856092356043
 30
0.0
  0
VERTEX
  5
627
  8
SUAVIZADA_INTERNA
 10
-15.17146835226778
 20
-75.15394198560297
 30
0.0
  0
VERTEX
  5
628
  8
SUAVIZADA_INTERNA
 10
-15.17642944220061
 20
-75.14939713161783
 30
0.0
  0
VERTEX
  5
629
  8
SUAVIZADA_INTERNA
 10
-15.18149194035051
 20
-75.1449258726693
 30
0.0
  0
VERTEX
  5
62A
  8
SUAVIZADA_INTERNA
 10
-15.19189860717837
 20
-75.13620218413931
 30
0.0
  0
VERTEX
  5
62B
  8
SUAVIZADA_INTERNA
 10
-15.20264324450509
 20
-75.12776700852747
 30
0.0
  0
VERTEX
  5
62C
  8
SUAVIZADA_INTERNA
 10
-15.21368074408439
 20
-75.11961643434825
 30
0.0
  0
VERTEX
  5
62D
  8
SUAVIZADA_INTERNA
 10
-15.22496599766998
 20
-75.11174655011608
 30
0.0
  0
VERTEX
  5
62E
  8
SUAVIZADA_INTERNA
 10
-15.23645389701559
 20
-75.10415344434547
 30
0.0
  0
VERTEX
  5
62F
  8
SUAVIZADA_INTERNA
 10
-15.24809933387494
 20
-75.09683320555088
 30
0.0
  0
VERTEX
  5
630
  8
SUAVIZADA_INTERNA
 10
-15.25985720000174
 20
-75.08978192224677
 30
0.0
  0
VERTEX
  5
631
  8
SUAVIZADA_INTERNA
 10
-15.27168238714972
 20
-75.08299568294757
 30
0.0
  0
VERTEX
  5
632
  8
SUAVIZADA_INTERNA
 10
-15.2953542915241
 20
-75.0702026904219
 30
0.0
  0
VERTEX
  5
633
  8
SUAVIZADA_INTERNA
 10
-15.31780954748008
 20
-75.0589199960929
 30
0.0
  0
VERTEX
  5
634
  8
SUAVIZADA_INTERNA
 10
-15.34014316290376
 20
-75.04853552365218
 30
0.0
  0
VERTEX
  5
635
  8
SUAVIZADA_INTERNA
 10
-15.36248211436866
 20
-75.03902141198922
 30
0.0
  0
VERTEX
  5
636
  8
SUAVIZADA_INTERNA
 10
-15.37369327129578
 20
-75.03458203485238
 30
0.0
  0
VERTEX
  5
637
  8
SUAVIZADA_INTERNA
 10
-15.38495337844828
 20
-75.03034979999353
 30
0.0
  0
VERTEX
  5
638
  8
SUAVIZADA_INTERNA
 10
-15.39627830789785
 20
-75.02632122477385
 30
0.0
  0
VERTEX
  5
639
  8
SUAVIZADA_INTERNA
 10
-15.40768393171616
 20
-75.02249282655454
 30
0.0
  0
VERTEX
  5
63A
  8
SUAVIZADA_INTERNA
 10
-15.41918612197492
 20
-75.01886112269678
 30
0.0
  0
VERTEX
  5
63B
  8
SUAVIZADA_INTERNA
 10
-15.43080075074581
 20
-75.01542263056176
 30
0.0
  0
VERTEX
  5
63C
  8
SUAVIZADA_INTERNA
 10
-15.44254369010052
 20
-75.01217386751065
 30
0.0
  0
VERTEX
  5
63D
  8
SUAVIZADA_INTERNA
 10
-15.45443081211075
 20
-75.00911135090465
 30
0.0
  0
VERTEX
  5
63E
  8
SUAVIZADA_INTERNA
 10
-15.47870109238449
 20
-75.00353112647267
 30
0.0
  0
VERTEX
  5
63F
  8
SUAVIZADA_INTERNA
 10
-15.50520568812779
 20
-74.99836050984143
 30
0.0
  0
VERTEX
  5
640
  8
SUAVIZADA_INTERNA
 10
-15.53234033931697
 20
-74.99381227951852
 30
0.0
  0
VERTEX
  5
641
  8
SUAVIZADA_INTERNA
 10
-15.66934209220351
 20
-74.97453338155523
 30
0.0
  0
VERTEX
  5
642
  8
SUAVIZADA_INTERNA
 10
-15.69538367521949
 20
-74.97019534449805
 30
0.0
  0
VERTEX
  5
643
  8
SUAVIZADA_INTERNA
 10
-15.71645586843617
 20
-74.96618113882688
 30
0.0
  0
VERTEX
  5
644
  8
SUAVIZADA_INTERNA
 10
-15.73684234374849
 20
-74.96189428426658
 30
0.0
  0
VERTEX
  5
645
  8
SUAVIZADA_INTERNA
 10
-15.81175734255218
 20
-74.94431038866631
 30
0.0
  0
VERTEX
  5
646
  8
SUAVIZADA_INTERNA
 10
-15.84539469410526
 20
-74.93685956252344
 30
0.0
  0
VERTEX
  5
647
  8
SUAVIZADA_INTERNA
 10
-15.87103652153428
 20
-74.93213792914105
 30
0.0
  0
VERTEX
  5
648
  8
SUAVIZADA_INTERNA
 10
-15.9454020400291
 20
-74.92019167153613
 30
0.0
  0
VERTEX
  5
649
  8
SUAVIZADA_INTERNA
 10
-15.95856232029895
 20
-74.91766728349626
 30
0.0
  0
VERTEX
  5
64A
  8
SUAVIZADA_INTERNA
 10
-15.97187068798066
 20
-74.91480164226687
 30
0.0
  0
VERTEX
  5
64B
  8
SUAVIZADA_INTERNA
 10
-15.98515890479267
 20
-74.91153071948457
 30
0.0
  0
VERTEX
  5
64C
  8
SUAVIZADA_INTERNA
 10
-15.99174288215956
 20
-74.90972326864754
 30
0.0
  0
VERTEX
  5
64D
  8
SUAVIZADA_INTERNA
 10
-15.99825873245344
 20
-74.90779048678601
 30
0.0
  0
VERTEX
  5
64E
  8
SUAVIZADA_INTERNA
 10
-16.00468542588913
 20
-74.90572437035458
 30
0.0
  0
VERTEX
  5
64F
  8
SUAVIZADA_INTERNA
 10
-16.01100193268141
 20
-74.90351691580781
 30
0.0
  0
VERTEX
  5
650
  8
SUAVIZADA_INTERNA
 10
-16.01718722304511
 20
-74.90116011960029
 30
0.0
  0
VERTEX
  5
651
  8
SUAVIZADA_INTERNA
 10
-16.02322026719502
 20
-74.89864597818658
 30
0.0
  0
VERTEX
  5
652
  8
SUAVIZADA_INTERNA
 10
-16.02617312513194
 20
-74.89732740191945
 30
0.0
  0
VERTEX
  5
653
  8
SUAVIZADA_INTERNA
 10
-16.02908003534596
 20
-74.89596648802126
 30
0.0
  0
VERTEX
  5
654
  8
SUAVIZADA_INTERNA
 10
-16.03193836911393
 20
-74.89456223604881
 30
0.0
  0
VERTEX
  5
655
  8
SUAVIZADA_INTERNA
 10
-16.03474549771272
 20
-74.89311364555894
 30
0.0
  0
VERTEX
  5
656
  8
SUAVIZADA_INTERNA
 10
-16.03749879241916
 20
-74.89161971610844
 30
0.0
  0
VERTEX
  5
657
  8
SUAVIZADA_INTERNA
 10
-16.04019562451012
 20
-74.89007944725417
 30
0.0
  0
VERTEX
  5
658
  8
SUAVIZADA_INTERNA
 10
-16.04283336526243
 20
-74.88849183855292
 30
0.0
  0
VERTEX
  5
659
  8
SUAVIZADA_INTERNA
 10
-16.04540938595295
 20
-74.88685588956152
 30
0.0
  0
VERTEX
  5
65A
  8
SUAVIZADA_INTERNA
 10
-16.04778742805804
 20
-74.88526365304148
 30
0.0
  0
VERTEX
  5
65B
  8
SUAVIZADA_INTERNA
 10
-16.05011141956084
 20
-74.88362841556926
 30
0.0
  0
VERTEX
  5
65C
  8
SUAVIZADA_INTERNA
 10
-16.05238486516202
 20
-74.88195130788617
 30
0.0
  0
VERTEX
  5
65D
  8
SUAVIZADA_INTERNA
 10
-16.05461126956225
 20
-74.88023346073356
 30
0.0
  0
VERTEX
  5
65E
  8
SUAVIZADA_INTERNA
 10
-16.05679413746221
 20
-74.87847600485276
 30
0.0
  0
VERTEX
  5
65F
  8
SUAVIZADA_INTERNA
 10
-16.05893697356256
 20
-74.87668007098506
 30
0.0
  0
VERTEX
  5
660
  8
SUAVIZADA_INTERNA
 10
-16.06104328256396
 20
-74.8748467898718
 30
0.0
  0
VERTEX
  5
661
  8
SUAVIZADA_INTERNA
 10
-16.0631165691671
 20
-74.87297729225432
 30
0.0
  0
VERTEX
  5
662
  8
SUAVIZADA_INTERNA
 10
-16.06717809398123
 20
-74.86913417047197
 30
0.0
  0
VERTEX
  5
663
  8
SUAVIZADA_INTERNA
 10
-16.07114958561033
 20
-74.86515975156863
 30
0.0
  0
VERTEX
  5
664
  8
SUAVIZADA_INTERNA
 10
-16.07505908165973
 20
-74.86106308147487
 30
0.0
  0
VERTEX
  5
665
  8
SUAVIZADA_INTERNA
 10
-16.10304483662421
 20
-74.82972321565782
 30
0.0
  0
VERTEX
  5
666
  8
SUAVIZADA_INTERNA
 10
-16.11208094990218
 20
-74.82018432561227
 30
0.0
  0
VERTEX
  5
667
  8
SUAVIZADA_INTERNA
 10
-16.11806012464044
 20
-74.81423633010752
 30
0.0
  0
VERTEX
  5
668
  8
SUAVIZADA_INTERNA
 10
-16.12434367931994
 20
-74.80826591537559
 30
0.0
  0
VERTEX
  5
669
  8
SUAVIZADA_INTERNA
 10
-16.13090390474093
 20
-74.80229900781003
 30
0.0
  0
VERTEX
  5
66A
  8
SUAVIZADA_INTERNA
 10
-16.13771309170369
 20
-74.79636153380444
 30
0.0
  0
VERTEX
  5
66B
  8
SUAVIZADA_INTERNA
 10
-16.14474353100849
 20
-74.7904794197524
 30
0.0
  0
VERTEX
  5
66C
  8
SUAVIZADA_INTERNA
 10
-16.15196751345561
 20
-74.78467859204748
 30
0.0
  0
VERTEX
  5
66D
  8
SUAVIZADA_INTERNA
 10
-16.15935732984531
 20
-74.77898497708325
 30
0.0
  0
VERTEX
  5
66E
  8
SUAVIZADA_INTERNA
 10
-16.16688527097786
 20
-74.77342450125327
 30
0.0
  0
VERTEX
  5
66F
  8
SUAVIZADA_INTERNA
 10
-16.17452362765354
 20
-74.76802309095113
 30
0.0
  0
VERTEX
  5
670
  8
SUAVIZADA_INTERNA
 10
-16.1822446906726
 20
-74.7628066725704
 30
0.0
  0
VERTEX
  5
671
  8
SUAVIZADA_INTERNA
 10
-16.19002075083532
 20
-74.75780117250467
 30
0.0
  0
VERTEX
  5
672
  8
SUAVIZADA_INTERNA
 10
-16.19782409894198
 20
-74.75303251714747
 30
0.0
  0
VERTEX
  5
673
  8
SUAVIZADA_INTERNA
 10
-16.20562702579284
 20
-74.7485266328924
 30
0.0
  0
VERTEX
  5
674
  8
SUAVIZADA_INTERNA
 10
-16.21340182218817
 20
-74.74430944613306
 30
0.0
  0
VERTEX
  5
675
  8
SUAVIZADA_INTERNA
 10
-16.22112077892825
 20
-74.74040688326298
 30
0.0
  0
VERTEX
  5
676
  8
SUAVIZADA_INTERNA
 10
-16.22875618681334
 20
-74.73684487067574
 30
0.0
  0
VERTEX
  5
677
  8
SUAVIZADA_INTERNA
 10
-16.23509650492283
 20
-74.73412855227627
 30
0.0
  0
VERTEX
  5
678
  8
SUAVIZADA_INTERNA
 10
-16.24136992055321
 20
-74.73166504352903
 30
0.0
  0
VERTEX
  5
679
  8
SUAVIZADA_INTERNA
 10
-16.2475882025503
 20
-74.72944801594318
 30
0.0
  0
VERTEX
  5
67A
  8
SUAVIZADA_INTERNA
 10
-16.25376311975993
 20
-74.72747114102789
 30
0.0
  0
VERTEX
  5
67B
  8
SUAVIZADA_INTERNA
 10
-16.25990644102795
 20
-74.72572809029235
 30
0.0
  0
VERTEX
  5
67C
  8
SUAVIZADA_INTERNA
 10
-16.26602993520017
 20
-74.72421253524573
 30
0.0
  0
VERTEX
  5
67D
  8
SUAVIZADA_INTERNA
 10
-16.27214537112244
 20
-74.72291814739721
 30
0.0
  0
VERTEX
  5
67E
  8
SUAVIZADA_INTERNA
 10
-16.27826451764058
 20
-74.72183859825594
 30
0.0
  0
VERTEX
  5
67F
  8
SUAVIZADA_INTERNA
 10
-16.28439914360044
 20
-74.72096755933111
 30
0.0
  0
VERTEX
  5
680
  8
SUAVIZADA_INTERNA
 10
-16.29056101784783
 20
-74.72029870213193
 30
0.0
  0
VERTEX
  5
681
  8
SUAVIZADA_INTERNA
 10
-16.2967619092286
 20
-74.71982569816751
 30
0.0
  0
VERTEX
  5
682
  8
SUAVIZADA_INTERNA
 10
-16.30301358658857
 20
-74.71954221894707
 30
0.0
  0
VERTEX
  5
683
  8
SUAVIZADA_INTERNA
 10
-16.30932781877359
 20
-74.71944193597977
 30
0.0
  0
VERTEX
  5
684
  8
SUAVIZADA_INTERNA
 10
-16.31571637462947
 20
-74.71951852077478
 30
0.0
  0
VERTEX
  5
685
  8
SUAVIZADA_INTERNA
 10
-16.32219102300206
 20
-74.71976564484127
 30
0.0
  0
VERTEX
  5
686
  8
SUAVIZADA_INTERNA
 10
-16.32876353273718
 20
-74.72017697968843
 30
0.0
  0
VERTEX
  5
687
  8
SUAVIZADA_INTERNA
 10
-16.33700287501556
 20
-74.72089981969705
 30
0.0
  0
VERTEX
  5
688
  8
SUAVIZADA_INTERNA
 10
-16.34540579639685
 20
-74.72185174519333
 30
0.0
  0
VERTEX
  5
689
  8
SUAVIZADA_INTERNA
 10
-16.3539697112562
 20
-74.72302254204038
 30
0.0
  0
VERTEX
  5
68A
  8
SUAVIZADA_INTERNA
 10
-16.36269203396876
 20
-74.72440199610122
 30
0.0
  0
VERTEX
  5
68B
  8
SUAVIZADA_INTERNA
 10
-16.38060156045407
 20
-74.72774601931658
 30
0.0
  0
VERTEX
  5
68C
  8
SUAVIZADA_INTERNA
 10
-16.39911369085399
 20
-74.73180210174394
 30
0.0
  0
VERTEX
  5
68D
  8
SUAVIZADA_INTERNA
 10
-16.41820774016966
 20
-74.73648853028776
 30
0.0
  0
VERTEX
  5
68E
  8
SUAVIZADA_INTERNA
 10
-16.43786302340227
 20
-74.74172359185256
 30
0.0
  0
VERTEX
  5
68F
  8
SUAVIZADA_INTERNA
 10
-16.47877455162296
 20
-74.75351276166305
 30
0.0
  0
VERTEX
  5
690
  8
SUAVIZADA_INTERNA
 10
-16.58019909855706
 20
-74.78548347691009
 30
0.0
  0
VERTEX
  5
691
  8
SUAVIZADA_INTERNA
 10
-16.63071048922142
 20
-74.80273839120682
 30
0.0
  0
VERTEX
  5
692
  8
SUAVIZADA_INTERNA
 10
-16.67878924347065
 20
-74.82018432561227
 30
0.0
  0
VERTEX
  5
693
  8
SUAVIZADA_INTERNA
 10
-16.71821081063216
 20
-74.83551387035423
 30
0.0
  0
VERTEX
  5
694
  8
SUAVIZADA_INTERNA
 10
-16.75557026457909
 20
-74.85128516553577
 30
0.0
  0
VERTEX
  5
695
  8
SUAVIZADA_INTERNA
 10
-16.77384368577891
 20
-74.85954763222449
 30
0.0
  0
VERTEX
  5
696
  8
SUAVIZADA_INTERNA
 10
-16.79204196269325
 20
-74.86817393174286
 30
0.0
  0
VERTEX
  5
697
  8
SUAVIZADA_INTERNA
 10
-16.81031188999484
 20
-74.87724852916412
 30
0.0
  0
VERTEX
  5
698
  8
SUAVIZADA_INTERNA
 10
-16.82880026235642
 20
-74.8868558895615
 30
0.0
  0
VERTEX
  5
699
  8
SUAVIZADA_INTERNA
 10
-16.87009775718269
 20
-74.90971757726214
 30
0.0
  0
VERTEX
  5
69A
  8
SUAVIZADA_INTERNA
 10
-16.91223610601533
 20
-74.93460468713977
 30
0.0
  0
VERTEX
  5
69B
  8
SUAVIZADA_INTERNA
 10
-16.9954791722295
 20
-74.98686323548536
 30
0.0
  0
VERTEX
  5
69C
  8
SUAVIZADA_INTERNA
 10
-17.0320375239709
 20
-75.0108339166703
 30
0.0
  0
VERTEX
  5
69D
  8
SUAVIZADA_INTERNA
 10
-17.04962024767786
 20
-75.02284066526691
 30
0.0
  0
VERTEX
  5
69E
  8
SUAVIZADA_INTERNA
 10
-17.06668043512743
 20
-75.03498775563688
 30
0.0
  0
VERTEX
  5
69F
  8
SUAVIZADA_INTERNA
 10
-17.08317441020841
 20
-75.04736974010814
 30
0.0
  0
VERTEX
  5
6A0
  8
SUAVIZADA_INTERNA
 10
-17.09905849680962
 20
-75.06008117100865
 30
0.0
  0
VERTEX
  5
6A1
  8
SUAVIZADA_INTERNA
 10
-17.10675818314555
 20
-75.06658997647236
 30
0.0
  0
VERTEX
  5
6A2
  8
SUAVIZADA_INTERNA
 10
-17.11428901881986
 20
-75.07321660066634
 30
0.0
  0
VERTEX
  5
6A3
  8
SUAVIZADA_INTERNA
 10
-17.12164554431863
 20
-75.07997286263162
 30
0.0
  0
VERTEX
  5
6A4
  8
SUAVIZADA_INTERNA
 10
-17.12882230012796
 20
-75.08687058140919
 30
0.0
  0
VERTEX
  5
6A5
  8
SUAVIZADA_INTERNA
 10
-17.13581726494052
 20
-75.09392013491785
 30
0.0
  0
VERTEX
  5
6A6
  8
SUAVIZADA_INTERNA
 10
-17.14264217027522
 20
-75.10112613658765
 30
0.0
  0
VERTEX
  5
6A7
  8
SUAVIZADA_INTERNA
 10
-17.14931218585755
 20
-75.10849175872652
 30
0.0
  0
VERTEX
  5
6A8
  8
SUAVIZADA_INTERNA
 10
-17.15584248141296
 20
-75.11602017364234
 30
0.0
  0
VERTEX
  5
6A9
  8
SUAVIZADA_INTERNA
 10
-17.16224822666693
 20
-75.12371455364301
 30
0.0
  0
VERTEX
  5
6AA
  8
SUAVIZADA_INTERNA
 10
-17.16854459134495
 20
-75.13157807103642
 30
0.0
  0
VERTEX
  5
6AB
  8
SUAVIZADA_INTERNA
 10
-17.18086985787501
 20
-75.14782520723301
 30
0.0
  0
VERTEX
  5
6AC
  8
SUAVIZADA_INTERNA
 10
-17.19293963880693
 20
-75.1647869606953
 30
0.0
  0
VERTEX
  5
6AD
  8
SUAVIZADA_INTERNA
 10
-17.2048752919445
 20
-75.1824887098864
 30
0.0
  0
VERTEX
  5
6AE
  8
SUAVIZADA_INTERNA
 10
-17.22882964605181
 20
-75.22021370930766
 30
0.0
  0
VERTEX
  5
6AF
  8
SUAVIZADA_INTERNA
 10
-17.24345217493466
 20
-75.24430717595871
 30
0.0
  0
VERTEX
  5
6B0
  8
SUAVIZADA_INTERNA
 10
-17.25809213367438
 20
-75.26946459591683
 30
0.0
  0
VERTEX
  5
6B1
  8
SUAVIZADA_INTERNA
 10
-17.27243772010791
 20
-75.29558140055752
 30
0.0
  0
VERTEX
  5
6B2
  8
SUAVIZADA_INTERNA
 10
-17.28617713207218
 20
-75.32255302125631
 30
0.0
  0
VERTEX
  5
6B3
  8
SUAVIZADA_INTERNA
 10
-17.2927220844524
 20
-75.33632670993234
 30
0.0
  0
VERTEX
  5
6B4
  8
SUAVIZADA_INTERNA
 10
-17.29899856740415
 20
-75.35027488938871
 30
0.0
  0
VERTEX
  5
6B5
  8
SUAVIZADA_INTERNA
 10
-17.30496760565707
 20
-75.36438448854736
 30
0.0
  0
VERTEX
  5
6B6
  8
SUAVIZADA_INTERNA
 10
-17.31059022394076
 20
-75.37864243633024
 30
0.0
  0
VERTEX
  5
6B7
  8
SUAVIZADA_INTERNA
 10
-17.31582744698484
 20
-75.39303566165927
 30
0.0
  0
VERTEX
  5
6B8
  8
SUAVIZADA_INTERNA
 10
-17.32064029951895
 20
-75.40755109345639
 30
0.0
  0
VERTEX
  5
6B9
  8
SUAVIZADA_INTERNA
 10
-17.32498980627268
 20
-75.42217566064355
 30
0.0
  0
VERTEX
  5
6BA
  8
SUAVIZADA_INTERNA
 10
-17.32883699197565
 20
-75.43689629214266
 30
0.0
  0
VERTEX
  5
6BB
  8
SUAVIZADA_INTERNA
 10
-17.33200770782178
 20
-75.4510187997335
 30
0.0
  0
VERTEX
  5
6BC
  8
SUAVIZADA_INTERNA
 10
-17.33340442763122
 20
-75.4580999635116
 30
0.0
  0
VERTEX
  5
6BD
  8
SUAVIZADA_INTERNA
 10
-17.33467336710393
 20
-75.4651899038491
 30
0.0
  0
VERTEX
  5
6BE
  8
SUAVIZADA_INTERNA
 10
-17.3358130100442
 20
-75.47228524817422
 30
0.0
  0
VERTEX
  5
6BF
  8
SUAVIZADA_INTERNA
 10
-17.33682184025629
 20
-75.47938262391519
 30
0.0
  0
VERTEX
  5
6C0
  8
SUAVIZADA_INTERNA
 10
-17.33769834154449
 20
-75.4864786585002
 30
0.0
  0
VERTEX
  5
6C1
  8
SUAVIZADA_INTERNA
 10
-17.33844099771307
 20
-75.49356997935749
 30
0.0
  0
VERTEX
  5
6C2
  8
SUAVIZADA_INTERNA
 10
-17.3390482925663
 20
-75.50065321391526
 30
0.0
  0
VERTEX
  5
6C3
  8
SUAVIZADA_INTERNA
 10
-17.33951870990846
 20
-75.50772498960174
 30
0.0
  0
VERTEX
  5
6C4
  8
SUAVIZADA_INTERNA
 10
-17.33985073354383
 20
-75.51478193384517
 30
0.0
  0
VERTEX
  5
6C5
  8
SUAVIZADA_INTERNA
 10
-17.34004284727668
 20
-75.52182067407371
 30
0.0
  0
VERTEX
  5
6C6
  8
SUAVIZADA_INTERNA
 10
-17.34009353491128
 20
-75.52883783771561
 30
0.0
  0
VERTEX
  5
6C7
  8
SUAVIZADA_INTERNA
 10
-17.34000128025192
 20
-75.53583005219909
 30
0.0
  0
VERTEX
  5
6C8
  8
SUAVIZADA_INTERNA
 10
-17.33976456710286
 20
-75.54279394495236
 30
0.0
  0
VERTEX
  5
6C9
  8
SUAVIZADA_INTERNA
 10
-17.33938187926838
 20
-75.54972614340363
 30
0.0
  0
VERTEX
  5
6CA
  8
SUAVIZADA_INTERNA
 10
-17.33885170055276
 20
-75.55662327498112
 30
0.0
  0
VERTEX
  5
6CB
  8
SUAVIZADA_INTERNA
 10
-17.33817251476027
 20
-75.56348196711306
 30
0.0
  0
VERTEX
  5
6CC
  8
SUAVIZADA_INTERNA
 10
-17.33734280569518
 20
-75.57029884722765
 30
0.0
  0
VERTEX
  5
6CD
  8
SUAVIZADA_INTERNA
 10
-17.33636105716178
 20
-75.57707054275312
 30
0.0
  0
VERTEX
  5
6CE
  8
SUAVIZADA_INTERNA
 10
-17.33522575296434
 20
-75.58379368111767
 30
0.0
  0
VERTEX
  5
6CF
  8
SUAVIZADA_INTERNA
 10
-17.33393537690713
 20
-75.59046488974954
 30
0.0
  0
VERTEX
  5
6D0
  8
SUAVIZADA_INTERNA
 10
-17.33248841279443
 20
-75.59708079607691
 30
0.0
  0
VERTEX
  5
6D1
  8
SUAVIZADA_INTERNA
 10
-17.3308833444305
 20
-75.60363802752804
 30
0.0
  0
VERTEX
  5
6D2
  8
SUAVIZADA_INTERNA
 10
-17.32911865561964
 20
-75.61013321153112
 30
0.0
  0
VERTEX
  5
6D3
  8
SUAVIZADA_INTERNA
 10
-17.32719283016611
 20
-75.61656297551436
 30
0.0
  0
VERTEX
  5
6D4
  8
SUAVIZADA_INTERNA
 10
-17.32510435187419
 20
-75.622923946906
 30
0.0
  0
VERTEX
  5
6D5
  8
SUAVIZADA_INTERNA
 10
-17.32285170454815
 20
-75.62921275313425
 30
0.0
  0
VERTEX
  5
6D6
  8
SUAVIZADA_INTERNA
 10
-17.32043337199227
 20
-75.63542602162732
 30
0.0
  0
VERTEX
  5
6D7
  8
SUAVIZADA_INTERNA
 10
-17.31784783801083
 20
-75.64156037981346
 30
0.0
  0
VERTEX
  5
6D8
  8
SUAVIZADA_INTERNA
 10
-17.3150935864081
 20
-75.64761245512082
 30
0.0
  0
VERTEX
  5
6D9
  8
SUAVIZADA_INTERNA
 10
-17.31216910098835
 20
-75.65357887497767
 30
0.0
  0
VERTEX
  5
6DA
  8
SUAVIZADA_INTERNA
 10
-17.3091121649543
 20
-75.65938716988859
 30
0.0
  0
VERTEX
  5
6DB
  8
SUAVIZADA_INTERNA
 10
-17.30589324516652
 20
-75.6651098859661
 30
0.0
  0
VERTEX
  5
6DC
  8
SUAVIZADA_INTERNA
 10
-17.30251801801133
 20
-75.6707483523802
 30
0.0
  0
VERTEX
  5
6DD
  8
SUAVIZADA_INTERNA
 10
-17.29899215987501
 20
-75.67630389830089
 30
0.0
  0
VERTEX
  5
6DE
  8
SUAVIZADA_INTERNA
 10
-17.29532134714386
 20
-75.68177785289811
 30
0.0
  0
VERTEX
  5
6DF
  8
SUAVIZADA_INTERNA
 10
-17.2915112562042
 20
-75.68717154534187
 30
0.0
  0
VERTEX
  5
6E0
  8
SUAVIZADA_INTERNA
 10
-17.28756756344232
 20
-75.69248630480212
 30
0.0
  0
VERTEX
  5
6E1
  8
SUAVIZADA_INTERNA
 10
-17.28349594524452
 20
-75.69772346044886
 30
0.0
  0
VERTEX
  5
6E2
  8
SUAVIZADA_INTERNA
 10
-17.27930207799709
 20
-75.70288434145206
 30
0.0
  0
VERTEX
  5
6E3
  8
SUAVIZADA_INTERNA
 10
-17.27499163808636
 20
-75.70797027698171
 30
0.0
  0
VERTEX
  5
6E4
  8
SUAVIZADA_INTERNA
 10
-17.2705703018986
 20
-75.7129825962078
 30
0.0
  0
VERTEX
  5
6E5
  8
SUAVIZADA_INTERNA
 10
-17.26604374582012
 20
-75.71792262830027
 30
0.0
  0
VERTEX
  5
6E6
  8
SUAVIZADA_INTERNA
 10
-17.25669767953622
 20
-75.72759114776434
 30
0.0
  0
VERTEX
  5
6E7
  8
SUAVIZADA_INTERNA
 10
-17.24699885032505
 20
-75.73698646873382
 30
0.0
  0
VERTEX
  5
6E8
  8
SUAVIZADA_INTERNA
 10
-17.23699266927701
 20
-75.74611922456849
 30
0.0
  0
VERTEX
  5
6E9
  8
SUAVIZADA_INTERNA
 10
-17.22672454748252
 20
-75.7550000486282
 30
0.0
  0
VERTEX
  5
6EA
  8
SUAVIZADA_INTERNA
 10
-17.21623989603198
 20
-75.76363957427282
 30
0.0
  0
VERTEX
  5
6EB
  8
SUAVIZADA_INTERNA
 10
-17.20558412601578
 20
-75.77204843486214
 30
0.0
  0
VERTEX
  5
6EC
  8
SUAVIZADA_INTERNA
 10
-17.18394087464806
 20
-75.78821669431431
 30
0.0
  0
VERTEX
  5
6ED
  8
SUAVIZADA_INTERNA
 10
-17.16215808210258
 20
-75.80358989386343
 30
0.0
  0
VERTEX
  5
6EE
  8
SUAVIZADA_INTERNA
 10
-17.02937729472704
 20
-75.89143178678572
 30
0.0
  0
VERTEX
  5
6EF
  8
SUAVIZADA_INTERNA
 10
-17.0121470632168
 20
-75.90359723978727
 30
0.0
  0
VERTEX
  5
6F0
  8
SUAVIZADA_INTERNA
 10
-16.98031579701662
 20
-75.92753907446193
 30
0.0
  0
VERTEX
  5
6F1
  8
SUAVIZADA_INTERNA
 10
-16.91553580974681
 20
-75.9775817467251
 30
0.0
  0
VERTEX
  5
6F2
  8
SUAVIZADA_INTERNA
 10
-16.89772873516948
 20
-75.99051377007412
 30
0.0
  0
VERTEX
  5
6F3
  8
SUAVIZADA_INTERNA
 10
-16.87880393531834
 20
-76.00360458571113
 30
0.0
  0
VERTEX
  5
6F4
  8
SUAVIZADA_INTERNA
 10
-16.8522006382771
 20
-76.02088095698304
 30
0.0
  0
VERTEX
  5
6F5
  8
SUAVIZADA_INTERNA
 10
-16.82361985079502
 20
-76.0382738174437
 30
0.0
  0
VERTEX
  5
6F6
  8
SUAVIZADA_INTERNA
 10
-16.79338617544108
 20
-76.05563799674377
 30
0.0
  0
VERTEX
  5
6F7
  8
SUAVIZADA_INTERNA
 10
-16.7618242147843
 20
-76.07282832453396
 30
0.0
  0
VERTEX
  5
6F8
  8
SUAVIZADA_INTERNA
 10
-16.72925857139367
 20
-76.08969963046495
 30
0.0
  0
VERTEX
  5
6F9
  8
SUAVIZADA_INTERNA
 10
-16.6960138478382
 20
-76.10610674418743
 30
0.0
  0
VERTEX
  5
6FA
  8
SUAVIZADA_INTERNA
 10
-16.66241464668689
 20
-76.12190449535208
 30
0.0
  0
VERTEX
  5
6FB
  8
SUAVIZADA_INTERNA
 10
-16.62878557050873
 20
-76.1369477136096
 30
0.0
  0
VERTEX
  5
6FC
  8
SUAVIZADA_INTERNA
 10
-16.5965803412422
 20
-76.15062140189931
 30
0.0
  0
VERTEX
  5
6FD
  8
SUAVIZADA_INTERNA
 10
-16.56464861468489
 20
-76.16342710552803
 30
0.0
  0
VERTEX
  5
6FE
  8
SUAVIZADA_INTERNA
 10
-16.53298977286295
 20
-76.1753336373373
 30
0.0
  0
VERTEX
  5
6FF
  8
SUAVIZADA_INTERNA
 10
-16.50160319780252
 20
-76.18630981016867
 30
0.0
  0
VERTEX
  5
700
  8
SUAVIZADA_INTERNA
 10
-16.47048827152977
 20
-76.19632443686368
 30
0.0
  0
VERTEX
  5
701
  8
SUAVIZADA_INTERNA
 10
-16.43964437607085
 20
-76.2053463302639
 30
0.0
  0
VERTEX
  5
702
  8
SUAVIZADA_INTERNA
 10
-16.40907089345191
 20
-76.21334430321087
 30
0.0
  0
VERTEX
  5
703
  8
SUAVIZADA_INTERNA
 10
-16.37876720569911
 20
-76.22028716854614
 30
0.0
  0
VERTEX
  5
704
  8
SUAVIZADA_INTERNA
 10
-16.35043564192261
 20
-76.22583810448573
 30
0.0
  0
VERTEX
  5
705
  8
SUAVIZADA_INTERNA
 10
-16.32218363822779
 20
-76.23041594249361
 30
0.0
  0
VERTEX
  5
706
  8
SUAVIZADA_INTERNA
 10
-16.30803766311917
 20
-76.23233719946934
 30
0.0
  0
VERTEX
  5
707
  8
SUAVIZADA_INTERNA
 10
-16.29385180808076
 20
-76.23401188159758
 30
0.0
  0
VERTEX
  5
708
  8
SUAVIZADA_INTERNA
 10
-16.27960614979582
 20
-76.23543888875682
 30
0.0
  0
VERTEX
  5
709
  8
SUAVIZADA_INTERNA
 10
-16.26528076494764
 20
-76.23661712082553
 30
0.0
  0
VERTEX
  5
70A
  8
SUAVIZADA_INTERNA
 10
-16.25085573021946
 20
-76.23754547768218
 30
0.0
  0
VERTEX
  5
70B
  8
SUAVIZADA_INTERNA
 10
-16.23631112229457
 20
-76.23822285920525
 30
0.0
  0
VERTEX
  5
70C
  8
SUAVIZADA_INTERNA
 10
-16.20678349358765
 20
-76.23882029576458
 30
0.0
  0
VERTEX
  5
70D
  8
SUAVIZADA_INTERNA
 10
-16.17653849229303
 20
-76.23840062953138
 30
0.0
  0
VERTEX
  5
70E
  8
SUAVIZADA_INTERNA
 10
-16.1454167318768
 20
-76.23695505953344
 30
0.0
  0
VERTEX
  5
70F
  8
SUAVIZADA_INTERNA
 10
-16.10875804244255
 20
-76.23406727062185
 30
0.0
  0
VERTEX
  5
710
  8
SUAVIZADA_INTERNA
 10
-16.07112087853816
 20
-76.22996238903212
 30
0.0
  0
VERTEX
  5
711
  8
SUAVIZADA_INTERNA
 10
-16.03287389664339
 20
-76.22476857964494
 30
0.0
  0
VERTEX
  5
712
  8
SUAVIZADA_INTERNA
 10
-15.99438575323799
 20
-76.21861400734102
 30
0.0
  0
VERTEX
  5
713
  8
SUAVIZADA_INTERNA
 10
-15.95602510480172
 20
-76.21162683700102
 30
0.0
  0
VERTEX
  5
714
  8
SUAVIZADA_INTERNA
 10
-15.91816060781434
 20
-76.20393523350565
 30
0.0
  0
VERTEX
  5
715
  8
SUAVIZADA_INTERNA
 10
-15.8811609187556
 20
-76.19566736173559
 30
0.0
  0
VERTEX
  5
716
  8
SUAVIZADA_INTERNA
 10
-15.84539469410526
 20
-76.18695138657152
 30
0.0
  0
VERTEX
  5
717
  8
SUAVIZADA_INTERNA
 10
-15.81438951156953
 20
-76.17876950786717
 30
0.0
  0
VERTEX
  5
718
  8
SUAVIZADA_INTERNA
 10
-15.78442933951104
 20
-76.17020095954763
 30
0.0
  0
VERTEX
  5
719
  8
SUAVIZADA_INTERNA
 10
-15.75525401173514
 20
-76.16111971168297
 30
0.0
  0
VERTEX
  5
71A
  8
SUAVIZADA_INTERNA
 10
-15.72660336204723
 20
-76.15139973434326
 30
0.0
  0
VERTEX
  5
71B
  8
SUAVIZADA_INTERNA
 10
-15.69821722425268
 20
-76.14091499759854
 30
0.0
  0
VERTEX
  5
71C
  8
SUAVIZADA_INTERNA
 10
-15.66983543215686
 20
-76.12953947151888
 30
0.0
  0
VERTEX
  5
71D
  8
SUAVIZADA_INTERNA
 10
-15.64119781956516
 20
-76.11714712617433
 30
0.0
  0
VERTEX
  5
71E
  8
SUAVIZADA_INTERNA
 10
-15.61204422028295
 20
-76.10361193163497
 30
0.0
  0
SEQEND
  5
71F
  8
SUAVIZADA_INTERNA
  0
ENDSEC
  0
EOF
