G04 #@! TF.FileFunction,Paste,Top*
%FSLAX46Y46*%
G04 Gerber Fmt 4.6, Leading zero omitted, Abs format (unit mm)*
G04 Created by KiCad (PCBNEW 4.0.7-e2-6376~58~ubuntu16.04.1) date Thu Oct 11 01:20:23 2018*
%MOMM*%
%LPD*%
G01*
G04 APERTURE LIST*
%ADD10C,0.100000*%
%ADD11C,0.150000*%
%ADD12R,1.500000X1.300000*%
%ADD13R,1.500000X1.250000*%
%ADD14R,1.250000X1.500000*%
%ADD15R,0.970000X1.270000*%
%ADD16R,0.600000X1.550000*%
%ADD17R,0.800000X1.900000*%
G04 APERTURE END LIST*
D10*
D11*
X151500000Y-133950000D02*
X65800000Y-133950000D01*
X65800000Y-133950000D02*
X65800000Y-54395000D01*
X151500000Y-54395000D02*
X151500000Y-133950000D01*
X65800000Y-54395000D02*
X151500000Y-54395000D01*
D12*
X88300000Y-80450000D03*
X85600000Y-80450000D03*
X129250000Y-67650000D03*
X131950000Y-67650000D03*
X85650000Y-77850000D03*
X88350000Y-77850000D03*
X131950000Y-70250000D03*
X129250000Y-70250000D03*
D13*
X117700000Y-96250000D03*
X120200000Y-96250000D03*
X127400000Y-96250000D03*
X129900000Y-96250000D03*
X99450000Y-96250000D03*
X96950000Y-96250000D03*
X89750000Y-96250000D03*
X87250000Y-96250000D03*
D14*
X128600000Y-83300000D03*
X128600000Y-85800000D03*
X98700000Y-83300000D03*
X98700000Y-85800000D03*
D15*
X85560000Y-72850000D03*
X86840000Y-72850000D03*
X85560000Y-75350000D03*
X86840000Y-75350000D03*
X131900000Y-75350000D03*
X130620000Y-75350000D03*
X131900000Y-72850000D03*
X130620000Y-72850000D03*
X128860000Y-91250000D03*
X130140000Y-91250000D03*
X117460000Y-91250000D03*
X118740000Y-91250000D03*
X98460000Y-91250000D03*
X99740000Y-91250000D03*
X87060000Y-91250000D03*
X88340000Y-91250000D03*
D12*
X120300000Y-93750000D03*
X117600000Y-93750000D03*
X120300000Y-98750000D03*
X117600000Y-98750000D03*
X89850000Y-98750000D03*
X87150000Y-98750000D03*
X89850000Y-93750000D03*
X87150000Y-93750000D03*
X130000000Y-93750000D03*
X127300000Y-93750000D03*
X130000000Y-98750000D03*
X127300000Y-98750000D03*
X99550000Y-98750000D03*
X96850000Y-98750000D03*
X99550000Y-93750000D03*
X96850000Y-93750000D03*
D16*
X125605000Y-80350000D03*
X124335000Y-80350000D03*
X123065000Y-80350000D03*
X121795000Y-80350000D03*
X121795000Y-85750000D03*
X123065000Y-85750000D03*
X124335000Y-85750000D03*
X125605000Y-85750000D03*
X95205000Y-80350000D03*
X93935000Y-80350000D03*
X92665000Y-80350000D03*
X91395000Y-80350000D03*
X91395000Y-85750000D03*
X92665000Y-85750000D03*
X93935000Y-85750000D03*
X95205000Y-85750000D03*
D17*
X83550000Y-114000000D03*
X85450000Y-114000000D03*
X84500000Y-111000000D03*
X127050000Y-114000000D03*
X128950000Y-114000000D03*
X128000000Y-111000000D03*
D12*
X131950000Y-77850000D03*
X129250000Y-77850000D03*
X85550000Y-70250000D03*
X88250000Y-70250000D03*
X129150000Y-80450000D03*
X131850000Y-80450000D03*
X88250000Y-67650000D03*
X85550000Y-67650000D03*
M02*
