%FSLAX45Y45*%
G04 Gerber Fmt 4.5, Leading zero omitted, Abs format (unit mm)*
G04 Created by KiCad (PCBNEW 4.0.7-e2-6376~58~ubuntu16.04.1) date Thu Oct 11 01:20:12 2018*
%MOMM*%
%LPD*%
G01*
G04 APERTURE LIST*
%ADD10C,0.127000*%
%ADD11C,0.150000*%
%ADD12C,0.200000*%
%ADD13C,0.300000*%
G04 APERTURE END LIST*
D10*
D11*
X15150000Y-13395000D02*
X6580000Y-13395000D01*
X6580000Y-13395000D02*
X6580000Y-5439500D01*
X15150000Y-5439500D02*
X15150000Y-13395000D01*
X6580000Y-5439500D02*
X15150000Y-5439500D01*
D12*
X8625000Y-8320000D02*
X8675000Y-8370000D01*
X8675000Y-8320000D02*
X8625000Y-8370000D01*
X9242300Y-8900000D02*
X9292300Y-8950000D01*
X9292300Y-8900000D02*
X9242300Y-8950000D01*
X9367700Y-8900000D02*
X9417700Y-8950000D01*
X9417700Y-8900000D02*
X9367700Y-8950000D01*
X12272300Y-8900000D02*
X12322300Y-8950000D01*
X12322300Y-8900000D02*
X12272300Y-8950000D01*
X12397700Y-8900000D02*
X12447700Y-8950000D01*
X12447700Y-8900000D02*
X12397700Y-8950000D01*
X13074288Y-8305000D02*
X13124288Y-8355000D01*
X13124288Y-8305000D02*
X13074288Y-8355000D01*
X7290800Y-6021000D02*
G75*
G03X7290800Y-6021000I-50800J0D01*
G01*
X7290800Y-6275000D02*
G75*
G03X7290800Y-6275000I-50800J0D01*
G01*
X7290800Y-6529000D02*
G75*
G03X7290800Y-6529000I-50800J0D01*
G01*
X7290800Y-6783000D02*
G75*
G03X7290800Y-6783000I-50800J0D01*
G01*
X7290800Y-7037000D02*
G75*
G03X7290800Y-7037000I-50800J0D01*
G01*
X7290800Y-7291000D02*
G75*
G03X7290800Y-7291000I-50800J0D01*
G01*
X7290800Y-7545000D02*
G75*
G03X7290800Y-7545000I-50800J0D01*
G01*
X7290800Y-7799000D02*
G75*
G03X7290800Y-7799000I-50800J0D01*
G01*
X7290800Y-8053000D02*
G75*
G03X7290800Y-8053000I-50800J0D01*
G01*
X7290800Y-8307000D02*
G75*
G03X7290800Y-8307000I-50800J0D01*
G01*
X7290800Y-8561000D02*
G75*
G03X7290800Y-8561000I-50800J0D01*
G01*
X7290800Y-8815000D02*
G75*
G03X7290800Y-8815000I-50800J0D01*
G01*
X7290800Y-9069000D02*
G75*
G03X7290800Y-9069000I-50800J0D01*
G01*
X7290800Y-9323000D02*
G75*
G03X7290800Y-9323000I-50800J0D01*
G01*
X7290800Y-9577000D02*
G75*
G03X7290800Y-9577000I-50800J0D01*
G01*
X7290800Y-9831000D02*
G75*
G03X7290800Y-9831000I-50800J0D01*
G01*
X7290800Y-10085000D02*
G75*
G03X7290800Y-10085000I-50800J0D01*
G01*
X7290800Y-10339000D02*
G75*
G03X7290800Y-10339000I-50800J0D01*
G01*
X7290800Y-10593000D02*
G75*
G03X7290800Y-10593000I-50800J0D01*
G01*
X7290800Y-10847000D02*
G75*
G03X7290800Y-10847000I-50800J0D01*
G01*
X7544800Y-6021000D02*
G75*
G03X7544800Y-6021000I-50800J0D01*
G01*
X7544800Y-6275000D02*
G75*
G03X7544800Y-6275000I-50800J0D01*
G01*
X7544800Y-6529000D02*
G75*
G03X7544800Y-6529000I-50800J0D01*
G01*
X7544800Y-6783000D02*
G75*
G03X7544800Y-6783000I-50800J0D01*
G01*
X7544800Y-7037000D02*
G75*
G03X7544800Y-7037000I-50800J0D01*
G01*
X7544800Y-7291000D02*
G75*
G03X7544800Y-7291000I-50800J0D01*
G01*
X7544800Y-7545000D02*
G75*
G03X7544800Y-7545000I-50800J0D01*
G01*
X7544800Y-7799000D02*
G75*
G03X7544800Y-7799000I-50800J0D01*
G01*
X7544800Y-8053000D02*
G75*
G03X7544800Y-8053000I-50800J0D01*
G01*
X7544800Y-8307000D02*
G75*
G03X7544800Y-8307000I-50800J0D01*
G01*
X7544800Y-8561000D02*
G75*
G03X7544800Y-8561000I-50800J0D01*
G01*
X7544800Y-8815000D02*
G75*
G03X7544800Y-8815000I-50800J0D01*
G01*
X7544800Y-9069000D02*
G75*
G03X7544800Y-9069000I-50800J0D01*
G01*
X7544800Y-9323000D02*
G75*
G03X7544800Y-9323000I-50800J0D01*
G01*
X7544800Y-9577000D02*
G75*
G03X7544800Y-9577000I-50800J0D01*
G01*
X7544800Y-9831000D02*
G75*
G03X7544800Y-9831000I-50800J0D01*
G01*
X7544800Y-10085000D02*
G75*
G03X7544800Y-10085000I-50800J0D01*
G01*
X7544800Y-10339000D02*
G75*
G03X7544800Y-10339000I-50800J0D01*
G01*
X7544800Y-10593000D02*
G75*
G03X7544800Y-10593000I-50800J0D01*
G01*
X7544800Y-10847000D02*
G75*
G03X7544800Y-10847000I-50800J0D01*
G01*
X14402800Y-6021000D02*
G75*
G03X14402800Y-6021000I-50800J0D01*
G01*
X14402800Y-6275000D02*
G75*
G03X14402800Y-6275000I-50800J0D01*
G01*
X14402800Y-6529000D02*
G75*
G03X14402800Y-6529000I-50800J0D01*
G01*
X14402800Y-6783000D02*
G75*
G03X14402800Y-6783000I-50800J0D01*
G01*
X14402800Y-7037000D02*
G75*
G03X14402800Y-7037000I-50800J0D01*
G01*
X14402800Y-7291000D02*
G75*
G03X14402800Y-7291000I-50800J0D01*
G01*
X14402800Y-7545000D02*
G75*
G03X14402800Y-7545000I-50800J0D01*
G01*
X14402800Y-7799000D02*
G75*
G03X14402800Y-7799000I-50800J0D01*
G01*
X14402800Y-8053000D02*
G75*
G03X14402800Y-8053000I-50800J0D01*
G01*
X14402800Y-8307000D02*
G75*
G03X14402800Y-8307000I-50800J0D01*
G01*
X14402800Y-8561000D02*
G75*
G03X14402800Y-8561000I-50800J0D01*
G01*
X14402800Y-8815000D02*
G75*
G03X14402800Y-8815000I-50800J0D01*
G01*
X14402800Y-9069000D02*
G75*
G03X14402800Y-9069000I-50800J0D01*
G01*
X14402800Y-9323000D02*
G75*
G03X14402800Y-9323000I-50800J0D01*
G01*
X14402800Y-9577000D02*
G75*
G03X14402800Y-9577000I-50800J0D01*
G01*
X14402800Y-9831000D02*
G75*
G03X14402800Y-9831000I-50800J0D01*
G01*
X14402800Y-10085000D02*
G75*
G03X14402800Y-10085000I-50800J0D01*
G01*
X14402800Y-10339000D02*
G75*
G03X14402800Y-10339000I-50800J0D01*
G01*
X14402800Y-10593000D02*
G75*
G03X14402800Y-10593000I-50800J0D01*
G01*
X14402800Y-10847000D02*
G75*
G03X14402800Y-10847000I-50800J0D01*
G01*
X14656800Y-6021000D02*
G75*
G03X14656800Y-6021000I-50800J0D01*
G01*
X14656800Y-6275000D02*
G75*
G03X14656800Y-6275000I-50800J0D01*
G01*
X14656800Y-6529000D02*
G75*
G03X14656800Y-6529000I-50800J0D01*
G01*
X14656800Y-6783000D02*
G75*
G03X14656800Y-6783000I-50800J0D01*
G01*
X14656800Y-7037000D02*
G75*
G03X14656800Y-7037000I-50800J0D01*
G01*
X14656800Y-7291000D02*
G75*
G03X14656800Y-7291000I-50800J0D01*
G01*
X14656800Y-7545000D02*
G75*
G03X14656800Y-7545000I-50800J0D01*
G01*
X14656800Y-7799000D02*
G75*
G03X14656800Y-7799000I-50800J0D01*
G01*
X14656800Y-8053000D02*
G75*
G03X14656800Y-8053000I-50800J0D01*
G01*
X14656800Y-8307000D02*
G75*
G03X14656800Y-8307000I-50800J0D01*
G01*
X14656800Y-8561000D02*
G75*
G03X14656800Y-8561000I-50800J0D01*
G01*
X14656800Y-8815000D02*
G75*
G03X14656800Y-8815000I-50800J0D01*
G01*
X14656800Y-9069000D02*
G75*
G03X14656800Y-9069000I-50800J0D01*
G01*
X14656800Y-9323000D02*
G75*
G03X14656800Y-9323000I-50800J0D01*
G01*
X14656800Y-9577000D02*
G75*
G03X14656800Y-9577000I-50800J0D01*
G01*
X14656800Y-9831000D02*
G75*
G03X14656800Y-9831000I-50800J0D01*
G01*
X14656800Y-10085000D02*
G75*
G03X14656800Y-10085000I-50800J0D01*
G01*
X14656800Y-10339000D02*
G75*
G03X14656800Y-10339000I-50800J0D01*
G01*
X14656800Y-10593000D02*
G75*
G03X14656800Y-10593000I-50800J0D01*
G01*
X14656800Y-10847000D02*
G75*
G03X14656800Y-10847000I-50800J0D01*
G01*
X8129000Y-11980000D02*
X8129000Y-12082000D01*
X8078000Y-12031000D02*
X8180000Y-12031000D01*
X8269000Y-12234000D02*
X8269000Y-12336000D01*
X8218000Y-12285000D02*
X8320000Y-12285000D01*
X8408000Y-11980000D02*
X8408000Y-12082000D01*
X8357000Y-12031000D02*
X8459000Y-12031000D01*
X8548000Y-12234000D02*
X8548000Y-12336000D01*
X8497000Y-12285000D02*
X8599000Y-12285000D01*
X8688000Y-11980000D02*
X8688000Y-12082000D01*
X8637000Y-12031000D02*
X8739000Y-12031000D01*
X8815000Y-12234000D02*
X8815000Y-12336000D01*
X8764000Y-12285000D02*
X8866000Y-12285000D01*
X8954000Y-11980000D02*
X8954000Y-12082000D01*
X8903000Y-12031000D02*
X9005000Y-12031000D01*
X9094000Y-12234000D02*
X9094000Y-12336000D01*
X9043000Y-12285000D02*
X9145000Y-12285000D01*
X9234000Y-11980000D02*
X9234000Y-12082000D01*
X9183000Y-12031000D02*
X9285000Y-12031000D01*
X12475000Y-11980000D02*
X12475000Y-12082000D01*
X12424000Y-12031000D02*
X12526000Y-12031000D01*
X12615000Y-12234000D02*
X12615000Y-12336000D01*
X12564000Y-12285000D02*
X12666000Y-12285000D01*
X12754000Y-11980000D02*
X12754000Y-12082000D01*
X12703000Y-12031000D02*
X12805000Y-12031000D01*
X12894000Y-12234000D02*
X12894000Y-12336000D01*
X12843000Y-12285000D02*
X12945000Y-12285000D01*
X13034000Y-11980000D02*
X13034000Y-12082000D01*
X12983000Y-12031000D02*
X13085000Y-12031000D01*
X13161000Y-12234000D02*
X13161000Y-12336000D01*
X13110000Y-12285000D02*
X13212000Y-12285000D01*
X13300000Y-11980000D02*
X13300000Y-12082000D01*
X13249000Y-12031000D02*
X13351000Y-12031000D01*
X13440000Y-12234000D02*
X13440000Y-12336000D01*
X13389000Y-12285000D02*
X13491000Y-12285000D01*
X13580000Y-11980000D02*
X13580000Y-12082000D01*
X13529000Y-12031000D02*
X13631000Y-12031000D01*
X7512835Y-12392835D02*
X7512835Y-12177165D01*
X7297165Y-12177165D01*
X7297165Y-12392835D01*
X7512835Y-12392835D01*
X10052835Y-12392835D02*
X10052835Y-12177165D01*
X9837165Y-12177165D01*
X9837165Y-12392835D01*
X10052835Y-12392835D01*
X11858835Y-12392835D02*
X11858835Y-12177165D01*
X11643165Y-12177165D01*
X11643165Y-12392835D01*
X11858835Y-12392835D01*
X14398835Y-12392835D02*
X14398835Y-12177165D01*
X14183165Y-12177165D01*
X14183165Y-12392835D01*
X14398835Y-12392835D01*
D13*
X6843928Y-13868214D02*
X6843928Y-13568214D01*
X6915357Y-13568214D01*
X6958214Y-13582500D01*
X6986786Y-13611071D01*
X7001071Y-13639643D01*
X7015357Y-13696786D01*
X7015357Y-13739643D01*
X7001071Y-13796786D01*
X6986786Y-13825357D01*
X6958214Y-13853929D01*
X6915357Y-13868214D01*
X6843928Y-13868214D01*
X7143928Y-13868214D02*
X7143928Y-13668214D01*
X7143928Y-13725357D02*
X7158214Y-13696786D01*
X7172500Y-13682500D01*
X7201071Y-13668214D01*
X7229643Y-13668214D01*
X7329643Y-13868214D02*
X7329643Y-13668214D01*
X7329643Y-13568214D02*
X7315357Y-13582500D01*
X7329643Y-13596786D01*
X7343928Y-13582500D01*
X7329643Y-13568214D01*
X7329643Y-13596786D01*
X7515357Y-13868214D02*
X7486786Y-13853929D01*
X7472500Y-13825357D01*
X7472500Y-13568214D01*
X7672500Y-13868214D02*
X7643928Y-13853929D01*
X7629643Y-13825357D01*
X7629643Y-13568214D01*
X8015357Y-13868214D02*
X8015357Y-13568214D01*
X8115357Y-13782500D01*
X8215357Y-13568214D01*
X8215357Y-13868214D01*
X8486786Y-13868214D02*
X8486786Y-13711071D01*
X8472500Y-13682500D01*
X8443929Y-13668214D01*
X8386786Y-13668214D01*
X8358214Y-13682500D01*
X8486786Y-13853929D02*
X8458214Y-13868214D01*
X8386786Y-13868214D01*
X8358214Y-13853929D01*
X8343928Y-13825357D01*
X8343928Y-13796786D01*
X8358214Y-13768214D01*
X8386786Y-13753929D01*
X8458214Y-13753929D01*
X8486786Y-13739643D01*
X8629643Y-13668214D02*
X8629643Y-13968214D01*
X8629643Y-13682500D02*
X8658214Y-13668214D01*
X8715357Y-13668214D01*
X8743929Y-13682500D01*
X8758214Y-13696786D01*
X8772500Y-13725357D01*
X8772500Y-13811071D01*
X8758214Y-13839643D01*
X8743929Y-13853929D01*
X8715357Y-13868214D01*
X8658214Y-13868214D01*
X8629643Y-13853929D01*
X8901071Y-13839643D02*
X8915357Y-13853929D01*
X8901071Y-13868214D01*
X8886786Y-13853929D01*
X8901071Y-13839643D01*
X8901071Y-13868214D01*
X8901071Y-13682500D02*
X8915357Y-13696786D01*
X8901071Y-13711071D01*
X8886786Y-13696786D01*
X8901071Y-13682500D01*
X8901071Y-13711071D01*
X6522500Y-14337500D02*
X6572500Y-14387500D01*
X6572500Y-14337500D02*
X6522500Y-14387500D01*
X6901071Y-14198214D02*
X6929643Y-14198214D01*
X6958214Y-14212500D01*
X6972500Y-14226786D01*
X6986786Y-14255357D01*
X7001071Y-14312500D01*
X7001071Y-14383929D01*
X6986786Y-14441071D01*
X6972500Y-14469643D01*
X6958214Y-14483929D01*
X6929643Y-14498214D01*
X6901071Y-14498214D01*
X6872500Y-14483929D01*
X6858214Y-14469643D01*
X6843928Y-14441071D01*
X6829643Y-14383929D01*
X6829643Y-14312500D01*
X6843928Y-14255357D01*
X6858214Y-14226786D01*
X6872500Y-14212500D01*
X6901071Y-14198214D01*
X7129643Y-14469643D02*
X7143928Y-14483929D01*
X7129643Y-14498214D01*
X7115357Y-14483929D01*
X7129643Y-14469643D01*
X7129643Y-14498214D01*
X7415357Y-14198214D02*
X7272500Y-14198214D01*
X7258214Y-14341071D01*
X7272500Y-14326786D01*
X7301071Y-14312500D01*
X7372500Y-14312500D01*
X7401071Y-14326786D01*
X7415357Y-14341071D01*
X7429643Y-14369643D01*
X7429643Y-14441071D01*
X7415357Y-14469643D01*
X7401071Y-14483929D01*
X7372500Y-14498214D01*
X7301071Y-14498214D01*
X7272500Y-14483929D01*
X7258214Y-14469643D01*
X7615357Y-14198214D02*
X7643928Y-14198214D01*
X7672500Y-14212500D01*
X7686786Y-14226786D01*
X7701071Y-14255357D01*
X7715357Y-14312500D01*
X7715357Y-14383929D01*
X7701071Y-14441071D01*
X7686786Y-14469643D01*
X7672500Y-14483929D01*
X7643928Y-14498214D01*
X7615357Y-14498214D01*
X7586786Y-14483929D01*
X7572500Y-14469643D01*
X7558214Y-14441071D01*
X7543928Y-14383929D01*
X7543928Y-14312500D01*
X7558214Y-14255357D01*
X7572500Y-14226786D01*
X7586786Y-14212500D01*
X7615357Y-14198214D01*
X7843928Y-14498214D02*
X7843928Y-14298214D01*
X7843928Y-14326786D02*
X7858214Y-14312500D01*
X7886786Y-14298214D01*
X7929643Y-14298214D01*
X7958214Y-14312500D01*
X7972500Y-14341071D01*
X7972500Y-14498214D01*
X7972500Y-14341071D02*
X7986786Y-14312500D01*
X8015357Y-14298214D01*
X8058214Y-14298214D01*
X8086786Y-14312500D01*
X8101071Y-14341071D01*
X8101071Y-14498214D01*
X8243928Y-14498214D02*
X8243928Y-14298214D01*
X8243928Y-14326786D02*
X8258214Y-14312500D01*
X8286786Y-14298214D01*
X8329643Y-14298214D01*
X8358214Y-14312500D01*
X8372500Y-14341071D01*
X8372500Y-14498214D01*
X8372500Y-14341071D02*
X8386786Y-14312500D01*
X8415357Y-14298214D01*
X8458214Y-14298214D01*
X8486786Y-14312500D01*
X8501071Y-14341071D01*
X8501071Y-14498214D01*
X9086786Y-14183929D02*
X8829643Y-14569643D01*
X9472500Y-14198214D02*
X9501071Y-14198214D01*
X9529643Y-14212500D01*
X9543928Y-14226786D01*
X9558214Y-14255357D01*
X9572500Y-14312500D01*
X9572500Y-14383929D01*
X9558214Y-14441071D01*
X9543928Y-14469643D01*
X9529643Y-14483929D01*
X9501071Y-14498214D01*
X9472500Y-14498214D01*
X9443928Y-14483929D01*
X9429643Y-14469643D01*
X9415357Y-14441071D01*
X9401071Y-14383929D01*
X9401071Y-14312500D01*
X9415357Y-14255357D01*
X9429643Y-14226786D01*
X9443928Y-14212500D01*
X9472500Y-14198214D01*
X9701071Y-14469643D02*
X9715357Y-14483929D01*
X9701071Y-14498214D01*
X9686786Y-14483929D01*
X9701071Y-14469643D01*
X9701071Y-14498214D01*
X9901071Y-14198214D02*
X9929643Y-14198214D01*
X9958214Y-14212500D01*
X9972500Y-14226786D01*
X9986786Y-14255357D01*
X10001071Y-14312500D01*
X10001071Y-14383929D01*
X9986786Y-14441071D01*
X9972500Y-14469643D01*
X9958214Y-14483929D01*
X9929643Y-14498214D01*
X9901071Y-14498214D01*
X9872500Y-14483929D01*
X9858214Y-14469643D01*
X9843928Y-14441071D01*
X9829643Y-14383929D01*
X9829643Y-14312500D01*
X9843928Y-14255357D01*
X9858214Y-14226786D01*
X9872500Y-14212500D01*
X9901071Y-14198214D01*
X10115357Y-14226786D02*
X10129643Y-14212500D01*
X10158214Y-14198214D01*
X10229643Y-14198214D01*
X10258214Y-14212500D01*
X10272500Y-14226786D01*
X10286786Y-14255357D01*
X10286786Y-14283929D01*
X10272500Y-14326786D01*
X10101071Y-14498214D01*
X10286786Y-14498214D01*
X10472500Y-14198214D02*
X10501071Y-14198214D01*
X10529643Y-14212500D01*
X10543928Y-14226786D01*
X10558214Y-14255357D01*
X10572500Y-14312500D01*
X10572500Y-14383929D01*
X10558214Y-14441071D01*
X10543928Y-14469643D01*
X10529643Y-14483929D01*
X10501071Y-14498214D01*
X10472500Y-14498214D01*
X10443928Y-14483929D01*
X10429643Y-14469643D01*
X10415357Y-14441071D01*
X10401071Y-14383929D01*
X10401071Y-14312500D01*
X10415357Y-14255357D01*
X10429643Y-14226786D01*
X10443928Y-14212500D01*
X10472500Y-14198214D01*
X10686786Y-14198214D02*
X10686786Y-14255357D01*
X10801071Y-14198214D02*
X10801071Y-14255357D01*
X11243928Y-14612500D02*
X11229643Y-14598214D01*
X11201071Y-14555357D01*
X11186785Y-14526786D01*
X11172500Y-14483929D01*
X11158214Y-14412500D01*
X11158214Y-14355357D01*
X11172500Y-14283929D01*
X11186785Y-14241071D01*
X11201071Y-14212500D01*
X11229643Y-14169643D01*
X11243928Y-14155357D01*
X11486785Y-14198214D02*
X11429643Y-14198214D01*
X11401071Y-14212500D01*
X11386785Y-14226786D01*
X11358214Y-14269643D01*
X11343928Y-14326786D01*
X11343928Y-14441071D01*
X11358214Y-14469643D01*
X11372500Y-14483929D01*
X11401071Y-14498214D01*
X11458214Y-14498214D01*
X11486785Y-14483929D01*
X11501071Y-14469643D01*
X11515357Y-14441071D01*
X11515357Y-14369643D01*
X11501071Y-14341071D01*
X11486785Y-14326786D01*
X11458214Y-14312500D01*
X11401071Y-14312500D01*
X11372500Y-14326786D01*
X11358214Y-14341071D01*
X11343928Y-14369643D01*
X11872500Y-14498214D02*
X11872500Y-14198214D01*
X12001071Y-14498214D02*
X12001071Y-14341071D01*
X11986785Y-14312500D01*
X11958214Y-14298214D01*
X11915357Y-14298214D01*
X11886785Y-14312500D01*
X11872500Y-14326786D01*
X12186785Y-14498214D02*
X12158214Y-14483929D01*
X12143928Y-14469643D01*
X12129643Y-14441071D01*
X12129643Y-14355357D01*
X12143928Y-14326786D01*
X12158214Y-14312500D01*
X12186785Y-14298214D01*
X12229643Y-14298214D01*
X12258214Y-14312500D01*
X12272500Y-14326786D01*
X12286785Y-14355357D01*
X12286785Y-14441071D01*
X12272500Y-14469643D01*
X12258214Y-14483929D01*
X12229643Y-14498214D01*
X12186785Y-14498214D01*
X12458214Y-14498214D02*
X12429643Y-14483929D01*
X12415357Y-14455357D01*
X12415357Y-14198214D01*
X12686786Y-14483929D02*
X12658214Y-14498214D01*
X12601071Y-14498214D01*
X12572500Y-14483929D01*
X12558214Y-14455357D01*
X12558214Y-14341071D01*
X12572500Y-14312500D01*
X12601071Y-14298214D01*
X12658214Y-14298214D01*
X12686786Y-14312500D01*
X12701071Y-14341071D01*
X12701071Y-14369643D01*
X12558214Y-14398214D01*
X12815357Y-14483929D02*
X12843928Y-14498214D01*
X12901071Y-14498214D01*
X12929643Y-14483929D01*
X12943928Y-14455357D01*
X12943928Y-14441071D01*
X12929643Y-14412500D01*
X12901071Y-14398214D01*
X12858214Y-14398214D01*
X12829643Y-14383929D01*
X12815357Y-14355357D01*
X12815357Y-14341071D01*
X12829643Y-14312500D01*
X12858214Y-14298214D01*
X12901071Y-14298214D01*
X12929643Y-14312500D01*
X13043928Y-14612500D02*
X13058214Y-14598214D01*
X13086786Y-14555357D01*
X13101071Y-14526786D01*
X13115357Y-14483929D01*
X13129643Y-14412500D01*
X13129643Y-14355357D01*
X13115357Y-14283929D01*
X13101071Y-14241071D01*
X13086786Y-14212500D01*
X13058214Y-14169643D01*
X13043928Y-14155357D01*
X6572500Y-14758500D02*
G75*
G03X6572500Y-14758500I-50800J0D01*
G01*
X7001071Y-14894214D02*
X6829643Y-14894214D01*
X6915357Y-14894214D02*
X6915357Y-14594214D01*
X6886786Y-14637071D01*
X6858214Y-14665643D01*
X6829643Y-14679929D01*
X7129643Y-14865643D02*
X7143928Y-14879929D01*
X7129643Y-14894214D01*
X7115357Y-14879929D01*
X7129643Y-14865643D01*
X7129643Y-14894214D01*
X7329643Y-14594214D02*
X7358214Y-14594214D01*
X7386786Y-14608500D01*
X7401071Y-14622786D01*
X7415357Y-14651357D01*
X7429643Y-14708500D01*
X7429643Y-14779929D01*
X7415357Y-14837071D01*
X7401071Y-14865643D01*
X7386786Y-14879929D01*
X7358214Y-14894214D01*
X7329643Y-14894214D01*
X7301071Y-14879929D01*
X7286786Y-14865643D01*
X7272500Y-14837071D01*
X7258214Y-14779929D01*
X7258214Y-14708500D01*
X7272500Y-14651357D01*
X7286786Y-14622786D01*
X7301071Y-14608500D01*
X7329643Y-14594214D01*
X7543928Y-14622786D02*
X7558214Y-14608500D01*
X7586786Y-14594214D01*
X7658214Y-14594214D01*
X7686786Y-14608500D01*
X7701071Y-14622786D01*
X7715357Y-14651357D01*
X7715357Y-14679929D01*
X7701071Y-14722786D01*
X7529643Y-14894214D01*
X7715357Y-14894214D01*
X7843928Y-14894214D02*
X7843928Y-14694214D01*
X7843928Y-14722786D02*
X7858214Y-14708500D01*
X7886786Y-14694214D01*
X7929643Y-14694214D01*
X7958214Y-14708500D01*
X7972500Y-14737071D01*
X7972500Y-14894214D01*
X7972500Y-14737071D02*
X7986786Y-14708500D01*
X8015357Y-14694214D01*
X8058214Y-14694214D01*
X8086786Y-14708500D01*
X8101071Y-14737071D01*
X8101071Y-14894214D01*
X8243928Y-14894214D02*
X8243928Y-14694214D01*
X8243928Y-14722786D02*
X8258214Y-14708500D01*
X8286786Y-14694214D01*
X8329643Y-14694214D01*
X8358214Y-14708500D01*
X8372500Y-14737071D01*
X8372500Y-14894214D01*
X8372500Y-14737071D02*
X8386786Y-14708500D01*
X8415357Y-14694214D01*
X8458214Y-14694214D01*
X8486786Y-14708500D01*
X8501071Y-14737071D01*
X8501071Y-14894214D01*
X9086786Y-14579929D02*
X8829643Y-14965643D01*
X9472500Y-14594214D02*
X9501071Y-14594214D01*
X9529643Y-14608500D01*
X9543928Y-14622786D01*
X9558214Y-14651357D01*
X9572500Y-14708500D01*
X9572500Y-14779929D01*
X9558214Y-14837071D01*
X9543928Y-14865643D01*
X9529643Y-14879929D01*
X9501071Y-14894214D01*
X9472500Y-14894214D01*
X9443928Y-14879929D01*
X9429643Y-14865643D01*
X9415357Y-14837071D01*
X9401071Y-14779929D01*
X9401071Y-14708500D01*
X9415357Y-14651357D01*
X9429643Y-14622786D01*
X9443928Y-14608500D01*
X9472500Y-14594214D01*
X9701071Y-14865643D02*
X9715357Y-14879929D01*
X9701071Y-14894214D01*
X9686786Y-14879929D01*
X9701071Y-14865643D01*
X9701071Y-14894214D01*
X9901071Y-14594214D02*
X9929643Y-14594214D01*
X9958214Y-14608500D01*
X9972500Y-14622786D01*
X9986786Y-14651357D01*
X10001071Y-14708500D01*
X10001071Y-14779929D01*
X9986786Y-14837071D01*
X9972500Y-14865643D01*
X9958214Y-14879929D01*
X9929643Y-14894214D01*
X9901071Y-14894214D01*
X9872500Y-14879929D01*
X9858214Y-14865643D01*
X9843928Y-14837071D01*
X9829643Y-14779929D01*
X9829643Y-14708500D01*
X9843928Y-14651357D01*
X9858214Y-14622786D01*
X9872500Y-14608500D01*
X9901071Y-14594214D01*
X10258214Y-14694214D02*
X10258214Y-14894214D01*
X10186786Y-14579929D02*
X10115357Y-14794214D01*
X10301071Y-14794214D01*
X10472500Y-14594214D02*
X10501071Y-14594214D01*
X10529643Y-14608500D01*
X10543928Y-14622786D01*
X10558214Y-14651357D01*
X10572500Y-14708500D01*
X10572500Y-14779929D01*
X10558214Y-14837071D01*
X10543928Y-14865643D01*
X10529643Y-14879929D01*
X10501071Y-14894214D01*
X10472500Y-14894214D01*
X10443928Y-14879929D01*
X10429643Y-14865643D01*
X10415357Y-14837071D01*
X10401071Y-14779929D01*
X10401071Y-14708500D01*
X10415357Y-14651357D01*
X10429643Y-14622786D01*
X10443928Y-14608500D01*
X10472500Y-14594214D01*
X10686786Y-14594214D02*
X10686786Y-14651357D01*
X10801071Y-14594214D02*
X10801071Y-14651357D01*
X11243928Y-15008500D02*
X11229643Y-14994214D01*
X11201071Y-14951357D01*
X11186785Y-14922786D01*
X11172500Y-14879929D01*
X11158214Y-14808500D01*
X11158214Y-14751357D01*
X11172500Y-14679929D01*
X11186785Y-14637071D01*
X11201071Y-14608500D01*
X11229643Y-14565643D01*
X11243928Y-14551357D01*
X11401071Y-14722786D02*
X11372500Y-14708500D01*
X11358214Y-14694214D01*
X11343928Y-14665643D01*
X11343928Y-14651357D01*
X11358214Y-14622786D01*
X11372500Y-14608500D01*
X11401071Y-14594214D01*
X11458214Y-14594214D01*
X11486785Y-14608500D01*
X11501071Y-14622786D01*
X11515357Y-14651357D01*
X11515357Y-14665643D01*
X11501071Y-14694214D01*
X11486785Y-14708500D01*
X11458214Y-14722786D01*
X11401071Y-14722786D01*
X11372500Y-14737071D01*
X11358214Y-14751357D01*
X11343928Y-14779929D01*
X11343928Y-14837071D01*
X11358214Y-14865643D01*
X11372500Y-14879929D01*
X11401071Y-14894214D01*
X11458214Y-14894214D01*
X11486785Y-14879929D01*
X11501071Y-14865643D01*
X11515357Y-14837071D01*
X11515357Y-14779929D01*
X11501071Y-14751357D01*
X11486785Y-14737071D01*
X11458214Y-14722786D01*
X11701071Y-14594214D02*
X11729643Y-14594214D01*
X11758214Y-14608500D01*
X11772500Y-14622786D01*
X11786785Y-14651357D01*
X11801071Y-14708500D01*
X11801071Y-14779929D01*
X11786785Y-14837071D01*
X11772500Y-14865643D01*
X11758214Y-14879929D01*
X11729643Y-14894214D01*
X11701071Y-14894214D01*
X11672500Y-14879929D01*
X11658214Y-14865643D01*
X11643928Y-14837071D01*
X11629643Y-14779929D01*
X11629643Y-14708500D01*
X11643928Y-14651357D01*
X11658214Y-14622786D01*
X11672500Y-14608500D01*
X11701071Y-14594214D01*
X12158214Y-14894214D02*
X12158214Y-14594214D01*
X12286785Y-14894214D02*
X12286785Y-14737071D01*
X12272500Y-14708500D01*
X12243928Y-14694214D01*
X12201071Y-14694214D01*
X12172500Y-14708500D01*
X12158214Y-14722786D01*
X12472500Y-14894214D02*
X12443928Y-14879929D01*
X12429643Y-14865643D01*
X12415357Y-14837071D01*
X12415357Y-14751357D01*
X12429643Y-14722786D01*
X12443928Y-14708500D01*
X12472500Y-14694214D01*
X12515357Y-14694214D01*
X12543928Y-14708500D01*
X12558214Y-14722786D01*
X12572500Y-14751357D01*
X12572500Y-14837071D01*
X12558214Y-14865643D01*
X12543928Y-14879929D01*
X12515357Y-14894214D01*
X12472500Y-14894214D01*
X12743928Y-14894214D02*
X12715357Y-14879929D01*
X12701071Y-14851357D01*
X12701071Y-14594214D01*
X12972500Y-14879929D02*
X12943928Y-14894214D01*
X12886786Y-14894214D01*
X12858214Y-14879929D01*
X12843928Y-14851357D01*
X12843928Y-14737071D01*
X12858214Y-14708500D01*
X12886786Y-14694214D01*
X12943928Y-14694214D01*
X12972500Y-14708500D01*
X12986786Y-14737071D01*
X12986786Y-14765643D01*
X12843928Y-14794214D01*
X13101071Y-14879929D02*
X13129643Y-14894214D01*
X13186786Y-14894214D01*
X13215357Y-14879929D01*
X13229643Y-14851357D01*
X13229643Y-14837071D01*
X13215357Y-14808500D01*
X13186786Y-14794214D01*
X13143928Y-14794214D01*
X13115357Y-14779929D01*
X13101071Y-14751357D01*
X13101071Y-14737071D01*
X13115357Y-14708500D01*
X13143928Y-14694214D01*
X13186786Y-14694214D01*
X13215357Y-14708500D01*
X13329643Y-15008500D02*
X13343928Y-14994214D01*
X13372500Y-14951357D01*
X13386786Y-14922786D01*
X13401071Y-14879929D01*
X13415357Y-14808500D01*
X13415357Y-14751357D01*
X13401071Y-14679929D01*
X13386786Y-14637071D01*
X13372500Y-14608500D01*
X13343928Y-14565643D01*
X13329643Y-14551357D01*
X6521500Y-15103500D02*
X6521500Y-15205500D01*
X6470500Y-15154500D02*
X6572500Y-15154500D01*
X7001071Y-15290214D02*
X6829643Y-15290214D01*
X6915357Y-15290214D02*
X6915357Y-14990214D01*
X6886786Y-15033071D01*
X6858214Y-15061643D01*
X6829643Y-15075929D01*
X7129643Y-15261643D02*
X7143928Y-15275929D01*
X7129643Y-15290214D01*
X7115357Y-15275929D01*
X7129643Y-15261643D01*
X7129643Y-15290214D01*
X7329643Y-14990214D02*
X7358214Y-14990214D01*
X7386786Y-15004500D01*
X7401071Y-15018786D01*
X7415357Y-15047357D01*
X7429643Y-15104500D01*
X7429643Y-15175929D01*
X7415357Y-15233071D01*
X7401071Y-15261643D01*
X7386786Y-15275929D01*
X7358214Y-15290214D01*
X7329643Y-15290214D01*
X7301071Y-15275929D01*
X7286786Y-15261643D01*
X7272500Y-15233071D01*
X7258214Y-15175929D01*
X7258214Y-15104500D01*
X7272500Y-15047357D01*
X7286786Y-15018786D01*
X7301071Y-15004500D01*
X7329643Y-14990214D01*
X7543928Y-15018786D02*
X7558214Y-15004500D01*
X7586786Y-14990214D01*
X7658214Y-14990214D01*
X7686786Y-15004500D01*
X7701071Y-15018786D01*
X7715357Y-15047357D01*
X7715357Y-15075929D01*
X7701071Y-15118786D01*
X7529643Y-15290214D01*
X7715357Y-15290214D01*
X7843928Y-15290214D02*
X7843928Y-15090214D01*
X7843928Y-15118786D02*
X7858214Y-15104500D01*
X7886786Y-15090214D01*
X7929643Y-15090214D01*
X7958214Y-15104500D01*
X7972500Y-15133071D01*
X7972500Y-15290214D01*
X7972500Y-15133071D02*
X7986786Y-15104500D01*
X8015357Y-15090214D01*
X8058214Y-15090214D01*
X8086786Y-15104500D01*
X8101071Y-15133071D01*
X8101071Y-15290214D01*
X8243928Y-15290214D02*
X8243928Y-15090214D01*
X8243928Y-15118786D02*
X8258214Y-15104500D01*
X8286786Y-15090214D01*
X8329643Y-15090214D01*
X8358214Y-15104500D01*
X8372500Y-15133071D01*
X8372500Y-15290214D01*
X8372500Y-15133071D02*
X8386786Y-15104500D01*
X8415357Y-15090214D01*
X8458214Y-15090214D01*
X8486786Y-15104500D01*
X8501071Y-15133071D01*
X8501071Y-15290214D01*
X9086786Y-14975929D02*
X8829643Y-15361643D01*
X9472500Y-14990214D02*
X9501071Y-14990214D01*
X9529643Y-15004500D01*
X9543928Y-15018786D01*
X9558214Y-15047357D01*
X9572500Y-15104500D01*
X9572500Y-15175929D01*
X9558214Y-15233071D01*
X9543928Y-15261643D01*
X9529643Y-15275929D01*
X9501071Y-15290214D01*
X9472500Y-15290214D01*
X9443928Y-15275929D01*
X9429643Y-15261643D01*
X9415357Y-15233071D01*
X9401071Y-15175929D01*
X9401071Y-15104500D01*
X9415357Y-15047357D01*
X9429643Y-15018786D01*
X9443928Y-15004500D01*
X9472500Y-14990214D01*
X9701071Y-15261643D02*
X9715357Y-15275929D01*
X9701071Y-15290214D01*
X9686786Y-15275929D01*
X9701071Y-15261643D01*
X9701071Y-15290214D01*
X9901071Y-14990214D02*
X9929643Y-14990214D01*
X9958214Y-15004500D01*
X9972500Y-15018786D01*
X9986786Y-15047357D01*
X10001071Y-15104500D01*
X10001071Y-15175929D01*
X9986786Y-15233071D01*
X9972500Y-15261643D01*
X9958214Y-15275929D01*
X9929643Y-15290214D01*
X9901071Y-15290214D01*
X9872500Y-15275929D01*
X9858214Y-15261643D01*
X9843928Y-15233071D01*
X9829643Y-15175929D01*
X9829643Y-15104500D01*
X9843928Y-15047357D01*
X9858214Y-15018786D01*
X9872500Y-15004500D01*
X9901071Y-14990214D01*
X10258214Y-15090214D02*
X10258214Y-15290214D01*
X10186786Y-14975929D02*
X10115357Y-15190214D01*
X10301071Y-15190214D01*
X10472500Y-14990214D02*
X10501071Y-14990214D01*
X10529643Y-15004500D01*
X10543928Y-15018786D01*
X10558214Y-15047357D01*
X10572500Y-15104500D01*
X10572500Y-15175929D01*
X10558214Y-15233071D01*
X10543928Y-15261643D01*
X10529643Y-15275929D01*
X10501071Y-15290214D01*
X10472500Y-15290214D01*
X10443928Y-15275929D01*
X10429643Y-15261643D01*
X10415357Y-15233071D01*
X10401071Y-15175929D01*
X10401071Y-15104500D01*
X10415357Y-15047357D01*
X10429643Y-15018786D01*
X10443928Y-15004500D01*
X10472500Y-14990214D01*
X10686786Y-14990214D02*
X10686786Y-15047357D01*
X10801071Y-14990214D02*
X10801071Y-15047357D01*
X11243928Y-15404500D02*
X11229643Y-15390214D01*
X11201071Y-15347357D01*
X11186785Y-15318786D01*
X11172500Y-15275929D01*
X11158214Y-15204500D01*
X11158214Y-15147357D01*
X11172500Y-15075929D01*
X11186785Y-15033071D01*
X11201071Y-15004500D01*
X11229643Y-14961643D01*
X11243928Y-14947357D01*
X11515357Y-15290214D02*
X11343928Y-15290214D01*
X11429643Y-15290214D02*
X11429643Y-14990214D01*
X11401071Y-15033071D01*
X11372500Y-15061643D01*
X11343928Y-15075929D01*
X11686785Y-15118786D02*
X11658214Y-15104500D01*
X11643928Y-15090214D01*
X11629643Y-15061643D01*
X11629643Y-15047357D01*
X11643928Y-15018786D01*
X11658214Y-15004500D01*
X11686785Y-14990214D01*
X11743928Y-14990214D01*
X11772500Y-15004500D01*
X11786785Y-15018786D01*
X11801071Y-15047357D01*
X11801071Y-15061643D01*
X11786785Y-15090214D01*
X11772500Y-15104500D01*
X11743928Y-15118786D01*
X11686785Y-15118786D01*
X11658214Y-15133071D01*
X11643928Y-15147357D01*
X11629643Y-15175929D01*
X11629643Y-15233071D01*
X11643928Y-15261643D01*
X11658214Y-15275929D01*
X11686785Y-15290214D01*
X11743928Y-15290214D01*
X11772500Y-15275929D01*
X11786785Y-15261643D01*
X11801071Y-15233071D01*
X11801071Y-15175929D01*
X11786785Y-15147357D01*
X11772500Y-15133071D01*
X11743928Y-15118786D01*
X12158214Y-15290214D02*
X12158214Y-14990214D01*
X12286785Y-15290214D02*
X12286785Y-15133071D01*
X12272500Y-15104500D01*
X12243928Y-15090214D01*
X12201071Y-15090214D01*
X12172500Y-15104500D01*
X12158214Y-15118786D01*
X12472500Y-15290214D02*
X12443928Y-15275929D01*
X12429643Y-15261643D01*
X12415357Y-15233071D01*
X12415357Y-15147357D01*
X12429643Y-15118786D01*
X12443928Y-15104500D01*
X12472500Y-15090214D01*
X12515357Y-15090214D01*
X12543928Y-15104500D01*
X12558214Y-15118786D01*
X12572500Y-15147357D01*
X12572500Y-15233071D01*
X12558214Y-15261643D01*
X12543928Y-15275929D01*
X12515357Y-15290214D01*
X12472500Y-15290214D01*
X12743928Y-15290214D02*
X12715357Y-15275929D01*
X12701071Y-15247357D01*
X12701071Y-14990214D01*
X12972500Y-15275929D02*
X12943928Y-15290214D01*
X12886786Y-15290214D01*
X12858214Y-15275929D01*
X12843928Y-15247357D01*
X12843928Y-15133071D01*
X12858214Y-15104500D01*
X12886786Y-15090214D01*
X12943928Y-15090214D01*
X12972500Y-15104500D01*
X12986786Y-15133071D01*
X12986786Y-15161643D01*
X12843928Y-15190214D01*
X13101071Y-15275929D02*
X13129643Y-15290214D01*
X13186786Y-15290214D01*
X13215357Y-15275929D01*
X13229643Y-15247357D01*
X13229643Y-15233071D01*
X13215357Y-15204500D01*
X13186786Y-15190214D01*
X13143928Y-15190214D01*
X13115357Y-15175929D01*
X13101071Y-15147357D01*
X13101071Y-15133071D01*
X13115357Y-15104500D01*
X13143928Y-15090214D01*
X13186786Y-15090214D01*
X13215357Y-15104500D01*
X13329643Y-15404500D02*
X13343928Y-15390214D01*
X13372500Y-15347357D01*
X13386786Y-15318786D01*
X13401071Y-15275929D01*
X13415357Y-15204500D01*
X13415357Y-15147357D01*
X13401071Y-15075929D01*
X13386786Y-15033071D01*
X13372500Y-15004500D01*
X13343928Y-14961643D01*
X13329643Y-14947357D01*
X6527835Y-15658335D02*
X6527835Y-15442665D01*
X6312165Y-15442665D01*
X6312165Y-15658335D01*
X6527835Y-15658335D01*
X6815357Y-15386214D02*
X7001071Y-15386214D01*
X6901071Y-15500500D01*
X6943928Y-15500500D01*
X6972500Y-15514786D01*
X6986786Y-15529071D01*
X7001071Y-15557643D01*
X7001071Y-15629071D01*
X6986786Y-15657643D01*
X6972500Y-15671929D01*
X6943928Y-15686214D01*
X6858214Y-15686214D01*
X6829643Y-15671929D01*
X6815357Y-15657643D01*
X7129643Y-15657643D02*
X7143928Y-15671929D01*
X7129643Y-15686214D01*
X7115357Y-15671929D01*
X7129643Y-15657643D01*
X7129643Y-15686214D01*
X7329643Y-15386214D02*
X7358214Y-15386214D01*
X7386786Y-15400500D01*
X7401071Y-15414786D01*
X7415357Y-15443357D01*
X7429643Y-15500500D01*
X7429643Y-15571929D01*
X7415357Y-15629071D01*
X7401071Y-15657643D01*
X7386786Y-15671929D01*
X7358214Y-15686214D01*
X7329643Y-15686214D01*
X7301071Y-15671929D01*
X7286786Y-15657643D01*
X7272500Y-15629071D01*
X7258214Y-15571929D01*
X7258214Y-15500500D01*
X7272500Y-15443357D01*
X7286786Y-15414786D01*
X7301071Y-15400500D01*
X7329643Y-15386214D01*
X7701071Y-15386214D02*
X7558214Y-15386214D01*
X7543928Y-15529071D01*
X7558214Y-15514786D01*
X7586786Y-15500500D01*
X7658214Y-15500500D01*
X7686786Y-15514786D01*
X7701071Y-15529071D01*
X7715357Y-15557643D01*
X7715357Y-15629071D01*
X7701071Y-15657643D01*
X7686786Y-15671929D01*
X7658214Y-15686214D01*
X7586786Y-15686214D01*
X7558214Y-15671929D01*
X7543928Y-15657643D01*
X7843928Y-15686214D02*
X7843928Y-15486214D01*
X7843928Y-15514786D02*
X7858214Y-15500500D01*
X7886786Y-15486214D01*
X7929643Y-15486214D01*
X7958214Y-15500500D01*
X7972500Y-15529071D01*
X7972500Y-15686214D01*
X7972500Y-15529071D02*
X7986786Y-15500500D01*
X8015357Y-15486214D01*
X8058214Y-15486214D01*
X8086786Y-15500500D01*
X8101071Y-15529071D01*
X8101071Y-15686214D01*
X8243928Y-15686214D02*
X8243928Y-15486214D01*
X8243928Y-15514786D02*
X8258214Y-15500500D01*
X8286786Y-15486214D01*
X8329643Y-15486214D01*
X8358214Y-15500500D01*
X8372500Y-15529071D01*
X8372500Y-15686214D01*
X8372500Y-15529071D02*
X8386786Y-15500500D01*
X8415357Y-15486214D01*
X8458214Y-15486214D01*
X8486786Y-15500500D01*
X8501071Y-15529071D01*
X8501071Y-15686214D01*
X9086786Y-15371929D02*
X8829643Y-15757643D01*
X9472500Y-15386214D02*
X9501071Y-15386214D01*
X9529643Y-15400500D01*
X9543928Y-15414786D01*
X9558214Y-15443357D01*
X9572500Y-15500500D01*
X9572500Y-15571929D01*
X9558214Y-15629071D01*
X9543928Y-15657643D01*
X9529643Y-15671929D01*
X9501071Y-15686214D01*
X9472500Y-15686214D01*
X9443928Y-15671929D01*
X9429643Y-15657643D01*
X9415357Y-15629071D01*
X9401071Y-15571929D01*
X9401071Y-15500500D01*
X9415357Y-15443357D01*
X9429643Y-15414786D01*
X9443928Y-15400500D01*
X9472500Y-15386214D01*
X9701071Y-15657643D02*
X9715357Y-15671929D01*
X9701071Y-15686214D01*
X9686786Y-15671929D01*
X9701071Y-15657643D01*
X9701071Y-15686214D01*
X10001071Y-15686214D02*
X9829643Y-15686214D01*
X9915357Y-15686214D02*
X9915357Y-15386214D01*
X9886786Y-15429071D01*
X9858214Y-15457643D01*
X9829643Y-15471929D01*
X10115357Y-15414786D02*
X10129643Y-15400500D01*
X10158214Y-15386214D01*
X10229643Y-15386214D01*
X10258214Y-15400500D01*
X10272500Y-15414786D01*
X10286786Y-15443357D01*
X10286786Y-15471929D01*
X10272500Y-15514786D01*
X10101071Y-15686214D01*
X10286786Y-15686214D01*
X10472500Y-15386214D02*
X10501071Y-15386214D01*
X10529643Y-15400500D01*
X10543928Y-15414786D01*
X10558214Y-15443357D01*
X10572500Y-15500500D01*
X10572500Y-15571929D01*
X10558214Y-15629071D01*
X10543928Y-15657643D01*
X10529643Y-15671929D01*
X10501071Y-15686214D01*
X10472500Y-15686214D01*
X10443928Y-15671929D01*
X10429643Y-15657643D01*
X10415357Y-15629071D01*
X10401071Y-15571929D01*
X10401071Y-15500500D01*
X10415357Y-15443357D01*
X10429643Y-15414786D01*
X10443928Y-15400500D01*
X10472500Y-15386214D01*
X10686786Y-15386214D02*
X10686786Y-15443357D01*
X10801071Y-15386214D02*
X10801071Y-15443357D01*
X11243928Y-15800500D02*
X11229643Y-15786214D01*
X11201071Y-15743357D01*
X11186785Y-15714786D01*
X11172500Y-15671929D01*
X11158214Y-15600500D01*
X11158214Y-15543357D01*
X11172500Y-15471929D01*
X11186785Y-15429071D01*
X11201071Y-15400500D01*
X11229643Y-15357643D01*
X11243928Y-15343357D01*
X11486785Y-15486214D02*
X11486785Y-15686214D01*
X11415357Y-15371929D02*
X11343928Y-15586214D01*
X11529643Y-15586214D01*
X11872500Y-15686214D02*
X11872500Y-15386214D01*
X12001071Y-15686214D02*
X12001071Y-15529071D01*
X11986785Y-15500500D01*
X11958214Y-15486214D01*
X11915357Y-15486214D01*
X11886785Y-15500500D01*
X11872500Y-15514786D01*
X12186785Y-15686214D02*
X12158214Y-15671929D01*
X12143928Y-15657643D01*
X12129643Y-15629071D01*
X12129643Y-15543357D01*
X12143928Y-15514786D01*
X12158214Y-15500500D01*
X12186785Y-15486214D01*
X12229643Y-15486214D01*
X12258214Y-15500500D01*
X12272500Y-15514786D01*
X12286785Y-15543357D01*
X12286785Y-15629071D01*
X12272500Y-15657643D01*
X12258214Y-15671929D01*
X12229643Y-15686214D01*
X12186785Y-15686214D01*
X12458214Y-15686214D02*
X12429643Y-15671929D01*
X12415357Y-15643357D01*
X12415357Y-15386214D01*
X12686786Y-15671929D02*
X12658214Y-15686214D01*
X12601071Y-15686214D01*
X12572500Y-15671929D01*
X12558214Y-15643357D01*
X12558214Y-15529071D01*
X12572500Y-15500500D01*
X12601071Y-15486214D01*
X12658214Y-15486214D01*
X12686786Y-15500500D01*
X12701071Y-15529071D01*
X12701071Y-15557643D01*
X12558214Y-15586214D01*
X12815357Y-15671929D02*
X12843928Y-15686214D01*
X12901071Y-15686214D01*
X12929643Y-15671929D01*
X12943928Y-15643357D01*
X12943928Y-15629071D01*
X12929643Y-15600500D01*
X12901071Y-15586214D01*
X12858214Y-15586214D01*
X12829643Y-15571929D01*
X12815357Y-15543357D01*
X12815357Y-15529071D01*
X12829643Y-15500500D01*
X12858214Y-15486214D01*
X12901071Y-15486214D01*
X12929643Y-15500500D01*
X13043928Y-15800500D02*
X13058214Y-15786214D01*
X13086786Y-15743357D01*
X13101071Y-15714786D01*
X13115357Y-15671929D01*
X13129643Y-15600500D01*
X13129643Y-15543357D01*
X13115357Y-15471929D01*
X13101071Y-15429071D01*
X13086786Y-15400500D01*
X13058214Y-15357643D01*
X13043928Y-15343357D01*
M02*
