G04 #@! TF.FileFunction,Other,Fab,Top*
%FSLAX46Y46*%
G04 Gerber Fmt 4.6, Leading zero omitted, Abs format (unit mm)*
G04 Created by KiCad (PCBNEW 4.0.7-e2-6376~58~ubuntu16.04.1) date Thu Oct 11 01:20:23 2018*
%MOMM*%
%LPD*%
G01*
G04 APERTURE LIST*
%ADD10C,0.100000*%
%ADD11C,0.150000*%
%ADD12C,0.075000*%
G04 APERTURE END LIST*
D10*
D11*
X151500000Y-133950000D02*
X65800000Y-133950000D01*
X65800000Y-133950000D02*
X65800000Y-54395000D01*
X151500000Y-54395000D02*
X151500000Y-133950000D01*
X65800000Y-54395000D02*
X151500000Y-54395000D01*
D10*
X87950000Y-79830000D02*
X87950000Y-81070000D01*
X85950000Y-79830000D02*
X87950000Y-79830000D01*
X85950000Y-81070000D02*
X85950000Y-79830000D01*
X87950000Y-81070000D02*
X85950000Y-81070000D01*
X129600000Y-68270000D02*
X129600000Y-67030000D01*
X131600000Y-68270000D02*
X129600000Y-68270000D01*
X131600000Y-67030000D02*
X131600000Y-68270000D01*
X129600000Y-67030000D02*
X131600000Y-67030000D01*
X86600000Y-77450000D02*
X86600000Y-78250000D01*
X86600000Y-77850000D02*
X87200000Y-77450000D01*
X87200000Y-78250000D02*
X86600000Y-77850000D01*
X87200000Y-77450000D02*
X87200000Y-78250000D01*
X86000000Y-78470000D02*
X86000000Y-77230000D01*
X88000000Y-78470000D02*
X86000000Y-78470000D01*
X88000000Y-77230000D02*
X88000000Y-78470000D01*
X86000000Y-77230000D02*
X88000000Y-77230000D01*
X131000000Y-70650000D02*
X131000000Y-69850000D01*
X131000000Y-70250000D02*
X130400000Y-70650000D01*
X130400000Y-69850000D02*
X131000000Y-70250000D01*
X130400000Y-70650000D02*
X130400000Y-69850000D01*
X131600000Y-69630000D02*
X131600000Y-70870000D01*
X129600000Y-69630000D02*
X131600000Y-69630000D01*
X129600000Y-70870000D02*
X129600000Y-69630000D01*
X131600000Y-70870000D02*
X129600000Y-70870000D01*
X117950000Y-96870000D02*
X117950000Y-95630000D01*
X119950000Y-96870000D02*
X117950000Y-96870000D01*
X119950000Y-95630000D02*
X119950000Y-96870000D01*
X117950000Y-95630000D02*
X119950000Y-95630000D01*
X127650000Y-96870000D02*
X127650000Y-95630000D01*
X129650000Y-96870000D02*
X127650000Y-96870000D01*
X129650000Y-95630000D02*
X129650000Y-96870000D01*
X127650000Y-95630000D02*
X129650000Y-95630000D01*
X99200000Y-95630000D02*
X99200000Y-96870000D01*
X97200000Y-95630000D02*
X99200000Y-95630000D01*
X97200000Y-96870000D02*
X97200000Y-95630000D01*
X99200000Y-96870000D02*
X97200000Y-96870000D01*
X89500000Y-95630000D02*
X89500000Y-96870000D01*
X87500000Y-95630000D02*
X89500000Y-95630000D01*
X87500000Y-96870000D02*
X87500000Y-95630000D01*
X89500000Y-96870000D02*
X87500000Y-96870000D01*
X127980000Y-83550000D02*
X129220000Y-83550000D01*
X127980000Y-85550000D02*
X127980000Y-83550000D01*
X129220000Y-85550000D02*
X127980000Y-85550000D01*
X129220000Y-83550000D02*
X129220000Y-85550000D01*
X98080000Y-83550000D02*
X99320000Y-83550000D01*
X98080000Y-85550000D02*
X98080000Y-83550000D01*
X99320000Y-85550000D02*
X98080000Y-85550000D01*
X99320000Y-83550000D02*
X99320000Y-85550000D01*
X146470000Y-119290000D02*
X113960000Y-119290000D01*
X113960000Y-119290000D02*
X113960000Y-137070000D01*
X113960000Y-137070000D02*
X146470000Y-137070000D01*
X146470000Y-137070000D02*
X146470000Y-119290000D01*
X139360000Y-137070000D02*
X139360000Y-129450000D01*
X139360000Y-129450000D02*
X121070000Y-129450000D01*
X121070000Y-129450000D02*
X121070000Y-137070000D01*
X137830000Y-137070000D02*
X137830000Y-145710000D01*
X137830000Y-145710000D02*
X122590000Y-145710000D01*
X122590000Y-145710000D02*
X122590000Y-137070000D01*
X103010000Y-119290000D02*
X70500000Y-119290000D01*
X70500000Y-119290000D02*
X70500000Y-137070000D01*
X70500000Y-137070000D02*
X103010000Y-137070000D01*
X103010000Y-137070000D02*
X103010000Y-119290000D01*
X95900000Y-137070000D02*
X95900000Y-129450000D01*
X95900000Y-129450000D02*
X77610000Y-129450000D01*
X77610000Y-129450000D02*
X77610000Y-137070000D01*
X94370000Y-137070000D02*
X94370000Y-145710000D01*
X94370000Y-145710000D02*
X79130000Y-145710000D01*
X79130000Y-145710000D02*
X79130000Y-137070000D01*
X119950000Y-93130000D02*
X119950000Y-94370000D01*
X117950000Y-93130000D02*
X119950000Y-93130000D01*
X117950000Y-94370000D02*
X117950000Y-93130000D01*
X119950000Y-94370000D02*
X117950000Y-94370000D01*
X119950000Y-98130000D02*
X119950000Y-99370000D01*
X117950000Y-98130000D02*
X119950000Y-98130000D01*
X117950000Y-99370000D02*
X117950000Y-98130000D01*
X119950000Y-99370000D02*
X117950000Y-99370000D01*
X89500000Y-98130000D02*
X89500000Y-99370000D01*
X87500000Y-98130000D02*
X89500000Y-98130000D01*
X87500000Y-99370000D02*
X87500000Y-98130000D01*
X89500000Y-99370000D02*
X87500000Y-99370000D01*
X89500000Y-93130000D02*
X89500000Y-94370000D01*
X87500000Y-93130000D02*
X89500000Y-93130000D01*
X87500000Y-94370000D02*
X87500000Y-93130000D01*
X89500000Y-94370000D02*
X87500000Y-94370000D01*
X129650000Y-93130000D02*
X129650000Y-94370000D01*
X127650000Y-93130000D02*
X129650000Y-93130000D01*
X127650000Y-94370000D02*
X127650000Y-93130000D01*
X129650000Y-94370000D02*
X127650000Y-94370000D01*
X129650000Y-98130000D02*
X129650000Y-99370000D01*
X127650000Y-98130000D02*
X129650000Y-98130000D01*
X127650000Y-99370000D02*
X127650000Y-98130000D01*
X129650000Y-99370000D02*
X127650000Y-99370000D01*
X99200000Y-98130000D02*
X99200000Y-99370000D01*
X97200000Y-98130000D02*
X99200000Y-98130000D01*
X97200000Y-99370000D02*
X97200000Y-98130000D01*
X99200000Y-99370000D02*
X97200000Y-99370000D01*
X99200000Y-93130000D02*
X99200000Y-94370000D01*
X97200000Y-93130000D02*
X99200000Y-93130000D01*
X97200000Y-94370000D02*
X97200000Y-93130000D01*
X99200000Y-94370000D02*
X97200000Y-94370000D01*
X126150000Y-82100000D02*
X126150000Y-85000000D01*
X126150000Y-85000000D02*
X121250000Y-85000000D01*
X121250000Y-85000000D02*
X121250000Y-81100000D01*
X121250000Y-81100000D02*
X125150000Y-81100000D01*
X125150000Y-81100000D02*
X126150000Y-82100000D01*
X95750000Y-82100000D02*
X95750000Y-85000000D01*
X95750000Y-85000000D02*
X90850000Y-85000000D01*
X90850000Y-85000000D02*
X90850000Y-81100000D01*
X90850000Y-81100000D02*
X94750000Y-81100000D01*
X94750000Y-81100000D02*
X95750000Y-82100000D01*
X83550000Y-113200000D02*
X86000000Y-113200000D01*
X82980000Y-112650000D02*
X82980000Y-111800000D01*
X83550000Y-113200000D02*
X82980000Y-112650000D01*
X82980000Y-111800000D02*
X86020000Y-111800000D01*
X86020000Y-113200000D02*
X86020000Y-111800000D01*
X127050000Y-113200000D02*
X129500000Y-113200000D01*
X126480000Y-112650000D02*
X126480000Y-111800000D01*
X127050000Y-113200000D02*
X126480000Y-112650000D01*
X126480000Y-111800000D02*
X129520000Y-111800000D01*
X129520000Y-113200000D02*
X129520000Y-111800000D01*
X131000000Y-78250000D02*
X131000000Y-77450000D01*
X131000000Y-77850000D02*
X130400000Y-78250000D01*
X130400000Y-77450000D02*
X131000000Y-77850000D01*
X130400000Y-78250000D02*
X130400000Y-77450000D01*
X131600000Y-77230000D02*
X131600000Y-78470000D01*
X129600000Y-77230000D02*
X131600000Y-77230000D01*
X129600000Y-78470000D02*
X129600000Y-77230000D01*
X131600000Y-78470000D02*
X129600000Y-78470000D01*
X86500000Y-69850000D02*
X86500000Y-70650000D01*
X86500000Y-70250000D02*
X87100000Y-69850000D01*
X87100000Y-70650000D02*
X86500000Y-70250000D01*
X87100000Y-69850000D02*
X87100000Y-70650000D01*
X85900000Y-70870000D02*
X85900000Y-69630000D01*
X87900000Y-70870000D02*
X85900000Y-70870000D01*
X87900000Y-69630000D02*
X87900000Y-70870000D01*
X85900000Y-69630000D02*
X87900000Y-69630000D01*
X129500000Y-81070000D02*
X129500000Y-79830000D01*
X131500000Y-81070000D02*
X129500000Y-81070000D01*
X131500000Y-79830000D02*
X131500000Y-81070000D01*
X129500000Y-79830000D02*
X131500000Y-79830000D01*
X87900000Y-67030000D02*
X87900000Y-68270000D01*
X85900000Y-67030000D02*
X87900000Y-67030000D01*
X85900000Y-68270000D02*
X85900000Y-67030000D01*
X87900000Y-68270000D02*
X85900000Y-68270000D01*
D12*
X87190477Y-78976190D02*
X87023810Y-78738095D01*
X86904763Y-78976190D02*
X86904763Y-78476190D01*
X87095239Y-78476190D01*
X87142858Y-78500000D01*
X87166667Y-78523810D01*
X87190477Y-78571429D01*
X87190477Y-78642857D01*
X87166667Y-78690476D01*
X87142858Y-78714286D01*
X87095239Y-78738095D01*
X86904763Y-78738095D01*
X87666667Y-78976190D02*
X87380953Y-78976190D01*
X87523810Y-78976190D02*
X87523810Y-78476190D01*
X87476191Y-78547619D01*
X87428572Y-78595238D01*
X87380953Y-78619048D01*
X88142857Y-78976190D02*
X87857143Y-78976190D01*
X88000000Y-78976190D02*
X88000000Y-78476190D01*
X87952381Y-78547619D01*
X87904762Y-78595238D01*
X87857143Y-78619048D01*
X88333333Y-78523810D02*
X88357143Y-78500000D01*
X88404762Y-78476190D01*
X88523809Y-78476190D01*
X88571428Y-78500000D01*
X88595238Y-78523810D01*
X88619047Y-78571429D01*
X88619047Y-78619048D01*
X88595238Y-78690476D01*
X88309524Y-78976190D01*
X88619047Y-78976190D01*
X130040477Y-67876190D02*
X129873810Y-67638095D01*
X129754763Y-67876190D02*
X129754763Y-67376190D01*
X129945239Y-67376190D01*
X129992858Y-67400000D01*
X130016667Y-67423810D01*
X130040477Y-67471429D01*
X130040477Y-67542857D01*
X130016667Y-67590476D01*
X129992858Y-67614286D01*
X129945239Y-67638095D01*
X129754763Y-67638095D01*
X130516667Y-67876190D02*
X130230953Y-67876190D01*
X130373810Y-67876190D02*
X130373810Y-67376190D01*
X130326191Y-67447619D01*
X130278572Y-67495238D01*
X130230953Y-67519048D01*
X130992857Y-67876190D02*
X130707143Y-67876190D01*
X130850000Y-67876190D02*
X130850000Y-67376190D01*
X130802381Y-67447619D01*
X130754762Y-67495238D01*
X130707143Y-67519048D01*
X131469047Y-67876190D02*
X131183333Y-67876190D01*
X131326190Y-67876190D02*
X131326190Y-67376190D01*
X131278571Y-67447619D01*
X131230952Y-67495238D01*
X131183333Y-67519048D01*
D11*
X113380953Y-96607143D02*
X113333334Y-96654762D01*
X113190477Y-96702381D01*
X113095239Y-96702381D01*
X112952381Y-96654762D01*
X112857143Y-96559524D01*
X112809524Y-96464286D01*
X112761905Y-96273810D01*
X112761905Y-96130952D01*
X112809524Y-95940476D01*
X112857143Y-95845238D01*
X112952381Y-95750000D01*
X113095239Y-95702381D01*
X113190477Y-95702381D01*
X113333334Y-95750000D01*
X113380953Y-95797619D01*
X114333334Y-96702381D02*
X113761905Y-96702381D01*
X114047619Y-96702381D02*
X114047619Y-95702381D01*
X113952381Y-95845238D01*
X113857143Y-95940476D01*
X113761905Y-95988095D01*
X114952381Y-95702381D02*
X115047620Y-95702381D01*
X115142858Y-95750000D01*
X115190477Y-95797619D01*
X115238096Y-95892857D01*
X115285715Y-96083333D01*
X115285715Y-96321429D01*
X115238096Y-96511905D01*
X115190477Y-96607143D01*
X115142858Y-96654762D01*
X115047620Y-96702381D01*
X114952381Y-96702381D01*
X114857143Y-96654762D01*
X114809524Y-96607143D01*
X114761905Y-96511905D01*
X114714286Y-96321429D01*
X114714286Y-96083333D01*
X114761905Y-95892857D01*
X114809524Y-95797619D01*
X114857143Y-95750000D01*
X114952381Y-95702381D01*
X116238096Y-96702381D02*
X115666667Y-96702381D01*
X115952381Y-96702381D02*
X115952381Y-95702381D01*
X115857143Y-95845238D01*
X115761905Y-95940476D01*
X115666667Y-95988095D01*
X127530953Y-94857143D02*
X127483334Y-94904762D01*
X127340477Y-94952381D01*
X127245239Y-94952381D01*
X127102381Y-94904762D01*
X127007143Y-94809524D01*
X126959524Y-94714286D01*
X126911905Y-94523810D01*
X126911905Y-94380952D01*
X126959524Y-94190476D01*
X127007143Y-94095238D01*
X127102381Y-94000000D01*
X127245239Y-93952381D01*
X127340477Y-93952381D01*
X127483334Y-94000000D01*
X127530953Y-94047619D01*
X128483334Y-94952381D02*
X127911905Y-94952381D01*
X128197619Y-94952381D02*
X128197619Y-93952381D01*
X128102381Y-94095238D01*
X128007143Y-94190476D01*
X127911905Y-94238095D01*
X129102381Y-93952381D02*
X129197620Y-93952381D01*
X129292858Y-94000000D01*
X129340477Y-94047619D01*
X129388096Y-94142857D01*
X129435715Y-94333333D01*
X129435715Y-94571429D01*
X129388096Y-94761905D01*
X129340477Y-94857143D01*
X129292858Y-94904762D01*
X129197620Y-94952381D01*
X129102381Y-94952381D01*
X129007143Y-94904762D01*
X128959524Y-94857143D01*
X128911905Y-94761905D01*
X128864286Y-94571429D01*
X128864286Y-94333333D01*
X128911905Y-94142857D01*
X128959524Y-94047619D01*
X129007143Y-94000000D01*
X129102381Y-93952381D01*
X129816667Y-94047619D02*
X129864286Y-94000000D01*
X129959524Y-93952381D01*
X130197620Y-93952381D01*
X130292858Y-94000000D01*
X130340477Y-94047619D01*
X130388096Y-94142857D01*
X130388096Y-94238095D01*
X130340477Y-94380952D01*
X129769048Y-94952381D01*
X130388096Y-94952381D01*
X101680953Y-96507143D02*
X101633334Y-96554762D01*
X101490477Y-96602381D01*
X101395239Y-96602381D01*
X101252381Y-96554762D01*
X101157143Y-96459524D01*
X101109524Y-96364286D01*
X101061905Y-96173810D01*
X101061905Y-96030952D01*
X101109524Y-95840476D01*
X101157143Y-95745238D01*
X101252381Y-95650000D01*
X101395239Y-95602381D01*
X101490477Y-95602381D01*
X101633334Y-95650000D01*
X101680953Y-95697619D01*
X102633334Y-96602381D02*
X102061905Y-96602381D01*
X102347619Y-96602381D02*
X102347619Y-95602381D01*
X102252381Y-95745238D01*
X102157143Y-95840476D01*
X102061905Y-95888095D01*
X103252381Y-95602381D02*
X103347620Y-95602381D01*
X103442858Y-95650000D01*
X103490477Y-95697619D01*
X103538096Y-95792857D01*
X103585715Y-95983333D01*
X103585715Y-96221429D01*
X103538096Y-96411905D01*
X103490477Y-96507143D01*
X103442858Y-96554762D01*
X103347620Y-96602381D01*
X103252381Y-96602381D01*
X103157143Y-96554762D01*
X103109524Y-96507143D01*
X103061905Y-96411905D01*
X103014286Y-96221429D01*
X103014286Y-95983333D01*
X103061905Y-95792857D01*
X103109524Y-95697619D01*
X103157143Y-95650000D01*
X103252381Y-95602381D01*
X103919048Y-95602381D02*
X104538096Y-95602381D01*
X104204762Y-95983333D01*
X104347620Y-95983333D01*
X104442858Y-96030952D01*
X104490477Y-96078571D01*
X104538096Y-96173810D01*
X104538096Y-96411905D01*
X104490477Y-96507143D01*
X104442858Y-96554762D01*
X104347620Y-96602381D01*
X104061905Y-96602381D01*
X103966667Y-96554762D01*
X103919048Y-96507143D01*
X82980953Y-96707143D02*
X82933334Y-96754762D01*
X82790477Y-96802381D01*
X82695239Y-96802381D01*
X82552381Y-96754762D01*
X82457143Y-96659524D01*
X82409524Y-96564286D01*
X82361905Y-96373810D01*
X82361905Y-96230952D01*
X82409524Y-96040476D01*
X82457143Y-95945238D01*
X82552381Y-95850000D01*
X82695239Y-95802381D01*
X82790477Y-95802381D01*
X82933334Y-95850000D01*
X82980953Y-95897619D01*
X83933334Y-96802381D02*
X83361905Y-96802381D01*
X83647619Y-96802381D02*
X83647619Y-95802381D01*
X83552381Y-95945238D01*
X83457143Y-96040476D01*
X83361905Y-96088095D01*
X84552381Y-95802381D02*
X84647620Y-95802381D01*
X84742858Y-95850000D01*
X84790477Y-95897619D01*
X84838096Y-95992857D01*
X84885715Y-96183333D01*
X84885715Y-96421429D01*
X84838096Y-96611905D01*
X84790477Y-96707143D01*
X84742858Y-96754762D01*
X84647620Y-96802381D01*
X84552381Y-96802381D01*
X84457143Y-96754762D01*
X84409524Y-96707143D01*
X84361905Y-96611905D01*
X84314286Y-96421429D01*
X84314286Y-96183333D01*
X84361905Y-95992857D01*
X84409524Y-95897619D01*
X84457143Y-95850000D01*
X84552381Y-95802381D01*
X85742858Y-96135714D02*
X85742858Y-96802381D01*
X85504762Y-95754762D02*
X85266667Y-96469048D01*
X85885715Y-96469048D01*
X130707143Y-85669047D02*
X130754762Y-85716666D01*
X130802381Y-85859523D01*
X130802381Y-85954761D01*
X130754762Y-86097619D01*
X130659524Y-86192857D01*
X130564286Y-86240476D01*
X130373810Y-86288095D01*
X130230952Y-86288095D01*
X130040476Y-86240476D01*
X129945238Y-86192857D01*
X129850000Y-86097619D01*
X129802381Y-85954761D01*
X129802381Y-85859523D01*
X129850000Y-85716666D01*
X129897619Y-85669047D01*
X130802381Y-84716666D02*
X130802381Y-85288095D01*
X130802381Y-85002381D02*
X129802381Y-85002381D01*
X129945238Y-85097619D01*
X130040476Y-85192857D01*
X130088095Y-85288095D01*
X129802381Y-84097619D02*
X129802381Y-84002380D01*
X129850000Y-83907142D01*
X129897619Y-83859523D01*
X129992857Y-83811904D01*
X130183333Y-83764285D01*
X130421429Y-83764285D01*
X130611905Y-83811904D01*
X130707143Y-83859523D01*
X130754762Y-83907142D01*
X130802381Y-84002380D01*
X130802381Y-84097619D01*
X130754762Y-84192857D01*
X130707143Y-84240476D01*
X130611905Y-84288095D01*
X130421429Y-84335714D01*
X130183333Y-84335714D01*
X129992857Y-84288095D01*
X129897619Y-84240476D01*
X129850000Y-84192857D01*
X129802381Y-84097619D01*
X129802381Y-82859523D02*
X129802381Y-83335714D01*
X130278571Y-83383333D01*
X130230952Y-83335714D01*
X130183333Y-83240476D01*
X130183333Y-83002380D01*
X130230952Y-82907142D01*
X130278571Y-82859523D01*
X130373810Y-82811904D01*
X130611905Y-82811904D01*
X130707143Y-82859523D01*
X130754762Y-82907142D01*
X130802381Y-83002380D01*
X130802381Y-83240476D01*
X130754762Y-83335714D01*
X130707143Y-83383333D01*
X100807143Y-85669047D02*
X100854762Y-85716666D01*
X100902381Y-85859523D01*
X100902381Y-85954761D01*
X100854762Y-86097619D01*
X100759524Y-86192857D01*
X100664286Y-86240476D01*
X100473810Y-86288095D01*
X100330952Y-86288095D01*
X100140476Y-86240476D01*
X100045238Y-86192857D01*
X99950000Y-86097619D01*
X99902381Y-85954761D01*
X99902381Y-85859523D01*
X99950000Y-85716666D01*
X99997619Y-85669047D01*
X100902381Y-84716666D02*
X100902381Y-85288095D01*
X100902381Y-85002381D02*
X99902381Y-85002381D01*
X100045238Y-85097619D01*
X100140476Y-85192857D01*
X100188095Y-85288095D01*
X99902381Y-84097619D02*
X99902381Y-84002380D01*
X99950000Y-83907142D01*
X99997619Y-83859523D01*
X100092857Y-83811904D01*
X100283333Y-83764285D01*
X100521429Y-83764285D01*
X100711905Y-83811904D01*
X100807143Y-83859523D01*
X100854762Y-83907142D01*
X100902381Y-84002380D01*
X100902381Y-84097619D01*
X100854762Y-84192857D01*
X100807143Y-84240476D01*
X100711905Y-84288095D01*
X100521429Y-84335714D01*
X100283333Y-84335714D01*
X100092857Y-84288095D01*
X99997619Y-84240476D01*
X99950000Y-84192857D01*
X99902381Y-84097619D01*
X99902381Y-82907142D02*
X99902381Y-83097619D01*
X99950000Y-83192857D01*
X99997619Y-83240476D01*
X100140476Y-83335714D01*
X100330952Y-83383333D01*
X100711905Y-83383333D01*
X100807143Y-83335714D01*
X100854762Y-83288095D01*
X100902381Y-83192857D01*
X100902381Y-83002380D01*
X100854762Y-82907142D01*
X100807143Y-82859523D01*
X100711905Y-82811904D01*
X100473810Y-82811904D01*
X100378571Y-82859523D01*
X100330952Y-82907142D01*
X100283333Y-83002380D01*
X100283333Y-83192857D01*
X100330952Y-83288095D01*
X100378571Y-83335714D01*
X100473810Y-83383333D01*
D12*
X118390477Y-93976190D02*
X118223810Y-93738095D01*
X118104763Y-93976190D02*
X118104763Y-93476190D01*
X118295239Y-93476190D01*
X118342858Y-93500000D01*
X118366667Y-93523810D01*
X118390477Y-93571429D01*
X118390477Y-93642857D01*
X118366667Y-93690476D01*
X118342858Y-93714286D01*
X118295239Y-93738095D01*
X118104763Y-93738095D01*
X118866667Y-93976190D02*
X118580953Y-93976190D01*
X118723810Y-93976190D02*
X118723810Y-93476190D01*
X118676191Y-93547619D01*
X118628572Y-93595238D01*
X118580953Y-93619048D01*
X119176191Y-93476190D02*
X119223810Y-93476190D01*
X119271429Y-93500000D01*
X119295238Y-93523810D01*
X119319048Y-93571429D01*
X119342857Y-93666667D01*
X119342857Y-93785714D01*
X119319048Y-93880952D01*
X119295238Y-93928571D01*
X119271429Y-93952381D01*
X119223810Y-93976190D01*
X119176191Y-93976190D01*
X119128572Y-93952381D01*
X119104762Y-93928571D01*
X119080953Y-93880952D01*
X119057143Y-93785714D01*
X119057143Y-93666667D01*
X119080953Y-93571429D01*
X119104762Y-93523810D01*
X119128572Y-93500000D01*
X119176191Y-93476190D01*
X119819047Y-93976190D02*
X119533333Y-93976190D01*
X119676190Y-93976190D02*
X119676190Y-93476190D01*
X119628571Y-93547619D01*
X119580952Y-93595238D01*
X119533333Y-93619048D01*
X118390477Y-98976190D02*
X118223810Y-98738095D01*
X118104763Y-98976190D02*
X118104763Y-98476190D01*
X118295239Y-98476190D01*
X118342858Y-98500000D01*
X118366667Y-98523810D01*
X118390477Y-98571429D01*
X118390477Y-98642857D01*
X118366667Y-98690476D01*
X118342858Y-98714286D01*
X118295239Y-98738095D01*
X118104763Y-98738095D01*
X118866667Y-98976190D02*
X118580953Y-98976190D01*
X118723810Y-98976190D02*
X118723810Y-98476190D01*
X118676191Y-98547619D01*
X118628572Y-98595238D01*
X118580953Y-98619048D01*
X119176191Y-98476190D02*
X119223810Y-98476190D01*
X119271429Y-98500000D01*
X119295238Y-98523810D01*
X119319048Y-98571429D01*
X119342857Y-98666667D01*
X119342857Y-98785714D01*
X119319048Y-98880952D01*
X119295238Y-98928571D01*
X119271429Y-98952381D01*
X119223810Y-98976190D01*
X119176191Y-98976190D01*
X119128572Y-98952381D01*
X119104762Y-98928571D01*
X119080953Y-98880952D01*
X119057143Y-98785714D01*
X119057143Y-98666667D01*
X119080953Y-98571429D01*
X119104762Y-98523810D01*
X119128572Y-98500000D01*
X119176191Y-98476190D01*
X119533333Y-98523810D02*
X119557143Y-98500000D01*
X119604762Y-98476190D01*
X119723809Y-98476190D01*
X119771428Y-98500000D01*
X119795238Y-98523810D01*
X119819047Y-98571429D01*
X119819047Y-98619048D01*
X119795238Y-98690476D01*
X119509524Y-98976190D01*
X119819047Y-98976190D01*
X83640477Y-99376190D02*
X83473810Y-99138095D01*
X83354763Y-99376190D02*
X83354763Y-98876190D01*
X83545239Y-98876190D01*
X83592858Y-98900000D01*
X83616667Y-98923810D01*
X83640477Y-98971429D01*
X83640477Y-99042857D01*
X83616667Y-99090476D01*
X83592858Y-99114286D01*
X83545239Y-99138095D01*
X83354763Y-99138095D01*
X84116667Y-99376190D02*
X83830953Y-99376190D01*
X83973810Y-99376190D02*
X83973810Y-98876190D01*
X83926191Y-98947619D01*
X83878572Y-98995238D01*
X83830953Y-99019048D01*
X84426191Y-98876190D02*
X84473810Y-98876190D01*
X84521429Y-98900000D01*
X84545238Y-98923810D01*
X84569048Y-98971429D01*
X84592857Y-99066667D01*
X84592857Y-99185714D01*
X84569048Y-99280952D01*
X84545238Y-99328571D01*
X84521429Y-99352381D01*
X84473810Y-99376190D01*
X84426191Y-99376190D01*
X84378572Y-99352381D01*
X84354762Y-99328571D01*
X84330953Y-99280952D01*
X84307143Y-99185714D01*
X84307143Y-99066667D01*
X84330953Y-98971429D01*
X84354762Y-98923810D01*
X84378572Y-98900000D01*
X84426191Y-98876190D01*
X84759524Y-98876190D02*
X85069047Y-98876190D01*
X84902381Y-99066667D01*
X84973809Y-99066667D01*
X85021428Y-99090476D01*
X85045238Y-99114286D01*
X85069047Y-99161905D01*
X85069047Y-99280952D01*
X85045238Y-99328571D01*
X85021428Y-99352381D01*
X84973809Y-99376190D01*
X84830952Y-99376190D01*
X84783333Y-99352381D01*
X84759524Y-99328571D01*
X87840477Y-93876190D02*
X87673810Y-93638095D01*
X87554763Y-93876190D02*
X87554763Y-93376190D01*
X87745239Y-93376190D01*
X87792858Y-93400000D01*
X87816667Y-93423810D01*
X87840477Y-93471429D01*
X87840477Y-93542857D01*
X87816667Y-93590476D01*
X87792858Y-93614286D01*
X87745239Y-93638095D01*
X87554763Y-93638095D01*
X88316667Y-93876190D02*
X88030953Y-93876190D01*
X88173810Y-93876190D02*
X88173810Y-93376190D01*
X88126191Y-93447619D01*
X88078572Y-93495238D01*
X88030953Y-93519048D01*
X88626191Y-93376190D02*
X88673810Y-93376190D01*
X88721429Y-93400000D01*
X88745238Y-93423810D01*
X88769048Y-93471429D01*
X88792857Y-93566667D01*
X88792857Y-93685714D01*
X88769048Y-93780952D01*
X88745238Y-93828571D01*
X88721429Y-93852381D01*
X88673810Y-93876190D01*
X88626191Y-93876190D01*
X88578572Y-93852381D01*
X88554762Y-93828571D01*
X88530953Y-93780952D01*
X88507143Y-93685714D01*
X88507143Y-93566667D01*
X88530953Y-93471429D01*
X88554762Y-93423810D01*
X88578572Y-93400000D01*
X88626191Y-93376190D01*
X89221428Y-93542857D02*
X89221428Y-93876190D01*
X89102381Y-93352381D02*
X88983333Y-93709524D01*
X89292857Y-93709524D01*
X128090477Y-93976190D02*
X127923810Y-93738095D01*
X127804763Y-93976190D02*
X127804763Y-93476190D01*
X127995239Y-93476190D01*
X128042858Y-93500000D01*
X128066667Y-93523810D01*
X128090477Y-93571429D01*
X128090477Y-93642857D01*
X128066667Y-93690476D01*
X128042858Y-93714286D01*
X127995239Y-93738095D01*
X127804763Y-93738095D01*
X128566667Y-93976190D02*
X128280953Y-93976190D01*
X128423810Y-93976190D02*
X128423810Y-93476190D01*
X128376191Y-93547619D01*
X128328572Y-93595238D01*
X128280953Y-93619048D01*
X128876191Y-93476190D02*
X128923810Y-93476190D01*
X128971429Y-93500000D01*
X128995238Y-93523810D01*
X129019048Y-93571429D01*
X129042857Y-93666667D01*
X129042857Y-93785714D01*
X129019048Y-93880952D01*
X128995238Y-93928571D01*
X128971429Y-93952381D01*
X128923810Y-93976190D01*
X128876191Y-93976190D01*
X128828572Y-93952381D01*
X128804762Y-93928571D01*
X128780953Y-93880952D01*
X128757143Y-93785714D01*
X128757143Y-93666667D01*
X128780953Y-93571429D01*
X128804762Y-93523810D01*
X128828572Y-93500000D01*
X128876191Y-93476190D01*
X129495238Y-93476190D02*
X129257143Y-93476190D01*
X129233333Y-93714286D01*
X129257143Y-93690476D01*
X129304762Y-93666667D01*
X129423809Y-93666667D01*
X129471428Y-93690476D01*
X129495238Y-93714286D01*
X129519047Y-93761905D01*
X129519047Y-93880952D01*
X129495238Y-93928571D01*
X129471428Y-93952381D01*
X129423809Y-93976190D01*
X129304762Y-93976190D01*
X129257143Y-93952381D01*
X129233333Y-93928571D01*
X125790477Y-98976190D02*
X125623810Y-98738095D01*
X125504763Y-98976190D02*
X125504763Y-98476190D01*
X125695239Y-98476190D01*
X125742858Y-98500000D01*
X125766667Y-98523810D01*
X125790477Y-98571429D01*
X125790477Y-98642857D01*
X125766667Y-98690476D01*
X125742858Y-98714286D01*
X125695239Y-98738095D01*
X125504763Y-98738095D01*
X126266667Y-98976190D02*
X125980953Y-98976190D01*
X126123810Y-98976190D02*
X126123810Y-98476190D01*
X126076191Y-98547619D01*
X126028572Y-98595238D01*
X125980953Y-98619048D01*
X126576191Y-98476190D02*
X126623810Y-98476190D01*
X126671429Y-98500000D01*
X126695238Y-98523810D01*
X126719048Y-98571429D01*
X126742857Y-98666667D01*
X126742857Y-98785714D01*
X126719048Y-98880952D01*
X126695238Y-98928571D01*
X126671429Y-98952381D01*
X126623810Y-98976190D01*
X126576191Y-98976190D01*
X126528572Y-98952381D01*
X126504762Y-98928571D01*
X126480953Y-98880952D01*
X126457143Y-98785714D01*
X126457143Y-98666667D01*
X126480953Y-98571429D01*
X126504762Y-98523810D01*
X126528572Y-98500000D01*
X126576191Y-98476190D01*
X127171428Y-98476190D02*
X127076190Y-98476190D01*
X127028571Y-98500000D01*
X127004762Y-98523810D01*
X126957143Y-98595238D01*
X126933333Y-98690476D01*
X126933333Y-98880952D01*
X126957143Y-98928571D01*
X126980952Y-98952381D01*
X127028571Y-98976190D01*
X127123809Y-98976190D01*
X127171428Y-98952381D01*
X127195238Y-98928571D01*
X127219047Y-98880952D01*
X127219047Y-98761905D01*
X127195238Y-98714286D01*
X127171428Y-98690476D01*
X127123809Y-98666667D01*
X127028571Y-98666667D01*
X126980952Y-98690476D01*
X126957143Y-98714286D01*
X126933333Y-98761905D01*
X97840477Y-98976190D02*
X97673810Y-98738095D01*
X97554763Y-98976190D02*
X97554763Y-98476190D01*
X97745239Y-98476190D01*
X97792858Y-98500000D01*
X97816667Y-98523810D01*
X97840477Y-98571429D01*
X97840477Y-98642857D01*
X97816667Y-98690476D01*
X97792858Y-98714286D01*
X97745239Y-98738095D01*
X97554763Y-98738095D01*
X98316667Y-98976190D02*
X98030953Y-98976190D01*
X98173810Y-98976190D02*
X98173810Y-98476190D01*
X98126191Y-98547619D01*
X98078572Y-98595238D01*
X98030953Y-98619048D01*
X98626191Y-98476190D02*
X98673810Y-98476190D01*
X98721429Y-98500000D01*
X98745238Y-98523810D01*
X98769048Y-98571429D01*
X98792857Y-98666667D01*
X98792857Y-98785714D01*
X98769048Y-98880952D01*
X98745238Y-98928571D01*
X98721429Y-98952381D01*
X98673810Y-98976190D01*
X98626191Y-98976190D01*
X98578572Y-98952381D01*
X98554762Y-98928571D01*
X98530953Y-98880952D01*
X98507143Y-98785714D01*
X98507143Y-98666667D01*
X98530953Y-98571429D01*
X98554762Y-98523810D01*
X98578572Y-98500000D01*
X98626191Y-98476190D01*
X98959524Y-98476190D02*
X99292857Y-98476190D01*
X99078571Y-98976190D01*
X95215477Y-93901190D02*
X95048810Y-93663095D01*
X94929763Y-93901190D02*
X94929763Y-93401190D01*
X95120239Y-93401190D01*
X95167858Y-93425000D01*
X95191667Y-93448810D01*
X95215477Y-93496429D01*
X95215477Y-93567857D01*
X95191667Y-93615476D01*
X95167858Y-93639286D01*
X95120239Y-93663095D01*
X94929763Y-93663095D01*
X95691667Y-93901190D02*
X95405953Y-93901190D01*
X95548810Y-93901190D02*
X95548810Y-93401190D01*
X95501191Y-93472619D01*
X95453572Y-93520238D01*
X95405953Y-93544048D01*
X96001191Y-93401190D02*
X96048810Y-93401190D01*
X96096429Y-93425000D01*
X96120238Y-93448810D01*
X96144048Y-93496429D01*
X96167857Y-93591667D01*
X96167857Y-93710714D01*
X96144048Y-93805952D01*
X96120238Y-93853571D01*
X96096429Y-93877381D01*
X96048810Y-93901190D01*
X96001191Y-93901190D01*
X95953572Y-93877381D01*
X95929762Y-93853571D01*
X95905953Y-93805952D01*
X95882143Y-93710714D01*
X95882143Y-93591667D01*
X95905953Y-93496429D01*
X95929762Y-93448810D01*
X95953572Y-93425000D01*
X96001191Y-93401190D01*
X96453571Y-93615476D02*
X96405952Y-93591667D01*
X96382143Y-93567857D01*
X96358333Y-93520238D01*
X96358333Y-93496429D01*
X96382143Y-93448810D01*
X96405952Y-93425000D01*
X96453571Y-93401190D01*
X96548809Y-93401190D01*
X96596428Y-93425000D01*
X96620238Y-93448810D01*
X96644047Y-93496429D01*
X96644047Y-93520238D01*
X96620238Y-93567857D01*
X96596428Y-93591667D01*
X96548809Y-93615476D01*
X96453571Y-93615476D01*
X96405952Y-93639286D01*
X96382143Y-93663095D01*
X96358333Y-93710714D01*
X96358333Y-93805952D01*
X96382143Y-93853571D01*
X96405952Y-93877381D01*
X96453571Y-93901190D01*
X96548809Y-93901190D01*
X96596428Y-93877381D01*
X96620238Y-93853571D01*
X96644047Y-93805952D01*
X96644047Y-93710714D01*
X96620238Y-93663095D01*
X96596428Y-93639286D01*
X96548809Y-93615476D01*
D11*
X123152381Y-84764286D02*
X123961905Y-84764286D01*
X124057143Y-84716667D01*
X124104762Y-84669048D01*
X124152381Y-84573810D01*
X124152381Y-84383333D01*
X124104762Y-84288095D01*
X124057143Y-84240476D01*
X123961905Y-84192857D01*
X123152381Y-84192857D01*
X124152381Y-83192857D02*
X124152381Y-83764286D01*
X124152381Y-83478572D02*
X123152381Y-83478572D01*
X123295238Y-83573810D01*
X123390476Y-83669048D01*
X123438095Y-83764286D01*
X123152381Y-82573810D02*
X123152381Y-82478571D01*
X123200000Y-82383333D01*
X123247619Y-82335714D01*
X123342857Y-82288095D01*
X123533333Y-82240476D01*
X123771429Y-82240476D01*
X123961905Y-82288095D01*
X124057143Y-82335714D01*
X124104762Y-82383333D01*
X124152381Y-82478571D01*
X124152381Y-82573810D01*
X124104762Y-82669048D01*
X124057143Y-82716667D01*
X123961905Y-82764286D01*
X123771429Y-82811905D01*
X123533333Y-82811905D01*
X123342857Y-82764286D01*
X123247619Y-82716667D01*
X123200000Y-82669048D01*
X123152381Y-82573810D01*
X124152381Y-81288095D02*
X124152381Y-81859524D01*
X124152381Y-81573810D02*
X123152381Y-81573810D01*
X123295238Y-81669048D01*
X123390476Y-81764286D01*
X123438095Y-81859524D01*
X92752381Y-84764286D02*
X93561905Y-84764286D01*
X93657143Y-84716667D01*
X93704762Y-84669048D01*
X93752381Y-84573810D01*
X93752381Y-84383333D01*
X93704762Y-84288095D01*
X93657143Y-84240476D01*
X93561905Y-84192857D01*
X92752381Y-84192857D01*
X93752381Y-83192857D02*
X93752381Y-83764286D01*
X93752381Y-83478572D02*
X92752381Y-83478572D01*
X92895238Y-83573810D01*
X92990476Y-83669048D01*
X93038095Y-83764286D01*
X92752381Y-82573810D02*
X92752381Y-82478571D01*
X92800000Y-82383333D01*
X92847619Y-82335714D01*
X92942857Y-82288095D01*
X93133333Y-82240476D01*
X93371429Y-82240476D01*
X93561905Y-82288095D01*
X93657143Y-82335714D01*
X93704762Y-82383333D01*
X93752381Y-82478571D01*
X93752381Y-82573810D01*
X93704762Y-82669048D01*
X93657143Y-82716667D01*
X93561905Y-82764286D01*
X93371429Y-82811905D01*
X93133333Y-82811905D01*
X92942857Y-82764286D01*
X92847619Y-82716667D01*
X92800000Y-82669048D01*
X92752381Y-82573810D01*
X92847619Y-81859524D02*
X92800000Y-81811905D01*
X92752381Y-81716667D01*
X92752381Y-81478571D01*
X92800000Y-81383333D01*
X92847619Y-81335714D01*
X92942857Y-81288095D01*
X93038095Y-81288095D01*
X93180952Y-81335714D01*
X93752381Y-81907143D01*
X93752381Y-81288095D01*
D12*
X83654763Y-112726190D02*
X83654763Y-112226190D01*
X83773810Y-112226190D01*
X83845239Y-112250000D01*
X83892858Y-112297619D01*
X83916667Y-112345238D01*
X83940477Y-112440476D01*
X83940477Y-112511905D01*
X83916667Y-112607143D01*
X83892858Y-112654762D01*
X83845239Y-112702381D01*
X83773810Y-112726190D01*
X83654763Y-112726190D01*
X84416667Y-112726190D02*
X84130953Y-112726190D01*
X84273810Y-112726190D02*
X84273810Y-112226190D01*
X84226191Y-112297619D01*
X84178572Y-112345238D01*
X84130953Y-112369048D01*
X84726191Y-112226190D02*
X84773810Y-112226190D01*
X84821429Y-112250000D01*
X84845238Y-112273810D01*
X84869048Y-112321429D01*
X84892857Y-112416667D01*
X84892857Y-112535714D01*
X84869048Y-112630952D01*
X84845238Y-112678571D01*
X84821429Y-112702381D01*
X84773810Y-112726190D01*
X84726191Y-112726190D01*
X84678572Y-112702381D01*
X84654762Y-112678571D01*
X84630953Y-112630952D01*
X84607143Y-112535714D01*
X84607143Y-112416667D01*
X84630953Y-112321429D01*
X84654762Y-112273810D01*
X84678572Y-112250000D01*
X84726191Y-112226190D01*
X85083333Y-112273810D02*
X85107143Y-112250000D01*
X85154762Y-112226190D01*
X85273809Y-112226190D01*
X85321428Y-112250000D01*
X85345238Y-112273810D01*
X85369047Y-112321429D01*
X85369047Y-112369048D01*
X85345238Y-112440476D01*
X85059524Y-112726190D01*
X85369047Y-112726190D01*
X127154763Y-112726190D02*
X127154763Y-112226190D01*
X127273810Y-112226190D01*
X127345239Y-112250000D01*
X127392858Y-112297619D01*
X127416667Y-112345238D01*
X127440477Y-112440476D01*
X127440477Y-112511905D01*
X127416667Y-112607143D01*
X127392858Y-112654762D01*
X127345239Y-112702381D01*
X127273810Y-112726190D01*
X127154763Y-112726190D01*
X127916667Y-112726190D02*
X127630953Y-112726190D01*
X127773810Y-112726190D02*
X127773810Y-112226190D01*
X127726191Y-112297619D01*
X127678572Y-112345238D01*
X127630953Y-112369048D01*
X128226191Y-112226190D02*
X128273810Y-112226190D01*
X128321429Y-112250000D01*
X128345238Y-112273810D01*
X128369048Y-112321429D01*
X128392857Y-112416667D01*
X128392857Y-112535714D01*
X128369048Y-112630952D01*
X128345238Y-112678571D01*
X128321429Y-112702381D01*
X128273810Y-112726190D01*
X128226191Y-112726190D01*
X128178572Y-112702381D01*
X128154762Y-112678571D01*
X128130953Y-112630952D01*
X128107143Y-112535714D01*
X128107143Y-112416667D01*
X128130953Y-112321429D01*
X128154762Y-112273810D01*
X128178572Y-112250000D01*
X128226191Y-112226190D01*
X128869047Y-112726190D02*
X128583333Y-112726190D01*
X128726190Y-112726190D02*
X128726190Y-112226190D01*
X128678571Y-112297619D01*
X128630952Y-112345238D01*
X128583333Y-112369048D01*
X129787977Y-80731189D02*
X129621310Y-80493094D01*
X129502263Y-80731189D02*
X129502263Y-80231189D01*
X129692739Y-80231189D01*
X129740358Y-80254999D01*
X129764167Y-80278809D01*
X129787977Y-80326428D01*
X129787977Y-80397856D01*
X129764167Y-80445475D01*
X129740358Y-80469285D01*
X129692739Y-80493094D01*
X129502263Y-80493094D01*
X130264167Y-80731189D02*
X129978453Y-80731189D01*
X130121310Y-80731189D02*
X130121310Y-80231189D01*
X130073691Y-80302618D01*
X130026072Y-80350237D01*
X129978453Y-80374047D01*
X130573691Y-80231189D02*
X130621310Y-80231189D01*
X130668929Y-80254999D01*
X130692738Y-80278809D01*
X130716548Y-80326428D01*
X130740357Y-80421666D01*
X130740357Y-80540713D01*
X130716548Y-80635951D01*
X130692738Y-80683570D01*
X130668929Y-80707380D01*
X130621310Y-80731189D01*
X130573691Y-80731189D01*
X130526072Y-80707380D01*
X130502262Y-80683570D01*
X130478453Y-80635951D01*
X130454643Y-80540713D01*
X130454643Y-80421666D01*
X130478453Y-80326428D01*
X130502262Y-80278809D01*
X130526072Y-80254999D01*
X130573691Y-80231189D01*
X130978452Y-80731189D02*
X131073690Y-80731189D01*
X131121309Y-80707380D01*
X131145119Y-80683570D01*
X131192738Y-80612142D01*
X131216547Y-80516904D01*
X131216547Y-80326428D01*
X131192738Y-80278809D01*
X131168928Y-80254999D01*
X131121309Y-80231189D01*
X131026071Y-80231189D01*
X130978452Y-80254999D01*
X130954643Y-80278809D01*
X130930833Y-80326428D01*
X130930833Y-80445475D01*
X130954643Y-80493094D01*
X130978452Y-80516904D01*
X131026071Y-80540713D01*
X131121309Y-80540713D01*
X131168928Y-80516904D01*
X131192738Y-80493094D01*
X131216547Y-80445475D01*
X86340477Y-67876190D02*
X86173810Y-67638095D01*
X86054763Y-67876190D02*
X86054763Y-67376190D01*
X86245239Y-67376190D01*
X86292858Y-67400000D01*
X86316667Y-67423810D01*
X86340477Y-67471429D01*
X86340477Y-67542857D01*
X86316667Y-67590476D01*
X86292858Y-67614286D01*
X86245239Y-67638095D01*
X86054763Y-67638095D01*
X86816667Y-67876190D02*
X86530953Y-67876190D01*
X86673810Y-67876190D02*
X86673810Y-67376190D01*
X86626191Y-67447619D01*
X86578572Y-67495238D01*
X86530953Y-67519048D01*
X87292857Y-67876190D02*
X87007143Y-67876190D01*
X87150000Y-67876190D02*
X87150000Y-67376190D01*
X87102381Y-67447619D01*
X87054762Y-67495238D01*
X87007143Y-67519048D01*
X87602381Y-67376190D02*
X87650000Y-67376190D01*
X87697619Y-67400000D01*
X87721428Y-67423810D01*
X87745238Y-67471429D01*
X87769047Y-67566667D01*
X87769047Y-67685714D01*
X87745238Y-67780952D01*
X87721428Y-67828571D01*
X87697619Y-67852381D01*
X87650000Y-67876190D01*
X87602381Y-67876190D01*
X87554762Y-67852381D01*
X87530952Y-67828571D01*
X87507143Y-67780952D01*
X87483333Y-67685714D01*
X87483333Y-67566667D01*
X87507143Y-67471429D01*
X87530952Y-67423810D01*
X87554762Y-67400000D01*
X87602381Y-67376190D01*
M02*
