G04 #@! TF.FileFunction,Soldermask,Top*
%FSLAX46Y46*%
G04 Gerber Fmt 4.6, Leading zero omitted, Abs format (unit mm)*
G04 Created by KiCad (PCBNEW 4.0.7-e2-6376~58~ubuntu16.04.1) date Thu Oct 11 01:20:23 2018*
%MOMM*%
%LPD*%
G01*
G04 APERTURE LIST*
%ADD10C,0.100000*%
%ADD11C,0.150000*%
%ADD12R,1.600000X1.400000*%
%ADD13R,1.600000X1.350000*%
%ADD14R,1.350000X1.600000*%
%ADD15R,1.070000X1.370000*%
%ADD16C,3.910000*%
%ADD17R,1.620000X1.620000*%
%ADD18C,1.620000*%
%ADD19R,0.700000X1.650000*%
%ADD20R,0.900000X2.000000*%
%ADD21R,2.100000X1.624000*%
%ADD22O,2.100000X1.624000*%
G04 APERTURE END LIST*
D10*
D11*
X151500000Y-133950000D02*
X65800000Y-133950000D01*
X65800000Y-133950000D02*
X65800000Y-54395000D01*
X151500000Y-54395000D02*
X151500000Y-133950000D01*
X65800000Y-54395000D02*
X151500000Y-54395000D01*
D12*
X88300000Y-80450000D03*
X85600000Y-80450000D03*
X129250000Y-67650000D03*
X131950000Y-67650000D03*
X85650000Y-77850000D03*
X88350000Y-77850000D03*
X131950000Y-70250000D03*
X129250000Y-70250000D03*
D13*
X117700000Y-96250000D03*
X120200000Y-96250000D03*
X127400000Y-96250000D03*
X129900000Y-96250000D03*
X99450000Y-96250000D03*
X96950000Y-96250000D03*
X89750000Y-96250000D03*
X87250000Y-96250000D03*
D14*
X128600000Y-83300000D03*
X128600000Y-85800000D03*
X98700000Y-83300000D03*
X98700000Y-85800000D03*
D15*
X85560000Y-72850000D03*
X86840000Y-72850000D03*
X85560000Y-75350000D03*
X86840000Y-75350000D03*
X131900000Y-75350000D03*
X130620000Y-75350000D03*
X131900000Y-72850000D03*
X130620000Y-72850000D03*
D16*
X117510000Y-122850000D03*
X142910000Y-122850000D03*
D17*
X124750000Y-120310000D03*
D18*
X127540000Y-120310000D03*
X130340000Y-120310000D03*
X133000000Y-120310000D03*
X135800000Y-120310000D03*
X134400000Y-122850000D03*
X131610000Y-122850000D03*
X128940000Y-122850000D03*
X126150000Y-122850000D03*
D16*
X74050000Y-122850000D03*
X99450000Y-122850000D03*
D17*
X81290000Y-120310000D03*
D18*
X84080000Y-120310000D03*
X86880000Y-120310000D03*
X89540000Y-120310000D03*
X92340000Y-120310000D03*
X90940000Y-122850000D03*
X88150000Y-122850000D03*
X85480000Y-122850000D03*
X82690000Y-122850000D03*
D15*
X128860000Y-91250000D03*
X130140000Y-91250000D03*
X117460000Y-91250000D03*
X118740000Y-91250000D03*
X98460000Y-91250000D03*
X99740000Y-91250000D03*
X87060000Y-91250000D03*
X88340000Y-91250000D03*
D12*
X120300000Y-93750000D03*
X117600000Y-93750000D03*
X120300000Y-98750000D03*
X117600000Y-98750000D03*
X89850000Y-98750000D03*
X87150000Y-98750000D03*
X89850000Y-93750000D03*
X87150000Y-93750000D03*
X130000000Y-93750000D03*
X127300000Y-93750000D03*
X130000000Y-98750000D03*
X127300000Y-98750000D03*
X99550000Y-98750000D03*
X96850000Y-98750000D03*
X99550000Y-93750000D03*
X96850000Y-93750000D03*
D19*
X125605000Y-80350000D03*
X124335000Y-80350000D03*
X123065000Y-80350000D03*
X121795000Y-80350000D03*
X121795000Y-85750000D03*
X123065000Y-85750000D03*
X124335000Y-85750000D03*
X125605000Y-85750000D03*
X95205000Y-80350000D03*
X93935000Y-80350000D03*
X92665000Y-80350000D03*
X91395000Y-80350000D03*
X91395000Y-85750000D03*
X92665000Y-85750000D03*
X93935000Y-85750000D03*
X95205000Y-85750000D03*
D20*
X83550000Y-114000000D03*
X85450000Y-114000000D03*
X84500000Y-111000000D03*
X127050000Y-114000000D03*
X128950000Y-114000000D03*
X128000000Y-111000000D03*
D12*
X131950000Y-77850000D03*
X129250000Y-77850000D03*
X85550000Y-70250000D03*
X88250000Y-70250000D03*
X129150000Y-80450000D03*
X131850000Y-80450000D03*
X88250000Y-67650000D03*
X85550000Y-67650000D03*
D21*
X143520000Y-60210000D03*
D22*
X146060000Y-60210000D03*
X143520000Y-72910000D03*
X146060000Y-62750000D03*
X143520000Y-75450000D03*
X146060000Y-65290000D03*
X143520000Y-77990000D03*
X146060000Y-67830000D03*
X143520000Y-80530000D03*
X146060000Y-70370000D03*
X143520000Y-83070000D03*
X146060000Y-72910000D03*
X143520000Y-85610000D03*
X146060000Y-75450000D03*
X143520000Y-88150000D03*
X146060000Y-77990000D03*
X143520000Y-90690000D03*
X146060000Y-80530000D03*
X143520000Y-93230000D03*
X146060000Y-83070000D03*
X143520000Y-95770000D03*
X146060000Y-85610000D03*
X143520000Y-98310000D03*
X146060000Y-88150000D03*
X146060000Y-90690000D03*
X143520000Y-100850000D03*
X146060000Y-93230000D03*
X146060000Y-98310000D03*
X146060000Y-100850000D03*
X146060000Y-103390000D03*
X146060000Y-105930000D03*
X143520000Y-103390000D03*
X143520000Y-105930000D03*
X143520000Y-62750000D03*
X143520000Y-65290000D03*
X143520000Y-67830000D03*
X143520000Y-70370000D03*
X143520000Y-108470000D03*
X146060000Y-108470000D03*
X146060000Y-95770000D03*
D21*
X72400000Y-60210000D03*
D22*
X74940000Y-60210000D03*
X72400000Y-62750000D03*
X74940000Y-62750000D03*
X72400000Y-65290000D03*
X74940000Y-65290000D03*
X72400000Y-67830000D03*
X74940000Y-67830000D03*
X72400000Y-70370000D03*
X74940000Y-70370000D03*
X72400000Y-72910000D03*
X74940000Y-72910000D03*
X72400000Y-75450000D03*
X74940000Y-75450000D03*
X72400000Y-77990000D03*
X74940000Y-77990000D03*
X72400000Y-80530000D03*
X74940000Y-80530000D03*
X72400000Y-83070000D03*
X74940000Y-83070000D03*
X72400000Y-85610000D03*
X74940000Y-85610000D03*
X72400000Y-88150000D03*
X74940000Y-88150000D03*
X72400000Y-90690000D03*
X74940000Y-90690000D03*
X72400000Y-93230000D03*
X74940000Y-93230000D03*
X72400000Y-95770000D03*
X74940000Y-95770000D03*
X72400000Y-98310000D03*
X74940000Y-98310000D03*
X72400000Y-100850000D03*
X74940000Y-100850000D03*
X72400000Y-103390000D03*
X74940000Y-103390000D03*
X72400000Y-105930000D03*
X74940000Y-105930000D03*
X72400000Y-108470000D03*
X74940000Y-108470000D03*
M02*
