G04 #@! TF.FileFunction,Copper,L2,Bot,Signal*
%FSLAX46Y46*%
G04 Gerber Fmt 4.6, Leading zero omitted, Abs format (unit mm)*
G04 Created by KiCad (PCBNEW 4.0.7-e2-6376~58~ubuntu16.04.1) date Thu Oct 11 01:20:23 2018*
%MOMM*%
%LPD*%
G01*
G04 APERTURE LIST*
%ADD10C,0.100000*%
%ADD11C,0.300000*%
%ADD12C,0.150000*%
%ADD13C,3.810000*%
%ADD14R,1.520000X1.520000*%
%ADD15C,1.520000*%
%ADD16R,2.000000X1.524000*%
%ADD17O,2.000000X1.524000*%
%ADD18C,1.000000*%
%ADD19C,0.508000*%
%ADD20C,0.304800*%
%ADD21C,0.355600*%
%ADD22C,0.254000*%
G04 APERTURE END LIST*
D10*
D11*
X108985714Y-132928571D02*
X109700000Y-132928571D01*
X109700000Y-131428571D01*
X107985714Y-132142857D02*
X107771428Y-132214286D01*
X107700000Y-132285714D01*
X107628571Y-132428571D01*
X107628571Y-132642857D01*
X107700000Y-132785714D01*
X107771428Y-132857143D01*
X107914286Y-132928571D01*
X108485714Y-132928571D01*
X108485714Y-131428571D01*
X107985714Y-131428571D01*
X107842857Y-131500000D01*
X107771428Y-131571429D01*
X107700000Y-131714286D01*
X107700000Y-131857143D01*
X107771428Y-132000000D01*
X107842857Y-132071429D01*
X107985714Y-132142857D01*
X108485714Y-132142857D01*
D12*
X151500000Y-133950000D02*
X65800000Y-133950000D01*
X65800000Y-133950000D02*
X65800000Y-54395000D01*
X151500000Y-54395000D02*
X151500000Y-133950000D01*
X65800000Y-54395000D02*
X151500000Y-54395000D01*
D13*
X117510000Y-122850000D03*
X142910000Y-122850000D03*
D14*
X124750000Y-120310000D03*
D15*
X127540000Y-120310000D03*
X130340000Y-120310000D03*
X133000000Y-120310000D03*
X135800000Y-120310000D03*
X134400000Y-122850000D03*
X131610000Y-122850000D03*
X128940000Y-122850000D03*
X126150000Y-122850000D03*
D13*
X74050000Y-122850000D03*
X99450000Y-122850000D03*
D14*
X81290000Y-120310000D03*
D15*
X84080000Y-120310000D03*
X86880000Y-120310000D03*
X89540000Y-120310000D03*
X92340000Y-120310000D03*
X90940000Y-122850000D03*
X88150000Y-122850000D03*
X85480000Y-122850000D03*
X82690000Y-122850000D03*
D16*
X143520000Y-60210000D03*
D17*
X146060000Y-60210000D03*
X143520000Y-72910000D03*
X146060000Y-62750000D03*
X143520000Y-75450000D03*
X146060000Y-65290000D03*
X143520000Y-77990000D03*
X146060000Y-67830000D03*
X143520000Y-80530000D03*
X146060000Y-70370000D03*
X143520000Y-83070000D03*
X146060000Y-72910000D03*
X143520000Y-85610000D03*
X146060000Y-75450000D03*
X143520000Y-88150000D03*
X146060000Y-77990000D03*
X143520000Y-90690000D03*
X146060000Y-80530000D03*
X143520000Y-93230000D03*
X146060000Y-83070000D03*
X143520000Y-95770000D03*
X146060000Y-85610000D03*
X143520000Y-98310000D03*
X146060000Y-88150000D03*
X146060000Y-90690000D03*
X143520000Y-100850000D03*
X146060000Y-93230000D03*
X146060000Y-98310000D03*
X146060000Y-100850000D03*
X146060000Y-103390000D03*
X146060000Y-105930000D03*
X143520000Y-103390000D03*
X143520000Y-105930000D03*
X143520000Y-62750000D03*
X143520000Y-65290000D03*
X143520000Y-67830000D03*
X143520000Y-70370000D03*
X143520000Y-108470000D03*
X146060000Y-108470000D03*
X146060000Y-95770000D03*
D16*
X72400000Y-60210000D03*
D17*
X74940000Y-60210000D03*
X72400000Y-62750000D03*
X74940000Y-62750000D03*
X72400000Y-65290000D03*
X74940000Y-65290000D03*
X72400000Y-67830000D03*
X74940000Y-67830000D03*
X72400000Y-70370000D03*
X74940000Y-70370000D03*
X72400000Y-72910000D03*
X74940000Y-72910000D03*
X72400000Y-75450000D03*
X74940000Y-75450000D03*
X72400000Y-77990000D03*
X74940000Y-77990000D03*
X72400000Y-80530000D03*
X74940000Y-80530000D03*
X72400000Y-83070000D03*
X74940000Y-83070000D03*
X72400000Y-85610000D03*
X74940000Y-85610000D03*
X72400000Y-88150000D03*
X74940000Y-88150000D03*
X72400000Y-90690000D03*
X74940000Y-90690000D03*
X72400000Y-93230000D03*
X74940000Y-93230000D03*
X72400000Y-95770000D03*
X74940000Y-95770000D03*
X72400000Y-98310000D03*
X74940000Y-98310000D03*
X72400000Y-100850000D03*
X74940000Y-100850000D03*
X72400000Y-103390000D03*
X74940000Y-103390000D03*
X72400000Y-105930000D03*
X74940000Y-105930000D03*
X72400000Y-108470000D03*
X74940000Y-108470000D03*
D18*
X130992884Y-83300000D03*
X124227000Y-89250000D03*
X122973000Y-89250000D03*
X93927000Y-89250000D03*
X92673000Y-89250000D03*
X86500000Y-83450000D03*
D19*
X130992884Y-83300000D02*
X131912387Y-82380497D01*
X131912387Y-82380497D02*
X131912387Y-82367461D01*
X131912387Y-82367461D02*
X131912387Y-60364552D01*
X131912387Y-60364552D02*
X134926939Y-57350000D01*
X134926939Y-57350000D02*
X145037007Y-57350000D01*
X145037007Y-57350000D02*
X146044650Y-58357643D01*
X146044650Y-58357643D02*
X146044650Y-60222851D01*
D20*
X128940000Y-122850000D02*
X128940000Y-119260000D01*
X128940000Y-119260000D02*
X128930000Y-119250000D01*
X128930000Y-119250000D02*
X128930000Y-104284870D01*
X128930000Y-104284870D02*
X123879399Y-99234269D01*
X123879399Y-99234269D02*
X123879399Y-89597601D01*
X123879399Y-89597601D02*
X124227000Y-89250000D01*
X128345790Y-118405344D02*
X128345790Y-116068799D01*
D21*
X127540000Y-120310000D02*
X127540000Y-119211134D01*
D20*
X127540000Y-119211134D02*
X128345790Y-118405344D01*
X128345790Y-116068799D02*
X128371201Y-104516331D01*
X123320601Y-99465727D02*
X123320601Y-89597601D01*
X128371201Y-104516331D02*
X123320601Y-99465727D01*
X123320601Y-89597601D02*
X122973000Y-89250000D01*
X93579399Y-105265729D02*
X85547961Y-113333090D01*
X85547961Y-113333090D02*
X85530000Y-113315130D01*
D21*
X85480000Y-122850000D02*
X85480000Y-113401051D01*
X85480000Y-113401051D02*
X85547961Y-113333090D01*
D20*
X93927000Y-89250000D02*
X93579399Y-89597601D01*
X93579399Y-89597601D02*
X93579399Y-105265729D01*
D21*
X84080000Y-120310000D02*
X84609036Y-119780964D01*
X84609036Y-119780964D02*
X84609036Y-113409897D01*
X84609036Y-113409897D02*
X85186901Y-112832032D01*
D20*
X93020601Y-105034269D02*
X85186901Y-112832032D01*
X85186901Y-112832032D02*
X84971201Y-113083669D01*
X92673000Y-89250000D02*
X93020601Y-89597601D01*
X93020601Y-89597601D02*
X93020601Y-105034269D01*
D19*
X74940000Y-60210000D02*
X83493657Y-60210000D01*
X83493657Y-60210000D02*
X85497097Y-62213440D01*
X85497097Y-62213440D02*
X85497097Y-82447097D01*
X85497097Y-82447097D02*
X86500000Y-83450000D01*
D22*
G36*
X151094800Y-133544800D02*
X110387343Y-133544800D01*
X110387343Y-130719800D01*
X107012657Y-130719800D01*
X107012657Y-133544800D01*
X66205200Y-133544800D01*
X66205200Y-123292658D01*
X71814413Y-123292658D01*
X72153985Y-124114485D01*
X72782208Y-124743805D01*
X73603441Y-125084811D01*
X74492658Y-125085587D01*
X75314485Y-124746015D01*
X75943805Y-124117792D01*
X76284811Y-123296559D01*
X76285012Y-123065903D01*
X81599611Y-123065903D01*
X81765235Y-123466742D01*
X82071645Y-123773687D01*
X82472194Y-123940010D01*
X82905903Y-123940389D01*
X83306742Y-123774765D01*
X83613687Y-123468355D01*
X83780010Y-123067806D01*
X83780389Y-122634097D01*
X83614765Y-122233258D01*
X83308355Y-121926313D01*
X82907806Y-121759990D01*
X82474097Y-121759611D01*
X82073258Y-121925235D01*
X81766313Y-122231645D01*
X81599990Y-122632194D01*
X81599611Y-123065903D01*
X76285012Y-123065903D01*
X76285587Y-122407342D01*
X75946015Y-121585515D01*
X75317792Y-120956195D01*
X74496559Y-120615189D01*
X73607342Y-120614413D01*
X72785515Y-120953985D01*
X72156195Y-121582208D01*
X71815189Y-122403441D01*
X71814413Y-123292658D01*
X66205200Y-123292658D01*
X66205200Y-119550000D01*
X80193331Y-119550000D01*
X80193331Y-121070000D01*
X80216356Y-121192365D01*
X80288673Y-121304749D01*
X80399017Y-121380144D01*
X80530000Y-121406669D01*
X82050000Y-121406669D01*
X82172365Y-121383644D01*
X82284749Y-121311327D01*
X82360144Y-121200983D01*
X82386669Y-121070000D01*
X82386669Y-120525903D01*
X82989611Y-120525903D01*
X83155235Y-120926742D01*
X83461645Y-121233687D01*
X83862194Y-121400010D01*
X84295903Y-121400389D01*
X84696742Y-121234765D01*
X84972000Y-120959987D01*
X84972000Y-121880304D01*
X84863258Y-121925235D01*
X84556313Y-122231645D01*
X84389990Y-122632194D01*
X84389611Y-123065903D01*
X84555235Y-123466742D01*
X84861645Y-123773687D01*
X85262194Y-123940010D01*
X85695903Y-123940389D01*
X86096742Y-123774765D01*
X86403687Y-123468355D01*
X86570010Y-123067806D01*
X86570011Y-123065903D01*
X87059611Y-123065903D01*
X87225235Y-123466742D01*
X87531645Y-123773687D01*
X87932194Y-123940010D01*
X88365903Y-123940389D01*
X88766742Y-123774765D01*
X89073687Y-123468355D01*
X89240010Y-123067806D01*
X89240011Y-123065903D01*
X89849611Y-123065903D01*
X90015235Y-123466742D01*
X90321645Y-123773687D01*
X90722194Y-123940010D01*
X91155903Y-123940389D01*
X91556742Y-123774765D01*
X91863687Y-123468355D01*
X91936642Y-123292658D01*
X97214413Y-123292658D01*
X97553985Y-124114485D01*
X98182208Y-124743805D01*
X99003441Y-125084811D01*
X99892658Y-125085587D01*
X100714485Y-124746015D01*
X101343805Y-124117792D01*
X101684811Y-123296559D01*
X101684814Y-123292658D01*
X115274413Y-123292658D01*
X115613985Y-124114485D01*
X116242208Y-124743805D01*
X117063441Y-125084811D01*
X117952658Y-125085587D01*
X118774485Y-124746015D01*
X119403805Y-124117792D01*
X119744811Y-123296559D01*
X119745012Y-123065903D01*
X125059611Y-123065903D01*
X125225235Y-123466742D01*
X125531645Y-123773687D01*
X125932194Y-123940010D01*
X126365903Y-123940389D01*
X126766742Y-123774765D01*
X127073687Y-123468355D01*
X127240010Y-123067806D01*
X127240389Y-122634097D01*
X127074765Y-122233258D01*
X126768355Y-121926313D01*
X126367806Y-121759990D01*
X125934097Y-121759611D01*
X125533258Y-121925235D01*
X125226313Y-122231645D01*
X125059990Y-122632194D01*
X125059611Y-123065903D01*
X119745012Y-123065903D01*
X119745587Y-122407342D01*
X119406015Y-121585515D01*
X118777792Y-120956195D01*
X117956559Y-120615189D01*
X117067342Y-120614413D01*
X116245515Y-120953985D01*
X115616195Y-121582208D01*
X115275189Y-122403441D01*
X115274413Y-123292658D01*
X101684814Y-123292658D01*
X101685587Y-122407342D01*
X101346015Y-121585515D01*
X100717792Y-120956195D01*
X99896559Y-120615189D01*
X99007342Y-120614413D01*
X98185515Y-120953985D01*
X97556195Y-121582208D01*
X97215189Y-122403441D01*
X97214413Y-123292658D01*
X91936642Y-123292658D01*
X92030010Y-123067806D01*
X92030389Y-122634097D01*
X91864765Y-122233258D01*
X91558355Y-121926313D01*
X91157806Y-121759990D01*
X90724097Y-121759611D01*
X90323258Y-121925235D01*
X90016313Y-122231645D01*
X89849990Y-122632194D01*
X89849611Y-123065903D01*
X89240011Y-123065903D01*
X89240389Y-122634097D01*
X89074765Y-122233258D01*
X88768355Y-121926313D01*
X88367806Y-121759990D01*
X87934097Y-121759611D01*
X87533258Y-121925235D01*
X87226313Y-122231645D01*
X87059990Y-122632194D01*
X87059611Y-123065903D01*
X86570011Y-123065903D01*
X86570389Y-122634097D01*
X86404765Y-122233258D01*
X86098355Y-121926313D01*
X85988000Y-121880489D01*
X85988000Y-121381608D01*
X86080842Y-121288766D01*
X86150059Y-121530742D01*
X86672780Y-121717155D01*
X87227049Y-121689341D01*
X87609941Y-121530742D01*
X87679159Y-121288764D01*
X86880000Y-120489605D01*
X86865858Y-120503748D01*
X86686253Y-120324143D01*
X86700395Y-120310000D01*
X87059605Y-120310000D01*
X87858764Y-121109159D01*
X88100742Y-121039941D01*
X88284058Y-120525903D01*
X88449611Y-120525903D01*
X88615235Y-120926742D01*
X88921645Y-121233687D01*
X89322194Y-121400010D01*
X89755903Y-121400389D01*
X90156742Y-121234765D01*
X90463687Y-120928355D01*
X90630010Y-120527806D01*
X90630011Y-120525903D01*
X91249611Y-120525903D01*
X91415235Y-120926742D01*
X91721645Y-121233687D01*
X92122194Y-121400010D01*
X92555903Y-121400389D01*
X92956742Y-121234765D01*
X93263687Y-120928355D01*
X93430010Y-120527806D01*
X93430389Y-120094097D01*
X93264765Y-119693258D01*
X93121757Y-119550000D01*
X123653331Y-119550000D01*
X123653331Y-121070000D01*
X123676356Y-121192365D01*
X123748673Y-121304749D01*
X123859017Y-121380144D01*
X123990000Y-121406669D01*
X125510000Y-121406669D01*
X125632365Y-121383644D01*
X125744749Y-121311327D01*
X125820144Y-121200983D01*
X125846669Y-121070000D01*
X125846669Y-119550000D01*
X125823644Y-119427635D01*
X125751327Y-119315251D01*
X125640983Y-119239856D01*
X125510000Y-119213331D01*
X123990000Y-119213331D01*
X123867635Y-119236356D01*
X123755251Y-119308673D01*
X123679856Y-119419017D01*
X123653331Y-119550000D01*
X93121757Y-119550000D01*
X92958355Y-119386313D01*
X92557806Y-119219990D01*
X92124097Y-119219611D01*
X91723258Y-119385235D01*
X91416313Y-119691645D01*
X91249990Y-120092194D01*
X91249611Y-120525903D01*
X90630011Y-120525903D01*
X90630389Y-120094097D01*
X90464765Y-119693258D01*
X90158355Y-119386313D01*
X89757806Y-119219990D01*
X89324097Y-119219611D01*
X88923258Y-119385235D01*
X88616313Y-119691645D01*
X88449990Y-120092194D01*
X88449611Y-120525903D01*
X88284058Y-120525903D01*
X88287155Y-120517220D01*
X88259341Y-119962951D01*
X88100742Y-119580059D01*
X87858764Y-119510841D01*
X87059605Y-120310000D01*
X86700395Y-120310000D01*
X86686253Y-120295858D01*
X86865858Y-120116253D01*
X86880000Y-120130395D01*
X87679159Y-119331236D01*
X87609941Y-119089258D01*
X87087220Y-118902845D01*
X86532951Y-118930659D01*
X86150059Y-119089258D01*
X86080842Y-119331234D01*
X85988000Y-119238392D01*
X85988000Y-113575110D01*
X93921409Y-105606217D01*
X93973233Y-105528280D01*
X94025263Y-105450412D01*
X94025370Y-105449874D01*
X94025674Y-105449417D01*
X94043745Y-105357498D01*
X94061999Y-105265729D01*
X94061999Y-90080318D01*
X94091413Y-90080344D01*
X94396656Y-89954220D01*
X94630399Y-89720885D01*
X94757056Y-89415862D01*
X94757057Y-89414413D01*
X122142656Y-89414413D01*
X122268780Y-89719656D01*
X122502115Y-89953399D01*
X122807138Y-90080056D01*
X122838001Y-90080083D01*
X122838001Y-99465727D01*
X122874737Y-99650410D01*
X122979351Y-99806977D01*
X127888161Y-104715791D01*
X127863191Y-116067737D01*
X127863296Y-116068269D01*
X127863190Y-116068799D01*
X127863190Y-118205444D01*
X127289042Y-118779592D01*
X127180790Y-118851924D01*
X127070669Y-119016731D01*
X127032000Y-119211134D01*
X127032000Y-119340304D01*
X126923258Y-119385235D01*
X126616313Y-119691645D01*
X126449990Y-120092194D01*
X126449611Y-120525903D01*
X126615235Y-120926742D01*
X126921645Y-121233687D01*
X127322194Y-121400010D01*
X127755903Y-121400389D01*
X128156742Y-121234765D01*
X128457400Y-120934631D01*
X128457400Y-121869808D01*
X128323258Y-121925235D01*
X128016313Y-122231645D01*
X127849990Y-122632194D01*
X127849611Y-123065903D01*
X128015235Y-123466742D01*
X128321645Y-123773687D01*
X128722194Y-123940010D01*
X129155903Y-123940389D01*
X129556742Y-123774765D01*
X129863687Y-123468355D01*
X130030010Y-123067806D01*
X130030011Y-123065903D01*
X130519611Y-123065903D01*
X130685235Y-123466742D01*
X130991645Y-123773687D01*
X131392194Y-123940010D01*
X131825903Y-123940389D01*
X132226742Y-123774765D01*
X132533687Y-123468355D01*
X132700010Y-123067806D01*
X132700011Y-123065903D01*
X133309611Y-123065903D01*
X133475235Y-123466742D01*
X133781645Y-123773687D01*
X134182194Y-123940010D01*
X134615903Y-123940389D01*
X135016742Y-123774765D01*
X135323687Y-123468355D01*
X135396642Y-123292658D01*
X140674413Y-123292658D01*
X141013985Y-124114485D01*
X141642208Y-124743805D01*
X142463441Y-125084811D01*
X143352658Y-125085587D01*
X144174485Y-124746015D01*
X144803805Y-124117792D01*
X145144811Y-123296559D01*
X145145587Y-122407342D01*
X144806015Y-121585515D01*
X144177792Y-120956195D01*
X143356559Y-120615189D01*
X142467342Y-120614413D01*
X141645515Y-120953985D01*
X141016195Y-121582208D01*
X140675189Y-122403441D01*
X140674413Y-123292658D01*
X135396642Y-123292658D01*
X135490010Y-123067806D01*
X135490389Y-122634097D01*
X135324765Y-122233258D01*
X135018355Y-121926313D01*
X134617806Y-121759990D01*
X134184097Y-121759611D01*
X133783258Y-121925235D01*
X133476313Y-122231645D01*
X133309990Y-122632194D01*
X133309611Y-123065903D01*
X132700011Y-123065903D01*
X132700389Y-122634097D01*
X132534765Y-122233258D01*
X132228355Y-121926313D01*
X131827806Y-121759990D01*
X131394097Y-121759611D01*
X130993258Y-121925235D01*
X130686313Y-122231645D01*
X130519990Y-122632194D01*
X130519611Y-123065903D01*
X130030011Y-123065903D01*
X130030389Y-122634097D01*
X129864765Y-122233258D01*
X129558355Y-121926313D01*
X129422600Y-121869942D01*
X129422600Y-121400560D01*
X129425824Y-121403784D01*
X129540842Y-121288766D01*
X129610059Y-121530742D01*
X130132780Y-121717155D01*
X130687049Y-121689341D01*
X131069941Y-121530742D01*
X131139159Y-121288764D01*
X130340000Y-120489605D01*
X130325858Y-120503748D01*
X130146253Y-120324143D01*
X130160395Y-120310000D01*
X130519605Y-120310000D01*
X131318764Y-121109159D01*
X131560742Y-121039941D01*
X131744058Y-120525903D01*
X131909611Y-120525903D01*
X132075235Y-120926742D01*
X132381645Y-121233687D01*
X132782194Y-121400010D01*
X133215903Y-121400389D01*
X133616742Y-121234765D01*
X133923687Y-120928355D01*
X134090010Y-120527806D01*
X134090011Y-120525903D01*
X134709611Y-120525903D01*
X134875235Y-120926742D01*
X135181645Y-121233687D01*
X135582194Y-121400010D01*
X136015903Y-121400389D01*
X136416742Y-121234765D01*
X136723687Y-120928355D01*
X136890010Y-120527806D01*
X136890389Y-120094097D01*
X136724765Y-119693258D01*
X136418355Y-119386313D01*
X136017806Y-119219990D01*
X135584097Y-119219611D01*
X135183258Y-119385235D01*
X134876313Y-119691645D01*
X134709990Y-120092194D01*
X134709611Y-120525903D01*
X134090011Y-120525903D01*
X134090389Y-120094097D01*
X133924765Y-119693258D01*
X133618355Y-119386313D01*
X133217806Y-119219990D01*
X132784097Y-119219611D01*
X132383258Y-119385235D01*
X132076313Y-119691645D01*
X131909990Y-120092194D01*
X131909611Y-120525903D01*
X131744058Y-120525903D01*
X131747155Y-120517220D01*
X131719341Y-119962951D01*
X131560742Y-119580059D01*
X131318764Y-119510841D01*
X130519605Y-120310000D01*
X130160395Y-120310000D01*
X130146253Y-120295858D01*
X130325858Y-120116253D01*
X130340000Y-120130395D01*
X131139159Y-119331236D01*
X131069941Y-119089258D01*
X130547220Y-118902845D01*
X129992951Y-118930659D01*
X129610059Y-119089258D01*
X129540842Y-119331234D01*
X129425824Y-119216216D01*
X129415871Y-119226169D01*
X129412600Y-119209727D01*
X129412600Y-105930000D01*
X142163740Y-105930000D01*
X142246879Y-106347967D01*
X142483638Y-106702302D01*
X142837973Y-106939061D01*
X143255940Y-107022200D01*
X143784060Y-107022200D01*
X144202027Y-106939061D01*
X144556362Y-106702302D01*
X144620110Y-106606896D01*
X144752980Y-106843892D01*
X145184086Y-107183422D01*
X145242972Y-107200000D01*
X145184086Y-107216578D01*
X144752980Y-107556108D01*
X144620110Y-107793104D01*
X144556362Y-107697698D01*
X144202027Y-107460939D01*
X143784060Y-107377800D01*
X143255940Y-107377800D01*
X142837973Y-107460939D01*
X142483638Y-107697698D01*
X142246879Y-108052033D01*
X142163740Y-108470000D01*
X142246879Y-108887967D01*
X142483638Y-109242302D01*
X142837973Y-109479061D01*
X143255940Y-109562200D01*
X143784060Y-109562200D01*
X144202027Y-109479061D01*
X144556362Y-109242302D01*
X144620110Y-109146896D01*
X144752980Y-109383892D01*
X145184086Y-109723422D01*
X145712308Y-109872130D01*
X145933000Y-109713277D01*
X145933000Y-108597000D01*
X146187000Y-108597000D01*
X146187000Y-109713277D01*
X146407692Y-109872130D01*
X146935914Y-109723422D01*
X147367020Y-109383892D01*
X147635377Y-108905230D01*
X147652220Y-108813070D01*
X147529720Y-108597000D01*
X146187000Y-108597000D01*
X145933000Y-108597000D01*
X145913000Y-108597000D01*
X145913000Y-108343000D01*
X145933000Y-108343000D01*
X145933000Y-107226723D01*
X145895874Y-107200000D01*
X145933000Y-107173277D01*
X145933000Y-106057000D01*
X146187000Y-106057000D01*
X146187000Y-107173277D01*
X146224126Y-107200000D01*
X146187000Y-107226723D01*
X146187000Y-108343000D01*
X147529720Y-108343000D01*
X147652220Y-108126930D01*
X147635377Y-108034770D01*
X147367020Y-107556108D01*
X146935914Y-107216578D01*
X146877028Y-107200000D01*
X146935914Y-107183422D01*
X147367020Y-106843892D01*
X147635377Y-106365230D01*
X147652220Y-106273070D01*
X147529720Y-106057000D01*
X146187000Y-106057000D01*
X145933000Y-106057000D01*
X145913000Y-106057000D01*
X145913000Y-105803000D01*
X145933000Y-105803000D01*
X145933000Y-104686723D01*
X146187000Y-104686723D01*
X146187000Y-105803000D01*
X147529720Y-105803000D01*
X147652220Y-105586930D01*
X147635377Y-105494770D01*
X147367020Y-105016108D01*
X146935914Y-104676578D01*
X146407692Y-104527870D01*
X146187000Y-104686723D01*
X145933000Y-104686723D01*
X145712308Y-104527870D01*
X145184086Y-104676578D01*
X144752980Y-105016108D01*
X144620110Y-105253104D01*
X144556362Y-105157698D01*
X144202027Y-104920939D01*
X143784060Y-104837800D01*
X143255940Y-104837800D01*
X142837973Y-104920939D01*
X142483638Y-105157698D01*
X142246879Y-105512033D01*
X142163740Y-105930000D01*
X129412600Y-105930000D01*
X129412600Y-104284870D01*
X129375864Y-104100187D01*
X129271250Y-103943620D01*
X129271247Y-103943618D01*
X128717630Y-103390000D01*
X142163740Y-103390000D01*
X142246879Y-103807967D01*
X142483638Y-104162302D01*
X142837973Y-104399061D01*
X143255940Y-104482200D01*
X143784060Y-104482200D01*
X144202027Y-104399061D01*
X144556362Y-104162302D01*
X144790000Y-103812638D01*
X145023638Y-104162302D01*
X145377973Y-104399061D01*
X145795940Y-104482200D01*
X146324060Y-104482200D01*
X146742027Y-104399061D01*
X147096362Y-104162302D01*
X147333121Y-103807967D01*
X147416260Y-103390000D01*
X147333121Y-102972033D01*
X147096362Y-102617698D01*
X146742027Y-102380939D01*
X146324060Y-102297800D01*
X145795940Y-102297800D01*
X145377973Y-102380939D01*
X145023638Y-102617698D01*
X144790000Y-102967362D01*
X144556362Y-102617698D01*
X144202027Y-102380939D01*
X143784060Y-102297800D01*
X143255940Y-102297800D01*
X142837973Y-102380939D01*
X142483638Y-102617698D01*
X142246879Y-102972033D01*
X142163740Y-103390000D01*
X128717630Y-103390000D01*
X126177630Y-100850000D01*
X142163740Y-100850000D01*
X142246879Y-101267967D01*
X142483638Y-101622302D01*
X142837973Y-101859061D01*
X143255940Y-101942200D01*
X143784060Y-101942200D01*
X144202027Y-101859061D01*
X144556362Y-101622302D01*
X144790000Y-101272638D01*
X145023638Y-101622302D01*
X145377973Y-101859061D01*
X145795940Y-101942200D01*
X146324060Y-101942200D01*
X146742027Y-101859061D01*
X147096362Y-101622302D01*
X147333121Y-101267967D01*
X147416260Y-100850000D01*
X147333121Y-100432033D01*
X147096362Y-100077698D01*
X146742027Y-99840939D01*
X146324060Y-99757800D01*
X145795940Y-99757800D01*
X145377973Y-99840939D01*
X145023638Y-100077698D01*
X144790000Y-100427362D01*
X144556362Y-100077698D01*
X144202027Y-99840939D01*
X143784060Y-99757800D01*
X143255940Y-99757800D01*
X142837973Y-99840939D01*
X142483638Y-100077698D01*
X142246879Y-100432033D01*
X142163740Y-100850000D01*
X126177630Y-100850000D01*
X124361999Y-99034369D01*
X124361999Y-90080318D01*
X124391413Y-90080344D01*
X124696656Y-89954220D01*
X124930399Y-89720885D01*
X125057056Y-89415862D01*
X125057344Y-89085587D01*
X124931220Y-88780344D01*
X124697885Y-88546601D01*
X124392862Y-88419944D01*
X124062587Y-88419656D01*
X123757344Y-88545780D01*
X123599930Y-88702919D01*
X123443885Y-88546601D01*
X123138862Y-88419944D01*
X122808587Y-88419656D01*
X122503344Y-88545780D01*
X122269601Y-88779115D01*
X122142944Y-89084138D01*
X122142656Y-89414413D01*
X94757057Y-89414413D01*
X94757344Y-89085587D01*
X94631220Y-88780344D01*
X94397885Y-88546601D01*
X94092862Y-88419944D01*
X93762587Y-88419656D01*
X93457344Y-88545780D01*
X93299930Y-88702919D01*
X93143885Y-88546601D01*
X92838862Y-88419944D01*
X92508587Y-88419656D01*
X92203344Y-88545780D01*
X91969601Y-88779115D01*
X91842944Y-89084138D01*
X91842656Y-89414413D01*
X91968780Y-89719656D01*
X92202115Y-89953399D01*
X92507138Y-90080056D01*
X92538001Y-90080083D01*
X92538001Y-104833719D01*
X84937208Y-112399644D01*
X84827691Y-112472821D01*
X84249826Y-113050687D01*
X84139705Y-113215494D01*
X84101036Y-113409897D01*
X84101036Y-119219818D01*
X83864097Y-119219611D01*
X83463258Y-119385235D01*
X83156313Y-119691645D01*
X82989990Y-120092194D01*
X82989611Y-120525903D01*
X82386669Y-120525903D01*
X82386669Y-119550000D01*
X82363644Y-119427635D01*
X82291327Y-119315251D01*
X82180983Y-119239856D01*
X82050000Y-119213331D01*
X80530000Y-119213331D01*
X80407635Y-119236356D01*
X80295251Y-119308673D01*
X80219856Y-119419017D01*
X80193331Y-119550000D01*
X66205200Y-119550000D01*
X66205200Y-108813070D01*
X70807780Y-108813070D01*
X70824623Y-108905230D01*
X71092980Y-109383892D01*
X71524086Y-109723422D01*
X72052308Y-109872130D01*
X72273000Y-109713277D01*
X72273000Y-108597000D01*
X70930280Y-108597000D01*
X70807780Y-108813070D01*
X66205200Y-108813070D01*
X66205200Y-106273070D01*
X70807780Y-106273070D01*
X70824623Y-106365230D01*
X71092980Y-106843892D01*
X71524086Y-107183422D01*
X71582972Y-107200000D01*
X71524086Y-107216578D01*
X71092980Y-107556108D01*
X70824623Y-108034770D01*
X70807780Y-108126930D01*
X70930280Y-108343000D01*
X72273000Y-108343000D01*
X72273000Y-107226723D01*
X72235874Y-107200000D01*
X72273000Y-107173277D01*
X72273000Y-106057000D01*
X70930280Y-106057000D01*
X70807780Y-106273070D01*
X66205200Y-106273070D01*
X66205200Y-105586930D01*
X70807780Y-105586930D01*
X70930280Y-105803000D01*
X72273000Y-105803000D01*
X72273000Y-104686723D01*
X72527000Y-104686723D01*
X72527000Y-105803000D01*
X72547000Y-105803000D01*
X72547000Y-106057000D01*
X72527000Y-106057000D01*
X72527000Y-107173277D01*
X72564126Y-107200000D01*
X72527000Y-107226723D01*
X72527000Y-108343000D01*
X72547000Y-108343000D01*
X72547000Y-108597000D01*
X72527000Y-108597000D01*
X72527000Y-109713277D01*
X72747692Y-109872130D01*
X73275914Y-109723422D01*
X73707020Y-109383892D01*
X73839890Y-109146896D01*
X73903638Y-109242302D01*
X74257973Y-109479061D01*
X74675940Y-109562200D01*
X75204060Y-109562200D01*
X75622027Y-109479061D01*
X75976362Y-109242302D01*
X76213121Y-108887967D01*
X76296260Y-108470000D01*
X76213121Y-108052033D01*
X75976362Y-107697698D01*
X75622027Y-107460939D01*
X75204060Y-107377800D01*
X74675940Y-107377800D01*
X74257973Y-107460939D01*
X73903638Y-107697698D01*
X73839890Y-107793104D01*
X73707020Y-107556108D01*
X73275914Y-107216578D01*
X73217028Y-107200000D01*
X73275914Y-107183422D01*
X73707020Y-106843892D01*
X73839890Y-106606896D01*
X73903638Y-106702302D01*
X74257973Y-106939061D01*
X74675940Y-107022200D01*
X75204060Y-107022200D01*
X75622027Y-106939061D01*
X75976362Y-106702302D01*
X76213121Y-106347967D01*
X76296260Y-105930000D01*
X76213121Y-105512033D01*
X75976362Y-105157698D01*
X75622027Y-104920939D01*
X75204060Y-104837800D01*
X74675940Y-104837800D01*
X74257973Y-104920939D01*
X73903638Y-105157698D01*
X73839890Y-105253104D01*
X73707020Y-105016108D01*
X73275914Y-104676578D01*
X72747692Y-104527870D01*
X72527000Y-104686723D01*
X72273000Y-104686723D01*
X72052308Y-104527870D01*
X71524086Y-104676578D01*
X71092980Y-105016108D01*
X70824623Y-105494770D01*
X70807780Y-105586930D01*
X66205200Y-105586930D01*
X66205200Y-103390000D01*
X71043740Y-103390000D01*
X71126879Y-103807967D01*
X71363638Y-104162302D01*
X71717973Y-104399061D01*
X72135940Y-104482200D01*
X72664060Y-104482200D01*
X73082027Y-104399061D01*
X73436362Y-104162302D01*
X73670000Y-103812638D01*
X73903638Y-104162302D01*
X74257973Y-104399061D01*
X74675940Y-104482200D01*
X75204060Y-104482200D01*
X75622027Y-104399061D01*
X75976362Y-104162302D01*
X76213121Y-103807967D01*
X76296260Y-103390000D01*
X76213121Y-102972033D01*
X75976362Y-102617698D01*
X75622027Y-102380939D01*
X75204060Y-102297800D01*
X74675940Y-102297800D01*
X74257973Y-102380939D01*
X73903638Y-102617698D01*
X73670000Y-102967362D01*
X73436362Y-102617698D01*
X73082027Y-102380939D01*
X72664060Y-102297800D01*
X72135940Y-102297800D01*
X71717973Y-102380939D01*
X71363638Y-102617698D01*
X71126879Y-102972033D01*
X71043740Y-103390000D01*
X66205200Y-103390000D01*
X66205200Y-100850000D01*
X71043740Y-100850000D01*
X71126879Y-101267967D01*
X71363638Y-101622302D01*
X71717973Y-101859061D01*
X72135940Y-101942200D01*
X72664060Y-101942200D01*
X73082027Y-101859061D01*
X73436362Y-101622302D01*
X73670000Y-101272638D01*
X73903638Y-101622302D01*
X74257973Y-101859061D01*
X74675940Y-101942200D01*
X75204060Y-101942200D01*
X75622027Y-101859061D01*
X75976362Y-101622302D01*
X76213121Y-101267967D01*
X76296260Y-100850000D01*
X76213121Y-100432033D01*
X75976362Y-100077698D01*
X75622027Y-99840939D01*
X75204060Y-99757800D01*
X74675940Y-99757800D01*
X74257973Y-99840939D01*
X73903638Y-100077698D01*
X73670000Y-100427362D01*
X73436362Y-100077698D01*
X73082027Y-99840939D01*
X72664060Y-99757800D01*
X72135940Y-99757800D01*
X71717973Y-99840939D01*
X71363638Y-100077698D01*
X71126879Y-100432033D01*
X71043740Y-100850000D01*
X66205200Y-100850000D01*
X66205200Y-98310000D01*
X71043740Y-98310000D01*
X71126879Y-98727967D01*
X71363638Y-99082302D01*
X71717973Y-99319061D01*
X72135940Y-99402200D01*
X72664060Y-99402200D01*
X73082027Y-99319061D01*
X73436362Y-99082302D01*
X73670000Y-98732638D01*
X73903638Y-99082302D01*
X74257973Y-99319061D01*
X74675940Y-99402200D01*
X75204060Y-99402200D01*
X75622027Y-99319061D01*
X75976362Y-99082302D01*
X76213121Y-98727967D01*
X76296260Y-98310000D01*
X76213121Y-97892033D01*
X75976362Y-97537698D01*
X75622027Y-97300939D01*
X75204060Y-97217800D01*
X74675940Y-97217800D01*
X74257973Y-97300939D01*
X73903638Y-97537698D01*
X73670000Y-97887362D01*
X73436362Y-97537698D01*
X73082027Y-97300939D01*
X72664060Y-97217800D01*
X72135940Y-97217800D01*
X71717973Y-97300939D01*
X71363638Y-97537698D01*
X71126879Y-97892033D01*
X71043740Y-98310000D01*
X66205200Y-98310000D01*
X66205200Y-95770000D01*
X71043740Y-95770000D01*
X71126879Y-96187967D01*
X71363638Y-96542302D01*
X71717973Y-96779061D01*
X72135940Y-96862200D01*
X72664060Y-96862200D01*
X73082027Y-96779061D01*
X73436362Y-96542302D01*
X73670000Y-96192638D01*
X73903638Y-96542302D01*
X74257973Y-96779061D01*
X74675940Y-96862200D01*
X75204060Y-96862200D01*
X75622027Y-96779061D01*
X75976362Y-96542302D01*
X76213121Y-96187967D01*
X76296260Y-95770000D01*
X76213121Y-95352033D01*
X75976362Y-94997698D01*
X75622027Y-94760939D01*
X75204060Y-94677800D01*
X74675940Y-94677800D01*
X74257973Y-94760939D01*
X73903638Y-94997698D01*
X73670000Y-95347362D01*
X73436362Y-94997698D01*
X73082027Y-94760939D01*
X72664060Y-94677800D01*
X72135940Y-94677800D01*
X71717973Y-94760939D01*
X71363638Y-94997698D01*
X71126879Y-95352033D01*
X71043740Y-95770000D01*
X66205200Y-95770000D01*
X66205200Y-93573070D01*
X70807780Y-93573070D01*
X70824623Y-93665230D01*
X71092980Y-94143892D01*
X71524086Y-94483422D01*
X72052308Y-94632130D01*
X72273000Y-94473277D01*
X72273000Y-93357000D01*
X70930280Y-93357000D01*
X70807780Y-93573070D01*
X66205200Y-93573070D01*
X66205200Y-91033070D01*
X70807780Y-91033070D01*
X70824623Y-91125230D01*
X71092980Y-91603892D01*
X71524086Y-91943422D01*
X71582972Y-91960000D01*
X71524086Y-91976578D01*
X71092980Y-92316108D01*
X70824623Y-92794770D01*
X70807780Y-92886930D01*
X70930280Y-93103000D01*
X72273000Y-93103000D01*
X72273000Y-91986723D01*
X72235874Y-91960000D01*
X72273000Y-91933277D01*
X72273000Y-90817000D01*
X70930280Y-90817000D01*
X70807780Y-91033070D01*
X66205200Y-91033070D01*
X66205200Y-90346930D01*
X70807780Y-90346930D01*
X70930280Y-90563000D01*
X72273000Y-90563000D01*
X72273000Y-89446723D01*
X72527000Y-89446723D01*
X72527000Y-90563000D01*
X72547000Y-90563000D01*
X72547000Y-90817000D01*
X72527000Y-90817000D01*
X72527000Y-91933277D01*
X72564126Y-91960000D01*
X72527000Y-91986723D01*
X72527000Y-93103000D01*
X72547000Y-93103000D01*
X72547000Y-93357000D01*
X72527000Y-93357000D01*
X72527000Y-94473277D01*
X72747692Y-94632130D01*
X73275914Y-94483422D01*
X73707020Y-94143892D01*
X73839890Y-93906896D01*
X73903638Y-94002302D01*
X74257973Y-94239061D01*
X74675940Y-94322200D01*
X75204060Y-94322200D01*
X75622027Y-94239061D01*
X75976362Y-94002302D01*
X76213121Y-93647967D01*
X76296260Y-93230000D01*
X76213121Y-92812033D01*
X75976362Y-92457698D01*
X75622027Y-92220939D01*
X75204060Y-92137800D01*
X74675940Y-92137800D01*
X74257973Y-92220939D01*
X73903638Y-92457698D01*
X73839890Y-92553104D01*
X73707020Y-92316108D01*
X73275914Y-91976578D01*
X73217028Y-91960000D01*
X73275914Y-91943422D01*
X73707020Y-91603892D01*
X73839890Y-91366896D01*
X73903638Y-91462302D01*
X74257973Y-91699061D01*
X74675940Y-91782200D01*
X75204060Y-91782200D01*
X75622027Y-91699061D01*
X75976362Y-91462302D01*
X76213121Y-91107967D01*
X76296260Y-90690000D01*
X76213121Y-90272033D01*
X75976362Y-89917698D01*
X75622027Y-89680939D01*
X75204060Y-89597800D01*
X74675940Y-89597800D01*
X74257973Y-89680939D01*
X73903638Y-89917698D01*
X73839890Y-90013104D01*
X73707020Y-89776108D01*
X73275914Y-89436578D01*
X72747692Y-89287870D01*
X72527000Y-89446723D01*
X72273000Y-89446723D01*
X72052308Y-89287870D01*
X71524086Y-89436578D01*
X71092980Y-89776108D01*
X70824623Y-90254770D01*
X70807780Y-90346930D01*
X66205200Y-90346930D01*
X66205200Y-88150000D01*
X71043740Y-88150000D01*
X71126879Y-88567967D01*
X71363638Y-88922302D01*
X71717973Y-89159061D01*
X72135940Y-89242200D01*
X72664060Y-89242200D01*
X73082027Y-89159061D01*
X73436362Y-88922302D01*
X73670000Y-88572638D01*
X73903638Y-88922302D01*
X74257973Y-89159061D01*
X74675940Y-89242200D01*
X75204060Y-89242200D01*
X75622027Y-89159061D01*
X75976362Y-88922302D01*
X76213121Y-88567967D01*
X76296260Y-88150000D01*
X76213121Y-87732033D01*
X75976362Y-87377698D01*
X75622027Y-87140939D01*
X75204060Y-87057800D01*
X74675940Y-87057800D01*
X74257973Y-87140939D01*
X73903638Y-87377698D01*
X73670000Y-87727362D01*
X73436362Y-87377698D01*
X73082027Y-87140939D01*
X72664060Y-87057800D01*
X72135940Y-87057800D01*
X71717973Y-87140939D01*
X71363638Y-87377698D01*
X71126879Y-87732033D01*
X71043740Y-88150000D01*
X66205200Y-88150000D01*
X66205200Y-85610000D01*
X71043740Y-85610000D01*
X71126879Y-86027967D01*
X71363638Y-86382302D01*
X71717973Y-86619061D01*
X72135940Y-86702200D01*
X72664060Y-86702200D01*
X73082027Y-86619061D01*
X73436362Y-86382302D01*
X73670000Y-86032638D01*
X73903638Y-86382302D01*
X74257973Y-86619061D01*
X74675940Y-86702200D01*
X75204060Y-86702200D01*
X75622027Y-86619061D01*
X75976362Y-86382302D01*
X76213121Y-86027967D01*
X76296260Y-85610000D01*
X76213121Y-85192033D01*
X75976362Y-84837698D01*
X75622027Y-84600939D01*
X75204060Y-84517800D01*
X74675940Y-84517800D01*
X74257973Y-84600939D01*
X73903638Y-84837698D01*
X73670000Y-85187362D01*
X73436362Y-84837698D01*
X73082027Y-84600939D01*
X72664060Y-84517800D01*
X72135940Y-84517800D01*
X71717973Y-84600939D01*
X71363638Y-84837698D01*
X71126879Y-85192033D01*
X71043740Y-85610000D01*
X66205200Y-85610000D01*
X66205200Y-83413070D01*
X70807780Y-83413070D01*
X70824623Y-83505230D01*
X71092980Y-83983892D01*
X71524086Y-84323422D01*
X72052308Y-84472130D01*
X72273000Y-84313277D01*
X72273000Y-83197000D01*
X70930280Y-83197000D01*
X70807780Y-83413070D01*
X66205200Y-83413070D01*
X66205200Y-80873070D01*
X70807780Y-80873070D01*
X70824623Y-80965230D01*
X71092980Y-81443892D01*
X71524086Y-81783422D01*
X71582972Y-81800000D01*
X71524086Y-81816578D01*
X71092980Y-82156108D01*
X70824623Y-82634770D01*
X70807780Y-82726930D01*
X70930280Y-82943000D01*
X72273000Y-82943000D01*
X72273000Y-81826723D01*
X72235874Y-81800000D01*
X72273000Y-81773277D01*
X72273000Y-80657000D01*
X70930280Y-80657000D01*
X70807780Y-80873070D01*
X66205200Y-80873070D01*
X66205200Y-80186930D01*
X70807780Y-80186930D01*
X70930280Y-80403000D01*
X72273000Y-80403000D01*
X72273000Y-79286723D01*
X72527000Y-79286723D01*
X72527000Y-80403000D01*
X72547000Y-80403000D01*
X72547000Y-80657000D01*
X72527000Y-80657000D01*
X72527000Y-81773277D01*
X72564126Y-81800000D01*
X72527000Y-81826723D01*
X72527000Y-82943000D01*
X72547000Y-82943000D01*
X72547000Y-83197000D01*
X72527000Y-83197000D01*
X72527000Y-84313277D01*
X72747692Y-84472130D01*
X73275914Y-84323422D01*
X73707020Y-83983892D01*
X73839890Y-83746896D01*
X73903638Y-83842302D01*
X74257973Y-84079061D01*
X74675940Y-84162200D01*
X75204060Y-84162200D01*
X75622027Y-84079061D01*
X75976362Y-83842302D01*
X76213121Y-83487967D01*
X76296260Y-83070000D01*
X76213121Y-82652033D01*
X75976362Y-82297698D01*
X75622027Y-82060939D01*
X75204060Y-81977800D01*
X74675940Y-81977800D01*
X74257973Y-82060939D01*
X73903638Y-82297698D01*
X73839890Y-82393104D01*
X73707020Y-82156108D01*
X73275914Y-81816578D01*
X73217028Y-81800000D01*
X73275914Y-81783422D01*
X73707020Y-81443892D01*
X73839890Y-81206896D01*
X73903638Y-81302302D01*
X74257973Y-81539061D01*
X74675940Y-81622200D01*
X75204060Y-81622200D01*
X75622027Y-81539061D01*
X75976362Y-81302302D01*
X76213121Y-80947967D01*
X76296260Y-80530000D01*
X76213121Y-80112033D01*
X75976362Y-79757698D01*
X75622027Y-79520939D01*
X75204060Y-79437800D01*
X74675940Y-79437800D01*
X74257973Y-79520939D01*
X73903638Y-79757698D01*
X73839890Y-79853104D01*
X73707020Y-79616108D01*
X73275914Y-79276578D01*
X72747692Y-79127870D01*
X72527000Y-79286723D01*
X72273000Y-79286723D01*
X72052308Y-79127870D01*
X71524086Y-79276578D01*
X71092980Y-79616108D01*
X70824623Y-80094770D01*
X70807780Y-80186930D01*
X66205200Y-80186930D01*
X66205200Y-77990000D01*
X71043740Y-77990000D01*
X71126879Y-78407967D01*
X71363638Y-78762302D01*
X71717973Y-78999061D01*
X72135940Y-79082200D01*
X72664060Y-79082200D01*
X73082027Y-78999061D01*
X73436362Y-78762302D01*
X73670000Y-78412638D01*
X73903638Y-78762302D01*
X74257973Y-78999061D01*
X74675940Y-79082200D01*
X75204060Y-79082200D01*
X75622027Y-78999061D01*
X75976362Y-78762302D01*
X76213121Y-78407967D01*
X76296260Y-77990000D01*
X76213121Y-77572033D01*
X75976362Y-77217698D01*
X75622027Y-76980939D01*
X75204060Y-76897800D01*
X74675940Y-76897800D01*
X74257973Y-76980939D01*
X73903638Y-77217698D01*
X73670000Y-77567362D01*
X73436362Y-77217698D01*
X73082027Y-76980939D01*
X72664060Y-76897800D01*
X72135940Y-76897800D01*
X71717973Y-76980939D01*
X71363638Y-77217698D01*
X71126879Y-77572033D01*
X71043740Y-77990000D01*
X66205200Y-77990000D01*
X66205200Y-75793070D01*
X70807780Y-75793070D01*
X70824623Y-75885230D01*
X71092980Y-76363892D01*
X71524086Y-76703422D01*
X72052308Y-76852130D01*
X72273000Y-76693277D01*
X72273000Y-75577000D01*
X70930280Y-75577000D01*
X70807780Y-75793070D01*
X66205200Y-75793070D01*
X66205200Y-73253070D01*
X70807780Y-73253070D01*
X70824623Y-73345230D01*
X71092980Y-73823892D01*
X71524086Y-74163422D01*
X71582972Y-74180000D01*
X71524086Y-74196578D01*
X71092980Y-74536108D01*
X70824623Y-75014770D01*
X70807780Y-75106930D01*
X70930280Y-75323000D01*
X72273000Y-75323000D01*
X72273000Y-74206723D01*
X72235874Y-74180000D01*
X72273000Y-74153277D01*
X72273000Y-73037000D01*
X70930280Y-73037000D01*
X70807780Y-73253070D01*
X66205200Y-73253070D01*
X66205200Y-72566930D01*
X70807780Y-72566930D01*
X70930280Y-72783000D01*
X72273000Y-72783000D01*
X72273000Y-71666723D01*
X72527000Y-71666723D01*
X72527000Y-72783000D01*
X72547000Y-72783000D01*
X72547000Y-73037000D01*
X72527000Y-73037000D01*
X72527000Y-74153277D01*
X72564126Y-74180000D01*
X72527000Y-74206723D01*
X72527000Y-75323000D01*
X72547000Y-75323000D01*
X72547000Y-75577000D01*
X72527000Y-75577000D01*
X72527000Y-76693277D01*
X72747692Y-76852130D01*
X73275914Y-76703422D01*
X73707020Y-76363892D01*
X73839890Y-76126896D01*
X73903638Y-76222302D01*
X74257973Y-76459061D01*
X74675940Y-76542200D01*
X75204060Y-76542200D01*
X75622027Y-76459061D01*
X75976362Y-76222302D01*
X76213121Y-75867967D01*
X76296260Y-75450000D01*
X76213121Y-75032033D01*
X75976362Y-74677698D01*
X75622027Y-74440939D01*
X75204060Y-74357800D01*
X74675940Y-74357800D01*
X74257973Y-74440939D01*
X73903638Y-74677698D01*
X73839890Y-74773104D01*
X73707020Y-74536108D01*
X73275914Y-74196578D01*
X73217028Y-74180000D01*
X73275914Y-74163422D01*
X73707020Y-73823892D01*
X73839890Y-73586896D01*
X73903638Y-73682302D01*
X74257973Y-73919061D01*
X74675940Y-74002200D01*
X75204060Y-74002200D01*
X75622027Y-73919061D01*
X75976362Y-73682302D01*
X76213121Y-73327967D01*
X76296260Y-72910000D01*
X76213121Y-72492033D01*
X75976362Y-72137698D01*
X75622027Y-71900939D01*
X75204060Y-71817800D01*
X74675940Y-71817800D01*
X74257973Y-71900939D01*
X73903638Y-72137698D01*
X73839890Y-72233104D01*
X73707020Y-71996108D01*
X73275914Y-71656578D01*
X72747692Y-71507870D01*
X72527000Y-71666723D01*
X72273000Y-71666723D01*
X72052308Y-71507870D01*
X71524086Y-71656578D01*
X71092980Y-71996108D01*
X70824623Y-72474770D01*
X70807780Y-72566930D01*
X66205200Y-72566930D01*
X66205200Y-70370000D01*
X71043740Y-70370000D01*
X71126879Y-70787967D01*
X71363638Y-71142302D01*
X71717973Y-71379061D01*
X72135940Y-71462200D01*
X72664060Y-71462200D01*
X73082027Y-71379061D01*
X73436362Y-71142302D01*
X73670000Y-70792638D01*
X73903638Y-71142302D01*
X74257973Y-71379061D01*
X74675940Y-71462200D01*
X75204060Y-71462200D01*
X75622027Y-71379061D01*
X75976362Y-71142302D01*
X76213121Y-70787967D01*
X76296260Y-70370000D01*
X76213121Y-69952033D01*
X75976362Y-69597698D01*
X75622027Y-69360939D01*
X75204060Y-69277800D01*
X74675940Y-69277800D01*
X74257973Y-69360939D01*
X73903638Y-69597698D01*
X73670000Y-69947362D01*
X73436362Y-69597698D01*
X73082027Y-69360939D01*
X72664060Y-69277800D01*
X72135940Y-69277800D01*
X71717973Y-69360939D01*
X71363638Y-69597698D01*
X71126879Y-69952033D01*
X71043740Y-70370000D01*
X66205200Y-70370000D01*
X66205200Y-68173070D01*
X70807780Y-68173070D01*
X70824623Y-68265230D01*
X71092980Y-68743892D01*
X71524086Y-69083422D01*
X72052308Y-69232130D01*
X72273000Y-69073277D01*
X72273000Y-67957000D01*
X70930280Y-67957000D01*
X70807780Y-68173070D01*
X66205200Y-68173070D01*
X66205200Y-65633070D01*
X70807780Y-65633070D01*
X70824623Y-65725230D01*
X71092980Y-66203892D01*
X71524086Y-66543422D01*
X71582972Y-66560000D01*
X71524086Y-66576578D01*
X71092980Y-66916108D01*
X70824623Y-67394770D01*
X70807780Y-67486930D01*
X70930280Y-67703000D01*
X72273000Y-67703000D01*
X72273000Y-66586723D01*
X72235874Y-66560000D01*
X72273000Y-66533277D01*
X72273000Y-65417000D01*
X70930280Y-65417000D01*
X70807780Y-65633070D01*
X66205200Y-65633070D01*
X66205200Y-63093070D01*
X70807780Y-63093070D01*
X70824623Y-63185230D01*
X71092980Y-63663892D01*
X71524086Y-64003422D01*
X71582972Y-64020000D01*
X71524086Y-64036578D01*
X71092980Y-64376108D01*
X70824623Y-64854770D01*
X70807780Y-64946930D01*
X70930280Y-65163000D01*
X72273000Y-65163000D01*
X72273000Y-64046723D01*
X72235874Y-64020000D01*
X72273000Y-63993277D01*
X72273000Y-62877000D01*
X70930280Y-62877000D01*
X70807780Y-63093070D01*
X66205200Y-63093070D01*
X66205200Y-62406930D01*
X70807780Y-62406930D01*
X70930280Y-62623000D01*
X72273000Y-62623000D01*
X72273000Y-61506723D01*
X72527000Y-61506723D01*
X72527000Y-62623000D01*
X72547000Y-62623000D01*
X72547000Y-62877000D01*
X72527000Y-62877000D01*
X72527000Y-63993277D01*
X72564126Y-64020000D01*
X72527000Y-64046723D01*
X72527000Y-65163000D01*
X72547000Y-65163000D01*
X72547000Y-65417000D01*
X72527000Y-65417000D01*
X72527000Y-66533277D01*
X72564126Y-66560000D01*
X72527000Y-66586723D01*
X72527000Y-67703000D01*
X72547000Y-67703000D01*
X72547000Y-67957000D01*
X72527000Y-67957000D01*
X72527000Y-69073277D01*
X72747692Y-69232130D01*
X73275914Y-69083422D01*
X73707020Y-68743892D01*
X73839890Y-68506896D01*
X73903638Y-68602302D01*
X74257973Y-68839061D01*
X74675940Y-68922200D01*
X75204060Y-68922200D01*
X75622027Y-68839061D01*
X75976362Y-68602302D01*
X76213121Y-68247967D01*
X76296260Y-67830000D01*
X76213121Y-67412033D01*
X75976362Y-67057698D01*
X75622027Y-66820939D01*
X75204060Y-66737800D01*
X74675940Y-66737800D01*
X74257973Y-66820939D01*
X73903638Y-67057698D01*
X73839890Y-67153104D01*
X73707020Y-66916108D01*
X73275914Y-66576578D01*
X73217028Y-66560000D01*
X73275914Y-66543422D01*
X73707020Y-66203892D01*
X73839890Y-65966896D01*
X73903638Y-66062302D01*
X74257973Y-66299061D01*
X74675940Y-66382200D01*
X75204060Y-66382200D01*
X75622027Y-66299061D01*
X75976362Y-66062302D01*
X76213121Y-65707967D01*
X76296260Y-65290000D01*
X76213121Y-64872033D01*
X75976362Y-64517698D01*
X75622027Y-64280939D01*
X75204060Y-64197800D01*
X74675940Y-64197800D01*
X74257973Y-64280939D01*
X73903638Y-64517698D01*
X73839890Y-64613104D01*
X73707020Y-64376108D01*
X73275914Y-64036578D01*
X73217028Y-64020000D01*
X73275914Y-64003422D01*
X73707020Y-63663892D01*
X73839890Y-63426896D01*
X73903638Y-63522302D01*
X74257973Y-63759061D01*
X74675940Y-63842200D01*
X75204060Y-63842200D01*
X75622027Y-63759061D01*
X75976362Y-63522302D01*
X76213121Y-63167967D01*
X76296260Y-62750000D01*
X76213121Y-62332033D01*
X75976362Y-61977698D01*
X75622027Y-61740939D01*
X75204060Y-61657800D01*
X74675940Y-61657800D01*
X74257973Y-61740939D01*
X73903638Y-61977698D01*
X73839890Y-62073104D01*
X73707020Y-61836108D01*
X73275914Y-61496578D01*
X72747692Y-61347870D01*
X72527000Y-61506723D01*
X72273000Y-61506723D01*
X72052308Y-61347870D01*
X71524086Y-61496578D01*
X71092980Y-61836108D01*
X70824623Y-62314770D01*
X70807780Y-62406930D01*
X66205200Y-62406930D01*
X66205200Y-59448000D01*
X71063331Y-59448000D01*
X71063331Y-60972000D01*
X71086356Y-61094365D01*
X71158673Y-61206749D01*
X71269017Y-61282144D01*
X71400000Y-61308669D01*
X73400000Y-61308669D01*
X73522365Y-61285644D01*
X73634749Y-61213327D01*
X73710144Y-61102983D01*
X73736669Y-60972000D01*
X73736669Y-60732415D01*
X73903638Y-60982302D01*
X74257973Y-61219061D01*
X74675940Y-61302200D01*
X75204060Y-61302200D01*
X75622027Y-61219061D01*
X75976362Y-60982302D01*
X76102048Y-60794200D01*
X83251673Y-60794200D01*
X84912897Y-62455424D01*
X84912897Y-82447097D01*
X84957367Y-82670661D01*
X85063242Y-82829115D01*
X85084005Y-82860189D01*
X85669803Y-83445987D01*
X85669656Y-83614413D01*
X85795780Y-83919656D01*
X86029115Y-84153399D01*
X86334138Y-84280056D01*
X86664413Y-84280344D01*
X86969656Y-84154220D01*
X87203399Y-83920885D01*
X87330056Y-83615862D01*
X87330188Y-83464413D01*
X130162540Y-83464413D01*
X130288664Y-83769656D01*
X130521999Y-84003399D01*
X130827022Y-84130056D01*
X131157297Y-84130344D01*
X131462540Y-84004220D01*
X131696283Y-83770885D01*
X131822940Y-83465862D01*
X131823088Y-83295980D01*
X132049068Y-83070000D01*
X142163740Y-83070000D01*
X142246879Y-83487967D01*
X142483638Y-83842302D01*
X142837973Y-84079061D01*
X143255940Y-84162200D01*
X143784060Y-84162200D01*
X144202027Y-84079061D01*
X144556362Y-83842302D01*
X144620110Y-83746896D01*
X144752980Y-83983892D01*
X145184086Y-84323422D01*
X145242972Y-84340000D01*
X145184086Y-84356578D01*
X144752980Y-84696108D01*
X144620110Y-84933104D01*
X144556362Y-84837698D01*
X144202027Y-84600939D01*
X143784060Y-84517800D01*
X143255940Y-84517800D01*
X142837973Y-84600939D01*
X142483638Y-84837698D01*
X142246879Y-85192033D01*
X142163740Y-85610000D01*
X142246879Y-86027967D01*
X142483638Y-86382302D01*
X142837973Y-86619061D01*
X143255940Y-86702200D01*
X143784060Y-86702200D01*
X144202027Y-86619061D01*
X144556362Y-86382302D01*
X144620110Y-86286896D01*
X144752980Y-86523892D01*
X145184086Y-86863422D01*
X145242972Y-86880000D01*
X145184086Y-86896578D01*
X144752980Y-87236108D01*
X144620110Y-87473104D01*
X144556362Y-87377698D01*
X144202027Y-87140939D01*
X143784060Y-87057800D01*
X143255940Y-87057800D01*
X142837973Y-87140939D01*
X142483638Y-87377698D01*
X142246879Y-87732033D01*
X142163740Y-88150000D01*
X142246879Y-88567967D01*
X142483638Y-88922302D01*
X142837973Y-89159061D01*
X143255940Y-89242200D01*
X143784060Y-89242200D01*
X144202027Y-89159061D01*
X144556362Y-88922302D01*
X144620110Y-88826896D01*
X144752980Y-89063892D01*
X145184086Y-89403422D01*
X145242972Y-89420000D01*
X145184086Y-89436578D01*
X144752980Y-89776108D01*
X144620110Y-90013104D01*
X144556362Y-89917698D01*
X144202027Y-89680939D01*
X143784060Y-89597800D01*
X143255940Y-89597800D01*
X142837973Y-89680939D01*
X142483638Y-89917698D01*
X142246879Y-90272033D01*
X142163740Y-90690000D01*
X142246879Y-91107967D01*
X142483638Y-91462302D01*
X142837973Y-91699061D01*
X143255940Y-91782200D01*
X143784060Y-91782200D01*
X144202027Y-91699061D01*
X144556362Y-91462302D01*
X144620110Y-91366896D01*
X144752980Y-91603892D01*
X145184086Y-91943422D01*
X145242972Y-91960000D01*
X145184086Y-91976578D01*
X144752980Y-92316108D01*
X144620110Y-92553104D01*
X144556362Y-92457698D01*
X144202027Y-92220939D01*
X143784060Y-92137800D01*
X143255940Y-92137800D01*
X142837973Y-92220939D01*
X142483638Y-92457698D01*
X142246879Y-92812033D01*
X142163740Y-93230000D01*
X142246879Y-93647967D01*
X142483638Y-94002302D01*
X142837973Y-94239061D01*
X143255940Y-94322200D01*
X143784060Y-94322200D01*
X144202027Y-94239061D01*
X144556362Y-94002302D01*
X144620110Y-93906896D01*
X144752980Y-94143892D01*
X145184086Y-94483422D01*
X145242972Y-94500000D01*
X145184086Y-94516578D01*
X144752980Y-94856108D01*
X144620110Y-95093104D01*
X144556362Y-94997698D01*
X144202027Y-94760939D01*
X143784060Y-94677800D01*
X143255940Y-94677800D01*
X142837973Y-94760939D01*
X142483638Y-94997698D01*
X142246879Y-95352033D01*
X142163740Y-95770000D01*
X142246879Y-96187967D01*
X142483638Y-96542302D01*
X142837973Y-96779061D01*
X143255940Y-96862200D01*
X143784060Y-96862200D01*
X144202027Y-96779061D01*
X144556362Y-96542302D01*
X144620110Y-96446896D01*
X144752980Y-96683892D01*
X145184086Y-97023422D01*
X145242972Y-97040000D01*
X145184086Y-97056578D01*
X144752980Y-97396108D01*
X144620110Y-97633104D01*
X144556362Y-97537698D01*
X144202027Y-97300939D01*
X143784060Y-97217800D01*
X143255940Y-97217800D01*
X142837973Y-97300939D01*
X142483638Y-97537698D01*
X142246879Y-97892033D01*
X142163740Y-98310000D01*
X142246879Y-98727967D01*
X142483638Y-99082302D01*
X142837973Y-99319061D01*
X143255940Y-99402200D01*
X143784060Y-99402200D01*
X144202027Y-99319061D01*
X144556362Y-99082302D01*
X144620110Y-98986896D01*
X144752980Y-99223892D01*
X145184086Y-99563422D01*
X145712308Y-99712130D01*
X145933000Y-99553277D01*
X145933000Y-98437000D01*
X146187000Y-98437000D01*
X146187000Y-99553277D01*
X146407692Y-99712130D01*
X146935914Y-99563422D01*
X147367020Y-99223892D01*
X147635377Y-98745230D01*
X147652220Y-98653070D01*
X147529720Y-98437000D01*
X146187000Y-98437000D01*
X145933000Y-98437000D01*
X145913000Y-98437000D01*
X145913000Y-98183000D01*
X145933000Y-98183000D01*
X145933000Y-97066723D01*
X145895874Y-97040000D01*
X145933000Y-97013277D01*
X145933000Y-95897000D01*
X146187000Y-95897000D01*
X146187000Y-97013277D01*
X146224126Y-97040000D01*
X146187000Y-97066723D01*
X146187000Y-98183000D01*
X147529720Y-98183000D01*
X147652220Y-97966930D01*
X147635377Y-97874770D01*
X147367020Y-97396108D01*
X146935914Y-97056578D01*
X146877028Y-97040000D01*
X146935914Y-97023422D01*
X147367020Y-96683892D01*
X147635377Y-96205230D01*
X147652220Y-96113070D01*
X147529720Y-95897000D01*
X146187000Y-95897000D01*
X145933000Y-95897000D01*
X145913000Y-95897000D01*
X145913000Y-95643000D01*
X145933000Y-95643000D01*
X145933000Y-94526723D01*
X145895874Y-94500000D01*
X145933000Y-94473277D01*
X145933000Y-93357000D01*
X146187000Y-93357000D01*
X146187000Y-94473277D01*
X146224126Y-94500000D01*
X146187000Y-94526723D01*
X146187000Y-95643000D01*
X147529720Y-95643000D01*
X147652220Y-95426930D01*
X147635377Y-95334770D01*
X147367020Y-94856108D01*
X146935914Y-94516578D01*
X146877028Y-94500000D01*
X146935914Y-94483422D01*
X147367020Y-94143892D01*
X147635377Y-93665230D01*
X147652220Y-93573070D01*
X147529720Y-93357000D01*
X146187000Y-93357000D01*
X145933000Y-93357000D01*
X145913000Y-93357000D01*
X145913000Y-93103000D01*
X145933000Y-93103000D01*
X145933000Y-91986723D01*
X145895874Y-91960000D01*
X145933000Y-91933277D01*
X145933000Y-90817000D01*
X146187000Y-90817000D01*
X146187000Y-91933277D01*
X146224126Y-91960000D01*
X146187000Y-91986723D01*
X146187000Y-93103000D01*
X147529720Y-93103000D01*
X147652220Y-92886930D01*
X147635377Y-92794770D01*
X147367020Y-92316108D01*
X146935914Y-91976578D01*
X146877028Y-91960000D01*
X146935914Y-91943422D01*
X147367020Y-91603892D01*
X147635377Y-91125230D01*
X147652220Y-91033070D01*
X147529720Y-90817000D01*
X146187000Y-90817000D01*
X145933000Y-90817000D01*
X145913000Y-90817000D01*
X145913000Y-90563000D01*
X145933000Y-90563000D01*
X145933000Y-89446723D01*
X145895874Y-89420000D01*
X145933000Y-89393277D01*
X145933000Y-88277000D01*
X146187000Y-88277000D01*
X146187000Y-89393277D01*
X146224126Y-89420000D01*
X146187000Y-89446723D01*
X146187000Y-90563000D01*
X147529720Y-90563000D01*
X147652220Y-90346930D01*
X147635377Y-90254770D01*
X147367020Y-89776108D01*
X146935914Y-89436578D01*
X146877028Y-89420000D01*
X146935914Y-89403422D01*
X147367020Y-89063892D01*
X147635377Y-88585230D01*
X147652220Y-88493070D01*
X147529720Y-88277000D01*
X146187000Y-88277000D01*
X145933000Y-88277000D01*
X145913000Y-88277000D01*
X145913000Y-88023000D01*
X145933000Y-88023000D01*
X145933000Y-86906723D01*
X145895874Y-86880000D01*
X145933000Y-86853277D01*
X145933000Y-85737000D01*
X146187000Y-85737000D01*
X146187000Y-86853277D01*
X146224126Y-86880000D01*
X146187000Y-86906723D01*
X146187000Y-88023000D01*
X147529720Y-88023000D01*
X147652220Y-87806930D01*
X147635377Y-87714770D01*
X147367020Y-87236108D01*
X146935914Y-86896578D01*
X146877028Y-86880000D01*
X146935914Y-86863422D01*
X147367020Y-86523892D01*
X147635377Y-86045230D01*
X147652220Y-85953070D01*
X147529720Y-85737000D01*
X146187000Y-85737000D01*
X145933000Y-85737000D01*
X145913000Y-85737000D01*
X145913000Y-85483000D01*
X145933000Y-85483000D01*
X145933000Y-84366723D01*
X145895874Y-84340000D01*
X145933000Y-84313277D01*
X145933000Y-83197000D01*
X146187000Y-83197000D01*
X146187000Y-84313277D01*
X146224126Y-84340000D01*
X146187000Y-84366723D01*
X146187000Y-85483000D01*
X147529720Y-85483000D01*
X147652220Y-85266930D01*
X147635377Y-85174770D01*
X147367020Y-84696108D01*
X146935914Y-84356578D01*
X146877028Y-84340000D01*
X146935914Y-84323422D01*
X147367020Y-83983892D01*
X147635377Y-83505230D01*
X147652220Y-83413070D01*
X147529720Y-83197000D01*
X146187000Y-83197000D01*
X145933000Y-83197000D01*
X145913000Y-83197000D01*
X145913000Y-82943000D01*
X145933000Y-82943000D01*
X145933000Y-81826723D01*
X146187000Y-81826723D01*
X146187000Y-82943000D01*
X147529720Y-82943000D01*
X147652220Y-82726930D01*
X147635377Y-82634770D01*
X147367020Y-82156108D01*
X146935914Y-81816578D01*
X146407692Y-81667870D01*
X146187000Y-81826723D01*
X145933000Y-81826723D01*
X145712308Y-81667870D01*
X145184086Y-81816578D01*
X144752980Y-82156108D01*
X144620110Y-82393104D01*
X144556362Y-82297698D01*
X144202027Y-82060939D01*
X143784060Y-81977800D01*
X143255940Y-81977800D01*
X142837973Y-82060939D01*
X142483638Y-82297698D01*
X142246879Y-82652033D01*
X142163740Y-83070000D01*
X132049068Y-83070000D01*
X132325479Y-82793589D01*
X132452118Y-82604060D01*
X132496588Y-82380497D01*
X132496587Y-82380492D01*
X132496587Y-80530000D01*
X142163740Y-80530000D01*
X142246879Y-80947967D01*
X142483638Y-81302302D01*
X142837973Y-81539061D01*
X143255940Y-81622200D01*
X143784060Y-81622200D01*
X144202027Y-81539061D01*
X144556362Y-81302302D01*
X144790000Y-80952638D01*
X145023638Y-81302302D01*
X145377973Y-81539061D01*
X145795940Y-81622200D01*
X146324060Y-81622200D01*
X146742027Y-81539061D01*
X147096362Y-81302302D01*
X147333121Y-80947967D01*
X147416260Y-80530000D01*
X147333121Y-80112033D01*
X147096362Y-79757698D01*
X146742027Y-79520939D01*
X146324060Y-79437800D01*
X145795940Y-79437800D01*
X145377973Y-79520939D01*
X145023638Y-79757698D01*
X144790000Y-80107362D01*
X144556362Y-79757698D01*
X144202027Y-79520939D01*
X143784060Y-79437800D01*
X143255940Y-79437800D01*
X142837973Y-79520939D01*
X142483638Y-79757698D01*
X142246879Y-80112033D01*
X142163740Y-80530000D01*
X132496587Y-80530000D01*
X132496587Y-77990000D01*
X142163740Y-77990000D01*
X142246879Y-78407967D01*
X142483638Y-78762302D01*
X142837973Y-78999061D01*
X143255940Y-79082200D01*
X143784060Y-79082200D01*
X144202027Y-78999061D01*
X144556362Y-78762302D01*
X144790000Y-78412638D01*
X145023638Y-78762302D01*
X145377973Y-78999061D01*
X145795940Y-79082200D01*
X146324060Y-79082200D01*
X146742027Y-78999061D01*
X147096362Y-78762302D01*
X147333121Y-78407967D01*
X147416260Y-77990000D01*
X147333121Y-77572033D01*
X147096362Y-77217698D01*
X146742027Y-76980939D01*
X146324060Y-76897800D01*
X145795940Y-76897800D01*
X145377973Y-76980939D01*
X145023638Y-77217698D01*
X144790000Y-77567362D01*
X144556362Y-77217698D01*
X144202027Y-76980939D01*
X143784060Y-76897800D01*
X143255940Y-76897800D01*
X142837973Y-76980939D01*
X142483638Y-77217698D01*
X142246879Y-77572033D01*
X142163740Y-77990000D01*
X132496587Y-77990000D01*
X132496587Y-75450000D01*
X142163740Y-75450000D01*
X142246879Y-75867967D01*
X142483638Y-76222302D01*
X142837973Y-76459061D01*
X143255940Y-76542200D01*
X143784060Y-76542200D01*
X144202027Y-76459061D01*
X144556362Y-76222302D01*
X144790000Y-75872638D01*
X145023638Y-76222302D01*
X145377973Y-76459061D01*
X145795940Y-76542200D01*
X146324060Y-76542200D01*
X146742027Y-76459061D01*
X147096362Y-76222302D01*
X147333121Y-75867967D01*
X147416260Y-75450000D01*
X147333121Y-75032033D01*
X147096362Y-74677698D01*
X146742027Y-74440939D01*
X146324060Y-74357800D01*
X145795940Y-74357800D01*
X145377973Y-74440939D01*
X145023638Y-74677698D01*
X144790000Y-75027362D01*
X144556362Y-74677698D01*
X144202027Y-74440939D01*
X143784060Y-74357800D01*
X143255940Y-74357800D01*
X142837973Y-74440939D01*
X142483638Y-74677698D01*
X142246879Y-75032033D01*
X142163740Y-75450000D01*
X132496587Y-75450000D01*
X132496587Y-72910000D01*
X142163740Y-72910000D01*
X142246879Y-73327967D01*
X142483638Y-73682302D01*
X142837973Y-73919061D01*
X143255940Y-74002200D01*
X143784060Y-74002200D01*
X144202027Y-73919061D01*
X144556362Y-73682302D01*
X144790000Y-73332638D01*
X145023638Y-73682302D01*
X145377973Y-73919061D01*
X145795940Y-74002200D01*
X146324060Y-74002200D01*
X146742027Y-73919061D01*
X147096362Y-73682302D01*
X147333121Y-73327967D01*
X147416260Y-72910000D01*
X147333121Y-72492033D01*
X147096362Y-72137698D01*
X146742027Y-71900939D01*
X146324060Y-71817800D01*
X145795940Y-71817800D01*
X145377973Y-71900939D01*
X145023638Y-72137698D01*
X144790000Y-72487362D01*
X144556362Y-72137698D01*
X144202027Y-71900939D01*
X143784060Y-71817800D01*
X143255940Y-71817800D01*
X142837973Y-71900939D01*
X142483638Y-72137698D01*
X142246879Y-72492033D01*
X142163740Y-72910000D01*
X132496587Y-72910000D01*
X132496587Y-70370000D01*
X142163740Y-70370000D01*
X142246879Y-70787967D01*
X142483638Y-71142302D01*
X142837973Y-71379061D01*
X143255940Y-71462200D01*
X143784060Y-71462200D01*
X144202027Y-71379061D01*
X144556362Y-71142302D01*
X144790000Y-70792638D01*
X145023638Y-71142302D01*
X145377973Y-71379061D01*
X145795940Y-71462200D01*
X146324060Y-71462200D01*
X146742027Y-71379061D01*
X147096362Y-71142302D01*
X147333121Y-70787967D01*
X147416260Y-70370000D01*
X147333121Y-69952033D01*
X147096362Y-69597698D01*
X146742027Y-69360939D01*
X146324060Y-69277800D01*
X145795940Y-69277800D01*
X145377973Y-69360939D01*
X145023638Y-69597698D01*
X144790000Y-69947362D01*
X144556362Y-69597698D01*
X144202027Y-69360939D01*
X143784060Y-69277800D01*
X143255940Y-69277800D01*
X142837973Y-69360939D01*
X142483638Y-69597698D01*
X142246879Y-69952033D01*
X142163740Y-70370000D01*
X132496587Y-70370000D01*
X132496587Y-67830000D01*
X142163740Y-67830000D01*
X142246879Y-68247967D01*
X142483638Y-68602302D01*
X142837973Y-68839061D01*
X143255940Y-68922200D01*
X143784060Y-68922200D01*
X144202027Y-68839061D01*
X144556362Y-68602302D01*
X144790000Y-68252638D01*
X145023638Y-68602302D01*
X145377973Y-68839061D01*
X145795940Y-68922200D01*
X146324060Y-68922200D01*
X146742027Y-68839061D01*
X147096362Y-68602302D01*
X147333121Y-68247967D01*
X147416260Y-67830000D01*
X147333121Y-67412033D01*
X147096362Y-67057698D01*
X146742027Y-66820939D01*
X146324060Y-66737800D01*
X145795940Y-66737800D01*
X145377973Y-66820939D01*
X145023638Y-67057698D01*
X144790000Y-67407362D01*
X144556362Y-67057698D01*
X144202027Y-66820939D01*
X143784060Y-66737800D01*
X143255940Y-66737800D01*
X142837973Y-66820939D01*
X142483638Y-67057698D01*
X142246879Y-67412033D01*
X142163740Y-67830000D01*
X132496587Y-67830000D01*
X132496587Y-65290000D01*
X142163740Y-65290000D01*
X142246879Y-65707967D01*
X142483638Y-66062302D01*
X142837973Y-66299061D01*
X143255940Y-66382200D01*
X143784060Y-66382200D01*
X144202027Y-66299061D01*
X144556362Y-66062302D01*
X144790000Y-65712638D01*
X145023638Y-66062302D01*
X145377973Y-66299061D01*
X145795940Y-66382200D01*
X146324060Y-66382200D01*
X146742027Y-66299061D01*
X147096362Y-66062302D01*
X147333121Y-65707967D01*
X147416260Y-65290000D01*
X147333121Y-64872033D01*
X147096362Y-64517698D01*
X146742027Y-64280939D01*
X146324060Y-64197800D01*
X145795940Y-64197800D01*
X145377973Y-64280939D01*
X145023638Y-64517698D01*
X144790000Y-64867362D01*
X144556362Y-64517698D01*
X144202027Y-64280939D01*
X143784060Y-64197800D01*
X143255940Y-64197800D01*
X142837973Y-64280939D01*
X142483638Y-64517698D01*
X142246879Y-64872033D01*
X142163740Y-65290000D01*
X132496587Y-65290000D01*
X132496587Y-62750000D01*
X142163740Y-62750000D01*
X142246879Y-63167967D01*
X142483638Y-63522302D01*
X142837973Y-63759061D01*
X143255940Y-63842200D01*
X143784060Y-63842200D01*
X144202027Y-63759061D01*
X144556362Y-63522302D01*
X144620110Y-63426896D01*
X144752980Y-63663892D01*
X145184086Y-64003422D01*
X145712308Y-64152130D01*
X145933000Y-63993277D01*
X145933000Y-62877000D01*
X146187000Y-62877000D01*
X146187000Y-63993277D01*
X146407692Y-64152130D01*
X146935914Y-64003422D01*
X147367020Y-63663892D01*
X147635377Y-63185230D01*
X147652220Y-63093070D01*
X147529720Y-62877000D01*
X146187000Y-62877000D01*
X145933000Y-62877000D01*
X145913000Y-62877000D01*
X145913000Y-62623000D01*
X145933000Y-62623000D01*
X145933000Y-61506723D01*
X146187000Y-61506723D01*
X146187000Y-62623000D01*
X147529720Y-62623000D01*
X147652220Y-62406930D01*
X147635377Y-62314770D01*
X147367020Y-61836108D01*
X146935914Y-61496578D01*
X146407692Y-61347870D01*
X146187000Y-61506723D01*
X145933000Y-61506723D01*
X145712308Y-61347870D01*
X145184086Y-61496578D01*
X144752980Y-61836108D01*
X144620110Y-62073104D01*
X144556362Y-61977698D01*
X144202027Y-61740939D01*
X143784060Y-61657800D01*
X143255940Y-61657800D01*
X142837973Y-61740939D01*
X142483638Y-61977698D01*
X142246879Y-62332033D01*
X142163740Y-62750000D01*
X132496587Y-62750000D01*
X132496587Y-60606536D01*
X135168923Y-57934200D01*
X144795023Y-57934200D01*
X145460450Y-58599627D01*
X145460450Y-59184533D01*
X145377973Y-59200939D01*
X145023638Y-59437698D01*
X144856669Y-59687585D01*
X144856669Y-59448000D01*
X144833644Y-59325635D01*
X144761327Y-59213251D01*
X144650983Y-59137856D01*
X144520000Y-59111331D01*
X142520000Y-59111331D01*
X142397635Y-59134356D01*
X142285251Y-59206673D01*
X142209856Y-59317017D01*
X142183331Y-59448000D01*
X142183331Y-60972000D01*
X142206356Y-61094365D01*
X142278673Y-61206749D01*
X142389017Y-61282144D01*
X142520000Y-61308669D01*
X144520000Y-61308669D01*
X144642365Y-61285644D01*
X144754749Y-61213327D01*
X144830144Y-61102983D01*
X144856669Y-60972000D01*
X144856669Y-60732415D01*
X145023638Y-60982302D01*
X145377973Y-61219061D01*
X145795940Y-61302200D01*
X146324060Y-61302200D01*
X146742027Y-61219061D01*
X147096362Y-60982302D01*
X147333121Y-60627967D01*
X147416260Y-60210000D01*
X147333121Y-59792033D01*
X147096362Y-59437698D01*
X146742027Y-59200939D01*
X146628850Y-59178427D01*
X146628850Y-58357643D01*
X146584380Y-58134079D01*
X146457742Y-57944551D01*
X145450099Y-56936908D01*
X145260571Y-56810270D01*
X145037007Y-56765800D01*
X134926939Y-56765800D01*
X134703375Y-56810270D01*
X134513847Y-56936908D01*
X131499295Y-59951460D01*
X131372657Y-60140988D01*
X131328187Y-60364552D01*
X131328187Y-82138513D01*
X130996897Y-82469803D01*
X130828471Y-82469656D01*
X130523228Y-82595780D01*
X130289485Y-82829115D01*
X130162828Y-83134138D01*
X130162540Y-83464413D01*
X87330188Y-83464413D01*
X87330344Y-83285587D01*
X87204220Y-82980344D01*
X86970885Y-82746601D01*
X86665862Y-82619944D01*
X86495980Y-82619796D01*
X86081297Y-82205113D01*
X86081297Y-62213440D01*
X86036827Y-61989876D01*
X85910189Y-61800348D01*
X83906749Y-59796908D01*
X83881971Y-59780352D01*
X83717221Y-59670270D01*
X83493657Y-59625800D01*
X76102048Y-59625800D01*
X75976362Y-59437698D01*
X75622027Y-59200939D01*
X75204060Y-59117800D01*
X74675940Y-59117800D01*
X74257973Y-59200939D01*
X73903638Y-59437698D01*
X73736669Y-59687585D01*
X73736669Y-59448000D01*
X73713644Y-59325635D01*
X73641327Y-59213251D01*
X73530983Y-59137856D01*
X73400000Y-59111331D01*
X71400000Y-59111331D01*
X71277635Y-59134356D01*
X71165251Y-59206673D01*
X71089856Y-59317017D01*
X71063331Y-59448000D01*
X66205200Y-59448000D01*
X66205200Y-54800200D01*
X151094800Y-54800200D01*
X151094800Y-133544800D01*
X151094800Y-133544800D01*
G37*
X151094800Y-133544800D02*
X110387343Y-133544800D01*
X110387343Y-130719800D01*
X107012657Y-130719800D01*
X107012657Y-133544800D01*
X66205200Y-133544800D01*
X66205200Y-123292658D01*
X71814413Y-123292658D01*
X72153985Y-124114485D01*
X72782208Y-124743805D01*
X73603441Y-125084811D01*
X74492658Y-125085587D01*
X75314485Y-124746015D01*
X75943805Y-124117792D01*
X76284811Y-123296559D01*
X76285012Y-123065903D01*
X81599611Y-123065903D01*
X81765235Y-123466742D01*
X82071645Y-123773687D01*
X82472194Y-123940010D01*
X82905903Y-123940389D01*
X83306742Y-123774765D01*
X83613687Y-123468355D01*
X83780010Y-123067806D01*
X83780389Y-122634097D01*
X83614765Y-122233258D01*
X83308355Y-121926313D01*
X82907806Y-121759990D01*
X82474097Y-121759611D01*
X82073258Y-121925235D01*
X81766313Y-122231645D01*
X81599990Y-122632194D01*
X81599611Y-123065903D01*
X76285012Y-123065903D01*
X76285587Y-122407342D01*
X75946015Y-121585515D01*
X75317792Y-120956195D01*
X74496559Y-120615189D01*
X73607342Y-120614413D01*
X72785515Y-120953985D01*
X72156195Y-121582208D01*
X71815189Y-122403441D01*
X71814413Y-123292658D01*
X66205200Y-123292658D01*
X66205200Y-119550000D01*
X80193331Y-119550000D01*
X80193331Y-121070000D01*
X80216356Y-121192365D01*
X80288673Y-121304749D01*
X80399017Y-121380144D01*
X80530000Y-121406669D01*
X82050000Y-121406669D01*
X82172365Y-121383644D01*
X82284749Y-121311327D01*
X82360144Y-121200983D01*
X82386669Y-121070000D01*
X82386669Y-120525903D01*
X82989611Y-120525903D01*
X83155235Y-120926742D01*
X83461645Y-121233687D01*
X83862194Y-121400010D01*
X84295903Y-121400389D01*
X84696742Y-121234765D01*
X84972000Y-120959987D01*
X84972000Y-121880304D01*
X84863258Y-121925235D01*
X84556313Y-122231645D01*
X84389990Y-122632194D01*
X84389611Y-123065903D01*
X84555235Y-123466742D01*
X84861645Y-123773687D01*
X85262194Y-123940010D01*
X85695903Y-123940389D01*
X86096742Y-123774765D01*
X86403687Y-123468355D01*
X86570010Y-123067806D01*
X86570011Y-123065903D01*
X87059611Y-123065903D01*
X87225235Y-123466742D01*
X87531645Y-123773687D01*
X87932194Y-123940010D01*
X88365903Y-123940389D01*
X88766742Y-123774765D01*
X89073687Y-123468355D01*
X89240010Y-123067806D01*
X89240011Y-123065903D01*
X89849611Y-123065903D01*
X90015235Y-123466742D01*
X90321645Y-123773687D01*
X90722194Y-123940010D01*
X91155903Y-123940389D01*
X91556742Y-123774765D01*
X91863687Y-123468355D01*
X91936642Y-123292658D01*
X97214413Y-123292658D01*
X97553985Y-124114485D01*
X98182208Y-124743805D01*
X99003441Y-125084811D01*
X99892658Y-125085587D01*
X100714485Y-124746015D01*
X101343805Y-124117792D01*
X101684811Y-123296559D01*
X101684814Y-123292658D01*
X115274413Y-123292658D01*
X115613985Y-124114485D01*
X116242208Y-124743805D01*
X117063441Y-125084811D01*
X117952658Y-125085587D01*
X118774485Y-124746015D01*
X119403805Y-124117792D01*
X119744811Y-123296559D01*
X119745012Y-123065903D01*
X125059611Y-123065903D01*
X125225235Y-123466742D01*
X125531645Y-123773687D01*
X125932194Y-123940010D01*
X126365903Y-123940389D01*
X126766742Y-123774765D01*
X127073687Y-123468355D01*
X127240010Y-123067806D01*
X127240389Y-122634097D01*
X127074765Y-122233258D01*
X126768355Y-121926313D01*
X126367806Y-121759990D01*
X125934097Y-121759611D01*
X125533258Y-121925235D01*
X125226313Y-122231645D01*
X125059990Y-122632194D01*
X125059611Y-123065903D01*
X119745012Y-123065903D01*
X119745587Y-122407342D01*
X119406015Y-121585515D01*
X118777792Y-120956195D01*
X117956559Y-120615189D01*
X117067342Y-120614413D01*
X116245515Y-120953985D01*
X115616195Y-121582208D01*
X115275189Y-122403441D01*
X115274413Y-123292658D01*
X101684814Y-123292658D01*
X101685587Y-122407342D01*
X101346015Y-121585515D01*
X100717792Y-120956195D01*
X99896559Y-120615189D01*
X99007342Y-120614413D01*
X98185515Y-120953985D01*
X97556195Y-121582208D01*
X97215189Y-122403441D01*
X97214413Y-123292658D01*
X91936642Y-123292658D01*
X92030010Y-123067806D01*
X92030389Y-122634097D01*
X91864765Y-122233258D01*
X91558355Y-121926313D01*
X91157806Y-121759990D01*
X90724097Y-121759611D01*
X90323258Y-121925235D01*
X90016313Y-122231645D01*
X89849990Y-122632194D01*
X89849611Y-123065903D01*
X89240011Y-123065903D01*
X89240389Y-122634097D01*
X89074765Y-122233258D01*
X88768355Y-121926313D01*
X88367806Y-121759990D01*
X87934097Y-121759611D01*
X87533258Y-121925235D01*
X87226313Y-122231645D01*
X87059990Y-122632194D01*
X87059611Y-123065903D01*
X86570011Y-123065903D01*
X86570389Y-122634097D01*
X86404765Y-122233258D01*
X86098355Y-121926313D01*
X85988000Y-121880489D01*
X85988000Y-121381608D01*
X86080842Y-121288766D01*
X86150059Y-121530742D01*
X86672780Y-121717155D01*
X87227049Y-121689341D01*
X87609941Y-121530742D01*
X87679159Y-121288764D01*
X86880000Y-120489605D01*
X86865858Y-120503748D01*
X86686253Y-120324143D01*
X86700395Y-120310000D01*
X87059605Y-120310000D01*
X87858764Y-121109159D01*
X88100742Y-121039941D01*
X88284058Y-120525903D01*
X88449611Y-120525903D01*
X88615235Y-120926742D01*
X88921645Y-121233687D01*
X89322194Y-121400010D01*
X89755903Y-121400389D01*
X90156742Y-121234765D01*
X90463687Y-120928355D01*
X90630010Y-120527806D01*
X90630011Y-120525903D01*
X91249611Y-120525903D01*
X91415235Y-120926742D01*
X91721645Y-121233687D01*
X92122194Y-121400010D01*
X92555903Y-121400389D01*
X92956742Y-121234765D01*
X93263687Y-120928355D01*
X93430010Y-120527806D01*
X93430389Y-120094097D01*
X93264765Y-119693258D01*
X93121757Y-119550000D01*
X123653331Y-119550000D01*
X123653331Y-121070000D01*
X123676356Y-121192365D01*
X123748673Y-121304749D01*
X123859017Y-121380144D01*
X123990000Y-121406669D01*
X125510000Y-121406669D01*
X125632365Y-121383644D01*
X125744749Y-121311327D01*
X125820144Y-121200983D01*
X125846669Y-121070000D01*
X125846669Y-119550000D01*
X125823644Y-119427635D01*
X125751327Y-119315251D01*
X125640983Y-119239856D01*
X125510000Y-119213331D01*
X123990000Y-119213331D01*
X123867635Y-119236356D01*
X123755251Y-119308673D01*
X123679856Y-119419017D01*
X123653331Y-119550000D01*
X93121757Y-119550000D01*
X92958355Y-119386313D01*
X92557806Y-119219990D01*
X92124097Y-119219611D01*
X91723258Y-119385235D01*
X91416313Y-119691645D01*
X91249990Y-120092194D01*
X91249611Y-120525903D01*
X90630011Y-120525903D01*
X90630389Y-120094097D01*
X90464765Y-119693258D01*
X90158355Y-119386313D01*
X89757806Y-119219990D01*
X89324097Y-119219611D01*
X88923258Y-119385235D01*
X88616313Y-119691645D01*
X88449990Y-120092194D01*
X88449611Y-120525903D01*
X88284058Y-120525903D01*
X88287155Y-120517220D01*
X88259341Y-119962951D01*
X88100742Y-119580059D01*
X87858764Y-119510841D01*
X87059605Y-120310000D01*
X86700395Y-120310000D01*
X86686253Y-120295858D01*
X86865858Y-120116253D01*
X86880000Y-120130395D01*
X87679159Y-119331236D01*
X87609941Y-119089258D01*
X87087220Y-118902845D01*
X86532951Y-118930659D01*
X86150059Y-119089258D01*
X86080842Y-119331234D01*
X85988000Y-119238392D01*
X85988000Y-113575110D01*
X93921409Y-105606217D01*
X93973233Y-105528280D01*
X94025263Y-105450412D01*
X94025370Y-105449874D01*
X94025674Y-105449417D01*
X94043745Y-105357498D01*
X94061999Y-105265729D01*
X94061999Y-90080318D01*
X94091413Y-90080344D01*
X94396656Y-89954220D01*
X94630399Y-89720885D01*
X94757056Y-89415862D01*
X94757057Y-89414413D01*
X122142656Y-89414413D01*
X122268780Y-89719656D01*
X122502115Y-89953399D01*
X122807138Y-90080056D01*
X122838001Y-90080083D01*
X122838001Y-99465727D01*
X122874737Y-99650410D01*
X122979351Y-99806977D01*
X127888161Y-104715791D01*
X127863191Y-116067737D01*
X127863296Y-116068269D01*
X127863190Y-116068799D01*
X127863190Y-118205444D01*
X127289042Y-118779592D01*
X127180790Y-118851924D01*
X127070669Y-119016731D01*
X127032000Y-119211134D01*
X127032000Y-119340304D01*
X126923258Y-119385235D01*
X126616313Y-119691645D01*
X126449990Y-120092194D01*
X126449611Y-120525903D01*
X126615235Y-120926742D01*
X126921645Y-121233687D01*
X127322194Y-121400010D01*
X127755903Y-121400389D01*
X128156742Y-121234765D01*
X128457400Y-120934631D01*
X128457400Y-121869808D01*
X128323258Y-121925235D01*
X128016313Y-122231645D01*
X127849990Y-122632194D01*
X127849611Y-123065903D01*
X128015235Y-123466742D01*
X128321645Y-123773687D01*
X128722194Y-123940010D01*
X129155903Y-123940389D01*
X129556742Y-123774765D01*
X129863687Y-123468355D01*
X130030010Y-123067806D01*
X130030011Y-123065903D01*
X130519611Y-123065903D01*
X130685235Y-123466742D01*
X130991645Y-123773687D01*
X131392194Y-123940010D01*
X131825903Y-123940389D01*
X132226742Y-123774765D01*
X132533687Y-123468355D01*
X132700010Y-123067806D01*
X132700011Y-123065903D01*
X133309611Y-123065903D01*
X133475235Y-123466742D01*
X133781645Y-123773687D01*
X134182194Y-123940010D01*
X134615903Y-123940389D01*
X135016742Y-123774765D01*
X135323687Y-123468355D01*
X135396642Y-123292658D01*
X140674413Y-123292658D01*
X141013985Y-124114485D01*
X141642208Y-124743805D01*
X142463441Y-125084811D01*
X143352658Y-125085587D01*
X144174485Y-124746015D01*
X144803805Y-124117792D01*
X145144811Y-123296559D01*
X145145587Y-122407342D01*
X144806015Y-121585515D01*
X144177792Y-120956195D01*
X143356559Y-120615189D01*
X142467342Y-120614413D01*
X141645515Y-120953985D01*
X141016195Y-121582208D01*
X140675189Y-122403441D01*
X140674413Y-123292658D01*
X135396642Y-123292658D01*
X135490010Y-123067806D01*
X135490389Y-122634097D01*
X135324765Y-122233258D01*
X135018355Y-121926313D01*
X134617806Y-121759990D01*
X134184097Y-121759611D01*
X133783258Y-121925235D01*
X133476313Y-122231645D01*
X133309990Y-122632194D01*
X133309611Y-123065903D01*
X132700011Y-123065903D01*
X132700389Y-122634097D01*
X132534765Y-122233258D01*
X132228355Y-121926313D01*
X131827806Y-121759990D01*
X131394097Y-121759611D01*
X130993258Y-121925235D01*
X130686313Y-122231645D01*
X130519990Y-122632194D01*
X130519611Y-123065903D01*
X130030011Y-123065903D01*
X130030389Y-122634097D01*
X129864765Y-122233258D01*
X129558355Y-121926313D01*
X129422600Y-121869942D01*
X129422600Y-121400560D01*
X129425824Y-121403784D01*
X129540842Y-121288766D01*
X129610059Y-121530742D01*
X130132780Y-121717155D01*
X130687049Y-121689341D01*
X131069941Y-121530742D01*
X131139159Y-121288764D01*
X130340000Y-120489605D01*
X130325858Y-120503748D01*
X130146253Y-120324143D01*
X130160395Y-120310000D01*
X130519605Y-120310000D01*
X131318764Y-121109159D01*
X131560742Y-121039941D01*
X131744058Y-120525903D01*
X131909611Y-120525903D01*
X132075235Y-120926742D01*
X132381645Y-121233687D01*
X132782194Y-121400010D01*
X133215903Y-121400389D01*
X133616742Y-121234765D01*
X133923687Y-120928355D01*
X134090010Y-120527806D01*
X134090011Y-120525903D01*
X134709611Y-120525903D01*
X134875235Y-120926742D01*
X135181645Y-121233687D01*
X135582194Y-121400010D01*
X136015903Y-121400389D01*
X136416742Y-121234765D01*
X136723687Y-120928355D01*
X136890010Y-120527806D01*
X136890389Y-120094097D01*
X136724765Y-119693258D01*
X136418355Y-119386313D01*
X136017806Y-119219990D01*
X135584097Y-119219611D01*
X135183258Y-119385235D01*
X134876313Y-119691645D01*
X134709990Y-120092194D01*
X134709611Y-120525903D01*
X134090011Y-120525903D01*
X134090389Y-120094097D01*
X133924765Y-119693258D01*
X133618355Y-119386313D01*
X133217806Y-119219990D01*
X132784097Y-119219611D01*
X132383258Y-119385235D01*
X132076313Y-119691645D01*
X131909990Y-120092194D01*
X131909611Y-120525903D01*
X131744058Y-120525903D01*
X131747155Y-120517220D01*
X131719341Y-119962951D01*
X131560742Y-119580059D01*
X131318764Y-119510841D01*
X130519605Y-120310000D01*
X130160395Y-120310000D01*
X130146253Y-120295858D01*
X130325858Y-120116253D01*
X130340000Y-120130395D01*
X131139159Y-119331236D01*
X131069941Y-119089258D01*
X130547220Y-118902845D01*
X129992951Y-118930659D01*
X129610059Y-119089258D01*
X129540842Y-119331234D01*
X129425824Y-119216216D01*
X129415871Y-119226169D01*
X129412600Y-119209727D01*
X129412600Y-105930000D01*
X142163740Y-105930000D01*
X142246879Y-106347967D01*
X142483638Y-106702302D01*
X142837973Y-106939061D01*
X143255940Y-107022200D01*
X143784060Y-107022200D01*
X144202027Y-106939061D01*
X144556362Y-106702302D01*
X144620110Y-106606896D01*
X144752980Y-106843892D01*
X145184086Y-107183422D01*
X145242972Y-107200000D01*
X145184086Y-107216578D01*
X144752980Y-107556108D01*
X144620110Y-107793104D01*
X144556362Y-107697698D01*
X144202027Y-107460939D01*
X143784060Y-107377800D01*
X143255940Y-107377800D01*
X142837973Y-107460939D01*
X142483638Y-107697698D01*
X142246879Y-108052033D01*
X142163740Y-108470000D01*
X142246879Y-108887967D01*
X142483638Y-109242302D01*
X142837973Y-109479061D01*
X143255940Y-109562200D01*
X143784060Y-109562200D01*
X144202027Y-109479061D01*
X144556362Y-109242302D01*
X144620110Y-109146896D01*
X144752980Y-109383892D01*
X145184086Y-109723422D01*
X145712308Y-109872130D01*
X145933000Y-109713277D01*
X145933000Y-108597000D01*
X146187000Y-108597000D01*
X146187000Y-109713277D01*
X146407692Y-109872130D01*
X146935914Y-109723422D01*
X147367020Y-109383892D01*
X147635377Y-108905230D01*
X147652220Y-108813070D01*
X147529720Y-108597000D01*
X146187000Y-108597000D01*
X145933000Y-108597000D01*
X145913000Y-108597000D01*
X145913000Y-108343000D01*
X145933000Y-108343000D01*
X145933000Y-107226723D01*
X145895874Y-107200000D01*
X145933000Y-107173277D01*
X145933000Y-106057000D01*
X146187000Y-106057000D01*
X146187000Y-107173277D01*
X146224126Y-107200000D01*
X146187000Y-107226723D01*
X146187000Y-108343000D01*
X147529720Y-108343000D01*
X147652220Y-108126930D01*
X147635377Y-108034770D01*
X147367020Y-107556108D01*
X146935914Y-107216578D01*
X146877028Y-107200000D01*
X146935914Y-107183422D01*
X147367020Y-106843892D01*
X147635377Y-106365230D01*
X147652220Y-106273070D01*
X147529720Y-106057000D01*
X146187000Y-106057000D01*
X145933000Y-106057000D01*
X145913000Y-106057000D01*
X145913000Y-105803000D01*
X145933000Y-105803000D01*
X145933000Y-104686723D01*
X146187000Y-104686723D01*
X146187000Y-105803000D01*
X147529720Y-105803000D01*
X147652220Y-105586930D01*
X147635377Y-105494770D01*
X147367020Y-105016108D01*
X146935914Y-104676578D01*
X146407692Y-104527870D01*
X146187000Y-104686723D01*
X145933000Y-104686723D01*
X145712308Y-104527870D01*
X145184086Y-104676578D01*
X144752980Y-105016108D01*
X144620110Y-105253104D01*
X144556362Y-105157698D01*
X144202027Y-104920939D01*
X143784060Y-104837800D01*
X143255940Y-104837800D01*
X142837973Y-104920939D01*
X142483638Y-105157698D01*
X142246879Y-105512033D01*
X142163740Y-105930000D01*
X129412600Y-105930000D01*
X129412600Y-104284870D01*
X129375864Y-104100187D01*
X129271250Y-103943620D01*
X129271247Y-103943618D01*
X128717630Y-103390000D01*
X142163740Y-103390000D01*
X142246879Y-103807967D01*
X142483638Y-104162302D01*
X142837973Y-104399061D01*
X143255940Y-104482200D01*
X143784060Y-104482200D01*
X144202027Y-104399061D01*
X144556362Y-104162302D01*
X144790000Y-103812638D01*
X145023638Y-104162302D01*
X145377973Y-104399061D01*
X145795940Y-104482200D01*
X146324060Y-104482200D01*
X146742027Y-104399061D01*
X147096362Y-104162302D01*
X147333121Y-103807967D01*
X147416260Y-103390000D01*
X147333121Y-102972033D01*
X147096362Y-102617698D01*
X146742027Y-102380939D01*
X146324060Y-102297800D01*
X145795940Y-102297800D01*
X145377973Y-102380939D01*
X145023638Y-102617698D01*
X144790000Y-102967362D01*
X144556362Y-102617698D01*
X144202027Y-102380939D01*
X143784060Y-102297800D01*
X143255940Y-102297800D01*
X142837973Y-102380939D01*
X142483638Y-102617698D01*
X142246879Y-102972033D01*
X142163740Y-103390000D01*
X128717630Y-103390000D01*
X126177630Y-100850000D01*
X142163740Y-100850000D01*
X142246879Y-101267967D01*
X142483638Y-101622302D01*
X142837973Y-101859061D01*
X143255940Y-101942200D01*
X143784060Y-101942200D01*
X144202027Y-101859061D01*
X144556362Y-101622302D01*
X144790000Y-101272638D01*
X145023638Y-101622302D01*
X145377973Y-101859061D01*
X145795940Y-101942200D01*
X146324060Y-101942200D01*
X146742027Y-101859061D01*
X147096362Y-101622302D01*
X147333121Y-101267967D01*
X147416260Y-100850000D01*
X147333121Y-100432033D01*
X147096362Y-100077698D01*
X146742027Y-99840939D01*
X146324060Y-99757800D01*
X145795940Y-99757800D01*
X145377973Y-99840939D01*
X145023638Y-100077698D01*
X144790000Y-100427362D01*
X144556362Y-100077698D01*
X144202027Y-99840939D01*
X143784060Y-99757800D01*
X143255940Y-99757800D01*
X142837973Y-99840939D01*
X142483638Y-100077698D01*
X142246879Y-100432033D01*
X142163740Y-100850000D01*
X126177630Y-100850000D01*
X124361999Y-99034369D01*
X124361999Y-90080318D01*
X124391413Y-90080344D01*
X124696656Y-89954220D01*
X124930399Y-89720885D01*
X125057056Y-89415862D01*
X125057344Y-89085587D01*
X124931220Y-88780344D01*
X124697885Y-88546601D01*
X124392862Y-88419944D01*
X124062587Y-88419656D01*
X123757344Y-88545780D01*
X123599930Y-88702919D01*
X123443885Y-88546601D01*
X123138862Y-88419944D01*
X122808587Y-88419656D01*
X122503344Y-88545780D01*
X122269601Y-88779115D01*
X122142944Y-89084138D01*
X122142656Y-89414413D01*
X94757057Y-89414413D01*
X94757344Y-89085587D01*
X94631220Y-88780344D01*
X94397885Y-88546601D01*
X94092862Y-88419944D01*
X93762587Y-88419656D01*
X93457344Y-88545780D01*
X93299930Y-88702919D01*
X93143885Y-88546601D01*
X92838862Y-88419944D01*
X92508587Y-88419656D01*
X92203344Y-88545780D01*
X91969601Y-88779115D01*
X91842944Y-89084138D01*
X91842656Y-89414413D01*
X91968780Y-89719656D01*
X92202115Y-89953399D01*
X92507138Y-90080056D01*
X92538001Y-90080083D01*
X92538001Y-104833719D01*
X84937208Y-112399644D01*
X84827691Y-112472821D01*
X84249826Y-113050687D01*
X84139705Y-113215494D01*
X84101036Y-113409897D01*
X84101036Y-119219818D01*
X83864097Y-119219611D01*
X83463258Y-119385235D01*
X83156313Y-119691645D01*
X82989990Y-120092194D01*
X82989611Y-120525903D01*
X82386669Y-120525903D01*
X82386669Y-119550000D01*
X82363644Y-119427635D01*
X82291327Y-119315251D01*
X82180983Y-119239856D01*
X82050000Y-119213331D01*
X80530000Y-119213331D01*
X80407635Y-119236356D01*
X80295251Y-119308673D01*
X80219856Y-119419017D01*
X80193331Y-119550000D01*
X66205200Y-119550000D01*
X66205200Y-108813070D01*
X70807780Y-108813070D01*
X70824623Y-108905230D01*
X71092980Y-109383892D01*
X71524086Y-109723422D01*
X72052308Y-109872130D01*
X72273000Y-109713277D01*
X72273000Y-108597000D01*
X70930280Y-108597000D01*
X70807780Y-108813070D01*
X66205200Y-108813070D01*
X66205200Y-106273070D01*
X70807780Y-106273070D01*
X70824623Y-106365230D01*
X71092980Y-106843892D01*
X71524086Y-107183422D01*
X71582972Y-107200000D01*
X71524086Y-107216578D01*
X71092980Y-107556108D01*
X70824623Y-108034770D01*
X70807780Y-108126930D01*
X70930280Y-108343000D01*
X72273000Y-108343000D01*
X72273000Y-107226723D01*
X72235874Y-107200000D01*
X72273000Y-107173277D01*
X72273000Y-106057000D01*
X70930280Y-106057000D01*
X70807780Y-106273070D01*
X66205200Y-106273070D01*
X66205200Y-105586930D01*
X70807780Y-105586930D01*
X70930280Y-105803000D01*
X72273000Y-105803000D01*
X72273000Y-104686723D01*
X72527000Y-104686723D01*
X72527000Y-105803000D01*
X72547000Y-105803000D01*
X72547000Y-106057000D01*
X72527000Y-106057000D01*
X72527000Y-107173277D01*
X72564126Y-107200000D01*
X72527000Y-107226723D01*
X72527000Y-108343000D01*
X72547000Y-108343000D01*
X72547000Y-108597000D01*
X72527000Y-108597000D01*
X72527000Y-109713277D01*
X72747692Y-109872130D01*
X73275914Y-109723422D01*
X73707020Y-109383892D01*
X73839890Y-109146896D01*
X73903638Y-109242302D01*
X74257973Y-109479061D01*
X74675940Y-109562200D01*
X75204060Y-109562200D01*
X75622027Y-109479061D01*
X75976362Y-109242302D01*
X76213121Y-108887967D01*
X76296260Y-108470000D01*
X76213121Y-108052033D01*
X75976362Y-107697698D01*
X75622027Y-107460939D01*
X75204060Y-107377800D01*
X74675940Y-107377800D01*
X74257973Y-107460939D01*
X73903638Y-107697698D01*
X73839890Y-107793104D01*
X73707020Y-107556108D01*
X73275914Y-107216578D01*
X73217028Y-107200000D01*
X73275914Y-107183422D01*
X73707020Y-106843892D01*
X73839890Y-106606896D01*
X73903638Y-106702302D01*
X74257973Y-106939061D01*
X74675940Y-107022200D01*
X75204060Y-107022200D01*
X75622027Y-106939061D01*
X75976362Y-106702302D01*
X76213121Y-106347967D01*
X76296260Y-105930000D01*
X76213121Y-105512033D01*
X75976362Y-105157698D01*
X75622027Y-104920939D01*
X75204060Y-104837800D01*
X74675940Y-104837800D01*
X74257973Y-104920939D01*
X73903638Y-105157698D01*
X73839890Y-105253104D01*
X73707020Y-105016108D01*
X73275914Y-104676578D01*
X72747692Y-104527870D01*
X72527000Y-104686723D01*
X72273000Y-104686723D01*
X72052308Y-104527870D01*
X71524086Y-104676578D01*
X71092980Y-105016108D01*
X70824623Y-105494770D01*
X70807780Y-105586930D01*
X66205200Y-105586930D01*
X66205200Y-103390000D01*
X71043740Y-103390000D01*
X71126879Y-103807967D01*
X71363638Y-104162302D01*
X71717973Y-104399061D01*
X72135940Y-104482200D01*
X72664060Y-104482200D01*
X73082027Y-104399061D01*
X73436362Y-104162302D01*
X73670000Y-103812638D01*
X73903638Y-104162302D01*
X74257973Y-104399061D01*
X74675940Y-104482200D01*
X75204060Y-104482200D01*
X75622027Y-104399061D01*
X75976362Y-104162302D01*
X76213121Y-103807967D01*
X76296260Y-103390000D01*
X76213121Y-102972033D01*
X75976362Y-102617698D01*
X75622027Y-102380939D01*
X75204060Y-102297800D01*
X74675940Y-102297800D01*
X74257973Y-102380939D01*
X73903638Y-102617698D01*
X73670000Y-102967362D01*
X73436362Y-102617698D01*
X73082027Y-102380939D01*
X72664060Y-102297800D01*
X72135940Y-102297800D01*
X71717973Y-102380939D01*
X71363638Y-102617698D01*
X71126879Y-102972033D01*
X71043740Y-103390000D01*
X66205200Y-103390000D01*
X66205200Y-100850000D01*
X71043740Y-100850000D01*
X71126879Y-101267967D01*
X71363638Y-101622302D01*
X71717973Y-101859061D01*
X72135940Y-101942200D01*
X72664060Y-101942200D01*
X73082027Y-101859061D01*
X73436362Y-101622302D01*
X73670000Y-101272638D01*
X73903638Y-101622302D01*
X74257973Y-101859061D01*
X74675940Y-101942200D01*
X75204060Y-101942200D01*
X75622027Y-101859061D01*
X75976362Y-101622302D01*
X76213121Y-101267967D01*
X76296260Y-100850000D01*
X76213121Y-100432033D01*
X75976362Y-100077698D01*
X75622027Y-99840939D01*
X75204060Y-99757800D01*
X74675940Y-99757800D01*
X74257973Y-99840939D01*
X73903638Y-100077698D01*
X73670000Y-100427362D01*
X73436362Y-100077698D01*
X73082027Y-99840939D01*
X72664060Y-99757800D01*
X72135940Y-99757800D01*
X71717973Y-99840939D01*
X71363638Y-100077698D01*
X71126879Y-100432033D01*
X71043740Y-100850000D01*
X66205200Y-100850000D01*
X66205200Y-98310000D01*
X71043740Y-98310000D01*
X71126879Y-98727967D01*
X71363638Y-99082302D01*
X71717973Y-99319061D01*
X72135940Y-99402200D01*
X72664060Y-99402200D01*
X73082027Y-99319061D01*
X73436362Y-99082302D01*
X73670000Y-98732638D01*
X73903638Y-99082302D01*
X74257973Y-99319061D01*
X74675940Y-99402200D01*
X75204060Y-99402200D01*
X75622027Y-99319061D01*
X75976362Y-99082302D01*
X76213121Y-98727967D01*
X76296260Y-98310000D01*
X76213121Y-97892033D01*
X75976362Y-97537698D01*
X75622027Y-97300939D01*
X75204060Y-97217800D01*
X74675940Y-97217800D01*
X74257973Y-97300939D01*
X73903638Y-97537698D01*
X73670000Y-97887362D01*
X73436362Y-97537698D01*
X73082027Y-97300939D01*
X72664060Y-97217800D01*
X72135940Y-97217800D01*
X71717973Y-97300939D01*
X71363638Y-97537698D01*
X71126879Y-97892033D01*
X71043740Y-98310000D01*
X66205200Y-98310000D01*
X66205200Y-95770000D01*
X71043740Y-95770000D01*
X71126879Y-96187967D01*
X71363638Y-96542302D01*
X71717973Y-96779061D01*
X72135940Y-96862200D01*
X72664060Y-96862200D01*
X73082027Y-96779061D01*
X73436362Y-96542302D01*
X73670000Y-96192638D01*
X73903638Y-96542302D01*
X74257973Y-96779061D01*
X74675940Y-96862200D01*
X75204060Y-96862200D01*
X75622027Y-96779061D01*
X75976362Y-96542302D01*
X76213121Y-96187967D01*
X76296260Y-95770000D01*
X76213121Y-95352033D01*
X75976362Y-94997698D01*
X75622027Y-94760939D01*
X75204060Y-94677800D01*
X74675940Y-94677800D01*
X74257973Y-94760939D01*
X73903638Y-94997698D01*
X73670000Y-95347362D01*
X73436362Y-94997698D01*
X73082027Y-94760939D01*
X72664060Y-94677800D01*
X72135940Y-94677800D01*
X71717973Y-94760939D01*
X71363638Y-94997698D01*
X71126879Y-95352033D01*
X71043740Y-95770000D01*
X66205200Y-95770000D01*
X66205200Y-93573070D01*
X70807780Y-93573070D01*
X70824623Y-93665230D01*
X71092980Y-94143892D01*
X71524086Y-94483422D01*
X72052308Y-94632130D01*
X72273000Y-94473277D01*
X72273000Y-93357000D01*
X70930280Y-93357000D01*
X70807780Y-93573070D01*
X66205200Y-93573070D01*
X66205200Y-91033070D01*
X70807780Y-91033070D01*
X70824623Y-91125230D01*
X71092980Y-91603892D01*
X71524086Y-91943422D01*
X71582972Y-91960000D01*
X71524086Y-91976578D01*
X71092980Y-92316108D01*
X70824623Y-92794770D01*
X70807780Y-92886930D01*
X70930280Y-93103000D01*
X72273000Y-93103000D01*
X72273000Y-91986723D01*
X72235874Y-91960000D01*
X72273000Y-91933277D01*
X72273000Y-90817000D01*
X70930280Y-90817000D01*
X70807780Y-91033070D01*
X66205200Y-91033070D01*
X66205200Y-90346930D01*
X70807780Y-90346930D01*
X70930280Y-90563000D01*
X72273000Y-90563000D01*
X72273000Y-89446723D01*
X72527000Y-89446723D01*
X72527000Y-90563000D01*
X72547000Y-90563000D01*
X72547000Y-90817000D01*
X72527000Y-90817000D01*
X72527000Y-91933277D01*
X72564126Y-91960000D01*
X72527000Y-91986723D01*
X72527000Y-93103000D01*
X72547000Y-93103000D01*
X72547000Y-93357000D01*
X72527000Y-93357000D01*
X72527000Y-94473277D01*
X72747692Y-94632130D01*
X73275914Y-94483422D01*
X73707020Y-94143892D01*
X73839890Y-93906896D01*
X73903638Y-94002302D01*
X74257973Y-94239061D01*
X74675940Y-94322200D01*
X75204060Y-94322200D01*
X75622027Y-94239061D01*
X75976362Y-94002302D01*
X76213121Y-93647967D01*
X76296260Y-93230000D01*
X76213121Y-92812033D01*
X75976362Y-92457698D01*
X75622027Y-92220939D01*
X75204060Y-92137800D01*
X74675940Y-92137800D01*
X74257973Y-92220939D01*
X73903638Y-92457698D01*
X73839890Y-92553104D01*
X73707020Y-92316108D01*
X73275914Y-91976578D01*
X73217028Y-91960000D01*
X73275914Y-91943422D01*
X73707020Y-91603892D01*
X73839890Y-91366896D01*
X73903638Y-91462302D01*
X74257973Y-91699061D01*
X74675940Y-91782200D01*
X75204060Y-91782200D01*
X75622027Y-91699061D01*
X75976362Y-91462302D01*
X76213121Y-91107967D01*
X76296260Y-90690000D01*
X76213121Y-90272033D01*
X75976362Y-89917698D01*
X75622027Y-89680939D01*
X75204060Y-89597800D01*
X74675940Y-89597800D01*
X74257973Y-89680939D01*
X73903638Y-89917698D01*
X73839890Y-90013104D01*
X73707020Y-89776108D01*
X73275914Y-89436578D01*
X72747692Y-89287870D01*
X72527000Y-89446723D01*
X72273000Y-89446723D01*
X72052308Y-89287870D01*
X71524086Y-89436578D01*
X71092980Y-89776108D01*
X70824623Y-90254770D01*
X70807780Y-90346930D01*
X66205200Y-90346930D01*
X66205200Y-88150000D01*
X71043740Y-88150000D01*
X71126879Y-88567967D01*
X71363638Y-88922302D01*
X71717973Y-89159061D01*
X72135940Y-89242200D01*
X72664060Y-89242200D01*
X73082027Y-89159061D01*
X73436362Y-88922302D01*
X73670000Y-88572638D01*
X73903638Y-88922302D01*
X74257973Y-89159061D01*
X74675940Y-89242200D01*
X75204060Y-89242200D01*
X75622027Y-89159061D01*
X75976362Y-88922302D01*
X76213121Y-88567967D01*
X76296260Y-88150000D01*
X76213121Y-87732033D01*
X75976362Y-87377698D01*
X75622027Y-87140939D01*
X75204060Y-87057800D01*
X74675940Y-87057800D01*
X74257973Y-87140939D01*
X73903638Y-87377698D01*
X73670000Y-87727362D01*
X73436362Y-87377698D01*
X73082027Y-87140939D01*
X72664060Y-87057800D01*
X72135940Y-87057800D01*
X71717973Y-87140939D01*
X71363638Y-87377698D01*
X71126879Y-87732033D01*
X71043740Y-88150000D01*
X66205200Y-88150000D01*
X66205200Y-85610000D01*
X71043740Y-85610000D01*
X71126879Y-86027967D01*
X71363638Y-86382302D01*
X71717973Y-86619061D01*
X72135940Y-86702200D01*
X72664060Y-86702200D01*
X73082027Y-86619061D01*
X73436362Y-86382302D01*
X73670000Y-86032638D01*
X73903638Y-86382302D01*
X74257973Y-86619061D01*
X74675940Y-86702200D01*
X75204060Y-86702200D01*
X75622027Y-86619061D01*
X75976362Y-86382302D01*
X76213121Y-86027967D01*
X76296260Y-85610000D01*
X76213121Y-85192033D01*
X75976362Y-84837698D01*
X75622027Y-84600939D01*
X75204060Y-84517800D01*
X74675940Y-84517800D01*
X74257973Y-84600939D01*
X73903638Y-84837698D01*
X73670000Y-85187362D01*
X73436362Y-84837698D01*
X73082027Y-84600939D01*
X72664060Y-84517800D01*
X72135940Y-84517800D01*
X71717973Y-84600939D01*
X71363638Y-84837698D01*
X71126879Y-85192033D01*
X71043740Y-85610000D01*
X66205200Y-85610000D01*
X66205200Y-83413070D01*
X70807780Y-83413070D01*
X70824623Y-83505230D01*
X71092980Y-83983892D01*
X71524086Y-84323422D01*
X72052308Y-84472130D01*
X72273000Y-84313277D01*
X72273000Y-83197000D01*
X70930280Y-83197000D01*
X70807780Y-83413070D01*
X66205200Y-83413070D01*
X66205200Y-80873070D01*
X70807780Y-80873070D01*
X70824623Y-80965230D01*
X71092980Y-81443892D01*
X71524086Y-81783422D01*
X71582972Y-81800000D01*
X71524086Y-81816578D01*
X71092980Y-82156108D01*
X70824623Y-82634770D01*
X70807780Y-82726930D01*
X70930280Y-82943000D01*
X72273000Y-82943000D01*
X72273000Y-81826723D01*
X72235874Y-81800000D01*
X72273000Y-81773277D01*
X72273000Y-80657000D01*
X70930280Y-80657000D01*
X70807780Y-80873070D01*
X66205200Y-80873070D01*
X66205200Y-80186930D01*
X70807780Y-80186930D01*
X70930280Y-80403000D01*
X72273000Y-80403000D01*
X72273000Y-79286723D01*
X72527000Y-79286723D01*
X72527000Y-80403000D01*
X72547000Y-80403000D01*
X72547000Y-80657000D01*
X72527000Y-80657000D01*
X72527000Y-81773277D01*
X72564126Y-81800000D01*
X72527000Y-81826723D01*
X72527000Y-82943000D01*
X72547000Y-82943000D01*
X72547000Y-83197000D01*
X72527000Y-83197000D01*
X72527000Y-84313277D01*
X72747692Y-84472130D01*
X73275914Y-84323422D01*
X73707020Y-83983892D01*
X73839890Y-83746896D01*
X73903638Y-83842302D01*
X74257973Y-84079061D01*
X74675940Y-84162200D01*
X75204060Y-84162200D01*
X75622027Y-84079061D01*
X75976362Y-83842302D01*
X76213121Y-83487967D01*
X76296260Y-83070000D01*
X76213121Y-82652033D01*
X75976362Y-82297698D01*
X75622027Y-82060939D01*
X75204060Y-81977800D01*
X74675940Y-81977800D01*
X74257973Y-82060939D01*
X73903638Y-82297698D01*
X73839890Y-82393104D01*
X73707020Y-82156108D01*
X73275914Y-81816578D01*
X73217028Y-81800000D01*
X73275914Y-81783422D01*
X73707020Y-81443892D01*
X73839890Y-81206896D01*
X73903638Y-81302302D01*
X74257973Y-81539061D01*
X74675940Y-81622200D01*
X75204060Y-81622200D01*
X75622027Y-81539061D01*
X75976362Y-81302302D01*
X76213121Y-80947967D01*
X76296260Y-80530000D01*
X76213121Y-80112033D01*
X75976362Y-79757698D01*
X75622027Y-79520939D01*
X75204060Y-79437800D01*
X74675940Y-79437800D01*
X74257973Y-79520939D01*
X73903638Y-79757698D01*
X73839890Y-79853104D01*
X73707020Y-79616108D01*
X73275914Y-79276578D01*
X72747692Y-79127870D01*
X72527000Y-79286723D01*
X72273000Y-79286723D01*
X72052308Y-79127870D01*
X71524086Y-79276578D01*
X71092980Y-79616108D01*
X70824623Y-80094770D01*
X70807780Y-80186930D01*
X66205200Y-80186930D01*
X66205200Y-77990000D01*
X71043740Y-77990000D01*
X71126879Y-78407967D01*
X71363638Y-78762302D01*
X71717973Y-78999061D01*
X72135940Y-79082200D01*
X72664060Y-79082200D01*
X73082027Y-78999061D01*
X73436362Y-78762302D01*
X73670000Y-78412638D01*
X73903638Y-78762302D01*
X74257973Y-78999061D01*
X74675940Y-79082200D01*
X75204060Y-79082200D01*
X75622027Y-78999061D01*
X75976362Y-78762302D01*
X76213121Y-78407967D01*
X76296260Y-77990000D01*
X76213121Y-77572033D01*
X75976362Y-77217698D01*
X75622027Y-76980939D01*
X75204060Y-76897800D01*
X74675940Y-76897800D01*
X74257973Y-76980939D01*
X73903638Y-77217698D01*
X73670000Y-77567362D01*
X73436362Y-77217698D01*
X73082027Y-76980939D01*
X72664060Y-76897800D01*
X72135940Y-76897800D01*
X71717973Y-76980939D01*
X71363638Y-77217698D01*
X71126879Y-77572033D01*
X71043740Y-77990000D01*
X66205200Y-77990000D01*
X66205200Y-75793070D01*
X70807780Y-75793070D01*
X70824623Y-75885230D01*
X71092980Y-76363892D01*
X71524086Y-76703422D01*
X72052308Y-76852130D01*
X72273000Y-76693277D01*
X72273000Y-75577000D01*
X70930280Y-75577000D01*
X70807780Y-75793070D01*
X66205200Y-75793070D01*
X66205200Y-73253070D01*
X70807780Y-73253070D01*
X70824623Y-73345230D01*
X71092980Y-73823892D01*
X71524086Y-74163422D01*
X71582972Y-74180000D01*
X71524086Y-74196578D01*
X71092980Y-74536108D01*
X70824623Y-75014770D01*
X70807780Y-75106930D01*
X70930280Y-75323000D01*
X72273000Y-75323000D01*
X72273000Y-74206723D01*
X72235874Y-74180000D01*
X72273000Y-74153277D01*
X72273000Y-73037000D01*
X70930280Y-73037000D01*
X70807780Y-73253070D01*
X66205200Y-73253070D01*
X66205200Y-72566930D01*
X70807780Y-72566930D01*
X70930280Y-72783000D01*
X72273000Y-72783000D01*
X72273000Y-71666723D01*
X72527000Y-71666723D01*
X72527000Y-72783000D01*
X72547000Y-72783000D01*
X72547000Y-73037000D01*
X72527000Y-73037000D01*
X72527000Y-74153277D01*
X72564126Y-74180000D01*
X72527000Y-74206723D01*
X72527000Y-75323000D01*
X72547000Y-75323000D01*
X72547000Y-75577000D01*
X72527000Y-75577000D01*
X72527000Y-76693277D01*
X72747692Y-76852130D01*
X73275914Y-76703422D01*
X73707020Y-76363892D01*
X73839890Y-76126896D01*
X73903638Y-76222302D01*
X74257973Y-76459061D01*
X74675940Y-76542200D01*
X75204060Y-76542200D01*
X75622027Y-76459061D01*
X75976362Y-76222302D01*
X76213121Y-75867967D01*
X76296260Y-75450000D01*
X76213121Y-75032033D01*
X75976362Y-74677698D01*
X75622027Y-74440939D01*
X75204060Y-74357800D01*
X74675940Y-74357800D01*
X74257973Y-74440939D01*
X73903638Y-74677698D01*
X73839890Y-74773104D01*
X73707020Y-74536108D01*
X73275914Y-74196578D01*
X73217028Y-74180000D01*
X73275914Y-74163422D01*
X73707020Y-73823892D01*
X73839890Y-73586896D01*
X73903638Y-73682302D01*
X74257973Y-73919061D01*
X74675940Y-74002200D01*
X75204060Y-74002200D01*
X75622027Y-73919061D01*
X75976362Y-73682302D01*
X76213121Y-73327967D01*
X76296260Y-72910000D01*
X76213121Y-72492033D01*
X75976362Y-72137698D01*
X75622027Y-71900939D01*
X75204060Y-71817800D01*
X74675940Y-71817800D01*
X74257973Y-71900939D01*
X73903638Y-72137698D01*
X73839890Y-72233104D01*
X73707020Y-71996108D01*
X73275914Y-71656578D01*
X72747692Y-71507870D01*
X72527000Y-71666723D01*
X72273000Y-71666723D01*
X72052308Y-71507870D01*
X71524086Y-71656578D01*
X71092980Y-71996108D01*
X70824623Y-72474770D01*
X70807780Y-72566930D01*
X66205200Y-72566930D01*
X66205200Y-70370000D01*
X71043740Y-70370000D01*
X71126879Y-70787967D01*
X71363638Y-71142302D01*
X71717973Y-71379061D01*
X72135940Y-71462200D01*
X72664060Y-71462200D01*
X73082027Y-71379061D01*
X73436362Y-71142302D01*
X73670000Y-70792638D01*
X73903638Y-71142302D01*
X74257973Y-71379061D01*
X74675940Y-71462200D01*
X75204060Y-71462200D01*
X75622027Y-71379061D01*
X75976362Y-71142302D01*
X76213121Y-70787967D01*
X76296260Y-70370000D01*
X76213121Y-69952033D01*
X75976362Y-69597698D01*
X75622027Y-69360939D01*
X75204060Y-69277800D01*
X74675940Y-69277800D01*
X74257973Y-69360939D01*
X73903638Y-69597698D01*
X73670000Y-69947362D01*
X73436362Y-69597698D01*
X73082027Y-69360939D01*
X72664060Y-69277800D01*
X72135940Y-69277800D01*
X71717973Y-69360939D01*
X71363638Y-69597698D01*
X71126879Y-69952033D01*
X71043740Y-70370000D01*
X66205200Y-70370000D01*
X66205200Y-68173070D01*
X70807780Y-68173070D01*
X70824623Y-68265230D01*
X71092980Y-68743892D01*
X71524086Y-69083422D01*
X72052308Y-69232130D01*
X72273000Y-69073277D01*
X72273000Y-67957000D01*
X70930280Y-67957000D01*
X70807780Y-68173070D01*
X66205200Y-68173070D01*
X66205200Y-65633070D01*
X70807780Y-65633070D01*
X70824623Y-65725230D01*
X71092980Y-66203892D01*
X71524086Y-66543422D01*
X71582972Y-66560000D01*
X71524086Y-66576578D01*
X71092980Y-66916108D01*
X70824623Y-67394770D01*
X70807780Y-67486930D01*
X70930280Y-67703000D01*
X72273000Y-67703000D01*
X72273000Y-66586723D01*
X72235874Y-66560000D01*
X72273000Y-66533277D01*
X72273000Y-65417000D01*
X70930280Y-65417000D01*
X70807780Y-65633070D01*
X66205200Y-65633070D01*
X66205200Y-63093070D01*
X70807780Y-63093070D01*
X70824623Y-63185230D01*
X71092980Y-63663892D01*
X71524086Y-64003422D01*
X71582972Y-64020000D01*
X71524086Y-64036578D01*
X71092980Y-64376108D01*
X70824623Y-64854770D01*
X70807780Y-64946930D01*
X70930280Y-65163000D01*
X72273000Y-65163000D01*
X72273000Y-64046723D01*
X72235874Y-64020000D01*
X72273000Y-63993277D01*
X72273000Y-62877000D01*
X70930280Y-62877000D01*
X70807780Y-63093070D01*
X66205200Y-63093070D01*
X66205200Y-62406930D01*
X70807780Y-62406930D01*
X70930280Y-62623000D01*
X72273000Y-62623000D01*
X72273000Y-61506723D01*
X72527000Y-61506723D01*
X72527000Y-62623000D01*
X72547000Y-62623000D01*
X72547000Y-62877000D01*
X72527000Y-62877000D01*
X72527000Y-63993277D01*
X72564126Y-64020000D01*
X72527000Y-64046723D01*
X72527000Y-65163000D01*
X72547000Y-65163000D01*
X72547000Y-65417000D01*
X72527000Y-65417000D01*
X72527000Y-66533277D01*
X72564126Y-66560000D01*
X72527000Y-66586723D01*
X72527000Y-67703000D01*
X72547000Y-67703000D01*
X72547000Y-67957000D01*
X72527000Y-67957000D01*
X72527000Y-69073277D01*
X72747692Y-69232130D01*
X73275914Y-69083422D01*
X73707020Y-68743892D01*
X73839890Y-68506896D01*
X73903638Y-68602302D01*
X74257973Y-68839061D01*
X74675940Y-68922200D01*
X75204060Y-68922200D01*
X75622027Y-68839061D01*
X75976362Y-68602302D01*
X76213121Y-68247967D01*
X76296260Y-67830000D01*
X76213121Y-67412033D01*
X75976362Y-67057698D01*
X75622027Y-66820939D01*
X75204060Y-66737800D01*
X74675940Y-66737800D01*
X74257973Y-66820939D01*
X73903638Y-67057698D01*
X73839890Y-67153104D01*
X73707020Y-66916108D01*
X73275914Y-66576578D01*
X73217028Y-66560000D01*
X73275914Y-66543422D01*
X73707020Y-66203892D01*
X73839890Y-65966896D01*
X73903638Y-66062302D01*
X74257973Y-66299061D01*
X74675940Y-66382200D01*
X75204060Y-66382200D01*
X75622027Y-66299061D01*
X75976362Y-66062302D01*
X76213121Y-65707967D01*
X76296260Y-65290000D01*
X76213121Y-64872033D01*
X75976362Y-64517698D01*
X75622027Y-64280939D01*
X75204060Y-64197800D01*
X74675940Y-64197800D01*
X74257973Y-64280939D01*
X73903638Y-64517698D01*
X73839890Y-64613104D01*
X73707020Y-64376108D01*
X73275914Y-64036578D01*
X73217028Y-64020000D01*
X73275914Y-64003422D01*
X73707020Y-63663892D01*
X73839890Y-63426896D01*
X73903638Y-63522302D01*
X74257973Y-63759061D01*
X74675940Y-63842200D01*
X75204060Y-63842200D01*
X75622027Y-63759061D01*
X75976362Y-63522302D01*
X76213121Y-63167967D01*
X76296260Y-62750000D01*
X76213121Y-62332033D01*
X75976362Y-61977698D01*
X75622027Y-61740939D01*
X75204060Y-61657800D01*
X74675940Y-61657800D01*
X74257973Y-61740939D01*
X73903638Y-61977698D01*
X73839890Y-62073104D01*
X73707020Y-61836108D01*
X73275914Y-61496578D01*
X72747692Y-61347870D01*
X72527000Y-61506723D01*
X72273000Y-61506723D01*
X72052308Y-61347870D01*
X71524086Y-61496578D01*
X71092980Y-61836108D01*
X70824623Y-62314770D01*
X70807780Y-62406930D01*
X66205200Y-62406930D01*
X66205200Y-59448000D01*
X71063331Y-59448000D01*
X71063331Y-60972000D01*
X71086356Y-61094365D01*
X71158673Y-61206749D01*
X71269017Y-61282144D01*
X71400000Y-61308669D01*
X73400000Y-61308669D01*
X73522365Y-61285644D01*
X73634749Y-61213327D01*
X73710144Y-61102983D01*
X73736669Y-60972000D01*
X73736669Y-60732415D01*
X73903638Y-60982302D01*
X74257973Y-61219061D01*
X74675940Y-61302200D01*
X75204060Y-61302200D01*
X75622027Y-61219061D01*
X75976362Y-60982302D01*
X76102048Y-60794200D01*
X83251673Y-60794200D01*
X84912897Y-62455424D01*
X84912897Y-82447097D01*
X84957367Y-82670661D01*
X85063242Y-82829115D01*
X85084005Y-82860189D01*
X85669803Y-83445987D01*
X85669656Y-83614413D01*
X85795780Y-83919656D01*
X86029115Y-84153399D01*
X86334138Y-84280056D01*
X86664413Y-84280344D01*
X86969656Y-84154220D01*
X87203399Y-83920885D01*
X87330056Y-83615862D01*
X87330188Y-83464413D01*
X130162540Y-83464413D01*
X130288664Y-83769656D01*
X130521999Y-84003399D01*
X130827022Y-84130056D01*
X131157297Y-84130344D01*
X131462540Y-84004220D01*
X131696283Y-83770885D01*
X131822940Y-83465862D01*
X131823088Y-83295980D01*
X132049068Y-83070000D01*
X142163740Y-83070000D01*
X142246879Y-83487967D01*
X142483638Y-83842302D01*
X142837973Y-84079061D01*
X143255940Y-84162200D01*
X143784060Y-84162200D01*
X144202027Y-84079061D01*
X144556362Y-83842302D01*
X144620110Y-83746896D01*
X144752980Y-83983892D01*
X145184086Y-84323422D01*
X145242972Y-84340000D01*
X145184086Y-84356578D01*
X144752980Y-84696108D01*
X144620110Y-84933104D01*
X144556362Y-84837698D01*
X144202027Y-84600939D01*
X143784060Y-84517800D01*
X143255940Y-84517800D01*
X142837973Y-84600939D01*
X142483638Y-84837698D01*
X142246879Y-85192033D01*
X142163740Y-85610000D01*
X142246879Y-86027967D01*
X142483638Y-86382302D01*
X142837973Y-86619061D01*
X143255940Y-86702200D01*
X143784060Y-86702200D01*
X144202027Y-86619061D01*
X144556362Y-86382302D01*
X144620110Y-86286896D01*
X144752980Y-86523892D01*
X145184086Y-86863422D01*
X145242972Y-86880000D01*
X145184086Y-86896578D01*
X144752980Y-87236108D01*
X144620110Y-87473104D01*
X144556362Y-87377698D01*
X144202027Y-87140939D01*
X143784060Y-87057800D01*
X143255940Y-87057800D01*
X142837973Y-87140939D01*
X142483638Y-87377698D01*
X142246879Y-87732033D01*
X142163740Y-88150000D01*
X142246879Y-88567967D01*
X142483638Y-88922302D01*
X142837973Y-89159061D01*
X143255940Y-89242200D01*
X143784060Y-89242200D01*
X144202027Y-89159061D01*
X144556362Y-88922302D01*
X144620110Y-88826896D01*
X144752980Y-89063892D01*
X145184086Y-89403422D01*
X145242972Y-89420000D01*
X145184086Y-89436578D01*
X144752980Y-89776108D01*
X144620110Y-90013104D01*
X144556362Y-89917698D01*
X144202027Y-89680939D01*
X143784060Y-89597800D01*
X143255940Y-89597800D01*
X142837973Y-89680939D01*
X142483638Y-89917698D01*
X142246879Y-90272033D01*
X142163740Y-90690000D01*
X142246879Y-91107967D01*
X142483638Y-91462302D01*
X142837973Y-91699061D01*
X143255940Y-91782200D01*
X143784060Y-91782200D01*
X144202027Y-91699061D01*
X144556362Y-91462302D01*
X144620110Y-91366896D01*
X144752980Y-91603892D01*
X145184086Y-91943422D01*
X145242972Y-91960000D01*
X145184086Y-91976578D01*
X144752980Y-92316108D01*
X144620110Y-92553104D01*
X144556362Y-92457698D01*
X144202027Y-92220939D01*
X143784060Y-92137800D01*
X143255940Y-92137800D01*
X142837973Y-92220939D01*
X142483638Y-92457698D01*
X142246879Y-92812033D01*
X142163740Y-93230000D01*
X142246879Y-93647967D01*
X142483638Y-94002302D01*
X142837973Y-94239061D01*
X143255940Y-94322200D01*
X143784060Y-94322200D01*
X144202027Y-94239061D01*
X144556362Y-94002302D01*
X144620110Y-93906896D01*
X144752980Y-94143892D01*
X145184086Y-94483422D01*
X145242972Y-94500000D01*
X145184086Y-94516578D01*
X144752980Y-94856108D01*
X144620110Y-95093104D01*
X144556362Y-94997698D01*
X144202027Y-94760939D01*
X143784060Y-94677800D01*
X143255940Y-94677800D01*
X142837973Y-94760939D01*
X142483638Y-94997698D01*
X142246879Y-95352033D01*
X142163740Y-95770000D01*
X142246879Y-96187967D01*
X142483638Y-96542302D01*
X142837973Y-96779061D01*
X143255940Y-96862200D01*
X143784060Y-96862200D01*
X144202027Y-96779061D01*
X144556362Y-96542302D01*
X144620110Y-96446896D01*
X144752980Y-96683892D01*
X145184086Y-97023422D01*
X145242972Y-97040000D01*
X145184086Y-97056578D01*
X144752980Y-97396108D01*
X144620110Y-97633104D01*
X144556362Y-97537698D01*
X144202027Y-97300939D01*
X143784060Y-97217800D01*
X143255940Y-97217800D01*
X142837973Y-97300939D01*
X142483638Y-97537698D01*
X142246879Y-97892033D01*
X142163740Y-98310000D01*
X142246879Y-98727967D01*
X142483638Y-99082302D01*
X142837973Y-99319061D01*
X143255940Y-99402200D01*
X143784060Y-99402200D01*
X144202027Y-99319061D01*
X144556362Y-99082302D01*
X144620110Y-98986896D01*
X144752980Y-99223892D01*
X145184086Y-99563422D01*
X145712308Y-99712130D01*
X145933000Y-99553277D01*
X145933000Y-98437000D01*
X146187000Y-98437000D01*
X146187000Y-99553277D01*
X146407692Y-99712130D01*
X146935914Y-99563422D01*
X147367020Y-99223892D01*
X147635377Y-98745230D01*
X147652220Y-98653070D01*
X147529720Y-98437000D01*
X146187000Y-98437000D01*
X145933000Y-98437000D01*
X145913000Y-98437000D01*
X145913000Y-98183000D01*
X145933000Y-98183000D01*
X145933000Y-97066723D01*
X145895874Y-97040000D01*
X145933000Y-97013277D01*
X145933000Y-95897000D01*
X146187000Y-95897000D01*
X146187000Y-97013277D01*
X146224126Y-97040000D01*
X146187000Y-97066723D01*
X146187000Y-98183000D01*
X147529720Y-98183000D01*
X147652220Y-97966930D01*
X147635377Y-97874770D01*
X147367020Y-97396108D01*
X146935914Y-97056578D01*
X146877028Y-97040000D01*
X146935914Y-97023422D01*
X147367020Y-96683892D01*
X147635377Y-96205230D01*
X147652220Y-96113070D01*
X147529720Y-95897000D01*
X146187000Y-95897000D01*
X145933000Y-95897000D01*
X145913000Y-95897000D01*
X145913000Y-95643000D01*
X145933000Y-95643000D01*
X145933000Y-94526723D01*
X145895874Y-94500000D01*
X145933000Y-94473277D01*
X145933000Y-93357000D01*
X146187000Y-93357000D01*
X146187000Y-94473277D01*
X146224126Y-94500000D01*
X146187000Y-94526723D01*
X146187000Y-95643000D01*
X147529720Y-95643000D01*
X147652220Y-95426930D01*
X147635377Y-95334770D01*
X147367020Y-94856108D01*
X146935914Y-94516578D01*
X146877028Y-94500000D01*
X146935914Y-94483422D01*
X147367020Y-94143892D01*
X147635377Y-93665230D01*
X147652220Y-93573070D01*
X147529720Y-93357000D01*
X146187000Y-93357000D01*
X145933000Y-93357000D01*
X145913000Y-93357000D01*
X145913000Y-93103000D01*
X145933000Y-93103000D01*
X145933000Y-91986723D01*
X145895874Y-91960000D01*
X145933000Y-91933277D01*
X145933000Y-90817000D01*
X146187000Y-90817000D01*
X146187000Y-91933277D01*
X146224126Y-91960000D01*
X146187000Y-91986723D01*
X146187000Y-93103000D01*
X147529720Y-93103000D01*
X147652220Y-92886930D01*
X147635377Y-92794770D01*
X147367020Y-92316108D01*
X146935914Y-91976578D01*
X146877028Y-91960000D01*
X146935914Y-91943422D01*
X147367020Y-91603892D01*
X147635377Y-91125230D01*
X147652220Y-91033070D01*
X147529720Y-90817000D01*
X146187000Y-90817000D01*
X145933000Y-90817000D01*
X145913000Y-90817000D01*
X145913000Y-90563000D01*
X145933000Y-90563000D01*
X145933000Y-89446723D01*
X145895874Y-89420000D01*
X145933000Y-89393277D01*
X145933000Y-88277000D01*
X146187000Y-88277000D01*
X146187000Y-89393277D01*
X146224126Y-89420000D01*
X146187000Y-89446723D01*
X146187000Y-90563000D01*
X147529720Y-90563000D01*
X147652220Y-90346930D01*
X147635377Y-90254770D01*
X147367020Y-89776108D01*
X146935914Y-89436578D01*
X146877028Y-89420000D01*
X146935914Y-89403422D01*
X147367020Y-89063892D01*
X147635377Y-88585230D01*
X147652220Y-88493070D01*
X147529720Y-88277000D01*
X146187000Y-88277000D01*
X145933000Y-88277000D01*
X145913000Y-88277000D01*
X145913000Y-88023000D01*
X145933000Y-88023000D01*
X145933000Y-86906723D01*
X145895874Y-86880000D01*
X145933000Y-86853277D01*
X145933000Y-85737000D01*
X146187000Y-85737000D01*
X146187000Y-86853277D01*
X146224126Y-86880000D01*
X146187000Y-86906723D01*
X146187000Y-88023000D01*
X147529720Y-88023000D01*
X147652220Y-87806930D01*
X147635377Y-87714770D01*
X147367020Y-87236108D01*
X146935914Y-86896578D01*
X146877028Y-86880000D01*
X146935914Y-86863422D01*
X147367020Y-86523892D01*
X147635377Y-86045230D01*
X147652220Y-85953070D01*
X147529720Y-85737000D01*
X146187000Y-85737000D01*
X145933000Y-85737000D01*
X145913000Y-85737000D01*
X145913000Y-85483000D01*
X145933000Y-85483000D01*
X145933000Y-84366723D01*
X145895874Y-84340000D01*
X145933000Y-84313277D01*
X145933000Y-83197000D01*
X146187000Y-83197000D01*
X146187000Y-84313277D01*
X146224126Y-84340000D01*
X146187000Y-84366723D01*
X146187000Y-85483000D01*
X147529720Y-85483000D01*
X147652220Y-85266930D01*
X147635377Y-85174770D01*
X147367020Y-84696108D01*
X146935914Y-84356578D01*
X146877028Y-84340000D01*
X146935914Y-84323422D01*
X147367020Y-83983892D01*
X147635377Y-83505230D01*
X147652220Y-83413070D01*
X147529720Y-83197000D01*
X146187000Y-83197000D01*
X145933000Y-83197000D01*
X145913000Y-83197000D01*
X145913000Y-82943000D01*
X145933000Y-82943000D01*
X145933000Y-81826723D01*
X146187000Y-81826723D01*
X146187000Y-82943000D01*
X147529720Y-82943000D01*
X147652220Y-82726930D01*
X147635377Y-82634770D01*
X147367020Y-82156108D01*
X146935914Y-81816578D01*
X146407692Y-81667870D01*
X146187000Y-81826723D01*
X145933000Y-81826723D01*
X145712308Y-81667870D01*
X145184086Y-81816578D01*
X144752980Y-82156108D01*
X144620110Y-82393104D01*
X144556362Y-82297698D01*
X144202027Y-82060939D01*
X143784060Y-81977800D01*
X143255940Y-81977800D01*
X142837973Y-82060939D01*
X142483638Y-82297698D01*
X142246879Y-82652033D01*
X142163740Y-83070000D01*
X132049068Y-83070000D01*
X132325479Y-82793589D01*
X132452118Y-82604060D01*
X132496588Y-82380497D01*
X132496587Y-82380492D01*
X132496587Y-80530000D01*
X142163740Y-80530000D01*
X142246879Y-80947967D01*
X142483638Y-81302302D01*
X142837973Y-81539061D01*
X143255940Y-81622200D01*
X143784060Y-81622200D01*
X144202027Y-81539061D01*
X144556362Y-81302302D01*
X144790000Y-80952638D01*
X145023638Y-81302302D01*
X145377973Y-81539061D01*
X145795940Y-81622200D01*
X146324060Y-81622200D01*
X146742027Y-81539061D01*
X147096362Y-81302302D01*
X147333121Y-80947967D01*
X147416260Y-80530000D01*
X147333121Y-80112033D01*
X147096362Y-79757698D01*
X146742027Y-79520939D01*
X146324060Y-79437800D01*
X145795940Y-79437800D01*
X145377973Y-79520939D01*
X145023638Y-79757698D01*
X144790000Y-80107362D01*
X144556362Y-79757698D01*
X144202027Y-79520939D01*
X143784060Y-79437800D01*
X143255940Y-79437800D01*
X142837973Y-79520939D01*
X142483638Y-79757698D01*
X142246879Y-80112033D01*
X142163740Y-80530000D01*
X132496587Y-80530000D01*
X132496587Y-77990000D01*
X142163740Y-77990000D01*
X142246879Y-78407967D01*
X142483638Y-78762302D01*
X142837973Y-78999061D01*
X143255940Y-79082200D01*
X143784060Y-79082200D01*
X144202027Y-78999061D01*
X144556362Y-78762302D01*
X144790000Y-78412638D01*
X145023638Y-78762302D01*
X145377973Y-78999061D01*
X145795940Y-79082200D01*
X146324060Y-79082200D01*
X146742027Y-78999061D01*
X147096362Y-78762302D01*
X147333121Y-78407967D01*
X147416260Y-77990000D01*
X147333121Y-77572033D01*
X147096362Y-77217698D01*
X146742027Y-76980939D01*
X146324060Y-76897800D01*
X145795940Y-76897800D01*
X145377973Y-76980939D01*
X145023638Y-77217698D01*
X144790000Y-77567362D01*
X144556362Y-77217698D01*
X144202027Y-76980939D01*
X143784060Y-76897800D01*
X143255940Y-76897800D01*
X142837973Y-76980939D01*
X142483638Y-77217698D01*
X142246879Y-77572033D01*
X142163740Y-77990000D01*
X132496587Y-77990000D01*
X132496587Y-75450000D01*
X142163740Y-75450000D01*
X142246879Y-75867967D01*
X142483638Y-76222302D01*
X142837973Y-76459061D01*
X143255940Y-76542200D01*
X143784060Y-76542200D01*
X144202027Y-76459061D01*
X144556362Y-76222302D01*
X144790000Y-75872638D01*
X145023638Y-76222302D01*
X145377973Y-76459061D01*
X145795940Y-76542200D01*
X146324060Y-76542200D01*
X146742027Y-76459061D01*
X147096362Y-76222302D01*
X147333121Y-75867967D01*
X147416260Y-75450000D01*
X147333121Y-75032033D01*
X147096362Y-74677698D01*
X146742027Y-74440939D01*
X146324060Y-74357800D01*
X145795940Y-74357800D01*
X145377973Y-74440939D01*
X145023638Y-74677698D01*
X144790000Y-75027362D01*
X144556362Y-74677698D01*
X144202027Y-74440939D01*
X143784060Y-74357800D01*
X143255940Y-74357800D01*
X142837973Y-74440939D01*
X142483638Y-74677698D01*
X142246879Y-75032033D01*
X142163740Y-75450000D01*
X132496587Y-75450000D01*
X132496587Y-72910000D01*
X142163740Y-72910000D01*
X142246879Y-73327967D01*
X142483638Y-73682302D01*
X142837973Y-73919061D01*
X143255940Y-74002200D01*
X143784060Y-74002200D01*
X144202027Y-73919061D01*
X144556362Y-73682302D01*
X144790000Y-73332638D01*
X145023638Y-73682302D01*
X145377973Y-73919061D01*
X145795940Y-74002200D01*
X146324060Y-74002200D01*
X146742027Y-73919061D01*
X147096362Y-73682302D01*
X147333121Y-73327967D01*
X147416260Y-72910000D01*
X147333121Y-72492033D01*
X147096362Y-72137698D01*
X146742027Y-71900939D01*
X146324060Y-71817800D01*
X145795940Y-71817800D01*
X145377973Y-71900939D01*
X145023638Y-72137698D01*
X144790000Y-72487362D01*
X144556362Y-72137698D01*
X144202027Y-71900939D01*
X143784060Y-71817800D01*
X143255940Y-71817800D01*
X142837973Y-71900939D01*
X142483638Y-72137698D01*
X142246879Y-72492033D01*
X142163740Y-72910000D01*
X132496587Y-72910000D01*
X132496587Y-70370000D01*
X142163740Y-70370000D01*
X142246879Y-70787967D01*
X142483638Y-71142302D01*
X142837973Y-71379061D01*
X143255940Y-71462200D01*
X143784060Y-71462200D01*
X144202027Y-71379061D01*
X144556362Y-71142302D01*
X144790000Y-70792638D01*
X145023638Y-71142302D01*
X145377973Y-71379061D01*
X145795940Y-71462200D01*
X146324060Y-71462200D01*
X146742027Y-71379061D01*
X147096362Y-71142302D01*
X147333121Y-70787967D01*
X147416260Y-70370000D01*
X147333121Y-69952033D01*
X147096362Y-69597698D01*
X146742027Y-69360939D01*
X146324060Y-69277800D01*
X145795940Y-69277800D01*
X145377973Y-69360939D01*
X145023638Y-69597698D01*
X144790000Y-69947362D01*
X144556362Y-69597698D01*
X144202027Y-69360939D01*
X143784060Y-69277800D01*
X143255940Y-69277800D01*
X142837973Y-69360939D01*
X142483638Y-69597698D01*
X142246879Y-69952033D01*
X142163740Y-70370000D01*
X132496587Y-70370000D01*
X132496587Y-67830000D01*
X142163740Y-67830000D01*
X142246879Y-68247967D01*
X142483638Y-68602302D01*
X142837973Y-68839061D01*
X143255940Y-68922200D01*
X143784060Y-68922200D01*
X144202027Y-68839061D01*
X144556362Y-68602302D01*
X144790000Y-68252638D01*
X145023638Y-68602302D01*
X145377973Y-68839061D01*
X145795940Y-68922200D01*
X146324060Y-68922200D01*
X146742027Y-68839061D01*
X147096362Y-68602302D01*
X147333121Y-68247967D01*
X147416260Y-67830000D01*
X147333121Y-67412033D01*
X147096362Y-67057698D01*
X146742027Y-66820939D01*
X146324060Y-66737800D01*
X145795940Y-66737800D01*
X145377973Y-66820939D01*
X145023638Y-67057698D01*
X144790000Y-67407362D01*
X144556362Y-67057698D01*
X144202027Y-66820939D01*
X143784060Y-66737800D01*
X143255940Y-66737800D01*
X142837973Y-66820939D01*
X142483638Y-67057698D01*
X142246879Y-67412033D01*
X142163740Y-67830000D01*
X132496587Y-67830000D01*
X132496587Y-65290000D01*
X142163740Y-65290000D01*
X142246879Y-65707967D01*
X142483638Y-66062302D01*
X142837973Y-66299061D01*
X143255940Y-66382200D01*
X143784060Y-66382200D01*
X144202027Y-66299061D01*
X144556362Y-66062302D01*
X144790000Y-65712638D01*
X145023638Y-66062302D01*
X145377973Y-66299061D01*
X145795940Y-66382200D01*
X146324060Y-66382200D01*
X146742027Y-66299061D01*
X147096362Y-66062302D01*
X147333121Y-65707967D01*
X147416260Y-65290000D01*
X147333121Y-64872033D01*
X147096362Y-64517698D01*
X146742027Y-64280939D01*
X146324060Y-64197800D01*
X145795940Y-64197800D01*
X145377973Y-64280939D01*
X145023638Y-64517698D01*
X144790000Y-64867362D01*
X144556362Y-64517698D01*
X144202027Y-64280939D01*
X143784060Y-64197800D01*
X143255940Y-64197800D01*
X142837973Y-64280939D01*
X142483638Y-64517698D01*
X142246879Y-64872033D01*
X142163740Y-65290000D01*
X132496587Y-65290000D01*
X132496587Y-62750000D01*
X142163740Y-62750000D01*
X142246879Y-63167967D01*
X142483638Y-63522302D01*
X142837973Y-63759061D01*
X143255940Y-63842200D01*
X143784060Y-63842200D01*
X144202027Y-63759061D01*
X144556362Y-63522302D01*
X144620110Y-63426896D01*
X144752980Y-63663892D01*
X145184086Y-64003422D01*
X145712308Y-64152130D01*
X145933000Y-63993277D01*
X145933000Y-62877000D01*
X146187000Y-62877000D01*
X146187000Y-63993277D01*
X146407692Y-64152130D01*
X146935914Y-64003422D01*
X147367020Y-63663892D01*
X147635377Y-63185230D01*
X147652220Y-63093070D01*
X147529720Y-62877000D01*
X146187000Y-62877000D01*
X145933000Y-62877000D01*
X145913000Y-62877000D01*
X145913000Y-62623000D01*
X145933000Y-62623000D01*
X145933000Y-61506723D01*
X146187000Y-61506723D01*
X146187000Y-62623000D01*
X147529720Y-62623000D01*
X147652220Y-62406930D01*
X147635377Y-62314770D01*
X147367020Y-61836108D01*
X146935914Y-61496578D01*
X146407692Y-61347870D01*
X146187000Y-61506723D01*
X145933000Y-61506723D01*
X145712308Y-61347870D01*
X145184086Y-61496578D01*
X144752980Y-61836108D01*
X144620110Y-62073104D01*
X144556362Y-61977698D01*
X144202027Y-61740939D01*
X143784060Y-61657800D01*
X143255940Y-61657800D01*
X142837973Y-61740939D01*
X142483638Y-61977698D01*
X142246879Y-62332033D01*
X142163740Y-62750000D01*
X132496587Y-62750000D01*
X132496587Y-60606536D01*
X135168923Y-57934200D01*
X144795023Y-57934200D01*
X145460450Y-58599627D01*
X145460450Y-59184533D01*
X145377973Y-59200939D01*
X145023638Y-59437698D01*
X144856669Y-59687585D01*
X144856669Y-59448000D01*
X144833644Y-59325635D01*
X144761327Y-59213251D01*
X144650983Y-59137856D01*
X144520000Y-59111331D01*
X142520000Y-59111331D01*
X142397635Y-59134356D01*
X142285251Y-59206673D01*
X142209856Y-59317017D01*
X142183331Y-59448000D01*
X142183331Y-60972000D01*
X142206356Y-61094365D01*
X142278673Y-61206749D01*
X142389017Y-61282144D01*
X142520000Y-61308669D01*
X144520000Y-61308669D01*
X144642365Y-61285644D01*
X144754749Y-61213327D01*
X144830144Y-61102983D01*
X144856669Y-60972000D01*
X144856669Y-60732415D01*
X145023638Y-60982302D01*
X145377973Y-61219061D01*
X145795940Y-61302200D01*
X146324060Y-61302200D01*
X146742027Y-61219061D01*
X147096362Y-60982302D01*
X147333121Y-60627967D01*
X147416260Y-60210000D01*
X147333121Y-59792033D01*
X147096362Y-59437698D01*
X146742027Y-59200939D01*
X146628850Y-59178427D01*
X146628850Y-58357643D01*
X146584380Y-58134079D01*
X146457742Y-57944551D01*
X145450099Y-56936908D01*
X145260571Y-56810270D01*
X145037007Y-56765800D01*
X134926939Y-56765800D01*
X134703375Y-56810270D01*
X134513847Y-56936908D01*
X131499295Y-59951460D01*
X131372657Y-60140988D01*
X131328187Y-60364552D01*
X131328187Y-82138513D01*
X130996897Y-82469803D01*
X130828471Y-82469656D01*
X130523228Y-82595780D01*
X130289485Y-82829115D01*
X130162828Y-83134138D01*
X130162540Y-83464413D01*
X87330188Y-83464413D01*
X87330344Y-83285587D01*
X87204220Y-82980344D01*
X86970885Y-82746601D01*
X86665862Y-82619944D01*
X86495980Y-82619796D01*
X86081297Y-82205113D01*
X86081297Y-62213440D01*
X86036827Y-61989876D01*
X85910189Y-61800348D01*
X83906749Y-59796908D01*
X83881971Y-59780352D01*
X83717221Y-59670270D01*
X83493657Y-59625800D01*
X76102048Y-59625800D01*
X75976362Y-59437698D01*
X75622027Y-59200939D01*
X75204060Y-59117800D01*
X74675940Y-59117800D01*
X74257973Y-59200939D01*
X73903638Y-59437698D01*
X73736669Y-59687585D01*
X73736669Y-59448000D01*
X73713644Y-59325635D01*
X73641327Y-59213251D01*
X73530983Y-59137856D01*
X73400000Y-59111331D01*
X71400000Y-59111331D01*
X71277635Y-59134356D01*
X71165251Y-59206673D01*
X71089856Y-59317017D01*
X71063331Y-59448000D01*
X66205200Y-59448000D01*
X66205200Y-54800200D01*
X151094800Y-54800200D01*
X151094800Y-133544800D01*
M02*
