M48
;DRILL file {KiCad 4.0.7-e2-6376~58~ubuntu16.04.1} date Thu Oct 11 01:20:11 2018
;FORMAT={-:-/ absolute / metric / decimal}
FMAT,2
METRIC,TZ
T1C0.500
T2C1.016
T3C1.020
T4C3.050
%
G90
G05
M71
T1
X86.5Y-83.45
X92.673Y-89.25
X93.927Y-89.25
X122.973Y-89.25
X124.227Y-89.25
X130.993Y-83.3
T2
X72.4Y-60.21
X72.4Y-62.75
X72.4Y-65.29
X72.4Y-67.83
X72.4Y-70.37
X72.4Y-72.91
X72.4Y-75.45
X72.4Y-77.99
X72.4Y-80.53
X72.4Y-83.07
X72.4Y-85.61
X72.4Y-88.15
X72.4Y-90.69
X72.4Y-93.23
X72.4Y-95.77
X72.4Y-98.31
X72.4Y-100.85
X72.4Y-103.39
X72.4Y-105.93
X72.4Y-108.47
X74.94Y-60.21
X74.94Y-62.75
X74.94Y-65.29
X74.94Y-67.83
X74.94Y-70.37
X74.94Y-72.91
X74.94Y-75.45
X74.94Y-77.99
X74.94Y-80.53
X74.94Y-83.07
X74.94Y-85.61
X74.94Y-88.15
X74.94Y-90.69
X74.94Y-93.23
X74.94Y-95.77
X74.94Y-98.31
X74.94Y-100.85
X74.94Y-103.39
X74.94Y-105.93
X74.94Y-108.47
X143.52Y-60.21
X143.52Y-62.75
X143.52Y-65.29
X143.52Y-67.83
X143.52Y-70.37
X143.52Y-72.91
X143.52Y-75.45
X143.52Y-77.99
X143.52Y-80.53
X143.52Y-83.07
X143.52Y-85.61
X143.52Y-88.15
X143.52Y-90.69
X143.52Y-93.23
X143.52Y-95.77
X143.52Y-98.31
X143.52Y-100.85
X143.52Y-103.39
X143.52Y-105.93
X143.52Y-108.47
X146.06Y-60.21
X146.06Y-62.75
X146.06Y-65.29
X146.06Y-67.83
X146.06Y-70.37
X146.06Y-72.91
X146.06Y-75.45
X146.06Y-77.99
X146.06Y-80.53
X146.06Y-83.07
X146.06Y-85.61
X146.06Y-88.15
X146.06Y-90.69
X146.06Y-93.23
X146.06Y-95.77
X146.06Y-98.31
X146.06Y-100.85
X146.06Y-103.39
X146.06Y-105.93
X146.06Y-108.47
T3
X81.29Y-120.31
X82.69Y-122.85
X84.08Y-120.31
X85.48Y-122.85
X86.88Y-120.31
X88.15Y-122.85
X89.54Y-120.31
X90.94Y-122.85
X92.34Y-120.31
X124.75Y-120.31
X126.15Y-122.85
X127.54Y-120.31
X128.94Y-122.85
X130.34Y-120.31
X131.61Y-122.85
X133.Y-120.31
X134.4Y-122.85
X135.8Y-120.31
T4
X74.05Y-122.85
X99.45Y-122.85
X117.51Y-122.85
X142.91Y-122.85
T0
M30
